<svg xmlns="http://www.w3.org/2000/svg" xmlns:xlink="http://www.w3.org/1999/xlink" xml:lang="en" height="221.97799999999995pt" width="413.0771985133333pt" viewBox="-100.73119851333334 -194.33799999999997 413.0771985133333 221.97799999999995"><circle cx="2.204364238465236e-15" cy="-36.0" r="18.0" style="stroke:blue;fill:none;stroke-width:2.0;stroke-dasharray:-;" /><circle cx="230.99999999999997" cy="-65.99999999999999" r="18.0" style="stroke:blue;fill:none;stroke-width:2.0;stroke-dasharray:-;" /><circle cx="230.99999999999997" cy="-138.0" r="18.0" style="stroke:blue;fill:none;stroke-width:2.0;stroke-dasharray:-;" /><path d="M 0.0,-0.0 L 0.0,14.4 L -9.0,14.4 L 9.0,14.4 M -6.3,18.72 L 6.3,18.72 M -1.8,23.04 L 1.8,23.04" style="stroke:black;fill:none;stroke-width:2.0;stroke-dasharray:-;stroke-linecap:round;stroke-linejoin:round;" /><path d="M 0.0,-0.0 L 1.102182119232618e-15,-18.0 L 1.102182119232618e-15,-18.0 M 3.3065463576978533e-15,-54.0 L 3.3065463576978533e-15,-54.0 L 4.408728476930472e-15,-72.0" style="stroke:blue;fill:none;stroke-width:2.0;stroke-dasharray:-;stroke-linecap:round;stroke-linejoin:round;" /><path d="M 9.000000000000002,-36.0 L 8.250000000000002,-37.86349712473816 L 7.500000000000003,-39.6 L 6.750000000000003,-41.091168824543146 L 6.0000000000000036,-42.23538290724795 L 5.2500000000000036,-42.95466594928129 L 4.500000000000003,-43.199999999999996 L 3.750000000000003,-42.9546659492813 L 3.0000000000000027,-42.23538290724795 L 2.2500000000000027,-41.09116882454314 L 1.500000000000003,-39.6 L 0.7500000000000027,-37.863497124738146 L 2.204364238465236e-15,-36.0 L -0.7499999999999972,-34.136502875261854 L -1.4999999999999967,-32.400000000000006 L -2.2499999999999982,-30.908831175456857 L -2.9999999999999973,-29.764617092752044 L -3.7499999999999964,-29.04533405071871 L -4.499999999999998,-28.8 L -5.249999999999997,-29.045334050718708 L -5.9999999999999964,-29.76461709275204 L -6.749999999999998,-30.90883117545686 L -7.499999999999997,-32.4 L -8.249999999999996,-34.13650287526185 L -8.999999999999998,-36.0" style="stroke:blue;fill:none;stroke-width:2.0;stroke-dasharray:-;stroke-linecap:round;stroke-linejoin:round;" /><path d="M 4.408728476930472e-15,-72.0 L 18.000000000000004,-72.0 L 36.00000000000001,-72.0" style="stroke:black;fill:none;stroke-width:2.0;stroke-dasharray:-;stroke-linecap:round;stroke-linejoin:round;" /><path d="M 36.00000000000001,-72.0 L 54.00000000000001,-72.0 L 57.00000000000001,-81.0 L 63.00000000000001,-63.0 L 69.00000000000001,-81.0 L 75.0,-63.0 L 81.0,-81.0 L 87.00000000000001,-63.0 L 90.0,-72.0 L 108.0,-72.0" style="stroke:black;fill:none;stroke-width:2.0;stroke-dasharray:-;stroke-linecap:round;stroke-linejoin:round;" /><path d="M 108.0,-72.0 L 126.0,-72.0 L 144.0,-72.0" style="stroke:black;fill:none;stroke-width:2.0;stroke-dasharray:-;stroke-linecap:round;stroke-linejoin:round;" /><path d="M 176.99999999999997,-42.0 L 176.99999999999997,-57.0 L 162.0,-57.0 L 162.0,-87.0 L 176.99999999999997,-87.0 L 176.99999999999997,-101.99999999999999" style="stroke:black;fill:none;stroke-width:2.0;stroke-dasharray:-;stroke-linecap:round;stroke-linejoin:round;" /><path d="M 167.99999999999997,-57.0 L 162.0,-57.0" style="stroke:black;fill:none;stroke-width:2.0;stroke-dasharray:-;stroke-linecap:round;stroke-linejoin:round;" /><path d="M 174.99999999999997 -57.0 L 167.99999999999997 -52.5 L 167.99999999999997 -61.5 Z" style="stroke:black;fill:black;stroke-linecap:butt;stroke-linejoin:miter;" /><path d="M 159.0,-59.99999999999999 L 159.0,-84.0" style="stroke:black;fill:none;stroke-width:2.0;stroke-dasharray:-;stroke-linecap:round;stroke-linejoin:round;" /><path d="M 144.0,-72.0 L 159.0,-72.0" style="stroke:black;fill:none;stroke-width:2.0;stroke-dasharray:-;stroke-linecap:round;stroke-linejoin:round;" /><path d="M 176.99999999999997,-42.0 L 176.99999999999997,-21.0 L 176.99999999999997,-0.0" style="stroke:black;fill:none;stroke-width:2.0;stroke-dasharray:-;stroke-linecap:round;stroke-linejoin:round;" /><path d="M 176.99999999999997,-0.0 L 176.99999999999997,14.4 L 167.99999999999997,14.4 L 185.99999999999997,14.4 M 170.7,18.72 L 183.29999999999998,18.72 M 175.2,23.04 L 178.79999999999998,23.04" style="stroke:black;fill:none;stroke-width:2.0;stroke-dasharray:-;stroke-linecap:round;stroke-linejoin:round;" /><path d="M 176.99999999999997,-101.99999999999999 L 176.99999999999997,-119.99999999999999 L 167.99999999999997,-123.0 L 185.99999999999997,-129.0 L 167.99999999999997,-134.99999999999997 L 185.99999999999997,-140.99999999999997 L 167.99999999999997,-147.0 L 185.99999999999997,-153.0 L 176.99999999999997,-156.0 L 176.99999999999997,-174.0" style="stroke:black;fill:none;stroke-width:2.0;stroke-dasharray:-;stroke-linecap:round;stroke-linejoin:round;" /><path d="M 176.99999999999997,-101.99999999999999 L 203.99999999999997,-101.99999999999999 L 230.99999999999997,-101.99999999999999" style="stroke:black;fill:none;stroke-width:2.0;stroke-dasharray:-;stroke-linecap:round;stroke-linejoin:round;" /><path d="M 230.99999999999997,-101.99999999999999 L 248.99999999999997,-101.99999999999999 L 267.0,-101.99999999999999" style="stroke:black;fill:none;stroke-width:2.0;stroke-dasharray:-;stroke-linecap:round;stroke-linejoin:round;" /><path d="M 230.99999999999997,-101.99999999999999 L 230.99999999999997,-83.99999999999999 L 230.99999999999997,-83.99999999999999 M 230.99999999999997,-47.999999999999986 L 230.99999999999997,-47.999999999999986 L 230.99999999999997,-29.99999999999999" style="stroke:blue;fill:none;stroke-width:2.0;stroke-dasharray:-;stroke-linecap:round;stroke-linejoin:round;" /><path d="M 230.99999999999997,-74.99999999999999 L 230.99999999999997,-65.99999999999999" style="stroke:blue;fill:none;stroke-width:2.0;stroke-dasharray:-;stroke-linecap:round;stroke-linejoin:round;" /><path d="M 230.99999999999997 -58.999999999999986 L 228.29999999999998 -65.99999999999999 L 233.69999999999996 -65.99999999999999 Z" style="stroke:blue;fill:blue;stroke-linecap:butt;stroke-linejoin:miter;" /><path d="M 230.99999999999997,-29.99999999999999 L 230.99999999999997,-14.999999999999995 L 230.99999999999997,-0.0" style="stroke:black;fill:none;stroke-width:2.0;stroke-dasharray:-;stroke-linecap:round;stroke-linejoin:round;" /><path d="M 230.99999999999997,-0.0 L 230.99999999999997,14.4 L 221.99999999999997,14.4 L 239.99999999999997,14.4 M 224.7,18.72 L 237.29999999999998,18.72 M 229.2,23.04 L 232.79999999999998,23.04" style="stroke:black;fill:none;stroke-width:2.0;stroke-dasharray:-;stroke-linecap:round;stroke-linejoin:round;" /><path d="M 230.99999999999997,-101.99999999999999 L 230.99999999999997,-119.99999999999999 L 230.99999999999997,-119.99999999999999 M 230.99999999999997,-156.0 L 230.99999999999997,-156.0 L 230.99999999999997,-174.0" style="stroke:blue;fill:none;stroke-width:2.0;stroke-dasharray:-;stroke-linecap:round;stroke-linejoin:round;" /><path d="M 230.99999999999997,-129.0 L 230.99999999999997,-138.0" style="stroke:blue;fill:none;stroke-width:2.0;stroke-dasharray:-;stroke-linecap:round;stroke-linejoin:round;" /><path d="M 230.99999999999997 -145.0 L 233.69999999999996 -138.0 L 228.29999999999998 -138.0 Z" style="stroke:blue;fill:blue;stroke-linecap:butt;stroke-linejoin:miter;" /><path d="M 158.99999999999997,-174.0 L 203.99999999999997,-174.0 L 248.99999999999997,-174.0" style="stroke:black;fill:none;stroke-width:3;stroke-dasharray:-;stroke-linecap:round;stroke-linejoin:round;" /><g><g><g><path d="M -95.342 -35.662 L -95.342 -35.662 L -96.77 -35.662 L -96.77 -33.45 L -98.016 -33.45 L -98.016 -35.662 L -101.894 -35.662 L -101.894 -36.544 L -97.624 -42.48 L -96.77 -42.48 L -96.77 -36.628 L -95.342 -36.628 Z M -98.016 -36.628 L -98.016 -36.628 L -98.016 -40.954 L -98.072 -40.954 L -101.124 -36.684 L -101.124 -36.628 Z " fill="blue" /><path d="M -91.562 -43.32 L -91.562 -43.32 L -92.808 -36.782 L -92.738 -36.782 L -90.554 -38.756 Q -90.4 -38.882 -90.309 -39.008 Q -90.218 -39.134 -90.218 -39.274 Q -90.218 -39.498 -90.407 -39.568 Q -90.596 -39.638 -90.848 -39.638 L -90.806 -39.988 L -87.796 -39.988 L -87.838 -39.638 Q -88.552 -39.624 -88.944 -39.372 Q -89.336 -39.12 -89.686 -38.798 L -91.24 -37.426 L -90.204 -35.018 Q -90.05 -34.668 -89.903 -34.465 Q -89.756 -34.262 -89.448 -34.262 Q -89.084 -34.262 -88.825 -34.507 Q -88.566 -34.752 -88.342 -35.074 L -88.048 -34.878 Q -88.104 -34.78 -88.258 -34.528 Q -88.412 -34.276 -88.664 -33.996 Q -88.916 -33.716 -89.245 -33.513 Q -89.574 -33.31 -89.98 -33.31 Q -90.33 -33.31 -90.554 -33.478 Q -90.778 -33.646 -90.911 -33.898 Q -91.044 -34.15 -91.156 -34.402 L -92.122 -36.74 L -92.934 -36.026 L -93.424 -33.45 L -94.572 -33.45 L -92.92 -41.962 Q -92.92 -41.962 -92.899 -42.102 Q -92.878 -42.242 -92.878 -42.382 Q -92.878 -42.83 -93.368 -42.83 Q -93.494 -42.83 -93.648 -42.816 Q -93.802 -42.802 -93.802 -42.802 L -93.802 -43.166 L -91.87 -43.32 Z " fill="blue" /><path d="M -78.892 -40.226 L -78.892 -40.226 L -79.326 -40.226 Q -79.326 -40.996 -79.403 -41.395 Q -79.48 -41.794 -79.816 -41.948 Q -80.152 -42.102 -80.936 -42.102 L -81.734 -42.102 L -83.12 -35.284 Q -83.246 -34.654 -83.211 -34.353 Q -83.176 -34.052 -82.896 -33.961 Q -82.616 -33.87 -82.028 -33.87 L -82.112 -33.45 L -86.102 -33.45 L -86.018 -33.87 Q -85.43 -33.87 -85.122 -33.961 Q -84.814 -34.052 -84.66 -34.353 Q -84.506 -34.654 -84.38 -35.284 L -82.994 -42.102 L -83.792 -42.102 Q -84.38 -42.102 -84.73 -42.018 Q -85.08 -41.934 -85.304 -41.731 Q -85.528 -41.528 -85.703 -41.164 Q -85.878 -40.8 -86.116 -40.226 L -86.564 -40.226 L -85.99 -42.648 L -78.472 -42.648 Z " fill="blue" /><path d="M -77.842 -37.23 L -77.842 -37.23 Q -77.842 -39.568 -76.827 -41.22 Q -75.812 -42.872 -74.118 -43.754 L -73.894 -43.39 Q -75.42 -42.354 -76.057 -40.863 Q -76.694 -39.372 -76.694 -37.23 Q -76.694 -35.088 -76.057 -33.597 Q -75.42 -32.106 -73.894 -31.07 L -74.118 -30.706 Q -75.812 -31.588 -76.827 -33.24 Q -77.842 -34.892 -77.842 -37.23 Z " fill="blue" /><path d="M -65.242 -40.716 L -65.242 -40.716 Q -65.242 -39.974 -65.522 -39.47 Q -65.802 -38.966 -66.25 -38.644 Q -66.698 -38.322 -67.209 -38.147 Q -67.72 -37.972 -68.182 -37.888 L -68.182 -37.818 Q -67.93 -37.65 -67.706 -37.307 Q -67.482 -36.964 -67.153 -36.32 Q -66.824 -35.676 -66.25 -34.584 Q -66.012 -34.164 -65.725 -34.017 Q -65.438 -33.87 -64.962 -33.87 L -65.046 -33.45 L -67.174 -33.45 Q -67.566 -34.318 -67.832 -34.899 Q -68.098 -35.48 -68.294 -35.872 Q -68.49 -36.264 -68.637 -36.572 Q -68.784 -36.88 -68.952 -37.202 Q -69.106 -37.496 -69.288 -37.587 Q -69.47 -37.678 -69.848 -37.678 L -70.142 -37.678 L -70.66 -35.186 Q -70.772 -34.612 -70.737 -34.325 Q -70.702 -34.038 -70.422 -33.954 Q -70.142 -33.87 -69.54 -33.87 L -69.61 -33.45 L -73.474 -33.45 L -73.39 -33.87 Q -72.872 -33.87 -72.592 -33.954 Q -72.312 -34.038 -72.165 -34.318 Q -72.018 -34.598 -71.906 -35.186 L -70.674 -41.192 Q -70.59 -41.584 -70.632 -41.808 Q -70.674 -42.032 -70.919 -42.13 Q -71.164 -42.228 -71.724 -42.228 L -71.64 -42.648 L -68.35 -42.648 Q -66.88 -42.648 -66.061 -42.193 Q -65.242 -41.738 -65.242 -40.716 Z M -69.26 -42.06 L -69.26 -42.06 L -70.044 -38.196 L -69.61 -38.182 Q -68.77 -38.21 -68.091 -38.455 Q -67.412 -38.7 -67.02 -39.232 Q -66.628 -39.764 -66.628 -40.66 Q -66.628 -41.038 -66.789 -41.367 Q -66.95 -41.696 -67.342 -41.899 Q -67.734 -42.102 -68.434 -42.102 Q -68.7 -42.102 -68.861 -42.095 Q -69.022 -42.088 -69.26 -42.06 Z " fill="blue" /><path d="M -63.73 -32.293 L -63.73 -32.293 L -63.416 -32.293 Q -63.289 -31.725 -63.112 -31.411 Q -62.936 -31.098 -62.656 -30.975 Q -62.377 -30.853 -61.975 -30.853 Q -61.515 -30.853 -61.265 -31.005 Q -61.015 -31.157 -61.015 -31.539 Q -61.015 -31.794 -61.137 -31.965 Q -61.26 -32.137 -61.529 -32.293 Q -61.799 -32.45 -62.25 -32.656 Q -62.71 -32.881 -63.039 -33.078 Q -63.367 -33.273 -63.538 -33.538 Q -63.71 -33.803 -63.71 -34.204 Q -63.71 -34.91 -63.235 -35.282 Q -62.759 -35.655 -62.044 -35.655 Q -61.613 -35.655 -61.314 -35.547 Q -61.015 -35.439 -60.839 -35.361 L -60.819 -35.361 L -60.662 -35.606 L -60.388 -35.606 L -60.368 -33.979 L -60.711 -33.979 Q -60.897 -34.734 -61.231 -34.993 Q -61.564 -35.253 -61.995 -35.253 Q -62.446 -35.253 -62.676 -35.057 Q -62.906 -34.861 -62.906 -34.547 Q -62.906 -34.293 -62.75 -34.126 Q -62.593 -33.959 -62.304 -33.817 Q -62.015 -33.675 -61.613 -33.479 Q -61.162 -33.264 -60.819 -33.033 Q -60.476 -32.803 -60.28 -32.514 Q -60.084 -32.225 -60.084 -31.794 Q -60.084 -31.274 -60.358 -30.961 Q -60.633 -30.647 -61.064 -30.515 Q -61.495 -30.382 -61.966 -30.382 Q -62.446 -30.382 -62.71 -30.48 Q -62.975 -30.578 -63.2 -30.667 L -63.24 -30.667 L -63.485 -30.412 L -63.71 -30.412 Z " fill="blue" /><path d="M -51.624 -30.734 L -51.624 -30.734 L -52.562 -30.734 L -52.562 -43.334 L -51.624 -43.334 Z M -48.768 -30.734 L -48.768 -30.734 L -49.706 -30.734 L -49.706 -43.334 L -48.768 -43.334 Z " fill="blue" /><path d="M -33.504 -40.716 L -33.504 -40.716 Q -33.504 -39.974 -33.784 -39.47 Q -34.064 -38.966 -34.512 -38.644 Q -34.96 -38.322 -35.471 -38.147 Q -35.982 -37.972 -36.444 -37.888 L -36.444 -37.818 Q -36.192 -37.65 -35.968 -37.307 Q -35.744 -36.964 -35.415 -36.32 Q -35.086 -35.676 -34.512 -34.584 Q -34.274 -34.164 -33.987 -34.017 Q -33.7 -33.87 -33.224 -33.87 L -33.308 -33.45 L -35.436 -33.45 Q -35.828 -34.318 -36.094 -34.899 Q -36.36 -35.48 -36.556 -35.872 Q -36.752 -36.264 -36.899 -36.572 Q -37.046 -36.88 -37.214 -37.202 Q -37.368 -37.496 -37.55 -37.587 Q -37.732 -37.678 -38.11 -37.678 L -38.404 -37.678 L -38.922 -35.186 Q -39.034 -34.612 -38.999 -34.325 Q -38.964 -34.038 -38.684 -33.954 Q -38.404 -33.87 -37.802 -33.87 L -37.872 -33.45 L -41.736 -33.45 L -41.652 -33.87 Q -41.134 -33.87 -40.854 -33.954 Q -40.574 -34.038 -40.427 -34.318 Q -40.28 -34.598 -40.168 -35.186 L -38.936 -41.192 Q -38.852 -41.584 -38.894 -41.808 Q -38.936 -42.032 -39.181 -42.13 Q -39.426 -42.228 -39.986 -42.228 L -39.902 -42.648 L -36.612 -42.648 Q -35.142 -42.648 -34.323 -42.193 Q -33.504 -41.738 -33.504 -40.716 Z M -37.522 -42.06 L -37.522 -42.06 L -38.306 -38.196 L -37.872 -38.182 Q -37.032 -38.21 -36.353 -38.455 Q -35.674 -38.7 -35.282 -39.232 Q -34.89 -39.764 -34.89 -40.66 Q -34.89 -41.038 -35.051 -41.367 Q -35.212 -41.696 -35.604 -41.899 Q -35.996 -42.102 -36.696 -42.102 Q -36.962 -42.102 -37.123 -42.095 Q -37.284 -42.088 -37.522 -42.06 Z " fill="blue" /><path d="M -30.522 -35.625 L -30.522 -35.625 L -30.522 -34.783 L -30.473 -34.783 Q -30.091 -35.224 -29.709 -35.439 Q -29.327 -35.655 -28.866 -35.655 Q -28.347 -35.655 -27.925 -35.346 Q -27.504 -35.037 -27.254 -34.494 Q -27.004 -33.95 -27.004 -33.244 Q -27.004 -32.323 -27.332 -31.686 Q -27.661 -31.049 -28.204 -30.721 Q -28.748 -30.392 -29.385 -30.392 Q -29.689 -30.392 -29.959 -30.471 Q -30.228 -30.549 -30.454 -30.676 L -30.503 -30.676 L -30.503 -29.422 Q -30.503 -29.079 -30.414 -28.898 Q -30.326 -28.716 -30.101 -28.653 Q -29.875 -28.589 -29.454 -28.589 L -29.454 -28.246 L -32.227 -28.246 L -32.227 -28.579 Q -31.884 -28.589 -31.723 -28.653 Q -31.561 -28.716 -31.507 -28.883 Q -31.453 -29.05 -31.453 -29.353 L -31.453 -34.508 Q -31.453 -34.792 -31.512 -34.915 Q -31.571 -35.037 -31.855 -35.037 Q -31.943 -35.037 -32.08 -35.028 Q -32.218 -35.018 -32.218 -35.018 L -32.218 -35.41 L -30.895 -35.625 Z M -30.503 -34.283 L -30.503 -34.283 L -30.503 -31.519 Q -30.395 -31.411 -30.233 -31.25 Q -30.071 -31.088 -29.846 -30.966 Q -29.621 -30.843 -29.356 -30.843 Q -28.993 -30.843 -28.694 -31.064 Q -28.396 -31.284 -28.209 -31.754 Q -28.023 -32.225 -28.023 -32.95 Q -28.023 -33.871 -28.356 -34.381 Q -28.69 -34.89 -29.297 -34.89 Q -29.689 -34.89 -30.013 -34.685 Q -30.336 -34.479 -30.503 -34.283 Z " fill="blue" /><path d="M -22.048 -37.23 L -22.048 -37.23 Q -22.048 -34.892 -23.063 -33.24 Q -24.078 -31.588 -25.772 -30.706 L -25.996 -31.07 Q -24.456 -32.106 -23.826 -33.597 Q -23.196 -35.088 -23.196 -37.23 Q -23.196 -39.372 -23.826 -40.863 Q -24.456 -42.354 -25.996 -43.39 L -25.772 -43.754 Q -24.078 -42.872 -23.063 -41.22 Q -22.048 -39.568 -22.048 -37.23 Z " fill="blue" /></g></g></g><g><g><g><path d="M 56.64 -97.07 L 56.64 -97.07 Q 56.64 -96.328 56.36 -95.824 Q 56.08 -95.32 55.632 -94.998 Q 55.184 -94.676 54.673 -94.501 Q 54.162 -94.326 53.7 -94.242 L 53.7 -94.172 Q 53.952 -94.004 54.176 -93.661 Q 54.4 -93.318 54.729 -92.674 Q 55.058 -92.03 55.632 -90.938 Q 55.87 -90.518 56.157 -90.371 Q 56.444 -90.224 56.92 -90.224 L 56.836 -89.804 L 54.708 -89.804 Q 54.316 -90.672 54.05 -91.253 Q 53.784 -91.834 53.588 -92.226 Q 53.392 -92.618 53.245 -92.926 Q 53.098 -93.234 52.93 -93.556 Q 52.776 -93.85 52.594 -93.941 Q 52.412 -94.032 52.034 -94.032 L 51.74 -94.032 L 51.222 -91.54 Q 51.11 -90.966 51.145 -90.679 Q 51.18 -90.392 51.46 -90.308 Q 51.74 -90.224 52.342 -90.224 L 52.272 -89.804 L 48.408 -89.804 L 48.492 -90.224 Q 49.01 -90.224 49.29 -90.308 Q 49.57 -90.392 49.717 -90.672 Q 49.864 -90.952 49.976 -91.54 L 51.208 -97.546 Q 51.292 -97.938 51.25 -98.162 Q 51.208 -98.386 50.963 -98.484 Q 50.718 -98.582 50.158 -98.582 L 50.242 -99.002 L 53.532 -99.002 Q 55.002 -99.002 55.821 -98.547 Q 56.64 -98.092 56.64 -97.07 Z M 52.622 -98.414 L 52.622 -98.414 L 51.838 -94.55 L 52.272 -94.536 Q 53.112 -94.564 53.791 -94.809 Q 54.47 -95.054 54.862 -95.586 Q 55.254 -96.118 55.254 -97.014 Q 55.254 -97.392 55.093 -97.721 Q 54.932 -98.05 54.54 -98.253 Q 54.148 -98.456 53.448 -98.456 Q 53.182 -98.456 53.021 -98.449 Q 52.86 -98.442 52.622 -98.414 Z " fill="black" /><path d="M 58.152 -88.647 L 58.152 -88.647 L 58.466 -88.647 Q 58.593 -88.079 58.77 -87.765 Q 58.946 -87.452 59.225 -87.329 Q 59.505 -87.207 59.906 -87.207 Q 60.367 -87.207 60.617 -87.359 Q 60.867 -87.511 60.867 -87.893 Q 60.867 -88.148 60.744 -88.319 Q 60.622 -88.491 60.352 -88.647 Q 60.083 -88.804 59.632 -89.01 Q 59.171 -89.235 58.843 -89.431 Q 58.515 -89.627 58.343 -89.892 Q 58.172 -90.157 58.172 -90.558 Q 58.172 -91.264 58.647 -91.636 Q 59.122 -92.009 59.838 -92.009 Q 60.269 -92.009 60.568 -91.901 Q 60.867 -91.793 61.043 -91.715 L 61.063 -91.715 L 61.22 -91.96 L 61.494 -91.96 L 61.514 -90.333 L 61.171 -90.333 Q 60.984 -91.088 60.651 -91.347 Q 60.318 -91.607 59.887 -91.607 Q 59.436 -91.607 59.206 -91.411 Q 58.975 -91.215 58.975 -90.901 Q 58.975 -90.647 59.132 -90.48 Q 59.289 -90.313 59.578 -90.171 Q 59.867 -90.029 60.269 -89.833 Q 60.72 -89.618 61.063 -89.387 Q 61.406 -89.157 61.602 -88.868 Q 61.798 -88.579 61.798 -88.148 Q 61.798 -87.628 61.523 -87.315 Q 61.249 -87.001 60.818 -86.869 Q 60.387 -86.736 59.916 -86.736 Q 59.436 -86.736 59.171 -86.834 Q 58.907 -86.932 58.681 -87.021 L 58.642 -87.021 L 58.397 -86.766 L 58.172 -86.766 Z " fill="black" /><path d="M 70.258 -87.088 L 70.258 -87.088 L 69.32 -87.088 L 69.32 -99.688 L 70.258 -99.688 Z M 73.114 -87.088 L 73.114 -87.088 L 72.176 -87.088 L 72.176 -99.688 L 73.114 -99.688 Z " fill="black" /><path d="M 88.378 -97.07 L 88.378 -97.07 Q 88.378 -96.328 88.098 -95.824 Q 87.818 -95.32 87.37 -94.998 Q 86.922 -94.676 86.411 -94.501 Q 85.9 -94.326 85.438 -94.242 L 85.438 -94.172 Q 85.69 -94.004 85.914 -93.661 Q 86.138 -93.318 86.467 -92.674 Q 86.796 -92.03 87.37 -90.938 Q 87.608 -90.518 87.895 -90.371 Q 88.182 -90.224 88.658 -90.224 L 88.574 -89.804 L 86.446 -89.804 Q 86.054 -90.672 85.788 -91.253 Q 85.522 -91.834 85.326 -92.226 Q 85.13 -92.618 84.983 -92.926 Q 84.836 -93.234 84.668 -93.556 Q 84.514 -93.85 84.332 -93.941 Q 84.15 -94.032 83.772 -94.032 L 83.478 -94.032 L 82.96 -91.54 Q 82.848 -90.966 82.883 -90.679 Q 82.918 -90.392 83.198 -90.308 Q 83.478 -90.224 84.08 -90.224 L 84.01 -89.804 L 80.146 -89.804 L 80.23 -90.224 Q 80.748 -90.224 81.028 -90.308 Q 81.308 -90.392 81.455 -90.672 Q 81.602 -90.952 81.714 -91.54 L 82.946 -97.546 Q 83.03 -97.938 82.988 -98.162 Q 82.946 -98.386 82.701 -98.484 Q 82.456 -98.582 81.896 -98.582 L 81.98 -99.002 L 85.27 -99.002 Q 86.74 -99.002 87.559 -98.547 Q 88.378 -98.092 88.378 -97.07 Z M 84.36 -98.414 L 84.36 -98.414 L 83.576 -94.55 L 84.01 -94.536 Q 84.85 -94.564 85.529 -94.809 Q 86.208 -95.054 86.6 -95.586 Q 86.992 -96.118 86.992 -97.014 Q 86.992 -97.392 86.831 -97.721 Q 86.67 -98.05 86.278 -98.253 Q 85.886 -98.456 85.186 -98.456 Q 84.92 -98.456 84.759 -98.449 Q 84.598 -98.442 84.36 -98.414 Z " fill="black" /><path d="M 91.36 -91.979 L 91.36 -91.979 L 91.36 -91.137 L 91.409 -91.137 Q 91.791 -91.578 92.173 -91.793 Q 92.555 -92.009 93.016 -92.009 Q 93.535 -92.009 93.957 -91.7 Q 94.378 -91.391 94.628 -90.848 Q 94.878 -90.304 94.878 -89.598 Q 94.878 -88.677 94.549 -88.04 Q 94.221 -87.403 93.677 -87.075 Q 93.133 -86.746 92.496 -86.746 Q 92.193 -86.746 91.923 -86.825 Q 91.654 -86.903 91.428 -87.03 L 91.379 -87.03 L 91.379 -85.776 Q 91.379 -85.433 91.467 -85.252 Q 91.556 -85.07 91.781 -85.007 Q 92.006 -84.943 92.428 -84.943 L 92.428 -84.6 L 89.654 -84.6 L 89.654 -84.933 Q 89.997 -84.943 90.159 -85.007 Q 90.321 -85.07 90.375 -85.237 Q 90.429 -85.404 90.429 -85.707 L 90.429 -90.862 Q 90.429 -91.146 90.37 -91.269 Q 90.311 -91.391 90.027 -91.391 Q 89.939 -91.391 89.801 -91.382 Q 89.664 -91.372 89.664 -91.372 L 89.664 -91.764 L 90.987 -91.979 Z M 91.379 -90.637 L 91.379 -90.637 L 91.379 -87.873 Q 91.487 -87.765 91.649 -87.604 Q 91.81 -87.442 92.036 -87.32 Q 92.261 -87.197 92.526 -87.197 Q 92.888 -87.197 93.187 -87.418 Q 93.486 -87.638 93.672 -88.108 Q 93.859 -88.579 93.859 -89.304 Q 93.859 -90.225 93.525 -90.735 Q 93.192 -91.244 92.585 -91.244 Q 92.193 -91.244 91.869 -91.039 Q 91.546 -90.833 91.379 -90.637 Z " fill="black" /></g></g></g><g><g><g><path d="M 191.926 -68.871 L 191.926 -68.871 L 188.188 -68.871 L 188.272 -69.291 Q 188.79 -69.291 189.063 -69.389 Q 189.336 -69.487 189.476 -69.76 Q 189.616 -70.033 189.714 -70.537 L 190.96 -76.585 L 190.904 -76.585 L 186.2 -68.871 L 185.892 -68.871 L 184.198 -76.571 L 184.142 -76.571 L 182.98 -70.915 Q 182.84 -70.201 182.861 -69.851 Q 182.882 -69.501 183.134 -69.396 Q 183.386 -69.291 183.918 -69.291 L 183.834 -68.871 L 180.6 -68.871 L 180.684 -69.291 Q 181.23 -69.291 181.524 -69.396 Q 181.818 -69.501 181.986 -69.851 Q 182.154 -70.201 182.294 -70.915 L 183.4 -76.361 Q 183.512 -76.893 183.47 -77.166 Q 183.428 -77.439 183.169 -77.544 Q 182.91 -77.649 182.35 -77.649 L 182.434 -78.069 L 185.234 -78.069 L 186.746 -70.985 L 186.802 -70.985 L 191.072 -78.069 L 193.718 -78.069 L 193.634 -77.649 Q 193.144 -77.649 192.857 -77.544 Q 192.57 -77.439 192.416 -77.166 Q 192.262 -76.893 192.15 -76.375 L 190.96 -70.537 Q 190.806 -69.767 191.037 -69.529 Q 191.268 -69.291 192.01 -69.291 Z " fill="black" /><path d="M 197.952 -65.931 L 197.952 -65.931 L 194.629 -65.931 L 194.629 -66.284 Q 195.335 -66.284 195.565 -66.426 Q 195.796 -66.568 195.796 -66.94 L 195.796 -71.213 Q 195.796 -71.478 195.717 -71.595 Q 195.639 -71.713 195.433 -71.713 Q 195.276 -71.713 195.007 -71.669 Q 194.737 -71.625 194.541 -71.576 L 194.541 -71.968 L 196.354 -72.468 L 196.776 -72.468 L 196.776 -66.94 Q 196.776 -66.568 197.025 -66.426 Q 197.275 -66.284 197.952 -66.284 Z " fill="black" /></g></g></g><g><g><g><path d="M 155.196 -142.137 L 155.196 -142.137 Q 155.196 -141.395 154.916 -140.891 Q 154.636 -140.387 154.188 -140.065 Q 153.74 -139.743 153.229 -139.568 Q 152.718 -139.393 152.256 -139.309 L 152.256 -139.239 Q 152.508 -139.071 152.732 -138.728 Q 152.956 -138.385 153.285 -137.741 Q 153.614 -137.097 154.188 -136.005 Q 154.426 -135.585 154.713 -135.438 Q 155 -135.291 155.476 -135.291 L 155.392 -134.871 L 153.264 -134.871 Q 152.872 -135.739 152.606 -136.32 Q 152.34 -136.901 152.144 -137.293 Q 151.948 -137.685 151.801 -137.993 Q 151.654 -138.301 151.486 -138.623 Q 151.332 -138.917 151.15 -139.008 Q 150.968 -139.099 150.59 -139.099 L 150.296 -139.099 L 149.778 -136.607 Q 149.666 -136.033 149.701 -135.746 Q 149.736 -135.459 150.016 -135.375 Q 150.296 -135.291 150.898 -135.291 L 150.828 -134.871 L 146.964 -134.871 L 147.048 -135.291 Q 147.566 -135.291 147.846 -135.375 Q 148.126 -135.459 148.273 -135.739 Q 148.42 -136.019 148.532 -136.607 L 149.764 -142.613 Q 149.848 -143.005 149.806 -143.229 Q 149.764 -143.453 149.519 -143.551 Q 149.274 -143.649 148.714 -143.649 L 148.798 -144.069 L 152.088 -144.069 Q 153.558 -144.069 154.377 -143.614 Q 155.196 -143.159 155.196 -142.137 Z M 151.178 -143.481 L 151.178 -143.481 L 150.394 -139.617 L 150.828 -139.603 Q 151.668 -139.631 152.347 -139.876 Q 153.026 -140.121 153.418 -140.653 Q 153.81 -141.185 153.81 -142.081 Q 153.81 -142.459 153.649 -142.788 Q 153.488 -143.117 153.096 -143.32 Q 152.704 -143.523 152.004 -143.523 Q 151.738 -143.523 151.577 -143.516 Q 151.416 -143.509 151.178 -143.481 Z " fill="black" /><path d="M 156.669 -138.82 L 156.669 -138.82 L 159.639 -138.82 Q 160.423 -138.82 161.138 -138.649 Q 161.853 -138.477 162.417 -138.085 Q 162.98 -137.693 163.309 -137.037 Q 163.637 -136.38 163.637 -135.4 Q 163.637 -134.479 163.338 -133.818 Q 163.039 -133.156 162.5 -132.74 Q 161.961 -132.323 161.246 -132.127 Q 160.53 -131.931 159.697 -131.931 L 156.669 -131.931 L 156.669 -132.303 Q 157.13 -132.303 157.345 -132.372 Q 157.561 -132.441 157.625 -132.651 Q 157.688 -132.862 157.688 -133.293 L 157.688 -137.546 Q 157.688 -137.948 157.595 -138.139 Q 157.502 -138.33 157.282 -138.389 Q 157.061 -138.448 156.669 -138.448 Z M 158.737 -138.33 L 158.737 -138.33 L 158.737 -132.401 Q 158.894 -132.392 159.046 -132.387 Q 159.198 -132.382 159.345 -132.382 Q 160.315 -132.382 160.996 -132.637 Q 161.677 -132.891 162.035 -133.528 Q 162.392 -134.165 162.392 -135.312 Q 162.392 -136.782 161.643 -137.561 Q 160.893 -138.34 159.266 -138.34 Q 159.129 -138.34 159.002 -138.34 Q 158.874 -138.34 158.737 -138.33 Z " fill="black" /></g></g></g><circle cx="230.99999999999997" cy="-101.99999999999999" r="2.6999999999999997" style="stroke:black;fill:black;stroke-width:2.0;stroke-dasharray:-;" /><circle cx="176.99999999999997" cy="-101.99999999999999" r="2.6999999999999997" style="stroke:black;fill:black;stroke-width:2.0;stroke-dasharray:-;" /><circle cx="267.0" cy="-101.99999999999999" r="2.6999999999999997" style="stroke:black;fill:white;stroke-width:2.0;stroke-dasharray:-;" /><g><g><g><path d="M 277.178 -98.446 L 277.178 -98.446 L 281 -104.186 Q 281.196 -104.466 281.315 -104.704 Q 281.434 -104.942 281.434 -105.11 Q 281.434 -105.32 281.252 -105.397 Q 281.07 -105.474 280.594 -105.474 L 280.622 -105.894 L 283.646 -105.894 L 283.618 -105.474 Q 283.24 -105.474 282.974 -105.362 Q 282.708 -105.25 282.435 -104.935 Q 282.162 -104.62 281.728 -103.976 L 276.59 -96.626 L 276.128 -96.626 L 275.344 -104.2 Q 275.26 -104.9 275.036 -105.187 Q 274.812 -105.474 274.252 -105.474 L 274.28 -105.894 L 277.71 -105.894 L 277.668 -105.474 Q 277.136 -105.474 276.828 -105.264 Q 276.52 -105.054 276.548 -104.578 Q 276.548 -104.508 276.569 -104.326 Q 276.59 -104.144 276.59 -104.074 L 277.01 -100.084 L 277.108 -98.446 Z " fill="black" /><path d="M 285.967 -96.725 L 285.967 -96.725 L 285.967 -94.53 Q 285.967 -94.256 286.016 -94.094 Q 286.065 -93.932 286.232 -93.864 Q 286.398 -93.795 286.751 -93.795 L 286.751 -93.442 L 284.233 -93.442 L 284.233 -93.795 Q 284.605 -93.795 284.772 -93.864 Q 284.938 -93.932 284.977 -94.094 Q 285.017 -94.256 285.017 -94.53 L 285.017 -96.402 Q 285.017 -97.059 284.865 -97.367 Q 284.713 -97.676 284.482 -97.774 Q 284.252 -97.872 284.017 -97.872 Q 283.596 -97.872 283.277 -97.656 Q 282.959 -97.441 282.723 -97.245 L 282.723 -94.53 Q 282.723 -94.256 282.767 -94.094 Q 282.812 -93.932 282.978 -93.864 Q 283.145 -93.795 283.507 -93.795 L 283.507 -93.442 L 281.038 -93.442 L 281.038 -93.795 Q 281.381 -93.795 281.533 -93.864 Q 281.685 -93.932 281.724 -94.094 Q 281.763 -94.256 281.763 -94.53 L 281.763 -97.509 Q 281.763 -97.784 281.66 -97.877 Q 281.557 -97.97 281.332 -97.97 Q 281.214 -97.97 281.136 -97.96 Q 281.057 -97.95 281.057 -97.95 L 281.057 -98.323 L 282.371 -98.558 L 282.694 -98.558 L 282.694 -97.754 L 282.763 -97.754 Q 283.184 -98.137 283.571 -98.362 Q 283.958 -98.587 284.448 -98.587 Q 285.026 -98.587 285.355 -98.328 Q 285.683 -98.068 285.825 -97.647 Q 285.967 -97.225 285.967 -96.725 Z " fill="black" /><path d="M 287.976 -91.972 L 287.976 -91.972 L 287.81 -92.296 Q 288.015 -92.384 288.231 -92.526 Q 288.447 -92.668 288.589 -92.928 Q 288.731 -93.188 288.731 -93.609 Q 288.564 -93.54 288.388 -93.54 Q 288.064 -93.54 287.927 -93.732 Q 287.79 -93.923 287.79 -94.168 Q 287.79 -94.432 287.966 -94.628 Q 288.143 -94.824 288.476 -94.824 Q 288.897 -94.824 289.118 -94.565 Q 289.338 -94.305 289.338 -93.844 Q 289.338 -93.374 289.191 -93.046 Q 289.044 -92.717 288.824 -92.507 Q 288.603 -92.296 288.373 -92.173 Q 288.143 -92.051 287.976 -91.972 Z " fill="black" /><path d="M 292.367 -98.587 L 292.367 -98.587 Q 293.102 -98.587 293.65 -98.269 Q 294.199 -97.95 294.498 -97.377 Q 294.797 -96.804 294.797 -96.03 Q 294.797 -95.099 294.483 -94.501 Q 294.17 -93.903 293.621 -93.614 Q 293.072 -93.325 292.367 -93.325 Q 291.651 -93.325 291.097 -93.624 Q 290.544 -93.923 290.235 -94.52 Q 289.926 -95.118 289.926 -96.02 Q 289.926 -96.784 290.23 -97.362 Q 290.534 -97.941 291.083 -98.264 Q 291.632 -98.587 292.367 -98.587 Z M 292.347 -98.137 L 292.347 -98.137 Q 291.7 -98.137 291.333 -97.612 Q 290.965 -97.088 290.965 -96.079 Q 290.965 -94.834 291.342 -94.32 Q 291.72 -93.805 292.396 -93.805 Q 292.827 -93.815 293.131 -94.021 Q 293.435 -94.226 293.596 -94.712 Q 293.758 -95.197 293.758 -96.03 Q 293.758 -97.029 293.415 -97.583 Q 293.072 -98.137 292.347 -98.137 Z " fill="black" /><path d="M 301.461 -93.942 L 301.461 -93.942 L 301.461 -93.57 L 300.138 -93.393 L 299.824 -93.393 L 299.824 -94.158 L 299.726 -94.158 Q 299.354 -93.825 298.972 -93.585 Q 298.59 -93.344 298.051 -93.344 Q 297.325 -93.344 296.943 -93.785 Q 296.561 -94.226 296.561 -95.314 L 296.561 -97.421 Q 296.561 -97.823 296.419 -97.916 Q 296.277 -98.009 295.826 -98.009 L 295.826 -98.362 L 297.188 -98.548 L 297.512 -98.548 L 297.512 -95.442 Q 297.512 -94.893 297.639 -94.589 Q 297.766 -94.285 297.982 -94.168 Q 298.198 -94.05 298.452 -94.05 Q 298.884 -94.05 299.173 -94.231 Q 299.462 -94.413 299.775 -94.667 L 299.775 -97.421 Q 299.775 -97.823 299.599 -97.916 Q 299.423 -98.009 298.923 -98.009 L 298.923 -98.362 L 300.383 -98.548 L 300.726 -98.548 L 300.726 -94.579 Q 300.726 -94.285 300.78 -94.148 Q 300.834 -94.011 300.971 -93.977 Q 301.108 -93.942 301.353 -93.942 Z " fill="black" /><path d="M 305.283 -94.422 L 305.283 -94.422 L 305.508 -94.236 Q 305.293 -93.942 305.116 -93.741 Q 304.94 -93.54 304.715 -93.433 Q 304.489 -93.325 304.136 -93.325 Q 303.568 -93.325 303.308 -93.648 Q 303.049 -93.972 303.049 -94.687 L 303.049 -97.98 L 302.431 -97.98 L 302.431 -98.274 Q 302.784 -98.529 303.078 -98.896 Q 303.372 -99.264 303.666 -99.95 L 304.009 -99.95 L 303.999 -98.46 L 305.244 -98.46 L 305.244 -97.98 L 303.999 -97.98 L 303.999 -95.01 Q 303.999 -94.462 304.102 -94.231 Q 304.205 -94.001 304.519 -94.001 Q 304.803 -94.001 304.95 -94.104 Q 305.097 -94.207 305.283 -94.422 Z " fill="black" /><path d="M 289.838 -103.755 L 289.838 -103.755 L 289.505 -102.05 L 285.487 -102.05 L 285.487 -102.53 L 286.879 -103.941 Q 287.427 -104.49 287.785 -104.911 Q 288.143 -105.333 288.319 -105.759 Q 288.496 -106.185 288.496 -106.734 Q 288.496 -107.253 288.177 -107.592 Q 287.859 -107.93 287.28 -107.93 Q 286.751 -107.93 286.393 -107.719 Q 286.036 -107.508 285.761 -107.028 L 285.497 -107.155 Q 285.742 -107.841 286.256 -108.233 Q 286.771 -108.625 287.525 -108.625 Q 288.113 -108.625 288.564 -108.415 Q 289.015 -108.204 289.27 -107.812 Q 289.525 -107.42 289.525 -106.861 Q 289.525 -106.381 289.309 -105.96 Q 289.093 -105.538 288.696 -105.097 Q 288.3 -104.656 287.751 -104.117 L 286.526 -102.932 L 286.526 -102.863 L 287.29 -102.902 L 288.564 -102.902 Q 288.848 -102.902 289 -102.981 Q 289.152 -103.059 289.26 -103.25 Q 289.368 -103.441 289.495 -103.755 Z " fill="black" /><rect x="273.3" y="-111.551" width="31.511" height="0.952" fill="black" /></g></g></g><g><g><g><path d="M 259.334 -64.894 L 259.334 -64.894 L 257.906 -64.894 L 257.906 -62.682 L 256.66 -62.682 L 256.66 -64.894 L 252.782 -64.894 L 252.782 -65.776 L 257.052 -71.712 L 257.906 -71.712 L 257.906 -65.86 L 259.334 -65.86 Z M 256.66 -65.86 L 256.66 -65.86 L 256.66 -70.186 L 256.604 -70.186 L 253.552 -65.916 L 253.552 -65.86 Z " fill="blue" /><path d="M 263.114 -72.552 L 263.114 -72.552 L 261.868 -66.014 L 261.938 -66.014 L 264.122 -67.988 Q 264.276 -68.114 264.367 -68.24 Q 264.458 -68.366 264.458 -68.506 Q 264.458 -68.73 264.269 -68.8 Q 264.08 -68.87 263.828 -68.87 L 263.87 -69.22 L 266.88 -69.22 L 266.838 -68.87 Q 266.124 -68.856 265.732 -68.604 Q 265.34 -68.352 264.99 -68.03 L 263.436 -66.658 L 264.472 -64.25 Q 264.626 -63.9 264.773 -63.697 Q 264.92 -63.494 265.228 -63.494 Q 265.592 -63.494 265.851 -63.739 Q 266.11 -63.984 266.334 -64.306 L 266.628 -64.11 Q 266.572 -64.012 266.418 -63.76 Q 266.264 -63.508 266.012 -63.228 Q 265.76 -62.948 265.431 -62.745 Q 265.102 -62.542 264.696 -62.542 Q 264.346 -62.542 264.122 -62.71 Q 263.898 -62.878 263.765 -63.13 Q 263.632 -63.382 263.52 -63.634 L 262.554 -65.972 L 261.742 -65.258 L 261.252 -62.682 L 260.104 -62.682 L 261.756 -71.194 Q 261.756 -71.194 261.777 -71.334 Q 261.798 -71.474 261.798 -71.614 Q 261.798 -72.062 261.308 -72.062 Q 261.182 -72.062 261.028 -72.048 Q 260.874 -72.034 260.874 -72.034 L 260.874 -72.398 L 262.806 -72.552 Z " fill="blue" /><path d="M 275.784 -69.458 L 275.784 -69.458 L 275.35 -69.458 Q 275.35 -70.228 275.273 -70.627 Q 275.196 -71.026 274.86 -71.18 Q 274.524 -71.334 273.74 -71.334 L 272.942 -71.334 L 271.556 -64.516 Q 271.43 -63.886 271.465 -63.585 Q 271.5 -63.284 271.78 -63.193 Q 272.06 -63.102 272.648 -63.102 L 272.564 -62.682 L 268.574 -62.682 L 268.658 -63.102 Q 269.246 -63.102 269.554 -63.193 Q 269.862 -63.284 270.016 -63.585 Q 270.17 -63.886 270.296 -64.516 L 271.682 -71.334 L 270.884 -71.334 Q 270.296 -71.334 269.946 -71.25 Q 269.596 -71.166 269.372 -70.963 Q 269.148 -70.76 268.973 -70.396 Q 268.798 -70.032 268.56 -69.458 L 268.112 -69.458 L 268.686 -71.88 L 276.204 -71.88 Z " fill="blue" /><path d="M 283.176 -69.304 L 283.176 -69.304 L 283.19 -69.08 Q 282.266 -67.68 281.258 -66.217 Q 280.25 -64.754 279.172 -63.34 Q 279.088 -63.032 278.976 -62.556 Q 278.864 -62.08 278.703 -61.555 Q 278.542 -61.03 278.339 -60.54 Q 278.136 -60.05 277.87 -59.686 Q 277.436 -59.7 277.191 -59.847 Q 276.946 -59.994 276.946 -60.442 Q 276.946 -60.848 277.184 -61.331 Q 277.422 -61.814 277.758 -62.346 Q 278.094 -62.878 278.388 -63.424 Q 278.458 -64.25 278.493 -64.999 Q 278.528 -65.748 278.528 -66.364 Q 278.528 -66.756 278.472 -67.211 Q 278.416 -67.666 278.241 -67.995 Q 278.066 -68.324 277.716 -68.324 Q 277.226 -68.324 276.708 -67.694 L 276.442 -67.904 Q 276.722 -68.45 277.205 -68.891 Q 277.688 -69.332 278.29 -69.332 Q 278.878 -69.332 279.123 -68.842 Q 279.368 -68.352 279.368 -67.484 Q 279.368 -67.022 279.305 -66.406 Q 279.242 -65.79 279.165 -65.209 Q 279.088 -64.628 279.032 -64.264 L 279.116 -64.264 L 279.662 -65.3 Q 280.068 -65.958 280.474 -66.693 Q 280.88 -67.428 281.244 -68.107 Q 281.608 -68.786 281.86 -69.262 Z " fill="blue" /><path d="M 289.084 -61.436 L 289.084 -61.436 L 285.444 -72.608 L 286.214 -72.608 L 289.854 -61.436 Z " fill="blue" /><path d="M 292.136 -65.258 L 292.136 -65.258 L 292.136 -65.286 Q 291.632 -65.58 291.345 -66.042 Q 291.058 -66.504 291.058 -67.19 Q 291.058 -68.24 291.772 -68.856 Q 292.486 -69.472 293.592 -69.472 Q 294.054 -69.472 294.404 -69.388 Q 294.754 -69.304 294.95 -69.213 Q 295.146 -69.122 295.146 -69.122 L 296.952 -69.22 L 296.952 -68.464 L 295.636 -68.506 L 295.636 -68.436 Q 295.79 -68.226 295.965 -67.876 Q 296.14 -67.526 296.14 -66.994 Q 296.14 -66.014 295.454 -65.44 Q 294.768 -64.866 293.662 -64.866 Q 293.326 -64.866 293.032 -64.922 Q 292.738 -64.978 292.458 -65.076 Q 292.36 -64.936 292.227 -64.628 Q 292.094 -64.32 292.094 -64.138 Q 292.094 -63.83 292.437 -63.704 Q 292.78 -63.578 293.746 -63.578 Q 294.628 -63.578 295.335 -63.494 Q 296.042 -63.41 296.448 -63.06 Q 296.854 -62.71 296.854 -61.912 Q 296.854 -61.212 296.511 -60.729 Q 296.168 -60.246 295.601 -59.952 Q 295.034 -59.658 294.355 -59.525 Q 293.676 -59.392 293.018 -59.392 Q 292.108 -59.392 291.583 -59.616 Q 291.058 -59.84 290.848 -60.197 Q 290.638 -60.554 290.638 -60.932 Q 290.638 -61.282 290.925 -61.667 Q 291.212 -62.052 291.772 -62.598 L 291.772 -62.654 Q 291.422 -62.836 291.205 -63.102 Q 290.988 -63.368 290.988 -63.662 Q 290.988 -64.04 291.317 -64.46 Q 291.646 -64.88 292.136 -65.258 Z M 292.122 -62.542 L 292.122 -62.542 Q 291.898 -62.15 291.814 -61.891 Q 291.73 -61.632 291.73 -61.408 Q 291.73 -60.19 293.83 -60.19 Q 294.656 -60.19 295.167 -60.4 Q 295.678 -60.61 295.909 -60.918 Q 296.14 -61.226 296.14 -61.52 Q 296.14 -61.884 295.916 -62.087 Q 295.692 -62.29 295.335 -62.374 Q 294.978 -62.458 294.579 -62.486 Q 294.18 -62.514 293.83 -62.514 Q 293.746 -62.514 293.704 -62.514 Q 293.144 -62.528 292.836 -62.528 Q 292.528 -62.528 292.374 -62.535 Q 292.22 -62.542 292.122 -62.542 Z M 293.494 -68.968 L 293.494 -68.968 Q 292.948 -68.968 292.619 -68.548 Q 292.29 -68.128 292.29 -67.246 Q 292.29 -66.35 292.64 -65.853 Q 292.99 -65.356 293.676 -65.356 Q 294.208 -65.356 294.551 -65.72 Q 294.894 -66.084 294.894 -67.078 Q 294.894 -67.932 294.53 -68.45 Q 294.166 -68.968 293.494 -68.968 Z " fill="blue" /><path d="M 299.71 -67.68 L 299.71 -67.68 L 299.71 -64.04 Q 299.71 -63.452 299.913 -63.27 Q 300.116 -63.088 300.76 -63.088 L 300.76 -62.682 L 297.568 -62.682 L 297.568 -63.088 Q 298.016 -63.088 298.219 -63.165 Q 298.422 -63.242 298.485 -63.459 Q 298.548 -63.676 298.548 -64.096 L 298.548 -68.016 Q 298.548 -68.394 298.401 -68.52 Q 298.254 -68.646 297.96 -68.646 Q 297.806 -68.646 297.694 -68.632 Q 297.582 -68.618 297.582 -68.618 L 297.582 -69.024 L 299.332 -69.43 L 299.668 -69.43 L 299.668 -68.296 L 299.724 -68.296 Q 300.298 -68.786 300.83 -69.129 Q 301.362 -69.472 302.076 -69.472 Q 302.678 -69.472 303.049 -69.143 Q 303.42 -68.814 303.63 -68.31 L 303.686 -68.31 Q 304.26 -68.884 304.806 -69.178 Q 305.352 -69.472 305.912 -69.472 Q 306.738 -69.472 307.228 -68.954 Q 307.718 -68.436 307.718 -67.162 L 307.718 -64.306 Q 307.718 -63.872 307.767 -63.599 Q 307.816 -63.326 308.033 -63.207 Q 308.25 -63.088 308.726 -63.088 L 308.726 -62.682 L 305.562 -62.682 L 305.562 -63.088 Q 306.038 -63.088 306.248 -63.214 Q 306.458 -63.34 306.507 -63.613 Q 306.556 -63.886 306.556 -64.306 L 306.556 -66.994 Q 306.556 -67.638 306.395 -67.974 Q 306.234 -68.31 305.961 -68.443 Q 305.688 -68.576 305.352 -68.576 Q 304.918 -68.576 304.505 -68.289 Q 304.092 -68.002 303.742 -67.708 L 303.742 -64.306 Q 303.742 -63.83 303.805 -63.564 Q 303.868 -63.298 304.092 -63.193 Q 304.316 -63.088 304.82 -63.088 L 304.82 -62.682 L 301.502 -62.682 L 301.502 -63.088 Q 302.006 -63.088 302.23 -63.186 Q 302.454 -63.284 302.517 -63.55 Q 302.58 -63.816 302.58 -64.306 L 302.58 -67.078 Q 302.58 -67.974 302.265 -68.275 Q 301.95 -68.576 301.46 -68.576 Q 300.914 -68.576 300.466 -68.268 Q 300.018 -67.96 299.71 -67.68 Z " fill="blue" /></g></g></g><g><g><g><path d="M 259.334 -136.719 L 259.334 -136.719 L 257.906 -136.719 L 257.906 -134.507 L 256.66 -134.507 L 256.66 -136.719 L 252.782 -136.719 L 252.782 -137.601 L 257.052 -143.537 L 257.906 -143.537 L 257.906 -137.685 L 259.334 -137.685 Z M 256.66 -137.685 L 256.66 -137.685 L 256.66 -142.011 L 256.604 -142.011 L 253.552 -137.741 L 253.552 -137.685 Z " fill="blue" /><path d="M 263.114 -144.377 L 263.114 -144.377 L 261.868 -137.839 L 261.938 -137.839 L 264.122 -139.813 Q 264.276 -139.939 264.367 -140.065 Q 264.458 -140.191 264.458 -140.331 Q 264.458 -140.555 264.269 -140.625 Q 264.08 -140.695 263.828 -140.695 L 263.87 -141.045 L 266.88 -141.045 L 266.838 -140.695 Q 266.124 -140.681 265.732 -140.429 Q 265.34 -140.177 264.99 -139.855 L 263.436 -138.483 L 264.472 -136.075 Q 264.626 -135.725 264.773 -135.522 Q 264.92 -135.319 265.228 -135.319 Q 265.592 -135.319 265.851 -135.564 Q 266.11 -135.809 266.334 -136.131 L 266.628 -135.935 Q 266.572 -135.837 266.418 -135.585 Q 266.264 -135.333 266.012 -135.053 Q 265.76 -134.773 265.431 -134.57 Q 265.102 -134.367 264.696 -134.367 Q 264.346 -134.367 264.122 -134.535 Q 263.898 -134.703 263.765 -134.955 Q 263.632 -135.207 263.52 -135.459 L 262.554 -137.797 L 261.742 -137.083 L 261.252 -134.507 L 260.104 -134.507 L 261.756 -143.019 Q 261.756 -143.019 261.777 -143.159 Q 261.798 -143.299 261.798 -143.439 Q 261.798 -143.887 261.308 -143.887 Q 261.182 -143.887 261.028 -143.873 Q 260.874 -143.859 260.874 -143.859 L 260.874 -144.223 L 262.806 -144.377 Z " fill="blue" /><path d="M 275.784 -141.283 L 275.784 -141.283 L 275.35 -141.283 Q 275.35 -142.053 275.273 -142.452 Q 275.196 -142.851 274.86 -143.005 Q 274.524 -143.159 273.74 -143.159 L 272.942 -143.159 L 271.556 -136.341 Q 271.43 -135.711 271.465 -135.41 Q 271.5 -135.109 271.78 -135.018 Q 272.06 -134.927 272.648 -134.927 L 272.564 -134.507 L 268.574 -134.507 L 268.658 -134.927 Q 269.246 -134.927 269.554 -135.018 Q 269.862 -135.109 270.016 -135.41 Q 270.17 -135.711 270.296 -136.341 L 271.682 -143.159 L 270.884 -143.159 Q 270.296 -143.159 269.946 -143.075 Q 269.596 -142.991 269.372 -142.788 Q 269.148 -142.585 268.973 -142.221 Q 268.798 -141.857 268.56 -141.283 L 268.112 -141.283 L 268.686 -143.705 L 276.204 -143.705 Z " fill="blue" /><path d="M 281.118 -144.433 L 281.118 -144.433 L 277.478 -133.261 L 276.694 -133.261 L 280.348 -144.433 Z " fill="blue" /><path d="M 289.84 -141.773 L 289.84 -141.773 Q 289.84 -141.031 289.56 -140.527 Q 289.28 -140.023 288.832 -139.701 Q 288.384 -139.379 287.873 -139.204 Q 287.362 -139.029 286.9 -138.945 L 286.9 -138.875 Q 287.152 -138.707 287.376 -138.364 Q 287.6 -138.021 287.929 -137.377 Q 288.258 -136.733 288.832 -135.641 Q 289.07 -135.221 289.357 -135.074 Q 289.644 -134.927 290.12 -134.927 L 290.036 -134.507 L 287.908 -134.507 Q 287.516 -135.375 287.25 -135.956 Q 286.984 -136.537 286.788 -136.929 Q 286.592 -137.321 286.445 -137.629 Q 286.298 -137.937 286.13 -138.259 Q 285.976 -138.553 285.794 -138.644 Q 285.612 -138.735 285.234 -138.735 L 284.94 -138.735 L 284.422 -136.243 Q 284.31 -135.669 284.345 -135.382 Q 284.38 -135.095 284.66 -135.011 Q 284.94 -134.927 285.542 -134.927 L 285.472 -134.507 L 281.608 -134.507 L 281.692 -134.927 Q 282.21 -134.927 282.49 -135.011 Q 282.77 -135.095 282.917 -135.375 Q 283.064 -135.655 283.176 -136.243 L 284.408 -142.249 Q 284.492 -142.641 284.45 -142.865 Q 284.408 -143.089 284.163 -143.187 Q 283.918 -143.285 283.358 -143.285 L 283.442 -143.705 L 286.732 -143.705 Q 288.202 -143.705 289.021 -143.25 Q 289.84 -142.795 289.84 -141.773 Z M 285.822 -143.117 L 285.822 -143.117 L 285.038 -139.253 L 285.472 -139.239 Q 286.312 -139.267 286.991 -139.512 Q 287.67 -139.757 288.062 -140.289 Q 288.454 -140.821 288.454 -141.717 Q 288.454 -142.095 288.293 -142.424 Q 288.132 -142.753 287.74 -142.956 Q 287.348 -143.159 286.648 -143.159 Q 286.382 -143.159 286.221 -143.152 Q 286.06 -143.145 285.822 -143.117 Z " fill="blue" /><path d="M 291.313 -138.456 L 291.313 -138.456 L 294.282 -138.456 Q 295.066 -138.456 295.782 -138.285 Q 296.497 -138.113 297.06 -137.721 Q 297.624 -137.329 297.952 -136.673 Q 298.281 -136.016 298.281 -135.036 Q 298.281 -134.115 297.982 -133.454 Q 297.683 -132.792 297.144 -132.376 Q 296.605 -131.959 295.889 -131.763 Q 295.174 -131.567 294.341 -131.567 L 291.313 -131.567 L 291.313 -131.939 Q 291.773 -131.939 291.989 -132.008 Q 292.205 -132.077 292.268 -132.287 Q 292.332 -132.498 292.332 -132.929 L 292.332 -137.182 Q 292.332 -137.584 292.239 -137.775 Q 292.146 -137.966 291.925 -138.025 Q 291.705 -138.084 291.313 -138.084 Z M 293.381 -137.966 L 293.381 -137.966 L 293.381 -132.037 Q 293.537 -132.028 293.689 -132.023 Q 293.841 -132.018 293.988 -132.018 Q 294.958 -132.018 295.639 -132.273 Q 296.321 -132.527 296.678 -133.164 Q 297.036 -133.801 297.036 -134.948 Q 297.036 -136.418 296.286 -137.197 Q 295.537 -137.976 293.91 -137.976 Q 293.773 -137.976 293.645 -137.976 Q 293.518 -137.976 293.381 -137.966 Z " fill="blue" /></g></g></g><g><g><g><path d="M 195.853 -182.29 L 195.853 -182.29 L 199.675 -188.03 Q 199.871 -188.31 199.99 -188.548 Q 200.109 -188.786 200.109 -188.954 Q 200.109 -189.164 199.927 -189.241 Q 199.745 -189.318 199.269 -189.318 L 199.297 -189.738 L 202.321 -189.738 L 202.293 -189.318 Q 201.915 -189.318 201.649 -189.206 Q 201.383 -189.094 201.11 -188.779 Q 200.837 -188.464 200.403 -187.82 L 195.265 -180.47 L 194.803 -180.47 L 194.019 -188.044 Q 193.935 -188.744 193.711 -189.031 Q 193.487 -189.318 192.927 -189.318 L 192.955 -189.738 L 196.385 -189.738 L 196.343 -189.318 Q 195.811 -189.318 195.503 -189.108 Q 195.195 -188.898 195.223 -188.422 Q 195.223 -188.352 195.244 -188.17 Q 195.265 -187.988 195.265 -187.918 L 195.685 -183.928 L 195.783 -182.29 Z " fill="black" /><path d="M 201.218 -184.489 L 201.218 -184.489 L 204.188 -184.489 Q 204.972 -184.489 205.687 -184.318 Q 206.402 -184.146 206.966 -183.754 Q 207.529 -183.362 207.858 -182.706 Q 208.186 -182.049 208.186 -181.069 Q 208.186 -180.148 207.887 -179.486 Q 207.588 -178.825 207.049 -178.408 Q 206.51 -177.992 205.795 -177.796 Q 205.079 -177.6 204.246 -177.6 L 201.218 -177.6 L 201.218 -177.972 Q 201.679 -177.972 201.894 -178.041 Q 202.11 -178.11 202.174 -178.32 Q 202.237 -178.531 202.237 -178.962 L 202.237 -183.215 Q 202.237 -183.617 202.144 -183.808 Q 202.051 -183.999 201.831 -184.058 Q 201.61 -184.117 201.218 -184.117 Z M 203.286 -183.999 L 203.286 -183.999 L 203.286 -178.07 Q 203.443 -178.061 203.595 -178.056 Q 203.747 -178.051 203.894 -178.051 Q 204.864 -178.051 205.545 -178.306 Q 206.226 -178.56 206.584 -179.197 Q 206.941 -179.834 206.941 -180.981 Q 206.941 -182.451 206.192 -183.23 Q 205.442 -184.009 203.815 -184.009 Q 203.678 -184.009 203.551 -184.009 Q 203.423 -184.009 203.286 -183.999 Z " fill="black" /><path d="M 209.372 -184.489 L 209.372 -184.489 L 212.341 -184.489 Q 213.125 -184.489 213.841 -184.318 Q 214.556 -184.146 215.119 -183.754 Q 215.683 -183.362 216.011 -182.706 Q 216.34 -182.049 216.34 -181.069 Q 216.34 -180.148 216.041 -179.486 Q 215.742 -178.825 215.203 -178.408 Q 214.664 -177.992 213.948 -177.796 Q 213.233 -177.6 212.4 -177.6 L 209.372 -177.6 L 209.372 -177.972 Q 209.832 -177.972 210.048 -178.041 Q 210.264 -178.11 210.327 -178.32 Q 210.391 -178.531 210.391 -178.962 L 210.391 -183.215 Q 210.391 -183.617 210.298 -183.808 Q 210.205 -183.999 209.984 -184.058 Q 209.764 -184.117 209.372 -184.117 Z M 211.44 -183.999 L 211.44 -183.999 L 211.44 -178.07 Q 211.596 -178.061 211.748 -178.056 Q 211.9 -178.051 212.047 -178.051 Q 213.017 -178.051 213.698 -178.306 Q 214.38 -178.56 214.737 -179.197 Q 215.095 -179.834 215.095 -180.981 Q 215.095 -182.451 214.345 -183.23 Q 213.596 -184.009 211.969 -184.009 Q 211.832 -184.009 211.704 -184.009 Q 211.577 -184.009 211.44 -183.999 Z " fill="black" /></g></g></g></svg>