<svg xmlns="http://www.w3.org/2000/svg" xmlns:xlink="http://www.w3.org/1999/xlink" xml:lang="en" height="441.20000000000005pt" width="506.3284pt" viewBox="-24.728399999999993 -94.6 506.3284 441.20000000000005"><circle cx="153.0" cy="-0.0" r="18.0" style="stroke:black;fill:none;stroke-width:2.0;stroke-dasharray:-;" /><circle cx="153.0" cy="72.0" r="18.0" style="stroke:black;fill:none;stroke-width:2.0;stroke-dasharray:-;" /><circle cx="324.0" cy="-72.0" r="18.0" style="stroke:black;fill:none;stroke-width:2.0;stroke-dasharray:-;" /><circle cx="324.0" cy="72.0" r="18.0" style="stroke:black;fill:none;stroke-width:2.0;stroke-dasharray:-;" /><circle cx="378.0" cy="-0.0" r="18.0" style="stroke:black;fill:none;stroke-width:2.0;stroke-dasharray:-;" /><circle cx="153.0" cy="252.0" r="18.0" style="stroke:black;fill:none;stroke-width:2.0;stroke-dasharray:-;" /><circle cx="153.0" cy="324.0" r="18.0" style="stroke:black;fill:none;stroke-width:2.0;stroke-dasharray:-;" /><circle cx="324.0" cy="180.0" r="18.0" style="stroke:black;fill:none;stroke-width:2.0;stroke-dasharray:-;" /><circle cx="324.0" cy="324.0" r="18.0" style="stroke:black;fill:none;stroke-width:2.0;stroke-dasharray:-;" /><circle cx="378.0" cy="252.0" r="18.0" style="stroke:black;fill:none;stroke-width:2.0;stroke-dasharray:-;" /><path d="M 0.0,-0.0 L 18.0,-0.0 L 27.0,-0.0" style="stroke:black;fill:none;stroke-width:2.0;stroke-dasharray:-;stroke-linecap:round;stroke-linejoin:round;" /><path d="M 34.0 0.0 L 27.0 2.6999999999999997 L 27.0 -2.6999999999999997 Z" style="stroke:black;fill:black;stroke-linecap:butt;stroke-linejoin:miter;" /><path d="M 36.0,-0.0 L 36.0,18.0 L 63.0,-0.0 L 36.0,-18.0 L 36.0,-0.0" style="stroke:black;fill:none;stroke-width:2.0;stroke-dasharray:-;stroke-linecap:round;stroke-linejoin:round;" /><path d="M 63.0,-0.0 L 72.0,-0.0 L 72.0,-0.0" style="stroke:black;fill:none;stroke-width:2.0;stroke-dasharray:-;stroke-linecap:round;stroke-linejoin:round;" /><path d="M 79.0 0.0 L 72.0 2.6999999999999997 L 72.0 -2.6999999999999997 Z" style="stroke:black;fill:black;stroke-linecap:butt;stroke-linejoin:miter;" /><path d="M 81.0,-0.0 L 81.0,-18.0 L 117.0,-18.0 L 117.0,18.0 L 81.0,18.0 L 81.0,-0.0" style="stroke:black;fill:none;stroke-width:2.0;stroke-dasharray:-;stroke-linecap:round;stroke-linejoin:round;" /><path d="M 88.2,-4.4087284769304716e-16 L 89.33684210526314,-1.168918089136861 L 90.47368421052632,-2.2111657656828045 L 91.61052631578947,-3.013799321745103 L 92.74736842105264,-3.4898409573815896 L 93.8842105263158,-3.5877041748240117 L 95.02105263157894,-3.2967839759582067 L 96.15789473684211,-2.648606078423274 L 97.29473684210527,-1.7134106149334647 L 98.43157894736842,-0.5925405250106421 L 99.56842105263159,0.5925405250106421 L 100.70526315789473,1.7134106149334647 L 101.84210526315789,2.6486060784232732 L 102.97894736842106,3.2967839759582063 L 104.1157894736842,3.5877041748240117 L 105.25263157894736,3.48984095738159 L 106.38947368421053,3.013799321745103 L 107.52631578947368,2.2111657656828045 L 108.66315789473686,1.168918089136861 L 109.8,4.4087284769304716e-16" style="stroke:black;fill:none;stroke-width:2.0;stroke-dasharray:-;stroke-linecap:round;stroke-linejoin:round;" /><path d="M 88.2,-9.0 L 89.33684210526314,-10.16891808913686 L 90.47368421052632,-11.211165765682804 L 91.61052631578947,-12.013799321745104 L 92.74736842105264,-12.489840957381588 L 93.8842105263158,-12.587704174824012 L 95.02105263157894,-12.296783975958206 L 96.15789473684211,-11.648606078423274 L 97.29473684210527,-10.713410614933464 L 98.43157894736842,-9.592540525010643 L 99.56842105263159,-8.407459474989357 L 100.70526315789473,-7.286589385066535 L 101.84210526315789,-6.351393921576727 L 102.97894736842106,-5.703216024041794 L 104.1157894736842,-5.412295825175989 L 105.25263157894736,-5.51015904261841 L 106.38947368421053,-5.986200678254896 L 107.52631578947368,-6.7888342343171955 L 108.66315789473686,-7.831081910863139 L 109.8,-9.0" style="stroke:black;fill:none;stroke-width:2.0;stroke-dasharray:-;stroke-linecap:round;stroke-linejoin:round;" /><path d="M 88.2,9.0 L 89.33684210526314,7.831081910863139 L 90.47368421052632,6.7888342343171955 L 91.61052631578947,5.986200678254896 L 92.74736842105264,5.510159042618411 L 93.8842105263158,5.412295825175989 L 95.02105263157894,5.703216024041793 L 96.15789473684211,6.351393921576726 L 97.29473684210527,7.286589385066535 L 98.43157894736842,8.407459474989357 L 99.56842105263159,9.592540525010643 L 100.70526315789473,10.713410614933464 L 101.84210526315789,11.648606078423274 L 102.97894736842106,12.296783975958206 L 104.1157894736842,12.587704174824012 L 105.25263157894736,12.489840957381592 L 106.38947368421053,12.013799321745104 L 107.52631578947368,11.211165765682804 L 108.66315789473686,10.16891808913686 L 109.8,9.0" style="stroke:black;fill:none;stroke-width:2.0;stroke-dasharray:-;stroke-linecap:round;stroke-linejoin:round;" /><path d="M 97.2,-6.12 L 100.8,-11.88" style="stroke:black;fill:none;stroke-width:2.0;stroke-dasharray:-;stroke-linecap:round;stroke-linejoin:round;" /><path d="M 97.2,11.88 L 100.8,6.12" style="stroke:black;fill:none;stroke-width:2.0;stroke-dasharray:-;stroke-linecap:round;stroke-linejoin:round;" /><path d="M 117.0,-0.0 L 126.0,-0.0 L 126.0,-0.0" style="stroke:black;fill:none;stroke-width:2.0;stroke-dasharray:-;stroke-linecap:round;stroke-linejoin:round;" /><path d="M 133.0 0.0 L 126.0 2.6999999999999997 L 126.0 -2.6999999999999997 Z" style="stroke:black;fill:black;stroke-linecap:butt;stroke-linejoin:miter;" /><path d="M 165.72792206135787,-12.727922061357857 L 140.27207793864213,12.727922061357857" style="stroke:black;fill:none;stroke-width:1;stroke-dasharray:-;stroke-linecap:round;stroke-linejoin:round;" /><path d="M 165.72792206135787,12.727922061357857 L 140.27207793864213,-12.727922061357857" style="stroke:black;fill:none;stroke-width:1;stroke-dasharray:-;stroke-linecap:round;stroke-linejoin:round;" /><path d="M 171.0,-0.0 L 180.0,-0.0 L 180.0,-0.0" style="stroke:black;fill:none;stroke-width:2.0;stroke-dasharray:-;stroke-linecap:round;stroke-linejoin:round;" /><path d="M 187.0 0.0 L 180.0 2.6999999999999997 L 180.0 -2.6999999999999997 Z" style="stroke:black;fill:black;stroke-linecap:butt;stroke-linejoin:miter;" /><path d="M 189.0,-0.0 L 189.0,-18.0 L 225.0,-18.0 L 225.0,18.0 L 189.0,18.0 L 189.0,-0.0" style="stroke:black;fill:none;stroke-width:2.0;stroke-dasharray:-;stroke-linecap:round;stroke-linejoin:round;" /><path d="M 196.20000000000002,-4.4087284769304716e-16 L 197.33684210526314,-1.168918089136861 L 198.47368421052633,-2.2111657656828045 L 199.61052631578949,-3.013799321745103 L 200.7473684210526,-3.4898409573815896 L 201.8842105263158,-3.5877041748240117 L 203.02105263157895,-3.2967839759582067 L 204.15789473684208,-2.648606078423274 L 205.29473684210527,-1.7134106149334647 L 206.43157894736842,-0.5925405250106421 L 207.56842105263158,0.5925405250106421 L 208.70526315789473,1.7134106149334647 L 209.8421052631579,2.6486060784232732 L 210.97894736842105,3.2967839759582063 L 212.1157894736842,3.5877041748240117 L 213.2526315789474,3.48984095738159 L 214.38947368421051,3.013799321745103 L 215.52631578947367,2.2111657656828045 L 216.66315789473686,1.168918089136861 L 217.79999999999998,4.4087284769304716e-16" style="stroke:black;fill:none;stroke-width:2.0;stroke-dasharray:-;stroke-linecap:round;stroke-linejoin:round;" /><path d="M 196.20000000000002,-9.0 L 197.33684210526314,-10.16891808913686 L 198.47368421052633,-11.211165765682804 L 199.61052631578949,-12.013799321745104 L 200.7473684210526,-12.489840957381588 L 201.8842105263158,-12.587704174824012 L 203.02105263157895,-12.296783975958206 L 204.15789473684208,-11.648606078423274 L 205.29473684210527,-10.713410614933464 L 206.43157894736842,-9.592540525010643 L 207.56842105263158,-8.407459474989357 L 208.70526315789473,-7.286589385066535 L 209.8421052631579,-6.351393921576727 L 210.97894736842105,-5.703216024041794 L 212.1157894736842,-5.412295825175989 L 213.2526315789474,-5.51015904261841 L 214.38947368421051,-5.986200678254896 L 215.52631578947367,-6.7888342343171955 L 216.66315789473686,-7.831081910863139 L 217.79999999999998,-9.0" style="stroke:black;fill:none;stroke-width:2.0;stroke-dasharray:-;stroke-linecap:round;stroke-linejoin:round;" /><path d="M 196.20000000000002,9.0 L 197.33684210526314,7.831081910863139 L 198.47368421052633,6.7888342343171955 L 199.61052631578949,5.986200678254896 L 200.7473684210526,5.510159042618411 L 201.8842105263158,5.412295825175989 L 203.02105263157895,5.703216024041793 L 204.15789473684208,6.351393921576726 L 205.29473684210527,7.286589385066535 L 206.43157894736842,8.407459474989357 L 207.56842105263158,9.592540525010643 L 208.70526315789473,10.713410614933464 L 209.8421052631579,11.648606078423274 L 210.97894736842105,12.296783975958206 L 212.1157894736842,12.587704174824012 L 213.2526315789474,12.489840957381592 L 214.38947368421051,12.013799321745104 L 215.52631578947367,11.211165765682804 L 216.66315789473686,10.16891808913686 L 217.79999999999998,9.0" style="stroke:black;fill:none;stroke-width:2.0;stroke-dasharray:-;stroke-linecap:round;stroke-linejoin:round;" /><path d="M 205.20000000000002,-6.12 L 208.79999999999998,-11.88" style="stroke:black;fill:none;stroke-width:2.0;stroke-dasharray:-;stroke-linecap:round;stroke-linejoin:round;" /><path d="M 205.20000000000002,11.88 L 208.79999999999998,6.12" style="stroke:black;fill:none;stroke-width:2.0;stroke-dasharray:-;stroke-linecap:round;stroke-linejoin:round;" /><path d="M 225.0,-0.0 L 234.0,-0.0 L 234.0,-0.0" style="stroke:black;fill:none;stroke-width:2.0;stroke-dasharray:-;stroke-linecap:round;stroke-linejoin:round;" /><path d="M 241.0 0.0 L 234.0 2.6999999999999997 L 234.0 -2.6999999999999997 Z" style="stroke:black;fill:black;stroke-linecap:butt;stroke-linejoin:miter;" /><path d="M 243.0,-0.0 L 243.0,18.0 L 270.0,-0.0 L 243.0,-18.0 L 243.0,-0.0" style="stroke:black;fill:none;stroke-width:2.0;stroke-dasharray:-;stroke-linecap:round;stroke-linejoin:round;" /><path d="M 270.0,-0.0 L 279.0,-0.0 L 288.0,-0.0" style="stroke:black;fill:none;stroke-width:2.0;stroke-dasharray:-;stroke-linecap:round;stroke-linejoin:round;" /><path d="M 153.0,27.0 L 153.0,36.0 L 153.0,54.0" style="stroke:black;fill:none;stroke-width:2.0;stroke-dasharray:-;stroke-linecap:round;stroke-linejoin:round;" /><path d="M 153.0 20.0 L 155.7 27.0 L 150.3 27.0 Z" style="stroke:black;fill:black;stroke-linecap:butt;stroke-linejoin:miter;" /><path d="M 153.0,61.199999999999996 L 154.16891808913687,62.33684210526316 L 155.2111657656828,63.473684210526315 L 156.0137993217451,64.61052631578947 L 156.4898409573816,65.74736842105264 L 156.587704174824,66.88421052631578 L 156.29678397595822,68.02105263157894 L 155.64860607842328,69.15789473684211 L 154.71341061493345,70.29473684210527 L 153.59254052501063,71.43157894736842 L 152.40745947498937,72.56842105263159 L 151.28658938506655,73.70526315789473 L 150.35139392157672,74.84210526315789 L 149.70321602404178,75.97894736842106 L 149.412295825176,77.1157894736842 L 149.5101590426184,78.25263157894736 L 149.9862006782549,79.38947368421053 L 150.7888342343172,80.52631578947368 L 151.83108191086313,81.66315789473686 L 153.0,82.8" style="stroke:black;fill:none;stroke-width:2.0;stroke-dasharray:-;stroke-linecap:round;stroke-linejoin:round;" /><path d="M 171.0,72.0 L 180.0,72.0 L 189.0,72.0" style="stroke:black;fill:none;stroke-width:2.0;stroke-dasharray:-;stroke-linecap:round;stroke-linejoin:round;" /><path d="M 189.0,72.0 L 189.0,54.0 L 225.0,54.0 L 225.0,90.0 L 189.0,90.0 L 189.0,72.0" style="stroke:black;fill:none;stroke-width:2.0;stroke-dasharray:-;stroke-linecap:round;stroke-linejoin:round;" /><path d="M 288.0,-0.0 L 288.0,-36.0 L 288.0,-72.0" style="stroke:black;fill:none;stroke-width:2.0;stroke-dasharray:-;stroke-linecap:round;stroke-linejoin:round;" /><path d="M 288.0,-72.0 L 297.0,-72.0 L 297.0,-72.0" style="stroke:black;fill:none;stroke-width:2.0;stroke-dasharray:-;stroke-linecap:round;stroke-linejoin:round;" /><path d="M 304.0 -72.0 L 297.0 -69.3 L 297.0 -74.7 Z" style="stroke:black;fill:black;stroke-linecap:butt;stroke-linejoin:miter;" /><path d="M 336.72792206135784,-84.72792206135786 L 311.27207793864216,-59.27207793864215" style="stroke:black;fill:none;stroke-width:1;stroke-dasharray:-;stroke-linecap:round;stroke-linejoin:round;" /><path d="M 336.72792206135784,-59.27207793864215 L 311.27207793864216,-84.72792206135786" style="stroke:black;fill:none;stroke-width:1;stroke-dasharray:-;stroke-linecap:round;stroke-linejoin:round;" /><path d="M 342.0,-72.0 L 351.0,-72.0 L 351.0,-72.0" style="stroke:black;fill:none;stroke-width:2.0;stroke-dasharray:-;stroke-linecap:round;stroke-linejoin:round;" /><path d="M 358.0 -72.0 L 351.0 -69.3 L 351.0 -74.7 Z" style="stroke:black;fill:black;stroke-linecap:butt;stroke-linejoin:miter;" /><path d="M 360.0,-72.0 L 360.0,-90.0 L 396.0,-90.0 L 396.0,-54.0 L 360.0,-54.0 L 360.0,-72.0" style="stroke:black;fill:none;stroke-width:2.0;stroke-dasharray:-;stroke-linecap:round;stroke-linejoin:round;" /><path d="M 367.2,-72.0 L 368.33684210526314,-73.16891808913687 L 369.47368421052636,-74.2111657656828 L 370.61052631578946,-75.01379932174511 L 371.7473684210526,-75.48984095738159 L 372.88421052631577,-75.58770417482401 L 374.021052631579,-75.2967839759582 L 375.1578947368421,-74.64860607842327 L 376.2947368421053,-73.71341061493347 L 377.43157894736845,-72.59254052501065 L 378.56842105263155,-71.40745947498937 L 379.7052631578947,-70.28658938506653 L 380.8421052631579,-69.35139392157673 L 381.978947368421,-68.7032160240418 L 383.11578947368423,-68.41229582517599 L 384.2526315789474,-68.51015904261841 L 385.38947368421054,-68.9862006782549 L 386.52631578947364,-69.78883423431719 L 387.66315789473686,-70.83108191086313 L 388.8,-72.0" style="stroke:black;fill:none;stroke-width:2.0;stroke-dasharray:-;stroke-linecap:round;stroke-linejoin:round;" /><path d="M 367.2,-81.0 L 368.33684210526314,-82.16891808913685 L 369.47368421052636,-83.2111657656828 L 370.61052631578946,-84.01379932174511 L 371.7473684210526,-84.48984095738159 L 372.88421052631577,-84.58770417482401 L 374.021052631579,-84.2967839759582 L 375.1578947368421,-83.64860607842327 L 376.2947368421053,-82.71341061493347 L 377.43157894736845,-81.59254052501065 L 378.56842105263155,-80.40745947498935 L 379.7052631578947,-79.28658938506653 L 380.8421052631579,-78.35139392157673 L 381.978947368421,-77.7032160240418 L 383.11578947368423,-77.41229582517599 L 384.2526315789474,-77.51015904261841 L 385.38947368421054,-77.98620067825489 L 386.52631578947364,-78.7888342343172 L 387.66315789473686,-79.83108191086313 L 388.8,-81.0" style="stroke:black;fill:none;stroke-width:2.0;stroke-dasharray:-;stroke-linecap:round;stroke-linejoin:round;" /><path d="M 367.2,-63.0 L 368.33684210526314,-64.16891808913687 L 369.47368421052636,-65.21116576568281 L 370.61052631578946,-66.01379932174511 L 371.7473684210526,-66.48984095738159 L 372.88421052631577,-66.58770417482401 L 374.021052631579,-66.2967839759582 L 375.1578947368421,-65.64860607842327 L 376.2947368421053,-64.71341061493347 L 377.43157894736845,-63.59254052501064 L 378.56842105263155,-62.40745947498936 L 379.7052631578947,-61.286589385066534 L 380.8421052631579,-60.35139392157673 L 381.978947368421,-59.703216024041794 L 383.11578947368423,-59.41229582517599 L 384.2526315789474,-59.51015904261841 L 385.38947368421054,-59.98620067825489 L 386.52631578947364,-60.78883423431719 L 387.66315789473686,-61.83108191086314 L 388.8,-63.0" style="stroke:black;fill:none;stroke-width:2.0;stroke-dasharray:-;stroke-linecap:round;stroke-linejoin:round;" /><path d="M 376.2,-78.12 L 379.8,-83.88" style="stroke:black;fill:none;stroke-width:2.0;stroke-dasharray:-;stroke-linecap:round;stroke-linejoin:round;" /><path d="M 376.2,-69.12 L 379.8,-74.88" style="stroke:black;fill:none;stroke-width:2.0;stroke-dasharray:-;stroke-linecap:round;stroke-linejoin:round;" /><path d="M 396.0,-72.0 L 405.0,-72.0 L 405.0,-72.0" style="stroke:black;fill:none;stroke-width:2.0;stroke-dasharray:-;stroke-linecap:round;stroke-linejoin:round;" /><path d="M 412.0 -72.0 L 405.0 -69.3 L 405.0 -74.7 Z" style="stroke:black;fill:black;stroke-linecap:butt;stroke-linejoin:miter;" /><path d="M 414.0,-72.0 L 414.0,-54.0 L 441.0,-72.0 L 414.0,-90.0 L 414.0,-72.0" style="stroke:black;fill:none;stroke-width:2.0;stroke-dasharray:-;stroke-linecap:round;stroke-linejoin:round;" /><path d="M 441.0,-72.0 L 459.0,-72.0 L 468.0,-72.0" style="stroke:black;fill:none;stroke-width:2.0;stroke-dasharray:7.4,3.2;stroke-linecap:round;stroke-linejoin:round;" /><path d="M 475.0 -72.0 L 468.0 -69.3 L 468.0 -74.7 Z" style="stroke:black;fill:black;stroke-linecap:butt;stroke-linejoin:miter;" /><path d="M 288.0,-0.0 L 288.0,36.0 L 288.0,72.0" style="stroke:black;fill:none;stroke-width:2.0;stroke-dasharray:-;stroke-linecap:round;stroke-linejoin:round;" /><path d="M 288.0,72.0 L 297.0,72.0 L 297.0,72.0" style="stroke:black;fill:none;stroke-width:2.0;stroke-dasharray:-;stroke-linecap:round;stroke-linejoin:round;" /><path d="M 304.0 72.0 L 297.0 74.7 L 297.0 69.3 Z" style="stroke:black;fill:black;stroke-linecap:butt;stroke-linejoin:miter;" /><path d="M 336.72792206135784,59.27207793864215 L 311.27207793864216,84.72792206135786" style="stroke:black;fill:none;stroke-width:1;stroke-dasharray:-;stroke-linecap:round;stroke-linejoin:round;" /><path d="M 336.72792206135784,84.72792206135786 L 311.27207793864216,59.27207793864215" style="stroke:black;fill:none;stroke-width:1;stroke-dasharray:-;stroke-linecap:round;stroke-linejoin:round;" /><path d="M 342.0,72.0 L 351.0,72.0 L 351.0,72.0" style="stroke:black;fill:none;stroke-width:2.0;stroke-dasharray:-;stroke-linecap:round;stroke-linejoin:round;" /><path d="M 358.0 72.0 L 351.0 74.7 L 351.0 69.3 Z" style="stroke:black;fill:black;stroke-linecap:butt;stroke-linejoin:miter;" /><path d="M 360.0,72.0 L 360.0,54.0 L 396.0,54.0 L 396.0,90.0 L 360.0,90.0 L 360.0,72.0" style="stroke:black;fill:none;stroke-width:2.0;stroke-dasharray:-;stroke-linecap:round;stroke-linejoin:round;" /><path d="M 367.2,72.0 L 368.33684210526314,70.83108191086313 L 369.47368421052636,69.78883423431719 L 370.61052631578946,68.9862006782549 L 371.7473684210526,68.51015904261841 L 372.88421052631577,68.41229582517599 L 374.021052631579,68.7032160240418 L 375.1578947368421,69.35139392157673 L 376.2947368421053,70.28658938506653 L 377.43157894736845,71.40745947498937 L 378.56842105263155,72.59254052501065 L 379.7052631578947,73.71341061493347 L 380.8421052631579,74.64860607842327 L 381.978947368421,75.2967839759582 L 383.11578947368423,75.58770417482401 L 384.2526315789474,75.48984095738159 L 385.38947368421054,75.01379932174511 L 386.52631578947364,74.2111657656828 L 387.66315789473686,73.16891808913687 L 388.8,72.0" style="stroke:black;fill:none;stroke-width:2.0;stroke-dasharray:-;stroke-linecap:round;stroke-linejoin:round;" /><path d="M 367.2,63.0 L 368.33684210526314,61.83108191086314 L 369.47368421052636,60.78883423431719 L 370.61052631578946,59.98620067825489 L 371.7473684210526,59.51015904261841 L 372.88421052631577,59.41229582517599 L 374.021052631579,59.703216024041794 L 375.1578947368421,60.35139392157673 L 376.2947368421053,61.286589385066534 L 377.43157894736845,62.40745947498936 L 378.56842105263155,63.59254052501064 L 379.7052631578947,64.71341061493347 L 380.8421052631579,65.64860607842327 L 381.978947368421,66.2967839759582 L 383.11578947368423,66.58770417482401 L 384.2526315789474,66.48984095738159 L 385.38947368421054,66.01379932174511 L 386.52631578947364,65.21116576568281 L 387.66315789473686,64.16891808913687 L 388.8,63.0" style="stroke:black;fill:none;stroke-width:2.0;stroke-dasharray:-;stroke-linecap:round;stroke-linejoin:round;" /><path d="M 367.2,81.0 L 368.33684210526314,79.83108191086313 L 369.47368421052636,78.7888342343172 L 370.61052631578946,77.98620067825489 L 371.7473684210526,77.51015904261841 L 372.88421052631577,77.41229582517599 L 374.021052631579,77.7032160240418 L 375.1578947368421,78.35139392157673 L 376.2947368421053,79.28658938506653 L 377.43157894736845,80.40745947498935 L 378.56842105263155,81.59254052501065 L 379.7052631578947,82.71341061493347 L 380.8421052631579,83.64860607842327 L 381.978947368421,84.2967839759582 L 383.11578947368423,84.58770417482401 L 384.2526315789474,84.4898409573816 L 385.38947368421054,84.01379932174511 L 386.52631578947364,83.2111657656828 L 387.66315789473686,82.16891808913685 L 388.8,81.0" style="stroke:black;fill:none;stroke-width:2.0;stroke-dasharray:-;stroke-linecap:round;stroke-linejoin:round;" /><path d="M 376.2,65.88 L 379.8,60.12" style="stroke:black;fill:none;stroke-width:2.0;stroke-dasharray:-;stroke-linecap:round;stroke-linejoin:round;" /><path d="M 376.2,74.88 L 379.8,69.12" style="stroke:black;fill:none;stroke-width:2.0;stroke-dasharray:-;stroke-linecap:round;stroke-linejoin:round;" /><path d="M 396.0,72.0 L 405.0,72.0 L 405.0,72.0" style="stroke:black;fill:none;stroke-width:2.0;stroke-dasharray:-;stroke-linecap:round;stroke-linejoin:round;" /><path d="M 412.0 72.0 L 405.0 74.7 L 405.0 69.3 Z" style="stroke:black;fill:black;stroke-linecap:butt;stroke-linejoin:miter;" /><path d="M 414.0,72.0 L 414.0,90.0 L 441.0,72.0 L 414.0,54.0 L 414.0,72.0" style="stroke:black;fill:none;stroke-width:2.0;stroke-dasharray:-;stroke-linecap:round;stroke-linejoin:round;" /><path d="M 441.0,72.0 L 459.0,72.0 L 468.0,72.0" style="stroke:black;fill:none;stroke-width:2.0;stroke-dasharray:7.4,3.2;stroke-linecap:round;stroke-linejoin:round;" /><path d="M 475.0 72.0 L 468.0 74.7 L 468.0 69.3 Z" style="stroke:black;fill:black;stroke-linecap:butt;stroke-linejoin:miter;" /><path d="M 306.0,-0.0 L 306.0,-18.0 L 342.0,-18.0 L 342.0,18.0 L 306.0,18.0 L 306.0,-0.0" style="stroke:black;fill:none;stroke-width:2.0;stroke-dasharray:-;stroke-linecap:round;stroke-linejoin:round;" /><path d="M 324.0,-18.0 L 324.0,-36.0 L 324.0,-45.0" style="stroke:black;fill:none;stroke-width:2.0;stroke-dasharray:-;stroke-linecap:round;stroke-linejoin:round;" /><path d="M 324.0 -52.0 L 326.7 -45.0 L 321.3 -45.0 Z" style="stroke:black;fill:black;stroke-linecap:butt;stroke-linejoin:miter;" /><path d="M 324.0,18.0 L 324.0,36.0 L 324.0,45.0" style="stroke:black;fill:none;stroke-width:2.0;stroke-dasharray:-;stroke-linecap:round;stroke-linejoin:round;" /><path d="M 324.0 52.0 L 321.3 45.0 L 326.7 45.0 Z" style="stroke:black;fill:black;stroke-linecap:butt;stroke-linejoin:miter;" /><path d="M 351.0,-0.0 L 351.0,-0.0 L 360.0,-0.0" style="stroke:black;fill:none;stroke-width:2.0;stroke-dasharray:-;stroke-linecap:round;stroke-linejoin:round;" /><path d="M 344.0 2.4492935982947064e-16 L 351.0 -2.699999999999999 L 351.0 2.7000000000000006 Z" style="stroke:black;fill:black;stroke-linecap:butt;stroke-linejoin:miter;" /><path d="M 367.2,-4.4087284769304716e-16 L 368.33684210526314,-1.168918089136861 L 369.47368421052636,-2.2111657656828045 L 370.61052631578946,-3.013799321745103 L 371.7473684210526,-3.4898409573815896 L 372.88421052631577,-3.5877041748240117 L 374.021052631579,-3.2967839759582067 L 375.1578947368421,-2.648606078423274 L 376.2947368421053,-1.7134106149334647 L 377.43157894736845,-0.5925405250106421 L 378.56842105263155,0.5925405250106421 L 379.7052631578947,1.7134106149334647 L 380.8421052631579,2.6486060784232732 L 381.978947368421,3.2967839759582063 L 383.11578947368423,3.5877041748240117 L 384.2526315789474,3.48984095738159 L 385.38947368421054,3.013799321745103 L 386.52631578947364,2.2111657656828045 L 387.66315789473686,1.168918089136861 L 388.8,4.4087284769304716e-16" style="stroke:black;fill:none;stroke-width:2.0;stroke-dasharray:-;stroke-linecap:round;stroke-linejoin:round;" /><path d="M 396.0,-0.0 L 405.0,-0.0 L 414.0,-0.0" style="stroke:black;fill:none;stroke-width:2.0;stroke-dasharray:-;stroke-linecap:round;stroke-linejoin:round;" /><path d="M 414.0,-0.0 L 414.0,-18.0 L 450.0,-18.0 L 450.0,18.0 L 414.0,18.0 L 414.0,-0.0" style="stroke:black;fill:none;stroke-width:2.0;stroke-dasharray:-;stroke-linecap:round;stroke-linejoin:round;" /><path d="M 9.0,252.0 L 18.0,252.0 L 36.0,252.0" style="stroke:black;fill:none;stroke-width:2.0;stroke-dasharray:-;stroke-linecap:round;stroke-linejoin:round;" /><path d="M 2.0 252.0 L 9.0 249.3 L 9.0 254.7 Z" style="stroke:black;fill:black;stroke-linecap:butt;stroke-linejoin:miter;" /><path d="M 63.0,252.0 L 63.0,234.0 L 36.0,252.0 L 63.0,270.0 L 63.0,252.0" style="stroke:black;fill:none;stroke-width:2.0;stroke-dasharray:-;stroke-linecap:round;stroke-linejoin:round;" /><path d="M 72.0,252.0 L 72.0,252.0 L 81.0,252.0" style="stroke:black;fill:none;stroke-width:2.0;stroke-dasharray:-;stroke-linecap:round;stroke-linejoin:round;" /><path d="M 65.0 252.0 L 72.0 249.3 L 72.0 254.7 Z" style="stroke:black;fill:black;stroke-linecap:butt;stroke-linejoin:miter;" /><path d="M 81.0,252.0 L 81.0,234.0 L 117.0,234.0 L 117.0,270.0 L 81.0,270.0 L 81.0,252.0" style="stroke:black;fill:none;stroke-width:2.0;stroke-dasharray:-;stroke-linecap:round;stroke-linejoin:round;" /><path d="M 88.2,252.0 L 89.33684210526314,250.83108191086313 L 90.47368421052632,249.7888342343172 L 91.61052631578947,248.9862006782549 L 92.74736842105264,248.5101590426184 L 93.8842105263158,248.412295825176 L 95.02105263157894,248.70321602404178 L 96.15789473684211,249.35139392157672 L 97.29473684210527,250.28658938506655 L 98.43157894736842,251.40745947498937 L 99.56842105263159,252.59254052501063 L 100.70526315789473,253.71341061493345 L 101.84210526315789,254.64860607842328 L 102.97894736842106,255.29678397595822 L 104.1157894736842,255.587704174824 L 105.25263157894736,255.4898409573816 L 106.38947368421053,255.0137993217451 L 107.52631578947368,254.2111657656828 L 108.66315789473686,253.16891808913687 L 109.8,252.0" style="stroke:black;fill:none;stroke-width:2.0;stroke-dasharray:-;stroke-linecap:round;stroke-linejoin:round;" /><path d="M 88.2,243.0 L 89.33684210526314,241.83108191086313 L 90.47368421052632,240.7888342343172 L 91.61052631578947,239.9862006782549 L 92.74736842105264,239.5101590426184 L 93.8842105263158,239.412295825176 L 95.02105263157894,239.70321602404178 L 96.15789473684211,240.35139392157672 L 97.29473684210527,241.28658938506655 L 98.43157894736842,242.40745947498937 L 99.56842105263159,243.59254052501063 L 100.70526315789473,244.71341061493345 L 101.84210526315789,245.64860607842328 L 102.97894736842106,246.29678397595822 L 104.1157894736842,246.587704174824 L 105.25263157894736,246.4898409573816 L 106.38947368421053,246.0137993217451 L 107.52631578947368,245.2111657656828 L 108.66315789473686,244.16891808913687 L 109.8,243.0" style="stroke:black;fill:none;stroke-width:2.0;stroke-dasharray:-;stroke-linecap:round;stroke-linejoin:round;" /><path d="M 88.2,261.0 L 89.33684210526314,259.83108191086313 L 90.47368421052632,258.7888342343172 L 91.61052631578947,257.9862006782549 L 92.74736842105264,257.5101590426184 L 93.8842105263158,257.412295825176 L 95.02105263157894,257.7032160240418 L 96.15789473684211,258.35139392157674 L 97.29473684210527,259.2865893850665 L 98.43157894736842,260.40745947498937 L 99.56842105263159,261.59254052501063 L 100.70526315789473,262.7134106149335 L 101.84210526315789,263.64860607842326 L 102.97894736842106,264.2967839759582 L 104.1157894736842,264.587704174824 L 105.25263157894736,264.4898409573816 L 106.38947368421053,264.0137993217451 L 107.52631578947368,263.2111657656828 L 108.66315789473686,262.16891808913687 L 109.8,261.0" style="stroke:black;fill:none;stroke-width:2.0;stroke-dasharray:-;stroke-linecap:round;stroke-linejoin:round;" /><path d="M 97.2,245.88 L 100.8,240.12" style="stroke:black;fill:none;stroke-width:2.0;stroke-dasharray:-;stroke-linecap:round;stroke-linejoin:round;" /><path d="M 97.2,263.88 L 100.8,258.12" style="stroke:black;fill:none;stroke-width:2.0;stroke-dasharray:-;stroke-linecap:round;stroke-linejoin:round;" /><path d="M 126.0,252.0 L 126.0,252.0 L 135.0,252.0" style="stroke:black;fill:none;stroke-width:2.0;stroke-dasharray:-;stroke-linecap:round;stroke-linejoin:round;" /><path d="M 119.0 252.0 L 126.0 249.3 L 126.0 254.7 Z" style="stroke:black;fill:black;stroke-linecap:butt;stroke-linejoin:miter;" /><path d="M 165.72792206135787,239.27207793864213 L 140.27207793864213,264.72792206135784" style="stroke:black;fill:none;stroke-width:1;stroke-dasharray:-;stroke-linecap:round;stroke-linejoin:round;" /><path d="M 165.72792206135787,264.72792206135784 L 140.27207793864213,239.27207793864213" style="stroke:black;fill:none;stroke-width:1;stroke-dasharray:-;stroke-linecap:round;stroke-linejoin:round;" /><path d="M 180.0,252.0 L 180.0,252.0 L 189.0,252.0" style="stroke:black;fill:none;stroke-width:2.0;stroke-dasharray:-;stroke-linecap:round;stroke-linejoin:round;" /><path d="M 173.0 252.0 L 180.0 249.3 L 180.0 254.7 Z" style="stroke:black;fill:black;stroke-linecap:butt;stroke-linejoin:miter;" /><path d="M 189.0,252.0 L 189.0,234.0 L 225.0,234.0 L 225.0,270.0 L 189.0,270.0 L 189.0,252.0" style="stroke:black;fill:none;stroke-width:2.0;stroke-dasharray:-;stroke-linecap:round;stroke-linejoin:round;" /><path d="M 196.20000000000002,252.0 L 197.33684210526314,250.83108191086313 L 198.47368421052633,249.7888342343172 L 199.61052631578949,248.9862006782549 L 200.7473684210526,248.5101590426184 L 201.8842105263158,248.412295825176 L 203.02105263157895,248.70321602404178 L 204.15789473684208,249.35139392157672 L 205.29473684210527,250.28658938506655 L 206.43157894736842,251.40745947498937 L 207.56842105263158,252.59254052501063 L 208.70526315789473,253.71341061493345 L 209.8421052631579,254.64860607842328 L 210.97894736842105,255.29678397595822 L 212.1157894736842,255.587704174824 L 213.2526315789474,255.4898409573816 L 214.38947368421051,255.0137993217451 L 215.52631578947367,254.2111657656828 L 216.66315789473686,253.16891808913687 L 217.79999999999998,252.0" style="stroke:black;fill:none;stroke-width:2.0;stroke-dasharray:-;stroke-linecap:round;stroke-linejoin:round;" /><path d="M 196.20000000000002,243.0 L 197.33684210526314,241.83108191086313 L 198.47368421052633,240.7888342343172 L 199.61052631578949,239.9862006782549 L 200.7473684210526,239.5101590426184 L 201.8842105263158,239.412295825176 L 203.02105263157895,239.70321602404178 L 204.15789473684208,240.35139392157672 L 205.29473684210527,241.28658938506655 L 206.43157894736842,242.40745947498937 L 207.56842105263158,243.59254052501063 L 208.70526315789473,244.71341061493345 L 209.8421052631579,245.64860607842328 L 210.97894736842105,246.29678397595822 L 212.1157894736842,246.587704174824 L 213.2526315789474,246.4898409573816 L 214.38947368421051,246.0137993217451 L 215.52631578947367,245.2111657656828 L 216.66315789473686,244.16891808913687 L 217.79999999999998,243.0" style="stroke:black;fill:none;stroke-width:2.0;stroke-dasharray:-;stroke-linecap:round;stroke-linejoin:round;" /><path d="M 196.20000000000002,261.0 L 197.33684210526314,259.83108191086313 L 198.47368421052633,258.7888342343172 L 199.61052631578949,257.9862006782549 L 200.7473684210526,257.5101590426184 L 201.8842105263158,257.412295825176 L 203.02105263157895,257.7032160240418 L 204.15789473684208,258.35139392157674 L 205.29473684210527,259.2865893850665 L 206.43157894736842,260.40745947498937 L 207.56842105263158,261.59254052501063 L 208.70526315789473,262.7134106149335 L 209.8421052631579,263.64860607842326 L 210.97894736842105,264.2967839759582 L 212.1157894736842,264.587704174824 L 213.2526315789474,264.4898409573816 L 214.38947368421051,264.0137993217451 L 215.52631578947367,263.2111657656828 L 216.66315789473686,262.16891808913687 L 217.79999999999998,261.0" style="stroke:black;fill:none;stroke-width:2.0;stroke-dasharray:-;stroke-linecap:round;stroke-linejoin:round;" /><path d="M 205.20000000000002,245.88 L 208.79999999999998,240.12" style="stroke:black;fill:none;stroke-width:2.0;stroke-dasharray:-;stroke-linecap:round;stroke-linejoin:round;" /><path d="M 205.20000000000002,263.88 L 208.79999999999998,258.12" style="stroke:black;fill:none;stroke-width:2.0;stroke-dasharray:-;stroke-linecap:round;stroke-linejoin:round;" /><path d="M 234.0,252.0 L 234.0,252.0 L 243.0,252.0" style="stroke:black;fill:none;stroke-width:2.0;stroke-dasharray:-;stroke-linecap:round;stroke-linejoin:round;" /><path d="M 227.0 252.0 L 234.0 249.3 L 234.0 254.7 Z" style="stroke:black;fill:black;stroke-linecap:butt;stroke-linejoin:miter;" /><path d="M 270.0,252.0 L 270.0,234.0 L 243.0,252.0 L 270.0,270.0 L 270.0,252.0" style="stroke:black;fill:none;stroke-width:2.0;stroke-dasharray:-;stroke-linecap:round;stroke-linejoin:round;" /><path d="M 279.0,252.0 L 279.0,252.0 L 288.0,252.0" style="stroke:black;fill:none;stroke-width:2.0;stroke-dasharray:-;stroke-linecap:round;stroke-linejoin:round;" /><path d="M 272.0 252.0 L 279.0 249.3 L 279.0 254.7 Z" style="stroke:black;fill:black;stroke-linecap:butt;stroke-linejoin:miter;" /><path d="M 153.0,279.0 L 153.0,288.0 L 153.0,306.0" style="stroke:black;fill:none;stroke-width:2.0;stroke-dasharray:-;stroke-linecap:round;stroke-linejoin:round;" /><path d="M 153.0 272.0 L 155.7 279.0 L 150.3 279.0 Z" style="stroke:black;fill:black;stroke-linecap:butt;stroke-linejoin:miter;" /><path d="M 153.0,313.2 L 154.16891808913687,314.33684210526314 L 155.2111657656828,315.47368421052636 L 156.0137993217451,316.61052631578946 L 156.4898409573816,317.7473684210526 L 156.587704174824,318.88421052631577 L 156.29678397595822,320.021052631579 L 155.64860607842328,321.1578947368421 L 154.71341061493345,322.2947368421053 L 153.59254052501063,323.43157894736845 L 152.40745947498937,324.56842105263155 L 151.28658938506655,325.7052631578947 L 150.35139392157672,326.8421052631579 L 149.70321602404178,327.978947368421 L 149.412295825176,329.11578947368423 L 149.5101590426184,330.2526315789474 L 149.9862006782549,331.38947368421054 L 150.7888342343172,332.52631578947364 L 151.83108191086313,333.66315789473686 L 153.0,334.8" style="stroke:black;fill:none;stroke-width:2.0;stroke-dasharray:-;stroke-linecap:round;stroke-linejoin:round;" /><path d="M 171.0,324.0 L 180.0,324.0 L 189.0,324.0" style="stroke:black;fill:none;stroke-width:2.0;stroke-dasharray:-;stroke-linecap:round;stroke-linejoin:round;" /><path d="M 189.0,324.0 L 189.0,306.0 L 225.0,306.0 L 225.0,342.0 L 189.0,342.0 L 189.0,324.0" style="stroke:black;fill:none;stroke-width:2.0;stroke-dasharray:-;stroke-linecap:round;stroke-linejoin:round;" /><path d="M 288.0,252.0 L 288.0,216.0 L 288.0,180.0" style="stroke:black;fill:none;stroke-width:2.0;stroke-dasharray:-;stroke-linecap:round;stroke-linejoin:round;" /><path d="M 288.0,180.0 L 297.0,180.0 L 306.0,180.0" style="stroke:black;fill:none;stroke-width:2.0;stroke-dasharray:-;stroke-linecap:round;stroke-linejoin:round;" /><path d="M 336.72792206135784,167.27207793864213 L 311.27207793864216,192.72792206135787" style="stroke:black;fill:none;stroke-width:1;stroke-dasharray:-;stroke-linecap:round;stroke-linejoin:round;" /><path d="M 336.72792206135784,192.72792206135787 L 311.27207793864216,167.27207793864213" style="stroke:black;fill:none;stroke-width:1;stroke-dasharray:-;stroke-linecap:round;stroke-linejoin:round;" /><path d="M 351.0,180.0 L 351.0,180.0 L 360.0,180.0" style="stroke:black;fill:none;stroke-width:2.0;stroke-dasharray:-;stroke-linecap:round;stroke-linejoin:round;" /><path d="M 344.0 180.0 L 351.0 177.3 L 351.0 182.7 Z" style="stroke:black;fill:black;stroke-linecap:butt;stroke-linejoin:miter;" /><path d="M 360.0,180.0 L 360.0,162.0 L 396.0,162.0 L 396.0,198.0 L 360.0,198.0 L 360.0,180.0" style="stroke:black;fill:none;stroke-width:2.0;stroke-dasharray:-;stroke-linecap:round;stroke-linejoin:round;" /><path d="M 367.2,180.0 L 368.33684210526314,178.83108191086313 L 369.47368421052636,177.7888342343172 L 370.61052631578946,176.9862006782549 L 371.7473684210526,176.5101590426184 L 372.88421052631577,176.412295825176 L 374.021052631579,176.70321602404178 L 375.1578947368421,177.35139392157672 L 376.2947368421053,178.28658938506655 L 377.43157894736845,179.40745947498937 L 378.56842105263155,180.59254052501063 L 379.7052631578947,181.71341061493345 L 380.8421052631579,182.64860607842328 L 381.978947368421,183.29678397595822 L 383.11578947368423,183.587704174824 L 384.2526315789474,183.4898409573816 L 385.38947368421054,183.0137993217451 L 386.52631578947364,182.2111657656828 L 387.66315789473686,181.16891808913687 L 388.8,180.0" style="stroke:black;fill:none;stroke-width:2.0;stroke-dasharray:-;stroke-linecap:round;stroke-linejoin:round;" /><path d="M 367.2,171.0 L 368.33684210526314,169.83108191086313 L 369.47368421052636,168.7888342343172 L 370.61052631578946,167.9862006782549 L 371.7473684210526,167.5101590426184 L 372.88421052631577,167.412295825176 L 374.021052631579,167.70321602404178 L 375.1578947368421,168.35139392157672 L 376.2947368421053,169.28658938506655 L 377.43157894736845,170.40745947498937 L 378.56842105263155,171.59254052501063 L 379.7052631578947,172.71341061493345 L 380.8421052631579,173.64860607842328 L 381.978947368421,174.29678397595822 L 383.11578947368423,174.587704174824 L 384.2526315789474,174.4898409573816 L 385.38947368421054,174.0137993217451 L 386.52631578947364,173.2111657656828 L 387.66315789473686,172.16891808913687 L 388.8,171.0" style="stroke:black;fill:none;stroke-width:2.0;stroke-dasharray:-;stroke-linecap:round;stroke-linejoin:round;" /><path d="M 367.2,189.0 L 368.33684210526314,187.83108191086313 L 369.47368421052636,186.7888342343172 L 370.61052631578946,185.9862006782549 L 371.7473684210526,185.5101590426184 L 372.88421052631577,185.412295825176 L 374.021052631579,185.70321602404178 L 375.1578947368421,186.35139392157672 L 376.2947368421053,187.28658938506655 L 377.43157894736845,188.40745947498937 L 378.56842105263155,189.59254052501063 L 379.7052631578947,190.71341061493345 L 380.8421052631579,191.64860607842328 L 381.978947368421,192.29678397595822 L 383.11578947368423,192.587704174824 L 384.2526315789474,192.4898409573816 L 385.38947368421054,192.0137993217451 L 386.52631578947364,191.2111657656828 L 387.66315789473686,190.16891808913687 L 388.8,189.0" style="stroke:black;fill:none;stroke-width:2.0;stroke-dasharray:-;stroke-linecap:round;stroke-linejoin:round;" /><path d="M 376.2,173.88 L 379.8,168.12" style="stroke:black;fill:none;stroke-width:2.0;stroke-dasharray:-;stroke-linecap:round;stroke-linejoin:round;" /><path d="M 376.2,182.88 L 379.8,177.12" style="stroke:black;fill:none;stroke-width:2.0;stroke-dasharray:-;stroke-linecap:round;stroke-linejoin:round;" /><path d="M 405.0,180.0 L 405.0,180.0 L 414.0,180.0" style="stroke:black;fill:none;stroke-width:2.0;stroke-dasharray:-;stroke-linecap:round;stroke-linejoin:round;" /><path d="M 398.0 180.0 L 405.0 177.3 L 405.0 182.7 Z" style="stroke:black;fill:black;stroke-linecap:butt;stroke-linejoin:miter;" /><path d="M 441.0,180.0 L 441.0,162.0 L 414.0,180.0 L 441.0,198.0 L 441.0,180.0" style="stroke:black;fill:none;stroke-width:2.0;stroke-dasharray:-;stroke-linecap:round;stroke-linejoin:round;" /><path d="M 450.0,180.0 L 459.0,180.0 L 477.0,180.0" style="stroke:black;fill:none;stroke-width:2.0;stroke-dasharray:7.4,3.2;stroke-linecap:round;stroke-linejoin:round;" /><path d="M 443.0 180.0 L 450.0 177.3 L 450.0 182.7 Z" style="stroke:black;fill:black;stroke-linecap:butt;stroke-linejoin:miter;" /><path d="M 288.0,252.0 L 288.0,288.0 L 288.0,324.0" style="stroke:black;fill:none;stroke-width:2.0;stroke-dasharray:-;stroke-linecap:round;stroke-linejoin:round;" /><path d="M 288.0,324.0 L 297.0,324.0 L 306.0,324.0" style="stroke:black;fill:none;stroke-width:2.0;stroke-dasharray:-;stroke-linecap:round;stroke-linejoin:round;" /><path d="M 336.72792206135784,311.27207793864216 L 311.27207793864216,336.72792206135784" style="stroke:black;fill:none;stroke-width:1;stroke-dasharray:-;stroke-linecap:round;stroke-linejoin:round;" /><path d="M 336.72792206135784,336.72792206135784 L 311.27207793864216,311.27207793864216" style="stroke:black;fill:none;stroke-width:1;stroke-dasharray:-;stroke-linecap:round;stroke-linejoin:round;" /><path d="M 351.0,324.0 L 351.0,324.0 L 360.0,324.0" style="stroke:black;fill:none;stroke-width:2.0;stroke-dasharray:-;stroke-linecap:round;stroke-linejoin:round;" /><path d="M 344.0 324.0 L 351.0 321.3 L 351.0 326.7 Z" style="stroke:black;fill:black;stroke-linecap:butt;stroke-linejoin:miter;" /><path d="M 360.0,324.0 L 360.0,306.0 L 396.0,306.0 L 396.0,342.0 L 360.0,342.0 L 360.0,324.0" style="stroke:black;fill:none;stroke-width:2.0;stroke-dasharray:-;stroke-linecap:round;stroke-linejoin:round;" /><path d="M 367.2,324.0 L 368.33684210526314,322.83108191086313 L 369.47368421052636,321.78883423431716 L 370.61052631578946,320.98620067825493 L 371.7473684210526,320.51015904261845 L 372.88421052631577,320.412295825176 L 374.021052631579,320.7032160240418 L 375.1578947368421,321.35139392157674 L 376.2947368421053,322.2865893850665 L 377.43157894736845,323.40745947498937 L 378.56842105263155,324.59254052501063 L 379.7052631578947,325.7134106149335 L 380.8421052631579,326.64860607842326 L 381.978947368421,327.2967839759582 L 383.11578947368423,327.587704174824 L 384.2526315789474,327.48984095738155 L 385.38947368421054,327.01379932174507 L 386.52631578947364,326.21116576568284 L 387.66315789473686,325.16891808913687 L 388.8,324.0" style="stroke:black;fill:none;stroke-width:2.0;stroke-dasharray:-;stroke-linecap:round;stroke-linejoin:round;" /><path d="M 367.2,315.0 L 368.33684210526314,313.83108191086313 L 369.47368421052636,312.78883423431716 L 370.61052631578946,311.98620067825493 L 371.7473684210526,311.51015904261845 L 372.88421052631577,311.412295825176 L 374.021052631579,311.7032160240418 L 375.1578947368421,312.35139392157674 L 376.2947368421053,313.2865893850665 L 377.43157894736845,314.40745947498937 L 378.56842105263155,315.59254052501063 L 379.7052631578947,316.7134106149335 L 380.8421052631579,317.64860607842326 L 381.978947368421,318.2967839759582 L 383.11578947368423,318.587704174824 L 384.2526315789474,318.48984095738155 L 385.38947368421054,318.01379932174507 L 386.52631578947364,317.21116576568284 L 387.66315789473686,316.16891808913687 L 388.8,315.0" style="stroke:black;fill:none;stroke-width:2.0;stroke-dasharray:-;stroke-linecap:round;stroke-linejoin:round;" /><path d="M 367.2,333.0 L 368.33684210526314,331.83108191086313 L 369.47368421052636,330.78883423431716 L 370.61052631578946,329.98620067825493 L 371.7473684210526,329.51015904261845 L 372.88421052631577,329.412295825176 L 374.021052631579,329.7032160240418 L 375.1578947368421,330.35139392157674 L 376.2947368421053,331.2865893850665 L 377.43157894736845,332.40745947498937 L 378.56842105263155,333.59254052501063 L 379.7052631578947,334.7134106149335 L 380.8421052631579,335.64860607842326 L 381.978947368421,336.2967839759582 L 383.11578947368423,336.587704174824 L 384.2526315789474,336.48984095738155 L 385.38947368421054,336.01379932174507 L 386.52631578947364,335.21116576568284 L 387.66315789473686,334.16891808913687 L 388.8,333.0" style="stroke:black;fill:none;stroke-width:2.0;stroke-dasharray:-;stroke-linecap:round;stroke-linejoin:round;" /><path d="M 376.2,317.88 L 379.8,312.12" style="stroke:black;fill:none;stroke-width:2.0;stroke-dasharray:-;stroke-linecap:round;stroke-linejoin:round;" /><path d="M 376.2,326.88 L 379.8,321.12" style="stroke:black;fill:none;stroke-width:2.0;stroke-dasharray:-;stroke-linecap:round;stroke-linejoin:round;" /><path d="M 405.0,324.0 L 405.0,324.0 L 414.0,324.0" style="stroke:black;fill:none;stroke-width:2.0;stroke-dasharray:-;stroke-linecap:round;stroke-linejoin:round;" /><path d="M 398.0 324.0 L 405.0 321.3 L 405.0 326.7 Z" style="stroke:black;fill:black;stroke-linecap:butt;stroke-linejoin:miter;" /><path d="M 441.0,324.0 L 441.0,306.0 L 414.0,324.0 L 441.0,342.0 L 441.0,324.0" style="stroke:black;fill:none;stroke-width:2.0;stroke-dasharray:-;stroke-linecap:round;stroke-linejoin:round;" /><path d="M 450.0,324.0 L 459.0,324.0 L 477.0,324.0" style="stroke:black;fill:none;stroke-width:2.0;stroke-dasharray:7.4,3.2;stroke-linecap:round;stroke-linejoin:round;" /><path d="M 443.0 324.0 L 450.0 321.3 L 450.0 326.7 Z" style="stroke:black;fill:black;stroke-linecap:butt;stroke-linejoin:miter;" /><path d="M 306.0,252.0 L 306.0,234.0 L 342.0,234.0 L 342.0,270.0 L 306.0,270.0 L 306.0,252.0" style="stroke:black;fill:none;stroke-width:2.0;stroke-dasharray:-;stroke-linecap:round;stroke-linejoin:round;" /><path d="M 324.0,234.0 L 324.0,216.0 L 324.0,207.0" style="stroke:black;fill:none;stroke-width:2.0;stroke-dasharray:-;stroke-linecap:round;stroke-linejoin:round;" /><path d="M 324.0 200.0 L 326.7 207.0 L 321.3 207.0 Z" style="stroke:black;fill:black;stroke-linecap:butt;stroke-linejoin:miter;" /><path d="M 324.0,270.0 L 324.0,288.0 L 324.0,297.0" style="stroke:black;fill:none;stroke-width:2.0;stroke-dasharray:-;stroke-linecap:round;stroke-linejoin:round;" /><path d="M 324.0 304.0 L 321.3 297.0 L 326.7 297.0 Z" style="stroke:black;fill:black;stroke-linecap:butt;stroke-linejoin:miter;" /><path d="M 351.0,252.0 L 351.0,252.0 L 360.0,252.0" style="stroke:black;fill:none;stroke-width:2.0;stroke-dasharray:-;stroke-linecap:round;stroke-linejoin:round;" /><path d="M 344.0 252.0 L 351.0 249.3 L 351.0 254.7 Z" style="stroke:black;fill:black;stroke-linecap:butt;stroke-linejoin:miter;" /><path d="M 367.2,252.0 L 368.33684210526314,250.83108191086313 L 369.47368421052636,249.7888342343172 L 370.61052631578946,248.9862006782549 L 371.7473684210526,248.5101590426184 L 372.88421052631577,248.412295825176 L 374.021052631579,248.70321602404178 L 375.1578947368421,249.35139392157672 L 376.2947368421053,250.28658938506655 L 377.43157894736845,251.40745947498937 L 378.56842105263155,252.59254052501063 L 379.7052631578947,253.71341061493345 L 380.8421052631579,254.64860607842328 L 381.978947368421,255.29678397595822 L 383.11578947368423,255.587704174824 L 384.2526315789474,255.4898409573816 L 385.38947368421054,255.0137993217451 L 386.52631578947364,254.2111657656828 L 387.66315789473686,253.16891808913687 L 388.8,252.0" style="stroke:black;fill:none;stroke-width:2.0;stroke-dasharray:-;stroke-linecap:round;stroke-linejoin:round;" /><path d="M 396.0,252.0 L 405.0,252.0 L 414.0,252.0" style="stroke:black;fill:none;stroke-width:2.0;stroke-dasharray:-;stroke-linecap:round;stroke-linejoin:round;" /><path d="M 414.0,252.0 L 414.0,234.0 L 450.0,234.0 L 450.0,270.0 L 414.0,270.0 L 414.0,252.0" style="stroke:black;fill:none;stroke-width:2.0;stroke-dasharray:-;stroke-linecap:round;stroke-linejoin:round;" /><g><g><g><path d="M -18.089 -4.823 L -18.089 -4.823 L -18.411 -2.639 L -18.747 -2.639 Q -18.775 -3.451 -19.118 -3.927 Q -19.461 -4.403 -20.077 -4.403 Q -20.623 -4.403 -20.861 -4.109 Q -21.099 -3.815 -21.099 -3.507 Q -21.099 -3.213 -20.896 -2.94 Q -20.693 -2.667 -20.385 -2.38 Q -20.077 -2.093 -19.769 -1.757 Q -19.321 -1.281 -18.992 -0.826 Q -18.663 -0.371 -18.663 0.301 Q -18.663 0.707 -18.866 1.106 Q -19.069 1.505 -19.531 1.771 Q -19.993 2.037 -20.791 2.037 Q -21.449 2.037 -21.848 1.876 Q -22.247 1.715 -22.401 1.659 L -22.443 1.659 L -22.779 2.037 L -23.087 2.037 L -22.723 -0.301 L -22.373 -0.301 Q -22.261 0.609 -21.946 1.085 Q -21.631 1.561 -20.917 1.561 Q -20.427 1.561 -20.126 1.323 Q -19.825 1.085 -19.825 0.539 Q -19.825 -0.035 -20.14 -0.434 Q -20.455 -0.833 -20.861 -1.211 Q -21.141 -1.491 -21.428 -1.757 Q -21.715 -2.023 -21.904 -2.352 Q -22.093 -2.681 -22.093 -3.115 Q -22.093 -3.829 -21.617 -4.326 Q -21.141 -4.823 -20.189 -4.823 Q -19.629 -4.823 -19.258 -4.669 Q -18.887 -4.515 -18.761 -4.445 L -18.719 -4.445 L -18.355 -4.823 Z " fill="black" /><path d="M -11.852 -0.253 L -11.852 -0.253 Q -11.852 0.325 -12.116 0.687 Q -12.381 1.05 -12.787 1.246 Q -13.194 1.442 -13.625 1.54 L -13.625 1.618 Q -13.478 1.746 -13.277 1.981 Q -13.077 2.216 -12.734 2.672 Q -12.391 3.128 -11.822 3.912 Q -11.567 4.255 -11.347 4.353 Q -11.126 4.451 -10.734 4.451 L -10.734 4.823 L -12.508 4.823 Q -12.949 4.186 -13.248 3.75 Q -13.547 3.314 -13.748 3.015 Q -13.949 2.716 -14.101 2.491 Q -14.253 2.265 -14.409 2.03 Q -14.566 1.834 -14.664 1.775 Q -14.762 1.716 -14.958 1.716 L -15.37 1.716 L -15.37 3.461 Q -15.37 3.892 -15.291 4.103 Q -15.213 4.313 -14.983 4.382 Q -14.752 4.451 -14.302 4.451 L -14.302 4.823 L -17.379 4.823 L -17.379 4.451 Q -16.987 4.451 -16.776 4.387 Q -16.565 4.323 -16.487 4.108 Q -16.409 3.892 -16.409 3.461 L -16.409 -0.871 Q -16.409 -1.184 -16.472 -1.361 Q -16.536 -1.537 -16.742 -1.616 Q -16.948 -1.694 -17.379 -1.694 L -17.379 -2.066 L -14.654 -2.066 Q -13.89 -2.066 -13.253 -1.914 Q -12.616 -1.763 -12.234 -1.371 Q -11.852 -0.979 -11.852 -0.253 Z M -15.37 -1.576 L -15.37 -1.576 L -15.37 1.256 L -14.997 1.256 Q -14.086 1.256 -13.532 0.888 Q -12.979 0.521 -12.979 -0.293 Q -12.979 -1.596 -14.586 -1.596 Q -14.782 -1.596 -14.978 -1.591 Q -15.174 -1.586 -15.37 -1.576 Z " fill="black" /><path d="M -3.492 4.823 L -3.492 4.823 L -6.501 4.823 L -6.501 4.46 L -6.364 4.46 Q -5.844 4.46 -5.844 4.196 Q -5.844 4.029 -5.937 3.843 Q -6.03 3.657 -6.256 3.333 L -6.903 2.334 L -7.187 1.844 L -7.226 1.844 L -8.431 3.49 Q -8.529 3.647 -8.671 3.848 Q -8.814 4.049 -8.814 4.186 Q -8.814 4.294 -8.701 4.377 Q -8.588 4.46 -8.157 4.46 L -8.157 4.823 L -10.538 4.823 L -10.538 4.46 Q -10.254 4.451 -10.063 4.382 Q -9.872 4.313 -9.681 4.117 Q -9.49 3.921 -9.206 3.539 L -7.549 1.383 L -9 -0.704 Q -9.294 -1.135 -9.48 -1.346 Q -9.666 -1.557 -9.862 -1.625 Q -10.058 -1.694 -10.401 -1.694 L -10.401 -2.066 L -7.461 -2.066 L -7.461 -1.694 L -7.569 -1.694 Q -7.843 -1.694 -7.941 -1.62 Q -8.039 -1.547 -8.039 -1.39 Q -8.039 -1.302 -7.985 -1.189 Q -7.932 -1.077 -7.843 -0.939 L -7.275 -0.067 L -6.863 0.648 L -6.814 0.648 L -5.785 -0.832 Q -5.658 -1.047 -5.58 -1.194 Q -5.501 -1.341 -5.501 -1.449 Q -5.501 -1.576 -5.629 -1.635 Q -5.756 -1.694 -6.128 -1.694 L -6.128 -2.066 L -3.62 -2.066 L -3.62 -1.694 Q -3.963 -1.694 -4.183 -1.625 Q -4.404 -1.557 -4.604 -1.371 Q -4.805 -1.184 -5.09 -0.802 L -6.54 1.079 L -4.59 3.843 Q -4.404 4.098 -4.257 4.23 Q -4.11 4.362 -3.933 4.407 Q -3.757 4.451 -3.492 4.46 Z " fill="black" /></g></g></g><g><g><g><path d="M 69.775 -30.206 L 69.775 -30.206 L 69.775 -39.404 L 70.979 -39.404 L 70.979 -30.206 Z " fill="black" /><path d="M 73.373 -30.206 L 73.373 -30.206 L 73.373 -36.842 L 74.297 -36.842 L 74.395 -35.876 L 74.437 -35.876 Q 74.885 -36.352 75.375 -36.674 Q 75.865 -36.996 76.551 -36.996 Q 77.251 -36.996 77.685 -36.646 Q 78.119 -36.296 78.301 -35.736 Q 78.847 -36.31 79.351 -36.653 Q 79.855 -36.996 80.541 -36.996 Q 81.479 -36.996 81.983 -36.338 Q 82.487 -35.68 82.487 -34.406 L 82.487 -30.206 L 81.367 -30.206 L 81.367 -34.266 Q 81.367 -36.016 80.191 -36.016 Q 79.771 -36.016 79.379 -35.785 Q 78.987 -35.554 78.497 -35.008 L 78.497 -30.206 L 77.377 -30.206 L 77.377 -34.266 Q 77.377 -36.016 76.201 -36.016 Q 75.809 -36.016 75.41 -35.799 Q 75.011 -35.582 74.493 -35.008 L 74.493 -30.206 Z " fill="black" /><path d="M 86.127 -30.038 L 86.127 -30.038 Q 85.315 -30.038 84.762 -30.535 Q 84.209 -31.032 84.209 -31.928 Q 84.209 -33.02 85.175 -33.601 Q 86.141 -34.182 88.255 -34.406 Q 88.255 -34.84 88.143 -35.218 Q 88.031 -35.596 87.73 -35.834 Q 87.429 -36.072 86.883 -36.072 Q 86.337 -36.072 85.833 -35.848 Q 85.329 -35.624 84.937 -35.372 L 84.489 -36.142 Q 84.951 -36.45 85.623 -36.723 Q 86.295 -36.996 87.079 -36.996 Q 88.283 -36.996 88.829 -36.261 Q 89.375 -35.526 89.375 -34.28 L 89.375 -30.206 L 88.451 -30.206 L 88.353 -31.004 L 88.325 -31.004 Q 87.849 -30.612 87.303 -30.325 Q 86.757 -30.038 86.127 -30.038 Z M 86.463 -30.948 L 86.463 -30.948 Q 86.939 -30.948 87.359 -31.179 Q 87.779 -31.41 88.255 -31.816 L 88.255 -33.664 Q 86.631 -33.468 85.966 -33.062 Q 85.301 -32.656 85.301 -31.998 Q 85.301 -31.452 85.644 -31.2 Q 85.987 -30.948 86.463 -30.948 Z " fill="black" /><path d="M 93.687 -27 L 93.687 -27 Q 92.469 -27 91.713 -27.49 Q 90.957 -27.98 90.957 -28.834 Q 90.957 -29.324 91.209 -29.723 Q 91.461 -30.122 91.923 -30.43 L 91.923 -30.486 Q 91.671 -30.64 91.496 -30.913 Q 91.321 -31.186 91.321 -31.55 Q 91.321 -31.998 91.559 -32.313 Q 91.797 -32.628 92.063 -32.81 L 92.063 -32.852 Q 91.727 -33.118 91.461 -33.58 Q 91.195 -34.042 91.195 -34.672 Q 91.195 -35.372 91.538 -35.897 Q 91.881 -36.422 92.448 -36.709 Q 93.015 -36.996 93.673 -36.996 Q 93.953 -36.996 94.198 -36.947 Q 94.443 -36.898 94.625 -36.828 L 96.921 -36.828 L 96.921 -35.96 L 95.577 -35.96 Q 95.801 -35.736 95.941 -35.386 Q 96.081 -35.036 96.081 -34.574 Q 96.081 -33.888 95.752 -33.377 Q 95.423 -32.866 94.891 -32.586 Q 94.359 -32.306 93.729 -32.306 Q 93.169 -32.306 92.693 -32.53 Q 92.511 -32.39 92.392 -32.215 Q 92.273 -32.04 92.273 -31.76 Q 92.273 -31.438 92.525 -31.235 Q 92.777 -31.032 93.421 -31.032 L 94.709 -31.032 Q 97.005 -31.032 97.005 -29.45 Q 97.005 -28.764 96.599 -28.211 Q 96.193 -27.658 95.451 -27.329 Q 94.709 -27 93.687 -27 Z M 93.785 -27.77 L 93.785 -27.77 Q 94.779 -27.77 95.346 -28.211 Q 95.913 -28.652 95.913 -29.254 Q 95.913 -29.716 95.563 -29.912 Q 95.213 -30.108 94.597 -30.108 L 93.449 -30.108 Q 93.267 -30.108 93.043 -30.129 Q 92.819 -30.15 92.595 -30.206 Q 92.245 -29.94 92.084 -29.639 Q 91.923 -29.338 91.923 -29.03 Q 91.923 -28.456 92.434 -28.113 Q 92.945 -27.77 93.785 -27.77 Z M 93.673 -33.062 L 93.673 -33.062 Q 94.247 -33.062 94.66 -33.489 Q 95.073 -33.916 95.073 -34.644 Q 95.073 -35.358 94.667 -35.771 Q 94.261 -36.184 93.673 -36.184 Q 93.099 -36.184 92.686 -35.778 Q 92.273 -35.372 92.273 -34.644 Q 92.273 -33.916 92.693 -33.489 Q 93.113 -33.062 93.673 -33.062 Z " fill="black" /><path d="M 100.967 -30.038 L 100.967 -30.038 Q 100.085 -30.038 99.364 -30.451 Q 98.643 -30.864 98.216 -31.641 Q 97.789 -32.418 97.789 -33.496 Q 97.789 -34.588 98.209 -35.372 Q 98.629 -36.156 99.322 -36.576 Q 100.015 -36.996 100.827 -36.996 Q 102.003 -36.996 102.696 -36.156 Q 103.389 -35.316 103.389 -33.888 Q 103.389 -33.706 103.375 -33.545 Q 103.361 -33.384 103.333 -33.258 L 98.895 -33.258 Q 98.965 -32.194 99.553 -31.564 Q 100.141 -30.934 101.093 -30.934 Q 101.555 -30.934 101.961 -31.081 Q 102.367 -31.228 102.731 -31.466 L 103.123 -30.738 Q 102.689 -30.444 102.157 -30.241 Q 101.625 -30.038 100.967 -30.038 Z M 98.895 -34.056 L 98.895 -34.056 L 102.409 -34.056 Q 102.409 -35.05 101.982 -35.575 Q 101.555 -36.1 100.813 -36.1 Q 100.085 -36.1 99.546 -35.582 Q 99.007 -35.064 98.895 -34.056 Z " fill="black" /><path d="M 108.471 -30.206 L 108.471 -30.206 L 108.471 -39.404 L 111.257 -39.404 Q 112.223 -39.404 112.951 -39.18 Q 113.679 -38.956 114.085 -38.466 Q 114.491 -37.976 114.491 -37.192 Q 114.491 -36.464 114.134 -35.911 Q 113.777 -35.358 113.119 -35.148 L 113.119 -35.092 Q 113.959 -34.938 114.498 -34.392 Q 115.037 -33.846 115.037 -32.866 Q 115.037 -31.984 114.582 -31.396 Q 114.127 -30.808 113.329 -30.507 Q 112.531 -30.206 111.481 -30.206 Z M 109.675 -31.158 L 109.675 -31.158 L 111.299 -31.158 Q 112.503 -31.158 113.182 -31.585 Q 113.861 -32.012 113.861 -32.908 Q 113.861 -33.776 113.21 -34.175 Q 112.559 -34.574 111.299 -34.574 L 109.675 -34.574 Z M 109.675 -35.484 L 109.675 -35.484 L 111.061 -35.484 Q 112.279 -35.484 112.797 -35.897 Q 113.315 -36.31 113.315 -37.01 Q 113.315 -37.794 112.748 -38.123 Q 112.181 -38.452 111.117 -38.452 L 109.675 -38.452 Z " fill="black" /><path d="M 116.885 -30.206 L 116.885 -30.206 L 116.885 -39.404 L 119.573 -39.404 Q 120.623 -39.404 121.414 -39.145 Q 122.205 -38.886 122.653 -38.298 Q 123.101 -37.71 123.101 -36.702 Q 123.101 -35.722 122.66 -35.085 Q 122.219 -34.448 121.442 -34.14 Q 120.665 -33.832 119.629 -33.832 L 118.089 -33.832 L 118.089 -30.206 Z M 118.089 -34.812 L 118.089 -34.812 L 119.489 -34.812 Q 120.707 -34.812 121.302 -35.26 Q 121.897 -35.708 121.897 -36.688 Q 121.897 -37.682 121.281 -38.06 Q 120.665 -38.438 119.433 -38.438 L 118.089 -38.438 Z " fill="black" /><path d="M 125.005 -30.206 L 125.005 -30.206 L 125.005 -39.404 L 130.423 -39.404 L 130.423 -38.396 L 126.209 -38.396 L 126.209 -35.316 L 129.779 -35.316 L 129.779 -34.308 L 126.209 -34.308 L 126.209 -30.206 Z " fill="black" /></g></g></g><g><g><g><path d="M 190.046 -27 L 190.046 -27 L 190.046 -36.198 L 191.25 -36.198 L 191.25 -27 Z " fill="black" /><path d="M 193.826 -27 L 193.826 -27 L 193.826 -36.198 L 199.244 -36.198 L 199.244 -35.19 L 195.03 -35.19 L 195.03 -32.11 L 198.6 -32.11 L 198.6 -31.102 L 195.03 -31.102 L 195.03 -27 Z " fill="black" /><path d="M 204.2 -27 L 204.2 -27 L 204.2 -36.198 L 206.986 -36.198 Q 207.952 -36.198 208.68 -35.974 Q 209.408 -35.75 209.814 -35.26 Q 210.22 -34.77 210.22 -33.986 Q 210.22 -33.258 209.863 -32.705 Q 209.506 -32.152 208.848 -31.942 L 208.848 -31.886 Q 209.688 -31.732 210.227 -31.186 Q 210.766 -30.64 210.766 -29.66 Q 210.766 -28.778 210.311 -28.19 Q 209.856 -27.602 209.058 -27.301 Q 208.26 -27 207.21 -27 Z M 205.404 -27.952 L 205.404 -27.952 L 207.028 -27.952 Q 208.232 -27.952 208.911 -28.379 Q 209.59 -28.806 209.59 -29.702 Q 209.59 -30.57 208.939 -30.969 Q 208.288 -31.368 207.028 -31.368 L 205.404 -31.368 Z M 205.404 -32.278 L 205.404 -32.278 L 206.79 -32.278 Q 208.008 -32.278 208.526 -32.691 Q 209.044 -33.104 209.044 -33.804 Q 209.044 -34.588 208.477 -34.917 Q 207.91 -35.246 206.846 -35.246 L 205.404 -35.246 Z " fill="black" /><path d="M 212.614 -27 L 212.614 -27 L 212.614 -36.198 L 215.302 -36.198 Q 216.352 -36.198 217.143 -35.939 Q 217.934 -35.68 218.382 -35.092 Q 218.83 -34.504 218.83 -33.496 Q 218.83 -32.516 218.389 -31.879 Q 217.948 -31.242 217.171 -30.934 Q 216.394 -30.626 215.358 -30.626 L 213.818 -30.626 L 213.818 -27 Z M 213.818 -31.606 L 213.818 -31.606 L 215.218 -31.606 Q 216.436 -31.606 217.031 -32.054 Q 217.626 -32.502 217.626 -33.482 Q 217.626 -34.476 217.01 -34.854 Q 216.394 -35.232 215.162 -35.232 L 213.818 -35.232 Z " fill="black" /><path d="M 220.734 -27 L 220.734 -27 L 220.734 -36.198 L 226.152 -36.198 L 226.152 -35.19 L 221.938 -35.19 L 221.938 -32.11 L 225.508 -32.11 L 225.508 -31.102 L 221.938 -31.102 L 221.938 -27 Z " fill="black" /></g></g></g><circle cx="288.0" cy="-0.0" r="2.6999999999999997" style="stroke:black;fill:black;stroke-width:2.0;stroke-dasharray:-;" /><g><g><g><path d="M 109.991 32.234 L 109.991 32.234 L 111.195 32.234 Q 111.321 31.646 111.468 31.1 Q 111.615 30.554 111.853 30.12 Q 112.035 29.784 112.301 29.49 Q 112.567 29.196 112.98 29.007 Q 113.393 28.818 113.995 28.818 Q 114.639 28.818 114.982 29.105 Q 115.325 29.392 115.325 29.84 Q 115.325 30.148 115.157 30.302 Q 114.989 30.456 114.765 30.456 Q 114.485 30.456 114.359 30.295 Q 114.233 30.134 114.205 29.91 Q 114.163 29.644 114.1 29.434 Q 114.037 29.224 113.785 29.224 Q 113.253 29.224 112.959 29.784 Q 112.665 30.344 112.511 31.24 L 112.343 32.234 L 113.673 32.234 L 113.589 32.808 L 112.273 32.808 L 111.475 37.582 Q 111.419 37.946 111.3 38.492 Q 111.181 39.038 110.971 39.633 Q 110.761 40.228 110.46 40.746 Q 110.159 41.264 109.725 41.593 Q 109.291 41.922 108.717 41.922 Q 108.045 41.922 107.758 41.6 Q 107.471 41.278 107.471 40.914 Q 107.471 40.62 107.618 40.424 Q 107.765 40.228 108.031 40.228 Q 108.353 40.228 108.465 40.417 Q 108.577 40.606 108.605 40.851 Q 108.633 41.096 108.689 41.285 Q 108.745 41.474 108.941 41.474 Q 109.221 41.474 109.431 41.11 Q 109.641 40.746 109.795 40.207 Q 109.949 39.668 110.047 39.136 Q 110.145 38.604 110.201 38.254 L 111.111 32.808 L 109.935 32.808 Z " fill="black" /><path d="M 118.856 39.625 L 118.856 39.625 L 118.601 41.712 L 113.211 41.712 L 113.211 41.34 Q 113.652 41.34 113.858 41.266 Q 114.064 41.193 114.127 40.982 Q 114.191 40.771 114.191 40.36 L 114.191 36.273 Q 114.191 35.842 114.127 35.611 Q 114.064 35.381 113.858 35.288 Q 113.652 35.195 113.211 35.195 L 113.211 34.823 L 116.269 34.823 L 116.269 35.195 Q 115.838 35.195 115.612 35.283 Q 115.387 35.371 115.303 35.607 Q 115.22 35.842 115.22 36.283 L 115.22 40.634 Q 115.22 41.016 115.377 41.119 Q 115.534 41.222 115.926 41.222 L 116.553 41.222 Q 117.072 41.222 117.386 41.153 Q 117.7 41.085 117.881 40.913 Q 118.062 40.742 118.18 40.428 Q 118.297 40.115 118.444 39.625 Z " fill="black" /><path d="M 126.637 38.302 L 126.637 38.302 Q 126.637 39.399 126.216 40.193 Q 125.794 40.987 125.02 41.418 Q 124.246 41.849 123.178 41.849 Q 122.119 41.849 121.345 41.418 Q 120.571 40.987 120.15 40.183 Q 119.728 39.38 119.728 38.262 Q 119.728 37.194 120.15 36.395 Q 120.571 35.597 121.35 35.151 Q 122.129 34.705 123.178 34.705 Q 124.246 34.705 125.02 35.17 Q 125.794 35.636 126.216 36.444 Q 126.637 37.253 126.637 38.302 Z M 125.393 38.164 L 125.393 38.164 Q 125.393 36.734 124.79 35.969 Q 124.187 35.205 123.168 35.205 Q 122.159 35.205 121.566 35.979 Q 120.973 36.753 120.973 38.194 Q 120.973 39.693 121.512 40.507 Q 122.051 41.32 123.188 41.32 Q 124.324 41.32 124.858 40.531 Q 125.393 39.742 125.393 38.164 Z " fill="black" /><path d="M 128.107 43.182 L 128.107 43.182 L 127.941 42.859 Q 128.146 42.77 128.362 42.628 Q 128.578 42.486 128.72 42.226 Q 128.862 41.967 128.862 41.545 Q 128.695 41.614 128.519 41.614 Q 128.195 41.614 128.058 41.423 Q 127.921 41.232 127.921 40.987 Q 127.921 40.722 128.097 40.526 Q 128.274 40.33 128.607 40.33 Q 129.028 40.33 129.249 40.59 Q 129.469 40.85 129.469 41.31 Q 129.469 41.781 129.322 42.109 Q 129.175 42.437 128.955 42.648 Q 128.734 42.859 128.504 42.981 Q 128.274 43.104 128.107 43.182 Z " fill="black" /><path d="M 135.594 36.636 L 135.594 36.636 Q 135.594 37.214 135.33 37.576 Q 135.065 37.939 134.659 38.135 Q 134.252 38.331 133.821 38.429 L 133.821 38.507 Q 133.968 38.635 134.168 38.87 Q 134.369 39.105 134.712 39.561 Q 135.055 40.017 135.624 40.801 Q 135.879 41.144 136.099 41.242 Q 136.32 41.34 136.712 41.34 L 136.712 41.712 L 134.938 41.712 Q 134.497 41.075 134.198 40.639 Q 133.899 40.203 133.698 39.904 Q 133.497 39.605 133.345 39.38 Q 133.193 39.154 133.037 38.919 Q 132.88 38.723 132.782 38.664 Q 132.684 38.605 132.488 38.605 L 132.076 38.605 L 132.076 40.35 Q 132.076 40.781 132.155 40.992 Q 132.233 41.202 132.463 41.271 Q 132.694 41.34 133.144 41.34 L 133.144 41.712 L 130.067 41.712 L 130.067 41.34 Q 130.459 41.34 130.67 41.276 Q 130.881 41.212 130.959 40.997 Q 131.037 40.781 131.037 40.35 L 131.037 36.018 Q 131.037 35.705 130.974 35.528 Q 130.91 35.352 130.704 35.273 Q 130.498 35.195 130.067 35.195 L 130.067 34.823 L 132.792 34.823 Q 133.556 34.823 134.193 34.974 Q 134.83 35.126 135.212 35.518 Q 135.594 35.91 135.594 36.636 Z M 132.076 35.313 L 132.076 35.313 L 132.076 38.145 L 132.449 38.145 Q 133.36 38.145 133.914 37.777 Q 134.467 37.41 134.467 36.596 Q 134.467 35.293 132.86 35.293 Q 132.664 35.293 132.468 35.298 Q 132.272 35.303 132.076 35.313 Z " fill="black" /><path d="M 143.954 41.712 L 143.954 41.712 L 140.945 41.712 L 140.945 41.349 L 141.082 41.349 Q 141.602 41.349 141.602 41.085 Q 141.602 40.918 141.509 40.732 Q 141.416 40.546 141.19 40.222 L 140.543 39.223 L 140.259 38.733 L 140.22 38.733 L 139.015 40.379 Q 138.917 40.536 138.774 40.737 Q 138.632 40.938 138.632 41.075 Q 138.632 41.183 138.745 41.266 Q 138.858 41.349 139.289 41.349 L 139.289 41.712 L 136.908 41.712 L 136.908 41.349 Q 137.192 41.34 137.383 41.271 Q 137.574 41.202 137.765 41.006 Q 137.956 40.81 138.24 40.428 L 139.897 38.272 L 138.446 36.185 Q 138.152 35.754 137.966 35.543 Q 137.78 35.332 137.584 35.264 Q 137.388 35.195 137.045 35.195 L 137.045 34.823 L 139.985 34.823 L 139.985 35.195 L 139.877 35.195 Q 139.603 35.195 139.505 35.268 Q 139.407 35.342 139.407 35.499 Q 139.407 35.587 139.46 35.7 Q 139.514 35.812 139.603 35.95 L 140.171 36.822 L 140.583 37.537 L 140.632 37.537 L 141.661 36.057 Q 141.788 35.842 141.866 35.695 Q 141.945 35.548 141.945 35.44 Q 141.945 35.313 141.817 35.254 Q 141.69 35.195 141.318 35.195 L 141.318 34.823 L 143.826 34.823 L 143.826 35.195 Q 143.483 35.195 143.263 35.264 Q 143.042 35.332 142.841 35.518 Q 142.641 35.705 142.356 36.087 L 140.906 37.968 L 142.856 40.732 Q 143.042 40.987 143.189 41.119 Q 143.336 41.251 143.513 41.295 Q 143.689 41.34 143.954 41.349 Z " fill="black" /></g></g></g><g><g><g><path d="M 197.914 76.599 L 197.914 76.599 L 197.914 67.401 L 200.602 67.401 Q 201.652 67.401 202.443 67.66 Q 203.234 67.919 203.682 68.507 Q 204.13 69.095 204.13 70.103 Q 204.13 71.083 203.689 71.72 Q 203.248 72.357 202.471 72.665 Q 201.694 72.973 200.658 72.973 L 199.118 72.973 L 199.118 76.599 Z M 199.118 71.993 L 199.118 71.993 L 200.518 71.993 Q 201.736 71.993 202.331 71.545 Q 202.926 71.097 202.926 70.117 Q 202.926 69.123 202.31 68.745 Q 201.694 68.367 200.462 68.367 L 199.118 68.367 Z " fill="black" /><path d="M 206.034 76.599 L 206.034 76.599 L 206.034 67.401 L 207.238 67.401 L 207.238 75.577 L 211.34 75.577 L 211.34 76.599 Z " fill="black" /><path d="M 212.992 76.599 L 212.992 76.599 L 212.992 67.401 L 214.196 67.401 L 214.196 75.577 L 218.298 75.577 L 218.298 76.599 Z " fill="black" /></g></g></g><g><g><g><path d="M 311.645 4.508 L 311.645 4.508 Q 310.287 4.508 309.51 3.311 Q 308.733 2.114 308.733 -0.098 Q 308.733 -2.324 309.51 -3.479 Q 310.287 -4.634 311.645 -4.634 Q 313.017 -4.634 313.794 -3.472 Q 314.571 -2.31 314.571 -0.098 Q 314.571 2.114 313.794 3.311 Q 313.017 4.508 311.645 4.508 Z M 311.645 3.556 L 311.645 3.556 Q 312.443 3.556 312.933 2.695 Q 313.423 1.834 313.423 -0.098 Q 313.423 -2.03 312.933 -2.863 Q 312.443 -3.696 311.645 -3.696 Q 310.861 -3.696 310.364 -2.863 Q 309.867 -2.03 309.867 -0.098 Q 309.867 1.834 310.364 2.695 Q 310.861 3.556 311.645 3.556 Z " fill="black" /><path d="M 320.115 -5.586 L 320.115 -5.586 L 316.475 5.586 L 315.691 5.586 L 319.345 -5.586 Z " fill="black" /><path d="M 323.545 4.508 L 323.545 4.508 Q 322.817 4.508 322.264 4.235 Q 321.711 3.962 321.333 3.57 L 321.991 2.842 Q 322.271 3.15 322.67 3.339 Q 323.069 3.528 323.489 3.528 Q 324.133 3.528 324.672 3.178 Q 325.211 2.828 325.547 2.016 Q 325.883 1.204 325.911 -0.182 Q 325.477 0.336 324.903 0.63 Q 324.329 0.924 323.769 0.924 Q 322.579 0.924 321.879 0.238 Q 321.179 -0.448 321.179 -1.806 Q 321.179 -2.66 321.55 -3.29 Q 321.921 -3.92 322.53 -4.277 Q 323.139 -4.634 323.867 -4.634 Q 324.777 -4.634 325.484 -4.165 Q 326.191 -3.696 326.604 -2.758 Q 327.017 -1.82 327.017 -0.392 Q 327.017 1.372 326.527 2.45 Q 326.037 3.528 325.246 4.018 Q 324.455 4.508 323.545 4.508 Z M 325.883 -1.12 L 325.883 -1.12 Q 325.771 -2.394 325.253 -3.059 Q 324.735 -3.724 323.867 -3.724 Q 323.209 -3.724 322.747 -3.199 Q 322.285 -2.674 322.285 -1.806 Q 322.285 -0.952 322.705 -0.448 Q 323.125 0.056 323.965 0.056 Q 324.399 0.056 324.91 -0.217 Q 325.421 -0.49 325.883 -1.12 Z " fill="black" /><path d="M 331.273 4.508 L 331.273 4.508 Q 329.915 4.508 329.138 3.311 Q 328.361 2.114 328.361 -0.098 Q 328.361 -2.324 329.138 -3.479 Q 329.915 -4.634 331.273 -4.634 Q 332.645 -4.634 333.422 -3.472 Q 334.199 -2.31 334.199 -0.098 Q 334.199 2.114 333.422 3.311 Q 332.645 4.508 331.273 4.508 Z M 331.273 3.556 L 331.273 3.556 Q 332.071 3.556 332.561 2.695 Q 333.051 1.834 333.051 -0.098 Q 333.051 -2.03 332.561 -2.863 Q 332.071 -3.696 331.273 -3.696 Q 330.489 -3.696 329.992 -2.863 Q 329.495 -2.03 329.495 -0.098 Q 329.495 1.834 329.992 2.695 Q 330.489 3.556 331.273 3.556 Z " fill="black" /><path d="M 339.827 -3.29 L 339.827 -3.29 Q 339.827 -2.31 339.225 -1.736 Q 338.623 -1.162 337.685 -1.162 Q 336.747 -1.162 336.152 -1.736 Q 335.557 -2.31 335.557 -3.29 Q 335.557 -4.284 336.166 -4.858 Q 336.775 -5.432 337.685 -5.432 Q 338.259 -5.432 338.749 -5.173 Q 339.239 -4.914 339.533 -4.438 Q 339.827 -3.962 339.827 -3.29 Z M 339.057 -3.29 L 339.057 -3.29 Q 339.057 -4.004 338.665 -4.389 Q 338.273 -4.774 337.685 -4.774 Q 337.125 -4.774 336.726 -4.382 Q 336.327 -3.99 336.327 -3.29 Q 336.327 -2.59 336.712 -2.205 Q 337.097 -1.82 337.685 -1.82 Q 338.273 -1.82 338.665 -2.198 Q 339.057 -2.576 339.057 -3.29 Z " fill="black" /></g></g></g><g><g><g><path d="M 422.914 4.599 L 422.914 4.599 L 422.914 -4.599 L 425.602 -4.599 Q 426.652 -4.599 427.443 -4.34 Q 428.234 -4.081 428.682 -3.493 Q 429.13 -2.905 429.13 -1.897 Q 429.13 -0.917 428.689 -0.28 Q 428.248 0.357 427.471 0.665 Q 426.694 0.973 425.658 0.973 L 424.118 0.973 L 424.118 4.599 Z M 424.118 -0.007 L 424.118 -0.007 L 425.518 -0.007 Q 426.736 -0.007 427.331 -0.455 Q 427.926 -0.903 427.926 -1.883 Q 427.926 -2.877 427.31 -3.255 Q 426.694 -3.633 425.462 -3.633 L 424.118 -3.633 Z " fill="black" /><path d="M 431.034 4.599 L 431.034 4.599 L 431.034 -4.599 L 432.238 -4.599 L 432.238 3.577 L 436.34 3.577 L 436.34 4.599 Z " fill="black" /><path d="M 437.992 4.599 L 437.992 4.599 L 437.992 -4.599 L 439.196 -4.599 L 439.196 3.577 L 443.298 3.577 L 443.298 4.599 Z " fill="black" /></g></g></g><g><g><g><path d="M -17.579 247.177 L -17.579 247.177 L -17.901 249.361 L -18.237 249.361 Q -18.265 248.549 -18.608 248.073 Q -18.951 247.597 -19.567 247.597 Q -20.113 247.597 -20.351 247.891 Q -20.589 248.185 -20.589 248.493 Q -20.589 248.787 -20.386 249.06 Q -20.183 249.333 -19.875 249.62 Q -19.567 249.907 -19.259 250.243 Q -18.811 250.719 -18.482 251.174 Q -18.153 251.629 -18.153 252.301 Q -18.153 252.707 -18.356 253.106 Q -18.559 253.505 -19.021 253.771 Q -19.483 254.037 -20.281 254.037 Q -20.939 254.037 -21.338 253.876 Q -21.737 253.715 -21.891 253.659 L -21.933 253.659 L -22.269 254.037 L -22.577 254.037 L -22.213 251.699 L -21.863 251.699 Q -21.751 252.609 -21.436 253.085 Q -21.121 253.561 -20.407 253.561 Q -19.917 253.561 -19.616 253.323 Q -19.315 253.085 -19.315 252.539 Q -19.315 251.965 -19.63 251.566 Q -19.945 251.167 -20.351 250.789 Q -20.631 250.509 -20.918 250.243 Q -21.205 249.977 -21.394 249.648 Q -21.583 249.319 -21.583 248.885 Q -21.583 248.171 -21.107 247.674 Q -20.631 247.177 -19.679 247.177 Q -19.119 247.177 -18.748 247.331 Q -18.377 247.485 -18.251 247.555 L -18.209 247.555 L -17.845 247.177 Z " fill="black" /><path d="M -11.028 251.874 L -11.028 251.874 L -11.411 251.874 Q -11.499 251.443 -11.587 251.164 Q -11.675 250.884 -11.812 250.727 Q -11.95 250.571 -12.199 250.502 Q -12.449 250.433 -12.871 250.433 L -13.557 250.433 L -13.557 255.382 Q -13.557 255.853 -13.483 256.078 Q -13.41 256.304 -13.189 256.377 Q -12.969 256.451 -12.528 256.451 L -12.528 256.823 L -15.634 256.823 L -15.634 256.451 Q -15.184 256.451 -14.973 256.377 Q -14.762 256.304 -14.694 256.078 Q -14.625 255.853 -14.625 255.382 L -14.625 250.433 L -15.311 250.433 Q -15.87 250.433 -16.139 250.556 Q -16.409 250.678 -16.531 250.992 Q -16.654 251.306 -16.771 251.874 L -17.163 251.874 L -17.046 249.934 L -11.126 249.934 Z " fill="black" /><path d="M -3.492 256.823 L -3.492 256.823 L -6.501 256.823 L -6.501 256.46 L -6.364 256.46 Q -5.844 256.46 -5.844 256.196 Q -5.844 256.029 -5.937 255.843 Q -6.03 255.657 -6.256 255.333 L -6.903 254.334 L -7.187 253.844 L -7.226 253.844 L -8.431 255.49 Q -8.529 255.647 -8.671 255.848 Q -8.814 256.049 -8.814 256.186 Q -8.814 256.294 -8.701 256.377 Q -8.588 256.46 -8.157 256.46 L -8.157 256.823 L -10.538 256.823 L -10.538 256.46 Q -10.254 256.451 -10.063 256.382 Q -9.872 256.313 -9.681 256.117 Q -9.49 255.921 -9.206 255.539 L -7.549 253.383 L -9 251.296 Q -9.294 250.865 -9.48 250.654 Q -9.666 250.443 -9.862 250.375 Q -10.058 250.306 -10.401 250.306 L -10.401 249.934 L -7.461 249.934 L -7.461 250.306 L -7.569 250.306 Q -7.843 250.306 -7.941 250.38 Q -8.039 250.453 -8.039 250.61 Q -8.039 250.698 -7.985 250.811 Q -7.932 250.923 -7.843 251.061 L -7.275 251.933 L -6.863 252.648 L -6.814 252.648 L -5.785 251.168 Q -5.658 250.953 -5.58 250.806 Q -5.501 250.659 -5.501 250.551 Q -5.501 250.424 -5.629 250.365 Q -5.756 250.306 -6.128 250.306 L -6.128 249.934 L -3.62 249.934 L -3.62 250.306 Q -3.963 250.306 -4.183 250.375 Q -4.404 250.443 -4.604 250.629 Q -4.805 250.816 -5.09 251.198 L -6.54 253.079 L -4.59 255.843 Q -4.404 256.098 -4.257 256.23 Q -4.11 256.362 -3.933 256.407 Q -3.757 256.451 -3.492 256.46 Z " fill="black" /></g></g></g><g><g><g><path d="M 69.775 221.794 L 69.775 221.794 L 69.775 212.596 L 70.979 212.596 L 70.979 221.794 Z " fill="black" /><path d="M 73.373 221.794 L 73.373 221.794 L 73.373 215.158 L 74.297 215.158 L 74.395 216.124 L 74.437 216.124 Q 74.885 215.648 75.375 215.326 Q 75.865 215.004 76.551 215.004 Q 77.251 215.004 77.685 215.354 Q 78.119 215.704 78.301 216.264 Q 78.847 215.69 79.351 215.347 Q 79.855 215.004 80.541 215.004 Q 81.479 215.004 81.983 215.662 Q 82.487 216.32 82.487 217.594 L 82.487 221.794 L 81.367 221.794 L 81.367 217.734 Q 81.367 215.984 80.191 215.984 Q 79.771 215.984 79.379 216.215 Q 78.987 216.446 78.497 216.992 L 78.497 221.794 L 77.377 221.794 L 77.377 217.734 Q 77.377 215.984 76.201 215.984 Q 75.809 215.984 75.41 216.201 Q 75.011 216.418 74.493 216.992 L 74.493 221.794 Z " fill="black" /><path d="M 86.127 221.962 L 86.127 221.962 Q 85.315 221.962 84.762 221.465 Q 84.209 220.968 84.209 220.072 Q 84.209 218.98 85.175 218.399 Q 86.141 217.818 88.255 217.594 Q 88.255 217.16 88.143 216.782 Q 88.031 216.404 87.73 216.166 Q 87.429 215.928 86.883 215.928 Q 86.337 215.928 85.833 216.152 Q 85.329 216.376 84.937 216.628 L 84.489 215.858 Q 84.951 215.55 85.623 215.277 Q 86.295 215.004 87.079 215.004 Q 88.283 215.004 88.829 215.739 Q 89.375 216.474 89.375 217.72 L 89.375 221.794 L 88.451 221.794 L 88.353 220.996 L 88.325 220.996 Q 87.849 221.388 87.303 221.675 Q 86.757 221.962 86.127 221.962 Z M 86.463 221.052 L 86.463 221.052 Q 86.939 221.052 87.359 220.821 Q 87.779 220.59 88.255 220.184 L 88.255 218.336 Q 86.631 218.532 85.966 218.938 Q 85.301 219.344 85.301 220.002 Q 85.301 220.548 85.644 220.8 Q 85.987 221.052 86.463 221.052 Z " fill="black" /><path d="M 93.687 225 L 93.687 225 Q 92.469 225 91.713 224.51 Q 90.957 224.02 90.957 223.166 Q 90.957 222.676 91.209 222.277 Q 91.461 221.878 91.923 221.57 L 91.923 221.514 Q 91.671 221.36 91.496 221.087 Q 91.321 220.814 91.321 220.45 Q 91.321 220.002 91.559 219.687 Q 91.797 219.372 92.063 219.19 L 92.063 219.148 Q 91.727 218.882 91.461 218.42 Q 91.195 217.958 91.195 217.328 Q 91.195 216.628 91.538 216.103 Q 91.881 215.578 92.448 215.291 Q 93.015 215.004 93.673 215.004 Q 93.953 215.004 94.198 215.053 Q 94.443 215.102 94.625 215.172 L 96.921 215.172 L 96.921 216.04 L 95.577 216.04 Q 95.801 216.264 95.941 216.614 Q 96.081 216.964 96.081 217.426 Q 96.081 218.112 95.752 218.623 Q 95.423 219.134 94.891 219.414 Q 94.359 219.694 93.729 219.694 Q 93.169 219.694 92.693 219.47 Q 92.511 219.61 92.392 219.785 Q 92.273 219.96 92.273 220.24 Q 92.273 220.562 92.525 220.765 Q 92.777 220.968 93.421 220.968 L 94.709 220.968 Q 97.005 220.968 97.005 222.55 Q 97.005 223.236 96.599 223.789 Q 96.193 224.342 95.451 224.671 Q 94.709 225 93.687 225 Z M 93.785 224.23 L 93.785 224.23 Q 94.779 224.23 95.346 223.789 Q 95.913 223.348 95.913 222.746 Q 95.913 222.284 95.563 222.088 Q 95.213 221.892 94.597 221.892 L 93.449 221.892 Q 93.267 221.892 93.043 221.871 Q 92.819 221.85 92.595 221.794 Q 92.245 222.06 92.084 222.361 Q 91.923 222.662 91.923 222.97 Q 91.923 223.544 92.434 223.887 Q 92.945 224.23 93.785 224.23 Z M 93.673 218.938 L 93.673 218.938 Q 94.247 218.938 94.66 218.511 Q 95.073 218.084 95.073 217.356 Q 95.073 216.642 94.667 216.229 Q 94.261 215.816 93.673 215.816 Q 93.099 215.816 92.686 216.222 Q 92.273 216.628 92.273 217.356 Q 92.273 218.084 92.693 218.511 Q 93.113 218.938 93.673 218.938 Z " fill="black" /><path d="M 100.967 221.962 L 100.967 221.962 Q 100.085 221.962 99.364 221.549 Q 98.643 221.136 98.216 220.359 Q 97.789 219.582 97.789 218.504 Q 97.789 217.412 98.209 216.628 Q 98.629 215.844 99.322 215.424 Q 100.015 215.004 100.827 215.004 Q 102.003 215.004 102.696 215.844 Q 103.389 216.684 103.389 218.112 Q 103.389 218.294 103.375 218.455 Q 103.361 218.616 103.333 218.742 L 98.895 218.742 Q 98.965 219.806 99.553 220.436 Q 100.141 221.066 101.093 221.066 Q 101.555 221.066 101.961 220.919 Q 102.367 220.772 102.731 220.534 L 103.123 221.262 Q 102.689 221.556 102.157 221.759 Q 101.625 221.962 100.967 221.962 Z M 98.895 217.944 L 98.895 217.944 L 102.409 217.944 Q 102.409 216.95 101.982 216.425 Q 101.555 215.9 100.813 215.9 Q 100.085 215.9 99.546 216.418 Q 99.007 216.936 98.895 217.944 Z " fill="black" /><path d="M 108.471 221.794 L 108.471 221.794 L 108.471 212.596 L 111.257 212.596 Q 112.223 212.596 112.951 212.82 Q 113.679 213.044 114.085 213.534 Q 114.491 214.024 114.491 214.808 Q 114.491 215.536 114.134 216.089 Q 113.777 216.642 113.119 216.852 L 113.119 216.908 Q 113.959 217.062 114.498 217.608 Q 115.037 218.154 115.037 219.134 Q 115.037 220.016 114.582 220.604 Q 114.127 221.192 113.329 221.493 Q 112.531 221.794 111.481 221.794 Z M 109.675 220.842 L 109.675 220.842 L 111.299 220.842 Q 112.503 220.842 113.182 220.415 Q 113.861 219.988 113.861 219.092 Q 113.861 218.224 113.21 217.825 Q 112.559 217.426 111.299 217.426 L 109.675 217.426 Z M 109.675 216.516 L 109.675 216.516 L 111.061 216.516 Q 112.279 216.516 112.797 216.103 Q 113.315 215.69 113.315 214.99 Q 113.315 214.206 112.748 213.877 Q 112.181 213.548 111.117 213.548 L 109.675 213.548 Z " fill="black" /><path d="M 116.885 221.794 L 116.885 221.794 L 116.885 212.596 L 119.573 212.596 Q 120.623 212.596 121.414 212.855 Q 122.205 213.114 122.653 213.702 Q 123.101 214.29 123.101 215.298 Q 123.101 216.278 122.66 216.915 Q 122.219 217.552 121.442 217.86 Q 120.665 218.168 119.629 218.168 L 118.089 218.168 L 118.089 221.794 Z M 118.089 217.188 L 118.089 217.188 L 119.489 217.188 Q 120.707 217.188 121.302 216.74 Q 121.897 216.292 121.897 215.312 Q 121.897 214.318 121.281 213.94 Q 120.665 213.562 119.433 213.562 L 118.089 213.562 Z " fill="black" /><path d="M 125.005 221.794 L 125.005 221.794 L 125.005 212.596 L 130.423 212.596 L 130.423 213.604 L 126.209 213.604 L 126.209 216.684 L 129.779 216.684 L 129.779 217.692 L 126.209 217.692 L 126.209 221.794 Z " fill="black" /></g></g></g><g><g><g><path d="M 190.046 225 L 190.046 225 L 190.046 215.802 L 191.25 215.802 L 191.25 225 Z " fill="black" /><path d="M 193.826 225 L 193.826 225 L 193.826 215.802 L 199.244 215.802 L 199.244 216.81 L 195.03 216.81 L 195.03 219.89 L 198.6 219.89 L 198.6 220.898 L 195.03 220.898 L 195.03 225 Z " fill="black" /><path d="M 204.2 225 L 204.2 225 L 204.2 215.802 L 206.986 215.802 Q 207.952 215.802 208.68 216.026 Q 209.408 216.25 209.814 216.74 Q 210.22 217.23 210.22 218.014 Q 210.22 218.742 209.863 219.295 Q 209.506 219.848 208.848 220.058 L 208.848 220.114 Q 209.688 220.268 210.227 220.814 Q 210.766 221.36 210.766 222.34 Q 210.766 223.222 210.311 223.81 Q 209.856 224.398 209.058 224.699 Q 208.26 225 207.21 225 Z M 205.404 224.048 L 205.404 224.048 L 207.028 224.048 Q 208.232 224.048 208.911 223.621 Q 209.59 223.194 209.59 222.298 Q 209.59 221.43 208.939 221.031 Q 208.288 220.632 207.028 220.632 L 205.404 220.632 Z M 205.404 219.722 L 205.404 219.722 L 206.79 219.722 Q 208.008 219.722 208.526 219.309 Q 209.044 218.896 209.044 218.196 Q 209.044 217.412 208.477 217.083 Q 207.91 216.754 206.846 216.754 L 205.404 216.754 Z " fill="black" /><path d="M 212.614 225 L 212.614 225 L 212.614 215.802 L 215.302 215.802 Q 216.352 215.802 217.143 216.061 Q 217.934 216.32 218.382 216.908 Q 218.83 217.496 218.83 218.504 Q 218.83 219.484 218.389 220.121 Q 217.948 220.758 217.171 221.066 Q 216.394 221.374 215.358 221.374 L 213.818 221.374 L 213.818 225 Z M 213.818 220.394 L 213.818 220.394 L 215.218 220.394 Q 216.436 220.394 217.031 219.946 Q 217.626 219.498 217.626 218.518 Q 217.626 217.524 217.01 217.146 Q 216.394 216.768 215.162 216.768 L 213.818 216.768 Z " fill="black" /><path d="M 220.734 225 L 220.734 225 L 220.734 215.802 L 226.152 215.802 L 226.152 216.81 L 221.938 216.81 L 221.938 219.89 L 225.508 219.89 L 225.508 220.898 L 221.938 220.898 L 221.938 225 Z " fill="black" /></g></g></g><circle cx="288.0" cy="252.0" r="2.6999999999999997" style="stroke:black;fill:black;stroke-width:2.0;stroke-dasharray:-;" /><g><g><g><path d="M 110.501 284.234 L 110.501 284.234 L 111.705 284.234 Q 111.831 283.646 111.978 283.1 Q 112.125 282.554 112.363 282.12 Q 112.545 281.784 112.811 281.49 Q 113.077 281.196 113.49 281.007 Q 113.903 280.818 114.505 280.818 Q 115.149 280.818 115.492 281.105 Q 115.835 281.392 115.835 281.84 Q 115.835 282.148 115.667 282.302 Q 115.499 282.456 115.275 282.456 Q 114.995 282.456 114.869 282.295 Q 114.743 282.134 114.715 281.91 Q 114.673 281.644 114.61 281.434 Q 114.547 281.224 114.295 281.224 Q 113.763 281.224 113.469 281.784 Q 113.175 282.344 113.021 283.24 L 112.853 284.234 L 114.183 284.234 L 114.099 284.808 L 112.783 284.808 L 111.985 289.582 Q 111.929 289.946 111.81 290.492 Q 111.691 291.038 111.481 291.633 Q 111.271 292.228 110.97 292.746 Q 110.669 293.264 110.235 293.593 Q 109.801 293.922 109.227 293.922 Q 108.555 293.922 108.268 293.6 Q 107.981 293.278 107.981 292.914 Q 107.981 292.62 108.128 292.424 Q 108.275 292.228 108.541 292.228 Q 108.863 292.228 108.975 292.417 Q 109.087 292.606 109.115 292.851 Q 109.143 293.096 109.199 293.285 Q 109.255 293.474 109.451 293.474 Q 109.731 293.474 109.941 293.11 Q 110.151 292.746 110.305 292.207 Q 110.459 291.668 110.557 291.136 Q 110.655 290.604 110.711 290.254 L 111.621 284.808 L 110.445 284.808 Z " fill="black" /><path d="M 119.366 291.625 L 119.366 291.625 L 119.111 293.712 L 113.721 293.712 L 113.721 293.34 Q 114.162 293.34 114.368 293.266 Q 114.573 293.193 114.637 292.982 Q 114.701 292.771 114.701 292.36 L 114.701 288.273 Q 114.701 287.842 114.637 287.611 Q 114.573 287.381 114.368 287.288 Q 114.162 287.195 113.721 287.195 L 113.721 286.823 L 116.778 286.823 L 116.778 287.195 Q 116.347 287.195 116.122 287.283 Q 115.896 287.371 115.813 287.607 Q 115.73 287.842 115.73 288.283 L 115.73 292.634 Q 115.73 293.016 115.887 293.119 Q 116.043 293.222 116.435 293.222 L 117.063 293.222 Q 117.582 293.222 117.896 293.153 Q 118.209 293.085 118.391 292.913 Q 118.572 292.742 118.689 292.428 Q 118.807 292.115 118.954 291.625 Z " fill="black" /><path d="M 127.147 290.302 L 127.147 290.302 Q 127.147 291.399 126.725 292.193 Q 126.304 292.987 125.53 293.418 Q 124.756 293.849 123.687 293.849 Q 122.629 293.849 121.855 293.418 Q 121.081 292.987 120.659 292.183 Q 120.238 291.38 120.238 290.262 Q 120.238 289.194 120.659 288.395 Q 121.081 287.597 121.86 287.151 Q 122.639 286.705 123.687 286.705 Q 124.756 286.705 125.53 287.171 Q 126.304 287.636 126.725 288.445 Q 127.147 289.253 127.147 290.302 Z M 125.902 290.164 L 125.902 290.164 Q 125.902 288.734 125.3 287.969 Q 124.697 287.205 123.678 287.205 Q 122.668 287.205 122.075 287.979 Q 121.482 288.753 121.482 290.194 Q 121.482 291.693 122.021 292.507 Q 122.56 293.32 123.697 293.32 Q 124.834 293.32 125.368 292.531 Q 125.902 291.742 125.902 290.164 Z " fill="black" /><path d="M 128.617 295.182 L 128.617 295.182 L 128.45 294.859 Q 128.656 294.77 128.872 294.628 Q 129.087 294.486 129.229 294.226 Q 129.371 293.967 129.371 293.545 Q 129.205 293.614 129.028 293.614 Q 128.705 293.614 128.568 293.423 Q 128.431 293.232 128.431 292.987 Q 128.431 292.722 128.607 292.526 Q 128.783 292.33 129.117 292.33 Q 129.538 292.33 129.758 292.59 Q 129.979 292.85 129.979 293.31 Q 129.979 293.781 129.832 294.109 Q 129.685 294.437 129.464 294.648 Q 129.244 294.859 129.014 294.981 Q 128.783 295.104 128.617 295.182 Z " fill="black" /><path d="M 136.418 288.763 L 136.418 288.763 L 136.035 288.763 Q 135.947 288.332 135.859 288.053 Q 135.771 287.773 135.634 287.616 Q 135.496 287.46 135.247 287.391 Q 134.997 287.322 134.575 287.322 L 133.889 287.322 L 133.889 292.271 Q 133.889 292.742 133.963 292.967 Q 134.036 293.193 134.257 293.266 Q 134.477 293.34 134.918 293.34 L 134.918 293.712 L 131.812 293.712 L 131.812 293.34 Q 132.262 293.34 132.473 293.266 Q 132.684 293.193 132.752 292.967 Q 132.821 292.742 132.821 292.271 L 132.821 287.322 L 132.135 287.322 Q 131.576 287.322 131.307 287.445 Q 131.037 287.567 130.915 287.881 Q 130.792 288.195 130.675 288.763 L 130.283 288.763 L 130.4 286.823 L 136.32 286.823 Z " fill="black" /><path d="M 143.954 293.712 L 143.954 293.712 L 140.945 293.712 L 140.945 293.349 L 141.082 293.349 Q 141.602 293.349 141.602 293.085 Q 141.602 292.918 141.509 292.732 Q 141.416 292.546 141.19 292.222 L 140.543 291.223 L 140.259 290.733 L 140.22 290.733 L 139.015 292.379 Q 138.917 292.536 138.774 292.737 Q 138.632 292.938 138.632 293.075 Q 138.632 293.183 138.745 293.266 Q 138.858 293.349 139.289 293.349 L 139.289 293.712 L 136.908 293.712 L 136.908 293.349 Q 137.192 293.34 137.383 293.271 Q 137.574 293.202 137.765 293.006 Q 137.956 292.81 138.24 292.428 L 139.897 290.272 L 138.446 288.185 Q 138.152 287.754 137.966 287.543 Q 137.78 287.332 137.584 287.264 Q 137.388 287.195 137.045 287.195 L 137.045 286.823 L 139.985 286.823 L 139.985 287.195 L 139.877 287.195 Q 139.603 287.195 139.505 287.269 Q 139.407 287.342 139.407 287.499 Q 139.407 287.587 139.46 287.7 Q 139.514 287.812 139.603 287.95 L 140.171 288.822 L 140.583 289.537 L 140.632 289.537 L 141.661 288.057 Q 141.788 287.842 141.866 287.695 Q 141.945 287.548 141.945 287.44 Q 141.945 287.313 141.817 287.254 Q 141.69 287.195 141.318 287.195 L 141.318 286.823 L 143.826 286.823 L 143.826 287.195 Q 143.483 287.195 143.263 287.264 Q 143.042 287.332 142.841 287.518 Q 142.641 287.705 142.356 288.087 L 140.906 289.968 L 142.856 292.732 Q 143.042 292.987 143.189 293.119 Q 143.336 293.251 143.513 293.296 Q 143.689 293.34 143.954 293.349 Z " fill="black" /></g></g></g><g><g><g><path d="M 197.914 328.599 L 197.914 328.599 L 197.914 319.401 L 200.602 319.401 Q 201.652 319.401 202.443 319.66 Q 203.234 319.919 203.682 320.507 Q 204.13 321.095 204.13 322.103 Q 204.13 323.083 203.689 323.72 Q 203.248 324.357 202.471 324.665 Q 201.694 324.973 200.658 324.973 L 199.118 324.973 L 199.118 328.599 Z M 199.118 323.993 L 199.118 323.993 L 200.518 323.993 Q 201.736 323.993 202.331 323.545 Q 202.926 323.097 202.926 322.117 Q 202.926 321.123 202.31 320.745 Q 201.694 320.367 200.462 320.367 L 199.118 320.367 Z " fill="black" /><path d="M 206.034 328.599 L 206.034 328.599 L 206.034 319.401 L 207.238 319.401 L 207.238 327.577 L 211.34 327.577 L 211.34 328.599 Z " fill="black" /><path d="M 212.992 328.599 L 212.992 328.599 L 212.992 319.401 L 214.196 319.401 L 214.196 327.577 L 218.298 327.577 L 218.298 328.599 Z " fill="black" /></g></g></g><g><g><g><path d="M 311.645 256.508 L 311.645 256.508 Q 310.287 256.508 309.51 255.311 Q 308.733 254.114 308.733 251.902 Q 308.733 249.676 309.51 248.521 Q 310.287 247.366 311.645 247.366 Q 313.017 247.366 313.794 248.528 Q 314.571 249.69 314.571 251.902 Q 314.571 254.114 313.794 255.311 Q 313.017 256.508 311.645 256.508 Z M 311.645 255.556 L 311.645 255.556 Q 312.443 255.556 312.933 254.695 Q 313.423 253.834 313.423 251.902 Q 313.423 249.97 312.933 249.137 Q 312.443 248.304 311.645 248.304 Q 310.861 248.304 310.364 249.137 Q 309.867 249.97 309.867 251.902 Q 309.867 253.834 310.364 254.695 Q 310.861 255.556 311.645 255.556 Z " fill="black" /><path d="M 320.115 246.414 L 320.115 246.414 L 316.475 257.586 L 315.691 257.586 L 319.345 246.414 Z " fill="black" /><path d="M 323.545 256.508 L 323.545 256.508 Q 322.817 256.508 322.264 256.235 Q 321.711 255.962 321.333 255.57 L 321.991 254.842 Q 322.271 255.15 322.67 255.339 Q 323.069 255.528 323.489 255.528 Q 324.133 255.528 324.672 255.178 Q 325.211 254.828 325.547 254.016 Q 325.883 253.204 325.911 251.818 Q 325.477 252.336 324.903 252.63 Q 324.329 252.924 323.769 252.924 Q 322.579 252.924 321.879 252.238 Q 321.179 251.552 321.179 250.194 Q 321.179 249.34 321.55 248.71 Q 321.921 248.08 322.53 247.723 Q 323.139 247.366 323.867 247.366 Q 324.777 247.366 325.484 247.835 Q 326.191 248.304 326.604 249.242 Q 327.017 250.18 327.017 251.608 Q 327.017 253.372 326.527 254.45 Q 326.037 255.528 325.246 256.018 Q 324.455 256.508 323.545 256.508 Z M 325.883 250.88 L 325.883 250.88 Q 325.771 249.606 325.253 248.941 Q 324.735 248.276 323.867 248.276 Q 323.209 248.276 322.747 248.801 Q 322.285 249.326 322.285 250.194 Q 322.285 251.048 322.705 251.552 Q 323.125 252.056 323.965 252.056 Q 324.399 252.056 324.91 251.783 Q 325.421 251.51 325.883 250.88 Z " fill="black" /><path d="M 331.273 256.508 L 331.273 256.508 Q 329.915 256.508 329.138 255.311 Q 328.361 254.114 328.361 251.902 Q 328.361 249.676 329.138 248.521 Q 329.915 247.366 331.273 247.366 Q 332.645 247.366 333.422 248.528 Q 334.199 249.69 334.199 251.902 Q 334.199 254.114 333.422 255.311 Q 332.645 256.508 331.273 256.508 Z M 331.273 255.556 L 331.273 255.556 Q 332.071 255.556 332.561 254.695 Q 333.051 253.834 333.051 251.902 Q 333.051 249.97 332.561 249.137 Q 332.071 248.304 331.273 248.304 Q 330.489 248.304 329.992 249.137 Q 329.495 249.97 329.495 251.902 Q 329.495 253.834 329.992 254.695 Q 330.489 255.556 331.273 255.556 Z " fill="black" /><path d="M 339.827 248.71 L 339.827 248.71 Q 339.827 249.69 339.225 250.264 Q 338.623 250.838 337.685 250.838 Q 336.747 250.838 336.152 250.264 Q 335.557 249.69 335.557 248.71 Q 335.557 247.716 336.166 247.142 Q 336.775 246.568 337.685 246.568 Q 338.259 246.568 338.749 246.827 Q 339.239 247.086 339.533 247.562 Q 339.827 248.038 339.827 248.71 Z M 339.057 248.71 L 339.057 248.71 Q 339.057 247.996 338.665 247.611 Q 338.273 247.226 337.685 247.226 Q 337.125 247.226 336.726 247.618 Q 336.327 248.01 336.327 248.71 Q 336.327 249.41 336.712 249.795 Q 337.097 250.18 337.685 250.18 Q 338.273 250.18 338.665 249.802 Q 339.057 249.424 339.057 248.71 Z " fill="black" /></g></g></g><g><g><g><path d="M 422.914 256.599 L 422.914 256.599 L 422.914 247.401 L 425.602 247.401 Q 426.652 247.401 427.443 247.66 Q 428.234 247.919 428.682 248.507 Q 429.13 249.095 429.13 250.103 Q 429.13 251.083 428.689 251.72 Q 428.248 252.357 427.471 252.665 Q 426.694 252.973 425.658 252.973 L 424.118 252.973 L 424.118 256.599 Z M 424.118 251.993 L 424.118 251.993 L 425.518 251.993 Q 426.736 251.993 427.331 251.545 Q 427.926 251.097 427.926 250.117 Q 427.926 249.123 427.31 248.745 Q 426.694 248.367 425.462 248.367 L 424.118 248.367 Z " fill="black" /><path d="M 431.034 256.599 L 431.034 256.599 L 431.034 247.401 L 432.238 247.401 L 432.238 255.577 L 436.34 255.577 L 436.34 256.599 Z " fill="black" /><path d="M 437.992 256.599 L 437.992 256.599 L 437.992 247.401 L 439.196 247.401 L 439.196 255.577 L 443.298 255.577 L 443.298 256.599 Z " fill="black" /></g></g></g></svg>