<svg xmlns="http://www.w3.org/2000/svg" xmlns:xlink="http://www.w3.org/1999/xlink" xml:lang="en" height="189.39800000000002pt" width="196.0084pt" viewBox="-18.28 -94.798 196.0084 189.39800000000002"><path d="M 0.0,-0.0 L 0.0,-21.599999999999998 L -13.68,-43.199999999999996 L 13.68,-43.199999999999996 L 0.0,-21.599999999999998" style="stroke:black;fill:none;stroke-width:2.0;stroke-dasharray:-;stroke-linecap:round;stroke-linejoin:round;" /><path d="M 0.0,-0.0 L 18.0,-0.0 L 36.0,-0.0" style="stroke:black;fill:none;stroke-width:2.0;stroke-dasharray:-;stroke-linecap:round;stroke-linejoin:round;" /><path d="M 36.0,-18.0 L 36.0,-36.0 L 72.0,-36.0 L 72.0,-0.0 L 36.0,-0.0 L 36.0,-18.0" style="stroke:black;fill:none;stroke-width:2.0;stroke-dasharray:-;stroke-linecap:round;stroke-linejoin:round;" /><path d="M 43.199999999999996,-18.0 L 44.33684210526316,-19.16891808913686 L 45.473684210526315,-20.211165765682804 L 46.61052631578947,-21.013799321745104 L 47.747368421052634,-21.489840957381592 L 48.88421052631579,-21.58770417482401 L 50.02105263157894,-21.296783975958206 L 51.1578947368421,-20.648606078423274 L 52.294736842105266,-19.713410614933466 L 53.43157894736842,-18.592540525010644 L 54.56842105263158,-17.40745947498936 L 55.705263157894734,-16.286589385066534 L 56.8421052631579,-15.351393921576726 L 57.97894736842106,-14.703216024041794 L 59.11578947368421,-14.412295825175988 L 60.252631578947366,-14.510159042618408 L 61.38947368421053,-14.986200678254896 L 62.526315789473685,-15.788834234317196 L 63.66315789473684,-16.83108191086314 L 64.8,-18.0" style="stroke:black;fill:none;stroke-width:2.0;stroke-dasharray:-;stroke-linecap:round;stroke-linejoin:round;" /><path d="M 43.199999999999996,-27.0 L 44.33684210526316,-28.16891808913686 L 45.473684210526315,-29.211165765682804 L 46.61052631578947,-30.013799321745104 L 47.747368421052634,-30.489840957381592 L 48.88421052631579,-30.587704174824008 L 50.02105263157894,-30.296783975958206 L 51.1578947368421,-29.648606078423274 L 52.294736842105266,-28.713410614933462 L 53.43157894736842,-27.59254052501064 L 54.56842105263158,-26.40745947498936 L 55.705263157894734,-25.286589385066534 L 56.8421052631579,-24.351393921576726 L 57.97894736842106,-23.703216024041794 L 59.11578947368421,-23.412295825175992 L 60.252631578947366,-23.510159042618408 L 61.38947368421053,-23.986200678254896 L 62.526315789473685,-24.788834234317196 L 63.66315789473684,-25.83108191086314 L 64.8,-27.0" style="stroke:black;fill:none;stroke-width:2.0;stroke-dasharray:-;stroke-linecap:round;stroke-linejoin:round;" /><path d="M 43.199999999999996,-9.0 L 44.33684210526316,-10.16891808913686 L 45.473684210526315,-11.211165765682804 L 46.61052631578947,-12.013799321745104 L 47.747368421052634,-12.489840957381588 L 48.88421052631579,-12.587704174824012 L 50.02105263157894,-12.296783975958206 L 51.1578947368421,-11.648606078423274 L 52.294736842105266,-10.713410614933466 L 53.43157894736842,-9.592540525010643 L 54.56842105263158,-8.407459474989357 L 55.705263157894734,-7.286589385066536 L 56.8421052631579,-6.351393921576726 L 57.97894736842106,-5.703216024041794 L 59.11578947368421,-5.412295825175989 L 60.252631578947366,-5.510159042618409 L 61.38947368421053,-5.986200678254896 L 62.526315789473685,-6.7888342343171955 L 63.66315789473684,-7.83108191086314 L 64.8,-9.0" style="stroke:black;fill:none;stroke-width:2.0;stroke-dasharray:-;stroke-linecap:round;stroke-linejoin:round;" /><path d="M 52.199999999999996,-24.12 L 55.800000000000004,-29.880000000000003" style="stroke:black;fill:none;stroke-width:2.0;stroke-dasharray:-;stroke-linecap:round;stroke-linejoin:round;" /><path d="M 52.199999999999996,-6.119999999999999 L 55.800000000000004,-11.879999999999999" style="stroke:black;fill:none;stroke-width:2.0;stroke-dasharray:-;stroke-linecap:round;stroke-linejoin:round;" /><path d="M 54.0,-36.0 L 54.0,-54.0 L 54.0,-72.0" style="stroke:black;fill:none;stroke-width:2.0;stroke-dasharray:-;stroke-linecap:round;stroke-linejoin:round;" /><path d="M 54.0,-72.0 L 72.0,-72.0 L 81.0,-72.0" style="stroke:black;fill:none;stroke-width:2.0;stroke-dasharray:-;stroke-linecap:round;stroke-linejoin:round;" /><path d="M 88.0 -72.0 L 81.0 -69.3 L 81.0 -74.7 Z" style="stroke:black;fill:black;stroke-linecap:butt;stroke-linejoin:miter;" /><path d="M 90.0,-72.0 L 90.0,-54.0 L 117.0,-72.0 L 90.0,-90.0 L 90.0,-72.0" style="stroke:black;fill:none;stroke-width:2.0;stroke-dasharray:-;stroke-linecap:round;stroke-linejoin:round;" /><path d="M 117.0,-72.0 L 135.0,-72.0 L 144.0,-72.0" style="stroke:black;fill:none;stroke-width:2.0;stroke-dasharray:7.4,3.2;stroke-linecap:round;stroke-linejoin:round;" /><path d="M 151.0 -72.0 L 144.0 -69.3 L 144.0 -74.7 Z" style="stroke:black;fill:black;stroke-linecap:butt;stroke-linejoin:miter;" /><path d="M 36.0,18.0 L 36.0,-0.0 L 72.0,-0.0 L 72.0,36.0 L 36.0,36.0 L 36.0,18.0" style="stroke:black;fill:none;stroke-width:2.0;stroke-dasharray:-;stroke-linecap:round;stroke-linejoin:round;" /><path d="M 43.199999999999996,18.0 L 44.33684210526316,16.83108191086314 L 45.473684210526315,15.788834234317196 L 46.61052631578947,14.986200678254896 L 47.747368421052634,14.510159042618412 L 48.88421052631579,14.412295825175988 L 50.02105263157894,14.703216024041794 L 51.1578947368421,15.351393921576726 L 52.294736842105266,16.286589385066534 L 53.43157894736842,17.40745947498936 L 54.56842105263158,18.592540525010644 L 55.705263157894734,19.713410614933466 L 56.8421052631579,20.648606078423274 L 57.97894736842106,21.296783975958206 L 59.11578947368421,21.58770417482401 L 60.252631578947366,21.489840957381592 L 61.38947368421053,21.013799321745104 L 62.526315789473685,20.211165765682804 L 63.66315789473684,19.16891808913686 L 64.8,18.0" style="stroke:black;fill:none;stroke-width:2.0;stroke-dasharray:-;stroke-linecap:round;stroke-linejoin:round;" /><path d="M 43.199999999999996,9.0 L 44.33684210526316,7.83108191086314 L 45.473684210526315,6.7888342343171955 L 46.61052631578947,5.986200678254896 L 47.747368421052634,5.510159042618411 L 48.88421052631579,5.412295825175989 L 50.02105263157894,5.703216024041794 L 51.1578947368421,6.351393921576726 L 52.294736842105266,7.286589385066536 L 53.43157894736842,8.407459474989357 L 54.56842105263158,9.592540525010643 L 55.705263157894734,10.713410614933466 L 56.8421052631579,11.648606078423274 L 57.97894736842106,12.296783975958206 L 59.11578947368421,12.587704174824012 L 60.252631578947366,12.489840957381592 L 61.38947368421053,12.013799321745104 L 62.526315789473685,11.211165765682804 L 63.66315789473684,10.16891808913686 L 64.8,9.0" style="stroke:black;fill:none;stroke-width:2.0;stroke-dasharray:-;stroke-linecap:round;stroke-linejoin:round;" /><path d="M 43.199999999999996,27.0 L 44.33684210526316,25.83108191086314 L 45.473684210526315,24.788834234317196 L 46.61052631578947,23.986200678254896 L 47.747368421052634,23.510159042618408 L 48.88421052631579,23.412295825175992 L 50.02105263157894,23.703216024041794 L 51.1578947368421,24.351393921576726 L 52.294736842105266,25.286589385066534 L 53.43157894736842,26.40745947498936 L 54.56842105263158,27.59254052501064 L 55.705263157894734,28.713410614933462 L 56.8421052631579,29.648606078423274 L 57.97894736842106,30.296783975958206 L 59.11578947368421,30.587704174824008 L 60.252631578947366,30.489840957381592 L 61.38947368421053,30.013799321745104 L 62.526315789473685,29.211165765682804 L 63.66315789473684,28.16891808913686 L 64.8,27.0" style="stroke:black;fill:none;stroke-width:2.0;stroke-dasharray:-;stroke-linecap:round;stroke-linejoin:round;" /><path d="M 52.199999999999996,11.879999999999999 L 55.800000000000004,6.119999999999999" style="stroke:black;fill:none;stroke-width:2.0;stroke-dasharray:-;stroke-linecap:round;stroke-linejoin:round;" /><path d="M 52.199999999999996,29.880000000000003 L 55.800000000000004,24.12" style="stroke:black;fill:none;stroke-width:2.0;stroke-dasharray:-;stroke-linecap:round;stroke-linejoin:round;" /><path d="M 54.0,45.0 L 54.0,54.0 L 53.99999999999999,72.0" style="stroke:black;fill:none;stroke-width:2.0;stroke-dasharray:-;stroke-linecap:round;stroke-linejoin:round;" /><path d="M 54.0 38.0 L 56.7 45.0 L 51.3 45.0 Z" style="stroke:black;fill:black;stroke-linecap:butt;stroke-linejoin:miter;" /><path d="M 53.99999999999999,72.0 L 71.99999999999999,72.0 L 90.0,72.0" style="stroke:black;fill:none;stroke-width:2.0;stroke-dasharray:-;stroke-linecap:round;stroke-linejoin:round;" /><path d="M 117.0,72.0 L 117.0,54.0 L 90.0,72.0 L 117.0,90.0 L 117.0,72.0" style="stroke:black;fill:none;stroke-width:2.0;stroke-dasharray:-;stroke-linecap:round;stroke-linejoin:round;" /><path d="M 126.0,72.0 L 135.0,72.0 L 153.0,72.0" style="stroke:black;fill:none;stroke-width:2.0;stroke-dasharray:7.4,3.2;stroke-linecap:round;stroke-linejoin:round;" /><path d="M 119.0 72.0 L 126.0 69.3 L 126.0 74.7 Z" style="stroke:black;fill:black;stroke-linecap:butt;stroke-linejoin:miter;" /><g><g><g><path d="M 66.176 -81 L 66.176 -81 L 66.176 -90.198 L 69.13 -90.198 Q 70.082 -90.198 70.824 -89.946 Q 71.566 -89.694 71.986 -89.134 Q 72.406 -88.574 72.406 -87.622 Q 72.406 -86.516 71.832 -85.872 Q 71.258 -85.228 70.306 -85.004 L 72.686 -81 L 71.328 -81 L 69.074 -84.878 L 67.38 -84.878 L 67.38 -81 Z M 67.38 -85.844 L 67.38 -85.844 L 68.948 -85.844 Q 70.04 -85.844 70.628 -86.278 Q 71.216 -86.712 71.216 -87.608 Q 71.216 -88.504 70.628 -88.868 Q 70.04 -89.232 68.948 -89.232 L 67.38 -89.232 Z " fill="black" /><path d="M 73.288 -81 L 73.288 -81 L 76.018 -85.76 L 73.456 -90.198 L 74.772 -90.198 L 76.046 -87.86 Q 76.242 -87.552 76.403 -87.237 Q 76.564 -86.922 76.788 -86.516 L 76.844 -86.516 Q 77.04 -86.922 77.187 -87.237 Q 77.334 -87.552 77.502 -87.86 L 78.748 -90.198 L 80.008 -90.198 L 77.46 -85.69 L 80.19 -81 L 78.874 -81 L 77.502 -83.464 Q 77.292 -83.856 77.173 -84.073 Q 77.054 -84.29 76.984 -84.409 Q 76.914 -84.528 76.851 -84.64 Q 76.788 -84.752 76.69 -84.934 L 76.634 -84.934 Q 76.438 -84.514 76.256 -84.164 Q 76.074 -83.814 75.892 -83.464 L 74.548 -81 Z " fill="black" /></g></g></g><g><g><g><path d="M 161.892 -76.823 L 161.892 -76.823 L 161.57 -74.639 L 161.234 -74.639 Q 161.206 -75.451 160.863 -75.927 Q 160.52 -76.403 159.904 -76.403 Q 159.358 -76.403 159.12 -76.109 Q 158.882 -75.815 158.882 -75.507 Q 158.882 -75.213 159.085 -74.94 Q 159.288 -74.667 159.596 -74.38 Q 159.904 -74.093 160.212 -73.757 Q 160.66 -73.281 160.989 -72.826 Q 161.318 -72.371 161.318 -71.699 Q 161.318 -71.293 161.115 -70.894 Q 160.912 -70.495 160.45 -70.229 Q 159.988 -69.963 159.19 -69.963 Q 158.532 -69.963 158.133 -70.124 Q 157.734 -70.285 157.58 -70.341 L 157.538 -70.341 L 157.202 -69.963 L 156.894 -69.963 L 157.258 -72.301 L 157.608 -72.301 Q 157.72 -71.391 158.035 -70.915 Q 158.35 -70.439 159.064 -70.439 Q 159.554 -70.439 159.855 -70.677 Q 160.156 -70.915 160.156 -71.461 Q 160.156 -72.035 159.841 -72.434 Q 159.526 -72.833 159.12 -73.211 Q 158.84 -73.491 158.553 -73.757 Q 158.266 -74.023 158.077 -74.352 Q 157.888 -74.681 157.888 -75.115 Q 157.888 -75.829 158.364 -76.326 Q 158.84 -76.823 159.792 -76.823 Q 160.352 -76.823 160.723 -76.669 Q 161.094 -76.515 161.22 -76.445 L 161.262 -76.445 L 161.626 -76.823 Z " fill="black" /><path d="M 168.129 -72.253 L 168.129 -72.253 Q 168.129 -71.675 167.864 -71.313 Q 167.6 -70.95 167.193 -70.754 Q 166.786 -70.558 166.355 -70.46 L 166.355 -70.382 Q 166.502 -70.254 166.703 -70.019 Q 166.904 -69.784 167.247 -69.328 Q 167.59 -68.872 168.158 -68.088 Q 168.413 -67.745 168.634 -67.647 Q 168.854 -67.549 169.246 -67.549 L 169.246 -67.177 L 167.472 -67.177 Q 167.031 -67.814 166.732 -68.25 Q 166.434 -68.686 166.233 -68.985 Q 166.032 -69.284 165.88 -69.509 Q 165.728 -69.735 165.571 -69.97 Q 165.414 -70.166 165.316 -70.225 Q 165.218 -70.284 165.022 -70.284 L 164.611 -70.284 L 164.611 -68.539 Q 164.611 -68.108 164.689 -67.897 Q 164.768 -67.687 164.998 -67.618 Q 165.228 -67.549 165.679 -67.549 L 165.679 -67.177 L 162.602 -67.177 L 162.602 -67.549 Q 162.994 -67.549 163.204 -67.613 Q 163.415 -67.677 163.494 -67.892 Q 163.572 -68.108 163.572 -68.539 L 163.572 -72.871 Q 163.572 -73.184 163.508 -73.361 Q 163.445 -73.537 163.239 -73.616 Q 163.033 -73.694 162.602 -73.694 L 162.602 -74.066 L 165.326 -74.066 Q 166.091 -74.066 166.728 -73.915 Q 167.365 -73.763 167.747 -73.371 Q 168.129 -72.979 168.129 -72.253 Z M 164.611 -73.576 L 164.611 -73.576 L 164.611 -70.744 L 164.983 -70.744 Q 165.895 -70.744 166.448 -71.112 Q 167.002 -71.479 167.002 -72.293 Q 167.002 -73.596 165.395 -73.596 Q 165.199 -73.596 165.003 -73.591 Q 164.807 -73.586 164.611 -73.576 Z " fill="black" /><path d="M 176.488 -67.177 L 176.488 -67.177 L 173.48 -67.177 L 173.48 -67.54 L 173.617 -67.54 Q 174.136 -67.54 174.136 -67.804 Q 174.136 -67.971 174.043 -68.157 Q 173.95 -68.343 173.725 -68.667 L 173.078 -69.666 L 172.794 -70.156 L 172.755 -70.156 L 171.549 -68.51 Q 171.451 -68.353 171.309 -68.152 Q 171.167 -67.951 171.167 -67.814 Q 171.167 -67.706 171.28 -67.623 Q 171.392 -67.54 171.824 -67.54 L 171.824 -67.177 L 169.442 -67.177 L 169.442 -67.54 Q 169.726 -67.549 169.917 -67.618 Q 170.109 -67.687 170.3 -67.883 Q 170.491 -68.079 170.775 -68.461 L 172.431 -70.617 L 170.981 -72.704 Q 170.687 -73.135 170.501 -73.346 Q 170.314 -73.557 170.118 -73.625 Q 169.922 -73.694 169.579 -73.694 L 169.579 -74.066 L 172.519 -74.066 L 172.519 -73.694 L 172.412 -73.694 Q 172.137 -73.694 172.039 -73.621 Q 171.941 -73.547 171.941 -73.39 Q 171.941 -73.302 171.995 -73.189 Q 172.049 -73.077 172.137 -72.939 L 172.706 -72.067 L 173.117 -71.352 L 173.166 -71.352 L 174.195 -72.832 Q 174.323 -73.047 174.401 -73.194 Q 174.479 -73.341 174.479 -73.449 Q 174.479 -73.576 174.352 -73.635 Q 174.225 -73.694 173.852 -73.694 L 173.852 -74.066 L 176.361 -74.066 L 176.361 -73.694 Q 176.018 -73.694 175.797 -73.625 Q 175.577 -73.557 175.376 -73.371 Q 175.175 -73.184 174.891 -72.802 L 173.441 -70.921 L 175.391 -68.157 Q 175.577 -67.902 175.724 -67.77 Q 175.871 -67.638 176.047 -67.594 Q 176.224 -67.549 176.488 -67.54 Z " fill="black" /></g></g></g><g><g><g><path d="M 67.94 68.4 L 67.94 68.4 L 67.94 60.21 L 65.112 60.21 L 65.112 59.202 L 71.972 59.202 L 71.972 60.21 L 69.13 60.21 L 69.13 68.4 Z " fill="black" /><path d="M 72.616 68.4 L 72.616 68.4 L 75.346 63.64 L 72.784 59.202 L 74.1 59.202 L 75.374 61.54 Q 75.57 61.848 75.731 62.163 Q 75.892 62.478 76.116 62.884 L 76.172 62.884 Q 76.368 62.478 76.515 62.163 Q 76.662 61.848 76.83 61.54 L 78.076 59.202 L 79.336 59.202 L 76.788 63.71 L 79.518 68.4 L 78.202 68.4 L 76.83 65.936 Q 76.62 65.544 76.501 65.327 Q 76.382 65.11 76.312 64.991 Q 76.242 64.872 76.179 64.76 Q 76.116 64.648 76.018 64.466 L 75.962 64.466 Q 75.766 64.886 75.584 65.236 Q 75.402 65.586 75.22 65.936 L 73.876 68.4 Z " fill="black" /></g></g></g><g><g><g><path d="M 161.892 67.177 L 161.892 67.177 L 161.57 69.361 L 161.234 69.361 Q 161.206 68.549 160.863 68.073 Q 160.52 67.597 159.904 67.597 Q 159.358 67.597 159.12 67.891 Q 158.882 68.185 158.882 68.493 Q 158.882 68.787 159.085 69.06 Q 159.288 69.333 159.596 69.62 Q 159.904 69.907 160.212 70.243 Q 160.66 70.719 160.989 71.174 Q 161.318 71.629 161.318 72.301 Q 161.318 72.707 161.115 73.106 Q 160.912 73.505 160.45 73.771 Q 159.988 74.037 159.19 74.037 Q 158.532 74.037 158.133 73.876 Q 157.734 73.715 157.58 73.659 L 157.538 73.659 L 157.202 74.037 L 156.894 74.037 L 157.258 71.699 L 157.608 71.699 Q 157.72 72.609 158.035 73.085 Q 158.35 73.561 159.064 73.561 Q 159.554 73.561 159.855 73.323 Q 160.156 73.085 160.156 72.539 Q 160.156 71.965 159.841 71.566 Q 159.526 71.167 159.12 70.789 Q 158.84 70.509 158.553 70.243 Q 158.266 69.977 158.077 69.648 Q 157.888 69.319 157.888 68.885 Q 157.888 68.171 158.364 67.674 Q 158.84 67.177 159.792 67.177 Q 160.352 67.177 160.723 67.331 Q 161.094 67.485 161.22 67.555 L 161.262 67.555 L 161.626 67.177 Z " fill="black" /><path d="M 168.443 71.874 L 168.443 71.874 L 168.06 71.874 Q 167.972 71.443 167.884 71.163 Q 167.796 70.884 167.659 70.727 Q 167.521 70.571 167.272 70.502 Q 167.022 70.433 166.6 70.433 L 165.914 70.433 L 165.914 75.382 Q 165.914 75.853 165.988 76.078 Q 166.061 76.304 166.282 76.377 Q 166.502 76.451 166.943 76.451 L 166.943 76.823 L 163.837 76.823 L 163.837 76.451 Q 164.287 76.451 164.498 76.377 Q 164.709 76.304 164.777 76.078 Q 164.846 75.853 164.846 75.382 L 164.846 70.433 L 164.16 70.433 Q 163.601 70.433 163.332 70.556 Q 163.062 70.678 162.94 70.992 Q 162.817 71.306 162.7 71.874 L 162.308 71.874 L 162.425 69.934 L 168.345 69.934 Z " fill="black" /><path d="M 175.979 76.823 L 175.979 76.823 L 172.97 76.823 L 172.97 76.46 L 173.107 76.46 Q 173.627 76.46 173.627 76.196 Q 173.627 76.029 173.534 75.843 Q 173.441 75.657 173.215 75.333 L 172.568 74.334 L 172.284 73.844 L 172.245 73.844 L 171.04 75.49 Q 170.942 75.647 170.799 75.848 Q 170.657 76.049 170.657 76.186 Q 170.657 76.294 170.77 76.377 Q 170.883 76.46 171.314 76.46 L 171.314 76.823 L 168.933 76.823 L 168.933 76.46 Q 169.217 76.451 169.408 76.382 Q 169.599 76.313 169.79 76.117 Q 169.981 75.921 170.265 75.539 L 171.922 73.383 L 170.471 71.296 Q 170.177 70.865 169.991 70.654 Q 169.805 70.443 169.609 70.375 Q 169.413 70.306 169.07 70.306 L 169.07 69.934 L 172.01 69.934 L 172.01 70.306 L 171.902 70.306 Q 171.628 70.306 171.53 70.379 Q 171.432 70.453 171.432 70.61 Q 171.432 70.698 171.485 70.811 Q 171.539 70.923 171.628 71.061 L 172.196 71.933 L 172.608 72.648 L 172.657 72.648 L 173.686 71.168 Q 173.813 70.953 173.891 70.806 Q 173.97 70.659 173.97 70.551 Q 173.97 70.424 173.842 70.365 Q 173.715 70.306 173.343 70.306 L 173.343 69.934 L 175.851 69.934 L 175.851 70.306 Q 175.508 70.306 175.288 70.375 Q 175.067 70.443 174.866 70.629 Q 174.666 70.816 174.381 71.198 L 172.931 73.079 L 174.881 75.843 Q 175.067 76.098 175.214 76.23 Q 175.361 76.362 175.538 76.406 Q 175.714 76.451 175.979 76.46 Z " fill="black" /></g></g></g></svg>