<svg xmlns="http://www.w3.org/2000/svg" xmlns:xlink="http://www.w3.org/1999/xlink" xml:lang="en" height="199.402pt" width="222.176pt" viewBox="-20.8834 -27.761999999999997 222.176 199.402"><circle cx="143.99999999999997" cy="36.0" r="18.0" style="stroke:black;fill:none;stroke-width:2.0;stroke-dasharray:-;" /><path d="M 0.0,-0.0 L 36.0,-0.0 L 72.0,-0.0" style="stroke:black;fill:none;stroke-width:2.0;stroke-dasharray:-;stroke-linecap:round;stroke-linejoin:round;" /><path d="M 72.0,-0.0 L 71.99999999999999,32.76 M 81.0,32.76 L 62.99999999999999,32.76 M 81.0,39.24 L 62.99999999999999,39.24 M 71.99999999999999,39.24 L 71.99999999999999,72.0" style="stroke:black;fill:none;stroke-width:2.0;stroke-dasharray:-;stroke-linecap:round;stroke-linejoin:round;" /><path d="M 71.99999999999999,72.0 L 107.99999999999999,72.0 L 143.99999999999997,72.0" style="stroke:black;fill:none;stroke-width:2.0;stroke-dasharray:-;stroke-linecap:round;stroke-linejoin:round;" /><path d="M 143.99999999999997,72.0 L 143.99999999999997,90.0 L 152.99999999999997,90.0 L 152.99999999999997,126.0 L 134.99999999999997,126.0 L 134.99999999999997,90.0 L 143.99999999999997,90.0 M 143.99999999999997,126.0 L 143.99999999999997,144.0" style="stroke:black;fill:none;stroke-width:2.0;stroke-dasharray:-;stroke-linecap:round;stroke-linejoin:round;" /><path d="M 143.99999999999997,144.0 L 143.99999999999997,158.4 L 134.99999999999997,158.4 L 152.99999999999997,158.4 M 137.7,162.71999999999997 L 150.29999999999995,162.71999999999997 M 142.2,167.04 L 145.79999999999995,167.04" style="stroke:black;fill:none;stroke-width:2.0;stroke-dasharray:-;stroke-linecap:round;stroke-linejoin:round;" /><path d="M 143.99999999999997,72.0 L 143.99999999999997,54.0 L 143.99999999999997,54.0 M 143.99999999999997,18.0 L 143.99999999999997,18.0 L 143.99999999999997,-0.0" style="stroke:black;fill:none;stroke-width:2.0;stroke-dasharray:-;stroke-linecap:round;stroke-linejoin:round;" /><path d="M 143.99999999999997,36.0 L 143.99999999999997,27.0" style="stroke:black;fill:none;stroke-width:2.0;stroke-dasharray:-;stroke-linecap:round;stroke-linejoin:round;" /><path d="M 143.99999999999997 43.0 L 141.29999999999998 36.0 L 146.69999999999996 36.0 Z" style="stroke:black;fill:black;stroke-linecap:butt;stroke-linejoin:miter;" /><g><g><g><path d="M 48.978 35.945 L 48.978 35.945 L 49.23 36.211 Q 48.516 37.051 47.578 37.59 Q 46.64 38.129 45.31 38.129 Q 44.05 38.129 43.294 37.66 Q 42.538 37.191 42.209 36.407 Q 41.88 35.623 41.88 34.699 Q 41.88 33.229 42.328 32.088 Q 42.776 30.947 43.553 30.17 Q 44.33 29.393 45.31 28.994 Q 46.29 28.595 47.354 28.595 Q 48.068 28.595 48.467 28.721 Q 48.866 28.847 49.09 28.98 Q 49.314 29.113 49.482 29.113 Q 49.65 29.113 49.776 28.973 Q 49.902 28.833 50.07 28.609 L 50.476 28.609 L 49.818 31.815 L 49.356 31.815 Q 49.412 30.415 48.838 29.806 Q 48.264 29.197 47.228 29.197 Q 46.416 29.197 45.702 29.568 Q 44.988 29.939 44.435 30.618 Q 43.882 31.297 43.567 32.242 Q 43.252 33.187 43.252 34.349 Q 43.252 35.749 43.917 36.484 Q 44.582 37.219 45.968 37.219 Q 47.578 37.219 48.978 35.945 Z " fill="black" /><path d="M 51.459 38.946 L 51.459 38.946 L 51.459 38.906 Q 51.116 38.701 50.876 38.372 Q 50.636 38.044 50.636 37.525 Q 50.636 36.976 50.901 36.584 Q 51.165 36.192 51.616 35.981 Q 52.067 35.77 52.625 35.77 Q 53.145 35.77 53.473 35.883 Q 53.801 35.996 53.801 35.996 L 55.242 35.957 L 55.242 36.535 L 54.213 36.515 L 54.213 36.584 Q 54.34 36.76 54.478 37 Q 54.615 37.24 54.615 37.672 Q 54.615 38.162 54.355 38.519 Q 54.095 38.877 53.659 39.068 Q 53.223 39.259 52.674 39.259 Q 52.175 39.259 51.734 39.083 Q 51.665 39.21 51.572 39.445 Q 51.479 39.681 51.479 39.847 Q 51.479 40.053 51.719 40.151 Q 51.959 40.249 52.674 40.249 Q 53.204 40.249 53.654 40.273 Q 54.105 40.298 54.438 40.411 Q 54.772 40.523 54.953 40.773 Q 55.134 41.023 55.134 41.484 Q 55.134 42.013 54.865 42.38 Q 54.595 42.748 54.154 42.973 Q 53.713 43.199 53.199 43.302 Q 52.684 43.405 52.184 43.405 Q 51.469 43.405 51.077 43.228 Q 50.685 43.052 50.533 42.777 Q 50.381 42.503 50.381 42.219 Q 50.381 41.944 50.572 41.675 Q 50.763 41.405 51.185 41.013 L 51.185 40.964 Q 50.94 40.837 50.773 40.621 Q 50.607 40.406 50.607 40.2 Q 50.607 39.906 50.866 39.578 Q 51.126 39.249 51.459 38.946 Z M 51.508 41.062 L 51.508 41.062 Q 51.342 41.347 51.283 41.513 Q 51.224 41.68 51.224 41.846 Q 51.224 42.297 51.591 42.527 Q 51.959 42.758 52.733 42.758 Q 53.37 42.758 53.762 42.601 Q 54.154 42.444 54.34 42.224 Q 54.527 42.003 54.527 41.797 Q 54.527 41.533 54.355 41.386 Q 54.184 41.239 53.919 41.175 Q 53.654 41.111 53.36 41.092 Q 53.066 41.072 52.812 41.072 Q 52.743 41.072 52.704 41.072 Q 52.077 41.072 51.846 41.067 Q 51.616 41.062 51.508 41.062 Z M 52.567 36.202 L 52.567 36.202 Q 52.145 36.202 51.886 36.486 Q 51.626 36.77 51.626 37.466 Q 51.626 38.152 51.9 38.505 Q 52.175 38.857 52.674 38.857 Q 52.939 38.857 53.155 38.75 Q 53.37 38.642 53.502 38.358 Q 53.635 38.073 53.635 37.554 Q 53.635 36.888 53.346 36.545 Q 53.057 36.202 52.567 36.202 Z " fill="black" /><path d="M 56.104 39.132 L 56.104 39.132 L 56.418 39.132 Q 56.545 39.7 56.722 40.014 Q 56.898 40.327 57.177 40.45 Q 57.457 40.572 57.859 40.572 Q 58.319 40.572 58.569 40.42 Q 58.819 40.269 58.819 39.886 Q 58.819 39.632 58.697 39.46 Q 58.574 39.289 58.304 39.132 Q 58.035 38.975 57.584 38.769 Q 57.124 38.544 56.795 38.348 Q 56.467 38.152 56.295 37.887 Q 56.124 37.623 56.124 37.221 Q 56.124 36.515 56.599 36.143 Q 57.075 35.77 57.79 35.77 Q 58.221 35.77 58.52 35.878 Q 58.819 35.986 58.995 36.064 L 59.015 36.064 L 59.172 35.819 L 59.446 35.819 L 59.466 37.446 L 59.123 37.446 Q 58.937 36.692 58.603 36.432 Q 58.27 36.172 57.839 36.172 Q 57.388 36.172 57.158 36.368 Q 56.928 36.564 56.928 36.878 Q 56.928 37.133 57.084 37.299 Q 57.241 37.466 57.53 37.608 Q 57.819 37.75 58.221 37.946 Q 58.672 38.162 59.015 38.392 Q 59.358 38.622 59.554 38.911 Q 59.75 39.2 59.75 39.632 Q 59.75 40.151 59.476 40.465 Q 59.201 40.778 58.77 40.91 Q 58.339 41.043 57.868 41.043 Q 57.388 41.043 57.124 40.945 Q 56.859 40.847 56.634 40.759 L 56.594 40.759 L 56.349 41.013 L 56.124 41.013 Z " fill="black" /></g></g></g><circle cx="143.99999999999997" cy="72.0" r="2.6999999999999997" style="stroke:black;fill:black;stroke-width:2.0;stroke-dasharray:-;" /><g><g><g><path d="M 113.059 107.28 L 113.059 107.28 L 112.247 109.884 L 105.191 109.884 L 105.261 109.478 L 112.345 101.33 L 112.345 101.274 L 109.783 101.274 Q 109.069 101.274 108.635 101.379 Q 108.201 101.484 107.907 101.848 Q 107.613 102.212 107.305 102.996 L 106.857 102.996 L 107.375 100.686 L 114.179 100.686 L 114.095 101.078 L 107.039 109.24 L 107.039 109.31 L 109.909 109.31 Q 110.707 109.31 111.162 109.128 Q 111.617 108.946 111.932 108.498 Q 112.247 108.05 112.639 107.28 Z " fill="black" /><path d="M 119.97 112.697 L 119.97 112.697 L 118.647 112.873 L 118.295 112.873 L 118.295 112.187 L 118.226 112.187 Q 117.903 112.462 117.496 112.687 Q 117.089 112.913 116.58 112.913 Q 116.001 112.913 115.595 112.599 Q 115.188 112.285 114.972 111.737 Q 114.757 111.188 114.757 110.492 Q 114.757 109.62 115.095 108.988 Q 115.433 108.356 115.996 108.017 Q 116.56 107.679 117.226 107.679 Q 117.805 107.679 118.275 107.944 L 118.275 106.68 Q 118.275 106.327 118.201 106.214 Q 118.128 106.102 117.814 106.102 Q 117.746 106.102 117.633 106.116 Q 117.52 106.131 117.52 106.131 L 117.52 105.759 L 118.824 105.504 L 119.226 105.504 L 119.226 111.717 Q 119.226 112.099 119.333 112.212 Q 119.441 112.325 119.706 112.325 L 119.97 112.325 Z M 118.275 111.737 L 118.275 111.737 L 118.275 108.875 Q 118.167 108.601 117.917 108.385 Q 117.667 108.169 117.207 108.169 Q 116.55 108.169 116.129 108.615 Q 115.707 109.061 115.707 110.09 Q 115.707 111.139 116.075 111.624 Q 116.442 112.109 117.109 112.109 Q 117.422 112.109 117.682 112.021 Q 117.942 111.933 118.275 111.737 Z " fill="black" /><path d="M 125.115 111.364 L 125.115 111.364 L 125.351 111.55 Q 125.145 111.923 124.89 112.236 Q 124.635 112.55 124.263 112.736 Q 123.89 112.922 123.322 112.922 Q 122.705 112.922 122.17 112.643 Q 121.636 112.364 121.313 111.786 Q 120.99 111.207 120.99 110.325 Q 120.99 109.453 121.293 108.865 Q 121.597 108.277 122.117 107.978 Q 122.636 107.679 123.273 107.679 Q 124.155 107.679 124.738 108.292 Q 125.321 108.904 125.341 110.12 L 121.891 110.12 Q 121.891 110.786 122.141 111.222 Q 122.391 111.658 122.783 111.869 Q 123.175 112.08 123.606 112.08 Q 124.047 112.08 124.312 111.986 Q 124.576 111.893 124.758 111.727 Q 124.939 111.56 125.115 111.364 Z M 121.891 109.669 L 121.891 109.669 L 124.292 109.669 Q 124.292 109.277 124.165 108.929 Q 124.037 108.581 123.792 108.361 Q 123.547 108.14 123.165 108.14 Q 122.607 108.14 122.278 108.532 Q 121.95 108.924 121.891 109.669 Z " fill="black" /><path d="M 127.301 110.855 L 127.301 110.855 L 127.301 110.815 Q 126.958 110.61 126.718 110.281 Q 126.478 109.953 126.478 109.434 Q 126.478 108.885 126.742 108.493 Q 127.007 108.101 127.458 107.89 Q 127.908 107.679 128.467 107.679 Q 128.986 107.679 129.315 107.792 Q 129.643 107.905 129.643 107.905 L 131.084 107.866 L 131.084 108.444 L 130.055 108.424 L 130.055 108.493 Q 130.182 108.669 130.319 108.909 Q 130.456 109.149 130.456 109.581 Q 130.456 110.071 130.197 110.428 Q 129.937 110.786 129.501 110.977 Q 129.065 111.168 128.516 111.168 Q 128.016 111.168 127.575 110.992 Q 127.507 111.119 127.413 111.354 Q 127.32 111.59 127.32 111.756 Q 127.32 111.962 127.56 112.06 Q 127.801 112.158 128.516 112.158 Q 129.045 112.158 129.496 112.182 Q 129.947 112.207 130.28 112.32 Q 130.613 112.432 130.794 112.682 Q 130.976 112.932 130.976 113.393 Q 130.976 113.922 130.706 114.29 Q 130.437 114.657 129.996 114.882 Q 129.555 115.108 129.04 115.211 Q 128.526 115.314 128.026 115.314 Q 127.311 115.314 126.919 115.137 Q 126.527 114.961 126.375 114.686 Q 126.223 114.412 126.223 114.128 Q 126.223 113.853 126.414 113.584 Q 126.605 113.314 127.026 112.922 L 127.026 112.873 Q 126.781 112.746 126.615 112.53 Q 126.448 112.315 126.448 112.109 Q 126.448 111.815 126.708 111.487 Q 126.968 111.158 127.301 110.855 Z M 127.35 112.971 L 127.35 112.971 Q 127.183 113.256 127.124 113.422 Q 127.066 113.589 127.066 113.755 Q 127.066 114.206 127.433 114.436 Q 127.801 114.667 128.575 114.667 Q 129.212 114.667 129.604 114.51 Q 129.996 114.353 130.182 114.133 Q 130.368 113.912 130.368 113.706 Q 130.368 113.442 130.197 113.295 Q 130.025 113.148 129.761 113.084 Q 129.496 113.02 129.202 113.001 Q 128.908 112.981 128.653 112.981 Q 128.585 112.981 128.545 112.981 Q 127.918 112.981 127.688 112.976 Q 127.458 112.971 127.35 112.971 Z M 128.408 108.111 L 128.408 108.111 Q 127.987 108.111 127.727 108.395 Q 127.467 108.679 127.467 109.375 Q 127.467 110.061 127.742 110.414 Q 128.016 110.766 128.516 110.766 Q 128.781 110.766 128.996 110.659 Q 129.212 110.551 129.344 110.267 Q 129.476 109.982 129.476 109.463 Q 129.476 108.797 129.187 108.454 Q 128.898 108.111 128.408 108.111 Z " fill="black" /></g></g></g><circle cx="143.99999999999997" cy="-0.0" r="2.6999999999999997" style="stroke:black;fill:white;stroke-width:2.0;stroke-dasharray:-;" /><g><g><g><path d="M 172.474 28.75 L 172.474 28.75 L 172.39 29.464 L 171.172 29.324 L 171.172 29.366 Q 171.41 29.632 171.543 30.031 Q 171.676 30.43 171.676 30.794 Q 171.676 31.424 171.424 31.851 Q 171.172 32.278 170.766 32.537 Q 170.36 32.796 169.87 32.929 Q 169.38 33.062 168.918 33.104 Q 168.358 33.16 168.127 33.342 Q 167.896 33.524 167.896 33.72 Q 167.896 33.972 168.176 34.105 Q 168.456 34.238 168.897 34.322 Q 169.338 34.406 169.842 34.511 Q 170.346 34.616 170.787 34.798 Q 171.228 34.98 171.508 35.309 Q 171.788 35.638 171.788 36.184 Q 171.788 36.786 171.396 37.297 Q 171.004 37.808 170.234 38.123 Q 169.464 38.438 168.344 38.438 Q 167.336 38.438 166.734 38.193 Q 166.132 37.948 165.866 37.563 Q 165.6 37.178 165.6 36.758 Q 165.6 36.086 166.118 35.673 Q 166.636 35.26 167.294 35.05 L 167.294 34.994 Q 167.112 34.882 166.951 34.679 Q 166.79 34.476 166.79 34.154 Q 166.79 33.804 166.972 33.594 Q 167.154 33.384 167.441 33.251 Q 167.728 33.118 168.008 33.02 L 168.008 32.936 Q 167.462 32.698 167.056 32.264 Q 166.65 31.83 166.65 31.032 Q 166.65 30.304 167 29.751 Q 167.35 29.198 167.959 28.89 Q 168.568 28.582 169.324 28.582 Q 169.828 28.582 170.087 28.631 Q 170.346 28.68 170.598 28.75 Z M 170.78 36.702 L 170.78 36.702 Q 170.78 36.282 170.43 36.023 Q 170.08 35.764 169.562 35.61 Q 169.044 35.456 168.519 35.365 Q 167.994 35.274 167.63 35.204 Q 167.28 35.428 166.986 35.715 Q 166.692 36.002 166.692 36.548 Q 166.692 37.108 167.126 37.528 Q 167.56 37.948 168.624 37.948 Q 169.632 37.948 170.206 37.577 Q 170.78 37.206 170.78 36.702 Z M 170.43 30.64 L 170.43 30.64 Q 170.43 29.94 170.164 29.471 Q 169.898 29.002 169.282 29.002 Q 168.68 29.002 168.288 29.506 Q 167.896 30.01 167.896 31.032 Q 167.896 31.76 168.148 32.215 Q 168.4 32.67 169.002 32.67 Q 169.702 32.67 170.066 32.082 Q 170.43 31.494 170.43 30.64 Z " fill="black" /><path d="M 174.865 34.436 L 174.865 34.436 L 174.865 37.15 Q 174.865 37.444 174.924 37.601 Q 174.983 37.758 175.149 37.812 Q 175.316 37.866 175.639 37.866 L 175.639 38.228 L 173.17 38.228 L 173.17 37.866 Q 173.483 37.866 173.64 37.812 Q 173.797 37.758 173.846 37.596 Q 173.895 37.435 173.895 37.131 L 173.895 34.161 Q 173.895 33.887 173.792 33.794 Q 173.689 33.701 173.464 33.701 Q 173.356 33.701 173.273 33.711 Q 173.189 33.72 173.189 33.72 L 173.189 33.348 L 174.473 33.113 L 174.836 33.113 L 174.836 33.916 L 174.904 33.916 Q 175.316 33.544 175.728 33.314 Q 176.139 33.083 176.698 33.083 Q 177.158 33.083 177.447 33.319 Q 177.737 33.554 177.893 33.897 L 177.942 33.897 Q 178.834 33.083 179.657 33.083 Q 180.324 33.083 180.711 33.495 Q 181.098 33.907 181.098 34.798 L 181.098 36.954 Q 181.098 37.288 181.137 37.488 Q 181.176 37.689 181.333 37.778 Q 181.49 37.866 181.843 37.866 L 181.843 38.228 L 179.383 38.228 L 179.383 37.866 Q 179.746 37.866 179.907 37.773 Q 180.069 37.68 180.108 37.479 Q 180.147 37.278 180.147 36.954 L 180.147 34.916 Q 180.147 34.299 179.897 34.054 Q 179.648 33.809 179.256 33.809 Q 178.922 33.809 178.589 34.009 Q 178.256 34.21 178.001 34.406 L 178.001 36.954 Q 178.001 37.317 178.045 37.518 Q 178.089 37.719 178.261 37.792 Q 178.432 37.866 178.795 37.866 L 178.795 38.228 L 176.237 38.228 L 176.237 37.866 Q 176.61 37.866 176.781 37.792 Q 176.953 37.719 177.002 37.518 Q 177.051 37.317 177.051 36.954 L 177.051 34.887 Q 177.051 34.269 176.83 34.039 Q 176.61 33.809 176.227 33.809 Q 175.826 33.809 175.458 34.024 Q 175.091 34.24 174.865 34.436 Z " fill="black" /><path d="M 185.074 28.624 L 185.074 28.624 L 185.382 28.624 L 184.724 31.312 Q 184.626 31.676 184.521 32.187 Q 184.416 32.698 184.416 33.174 Q 184.416 33.72 184.64 34.119 Q 184.864 34.518 185.508 34.518 Q 186.222 34.518 186.74 34.175 Q 187.258 33.832 187.587 33.3 Q 187.916 32.768 188.077 32.18 Q 188.238 31.592 188.238 31.102 Q 188.238 30.738 188.112 30.472 Q 187.986 30.206 187.811 29.996 Q 187.636 29.786 187.51 29.59 Q 187.384 29.394 187.384 29.17 Q 187.384 28.89 187.538 28.736 Q 187.692 28.582 187.916 28.582 Q 188.392 28.582 188.686 29.058 Q 188.98 29.534 188.98 30.276 Q 188.98 30.92 188.819 31.627 Q 188.658 32.334 188.336 33.006 Q 188.014 33.678 187.538 34.224 Q 187.062 34.77 186.446 35.092 Q 185.83 35.414 185.074 35.414 Q 184.374 35.414 183.982 35.134 Q 183.59 34.854 183.429 34.392 Q 183.268 33.93 183.268 33.398 Q 183.268 32.894 183.366 32.362 Q 183.464 31.83 183.576 31.396 L 183.856 30.332 Q 183.884 30.22 183.94 29.996 Q 183.996 29.772 183.996 29.562 Q 183.996 29.38 183.926 29.254 Q 183.856 29.128 183.66 29.128 Q 183.492 29.128 183.254 29.149 Q 183.016 29.17 183.016 29.17 L 183.016 28.778 Z " fill="black" /><path d="M 190.411 36.259 L 190.411 36.259 L 190.411 36.219 Q 190.068 36.014 189.828 35.685 Q 189.588 35.357 189.588 34.838 Q 189.588 34.289 189.852 33.897 Q 190.117 33.505 190.568 33.294 Q 191.018 33.083 191.577 33.083 Q 192.096 33.083 192.425 33.196 Q 192.753 33.309 192.753 33.309 L 194.194 33.27 L 194.194 33.848 L 193.165 33.828 L 193.165 33.897 Q 193.292 34.073 193.429 34.313 Q 193.566 34.553 193.566 34.985 Q 193.566 35.475 193.307 35.832 Q 193.047 36.19 192.611 36.381 Q 192.175 36.572 191.626 36.572 Q 191.126 36.572 190.685 36.396 Q 190.617 36.523 190.523 36.758 Q 190.43 36.994 190.43 37.16 Q 190.43 37.366 190.67 37.464 Q 190.911 37.562 191.626 37.562 Q 192.155 37.562 192.606 37.586 Q 193.057 37.611 193.39 37.724 Q 193.723 37.836 193.904 38.086 Q 194.086 38.336 194.086 38.797 Q 194.086 39.326 193.816 39.693 Q 193.547 40.061 193.106 40.286 Q 192.665 40.512 192.15 40.615 Q 191.636 40.718 191.136 40.718 Q 190.421 40.718 190.029 40.541 Q 189.637 40.365 189.485 40.09 Q 189.333 39.816 189.333 39.532 Q 189.333 39.257 189.524 38.988 Q 189.715 38.718 190.136 38.326 L 190.136 38.277 Q 189.891 38.15 189.725 37.934 Q 189.558 37.719 189.558 37.513 Q 189.558 37.219 189.818 36.891 Q 190.078 36.562 190.411 36.259 Z M 190.46 38.375 L 190.46 38.375 Q 190.293 38.66 190.234 38.826 Q 190.176 38.993 190.176 39.159 Q 190.176 39.61 190.543 39.84 Q 190.911 40.071 191.685 40.071 Q 192.322 40.071 192.714 39.914 Q 193.106 39.757 193.292 39.537 Q 193.478 39.316 193.478 39.11 Q 193.478 38.846 193.307 38.699 Q 193.135 38.552 192.871 38.488 Q 192.606 38.424 192.312 38.405 Q 192.018 38.385 191.763 38.385 Q 191.695 38.385 191.655 38.385 Q 191.028 38.385 190.798 38.38 Q 190.568 38.375 190.46 38.375 Z M 191.518 33.515 L 191.518 33.515 Q 191.097 33.515 190.837 33.799 Q 190.577 34.083 190.577 34.779 Q 190.577 35.465 190.852 35.818 Q 191.126 36.17 191.626 36.17 Q 191.891 36.17 192.106 36.063 Q 192.322 35.955 192.454 35.671 Q 192.586 35.386 192.586 34.867 Q 192.586 34.201 192.297 33.858 Q 192.008 33.515 191.518 33.515 Z " fill="black" /><path d="M 195.056 36.445 L 195.056 36.445 L 195.37 36.445 Q 195.497 37.013 195.673 37.327 Q 195.85 37.64 196.129 37.763 Q 196.408 37.885 196.81 37.885 Q 197.271 37.885 197.521 37.733 Q 197.771 37.582 197.771 37.199 Q 197.771 36.945 197.648 36.773 Q 197.526 36.602 197.256 36.445 Q 196.987 36.288 196.536 36.082 Q 196.075 35.857 195.747 35.661 Q 195.419 35.465 195.247 35.2 Q 195.076 34.936 195.076 34.534 Q 195.076 33.828 195.551 33.456 Q 196.026 33.083 196.742 33.083 Q 197.173 33.083 197.472 33.191 Q 197.771 33.299 197.947 33.377 L 197.967 33.377 L 198.123 33.132 L 198.398 33.132 L 198.417 34.759 L 198.074 34.759 Q 197.888 34.005 197.555 33.745 Q 197.222 33.485 196.791 33.485 Q 196.34 33.485 196.109 33.681 Q 195.879 33.877 195.879 34.191 Q 195.879 34.446 196.036 34.612 Q 196.193 34.779 196.482 34.921 Q 196.771 35.063 197.173 35.259 Q 197.624 35.475 197.967 35.705 Q 198.31 35.935 198.506 36.224 Q 198.702 36.513 198.702 36.945 Q 198.702 37.464 198.427 37.778 Q 198.153 38.091 197.722 38.223 Q 197.29 38.356 196.82 38.356 Q 196.34 38.356 196.075 38.258 Q 195.811 38.16 195.585 38.072 L 195.546 38.072 L 195.301 38.326 L 195.076 38.326 Z " fill="black" /></g></g></g><circle cx="0.0" cy="-0.0" r="2.6999999999999997" style="stroke:black;fill:white;stroke-width:2.0;stroke-dasharray:-;" /><g><g><g><path d="M -15.442 -4.781 L -15.442 -4.781 L -15.134 -4.781 L -15.792 -2.093 Q -15.89 -1.729 -15.995 -1.218 Q -16.1 -0.707 -16.1 -0.231 Q -16.1 0.315 -15.876 0.714 Q -15.652 1.113 -15.008 1.113 Q -14.294 1.113 -13.776 0.77 Q -13.258 0.427 -12.929 -0.105 Q -12.6 -0.637 -12.439 -1.225 Q -12.278 -1.813 -12.278 -2.303 Q -12.278 -2.667 -12.404 -2.933 Q -12.53 -3.199 -12.705 -3.409 Q -12.88 -3.619 -13.006 -3.815 Q -13.132 -4.011 -13.132 -4.235 Q -13.132 -4.515 -12.978 -4.669 Q -12.824 -4.823 -12.6 -4.823 Q -12.124 -4.823 -11.83 -4.347 Q -11.536 -3.871 -11.536 -3.129 Q -11.536 -2.485 -11.697 -1.778 Q -11.858 -1.071 -12.18 -0.399 Q -12.502 0.273 -12.978 0.819 Q -13.454 1.365 -14.07 1.687 Q -14.686 2.009 -15.442 2.009 Q -16.142 2.009 -16.534 1.729 Q -16.926 1.449 -17.087 0.987 Q -17.248 0.525 -17.248 -0.007 Q -17.248 -0.511 -17.15 -1.043 Q -17.052 -1.575 -16.94 -2.009 L -16.66 -3.073 Q -16.632 -3.185 -16.576 -3.409 Q -16.52 -3.633 -16.52 -3.843 Q -16.52 -4.025 -16.59 -4.151 Q -16.66 -4.277 -16.856 -4.277 Q -17.024 -4.277 -17.262 -4.256 Q -17.5 -4.235 -17.5 -4.235 L -17.5 -4.627 Z " fill="black" /><path d="M -5.891 4.823 L -5.891 4.823 L -8.184 4.823 L -8.184 4.46 Q -7.9 4.46 -7.792 4.416 Q -7.685 4.372 -7.685 4.264 Q -7.685 4.196 -7.763 4.059 L -8.4 3.137 L -8.655 2.716 L -8.714 2.716 L -9.566 3.882 Q -9.654 4.029 -9.738 4.142 Q -9.821 4.255 -9.821 4.304 Q -9.821 4.46 -9.311 4.46 L -9.311 4.823 L -11.183 4.823 L -11.183 4.46 Q -10.899 4.46 -10.703 4.348 Q -10.507 4.235 -10.262 3.941 L -8.978 2.334 L -10.105 0.785 Q -10.301 0.521 -10.419 0.389 Q -10.536 0.256 -10.669 0.212 Q -10.801 0.168 -11.026 0.168 L -11.026 -0.195 L -8.674 -0.195 L -8.674 0.158 Q -9.184 0.158 -9.184 0.393 Q -9.184 0.491 -9.066 0.687 L -8.674 1.285 L -8.39 1.785 L -8.322 1.785 L -7.841 1.138 Q -7.626 0.844 -7.538 0.678 Q -7.449 0.511 -7.449 0.413 Q -7.449 0.305 -7.538 0.232 Q -7.626 0.158 -7.89 0.158 L -7.89 -0.195 L -6.087 -0.195 L -6.087 0.168 Q -6.362 0.168 -6.558 0.31 Q -6.754 0.452 -6.95 0.678 L -8.077 2.089 L -6.763 3.863 Q -6.538 4.186 -6.357 4.323 Q -6.175 4.46 -5.891 4.46 Z " fill="black" /></g></g></g><path d="M 25.2,-0.0 L 25.2,-0.0" style="stroke:black;fill:none;stroke-width:2.0;stroke-dasharray:-;stroke-linecap:round;stroke-linejoin:round;" /><path d="M 34.0 0.0 L 25.200000000000003 5.3999999999999995 L 25.200000000000003 -5.3999999999999995 Z" style="stroke:black;fill:black;stroke-linecap:butt;stroke-linejoin:miter;" /><g><g><g><path d="M 29.123 -20.404 L 29.123 -20.404 L 28.073 -15.42 Q 28.073 -15.42 28.038 -15.203 Q 28.003 -14.986 28.003 -14.832 Q 28.003 -14.566 28.255 -14.566 Q 28.619 -14.566 28.899 -14.839 Q 29.179 -15.112 29.347 -15.294 L 29.627 -15.084 Q 29.389 -14.748 29.109 -14.405 Q 28.829 -14.062 28.479 -13.838 Q 28.129 -13.614 27.667 -13.614 Q 26.785 -13.614 26.785 -14.356 Q 26.785 -14.538 26.834 -14.825 Q 26.883 -15.112 27.023 -15.728 L 27.737 -19.06 Q 27.737 -19.06 27.758 -19.186 Q 27.779 -19.312 27.779 -19.494 Q 27.779 -19.634 27.695 -19.767 Q 27.611 -19.9 27.331 -19.9 Q 27.149 -19.9 27.002 -19.886 Q 26.855 -19.872 26.855 -19.872 L 26.855 -20.25 L 28.815 -20.404 Z M 29.459 -22.28 L 29.459 -22.28 Q 29.459 -21.93 29.235 -21.727 Q 29.011 -21.524 28.689 -21.524 Q 28.381 -21.524 28.171 -21.72 Q 27.961 -21.916 27.961 -22.28 Q 27.961 -22.644 28.171 -22.847 Q 28.381 -23.05 28.731 -23.05 Q 29.081 -23.05 29.27 -22.84 Q 29.459 -22.63 29.459 -22.28 Z " fill="black" /><path d="M 35.538 -10.8 L 35.538 -10.8 L 33.245 -10.8 L 33.245 -11.163 Q 33.529 -11.163 33.637 -11.207 Q 33.744 -11.251 33.744 -11.359 Q 33.744 -11.427 33.666 -11.564 L 33.029 -12.486 L 32.774 -12.907 L 32.715 -12.907 L 31.863 -11.741 Q 31.775 -11.594 31.691 -11.481 Q 31.608 -11.368 31.608 -11.319 Q 31.608 -11.163 32.118 -11.163 L 32.118 -10.8 L 30.246 -10.8 L 30.246 -11.163 Q 30.53 -11.163 30.726 -11.275 Q 30.922 -11.388 31.167 -11.682 L 32.451 -13.289 L 31.324 -14.838 Q 31.128 -15.102 31.01 -15.234 Q 30.893 -15.367 30.76 -15.411 Q 30.628 -15.455 30.403 -15.455 L 30.403 -15.818 L 32.755 -15.818 L 32.755 -15.465 Q 32.245 -15.465 32.245 -15.23 Q 32.245 -15.132 32.363 -14.936 L 32.755 -14.338 L 33.039 -13.838 L 33.107 -13.838 L 33.588 -14.485 Q 33.803 -14.779 33.891 -14.945 Q 33.98 -15.112 33.98 -15.21 Q 33.98 -15.318 33.891 -15.391 Q 33.803 -15.465 33.539 -15.465 L 33.539 -15.818 L 35.342 -15.818 L 35.342 -15.455 Q 35.067 -15.455 34.871 -15.313 Q 34.675 -15.171 34.479 -14.945 L 33.352 -13.534 L 34.666 -11.76 Q 34.891 -11.437 35.072 -11.3 Q 35.254 -11.163 35.538 -11.163 Z " fill="black" /></g></g></g></svg>