<svg xmlns="http://www.w3.org/2000/svg" xmlns:xlink="http://www.w3.org/1999/xlink" xml:lang="en" height="329.978pt" width="480.62059999999997pt" viewBox="-39.46639999999999 -272.338 480.62059999999997 329.978"><circle cx="2.204364238465236e-15" cy="-36.0" r="18.0" style="stroke:black;fill:none;stroke-width:2.0;stroke-dasharray:-;" /><path d="M 108.0 -72.0 a 4.5 4.5 0 1 1 9.0 0.0" style="stroke:black;fill:none;stroke-width:2.0;stroke-dasharray:-;" /><path d="M 117.0 -72.0 a 4.5 4.5 0 1 1 9.0 0.0" style="stroke:black;fill:none;stroke-width:2.0;stroke-dasharray:-;" /><path d="M 126.0 -72.0 a 4.5 4.5 0 1 1 9.0 0.0" style="stroke:black;fill:none;stroke-width:2.0;stroke-dasharray:-;" /><path d="M 135.0 -72.0 a 4.5 4.5 0 1 1 9.0 0.0" style="stroke:black;fill:none;stroke-width:2.0;stroke-dasharray:-;" /><path d="M 321.0 -24.0 a 4.5 4.5 -270 1 1 0.0 9.0" style="stroke:black;fill:none;stroke-width:2.0;stroke-dasharray:-;" /><path d="M 321.0 -15.0 a 4.5 4.5 -270 1 1 0.0 9.0" style="stroke:black;fill:none;stroke-width:2.0;stroke-dasharray:-;" /><path d="M 321.0 -6.0 a 4.5 4.5 -270 1 1 0.0 9.0" style="stroke:black;fill:none;stroke-width:2.0;stroke-dasharray:-;" /><path d="M 321.0 3.0 a 4.5 4.5 -270 1 1 0.0 9.0" style="stroke:black;fill:none;stroke-width:2.0;stroke-dasharray:-;" /><path d="M 267.0 -198.0 a 4.5 4.5 -90 1 1 0.0 -9.0" style="stroke:black;fill:none;stroke-width:2.0;stroke-dasharray:-;" /><path d="M 267.0 -207.0 a 4.5 4.5 -90 1 1 0.0 -9.0" style="stroke:black;fill:none;stroke-width:2.0;stroke-dasharray:-;" /><path d="M 267.0 -216.0 a 4.5 4.5 -90 1 1 0.0 -9.0" style="stroke:black;fill:none;stroke-width:2.0;stroke-dasharray:-;" /><path d="M 267.0 -225.0 a 4.5 4.5 -90 1 1 0.0 -9.0" style="stroke:black;fill:none;stroke-width:2.0;stroke-dasharray:-;" /><path d="M 0.0,-0.0 L 1.102182119232618e-15,-18.0 L 1.102182119232618e-15,-18.0 M 3.3065463576978533e-15,-54.0 L 3.3065463576978533e-15,-54.0 L 4.408728476930472e-15,-72.0" style="stroke:black;fill:none;stroke-width:2.0;stroke-dasharray:-;stroke-linecap:round;stroke-linejoin:round;" /><path d="M 9.000000000000002,-36.0 L 8.250000000000002,-37.86349712473816 L 7.500000000000003,-39.6 L 6.750000000000003,-41.091168824543146 L 6.0000000000000036,-42.23538290724795 L 5.2500000000000036,-42.95466594928129 L 4.500000000000003,-43.199999999999996 L 3.750000000000003,-42.9546659492813 L 3.0000000000000027,-42.23538290724795 L 2.2500000000000027,-41.09116882454314 L 1.500000000000003,-39.6 L 0.7500000000000027,-37.863497124738146 L 2.204364238465236e-15,-36.0 L -0.7499999999999972,-34.136502875261854 L -1.4999999999999967,-32.400000000000006 L -2.2499999999999982,-30.908831175456857 L -2.9999999999999973,-29.764617092752044 L -3.7499999999999964,-29.04533405071871 L -4.499999999999998,-28.8 L -5.249999999999997,-29.045334050718708 L -5.9999999999999964,-29.76461709275204 L -6.749999999999998,-30.90883117545686 L -7.499999999999997,-32.4 L -8.249999999999996,-34.13650287526185 L -8.999999999999998,-36.0" style="stroke:black;fill:none;stroke-width:2.0;stroke-dasharray:-;stroke-linecap:round;stroke-linejoin:round;" /><path d="M 4.408728476930472e-15,-72.0 L 18.000000000000004,-72.0 L 21.000000000000007,-81.0 L 27.000000000000004,-63.0 L 33.0,-81.0 L 39.00000000000001,-63.0 L 45.00000000000001,-81.0 L 51.0,-63.0 L 54.00000000000001,-72.0 L 72.0,-72.0" style="stroke:black;fill:none;stroke-width:2.0;stroke-dasharray:-;stroke-linecap:round;stroke-linejoin:round;" /><path d="M 72.0,-72.0 L 81.0,-72.0 L 90.0,-72.0" style="stroke:black;fill:none;stroke-width:2.0;stroke-dasharray:-;stroke-linecap:round;stroke-linejoin:round;" /><path d="M 90.0,-72.0 L 108.0,-72.0 M 144.0,-72.0 L 162.0,-72.0" style="stroke:black;fill:none;stroke-width:2.0;stroke-dasharray:-;stroke-linecap:round;stroke-linejoin:round;" /><path d="M 162.0,-72.0 L 194.76,-72.0 M 194.76,-81.0 L 194.76,-63.0 M 201.24,-81.0 L 201.24,-63.0 M 201.24,-72.0 L 234.0,-72.0" style="stroke:black;fill:none;stroke-width:2.0;stroke-dasharray:-;stroke-linecap:round;stroke-linejoin:round;" /><path d="M 234.0,-72.0 L 243.0,-72.0 L 252.0,-72.0" style="stroke:black;fill:none;stroke-width:2.0;stroke-dasharray:-;stroke-linecap:round;stroke-linejoin:round;" /><path d="M 252.0,-72.0 L 270.0,-72.0 L 288.0,-72.0" style="stroke:black;fill:none;stroke-width:2.0;stroke-dasharray:-;stroke-linecap:round;stroke-linejoin:round;" /><path d="M 321.0,-42.0 L 321.0,-57.0 L 306.0,-57.0 L 306.0,-87.0 L 321.0,-87.0 L 321.0,-101.99999999999999" style="stroke:black;fill:none;stroke-width:2.0;stroke-dasharray:-;stroke-linecap:round;stroke-linejoin:round;" /><path d="M 312.0,-57.0 L 306.0,-57.0" style="stroke:black;fill:none;stroke-width:2.0;stroke-dasharray:-;stroke-linecap:round;stroke-linejoin:round;" /><path d="M 319.0 -57.0 L 312.0 -52.5 L 312.0 -61.5 Z" style="stroke:black;fill:black;stroke-linecap:butt;stroke-linejoin:miter;" /><path d="M 303.0,-59.99999999999999 L 303.0,-84.0" style="stroke:black;fill:none;stroke-width:2.0;stroke-dasharray:-;stroke-linecap:round;stroke-linejoin:round;" /><path d="M 288.0,-72.0 L 303.0,-72.0" style="stroke:black;fill:none;stroke-width:2.0;stroke-dasharray:-;stroke-linecap:round;stroke-linejoin:round;" /><path d="M 321.0,-42.0 L 321.0,-24.000000000000004 M 321.0,11.999999999999996 L 321.0,29.999999999999996" style="stroke:black;fill:none;stroke-width:2.0;stroke-dasharray:-;stroke-linecap:round;stroke-linejoin:round;" /><path d="M 321.0,29.999999999999996 L 321.0,44.400000000000006 L 312.0,44.400000000000006 L 330.0,44.400000000000006 M 314.69999999999993,48.72 L 327.3,48.72 M 319.19999999999993,53.03999999999999 L 322.8,53.03999999999999" style="stroke:black;fill:none;stroke-width:2.0;stroke-dasharray:-;stroke-linecap:round;stroke-linejoin:round;" /><path d="M 252.0,-72.0 L 252.0,-54.0 L 261.0,-50.99999999999999 L 243.0,-45.0 L 261.0,-39.00000000000001 L 243.0,-33.0 L 261.0,-27.0 L 243.0,-21.000000000000007 L 252.0,-18.0 L 252.0,-0.0" style="stroke:black;fill:none;stroke-width:2.0;stroke-dasharray:-;stroke-linecap:round;stroke-linejoin:round;" /><path d="M 252.0,-0.0 L 252.0,9.0 L 252.0,18.0" style="stroke:black;fill:none;stroke-width:2.0;stroke-dasharray:-;stroke-linecap:round;stroke-linejoin:round;" /><path d="M 321.0,-101.99999999999999 L 321.0,-116.99999999999999 L 306.0,-116.99999999999999 L 306.0,-147.0 L 321.0,-147.0 L 321.0,-162.0" style="stroke:black;fill:none;stroke-width:2.0;stroke-dasharray:-;stroke-linecap:round;stroke-linejoin:round;" /><path d="M 312.0,-116.99999999999999 L 306.0,-116.99999999999999" style="stroke:black;fill:none;stroke-width:2.0;stroke-dasharray:-;stroke-linecap:round;stroke-linejoin:round;" /><path d="M 319.0 -116.99999999999999 L 312.0 -112.49999999999999 L 312.0 -121.49999999999999 Z" style="stroke:black;fill:black;stroke-linecap:butt;stroke-linejoin:miter;" /><path d="M 303.0,-119.99999999999999 L 303.0,-143.99999999999997" style="stroke:black;fill:none;stroke-width:2.0;stroke-dasharray:-;stroke-linecap:round;stroke-linejoin:round;" /><path d="M 288.0,-131.99999999999997 L 303.0,-131.99999999999997" style="stroke:black;fill:none;stroke-width:2.0;stroke-dasharray:-;stroke-linecap:round;stroke-linejoin:round;" /><path d="M 288.0,-131.99999999999997 L 279.0,-131.99999999999997 L 270.0,-131.99999999999997" style="stroke:black;fill:none;stroke-width:2.0;stroke-dasharray:-;stroke-linecap:round;stroke-linejoin:round;" /><path d="M 321.0,-162.0 L 321.0,-171.0 L 321.0,-180.0" style="stroke:black;fill:none;stroke-width:2.0;stroke-dasharray:-;stroke-linecap:round;stroke-linejoin:round;" /><path d="M 321.0,-180.0 L 321.0,-198.0 L 312.0,-201.0 L 330.0,-207.0 L 312.0,-213.0 L 330.0,-219.0 L 312.0,-225.0 L 330.0,-230.99999999999997 L 321.0,-234.0 L 321.0,-252.0" style="stroke:black;fill:none;stroke-width:2.0;stroke-dasharray:-;stroke-linecap:round;stroke-linejoin:round;" /><path d="M 321.0,-180.0 L 294.0,-180.0 L 267.0,-180.0" style="stroke:black;fill:none;stroke-width:2.0;stroke-dasharray:-;stroke-linecap:round;stroke-linejoin:round;" /><path d="M 267.0,-180.0 L 267.0,-198.0 M 267.0,-234.0 L 267.0,-252.0" style="stroke:black;fill:none;stroke-width:2.0;stroke-dasharray:-;stroke-linecap:round;stroke-linejoin:round;" /><path d="M 321.0,-180.0 L 348.0,-180.0 L 375.0,-180.0" style="stroke:black;fill:none;stroke-width:2.0;stroke-dasharray:-;stroke-linecap:round;stroke-linejoin:round;" /><path d="M 375.0,-180.0 L 393.0,-180.0 L 411.0,-180.0" style="stroke:black;fill:none;stroke-width:2.0;stroke-dasharray:-;stroke-linecap:round;stroke-linejoin:round;" /><path d="M 375.0,-180.0 L 375.0,-212.76 M 366.0,-212.76 L 384.0,-212.76 M 366.0,-219.24 L 384.0,-219.24 M 375.0,-219.24 L 375.0,-252.0" style="stroke:black;fill:none;stroke-width:2.0;stroke-dasharray:-;stroke-linecap:round;stroke-linejoin:round;" /><path d="M 248.99999999999997,-252.0 L 321.0,-252.0 L 393.0,-252.0" style="stroke:black;fill:none;stroke-width:3;stroke-dasharray:-;stroke-linecap:round;stroke-linejoin:round;" /><path d="M 0.0,-0.0 L -2.7554552980815444e-15,14.999999999999998 L -5.510910596163089e-15,29.999999999999996" style="stroke:black;fill:none;stroke-width:2.0;stroke-dasharray:-;stroke-linecap:round;stroke-linejoin:round;" /><path d="M -5.510910596163089e-15,29.999999999999996 L -5.510910596163089e-15,44.400000000000006 L -9.000000000000005,44.400000000000006 L 8.999999999999995,44.400000000000006 M -6.300000000000006,48.72 L 6.299999999999994,48.72 M -1.8000000000000056,53.03999999999999 L 1.7999999999999945,53.03999999999999" style="stroke:black;fill:none;stroke-width:2.0;stroke-dasharray:-;stroke-linecap:round;stroke-linejoin:round;" /><g><g><g><path d="M -35.534 -40.781 L -35.534 -40.781 L -35.226 -40.781 L -35.884 -38.093 Q -35.982 -37.729 -36.087 -37.218 Q -36.192 -36.707 -36.192 -36.231 Q -36.192 -35.685 -35.968 -35.286 Q -35.744 -34.887 -35.1 -34.887 Q -34.386 -34.887 -33.868 -35.23 Q -33.35 -35.573 -33.021 -36.105 Q -32.692 -36.637 -32.531 -37.225 Q -32.37 -37.813 -32.37 -38.303 Q -32.37 -38.667 -32.496 -38.933 Q -32.622 -39.199 -32.797 -39.409 Q -32.972 -39.619 -33.098 -39.815 Q -33.224 -40.011 -33.224 -40.235 Q -33.224 -40.515 -33.07 -40.669 Q -32.916 -40.823 -32.692 -40.823 Q -32.216 -40.823 -31.922 -40.347 Q -31.628 -39.871 -31.628 -39.129 Q -31.628 -38.485 -31.789 -37.778 Q -31.95 -37.071 -32.272 -36.399 Q -32.594 -35.727 -33.07 -35.181 Q -33.546 -34.635 -34.162 -34.313 Q -34.778 -33.991 -35.534 -33.991 Q -36.234 -33.991 -36.626 -34.271 Q -37.018 -34.551 -37.179 -35.013 Q -37.34 -35.475 -37.34 -36.007 Q -37.34 -36.511 -37.242 -37.043 Q -37.144 -37.575 -37.032 -38.009 L -36.752 -39.073 Q -36.724 -39.185 -36.668 -39.409 Q -36.612 -39.633 -36.612 -39.843 Q -36.612 -40.025 -36.682 -40.151 Q -36.752 -40.277 -36.948 -40.277 Q -37.116 -40.277 -37.354 -40.256 Q -37.592 -40.235 -37.592 -40.235 L -37.592 -40.627 Z " fill="black" /><path d="M -27.855 -31.54 L -27.855 -31.54 L -27.855 -31.177 L -30.344 -31.177 L -30.344 -31.54 Q -30.001 -31.54 -29.849 -31.613 Q -29.698 -31.687 -29.658 -31.848 Q -29.619 -32.01 -29.619 -32.275 L -29.619 -35.234 Q -29.619 -35.567 -29.727 -35.636 Q -29.835 -35.705 -30.09 -35.705 Q -30.217 -35.705 -30.295 -35.695 Q -30.374 -35.685 -30.374 -35.685 L -30.374 -36.077 L -29.061 -36.293 L -28.659 -36.293 L -28.659 -32.275 Q -28.659 -31.99 -28.615 -31.829 Q -28.571 -31.667 -28.399 -31.603 Q -28.228 -31.54 -27.855 -31.54 Z M -29.149 -38.458 L -29.149 -38.458 Q -28.865 -38.458 -28.673 -38.262 Q -28.482 -38.066 -28.482 -37.812 Q -28.482 -37.576 -28.673 -37.38 Q -28.865 -37.184 -29.149 -37.184 Q -29.423 -37.184 -29.604 -37.38 Q -29.786 -37.576 -29.786 -37.812 Q -29.786 -38.066 -29.604 -38.262 Q -29.423 -38.458 -29.149 -38.458 Z " fill="black" /><path d="M -22.034 -34.46 L -22.034 -34.46 L -22.034 -32.265 Q -22.034 -31.99 -21.985 -31.829 Q -21.936 -31.667 -21.769 -31.598 Q -21.603 -31.53 -21.25 -31.53 L -21.25 -31.177 L -23.769 -31.177 L -23.769 -31.53 Q -23.396 -31.53 -23.23 -31.598 Q -23.063 -31.667 -23.024 -31.829 Q -22.985 -31.99 -22.985 -32.265 L -22.985 -34.137 Q -22.985 -34.793 -23.136 -35.102 Q -23.288 -35.411 -23.519 -35.509 Q -23.749 -35.607 -23.984 -35.607 Q -24.406 -35.607 -24.724 -35.391 Q -25.043 -35.175 -25.278 -34.979 L -25.278 -32.265 Q -25.278 -31.99 -25.234 -31.829 Q -25.19 -31.667 -25.023 -31.598 Q -24.856 -31.53 -24.494 -31.53 L -24.494 -31.177 L -26.963 -31.177 L -26.963 -31.53 Q -26.62 -31.53 -26.468 -31.598 Q -26.317 -31.667 -26.277 -31.829 Q -26.238 -31.99 -26.238 -32.265 L -26.238 -35.244 Q -26.238 -35.518 -26.341 -35.611 Q -26.444 -35.705 -26.669 -35.705 Q -26.787 -35.705 -26.865 -35.695 Q -26.944 -35.685 -26.944 -35.685 L -26.944 -36.057 L -25.631 -36.293 L -25.307 -36.293 L -25.307 -35.489 L -25.239 -35.489 Q -24.817 -35.871 -24.43 -36.097 Q -24.043 -36.322 -23.553 -36.322 Q -22.975 -36.322 -22.646 -36.062 Q -22.318 -35.803 -22.176 -35.381 Q -22.034 -34.96 -22.034 -34.46 Z " fill="black" /></g></g></g><g><g><g><path d="M 37.229 -94.933 L 37.229 -94.933 Q 37.229 -94.191 36.949 -93.687 Q 36.669 -93.183 36.221 -92.861 Q 35.773 -92.539 35.262 -92.364 Q 34.751 -92.189 34.289 -92.105 L 34.289 -92.035 Q 34.541 -91.867 34.765 -91.524 Q 34.989 -91.181 35.318 -90.537 Q 35.647 -89.893 36.221 -88.801 Q 36.459 -88.381 36.746 -88.234 Q 37.033 -88.087 37.509 -88.087 L 37.425 -87.667 L 35.297 -87.667 Q 34.905 -88.535 34.639 -89.116 Q 34.373 -89.697 34.177 -90.089 Q 33.981 -90.481 33.834 -90.789 Q 33.687 -91.097 33.519 -91.419 Q 33.365 -91.713 33.183 -91.804 Q 33.001 -91.895 32.623 -91.895 L 32.329 -91.895 L 31.811 -89.403 Q 31.699 -88.829 31.734 -88.542 Q 31.769 -88.255 32.049 -88.171 Q 32.329 -88.087 32.931 -88.087 L 32.861 -87.667 L 28.997 -87.667 L 29.081 -88.087 Q 29.599 -88.087 29.879 -88.171 Q 30.159 -88.255 30.306 -88.535 Q 30.453 -88.815 30.565 -89.403 L 31.797 -95.409 Q 31.881 -95.801 31.839 -96.025 Q 31.797 -96.249 31.552 -96.347 Q 31.307 -96.445 30.747 -96.445 L 30.831 -96.865 L 34.121 -96.865 Q 35.591 -96.865 36.41 -96.41 Q 37.229 -95.955 37.229 -94.933 Z M 33.211 -96.277 L 33.211 -96.277 L 32.427 -92.413 L 32.861 -92.399 Q 33.701 -92.427 34.38 -92.672 Q 35.059 -92.917 35.451 -93.449 Q 35.843 -93.981 35.843 -94.877 Q 35.843 -95.255 35.682 -95.584 Q 35.521 -95.913 35.129 -96.116 Q 34.737 -96.319 34.037 -96.319 Q 33.771 -96.319 33.61 -96.312 Q 33.449 -96.305 33.211 -96.277 Z " fill="black" /><path d="M 38.741 -86.511 L 38.741 -86.511 L 39.055 -86.511 Q 39.182 -85.943 39.359 -85.629 Q 39.535 -85.315 39.814 -85.193 Q 40.094 -85.07 40.495 -85.07 Q 40.956 -85.07 41.206 -85.222 Q 41.456 -85.374 41.456 -85.756 Q 41.456 -86.011 41.333 -86.183 Q 41.211 -86.354 40.941 -86.511 Q 40.672 -86.668 40.221 -86.874 Q 39.76 -87.099 39.432 -87.295 Q 39.104 -87.491 38.932 -87.756 Q 38.761 -88.02 38.761 -88.422 Q 38.761 -89.128 39.236 -89.5 Q 39.711 -89.872 40.427 -89.872 Q 40.858 -89.872 41.157 -89.765 Q 41.456 -89.657 41.632 -89.578 L 41.652 -89.578 L 41.809 -89.823 L 42.083 -89.823 L 42.103 -88.197 L 41.76 -88.197 Q 41.573 -88.951 41.24 -89.211 Q 40.907 -89.471 40.476 -89.471 Q 40.025 -89.471 39.795 -89.275 Q 39.564 -89.079 39.564 -88.765 Q 39.564 -88.51 39.721 -88.344 Q 39.878 -88.177 40.167 -88.035 Q 40.456 -87.893 40.858 -87.697 Q 41.309 -87.481 41.652 -87.251 Q 41.995 -87.021 42.191 -86.732 Q 42.387 -86.442 42.387 -86.011 Q 42.387 -85.492 42.112 -85.178 Q 41.838 -84.865 41.407 -84.732 Q 40.976 -84.6 40.505 -84.6 Q 40.025 -84.6 39.76 -84.698 Q 39.496 -84.796 39.27 -84.884 L 39.231 -84.884 L 38.986 -84.629 L 38.761 -84.629 Z " fill="black" /></g></g></g><g><g><g><path d="M 114.244 -85.888 L 114.244 -85.888 L 113.404 -83.158 L 106.488 -83.158 L 106.572 -83.578 Q 107.118 -83.578 107.405 -83.676 Q 107.692 -83.774 107.846 -84.054 Q 108 -84.334 108.112 -84.894 L 109.316 -90.732 Q 109.414 -91.194 109.386 -91.46 Q 109.358 -91.726 109.099 -91.831 Q 108.84 -91.936 108.238 -91.936 L 108.322 -92.356 L 112.298 -92.356 L 112.228 -91.936 Q 111.472 -91.936 111.094 -91.705 Q 110.716 -91.474 110.562 -90.718 L 109.288 -84.446 Q 109.19 -83.984 109.386 -83.837 Q 109.582 -83.69 110.198 -83.69 L 110.856 -83.69 Q 111.528 -83.69 111.948 -83.809 Q 112.368 -83.928 112.662 -84.18 Q 112.956 -84.432 113.215 -84.859 Q 113.474 -85.286 113.796 -85.888 Z " fill="black" /><path d="M 116.831 -84.01 L 116.831 -84.01 L 116.831 -81.296 Q 116.831 -81.002 116.89 -80.845 Q 116.949 -80.688 117.116 -80.634 Q 117.282 -80.58 117.606 -80.58 L 117.606 -80.218 L 115.136 -80.218 L 115.136 -80.58 Q 115.45 -80.58 115.606 -80.634 Q 115.763 -80.688 115.812 -80.85 Q 115.861 -81.011 115.861 -81.315 L 115.861 -84.285 Q 115.861 -84.559 115.758 -84.652 Q 115.655 -84.745 115.43 -84.745 Q 115.322 -84.745 115.239 -84.735 Q 115.156 -84.726 115.156 -84.726 L 115.156 -85.098 L 116.439 -85.333 L 116.802 -85.333 L 116.802 -84.53 L 116.871 -84.53 Q 117.282 -84.902 117.694 -85.132 Q 118.105 -85.363 118.664 -85.363 Q 119.125 -85.363 119.414 -85.127 Q 119.703 -84.892 119.86 -84.549 L 119.909 -84.549 Q 120.8 -85.363 121.624 -85.363 Q 122.29 -85.363 122.677 -84.951 Q 123.064 -84.539 123.064 -83.648 L 123.064 -81.492 Q 123.064 -81.158 123.103 -80.957 Q 123.143 -80.757 123.299 -80.668 Q 123.456 -80.58 123.809 -80.58 L 123.809 -80.218 L 121.349 -80.218 L 121.349 -80.58 Q 121.712 -80.58 121.874 -80.673 Q 122.035 -80.766 122.074 -80.967 Q 122.114 -81.168 122.114 -81.492 L 122.114 -83.53 Q 122.114 -84.147 121.864 -84.392 Q 121.614 -84.637 121.222 -84.637 Q 120.889 -84.637 120.555 -84.436 Q 120.222 -84.236 119.967 -84.04 L 119.967 -81.492 Q 119.967 -81.129 120.011 -80.928 Q 120.056 -80.727 120.227 -80.654 Q 120.399 -80.58 120.761 -80.58 L 120.761 -80.218 L 118.203 -80.218 L 118.203 -80.58 Q 118.576 -80.58 118.747 -80.654 Q 118.919 -80.727 118.968 -80.928 Q 119.017 -81.129 119.017 -81.492 L 119.017 -83.559 Q 119.017 -84.177 118.796 -84.407 Q 118.576 -84.637 118.194 -84.637 Q 117.792 -84.637 117.424 -84.422 Q 117.057 -84.206 116.831 -84.01 Z " fill="black" /><path d="M 127.768 -80.835 L 127.768 -80.835 L 127.7 -80.835 Q 127.366 -80.561 126.965 -80.355 Q 126.563 -80.149 126.092 -80.149 Q 125.475 -80.149 125.147 -80.521 Q 124.818 -80.894 124.818 -81.423 Q 124.818 -81.874 125.029 -82.178 Q 125.24 -82.481 125.578 -82.672 Q 125.916 -82.864 126.308 -82.981 Q 126.7 -83.099 127.063 -83.167 Q 127.425 -83.236 127.67 -83.295 L 127.67 -83.804 Q 127.67 -84.461 127.41 -84.711 Q 127.151 -84.961 126.651 -84.961 Q 126.347 -84.961 126.215 -84.882 Q 126.083 -84.804 126.048 -84.628 Q 126.014 -84.451 126.004 -84.167 Q 125.994 -83.951 125.877 -83.819 Q 125.759 -83.687 125.534 -83.687 Q 125.318 -83.687 125.166 -83.819 Q 125.014 -83.951 125.014 -84.206 Q 125.014 -84.51 125.25 -84.775 Q 125.485 -85.039 125.921 -85.201 Q 126.357 -85.363 126.945 -85.363 Q 127.827 -85.363 128.224 -84.956 Q 128.621 -84.549 128.621 -83.736 L 128.621 -81.335 Q 128.621 -81.011 128.694 -80.918 Q 128.768 -80.825 128.925 -80.825 Q 129.091 -80.825 129.214 -80.894 Q 129.336 -80.962 129.444 -81.09 L 129.66 -80.884 Q 129.15 -80.159 128.464 -80.159 Q 128.082 -80.159 127.94 -80.34 Q 127.798 -80.521 127.768 -80.835 Z M 127.67 -81.198 L 127.67 -81.198 L 127.67 -82.922 Q 127.219 -82.805 126.788 -82.663 Q 126.357 -82.521 126.078 -82.276 Q 125.798 -82.031 125.798 -81.59 Q 125.798 -81.207 126.019 -80.987 Q 126.239 -80.766 126.582 -80.766 Q 126.788 -80.766 127.077 -80.859 Q 127.366 -80.953 127.67 -81.198 Z " fill="black" /><path d="M 133.109 -81.198 L 133.109 -81.198 L 133.335 -81.011 Q 133.119 -80.717 132.943 -80.516 Q 132.766 -80.316 132.541 -80.208 Q 132.315 -80.1 131.963 -80.1 Q 131.394 -80.1 131.135 -80.423 Q 130.875 -80.747 130.875 -81.462 L 130.875 -84.755 L 130.257 -84.755 L 130.257 -85.049 Q 130.61 -85.304 130.904 -85.671 Q 131.198 -86.039 131.492 -86.725 L 131.835 -86.725 L 131.825 -85.235 L 133.07 -85.235 L 133.07 -84.755 L 131.825 -84.755 L 131.825 -81.786 Q 131.825 -81.237 131.928 -81.006 Q 132.031 -80.776 132.345 -80.776 Q 132.629 -80.776 132.776 -80.879 Q 132.923 -80.982 133.109 -81.198 Z " fill="black" /><path d="M 138.205 -81.717 L 138.205 -81.717 L 138.44 -81.541 Q 138.215 -81.119 137.936 -80.796 Q 137.656 -80.472 137.274 -80.296 Q 136.892 -80.12 136.333 -80.12 Q 135.647 -80.12 135.162 -80.438 Q 134.677 -80.757 134.422 -81.315 Q 134.168 -81.874 134.168 -82.609 Q 134.168 -83.883 134.814 -84.623 Q 135.461 -85.363 136.608 -85.363 Q 137.402 -85.363 137.833 -85.029 Q 138.264 -84.696 138.264 -84.226 Q 138.264 -83.736 137.784 -83.736 Q 137.539 -83.736 137.411 -83.858 Q 137.284 -83.981 137.215 -84.157 Q 137.147 -84.334 137.068 -84.51 Q 136.99 -84.686 136.848 -84.809 Q 136.706 -84.931 136.431 -84.931 Q 135.775 -84.931 135.412 -84.466 Q 135.05 -84 135.05 -83.118 Q 135.05 -82.138 135.451 -81.55 Q 135.853 -80.962 136.706 -80.962 Q 137.215 -80.962 137.534 -81.144 Q 137.852 -81.325 138.205 -81.717 Z " fill="black" /><path d="M 140.9 -84.03 L 140.9 -84.03 L 140.9 -81.276 Q 140.9 -81.031 140.944 -80.874 Q 140.988 -80.717 141.155 -80.649 Q 141.322 -80.58 141.674 -80.58 L 141.674 -80.218 L 139.215 -80.218 L 139.215 -80.58 Q 139.616 -80.58 139.778 -80.698 Q 139.94 -80.815 139.94 -81.256 L 139.94 -86.529 Q 139.94 -86.803 139.798 -86.872 Q 139.656 -86.94 139.44 -86.94 Q 139.313 -86.94 139.224 -86.921 Q 139.136 -86.901 139.136 -86.901 L 139.136 -87.283 L 140.498 -87.538 L 140.9 -87.538 L 140.9 -84.559 L 140.959 -84.559 Q 141.449 -85.02 141.831 -85.191 Q 142.213 -85.363 142.605 -85.363 Q 143.086 -85.363 143.389 -85.186 Q 143.693 -85.01 143.86 -84.721 Q 144.026 -84.432 144.09 -84.098 Q 144.154 -83.765 144.154 -83.442 L 144.154 -81.296 Q 144.154 -80.904 144.306 -80.742 Q 144.458 -80.58 144.928 -80.58 L 144.928 -80.218 L 142.429 -80.218 L 142.429 -80.58 Q 142.792 -80.58 142.953 -80.654 Q 143.115 -80.727 143.159 -80.879 Q 143.203 -81.031 143.203 -81.276 L 143.203 -83.011 Q 143.203 -83.452 143.144 -83.824 Q 143.086 -84.196 142.87 -84.422 Q 142.654 -84.647 142.194 -84.647 Q 141.89 -84.647 141.596 -84.51 Q 141.302 -84.373 140.9 -84.03 Z " fill="black" /></g></g></g><g><g><g><path d="M 177.539 -84.6 L 177.539 -84.6 Q 176.741 -84.6 176.146 -85.02 Q 175.551 -85.44 175.215 -86.203 Q 174.879 -86.966 174.879 -87.988 Q 174.879 -89.15 175.278 -89.941 Q 175.677 -90.732 176.335 -91.145 Q 176.993 -91.558 177.749 -91.558 Q 178.295 -91.558 178.715 -91.362 Q 179.135 -91.166 179.569 -90.802 L 179.527 -91.936 L 179.527 -94.652 L 180.647 -94.652 L 180.647 -84.768 L 179.723 -84.768 L 179.625 -85.552 L 179.583 -85.552 Q 179.191 -85.16 178.694 -84.88 Q 178.197 -84.6 177.539 -84.6 Z M 177.819 -85.552 L 177.819 -85.552 Q 178.295 -85.552 178.701 -85.783 Q 179.107 -86.014 179.527 -86.448 L 179.527 -89.934 Q 179.107 -90.312 178.722 -90.466 Q 178.337 -90.62 177.973 -90.62 Q 177.147 -90.62 176.587 -89.934 Q 176.027 -89.248 176.027 -88.002 Q 176.027 -86.896 176.496 -86.224 Q 176.965 -85.552 177.819 -85.552 Z " fill="black" /><path d="M 185.421 -84.6 L 185.421 -84.6 Q 184.567 -84.6 183.874 -85.02 Q 183.181 -85.44 182.775 -86.217 Q 182.369 -86.994 182.369 -88.058 Q 182.369 -89.178 182.81 -89.962 Q 183.251 -90.746 183.972 -91.152 Q 184.693 -91.558 185.533 -91.558 Q 186.233 -91.558 186.688 -91.32 Q 187.143 -91.082 187.479 -90.788 L 186.905 -90.046 Q 186.611 -90.312 186.296 -90.466 Q 185.981 -90.62 185.575 -90.62 Q 184.987 -90.62 184.525 -90.298 Q 184.063 -89.976 183.797 -89.409 Q 183.531 -88.842 183.531 -88.072 Q 183.531 -86.938 184.098 -86.238 Q 184.665 -85.538 185.547 -85.538 Q 186.037 -85.538 186.422 -85.734 Q 186.807 -85.93 187.115 -86.196 L 187.605 -85.44 Q 187.157 -85.048 186.611 -84.824 Q 186.065 -84.6 185.421 -84.6 Z " fill="black" /><path d="M 195.291 -84.6 L 195.291 -84.6 Q 194.311 -84.6 193.359 -85.454 L 193.331 -85.454 L 193.219 -84.768 L 192.323 -84.768 L 192.323 -94.652 L 193.443 -94.652 L 193.443 -91.838 L 193.415 -90.634 Q 193.863 -91.04 194.381 -91.299 Q 194.899 -91.558 195.543 -91.558 Q 196.341 -91.558 196.908 -91.145 Q 197.475 -90.732 197.783 -89.99 Q 198.091 -89.248 198.091 -88.254 Q 198.091 -87.092 197.692 -86.273 Q 197.293 -85.454 196.656 -85.027 Q 196.019 -84.6 195.291 -84.6 Z M 195.067 -85.552 L 195.067 -85.552 Q 195.865 -85.552 196.397 -86.245 Q 196.929 -86.938 196.929 -88.24 Q 196.929 -89.29 196.53 -89.955 Q 196.131 -90.62 195.263 -90.62 Q 194.787 -90.62 194.346 -90.389 Q 193.905 -90.158 193.443 -89.71 L 193.443 -86.238 Q 193.891 -85.86 194.304 -85.706 Q 194.717 -85.552 195.067 -85.552 Z " fill="black" /><path d="M 201.031 -84.6 L 201.031 -84.6 Q 200.387 -84.6 200.107 -84.985 Q 199.827 -85.37 199.827 -86.098 L 199.827 -94.652 L 200.947 -94.652 L 200.947 -86.028 Q 200.947 -85.762 201.045 -85.65 Q 201.143 -85.538 201.269 -85.538 Q 201.311 -85.538 201.36 -85.545 Q 201.409 -85.552 201.507 -85.566 L 201.647 -84.712 Q 201.535 -84.67 201.388 -84.635 Q 201.241 -84.6 201.031 -84.6 Z " fill="black" /><path d="M 205.847 -84.6 L 205.847 -84.6 Q 205.049 -84.6 204.349 -85.013 Q 203.649 -85.426 203.222 -86.203 Q 202.795 -86.98 202.795 -88.086 Q 202.795 -89.192 203.222 -89.962 Q 203.649 -90.732 204.349 -91.145 Q 205.049 -91.558 205.847 -91.558 Q 206.659 -91.558 207.359 -91.145 Q 208.059 -90.732 208.486 -89.962 Q 208.913 -89.192 208.913 -88.086 Q 208.913 -86.98 208.486 -86.203 Q 208.059 -85.426 207.359 -85.013 Q 206.659 -84.6 205.847 -84.6 Z M 205.847 -85.538 L 205.847 -85.538 Q 206.701 -85.538 207.226 -86.238 Q 207.751 -86.938 207.751 -88.086 Q 207.751 -89.22 207.226 -89.92 Q 206.701 -90.62 205.847 -90.62 Q 205.007 -90.62 204.482 -89.92 Q 203.957 -89.22 203.957 -88.086 Q 203.957 -86.938 204.482 -86.238 Q 205.007 -85.538 205.847 -85.538 Z " fill="black" /><path d="M 213.197 -84.6 L 213.197 -84.6 Q 212.343 -84.6 211.65 -85.02 Q 210.957 -85.44 210.551 -86.217 Q 210.145 -86.994 210.145 -88.058 Q 210.145 -89.178 210.586 -89.962 Q 211.027 -90.746 211.748 -91.152 Q 212.469 -91.558 213.309 -91.558 Q 214.009 -91.558 214.464 -91.32 Q 214.919 -91.082 215.255 -90.788 L 214.681 -90.046 Q 214.387 -90.312 214.072 -90.466 Q 213.757 -90.62 213.351 -90.62 Q 212.763 -90.62 212.301 -90.298 Q 211.839 -89.976 211.573 -89.409 Q 211.307 -88.842 211.307 -88.072 Q 211.307 -86.938 211.874 -86.238 Q 212.441 -85.538 213.323 -85.538 Q 213.813 -85.538 214.198 -85.734 Q 214.583 -85.93 214.891 -86.196 L 215.381 -85.44 Q 214.933 -85.048 214.387 -84.824 Q 213.841 -84.6 213.197 -84.6 Z " fill="black" /><path d="M 216.809 -84.768 L 216.809 -84.768 L 216.809 -94.652 L 217.915 -94.652 L 217.915 -87.904 L 217.957 -87.904 L 220.757 -91.404 L 222.003 -91.404 L 219.791 -88.73 L 222.283 -84.768 L 221.065 -84.768 L 219.147 -87.946 L 217.915 -86.518 L 217.915 -84.768 Z " fill="black" /></g></g></g><circle cx="252.0" cy="-72.0" r="2.6999999999999997" style="stroke:black;fill:black;stroke-width:2.0;stroke-dasharray:-;" /><g><g><g><path d="M 335.926 -68.871 L 335.926 -68.871 L 332.188 -68.871 L 332.272 -69.291 Q 332.79 -69.291 333.063 -69.389 Q 333.336 -69.487 333.476 -69.76 Q 333.616 -70.033 333.714 -70.537 L 334.96 -76.585 L 334.904 -76.585 L 330.2 -68.871 L 329.892 -68.871 L 328.198 -76.571 L 328.142 -76.571 L 326.98 -70.915 Q 326.84 -70.201 326.861 -69.851 Q 326.882 -69.501 327.134 -69.396 Q 327.386 -69.291 327.918 -69.291 L 327.834 -68.871 L 324.6 -68.871 L 324.684 -69.291 Q 325.23 -69.291 325.524 -69.396 Q 325.818 -69.501 325.986 -69.851 Q 326.154 -70.201 326.294 -70.915 L 327.4 -76.361 Q 327.512 -76.893 327.47 -77.166 Q 327.428 -77.439 327.169 -77.544 Q 326.91 -77.649 326.35 -77.649 L 326.434 -78.069 L 329.234 -78.069 L 330.746 -70.985 L 330.802 -70.985 L 335.072 -78.069 L 337.718 -78.069 L 337.634 -77.649 Q 337.144 -77.649 336.857 -77.544 Q 336.57 -77.439 336.416 -77.166 Q 336.262 -76.893 336.15 -76.375 L 334.96 -70.537 Q 334.806 -69.767 335.037 -69.529 Q 335.268 -69.291 336.01 -69.291 Z " fill="black" /><path d="M 341.952 -65.931 L 341.952 -65.931 L 338.629 -65.931 L 338.629 -66.284 Q 339.335 -66.284 339.565 -66.426 Q 339.796 -66.568 339.796 -66.94 L 339.796 -71.213 Q 339.796 -71.478 339.717 -71.595 Q 339.639 -71.713 339.433 -71.713 Q 339.276 -71.713 339.007 -71.669 Q 338.737 -71.625 338.541 -71.576 L 338.541 -71.968 L 340.354 -72.468 L 340.776 -72.468 L 340.776 -66.94 Q 340.776 -66.568 341.025 -66.426 Q 341.275 -66.284 341.952 -66.284 Z " fill="black" /></g></g></g><g><g><g><path d="M 299.647 -6.846 L 299.647 -6.846 L 298.807 -4.116 L 291.891 -4.116 L 291.975 -4.536 Q 292.521 -4.536 292.808 -4.634 Q 293.095 -4.732 293.249 -5.012 Q 293.403 -5.292 293.515 -5.852 L 294.719 -11.69 Q 294.817 -12.152 294.789 -12.418 Q 294.761 -12.684 294.502 -12.789 Q 294.243 -12.894 293.641 -12.894 L 293.725 -13.314 L 297.701 -13.314 L 297.631 -12.894 Q 296.875 -12.894 296.497 -12.663 Q 296.119 -12.432 295.965 -11.676 L 294.691 -5.404 Q 294.593 -4.942 294.789 -4.795 Q 294.985 -4.648 295.601 -4.648 L 296.259 -4.648 Q 296.931 -4.648 297.351 -4.767 Q 297.771 -4.886 298.065 -5.138 Q 298.359 -5.39 298.618 -5.817 Q 298.877 -6.244 299.199 -6.846 Z " fill="black" /><path d="M 305.83 -1.303 L 305.83 -1.303 L 304.507 -1.127 L 304.155 -1.127 L 304.155 -1.813 L 304.086 -1.813 Q 303.763 -1.538 303.356 -1.313 Q 302.949 -1.087 302.44 -1.087 Q 301.861 -1.087 301.455 -1.401 Q 301.048 -1.715 300.832 -2.263 Q 300.617 -2.812 300.617 -3.508 Q 300.617 -4.38 300.955 -5.012 Q 301.293 -5.644 301.857 -5.983 Q 302.42 -6.321 303.086 -6.321 Q 303.665 -6.321 304.135 -6.056 L 304.135 -7.32 Q 304.135 -7.673 304.062 -7.786 Q 303.988 -7.898 303.674 -7.898 Q 303.606 -7.898 303.493 -7.884 Q 303.38 -7.869 303.38 -7.869 L 303.38 -8.241 L 304.684 -8.496 L 305.086 -8.496 L 305.086 -2.283 Q 305.086 -1.901 305.193 -1.788 Q 305.301 -1.675 305.566 -1.675 L 305.83 -1.675 Z M 304.135 -2.263 L 304.135 -2.263 L 304.135 -5.125 Q 304.027 -5.399 303.777 -5.615 Q 303.527 -5.831 303.067 -5.831 Q 302.41 -5.831 301.989 -5.385 Q 301.567 -4.939 301.567 -3.91 Q 301.567 -2.861 301.935 -2.376 Q 302.302 -1.891 302.969 -1.891 Q 303.282 -1.891 303.542 -1.979 Q 303.802 -2.067 304.135 -2.263 Z " fill="black" /><path d="M 310.975 -2.636 L 310.975 -2.636 L 311.211 -2.45 Q 311.005 -2.077 310.75 -1.764 Q 310.495 -1.45 310.123 -1.264 Q 309.75 -1.078 309.182 -1.078 Q 308.565 -1.078 308.031 -1.357 Q 307.496 -1.636 307.173 -2.214 Q 306.85 -2.793 306.85 -3.675 Q 306.85 -4.547 307.153 -5.135 Q 307.457 -5.723 307.977 -6.022 Q 308.496 -6.321 309.133 -6.321 Q 310.015 -6.321 310.598 -5.708 Q 311.181 -5.096 311.201 -3.88 L 307.751 -3.88 Q 307.751 -3.214 308.001 -2.778 Q 308.251 -2.342 308.643 -2.131 Q 309.035 -1.92 309.466 -1.92 Q 309.907 -1.92 310.172 -2.014 Q 310.436 -2.107 310.618 -2.273 Q 310.799 -2.44 310.975 -2.636 Z M 307.751 -4.331 L 307.751 -4.331 L 310.152 -4.331 Q 310.152 -4.723 310.025 -5.071 Q 309.897 -5.419 309.652 -5.64 Q 309.407 -5.86 309.025 -5.86 Q 308.467 -5.86 308.138 -5.468 Q 307.81 -5.076 307.751 -4.331 Z " fill="black" /><path d="M 313.161 -3.145 L 313.161 -3.145 L 313.161 -3.185 Q 312.818 -3.39 312.578 -3.719 Q 312.338 -4.047 312.338 -4.566 Q 312.338 -5.115 312.602 -5.507 Q 312.867 -5.899 313.318 -6.11 Q 313.768 -6.321 314.327 -6.321 Q 314.846 -6.321 315.175 -6.208 Q 315.503 -6.095 315.503 -6.095 L 316.944 -6.134 L 316.944 -5.556 L 315.915 -5.576 L 315.915 -5.507 Q 316.042 -5.331 316.179 -5.091 Q 316.316 -4.851 316.316 -4.419 Q 316.316 -3.929 316.057 -3.572 Q 315.797 -3.214 315.361 -3.023 Q 314.925 -2.832 314.376 -2.832 Q 313.876 -2.832 313.435 -3.008 Q 313.367 -2.881 313.274 -2.646 Q 313.18 -2.41 313.18 -2.244 Q 313.18 -2.038 313.421 -1.94 Q 313.661 -1.842 314.376 -1.842 Q 314.905 -1.842 315.356 -1.818 Q 315.807 -1.793 316.14 -1.68 Q 316.473 -1.568 316.655 -1.318 Q 316.836 -1.068 316.836 -0.607 Q 316.836 -0.078 316.566 0.289 Q 316.297 0.657 315.856 0.882 Q 315.415 1.108 314.9 1.211 Q 314.386 1.314 313.886 1.314 Q 313.171 1.314 312.779 1.137 Q 312.387 0.961 312.235 0.686 Q 312.083 0.412 312.083 0.128 Q 312.083 -0.147 312.274 -0.416 Q 312.465 -0.686 312.886 -1.078 L 312.886 -1.127 Q 312.641 -1.254 312.475 -1.47 Q 312.308 -1.685 312.308 -1.891 Q 312.308 -2.185 312.568 -2.513 Q 312.828 -2.842 313.161 -3.145 Z M 313.21 -1.029 L 313.21 -1.029 Q 313.043 -0.744 312.984 -0.578 Q 312.926 -0.411 312.926 -0.245 Q 312.926 0.206 313.293 0.436 Q 313.661 0.667 314.435 0.667 Q 315.072 0.667 315.464 0.51 Q 315.856 0.353 316.042 0.133 Q 316.228 -0.088 316.228 -0.294 Q 316.228 -0.558 316.057 -0.705 Q 315.885 -0.852 315.621 -0.916 Q 315.356 -0.98 315.062 -0.999 Q 314.768 -1.019 314.513 -1.019 Q 314.445 -1.019 314.405 -1.019 Q 313.778 -1.019 313.548 -1.024 Q 313.318 -1.029 313.21 -1.029 Z M 314.268 -5.889 L 314.268 -5.889 Q 313.847 -5.889 313.587 -5.605 Q 313.327 -5.321 313.327 -4.625 Q 313.327 -3.939 313.602 -3.586 Q 313.876 -3.234 314.376 -3.234 Q 314.641 -3.234 314.856 -3.341 Q 315.072 -3.449 315.204 -3.733 Q 315.336 -4.018 315.336 -4.537 Q 315.336 -5.203 315.047 -5.546 Q 314.758 -5.889 314.268 -5.889 Z " fill="black" /></g></g></g><g><g><g><path d="M 218.603 -40.201 L 218.603 -40.201 Q 218.603 -39.459 218.323 -38.955 Q 218.043 -38.451 217.595 -38.129 Q 217.147 -37.807 216.636 -37.632 Q 216.125 -37.457 215.663 -37.373 L 215.663 -37.303 Q 215.915 -37.135 216.139 -36.792 Q 216.363 -36.449 216.692 -35.805 Q 217.021 -35.161 217.595 -34.069 Q 217.833 -33.649 218.12 -33.502 Q 218.407 -33.355 218.883 -33.355 L 218.799 -32.935 L 216.671 -32.935 Q 216.279 -33.803 216.013 -34.384 Q 215.747 -34.965 215.551 -35.357 Q 215.355 -35.749 215.208 -36.057 Q 215.061 -36.365 214.893 -36.687 Q 214.739 -36.981 214.557 -37.072 Q 214.375 -37.163 213.997 -37.163 L 213.703 -37.163 L 213.185 -34.671 Q 213.073 -34.097 213.108 -33.81 Q 213.143 -33.523 213.423 -33.439 Q 213.703 -33.355 214.305 -33.355 L 214.235 -32.935 L 210.371 -32.935 L 210.455 -33.355 Q 210.973 -33.355 211.253 -33.439 Q 211.533 -33.523 211.68 -33.803 Q 211.827 -34.083 211.939 -34.671 L 213.171 -40.677 Q 213.255 -41.069 213.213 -41.293 Q 213.171 -41.517 212.926 -41.615 Q 212.681 -41.713 212.121 -41.713 L 212.205 -42.133 L 215.495 -42.133 Q 216.965 -42.133 217.784 -41.678 Q 218.603 -41.223 218.603 -40.201 Z M 214.585 -41.545 L 214.585 -41.545 L 213.801 -37.681 L 214.235 -37.667 Q 215.075 -37.695 215.754 -37.94 Q 216.433 -38.185 216.825 -38.717 Q 217.217 -39.249 217.217 -40.145 Q 217.217 -40.523 217.056 -40.852 Q 216.895 -41.181 216.503 -41.384 Q 216.111 -41.587 215.411 -41.587 Q 215.145 -41.587 214.984 -41.58 Q 214.823 -41.573 214.585 -41.545 Z " fill="black" /><path d="M 221.575 -37.315 L 221.575 -37.315 L 221.575 -34.277 L 221.624 -34.277 Q 221.908 -34.61 222.295 -34.875 Q 222.683 -35.14 223.231 -35.14 Q 223.741 -35.14 224.157 -34.831 Q 224.574 -34.522 224.824 -33.978 Q 225.074 -33.434 225.074 -32.729 Q 225.074 -31.788 224.731 -31.151 Q 224.388 -30.514 223.795 -30.196 Q 223.202 -29.877 222.447 -29.877 Q 222.006 -29.877 221.634 -29.951 Q 221.262 -30.024 221.002 -30.122 Q 220.742 -30.22 220.625 -30.269 L 220.625 -36.149 Q 220.625 -36.512 220.546 -36.615 Q 220.468 -36.717 220.135 -36.717 Q 220.027 -36.717 219.934 -36.703 Q 219.841 -36.688 219.841 -36.688 L 219.841 -37.06 L 221.173 -37.315 Z M 221.575 -33.768 L 221.575 -33.768 L 221.575 -30.828 Q 221.693 -30.612 221.948 -30.485 Q 222.202 -30.357 222.624 -30.357 Q 223.143 -30.357 223.457 -30.637 Q 223.77 -30.916 223.912 -31.381 Q 224.055 -31.847 224.055 -32.396 Q 224.055 -32.895 223.942 -33.351 Q 223.829 -33.807 223.545 -34.091 Q 223.261 -34.375 222.761 -34.375 Q 222.496 -34.375 222.256 -34.272 Q 222.016 -34.169 221.84 -34.027 Q 221.663 -33.885 221.575 -33.768 Z " fill="black" /><path d="M 228.651 -30.357 L 228.651 -30.357 L 228.651 -29.995 L 226.162 -29.995 L 226.162 -30.357 Q 226.505 -30.357 226.656 -30.431 Q 226.808 -30.504 226.848 -30.666 Q 226.887 -30.828 226.887 -31.092 L 226.887 -34.052 Q 226.887 -34.385 226.779 -34.454 Q 226.671 -34.522 226.416 -34.522 Q 226.289 -34.522 226.211 -34.512 Q 226.132 -34.503 226.132 -34.503 L 226.132 -34.895 L 227.445 -35.11 L 227.847 -35.11 L 227.847 -31.092 Q 227.847 -30.808 227.891 -30.646 Q 227.935 -30.485 228.107 -30.421 Q 228.278 -30.357 228.651 -30.357 Z M 227.357 -37.276 L 227.357 -37.276 Q 227.641 -37.276 227.833 -37.08 Q 228.024 -36.884 228.024 -36.629 Q 228.024 -36.394 227.833 -36.198 Q 227.641 -36.002 227.357 -36.002 Q 227.083 -36.002 226.901 -36.198 Q 226.72 -36.394 226.72 -36.629 Q 226.72 -36.884 226.901 -37.08 Q 227.083 -37.276 227.357 -37.276 Z " fill="black" /><path d="M 232.571 -30.612 L 232.571 -30.612 L 232.502 -30.612 Q 232.169 -30.338 231.767 -30.132 Q 231.365 -29.926 230.895 -29.926 Q 230.278 -29.926 229.949 -30.298 Q 229.621 -30.671 229.621 -31.2 Q 229.621 -31.651 229.832 -31.955 Q 230.042 -32.258 230.381 -32.45 Q 230.719 -32.641 231.111 -32.758 Q 231.503 -32.876 231.865 -32.944 Q 232.228 -33.013 232.473 -33.072 L 232.473 -33.581 Q 232.473 -34.238 232.213 -34.488 Q 231.953 -34.738 231.454 -34.738 Q 231.15 -34.738 231.018 -34.659 Q 230.885 -34.581 230.851 -34.405 Q 230.817 -34.228 230.807 -33.944 Q 230.797 -33.728 230.679 -33.596 Q 230.562 -33.464 230.336 -33.464 Q 230.121 -33.464 229.969 -33.596 Q 229.817 -33.728 229.817 -33.983 Q 229.817 -34.287 230.052 -34.552 Q 230.287 -34.816 230.724 -34.978 Q 231.16 -35.14 231.748 -35.14 Q 232.63 -35.14 233.026 -34.733 Q 233.423 -34.326 233.423 -33.513 L 233.423 -31.112 Q 233.423 -30.788 233.497 -30.695 Q 233.57 -30.602 233.727 -30.602 Q 233.894 -30.602 234.016 -30.671 Q 234.139 -30.739 234.247 -30.867 L 234.462 -30.661 Q 233.953 -29.936 233.267 -29.936 Q 232.884 -29.936 232.742 -30.117 Q 232.6 -30.298 232.571 -30.612 Z M 232.473 -30.975 L 232.473 -30.975 L 232.473 -32.7 Q 232.022 -32.582 231.591 -32.44 Q 231.16 -32.298 230.88 -32.053 Q 230.601 -31.808 230.601 -31.367 Q 230.601 -30.984 230.821 -30.764 Q 231.042 -30.543 231.385 -30.543 Q 231.591 -30.543 231.88 -30.637 Q 232.169 -30.73 232.473 -30.975 Z " fill="black" /><path d="M 235.138 -31.778 L 235.138 -31.778 L 235.452 -31.778 Q 235.579 -31.21 235.756 -30.896 Q 235.932 -30.583 236.212 -30.46 Q 236.491 -30.338 236.893 -30.338 Q 237.353 -30.338 237.603 -30.49 Q 237.853 -30.641 237.853 -31.024 Q 237.853 -31.278 237.731 -31.45 Q 237.608 -31.621 237.338 -31.778 Q 237.069 -31.935 236.618 -32.141 Q 236.158 -32.366 235.829 -32.562 Q 235.501 -32.758 235.329 -33.023 Q 235.158 -33.287 235.158 -33.689 Q 235.158 -34.395 235.633 -34.767 Q 236.109 -35.14 236.824 -35.14 Q 237.255 -35.14 237.554 -35.032 Q 237.853 -34.924 238.029 -34.846 L 238.049 -34.846 L 238.206 -35.091 L 238.48 -35.091 L 238.5 -33.464 L 238.157 -33.464 Q 237.971 -34.218 237.637 -34.478 Q 237.304 -34.738 236.873 -34.738 Q 236.422 -34.738 236.192 -34.542 Q 235.962 -34.346 235.962 -34.032 Q 235.962 -33.777 236.118 -33.611 Q 236.275 -33.444 236.564 -33.302 Q 236.853 -33.16 237.255 -32.964 Q 237.706 -32.748 238.049 -32.518 Q 238.392 -32.288 238.588 -31.999 Q 238.784 -31.71 238.784 -31.278 Q 238.784 -30.759 238.51 -30.445 Q 238.235 -30.132 237.804 -30 Q 237.373 -29.867 236.902 -29.867 Q 236.422 -29.867 236.158 -29.965 Q 235.893 -30.063 235.668 -30.151 L 235.628 -30.151 L 235.383 -29.897 L 235.158 -29.897 Z " fill="black" /></g></g></g><circle cx="252.0" cy="18.0" r="2.6999999999999997" style="stroke:black;fill:white;stroke-width:2.0;stroke-dasharray:-;" /><g><g><g><path d="M 239.639 31.748 L 239.639 31.748 L 243.461 26.008 Q 243.657 25.728 243.776 25.49 Q 243.895 25.252 243.895 25.084 Q 243.895 24.874 243.713 24.797 Q 243.531 24.72 243.055 24.72 L 243.083 24.3 L 246.107 24.3 L 246.079 24.72 Q 245.701 24.72 245.435 24.832 Q 245.169 24.944 244.896 25.259 Q 244.623 25.574 244.189 26.218 L 239.051 33.568 L 238.589 33.568 L 237.805 25.994 Q 237.721 25.294 237.497 25.007 Q 237.273 24.72 236.713 24.72 L 236.741 24.3 L 240.171 24.3 L 240.129 24.72 Q 239.597 24.72 239.289 24.93 Q 238.981 25.14 239.009 25.616 Q 239.009 25.686 239.03 25.868 Q 239.051 26.05 239.051 26.12 L 239.471 30.11 L 239.569 31.748 Z " fill="black" /><path d="M 246.504 29.117 L 246.504 29.117 L 246.504 32.155 L 246.553 32.155 Q 246.837 31.822 247.224 31.558 Q 247.611 31.293 248.16 31.293 Q 248.669 31.293 249.086 31.602 Q 249.502 31.91 249.752 32.454 Q 250.002 32.998 250.002 33.704 Q 250.002 34.645 249.659 35.282 Q 249.316 35.919 248.723 36.237 Q 248.13 36.556 247.376 36.556 Q 246.935 36.556 246.562 36.482 Q 246.19 36.409 245.93 36.311 Q 245.671 36.213 245.553 36.164 L 245.553 30.284 Q 245.553 29.921 245.475 29.818 Q 245.396 29.715 245.063 29.715 Q 244.955 29.715 244.862 29.73 Q 244.769 29.745 244.769 29.745 L 244.769 29.372 L 246.102 29.117 Z M 246.504 32.665 L 246.504 32.665 L 246.504 35.605 Q 246.621 35.821 246.876 35.948 Q 247.131 36.075 247.552 36.075 Q 248.072 36.075 248.385 35.796 Q 248.699 35.517 248.841 35.051 Q 248.983 34.586 248.983 34.037 Q 248.983 33.537 248.87 33.081 Q 248.758 32.626 248.473 32.342 Q 248.189 32.057 247.689 32.057 Q 247.425 32.057 247.185 32.16 Q 246.945 32.263 246.768 32.405 Q 246.592 32.547 246.504 32.665 Z " fill="black" /><path d="M 253.579 36.075 L 253.579 36.075 L 253.579 36.438 L 251.09 36.438 L 251.09 36.075 Q 251.433 36.075 251.585 36.002 Q 251.737 35.928 251.776 35.767 Q 251.815 35.605 251.815 35.34 L 251.815 32.381 Q 251.815 32.048 251.707 31.979 Q 251.6 31.91 251.345 31.91 Q 251.217 31.91 251.139 31.92 Q 251.061 31.93 251.061 31.93 L 251.061 31.538 L 252.374 31.322 L 252.776 31.322 L 252.776 35.34 Q 252.776 35.625 252.82 35.786 Q 252.864 35.948 253.035 36.012 Q 253.207 36.075 253.579 36.075 Z M 252.286 29.157 L 252.286 29.157 Q 252.57 29.157 252.761 29.353 Q 252.952 29.549 252.952 29.803 Q 252.952 30.039 252.761 30.235 Q 252.57 30.431 252.286 30.431 Q 252.011 30.431 251.83 30.235 Q 251.649 30.039 251.649 29.803 Q 251.649 29.549 251.83 29.353 Q 252.011 29.157 252.286 29.157 Z " fill="black" /><path d="M 257.499 35.821 L 257.499 35.821 L 257.431 35.821 Q 257.097 36.095 256.696 36.301 Q 256.294 36.507 255.823 36.507 Q 255.206 36.507 254.878 36.134 Q 254.549 35.762 254.549 35.233 Q 254.549 34.782 254.76 34.478 Q 254.971 34.174 255.309 33.983 Q 255.647 33.792 256.039 33.674 Q 256.431 33.557 256.794 33.488 Q 257.156 33.42 257.401 33.361 L 257.401 32.851 Q 257.401 32.195 257.142 31.945 Q 256.882 31.695 256.382 31.695 Q 256.078 31.695 255.946 31.773 Q 255.814 31.852 255.779 32.028 Q 255.745 32.204 255.735 32.489 Q 255.725 32.704 255.608 32.836 Q 255.49 32.969 255.265 32.969 Q 255.049 32.969 254.897 32.836 Q 254.745 32.704 254.745 32.449 Q 254.745 32.146 254.981 31.881 Q 255.216 31.616 255.652 31.455 Q 256.088 31.293 256.676 31.293 Q 257.558 31.293 257.955 31.7 Q 258.352 32.106 258.352 32.92 L 258.352 35.321 Q 258.352 35.644 258.425 35.737 Q 258.499 35.83 258.656 35.83 Q 258.822 35.83 258.945 35.762 Q 259.067 35.693 259.175 35.566 L 259.391 35.772 Q 258.881 36.497 258.195 36.497 Q 257.813 36.497 257.671 36.315 Q 257.529 36.134 257.499 35.821 Z M 257.401 35.458 L 257.401 35.458 L 257.401 33.733 Q 256.95 33.851 256.519 33.993 Q 256.088 34.135 255.809 34.38 Q 255.529 34.625 255.529 35.066 Q 255.529 35.448 255.75 35.669 Q 255.97 35.889 256.313 35.889 Q 256.519 35.889 256.808 35.796 Q 257.097 35.703 257.401 35.458 Z " fill="black" /><path d="M 260.067 34.654 L 260.067 34.654 L 260.38 34.654 Q 260.508 35.223 260.684 35.536 Q 260.861 35.85 261.14 35.972 Q 261.419 36.095 261.821 36.095 Q 262.282 36.095 262.531 35.943 Q 262.781 35.791 262.781 35.409 Q 262.781 35.154 262.659 34.983 Q 262.536 34.811 262.267 34.654 Q 261.997 34.498 261.547 34.292 Q 261.086 34.066 260.758 33.87 Q 260.429 33.674 260.258 33.41 Q 260.086 33.145 260.086 32.743 Q 260.086 32.038 260.562 31.665 Q 261.037 31.293 261.752 31.293 Q 262.184 31.293 262.482 31.401 Q 262.781 31.509 262.958 31.587 L 262.977 31.587 L 263.134 31.342 L 263.409 31.342 L 263.428 32.969 L 263.085 32.969 Q 262.899 32.214 262.566 31.954 Q 262.233 31.695 261.801 31.695 Q 261.351 31.695 261.12 31.891 Q 260.89 32.087 260.89 32.4 Q 260.89 32.655 261.047 32.822 Q 261.204 32.988 261.493 33.13 Q 261.782 33.273 262.184 33.469 Q 262.634 33.684 262.977 33.914 Q 263.32 34.145 263.516 34.434 Q 263.712 34.723 263.712 35.154 Q 263.712 35.674 263.438 35.987 Q 263.164 36.301 262.732 36.433 Q 262.301 36.565 261.831 36.565 Q 261.351 36.565 261.086 36.467 Q 260.821 36.369 260.596 36.281 L 260.557 36.281 L 260.312 36.536 L 260.086 36.536 Z " fill="black" /><path d="M 268.436 36.438 L 268.436 36.438 L 265.114 36.438 L 265.114 36.085 Q 265.819 36.085 266.05 35.943 Q 266.28 35.801 266.28 35.429 L 266.28 31.156 Q 266.28 30.891 266.202 30.774 Q 266.123 30.656 265.917 30.656 Q 265.761 30.656 265.491 30.7 Q 265.222 30.744 265.026 30.793 L 265.026 30.401 L 266.839 29.901 L 267.26 29.901 L 267.26 35.429 Q 267.26 35.801 267.51 35.943 Q 267.76 36.085 268.436 36.085 Z " fill="black" /></g></g></g><g><g><g><path d="M 335.926 -128.871 L 335.926 -128.871 L 332.188 -128.871 L 332.272 -129.291 Q 332.79 -129.291 333.063 -129.389 Q 333.336 -129.487 333.476 -129.76 Q 333.616 -130.033 333.714 -130.537 L 334.96 -136.585 L 334.904 -136.585 L 330.2 -128.871 L 329.892 -128.871 L 328.198 -136.571 L 328.142 -136.571 L 326.98 -130.915 Q 326.84 -130.201 326.861 -129.851 Q 326.882 -129.501 327.134 -129.396 Q 327.386 -129.291 327.918 -129.291 L 327.834 -128.871 L 324.6 -128.871 L 324.684 -129.291 Q 325.23 -129.291 325.524 -129.396 Q 325.818 -129.501 325.986 -129.851 Q 326.154 -130.201 326.294 -130.915 L 327.4 -136.361 Q 327.512 -136.893 327.47 -137.166 Q 327.428 -137.439 327.169 -137.544 Q 326.91 -137.649 326.35 -137.649 L 326.434 -138.069 L 329.234 -138.069 L 330.746 -130.985 L 330.802 -130.985 L 335.072 -138.069 L 337.718 -138.069 L 337.634 -137.649 Q 337.144 -137.649 336.857 -137.544 Q 336.57 -137.439 336.416 -137.166 Q 336.262 -136.893 336.15 -136.375 L 334.96 -130.537 Q 334.806 -129.767 335.037 -129.529 Q 335.268 -129.291 336.01 -129.291 Z " fill="black" /><path d="M 342.51 -127.636 L 342.51 -127.636 L 342.177 -125.931 L 338.159 -125.931 L 338.159 -126.411 L 339.551 -127.822 Q 340.099 -128.371 340.457 -128.793 Q 340.815 -129.214 340.991 -129.64 Q 341.168 -130.067 341.168 -130.615 Q 341.168 -131.135 340.849 -131.473 Q 340.531 -131.811 339.952 -131.811 Q 339.423 -131.811 339.065 -131.6 Q 338.708 -131.39 338.433 -130.909 L 338.169 -131.037 Q 338.414 -131.723 338.928 -132.115 Q 339.443 -132.507 340.197 -132.507 Q 340.785 -132.507 341.236 -132.296 Q 341.687 -132.085 341.942 -131.693 Q 342.197 -131.301 342.197 -130.743 Q 342.197 -130.263 341.981 -129.841 Q 341.765 -129.42 341.368 -128.979 Q 340.972 -128.538 340.423 -127.999 L 339.198 -126.813 L 339.198 -126.744 L 339.962 -126.784 L 341.236 -126.784 Q 341.52 -126.784 341.672 -126.862 Q 341.824 -126.94 341.932 -127.131 Q 342.04 -127.323 342.167 -127.636 Z " fill="black" /></g></g></g><circle cx="270.0" cy="-131.99999999999997" r="2.6999999999999997" style="stroke:black;fill:white;stroke-width:2.0;stroke-dasharray:-;" /><g><g><g><path d="M 234.954 -130.685 L 234.954 -130.685 L 238.776 -136.425 Q 238.972 -136.705 239.091 -136.943 Q 239.21 -137.181 239.21 -137.349 Q 239.21 -137.559 239.028 -137.636 Q 238.846 -137.713 238.37 -137.713 L 238.398 -138.133 L 241.422 -138.133 L 241.394 -137.713 Q 241.016 -137.713 240.75 -137.601 Q 240.484 -137.489 240.211 -137.174 Q 239.938 -136.859 239.504 -136.215 L 234.366 -128.865 L 233.904 -128.865 L 233.12 -136.439 Q 233.036 -137.139 232.812 -137.426 Q 232.588 -137.713 232.028 -137.713 L 232.056 -138.133 L 235.486 -138.133 L 235.444 -137.713 Q 234.912 -137.713 234.604 -137.503 Q 234.296 -137.293 234.324 -136.817 Q 234.324 -136.747 234.345 -136.565 Q 234.366 -136.383 234.366 -136.313 L 234.786 -132.323 L 234.884 -130.685 Z " fill="black" /><path d="M 241.818 -133.315 L 241.818 -133.315 L 241.818 -130.277 L 241.867 -130.277 Q 242.151 -130.61 242.538 -130.875 Q 242.925 -131.14 243.474 -131.14 Q 243.984 -131.14 244.4 -130.831 Q 244.817 -130.522 245.067 -129.978 Q 245.317 -129.434 245.317 -128.729 Q 245.317 -127.788 244.974 -127.151 Q 244.631 -126.514 244.038 -126.196 Q 243.445 -125.877 242.69 -125.877 Q 242.249 -125.877 241.877 -125.951 Q 241.504 -126.024 241.245 -126.122 Q 240.985 -126.22 240.867 -126.269 L 240.867 -132.149 Q 240.867 -132.512 240.789 -132.615 Q 240.711 -132.717 240.377 -132.717 Q 240.27 -132.717 240.176 -132.703 Q 240.083 -132.688 240.083 -132.688 L 240.083 -133.06 L 241.416 -133.315 Z M 241.818 -129.768 L 241.818 -129.768 L 241.818 -126.828 Q 241.936 -126.612 242.19 -126.485 Q 242.445 -126.357 242.867 -126.357 Q 243.386 -126.357 243.7 -126.637 Q 244.013 -126.916 244.155 -127.381 Q 244.297 -127.847 244.297 -128.396 Q 244.297 -128.895 244.185 -129.351 Q 244.072 -129.807 243.788 -130.091 Q 243.504 -130.375 243.004 -130.375 Q 242.739 -130.375 242.499 -130.272 Q 242.259 -130.169 242.083 -130.027 Q 241.906 -129.885 241.818 -129.768 Z " fill="black" /><path d="M 248.894 -126.357 L 248.894 -126.357 L 248.894 -125.995 L 246.404 -125.995 L 246.404 -126.357 Q 246.747 -126.357 246.899 -126.431 Q 247.051 -126.504 247.09 -126.666 Q 247.13 -126.828 247.13 -127.092 L 247.13 -130.052 Q 247.13 -130.385 247.022 -130.454 Q 246.914 -130.522 246.659 -130.522 Q 246.532 -130.522 246.453 -130.512 Q 246.375 -130.503 246.375 -130.503 L 246.375 -130.895 L 247.688 -131.11 L 248.09 -131.11 L 248.09 -127.092 Q 248.09 -126.808 248.134 -126.646 Q 248.178 -126.485 248.35 -126.421 Q 248.521 -126.357 248.894 -126.357 Z M 247.6 -133.276 L 247.6 -133.276 Q 247.884 -133.276 248.075 -133.08 Q 248.266 -132.884 248.266 -132.629 Q 248.266 -132.394 248.075 -132.198 Q 247.884 -132.002 247.6 -132.002 Q 247.326 -132.002 247.144 -132.198 Q 246.963 -132.394 246.963 -132.629 Q 246.963 -132.884 247.144 -133.08 Q 247.326 -133.276 247.6 -133.276 Z " fill="black" /><path d="M 252.814 -126.612 L 252.814 -126.612 L 252.745 -126.612 Q 252.412 -126.338 252.01 -126.132 Q 251.608 -125.926 251.138 -125.926 Q 250.52 -125.926 250.192 -126.298 Q 249.864 -126.671 249.864 -127.2 Q 249.864 -127.651 250.075 -127.955 Q 250.285 -128.258 250.623 -128.45 Q 250.961 -128.641 251.353 -128.758 Q 251.745 -128.876 252.108 -128.944 Q 252.471 -129.013 252.716 -129.072 L 252.716 -129.581 Q 252.716 -130.238 252.456 -130.488 Q 252.196 -130.738 251.696 -130.738 Q 251.393 -130.738 251.26 -130.659 Q 251.128 -130.581 251.094 -130.405 Q 251.059 -130.228 251.05 -129.944 Q 251.04 -129.728 250.922 -129.596 Q 250.805 -129.464 250.579 -129.464 Q 250.364 -129.464 250.212 -129.596 Q 250.06 -129.728 250.06 -129.983 Q 250.06 -130.287 250.295 -130.552 Q 250.53 -130.816 250.966 -130.978 Q 251.402 -131.14 251.99 -131.14 Q 252.872 -131.14 253.269 -130.733 Q 253.666 -130.326 253.666 -129.513 L 253.666 -127.112 Q 253.666 -126.788 253.74 -126.695 Q 253.813 -126.602 253.97 -126.602 Q 254.137 -126.602 254.259 -126.671 Q 254.382 -126.739 254.489 -126.867 L 254.705 -126.661 Q 254.195 -125.936 253.509 -125.936 Q 253.127 -125.936 252.985 -126.117 Q 252.843 -126.298 252.814 -126.612 Z M 252.716 -126.975 L 252.716 -126.975 L 252.716 -128.699 Q 252.265 -128.582 251.834 -128.44 Q 251.402 -128.298 251.123 -128.053 Q 250.844 -127.808 250.844 -127.367 Q 250.844 -126.984 251.064 -126.764 Q 251.285 -126.543 251.628 -126.543 Q 251.834 -126.543 252.123 -126.637 Q 252.412 -126.73 252.716 -126.975 Z " fill="black" /><path d="M 255.381 -127.778 L 255.381 -127.778 L 255.695 -127.778 Q 255.822 -127.21 255.999 -126.896 Q 256.175 -126.583 256.454 -126.46 Q 256.734 -126.338 257.135 -126.338 Q 257.596 -126.338 257.846 -126.49 Q 258.096 -126.641 258.096 -127.024 Q 258.096 -127.278 257.973 -127.45 Q 257.851 -127.621 257.581 -127.778 Q 257.312 -127.935 256.861 -128.141 Q 256.4 -128.366 256.072 -128.562 Q 255.744 -128.758 255.572 -129.023 Q 255.401 -129.287 255.401 -129.689 Q 255.401 -130.395 255.876 -130.767 Q 256.351 -131.14 257.067 -131.14 Q 257.498 -131.14 257.797 -131.032 Q 258.096 -130.924 258.272 -130.846 L 258.292 -130.846 L 258.449 -131.091 L 258.723 -131.091 L 258.743 -129.464 L 258.4 -129.464 Q 258.213 -130.218 257.88 -130.478 Q 257.547 -130.738 257.116 -130.738 Q 256.665 -130.738 256.435 -130.542 Q 256.204 -130.346 256.204 -130.032 Q 256.204 -129.777 256.361 -129.611 Q 256.518 -129.444 256.807 -129.302 Q 257.096 -129.16 257.498 -128.964 Q 257.949 -128.748 258.292 -128.518 Q 258.635 -128.288 258.831 -127.999 Q 259.027 -127.71 259.027 -127.278 Q 259.027 -126.759 258.752 -126.445 Q 258.478 -126.132 258.047 -126 Q 257.616 -125.867 257.145 -125.867 Q 256.665 -125.867 256.4 -125.965 Q 256.136 -126.063 255.91 -126.151 L 255.871 -126.151 L 255.626 -125.897 L 255.401 -125.897 Z " fill="black" /><path d="M 264.309 -127.7 L 264.309 -127.7 L 263.976 -125.995 L 259.958 -125.995 L 259.958 -126.475 L 261.349 -127.886 Q 261.898 -128.435 262.256 -128.856 Q 262.614 -129.278 262.79 -129.704 Q 262.966 -130.13 262.966 -130.679 Q 262.966 -131.198 262.648 -131.537 Q 262.329 -131.875 261.751 -131.875 Q 261.222 -131.875 260.864 -131.664 Q 260.507 -131.453 260.232 -130.973 L 259.968 -131.1 Q 260.213 -131.786 260.727 -132.178 Q 261.242 -132.57 261.996 -132.57 Q 262.584 -132.57 263.035 -132.36 Q 263.486 -132.149 263.741 -131.757 Q 263.995 -131.365 263.995 -130.806 Q 263.995 -130.326 263.78 -129.905 Q 263.564 -129.483 263.167 -129.042 Q 262.77 -128.601 262.222 -128.062 L 260.997 -126.877 L 260.997 -126.808 L 261.761 -126.847 L 263.035 -126.847 Q 263.319 -126.847 263.471 -126.926 Q 263.623 -127.004 263.731 -127.195 Q 263.839 -127.386 263.966 -127.7 Z " fill="black" /></g></g></g><circle cx="321.0" cy="-180.0" r="2.6999999999999997" style="stroke:black;fill:black;stroke-width:2.0;stroke-dasharray:-;" /><g><g><g><path d="M 299.196 -220.137 L 299.196 -220.137 Q 299.196 -219.395 298.916 -218.891 Q 298.636 -218.387 298.188 -218.065 Q 297.74 -217.743 297.229 -217.568 Q 296.718 -217.393 296.256 -217.309 L 296.256 -217.239 Q 296.508 -217.071 296.732 -216.728 Q 296.956 -216.385 297.285 -215.741 Q 297.614 -215.097 298.188 -214.005 Q 298.426 -213.585 298.713 -213.438 Q 299 -213.291 299.476 -213.291 L 299.392 -212.871 L 297.264 -212.871 Q 296.872 -213.739 296.606 -214.32 Q 296.34 -214.901 296.144 -215.293 Q 295.948 -215.685 295.801 -215.993 Q 295.654 -216.301 295.486 -216.623 Q 295.332 -216.917 295.15 -217.008 Q 294.968 -217.099 294.59 -217.099 L 294.296 -217.099 L 293.778 -214.607 Q 293.666 -214.033 293.701 -213.746 Q 293.736 -213.459 294.016 -213.375 Q 294.296 -213.291 294.898 -213.291 L 294.828 -212.871 L 290.964 -212.871 L 291.048 -213.291 Q 291.566 -213.291 291.846 -213.375 Q 292.126 -213.459 292.273 -213.739 Q 292.42 -214.019 292.532 -214.607 L 293.764 -220.613 Q 293.848 -221.005 293.806 -221.229 Q 293.764 -221.453 293.519 -221.551 Q 293.274 -221.649 292.714 -221.649 L 292.798 -222.069 L 296.088 -222.069 Q 297.558 -222.069 298.377 -221.614 Q 299.196 -221.159 299.196 -220.137 Z M 295.178 -221.481 L 295.178 -221.481 L 294.394 -217.617 L 294.828 -217.603 Q 295.668 -217.631 296.347 -217.876 Q 297.026 -218.121 297.418 -218.653 Q 297.81 -219.185 297.81 -220.081 Q 297.81 -220.459 297.649 -220.788 Q 297.488 -221.117 297.096 -221.32 Q 296.704 -221.523 296.004 -221.523 Q 295.738 -221.523 295.577 -221.516 Q 295.416 -221.509 295.178 -221.481 Z " fill="black" /><path d="M 300.669 -216.82 L 300.669 -216.82 L 303.639 -216.82 Q 304.423 -216.82 305.138 -216.649 Q 305.853 -216.477 306.417 -216.085 Q 306.98 -215.693 307.309 -215.037 Q 307.637 -214.38 307.637 -213.4 Q 307.637 -212.479 307.338 -211.818 Q 307.039 -211.156 306.5 -210.74 Q 305.961 -210.323 305.246 -210.127 Q 304.53 -209.931 303.697 -209.931 L 300.669 -209.931 L 300.669 -210.303 Q 301.13 -210.303 301.345 -210.372 Q 301.561 -210.441 301.625 -210.651 Q 301.688 -210.862 301.688 -211.293 L 301.688 -215.546 Q 301.688 -215.948 301.595 -216.139 Q 301.502 -216.33 301.282 -216.389 Q 301.061 -216.448 300.669 -216.448 Z M 302.737 -216.33 L 302.737 -216.33 L 302.737 -210.401 Q 302.894 -210.392 303.046 -210.387 Q 303.198 -210.382 303.345 -210.382 Q 304.315 -210.382 304.996 -210.637 Q 305.677 -210.891 306.035 -211.528 Q 306.392 -212.165 306.392 -213.312 Q 306.392 -214.782 305.643 -215.561 Q 304.893 -216.34 303.266 -216.34 Q 303.129 -216.34 303.002 -216.34 Q 302.874 -216.34 302.737 -216.33 Z " fill="black" /></g></g></g><g><g><g><path d="M 250.172 -215.601 L 250.172 -215.601 L 249.332 -212.871 L 242.416 -212.871 L 242.5 -213.291 Q 243.046 -213.291 243.333 -213.389 Q 243.62 -213.487 243.774 -213.767 Q 243.928 -214.047 244.04 -214.607 L 245.244 -220.445 Q 245.342 -220.907 245.314 -221.173 Q 245.286 -221.439 245.027 -221.544 Q 244.768 -221.649 244.166 -221.649 L 244.25 -222.069 L 248.226 -222.069 L 248.156 -221.649 Q 247.4 -221.649 247.022 -221.418 Q 246.644 -221.187 246.49 -220.431 L 245.216 -214.159 Q 245.118 -213.697 245.314 -213.55 Q 245.51 -213.403 246.126 -213.403 L 246.784 -213.403 Q 247.456 -213.403 247.876 -213.522 Q 248.296 -213.641 248.59 -213.893 Q 248.884 -214.145 249.143 -214.572 Q 249.402 -214.999 249.724 -215.601 Z " fill="black" /><path d="M 251.113 -216.82 L 251.113 -216.82 L 254.083 -216.82 Q 254.867 -216.82 255.582 -216.649 Q 256.297 -216.477 256.861 -216.085 Q 257.424 -215.693 257.753 -215.037 Q 258.081 -214.38 258.081 -213.4 Q 258.081 -212.479 257.782 -211.818 Q 257.483 -211.156 256.944 -210.74 Q 256.405 -210.323 255.69 -210.127 Q 254.974 -209.931 254.141 -209.931 L 251.113 -209.931 L 251.113 -210.303 Q 251.574 -210.303 251.789 -210.372 Q 252.005 -210.441 252.069 -210.651 Q 252.132 -210.862 252.132 -211.293 L 252.132 -215.546 Q 252.132 -215.948 252.039 -216.139 Q 251.946 -216.33 251.726 -216.389 Q 251.505 -216.448 251.113 -216.448 Z M 253.181 -216.33 L 253.181 -216.33 L 253.181 -210.401 Q 253.338 -210.392 253.49 -210.387 Q 253.642 -210.382 253.789 -210.382 Q 254.759 -210.382 255.44 -210.637 Q 256.121 -210.891 256.479 -211.528 Q 256.836 -212.165 256.836 -213.312 Q 256.836 -214.782 256.087 -215.561 Q 255.337 -216.34 253.71 -216.34 Q 253.573 -216.34 253.446 -216.34 Q 253.318 -216.34 253.181 -216.33 Z " fill="black" /></g></g></g><circle cx="375.0" cy="-180.0" r="2.6999999999999997" style="stroke:black;fill:black;stroke-width:2.0;stroke-dasharray:-;" /><circle cx="411.0" cy="-180.0" r="2.6999999999999997" style="stroke:black;fill:white;stroke-width:2.0;stroke-dasharray:-;" /><g><g><g><path d="M 420.1 -184.84 L 420.1 -184.84 L 420.408 -184.84 L 419.75 -182.152 Q 419.652 -181.788 419.547 -181.277 Q 419.442 -180.766 419.442 -180.29 Q 419.442 -179.744 419.666 -179.345 Q 419.89 -178.946 420.534 -178.946 Q 421.248 -178.946 421.766 -179.289 Q 422.284 -179.632 422.613 -180.164 Q 422.942 -180.696 423.103 -181.284 Q 423.264 -181.872 423.264 -182.362 Q 423.264 -182.726 423.138 -182.992 Q 423.012 -183.258 422.837 -183.468 Q 422.662 -183.678 422.536 -183.874 Q 422.41 -184.07 422.41 -184.294 Q 422.41 -184.574 422.564 -184.728 Q 422.718 -184.882 422.942 -184.882 Q 423.418 -184.882 423.712 -184.406 Q 424.006 -183.93 424.006 -183.188 Q 424.006 -182.544 423.845 -181.837 Q 423.684 -181.13 423.362 -180.458 Q 423.04 -179.786 422.564 -179.24 Q 422.088 -178.694 421.472 -178.372 Q 420.856 -178.05 420.1 -178.05 Q 419.4 -178.05 419.008 -178.33 Q 418.616 -178.61 418.455 -179.072 Q 418.294 -179.534 418.294 -180.066 Q 418.294 -180.57 418.392 -181.102 Q 418.49 -181.634 418.602 -182.068 L 418.882 -183.132 Q 418.91 -183.244 418.966 -183.468 Q 419.022 -183.692 419.022 -183.902 Q 419.022 -184.084 418.952 -184.21 Q 418.882 -184.336 418.686 -184.336 Q 418.518 -184.336 418.28 -184.315 Q 418.042 -184.294 418.042 -184.294 L 418.042 -184.686 Z " fill="black" /><path d="M 427.034 -180.381 L 427.034 -180.381 Q 427.769 -180.381 428.318 -180.062 Q 428.867 -179.744 429.166 -179.171 Q 429.465 -178.597 429.465 -177.823 Q 429.465 -176.892 429.151 -176.294 Q 428.837 -175.696 428.289 -175.407 Q 427.74 -175.118 427.034 -175.118 Q 426.319 -175.118 425.765 -175.417 Q 425.211 -175.716 424.903 -176.314 Q 424.594 -176.912 424.594 -177.813 Q 424.594 -178.578 424.898 -179.156 Q 425.202 -179.734 425.75 -180.057 Q 426.299 -180.381 427.034 -180.381 Z M 427.015 -179.93 L 427.015 -179.93 Q 426.368 -179.93 426 -179.406 Q 425.633 -178.881 425.633 -177.872 Q 425.633 -176.627 426.01 -176.113 Q 426.387 -175.598 427.064 -175.598 Q 427.495 -175.608 427.799 -175.814 Q 428.102 -176.02 428.264 -176.505 Q 428.426 -176.99 428.426 -177.823 Q 428.426 -178.823 428.083 -179.376 Q 427.74 -179.93 427.015 -179.93 Z " fill="black" /><path d="M 436.129 -175.736 L 436.129 -175.736 L 436.129 -175.363 L 434.806 -175.187 L 434.492 -175.187 L 434.492 -175.951 L 434.394 -175.951 Q 434.022 -175.618 433.639 -175.378 Q 433.257 -175.138 432.718 -175.138 Q 431.993 -175.138 431.611 -175.579 Q 431.229 -176.02 431.229 -177.108 L 431.229 -179.215 Q 431.229 -179.616 431.087 -179.71 Q 430.944 -179.803 430.494 -179.803 L 430.494 -180.155 L 431.856 -180.342 L 432.179 -180.342 L 432.179 -177.235 Q 432.179 -176.686 432.307 -176.382 Q 432.434 -176.079 432.65 -175.961 Q 432.865 -175.843 433.12 -175.843 Q 433.551 -175.843 433.84 -176.025 Q 434.129 -176.206 434.443 -176.461 L 434.443 -179.215 Q 434.443 -179.616 434.267 -179.71 Q 434.09 -179.803 433.59 -179.803 L 433.59 -180.155 L 435.051 -180.342 L 435.394 -180.342 L 435.394 -176.373 Q 435.394 -176.079 435.447 -175.941 Q 435.501 -175.804 435.639 -175.77 Q 435.776 -175.736 436.021 -175.736 Z " fill="black" /><path d="M 439.951 -176.216 L 439.951 -176.216 L 440.176 -176.03 Q 439.96 -175.736 439.784 -175.535 Q 439.608 -175.334 439.382 -175.226 Q 439.157 -175.118 438.804 -175.118 Q 438.236 -175.118 437.976 -175.442 Q 437.716 -175.765 437.716 -176.48 L 437.716 -179.773 L 437.099 -179.773 L 437.099 -180.067 Q 437.452 -180.322 437.746 -180.69 Q 438.04 -181.057 438.334 -181.743 L 438.677 -181.743 L 438.667 -180.253 L 439.911 -180.253 L 439.911 -179.773 L 438.667 -179.773 L 438.667 -176.804 Q 438.667 -176.255 438.77 -176.025 Q 438.873 -175.794 439.186 -175.794 Q 439.47 -175.794 439.617 -175.897 Q 439.764 -176 439.951 -176.216 Z " fill="black" /></g></g></g><g><g><g><path d="M 354.036 -214.81 L 354.036 -214.81 L 354.288 -214.544 Q 353.574 -213.704 352.636 -213.165 Q 351.698 -212.626 350.368 -212.626 Q 349.108 -212.626 348.352 -213.095 Q 347.596 -213.564 347.267 -214.348 Q 346.938 -215.132 346.938 -216.056 Q 346.938 -217.526 347.386 -218.667 Q 347.834 -219.808 348.611 -220.585 Q 349.388 -221.362 350.368 -221.761 Q 351.348 -222.16 352.412 -222.16 Q 353.126 -222.16 353.525 -222.034 Q 353.924 -221.908 354.148 -221.775 Q 354.372 -221.642 354.54 -221.642 Q 354.708 -221.642 354.834 -221.782 Q 354.96 -221.922 355.128 -222.146 L 355.534 -222.146 L 354.876 -218.94 L 354.414 -218.94 Q 354.47 -220.34 353.896 -220.949 Q 353.322 -221.558 352.286 -221.558 Q 351.474 -221.558 350.76 -221.187 Q 350.046 -220.816 349.493 -220.137 Q 348.94 -219.458 348.625 -218.513 Q 348.31 -217.568 348.31 -216.406 Q 348.31 -215.006 348.975 -214.271 Q 349.64 -213.536 351.026 -213.536 Q 352.636 -213.536 354.036 -214.81 Z " fill="black" /><path d="M 355.635 -216.729 L 355.635 -216.729 L 358.605 -216.729 Q 359.389 -216.729 360.104 -216.558 Q 360.819 -216.386 361.383 -215.994 Q 361.946 -215.602 362.275 -214.946 Q 362.603 -214.289 362.603 -213.309 Q 362.603 -212.388 362.304 -211.727 Q 362.005 -211.065 361.466 -210.649 Q 360.927 -210.232 360.212 -210.036 Q 359.496 -209.84 358.663 -209.84 L 355.635 -209.84 L 355.635 -210.212 Q 356.096 -210.212 356.311 -210.281 Q 356.527 -210.35 356.591 -210.56 Q 356.654 -210.771 356.654 -211.202 L 356.654 -215.455 Q 356.654 -215.857 356.561 -216.048 Q 356.468 -216.239 356.248 -216.298 Q 356.027 -216.357 355.635 -216.357 Z M 357.703 -216.239 L 357.703 -216.239 L 357.703 -210.31 Q 357.86 -210.301 358.012 -210.296 Q 358.164 -210.291 358.311 -210.291 Q 359.281 -210.291 359.962 -210.546 Q 360.643 -210.8 361.001 -211.437 Q 361.358 -212.074 361.358 -213.221 Q 361.358 -214.691 360.609 -215.47 Q 359.859 -216.249 358.232 -216.249 Q 358.095 -216.249 357.968 -216.249 Q 357.84 -216.249 357.703 -216.239 Z " fill="black" /></g></g></g><g><g><g><path d="M 312.853 -260.29 L 312.853 -260.29 L 316.675 -266.03 Q 316.871 -266.31 316.99 -266.548 Q 317.109 -266.786 317.109 -266.954 Q 317.109 -267.164 316.927 -267.241 Q 316.745 -267.318 316.269 -267.318 L 316.297 -267.738 L 319.321 -267.738 L 319.293 -267.318 Q 318.915 -267.318 318.649 -267.206 Q 318.383 -267.094 318.11 -266.779 Q 317.837 -266.464 317.403 -265.82 L 312.265 -258.47 L 311.803 -258.47 L 311.019 -266.044 Q 310.935 -266.744 310.711 -267.031 Q 310.487 -267.318 309.927 -267.318 L 309.955 -267.738 L 313.385 -267.738 L 313.343 -267.318 Q 312.811 -267.318 312.503 -267.108 Q 312.195 -266.898 312.223 -266.422 Q 312.223 -266.352 312.244 -266.17 Q 312.265 -265.988 312.265 -265.918 L 312.685 -261.928 L 312.783 -260.29 Z " fill="black" /><path d="M 318.218 -262.489 L 318.218 -262.489 L 321.188 -262.489 Q 321.972 -262.489 322.687 -262.318 Q 323.402 -262.146 323.966 -261.754 Q 324.529 -261.362 324.858 -260.706 Q 325.186 -260.049 325.186 -259.069 Q 325.186 -258.148 324.887 -257.487 Q 324.588 -256.825 324.049 -256.409 Q 323.51 -255.992 322.795 -255.796 Q 322.079 -255.6 321.246 -255.6 L 318.218 -255.6 L 318.218 -255.972 Q 318.679 -255.972 318.894 -256.041 Q 319.11 -256.11 319.174 -256.32 Q 319.237 -256.531 319.237 -256.962 L 319.237 -261.215 Q 319.237 -261.617 319.144 -261.808 Q 319.051 -261.999 318.831 -262.058 Q 318.61 -262.117 318.218 -262.117 Z M 320.286 -261.999 L 320.286 -261.999 L 320.286 -256.07 Q 320.443 -256.061 320.595 -256.056 Q 320.747 -256.051 320.894 -256.051 Q 321.864 -256.051 322.545 -256.306 Q 323.226 -256.56 323.584 -257.197 Q 323.941 -257.834 323.941 -258.981 Q 323.941 -260.451 323.192 -261.23 Q 322.442 -262.009 320.815 -262.009 Q 320.678 -262.009 320.551 -262.009 Q 320.423 -262.009 320.286 -261.999 Z " fill="black" /><path d="M 326.372 -262.489 L 326.372 -262.489 L 329.341 -262.489 Q 330.125 -262.489 330.841 -262.318 Q 331.556 -262.146 332.119 -261.754 Q 332.683 -261.362 333.011 -260.706 Q 333.34 -260.049 333.34 -259.069 Q 333.34 -258.148 333.041 -257.487 Q 332.742 -256.825 332.203 -256.409 Q 331.664 -255.992 330.948 -255.796 Q 330.233 -255.6 329.4 -255.6 L 326.372 -255.6 L 326.372 -255.972 Q 326.832 -255.972 327.048 -256.041 Q 327.264 -256.11 327.327 -256.32 Q 327.391 -256.531 327.391 -256.962 L 327.391 -261.215 Q 327.391 -261.617 327.298 -261.808 Q 327.205 -261.999 326.984 -262.058 Q 326.764 -262.117 326.372 -262.117 Z M 328.44 -261.999 L 328.44 -261.999 L 328.44 -256.07 Q 328.596 -256.061 328.748 -256.056 Q 328.9 -256.051 329.047 -256.051 Q 330.017 -256.051 330.698 -256.306 Q 331.38 -256.56 331.737 -257.197 Q 332.095 -257.834 332.095 -258.981 Q 332.095 -260.451 331.345 -261.23 Q 330.596 -262.009 328.969 -262.009 Q 328.832 -262.009 328.704 -262.009 Q 328.577 -262.009 328.44 -261.999 Z " fill="black" /></g></g></g><circle cx="90.0" cy="-72.0" r="2.6999999999999997" style="stroke:black;fill:white;stroke-width:2.0;stroke-dasharray:-;" /></svg>