<svg xmlns="http://www.w3.org/2000/svg" xmlns:xlink="http://www.w3.org/1999/xlink" xml:lang="en" height="45.2pt" width="169.7566pt" viewBox="-32.3844 -22.6 169.7566 45.2"><path d="M 0.0,-0.0 L 18.0,-0.0 L 36.0,-0.0" style="stroke:black;fill:none;stroke-width:2.0;stroke-dasharray:-;stroke-linecap:round;stroke-linejoin:round;" /><path d="M 36.0,-0.0 L 36.0,18.0 L 63.0,-0.0 L 36.0,-18.0 L 36.0,-0.0" style="stroke:black;fill:none;stroke-width:2.0;stroke-dasharray:-;stroke-linecap:round;stroke-linejoin:round;" /><path d="M 63.0,-0.0 L 81.0,-0.0 L 99.0,-0.0" style="stroke:black;fill:none;stroke-width:2.0;stroke-dasharray:-;stroke-linecap:round;stroke-linejoin:round;" /><circle cx="0.0" cy="-0.0" r="2.6999999999999997" style="stroke:black;fill:white;stroke-width:2.0;stroke-dasharray:-;" /><g><g><g><path d="M -24.868 -4.928 L -24.868 -4.928 Q -24.868 -4.144 -25.225 -3.654 Q -25.582 -3.164 -26.121 -2.891 Q -26.66 -2.618 -27.234 -2.478 L -27.234 -2.422 Q -26.996 -2.282 -26.695 -1.939 Q -26.394 -1.596 -25.918 -0.931 Q -25.442 -0.266 -24.672 0.84 Q -24.336 1.302 -24.021 1.428 Q -23.706 1.554 -23.23 1.554 L -23.23 1.974 L -25.54 1.974 Q -26.114 1.106 -26.499 0.525 Q -26.884 -0.056 -27.15 -0.455 Q -27.416 -0.854 -27.626 -1.162 Q -27.836 -1.47 -28.046 -1.778 Q -28.256 -2.1 -28.431 -2.17 Q -28.606 -2.24 -28.984 -2.24 L -29.376 -2.24 L -29.376 0.238 Q -29.376 0.812 -29.278 1.099 Q -29.18 1.386 -28.886 1.47 Q -28.592 1.554 -27.99 1.554 L -27.99 1.974 L -31.924 1.974 L -31.924 1.554 Q -31.392 1.554 -31.126 1.47 Q -30.86 1.386 -30.769 1.106 Q -30.678 0.826 -30.678 0.238 L -30.678 -5.768 Q -30.678 -6.16 -30.755 -6.384 Q -30.832 -6.608 -31.098 -6.706 Q -31.364 -6.804 -31.924 -6.804 L -31.924 -7.224 L -28.48 -7.224 Q -27.43 -7.224 -26.611 -7.021 Q -25.792 -6.818 -25.33 -6.321 Q -24.868 -5.824 -24.868 -4.928 Z M -29.376 -6.636 L -29.376 -6.636 L -29.376 -2.786 L -28.844 -2.772 Q -27.682 -2.828 -26.982 -3.297 Q -26.282 -3.766 -26.282 -4.872 Q -26.282 -5.712 -26.8 -6.195 Q -27.318 -6.678 -28.452 -6.678 Q -28.928 -6.678 -29.376 -6.636 Z " fill="black" /><path d="M -15.264 -4.928 L -15.264 -4.928 L -15.712 -4.928 Q -15.81 -5.432 -15.915 -5.754 Q -16.02 -6.076 -16.23 -6.258 Q -16.44 -6.44 -16.839 -6.517 Q -17.238 -6.594 -17.924 -6.594 L -20.15 -6.594 L -20.15 -3.052 L -18.498 -3.052 Q -17.896 -3.052 -17.574 -3.164 Q -17.252 -3.276 -17.133 -3.577 Q -17.014 -3.878 -17.014 -4.438 L -16.538 -4.438 L -16.538 -1.19 L -17.014 -1.19 Q -17.014 -1.764 -17.133 -2.044 Q -17.252 -2.324 -17.574 -2.415 Q -17.896 -2.506 -18.498 -2.506 L -20.15 -2.506 L -20.15 0.434 Q -20.15 1.148 -19.828 1.351 Q -19.506 1.554 -18.694 1.554 L -18.694 1.974 L -22.796 1.974 L -22.796 1.554 Q -22.222 1.554 -21.935 1.47 Q -21.648 1.386 -21.543 1.127 Q -21.438 0.868 -21.438 0.35 L -21.438 -5.642 Q -21.438 -6.37 -21.739 -6.587 Q -22.04 -6.804 -22.796 -6.804 L -22.796 -7.224 L -15.348 -7.224 Z " fill="black" /><path d="M -12.695 6.861 L -12.695 6.861 L -12.695 7.224 L -15.184 7.224 L -15.184 6.861 Q -14.841 6.861 -14.689 6.788 Q -14.538 6.714 -14.498 6.553 Q -14.459 6.391 -14.459 6.126 L -14.459 3.167 Q -14.459 2.834 -14.567 2.765 Q -14.675 2.696 -14.93 2.696 Q -15.057 2.696 -15.135 2.706 Q -15.214 2.716 -15.214 2.716 L -15.214 2.324 L -13.901 2.108 L -13.499 2.108 L -13.499 6.126 Q -13.499 6.411 -13.455 6.572 Q -13.411 6.734 -13.239 6.798 Q -13.068 6.861 -12.695 6.861 Z M -13.989 -0.057 L -13.989 -0.057 Q -13.705 -0.057 -13.513 0.139 Q -13.322 0.335 -13.322 0.589 Q -13.322 0.825 -13.513 1.021 Q -13.705 1.217 -13.989 1.217 Q -14.263 1.217 -14.444 1.021 Q -14.626 0.825 -14.626 0.589 Q -14.626 0.335 -14.444 0.139 Q -14.263 -0.057 -13.989 -0.057 Z " fill="black" /><path d="M -6.874 3.941 L -6.874 3.941 L -6.874 6.136 Q -6.874 6.411 -6.825 6.572 Q -6.776 6.734 -6.609 6.803 Q -6.443 6.871 -6.09 6.871 L -6.09 7.224 L -8.609 7.224 L -8.609 6.871 Q -8.236 6.871 -8.07 6.803 Q -7.903 6.734 -7.864 6.572 Q -7.825 6.411 -7.825 6.136 L -7.825 4.264 Q -7.825 3.608 -7.976 3.299 Q -8.128 2.99 -8.359 2.892 Q -8.589 2.794 -8.824 2.794 Q -9.246 2.794 -9.564 3.01 Q -9.883 3.226 -10.118 3.422 L -10.118 6.136 Q -10.118 6.411 -10.074 6.572 Q -10.03 6.734 -9.863 6.803 Q -9.696 6.871 -9.334 6.871 L -9.334 7.224 L -11.803 7.224 L -11.803 6.871 Q -11.46 6.871 -11.308 6.803 Q -11.157 6.734 -11.117 6.572 Q -11.078 6.411 -11.078 6.136 L -11.078 3.157 Q -11.078 2.883 -11.181 2.79 Q -11.284 2.696 -11.509 2.696 Q -11.627 2.696 -11.705 2.706 Q -11.784 2.716 -11.784 2.716 L -11.784 2.344 L -10.471 2.108 L -10.147 2.108 L -10.147 2.912 L -10.079 2.912 Q -9.657 2.53 -9.27 2.304 Q -8.883 2.079 -8.393 2.079 Q -7.815 2.079 -7.486 2.339 Q -7.158 2.598 -7.016 3.02 Q -6.874 3.441 -6.874 3.941 Z " fill="black" /></g></g></g><circle cx="99.0" cy="-0.0" r="2.6999999999999997" style="stroke:black;fill:white;stroke-width:2.0;stroke-dasharray:-;" /><g><g><g><path d="M 112.958 -3.832 L 112.958 -3.832 Q 112.958 -3.048 112.601 -2.558 Q 112.244 -2.068 111.705 -1.795 Q 111.166 -1.522 110.592 -1.382 L 110.592 -1.326 Q 110.83 -1.186 111.131 -0.843 Q 111.432 -0.5 111.908 0.165 Q 112.384 0.83 113.154 1.936 Q 113.49 2.398 113.805 2.524 Q 114.12 2.65 114.596 2.65 L 114.596 3.07 L 112.286 3.07 Q 111.712 2.202 111.327 1.621 Q 110.942 1.04 110.676 0.641 Q 110.41 0.242 110.2 -0.066 Q 109.99 -0.374 109.78 -0.682 Q 109.57 -1.004 109.395 -1.074 Q 109.22 -1.144 108.842 -1.144 L 108.45 -1.144 L 108.45 1.334 Q 108.45 1.908 108.548 2.195 Q 108.646 2.482 108.94 2.566 Q 109.234 2.65 109.836 2.65 L 109.836 3.07 L 105.902 3.07 L 105.902 2.65 Q 106.434 2.65 106.7 2.566 Q 106.966 2.482 107.057 2.202 Q 107.148 1.922 107.148 1.334 L 107.148 -4.672 Q 107.148 -5.064 107.071 -5.288 Q 106.994 -5.512 106.728 -5.61 Q 106.462 -5.708 105.902 -5.708 L 105.902 -6.128 L 109.346 -6.128 Q 110.396 -6.128 111.215 -5.925 Q 112.034 -5.722 112.496 -5.225 Q 112.958 -4.728 112.958 -3.832 Z M 108.45 -5.54 L 108.45 -5.54 L 108.45 -1.69 L 108.982 -1.676 Q 110.144 -1.732 110.844 -2.201 Q 111.544 -2.67 111.544 -3.776 Q 111.544 -4.616 111.026 -5.099 Q 110.508 -5.582 109.374 -5.582 Q 108.898 -5.582 108.45 -5.54 Z " fill="black" /><path d="M 122.562 -3.832 L 122.562 -3.832 L 122.114 -3.832 Q 122.016 -4.336 121.911 -4.658 Q 121.806 -4.98 121.596 -5.162 Q 121.386 -5.344 120.987 -5.421 Q 120.588 -5.498 119.902 -5.498 L 117.676 -5.498 L 117.676 -1.956 L 119.328 -1.956 Q 119.93 -1.956 120.252 -2.068 Q 120.574 -2.18 120.693 -2.481 Q 120.812 -2.782 120.812 -3.342 L 121.288 -3.342 L 121.288 -0.094 L 120.812 -0.094 Q 120.812 -0.668 120.693 -0.948 Q 120.574 -1.228 120.252 -1.319 Q 119.93 -1.41 119.328 -1.41 L 117.676 -1.41 L 117.676 1.53 Q 117.676 2.244 117.998 2.447 Q 118.32 2.65 119.132 2.65 L 119.132 3.07 L 115.03 3.07 L 115.03 2.65 Q 115.604 2.65 115.891 2.566 Q 116.178 2.482 116.283 2.223 Q 116.388 1.964 116.388 1.446 L 116.388 -4.546 Q 116.388 -5.274 116.087 -5.491 Q 115.786 -5.708 115.03 -5.708 L 115.03 -6.128 L 122.478 -6.128 Z " fill="black" /><path d="M 125.17 0.865 L 125.17 0.865 Q 125.905 0.865 126.454 1.184 Q 127.003 1.502 127.302 2.076 Q 127.601 2.649 127.601 3.423 Q 127.601 4.354 127.287 4.952 Q 126.973 5.55 126.425 5.839 Q 125.876 6.128 125.17 6.128 Q 124.455 6.128 123.901 5.829 Q 123.347 5.53 123.039 4.932 Q 122.73 4.334 122.73 3.433 Q 122.73 2.668 123.034 2.09 Q 123.338 1.512 123.886 1.189 Q 124.435 0.865 125.17 0.865 Z M 125.151 1.316 L 125.151 1.316 Q 124.504 1.316 124.136 1.84 Q 123.769 2.365 123.769 3.374 Q 123.769 4.619 124.146 5.133 Q 124.523 5.648 125.2 5.648 Q 125.631 5.638 125.935 5.432 Q 126.238 5.226 126.4 4.741 Q 126.562 4.256 126.562 3.423 Q 126.562 2.423 126.219 1.87 Q 125.876 1.316 125.151 1.316 Z " fill="black" /><path d="M 134.265 5.51 L 134.265 5.51 L 134.265 5.883 L 132.942 6.059 L 132.628 6.059 L 132.628 5.295 L 132.53 5.295 Q 132.158 5.628 131.775 5.868 Q 131.393 6.108 130.854 6.108 Q 130.129 6.108 129.747 5.667 Q 129.365 5.226 129.365 4.138 L 129.365 2.031 Q 129.365 1.63 129.222 1.537 Q 129.08 1.443 128.63 1.443 L 128.63 1.091 L 129.992 0.904 L 130.315 0.904 L 130.315 4.011 Q 130.315 4.56 130.443 4.864 Q 130.57 5.167 130.786 5.285 Q 131.001 5.403 131.256 5.403 Q 131.687 5.403 131.976 5.221 Q 132.265 5.04 132.579 4.785 L 132.579 2.031 Q 132.579 1.63 132.403 1.537 Q 132.226 1.443 131.726 1.443 L 131.726 1.091 L 133.187 0.904 L 133.53 0.904 L 133.53 4.873 Q 133.53 5.167 133.584 5.305 Q 133.637 5.442 133.775 5.476 Q 133.912 5.51 134.157 5.51 Z " fill="black" /><path d="M 138.087 5.03 L 138.087 5.03 L 138.312 5.216 Q 138.096 5.51 137.92 5.711 Q 137.744 5.912 137.518 6.02 Q 137.293 6.128 136.94 6.128 Q 136.372 6.128 136.112 5.804 Q 135.852 5.481 135.852 4.766 L 135.852 1.473 L 135.235 1.473 L 135.235 1.179 Q 135.588 0.924 135.882 0.557 Q 136.176 0.189 136.47 -0.497 L 136.813 -0.497 L 136.803 0.993 L 138.047 0.993 L 138.047 1.473 L 136.803 1.473 L 136.803 4.442 Q 136.803 4.991 136.906 5.221 Q 137.009 5.452 137.322 5.452 Q 137.606 5.452 137.753 5.349 Q 137.9 5.246 138.087 5.03 Z " fill="black" /></g></g></g></svg>