<svg xmlns="http://www.w3.org/2000/svg" xmlns:xlink="http://www.w3.org/1999/xlink" xml:lang="en" height="70.39999999999999pt" width="558.2719999999999pt" viewBox="-29.191999999999997 -47.8 558.2719999999999 70.39999999999999"><path d="M 0.0,-0.0 L 18.0,-0.0 L 36.0,-0.0" style="stroke:black;fill:none;stroke-width:2.0;stroke-dasharray:-;stroke-linecap:round;stroke-linejoin:round;" /><path d="M 36.0,-0.0 L 36.0,-18.0 L 72.0,-18.0 L 72.0,18.0 L 36.0,18.0 L 36.0,-0.0" style="stroke:black;fill:none;stroke-width:2.0;stroke-dasharray:-;stroke-linecap:round;stroke-linejoin:round;" /><path d="M 72.0,-0.0 L 90.0,-0.0 L 108.0,-0.0" style="stroke:black;fill:none;stroke-width:2.0;stroke-dasharray:-;stroke-linecap:round;stroke-linejoin:round;" /><path d="M 108.0,-0.0 L 108.0,18.0 L 135.0,-0.0 L 108.0,-18.0 L 108.0,-0.0" style="stroke:black;fill:none;stroke-width:2.0;stroke-dasharray:-;stroke-linecap:round;stroke-linejoin:round;" /><path d="M 135.0,-0.0 L 153.0,-0.0 L 171.0,-0.0" style="stroke:black;fill:none;stroke-width:2.0;stroke-dasharray:-;stroke-linecap:round;stroke-linejoin:round;" /><path d="M 171.0,-0.0 L 171.0,-21.599999999999998 L 157.32,-43.199999999999996 L 184.68,-43.199999999999996 L 171.0,-21.599999999999998" style="stroke:black;fill:none;stroke-width:2.0;stroke-dasharray:-;stroke-linecap:round;stroke-linejoin:round;" /><path d="M 207.0,-0.0 L 243.0,-0.0 L 270.0,-0.0" style="stroke:blue;fill:none;stroke-width:2.0;stroke-dasharray:-;stroke-linecap:round;stroke-linejoin:round;" /><path d="M 277.0 0.0 L 270.0 2.6999999999999997 L 270.0 -2.6999999999999997 Z" style="stroke:blue;fill:blue;stroke-linecap:butt;stroke-linejoin:miter;" /><path d="M 315.0,-0.0 L 315.0,-21.599999999999998 L 301.32,-43.199999999999996 L 328.68,-43.199999999999996 L 315.0,-21.599999999999998" style="stroke:black;fill:none;stroke-width:2.0;stroke-dasharray:-;stroke-linecap:round;stroke-linejoin:round;" /><path d="M 315.0,-0.0 L 333.0,-0.0 L 351.0,-0.0" style="stroke:black;fill:none;stroke-width:2.0;stroke-dasharray:-;stroke-linecap:round;stroke-linejoin:round;" /><path d="M 351.0,-0.0 L 351.0,-18.0 L 387.0,-18.0 L 387.0,18.0 L 351.0,18.0 L 351.0,-0.0" style="stroke:black;fill:none;stroke-width:2.0;stroke-dasharray:-;stroke-linecap:round;stroke-linejoin:round;" /><path d="M 358.2,-4.4087284769304716e-16 L 359.33684210526314,-1.168918089136861 L 360.47368421052636,-2.2111657656828045 L 361.61052631578946,-3.013799321745103 L 362.7473684210526,-3.4898409573815896 L 363.88421052631577,-3.5877041748240117 L 365.021052631579,-3.2967839759582067 L 366.1578947368421,-2.648606078423274 L 367.2947368421053,-1.7134106149334647 L 368.43157894736845,-0.5925405250106421 L 369.56842105263155,0.5925405250106421 L 370.7052631578947,1.7134106149334647 L 371.8421052631579,2.6486060784232732 L 372.978947368421,3.2967839759582063 L 374.11578947368423,3.5877041748240117 L 375.2526315789474,3.48984095738159 L 376.38947368421054,3.013799321745103 L 377.52631578947364,2.2111657656828045 L 378.66315789473686,1.168918089136861 L 379.8,4.4087284769304716e-16" style="stroke:black;fill:none;stroke-width:2.0;stroke-dasharray:-;stroke-linecap:round;stroke-linejoin:round;" /><path d="M 358.2,-9.0 L 359.33684210526314,-10.16891808913686 L 360.47368421052636,-11.211165765682804 L 361.61052631578946,-12.013799321745104 L 362.7473684210526,-12.489840957381588 L 363.88421052631577,-12.587704174824012 L 365.021052631579,-12.296783975958206 L 366.1578947368421,-11.648606078423274 L 367.2947368421053,-10.713410614933464 L 368.43157894736845,-9.592540525010643 L 369.56842105263155,-8.407459474989357 L 370.7052631578947,-7.286589385066535 L 371.8421052631579,-6.351393921576727 L 372.978947368421,-5.703216024041794 L 374.11578947368423,-5.412295825175989 L 375.2526315789474,-5.51015904261841 L 376.38947368421054,-5.986200678254896 L 377.52631578947364,-6.7888342343171955 L 378.66315789473686,-7.831081910863139 L 379.8,-9.0" style="stroke:black;fill:none;stroke-width:2.0;stroke-dasharray:-;stroke-linecap:round;stroke-linejoin:round;" /><path d="M 358.2,9.0 L 359.33684210526314,7.831081910863139 L 360.47368421052636,6.7888342343171955 L 361.61052631578946,5.986200678254896 L 362.7473684210526,5.510159042618411 L 363.88421052631577,5.412295825175989 L 365.021052631579,5.703216024041793 L 366.1578947368421,6.351393921576726 L 367.2947368421053,7.286589385066535 L 368.43157894736845,8.407459474989357 L 369.56842105263155,9.592540525010643 L 370.7052631578947,10.713410614933464 L 371.8421052631579,11.648606078423274 L 372.978947368421,12.296783975958206 L 374.11578947368423,12.587704174824012 L 375.2526315789474,12.489840957381592 L 376.38947368421054,12.013799321745104 L 377.52631578947364,11.211165765682804 L 378.66315789473686,10.16891808913686 L 379.8,9.0" style="stroke:black;fill:none;stroke-width:2.0;stroke-dasharray:-;stroke-linecap:round;stroke-linejoin:round;" /><path d="M 367.2,-6.12 L 370.8,-11.88" style="stroke:black;fill:none;stroke-width:2.0;stroke-dasharray:-;stroke-linecap:round;stroke-linejoin:round;" /><path d="M 367.2,11.88 L 370.8,6.12" style="stroke:black;fill:none;stroke-width:2.0;stroke-dasharray:-;stroke-linecap:round;stroke-linejoin:round;" /><path d="M 387.0,-0.0 L 405.0,-0.0 L 423.0,-0.0" style="stroke:black;fill:none;stroke-width:2.0;stroke-dasharray:-;stroke-linecap:round;stroke-linejoin:round;" /><path d="M 423.0,-0.0 L 423.0,-18.0 L 459.0,-18.0 L 459.0,18.0 L 423.0,18.0 L 423.0,-0.0" style="stroke:black;fill:none;stroke-width:2.0;stroke-dasharray:-;stroke-linecap:round;stroke-linejoin:round;" /><path d="M 459.0,-0.0 L 477.0,-0.0 L 495.0,-0.0" style="stroke:black;fill:none;stroke-width:2.0;stroke-dasharray:-;stroke-linecap:round;stroke-linejoin:round;" /><g><g><g><path d="M 49.36 5.256 L 49.36 5.256 L 49.36 -4.104 L 46.128 -4.104 L 46.128 -5.256 L 53.968 -5.256 L 53.968 -4.104 L 50.72 -4.104 L 50.72 5.256 Z " fill="black" /><path d="M 54.704 5.256 L 54.704 5.256 L 57.824 -0.184 L 54.896 -5.256 L 56.4 -5.256 L 57.856 -2.584 Q 58.08 -2.232 58.264 -1.872 Q 58.448 -1.512 58.704 -1.048 L 58.768 -1.048 Q 58.992 -1.512 59.16 -1.872 Q 59.328 -2.232 59.52 -2.584 L 60.944 -5.256 L 62.384 -5.256 L 59.472 -0.104 L 62.592 5.256 L 61.088 5.256 L 59.52 2.44 Q 59.28 1.992 59.144 1.744 Q 59.008 1.496 58.928 1.36 Q 58.848 1.224 58.776 1.096 Q 58.704 0.968 58.592 0.76 L 58.528 0.76 Q 58.304 1.24 58.096 1.64 Q 57.888 2.04 57.68 2.44 L 56.144 5.256 Z " fill="black" /></g></g></g><g><g><g><path d="M 216.136 -9.192 L 216.136 -9.192 L 216.136 -19.704 L 222.328 -19.704 L 222.328 -18.552 L 217.512 -18.552 L 217.512 -15.272 L 221.576 -15.272 L 221.576 -14.136 L 217.512 -14.136 L 217.512 -10.36 L 222.488 -10.36 L 222.488 -9.192 Z " fill="blue" /><path d="M 224.76 -9.192 L 224.76 -9.192 L 224.76 -19.704 L 226.408 -19.704 L 228.472 -14.104 Q 228.664 -13.576 228.848 -13.024 Q 229.032 -12.472 229.24 -11.928 L 229.288 -11.928 Q 229.48 -12.472 229.664 -13.024 Q 229.848 -13.576 230.04 -14.104 L 232.072 -19.704 L 233.72 -19.704 L 233.72 -9.192 L 232.44 -9.192 L 232.44 -14.92 Q 232.44 -15.624 232.496 -16.488 Q 232.552 -17.352 232.616 -18.04 L 232.552 -18.04 L 231.704 -15.64 L 229.688 -10.248 L 228.776 -10.248 L 226.744 -15.64 L 225.896 -18.04 L 225.832 -18.04 Q 225.896 -17.352 225.952 -16.488 Q 226.008 -15.624 226.008 -14.92 L 226.008 -9.192 Z " fill="blue" /><path d="M 241.4 -9.192 L 241.4 -9.192 L 239.304 -16.776 L 240.616 -16.776 L 241.736 -12.392 Q 241.864 -11.848 241.968 -11.328 Q 242.072 -10.808 242.168 -10.28 L 242.232 -10.28 Q 242.36 -10.808 242.488 -11.336 Q 242.616 -11.864 242.744 -12.392 L 243.912 -16.776 L 245.144 -16.776 L 246.344 -12.392 Q 246.472 -11.848 246.6 -11.328 Q 246.728 -10.808 246.856 -10.28 L 246.92 -10.28 Q 247.048 -10.808 247.16 -11.328 Q 247.272 -11.848 247.384 -12.392 L 248.488 -16.776 L 249.704 -16.776 L 247.672 -9.192 L 246.12 -9.192 L 245.032 -13.256 Q 244.904 -13.8 244.784 -14.336 Q 244.664 -14.872 244.536 -15.448 L 244.472 -15.448 Q 244.344 -14.872 244.224 -14.328 Q 244.104 -13.784 243.944 -13.24 L 242.904 -9.192 Z " fill="blue" /><path d="M 253.064 -9 L 253.064 -9 Q 252.136 -9 251.504 -9.568 Q 250.872 -10.136 250.872 -11.16 Q 250.872 -12.408 251.976 -13.072 Q 253.08 -13.736 255.496 -13.992 Q 255.496 -14.488 255.368 -14.92 Q 255.24 -15.352 254.896 -15.624 Q 254.552 -15.896 253.928 -15.896 Q 253.304 -15.896 252.728 -15.64 Q 252.152 -15.384 251.704 -15.096 L 251.192 -15.976 Q 251.72 -16.328 252.488 -16.64 Q 253.256 -16.952 254.152 -16.952 Q 255.528 -16.952 256.152 -16.112 Q 256.776 -15.272 256.776 -13.848 L 256.776 -9.192 L 255.72 -9.192 L 255.608 -10.104 L 255.576 -10.104 Q 255.032 -9.656 254.408 -9.328 Q 253.784 -9 253.064 -9 Z M 253.448 -10.04 L 253.448 -10.04 Q 253.992 -10.04 254.472 -10.304 Q 254.952 -10.568 255.496 -11.032 L 255.496 -13.144 Q 253.64 -12.92 252.88 -12.456 Q 252.12 -11.992 252.12 -11.24 Q 252.12 -10.616 252.512 -10.328 Q 252.904 -10.04 253.448 -10.04 Z " fill="blue" /><path d="M 260.776 -9.192 L 260.776 -9.192 L 258.072 -16.776 L 259.384 -16.776 L 260.808 -12.472 Q 260.984 -11.928 261.16 -11.352 Q 261.336 -10.776 261.496 -10.232 L 261.56 -10.232 Q 261.736 -10.776 261.912 -11.352 Q 262.088 -11.928 262.248 -12.472 L 263.672 -16.776 L 264.936 -16.776 L 262.264 -9.192 Z " fill="blue" /><path d="M 269.464 -9 L 269.464 -9 Q 268.456 -9 267.632 -9.472 Q 266.808 -9.944 266.32 -10.832 Q 265.832 -11.72 265.832 -12.952 Q 265.832 -14.2 266.312 -15.096 Q 266.792 -15.992 267.584 -16.472 Q 268.376 -16.952 269.304 -16.952 Q 270.648 -16.952 271.44 -15.992 Q 272.232 -15.032 272.232 -13.4 Q 272.232 -13.192 272.216 -13.008 Q 272.2 -12.824 272.168 -12.68 L 267.096 -12.68 Q 267.176 -11.464 267.848 -10.744 Q 268.52 -10.024 269.608 -10.024 Q 270.136 -10.024 270.6 -10.192 Q 271.064 -10.36 271.48 -10.632 L 271.928 -9.8 Q 271.432 -9.464 270.824 -9.232 Q 270.216 -9 269.464 -9 Z M 267.096 -13.592 L 267.096 -13.592 L 271.112 -13.592 Q 271.112 -14.728 270.624 -15.328 Q 270.136 -15.928 269.288 -15.928 Q 268.456 -15.928 267.84 -15.336 Q 267.224 -14.744 267.096 -13.592 Z " fill="blue" /></g></g></g><g><g><g><path d="M 434.344 5.256 L 434.344 5.256 L 434.344 -5.256 L 437.72 -5.256 Q 438.808 -5.256 439.656 -4.968 Q 440.504 -4.68 440.984 -4.04 Q 441.464 -3.4 441.464 -2.312 Q 441.464 -1.048 440.808 -0.312 Q 440.152 0.424 439.064 0.68 L 441.784 5.256 L 440.232 5.256 L 437.656 0.824 L 435.72 0.824 L 435.72 5.256 Z M 435.72 -0.28 L 435.72 -0.28 L 437.512 -0.28 Q 438.76 -0.28 439.432 -0.776 Q 440.104 -1.272 440.104 -2.296 Q 440.104 -3.32 439.432 -3.736 Q 438.76 -4.152 437.512 -4.152 L 435.72 -4.152 Z " fill="black" /><path d="M 442.472 5.256 L 442.472 5.256 L 445.592 -0.184 L 442.664 -5.256 L 444.168 -5.256 L 445.624 -2.584 Q 445.848 -2.232 446.032 -1.872 Q 446.216 -1.512 446.472 -1.048 L 446.536 -1.048 Q 446.76 -1.512 446.928 -1.872 Q 447.096 -2.232 447.288 -2.584 L 448.712 -5.256 L 450.152 -5.256 L 447.24 -0.104 L 450.36 5.256 L 448.856 5.256 L 447.288 2.44 Q 447.048 1.992 446.912 1.744 Q 446.776 1.496 446.696 1.36 Q 446.616 1.224 446.544 1.096 Q 446.472 0.968 446.36 0.76 L 446.296 0.76 Q 446.072 1.24 445.864 1.64 Q 445.656 2.04 445.448 2.44 L 443.912 5.256 Z " fill="black" /></g></g></g><circle cx="0.0" cy="-0.0" r="2.6999999999999997" style="stroke:black;fill:white;stroke-width:2.0;stroke-dasharray:-;" /><g><g><g><path d="M -20.816 -8.156 L -20.816 -8.156 Q -21.728 -8.156 -22.408 -8.636 Q -23.088 -9.116 -23.472 -9.988 Q -23.856 -10.86 -23.856 -12.028 Q -23.856 -13.356 -23.4 -14.26 Q -22.944 -15.164 -22.192 -15.636 Q -21.44 -16.108 -20.576 -16.108 Q -19.952 -16.108 -19.472 -15.884 Q -18.992 -15.66 -18.496 -15.244 L -18.544 -16.54 L -18.544 -19.644 L -17.264 -19.644 L -17.264 -8.348 L -18.32 -8.348 L -18.432 -9.244 L -18.48 -9.244 Q -18.928 -8.796 -19.496 -8.476 Q -20.064 -8.156 -20.816 -8.156 Z M -20.496 -9.244 L -20.496 -9.244 Q -19.952 -9.244 -19.488 -9.508 Q -19.024 -9.772 -18.544 -10.268 L -18.544 -14.252 Q -19.024 -14.684 -19.464 -14.86 Q -19.904 -15.036 -20.32 -15.036 Q -21.264 -15.036 -21.904 -14.252 Q -22.544 -13.468 -22.544 -12.044 Q -22.544 -10.78 -22.008 -10.012 Q -21.472 -9.244 -20.496 -9.244 Z " fill="black" /><path d="M -13.008 -8.156 L -13.008 -8.156 Q -13.936 -8.156 -14.568 -8.724 Q -15.2 -9.292 -15.2 -10.316 Q -15.2 -11.564 -14.096 -12.228 Q -12.992 -12.892 -10.576 -13.148 Q -10.576 -13.644 -10.704 -14.076 Q -10.832 -14.508 -11.176 -14.78 Q -11.52 -15.052 -12.144 -15.052 Q -12.768 -15.052 -13.344 -14.796 Q -13.92 -14.54 -14.368 -14.252 L -14.88 -15.132 Q -14.352 -15.484 -13.584 -15.796 Q -12.816 -16.108 -11.92 -16.108 Q -10.544 -16.108 -9.92 -15.268 Q -9.296 -14.428 -9.296 -13.004 L -9.296 -8.348 L -10.352 -8.348 L -10.464 -9.26 L -10.496 -9.26 Q -11.04 -8.812 -11.664 -8.484 Q -12.288 -8.156 -13.008 -8.156 Z M -12.624 -9.196 L -12.624 -9.196 Q -12.08 -9.196 -11.6 -9.46 Q -11.12 -9.724 -10.576 -10.188 L -10.576 -12.3 Q -12.432 -12.076 -13.192 -11.612 Q -13.952 -11.148 -13.952 -10.396 Q -13.952 -9.772 -13.56 -9.484 Q -13.168 -9.196 -12.624 -9.196 Z " fill="black" /><path d="M -4.608 -8.156 L -4.608 -8.156 Q -5.728 -8.156 -6.216 -8.86 Q -6.704 -9.564 -6.704 -10.7 L -6.704 -14.796 L -7.808 -14.796 L -7.808 -15.756 L -6.64 -15.836 L -6.48 -18.06 L -5.424 -18.06 L -5.424 -15.836 L -3.392 -15.836 L -3.392 -14.796 L -5.424 -14.796 L -5.424 -10.668 Q -5.424 -9.996 -5.168 -9.604 Q -4.912 -9.212 -4.304 -9.212 Q -4.048 -9.212 -3.816 -9.276 Q -3.584 -9.34 -3.408 -9.42 L -3.152 -8.444 Q -3.472 -8.332 -3.832 -8.244 Q -4.192 -8.156 -4.608 -8.156 Z " fill="black" /><path d="M 0.032 -8.156 L 0.032 -8.156 Q -0.896 -8.156 -1.528 -8.724 Q -2.16 -9.292 -2.16 -10.316 Q -2.16 -11.564 -1.056 -12.228 Q 0.048 -12.892 2.464 -13.148 Q 2.464 -13.644 2.336 -14.076 Q 2.208 -14.508 1.864 -14.78 Q 1.52 -15.052 0.896 -15.052 Q 0.272 -15.052 -0.304 -14.796 Q -0.88 -14.54 -1.328 -14.252 L -1.84 -15.132 Q -1.312 -15.484 -0.544 -15.796 Q 0.224 -16.108 1.12 -16.108 Q 2.496 -16.108 3.12 -15.268 Q 3.744 -14.428 3.744 -13.004 L 3.744 -8.348 L 2.688 -8.348 L 2.576 -9.26 L 2.544 -9.26 Q 2 -8.812 1.376 -8.484 Q 0.752 -8.156 0.032 -8.156 Z M 0.416 -9.196 L 0.416 -9.196 Q 0.96 -9.196 1.44 -9.46 Q 1.92 -9.724 2.464 -10.188 L 2.464 -12.3 Q 0.608 -12.076 -0.152 -11.612 Q -0.912 -11.148 -0.912 -10.396 Q -0.912 -9.772 -0.52 -9.484 Q -0.128 -9.196 0.416 -9.196 Z " fill="black" /><path d="M 13.04 -6.3 L 13.04 -6.3 L 4.848 -6.3 L 4.848 -7.116 L 13.04 -7.116 Z " fill="black" /><path d="M 14.304 -8.348 L 14.304 -8.348 L 14.304 -15.932 L 15.584 -15.932 L 15.584 -8.348 Z M 14.96 -17.484 L 14.96 -17.484 Q 14.592 -17.484 14.336 -17.724 Q 14.08 -17.964 14.08 -18.316 Q 14.08 -18.684 14.336 -18.916 Q 14.592 -19.148 14.96 -19.148 Q 15.328 -19.148 15.584 -18.916 Q 15.84 -18.684 15.84 -18.316 Q 15.84 -17.964 15.584 -17.724 Q 15.328 -17.484 14.96 -17.484 Z " fill="black" /><path d="M 18.128 -8.348 L 18.128 -8.348 L 18.128 -15.932 L 19.184 -15.932 L 19.296 -14.844 L 19.344 -14.844 Q 19.888 -15.372 20.48 -15.74 Q 21.072 -16.108 21.904 -16.108 Q 23.04 -16.108 23.608 -15.356 Q 24.176 -14.604 24.176 -13.148 L 24.176 -8.348 L 22.88 -8.348 L 22.88 -12.988 Q 22.88 -14.044 22.552 -14.516 Q 22.224 -14.988 21.488 -14.988 Q 20.896 -14.988 20.432 -14.7 Q 19.968 -14.412 19.408 -13.836 L 19.408 -8.348 Z " fill="black" /></g></g></g><circle cx="495.0" cy="-0.0" r="2.6999999999999997" style="stroke:black;fill:white;stroke-width:2.0;stroke-dasharray:-;" /><g><g><g><path d="M 469.296 -8.156 L 469.296 -8.156 Q 468.384 -8.156 467.704 -8.636 Q 467.024 -9.116 466.64 -9.988 Q 466.256 -10.86 466.256 -12.028 Q 466.256 -13.356 466.712 -14.26 Q 467.168 -15.164 467.92 -15.636 Q 468.672 -16.108 469.536 -16.108 Q 470.16 -16.108 470.64 -15.884 Q 471.12 -15.66 471.616 -15.244 L 471.568 -16.54 L 471.568 -19.644 L 472.848 -19.644 L 472.848 -8.348 L 471.792 -8.348 L 471.68 -9.244 L 471.632 -9.244 Q 471.184 -8.796 470.616 -8.476 Q 470.048 -8.156 469.296 -8.156 Z M 469.616 -9.244 L 469.616 -9.244 Q 470.16 -9.244 470.624 -9.508 Q 471.088 -9.772 471.568 -10.268 L 471.568 -14.252 Q 471.088 -14.684 470.648 -14.86 Q 470.208 -15.036 469.792 -15.036 Q 468.848 -15.036 468.208 -14.252 Q 467.568 -13.468 467.568 -12.044 Q 467.568 -10.78 468.104 -10.012 Q 468.64 -9.244 469.616 -9.244 Z " fill="black" /><path d="M 477.104 -8.156 L 477.104 -8.156 Q 476.176 -8.156 475.544 -8.724 Q 474.912 -9.292 474.912 -10.316 Q 474.912 -11.564 476.016 -12.228 Q 477.12 -12.892 479.536 -13.148 Q 479.536 -13.644 479.408 -14.076 Q 479.28 -14.508 478.936 -14.78 Q 478.592 -15.052 477.968 -15.052 Q 477.344 -15.052 476.768 -14.796 Q 476.192 -14.54 475.744 -14.252 L 475.232 -15.132 Q 475.76 -15.484 476.528 -15.796 Q 477.296 -16.108 478.192 -16.108 Q 479.568 -16.108 480.192 -15.268 Q 480.816 -14.428 480.816 -13.004 L 480.816 -8.348 L 479.76 -8.348 L 479.648 -9.26 L 479.616 -9.26 Q 479.072 -8.812 478.448 -8.484 Q 477.824 -8.156 477.104 -8.156 Z M 477.488 -9.196 L 477.488 -9.196 Q 478.032 -9.196 478.512 -9.46 Q 478.992 -9.724 479.536 -10.188 L 479.536 -12.3 Q 477.68 -12.076 476.92 -11.612 Q 476.16 -11.148 476.16 -10.396 Q 476.16 -9.772 476.552 -9.484 Q 476.944 -9.196 477.488 -9.196 Z " fill="black" /><path d="M 485.504 -8.156 L 485.504 -8.156 Q 484.384 -8.156 483.896 -8.86 Q 483.408 -9.564 483.408 -10.7 L 483.408 -14.796 L 482.304 -14.796 L 482.304 -15.756 L 483.472 -15.836 L 483.632 -18.06 L 484.688 -18.06 L 484.688 -15.836 L 486.72 -15.836 L 486.72 -14.796 L 484.688 -14.796 L 484.688 -10.668 Q 484.688 -9.996 484.944 -9.604 Q 485.2 -9.212 485.808 -9.212 Q 486.064 -9.212 486.296 -9.276 Q 486.528 -9.34 486.704 -9.42 L 486.96 -8.444 Q 486.64 -8.332 486.28 -8.244 Q 485.92 -8.156 485.504 -8.156 Z " fill="black" /><path d="M 490.144 -8.156 L 490.144 -8.156 Q 489.216 -8.156 488.584 -8.724 Q 487.952 -9.292 487.952 -10.316 Q 487.952 -11.564 489.056 -12.228 Q 490.16 -12.892 492.576 -13.148 Q 492.576 -13.644 492.448 -14.076 Q 492.32 -14.508 491.976 -14.78 Q 491.632 -15.052 491.008 -15.052 Q 490.384 -15.052 489.808 -14.796 Q 489.232 -14.54 488.784 -14.252 L 488.272 -15.132 Q 488.8 -15.484 489.568 -15.796 Q 490.336 -16.108 491.232 -16.108 Q 492.608 -16.108 493.232 -15.268 Q 493.856 -14.428 493.856 -13.004 L 493.856 -8.348 L 492.8 -8.348 L 492.688 -9.26 L 492.656 -9.26 Q 492.112 -8.812 491.488 -8.484 Q 490.864 -8.156 490.144 -8.156 Z M 490.528 -9.196 L 490.528 -9.196 Q 491.072 -9.196 491.552 -9.46 Q 492.032 -9.724 492.576 -10.188 L 492.576 -12.3 Q 490.72 -12.076 489.96 -11.612 Q 489.2 -11.148 489.2 -10.396 Q 489.2 -9.772 489.592 -9.484 Q 489.984 -9.196 490.528 -9.196 Z " fill="black" /><path d="M 503.152 -6.3 L 503.152 -6.3 L 494.96 -6.3 L 494.96 -7.116 L 503.152 -7.116 Z " fill="black" /><path d="M 507.344 -8.156 L 507.344 -8.156 Q 506.432 -8.156 505.632 -8.628 Q 504.832 -9.1 504.344 -9.988 Q 503.856 -10.876 503.856 -12.14 Q 503.856 -13.404 504.344 -14.284 Q 504.832 -15.164 505.632 -15.636 Q 506.432 -16.108 507.344 -16.108 Q 508.272 -16.108 509.072 -15.636 Q 509.872 -15.164 510.36 -14.284 Q 510.848 -13.404 510.848 -12.14 Q 510.848 -10.876 510.36 -9.988 Q 509.872 -9.1 509.072 -8.628 Q 508.272 -8.156 507.344 -8.156 Z M 507.344 -9.228 L 507.344 -9.228 Q 508.32 -9.228 508.92 -10.028 Q 509.52 -10.828 509.52 -12.14 Q 509.52 -13.436 508.92 -14.236 Q 508.32 -15.036 507.344 -15.036 Q 506.384 -15.036 505.784 -14.236 Q 505.184 -13.436 505.184 -12.14 Q 505.184 -10.828 505.784 -10.028 Q 506.384 -9.228 507.344 -9.228 Z " fill="black" /><path d="M 514.992 -8.156 L 514.992 -8.156 Q 513.84 -8.156 513.28 -8.924 Q 512.72 -9.692 512.72 -11.116 L 512.72 -15.932 L 514 -15.932 L 514 -11.292 Q 514 -10.252 514.336 -9.764 Q 514.672 -9.276 515.408 -9.276 Q 516 -9.276 516.448 -9.58 Q 516.896 -9.884 517.44 -10.556 L 517.44 -15.932 L 518.72 -15.932 L 518.72 -8.348 L 517.648 -8.348 L 517.552 -9.532 L 517.504 -9.532 Q 516.944 -8.876 516.36 -8.516 Q 515.776 -8.156 514.992 -8.156 Z " fill="black" /><path d="M 523.568 -8.156 L 523.568 -8.156 Q 522.448 -8.156 521.96 -8.86 Q 521.472 -9.564 521.472 -10.7 L 521.472 -14.796 L 520.368 -14.796 L 520.368 -15.756 L 521.536 -15.836 L 521.696 -18.06 L 522.752 -18.06 L 522.752 -15.836 L 524.784 -15.836 L 524.784 -14.796 L 522.752 -14.796 L 522.752 -10.668 Q 522.752 -9.996 523.008 -9.604 Q 523.264 -9.212 523.872 -9.212 Q 524.128 -9.212 524.36 -9.276 Q 524.592 -9.34 524.768 -9.42 L 525.024 -8.444 Q 524.704 -8.332 524.344 -8.244 Q 523.984 -8.156 523.568 -8.156 Z " fill="black" /></g></g></g></svg>