<svg xmlns="http://www.w3.org/2000/svg" xmlns:xlink="http://www.w3.org/1999/xlink" xml:lang="en" height="334.64000000000004pt" width="238.28939999999997pt" viewBox="-102.47600000000003 -19.0 238.28939999999997 334.64000000000004"><circle cx="-6.613092715395707e-15" cy="36.0" r="18.0" style="stroke:black;fill:none;stroke-width:2.0;stroke-dasharray:-;" /><circle cx="-4.629164900776995e-14" cy="252.0" r="18.0" style="stroke:black;fill:none;stroke-width:2.0;stroke-dasharray:-;" /><path d="M 0.0,-0.0 L 0.0,-14.4" style="stroke:black;fill:none;stroke-width:2.0;stroke-dasharray:-;stroke-linecap:round;stroke-linejoin:round;" /><path d="M 0.0,-14.4 L -6.75,-14.4" style="stroke:black;fill:none;stroke-width:2.0;stroke-dasharray:-;stroke-linecap:round;stroke-linejoin:round;" /><path d="M 0.0,-14.4 L 6.75,-14.4" style="stroke:black;fill:none;stroke-width:2.0;stroke-dasharray:-;stroke-linecap:round;stroke-linejoin:round;" /><path d="M 0.0,-0.0 L -3.3065463576978533e-15,18.0 L -3.3065463576978533e-15,18.0 M -9.919639073093561e-15,54.0 L -9.919639073093561e-15,54.0 L -1.3226185430791413e-14,72.0" style="stroke:black;fill:none;stroke-width:2.0;stroke-dasharray:-;stroke-linecap:round;stroke-linejoin:round;" /><path d="M -4.9598195365467806e-15,27.0 L -6.819055509535661e-15,36.0" style="stroke:black;fill:none;stroke-width:2.0;stroke-dasharray:-;stroke-linecap:round;stroke-linejoin:round;" /><path d="M -7.944741364309306e-15 43.0 L -2.7000000000000064 36.0 L 2.699999999999993 36.0 Z" style="stroke:black;fill:black;stroke-linecap:butt;stroke-linejoin:miter;" /><path d="M -1.3226185430791413e-14,72.0 L -1.6532731788489267e-14,90.0 M -3.6000000000000183,98.64000000000001 L -16.200000000000024,118.8 M -2.3145824503884975e-14,126.0 L -2.6452370861582827e-14,144.0" style="stroke:black;fill:none;stroke-width:2.0;stroke-dasharray:-;stroke-linecap:round;stroke-linejoin:round;" /><path d="M -2.6452370861582827e-14,144.0 L -2.975891721928068e-14,162.0 M -16.20000000000003,169.20000000000002 L -3.600000000000035,189.35999999999999 M -3.637200993467639e-14,198.0 L -3.9678556292374245e-14,216.0" style="stroke:black;fill:none;stroke-width:2.0;stroke-dasharray:-;stroke-linecap:round;stroke-linejoin:round;" /><path d="M -3.9678556292374245e-14,216.0 L -4.29851026500721e-14,234.0 L -4.29851026500721e-14,234.0 M -4.9598195365467804e-14,270.0 L -4.9598195365467804e-14,270.0 L -5.2904741723165653e-14,288.0" style="stroke:black;fill:none;stroke-width:2.0;stroke-dasharray:-;stroke-linecap:round;stroke-linejoin:round;" /><path d="M -4.4638375828921025e-14,243.0 L -4.6497611801909906e-14,252.0" style="stroke:black;fill:none;stroke-width:2.0;stroke-dasharray:-;stroke-linecap:round;stroke-linejoin:round;" /><path d="M -4.762329765668355e-14 259.0 L -2.700000000000046 252.0 L 2.6999999999999535 252.0 Z" style="stroke:black;fill:black;stroke-linecap:butt;stroke-linejoin:miter;" /><path d="M -5.2904741723165653e-14,288.0 L -5.2904741723165653e-14,302.40000000000003 L -9.000000000000052,302.40000000000003 L 8.999999999999947,302.40000000000003 M -6.300000000000052,306.71999999999997 L 6.2999999999999465,306.71999999999997 M -1.8000000000000531,311.04 L 1.7999999999999472,311.04" style="stroke:black;fill:none;stroke-width:2.0;stroke-dasharray:-;stroke-linecap:round;stroke-linejoin:round;" /><path d="M -2.6452370861582827e-14,144.0 L 35.99999999999997,144.0 L 71.99999999999997,144.0" style="stroke:black;fill:none;stroke-width:2.0;stroke-dasharray:-;stroke-linecap:round;stroke-linejoin:round;" /><path d="M 71.99999999999997,144.0 L 89.99999999999997,144.0 L 107.99999999999997,144.0" style="stroke:black;fill:none;stroke-width:2.0;stroke-dasharray:-;stroke-linecap:round;stroke-linejoin:round;" /><path d="M 71.99999999999997,144.0 L 71.99999999999997,162.0 L 80.99999999999997,165.0 L 62.99999999999997,171.0 L 80.99999999999997,177.0 L 62.99999999999997,183.0 L 80.99999999999997,189.0 L 62.99999999999997,194.99999999999997 L 71.99999999999997,198.0 L 71.99999999999996,216.0" style="stroke:blue;fill:none;stroke-width:2.0;stroke-dasharray:-;stroke-linecap:round;stroke-linejoin:round;" /><path d="M 71.99999999999996,216.0 L 71.99999999999996,248.76 M 80.99999999999996,248.76 L 62.99999999999995,248.76 M 80.99999999999996,255.24 L 62.99999999999995,255.24 M 71.99999999999996,255.24 L 71.99999999999994,288.0" style="stroke:black;fill:none;stroke-width:2.0;stroke-dasharray:-;stroke-linecap:round;stroke-linejoin:round;" /><path d="M 71.99999999999994,288.0 L 71.99999999999994,302.40000000000003 L 62.99999999999994,302.40000000000003 L 80.99999999999994,302.40000000000003 M 65.69999999999995,306.71999999999997 L 78.29999999999994,306.71999999999997 M 70.19999999999995,311.04 L 73.79999999999994,311.04" style="stroke:black;fill:none;stroke-width:2.0;stroke-dasharray:-;stroke-linecap:round;stroke-linejoin:round;" /><path d="M -27.00000000000003,108.0 L -36.00000000000003,108.0 L -54.00000000000003,108.0" style="stroke:black;fill:none;stroke-width:2.0;stroke-dasharray:-;stroke-linecap:round;stroke-linejoin:round;" /><path d="M -20.00000000000003 108.0 L -27.00000000000003 110.7 L -27.00000000000003 105.3 Z" style="stroke:black;fill:black;stroke-linecap:butt;stroke-linejoin:miter;" /><path d="M -27.00000000000003,180.0 L -36.00000000000003,180.0 L -54.00000000000003,180.0" style="stroke:black;fill:none;stroke-width:2.0;stroke-dasharray:-;stroke-linecap:round;stroke-linejoin:round;" /><path d="M -20.00000000000003 180.0 L -27.00000000000003 182.7 L -27.00000000000003 177.3 Z" style="stroke:black;fill:black;stroke-linecap:butt;stroke-linejoin:miter;" /><g><g><g><path d="M -39.664 37.236 L -39.664 37.236 L -38.516 31.72 Q -38.39 31.174 -38.397 30.859 Q -38.404 30.544 -38.656 30.418 Q -38.908 30.292 -39.552 30.292 L -39.468 29.872 L -35.59 29.872 L -35.674 30.292 Q -36.29 30.292 -36.598 30.418 Q -36.906 30.544 -37.032 30.859 Q -37.158 31.174 -37.27 31.72 L -38.418 37.292 Q -38.46 37.516 -38.488 37.698 Q -38.516 37.88 -38.516 38.034 Q -38.516 38.426 -38.285 38.538 Q -38.054 38.65 -37.396 38.65 L -37.48 39.07 L -41.302 39.07 L -41.218 38.65 Q -40.644 38.65 -40.357 38.552 Q -40.07 38.454 -39.93 38.153 Q -39.79 37.852 -39.664 37.236 Z " fill="black" /><path d="M -28.985 40.413 L -28.985 40.413 L -28.691 40.658 Q -28.956 41.069 -29.338 41.403 Q -29.72 41.736 -30.259 41.932 Q -30.798 42.128 -31.533 42.128 Q -33.16 42.128 -34.056 41.226 Q -34.953 40.325 -34.953 38.61 Q -34.953 37.463 -34.498 36.654 Q -34.042 35.846 -33.238 35.415 Q -32.435 34.984 -31.396 34.984 Q -30.827 34.984 -30.494 35.077 Q -30.161 35.17 -29.97 35.268 Q -29.779 35.366 -29.651 35.366 Q -29.544 35.366 -29.47 35.273 Q -29.397 35.18 -29.269 35.003 L -28.916 35.003 L -28.916 37.443 L -29.328 37.443 Q -29.514 36.405 -30.039 35.954 Q -30.563 35.503 -31.445 35.503 Q -32.19 35.503 -32.699 35.87 Q -33.209 36.238 -33.469 36.904 Q -33.728 37.571 -33.728 38.463 Q -33.728 39.472 -33.4 40.099 Q -33.072 40.726 -32.493 41.015 Q -31.915 41.305 -31.17 41.305 Q -30.445 41.305 -29.936 41.084 Q -29.426 40.864 -28.985 40.413 Z " fill="black" /><path d="M -27.427 35.121 L -27.427 35.121 L -24.742 35.121 Q -24.203 35.121 -23.708 35.204 Q -23.213 35.287 -22.826 35.483 Q -22.439 35.679 -22.213 36.032 Q -21.988 36.385 -21.988 36.934 Q -21.988 37.561 -22.248 37.973 Q -22.507 38.384 -22.938 38.624 Q -23.37 38.864 -23.899 38.962 Q -24.428 39.06 -24.977 39.06 Q -25.104 39.06 -25.256 39.046 Q -25.408 39.031 -25.486 39.021 L -25.486 40.658 Q -25.486 41.089 -25.388 41.3 Q -25.29 41.51 -25.05 41.574 Q -24.81 41.638 -24.379 41.638 L -24.379 42.01 L -27.495 42.01 L -27.495 41.638 Q -27.074 41.638 -26.868 41.564 Q -26.662 41.491 -26.594 41.265 Q -26.525 41.04 -26.525 40.599 L -26.525 36.248 Q -26.525 35.748 -26.741 35.621 Q -26.956 35.493 -27.427 35.493 Z M -25.486 35.611 L -25.486 35.611 L -25.486 38.551 Q -25.408 38.561 -25.266 38.565 Q -25.124 38.57 -25.016 38.57 Q -24.114 38.57 -23.615 38.237 Q -23.115 37.904 -23.115 37.042 Q -23.115 35.591 -24.869 35.591 Q -25.026 35.591 -25.173 35.596 Q -25.32 35.601 -25.486 35.611 Z " fill="black" /></g></g></g><circle cx="-1.7326302914336752e-14" cy="94.32000000000001" r="4.32" style="stroke:black;fill:white;stroke-width:2.0;stroke-dasharray:-;" /><circle cx="-2.2352253378037487e-14" cy="121.67999999999999" r="4.32" style="stroke:black;fill:white;stroke-width:2.0;stroke-dasharray:-;" /><circle cx="-2.6452370861582827e-14" cy="144.0" r="2.6999999999999997" style="stroke:black;fill:black;stroke-width:2.0;stroke-dasharray:-;" /><circle cx="-3.55784388088289e-14" cy="193.68" r="4.32" style="stroke:black;fill:white;stroke-width:2.0;stroke-dasharray:-;" /><circle cx="-3.055248834512817e-14" cy="166.32" r="4.32" style="stroke:black;fill:white;stroke-width:2.0;stroke-dasharray:-;" /><g><g><g><path d="M -39.664 253.236 L -39.664 253.236 L -38.516 247.72 Q -38.39 247.174 -38.397 246.859 Q -38.404 246.544 -38.656 246.418 Q -38.908 246.292 -39.552 246.292 L -39.468 245.872 L -35.59 245.872 L -35.674 246.292 Q -36.29 246.292 -36.598 246.418 Q -36.906 246.544 -37.032 246.859 Q -37.158 247.174 -37.27 247.72 L -38.418 253.292 Q -38.46 253.516 -38.488 253.698 Q -38.516 253.88 -38.516 254.034 Q -38.516 254.426 -38.285 254.538 Q -38.054 254.65 -37.396 254.65 L -37.48 255.07 L -41.302 255.07 L -41.218 254.65 Q -40.644 254.65 -40.357 254.552 Q -40.07 254.454 -39.93 254.153 Q -39.79 253.852 -39.664 253.236 Z " fill="black" /><path d="M -28.985 256.413 L -28.985 256.413 L -28.691 256.658 Q -28.956 257.069 -29.338 257.403 Q -29.72 257.736 -30.259 257.932 Q -30.798 258.128 -31.533 258.128 Q -33.16 258.128 -34.057 257.226 Q -34.953 256.325 -34.953 254.61 Q -34.953 253.463 -34.498 252.654 Q -34.042 251.846 -33.238 251.415 Q -32.435 250.984 -31.396 250.984 Q -30.827 250.984 -30.494 251.077 Q -30.161 251.17 -29.97 251.268 Q -29.779 251.366 -29.651 251.366 Q -29.544 251.366 -29.47 251.273 Q -29.397 251.18 -29.269 251.003 L -28.916 251.003 L -28.916 253.443 L -29.328 253.443 Q -29.514 252.405 -30.039 251.954 Q -30.563 251.503 -31.445 251.503 Q -32.19 251.503 -32.699 251.87 Q -33.209 252.238 -33.469 252.904 Q -33.728 253.571 -33.728 254.463 Q -33.728 255.472 -33.4 256.099 Q -33.072 256.726 -32.493 257.015 Q -31.915 257.305 -31.17 257.305 Q -30.445 257.305 -29.936 257.084 Q -29.426 256.864 -28.985 256.413 Z " fill="black" /><path d="M -27.427 251.121 L -27.427 251.121 L -24.742 251.121 Q -24.203 251.121 -23.708 251.204 Q -23.213 251.287 -22.826 251.483 Q -22.439 251.679 -22.213 252.032 Q -21.988 252.385 -21.988 252.934 Q -21.988 253.561 -22.248 253.973 Q -22.507 254.384 -22.938 254.624 Q -23.37 254.864 -23.899 254.962 Q -24.428 255.06 -24.977 255.06 Q -25.104 255.06 -25.256 255.046 Q -25.408 255.031 -25.486 255.021 L -25.486 256.658 Q -25.486 257.089 -25.388 257.3 Q -25.29 257.51 -25.05 257.574 Q -24.81 257.638 -24.379 257.638 L -24.379 258.01 L -27.495 258.01 L -27.495 257.638 Q -27.074 257.638 -26.868 257.564 Q -26.662 257.491 -26.594 257.265 Q -26.525 257.04 -26.525 256.599 L -26.525 252.248 Q -26.525 251.748 -26.741 251.621 Q -26.956 251.493 -27.427 251.493 Z M -25.486 251.611 L -25.486 251.611 L -25.486 254.551 Q -25.408 254.561 -25.266 254.565 Q -25.124 254.57 -25.016 254.57 Q -24.114 254.57 -23.615 254.237 Q -23.115 253.904 -23.115 253.042 Q -23.115 251.591 -24.869 251.591 Q -25.026 251.591 -25.173 251.596 Q -25.32 251.601 -25.486 251.611 Z " fill="black" /></g></g></g><circle cx="71.99999999999997" cy="144.0" r="2.6999999999999997" style="stroke:black;fill:black;stroke-width:2.0;stroke-dasharray:-;" /><circle cx="107.99999999999997" cy="144.0" r="2.6999999999999997" style="stroke:black;fill:white;stroke-width:2.0;stroke-dasharray:-;" /><g><g><g><path d="M 118.178 145.379 L 118.178 145.379 L 122 139.639 Q 122.196 139.359 122.315 139.121 Q 122.434 138.883 122.434 138.715 Q 122.434 138.505 122.252 138.428 Q 122.07 138.351 121.594 138.351 L 121.622 137.931 L 124.646 137.931 L 124.618 138.351 Q 124.24 138.351 123.974 138.463 Q 123.708 138.575 123.435 138.89 Q 123.162 139.205 122.728 139.849 L 117.59 147.199 L 117.128 147.199 L 116.344 139.625 Q 116.26 138.925 116.036 138.638 Q 115.812 138.351 115.252 138.351 L 115.28 137.931 L 118.71 137.931 L 118.668 138.351 Q 118.136 138.351 117.828 138.561 Q 117.52 138.771 117.548 139.247 Q 117.548 139.317 117.569 139.499 Q 117.59 139.681 117.59 139.751 L 118.01 143.741 L 118.108 145.379 Z " fill="black" /><path d="M 129.227 147.982 L 129.227 147.982 L 128.972 150.069 L 123.582 150.069 L 123.582 149.697 Q 124.023 149.697 124.229 149.623 Q 124.435 149.55 124.498 149.339 Q 124.562 149.128 124.562 148.717 L 124.562 144.63 Q 124.562 144.199 124.498 143.968 Q 124.435 143.738 124.229 143.645 Q 124.023 143.552 123.582 143.552 L 123.582 143.18 L 126.64 143.18 L 126.64 143.552 Q 126.208 143.552 125.983 143.64 Q 125.758 143.728 125.674 143.964 Q 125.591 144.199 125.591 144.64 L 125.591 148.991 Q 125.591 149.373 125.748 149.476 Q 125.905 149.579 126.297 149.579 L 126.924 149.579 Q 127.443 149.579 127.757 149.51 Q 128.07 149.442 128.252 149.27 Q 128.433 149.099 128.551 148.785 Q 128.668 148.472 128.815 147.982 Z " fill="black" /><path d="M 135.803 144.963 L 135.803 144.963 L 135.401 144.963 Q 135.332 144.61 135.259 144.361 Q 135.185 144.111 135.038 143.964 Q 134.891 143.817 134.607 143.748 Q 134.323 143.679 133.833 143.679 L 132.069 143.679 L 132.069 146.345 L 133.264 146.345 Q 133.696 146.345 133.931 146.267 Q 134.166 146.188 134.259 145.968 Q 134.352 145.747 134.352 145.316 L 134.764 145.316 L 134.764 147.727 L 134.352 147.727 Q 134.352 147.315 134.259 147.119 Q 134.166 146.923 133.931 146.864 Q 133.696 146.806 133.264 146.806 L 132.069 146.806 L 132.069 148.922 Q 132.069 149.403 132.304 149.55 Q 132.539 149.697 133.147 149.697 L 133.147 150.069 L 130.021 150.069 L 130.021 149.697 Q 130.452 149.697 130.667 149.628 Q 130.883 149.559 130.956 149.368 Q 131.03 149.177 131.03 148.795 L 131.03 144.483 Q 131.03 144.111 130.947 143.91 Q 130.863 143.709 130.648 143.63 Q 130.432 143.552 130.021 143.552 L 130.021 143.18 L 135.744 143.18 Z " fill="black" /></g></g></g><g><g><g><path d="M 44.522 175.804 L 44.522 175.804 Q 44.522 176.546 44.242 177.05 Q 43.962 177.554 43.514 177.876 Q 43.066 178.198 42.555 178.373 Q 42.044 178.548 41.582 178.632 L 41.582 178.702 Q 41.834 178.87 42.058 179.213 Q 42.282 179.556 42.611 180.2 Q 42.94 180.844 43.514 181.936 Q 43.752 182.356 44.039 182.503 Q 44.326 182.65 44.802 182.65 L 44.718 183.07 L 42.59 183.07 Q 42.198 182.202 41.932 181.621 Q 41.666 181.04 41.47 180.648 Q 41.274 180.256 41.127 179.948 Q 40.98 179.64 40.812 179.318 Q 40.658 179.024 40.476 178.933 Q 40.294 178.842 39.916 178.842 L 39.622 178.842 L 39.104 181.334 Q 38.992 181.908 39.027 182.195 Q 39.062 182.482 39.342 182.566 Q 39.622 182.65 40.224 182.65 L 40.154 183.07 L 36.29 183.07 L 36.374 182.65 Q 36.892 182.65 37.172 182.566 Q 37.452 182.482 37.599 182.202 Q 37.746 181.922 37.858 181.334 L 39.09 175.328 Q 39.174 174.936 39.132 174.712 Q 39.09 174.488 38.845 174.39 Q 38.6 174.292 38.04 174.292 L 38.124 173.872 L 41.414 173.872 Q 42.884 173.872 43.703 174.327 Q 44.522 174.782 44.522 175.804 Z M 40.504 174.46 L 40.504 174.46 L 39.72 178.324 L 40.154 178.338 Q 40.994 178.31 41.673 178.065 Q 42.352 177.82 42.744 177.288 Q 43.136 176.756 43.136 175.86 Q 43.136 175.482 42.975 175.153 Q 42.814 174.824 42.422 174.621 Q 42.03 174.418 41.33 174.418 Q 41.064 174.418 40.903 174.425 Q 40.742 174.432 40.504 174.46 Z " fill="blue" /><path d="M 48.435 185.648 L 48.435 185.648 L 48.435 186.01 L 45.946 186.01 L 45.946 185.648 Q 46.289 185.648 46.441 185.574 Q 46.593 185.501 46.632 185.339 Q 46.671 185.177 46.671 184.913 L 46.671 181.953 Q 46.671 181.62 46.563 181.551 Q 46.456 181.483 46.201 181.483 Q 46.073 181.483 45.995 181.492 Q 45.917 181.502 45.917 181.502 L 45.917 181.11 L 47.23 180.895 L 47.632 180.895 L 47.632 184.913 Q 47.632 185.197 47.676 185.358 Q 47.72 185.52 47.891 185.584 Q 48.063 185.648 48.435 185.648 Z M 47.142 178.729 L 47.142 178.729 Q 47.426 178.729 47.617 178.925 Q 47.808 179.121 47.808 179.376 Q 47.808 179.611 47.617 179.807 Q 47.426 180.003 47.142 180.003 Q 46.867 180.003 46.686 179.807 Q 46.505 179.611 46.505 179.376 Q 46.505 179.121 46.686 178.925 Q 46.867 178.729 47.142 178.729 Z " fill="blue" /><path d="M 54.256 182.727 L 54.256 182.727 L 54.256 184.922 Q 54.256 185.197 54.305 185.358 Q 54.354 185.52 54.521 185.589 Q 54.688 185.657 55.04 185.657 L 55.04 186.01 L 52.522 186.01 L 52.522 185.657 Q 52.894 185.657 53.061 185.589 Q 53.227 185.52 53.267 185.358 Q 53.306 185.197 53.306 184.922 L 53.306 183.051 Q 53.306 182.394 53.154 182.085 Q 53.002 181.777 52.772 181.679 Q 52.541 181.581 52.306 181.581 Q 51.885 181.581 51.566 181.796 Q 51.248 182.012 51.013 182.208 L 51.013 184.922 Q 51.013 185.197 51.057 185.358 Q 51.101 185.52 51.267 185.589 Q 51.434 185.657 51.797 185.657 L 51.797 186.01 L 49.327 186.01 L 49.327 185.657 Q 49.67 185.657 49.822 185.589 Q 49.974 185.52 50.013 185.358 Q 50.052 185.197 50.052 184.922 L 50.052 181.943 Q 50.052 181.669 49.949 181.576 Q 49.846 181.483 49.621 181.483 Q 49.503 181.483 49.425 181.492 Q 49.347 181.502 49.347 181.502 L 49.347 181.13 L 50.66 180.895 L 50.983 180.895 L 50.983 181.698 L 51.052 181.698 Q 51.473 181.316 51.86 181.091 Q 52.247 180.865 52.737 180.865 Q 53.316 180.865 53.644 181.125 Q 53.972 181.385 54.114 181.806 Q 54.256 182.227 54.256 182.727 Z " fill="blue" /><path d="M 58.794 185.03 L 58.794 185.03 L 59.019 185.216 Q 58.804 185.51 58.627 185.711 Q 58.451 185.912 58.225 186.02 Q 58 186.128 57.647 186.128 Q 57.079 186.128 56.819 185.804 Q 56.559 185.481 56.559 184.766 L 56.559 181.473 L 55.942 181.473 L 55.942 181.179 Q 56.295 180.924 56.589 180.556 Q 56.883 180.189 57.177 179.503 L 57.52 179.503 L 57.51 180.993 L 58.755 180.993 L 58.755 181.473 L 57.51 181.473 L 57.51 184.442 Q 57.51 184.991 57.613 185.221 Q 57.716 185.452 58.029 185.452 Q 58.314 185.452 58.461 185.349 Q 58.608 185.246 58.794 185.03 Z " fill="blue" /></g></g></g><g><g><g><path d="M 45.362 253.131 L 45.362 253.131 L 45.614 253.397 Q 44.9 254.237 43.962 254.776 Q 43.024 255.315 41.694 255.315 Q 40.434 255.315 39.678 254.846 Q 38.922 254.377 38.593 253.593 Q 38.264 252.809 38.264 251.885 Q 38.264 250.415 38.712 249.274 Q 39.16 248.133 39.937 247.356 Q 40.714 246.579 41.694 246.18 Q 42.674 245.781 43.738 245.781 Q 44.452 245.781 44.851 245.907 Q 45.25 246.033 45.474 246.166 Q 45.698 246.299 45.866 246.299 Q 46.034 246.299 46.16 246.159 Q 46.286 246.019 46.454 245.795 L 46.86 245.795 L 46.202 249.001 L 45.74 249.001 Q 45.796 247.601 45.222 246.992 Q 44.648 246.383 43.612 246.383 Q 42.8 246.383 42.086 246.754 Q 41.372 247.125 40.819 247.804 Q 40.266 248.483 39.951 249.428 Q 39.636 250.373 39.636 251.535 Q 39.636 252.935 40.301 253.67 Q 40.966 254.405 42.352 254.405 Q 43.962 254.405 45.362 253.131 Z " fill="black" /><path d="M 49.401 257.739 L 49.401 257.739 L 49.401 258.101 L 46.912 258.101 L 46.912 257.739 Q 47.255 257.739 47.407 257.665 Q 47.559 257.592 47.598 257.43 Q 47.637 257.268 47.637 257.004 L 47.637 254.044 Q 47.637 253.711 47.529 253.642 Q 47.422 253.574 47.167 253.574 Q 47.039 253.574 46.961 253.583 Q 46.883 253.593 46.883 253.593 L 46.883 253.201 L 48.196 252.986 L 48.598 252.986 L 48.598 257.004 Q 48.598 257.288 48.642 257.45 Q 48.686 257.611 48.857 257.675 Q 49.029 257.739 49.401 257.739 Z M 48.108 250.82 L 48.108 250.82 Q 48.392 250.82 48.583 251.016 Q 48.774 251.212 48.774 251.467 Q 48.774 251.702 48.583 251.898 Q 48.392 252.094 48.108 252.094 Q 47.833 252.094 47.652 251.898 Q 47.471 251.702 47.471 251.467 Q 47.471 251.212 47.652 251.016 Q 47.833 250.82 48.108 250.82 Z " fill="black" /><path d="M 55.222 254.818 L 55.222 254.818 L 55.222 257.013 Q 55.222 257.288 55.271 257.45 Q 55.32 257.611 55.487 257.68 Q 55.654 257.748 56.006 257.748 L 56.006 258.101 L 53.488 258.101 L 53.488 257.748 Q 53.86 257.748 54.027 257.68 Q 54.193 257.611 54.233 257.45 Q 54.272 257.288 54.272 257.013 L 54.272 255.142 Q 54.272 254.485 54.12 254.176 Q 53.968 253.868 53.738 253.77 Q 53.507 253.672 53.272 253.672 Q 52.851 253.672 52.532 253.887 Q 52.214 254.103 51.979 254.299 L 51.979 257.013 Q 51.979 257.288 52.023 257.45 Q 52.067 257.611 52.233 257.68 Q 52.4 257.748 52.763 257.748 L 52.763 258.101 L 50.293 258.101 L 50.293 257.748 Q 50.636 257.748 50.788 257.68 Q 50.94 257.611 50.979 257.45 Q 51.018 257.288 51.018 257.013 L 51.018 254.034 Q 51.018 253.76 50.915 253.667 Q 50.812 253.574 50.587 253.574 Q 50.469 253.574 50.391 253.583 Q 50.313 253.593 50.313 253.593 L 50.313 253.221 L 51.626 252.986 L 51.949 252.986 L 51.949 253.789 L 52.018 253.789 Q 52.439 253.407 52.826 253.182 Q 53.213 252.956 53.703 252.956 Q 54.282 252.956 54.61 253.216 Q 54.938 253.476 55.08 253.897 Q 55.222 254.318 55.222 254.818 Z " fill="black" /><path d="M 59.76 257.121 L 59.76 257.121 L 59.985 257.307 Q 59.77 257.601 59.593 257.802 Q 59.417 258.003 59.191 258.111 Q 58.966 258.219 58.613 258.219 Q 58.045 258.219 57.785 257.895 Q 57.525 257.572 57.525 256.857 L 57.525 253.564 L 56.908 253.564 L 56.908 253.27 Q 57.261 253.015 57.555 252.648 Q 57.849 252.28 58.143 251.594 L 58.486 251.594 L 58.476 253.084 L 59.721 253.084 L 59.721 253.564 L 58.476 253.564 L 58.476 256.533 Q 58.476 257.082 58.579 257.312 Q 58.682 257.543 58.995 257.543 Q 59.28 257.543 59.427 257.44 Q 59.574 257.337 59.76 257.121 Z " fill="black" /></g></g></g><circle cx="-54.00000000000003" cy="108.0" r="2.6999999999999997" style="stroke:black;fill:white;stroke-width:2.0;stroke-dasharray:-;" /><g><g><g><path d="M -71.766 112.683 L -71.766 112.683 Q -72.718 112.683 -73.488 112.305 Q -74.258 111.927 -74.699 111.052 Q -75.14 110.177 -75.14 108.707 L -75.14 103.317 L -73.936 103.317 L -73.936 108.749 Q -73.936 109.841 -73.649 110.471 Q -73.362 111.101 -72.872 111.367 Q -72.382 111.633 -71.766 111.633 Q -71.136 111.633 -70.632 111.367 Q -70.128 111.101 -69.834 110.471 Q -69.54 109.841 -69.54 108.749 L -69.54 103.317 L -68.392 103.317 L -68.392 108.707 Q -68.392 110.177 -68.833 111.052 Q -69.274 111.927 -70.037 112.305 Q -70.8 112.683 -71.766 112.683 Z " fill="black" /><path d="M -65.872 112.515 L -65.872 112.515 L -65.872 103.317 L -63.184 103.317 Q -62.134 103.317 -61.343 103.576 Q -60.552 103.835 -60.104 104.423 Q -59.656 105.011 -59.656 106.019 Q -59.656 106.999 -60.097 107.636 Q -60.538 108.273 -61.315 108.581 Q -62.092 108.889 -63.128 108.889 L -64.668 108.889 L -64.668 112.515 Z M -64.668 107.909 L -64.668 107.909 L -63.268 107.909 Q -62.05 107.909 -61.455 107.461 Q -60.86 107.013 -60.86 106.033 Q -60.86 105.039 -61.476 104.661 Q -62.092 104.283 -63.324 104.283 L -64.668 104.283 Z " fill="black" /></g></g></g><circle cx="-54.00000000000003" cy="180.0" r="2.6999999999999997" style="stroke:black;fill:white;stroke-width:2.0;stroke-dasharray:-;" /><g><g><g><path d="M -96.588 184.592 L -96.588 184.592 L -96.588 175.394 L -94.236 175.394 Q -92.066 175.394 -90.932 176.577 Q -89.798 177.76 -89.798 179.958 Q -89.798 182.156 -90.925 183.374 Q -92.052 184.592 -94.18 184.592 Z M -95.384 183.612 L -95.384 183.612 L -94.32 183.612 Q -92.668 183.612 -91.849 182.653 Q -91.03 181.694 -91.03 179.958 Q -91.03 178.222 -91.849 177.298 Q -92.668 176.374 -94.32 176.374 L -95.384 176.374 Z " fill="black" /><path d="M -84.296 184.76 L -84.296 184.76 Q -85.472 184.76 -86.375 184.179 Q -87.278 183.598 -87.789 182.52 Q -88.3 181.442 -88.3 179.958 Q -88.3 178.488 -87.789 177.431 Q -87.278 176.374 -86.375 175.807 Q -85.472 175.24 -84.296 175.24 Q -83.106 175.24 -82.203 175.807 Q -81.3 176.374 -80.789 177.431 Q -80.278 178.488 -80.278 179.958 Q -80.278 181.428 -80.789 182.506 Q -81.3 183.584 -82.203 184.172 Q -83.106 184.76 -84.296 184.76 Z M -84.296 183.71 L -84.296 183.71 Q -83.456 183.71 -82.833 183.248 Q -82.21 182.786 -81.867 181.939 Q -81.524 181.092 -81.524 179.958 Q -81.524 178.25 -82.28 177.263 Q -83.036 176.276 -84.296 176.276 Q -85.556 176.276 -86.312 177.263 Q -87.068 178.25 -87.068 179.958 Q -87.068 181.092 -86.725 181.939 Q -86.382 182.786 -85.759 183.248 Q -85.136 183.71 -84.296 183.71 Z " fill="black" /><path d="M -77.212 184.592 L -77.212 184.592 L -79.2 175.394 L -77.968 175.394 L -76.988 180.392 Q -76.848 181.12 -76.708 181.862 Q -76.568 182.604 -76.428 183.346 L -76.372 183.346 Q -76.218 182.604 -76.05 181.862 Q -75.882 181.12 -75.714 180.392 L -74.412 175.394 L -73.334 175.394 L -72.032 180.392 Q -71.85 181.12 -71.682 181.862 Q -71.514 182.604 -71.36 183.346 L -71.29 183.346 Q -71.15 182.604 -71.024 181.862 Q -70.898 181.12 -70.758 180.392 L -69.778 175.394 L -68.616 175.394 L -70.562 184.592 L -72.004 184.592 L -73.418 179.104 Q -73.544 178.558 -73.656 178.047 Q -73.768 177.536 -73.88 177.004 L -73.936 177.004 Q -74.034 177.536 -74.16 178.047 Q -74.286 178.558 -74.398 179.104 L -75.784 184.592 Z " fill="black" /><path d="M -66.992 184.592 L -66.992 184.592 L -66.992 175.394 L -65.746 175.394 L -62.358 181.148 L -61.35 183.052 L -61.28 183.052 Q -61.322 182.352 -61.378 181.596 Q -61.434 180.84 -61.434 180.112 L -61.434 175.394 L -60.3 175.394 L -60.3 184.592 L -61.532 184.592 L -64.934 178.838 L -65.942 176.934 L -65.998 176.934 Q -65.956 177.634 -65.9 178.369 Q -65.844 179.104 -65.844 179.818 L -65.844 184.592 Z " fill="black" /></g></g></g></svg>