<svg xmlns="http://www.w3.org/2000/svg" xmlns:xlink="http://www.w3.org/1999/xlink" xml:lang="en" height="134.856pt" width="463.1442pt" viewBox="-4.6 -40.256 463.1442 134.856"><circle cx="18.0" cy="-0.0" r="18.0" style="stroke:black;fill:none;stroke-width:2.0;stroke-dasharray:-;" /><circle cx="342.0" cy="-0.0" r="18.0" style="stroke:black;fill:none;stroke-width:2.0;stroke-dasharray:-;" /><path d="M 7.2,-4.4087284769304716e-16 L 8.336842105263157,-1.168918089136861 L 9.473684210526317,-2.2111657656828045 L 10.610526315789475,-3.013799321745103 L 11.747368421052633,-3.4898409573815896 L 12.88421052631579,-3.5877041748240117 L 14.021052631578947,-3.2967839759582067 L 15.157894736842104,-2.648606078423274 L 16.294736842105262,-1.7134106149334647 L 17.431578947368422,-0.5925405250106421 L 18.56842105263158,0.5925405250106421 L 19.705263157894738,1.7134106149334647 L 20.84210526315789,2.6486060784232732 L 21.978947368421053,3.2967839759582063 L 23.11578947368421,3.5877041748240117 L 24.25263157894737,3.48984095738159 L 25.389473684210525,3.013799321745103 L 26.52631578947368,2.2111657656828045 L 27.66315789473684,1.168918089136861 L 28.8,4.4087284769304716e-16" style="stroke:black;fill:none;stroke-width:2.0;stroke-dasharray:-;stroke-linecap:round;stroke-linejoin:round;" /><path d="M 36.0,-0.0 L 72.0,-0.0 L 99.0,-0.0" style="stroke:black;fill:none;stroke-width:2.0;stroke-dasharray:-;stroke-linecap:round;stroke-linejoin:round;" /><path d="M 106.0 0.0 L 99.0 2.6999999999999997 L 99.0 -2.6999999999999997 Z" style="stroke:black;fill:black;stroke-linecap:butt;stroke-linejoin:miter;" /><path d="M 108.0,-0.0 L 108.0,-18.0 L 144.0,-18.0 L 144.0,18.0 L 108.0,18.0 L 108.0,-0.0" style="stroke:black;fill:none;stroke-width:2.0;stroke-dasharray:-;stroke-linecap:round;stroke-linejoin:round;" /><path d="M 144.0,-0.0 L 180.0,-0.0 L 207.0,-0.0" style="stroke:black;fill:none;stroke-width:2.0;stroke-dasharray:-;stroke-linecap:round;stroke-linejoin:round;" /><path d="M 214.0 0.0 L 207.0 2.6999999999999997 L 207.0 -2.6999999999999997 Z" style="stroke:black;fill:black;stroke-linecap:butt;stroke-linejoin:miter;" /><path d="M 216.0,-0.0 L 216.0,-18.0 L 252.0,-18.0 L 252.0,18.0 L 216.0,18.0 L 216.0,-0.0" style="stroke:black;fill:none;stroke-width:2.0;stroke-dasharray:-;stroke-linecap:round;stroke-linejoin:round;" /><path d="M 223.20000000000002,-4.4087284769304716e-16 L 224.33684210526314,-1.168918089136861 L 225.47368421052633,-2.2111657656828045 L 226.61052631578949,-3.013799321745103 L 227.7473684210526,-3.4898409573815896 L 228.8842105263158,-3.5877041748240117 L 230.02105263157895,-3.2967839759582067 L 231.15789473684208,-2.648606078423274 L 232.29473684210527,-1.7134106149334647 L 233.43157894736842,-0.5925405250106421 L 234.56842105263158,0.5925405250106421 L 235.70526315789473,1.7134106149334647 L 236.8421052631579,2.6486060784232732 L 237.97894736842105,3.2967839759582063 L 239.1157894736842,3.5877041748240117 L 240.2526315789474,3.48984095738159 L 241.38947368421051,3.013799321745103 L 242.52631578947367,2.2111657656828045 L 243.66315789473686,1.168918089136861 L 244.79999999999998,4.4087284769304716e-16" style="stroke:black;fill:none;stroke-width:2.0;stroke-dasharray:-;stroke-linecap:round;stroke-linejoin:round;" /><path d="M 223.20000000000002,-9.0 L 224.33684210526314,-10.16891808913686 L 225.47368421052633,-11.211165765682804 L 226.61052631578949,-12.013799321745104 L 227.7473684210526,-12.489840957381588 L 228.8842105263158,-12.587704174824012 L 230.02105263157895,-12.296783975958206 L 231.15789473684208,-11.648606078423274 L 232.29473684210527,-10.713410614933464 L 233.43157894736842,-9.592540525010643 L 234.56842105263158,-8.407459474989357 L 235.70526315789473,-7.286589385066535 L 236.8421052631579,-6.351393921576727 L 237.97894736842105,-5.703216024041794 L 239.1157894736842,-5.412295825175989 L 240.2526315789474,-5.51015904261841 L 241.38947368421051,-5.986200678254896 L 242.52631578947367,-6.7888342343171955 L 243.66315789473686,-7.831081910863139 L 244.79999999999998,-9.0" style="stroke:black;fill:none;stroke-width:2.0;stroke-dasharray:-;stroke-linecap:round;stroke-linejoin:round;" /><path d="M 223.20000000000002,9.0 L 224.33684210526314,7.831081910863139 L 225.47368421052633,6.7888342343171955 L 226.61052631578949,5.986200678254896 L 227.7473684210526,5.510159042618411 L 228.8842105263158,5.412295825175989 L 230.02105263157895,5.703216024041793 L 231.15789473684208,6.351393921576726 L 232.29473684210527,7.286589385066535 L 233.43157894736842,8.407459474989357 L 234.56842105263158,9.592540525010643 L 235.70526315789473,10.713410614933464 L 236.8421052631579,11.648606078423274 L 237.97894736842105,12.296783975958206 L 239.1157894736842,12.587704174824012 L 240.2526315789474,12.489840957381592 L 241.38947368421051,12.013799321745104 L 242.52631578947367,11.211165765682804 L 243.66315789473686,10.16891808913686 L 244.79999999999998,9.0" style="stroke:black;fill:none;stroke-width:2.0;stroke-dasharray:-;stroke-linecap:round;stroke-linejoin:round;" /><path d="M 232.20000000000002,-6.12 L 235.79999999999998,-11.88" style="stroke:black;fill:none;stroke-width:2.0;stroke-dasharray:-;stroke-linecap:round;stroke-linejoin:round;" /><path d="M 232.20000000000002,2.88 L 235.79999999999998,-2.88" style="stroke:black;fill:none;stroke-width:2.0;stroke-dasharray:-;stroke-linecap:round;stroke-linejoin:round;" /><path d="M 252.0,-0.0 L 288.0,-0.0 L 315.0,-0.0" style="stroke:black;fill:none;stroke-width:2.0;stroke-dasharray:-;stroke-linecap:round;stroke-linejoin:round;" /><path d="M 322.0 0.0 L 315.0 2.6999999999999997 L 315.0 -2.6999999999999997 Z" style="stroke:black;fill:black;stroke-linecap:butt;stroke-linejoin:miter;" /><path d="M 331.2,-4.4087284769304716e-16 L 332.33684210526314,-1.168918089136861 L 333.47368421052636,-2.2111657656828045 L 334.61052631578946,-3.013799321745103 L 335.7473684210526,-3.4898409573815896 L 336.88421052631577,-3.5877041748240117 L 338.021052631579,-3.2967839759582067 L 339.1578947368421,-2.648606078423274 L 340.2947368421053,-1.7134106149334647 L 341.43157894736845,-0.5925405250106421 L 342.56842105263155,0.5925405250106421 L 343.7052631578947,1.7134106149334647 L 344.8421052631579,2.6486060784232732 L 345.978947368421,3.2967839759582063 L 347.11578947368423,3.5877041748240117 L 348.2526315789474,3.48984095738159 L 349.38947368421054,3.013799321745103 L 350.52631578947364,2.2111657656828045 L 351.66315789473686,1.168918089136861 L 352.8,4.4087284769304716e-16" style="stroke:black;fill:none;stroke-width:2.0;stroke-dasharray:-;stroke-linecap:round;stroke-linejoin:round;" /><path d="M 360.0,-0.0 L 378.0,-0.0 L 396.0,-0.0" style="stroke:black;fill:none;stroke-width:2.0;stroke-dasharray:-;stroke-linecap:round;stroke-linejoin:round;" /><path d="M 396.0,-0.0 L 414.0,-0.0 L 423.0,-0.0" style="stroke:black;fill:none;stroke-width:2.0;stroke-dasharray:-;stroke-linecap:round;stroke-linejoin:round;" /><path d="M 430.0 0.0 L 423.0 2.6999999999999997 L 423.0 -2.6999999999999997 Z" style="stroke:black;fill:black;stroke-linecap:butt;stroke-linejoin:miter;" /><path d="M 396.0,-0.0 L 396.0,36.0 L 396.0,72.0" style="stroke:black;fill:none;stroke-width:2.0;stroke-dasharray:-;stroke-linecap:round;stroke-linejoin:round;" /><path d="M 396.0,72.0 L 342.0,71.99999999999999 L 297.0,71.99999999999999" style="stroke:black;fill:none;stroke-width:2.0;stroke-dasharray:-;stroke-linecap:round;stroke-linejoin:round;" /><path d="M 290.0 71.99999999999999 L 297.0 69.29999999999998 L 297.0 74.69999999999999 Z" style="stroke:black;fill:black;stroke-linecap:butt;stroke-linejoin:miter;" /><path d="M 288.0,71.99999999999999 L 288.0,89.99999999999999 L 252.0,89.99999999999999 L 252.0,53.999999999999986 L 288.0,53.999999999999986 L 288.0,71.99999999999999" style="stroke:black;fill:none;stroke-width:2.0;stroke-dasharray:-;stroke-linecap:round;stroke-linejoin:round;" /><path d="M 252.0,71.99999999999997 L 189.0,71.99999999999997 L 126.0,71.99999999999996" style="stroke:black;fill:none;stroke-width:2.0;stroke-dasharray:-;stroke-linecap:round;stroke-linejoin:round;" /><path d="M 126.0,71.99999999999996 L 126.0,44.999999999999986 L 126.0,27.0" style="stroke:black;fill:none;stroke-width:2.0;stroke-dasharray:-;stroke-linecap:round;stroke-linejoin:round;" /><path d="M 126.0 20.0 L 128.7 27.0 L 123.3 27.0 Z" style="stroke:black;fill:black;stroke-linecap:butt;stroke-linejoin:miter;" /><g><g><g><path d="M 65.033 -18.688 L 65.033 -18.688 L 66.237 -18.688 Q 66.363 -19.276 66.51 -19.822 Q 66.657 -20.368 66.895 -20.802 Q 67.077 -21.138 67.343 -21.432 Q 67.609 -21.726 68.022 -21.915 Q 68.435 -22.104 69.037 -22.104 Q 69.681 -22.104 70.024 -21.817 Q 70.367 -21.53 70.367 -21.082 Q 70.367 -20.774 70.199 -20.62 Q 70.031 -20.466 69.807 -20.466 Q 69.527 -20.466 69.401 -20.627 Q 69.275 -20.788 69.247 -21.012 Q 69.205 -21.278 69.142 -21.488 Q 69.079 -21.698 68.827 -21.698 Q 68.295 -21.698 68.001 -21.138 Q 67.707 -20.578 67.553 -19.682 L 67.385 -18.688 L 68.715 -18.688 L 68.631 -18.114 L 67.315 -18.114 L 66.517 -13.34 Q 66.461 -12.976 66.342 -12.43 Q 66.223 -11.884 66.013 -11.289 Q 65.803 -10.694 65.502 -10.176 Q 65.201 -9.658 64.767 -9.329 Q 64.333 -9 63.759 -9 Q 63.087 -9 62.8 -9.322 Q 62.513 -9.644 62.513 -10.008 Q 62.513 -10.302 62.66 -10.498 Q 62.807 -10.694 63.073 -10.694 Q 63.395 -10.694 63.507 -10.505 Q 63.619 -10.316 63.647 -10.071 Q 63.675 -9.826 63.731 -9.637 Q 63.787 -9.448 63.983 -9.448 Q 64.263 -9.448 64.473 -9.812 Q 64.683 -10.176 64.837 -10.715 Q 64.991 -11.254 65.089 -11.786 Q 65.187 -12.318 65.243 -12.668 L 66.153 -18.114 L 64.977 -18.114 Z " fill="black" /><path d="M 69.831 -14.326 L 69.831 -14.326 L 69.831 -13.267 L 69.889 -13.267 Q 70.282 -13.816 70.59 -14.105 Q 70.899 -14.394 71.261 -14.394 Q 71.889 -14.394 71.889 -13.777 Q 71.889 -13.434 71.737 -13.297 Q 71.585 -13.159 71.409 -13.159 Q 71.232 -13.159 71.09 -13.257 Q 70.948 -13.355 70.85 -13.453 Q 70.752 -13.551 70.703 -13.551 Q 70.546 -13.551 70.296 -13.287 Q 70.046 -13.022 69.85 -12.689 L 69.85 -10.337 Q 69.85 -9.857 70.061 -9.715 Q 70.272 -9.573 70.811 -9.573 L 70.811 -9.21 L 68.145 -9.21 L 68.145 -9.573 Q 68.478 -9.573 68.635 -9.631 Q 68.792 -9.69 68.841 -9.842 Q 68.89 -9.994 68.89 -10.268 L 68.89 -13.11 Q 68.89 -13.424 68.836 -13.581 Q 68.782 -13.738 68.478 -13.738 Q 68.341 -13.738 68.243 -13.728 Q 68.145 -13.718 68.145 -13.718 L 68.145 -14.081 L 69.468 -14.326 Z " fill="black" /><path d="M 76.799 -10.67 L 76.799 -10.67 L 77.034 -10.484 Q 76.828 -10.112 76.573 -9.798 Q 76.318 -9.484 75.946 -9.298 Q 75.574 -9.112 75.005 -9.112 Q 74.388 -9.112 73.854 -9.391 Q 73.32 -9.671 72.996 -10.249 Q 72.673 -10.827 72.673 -11.709 Q 72.673 -12.581 72.977 -13.169 Q 73.28 -13.757 73.8 -14.056 Q 74.319 -14.355 74.956 -14.355 Q 75.838 -14.355 76.421 -13.742 Q 77.004 -13.13 77.024 -11.915 L 73.574 -11.915 Q 73.574 -11.248 73.824 -10.812 Q 74.074 -10.376 74.466 -10.166 Q 74.858 -9.955 75.289 -9.955 Q 75.73 -9.955 75.995 -10.048 Q 76.26 -10.141 76.441 -10.308 Q 76.622 -10.474 76.799 -10.67 Z M 73.574 -12.366 L 73.574 -12.366 L 75.975 -12.366 Q 75.975 -12.758 75.848 -13.105 Q 75.721 -13.453 75.476 -13.674 Q 75.231 -13.894 74.848 -13.894 Q 74.29 -13.894 73.961 -13.502 Q 73.633 -13.11 73.574 -12.366 Z " fill="black" /><path d="M 77.994 -14.228 L 77.994 -14.228 L 78.778 -14.228 Q 78.778 -14.747 78.852 -15.11 Q 78.925 -15.472 79.111 -15.835 Q 79.337 -16.188 79.655 -16.408 Q 79.974 -16.629 80.562 -16.629 Q 81.061 -16.629 81.414 -16.438 Q 81.767 -16.246 81.767 -15.874 Q 81.767 -15.639 81.635 -15.516 Q 81.502 -15.394 81.326 -15.394 Q 81.111 -15.394 80.988 -15.516 Q 80.865 -15.639 80.669 -15.845 Q 80.532 -16.041 80.424 -16.114 Q 80.317 -16.188 80.17 -16.188 Q 79.895 -16.188 79.807 -15.923 Q 79.719 -15.658 79.719 -15.012 L 79.719 -14.228 L 80.993 -14.228 L 80.993 -13.747 L 79.719 -13.747 L 79.719 -10.513 Q 79.719 -10.112 79.807 -9.911 Q 79.895 -9.71 80.13 -9.641 Q 80.366 -9.573 80.797 -9.573 L 80.797 -9.21 L 77.906 -9.21 L 77.906 -9.573 Q 78.278 -9.573 78.465 -9.641 Q 78.651 -9.71 78.714 -9.911 Q 78.778 -10.112 78.778 -10.513 L 78.778 -13.747 L 77.994 -13.747 Z " fill="black" /></g></g></g><g><g><g><path d="M 119.462 4.599 L 119.462 4.599 L 119.462 -4.599 L 122.15 -4.599 Q 123.2 -4.599 123.991 -4.34 Q 124.782 -4.081 125.23 -3.493 Q 125.678 -2.905 125.678 -1.897 Q 125.678 -0.917 125.237 -0.28 Q 124.796 0.357 124.019 0.665 Q 123.242 0.973 122.206 0.973 L 120.666 0.973 L 120.666 4.599 Z M 120.666 -0.007 L 120.666 -0.007 L 122.066 -0.007 Q 123.284 -0.007 123.879 -0.455 Q 124.474 -0.903 124.474 -1.883 Q 124.474 -2.877 123.858 -3.255 Q 123.242 -3.633 122.01 -3.633 L 120.666 -3.633 Z " fill="black" /><path d="M 127.582 4.599 L 127.582 4.599 L 127.582 -4.599 L 129.934 -4.599 Q 132.104 -4.599 133.238 -3.416 Q 134.372 -2.233 134.372 -0.035 Q 134.372 2.163 133.245 3.381 Q 132.118 4.599 129.99 4.599 Z M 128.786 3.619 L 128.786 3.619 L 129.85 3.619 Q 131.502 3.619 132.321 2.66 Q 133.14 1.701 133.14 -0.035 Q 133.14 -1.771 132.321 -2.695 Q 131.502 -3.619 129.85 -3.619 L 128.786 -3.619 Z " fill="black" /></g></g></g><g><g><g><path d="M 164.593 -20.088 L 164.593 -20.088 L 164.593 -29.804 L 165.517 -29.804 L 165.615 -29.034 L 165.657 -29.034 Q 166.105 -29.398 166.63 -29.678 Q 167.155 -29.958 167.827 -29.958 Q 168.611 -29.958 169.178 -29.545 Q 169.745 -29.132 170.053 -28.39 Q 170.361 -27.648 170.361 -26.654 Q 170.361 -25.492 169.962 -24.673 Q 169.563 -23.854 168.926 -23.427 Q 168.289 -23 167.547 -23 Q 167.085 -23 166.63 -23.189 Q 166.175 -23.378 165.685 -23.784 L 165.713 -22.608 L 165.713 -20.088 Z M 167.337 -23.952 L 167.337 -23.952 Q 168.135 -23.952 168.667 -24.645 Q 169.199 -25.338 169.199 -26.64 Q 169.199 -27.69 168.793 -28.355 Q 168.387 -29.02 167.519 -29.02 Q 167.085 -29.02 166.672 -28.817 Q 166.259 -28.614 165.713 -28.11 L 165.713 -24.638 Q 166.161 -24.26 166.574 -24.106 Q 166.987 -23.952 167.337 -23.952 Z " fill="black" /><path d="M 172.111 -23.168 L 172.111 -23.168 L 172.111 -32.884 L 173.231 -32.884 L 173.231 -30.238 L 173.203 -28.866 Q 173.665 -29.314 174.176 -29.636 Q 174.687 -29.958 175.415 -29.958 Q 176.409 -29.958 176.906 -29.3 Q 177.403 -28.642 177.403 -27.368 L 177.403 -23.168 L 176.269 -23.168 L 176.269 -27.228 Q 176.269 -28.152 175.982 -28.565 Q 175.695 -28.978 175.051 -28.978 Q 174.533 -28.978 174.127 -28.726 Q 173.721 -28.474 173.231 -27.97 L 173.231 -23.168 Z " fill="black" /><path d="M 181.001 -23 L 181.001 -23 Q 180.189 -23 179.636 -23.497 Q 179.083 -23.994 179.083 -24.89 Q 179.083 -25.982 180.049 -26.563 Q 181.015 -27.144 183.129 -27.368 Q 183.129 -27.802 183.017 -28.18 Q 182.905 -28.558 182.604 -28.796 Q 182.303 -29.034 181.757 -29.034 Q 181.211 -29.034 180.707 -28.81 Q 180.203 -28.586 179.811 -28.334 L 179.363 -29.104 Q 179.825 -29.412 180.497 -29.685 Q 181.169 -29.958 181.953 -29.958 Q 183.157 -29.958 183.703 -29.223 Q 184.249 -28.488 184.249 -27.242 L 184.249 -23.168 L 183.325 -23.168 L 183.227 -23.966 L 183.199 -23.966 Q 182.723 -23.574 182.177 -23.287 Q 181.631 -23 181.001 -23 Z M 181.337 -23.91 L 181.337 -23.91 Q 181.813 -23.91 182.233 -24.141 Q 182.653 -24.372 183.129 -24.778 L 183.129 -26.626 Q 181.505 -26.43 180.84 -26.024 Q 180.175 -25.618 180.175 -24.96 Q 180.175 -24.414 180.518 -24.162 Q 180.861 -23.91 181.337 -23.91 Z " fill="black" /><path d="M 188.099 -23 L 188.099 -23 Q 187.343 -23 186.699 -23.266 Q 186.055 -23.532 185.593 -23.924 L 186.139 -24.666 Q 186.587 -24.316 187.042 -24.099 Q 187.497 -23.882 188.057 -23.882 Q 188.729 -23.882 189.058 -24.183 Q 189.387 -24.484 189.387 -24.89 Q 189.387 -25.24 189.177 -25.471 Q 188.967 -25.702 188.624 -25.863 Q 188.281 -26.024 187.875 -26.164 Q 187.413 -26.346 186.958 -26.577 Q 186.503 -26.808 186.209 -27.172 Q 185.915 -27.536 185.915 -28.096 Q 185.915 -28.88 186.524 -29.419 Q 187.133 -29.958 188.155 -29.958 Q 188.855 -29.958 189.366 -29.734 Q 189.877 -29.51 190.241 -29.23 L 189.709 -28.502 Q 189.359 -28.754 188.995 -28.922 Q 188.631 -29.09 188.183 -29.09 Q 187.581 -29.09 187.287 -28.803 Q 186.993 -28.516 186.993 -28.152 Q 186.993 -27.83 187.196 -27.627 Q 187.399 -27.424 187.735 -27.284 Q 188.071 -27.144 188.449 -26.99 Q 188.897 -26.822 189.359 -26.605 Q 189.821 -26.388 190.136 -26.01 Q 190.451 -25.632 190.451 -25.002 Q 190.451 -24.176 189.835 -23.588 Q 189.219 -23 188.099 -23 Z " fill="black" /><path d="M 194.693 -23 L 194.693 -23 Q 193.811 -23 193.09 -23.413 Q 192.369 -23.826 191.942 -24.603 Q 191.515 -25.38 191.515 -26.458 Q 191.515 -27.55 191.935 -28.334 Q 192.355 -29.118 193.048 -29.538 Q 193.741 -29.958 194.553 -29.958 Q 195.729 -29.958 196.422 -29.118 Q 197.115 -28.278 197.115 -26.85 Q 197.115 -26.668 197.101 -26.507 Q 197.087 -26.346 197.059 -26.22 L 192.621 -26.22 Q 192.691 -25.156 193.279 -24.526 Q 193.867 -23.896 194.819 -23.896 Q 195.281 -23.896 195.687 -24.043 Q 196.093 -24.19 196.457 -24.428 L 196.849 -23.7 Q 196.415 -23.406 195.883 -23.203 Q 195.351 -23 194.693 -23 Z M 192.621 -27.018 L 192.621 -27.018 L 196.135 -27.018 Q 196.135 -28.012 195.708 -28.537 Q 195.281 -29.062 194.539 -29.062 Q 193.811 -29.062 193.272 -28.544 Q 192.733 -28.026 192.621 -27.018 Z " fill="black" /></g><g><path d="M 170.011 -9 L 170.011 -9 Q 169.129 -9 168.408 -9.413 Q 167.687 -9.826 167.26 -10.603 Q 166.833 -11.38 166.833 -12.458 Q 166.833 -13.55 167.253 -14.334 Q 167.673 -15.118 168.366 -15.538 Q 169.059 -15.958 169.871 -15.958 Q 171.047 -15.958 171.74 -15.118 Q 172.433 -14.278 172.433 -12.85 Q 172.433 -12.668 172.419 -12.507 Q 172.405 -12.346 172.377 -12.22 L 167.939 -12.22 Q 168.009 -11.156 168.597 -10.526 Q 169.185 -9.896 170.137 -9.896 Q 170.599 -9.896 171.005 -10.043 Q 171.411 -10.19 171.775 -10.428 L 172.167 -9.7 Q 171.733 -9.406 171.201 -9.203 Q 170.669 -9 170.011 -9 Z M 167.939 -13.018 L 167.939 -13.018 L 171.453 -13.018 Q 171.453 -14.012 171.026 -14.537 Q 170.599 -15.062 169.857 -15.062 Q 169.129 -15.062 168.59 -14.544 Q 168.051 -14.026 167.939 -13.018 Z " fill="black" /><path d="M 174.043 -9.168 L 174.043 -9.168 L 174.043 -15.804 L 174.967 -15.804 L 175.065 -14.586 L 175.107 -14.586 Q 175.471 -15.244 175.947 -15.601 Q 176.423 -15.958 177.039 -15.958 Q 177.193 -15.958 177.361 -15.93 Q 177.529 -15.902 177.683 -15.832 L 177.473 -14.838 Q 177.291 -14.894 177.165 -14.922 Q 177.039 -14.95 176.885 -14.95 Q 176.423 -14.95 175.961 -14.614 Q 175.499 -14.278 175.163 -13.424 L 175.163 -9.168 Z " fill="black" /><path d="M 178.747 -9.168 L 178.747 -9.168 L 178.747 -15.804 L 179.671 -15.804 L 179.769 -14.586 L 179.811 -14.586 Q 180.175 -15.244 180.651 -15.601 Q 181.127 -15.958 181.743 -15.958 Q 181.897 -15.958 182.065 -15.93 Q 182.233 -15.902 182.387 -15.832 L 182.177 -14.838 Q 181.995 -14.894 181.869 -14.922 Q 181.743 -14.95 181.589 -14.95 Q 181.127 -14.95 180.665 -14.614 Q 180.203 -14.278 179.867 -13.424 L 179.867 -9.168 Z " fill="black" /><path d="M 186.013 -9 L 186.013 -9 Q 185.215 -9 184.515 -9.413 Q 183.815 -9.826 183.388 -10.603 Q 182.961 -11.38 182.961 -12.486 Q 182.961 -13.592 183.388 -14.362 Q 183.815 -15.132 184.515 -15.545 Q 185.215 -15.958 186.013 -15.958 Q 186.825 -15.958 187.525 -15.545 Q 188.225 -15.132 188.652 -14.362 Q 189.079 -13.592 189.079 -12.486 Q 189.079 -11.38 188.652 -10.603 Q 188.225 -9.826 187.525 -9.413 Q 186.825 -9 186.013 -9 Z M 186.013 -9.938 L 186.013 -9.938 Q 186.867 -9.938 187.392 -10.638 Q 187.917 -11.338 187.917 -12.486 Q 187.917 -13.62 187.392 -14.32 Q 186.867 -15.02 186.013 -15.02 Q 185.173 -15.02 184.648 -14.32 Q 184.123 -13.62 184.123 -12.486 Q 184.123 -11.338 184.648 -10.638 Q 185.173 -9.938 186.013 -9.938 Z " fill="black" /><path d="M 190.801 -9.168 L 190.801 -9.168 L 190.801 -15.804 L 191.725 -15.804 L 191.823 -14.586 L 191.865 -14.586 Q 192.229 -15.244 192.705 -15.601 Q 193.181 -15.958 193.797 -15.958 Q 193.951 -15.958 194.119 -15.93 Q 194.287 -15.902 194.441 -15.832 L 194.231 -14.838 Q 194.049 -14.894 193.923 -14.922 Q 193.797 -14.95 193.643 -14.95 Q 193.181 -14.95 192.719 -14.614 Q 192.257 -14.278 191.921 -13.424 L 191.921 -9.168 Z " fill="black" /></g></g></g><g><g><g><path d="M 272.831 -26.038 L 272.831 -26.038 Q 271.851 -26.038 271.424 -26.654 Q 270.997 -27.27 270.997 -28.264 L 270.997 -31.848 L 270.031 -31.848 L 270.031 -32.688 L 271.053 -32.758 L 271.193 -34.704 L 272.117 -34.704 L 272.117 -32.758 L 273.895 -32.758 L 273.895 -31.848 L 272.117 -31.848 L 272.117 -28.236 Q 272.117 -27.648 272.341 -27.305 Q 272.565 -26.962 273.097 -26.962 Q 273.321 -26.962 273.524 -27.018 Q 273.727 -27.074 273.881 -27.144 L 274.105 -26.29 Q 273.825 -26.192 273.51 -26.115 Q 273.195 -26.038 272.831 -26.038 Z " fill="black" /><path d="M 277.283 -26.038 L 277.283 -26.038 Q 276.275 -26.038 275.785 -26.71 Q 275.295 -27.382 275.295 -28.628 L 275.295 -32.842 L 276.415 -32.842 L 276.415 -28.782 Q 276.415 -27.872 276.709 -27.445 Q 277.003 -27.018 277.647 -27.018 Q 278.165 -27.018 278.557 -27.284 Q 278.949 -27.55 279.425 -28.138 L 279.425 -32.842 L 280.545 -32.842 L 280.545 -26.206 L 279.607 -26.206 L 279.523 -27.242 L 279.481 -27.242 Q 278.991 -26.668 278.48 -26.353 Q 277.969 -26.038 277.283 -26.038 Z " fill="black" /><path d="M 282.757 -26.206 L 282.757 -26.206 L 282.757 -32.842 L 283.681 -32.842 L 283.779 -31.89 L 283.821 -31.89 Q 284.297 -32.352 284.815 -32.674 Q 285.333 -32.996 286.061 -32.996 Q 287.055 -32.996 287.552 -32.338 Q 288.049 -31.68 288.049 -30.406 L 288.049 -26.206 L 286.915 -26.206 L 286.915 -30.266 Q 286.915 -31.19 286.628 -31.603 Q 286.341 -32.016 285.697 -32.016 Q 285.179 -32.016 284.773 -31.764 Q 284.367 -31.512 283.877 -31.008 L 283.877 -26.206 Z " fill="black" /><path d="M 290.163 -26.206 L 290.163 -26.206 L 290.163 -32.842 L 291.283 -32.842 L 291.283 -26.206 Z M 290.737 -34.2 L 290.737 -34.2 Q 290.415 -34.2 290.191 -34.41 Q 289.967 -34.62 289.967 -34.928 Q 289.967 -35.25 290.191 -35.453 Q 290.415 -35.656 290.737 -35.656 Q 291.059 -35.656 291.283 -35.453 Q 291.507 -35.25 291.507 -34.928 Q 291.507 -34.62 291.283 -34.41 Q 291.059 -34.2 290.737 -34.2 Z " fill="black" /><path d="M 293.509 -26.206 L 293.509 -26.206 L 293.509 -32.842 L 294.433 -32.842 L 294.531 -31.89 L 294.573 -31.89 Q 295.049 -32.352 295.567 -32.674 Q 296.085 -32.996 296.813 -32.996 Q 297.807 -32.996 298.304 -32.338 Q 298.801 -31.68 298.801 -30.406 L 298.801 -26.206 L 297.667 -26.206 L 297.667 -30.266 Q 297.667 -31.19 297.38 -31.603 Q 297.093 -32.016 296.449 -32.016 Q 295.931 -32.016 295.525 -31.764 Q 295.119 -31.512 294.629 -31.008 L 294.629 -26.206 Z " fill="black" /><path d="M 303.155 -23 L 303.155 -23 Q 301.937 -23 301.181 -23.49 Q 300.425 -23.98 300.425 -24.834 Q 300.425 -25.324 300.677 -25.723 Q 300.929 -26.122 301.391 -26.43 L 301.391 -26.486 Q 301.139 -26.64 300.964 -26.913 Q 300.789 -27.186 300.789 -27.55 Q 300.789 -27.998 301.027 -28.313 Q 301.265 -28.628 301.531 -28.81 L 301.531 -28.852 Q 301.195 -29.118 300.929 -29.58 Q 300.663 -30.042 300.663 -30.672 Q 300.663 -31.372 301.006 -31.897 Q 301.349 -32.422 301.916 -32.709 Q 302.483 -32.996 303.141 -32.996 Q 303.421 -32.996 303.666 -32.947 Q 303.911 -32.898 304.093 -32.828 L 306.389 -32.828 L 306.389 -31.96 L 305.045 -31.96 Q 305.269 -31.736 305.409 -31.386 Q 305.549 -31.036 305.549 -30.574 Q 305.549 -29.888 305.22 -29.377 Q 304.891 -28.866 304.359 -28.586 Q 303.827 -28.306 303.197 -28.306 Q 302.637 -28.306 302.161 -28.53 Q 301.979 -28.39 301.86 -28.215 Q 301.741 -28.04 301.741 -27.76 Q 301.741 -27.438 301.993 -27.235 Q 302.245 -27.032 302.889 -27.032 L 304.177 -27.032 Q 306.473 -27.032 306.473 -25.45 Q 306.473 -24.764 306.067 -24.211 Q 305.661 -23.658 304.919 -23.329 Q 304.177 -23 303.155 -23 Z M 303.253 -23.77 L 303.253 -23.77 Q 304.247 -23.77 304.814 -24.211 Q 305.381 -24.652 305.381 -25.254 Q 305.381 -25.716 305.031 -25.912 Q 304.681 -26.108 304.065 -26.108 L 302.917 -26.108 Q 302.735 -26.108 302.511 -26.129 Q 302.287 -26.15 302.063 -26.206 Q 301.713 -25.94 301.552 -25.639 Q 301.391 -25.338 301.391 -25.03 Q 301.391 -24.456 301.902 -24.113 Q 302.413 -23.77 303.253 -23.77 Z M 303.141 -29.062 L 303.141 -29.062 Q 303.715 -29.062 304.128 -29.489 Q 304.541 -29.916 304.541 -30.644 Q 304.541 -31.358 304.135 -31.771 Q 303.729 -32.184 303.141 -32.184 Q 302.567 -32.184 302.154 -31.778 Q 301.741 -31.372 301.741 -30.644 Q 301.741 -29.916 302.161 -29.489 Q 302.581 -29.062 303.141 -29.062 Z " fill="black" /></g><g><path d="M 269.562 -12.206 L 269.562 -12.206 L 267.196 -18.842 L 268.344 -18.842 L 269.59 -15.076 Q 269.744 -14.6 269.898 -14.096 Q 270.052 -13.592 270.192 -13.116 L 270.248 -13.116 Q 270.402 -13.592 270.556 -14.096 Q 270.71 -14.6 270.85 -15.076 L 272.096 -18.842 L 273.202 -18.842 L 270.864 -12.206 Z " fill="black" /><path d="M 277.038 -12.038 L 277.038 -12.038 Q 276.24 -12.038 275.54 -12.451 Q 274.84 -12.864 274.413 -13.641 Q 273.986 -14.418 273.986 -15.524 Q 273.986 -16.63 274.413 -17.4 Q 274.84 -18.17 275.54 -18.583 Q 276.24 -18.996 277.038 -18.996 Q 277.85 -18.996 278.55 -18.583 Q 279.25 -18.17 279.677 -17.4 Q 280.104 -16.63 280.104 -15.524 Q 280.104 -14.418 279.677 -13.641 Q 279.25 -12.864 278.55 -12.451 Q 277.85 -12.038 277.038 -12.038 Z M 277.038 -12.976 L 277.038 -12.976 Q 277.892 -12.976 278.417 -13.676 Q 278.942 -14.376 278.942 -15.524 Q 278.942 -16.658 278.417 -17.358 Q 277.892 -18.058 277.038 -18.058 Q 276.198 -18.058 275.673 -17.358 Q 275.148 -16.658 275.148 -15.524 Q 275.148 -14.376 275.673 -13.676 Q 276.198 -12.976 277.038 -12.976 Z " fill="black" /><path d="M 283.03 -12.038 L 283.03 -12.038 Q 282.386 -12.038 282.106 -12.423 Q 281.826 -12.808 281.826 -13.536 L 281.826 -22.09 L 282.946 -22.09 L 282.946 -13.466 Q 282.946 -13.2 283.044 -13.088 Q 283.142 -12.976 283.268 -12.976 Q 283.31 -12.976 283.359 -12.983 Q 283.408 -12.99 283.506 -13.004 L 283.646 -12.15 Q 283.534 -12.108 283.387 -12.073 Q 283.24 -12.038 283.03 -12.038 Z " fill="black" /><path d="M 287.314 -12.038 L 287.314 -12.038 Q 286.334 -12.038 285.907 -12.654 Q 285.48 -13.27 285.48 -14.264 L 285.48 -17.848 L 284.514 -17.848 L 284.514 -18.688 L 285.536 -18.758 L 285.676 -20.704 L 286.6 -20.704 L 286.6 -18.758 L 288.378 -18.758 L 288.378 -17.848 L 286.6 -17.848 L 286.6 -14.236 Q 286.6 -13.648 286.824 -13.305 Q 287.048 -12.962 287.58 -12.962 Q 287.804 -12.962 288.007 -13.018 Q 288.21 -13.074 288.364 -13.144 L 288.588 -12.29 Q 288.308 -12.192 287.993 -12.115 Q 287.678 -12.038 287.314 -12.038 Z " fill="black" /><path d="M 291.374 -12.038 L 291.374 -12.038 Q 290.562 -12.038 290.009 -12.535 Q 289.456 -13.032 289.456 -13.928 Q 289.456 -15.02 290.422 -15.601 Q 291.388 -16.182 293.502 -16.406 Q 293.502 -16.84 293.39 -17.218 Q 293.278 -17.596 292.977 -17.834 Q 292.676 -18.072 292.13 -18.072 Q 291.584 -18.072 291.08 -17.848 Q 290.576 -17.624 290.184 -17.372 L 289.736 -18.142 Q 290.198 -18.45 290.87 -18.723 Q 291.542 -18.996 292.326 -18.996 Q 293.53 -18.996 294.076 -18.261 Q 294.622 -17.526 294.622 -16.28 L 294.622 -12.206 L 293.698 -12.206 L 293.6 -13.004 L 293.572 -13.004 Q 293.096 -12.612 292.55 -12.325 Q 292.004 -12.038 291.374 -12.038 Z M 291.71 -12.948 L 291.71 -12.948 Q 292.186 -12.948 292.606 -13.179 Q 293.026 -13.41 293.502 -13.816 L 293.502 -15.664 Q 291.878 -15.468 291.213 -15.062 Q 290.548 -14.656 290.548 -13.998 Q 290.548 -13.452 290.891 -13.2 Q 291.234 -12.948 291.71 -12.948 Z " fill="black" /><path d="M 298.934 -9 L 298.934 -9 Q 297.716 -9 296.96 -9.49 Q 296.204 -9.98 296.204 -10.834 Q 296.204 -11.324 296.456 -11.723 Q 296.708 -12.122 297.17 -12.43 L 297.17 -12.486 Q 296.918 -12.64 296.743 -12.913 Q 296.568 -13.186 296.568 -13.55 Q 296.568 -13.998 296.806 -14.313 Q 297.044 -14.628 297.31 -14.81 L 297.31 -14.852 Q 296.974 -15.118 296.708 -15.58 Q 296.442 -16.042 296.442 -16.672 Q 296.442 -17.372 296.785 -17.897 Q 297.128 -18.422 297.695 -18.709 Q 298.262 -18.996 298.92 -18.996 Q 299.2 -18.996 299.445 -18.947 Q 299.69 -18.898 299.872 -18.828 L 302.168 -18.828 L 302.168 -17.96 L 300.824 -17.96 Q 301.048 -17.736 301.188 -17.386 Q 301.328 -17.036 301.328 -16.574 Q 301.328 -15.888 300.999 -15.377 Q 300.67 -14.866 300.138 -14.586 Q 299.606 -14.306 298.976 -14.306 Q 298.416 -14.306 297.94 -14.53 Q 297.758 -14.39 297.639 -14.215 Q 297.52 -14.04 297.52 -13.76 Q 297.52 -13.438 297.772 -13.235 Q 298.024 -13.032 298.668 -13.032 L 299.956 -13.032 Q 302.252 -13.032 302.252 -11.45 Q 302.252 -10.764 301.846 -10.211 Q 301.44 -9.658 300.698 -9.329 Q 299.956 -9 298.934 -9 Z M 299.032 -9.77 L 299.032 -9.77 Q 300.026 -9.77 300.593 -10.211 Q 301.16 -10.652 301.16 -11.254 Q 301.16 -11.716 300.81 -11.912 Q 300.46 -12.108 299.844 -12.108 L 298.696 -12.108 Q 298.514 -12.108 298.29 -12.129 Q 298.066 -12.15 297.842 -12.206 Q 297.492 -11.94 297.331 -11.639 Q 297.17 -11.338 297.17 -11.03 Q 297.17 -10.456 297.681 -10.113 Q 298.192 -9.77 299.032 -9.77 Z M 298.92 -15.062 L 298.92 -15.062 Q 299.494 -15.062 299.907 -15.489 Q 300.32 -15.916 300.32 -16.644 Q 300.32 -17.358 299.914 -17.771 Q 299.508 -18.184 298.92 -18.184 Q 298.346 -18.184 297.933 -17.778 Q 297.52 -17.372 297.52 -16.644 Q 297.52 -15.916 297.94 -15.489 Q 298.36 -15.062 298.92 -15.062 Z " fill="black" /><path d="M 306.214 -12.038 L 306.214 -12.038 Q 305.332 -12.038 304.611 -12.451 Q 303.89 -12.864 303.463 -13.641 Q 303.036 -14.418 303.036 -15.496 Q 303.036 -16.588 303.456 -17.372 Q 303.876 -18.156 304.569 -18.576 Q 305.262 -18.996 306.074 -18.996 Q 307.25 -18.996 307.943 -18.156 Q 308.636 -17.316 308.636 -15.888 Q 308.636 -15.706 308.622 -15.545 Q 308.608 -15.384 308.58 -15.258 L 304.142 -15.258 Q 304.212 -14.194 304.8 -13.564 Q 305.388 -12.934 306.34 -12.934 Q 306.802 -12.934 307.208 -13.081 Q 307.614 -13.228 307.978 -13.466 L 308.37 -12.738 Q 307.936 -12.444 307.404 -12.241 Q 306.872 -12.038 306.214 -12.038 Z M 304.142 -16.056 L 304.142 -16.056 L 307.656 -16.056 Q 307.656 -17.05 307.229 -17.575 Q 306.802 -18.1 306.06 -18.1 Q 305.332 -18.1 304.793 -17.582 Q 304.254 -17.064 304.142 -16.056 Z " fill="black" /></g></g></g><g><g><g><path d="M 332.48 -25.368 L 332.48 -25.368 L 329.484 -34.566 L 330.758 -34.566 L 332.27 -29.61 Q 332.508 -28.798 332.704 -28.091 Q 332.9 -27.384 333.166 -26.572 L 333.236 -26.572 Q 333.488 -27.384 333.691 -28.091 Q 333.894 -28.798 334.132 -29.61 L 335.63 -34.566 L 336.848 -34.566 L 333.866 -25.368 Z " fill="black" /><path d="M 341.692 -25.2 L 341.692 -25.2 Q 340.53 -25.2 339.599 -25.767 Q 338.668 -26.334 338.136 -27.398 Q 337.604 -28.462 337.604 -29.932 Q 337.604 -31.43 338.15 -32.501 Q 338.696 -33.572 339.627 -34.146 Q 340.558 -34.72 341.706 -34.72 Q 342.686 -34.72 343.316 -34.363 Q 343.946 -34.006 344.338 -33.586 L 343.68 -32.816 Q 342.868 -33.684 341.748 -33.684 Q 340.894 -33.684 340.236 -33.236 Q 339.578 -32.788 339.207 -31.955 Q 338.836 -31.122 338.836 -29.96 Q 338.836 -28.826 339.193 -27.993 Q 339.55 -27.16 340.201 -26.705 Q 340.852 -26.25 341.734 -26.25 Q 342.406 -26.25 342.938 -26.523 Q 343.47 -26.796 343.918 -27.272 L 344.562 -26.53 Q 344.002 -25.9 343.302 -25.55 Q 342.602 -25.2 341.692 -25.2 Z " fill="black" /><path d="M 349.784 -25.2 L 349.784 -25.2 Q 348.608 -25.2 347.705 -25.781 Q 346.802 -26.362 346.291 -27.44 Q 345.78 -28.518 345.78 -30.002 Q 345.78 -31.472 346.291 -32.529 Q 346.802 -33.586 347.705 -34.153 Q 348.608 -34.72 349.784 -34.72 Q 350.974 -34.72 351.877 -34.153 Q 352.78 -33.586 353.291 -32.529 Q 353.802 -31.472 353.802 -30.002 Q 353.802 -28.532 353.291 -27.454 Q 352.78 -26.376 351.877 -25.788 Q 350.974 -25.2 349.784 -25.2 Z M 349.784 -26.25 L 349.784 -26.25 Q 350.624 -26.25 351.247 -26.712 Q 351.87 -27.174 352.213 -28.021 Q 352.556 -28.868 352.556 -30.002 Q 352.556 -31.71 351.8 -32.697 Q 351.044 -33.684 349.784 -33.684 Q 348.524 -33.684 347.768 -32.697 Q 347.012 -31.71 347.012 -30.002 Q 347.012 -28.868 347.355 -28.021 Q 347.698 -27.174 348.321 -26.712 Q 348.944 -26.25 349.784 -26.25 Z " fill="black" /></g></g></g><circle cx="396.0" cy="-0.0" r="2.6999999999999997" style="stroke:black;fill:black;stroke-width:2.0;stroke-dasharray:-;" /><g><g><g><path d="M 438.26 -3.136 L 438.26 -3.136 L 439.464 -3.136 Q 439.59 -3.724 439.737 -4.27 Q 439.884 -4.816 440.122 -5.25 Q 440.304 -5.586 440.57 -5.88 Q 440.836 -6.174 441.249 -6.363 Q 441.662 -6.552 442.264 -6.552 Q 442.908 -6.552 443.251 -6.265 Q 443.594 -5.978 443.594 -5.53 Q 443.594 -5.222 443.426 -5.068 Q 443.258 -4.914 443.034 -4.914 Q 442.754 -4.914 442.628 -5.075 Q 442.502 -5.236 442.474 -5.46 Q 442.432 -5.726 442.369 -5.936 Q 442.306 -6.146 442.054 -6.146 Q 441.522 -6.146 441.228 -5.586 Q 440.934 -5.026 440.78 -4.13 L 440.612 -3.136 L 441.942 -3.136 L 441.858 -2.562 L 440.542 -2.562 L 439.744 2.212 Q 439.688 2.576 439.569 3.122 Q 439.45 3.668 439.24 4.263 Q 439.03 4.858 438.729 5.376 Q 438.428 5.894 437.994 6.223 Q 437.56 6.552 436.986 6.552 Q 436.314 6.552 436.027 6.23 Q 435.74 5.908 435.74 5.544 Q 435.74 5.25 435.887 5.054 Q 436.034 4.858 436.3 4.858 Q 436.622 4.858 436.734 5.047 Q 436.846 5.236 436.874 5.481 Q 436.902 5.726 436.958 5.915 Q 437.014 6.104 437.21 6.104 Q 437.49 6.104 437.7 5.74 Q 437.91 5.376 438.064 4.837 Q 438.218 4.298 438.316 3.766 Q 438.414 3.234 438.47 2.884 L 439.38 -2.562 L 438.204 -2.562 Z " fill="black" /><path d="M 443.92 1.197 L 443.92 1.197 Q 444.655 1.197 445.204 1.516 Q 445.753 1.834 446.052 2.407 Q 446.351 2.981 446.351 3.755 Q 446.351 4.686 446.037 5.284 Q 445.723 5.881 445.175 6.171 Q 444.626 6.46 443.92 6.46 Q 443.205 6.46 442.651 6.161 Q 442.097 5.862 441.789 5.264 Q 441.48 4.666 441.48 3.765 Q 441.48 3 441.784 2.422 Q 442.088 1.844 442.636 1.52 Q 443.185 1.197 443.92 1.197 Z M 443.901 1.648 L 443.901 1.648 Q 443.254 1.648 442.886 2.172 Q 442.519 2.696 442.519 3.706 Q 442.519 4.95 442.896 5.465 Q 443.273 5.979 443.95 5.979 Q 444.381 5.97 444.685 5.764 Q 444.988 5.558 445.15 5.073 Q 445.312 4.588 445.312 3.755 Q 445.312 2.755 444.969 2.202 Q 444.626 1.648 443.901 1.648 Z " fill="black" /><path d="M 453.015 5.842 L 453.015 5.842 L 453.015 6.215 L 451.692 6.391 L 451.378 6.391 L 451.378 5.627 L 451.28 5.627 Q 450.908 5.96 450.525 6.2 Q 450.143 6.44 449.604 6.44 Q 448.879 6.44 448.497 5.999 Q 448.115 5.558 448.115 4.47 L 448.115 2.363 Q 448.115 1.961 447.972 1.868 Q 447.83 1.775 447.38 1.775 L 447.38 1.422 L 448.742 1.236 L 449.065 1.236 L 449.065 4.343 Q 449.065 4.892 449.193 5.195 Q 449.32 5.499 449.536 5.617 Q 449.751 5.734 450.006 5.734 Q 450.437 5.734 450.726 5.553 Q 451.015 5.372 451.329 5.117 L 451.329 2.363 Q 451.329 1.961 451.153 1.868 Q 450.976 1.775 450.476 1.775 L 450.476 1.422 L 451.937 1.236 L 452.28 1.236 L 452.28 5.205 Q 452.28 5.499 452.333 5.636 Q 452.387 5.774 452.525 5.808 Q 452.662 5.842 452.907 5.842 Z " fill="black" /><path d="M 456.837 5.362 L 456.837 5.362 L 457.062 5.548 Q 456.846 5.842 456.67 6.043 Q 456.494 6.244 456.268 6.352 Q 456.043 6.46 455.69 6.46 Q 455.122 6.46 454.862 6.136 Q 454.602 5.813 454.602 5.097 L 454.602 1.805 L 453.985 1.805 L 453.985 1.511 Q 454.338 1.256 454.632 0.888 Q 454.926 0.521 455.22 -0.165 L 455.563 -0.165 L 455.553 1.324 L 456.797 1.324 L 456.797 1.805 L 455.553 1.805 L 455.553 4.774 Q 455.553 5.323 455.656 5.553 Q 455.759 5.783 456.072 5.783 Q 456.356 5.783 456.503 5.681 Q 456.65 5.578 456.837 5.362 Z " fill="black" /></g></g></g><g><g><g><path d="M 266.647 75.843 L 266.647 75.843 Q 266.647 76.165 266.423 76.41 Q 266.199 76.655 265.779 76.655 Q 265.359 76.655 265.156 76.417 Q 264.953 76.179 264.953 75.829 Q 264.953 75.465 265.177 75.206 Q 265.401 74.947 265.793 74.947 Q 266.199 74.947 266.423 75.213 Q 266.647 75.479 266.647 75.843 Z M 266.647 70.747 L 266.647 70.747 Q 266.647 71.069 266.423 71.314 Q 266.199 71.559 265.779 71.559 Q 265.359 71.559 265.156 71.321 Q 264.953 71.083 264.953 70.733 Q 264.953 70.369 265.177 70.11 Q 265.401 69.851 265.793 69.851 Q 266.199 69.851 266.423 70.117 Q 266.647 70.383 266.647 70.747 Z " fill="black" /><path d="M 268.803 76.543 L 268.803 76.543 L 268.803 67.345 L 270.049 67.345 L 273.437 73.099 L 274.445 75.003 L 274.515 75.003 Q 274.473 74.303 274.417 73.547 Q 274.361 72.791 274.361 72.063 L 274.361 67.345 L 275.495 67.345 L 275.495 76.543 L 274.263 76.543 L 270.861 70.789 L 269.853 68.885 L 269.797 68.885 Q 269.839 69.585 269.895 70.32 Q 269.951 71.055 269.951 71.769 L 269.951 76.543 Z " fill="black" /></g></g></g><g><g><g><path d="M 153.979 56.786 L 153.979 56.786 L 155.183 56.786 Q 155.309 56.198 155.456 55.652 Q 155.603 55.106 155.841 54.672 Q 156.023 54.336 156.289 54.042 Q 156.555 53.748 156.968 53.559 Q 157.381 53.37 157.983 53.37 Q 158.627 53.37 158.97 53.657 Q 159.313 53.944 159.313 54.392 Q 159.313 54.7 159.145 54.854 Q 158.977 55.008 158.753 55.008 Q 158.473 55.008 158.347 54.847 Q 158.221 54.686 158.193 54.462 Q 158.151 54.196 158.088 53.986 Q 158.025 53.776 157.773 53.776 Q 157.241 53.776 156.947 54.336 Q 156.653 54.896 156.499 55.792 L 156.331 56.786 L 157.661 56.786 L 157.577 57.36 L 156.261 57.36 L 155.463 62.134 Q 155.407 62.498 155.288 63.044 Q 155.169 63.59 154.959 64.185 Q 154.749 64.78 154.448 65.298 Q 154.147 65.816 153.713 66.145 Q 153.279 66.474 152.705 66.474 Q 152.033 66.474 151.746 66.152 Q 151.459 65.83 151.459 65.466 Q 151.459 65.172 151.606 64.976 Q 151.753 64.78 152.019 64.78 Q 152.341 64.78 152.453 64.969 Q 152.565 65.158 152.593 65.403 Q 152.621 65.648 152.677 65.837 Q 152.733 66.026 152.929 66.026 Q 153.209 66.026 153.419 65.662 Q 153.629 65.298 153.783 64.759 Q 153.937 64.22 154.035 63.688 Q 154.133 63.156 154.189 62.806 L 155.099 57.36 L 153.923 57.36 Z " fill="black" /><path d="M 157.706 61.432 L 157.706 61.432 L 158.657 61.432 Q 158.735 61.07 158.858 60.643 Q 158.98 60.217 159.176 59.864 Q 159.343 59.6 159.568 59.369 Q 159.794 59.139 160.137 59.002 Q 160.48 58.865 160.97 58.865 Q 161.46 58.865 161.719 59.09 Q 161.979 59.315 161.979 59.658 Q 161.979 59.884 161.832 60.006 Q 161.685 60.129 161.518 60.129 Q 161.293 60.129 161.195 59.996 Q 161.097 59.864 161.068 59.698 Q 161.048 59.502 161.004 59.345 Q 160.96 59.188 160.813 59.188 Q 160.519 59.188 160.293 59.404 Q 160.068 59.619 159.906 59.987 Q 159.745 60.354 159.647 60.805 L 159.539 61.432 L 160.617 61.432 L 160.529 61.883 L 159.49 61.883 L 158.833 65.342 Q 158.774 65.627 158.681 66.019 Q 158.588 66.411 158.431 66.827 Q 158.275 67.244 158.034 67.601 Q 157.794 67.959 157.461 68.179 Q 157.128 68.4 156.667 68.4 Q 156.295 68.4 156.074 68.273 Q 155.854 68.145 155.761 67.964 Q 155.668 67.783 155.668 67.626 Q 155.668 67.381 155.8 67.239 Q 155.932 67.097 156.119 67.097 Q 156.354 67.097 156.452 67.239 Q 156.55 67.381 156.589 67.562 Q 156.628 67.743 156.682 67.885 Q 156.736 68.028 156.893 68.028 Q 157.059 68.028 157.192 67.846 Q 157.324 67.665 157.432 67.381 Q 157.54 67.097 157.623 66.778 Q 157.706 66.46 157.76 66.18 Q 157.814 65.901 157.843 65.744 L 158.569 61.873 L 157.638 61.873 Z " fill="black" /><path d="M 164.468 61.961 L 164.468 61.961 L 164.547 61.961 Q 164.87 61.589 165.237 61.393 Q 165.605 61.197 166.046 61.197 Q 166.742 61.197 167.168 61.682 Q 167.594 62.167 167.594 63.098 Q 167.594 63.725 167.384 64.313 Q 167.173 64.901 166.781 65.372 Q 166.389 65.842 165.83 66.117 Q 165.272 66.391 164.576 66.391 Q 164.076 66.391 163.655 66.303 Q 163.233 66.215 162.802 66.028 L 163.949 60.129 Q 163.959 60.099 163.978 59.962 Q 163.998 59.825 163.998 59.717 Q 163.998 59.364 163.616 59.364 Q 163.527 59.364 163.41 59.374 Q 163.292 59.384 163.292 59.384 L 163.292 59.061 L 164.713 58.953 L 165.066 58.953 Z M 164.292 62.99 L 164.292 62.99 L 163.802 65.538 Q 163.91 65.636 164.14 65.764 Q 164.37 65.891 164.684 65.891 Q 165.321 65.891 165.747 65.524 Q 166.173 65.156 166.389 64.539 Q 166.605 63.921 166.605 63.157 Q 166.605 62.393 166.345 62.103 Q 166.085 61.814 165.742 61.814 Q 165.37 61.814 165.095 62.001 Q 164.821 62.187 164.625 62.456 Q 164.429 62.726 164.292 62.99 Z " fill="black" /><path d="M 182.392 58.746 L 182.392 58.746 L 174.048 58.746 L 174.048 57.794 L 182.392 57.794 Z M 182.392 61.602 L 182.392 61.602 L 174.048 61.602 L 174.048 60.664 L 182.392 60.664 Z " fill="black" /><path d="M 191.104 56.786 L 191.104 56.786 L 192.308 56.786 Q 192.434 56.198 192.581 55.652 Q 192.728 55.106 192.966 54.672 Q 193.148 54.336 193.414 54.042 Q 193.68 53.748 194.093 53.559 Q 194.506 53.37 195.108 53.37 Q 195.752 53.37 196.095 53.657 Q 196.438 53.944 196.438 54.392 Q 196.438 54.7 196.27 54.854 Q 196.102 55.008 195.878 55.008 Q 195.598 55.008 195.472 54.847 Q 195.346 54.686 195.318 54.462 Q 195.276 54.196 195.213 53.986 Q 195.15 53.776 194.898 53.776 Q 194.366 53.776 194.072 54.336 Q 193.778 54.896 193.624 55.792 L 193.456 56.786 L 194.786 56.786 L 194.702 57.36 L 193.386 57.36 L 192.588 62.134 Q 192.532 62.498 192.413 63.044 Q 192.294 63.59 192.084 64.185 Q 191.874 64.78 191.573 65.298 Q 191.272 65.816 190.838 66.145 Q 190.404 66.474 189.83 66.474 Q 189.158 66.474 188.871 66.152 Q 188.584 65.83 188.584 65.466 Q 188.584 65.172 188.731 64.976 Q 188.878 64.78 189.144 64.78 Q 189.466 64.78 189.578 64.969 Q 189.69 65.158 189.718 65.403 Q 189.746 65.648 189.802 65.837 Q 189.858 66.026 190.054 66.026 Q 190.334 66.026 190.544 65.662 Q 190.754 65.298 190.908 64.759 Q 191.062 64.22 191.16 63.688 Q 191.258 63.156 191.314 62.806 L 192.224 57.36 L 191.048 57.36 Z " fill="black" /><path d="M 196.764 61.119 L 196.764 61.119 Q 197.499 61.119 198.048 61.437 Q 198.597 61.756 198.896 62.329 Q 199.194 62.902 199.194 63.676 Q 199.194 64.607 198.881 65.205 Q 198.567 65.803 198.018 66.092 Q 197.47 66.381 196.764 66.381 Q 196.049 66.381 195.495 66.082 Q 194.941 65.783 194.633 65.186 Q 194.324 64.588 194.324 63.686 Q 194.324 62.922 194.628 62.344 Q 194.931 61.765 195.48 61.442 Q 196.029 61.119 196.764 61.119 Z M 196.744 61.569 L 196.744 61.569 Q 196.098 61.569 195.73 62.094 Q 195.363 62.618 195.363 63.627 Q 195.363 64.872 195.74 65.386 Q 196.117 65.901 196.793 65.901 Q 197.225 65.891 197.528 65.685 Q 197.832 65.48 197.994 64.994 Q 198.156 64.509 198.156 63.676 Q 198.156 62.677 197.813 62.123 Q 197.47 61.569 196.744 61.569 Z " fill="black" /><path d="M 205.858 65.764 L 205.858 65.764 L 205.858 66.136 L 204.535 66.313 L 204.222 66.313 L 204.222 65.548 L 204.124 65.548 Q 203.751 65.881 203.369 66.121 Q 202.987 66.362 202.448 66.362 Q 201.723 66.362 201.341 65.921 Q 200.958 65.48 200.958 64.392 L 200.958 62.285 Q 200.958 61.883 200.816 61.79 Q 200.674 61.697 200.223 61.697 L 200.223 61.344 L 201.586 61.158 L 201.909 61.158 L 201.909 64.264 Q 201.909 64.813 202.036 65.117 Q 202.164 65.421 202.379 65.538 Q 202.595 65.656 202.85 65.656 Q 203.281 65.656 203.57 65.475 Q 203.859 65.293 204.173 65.039 L 204.173 62.285 Q 204.173 61.883 203.996 61.79 Q 203.82 61.697 203.32 61.697 L 203.32 61.344 L 204.78 61.158 L 205.123 61.158 L 205.123 65.127 Q 205.123 65.421 205.177 65.558 Q 205.231 65.695 205.368 65.729 Q 205.506 65.764 205.751 65.764 Z " fill="black" /><path d="M 209.68 65.284 L 209.68 65.284 L 209.906 65.47 Q 209.69 65.764 209.514 65.965 Q 209.337 66.166 209.112 66.273 Q 208.887 66.381 208.534 66.381 Q 207.965 66.381 207.706 66.058 Q 207.446 65.734 207.446 65.019 L 207.446 61.726 L 206.829 61.726 L 206.829 61.432 Q 207.181 61.177 207.475 60.81 Q 207.769 60.442 208.063 59.756 L 208.406 59.756 L 208.397 61.246 L 209.641 61.246 L 209.641 61.726 L 208.397 61.726 L 208.397 64.696 Q 208.397 65.244 208.5 65.475 Q 208.602 65.705 208.916 65.705 Q 209.2 65.705 209.347 65.602 Q 209.494 65.499 209.68 65.284 Z " fill="black" /><path d="M 215.075 53.398 L 215.075 53.398 L 211.435 64.57 L 210.651 64.57 L 214.305 53.398 Z " fill="black" /><path d="M 226.821 54.126 L 226.821 54.126 L 226.737 54.546 Q 226.359 54.546 226.156 54.616 Q 225.953 54.686 225.799 54.826 Q 225.673 54.938 225.547 55.099 Q 225.421 55.26 225.309 55.568 Q 225.197 55.876 225.085 56.422 L 223.657 63.436 L 223.195 63.436 L 219.079 55.918 L 219.009 55.918 L 217.917 61.238 Q 217.777 61.938 217.805 62.295 Q 217.833 62.652 218.092 62.778 Q 218.351 62.904 218.869 62.904 L 218.785 63.324 L 215.565 63.324 L 215.649 62.904 Q 216.195 62.904 216.489 62.785 Q 216.783 62.666 216.937 62.302 Q 217.091 61.938 217.231 61.238 L 218.477 55.19 Q 218.239 54.798 218.001 54.672 Q 217.763 54.546 217.315 54.546 L 217.399 54.126 L 219.597 54.126 L 223.377 61.014 L 223.447 61.014 L 224.413 56.352 Q 224.539 55.722 224.546 55.4 Q 224.553 55.078 224.455 54.896 Q 224.329 54.686 224.105 54.616 Q 223.881 54.546 223.433 54.546 L 223.517 54.126 Z " fill="black" /></g></g></g></svg>