<svg xmlns="http://www.w3.org/2000/svg" xmlns:xlink="http://www.w3.org/1999/xlink" xml:lang="en" height="287.978pt" width="339.6206pt" viewBox="-39.46639999999999 -260.33799999999997 339.6206 287.978"><circle cx="2.204364238465236e-15" cy="-36.0" r="18.0" style="stroke:black;fill:none;stroke-width:2.0;stroke-dasharray:-;" /><circle cx="198.0" cy="-36.0" r="18.0" style="stroke:black;fill:none;stroke-width:2.0;stroke-dasharray:-;" /><path d="M 0.0,-0.0 L 0.0,14.4 L -9.0,14.4 L 9.0,14.4 M -6.3,18.72 L 6.3,18.72 M -1.8,23.04 L 1.8,23.04" style="stroke:black;fill:none;stroke-width:2.0;stroke-dasharray:-;stroke-linecap:round;stroke-linejoin:round;" /><path d="M 0.0,-0.0 L 1.102182119232618e-15,-18.0 L 1.102182119232618e-15,-18.0 M 3.3065463576978533e-15,-54.0 L 3.3065463576978533e-15,-54.0 L 4.408728476930472e-15,-72.0" style="stroke:black;fill:none;stroke-width:2.0;stroke-dasharray:-;stroke-linecap:round;stroke-linejoin:round;" /><path d="M 9.000000000000002,-36.0 L 8.250000000000002,-37.86349712473816 L 7.500000000000003,-39.6 L 6.750000000000003,-41.091168824543146 L 6.0000000000000036,-42.23538290724795 L 5.2500000000000036,-42.95466594928129 L 4.500000000000003,-43.199999999999996 L 3.750000000000003,-42.9546659492813 L 3.0000000000000027,-42.23538290724795 L 2.2500000000000027,-41.09116882454314 L 1.500000000000003,-39.6 L 0.7500000000000027,-37.863497124738146 L 2.204364238465236e-15,-36.0 L -0.7499999999999972,-34.136502875261854 L -1.4999999999999967,-32.400000000000006 L -2.2499999999999982,-30.908831175456857 L -2.9999999999999973,-29.764617092752044 L -3.7499999999999964,-29.04533405071871 L -4.499999999999998,-28.8 L -5.249999999999997,-29.045334050718708 L -5.9999999999999964,-29.76461709275204 L -6.749999999999998,-30.90883117545686 L -7.499999999999997,-32.4 L -8.249999999999996,-34.13650287526185 L -8.999999999999998,-36.0" style="stroke:black;fill:none;stroke-width:2.0;stroke-dasharray:-;stroke-linecap:round;stroke-linejoin:round;" /><path d="M 4.408728476930472e-15,-72.0 L 18.000000000000004,-72.0 L 21.000000000000007,-81.0 L 27.000000000000004,-63.0 L 33.0,-81.0 L 39.00000000000001,-63.0 L 45.00000000000001,-81.0 L 51.0,-63.0 L 54.00000000000001,-72.0 L 72.0,-72.0" style="stroke:black;fill:none;stroke-width:2.0;stroke-dasharray:-;stroke-linecap:round;stroke-linejoin:round;" /><path d="M 72.0,-72.0 L 81.0,-72.0 L 90.0,-72.0" style="stroke:black;fill:none;stroke-width:2.0;stroke-dasharray:-;stroke-linecap:round;stroke-linejoin:round;" /><path d="M 90.0,-72.0 L 144.0,-72.0 L 198.0,-72.0" style="stroke:black;fill:none;stroke-width:2.0;stroke-dasharray:-;stroke-linecap:round;stroke-linejoin:round;" /><path d="M 198.0,-72.0 L 198.0,-81.0 L 198.0,-90.0" style="stroke:black;fill:none;stroke-width:2.0;stroke-dasharray:-;stroke-linecap:round;stroke-linejoin:round;" /><path d="M 198.0,-90.0 L 198.0,-105.0 L 183.0,-105.0 L 183.0,-135.0 L 198.0,-135.0 L 198.0,-149.99999999999997" style="stroke:black;fill:none;stroke-width:2.0;stroke-dasharray:-;stroke-linecap:round;stroke-linejoin:round;" /><path d="M 189.0,-105.0 L 183.0,-105.0" style="stroke:black;fill:none;stroke-width:2.0;stroke-dasharray:-;stroke-linecap:round;stroke-linejoin:round;" /><path d="M 196.0 -105.0 L 189.0 -100.5 L 189.0 -109.5 Z" style="stroke:black;fill:black;stroke-linecap:butt;stroke-linejoin:miter;" /><path d="M 180.0,-108.0 L 180.0,-132.0" style="stroke:black;fill:none;stroke-width:2.0;stroke-dasharray:-;stroke-linecap:round;stroke-linejoin:round;" /><path d="M 165.00000000000003,-119.99999999999999 L 180.0,-119.99999999999999" style="stroke:black;fill:none;stroke-width:2.0;stroke-dasharray:-;stroke-linecap:round;stroke-linejoin:round;" /><path d="M 165.00000000000003,-119.99999999999999 L 156.00000000000003,-119.99999999999999 L 147.00000000000003,-119.99999999999999" style="stroke:black;fill:none;stroke-width:2.0;stroke-dasharray:-;stroke-linecap:round;stroke-linejoin:round;" /><path d="M 198.0,-72.0 L 198.0,-54.0 L 198.0,-54.0 M 198.0,-18.0 L 198.0,-18.0 L 198.0,-0.0" style="stroke:black;fill:none;stroke-width:2.0;stroke-dasharray:-;stroke-linecap:round;stroke-linejoin:round;" /><path d="M 198.0,-45.0 L 198.0,-36.0" style="stroke:black;fill:none;stroke-width:2.0;stroke-dasharray:-;stroke-linecap:round;stroke-linejoin:round;" /><path d="M 198.0 -29.0 L 195.3 -36.0 L 200.7 -36.0 Z" style="stroke:black;fill:black;stroke-linecap:butt;stroke-linejoin:miter;" /><path d="M 198.0,-0.0 L 198.0,14.4 L 189.0,14.4 L 207.0,14.4 M 191.70000000000002,18.72 L 204.29999999999998,18.72 M 196.20000000000002,23.04 L 199.79999999999998,23.04" style="stroke:black;fill:none;stroke-width:2.0;stroke-dasharray:-;stroke-linecap:round;stroke-linejoin:round;" /><path d="M 198.0,-149.99999999999997 L 198.0,-158.99999999999997 L 198.0,-167.99999999999997" style="stroke:black;fill:none;stroke-width:2.0;stroke-dasharray:-;stroke-linecap:round;stroke-linejoin:round;" /><path d="M 198.0,-167.99999999999997 L 198.0,-185.99999999999997 L 189.0,-188.99999999999997 L 207.0,-194.99999999999997 L 189.0,-201.0 L 207.0,-206.99999999999997 L 189.0,-212.99999999999997 L 207.0,-218.99999999999994 L 198.0,-221.99999999999997 L 198.0,-239.99999999999997" style="stroke:black;fill:none;stroke-width:2.0;stroke-dasharray:-;stroke-linecap:round;stroke-linejoin:round;" /><path d="M 198.0,-167.99999999999997 L 180.0,-167.99999999999997 L 162.0,-167.99999999999997" style="stroke:black;fill:none;stroke-width:2.0;stroke-dasharray:-;stroke-linecap:round;stroke-linejoin:round;" /><path d="M 162.0,-167.99999999999997 L 162.0,-185.99999999999997 L 160.33844372661017,-186.06703383328693 L 158.633020634575,-186.27113325898924 L 156.930143609328,-186.61398039413743 L 155.27615624539973,-187.09348135344774 L 153.7160716110364,-187.7038232341593 L 152.2923472229325,-188.43563231348764 L 151.04372956999325,-189.2762291533687 L 150.00419963227372,-190.2099736698491 L 149.20204809267224,-191.21869077609992 L 148.65910540937938,-192.2821650152303 L 148.39014770256978,-193.37869072152864 L 148.40249462405944,-194.48566273755827 L 148.6958101538571,-195.5801916108128 L 149.262111744908,-196.63972652742794 L 150.0859875671572,-197.64266902988302 L 151.14501593866063,-198.56896081643887 L 152.41037552897728,-199.40062962541973 L 153.84762972822898,-200.12227834816522 L 155.41766383531876,-200.72150405950018 L 157.07774955984212,-201.18923556185993 L 158.7827078673987,-201.5199802568466 L 160.486138521609,-201.7119736256375 L 162.14168286099644,-201.76722725015398 L 163.70428544441393,-201.69147406809975 L 165.1314202294847,-201.49401235174736 L 166.38424791375814,-201.1874526565705 L 167.42867294167988,-200.78737462648553 L 168.23627141105746,-200.31190299570576 L 168.7850646261581,-199.78121432626833 L 169.06011724528372,-199.21698790531195 L 169.0539437443089,-198.64181574587084 L 168.76671213432405,-198.07858774794266 L 168.2062393892341,-197.54986875259837 L 167.38777870774837,-197.07728444253183 L 166.33360439940284,-196.6809328016924 L 165.07240569189045,-196.3788371510559 L 163.63850595716158,-196.1864556461004 L 162.07092860496246,-196.11626058495432 L 160.41233506540718,-196.1773989762945 L 158.70786376326066,-196.3754436045996 L 157.0039016811085,-196.7122413674871 L 155.34682194317503,-197.18586301261558 L 153.78172177629514,-197.79065564205635 L 152.35119519428082,-198.51739655523437 L 151.09417380693068,-199.35354424362112 L 150.0448673009266,-200.28357970638885 L 149.23183242730317,-201.28942879816174 L 148.67719583288437,-202.35095411471983 L 148.39605188623727,-203.44650303004624 L 148.39605188623727,-204.5534969699537 L 148.67719583288437,-205.64904588528012 L 149.23183242730317,-206.7105712018382 L 150.04486730092657,-207.71642029361107 L 151.09417380693066,-208.64645575637883 L 152.3511951942808,-209.48260344476557 L 153.78172177629511,-210.2093443579436 L 155.34682194317497,-210.81413698738433 L 157.00390168110846,-211.2877586325128 L 158.70786376326063,-211.62455639540033 L 160.41233506540715,-211.82260102370546 L 162.07092860496243,-211.88373941504562 L 163.63850595716156,-211.81354435389954 L 165.07240569189042,-211.62116284894407 L 166.33360439940282,-211.31906719830758 L 167.38777870774837,-210.92271555746814 L 168.20623938923404,-210.4501312474016 L 168.76671213432405,-209.92141225205734 L 169.0539437443089,-209.35818425412913 L 169.06011724528375,-208.783012094688 L 168.7850646261581,-208.21878567373162 L 168.2362714110575,-207.68809700429424 L 167.42867294167988,-207.2126253735144 L 166.38424791375814,-206.81254734342946 L 165.13142022948472,-206.5059876482526 L 163.70428544441398,-206.30852593190022 L 162.14168286099647,-206.232772749846 L 160.486138521609,-206.28802637436243 L 158.78270786739873,-206.48001974315338 L 157.07774955984215,-206.81076443814 L 155.4176638353188,-207.27849594049977 L 153.84762972822898,-207.87772165183475 L 152.41037552897734,-208.5993703745802 L 151.14501593866066,-209.4310391835611 L 150.0859875671572,-210.3573309701169 L 149.26211174490803,-211.36027347257203 L 148.6958101538571,-212.41980838918712 L 148.40249462405947,-213.51433726244164 L 148.39014770256978,-214.62130927847127 L 148.65910540937938,-215.71783498476967 L 149.20204809267224,-216.78130922390005 L 150.00419963227372,-217.79002633015082 L 151.04372956999322,-218.72377084663123 L 152.2923472229325,-219.56436768651233 L 153.71607161103634,-220.29617676584064 L 155.27615624539968,-220.9065186465522 L 156.93014360932798,-221.3860196058625 L 158.63302063457493,-221.72886674101073 L 160.33844372661017,-221.93296616671302 L 161.99999999999997,-221.99999999999997 L 161.99999999999997,-239.99999999999997" style="stroke:black;fill:none;stroke-width:2.0;stroke-dasharray:-;stroke-linecap:round;stroke-linejoin:round;" /><path d="M 198.0,-167.99999999999997 L 216.0,-167.99999999999997 L 234.0,-167.99999999999997" style="stroke:black;fill:none;stroke-width:2.0;stroke-dasharray:-;stroke-linecap:round;stroke-linejoin:round;" /><path d="M 234.0,-167.99999999999997 L 252.0,-167.99999999999997 L 270.0,-167.99999999999997" style="stroke:black;fill:none;stroke-width:2.0;stroke-dasharray:-;stroke-linecap:round;stroke-linejoin:round;" /><path d="M 234.0,-167.99999999999997 L 234.0,-200.76 M 225.0,-200.76 L 243.0,-200.76 M 225.0,-207.23999999999998 L 243.0,-207.23999999999998 M 234.0,-207.23999999999998 L 234.0,-239.99999999999997" style="stroke:black;fill:none;stroke-width:2.0;stroke-dasharray:-;stroke-linecap:round;stroke-linejoin:round;" /><path d="M 143.99999999999997,-239.99999999999997 L 198.0,-239.99999999999997 L 252.0,-239.99999999999997" style="stroke:black;fill:none;stroke-width:3;stroke-dasharray:-;stroke-linecap:round;stroke-linejoin:round;" /><g><g><g><path d="M -35.534 -40.781 L -35.534 -40.781 L -35.226 -40.781 L -35.884 -38.093 Q -35.982 -37.729 -36.087 -37.218 Q -36.192 -36.707 -36.192 -36.231 Q -36.192 -35.685 -35.968 -35.286 Q -35.744 -34.887 -35.1 -34.887 Q -34.386 -34.887 -33.868 -35.23 Q -33.35 -35.573 -33.021 -36.105 Q -32.692 -36.637 -32.531 -37.225 Q -32.37 -37.813 -32.37 -38.303 Q -32.37 -38.667 -32.496 -38.933 Q -32.622 -39.199 -32.797 -39.409 Q -32.972 -39.619 -33.098 -39.815 Q -33.224 -40.011 -33.224 -40.235 Q -33.224 -40.515 -33.07 -40.669 Q -32.916 -40.823 -32.692 -40.823 Q -32.216 -40.823 -31.922 -40.347 Q -31.628 -39.871 -31.628 -39.129 Q -31.628 -38.485 -31.789 -37.778 Q -31.95 -37.071 -32.272 -36.399 Q -32.594 -35.727 -33.07 -35.181 Q -33.546 -34.635 -34.162 -34.313 Q -34.778 -33.991 -35.534 -33.991 Q -36.234 -33.991 -36.626 -34.271 Q -37.018 -34.551 -37.179 -35.013 Q -37.34 -35.475 -37.34 -36.007 Q -37.34 -36.511 -37.242 -37.043 Q -37.144 -37.575 -37.032 -38.009 L -36.752 -39.073 Q -36.724 -39.185 -36.668 -39.409 Q -36.612 -39.633 -36.612 -39.843 Q -36.612 -40.025 -36.682 -40.151 Q -36.752 -40.277 -36.948 -40.277 Q -37.116 -40.277 -37.354 -40.256 Q -37.592 -40.235 -37.592 -40.235 L -37.592 -40.627 Z " fill="black" /><path d="M -27.855 -31.54 L -27.855 -31.54 L -27.855 -31.177 L -30.344 -31.177 L -30.344 -31.54 Q -30.001 -31.54 -29.849 -31.613 Q -29.698 -31.687 -29.658 -31.848 Q -29.619 -32.01 -29.619 -32.275 L -29.619 -35.234 Q -29.619 -35.567 -29.727 -35.636 Q -29.835 -35.705 -30.09 -35.705 Q -30.217 -35.705 -30.295 -35.695 Q -30.374 -35.685 -30.374 -35.685 L -30.374 -36.077 L -29.061 -36.293 L -28.659 -36.293 L -28.659 -32.275 Q -28.659 -31.99 -28.615 -31.829 Q -28.571 -31.667 -28.399 -31.603 Q -28.228 -31.54 -27.855 -31.54 Z M -29.149 -38.458 L -29.149 -38.458 Q -28.865 -38.458 -28.673 -38.262 Q -28.482 -38.066 -28.482 -37.812 Q -28.482 -37.576 -28.673 -37.38 Q -28.865 -37.184 -29.149 -37.184 Q -29.423 -37.184 -29.604 -37.38 Q -29.786 -37.576 -29.786 -37.812 Q -29.786 -38.066 -29.604 -38.262 Q -29.423 -38.458 -29.149 -38.458 Z " fill="black" /><path d="M -22.034 -34.46 L -22.034 -34.46 L -22.034 -32.265 Q -22.034 -31.99 -21.985 -31.829 Q -21.936 -31.667 -21.769 -31.598 Q -21.603 -31.53 -21.25 -31.53 L -21.25 -31.177 L -23.769 -31.177 L -23.769 -31.53 Q -23.396 -31.53 -23.23 -31.598 Q -23.063 -31.667 -23.024 -31.829 Q -22.985 -31.99 -22.985 -32.265 L -22.985 -34.137 Q -22.985 -34.793 -23.136 -35.102 Q -23.288 -35.411 -23.519 -35.509 Q -23.749 -35.607 -23.984 -35.607 Q -24.406 -35.607 -24.724 -35.391 Q -25.043 -35.175 -25.278 -34.979 L -25.278 -32.265 Q -25.278 -31.99 -25.234 -31.829 Q -25.19 -31.667 -25.023 -31.598 Q -24.856 -31.53 -24.494 -31.53 L -24.494 -31.177 L -26.963 -31.177 L -26.963 -31.53 Q -26.62 -31.53 -26.468 -31.598 Q -26.317 -31.667 -26.277 -31.829 Q -26.238 -31.99 -26.238 -32.265 L -26.238 -35.244 Q -26.238 -35.518 -26.341 -35.611 Q -26.444 -35.705 -26.669 -35.705 Q -26.787 -35.705 -26.865 -35.695 Q -26.944 -35.685 -26.944 -35.685 L -26.944 -36.057 L -25.631 -36.293 L -25.307 -36.293 L -25.307 -35.489 L -25.239 -35.489 Q -24.817 -35.871 -24.43 -36.097 Q -24.043 -36.322 -23.553 -36.322 Q -22.975 -36.322 -22.646 -36.062 Q -22.318 -35.803 -22.176 -35.381 Q -22.034 -34.96 -22.034 -34.46 Z " fill="black" /></g></g></g><g><g><g><path d="M 13.078 -94.933 L 13.078 -94.933 Q 13.078 -94.191 12.798 -93.687 Q 12.518 -93.183 12.07 -92.861 Q 11.622 -92.539 11.111 -92.364 Q 10.6 -92.189 10.138 -92.105 L 10.138 -92.035 Q 10.39 -91.867 10.614 -91.524 Q 10.838 -91.181 11.167 -90.537 Q 11.496 -89.893 12.07 -88.801 Q 12.308 -88.381 12.595 -88.234 Q 12.882 -88.087 13.358 -88.087 L 13.274 -87.667 L 11.146 -87.667 Q 10.754 -88.535 10.488 -89.116 Q 10.222 -89.697 10.026 -90.089 Q 9.83 -90.481 9.683 -90.789 Q 9.536 -91.097 9.368 -91.419 Q 9.214 -91.713 9.032 -91.804 Q 8.85 -91.895 8.472 -91.895 L 8.178 -91.895 L 7.66 -89.403 Q 7.548 -88.829 7.583 -88.542 Q 7.618 -88.255 7.898 -88.171 Q 8.178 -88.087 8.78 -88.087 L 8.71 -87.667 L 4.846 -87.667 L 4.93 -88.087 Q 5.448 -88.087 5.728 -88.171 Q 6.008 -88.255 6.155 -88.535 Q 6.302 -88.815 6.414 -89.403 L 7.646 -95.409 Q 7.73 -95.801 7.688 -96.025 Q 7.646 -96.249 7.401 -96.347 Q 7.156 -96.445 6.596 -96.445 L 6.68 -96.865 L 9.97 -96.865 Q 11.44 -96.865 12.259 -96.41 Q 13.078 -95.955 13.078 -94.933 Z M 9.06 -96.277 L 9.06 -96.277 L 8.276 -92.413 L 8.71 -92.399 Q 9.55 -92.427 10.229 -92.672 Q 10.908 -92.917 11.3 -93.449 Q 11.692 -93.981 11.692 -94.877 Q 11.692 -95.255 11.531 -95.584 Q 11.37 -95.913 10.978 -96.116 Q 10.586 -96.319 9.886 -96.319 Q 9.62 -96.319 9.459 -96.312 Q 9.298 -96.305 9.06 -96.277 Z " fill="black" /><path d="M 14.59 -86.511 L 14.59 -86.511 L 14.904 -86.511 Q 15.031 -85.943 15.207 -85.629 Q 15.384 -85.315 15.663 -85.193 Q 15.942 -85.07 16.344 -85.07 Q 16.805 -85.07 17.055 -85.222 Q 17.305 -85.374 17.305 -85.756 Q 17.305 -86.011 17.182 -86.183 Q 17.06 -86.354 16.79 -86.511 Q 16.521 -86.668 16.07 -86.874 Q 15.609 -87.099 15.281 -87.295 Q 14.953 -87.491 14.781 -87.756 Q 14.61 -88.02 14.61 -88.422 Q 14.61 -89.128 15.085 -89.5 Q 15.56 -89.872 16.276 -89.872 Q 16.707 -89.872 17.006 -89.765 Q 17.305 -89.657 17.481 -89.578 L 17.501 -89.578 L 17.657 -89.823 L 17.932 -89.823 L 17.951 -88.197 L 17.608 -88.197 Q 17.422 -88.951 17.089 -89.211 Q 16.756 -89.471 16.325 -89.471 Q 15.874 -89.471 15.644 -89.275 Q 15.413 -89.079 15.413 -88.765 Q 15.413 -88.51 15.57 -88.344 Q 15.727 -88.177 16.016 -88.035 Q 16.305 -87.893 16.707 -87.697 Q 17.158 -87.481 17.501 -87.251 Q 17.844 -87.021 18.04 -86.732 Q 18.236 -86.442 18.236 -86.011 Q 18.236 -85.492 17.961 -85.178 Q 17.687 -84.865 17.256 -84.732 Q 16.824 -84.6 16.354 -84.6 Q 15.874 -84.6 15.609 -84.698 Q 15.345 -84.796 15.119 -84.884 L 15.08 -84.884 L 14.835 -84.629 L 14.61 -84.629 Z " fill="black" /><path d="M 33.122 -92.245 L 33.122 -92.245 L 24.778 -92.245 L 24.778 -93.197 L 33.122 -93.197 Z M 33.122 -89.389 L 33.122 -89.389 L 24.778 -89.389 L 24.778 -90.327 L 33.122 -90.327 Z " fill="black" /><path d="M 45.011 -95.353 L 45.011 -95.353 L 41.721 -95.353 L 41.343 -93.757 L 42.001 -93.715 Q 42.617 -93.673 43.219 -93.505 Q 43.821 -93.337 44.311 -93.001 Q 44.801 -92.665 45.088 -92.112 Q 45.375 -91.559 45.375 -90.733 Q 45.375 -89.655 44.899 -88.934 Q 44.423 -88.213 43.576 -87.849 Q 42.729 -87.485 41.609 -87.485 Q 39.999 -87.485 39.999 -88.269 Q 39.999 -88.507 40.146 -88.689 Q 40.293 -88.871 40.559 -88.871 Q 40.839 -88.871 41.112 -88.703 Q 41.385 -88.535 41.707 -88.36 Q 42.029 -88.185 42.477 -88.185 Q 42.981 -88.185 43.408 -88.381 Q 43.835 -88.577 44.094 -89.011 Q 44.353 -89.445 44.353 -90.173 Q 44.353 -91.489 43.569 -92.007 Q 42.785 -92.525 41.329 -92.595 Q 41.063 -92.623 40.958 -92.623 Q 40.853 -92.623 40.699 -92.623 L 40.531 -92.833 L 41.399 -96.487 L 45.235 -96.487 Z " fill="black" /><path d="M 52.655 -92.105 L 52.655 -92.105 Q 52.655 -91.209 52.48 -90.383 Q 52.305 -89.557 51.934 -88.913 Q 51.563 -88.269 50.975 -87.891 Q 50.387 -87.513 49.561 -87.513 Q 48.721 -87.513 48.133 -87.884 Q 47.545 -88.255 47.181 -88.899 Q 46.817 -89.543 46.649 -90.383 Q 46.481 -91.223 46.481 -92.147 Q 46.481 -93.477 46.838 -94.492 Q 47.195 -95.507 47.888 -96.081 Q 48.581 -96.655 49.589 -96.655 Q 50.499 -96.655 51.185 -96.116 Q 51.871 -95.577 52.263 -94.562 Q 52.655 -93.547 52.655 -92.105 Z M 51.297 -92.021 L 51.297 -92.021 Q 51.297 -94.149 50.856 -95.164 Q 50.415 -96.179 49.547 -96.179 Q 48.721 -96.179 48.273 -95.171 Q 47.825 -94.163 47.825 -92.077 Q 47.825 -90.047 48.273 -89.032 Q 48.721 -88.017 49.561 -88.017 Q 50.387 -88.017 50.842 -89.011 Q 51.297 -90.005 51.297 -92.021 Z " fill="black" /><path d="M 66.062 -87.667 L 66.062 -87.667 L 62.408 -87.667 L 62.408 -88.675 Q 63.066 -89.207 63.521 -89.942 Q 63.976 -90.677 64.207 -91.496 Q 64.438 -92.315 64.438 -93.085 Q 64.438 -94.667 63.682 -95.556 Q 62.926 -96.445 61.638 -96.445 Q 60.308 -96.445 59.538 -95.542 Q 58.768 -94.639 58.768 -93.085 Q 58.768 -92.329 58.992 -91.496 Q 59.216 -90.663 59.671 -89.921 Q 60.126 -89.179 60.798 -88.661 L 60.798 -87.667 L 57.102 -87.667 L 56.808 -90.145 L 57.214 -90.145 Q 57.34 -89.669 57.459 -89.375 Q 57.578 -89.081 57.795 -88.941 Q 58.012 -88.801 58.404 -88.801 L 59.678 -88.801 L 59.678 -88.885 Q 59.286 -89.179 58.859 -89.564 Q 58.432 -89.949 58.068 -90.453 Q 57.704 -90.957 57.48 -91.622 Q 57.256 -92.287 57.256 -93.141 Q 57.256 -94.303 57.816 -95.178 Q 58.376 -96.053 59.37 -96.543 Q 60.364 -97.033 61.652 -97.033 Q 62.954 -97.033 63.92 -96.543 Q 64.886 -96.053 65.418 -95.178 Q 65.95 -94.303 65.95 -93.155 Q 65.95 -92.301 65.712 -91.636 Q 65.474 -90.971 65.103 -90.46 Q 64.732 -89.949 64.319 -89.564 Q 63.906 -89.179 63.542 -88.885 L 63.542 -88.801 L 64.718 -88.801 Q 65.138 -88.801 65.355 -88.941 Q 65.572 -89.081 65.705 -89.382 Q 65.838 -89.683 65.978 -90.145 L 66.384 -90.145 Z " fill="black" /></g></g></g><circle cx="90.0" cy="-72.0" r="2.6999999999999997" style="stroke:black;fill:white;stroke-width:2.0;stroke-dasharray:-;" /><circle cx="198.0" cy="-72.0" r="2.6999999999999997" style="stroke:black;fill:black;stroke-width:2.0;stroke-dasharray:-;" /><g><g><g><path d="M 212.926 -116.871 L 212.926 -116.871 L 209.188 -116.871 L 209.272 -117.291 Q 209.79 -117.291 210.063 -117.389 Q 210.336 -117.487 210.476 -117.76 Q 210.616 -118.033 210.714 -118.537 L 211.96 -124.585 L 211.904 -124.585 L 207.2 -116.871 L 206.892 -116.871 L 205.198 -124.571 L 205.142 -124.571 L 203.98 -118.915 Q 203.84 -118.201 203.861 -117.851 Q 203.882 -117.501 204.134 -117.396 Q 204.386 -117.291 204.918 -117.291 L 204.834 -116.871 L 201.6 -116.871 L 201.684 -117.291 Q 202.23 -117.291 202.524 -117.396 Q 202.818 -117.501 202.986 -117.851 Q 203.154 -118.201 203.294 -118.915 L 204.4 -124.361 Q 204.512 -124.893 204.47 -125.166 Q 204.428 -125.439 204.169 -125.544 Q 203.91 -125.649 203.35 -125.649 L 203.434 -126.069 L 206.234 -126.069 L 207.746 -118.985 L 207.802 -118.985 L 212.072 -126.069 L 214.718 -126.069 L 214.634 -125.649 Q 214.144 -125.649 213.857 -125.544 Q 213.57 -125.439 213.416 -125.166 Q 213.262 -124.893 213.15 -124.375 L 211.96 -118.537 Q 211.806 -117.767 212.037 -117.529 Q 212.268 -117.291 213.01 -117.291 Z " fill="black" /><path d="M 218.952 -113.931 L 218.952 -113.931 L 215.629 -113.931 L 215.629 -114.284 Q 216.335 -114.284 216.565 -114.426 Q 216.796 -114.568 216.796 -114.94 L 216.796 -119.213 Q 216.796 -119.478 216.717 -119.595 Q 216.639 -119.713 216.433 -119.713 Q 216.276 -119.713 216.007 -119.669 Q 215.737 -119.625 215.541 -119.576 L 215.541 -119.968 L 217.354 -120.468 L 217.776 -120.468 L 217.776 -114.94 Q 217.776 -114.568 218.025 -114.426 Q 218.275 -114.284 218.952 -114.284 Z " fill="black" /></g></g></g><circle cx="147.00000000000003" cy="-119.99999999999999" r="2.6999999999999997" style="stroke:black;fill:white;stroke-width:2.0;stroke-dasharray:-;" /><g><g><g><path d="M 117.089 -118.685 L 117.089 -118.685 L 120.911 -124.425 Q 121.107 -124.705 121.226 -124.943 Q 121.345 -125.181 121.345 -125.349 Q 121.345 -125.559 121.163 -125.636 Q 120.981 -125.713 120.505 -125.713 L 120.533 -126.133 L 123.557 -126.133 L 123.529 -125.713 Q 123.151 -125.713 122.885 -125.601 Q 122.619 -125.489 122.346 -125.174 Q 122.073 -124.859 121.639 -124.215 L 116.501 -116.865 L 116.039 -116.865 L 115.255 -124.439 Q 115.171 -125.139 114.947 -125.426 Q 114.723 -125.713 114.163 -125.713 L 114.191 -126.133 L 117.621 -126.133 L 117.579 -125.713 Q 117.047 -125.713 116.739 -125.503 Q 116.431 -125.293 116.459 -124.817 Q 116.459 -124.747 116.48 -124.565 Q 116.501 -124.383 116.501 -124.313 L 116.921 -120.323 L 117.019 -118.685 Z " fill="black" /><path d="M 123.953 -121.315 L 123.953 -121.315 L 123.953 -118.277 L 124.002 -118.277 Q 124.286 -118.61 124.674 -118.875 Q 125.061 -119.14 125.609 -119.14 Q 126.119 -119.14 126.536 -118.831 Q 126.952 -118.522 127.202 -117.978 Q 127.452 -117.434 127.452 -116.729 Q 127.452 -115.788 127.109 -115.151 Q 126.766 -114.514 126.173 -114.196 Q 125.58 -113.877 124.825 -113.877 Q 124.384 -113.877 124.012 -113.951 Q 123.64 -114.024 123.38 -114.122 Q 123.12 -114.22 123.003 -114.269 L 123.003 -120.149 Q 123.003 -120.512 122.924 -120.615 Q 122.846 -120.717 122.513 -120.717 Q 122.405 -120.717 122.312 -120.703 Q 122.219 -120.688 122.219 -120.688 L 122.219 -121.06 L 123.551 -121.315 Z M 123.953 -117.768 L 123.953 -117.768 L 123.953 -114.828 Q 124.071 -114.612 124.326 -114.485 Q 124.58 -114.357 125.002 -114.357 Q 125.521 -114.357 125.835 -114.637 Q 126.148 -114.916 126.291 -115.381 Q 126.433 -115.847 126.433 -116.396 Q 126.433 -116.895 126.32 -117.351 Q 126.207 -117.807 125.923 -118.091 Q 125.639 -118.375 125.139 -118.375 Q 124.874 -118.375 124.634 -118.272 Q 124.394 -118.169 124.218 -118.027 Q 124.041 -117.885 123.953 -117.768 Z " fill="black" /><path d="M 131.029 -114.357 L 131.029 -114.357 L 131.029 -113.995 L 128.54 -113.995 L 128.54 -114.357 Q 128.883 -114.357 129.035 -114.431 Q 129.186 -114.504 129.226 -114.666 Q 129.265 -114.828 129.265 -115.092 L 129.265 -118.052 Q 129.265 -118.385 129.157 -118.454 Q 129.049 -118.522 128.794 -118.522 Q 128.667 -118.522 128.589 -118.512 Q 128.51 -118.503 128.51 -118.503 L 128.51 -118.895 L 129.823 -119.11 L 130.225 -119.11 L 130.225 -115.092 Q 130.225 -114.808 130.269 -114.646 Q 130.313 -114.485 130.485 -114.421 Q 130.656 -114.357 131.029 -114.357 Z M 129.735 -121.276 L 129.735 -121.276 Q 130.019 -121.276 130.211 -121.08 Q 130.402 -120.884 130.402 -120.629 Q 130.402 -120.394 130.211 -120.198 Q 130.019 -120.002 129.735 -120.002 Q 129.461 -120.002 129.28 -120.198 Q 129.098 -120.394 129.098 -120.629 Q 129.098 -120.884 129.28 -121.08 Q 129.461 -121.276 129.735 -121.276 Z " fill="black" /><path d="M 134.949 -114.612 L 134.949 -114.612 L 134.88 -114.612 Q 134.547 -114.338 134.145 -114.132 Q 133.743 -113.926 133.273 -113.926 Q 132.656 -113.926 132.327 -114.298 Q 131.999 -114.671 131.999 -115.2 Q 131.999 -115.651 132.21 -115.955 Q 132.42 -116.258 132.759 -116.45 Q 133.097 -116.641 133.489 -116.758 Q 133.881 -116.876 134.243 -116.944 Q 134.606 -117.013 134.851 -117.072 L 134.851 -117.581 Q 134.851 -118.238 134.591 -118.488 Q 134.331 -118.738 133.832 -118.738 Q 133.528 -118.738 133.396 -118.659 Q 133.263 -118.581 133.229 -118.405 Q 133.195 -118.228 133.185 -117.944 Q 133.175 -117.728 133.057 -117.596 Q 132.94 -117.464 132.714 -117.464 Q 132.499 -117.464 132.347 -117.596 Q 132.195 -117.728 132.195 -117.983 Q 132.195 -118.287 132.43 -118.552 Q 132.665 -118.816 133.102 -118.978 Q 133.538 -119.14 134.126 -119.14 Q 135.008 -119.14 135.405 -118.733 Q 135.801 -118.326 135.801 -117.513 L 135.801 -115.112 Q 135.801 -114.788 135.875 -114.695 Q 135.948 -114.602 136.105 -114.602 Q 136.272 -114.602 136.394 -114.671 Q 136.517 -114.739 136.625 -114.867 L 136.84 -114.661 Q 136.331 -113.936 135.645 -113.936 Q 135.262 -113.936 135.12 -114.117 Q 134.978 -114.298 134.949 -114.612 Z M 134.851 -114.975 L 134.851 -114.975 L 134.851 -116.7 Q 134.4 -116.582 133.969 -116.44 Q 133.538 -116.298 133.258 -116.053 Q 132.979 -115.808 132.979 -115.367 Q 132.979 -114.984 133.2 -114.764 Q 133.42 -114.543 133.763 -114.543 Q 133.969 -114.543 134.258 -114.637 Q 134.547 -114.73 134.851 -114.975 Z " fill="black" /><path d="M 137.516 -115.778 L 137.516 -115.778 L 137.83 -115.778 Q 137.957 -115.21 138.134 -114.896 Q 138.31 -114.583 138.59 -114.46 Q 138.869 -114.338 139.271 -114.338 Q 139.731 -114.338 139.981 -114.49 Q 140.231 -114.641 140.231 -115.024 Q 140.231 -115.278 140.109 -115.45 Q 139.986 -115.621 139.716 -115.778 Q 139.447 -115.935 138.996 -116.141 Q 138.536 -116.366 138.207 -116.562 Q 137.879 -116.758 137.708 -117.023 Q 137.536 -117.287 137.536 -117.689 Q 137.536 -118.395 138.011 -118.767 Q 138.487 -119.14 139.202 -119.14 Q 139.633 -119.14 139.932 -119.032 Q 140.231 -118.924 140.407 -118.846 L 140.427 -118.846 L 140.584 -119.091 L 140.858 -119.091 L 140.878 -117.464 L 140.535 -117.464 Q 140.349 -118.218 140.015 -118.478 Q 139.682 -118.738 139.251 -118.738 Q 138.8 -118.738 138.57 -118.542 Q 138.34 -118.346 138.34 -118.032 Q 138.34 -117.777 138.496 -117.611 Q 138.653 -117.444 138.942 -117.302 Q 139.231 -117.16 139.633 -116.964 Q 140.084 -116.748 140.427 -116.518 Q 140.77 -116.288 140.966 -115.999 Q 141.162 -115.71 141.162 -115.278 Q 141.162 -114.759 140.888 -114.445 Q 140.613 -114.132 140.182 -114 Q 139.751 -113.867 139.28 -113.867 Q 138.8 -113.867 138.536 -113.965 Q 138.271 -114.063 138.046 -114.151 L 138.006 -114.151 L 137.761 -113.897 L 137.536 -113.897 Z " fill="black" /></g></g></g><g><g><g><path d="M 152.397 -34.769 L 152.397 -34.769 L 153.545 -40.285 Q 153.671 -40.831 153.664 -41.146 Q 153.657 -41.461 153.405 -41.587 Q 153.153 -41.713 152.509 -41.713 L 152.593 -42.133 L 156.471 -42.133 L 156.387 -41.713 Q 155.771 -41.713 155.463 -41.587 Q 155.155 -41.461 155.029 -41.146 Q 154.903 -40.831 154.791 -40.285 L 153.643 -34.713 Q 153.601 -34.489 153.573 -34.307 Q 153.545 -34.125 153.545 -33.971 Q 153.545 -33.579 153.776 -33.467 Q 154.007 -33.355 154.665 -33.355 L 154.581 -32.935 L 150.759 -32.935 L 150.843 -33.355 Q 151.417 -33.355 151.704 -33.453 Q 151.991 -33.551 152.131 -33.852 Q 152.271 -34.153 152.397 -34.769 Z " fill="black" /><path d="M 158.519 -37.315 L 158.519 -37.315 L 158.519 -34.277 L 158.568 -34.277 Q 158.852 -34.61 159.239 -34.875 Q 159.627 -35.14 160.175 -35.14 Q 160.685 -35.14 161.101 -34.831 Q 161.518 -34.522 161.768 -33.978 Q 162.018 -33.434 162.018 -32.729 Q 162.018 -31.788 161.675 -31.151 Q 161.332 -30.514 160.739 -30.196 Q 160.146 -29.877 159.391 -29.877 Q 158.95 -29.877 158.578 -29.951 Q 158.206 -30.024 157.946 -30.122 Q 157.686 -30.22 157.569 -30.269 L 157.569 -36.149 Q 157.569 -36.512 157.49 -36.615 Q 157.412 -36.717 157.079 -36.717 Q 156.971 -36.717 156.878 -36.703 Q 156.785 -36.688 156.785 -36.688 L 156.785 -37.06 L 158.117 -37.315 Z M 158.519 -33.768 L 158.519 -33.768 L 158.519 -30.828 Q 158.637 -30.612 158.892 -30.485 Q 159.146 -30.357 159.568 -30.357 Q 160.087 -30.357 160.401 -30.637 Q 160.714 -30.916 160.856 -31.381 Q 160.999 -31.847 160.999 -32.396 Q 160.999 -32.895 160.886 -33.351 Q 160.773 -33.807 160.489 -34.091 Q 160.205 -34.375 159.705 -34.375 Q 159.44 -34.375 159.2 -34.272 Q 158.96 -34.169 158.784 -34.027 Q 158.607 -33.885 158.519 -33.768 Z " fill="black" /><path d="M 165.595 -30.357 L 165.595 -30.357 L 165.595 -29.995 L 163.106 -29.995 L 163.106 -30.357 Q 163.449 -30.357 163.6 -30.431 Q 163.752 -30.504 163.792 -30.666 Q 163.831 -30.828 163.831 -31.092 L 163.831 -34.052 Q 163.831 -34.385 163.723 -34.454 Q 163.615 -34.522 163.36 -34.522 Q 163.233 -34.522 163.155 -34.512 Q 163.076 -34.503 163.076 -34.503 L 163.076 -34.895 L 164.389 -35.11 L 164.791 -35.11 L 164.791 -31.092 Q 164.791 -30.808 164.835 -30.646 Q 164.879 -30.485 165.051 -30.421 Q 165.222 -30.357 165.595 -30.357 Z M 164.301 -37.276 L 164.301 -37.276 Q 164.585 -37.276 164.776 -37.08 Q 164.968 -36.884 164.968 -36.629 Q 164.968 -36.394 164.776 -36.198 Q 164.585 -36.002 164.301 -36.002 Q 164.027 -36.002 163.845 -36.198 Q 163.664 -36.394 163.664 -36.629 Q 163.664 -36.884 163.845 -37.08 Q 164.027 -37.276 164.301 -37.276 Z " fill="black" /><path d="M 169.515 -30.612 L 169.515 -30.612 L 169.446 -30.612 Q 169.113 -30.338 168.711 -30.132 Q 168.309 -29.926 167.839 -29.926 Q 167.222 -29.926 166.893 -30.298 Q 166.565 -30.671 166.565 -31.2 Q 166.565 -31.651 166.776 -31.955 Q 166.986 -32.258 167.324 -32.45 Q 167.663 -32.641 168.055 -32.758 Q 168.447 -32.876 168.809 -32.944 Q 169.172 -33.013 169.417 -33.072 L 169.417 -33.581 Q 169.417 -34.238 169.157 -34.488 Q 168.897 -34.738 168.398 -34.738 Q 168.094 -34.738 167.961 -34.659 Q 167.829 -34.581 167.795 -34.405 Q 167.761 -34.228 167.751 -33.944 Q 167.741 -33.728 167.623 -33.596 Q 167.506 -33.464 167.28 -33.464 Q 167.065 -33.464 166.913 -33.596 Q 166.761 -33.728 166.761 -33.983 Q 166.761 -34.287 166.996 -34.552 Q 167.231 -34.816 167.667 -34.978 Q 168.104 -35.14 168.692 -35.14 Q 169.574 -35.14 169.97 -34.733 Q 170.367 -34.326 170.367 -33.513 L 170.367 -31.112 Q 170.367 -30.788 170.441 -30.695 Q 170.514 -30.602 170.671 -30.602 Q 170.838 -30.602 170.96 -30.671 Q 171.083 -30.739 171.191 -30.867 L 171.406 -30.661 Q 170.897 -29.936 170.211 -29.936 Q 169.828 -29.936 169.686 -30.117 Q 169.544 -30.298 169.515 -30.612 Z M 169.417 -30.975 L 169.417 -30.975 L 169.417 -32.7 Q 168.966 -32.582 168.535 -32.44 Q 168.104 -32.298 167.824 -32.053 Q 167.545 -31.808 167.545 -31.367 Q 167.545 -30.984 167.765 -30.764 Q 167.986 -30.543 168.329 -30.543 Q 168.535 -30.543 168.824 -30.637 Q 169.113 -30.73 169.417 -30.975 Z " fill="black" /><path d="M 172.082 -31.778 L 172.082 -31.778 L 172.396 -31.778 Q 172.523 -31.21 172.7 -30.896 Q 172.876 -30.583 173.155 -30.46 Q 173.435 -30.338 173.837 -30.338 Q 174.297 -30.338 174.547 -30.49 Q 174.797 -30.641 174.797 -31.024 Q 174.797 -31.278 174.674 -31.45 Q 174.552 -31.621 174.282 -31.778 Q 174.013 -31.935 173.562 -32.141 Q 173.102 -32.366 172.773 -32.562 Q 172.445 -32.758 172.273 -33.023 Q 172.102 -33.287 172.102 -33.689 Q 172.102 -34.395 172.577 -34.767 Q 173.053 -35.14 173.768 -35.14 Q 174.199 -35.14 174.498 -35.032 Q 174.797 -34.924 174.973 -34.846 L 174.993 -34.846 L 175.15 -35.091 L 175.424 -35.091 L 175.444 -33.464 L 175.101 -33.464 Q 174.915 -34.218 174.581 -34.478 Q 174.248 -34.738 173.817 -34.738 Q 173.366 -34.738 173.136 -34.542 Q 172.906 -34.346 172.906 -34.032 Q 172.906 -33.777 173.062 -33.611 Q 173.219 -33.444 173.508 -33.302 Q 173.797 -33.16 174.199 -32.964 Q 174.65 -32.748 174.993 -32.518 Q 175.336 -32.288 175.532 -31.999 Q 175.728 -31.71 175.728 -31.278 Q 175.728 -30.759 175.454 -30.445 Q 175.179 -30.132 174.748 -30 Q 174.317 -29.867 173.846 -29.867 Q 173.366 -29.867 173.102 -29.965 Q 172.837 -30.063 172.612 -30.151 L 172.572 -30.151 L 172.327 -29.897 L 172.102 -29.897 Z " fill="black" /></g></g></g><circle cx="198.0" cy="-167.99999999999997" r="2.6999999999999997" style="stroke:black;fill:black;stroke-width:2.0;stroke-dasharray:-;" /><g><g><g><path d="M 176.196 -208.137 L 176.196 -208.137 Q 176.196 -207.395 175.916 -206.891 Q 175.636 -206.387 175.188 -206.065 Q 174.74 -205.743 174.229 -205.568 Q 173.718 -205.393 173.256 -205.309 L 173.256 -205.239 Q 173.508 -205.071 173.732 -204.728 Q 173.956 -204.385 174.285 -203.741 Q 174.614 -203.097 175.188 -202.005 Q 175.426 -201.585 175.713 -201.438 Q 176 -201.291 176.476 -201.291 L 176.392 -200.871 L 174.264 -200.871 Q 173.872 -201.739 173.606 -202.32 Q 173.34 -202.901 173.144 -203.293 Q 172.948 -203.685 172.801 -203.993 Q 172.654 -204.301 172.486 -204.623 Q 172.332 -204.917 172.15 -205.008 Q 171.968 -205.099 171.59 -205.099 L 171.296 -205.099 L 170.778 -202.607 Q 170.666 -202.033 170.701 -201.746 Q 170.736 -201.459 171.016 -201.375 Q 171.296 -201.291 171.898 -201.291 L 171.828 -200.871 L 167.964 -200.871 L 168.048 -201.291 Q 168.566 -201.291 168.846 -201.375 Q 169.126 -201.459 169.273 -201.739 Q 169.42 -202.019 169.532 -202.607 L 170.764 -208.613 Q 170.848 -209.005 170.806 -209.229 Q 170.764 -209.453 170.519 -209.551 Q 170.274 -209.649 169.714 -209.649 L 169.798 -210.069 L 173.088 -210.069 Q 174.558 -210.069 175.377 -209.614 Q 176.196 -209.159 176.196 -208.137 Z M 172.178 -209.481 L 172.178 -209.481 L 171.394 -205.617 L 171.828 -205.603 Q 172.668 -205.631 173.347 -205.876 Q 174.026 -206.121 174.418 -206.653 Q 174.81 -207.185 174.81 -208.081 Q 174.81 -208.459 174.649 -208.788 Q 174.488 -209.117 174.096 -209.32 Q 173.704 -209.523 173.004 -209.523 Q 172.738 -209.523 172.577 -209.516 Q 172.416 -209.509 172.178 -209.481 Z " fill="black" /><path d="M 177.669 -204.82 L 177.669 -204.82 L 180.639 -204.82 Q 181.423 -204.82 182.138 -204.649 Q 182.853 -204.477 183.417 -204.085 Q 183.98 -203.693 184.309 -203.037 Q 184.637 -202.38 184.637 -201.4 Q 184.637 -200.479 184.338 -199.817 Q 184.039 -199.156 183.5 -198.739 Q 182.961 -198.323 182.246 -198.127 Q 181.53 -197.931 180.697 -197.931 L 177.669 -197.931 L 177.669 -198.303 Q 178.13 -198.303 178.345 -198.372 Q 178.561 -198.441 178.625 -198.651 Q 178.688 -198.862 178.688 -199.293 L 178.688 -203.546 Q 178.688 -203.948 178.595 -204.139 Q 178.502 -204.33 178.282 -204.389 Q 178.061 -204.448 177.669 -204.448 Z M 179.737 -204.33 L 179.737 -204.33 L 179.737 -198.401 Q 179.894 -198.392 180.046 -198.387 Q 180.198 -198.382 180.345 -198.382 Q 181.315 -198.382 181.996 -198.637 Q 182.677 -198.891 183.035 -199.528 Q 183.392 -200.165 183.392 -201.312 Q 183.392 -202.782 182.643 -203.561 Q 181.893 -204.34 180.266 -204.34 Q 180.129 -204.34 180.002 -204.34 Q 179.874 -204.34 179.737 -204.33 Z " fill="black" /></g></g></g><g><g><g><path d="M 144.216 -202.131 L 144.216 -202.131 L 143.376 -199.401 L 136.46 -199.401 L 136.544 -199.821 Q 137.09 -199.821 137.377 -199.919 Q 137.664 -200.017 137.818 -200.297 Q 137.972 -200.577 138.084 -201.137 L 139.288 -206.975 Q 139.386 -207.437 139.358 -207.703 Q 139.33 -207.969 139.071 -208.074 Q 138.812 -208.179 138.21 -208.179 L 138.294 -208.599 L 142.27 -208.599 L 142.2 -208.179 Q 141.444 -208.179 141.066 -207.948 Q 140.688 -207.717 140.534 -206.961 L 139.26 -200.689 Q 139.162 -200.227 139.358 -200.08 Q 139.554 -199.933 140.17 -199.933 L 140.828 -199.933 Q 141.5 -199.933 141.92 -200.052 Q 142.34 -200.171 142.634 -200.423 Q 142.928 -200.675 143.187 -201.102 Q 143.446 -201.529 143.768 -202.131 Z " fill="black" /></g></g></g><circle cx="234.0" cy="-167.99999999999997" r="2.6999999999999997" style="stroke:black;fill:black;stroke-width:2.0;stroke-dasharray:-;" /><circle cx="270.0" cy="-167.99999999999997" r="2.6999999999999997" style="stroke:black;fill:white;stroke-width:2.0;stroke-dasharray:-;" /><g><g><g><path d="M 279.1 -172.84 L 279.1 -172.84 L 279.408 -172.84 L 278.75 -170.152 Q 278.652 -169.788 278.547 -169.277 Q 278.442 -168.766 278.442 -168.29 Q 278.442 -167.744 278.666 -167.345 Q 278.89 -166.946 279.534 -166.946 Q 280.248 -166.946 280.766 -167.289 Q 281.284 -167.632 281.613 -168.164 Q 281.942 -168.696 282.103 -169.284 Q 282.264 -169.872 282.264 -170.362 Q 282.264 -170.726 282.138 -170.992 Q 282.012 -171.258 281.837 -171.468 Q 281.662 -171.678 281.536 -171.874 Q 281.41 -172.07 281.41 -172.294 Q 281.41 -172.574 281.564 -172.728 Q 281.718 -172.882 281.942 -172.882 Q 282.418 -172.882 282.712 -172.406 Q 283.006 -171.93 283.006 -171.188 Q 283.006 -170.544 282.845 -169.837 Q 282.684 -169.13 282.362 -168.458 Q 282.04 -167.786 281.564 -167.24 Q 281.088 -166.694 280.472 -166.372 Q 279.856 -166.05 279.1 -166.05 Q 278.4 -166.05 278.008 -166.33 Q 277.616 -166.61 277.455 -167.072 Q 277.294 -167.534 277.294 -168.066 Q 277.294 -168.57 277.392 -169.102 Q 277.49 -169.634 277.602 -170.068 L 277.882 -171.132 Q 277.91 -171.244 277.966 -171.468 Q 278.022 -171.692 278.022 -171.902 Q 278.022 -172.084 277.952 -172.21 Q 277.882 -172.336 277.686 -172.336 Q 277.518 -172.336 277.28 -172.315 Q 277.042 -172.294 277.042 -172.294 L 277.042 -172.686 Z " fill="black" /><path d="M 286.034 -168.381 L 286.034 -168.381 Q 286.769 -168.381 287.318 -168.062 Q 287.867 -167.744 288.166 -167.17 Q 288.465 -166.597 288.465 -165.823 Q 288.465 -164.892 288.151 -164.294 Q 287.837 -163.696 287.289 -163.407 Q 286.74 -163.118 286.034 -163.118 Q 285.319 -163.118 284.765 -163.417 Q 284.211 -163.716 283.903 -164.314 Q 283.594 -164.912 283.594 -165.813 Q 283.594 -166.578 283.898 -167.156 Q 284.202 -167.734 284.75 -168.057 Q 285.299 -168.381 286.034 -168.381 Z M 286.015 -167.93 L 286.015 -167.93 Q 285.368 -167.93 285 -167.406 Q 284.633 -166.881 284.633 -165.872 Q 284.633 -164.627 285.01 -164.113 Q 285.387 -163.598 286.064 -163.598 Q 286.495 -163.608 286.799 -163.814 Q 287.102 -164.02 287.264 -164.505 Q 287.426 -164.99 287.426 -165.823 Q 287.426 -166.823 287.083 -167.376 Q 286.74 -167.93 286.015 -167.93 Z " fill="black" /><path d="M 295.129 -163.736 L 295.129 -163.736 L 295.129 -163.363 L 293.806 -163.187 L 293.492 -163.187 L 293.492 -163.951 L 293.394 -163.951 Q 293.022 -163.618 292.639 -163.378 Q 292.257 -163.138 291.718 -163.138 Q 290.993 -163.138 290.611 -163.579 Q 290.229 -164.02 290.229 -165.108 L 290.229 -167.215 Q 290.229 -167.616 290.087 -167.709 Q 289.944 -167.803 289.494 -167.803 L 289.494 -168.155 L 290.856 -168.342 L 291.179 -168.342 L 291.179 -165.235 Q 291.179 -164.686 291.307 -164.382 Q 291.434 -164.079 291.65 -163.961 Q 291.865 -163.843 292.12 -163.843 Q 292.551 -163.843 292.84 -164.025 Q 293.129 -164.206 293.443 -164.461 L 293.443 -167.215 Q 293.443 -167.616 293.267 -167.709 Q 293.09 -167.803 292.59 -167.803 L 292.59 -168.155 L 294.051 -168.342 L 294.394 -168.342 L 294.394 -164.373 Q 294.394 -164.079 294.448 -163.941 Q 294.501 -163.804 294.639 -163.77 Q 294.776 -163.736 295.021 -163.736 Z " fill="black" /><path d="M 298.951 -164.216 L 298.951 -164.216 L 299.176 -164.03 Q 298.96 -163.736 298.784 -163.535 Q 298.608 -163.334 298.382 -163.226 Q 298.157 -163.118 297.804 -163.118 Q 297.236 -163.118 296.976 -163.442 Q 296.716 -163.765 296.716 -164.48 L 296.716 -167.773 L 296.099 -167.773 L 296.099 -168.067 Q 296.452 -168.322 296.746 -168.689 Q 297.04 -169.057 297.334 -169.743 L 297.677 -169.743 L 297.667 -168.253 L 298.911 -168.253 L 298.911 -167.773 L 297.667 -167.773 L 297.667 -164.804 Q 297.667 -164.255 297.77 -164.025 Q 297.873 -163.794 298.186 -163.794 Q 298.47 -163.794 298.617 -163.897 Q 298.764 -164 298.951 -164.216 Z " fill="black" /></g></g></g><g><g><g><path d="M 220.742 -201.417 L 220.742 -201.417 L 220.994 -201.151 Q 220.28 -200.311 219.342 -199.772 Q 218.404 -199.233 217.074 -199.233 Q 215.814 -199.233 215.058 -199.702 Q 214.302 -200.171 213.973 -200.955 Q 213.644 -201.739 213.644 -202.663 Q 213.644 -204.133 214.092 -205.274 Q 214.54 -206.415 215.317 -207.192 Q 216.094 -207.969 217.074 -208.368 Q 218.054 -208.767 219.118 -208.767 Q 219.832 -208.767 220.231 -208.641 Q 220.63 -208.515 220.854 -208.382 Q 221.078 -208.249 221.246 -208.249 Q 221.414 -208.249 221.54 -208.389 Q 221.666 -208.529 221.834 -208.753 L 222.24 -208.753 L 221.582 -205.547 L 221.12 -205.547 Q 221.176 -206.947 220.602 -207.556 Q 220.028 -208.165 218.992 -208.165 Q 218.18 -208.165 217.466 -207.794 Q 216.752 -207.423 216.199 -206.744 Q 215.646 -206.065 215.331 -205.12 Q 215.016 -204.175 215.016 -203.013 Q 215.016 -201.613 215.681 -200.878 Q 216.346 -200.143 217.732 -200.143 Q 219.342 -200.143 220.742 -201.417 Z " fill="black" /></g></g></g><g><g><g><path d="M 189.853 -248.29 L 189.853 -248.29 L 193.675 -254.03 Q 193.871 -254.31 193.99 -254.548 Q 194.109 -254.786 194.109 -254.954 Q 194.109 -255.164 193.927 -255.241 Q 193.745 -255.318 193.269 -255.318 L 193.297 -255.738 L 196.321 -255.738 L 196.293 -255.318 Q 195.915 -255.318 195.649 -255.206 Q 195.383 -255.094 195.11 -254.779 Q 194.837 -254.464 194.403 -253.82 L 189.265 -246.47 L 188.803 -246.47 L 188.019 -254.044 Q 187.935 -254.744 187.711 -255.031 Q 187.487 -255.318 186.927 -255.318 L 186.955 -255.738 L 190.385 -255.738 L 190.343 -255.318 Q 189.811 -255.318 189.503 -255.108 Q 189.195 -254.898 189.223 -254.422 Q 189.223 -254.352 189.244 -254.17 Q 189.265 -253.988 189.265 -253.918 L 189.685 -249.928 L 189.783 -248.29 Z " fill="black" /><path d="M 195.218 -250.489 L 195.218 -250.489 L 198.188 -250.489 Q 198.972 -250.489 199.687 -250.318 Q 200.402 -250.146 200.966 -249.754 Q 201.529 -249.362 201.858 -248.706 Q 202.186 -248.049 202.186 -247.069 Q 202.186 -246.148 201.887 -245.486 Q 201.588 -244.825 201.049 -244.408 Q 200.51 -243.992 199.795 -243.796 Q 199.079 -243.6 198.246 -243.6 L 195.218 -243.6 L 195.218 -243.972 Q 195.679 -243.972 195.894 -244.041 Q 196.11 -244.11 196.174 -244.32 Q 196.237 -244.531 196.237 -244.962 L 196.237 -249.215 Q 196.237 -249.617 196.144 -249.808 Q 196.051 -249.999 195.831 -250.058 Q 195.61 -250.117 195.218 -250.117 Z M 197.286 -249.999 L 197.286 -249.999 L 197.286 -244.07 Q 197.443 -244.061 197.595 -244.056 Q 197.747 -244.051 197.894 -244.051 Q 198.864 -244.051 199.545 -244.306 Q 200.226 -244.56 200.584 -245.197 Q 200.941 -245.834 200.941 -246.981 Q 200.941 -248.451 200.192 -249.23 Q 199.442 -250.009 197.815 -250.009 Q 197.678 -250.009 197.551 -250.009 Q 197.423 -250.009 197.286 -249.999 Z " fill="black" /><path d="M 203.372 -250.489 L 203.372 -250.489 L 206.341 -250.489 Q 207.125 -250.489 207.841 -250.318 Q 208.556 -250.146 209.12 -249.754 Q 209.683 -249.362 210.011 -248.706 Q 210.34 -248.049 210.34 -247.069 Q 210.34 -246.148 210.041 -245.486 Q 209.742 -244.825 209.203 -244.408 Q 208.664 -243.992 207.948 -243.796 Q 207.233 -243.6 206.4 -243.6 L 203.372 -243.6 L 203.372 -243.972 Q 203.832 -243.972 204.048 -244.041 Q 204.264 -244.11 204.327 -244.32 Q 204.391 -244.531 204.391 -244.962 L 204.391 -249.215 Q 204.391 -249.617 204.298 -249.808 Q 204.205 -249.999 203.984 -250.058 Q 203.764 -250.117 203.372 -250.117 Z M 205.44 -249.999 L 205.44 -249.999 L 205.44 -244.07 Q 205.596 -244.061 205.748 -244.056 Q 205.9 -244.051 206.047 -244.051 Q 207.017 -244.051 207.698 -244.306 Q 208.38 -244.56 208.737 -245.197 Q 209.095 -245.834 209.095 -246.981 Q 209.095 -248.451 208.345 -249.23 Q 207.596 -250.009 205.969 -250.009 Q 205.832 -250.009 205.704 -250.009 Q 205.577 -250.009 205.44 -249.999 Z " fill="black" /></g></g></g></svg>