<svg xmlns="http://www.w3.org/2000/svg" xmlns:xlink="http://www.w3.org/1999/xlink" xml:lang="en" height="322.64pt" width="261.62080000000003pt" viewBox="-130.81040000000002 -19.0 261.62080000000003 322.64"><circle cx="-6.613092715395707e-15" cy="36.0" r="18.0" style="stroke:black;fill:none;stroke-width:2.0;stroke-dasharray:-;" /><path d="M 0.0,-0.0 L 0.0,-14.4" style="stroke:black;fill:none;stroke-width:2.0;stroke-dasharray:-;stroke-linecap:round;stroke-linejoin:round;" /><path d="M 0.0,-14.4 L -6.75,-14.4" style="stroke:black;fill:none;stroke-width:2.0;stroke-dasharray:-;stroke-linecap:round;stroke-linejoin:round;" /><path d="M 0.0,-14.4 L 6.75,-14.4" style="stroke:black;fill:none;stroke-width:2.0;stroke-dasharray:-;stroke-linecap:round;stroke-linejoin:round;" /><path d="M 0.0,-0.0 L -3.3065463576978533e-15,18.0 L -3.3065463576978533e-15,18.0 M -9.919639073093561e-15,54.0 L -9.919639073093561e-15,54.0 L -1.3226185430791413e-14,72.0" style="stroke:black;fill:none;stroke-width:2.0;stroke-dasharray:-;stroke-linecap:round;stroke-linejoin:round;" /><path d="M -4.9598195365467806e-15,27.0 L -6.819055509535661e-15,36.0" style="stroke:black;fill:none;stroke-width:2.0;stroke-dasharray:-;stroke-linecap:round;stroke-linejoin:round;" /><path d="M -7.944741364309306e-15 43.0 L -2.7000000000000064 36.0 L 2.699999999999993 36.0 Z" style="stroke:black;fill:black;stroke-linecap:butt;stroke-linejoin:miter;" /><path d="M -1.3226185430791413e-14,72.0 L -54.000000000000014,71.99999999999999 L -108.00000000000001,71.99999999999999" style="stroke:black;fill:none;stroke-width:2.0;stroke-dasharray:-;stroke-linecap:round;stroke-linejoin:round;" /><path d="M -108.00000000000001,71.99999999999999 L -108.00000000000001,80.99999999999999 L -108.00000000000001,89.99999999999999" style="stroke:black;fill:none;stroke-width:2.0;stroke-dasharray:-;stroke-linecap:round;stroke-linejoin:round;" /><path d="M -108.00000000000001,89.99999999999999 L -108.00000000000001,104.99999999999997 L -93.00000000000003,104.99999999999997 L -93.00000000000003,134.99999999999997 L -108.00000000000001,134.99999999999997 L -108.00000000000001,149.99999999999997" style="stroke:black;fill:none;stroke-width:2.0;stroke-dasharray:-;stroke-linecap:round;stroke-linejoin:round;" /><path d="M -108.00000000000001,104.99999999999997 L -102.00000000000003,104.99999999999997" style="stroke:black;fill:none;stroke-width:2.0;stroke-dasharray:-;stroke-linecap:round;stroke-linejoin:round;" /><path d="M -95.00000000000003 104.99999999999997 L -102.00000000000003 109.49999999999997 L -102.00000000000003 100.49999999999997 Z" style="stroke:black;fill:black;stroke-linecap:butt;stroke-linejoin:miter;" /><path d="M -90.00000000000001,107.99999999999999 L -90.00000000000001,131.99999999999997" style="stroke:black;fill:none;stroke-width:2.0;stroke-dasharray:-;stroke-linecap:round;stroke-linejoin:round;" /><path d="M -90.00000000000001,119.99999999999999 L -75.00000000000003,119.99999999999999" style="stroke:black;fill:none;stroke-width:2.0;stroke-dasharray:-;stroke-linecap:round;stroke-linejoin:round;" /><path d="M -1.3226185430791413e-14,72.0 L 53.999999999999986,72.0 L 107.99999999999999,72.0" style="stroke:black;fill:none;stroke-width:2.0;stroke-dasharray:-;stroke-linecap:round;stroke-linejoin:round;" /><path d="M 107.99999999999999,72.0 L 107.99999999999999,81.0 L 107.99999999999999,90.0" style="stroke:black;fill:none;stroke-width:2.0;stroke-dasharray:-;stroke-linecap:round;stroke-linejoin:round;" /><path d="M 107.99999999999999,149.99999999999997 L 107.99999999999999,135.0 L 92.99999999999999,135.0 L 92.99999999999999,105.0 L 107.99999999999999,105.0 L 107.99999999999999,90.0" style="stroke:black;fill:none;stroke-width:2.0;stroke-dasharray:-;stroke-linecap:round;stroke-linejoin:round;" /><path d="M 101.99999999999999,105.0 L 107.99999999999999,105.0" style="stroke:black;fill:none;stroke-width:2.0;stroke-dasharray:-;stroke-linecap:round;stroke-linejoin:round;" /><path d="M 94.99999999999999 105.0 L 101.99999999999999 100.5 L 101.99999999999999 109.5 Z" style="stroke:black;fill:black;stroke-linecap:butt;stroke-linejoin:miter;" /><path d="M 89.99999999999999,132.0 L 89.99999999999999,108.0" style="stroke:black;fill:none;stroke-width:2.0;stroke-dasharray:-;stroke-linecap:round;stroke-linejoin:round;" /><path d="M 74.99999999999999,119.99999999999999 L 89.99999999999999,119.99999999999999" style="stroke:black;fill:none;stroke-width:2.0;stroke-dasharray:-;stroke-linecap:round;stroke-linejoin:round;" /><path d="M -108.00000000000001,149.99999999999997 L -108.00000000000001,158.99999999999997 L -108.00000000000001,167.99999999999997" style="stroke:black;fill:none;stroke-width:2.0;stroke-dasharray:-;stroke-linecap:round;stroke-linejoin:round;" /><path d="M -108.00000000000001,167.99999999999997 L -108.00000000000001,185.99999999999997 L -108.00000000000001,203.99999999999997" style="stroke:black;fill:none;stroke-width:2.0;stroke-dasharray:-;stroke-linecap:round;stroke-linejoin:round;" /><path d="M -108.00000000000001,167.99999999999997 L -72.00000000000001,167.99999999999997 L 39.00000000000001,119.99999999999999 L 75.0,119.99999999999999" style="stroke:black;fill:none;stroke-width:2.0;stroke-dasharray:-;stroke-linecap:round;stroke-linejoin:round;" /><path d="M 107.99999999999999,149.99999999999997 L 107.99999999999999,158.99999999999997 L 107.99999999999999,167.99999999999997" style="stroke:black;fill:none;stroke-width:2.0;stroke-dasharray:-;stroke-linecap:round;stroke-linejoin:round;" /><path d="M 107.99999999999999,167.99999999999997 L 107.99999999999999,185.99999999999997 L 107.99999999999999,203.99999999999997" style="stroke:black;fill:none;stroke-width:2.0;stroke-dasharray:-;stroke-linecap:round;stroke-linejoin:round;" /><path d="M 107.99999999999999,167.99999999999997 L 71.99999999999999,167.99999999999997 L -39.000000000000036,119.99999999999999 L -75.00000000000004,119.99999999999999" style="stroke:black;fill:none;stroke-width:2.0;stroke-dasharray:-;stroke-linecap:round;stroke-linejoin:round;" /><path d="M -108.00000000000001,203.99999999999997 L -3.240000000000011,203.99999999999997 M -3.240000000000011,194.99999999999997 L -3.240000000000011,212.99999999999997 M 3.239999999999995,194.99999999999997 L 3.239999999999995,212.99999999999997 M 3.239999999999995,203.99999999999997 L 107.99999999999999,203.99999999999997" style="stroke:black;fill:none;stroke-width:2.0;stroke-dasharray:-;stroke-linecap:round;stroke-linejoin:round;" /><path d="M -15.240000000000016,212.99999999999997 L 8.861530172262896,196.12892887941595" style="stroke:black;fill:none;stroke-width:2.0;stroke-dasharray:-;stroke-linecap:round;stroke-linejoin:round;" /><path d="M 13.121536158961908 193.14692468872664 L 10.513101724029282 198.4883168105108 L 7.209958620496512 193.76954094832112 Z" style="stroke:black;fill:black;stroke-linecap:butt;stroke-linejoin:miter;" /><path d="M -108.00000000000001,203.99999999999997 L -108.00000000000001,239.99999999999997 L -108.00000000000003,276.0" style="stroke:black;fill:none;stroke-width:2.0;stroke-dasharray:-;stroke-linecap:round;stroke-linejoin:round;" /><path d="M 107.99999999999999,203.99999999999997 L 107.99999999999999,239.99999999999997 L 107.99999999999997,276.0" style="stroke:black;fill:none;stroke-width:2.0;stroke-dasharray:-;stroke-linecap:round;stroke-linejoin:round;" /><path d="M -108.00000000000003,276.0 L -72.00000000000003,276.0 L -71.93296616671304,274.33844372661014 L -71.72886674101076,272.63302063457496 L -71.38601960586256,270.930143609328 L -70.90651864655226,269.2761562453997 L -70.2961767658407,267.71607161103634 L -69.56436768651237,266.2923472229325 L -68.72377084663131,265.0437295699932 L -67.79002633015088,264.0041996322737 L -66.7813092239001,263.2020480926722 L -65.71783498476972,262.6591054093793 L -64.62130927847136,262.3901477025698 L -63.51433726244173,262.4024946240594 L -62.4198083891872,262.6958101538571 L -61.360273472572075,263.26211174490794 L -60.35733097011697,264.08598756715713 L -59.43103918356114,265.1450159386606 L -58.59937037458025,266.4103755289773 L -57.8777216518348,267.8476297282289 L -57.27849594049982,269.41766383531876 L -56.810764438140076,271.0777495598421 L -56.48001974315342,272.7827078673987 L -56.28802637436249,274.48613852160895 L -56.23277274984603,276.1416828609964 L -56.30852593190026,277.7042854444139 L -56.505987648252656,279.13142022948466 L -56.81254734342948,280.38424791375814 L -57.21262537351447,281.42867294167985 L -57.68809700429424,282.23627141105743 L -58.21878567373167,282.78506462615803 L -58.78301209468804,283.06011724528366 L -59.35818425412916,283.05394374430887 L -59.921412252057344,282.76671213432405 L -60.450131247401636,282.20623938923404 L -60.922715557468166,281.38777870774834 L -61.31906719830761,280.3336043994028 L -61.62116284894413,279.0724056918904 L -61.81354435389958,277.63850595716156 L -61.88373941504568,276.07092860496243 L -61.822601023705516,274.41233506540715 L -61.6245563954004,272.70786376326066 L -61.287758632512876,271.00390168110846 L -60.8141369873844,269.346821943175 L -60.209344357943635,267.7817217762951 L -59.48260344476564,266.3511951942808 L -58.6464557563789,265.09417380693066 L -57.716420293611144,264.04486730092657 L -56.710571201838285,263.2318324273031 L -55.64904588528018,262.67719583288437 L -54.553496969953756,262.3960518862373 L -53.4465030300463,262.3960518862373 L -52.3509541147199,262.67719583288437 L -51.28942879816179,263.2318324273031 L -50.28357970638892,264.04486730092657 L -49.35354424362117,265.09417380693066 L -48.51739655523444,266.35119519428076 L -47.79065564205643,267.78172177629506 L -47.18586301261566,269.346821943175 L -46.71224136748718,271.00390168110846 L -46.37544360459966,272.7078637632606 L -46.17739897629453,274.41233506540715 L -46.116260584954354,276.07092860496243 L -46.18645564610047,277.63850595716156 L -46.37883715105591,279.0724056918904 L -46.68093280169242,280.3336043994028 L -47.077284442531884,281.38777870774834 L -47.5498687525984,282.20623938923404 L -48.07858774794269,282.76671213432405 L -48.64181574587087,283.05394374430887 L -49.216987905311996,283.06011724528366 L -49.781214326268376,282.78506462615803 L -50.3119029957058,282.2362714110575 L -50.787374626485565,281.42867294167985 L -51.18745265657056,280.38424791375814 L -51.494012351747386,279.1314202294847 L -51.69147406809978,277.704285444414 L -51.76722725015402,276.14168286099647 L -51.71197362563757,274.48613852160895 L -51.51998025684664,272.7827078673987 L -51.18923556185998,271.0777495598421 L -50.72150405950024,269.41766383531876 L -50.12227834816527,267.847629728229 L -49.4006296254198,266.4103755289773 L -48.568960816438924,265.14501593866066 L -47.6426690298831,264.08598756715713 L -46.63972652742799,263.262111744908 L -45.580191610812875,262.6958101538571 L -44.48566273755835,262.4024946240594 L -43.37869072152871,262.3901477025698 L -42.28216501523035,262.6591054093793 L -41.218690776099976,263.2020480926722 L -40.209973669849184,264.0041996322737 L -39.276229153368774,265.04372956999316 L -38.43563231348768,266.2923472229325 L -37.703823234159366,267.71607161103634 L -37.0934813534478,269.27615624539965 L -36.6139803941375,270.93014360932796 L -36.2711332589893,272.6330206345749 L -36.06703383328701,274.33844372661014 L -36.00000000000003,275.99999999999994 L -3.197442310920451e-14,275.99999999999994" style="stroke:black;fill:none;stroke-width:2.0;stroke-dasharray:-;stroke-linecap:round;stroke-linejoin:round;" /><path d="M -3.197442310920451e-14,275.99999999999994 L -3.197442310920451e-14,290.3999999999999 L -9.000000000000032,290.3999999999999 L 8.999999999999968,290.3999999999999 M -6.300000000000032,294.71999999999997 L 6.299999999999968,294.71999999999997 M -1.800000000000032,299.03999999999996 L 1.799999999999968,299.03999999999996" style="stroke:black;fill:none;stroke-width:2.0;stroke-dasharray:-;stroke-linecap:round;stroke-linejoin:round;" /><path d="M -3.197442310920451e-14,275.99999999999994 L 35.99999999999997,275.99999999999994 L 36.06703383328695,274.3384437266101 L 36.27113325898923,272.63302063457496 L 36.613980394137435,270.93014360932796 L 37.09348135344773,269.2761562453997 L 37.703823234159294,267.71607161103634 L 38.43563231348762,266.29234722293245 L 39.27622915336869,265.04372956999316 L 40.20997366984911,264.0041996322737 L 41.2186907760999,263.2020480926722 L 42.28216501523028,262.6591054093793 L 43.37869072152864,262.3901477025697 L 44.48566273755827,262.4024946240594 L 45.5801916108128,262.69581015385705 L 46.63972652742792,263.26211174490794 L 47.642669029883024,264.08598756715713 L 48.568960816438846,265.1450159386606 L 49.40062962541974,266.4103755289772 L 50.122278348165196,267.8476297282289 L 50.72150405950017,269.4176638353187 L 51.18923556185991,271.07774955984206 L 51.51998025684657,272.7827078673987 L 51.711973625637505,274.48613852160895 L 51.767227250153965,276.14168286099635 L 51.69147406809974,277.7042854444139 L 51.49401235174734,279.13142022948466 L 51.187452656570514,280.3842479137581 L 50.787374626485516,281.42867294167985 L 50.31190299570575,282.23627141105743 L 49.781214326268326,282.78506462615803 L 49.21698790531195,283.06011724528366 L 48.64181574587083,283.05394374430887 L 48.07858774794264,282.766712134324 L 47.54986875259836,282.20623938923404 L 47.07728444253183,281.38777870774834 L 46.68093280169238,280.3336043994028 L 46.37883715105586,279.0724056918904 L 46.18645564610041,277.63850595716156 L 46.116260584954304,276.07092860496243 L 46.17739897629448,274.41233506540715 L 46.375443604599596,272.7078637632606 L 46.71224136748712,271.00390168110846 L 47.18586301261559,269.346821943175 L 47.790655642056365,267.78172177629506 L 48.51739655523436,266.35119519428076 L 49.353544243621094,265.09417380693066 L 50.28357970638885,264.04486730092657 L 51.289428798161715,263.2318324273031 L 52.35095411471981,262.67719583288437 L 53.446503030046244,262.3960518862373 L 54.5534969699537,262.3960518862373 L 55.64904588528009,262.6771958328843 L 56.710571201838206,263.2318324273031 L 57.716420293611066,264.04486730092657 L 58.64645575637881,265.0941738069306 L 59.48260344476556,266.35119519428076 L 60.20934435794357,267.78172177629506 L 60.81413698738434,269.346821943175 L 61.28775863251281,271.0039016811084 L 61.62455639540033,272.70786376326055 L 61.822601023705445,274.4123350654071 L 61.883739415045625,276.0709286049624 L 61.81354435389953,277.6385059571615 L 61.621162848944074,279.07240569189037 L 61.319067198307565,280.3336043994028 L 60.922715557468116,281.38777870774834 L 60.450131247401586,282.20623938923404 L 59.9214122520573,282.766712134324 L 59.358184254129114,283.05394374430887 L 58.783012094688004,283.06011724528366 L 58.21878567373162,282.78506462615803 L 57.6880970042942,282.23627141105743 L 57.212625373514435,281.42867294167985 L 56.81254734342943,280.38424791375814 L 56.50598764825261,279.1314202294847 L 56.30852593190021,277.7042854444139 L 56.23277274984597,276.1416828609964 L 56.28802637436243,274.48613852160895 L 56.480019743153356,272.7827078673987 L 56.81076443814001,271.0777495598421 L 57.27849594049976,269.41766383531876 L 57.87772165183473,267.847629728229 L 58.59937037458018,266.4103755289773 L 59.43103918356107,265.1450159386606 L 60.35733097011689,264.08598756715713 L 61.36027347257201,263.26211174490794 L 62.419808389187125,262.6958101538571 L 63.51433726244165,262.4024946240594 L 64.62130927847129,262.3901477025697 L 65.71783498476964,262.6591054093793 L 66.78130922390002,263.2020480926722 L 67.79002633015081,264.0041996322737 L 68.72377084663121,265.04372956999316 L 69.56436768651231,266.29234722293245 L 70.29617676584063,267.7160716110363 L 70.90651864655219,269.2761562453996 L 71.38601960586249,270.93014360932796 L 71.7288667410107,272.6330206345749 L 71.93296616671299,274.33844372661014 L 71.99999999999997,275.99999999999994 L 107.99999999999997,275.99999999999994" style="stroke:black;fill:none;stroke-width:2.0;stroke-dasharray:-;stroke-linecap:round;stroke-linejoin:round;" /><circle cx="-1.3226185430791413e-14" cy="72.0" r="2.6999999999999997" style="stroke:black;fill:black;stroke-width:2.0;stroke-dasharray:-;" /><g><g><g><path d="M -118.702 123.129 L -118.702 123.129 L -122.44 123.129 L -122.356 122.709 Q -121.838 122.709 -121.565 122.611 Q -121.292 122.513 -121.152 122.24 Q -121.012 121.967 -120.914 121.463 L -119.668 115.415 L -119.724 115.415 L -124.428 123.129 L -124.736 123.129 L -126.43 115.429 L -126.486 115.429 L -127.648 121.085 Q -127.788 121.799 -127.767 122.149 Q -127.746 122.499 -127.494 122.604 Q -127.242 122.709 -126.71 122.709 L -126.794 123.129 L -130.028 123.129 L -129.944 122.709 Q -129.398 122.709 -129.104 122.604 Q -128.81 122.499 -128.642 122.149 Q -128.474 121.799 -128.334 121.085 L -127.228 115.639 Q -127.116 115.107 -127.158 114.834 Q -127.2 114.561 -127.459 114.456 Q -127.718 114.351 -128.278 114.351 L -128.194 113.931 L -125.394 113.931 L -123.882 121.015 L -123.826 121.015 L -119.556 113.931 L -116.91 113.931 L -116.994 114.351 Q -117.484 114.351 -117.771 114.456 Q -118.058 114.561 -118.212 114.834 Q -118.366 115.107 -118.478 115.625 L -119.668 121.463 Q -119.822 122.233 -119.591 122.471 Q -119.36 122.709 -118.618 122.709 Z " fill="black" /><path d="M -112.677 126.069 L -112.677 126.069 L -115.999 126.069 L -115.999 125.716 Q -115.293 125.716 -115.063 125.574 Q -114.833 125.432 -114.833 125.06 L -114.833 120.787 Q -114.833 120.522 -114.911 120.405 Q -114.989 120.287 -115.195 120.287 Q -115.352 120.287 -115.622 120.331 Q -115.891 120.375 -116.087 120.424 L -116.087 120.032 L -114.274 119.532 L -113.853 119.532 L -113.853 125.06 Q -113.853 125.432 -113.603 125.574 Q -113.353 125.716 -112.677 125.716 Z " fill="black" /></g></g></g><g><g><g><path d="M 122.926 123.129 L 122.926 123.129 L 119.188 123.129 L 119.272 122.709 Q 119.79 122.709 120.063 122.611 Q 120.336 122.513 120.476 122.24 Q 120.616 121.967 120.714 121.463 L 121.96 115.415 L 121.904 115.415 L 117.2 123.129 L 116.892 123.129 L 115.198 115.429 L 115.142 115.429 L 113.98 121.085 Q 113.84 121.799 113.861 122.149 Q 113.882 122.499 114.134 122.604 Q 114.386 122.709 114.918 122.709 L 114.834 123.129 L 111.6 123.129 L 111.684 122.709 Q 112.23 122.709 112.524 122.604 Q 112.818 122.499 112.986 122.149 Q 113.154 121.799 113.294 121.085 L 114.4 115.639 Q 114.512 115.107 114.47 114.834 Q 114.428 114.561 114.169 114.456 Q 113.91 114.351 113.35 114.351 L 113.434 113.931 L 116.234 113.931 L 117.746 121.015 L 117.802 121.015 L 122.072 113.931 L 124.718 113.931 L 124.634 114.351 Q 124.144 114.351 123.857 114.456 Q 123.57 114.561 123.416 114.834 Q 123.262 115.107 123.15 115.625 L 121.96 121.463 Q 121.806 122.233 122.037 122.471 Q 122.268 122.709 123.01 122.709 Z " fill="black" /><path d="M 129.51 124.364 L 129.51 124.364 L 129.177 126.069 L 125.159 126.069 L 125.159 125.589 L 126.551 124.178 Q 127.099 123.629 127.457 123.207 Q 127.815 122.786 127.991 122.36 Q 128.168 121.933 128.168 121.385 Q 128.168 120.865 127.849 120.527 Q 127.531 120.189 126.952 120.189 Q 126.423 120.189 126.065 120.4 Q 125.708 120.61 125.433 121.091 L 125.169 120.963 Q 125.414 120.277 125.928 119.885 Q 126.443 119.493 127.197 119.493 Q 127.785 119.493 128.236 119.704 Q 128.687 119.915 128.942 120.307 Q 129.197 120.699 129.197 121.257 Q 129.197 121.737 128.981 122.159 Q 128.765 122.58 128.368 123.021 Q 127.972 123.462 127.423 124.001 L 126.198 125.187 L 126.198 125.256 L 126.962 125.216 L 128.236 125.216 Q 128.52 125.216 128.672 125.138 Q 128.824 125.06 128.932 124.868 Q 129.04 124.677 129.167 124.364 Z " fill="black" /></g></g></g><circle cx="-108.00000000000001" cy="167.99999999999997" r="2.6999999999999997" style="stroke:black;fill:black;stroke-width:2.0;stroke-dasharray:-;" /><circle cx="-108.00000000000001" cy="203.99999999999997" r="2.6999999999999997" style="stroke:black;fill:black;stroke-width:2.0;stroke-dasharray:-;" /><circle cx="107.99999999999999" cy="167.99999999999997" r="2.6999999999999997" style="stroke:black;fill:black;stroke-width:2.0;stroke-dasharray:-;" /><circle cx="107.99999999999999" cy="203.99999999999997" r="2.6999999999999997" style="stroke:black;fill:black;stroke-width:2.0;stroke-dasharray:-;" /><g><g><g><path d="M 3.64 229.71 L 3.64 229.71 L 3.892 229.976 Q 3.178 230.816 2.24 231.355 Q 1.302 231.894 -0.028 231.894 Q -1.288 231.894 -2.044 231.425 Q -2.8 230.956 -3.129 230.172 Q -3.458 229.388 -3.458 228.464 Q -3.458 226.994 -3.01 225.853 Q -2.562 224.712 -1.785 223.935 Q -1.008 223.158 -0.028 222.759 Q 0.952 222.36 2.016 222.36 Q 2.73 222.36 3.129 222.486 Q 3.528 222.612 3.752 222.745 Q 3.976 222.878 4.144 222.878 Q 4.312 222.878 4.438 222.738 Q 4.564 222.598 4.732 222.374 L 5.138 222.374 L 4.48 225.58 L 4.018 225.58 Q 4.074 224.18 3.5 223.571 Q 2.926 222.962 1.89 222.962 Q 1.078 222.962 0.364 223.333 Q -0.35 223.704 -0.903 224.383 Q -1.456 225.062 -1.771 226.007 Q -2.086 226.952 -2.086 228.114 Q -2.086 229.514 -1.421 230.249 Q -0.756 230.984 0.63 230.984 Q 2.24 230.984 3.64 229.71 Z " fill="black" /></g></g></g><circle cx="-3.197442310920451e-14" cy="275.99999999999994" r="2.6999999999999997" style="stroke:black;fill:black;stroke-width:2.0;stroke-dasharray:-;" /><g><g><g><path d="M -51.553 253.12 L -51.553 253.12 L -52.393 255.85 L -59.309 255.85 L -59.225 255.43 Q -58.679 255.43 -58.392 255.332 Q -58.105 255.234 -57.951 254.954 Q -57.797 254.674 -57.685 254.114 L -56.481 248.276 Q -56.383 247.814 -56.411 247.548 Q -56.439 247.282 -56.698 247.177 Q -56.957 247.072 -57.559 247.072 L -57.475 246.652 L -53.499 246.652 L -53.569 247.072 Q -54.325 247.072 -54.703 247.303 Q -55.081 247.534 -55.235 248.29 L -56.509 254.562 Q -56.607 255.024 -56.411 255.171 Q -56.215 255.318 -55.599 255.318 L -54.941 255.318 Q -54.269 255.318 -53.849 255.199 Q -53.429 255.08 -53.135 254.828 Q -52.841 254.576 -52.582 254.149 Q -52.323 253.722 -52.001 253.12 Z " fill="black" /><path d="M -46.928 258.79 L -46.928 258.79 L -50.25 258.79 L -50.25 258.437 Q -49.544 258.437 -49.314 258.295 Q -49.084 258.153 -49.084 257.781 L -49.084 253.508 Q -49.084 253.243 -49.162 253.126 Q -49.24 253.008 -49.446 253.008 Q -49.603 253.008 -49.872 253.052 Q -50.142 253.096 -50.338 253.145 L -50.338 252.753 L -48.525 252.254 L -48.104 252.254 L -48.104 257.781 Q -48.104 258.153 -47.854 258.295 Q -47.604 258.437 -46.928 258.437 Z " fill="black" /></g></g></g><g><g><g><path d="M 55.023 253.12 L 55.023 253.12 L 54.183 255.85 L 47.267 255.85 L 47.351 255.43 Q 47.897 255.43 48.184 255.332 Q 48.471 255.234 48.625 254.954 Q 48.779 254.674 48.891 254.114 L 50.095 248.276 Q 50.193 247.814 50.165 247.548 Q 50.137 247.282 49.878 247.177 Q 49.619 247.072 49.017 247.072 L 49.101 246.652 L 53.077 246.652 L 53.007 247.072 Q 52.251 247.072 51.873 247.303 Q 51.495 247.534 51.341 248.29 L 50.067 254.562 Q 49.969 255.024 50.165 255.171 Q 50.361 255.318 50.977 255.318 L 51.635 255.318 Q 52.307 255.318 52.727 255.199 Q 53.147 255.08 53.441 254.828 Q 53.735 254.576 53.994 254.149 Q 54.253 253.722 54.575 253.12 Z " fill="black" /><path d="M 60.208 257.085 L 60.208 257.085 L 59.874 258.79 L 55.856 258.79 L 55.856 258.31 L 57.248 256.899 Q 57.797 256.35 58.154 255.929 Q 58.512 255.507 58.689 255.081 Q 58.865 254.655 58.865 254.106 Q 58.865 253.586 58.546 253.248 Q 58.228 252.91 57.65 252.91 Q 57.121 252.91 56.763 253.121 Q 56.405 253.332 56.131 253.812 L 55.866 253.684 Q 56.111 252.998 56.626 252.606 Q 57.14 252.214 57.895 252.214 Q 58.483 252.214 58.934 252.425 Q 59.384 252.636 59.639 253.028 Q 59.894 253.42 59.894 253.978 Q 59.894 254.459 59.678 254.88 Q 59.463 255.301 59.066 255.742 Q 58.669 256.183 58.12 256.722 L 56.895 257.908 L 56.895 257.977 L 57.66 257.938 L 58.934 257.938 Q 59.218 257.938 59.37 257.859 Q 59.522 257.781 59.629 257.59 Q 59.737 257.399 59.865 257.085 Z " fill="black" /></g></g></g></svg>