<svg xmlns="http://www.w3.org/2000/svg" xmlns:xlink="http://www.w3.org/1999/xlink" xml:lang="en" height="269.97799999999995pt" width="300.62059999999997pt" viewBox="-39.46639999999999 -212.33799999999997 300.62059999999997 269.97799999999995"><circle cx="2.204364238465236e-15" cy="-36.0" r="18.0" style="stroke:black;fill:none;stroke-width:2.0;stroke-dasharray:-;" /><path d="M 0.0,-0.0 L 1.102182119232618e-15,-18.0 L 1.102182119232618e-15,-18.0 M 3.3065463576978533e-15,-54.0 L 3.3065463576978533e-15,-54.0 L 4.408728476930472e-15,-72.0" style="stroke:black;fill:none;stroke-width:2.0;stroke-dasharray:-;stroke-linecap:round;stroke-linejoin:round;" /><path d="M 9.000000000000002,-36.0 L 8.250000000000002,-37.86349712473816 L 7.500000000000003,-39.6 L 6.750000000000003,-41.091168824543146 L 6.0000000000000036,-42.23538290724795 L 5.2500000000000036,-42.95466594928129 L 4.500000000000003,-43.199999999999996 L 3.750000000000003,-42.9546659492813 L 3.0000000000000027,-42.23538290724795 L 2.2500000000000027,-41.09116882454314 L 1.500000000000003,-39.6 L 0.7500000000000027,-37.863497124738146 L 2.204364238465236e-15,-36.0 L -0.7499999999999972,-34.136502875261854 L -1.4999999999999967,-32.400000000000006 L -2.2499999999999982,-30.908831175456857 L -2.9999999999999973,-29.764617092752044 L -3.7499999999999964,-29.04533405071871 L -4.499999999999998,-28.8 L -5.249999999999997,-29.045334050718708 L -5.9999999999999964,-29.76461709275204 L -6.749999999999998,-30.90883117545686 L -7.499999999999997,-32.4 L -8.249999999999996,-34.13650287526185 L -8.999999999999998,-36.0" style="stroke:black;fill:none;stroke-width:2.0;stroke-dasharray:-;stroke-linecap:round;stroke-linejoin:round;" /><path d="M 4.408728476930472e-15,-72.0 L 18.000000000000004,-72.0 L 21.000000000000007,-81.0 L 27.000000000000004,-63.0 L 33.0,-81.0 L 39.00000000000001,-63.0 L 45.00000000000001,-81.0 L 51.0,-63.0 L 54.00000000000001,-72.0 L 72.0,-72.0" style="stroke:black;fill:none;stroke-width:2.0;stroke-dasharray:-;stroke-linecap:round;stroke-linejoin:round;" /><path d="M 72.0,-72.0 L 81.0,-72.0 L 90.0,-72.0" style="stroke:black;fill:none;stroke-width:2.0;stroke-dasharray:-;stroke-linecap:round;stroke-linejoin:round;" /><path d="M 90.0,-72.0 L 108.0,-72.0 L 126.0,-72.0" style="stroke:black;fill:none;stroke-width:2.0;stroke-dasharray:-;stroke-linecap:round;stroke-linejoin:round;" /><path d="M 158.99999999999997,-42.0 L 158.99999999999997,-57.0 L 144.0,-57.0 L 144.0,-87.0 L 158.99999999999997,-87.0 L 158.99999999999997,-101.99999999999999" style="stroke:black;fill:none;stroke-width:2.0;stroke-dasharray:-;stroke-linecap:round;stroke-linejoin:round;" /><path d="M 149.99999999999997,-57.0 L 144.0,-57.0" style="stroke:black;fill:none;stroke-width:2.0;stroke-dasharray:-;stroke-linecap:round;stroke-linejoin:round;" /><path d="M 156.99999999999997 -57.0 L 149.99999999999997 -52.5 L 149.99999999999997 -61.5 Z" style="stroke:black;fill:black;stroke-linecap:butt;stroke-linejoin:miter;" /><path d="M 141.0,-59.99999999999999 L 141.0,-84.0" style="stroke:black;fill:none;stroke-width:2.0;stroke-dasharray:-;stroke-linecap:round;stroke-linejoin:round;" /><path d="M 126.0,-72.0 L 141.0,-72.0" style="stroke:black;fill:none;stroke-width:2.0;stroke-dasharray:-;stroke-linecap:round;stroke-linejoin:round;" /><path d="M 158.99999999999997,-42.0 L 158.99999999999997,-24.000000000000004 L 167.99999999999997,-24.000000000000004 L 167.99999999999997,11.999999999999996 L 149.99999999999997,11.999999999999996 L 149.99999999999997,-24.000000000000004 L 158.99999999999997,-24.000000000000004 M 158.99999999999997,11.999999999999996 L 158.99999999999997,29.999999999999996" style="stroke:black;fill:none;stroke-width:2.0;stroke-dasharray:-;stroke-linecap:round;stroke-linejoin:round;" /><path d="M 158.99999999999997,29.999999999999996 L 158.99999999999997,44.400000000000006 L 149.99999999999997,44.400000000000006 L 167.99999999999997,44.400000000000006 M 152.7,48.72 L 165.29999999999998,48.72 M 157.2,53.03999999999999 L 160.79999999999998,53.03999999999999" style="stroke:black;fill:none;stroke-width:2.0;stroke-dasharray:-;stroke-linecap:round;stroke-linejoin:round;" /><path d="M 158.99999999999997,-101.99999999999999 L 158.99999999999997,-110.99999999999999 L 158.99999999999997,-119.99999999999999" style="stroke:black;fill:none;stroke-width:2.0;stroke-dasharray:-;stroke-linecap:round;stroke-linejoin:round;" /><path d="M 158.99999999999997,-119.99999999999999 L 158.99999999999997,-138.0 L 149.99999999999997,-141.0 L 167.99999999999997,-147.0 L 149.99999999999997,-153.0 L 167.99999999999997,-158.99999999999997 L 149.99999999999997,-165.0 L 167.99999999999997,-171.0 L 158.99999999999997,-174.0 L 158.99999999999997,-192.0" style="stroke:black;fill:none;stroke-width:2.0;stroke-dasharray:-;stroke-linecap:round;stroke-linejoin:round;" /><path d="M 158.99999999999997,-119.99999999999999 L 140.99999999999997,-119.99999999999999 L 122.99999999999997,-119.99999999999999" style="stroke:black;fill:none;stroke-width:2.0;stroke-dasharray:-;stroke-linecap:round;stroke-linejoin:round;" /><path d="M 122.99999999999997,-119.99999999999999 L 122.99999999999997,-138.0 L 121.33844372661014,-138.06703383328696 L 119.63302063457496,-138.27113325898924 L 117.93014360932798,-138.61398039413746 L 116.27615624539969,-139.09348135344777 L 114.71607161103636,-139.7038232341593 L 113.29234722293249,-140.43563231348764 L 112.0437295699932,-141.27622915336872 L 111.0041996322737,-142.20997366984912 L 110.20204809267223,-143.21869077609992 L 109.65910540937934,-144.2821650152303 L 109.39014770256975,-145.37869072152864 L 109.40249462405943,-146.4856627375583 L 109.69581015385708,-147.5801916108128 L 110.26211174490797,-148.63972652742794 L 111.08598756715715,-149.64266902988305 L 112.1450159386606,-150.56896081643887 L 113.41037552897726,-151.40062962541978 L 114.84762972822895,-152.12227834816522 L 116.41766383531875,-152.7215040595002 L 118.0777495598421,-153.18923556185996 L 119.7827078673987,-153.5199802568466 L 121.48613852160895,-153.71197362563754 L 123.14168286099641,-153.76722725015398 L 124.70428544441393,-153.69147406809975 L 126.13142022948468,-153.49401235174736 L 127.3842479137581,-153.1874526565705 L 128.42867294167988,-152.78737462648553 L 129.23627141105743,-152.31190299570576 L 129.78506462615803,-151.78121432626835 L 130.0601172452837,-151.21698790531198 L 130.05394374430887,-150.64181574587087 L 129.76671213432405,-150.07858774794266 L 129.20623938923407,-149.5498687525984 L 128.38777870774837,-149.07728444253186 L 127.33360439940283,-148.6809328016924 L 126.07240569189044,-148.37883715105588 L 124.63850595716157,-148.18645564610043 L 123.07092860496243,-148.11626058495432 L 121.41233506540715,-148.1773989762945 L 119.70786376326063,-148.3754436045996 L 118.00390168110846,-148.71224136748714 L 116.346821943175,-149.1858630126156 L 114.78172177629511,-149.79065564205638 L 113.35119519428079,-150.51739655523437 L 112.09417380693066,-151.35354424362112 L 111.04486730092658,-152.28357970638888 L 110.23183242730315,-153.28942879816174 L 109.67719583288434,-154.35095411471983 L 109.39605188623727,-155.44650303004627 L 109.39605188623727,-156.55349696995373 L 109.67719583288434,-157.64904588528012 L 110.23183242730315,-158.71057120183823 L 111.04486730092657,-159.7164202936111 L 112.09417380693061,-160.64645575637883 L 113.35119519428076,-161.48260344476557 L 114.78172177629509,-162.20934435794356 L 116.34682194317497,-162.81413698738436 L 118.00390168110843,-163.28775863251286 L 119.70786376326059,-163.62455639540036 L 121.41233506540712,-163.82260102370546 L 123.07092860496242,-163.88373941504565 L 124.63850595716154,-163.81354435389954 L 126.07240569189041,-163.6211628489441 L 127.3336043994028,-163.31906719830758 L 128.38777870774834,-162.9227155574681 L 129.20623938923404,-162.4501312474016 L 129.76671213432402,-161.92141225205734 L 130.05394374430887,-161.35818425412913 L 130.0601172452837,-160.78301209468805 L 129.78506462615806,-160.21878567373165 L 129.23627141105746,-159.6880970042942 L 128.42867294167988,-159.21262537351447 L 127.38424791375812,-158.81254734342946 L 126.1314202294847,-158.50598764825264 L 124.70428544441396,-158.30852593190022 L 123.14168286099644,-158.232772749846 L 121.48613852160899,-158.28802637436246 L 119.78270786739873,-158.48001974315338 L 118.07774955984215,-158.81076443814004 L 116.41766383531878,-159.2784959404998 L 114.84762972822897,-159.87772165183475 L 113.41037552897728,-160.5993703745802 L 112.14501593866063,-161.4310391835611 L 111.08598756715716,-162.3573309701169 L 110.26211174490798,-163.36027347257203 L 109.69581015385708,-164.41980838918715 L 109.40249462405943,-165.51433726244164 L 109.39014770256975,-166.6213092784713 L 109.65910540937934,-167.71783498476967 L 110.20204809267221,-168.78130922390005 L 111.00419963227368,-169.79002633015082 L 112.04372956999316,-170.72377084663125 L 113.29234722293249,-171.56436768651233 L 114.71607161103634,-172.29617676584064 L 116.27615624539965,-172.90651864655223 L 117.93014360932797,-173.38601960586254 L 119.6330206345749,-173.7288667410107 L 121.33844372661014,-173.932966166713 L 122.99999999999996,-174.0 L 122.99999999999996,-192.0" style="stroke:black;fill:none;stroke-width:2.0;stroke-dasharray:-;stroke-linecap:round;stroke-linejoin:round;" /><path d="M 158.99999999999997,-119.99999999999999 L 176.99999999999997,-119.99999999999999 L 194.99999999999997,-119.99999999999999" style="stroke:black;fill:none;stroke-width:2.0;stroke-dasharray:-;stroke-linecap:round;stroke-linejoin:round;" /><path d="M 194.99999999999997,-119.99999999999999 L 212.99999999999997,-119.99999999999999 L 230.99999999999997,-119.99999999999999" style="stroke:black;fill:none;stroke-width:2.0;stroke-dasharray:-;stroke-linecap:round;stroke-linejoin:round;" /><path d="M 194.99999999999997,-119.99999999999999 L 194.99999999999997,-152.76 M 185.99999999999997,-152.76 L 203.99999999999997,-152.76 M 185.99999999999997,-159.23999999999998 L 203.99999999999997,-159.23999999999998 M 194.99999999999997,-159.23999999999998 L 194.99999999999997,-192.0" style="stroke:black;fill:none;stroke-width:2.0;stroke-dasharray:-;stroke-linecap:round;stroke-linejoin:round;" /><path d="M 104.99999999999996,-192.0 L 158.99999999999997,-192.0 L 212.99999999999997,-192.0" style="stroke:black;fill:none;stroke-width:3;stroke-dasharray:-;stroke-linecap:round;stroke-linejoin:round;" /><path d="M 0.0,-0.0 L -2.7554552980815444e-15,14.999999999999998 L -5.510910596163089e-15,29.999999999999996" style="stroke:black;fill:none;stroke-width:2.0;stroke-dasharray:-;stroke-linecap:round;stroke-linejoin:round;" /><path d="M -5.510910596163089e-15,29.999999999999996 L -5.510910596163089e-15,44.400000000000006 L -9.000000000000005,44.400000000000006 L 8.999999999999995,44.400000000000006 M -6.300000000000006,48.72 L 6.299999999999994,48.72 M -1.8000000000000056,53.03999999999999 L 1.7999999999999945,53.03999999999999" style="stroke:black;fill:none;stroke-width:2.0;stroke-dasharray:-;stroke-linecap:round;stroke-linejoin:round;" /><g><g><g><path d="M -35.534 -40.781 L -35.534 -40.781 L -35.226 -40.781 L -35.884 -38.093 Q -35.982 -37.729 -36.087 -37.218 Q -36.192 -36.707 -36.192 -36.231 Q -36.192 -35.685 -35.968 -35.286 Q -35.744 -34.887 -35.1 -34.887 Q -34.386 -34.887 -33.868 -35.23 Q -33.35 -35.573 -33.021 -36.105 Q -32.692 -36.637 -32.531 -37.225 Q -32.37 -37.813 -32.37 -38.303 Q -32.37 -38.667 -32.496 -38.933 Q -32.622 -39.199 -32.797 -39.409 Q -32.972 -39.619 -33.098 -39.815 Q -33.224 -40.011 -33.224 -40.235 Q -33.224 -40.515 -33.07 -40.669 Q -32.916 -40.823 -32.692 -40.823 Q -32.216 -40.823 -31.922 -40.347 Q -31.628 -39.871 -31.628 -39.129 Q -31.628 -38.485 -31.789 -37.778 Q -31.95 -37.071 -32.272 -36.399 Q -32.594 -35.727 -33.07 -35.181 Q -33.546 -34.635 -34.162 -34.313 Q -34.778 -33.991 -35.534 -33.991 Q -36.234 -33.991 -36.626 -34.271 Q -37.018 -34.551 -37.179 -35.013 Q -37.34 -35.475 -37.34 -36.007 Q -37.34 -36.511 -37.242 -37.043 Q -37.144 -37.575 -37.032 -38.009 L -36.752 -39.073 Q -36.724 -39.185 -36.668 -39.409 Q -36.612 -39.633 -36.612 -39.843 Q -36.612 -40.025 -36.682 -40.151 Q -36.752 -40.277 -36.948 -40.277 Q -37.116 -40.277 -37.354 -40.256 Q -37.592 -40.235 -37.592 -40.235 L -37.592 -40.627 Z " fill="black" /><path d="M -27.855 -31.54 L -27.855 -31.54 L -27.855 -31.177 L -30.344 -31.177 L -30.344 -31.54 Q -30.001 -31.54 -29.849 -31.613 Q -29.698 -31.687 -29.658 -31.848 Q -29.619 -32.01 -29.619 -32.275 L -29.619 -35.234 Q -29.619 -35.567 -29.727 -35.636 Q -29.835 -35.705 -30.09 -35.705 Q -30.217 -35.705 -30.295 -35.695 Q -30.374 -35.685 -30.374 -35.685 L -30.374 -36.077 L -29.061 -36.293 L -28.659 -36.293 L -28.659 -32.275 Q -28.659 -31.99 -28.615 -31.829 Q -28.571 -31.667 -28.399 -31.603 Q -28.228 -31.54 -27.855 -31.54 Z M -29.149 -38.458 L -29.149 -38.458 Q -28.865 -38.458 -28.673 -38.262 Q -28.482 -38.066 -28.482 -37.812 Q -28.482 -37.576 -28.673 -37.38 Q -28.865 -37.184 -29.149 -37.184 Q -29.423 -37.184 -29.604 -37.38 Q -29.786 -37.576 -29.786 -37.812 Q -29.786 -38.066 -29.604 -38.262 Q -29.423 -38.458 -29.149 -38.458 Z " fill="black" /><path d="M -22.034 -34.46 L -22.034 -34.46 L -22.034 -32.265 Q -22.034 -31.99 -21.985 -31.829 Q -21.936 -31.667 -21.769 -31.598 Q -21.603 -31.53 -21.25 -31.53 L -21.25 -31.177 L -23.769 -31.177 L -23.769 -31.53 Q -23.396 -31.53 -23.23 -31.598 Q -23.063 -31.667 -23.024 -31.829 Q -22.985 -31.99 -22.985 -32.265 L -22.985 -34.137 Q -22.985 -34.793 -23.136 -35.102 Q -23.288 -35.411 -23.519 -35.509 Q -23.749 -35.607 -23.984 -35.607 Q -24.406 -35.607 -24.724 -35.391 Q -25.043 -35.175 -25.278 -34.979 L -25.278 -32.265 Q -25.278 -31.99 -25.234 -31.829 Q -25.19 -31.667 -25.023 -31.598 Q -24.856 -31.53 -24.494 -31.53 L -24.494 -31.177 L -26.963 -31.177 L -26.963 -31.53 Q -26.62 -31.53 -26.468 -31.598 Q -26.317 -31.667 -26.277 -31.829 Q -26.238 -31.99 -26.238 -32.265 L -26.238 -35.244 Q -26.238 -35.518 -26.341 -35.611 Q -26.444 -35.705 -26.669 -35.705 Q -26.787 -35.705 -26.865 -35.695 Q -26.944 -35.685 -26.944 -35.685 L -26.944 -36.057 L -25.631 -36.293 L -25.307 -36.293 L -25.307 -35.489 L -25.239 -35.489 Q -24.817 -35.871 -24.43 -36.097 Q -24.043 -36.322 -23.553 -36.322 Q -22.975 -36.322 -22.646 -36.062 Q -22.318 -35.803 -22.176 -35.381 Q -22.034 -34.96 -22.034 -34.46 Z " fill="black" /></g></g></g><g><g><g><path d="M 13.078 -94.933 L 13.078 -94.933 Q 13.078 -94.191 12.798 -93.687 Q 12.518 -93.183 12.07 -92.861 Q 11.622 -92.539 11.111 -92.364 Q 10.6 -92.189 10.138 -92.105 L 10.138 -92.035 Q 10.39 -91.867 10.614 -91.524 Q 10.838 -91.181 11.167 -90.537 Q 11.496 -89.893 12.07 -88.801 Q 12.308 -88.381 12.595 -88.234 Q 12.882 -88.087 13.358 -88.087 L 13.274 -87.667 L 11.146 -87.667 Q 10.754 -88.535 10.488 -89.116 Q 10.222 -89.697 10.026 -90.089 Q 9.83 -90.481 9.683 -90.789 Q 9.536 -91.097 9.368 -91.419 Q 9.214 -91.713 9.032 -91.804 Q 8.85 -91.895 8.472 -91.895 L 8.178 -91.895 L 7.66 -89.403 Q 7.548 -88.829 7.583 -88.542 Q 7.618 -88.255 7.898 -88.171 Q 8.178 -88.087 8.78 -88.087 L 8.71 -87.667 L 4.846 -87.667 L 4.93 -88.087 Q 5.448 -88.087 5.728 -88.171 Q 6.008 -88.255 6.155 -88.535 Q 6.302 -88.815 6.414 -89.403 L 7.646 -95.409 Q 7.73 -95.801 7.688 -96.025 Q 7.646 -96.249 7.401 -96.347 Q 7.156 -96.445 6.596 -96.445 L 6.68 -96.865 L 9.97 -96.865 Q 11.44 -96.865 12.259 -96.41 Q 13.078 -95.955 13.078 -94.933 Z M 9.06 -96.277 L 9.06 -96.277 L 8.276 -92.413 L 8.71 -92.399 Q 9.55 -92.427 10.229 -92.672 Q 10.908 -92.917 11.3 -93.449 Q 11.692 -93.981 11.692 -94.877 Q 11.692 -95.255 11.531 -95.584 Q 11.37 -95.913 10.978 -96.116 Q 10.586 -96.319 9.886 -96.319 Q 9.62 -96.319 9.459 -96.312 Q 9.298 -96.305 9.06 -96.277 Z " fill="black" /><path d="M 14.59 -86.511 L 14.59 -86.511 L 14.904 -86.511 Q 15.031 -85.943 15.207 -85.629 Q 15.384 -85.315 15.663 -85.193 Q 15.942 -85.07 16.344 -85.07 Q 16.805 -85.07 17.055 -85.222 Q 17.305 -85.374 17.305 -85.756 Q 17.305 -86.011 17.182 -86.183 Q 17.06 -86.354 16.79 -86.511 Q 16.521 -86.668 16.07 -86.874 Q 15.609 -87.099 15.281 -87.295 Q 14.953 -87.491 14.781 -87.756 Q 14.61 -88.02 14.61 -88.422 Q 14.61 -89.128 15.085 -89.5 Q 15.56 -89.872 16.276 -89.872 Q 16.707 -89.872 17.006 -89.765 Q 17.305 -89.657 17.481 -89.578 L 17.501 -89.578 L 17.657 -89.823 L 17.932 -89.823 L 17.951 -88.197 L 17.608 -88.197 Q 17.422 -88.951 17.089 -89.211 Q 16.756 -89.471 16.325 -89.471 Q 15.874 -89.471 15.644 -89.275 Q 15.413 -89.079 15.413 -88.765 Q 15.413 -88.51 15.57 -88.344 Q 15.727 -88.177 16.016 -88.035 Q 16.305 -87.893 16.707 -87.697 Q 17.158 -87.481 17.501 -87.251 Q 17.844 -87.021 18.04 -86.732 Q 18.236 -86.442 18.236 -86.011 Q 18.236 -85.492 17.961 -85.178 Q 17.687 -84.865 17.256 -84.732 Q 16.824 -84.6 16.354 -84.6 Q 15.874 -84.6 15.609 -84.698 Q 15.345 -84.796 15.119 -84.884 L 15.08 -84.884 L 14.835 -84.629 L 14.61 -84.629 Z " fill="black" /><path d="M 33.122 -92.245 L 33.122 -92.245 L 24.778 -92.245 L 24.778 -93.197 L 33.122 -93.197 Z M 33.122 -89.389 L 33.122 -89.389 L 24.778 -89.389 L 24.778 -90.327 L 33.122 -90.327 Z " fill="black" /><path d="M 45.011 -95.353 L 45.011 -95.353 L 41.721 -95.353 L 41.343 -93.757 L 42.001 -93.715 Q 42.617 -93.673 43.219 -93.505 Q 43.821 -93.337 44.311 -93.001 Q 44.801 -92.665 45.088 -92.112 Q 45.375 -91.559 45.375 -90.733 Q 45.375 -89.655 44.899 -88.934 Q 44.423 -88.213 43.576 -87.849 Q 42.729 -87.485 41.609 -87.485 Q 39.999 -87.485 39.999 -88.269 Q 39.999 -88.507 40.146 -88.689 Q 40.293 -88.871 40.559 -88.871 Q 40.839 -88.871 41.112 -88.703 Q 41.385 -88.535 41.707 -88.36 Q 42.029 -88.185 42.477 -88.185 Q 42.981 -88.185 43.408 -88.381 Q 43.835 -88.577 44.094 -89.011 Q 44.353 -89.445 44.353 -90.173 Q 44.353 -91.489 43.569 -92.007 Q 42.785 -92.525 41.329 -92.595 Q 41.063 -92.623 40.958 -92.623 Q 40.853 -92.623 40.699 -92.623 L 40.531 -92.833 L 41.399 -96.487 L 45.235 -96.487 Z " fill="black" /><path d="M 52.655 -92.105 L 52.655 -92.105 Q 52.655 -91.209 52.48 -90.383 Q 52.305 -89.557 51.934 -88.913 Q 51.563 -88.269 50.975 -87.891 Q 50.387 -87.513 49.561 -87.513 Q 48.721 -87.513 48.133 -87.884 Q 47.545 -88.255 47.181 -88.899 Q 46.817 -89.543 46.649 -90.383 Q 46.481 -91.223 46.481 -92.147 Q 46.481 -93.477 46.838 -94.492 Q 47.195 -95.507 47.888 -96.081 Q 48.581 -96.655 49.589 -96.655 Q 50.499 -96.655 51.185 -96.116 Q 51.871 -95.577 52.263 -94.562 Q 52.655 -93.547 52.655 -92.105 Z M 51.297 -92.021 L 51.297 -92.021 Q 51.297 -94.149 50.856 -95.164 Q 50.415 -96.179 49.547 -96.179 Q 48.721 -96.179 48.273 -95.171 Q 47.825 -94.163 47.825 -92.077 Q 47.825 -90.047 48.273 -89.032 Q 48.721 -88.017 49.561 -88.017 Q 50.387 -88.017 50.842 -89.011 Q 51.297 -90.005 51.297 -92.021 Z " fill="black" /><path d="M 66.062 -87.667 L 66.062 -87.667 L 62.408 -87.667 L 62.408 -88.675 Q 63.066 -89.207 63.521 -89.942 Q 63.976 -90.677 64.207 -91.496 Q 64.438 -92.315 64.438 -93.085 Q 64.438 -94.667 63.682 -95.556 Q 62.926 -96.445 61.638 -96.445 Q 60.308 -96.445 59.538 -95.542 Q 58.768 -94.639 58.768 -93.085 Q 58.768 -92.329 58.992 -91.496 Q 59.216 -90.663 59.671 -89.921 Q 60.126 -89.179 60.798 -88.661 L 60.798 -87.667 L 57.102 -87.667 L 56.808 -90.145 L 57.214 -90.145 Q 57.34 -89.669 57.459 -89.375 Q 57.578 -89.081 57.795 -88.941 Q 58.012 -88.801 58.404 -88.801 L 59.678 -88.801 L 59.678 -88.885 Q 59.286 -89.179 58.859 -89.564 Q 58.432 -89.949 58.068 -90.453 Q 57.704 -90.957 57.48 -91.622 Q 57.256 -92.287 57.256 -93.141 Q 57.256 -94.303 57.816 -95.178 Q 58.376 -96.053 59.37 -96.543 Q 60.364 -97.033 61.652 -97.033 Q 62.954 -97.033 63.92 -96.543 Q 64.886 -96.053 65.418 -95.178 Q 65.95 -94.303 65.95 -93.155 Q 65.95 -92.301 65.712 -91.636 Q 65.474 -90.971 65.103 -90.46 Q 64.732 -89.949 64.319 -89.564 Q 63.906 -89.179 63.542 -88.885 L 63.542 -88.801 L 64.718 -88.801 Q 65.138 -88.801 65.355 -88.941 Q 65.572 -89.081 65.705 -89.382 Q 65.838 -89.683 65.978 -90.145 L 66.384 -90.145 Z " fill="black" /></g></g></g><g><g><g><path d="M 173.926 -68.871 L 173.926 -68.871 L 170.188 -68.871 L 170.272 -69.291 Q 170.79 -69.291 171.063 -69.389 Q 171.336 -69.487 171.476 -69.76 Q 171.616 -70.033 171.714 -70.537 L 172.96 -76.585 L 172.904 -76.585 L 168.2 -68.871 L 167.892 -68.871 L 166.198 -76.571 L 166.142 -76.571 L 164.98 -70.915 Q 164.84 -70.201 164.861 -69.851 Q 164.882 -69.501 165.134 -69.396 Q 165.386 -69.291 165.918 -69.291 L 165.834 -68.871 L 162.6 -68.871 L 162.684 -69.291 Q 163.23 -69.291 163.524 -69.396 Q 163.818 -69.501 163.986 -69.851 Q 164.154 -70.201 164.294 -70.915 L 165.4 -76.361 Q 165.512 -76.893 165.47 -77.166 Q 165.428 -77.439 165.169 -77.544 Q 164.91 -77.649 164.35 -77.649 L 164.434 -78.069 L 167.234 -78.069 L 168.746 -70.985 L 168.802 -70.985 L 173.072 -78.069 L 175.718 -78.069 L 175.634 -77.649 Q 175.144 -77.649 174.857 -77.544 Q 174.57 -77.439 174.416 -77.166 Q 174.262 -76.893 174.15 -76.375 L 172.96 -70.537 Q 172.806 -69.767 173.037 -69.529 Q 173.268 -69.291 174.01 -69.291 Z " fill="black" /><path d="M 179.952 -65.931 L 179.952 -65.931 L 176.629 -65.931 L 176.629 -66.284 Q 177.335 -66.284 177.565 -66.426 Q 177.796 -66.568 177.796 -66.94 L 177.796 -71.213 Q 177.796 -71.478 177.717 -71.595 Q 177.639 -71.713 177.433 -71.713 Q 177.276 -71.713 177.007 -71.669 Q 176.737 -71.625 176.541 -71.576 L 176.541 -71.968 L 178.354 -72.468 L 178.776 -72.468 L 178.776 -66.94 Q 178.776 -66.568 179.025 -66.426 Q 179.275 -66.284 179.952 -66.284 Z " fill="black" /></g></g></g><g><g><g><path d="M 128.059 -6.72 L 128.059 -6.72 L 127.247 -4.116 L 120.191 -4.116 L 120.261 -4.522 L 127.345 -12.67 L 127.345 -12.726 L 124.783 -12.726 Q 124.069 -12.726 123.635 -12.621 Q 123.201 -12.516 122.907 -12.152 Q 122.613 -11.788 122.305 -11.004 L 121.857 -11.004 L 122.375 -13.314 L 129.179 -13.314 L 129.095 -12.922 L 122.039 -4.76 L 122.039 -4.69 L 124.909 -4.69 Q 125.707 -4.69 126.162 -4.872 Q 126.617 -5.054 126.932 -5.502 Q 127.247 -5.95 127.639 -6.72 Z " fill="black" /><path d="M 134.97 -1.303 L 134.97 -1.303 L 133.647 -1.127 L 133.295 -1.127 L 133.295 -1.813 L 133.226 -1.813 Q 132.903 -1.538 132.496 -1.313 Q 132.089 -1.087 131.58 -1.087 Q 131.001 -1.087 130.595 -1.401 Q 130.188 -1.715 129.972 -2.263 Q 129.757 -2.812 129.757 -3.508 Q 129.757 -4.38 130.095 -5.012 Q 130.433 -5.644 130.996 -5.983 Q 131.56 -6.321 132.226 -6.321 Q 132.805 -6.321 133.275 -6.056 L 133.275 -7.32 Q 133.275 -7.673 133.201 -7.786 Q 133.128 -7.898 132.814 -7.898 Q 132.746 -7.898 132.633 -7.884 Q 132.52 -7.869 132.52 -7.869 L 132.52 -8.241 L 133.824 -8.496 L 134.226 -8.496 L 134.226 -2.283 Q 134.226 -1.901 134.333 -1.788 Q 134.441 -1.675 134.706 -1.675 L 134.97 -1.675 Z M 133.275 -2.263 L 133.275 -2.263 L 133.275 -5.125 Q 133.167 -5.399 132.917 -5.615 Q 132.667 -5.831 132.207 -5.831 Q 131.55 -5.831 131.129 -5.385 Q 130.707 -4.939 130.707 -3.91 Q 130.707 -2.861 131.075 -2.376 Q 131.442 -1.891 132.109 -1.891 Q 132.422 -1.891 132.682 -1.979 Q 132.942 -2.067 133.275 -2.263 Z " fill="black" /><path d="M 140.115 -2.636 L 140.115 -2.636 L 140.351 -2.45 Q 140.145 -2.077 139.89 -1.764 Q 139.635 -1.45 139.263 -1.264 Q 138.89 -1.078 138.322 -1.078 Q 137.705 -1.078 137.17 -1.357 Q 136.636 -1.636 136.313 -2.214 Q 135.99 -2.793 135.99 -3.675 Q 135.99 -4.547 136.293 -5.135 Q 136.597 -5.723 137.117 -6.022 Q 137.636 -6.321 138.273 -6.321 Q 139.155 -6.321 139.738 -5.708 Q 140.321 -5.096 140.341 -3.88 L 136.891 -3.88 Q 136.891 -3.214 137.141 -2.778 Q 137.391 -2.342 137.783 -2.131 Q 138.175 -1.92 138.606 -1.92 Q 139.047 -1.92 139.312 -2.014 Q 139.576 -2.107 139.758 -2.273 Q 139.939 -2.44 140.115 -2.636 Z M 136.891 -4.331 L 136.891 -4.331 L 139.292 -4.331 Q 139.292 -4.723 139.165 -5.071 Q 139.037 -5.419 138.792 -5.64 Q 138.547 -5.86 138.165 -5.86 Q 137.607 -5.86 137.278 -5.468 Q 136.95 -5.076 136.891 -4.331 Z " fill="black" /><path d="M 142.301 -3.145 L 142.301 -3.145 L 142.301 -3.185 Q 141.958 -3.39 141.718 -3.719 Q 141.478 -4.047 141.478 -4.566 Q 141.478 -5.115 141.742 -5.507 Q 142.007 -5.899 142.458 -6.11 Q 142.908 -6.321 143.467 -6.321 Q 143.986 -6.321 144.315 -6.208 Q 144.643 -6.095 144.643 -6.095 L 146.084 -6.134 L 146.084 -5.556 L 145.055 -5.576 L 145.055 -5.507 Q 145.182 -5.331 145.319 -5.091 Q 145.456 -4.851 145.456 -4.419 Q 145.456 -3.929 145.197 -3.572 Q 144.937 -3.214 144.501 -3.023 Q 144.065 -2.832 143.516 -2.832 Q 143.016 -2.832 142.575 -3.008 Q 142.507 -2.881 142.413 -2.646 Q 142.32 -2.41 142.32 -2.244 Q 142.32 -2.038 142.56 -1.94 Q 142.801 -1.842 143.516 -1.842 Q 144.045 -1.842 144.496 -1.818 Q 144.947 -1.793 145.28 -1.68 Q 145.613 -1.568 145.794 -1.318 Q 145.976 -1.068 145.976 -0.607 Q 145.976 -0.078 145.706 0.289 Q 145.437 0.657 144.996 0.882 Q 144.555 1.108 144.04 1.211 Q 143.526 1.314 143.026 1.314 Q 142.311 1.314 141.919 1.137 Q 141.527 0.961 141.375 0.686 Q 141.223 0.412 141.223 0.128 Q 141.223 -0.147 141.414 -0.416 Q 141.605 -0.686 142.026 -1.078 L 142.026 -1.127 Q 141.781 -1.254 141.615 -1.47 Q 141.448 -1.685 141.448 -1.891 Q 141.448 -2.185 141.708 -2.513 Q 141.968 -2.842 142.301 -3.145 Z M 142.35 -1.029 L 142.35 -1.029 Q 142.183 -0.744 142.124 -0.578 Q 142.066 -0.411 142.066 -0.245 Q 142.066 0.206 142.433 0.436 Q 142.801 0.667 143.575 0.667 Q 144.212 0.667 144.604 0.51 Q 144.996 0.353 145.182 0.133 Q 145.368 -0.088 145.368 -0.294 Q 145.368 -0.558 145.197 -0.705 Q 145.025 -0.852 144.761 -0.916 Q 144.496 -0.98 144.202 -0.999 Q 143.908 -1.019 143.653 -1.019 Q 143.585 -1.019 143.545 -1.019 Q 142.918 -1.019 142.688 -1.024 Q 142.458 -1.029 142.35 -1.029 Z M 143.408 -5.889 L 143.408 -5.889 Q 142.987 -5.889 142.727 -5.605 Q 142.467 -5.321 142.467 -4.625 Q 142.467 -3.939 142.742 -3.586 Q 143.016 -3.234 143.516 -3.234 Q 143.781 -3.234 143.996 -3.341 Q 144.212 -3.449 144.344 -3.733 Q 144.476 -4.018 144.476 -4.537 Q 144.476 -5.203 144.187 -5.546 Q 143.898 -5.889 143.408 -5.889 Z " fill="black" /></g></g></g><circle cx="158.99999999999997" cy="-119.99999999999999" r="2.6999999999999997" style="stroke:black;fill:black;stroke-width:2.0;stroke-dasharray:-;" /><g><g><g><path d="M 137.196 -160.137 L 137.196 -160.137 Q 137.196 -159.395 136.916 -158.891 Q 136.636 -158.387 136.188 -158.065 Q 135.74 -157.743 135.229 -157.568 Q 134.718 -157.393 134.256 -157.309 L 134.256 -157.239 Q 134.508 -157.071 134.732 -156.728 Q 134.956 -156.385 135.285 -155.741 Q 135.614 -155.097 136.188 -154.005 Q 136.426 -153.585 136.713 -153.438 Q 137 -153.291 137.476 -153.291 L 137.392 -152.871 L 135.264 -152.871 Q 134.872 -153.739 134.606 -154.32 Q 134.34 -154.901 134.144 -155.293 Q 133.948 -155.685 133.801 -155.993 Q 133.654 -156.301 133.486 -156.623 Q 133.332 -156.917 133.15 -157.008 Q 132.968 -157.099 132.59 -157.099 L 132.296 -157.099 L 131.778 -154.607 Q 131.666 -154.033 131.701 -153.746 Q 131.736 -153.459 132.016 -153.375 Q 132.296 -153.291 132.898 -153.291 L 132.828 -152.871 L 128.964 -152.871 L 129.048 -153.291 Q 129.566 -153.291 129.846 -153.375 Q 130.126 -153.459 130.273 -153.739 Q 130.42 -154.019 130.532 -154.607 L 131.764 -160.613 Q 131.848 -161.005 131.806 -161.229 Q 131.764 -161.453 131.519 -161.551 Q 131.274 -161.649 130.714 -161.649 L 130.798 -162.069 L 134.088 -162.069 Q 135.558 -162.069 136.377 -161.614 Q 137.196 -161.159 137.196 -160.137 Z M 133.178 -161.481 L 133.178 -161.481 L 132.394 -157.617 L 132.828 -157.603 Q 133.668 -157.631 134.347 -157.876 Q 135.026 -158.121 135.418 -158.653 Q 135.81 -159.185 135.81 -160.081 Q 135.81 -160.459 135.649 -160.788 Q 135.488 -161.117 135.096 -161.32 Q 134.704 -161.523 134.004 -161.523 Q 133.738 -161.523 133.577 -161.516 Q 133.416 -161.509 133.178 -161.481 Z " fill="black" /><path d="M 138.669 -156.82 L 138.669 -156.82 L 141.639 -156.82 Q 142.423 -156.82 143.138 -156.649 Q 143.853 -156.477 144.417 -156.085 Q 144.98 -155.693 145.309 -155.037 Q 145.637 -154.38 145.637 -153.4 Q 145.637 -152.479 145.338 -151.818 Q 145.039 -151.156 144.5 -150.74 Q 143.961 -150.323 143.246 -150.127 Q 142.53 -149.931 141.697 -149.931 L 138.669 -149.931 L 138.669 -150.303 Q 139.13 -150.303 139.345 -150.372 Q 139.561 -150.441 139.625 -150.651 Q 139.688 -150.862 139.688 -151.293 L 139.688 -155.546 Q 139.688 -155.948 139.595 -156.139 Q 139.502 -156.33 139.282 -156.389 Q 139.061 -156.448 138.669 -156.448 Z M 140.737 -156.33 L 140.737 -156.33 L 140.737 -150.401 Q 140.894 -150.392 141.046 -150.387 Q 141.198 -150.382 141.345 -150.382 Q 142.315 -150.382 142.996 -150.637 Q 143.677 -150.891 144.035 -151.528 Q 144.392 -152.165 144.392 -153.312 Q 144.392 -154.782 143.643 -155.561 Q 142.893 -156.34 141.266 -156.34 Q 141.129 -156.34 141.002 -156.34 Q 140.874 -156.34 140.737 -156.33 Z " fill="black" /></g></g></g><g><g><g><path d="M 105.216 -154.131 L 105.216 -154.131 L 104.376 -151.401 L 97.46 -151.401 L 97.544 -151.821 Q 98.09 -151.821 98.377 -151.919 Q 98.664 -152.017 98.818 -152.297 Q 98.972 -152.577 99.084 -153.137 L 100.288 -158.975 Q 100.386 -159.437 100.358 -159.703 Q 100.33 -159.969 100.071 -160.074 Q 99.812 -160.179 99.21 -160.179 L 99.294 -160.599 L 103.27 -160.599 L 103.2 -160.179 Q 102.444 -160.179 102.066 -159.948 Q 101.688 -159.717 101.534 -158.961 L 100.26 -152.689 Q 100.162 -152.227 100.358 -152.08 Q 100.554 -151.933 101.17 -151.933 L 101.828 -151.933 Q 102.5 -151.933 102.92 -152.052 Q 103.34 -152.171 103.634 -152.423 Q 103.928 -152.675 104.187 -153.102 Q 104.446 -153.529 104.768 -154.131 Z " fill="black" /></g></g></g><circle cx="194.99999999999997" cy="-119.99999999999999" r="2.6999999999999997" style="stroke:black;fill:black;stroke-width:2.0;stroke-dasharray:-;" /><circle cx="230.99999999999997" cy="-119.99999999999999" r="2.6999999999999997" style="stroke:black;fill:white;stroke-width:2.0;stroke-dasharray:-;" /><g><g><g><path d="M 240.1 -124.84 L 240.1 -124.84 L 240.408 -124.84 L 239.75 -122.152 Q 239.652 -121.788 239.547 -121.277 Q 239.442 -120.766 239.442 -120.29 Q 239.442 -119.744 239.666 -119.345 Q 239.89 -118.946 240.534 -118.946 Q 241.248 -118.946 241.766 -119.289 Q 242.284 -119.632 242.613 -120.164 Q 242.942 -120.696 243.103 -121.284 Q 243.264 -121.872 243.264 -122.362 Q 243.264 -122.726 243.138 -122.992 Q 243.012 -123.258 242.837 -123.468 Q 242.662 -123.678 242.536 -123.874 Q 242.41 -124.07 242.41 -124.294 Q 242.41 -124.574 242.564 -124.728 Q 242.718 -124.882 242.942 -124.882 Q 243.418 -124.882 243.712 -124.406 Q 244.006 -123.93 244.006 -123.188 Q 244.006 -122.544 243.845 -121.837 Q 243.684 -121.13 243.362 -120.458 Q 243.04 -119.786 242.564 -119.24 Q 242.088 -118.694 241.472 -118.372 Q 240.856 -118.05 240.1 -118.05 Q 239.4 -118.05 239.008 -118.33 Q 238.616 -118.61 238.455 -119.072 Q 238.294 -119.534 238.294 -120.066 Q 238.294 -120.57 238.392 -121.102 Q 238.49 -121.634 238.602 -122.068 L 238.882 -123.132 Q 238.91 -123.244 238.966 -123.468 Q 239.022 -123.692 239.022 -123.902 Q 239.022 -124.084 238.952 -124.21 Q 238.882 -124.336 238.686 -124.336 Q 238.518 -124.336 238.28 -124.315 Q 238.042 -124.294 238.042 -124.294 L 238.042 -124.686 Z " fill="black" /><path d="M 247.034 -120.381 L 247.034 -120.381 Q 247.769 -120.381 248.318 -120.062 Q 248.867 -119.744 249.166 -119.17 Q 249.465 -118.597 249.465 -117.823 Q 249.465 -116.892 249.151 -116.294 Q 248.837 -115.696 248.289 -115.407 Q 247.74 -115.118 247.034 -115.118 Q 246.319 -115.118 245.765 -115.417 Q 245.211 -115.716 244.903 -116.314 Q 244.594 -116.912 244.594 -117.813 Q 244.594 -118.578 244.898 -119.156 Q 245.202 -119.734 245.75 -120.057 Q 246.299 -120.381 247.034 -120.381 Z M 247.015 -119.93 L 247.015 -119.93 Q 246.368 -119.93 246 -119.406 Q 245.633 -118.881 245.633 -117.872 Q 245.633 -116.627 246.01 -116.113 Q 246.387 -115.598 247.064 -115.598 Q 247.495 -115.608 247.799 -115.814 Q 248.102 -116.02 248.264 -116.505 Q 248.426 -116.99 248.426 -117.823 Q 248.426 -118.823 248.083 -119.376 Q 247.74 -119.93 247.015 -119.93 Z " fill="black" /><path d="M 256.129 -115.736 L 256.129 -115.736 L 256.129 -115.363 L 254.806 -115.187 L 254.492 -115.187 L 254.492 -115.951 L 254.394 -115.951 Q 254.022 -115.618 253.639 -115.378 Q 253.257 -115.138 252.718 -115.138 Q 251.993 -115.138 251.611 -115.579 Q 251.229 -116.02 251.229 -117.108 L 251.229 -119.215 Q 251.229 -119.616 251.086 -119.709 Q 250.944 -119.803 250.494 -119.803 L 250.494 -120.155 L 251.856 -120.342 L 252.179 -120.342 L 252.179 -117.235 Q 252.179 -116.686 252.307 -116.382 Q 252.434 -116.079 252.65 -115.961 Q 252.865 -115.843 253.12 -115.843 Q 253.551 -115.843 253.84 -116.025 Q 254.129 -116.206 254.443 -116.461 L 254.443 -119.215 Q 254.443 -119.616 254.267 -119.709 Q 254.09 -119.803 253.59 -119.803 L 253.59 -120.155 L 255.051 -120.342 L 255.394 -120.342 L 255.394 -116.373 Q 255.394 -116.079 255.447 -115.941 Q 255.501 -115.804 255.639 -115.77 Q 255.776 -115.736 256.021 -115.736 Z " fill="black" /><path d="M 259.951 -116.216 L 259.951 -116.216 L 260.176 -116.03 Q 259.96 -115.736 259.784 -115.535 Q 259.608 -115.334 259.382 -115.226 Q 259.157 -115.118 258.804 -115.118 Q 258.236 -115.118 257.976 -115.442 Q 257.716 -115.765 257.716 -116.48 L 257.716 -119.773 L 257.099 -119.773 L 257.099 -120.067 Q 257.452 -120.322 257.746 -120.689 Q 258.04 -121.057 258.334 -121.743 L 258.677 -121.743 L 258.667 -120.253 L 259.911 -120.253 L 259.911 -119.773 L 258.667 -119.773 L 258.667 -116.804 Q 258.667 -116.255 258.77 -116.025 Q 258.873 -115.794 259.186 -115.794 Q 259.47 -115.794 259.617 -115.897 Q 259.764 -116 259.951 -116.216 Z " fill="black" /></g></g></g><g><g><g><path d="M 181.742 -153.417 L 181.742 -153.417 L 181.994 -153.151 Q 181.28 -152.311 180.342 -151.772 Q 179.404 -151.233 178.074 -151.233 Q 176.814 -151.233 176.058 -151.702 Q 175.302 -152.171 174.973 -152.955 Q 174.644 -153.739 174.644 -154.663 Q 174.644 -156.133 175.092 -157.274 Q 175.54 -158.415 176.317 -159.192 Q 177.094 -159.969 178.074 -160.368 Q 179.054 -160.767 180.118 -160.767 Q 180.832 -160.767 181.231 -160.641 Q 181.63 -160.515 181.854 -160.382 Q 182.078 -160.249 182.246 -160.249 Q 182.414 -160.249 182.54 -160.389 Q 182.666 -160.529 182.834 -160.753 L 183.24 -160.753 L 182.582 -157.547 L 182.12 -157.547 Q 182.176 -158.947 181.602 -159.556 Q 181.028 -160.165 179.992 -160.165 Q 179.18 -160.165 178.466 -159.794 Q 177.752 -159.423 177.199 -158.744 Q 176.646 -158.065 176.331 -157.12 Q 176.016 -156.175 176.016 -155.013 Q 176.016 -153.613 176.681 -152.878 Q 177.346 -152.143 178.732 -152.143 Q 180.342 -152.143 181.742 -153.417 Z " fill="black" /></g></g></g><g><g><g><path d="M 150.853 -200.29 L 150.853 -200.29 L 154.675 -206.03 Q 154.871 -206.31 154.99 -206.548 Q 155.109 -206.786 155.109 -206.954 Q 155.109 -207.164 154.927 -207.241 Q 154.745 -207.318 154.269 -207.318 L 154.297 -207.738 L 157.321 -207.738 L 157.293 -207.318 Q 156.915 -207.318 156.649 -207.206 Q 156.383 -207.094 156.11 -206.779 Q 155.837 -206.464 155.403 -205.82 L 150.265 -198.47 L 149.803 -198.47 L 149.019 -206.044 Q 148.935 -206.744 148.711 -207.031 Q 148.487 -207.318 147.927 -207.318 L 147.955 -207.738 L 151.385 -207.738 L 151.343 -207.318 Q 150.811 -207.318 150.503 -207.108 Q 150.195 -206.898 150.223 -206.422 Q 150.223 -206.352 150.244 -206.17 Q 150.265 -205.988 150.265 -205.918 L 150.685 -201.928 L 150.783 -200.29 Z " fill="black" /><path d="M 156.218 -202.489 L 156.218 -202.489 L 159.188 -202.489 Q 159.972 -202.489 160.687 -202.318 Q 161.402 -202.146 161.966 -201.754 Q 162.529 -201.362 162.858 -200.706 Q 163.186 -200.049 163.186 -199.069 Q 163.186 -198.148 162.887 -197.486 Q 162.588 -196.825 162.049 -196.408 Q 161.51 -195.992 160.795 -195.796 Q 160.079 -195.6 159.246 -195.6 L 156.218 -195.6 L 156.218 -195.972 Q 156.679 -195.972 156.894 -196.041 Q 157.11 -196.11 157.174 -196.32 Q 157.237 -196.531 157.237 -196.962 L 157.237 -201.215 Q 157.237 -201.617 157.144 -201.808 Q 157.051 -201.999 156.831 -202.058 Q 156.61 -202.117 156.218 -202.117 Z M 158.286 -201.999 L 158.286 -201.999 L 158.286 -196.07 Q 158.443 -196.061 158.595 -196.056 Q 158.747 -196.051 158.894 -196.051 Q 159.864 -196.051 160.545 -196.306 Q 161.226 -196.56 161.584 -197.197 Q 161.941 -197.834 161.941 -198.981 Q 161.941 -200.451 161.192 -201.23 Q 160.442 -202.009 158.815 -202.009 Q 158.678 -202.009 158.551 -202.009 Q 158.423 -202.009 158.286 -201.999 Z " fill="black" /><path d="M 164.372 -202.489 L 164.372 -202.489 L 167.341 -202.489 Q 168.125 -202.489 168.841 -202.318 Q 169.556 -202.146 170.119 -201.754 Q 170.683 -201.362 171.011 -200.706 Q 171.34 -200.049 171.34 -199.069 Q 171.34 -198.148 171.041 -197.486 Q 170.742 -196.825 170.203 -196.408 Q 169.664 -195.992 168.948 -195.796 Q 168.233 -195.6 167.4 -195.6 L 164.372 -195.6 L 164.372 -195.972 Q 164.832 -195.972 165.048 -196.041 Q 165.264 -196.11 165.327 -196.32 Q 165.391 -196.531 165.391 -196.962 L 165.391 -201.215 Q 165.391 -201.617 165.298 -201.808 Q 165.205 -201.999 164.984 -202.058 Q 164.764 -202.117 164.372 -202.117 Z M 166.44 -201.999 L 166.44 -201.999 L 166.44 -196.07 Q 166.596 -196.061 166.748 -196.056 Q 166.9 -196.051 167.047 -196.051 Q 168.017 -196.051 168.698 -196.306 Q 169.38 -196.56 169.737 -197.197 Q 170.095 -197.834 170.095 -198.981 Q 170.095 -200.451 169.345 -201.23 Q 168.596 -202.009 166.969 -202.009 Q 166.832 -202.009 166.704 -202.009 Q 166.577 -202.009 166.44 -201.999 Z " fill="black" /></g></g></g><circle cx="90.0" cy="-72.0" r="2.6999999999999997" style="stroke:black;fill:white;stroke-width:2.0;stroke-dasharray:-;" /><g><g><g><path d="M 86.829 -87.904 L 86.829 -87.904 L 87.137 -87.904 L 86.479 -85.216 Q 86.381 -84.852 86.276 -84.341 Q 86.171 -83.83 86.171 -83.354 Q 86.171 -82.808 86.395 -82.409 Q 86.619 -82.01 87.263 -82.01 Q 87.977 -82.01 88.495 -82.353 Q 89.013 -82.696 89.342 -83.228 Q 89.671 -83.76 89.832 -84.348 Q 89.993 -84.936 89.993 -85.426 Q 89.993 -85.79 89.867 -86.056 Q 89.741 -86.322 89.566 -86.532 Q 89.391 -86.742 89.265 -86.938 Q 89.139 -87.134 89.139 -87.358 Q 89.139 -87.638 89.293 -87.792 Q 89.447 -87.946 89.671 -87.946 Q 90.147 -87.946 90.441 -87.47 Q 90.735 -86.994 90.735 -86.252 Q 90.735 -85.608 90.574 -84.901 Q 90.413 -84.194 90.091 -83.522 Q 89.769 -82.85 89.293 -82.304 Q 88.817 -81.758 88.201 -81.436 Q 87.585 -81.114 86.829 -81.114 Q 86.129 -81.114 85.737 -81.394 Q 85.345 -81.674 85.184 -82.136 Q 85.023 -82.598 85.023 -83.13 Q 85.023 -83.634 85.121 -84.166 Q 85.219 -84.698 85.331 -85.132 L 85.611 -86.196 Q 85.639 -86.308 85.695 -86.532 Q 85.751 -86.756 85.751 -86.966 Q 85.751 -87.148 85.681 -87.274 Q 85.611 -87.4 85.415 -87.4 Q 85.247 -87.4 85.009 -87.379 Q 84.771 -87.358 84.771 -87.358 L 84.771 -87.75 Z " fill="black" /><path d="M 96.38 -78.3 L 96.38 -78.3 L 94.087 -78.3 L 94.087 -78.663 Q 94.371 -78.663 94.479 -78.707 Q 94.586 -78.751 94.586 -78.859 Q 94.586 -78.927 94.508 -79.064 L 93.871 -79.986 L 93.616 -80.407 L 93.557 -80.407 L 92.705 -79.241 Q 92.617 -79.094 92.533 -78.981 Q 92.45 -78.868 92.45 -78.819 Q 92.45 -78.663 92.96 -78.663 L 92.96 -78.3 L 91.088 -78.3 L 91.088 -78.663 Q 91.372 -78.663 91.568 -78.775 Q 91.764 -78.888 92.009 -79.182 L 93.293 -80.789 L 92.166 -82.338 Q 91.97 -82.602 91.852 -82.734 Q 91.735 -82.867 91.602 -82.911 Q 91.47 -82.955 91.245 -82.955 L 91.245 -83.318 L 93.597 -83.318 L 93.597 -82.965 Q 93.087 -82.965 93.087 -82.73 Q 93.087 -82.632 93.205 -82.436 L 93.597 -81.838 L 93.881 -81.338 L 93.949 -81.338 L 94.43 -81.985 Q 94.645 -82.279 94.733 -82.445 Q 94.822 -82.612 94.822 -82.71 Q 94.822 -82.818 94.733 -82.891 Q 94.645 -82.965 94.381 -82.965 L 94.381 -83.318 L 96.184 -83.318 L 96.184 -82.955 Q 95.909 -82.955 95.713 -82.813 Q 95.517 -82.671 95.321 -82.445 L 94.194 -81.034 L 95.508 -79.26 Q 95.733 -78.937 95.914 -78.8 Q 96.096 -78.663 96.38 -78.663 Z " fill="black" /></g></g></g></svg>