<svg xmlns="http://www.w3.org/2000/svg" xmlns:xlink="http://www.w3.org/1999/xlink" xml:lang="en" height="480.8315999999999pt" width="189.8244pt" viewBox="-26.224399999999996 -237.19159999999997 189.8244 480.8315999999999"><path d="M 0.0,-0.0 L 18.0,-0.0 L 36.0,-0.0" style="stroke:black;fill:none;stroke-width:2.0;stroke-dasharray:-;stroke-linecap:round;stroke-linejoin:round;" /><path d="M 36.0,-0.0 L 36.0,-27.0 L 36.0,-54.0" style="stroke:black;fill:none;stroke-width:2.0;stroke-dasharray:-;stroke-linecap:round;stroke-linejoin:round;" /><path d="M 36.0,-54.0 L 36.0,-108.0 L 36.00000000000001,-162.0" style="stroke:black;fill:none;stroke-width:2.0;stroke-dasharray:-;stroke-linecap:round;stroke-linejoin:round;" /><path d="M 36.00000000000001,-162.0 L 54.00000000000001,-162.0 L 72.0,-162.0" style="stroke:black;fill:none;stroke-width:2.0;stroke-dasharray:-;stroke-linecap:round;stroke-linejoin:round;" /><path d="M 72.0,-162.0 L 87.0,-162.0 L 87.0,-177.0 L 117.0,-176.99999999999997 L 117.0,-162.0 L 132.0,-162.0" style="stroke:black;fill:none;stroke-width:2.0;stroke-dasharray:-;stroke-linecap:round;stroke-linejoin:round;" /><path d="M 87.0,-171.0 L 87.0,-177.0" style="stroke:black;fill:none;stroke-width:2.0;stroke-dasharray:-;stroke-linecap:round;stroke-linejoin:round;" /><path d="M 87.0 -164.0 L 82.5 -171.0 L 91.5 -171.0 Z" style="stroke:black;fill:black;stroke-linecap:butt;stroke-linejoin:miter;" /><path d="M 90.0,-180.0 L 114.0,-180.0" style="stroke:black;fill:none;stroke-width:2.0;stroke-dasharray:-;stroke-linecap:round;stroke-linejoin:round;" /><path d="M 102.0,-194.99999999999997 L 102.0,-180.0" style="stroke:black;fill:none;stroke-width:2.0;stroke-dasharray:-;stroke-linecap:round;stroke-linejoin:round;" /><path d="M 132.0,-162.0 L 141.0,-162.0 L 149.99999999999997,-162.0" style="stroke:black;fill:none;stroke-width:2.0;stroke-dasharray:-;stroke-linecap:round;stroke-linejoin:round;" /><path d="M 149.99999999999997,-162.0 L 149.99999999999997,-138.24 M 158.99999999999997,-138.24 L 140.99999999999997,-138.24 M 158.99999999999997,-131.76 L 140.99999999999997,-131.76 M 149.99999999999997,-131.76 L 149.99999999999997,-108.0" style="stroke:black;fill:none;stroke-width:2.0;stroke-dasharray:-;stroke-linecap:round;stroke-linejoin:round;" /><path d="M 149.99999999999997,-108.0 L 149.99999999999997,-93.60000000000001 L 140.99999999999997,-93.60000000000001 L 158.99999999999997,-93.60000000000001 M 143.7,-89.28 L 156.29999999999998,-89.28 M 148.2,-84.96 L 151.79999999999998,-84.96" style="stroke:black;fill:none;stroke-width:2.0;stroke-dasharray:-;stroke-linecap:round;stroke-linejoin:round;" /><path d="M 102.0,-194.99999999999997 L 102.0,-203.99999999999997 L 102.0,-212.99999999999997" style="stroke:black;fill:none;stroke-width:2.0;stroke-dasharray:-;stroke-linecap:round;stroke-linejoin:round;" /><path d="M 36.0,-54.0 L 54.0,-54.0 L 72.0,-54.0" style="stroke:black;fill:none;stroke-width:2.0;stroke-dasharray:-;stroke-linecap:round;stroke-linejoin:round;" /><path d="M 72.0,-54.0 L 87.0,-54.0 L 87.0,-69.0 L 117.0,-69.0 L 117.0,-53.99999999999999 L 132.0,-53.99999999999999" style="stroke:black;fill:none;stroke-width:2.0;stroke-dasharray:-;stroke-linecap:round;stroke-linejoin:round;" /><path d="M 87.0,-63.0 L 87.0,-69.0" style="stroke:black;fill:none;stroke-width:2.0;stroke-dasharray:-;stroke-linecap:round;stroke-linejoin:round;" /><path d="M 87.0 -56.0 L 82.5 -63.0 L 91.5 -63.0 Z" style="stroke:black;fill:black;stroke-linecap:butt;stroke-linejoin:miter;" /><path d="M 90.0,-71.99999999999999 L 114.0,-71.99999999999999" style="stroke:black;fill:none;stroke-width:2.0;stroke-dasharray:-;stroke-linecap:round;stroke-linejoin:round;" /><path d="M 102.0,-87.0 L 102.0,-71.99999999999999" style="stroke:black;fill:none;stroke-width:2.0;stroke-dasharray:-;stroke-linecap:round;stroke-linejoin:round;" /><path d="M 132.0,-53.99999999999999 L 141.0,-53.99999999999999 L 149.99999999999997,-53.99999999999999" style="stroke:black;fill:none;stroke-width:2.0;stroke-dasharray:-;stroke-linecap:round;stroke-linejoin:round;" /><path d="M 149.99999999999997,-53.99999999999999 L 149.99999999999997,-30.23999999999999 M 158.99999999999997,-30.23999999999999 L 140.99999999999997,-30.23999999999999 M 158.99999999999997,-23.75999999999999 L 140.99999999999997,-23.75999999999999 M 149.99999999999997,-23.75999999999999 L 149.99999999999997,7.993605777301127e-15" style="stroke:black;fill:none;stroke-width:2.0;stroke-dasharray:-;stroke-linecap:round;stroke-linejoin:round;" /><path d="M 149.99999999999997,7.993605777301127e-15 L 149.99999999999997,14.40000000000001 L 140.99999999999997,14.40000000000001 L 158.99999999999997,14.40000000000001 M 143.7,18.72000000000001 L 156.29999999999998,18.72000000000001 M 148.2,23.04000000000001 L 151.79999999999998,23.04000000000001" style="stroke:black;fill:none;stroke-width:2.0;stroke-dasharray:-;stroke-linecap:round;stroke-linejoin:round;" /><path d="M 102.0,-87.0 L 102.0,-96.0 L 102.0,-105.0" style="stroke:black;fill:none;stroke-width:2.0;stroke-dasharray:-;stroke-linecap:round;stroke-linejoin:round;" /><path d="M 36.0,-0.0 L 35.99999999999999,27.0 L 35.99999999999999,54.0" style="stroke:black;fill:none;stroke-width:2.0;stroke-dasharray:-;stroke-linecap:round;stroke-linejoin:round;" /><path d="M 35.99999999999999,54.0 L 35.999999999999986,108.0 L 35.99999999999997,162.0" style="stroke:black;fill:none;stroke-width:2.0;stroke-dasharray:-;stroke-linecap:round;stroke-linejoin:round;" /><path d="M 35.99999999999997,162.0 L 53.99999999999997,162.0 L 71.99999999999997,162.0" style="stroke:black;fill:none;stroke-width:2.0;stroke-dasharray:-;stroke-linecap:round;stroke-linejoin:round;" /><path d="M 71.99999999999997,162.0 L 86.99999999999996,162.0 L 86.99999999999996,147.0 L 116.99999999999997,147.00000000000003 L 116.99999999999997,162.0 L 131.99999999999997,162.0" style="stroke:black;fill:none;stroke-width:2.0;stroke-dasharray:-;stroke-linecap:round;stroke-linejoin:round;" /><path d="M 86.99999999999996,153.0 L 86.99999999999996,147.0" style="stroke:black;fill:none;stroke-width:2.0;stroke-dasharray:-;stroke-linecap:round;stroke-linejoin:round;" /><path d="M 86.99999999999996 160.0 L 82.49999999999996 153.0 L 91.49999999999996 153.0 Z" style="stroke:black;fill:black;stroke-linecap:butt;stroke-linejoin:miter;" /><path d="M 89.99999999999997,144.0 L 113.99999999999996,144.0" style="stroke:black;fill:none;stroke-width:2.0;stroke-dasharray:-;stroke-linecap:round;stroke-linejoin:round;" /><path d="M 101.99999999999997,129.0 L 101.99999999999997,144.0" style="stroke:black;fill:none;stroke-width:2.0;stroke-dasharray:-;stroke-linecap:round;stroke-linejoin:round;" /><path d="M 131.99999999999997,162.0 L 140.99999999999997,162.0 L 149.99999999999997,162.0" style="stroke:black;fill:none;stroke-width:2.0;stroke-dasharray:-;stroke-linecap:round;stroke-linejoin:round;" /><path d="M 149.99999999999997,162.0 L 149.99999999999997,185.76 M 158.99999999999997,185.76 L 140.99999999999997,185.76 M 158.99999999999997,192.24 L 140.99999999999997,192.24 M 149.99999999999997,192.24 L 149.99999999999997,216.0" style="stroke:black;fill:none;stroke-width:2.0;stroke-dasharray:-;stroke-linecap:round;stroke-linejoin:round;" /><path d="M 149.99999999999997,216.0 L 149.99999999999997,230.4 L 140.99999999999997,230.4 L 158.99999999999997,230.4 M 143.7,234.71999999999997 L 156.29999999999998,234.71999999999997 M 148.2,239.04 L 151.79999999999998,239.04" style="stroke:black;fill:none;stroke-width:2.0;stroke-dasharray:-;stroke-linecap:round;stroke-linejoin:round;" /><path d="M 101.99999999999997,129.0 L 101.99999999999997,120.0 L 101.99999999999997,111.0" style="stroke:black;fill:none;stroke-width:2.0;stroke-dasharray:-;stroke-linecap:round;stroke-linejoin:round;" /><path d="M 35.99999999999999,54.0 L 53.99999999999999,54.0 L 71.99999999999999,54.0" style="stroke:black;fill:none;stroke-width:2.0;stroke-dasharray:-;stroke-linecap:round;stroke-linejoin:round;" /><path d="M 71.99999999999999,54.0 L 86.99999999999997,54.0 L 87.0,39.00000000000001 L 117.0,39.00000000000001 L 117.0,54.00000000000001 L 131.99999999999997,54.00000000000001" style="stroke:black;fill:none;stroke-width:2.0;stroke-dasharray:-;stroke-linecap:round;stroke-linejoin:round;" /><path d="M 87.0,45.0 L 87.0,39.00000000000001" style="stroke:black;fill:none;stroke-width:2.0;stroke-dasharray:-;stroke-linecap:round;stroke-linejoin:round;" /><path d="M 86.99999999999997 52.0 L 82.49999999999997 44.99999999999999 L 91.49999999999997 45.00000000000001 Z" style="stroke:black;fill:black;stroke-linecap:butt;stroke-linejoin:miter;" /><path d="M 89.99999999999999,36.00000000000001 L 113.99999999999997,36.00000000000001" style="stroke:black;fill:none;stroke-width:2.0;stroke-dasharray:-;stroke-linecap:round;stroke-linejoin:round;" /><path d="M 101.99999999999999,21.00000000000001 L 101.99999999999999,36.00000000000001" style="stroke:black;fill:none;stroke-width:2.0;stroke-dasharray:-;stroke-linecap:round;stroke-linejoin:round;" /><path d="M 131.99999999999997,54.00000000000001 L 140.99999999999997,54.00000000000001 L 149.99999999999997,54.00000000000001" style="stroke:black;fill:none;stroke-width:2.0;stroke-dasharray:-;stroke-linecap:round;stroke-linejoin:round;" /><path d="M 149.99999999999997,54.00000000000001 L 149.99999999999997,77.76 M 158.99999999999997,77.76 L 140.99999999999997,77.76 M 158.99999999999997,84.24000000000001 L 140.99999999999997,84.24000000000001 M 149.99999999999997,84.24000000000001 L 149.99999999999997,108.0" style="stroke:black;fill:none;stroke-width:2.0;stroke-dasharray:-;stroke-linecap:round;stroke-linejoin:round;" /><path d="M 149.99999999999997,108.0 L 149.99999999999997,122.39999999999999 L 140.99999999999997,122.39999999999999 L 158.99999999999997,122.39999999999999 M 143.7,126.72 L 156.29999999999998,126.72 M 148.2,131.04 L 151.79999999999998,131.04" style="stroke:black;fill:none;stroke-width:2.0;stroke-dasharray:-;stroke-linecap:round;stroke-linejoin:round;" /><path d="M 101.99999999999999,21.00000000000001 L 101.99999999999999,12.000000000000009 L 101.99999999999999,3.0000000000000093" style="stroke:black;fill:none;stroke-width:2.0;stroke-dasharray:-;stroke-linecap:round;stroke-linejoin:round;" /><circle cx="36.0" cy="-0.0" r="2.6999999999999997" style="stroke:black;fill:black;stroke-width:2.0;stroke-dasharray:-;" /><circle cx="0.0" cy="-0.0" r="2.6999999999999997" style="stroke:black;fill:white;stroke-width:2.0;stroke-dasharray:-;" /><g><g><g><path d="M -17.448 0.525 L -17.448 0.525 L -18.26 3.129 L -25.316 3.129 L -25.246 2.723 L -18.162 -5.425 L -18.162 -5.481 L -20.724 -5.481 Q -21.438 -5.481 -21.872 -5.376 Q -22.306 -5.271 -22.6 -4.907 Q -22.894 -4.543 -23.202 -3.759 L -23.65 -3.759 L -23.132 -6.069 L -16.328 -6.069 L -16.412 -5.677 L -23.468 2.485 L -23.468 2.555 L -20.598 2.555 Q -19.8 2.555 -19.345 2.373 Q -18.89 2.191 -18.575 1.743 Q -18.26 1.295 -17.868 0.525 Z " fill="black" /><path d="M -13.339 5.706 L -13.339 5.706 L -13.339 6.069 L -15.828 6.069 L -15.828 5.706 Q -15.485 5.706 -15.333 5.633 Q -15.182 5.559 -15.142 5.398 Q -15.103 5.236 -15.103 4.971 L -15.103 2.012 Q -15.103 1.679 -15.211 1.61 Q -15.319 1.541 -15.574 1.541 Q -15.701 1.541 -15.779 1.551 Q -15.858 1.561 -15.858 1.561 L -15.858 1.169 L -14.545 0.953 L -14.143 0.953 L -14.143 4.971 Q -14.143 5.256 -14.099 5.417 Q -14.055 5.579 -13.883 5.643 Q -13.712 5.706 -13.339 5.706 Z M -14.633 -1.212 L -14.633 -1.212 Q -14.349 -1.212 -14.157 -1.016 Q -13.966 -0.82 -13.966 -0.566 Q -13.966 -0.33 -14.157 -0.134 Q -14.349 0.062 -14.633 0.062 Q -14.907 0.062 -15.088 -0.134 Q -15.27 -0.33 -15.27 -0.566 Q -15.27 -0.82 -15.088 -1.016 Q -14.907 -1.212 -14.633 -1.212 Z " fill="black" /><path d="M -7.518 2.786 L -7.518 2.786 L -7.518 4.981 Q -7.518 5.256 -7.469 5.417 Q -7.42 5.579 -7.253 5.648 Q -7.087 5.716 -6.734 5.716 L -6.734 6.069 L -9.253 6.069 L -9.253 5.716 Q -8.88 5.716 -8.714 5.648 Q -8.547 5.579 -8.508 5.417 Q -8.469 5.256 -8.469 4.981 L -8.469 3.109 Q -8.469 2.453 -8.62 2.144 Q -8.772 1.835 -9.003 1.737 Q -9.233 1.639 -9.468 1.639 Q -9.89 1.639 -10.208 1.855 Q -10.527 2.071 -10.762 2.267 L -10.762 4.981 Q -10.762 5.256 -10.718 5.417 Q -10.674 5.579 -10.507 5.648 Q -10.34 5.716 -9.978 5.716 L -9.978 6.069 L -12.447 6.069 L -12.447 5.716 Q -12.104 5.716 -11.952 5.648 Q -11.801 5.579 -11.761 5.417 Q -11.722 5.256 -11.722 4.981 L -11.722 2.002 Q -11.722 1.728 -11.825 1.635 Q -11.928 1.541 -12.153 1.541 Q -12.271 1.541 -12.349 1.551 Q -12.428 1.561 -12.428 1.561 L -12.428 1.189 L -11.115 0.953 L -10.791 0.953 L -10.791 1.757 L -10.723 1.757 Q -10.301 1.375 -9.914 1.149 Q -9.527 0.924 -9.037 0.924 Q -8.459 0.924 -8.13 1.184 Q -7.802 1.443 -7.66 1.865 Q -7.518 2.286 -7.518 2.786 Z " fill="black" /></g></g></g><circle cx="36.0" cy="-54.0" r="2.6999999999999997" style="stroke:black;fill:black;stroke-width:2.0;stroke-dasharray:-;" /><g><g><g><path d="M 136.742 -132.417 L 136.742 -132.417 L 136.994 -132.151 Q 136.28 -131.311 135.342 -130.772 Q 134.404 -130.233 133.074 -130.233 Q 131.814 -130.233 131.058 -130.702 Q 130.302 -131.171 129.973 -131.955 Q 129.644 -132.739 129.644 -133.663 Q 129.644 -135.133 130.092 -136.274 Q 130.54 -137.415 131.317 -138.192 Q 132.094 -138.969 133.074 -139.368 Q 134.054 -139.767 135.118 -139.767 Q 135.832 -139.767 136.231 -139.641 Q 136.63 -139.515 136.854 -139.382 Q 137.078 -139.249 137.246 -139.249 Q 137.414 -139.249 137.54 -139.389 Q 137.666 -139.529 137.834 -139.753 L 138.24 -139.753 L 137.582 -136.547 L 137.12 -136.547 Q 137.176 -137.947 136.602 -138.556 Q 136.028 -139.165 134.992 -139.165 Q 134.18 -139.165 133.466 -138.794 Q 132.752 -138.423 132.199 -137.744 Q 131.646 -137.065 131.331 -136.12 Q 131.016 -135.175 131.016 -134.013 Q 131.016 -132.613 131.681 -131.878 Q 132.346 -131.143 133.732 -131.143 Q 135.342 -131.143 136.742 -132.417 Z " fill="black" /></g></g></g><circle cx="102.0" cy="-212.99999999999997" r="2.6999999999999997" style="stroke:black;fill:white;stroke-width:2.0;stroke-dasharray:-;" /><g><g><g><path d="M 98.213 -226.371 L 98.213 -226.371 L 97.793 -223.641 L 90.849 -223.641 L 90.849 -224.061 Q 91.409 -224.061 91.682 -224.159 Q 91.955 -224.257 92.039 -224.537 Q 92.123 -224.817 92.123 -225.363 L 92.123 -231.061 Q 92.123 -231.607 92.039 -231.901 Q 91.955 -232.195 91.682 -232.307 Q 91.409 -232.419 90.849 -232.419 L 90.849 -232.839 L 94.783 -232.839 L 94.783 -232.419 Q 94.223 -232.419 93.922 -232.3 Q 93.621 -232.181 93.516 -231.887 Q 93.411 -231.593 93.411 -231.047 L 93.411 -224.971 Q 93.411 -224.509 93.635 -224.369 Q 93.859 -224.229 94.475 -224.229 L 95.119 -224.229 Q 95.819 -224.229 96.253 -224.334 Q 96.687 -224.439 96.946 -224.691 Q 97.205 -224.943 97.38 -225.356 Q 97.555 -225.769 97.765 -226.371 Z " fill="black" /><path d="M 107.943 -228.373 L 107.943 -228.373 Q 107.943 -226.903 107.404 -225.804 Q 106.865 -224.705 105.871 -224.089 Q 104.877 -223.473 103.491 -223.473 Q 102.105 -223.473 101.104 -224.047 Q 100.103 -224.621 99.564 -225.692 Q 99.025 -226.763 99.025 -228.247 Q 99.025 -229.675 99.564 -230.746 Q 100.103 -231.817 101.104 -232.412 Q 102.105 -233.007 103.491 -233.007 Q 104.891 -233.007 105.885 -232.426 Q 106.879 -231.845 107.411 -230.802 Q 107.943 -229.759 107.943 -228.373 Z M 106.473 -228.331 L 106.473 -228.331 Q 106.473 -229.591 106.095 -230.508 Q 105.717 -231.425 105.038 -231.922 Q 104.359 -232.419 103.449 -232.419 Q 102.091 -232.419 101.293 -231.334 Q 100.495 -230.249 100.495 -228.331 Q 100.495 -226.357 101.244 -225.209 Q 101.993 -224.061 103.505 -224.061 Q 105.003 -224.061 105.738 -225.139 Q 106.473 -226.217 106.473 -228.331 Z " fill="black" /><path d="M 113.857 -222.671 L 113.857 -222.671 Q 113.857 -222.024 113.719 -221.417 Q 113.582 -220.809 113.293 -220.334 Q 113.004 -219.859 112.553 -219.579 Q 112.102 -219.3 111.485 -219.3 Q 110.858 -219.3 110.407 -219.569 Q 109.956 -219.839 109.672 -220.309 Q 109.388 -220.78 109.255 -221.392 Q 109.123 -222.005 109.123 -222.691 Q 109.123 -223.71 109.417 -224.445 Q 109.711 -225.18 110.245 -225.582 Q 110.779 -225.984 111.505 -225.984 Q 112.181 -225.984 112.715 -225.596 Q 113.249 -225.209 113.553 -224.469 Q 113.857 -223.73 113.857 -222.671 Z M 112.808 -222.603 L 112.808 -222.603 Q 112.808 -224.141 112.475 -224.861 Q 112.142 -225.582 111.485 -225.582 Q 110.838 -225.582 110.5 -224.861 Q 110.162 -224.141 110.162 -222.642 Q 110.162 -221.162 110.51 -220.442 Q 110.858 -219.721 111.485 -219.721 Q 112.122 -219.721 112.465 -220.447 Q 112.808 -221.172 112.808 -222.603 Z " fill="black" /></g></g></g><g><g><g><path d="M 136.742 -24.417 L 136.742 -24.417 L 136.994 -24.151 Q 136.28 -23.311 135.342 -22.772 Q 134.404 -22.233 133.074 -22.233 Q 131.814 -22.233 131.058 -22.702 Q 130.302 -23.171 129.973 -23.955 Q 129.644 -24.739 129.644 -25.663 Q 129.644 -27.133 130.092 -28.274 Q 130.54 -29.415 131.317 -30.192 Q 132.094 -30.969 133.074 -31.368 Q 134.054 -31.767 135.118 -31.767 Q 135.832 -31.767 136.231 -31.641 Q 136.63 -31.515 136.854 -31.382 Q 137.078 -31.249 137.246 -31.249 Q 137.414 -31.249 137.54 -31.389 Q 137.666 -31.529 137.834 -31.753 L 138.24 -31.753 L 137.582 -28.547 L 137.12 -28.547 Q 137.176 -29.947 136.602 -30.556 Q 136.028 -31.165 134.992 -31.165 Q 134.18 -31.165 133.466 -30.794 Q 132.752 -30.423 132.199 -29.744 Q 131.646 -29.065 131.331 -28.12 Q 131.016 -27.175 131.016 -26.013 Q 131.016 -24.613 131.681 -23.878 Q 132.346 -23.143 133.732 -23.143 Q 135.342 -23.143 136.742 -24.417 Z " fill="black" /></g></g></g><circle cx="102.0" cy="-105.0" r="2.6999999999999997" style="stroke:black;fill:white;stroke-width:2.0;stroke-dasharray:-;" /><g><g><g><path d="M 95.547 -118.423 L 95.547 -118.423 L 95.127 -115.693 L 88.183 -115.693 L 88.183 -116.113 Q 88.743 -116.113 89.016 -116.211 Q 89.289 -116.309 89.373 -116.589 Q 89.457 -116.869 89.457 -117.415 L 89.457 -123.113 Q 89.457 -123.659 89.373 -123.953 Q 89.289 -124.247 89.016 -124.359 Q 88.743 -124.471 88.183 -124.471 L 88.183 -124.891 L 92.117 -124.891 L 92.117 -124.471 Q 91.557 -124.471 91.256 -124.352 Q 90.955 -124.233 90.85 -123.939 Q 90.745 -123.645 90.745 -123.099 L 90.745 -117.023 Q 90.745 -116.561 90.969 -116.421 Q 91.193 -116.281 91.809 -116.281 L 92.453 -116.281 Q 93.153 -116.281 93.587 -116.386 Q 94.021 -116.491 94.28 -116.743 Q 94.539 -116.995 94.714 -117.408 Q 94.889 -117.821 95.099 -118.423 Z " fill="black" /><path d="M 105.277 -120.425 L 105.277 -120.425 Q 105.277 -118.955 104.738 -117.856 Q 104.199 -116.757 103.205 -116.141 Q 102.211 -115.525 100.825 -115.525 Q 99.439 -115.525 98.438 -116.099 Q 97.437 -116.673 96.898 -117.744 Q 96.359 -118.815 96.359 -120.299 Q 96.359 -121.727 96.898 -122.798 Q 97.437 -123.869 98.438 -124.464 Q 99.439 -125.059 100.825 -125.059 Q 102.225 -125.059 103.219 -124.478 Q 104.213 -123.897 104.745 -122.854 Q 105.277 -121.811 105.277 -120.425 Z M 103.807 -120.383 L 103.807 -120.383 Q 103.807 -121.643 103.429 -122.56 Q 103.051 -123.477 102.372 -123.974 Q 101.693 -124.471 100.783 -124.471 Q 99.425 -124.471 98.627 -123.386 Q 97.829 -122.301 97.829 -120.383 Q 97.829 -118.409 98.578 -117.261 Q 99.327 -116.113 100.839 -116.113 Q 102.337 -116.113 103.072 -117.191 Q 103.807 -118.269 103.807 -120.383 Z " fill="black" /><path d="M 106.869 -111.3 L 106.869 -111.3 L 106.859 -111.614 Q 107.594 -111.702 108.212 -112.02 Q 108.829 -112.339 109.241 -112.897 Q 109.652 -113.456 109.77 -114.26 L 109.692 -114.269 Q 109.329 -113.946 109.02 -113.779 Q 108.712 -113.613 108.329 -113.613 Q 107.477 -113.613 106.953 -114.196 Q 106.428 -114.779 106.428 -115.818 Q 106.428 -116.866 107.006 -117.445 Q 107.585 -118.023 108.565 -118.023 Q 109.329 -118.023 109.824 -117.66 Q 110.319 -117.298 110.564 -116.666 Q 110.809 -116.033 110.809 -115.21 Q 110.809 -113.858 110.304 -112.995 Q 109.799 -112.133 108.913 -111.721 Q 108.026 -111.31 106.869 -111.3 Z M 107.389 -115.886 L 107.389 -115.886 Q 107.389 -115.151 107.707 -114.72 Q 108.026 -114.289 108.643 -114.289 Q 108.957 -114.289 109.226 -114.407 Q 109.496 -114.524 109.662 -114.789 Q 109.829 -115.053 109.829 -115.494 Q 109.829 -116.465 109.535 -117.028 Q 109.241 -117.592 108.555 -117.592 Q 108.045 -117.592 107.717 -117.214 Q 107.389 -116.837 107.389 -115.886 Z " fill="black" /><path d="M 116.522 -114.681 L 116.522 -114.681 Q 116.522 -114.034 116.385 -113.427 Q 116.248 -112.819 115.959 -112.344 Q 115.67 -111.868 115.219 -111.589 Q 114.768 -111.31 114.151 -111.31 Q 113.523 -111.31 113.073 -111.579 Q 112.622 -111.849 112.338 -112.319 Q 112.053 -112.79 111.921 -113.402 Q 111.789 -114.015 111.789 -114.701 Q 111.789 -115.72 112.083 -116.455 Q 112.377 -117.19 112.911 -117.592 Q 113.445 -117.993 114.17 -117.993 Q 114.846 -117.993 115.38 -117.606 Q 115.915 -117.219 116.218 -116.479 Q 116.522 -115.739 116.522 -114.681 Z M 115.474 -114.612 L 115.474 -114.612 Q 115.474 -116.151 115.14 -116.871 Q 114.807 -117.592 114.151 -117.592 Q 113.504 -117.592 113.166 -116.871 Q 112.828 -116.151 112.828 -114.652 Q 112.828 -113.172 113.175 -112.452 Q 113.523 -111.731 114.151 -111.731 Q 114.788 -111.731 115.131 -112.456 Q 115.474 -113.182 115.474 -114.612 Z " fill="black" /></g></g></g><circle cx="35.99999999999999" cy="54.0" r="2.6999999999999997" style="stroke:black;fill:black;stroke-width:2.0;stroke-dasharray:-;" /><g><g><g><path d="M 136.742 191.583 L 136.742 191.583 L 136.994 191.849 Q 136.28 192.689 135.342 193.228 Q 134.404 193.767 133.074 193.767 Q 131.814 193.767 131.058 193.298 Q 130.302 192.829 129.973 192.045 Q 129.644 191.261 129.644 190.337 Q 129.644 188.867 130.092 187.726 Q 130.54 186.585 131.317 185.808 Q 132.094 185.031 133.074 184.632 Q 134.054 184.233 135.118 184.233 Q 135.832 184.233 136.231 184.359 Q 136.63 184.485 136.854 184.618 Q 137.078 184.751 137.246 184.751 Q 137.414 184.751 137.54 184.611 Q 137.666 184.471 137.834 184.247 L 138.24 184.247 L 137.582 187.453 L 137.12 187.453 Q 137.176 186.053 136.602 185.444 Q 136.028 184.835 134.992 184.835 Q 134.18 184.835 133.466 185.206 Q 132.752 185.577 132.199 186.256 Q 131.646 186.935 131.331 187.88 Q 131.016 188.825 131.016 189.987 Q 131.016 191.387 131.681 192.122 Q 132.346 192.857 133.732 192.857 Q 135.342 192.857 136.742 191.583 Z " fill="black" /></g></g></g><circle cx="101.99999999999997" cy="111.0" r="2.6999999999999997" style="stroke:black;fill:white;stroke-width:2.0;stroke-dasharray:-;" /><g><g><g><path d="M 93.146 97.647 L 93.146 97.647 L 92.726 100.377 L 85.782 100.377 L 85.782 99.957 Q 86.342 99.957 86.615 99.859 Q 86.888 99.761 86.972 99.481 Q 87.056 99.201 87.056 98.655 L 87.056 92.957 Q 87.056 92.411 86.972 92.117 Q 86.888 91.823 86.615 91.711 Q 86.342 91.599 85.782 91.599 L 85.782 91.179 L 89.716 91.179 L 89.716 91.599 Q 89.156 91.599 88.855 91.718 Q 88.554 91.837 88.449 92.131 Q 88.344 92.425 88.344 92.971 L 88.344 99.047 Q 88.344 99.509 88.568 99.649 Q 88.792 99.789 89.408 99.789 L 90.052 99.789 Q 90.752 99.789 91.186 99.684 Q 91.62 99.579 91.879 99.327 Q 92.138 99.075 92.313 98.662 Q 92.488 98.249 92.698 97.647 Z " fill="black" /><path d="M 102.876 95.645 L 102.876 95.645 Q 102.876 97.115 102.337 98.214 Q 101.798 99.313 100.804 99.929 Q 99.81 100.545 98.424 100.545 Q 97.038 100.545 96.037 99.971 Q 95.036 99.397 94.497 98.326 Q 93.958 97.255 93.958 95.771 Q 93.958 94.343 94.497 93.272 Q 95.036 92.201 96.037 91.606 Q 97.038 91.011 98.424 91.011 Q 99.824 91.011 100.818 91.592 Q 101.812 92.173 102.344 93.216 Q 102.876 94.259 102.876 95.645 Z M 101.406 95.687 L 101.406 95.687 Q 101.406 94.427 101.028 93.51 Q 100.65 92.593 99.971 92.096 Q 99.292 91.599 98.382 91.599 Q 97.024 91.599 96.226 92.684 Q 95.428 93.769 95.428 95.687 Q 95.428 97.661 96.177 98.809 Q 96.926 99.957 98.438 99.957 Q 99.936 99.957 100.671 98.879 Q 101.406 97.801 101.406 95.687 Z " fill="black" /><path d="M 107.81 104.563 L 107.81 104.563 L 104.488 104.563 L 104.488 104.21 Q 105.193 104.21 105.424 104.068 Q 105.654 103.926 105.654 103.553 L 105.654 99.281 Q 105.654 99.016 105.576 98.898 Q 105.497 98.781 105.291 98.781 Q 105.135 98.781 104.865 98.825 Q 104.596 98.869 104.4 98.918 L 104.4 98.526 L 106.213 98.026 L 106.634 98.026 L 106.634 103.553 Q 106.634 103.926 106.884 104.068 Q 107.134 104.21 107.81 104.21 Z " fill="black" /><path d="M 113.269 103.024 L 113.269 103.024 Q 113.269 103.847 112.671 104.274 Q 112.073 104.7 111.132 104.7 Q 110.534 104.7 110.054 104.524 Q 109.574 104.347 109.3 103.994 Q 109.025 103.642 109.025 103.112 Q 109.025 102.691 109.192 102.407 Q 109.358 102.123 109.677 101.882 Q 109.995 101.642 110.436 101.358 L 110.436 101.319 Q 109.897 100.966 109.623 100.687 Q 109.349 100.408 109.251 100.123 Q 109.153 99.839 109.153 99.486 Q 109.153 99.016 109.412 98.673 Q 109.672 98.33 110.128 98.149 Q 110.583 97.967 111.162 97.967 Q 111.681 97.967 112.097 98.149 Q 112.514 98.33 112.759 98.648 Q 113.004 98.967 113.004 99.379 Q 113.004 99.751 112.877 100.011 Q 112.749 100.27 112.465 100.491 Q 112.181 100.711 111.71 100.966 L 111.71 101.015 Q 112.308 101.358 112.646 101.657 Q 112.984 101.956 113.126 102.279 Q 113.269 102.603 113.269 103.024 Z M 110.779 101.544 L 110.779 101.544 Q 110.329 101.897 110.108 102.206 Q 109.888 102.515 109.888 103.005 Q 109.888 103.72 110.24 104.038 Q 110.593 104.357 111.171 104.357 Q 111.652 104.357 111.995 104.107 Q 112.338 103.857 112.338 103.348 Q 112.338 103.014 112.21 102.75 Q 112.083 102.485 111.745 102.201 Q 111.407 101.917 110.779 101.544 Z M 112.191 99.369 L 112.191 99.369 Q 112.191 98.849 111.911 98.604 Q 111.632 98.359 111.142 98.359 Q 110.613 98.359 110.324 98.604 Q 110.035 98.849 110.035 99.339 Q 110.035 99.624 110.162 99.844 Q 110.289 100.065 110.578 100.28 Q 110.868 100.496 111.328 100.79 Q 111.857 100.476 112.024 100.163 Q 112.191 99.849 112.191 99.369 Z " fill="black" /><path d="M 118.923 101.319 L 118.923 101.319 Q 118.923 101.966 118.786 102.573 Q 118.649 103.181 118.36 103.656 Q 118.071 104.132 117.62 104.411 Q 117.169 104.69 116.552 104.69 Q 115.924 104.69 115.474 104.421 Q 115.023 104.151 114.739 103.681 Q 114.454 103.21 114.322 102.598 Q 114.19 101.985 114.19 101.299 Q 114.19 100.28 114.484 99.545 Q 114.778 98.81 115.312 98.408 Q 115.846 98.007 116.571 98.007 Q 117.247 98.007 117.781 98.394 Q 118.316 98.781 118.619 99.521 Q 118.923 100.261 118.923 101.319 Z M 117.875 101.388 L 117.875 101.388 Q 117.875 99.849 117.541 99.129 Q 117.208 98.408 116.552 98.408 Q 115.905 98.408 115.567 99.129 Q 115.229 99.849 115.229 101.348 Q 115.229 102.828 115.576 103.548 Q 115.924 104.269 116.552 104.269 Q 117.189 104.269 117.532 103.544 Q 117.875 102.818 117.875 101.388 Z " fill="black" /></g></g></g><g><g><g><path d="M 136.742 83.583 L 136.742 83.583 L 136.994 83.849 Q 136.28 84.689 135.342 85.228 Q 134.404 85.767 133.074 85.767 Q 131.814 85.767 131.058 85.298 Q 130.302 84.829 129.973 84.045 Q 129.644 83.261 129.644 82.337 Q 129.644 80.867 130.092 79.726 Q 130.54 78.585 131.317 77.808 Q 132.094 77.031 133.074 76.632 Q 134.054 76.233 135.118 76.233 Q 135.832 76.233 136.231 76.359 Q 136.63 76.485 136.854 76.618 Q 137.078 76.751 137.246 76.751 Q 137.414 76.751 137.54 76.611 Q 137.666 76.471 137.834 76.247 L 138.24 76.247 L 137.582 79.453 L 137.12 79.453 Q 137.176 78.053 136.602 77.444 Q 136.028 76.835 134.992 76.835 Q 134.18 76.835 133.466 77.206 Q 132.752 77.577 132.199 78.256 Q 131.646 78.935 131.331 79.88 Q 131.016 80.825 131.016 81.987 Q 131.016 83.387 131.681 84.122 Q 132.346 84.857 133.732 84.857 Q 135.342 84.857 136.742 83.583 Z " fill="black" /></g></g></g><circle cx="101.99999999999999" cy="3.0000000000000093" r="2.6999999999999997" style="stroke:black;fill:white;stroke-width:2.0;stroke-dasharray:-;" /><g><g><g><path d="M 93.132 -10.399 L 93.132 -10.399 L 92.712 -7.669 L 85.768 -7.669 L 85.768 -8.089 Q 86.328 -8.089 86.601 -8.187 Q 86.874 -8.285 86.958 -8.565 Q 87.042 -8.845 87.042 -9.391 L 87.042 -15.089 Q 87.042 -15.635 86.958 -15.929 Q 86.874 -16.223 86.601 -16.335 Q 86.328 -16.447 85.768 -16.447 L 85.768 -16.867 L 89.702 -16.867 L 89.702 -16.447 Q 89.142 -16.447 88.841 -16.328 Q 88.54 -16.209 88.435 -15.915 Q 88.33 -15.621 88.33 -15.075 L 88.33 -8.999 Q 88.33 -8.537 88.554 -8.397 Q 88.778 -8.257 89.394 -8.257 L 90.038 -8.257 Q 90.738 -8.257 91.172 -8.362 Q 91.606 -8.467 91.865 -8.719 Q 92.124 -8.971 92.299 -9.384 Q 92.474 -9.797 92.684 -10.399 Z " fill="black" /><path d="M 102.862 -12.401 L 102.862 -12.401 Q 102.862 -10.931 102.323 -9.832 Q 101.784 -8.733 100.79 -8.117 Q 99.796 -7.501 98.41 -7.501 Q 97.024 -7.501 96.023 -8.075 Q 95.022 -8.649 94.483 -9.72 Q 93.944 -10.791 93.944 -12.275 Q 93.944 -13.703 94.483 -14.774 Q 95.022 -15.845 96.023 -16.44 Q 97.024 -17.035 98.41 -17.035 Q 99.81 -17.035 100.804 -16.454 Q 101.798 -15.873 102.33 -14.83 Q 102.862 -13.787 102.862 -12.401 Z M 101.392 -12.359 L 101.392 -12.359 Q 101.392 -13.619 101.014 -14.536 Q 100.636 -15.453 99.957 -15.95 Q 99.278 -16.447 98.368 -16.447 Q 97.01 -16.447 96.212 -15.362 Q 95.414 -14.277 95.414 -12.359 Q 95.414 -10.385 96.163 -9.237 Q 96.912 -8.089 98.424 -8.089 Q 99.922 -8.089 100.657 -9.167 Q 101.392 -10.245 101.392 -12.359 Z " fill="black" /><path d="M 108.354 -5.133 L 108.354 -5.133 L 108.021 -3.427 L 104.003 -3.427 L 104.003 -3.908 L 105.394 -5.319 Q 105.943 -5.868 106.301 -6.289 Q 106.658 -6.71 106.835 -7.137 Q 107.011 -7.563 107.011 -8.112 Q 107.011 -8.631 106.693 -8.969 Q 106.374 -9.307 105.796 -9.307 Q 105.267 -9.307 104.909 -9.097 Q 104.551 -8.886 104.277 -8.406 L 104.012 -8.533 Q 104.257 -9.219 104.772 -9.611 Q 105.286 -10.003 106.041 -10.003 Q 106.629 -10.003 107.08 -9.792 Q 107.531 -9.582 107.785 -9.19 Q 108.04 -8.798 108.04 -8.239 Q 108.04 -7.759 107.825 -7.338 Q 107.609 -6.916 107.212 -6.475 Q 106.815 -6.034 106.266 -5.495 L 105.041 -4.309 L 105.041 -4.241 L 105.806 -4.28 L 107.08 -4.28 Q 107.364 -4.28 107.516 -4.358 Q 107.668 -4.437 107.776 -4.628 Q 107.883 -4.819 108.011 -5.133 Z " fill="black" /><path d="M 113.391 -9.445 L 113.391 -9.445 L 111.137 -3.349 L 110.275 -3.349 L 112.578 -8.994 L 110.461 -8.994 Q 110.157 -8.994 110 -8.93 Q 109.843 -8.866 109.755 -8.7 Q 109.667 -8.533 109.549 -8.21 L 109.157 -8.229 L 109.491 -9.856 L 113.391 -9.856 Z " fill="black" /><path d="M 118.938 -6.671 L 118.938 -6.671 Q 118.938 -6.024 118.801 -5.417 Q 118.663 -4.809 118.374 -4.334 Q 118.085 -3.859 117.634 -3.579 Q 117.184 -3.3 116.566 -3.3 Q 115.939 -3.3 115.488 -3.569 Q 115.037 -3.839 114.753 -4.309 Q 114.469 -4.78 114.337 -5.392 Q 114.204 -6.005 114.204 -6.691 Q 114.204 -7.71 114.498 -8.445 Q 114.792 -9.18 115.327 -9.582 Q 115.861 -9.984 116.586 -9.984 Q 117.262 -9.984 117.796 -9.596 Q 118.33 -9.209 118.634 -8.469 Q 118.938 -7.73 118.938 -6.671 Z M 117.889 -6.603 L 117.889 -6.603 Q 117.889 -8.141 117.556 -8.861 Q 117.223 -9.582 116.566 -9.582 Q 115.919 -9.582 115.581 -8.861 Q 115.243 -8.141 115.243 -6.642 Q 115.243 -5.162 115.591 -4.442 Q 115.939 -3.721 116.566 -3.721 Q 117.203 -3.721 117.546 -4.447 Q 117.889 -5.172 117.889 -6.603 Z " fill="black" /></g></g></g></svg>