<svg xmlns="http://www.w3.org/2000/svg" xmlns:xlink="http://www.w3.org/1999/xlink" xml:lang="en" height="266.378pt" width="411.18059999999997pt" viewBox="-24.096399999999996 -208.73799999999997 411.18059999999997 266.378"><path d="M 0.0,-0.0 L 18.0,-0.0 L 36.0,-0.0" style="stroke:black;fill:none;stroke-width:2.0;stroke-dasharray:-;stroke-linecap:round;stroke-linejoin:round;" /><path d="M 36.0,-0.0 L 36.0,-18.0 L 72.0,-18.0 L 72.0,18.0 L 36.0,18.0 L 36.0,-0.0" style="stroke:black;fill:none;stroke-width:2.0;stroke-dasharray:-;stroke-linecap:round;stroke-linejoin:round;" /><path d="M 72.0,-0.0 L 144.0,-0.0 L 216.0,-0.0" style="stroke:black;fill:none;stroke-width:2.0;stroke-dasharray:-;stroke-linecap:round;stroke-linejoin:round;" /><path d="M 248.99999999999997,29.999999999999996 L 248.99999999999997,15.000000000000004 L 234.0,15.000000000000004 L 234.0,-14.999999999999998 L 248.99999999999997,-14.999999999999998 L 248.99999999999997,-29.999999999999996" style="stroke:black;fill:none;stroke-width:2.0;stroke-dasharray:-;stroke-linecap:round;stroke-linejoin:round;" /><path d="M 239.99999999999997,15.0 L 234.0,15.000000000000004" style="stroke:black;fill:none;stroke-width:2.0;stroke-dasharray:-;stroke-linecap:round;stroke-linejoin:round;" /><path d="M 246.99999999999997 15.000000000000004 L 239.99999999999997 19.500000000000004 L 239.99999999999997 10.500000000000004 Z" style="stroke:black;fill:black;stroke-linecap:butt;stroke-linejoin:miter;" /><path d="M 231.0,12.000000000000005 L 231.0,-12.0" style="stroke:black;fill:none;stroke-width:2.0;stroke-dasharray:-;stroke-linecap:round;stroke-linejoin:round;" /><path d="M 216.0,-0.0 L 231.0,-0.0" style="stroke:black;fill:none;stroke-width:2.0;stroke-dasharray:-;stroke-linecap:round;stroke-linejoin:round;" /><path d="M 248.99999999999997,29.999999999999996 L 248.99999999999997,44.400000000000006 L 239.99999999999997,44.400000000000006 L 258.0,44.400000000000006 M 242.7,48.72 L 255.29999999999998,48.72 M 247.2,53.03999999999999 L 250.79999999999998,53.03999999999999" style="stroke:black;fill:none;stroke-width:2.0;stroke-dasharray:-;stroke-linecap:round;stroke-linejoin:round;" /><path d="M 248.99999999999997,-29.999999999999996 L 248.99999999999997,-39.0 L 248.99999999999997,-48.0" style="stroke:black;fill:none;stroke-width:2.0;stroke-dasharray:-;stroke-linecap:round;stroke-linejoin:round;" /><path d="M 248.99999999999997,-48.0 L 267.0,-48.0 L 285.0,-48.0" style="stroke:black;fill:none;stroke-width:2.0;stroke-dasharray:-;stroke-linecap:round;stroke-linejoin:round;" /><path d="M 285.0,-48.0 L 285.0,-66.0 L 321.0,-66.0 L 321.0,-29.999999999999996 L 285.0,-29.999999999999996 L 285.0,-48.0" style="stroke:black;fill:none;stroke-width:2.0;stroke-dasharray:-;stroke-linecap:round;stroke-linejoin:round;" /><path d="M 321.0,-48.0 L 339.0,-48.0 L 357.0,-48.0" style="stroke:black;fill:none;stroke-width:2.0;stroke-dasharray:-;stroke-linecap:round;stroke-linejoin:round;" /><path d="M 248.99999999999997,-48.0 L 248.99999999999997,-66.0 L 248.99999999999997,-83.99999999999999" style="stroke:black;fill:none;stroke-width:2.0;stroke-dasharray:-;stroke-linecap:round;stroke-linejoin:round;" /><path d="M 248.99999999999997,-83.99999999999999 L 248.99999999999997,-92.99999999999999 L 248.99999999999997,-101.99999999999999" style="stroke:black;fill:none;stroke-width:2.0;stroke-dasharray:-;stroke-linecap:round;stroke-linejoin:round;" /><path d="M 248.99999999999997,-101.99999999999999 L 248.99999999999997,-119.99999999999999 L 247.53708821011784,-120.03316618981961 L 246.0358134389613,-120.13406964594296 L 244.52781984193305,-120.30374057288421 L 243.0448931951264,-120.54175968131737 L 241.61829090868633,-120.84626702593653 L 240.27808317716827,-121.214001209737 L 239.0525191542534,-121.64036812836228 L 237.96743151170972,-122.11953780551008 L 237.0456919334195,-122.64456727828271 L 236.30672902167228,-123.20754694228066 L 235.76611877738767,-123.7997672717497 L 235.43525628620296,-124.41190240062265 L 235.3211155306889,-125.03420669489967 L 235.42610239141752,-125.65672017297669 L 235.7480039353536,-126.26947844403375 L 236.28003506047824,-126.86272273936137 L 237.0109815134609,-127.42710560954514 L 237.92543626582577,-127.95388795178373 L 239.00412426623078,-128.4351232143613 L 240.22430872366908,-128.86382489557732 L 241.56027035787764,-129.2341138065592 L 242.98384951522274,-129.54134199392456 L 244.4650397232394,-129.78219071022744 L 245.97262017277006,-129.95474036714853 L 247.474813796123,-130.05851099694337 L 248.93995707015398,-130.09447236929375 L 250.33716742603468,-130.06502355031773 L 251.63699419791686,-129.97394233459733 L 252.81203938967332,-129.82630561610526 L 253.83753517507571,-129.62838237646727 L 254.69186595875027,-129.38750154617424 L 255.35702399381205,-129.11189752399002 L 255.81898895258132,-128.8105366107269 L 256.0680234497195,-128.49292801585034 L 256.0988782886908,-128.16892342055166 L 255.91090310532599,-127.84850932213665 L 255.50806007632215,-127.54159653673419 L 254.89884040372806,-127.25781129722758 L 254.0960853357712,-127.00629234968514 L 253.1167154965829,-126.79549832513119 L 251.98137423006222,-126.63302944691101 L 250.7139924755436,-126.52546733173652 L 249.34128434690206,-126.47823626111636 L 247.89218404737602,-126.49548884731769 L 246.39723598892328,-126.58001850381432 L 244.88795097129193,-126.73320056518583 L 243.39614199138455,-126.95496329755346 L 241.95325368285398,-127.24378941060051 L 240.58969952012944,-127.59674803930636 L 239.33422075741322,-128.00955652127737 L 238.2132806150533,-128.47667066752007 L 237.25050648274777,-128.99140162391197 L 236.46619189692683,-129.54605686014222 L 235.8768687897293,-130.13210231432964 L 235.49495902578957,-130.74034227560372 L 235.32851257181073,-131.36111321304872 L 235.3810378178338,-131.98448746544776 L 235.65142762672457,-132.60048249841583 L 236.13398267062104,-133.19927131815982 L 236.81853156245083,-133.77138960672414 L 237.69064525036418,-134.3079352126865 L 238.73194115603542,-134.80075579239963 L 239.9204706461482,-135.24262064664322 L 241.23118166986657,-135.62737313067785 L 242.6364468107313,-135.95006042517517 L 244.10664562260288,-136.20703793268626 L 245.61078897506408,-136.3960460991606 L 247.1171722482094,-136.5162580412564 L 248.5940436086589,-136.56829697554502 L 250.01027328074605,-136.55422308223356 L 251.33600970585522,-136.47749008029416 L 252.5433087592565,-136.34287242931822 L 253.606722761686,-136.15636469254815 L 254.5038368703736,-135.9250551823323 L 255.21574154336557,-135.65697655132803 L 255.72743111844952,-135.36093647871982 L 256.02812010535877,-135.04633202028097 L 256.11147052438935,-134.7229515354431 L 255.97572549954282,-134.40076836639284 L 255.6237462902926,-134.08973061806682 L 255.0629519814126,-133.7995514701019 L 254.30516310209575,-133.53950444058614 L 253.36635247058973,-133.31822791707896 L 252.26630851609343,-133.143543075034 L 251.02821817447932,-133.0222890215741 L 249.67817814964548,-132.96017863948938 L 248.24464484222324,-132.9616781700064 L 246.75783454014766,-133.0299130725054 L 245.24908651398871,-133.1666021454925 L 243.75020244184057,-133.3720212974377 L 242.2927760874971,-133.64499773112342 L 240.9075273610846,-133.9829346640878 L 239.62365479894834,-134.38186606409946 L 238.46822011134554,-134.83654024594006 L 237.46557777056506,-135.3405305674248 L 236.63686166272456,-135.88637089138993 L 235.99953962369597,-136.46571295835298 L 235.56704524873578,-137.06950235271538 L 235.34849473660722,-137.6881693534579 L 235.34849473660722,-138.31183064654203 L 235.56704524873578,-138.93049764728457 L 235.99953962369594,-139.53428704164696 L 236.63686166272453,-140.11362910861004 L 237.46557777056503,-140.65946943257515 L 238.4682201113455,-141.16345975405991 L 239.62365479894828,-141.6181339359005 L 240.90752736108453,-142.01706533591215 L 242.29277608749703,-142.35500226887655 L 243.75020244184046,-142.62797870256227 L 245.24908651398866,-142.83339785450747 L 246.75783454014763,-142.97008692749458 L 248.24464484222318,-143.03832182999358 L 249.67817814964542,-143.0398213605106 L 251.0282181744792,-142.97771097842588 L 252.2663085160934,-142.85645692496598 L 253.3663524705897,-142.68177208292104 L 254.3051631020957,-142.46049555941386 L 255.06295198141257,-142.20044852989807 L 255.62374629029256,-141.91026938193318 L 255.97572549954276,-141.59923163360713 L 256.11147052438935,-141.2770484645569 L 256.02812010535877,-140.95366797971903 L 255.72743111844952,-140.63906352128018 L 255.2157415433656,-140.34302344867197 L 254.50383687037362,-140.0749448176677 L 253.60672276168603,-139.84363530745185 L 252.54330875925655,-139.65712757068175 L 251.3360097058553,-139.5225099197058 L 250.01027328074608,-139.4457769177664 L 248.59404360865895,-139.43170302445495 L 247.11717224820953,-139.4837419587436 L 245.61078897506422,-139.60395390083937 L 244.10664562260294,-139.7929620673137 L 242.63644681073134,-140.0499395748248 L 241.23118166986666,-140.37262686932212 L 239.9204706461483,-140.75737935335673 L 238.73194115603548,-141.19924420760032 L 237.6906452503642,-141.69206478731348 L 236.81853156245086,-142.2286103932758 L 236.1339826706211,-142.80072868184013 L 235.65142762672457,-143.3995175015841 L 235.3810378178338,-144.0155125345522 L 235.32851257181073,-144.63888678695122 L 235.49495902578957,-145.25965772439625 L 235.87686878972926,-145.8678976856703 L 236.4661918969268,-146.45394313985773 L 237.2505064827477,-147.00859837608795 L 238.21328061505326,-147.52332933247988 L 239.33422075741314,-147.99044347872257 L 240.5896995201294,-148.4032519606936 L 241.9532536828539,-148.75621058939944 L 243.39614199138452,-149.0450367024465 L 244.88795097129187,-149.26679943481415 L 246.3972359889232,-149.41998149618567 L 247.89218404737593,-149.50451115268228 L 249.341284346902,-149.5217637388836 L 250.7139924755435,-149.47453266826344 L 251.98137423006216,-149.36697055308898 L 253.11671549658286,-149.2045016748688 L 254.09608533577116,-148.99370765031483 L 254.89884040372803,-148.7421887027724 L 255.50806007632212,-148.4584034632658 L 255.91090310532599,-148.15149067786336 L 256.0988782886908,-147.8310765794483 L 256.06802344971953,-147.50707198414966 L 255.81898895258135,-147.1894633892731 L 255.35702399381205,-146.88810247600998 L 254.6918659587503,-146.61249845382574 L 253.83753517507577,-146.3716176235327 L 252.81203938967337,-146.1736943838947 L 251.63699419791692,-146.02605766540267 L 250.3371674260348,-145.93497644968227 L 248.93995707015412,-145.90552763070622 L 247.47481379612304,-145.9414890030566 L 245.97262017277012,-146.04525963285147 L 244.4650397232395,-146.21780928977253 L 242.98384951522283,-146.45865800607538 L 241.56027035787773,-146.76588619344074 L 240.22430872366914,-147.13617510442262 L 239.00412426623086,-147.56487678563866 L 237.92543626582577,-148.04611204821623 L 237.01098151346093,-148.57289439045482 L 236.28003506047827,-149.13727726063857 L 235.74800393535364,-149.7305215559662 L 235.42610239141754,-150.34327982702325 L 235.3211155306889,-150.96579330510028 L 235.43525628620293,-151.58809759937728 L 235.76611877738765,-152.20023272825023 L 236.30672902167225,-152.79245305771929 L 237.04569193341948,-153.35543272171725 L 237.96743151170966,-153.88046219448987 L 239.05251915425336,-154.3596318716377 L 240.27808317716824,-154.78599879026297 L 241.61829090868625,-155.15373297406342 L 243.04489319512632,-155.4582403186826 L 244.52781984193302,-155.69625942711576 L 246.0358134389612,-155.86593035405704 L 247.53708821011773,-155.96683381018033 L 248.9999999999999,-156.0 L 248.9999999999999,-174.0" style="stroke:black;fill:none;stroke-width:2.0;stroke-dasharray:-;stroke-linecap:round;stroke-linejoin:round;" /><path d="M 248.9999999999999,-174.0 L 248.9999999999999,-188.4" style="stroke:black;fill:none;stroke-width:2.0;stroke-dasharray:-;stroke-linecap:round;stroke-linejoin:round;" /><path d="M 248.9999999999999,-188.4 L 242.2499999999999,-188.4" style="stroke:black;fill:none;stroke-width:2.0;stroke-dasharray:-;stroke-linecap:round;stroke-linejoin:round;" /><path d="M 248.9999999999999,-188.4 L 255.7499999999999,-188.4" style="stroke:black;fill:none;stroke-width:2.0;stroke-dasharray:-;stroke-linecap:round;stroke-linejoin:round;" /><path d="M 248.99999999999997,-48.0 L 216.23999999999998,-48.00000000000001 M 216.23999999999998,-39.00000000000001 L 216.23999999999998,-57.00000000000001 M 209.76,-39.00000000000001 L 209.76,-57.00000000000001 M 209.76,-48.00000000000001 L 176.99999999999997,-48.00000000000001" style="stroke:blue;fill:none;stroke-width:2.0;stroke-dasharray:-;stroke-linecap:round;stroke-linejoin:round;" /><path d="M 176.99999999999997,-48.00000000000001 L 176.99999999999997,-24.000000000000004 L 176.99999999999997,-0.0" style="stroke:blue;fill:none;stroke-width:2.0;stroke-dasharray:-;stroke-linecap:round;stroke-linejoin:round;" /><path d="M 248.99999999999997,-83.99999999999999 L 239.99999999999997,-83.99999999999999 L 230.99999999999997,-83.99999999999999" style="stroke:black;fill:none;stroke-width:2.0;stroke-dasharray:-;stroke-linecap:round;stroke-linejoin:round;" /><path d="M 230.99999999999997,-83.99999999999999 L 230.99999999999997,-101.99999999999999 L 203.99999999999997,-83.99999999999999 L 230.99999999999997,-65.99999999999999 L 230.99999999999997,-83.99999999999999" style="stroke:black;fill:none;stroke-width:2.0;stroke-dasharray:-;stroke-linecap:round;stroke-linejoin:round;" /><path d="M 203.99999999999997,-83.99999999999999 L 194.99999999999997,-83.99999999999999 L 185.99999999999997,-83.99999999999999" style="stroke:black;fill:none;stroke-width:2.0;stroke-dasharray:-;stroke-linecap:round;stroke-linejoin:round;" /><path d="M 185.99999999999997,-83.99999999999999 L 153.23999999999998,-83.99999999999999 M 153.23999999999998,-74.99999999999999 L 153.23999999999998,-92.99999999999999 M 146.76,-74.99999999999999 L 146.76,-92.99999999999999 M 146.76,-83.99999999999999 L 113.99999999999997,-84.0" style="stroke:black;fill:none;stroke-width:2.0;stroke-dasharray:-;stroke-linecap:round;stroke-linejoin:round;" /><path d="M 113.99999999999997,-84.0 L 113.99999999999997,-42.0 L 113.99999999999996,-0.0" style="stroke:black;fill:none;stroke-width:2.0;stroke-dasharray:-;stroke-linecap:round;stroke-linejoin:round;" /><circle cx="0.0" cy="-0.0" r="2.6999999999999997" style="stroke:black;fill:white;stroke-width:2.0;stroke-dasharray:-;" /><g><g><g><path d="M -16.104 -4.823 L -16.104 -4.823 L -16.426 -2.639 L -16.762 -2.639 Q -16.79 -3.451 -17.133 -3.927 Q -17.476 -4.403 -18.092 -4.403 Q -18.638 -4.403 -18.876 -4.109 Q -19.114 -3.815 -19.114 -3.507 Q -19.114 -3.213 -18.911 -2.94 Q -18.708 -2.667 -18.4 -2.38 Q -18.092 -2.093 -17.784 -1.757 Q -17.336 -1.281 -17.007 -0.826 Q -16.678 -0.371 -16.678 0.301 Q -16.678 0.707 -16.881 1.106 Q -17.084 1.505 -17.546 1.771 Q -18.008 2.037 -18.806 2.037 Q -19.464 2.037 -19.863 1.876 Q -20.262 1.715 -20.416 1.659 L -20.458 1.659 L -20.794 2.037 L -21.102 2.037 L -20.738 -0.301 L -20.388 -0.301 Q -20.276 0.609 -19.961 1.085 Q -19.646 1.561 -18.932 1.561 Q -18.442 1.561 -18.141 1.323 Q -17.84 1.085 -17.84 0.539 Q -17.84 -0.035 -18.155 -0.434 Q -18.47 -0.833 -18.876 -1.211 Q -19.156 -1.491 -19.443 -1.757 Q -19.73 -2.023 -19.919 -2.352 Q -20.108 -2.681 -20.108 -3.115 Q -20.108 -3.829 -19.632 -4.326 Q -19.156 -4.823 -18.204 -4.823 Q -17.644 -4.823 -17.273 -4.669 Q -16.902 -4.515 -16.776 -4.445 L -16.734 -4.445 L -16.37 -4.823 Z " fill="black" /><path d="M -13.003 4.46 L -13.003 4.46 L -13.003 4.823 L -15.492 4.823 L -15.492 4.46 Q -15.149 4.46 -14.997 4.387 Q -14.846 4.313 -14.806 4.152 Q -14.767 3.99 -14.767 3.725 L -14.767 0.766 Q -14.767 0.433 -14.875 0.364 Q -14.983 0.295 -15.238 0.295 Q -15.365 0.295 -15.443 0.305 Q -15.522 0.315 -15.522 0.315 L -15.522 -0.077 L -14.209 -0.293 L -13.807 -0.293 L -13.807 3.725 Q -13.807 4.01 -13.763 4.171 Q -13.719 4.333 -13.547 4.397 Q -13.376 4.46 -13.003 4.46 Z M -14.297 -2.458 L -14.297 -2.458 Q -14.013 -2.458 -13.821 -2.262 Q -13.63 -2.066 -13.63 -1.812 Q -13.63 -1.576 -13.821 -1.38 Q -14.013 -1.184 -14.297 -1.184 Q -14.571 -1.184 -14.752 -1.38 Q -14.934 -1.576 -14.934 -1.812 Q -14.934 -2.066 -14.752 -2.262 Q -14.571 -2.458 -14.297 -2.458 Z " fill="black" /><path d="M -7.182 1.54 L -7.182 1.54 L -7.182 3.735 Q -7.182 4.01 -7.133 4.171 Q -7.084 4.333 -6.917 4.402 Q -6.751 4.47 -6.398 4.47 L -6.398 4.823 L -8.917 4.823 L -8.917 4.47 Q -8.544 4.47 -8.378 4.402 Q -8.211 4.333 -8.172 4.171 Q -8.133 4.01 -8.133 3.735 L -8.133 1.863 Q -8.133 1.207 -8.284 0.898 Q -8.436 0.589 -8.667 0.491 Q -8.897 0.393 -9.132 0.393 Q -9.554 0.393 -9.872 0.609 Q -10.191 0.825 -10.426 1.021 L -10.426 3.735 Q -10.426 4.01 -10.382 4.171 Q -10.338 4.333 -10.171 4.402 Q -10.004 4.47 -9.642 4.47 L -9.642 4.823 L -12.111 4.823 L -12.111 4.47 Q -11.768 4.47 -11.616 4.402 Q -11.465 4.333 -11.425 4.171 Q -11.386 4.01 -11.386 3.735 L -11.386 0.756 Q -11.386 0.482 -11.489 0.389 Q -11.592 0.295 -11.817 0.295 Q -11.935 0.295 -12.013 0.305 Q -12.092 0.315 -12.092 0.315 L -12.092 -0.057 L -10.779 -0.293 L -10.455 -0.293 L -10.455 0.511 L -10.387 0.511 Q -9.965 0.129 -9.578 -0.097 Q -9.191 -0.322 -8.701 -0.322 Q -8.123 -0.322 -7.794 -0.062 Q -7.466 0.197 -7.324 0.619 Q -7.182 1.04 -7.182 1.54 Z " fill="black" /></g></g></g><g><g><g><path d="M 40.602 -39.368 L 40.602 -39.368 L 40.602 -48.566 L 41.806 -48.566 L 41.806 -39.368 Z " fill="black" /><path d="M 44.2 -39.368 L 44.2 -39.368 L 44.2 -46.004 L 45.124 -46.004 L 45.222 -45.052 L 45.264 -45.052 Q 45.74 -45.514 46.258 -45.836 Q 46.776 -46.158 47.504 -46.158 Q 48.498 -46.158 48.995 -45.5 Q 49.492 -44.842 49.492 -43.568 L 49.492 -39.368 L 48.358 -39.368 L 48.358 -43.428 Q 48.358 -44.352 48.071 -44.765 Q 47.784 -45.178 47.14 -45.178 Q 46.622 -45.178 46.216 -44.926 Q 45.81 -44.674 45.32 -44.17 L 45.32 -39.368 Z " fill="black" /><path d="M 51.606 -36.288 L 51.606 -36.288 L 51.606 -46.004 L 52.53 -46.004 L 52.628 -45.234 L 52.67 -45.234 Q 53.118 -45.598 53.643 -45.878 Q 54.168 -46.158 54.84 -46.158 Q 55.624 -46.158 56.191 -45.745 Q 56.758 -45.332 57.066 -44.59 Q 57.374 -43.848 57.374 -42.854 Q 57.374 -41.692 56.975 -40.873 Q 56.576 -40.054 55.939 -39.627 Q 55.302 -39.2 54.56 -39.2 Q 54.098 -39.2 53.643 -39.389 Q 53.188 -39.578 52.698 -39.984 L 52.726 -38.808 L 52.726 -36.288 Z M 54.35 -40.152 L 54.35 -40.152 Q 55.148 -40.152 55.68 -40.845 Q 56.212 -41.538 56.212 -42.84 Q 56.212 -43.89 55.806 -44.555 Q 55.4 -45.22 54.532 -45.22 Q 54.098 -45.22 53.685 -45.017 Q 53.272 -44.814 52.726 -44.31 L 52.726 -40.838 Q 53.174 -40.46 53.587 -40.306 Q 54 -40.152 54.35 -40.152 Z " fill="black" /><path d="M 61.028 -39.2 L 61.028 -39.2 Q 60.02 -39.2 59.53 -39.872 Q 59.04 -40.544 59.04 -41.79 L 59.04 -46.004 L 60.16 -46.004 L 60.16 -41.944 Q 60.16 -41.034 60.454 -40.607 Q 60.748 -40.18 61.392 -40.18 Q 61.91 -40.18 62.302 -40.446 Q 62.694 -40.712 63.17 -41.3 L 63.17 -46.004 L 64.29 -46.004 L 64.29 -39.368 L 63.352 -39.368 L 63.268 -40.404 L 63.226 -40.404 Q 62.736 -39.83 62.225 -39.515 Q 61.714 -39.2 61.028 -39.2 Z " fill="black" /><path d="M 68.532 -39.2 L 68.532 -39.2 Q 67.552 -39.2 67.125 -39.816 Q 66.698 -40.432 66.698 -41.426 L 66.698 -45.01 L 65.732 -45.01 L 65.732 -45.85 L 66.754 -45.92 L 66.894 -47.866 L 67.818 -47.866 L 67.818 -45.92 L 69.596 -45.92 L 69.596 -45.01 L 67.818 -45.01 L 67.818 -41.398 Q 67.818 -40.81 68.042 -40.467 Q 68.266 -40.124 68.798 -40.124 Q 69.022 -40.124 69.225 -40.18 Q 69.428 -40.236 69.582 -40.306 L 69.806 -39.452 Q 69.526 -39.354 69.211 -39.277 Q 68.896 -39.2 68.532 -39.2 Z " fill="black" /></g><g><path d="M 37.557 -25.368 L 37.557 -25.368 L 37.557 -32.004 L 38.481 -32.004 L 38.579 -31.038 L 38.621 -31.038 Q 39.069 -31.514 39.559 -31.836 Q 40.049 -32.158 40.735 -32.158 Q 41.435 -32.158 41.869 -31.808 Q 42.303 -31.458 42.485 -30.898 Q 43.031 -31.472 43.535 -31.815 Q 44.039 -32.158 44.725 -32.158 Q 45.663 -32.158 46.167 -31.5 Q 46.671 -30.842 46.671 -29.568 L 46.671 -25.368 L 45.551 -25.368 L 45.551 -29.428 Q 45.551 -31.178 44.375 -31.178 Q 43.955 -31.178 43.563 -30.947 Q 43.171 -30.716 42.681 -30.17 L 42.681 -25.368 L 41.561 -25.368 L 41.561 -29.428 Q 41.561 -31.178 40.385 -31.178 Q 39.993 -31.178 39.594 -30.961 Q 39.195 -30.744 38.677 -30.17 L 38.677 -25.368 Z " fill="black" /><path d="M 50.311 -25.2 L 50.311 -25.2 Q 49.499 -25.2 48.946 -25.697 Q 48.393 -26.194 48.393 -27.09 Q 48.393 -28.182 49.359 -28.763 Q 50.325 -29.344 52.439 -29.568 Q 52.439 -30.002 52.327 -30.38 Q 52.215 -30.758 51.914 -30.996 Q 51.613 -31.234 51.067 -31.234 Q 50.521 -31.234 50.017 -31.01 Q 49.513 -30.786 49.121 -30.534 L 48.673 -31.304 Q 49.135 -31.612 49.807 -31.885 Q 50.479 -32.158 51.263 -32.158 Q 52.467 -32.158 53.013 -31.423 Q 53.559 -30.688 53.559 -29.442 L 53.559 -25.368 L 52.635 -25.368 L 52.537 -26.166 L 52.509 -26.166 Q 52.033 -25.774 51.487 -25.487 Q 50.941 -25.2 50.311 -25.2 Z M 50.647 -26.11 L 50.647 -26.11 Q 51.123 -26.11 51.543 -26.341 Q 51.963 -26.572 52.439 -26.978 L 52.439 -28.826 Q 50.815 -28.63 50.15 -28.224 Q 49.485 -27.818 49.485 -27.16 Q 49.485 -26.614 49.828 -26.362 Q 50.171 -26.11 50.647 -26.11 Z " fill="black" /><path d="M 57.661 -25.2 L 57.661 -25.2 Q 56.681 -25.2 56.254 -25.816 Q 55.827 -26.432 55.827 -27.426 L 55.827 -31.01 L 54.861 -31.01 L 54.861 -31.85 L 55.883 -31.92 L 56.023 -33.866 L 56.947 -33.866 L 56.947 -31.92 L 58.725 -31.92 L 58.725 -31.01 L 56.947 -31.01 L 56.947 -27.398 Q 56.947 -26.81 57.171 -26.467 Q 57.395 -26.124 57.927 -26.124 Q 58.151 -26.124 58.354 -26.18 Q 58.557 -26.236 58.711 -26.306 L 58.935 -25.452 Q 58.655 -25.354 58.34 -25.277 Q 58.025 -25.2 57.661 -25.2 Z " fill="black" /><path d="M 62.771 -25.2 L 62.771 -25.2 Q 61.917 -25.2 61.224 -25.62 Q 60.531 -26.04 60.125 -26.817 Q 59.719 -27.594 59.719 -28.658 Q 59.719 -29.778 60.16 -30.562 Q 60.601 -31.346 61.322 -31.752 Q 62.043 -32.158 62.883 -32.158 Q 63.583 -32.158 64.038 -31.92 Q 64.493 -31.682 64.829 -31.388 L 64.255 -30.646 Q 63.961 -30.912 63.646 -31.066 Q 63.331 -31.22 62.925 -31.22 Q 62.337 -31.22 61.875 -30.898 Q 61.413 -30.576 61.147 -30.009 Q 60.881 -29.442 60.881 -28.672 Q 60.881 -27.538 61.448 -26.838 Q 62.015 -26.138 62.897 -26.138 Q 63.387 -26.138 63.772 -26.334 Q 64.157 -26.53 64.465 -26.796 L 64.955 -26.04 Q 64.507 -25.648 63.961 -25.424 Q 63.415 -25.2 62.771 -25.2 Z " fill="black" /><path d="M 66.383 -25.368 L 66.383 -25.368 L 66.383 -35.084 L 67.503 -35.084 L 67.503 -32.438 L 67.475 -31.066 Q 67.937 -31.514 68.448 -31.836 Q 68.959 -32.158 69.687 -32.158 Q 70.681 -32.158 71.178 -31.5 Q 71.675 -30.842 71.675 -29.568 L 71.675 -25.368 L 70.541 -25.368 L 70.541 -29.428 Q 70.541 -30.352 70.254 -30.765 Q 69.967 -31.178 69.323 -31.178 Q 68.805 -31.178 68.399 -30.926 Q 67.993 -30.674 67.503 -30.17 L 67.503 -25.368 Z " fill="black" /></g></g></g><g><g><g><path d="M 263.926 3.129 L 263.926 3.129 L 260.188 3.129 L 260.272 2.709 Q 260.79 2.709 261.063 2.611 Q 261.336 2.513 261.476 2.24 Q 261.616 1.967 261.714 1.463 L 262.96 -4.585 L 262.904 -4.585 L 258.2 3.129 L 257.892 3.129 L 256.198 -4.571 L 256.142 -4.571 L 254.98 1.085 Q 254.84 1.799 254.861 2.149 Q 254.882 2.499 255.134 2.604 Q 255.386 2.709 255.918 2.709 L 255.834 3.129 L 252.6 3.129 L 252.684 2.709 Q 253.23 2.709 253.524 2.604 Q 253.818 2.499 253.986 2.149 Q 254.154 1.799 254.294 1.085 L 255.4 -4.361 Q 255.512 -4.893 255.47 -5.166 Q 255.428 -5.439 255.169 -5.544 Q 254.91 -5.649 254.35 -5.649 L 254.434 -6.069 L 257.234 -6.069 L 258.746 1.015 L 258.802 1.015 L 263.072 -6.069 L 265.718 -6.069 L 265.634 -5.649 Q 265.144 -5.649 264.857 -5.544 Q 264.57 -5.439 264.416 -5.166 Q 264.262 -4.893 264.15 -4.375 L 262.96 1.463 Q 262.806 2.233 263.037 2.471 Q 263.268 2.709 264.01 2.709 Z " fill="black" /><path d="M 269.952 6.069 L 269.952 6.069 L 266.629 6.069 L 266.629 5.716 Q 267.335 5.716 267.565 5.574 Q 267.796 5.432 267.796 5.06 L 267.796 0.787 Q 267.796 0.522 267.717 0.405 Q 267.639 0.287 267.433 0.287 Q 267.276 0.287 267.007 0.331 Q 266.737 0.375 266.541 0.424 L 266.541 0.032 L 268.354 -0.468 L 268.776 -0.468 L 268.776 5.06 Q 268.776 5.432 269.026 5.574 Q 269.275 5.716 269.952 5.716 Z " fill="black" /></g></g></g><circle cx="248.99999999999997" cy="-48.0" r="2.6999999999999997" style="stroke:black;fill:black;stroke-width:2.0;stroke-dasharray:-;" /><g><g><g><path d="M 287.663 -87.2 L 287.663 -87.2 Q 286.487 -87.2 285.584 -87.781 Q 284.681 -88.362 284.17 -89.44 Q 283.659 -90.518 283.659 -92.002 Q 283.659 -93.472 284.17 -94.529 Q 284.681 -95.586 285.584 -96.153 Q 286.487 -96.72 287.663 -96.72 Q 288.853 -96.72 289.756 -96.153 Q 290.659 -95.586 291.17 -94.529 Q 291.681 -93.472 291.681 -92.002 Q 291.681 -90.532 291.17 -89.454 Q 290.659 -88.376 289.756 -87.788 Q 288.853 -87.2 287.663 -87.2 Z M 287.663 -88.25 L 287.663 -88.25 Q 288.503 -88.25 289.126 -88.712 Q 289.749 -89.174 290.092 -90.021 Q 290.435 -90.868 290.435 -92.002 Q 290.435 -93.71 289.679 -94.697 Q 288.923 -95.684 287.663 -95.684 Q 286.403 -95.684 285.647 -94.697 Q 284.891 -93.71 284.891 -92.002 Q 284.891 -90.868 285.234 -90.021 Q 285.577 -89.174 286.2 -88.712 Q 286.823 -88.25 287.663 -88.25 Z " fill="black" /><path d="M 295.433 -87.2 L 295.433 -87.2 Q 294.425 -87.2 293.935 -87.872 Q 293.445 -88.544 293.445 -89.79 L 293.445 -94.004 L 294.565 -94.004 L 294.565 -89.944 Q 294.565 -89.034 294.859 -88.607 Q 295.153 -88.18 295.797 -88.18 Q 296.315 -88.18 296.707 -88.446 Q 297.099 -88.712 297.575 -89.3 L 297.575 -94.004 L 298.695 -94.004 L 298.695 -87.368 L 297.757 -87.368 L 297.673 -88.404 L 297.631 -88.404 Q 297.141 -87.83 296.63 -87.515 Q 296.119 -87.2 295.433 -87.2 Z " fill="black" /><path d="M 302.937 -87.2 L 302.937 -87.2 Q 301.957 -87.2 301.53 -87.816 Q 301.103 -88.432 301.103 -89.426 L 301.103 -93.01 L 300.137 -93.01 L 300.137 -93.85 L 301.159 -93.92 L 301.299 -95.866 L 302.223 -95.866 L 302.223 -93.92 L 304.001 -93.92 L 304.001 -93.01 L 302.223 -93.01 L 302.223 -89.398 Q 302.223 -88.81 302.447 -88.467 Q 302.671 -88.124 303.203 -88.124 Q 303.427 -88.124 303.63 -88.18 Q 303.833 -88.236 303.987 -88.306 L 304.211 -87.452 Q 303.931 -87.354 303.616 -87.277 Q 303.301 -87.2 302.937 -87.2 Z " fill="black" /><path d="M 305.485 -84.288 L 305.485 -84.288 L 305.485 -94.004 L 306.409 -94.004 L 306.507 -93.234 L 306.549 -93.234 Q 306.997 -93.598 307.522 -93.878 Q 308.047 -94.158 308.719 -94.158 Q 309.503 -94.158 310.07 -93.745 Q 310.637 -93.332 310.945 -92.59 Q 311.253 -91.848 311.253 -90.854 Q 311.253 -89.692 310.854 -88.873 Q 310.455 -88.054 309.818 -87.627 Q 309.181 -87.2 308.439 -87.2 Q 307.977 -87.2 307.522 -87.389 Q 307.067 -87.578 306.577 -87.984 L 306.605 -86.808 L 306.605 -84.288 Z M 308.229 -88.152 L 308.229 -88.152 Q 309.027 -88.152 309.559 -88.845 Q 310.091 -89.538 310.091 -90.84 Q 310.091 -91.89 309.685 -92.555 Q 309.279 -93.22 308.411 -93.22 Q 307.977 -93.22 307.564 -93.017 Q 307.151 -92.814 306.605 -92.31 L 306.605 -88.838 Q 307.053 -88.46 307.466 -88.306 Q 307.879 -88.152 308.229 -88.152 Z " fill="black" /><path d="M 314.907 -87.2 L 314.907 -87.2 Q 313.899 -87.2 313.409 -87.872 Q 312.919 -88.544 312.919 -89.79 L 312.919 -94.004 L 314.039 -94.004 L 314.039 -89.944 Q 314.039 -89.034 314.333 -88.607 Q 314.627 -88.18 315.271 -88.18 Q 315.789 -88.18 316.181 -88.446 Q 316.573 -88.712 317.049 -89.3 L 317.049 -94.004 L 318.169 -94.004 L 318.169 -87.368 L 317.231 -87.368 L 317.147 -88.404 L 317.105 -88.404 Q 316.615 -87.83 316.104 -87.515 Q 315.593 -87.2 314.907 -87.2 Z " fill="black" /><path d="M 322.411 -87.2 L 322.411 -87.2 Q 321.431 -87.2 321.004 -87.816 Q 320.577 -88.432 320.577 -89.426 L 320.577 -93.01 L 319.611 -93.01 L 319.611 -93.85 L 320.633 -93.92 L 320.773 -95.866 L 321.697 -95.866 L 321.697 -93.92 L 323.475 -93.92 L 323.475 -93.01 L 321.697 -93.01 L 321.697 -89.398 Q 321.697 -88.81 321.921 -88.467 Q 322.145 -88.124 322.677 -88.124 Q 322.901 -88.124 323.104 -88.18 Q 323.307 -88.236 323.461 -88.306 L 323.685 -87.452 Q 323.405 -87.354 323.09 -87.277 Q 322.775 -87.2 322.411 -87.2 Z " fill="black" /></g><g><path d="M 286.557 -73.368 L 286.557 -73.368 L 286.557 -80.004 L 287.481 -80.004 L 287.579 -79.038 L 287.621 -79.038 Q 288.069 -79.514 288.559 -79.836 Q 289.049 -80.158 289.735 -80.158 Q 290.435 -80.158 290.869 -79.808 Q 291.303 -79.458 291.485 -78.898 Q 292.031 -79.472 292.535 -79.815 Q 293.039 -80.158 293.725 -80.158 Q 294.663 -80.158 295.167 -79.5 Q 295.671 -78.842 295.671 -77.568 L 295.671 -73.368 L 294.551 -73.368 L 294.551 -77.428 Q 294.551 -79.178 293.375 -79.178 Q 292.955 -79.178 292.563 -78.947 Q 292.171 -78.716 291.681 -78.17 L 291.681 -73.368 L 290.561 -73.368 L 290.561 -77.428 Q 290.561 -79.178 289.385 -79.178 Q 288.993 -79.178 288.594 -78.961 Q 288.195 -78.744 287.677 -78.17 L 287.677 -73.368 Z " fill="black" /><path d="M 299.311 -73.2 L 299.311 -73.2 Q 298.499 -73.2 297.946 -73.697 Q 297.393 -74.194 297.393 -75.09 Q 297.393 -76.182 298.359 -76.763 Q 299.325 -77.344 301.439 -77.568 Q 301.439 -78.002 301.327 -78.38 Q 301.215 -78.758 300.914 -78.996 Q 300.613 -79.234 300.067 -79.234 Q 299.521 -79.234 299.017 -79.01 Q 298.513 -78.786 298.121 -78.534 L 297.673 -79.304 Q 298.135 -79.612 298.807 -79.885 Q 299.479 -80.158 300.263 -80.158 Q 301.467 -80.158 302.013 -79.423 Q 302.559 -78.688 302.559 -77.442 L 302.559 -73.368 L 301.635 -73.368 L 301.537 -74.166 L 301.509 -74.166 Q 301.033 -73.774 300.487 -73.487 Q 299.941 -73.2 299.311 -73.2 Z M 299.647 -74.11 L 299.647 -74.11 Q 300.123 -74.11 300.543 -74.341 Q 300.963 -74.572 301.439 -74.978 L 301.439 -76.826 Q 299.815 -76.63 299.15 -76.224 Q 298.485 -75.818 298.485 -75.16 Q 298.485 -74.614 298.828 -74.362 Q 299.171 -74.11 299.647 -74.11 Z " fill="black" /><path d="M 306.661 -73.2 L 306.661 -73.2 Q 305.681 -73.2 305.254 -73.816 Q 304.827 -74.432 304.827 -75.426 L 304.827 -79.01 L 303.861 -79.01 L 303.861 -79.85 L 304.883 -79.92 L 305.023 -81.866 L 305.947 -81.866 L 305.947 -79.92 L 307.725 -79.92 L 307.725 -79.01 L 305.947 -79.01 L 305.947 -75.398 Q 305.947 -74.81 306.171 -74.467 Q 306.395 -74.124 306.927 -74.124 Q 307.151 -74.124 307.354 -74.18 Q 307.557 -74.236 307.711 -74.306 L 307.935 -73.452 Q 307.655 -73.354 307.34 -73.277 Q 307.025 -73.2 306.661 -73.2 Z " fill="black" /><path d="M 311.771 -73.2 L 311.771 -73.2 Q 310.917 -73.2 310.224 -73.62 Q 309.531 -74.04 309.125 -74.817 Q 308.719 -75.594 308.719 -76.658 Q 308.719 -77.778 309.16 -78.562 Q 309.601 -79.346 310.322 -79.752 Q 311.043 -80.158 311.883 -80.158 Q 312.583 -80.158 313.038 -79.92 Q 313.493 -79.682 313.829 -79.388 L 313.255 -78.646 Q 312.961 -78.912 312.646 -79.066 Q 312.331 -79.22 311.925 -79.22 Q 311.337 -79.22 310.875 -78.898 Q 310.413 -78.576 310.147 -78.009 Q 309.881 -77.442 309.881 -76.672 Q 309.881 -75.538 310.448 -74.838 Q 311.015 -74.138 311.897 -74.138 Q 312.387 -74.138 312.772 -74.334 Q 313.157 -74.53 313.465 -74.796 L 313.955 -74.04 Q 313.507 -73.648 312.961 -73.424 Q 312.415 -73.2 311.771 -73.2 Z " fill="black" /><path d="M 315.383 -73.368 L 315.383 -73.368 L 315.383 -83.084 L 316.503 -83.084 L 316.503 -80.438 L 316.475 -79.066 Q 316.937 -79.514 317.448 -79.836 Q 317.959 -80.158 318.687 -80.158 Q 319.681 -80.158 320.178 -79.5 Q 320.675 -78.842 320.675 -77.568 L 320.675 -73.368 L 319.541 -73.368 L 319.541 -77.428 Q 319.541 -78.352 319.254 -78.765 Q 318.967 -79.178 318.323 -79.178 Q 317.805 -79.178 317.399 -78.926 Q 316.993 -78.674 316.503 -78.17 L 316.503 -73.368 Z " fill="black" /></g></g></g><circle cx="357.0" cy="-48.0" r="2.6999999999999997" style="stroke:black;fill:white;stroke-width:2.0;stroke-dasharray:-;" /><g><g><g><path d="M 368.592 -52.882 L 368.592 -52.882 L 368.27 -50.698 L 367.934 -50.698 Q 367.906 -51.51 367.563 -51.986 Q 367.22 -52.462 366.604 -52.462 Q 366.058 -52.462 365.82 -52.168 Q 365.582 -51.874 365.582 -51.566 Q 365.582 -51.272 365.785 -50.999 Q 365.988 -50.726 366.296 -50.439 Q 366.604 -50.152 366.912 -49.816 Q 367.36 -49.34 367.689 -48.885 Q 368.018 -48.43 368.018 -47.758 Q 368.018 -47.352 367.815 -46.953 Q 367.612 -46.554 367.15 -46.288 Q 366.688 -46.022 365.89 -46.022 Q 365.232 -46.022 364.833 -46.183 Q 364.434 -46.344 364.28 -46.4 L 364.238 -46.4 L 363.902 -46.022 L 363.594 -46.022 L 363.958 -48.36 L 364.308 -48.36 Q 364.42 -47.45 364.735 -46.974 Q 365.05 -46.498 365.764 -46.498 Q 366.254 -46.498 366.555 -46.736 Q 366.856 -46.974 366.856 -47.52 Q 366.856 -48.094 366.541 -48.493 Q 366.226 -48.892 365.82 -49.27 Q 365.54 -49.55 365.253 -49.816 Q 364.966 -50.082 364.777 -50.411 Q 364.588 -50.74 364.588 -51.174 Q 364.588 -51.888 365.064 -52.385 Q 365.54 -52.882 366.492 -52.882 Q 367.052 -52.882 367.423 -52.728 Q 367.794 -52.574 367.92 -52.504 L 367.962 -52.504 L 368.326 -52.882 Z " fill="black" /><path d="M 371.732 -48.381 L 371.732 -48.381 Q 372.467 -48.381 373.016 -48.062 Q 373.565 -47.744 373.864 -47.171 Q 374.163 -46.597 374.163 -45.823 Q 374.163 -44.892 373.849 -44.294 Q 373.535 -43.696 372.987 -43.407 Q 372.438 -43.118 371.732 -43.118 Q 371.017 -43.118 370.463 -43.417 Q 369.909 -43.716 369.601 -44.314 Q 369.292 -44.912 369.292 -45.813 Q 369.292 -46.578 369.596 -47.156 Q 369.9 -47.734 370.448 -48.057 Q 370.997 -48.381 371.732 -48.381 Z M 371.713 -47.93 L 371.713 -47.93 Q 371.066 -47.93 370.698 -47.406 Q 370.331 -46.881 370.331 -45.872 Q 370.331 -44.627 370.708 -44.113 Q 371.085 -43.598 371.762 -43.598 Q 372.193 -43.608 372.497 -43.814 Q 372.8 -44.02 372.962 -44.505 Q 373.124 -44.99 373.124 -45.823 Q 373.124 -46.823 372.781 -47.376 Q 372.438 -47.93 371.713 -47.93 Z " fill="black" /><path d="M 380.827 -43.736 L 380.827 -43.736 L 380.827 -43.363 L 379.504 -43.187 L 379.19 -43.187 L 379.19 -43.951 L 379.092 -43.951 Q 378.72 -43.618 378.337 -43.378 Q 377.955 -43.138 377.416 -43.138 Q 376.691 -43.138 376.309 -43.579 Q 375.927 -44.02 375.927 -45.108 L 375.927 -47.215 Q 375.927 -47.616 375.784 -47.71 Q 375.642 -47.803 375.192 -47.803 L 375.192 -48.155 L 376.554 -48.342 L 376.877 -48.342 L 376.877 -45.235 Q 376.877 -44.686 377.005 -44.382 Q 377.132 -44.079 377.348 -43.961 Q 377.563 -43.843 377.818 -43.843 Q 378.249 -43.843 378.538 -44.025 Q 378.827 -44.206 379.141 -44.461 L 379.141 -47.215 Q 379.141 -47.616 378.965 -47.71 Q 378.788 -47.803 378.288 -47.803 L 378.288 -48.155 L 379.749 -48.342 L 380.092 -48.342 L 380.092 -44.373 Q 380.092 -44.079 380.145 -43.941 Q 380.199 -43.804 380.337 -43.77 Q 380.474 -43.736 380.719 -43.736 Z " fill="black" /><path d="M 384.649 -44.216 L 384.649 -44.216 L 384.874 -44.03 Q 384.658 -43.736 384.482 -43.535 Q 384.306 -43.334 384.08 -43.226 Q 383.855 -43.118 383.502 -43.118 Q 382.934 -43.118 382.674 -43.442 Q 382.414 -43.765 382.414 -44.48 L 382.414 -47.773 L 381.797 -47.773 L 381.797 -48.067 Q 382.15 -48.322 382.444 -48.69 Q 382.738 -49.057 383.032 -49.743 L 383.375 -49.743 L 383.365 -48.253 L 384.609 -48.253 L 384.609 -47.773 L 383.365 -47.773 L 383.365 -44.804 Q 383.365 -44.255 383.468 -44.025 Q 383.571 -43.794 383.884 -43.794 Q 384.168 -43.794 384.315 -43.897 Q 384.462 -44 384.649 -44.216 Z " fill="black" /></g></g></g><circle cx="248.99999999999997" cy="-83.99999999999999" r="2.6999999999999997" style="stroke:black;fill:black;stroke-width:2.0;stroke-dasharray:-;" /><g><g><g><path d="M 181.433 -133.142 L 181.433 -133.142 L 181.433 -142.34 L 184.387 -142.34 Q 185.339 -142.34 186.081 -142.088 Q 186.823 -141.836 187.243 -141.276 Q 187.663 -140.716 187.663 -139.764 Q 187.663 -138.658 187.089 -138.014 Q 186.515 -137.37 185.563 -137.146 L 187.943 -133.142 L 186.585 -133.142 L 184.331 -137.02 L 182.637 -137.02 L 182.637 -133.142 Z M 182.637 -137.986 L 182.637 -137.986 L 184.205 -137.986 Q 185.297 -137.986 185.885 -138.42 Q 186.473 -138.854 186.473 -139.75 Q 186.473 -140.646 185.885 -141.01 Q 185.297 -141.374 184.205 -141.374 L 182.637 -141.374 Z " fill="black" /><path d="M 189.595 -133.142 L 189.595 -133.142 L 189.595 -142.34 L 195.013 -142.34 L 195.013 -141.332 L 190.799 -141.332 L 190.799 -138.252 L 194.369 -138.252 L 194.369 -137.244 L 190.799 -137.244 L 190.799 -133.142 Z " fill="black" /><path d="M 202.349 -132.974 L 202.349 -132.974 Q 201.495 -132.974 200.802 -133.394 Q 200.109 -133.814 199.703 -134.591 Q 199.297 -135.368 199.297 -136.432 Q 199.297 -137.552 199.738 -138.336 Q 200.179 -139.12 200.9 -139.526 Q 201.621 -139.932 202.461 -139.932 Q 203.161 -139.932 203.616 -139.694 Q 204.071 -139.456 204.407 -139.162 L 203.833 -138.42 Q 203.539 -138.686 203.224 -138.84 Q 202.909 -138.994 202.503 -138.994 Q 201.915 -138.994 201.453 -138.672 Q 200.991 -138.35 200.725 -137.783 Q 200.459 -137.216 200.459 -136.446 Q 200.459 -135.312 201.026 -134.612 Q 201.593 -133.912 202.475 -133.912 Q 202.965 -133.912 203.35 -134.108 Q 203.735 -134.304 204.043 -134.57 L 204.533 -133.814 Q 204.085 -133.422 203.539 -133.198 Q 202.993 -132.974 202.349 -132.974 Z " fill="black" /><path d="M 205.961 -133.142 L 205.961 -133.142 L 205.961 -142.858 L 207.081 -142.858 L 207.081 -140.212 L 207.053 -138.84 Q 207.515 -139.288 208.026 -139.61 Q 208.537 -139.932 209.265 -139.932 Q 210.259 -139.932 210.756 -139.274 Q 211.253 -138.616 211.253 -137.342 L 211.253 -133.142 L 210.119 -133.142 L 210.119 -137.202 Q 210.119 -138.126 209.832 -138.539 Q 209.545 -138.952 208.901 -138.952 Q 208.383 -138.952 207.977 -138.7 Q 207.571 -138.448 207.081 -137.944 L 207.081 -133.142 Z " fill="black" /><path d="M 215.901 -132.974 L 215.901 -132.974 Q 215.103 -132.974 214.403 -133.387 Q 213.703 -133.8 213.276 -134.577 Q 212.849 -135.354 212.849 -136.46 Q 212.849 -137.566 213.276 -138.336 Q 213.703 -139.106 214.403 -139.519 Q 215.103 -139.932 215.901 -139.932 Q 216.713 -139.932 217.413 -139.519 Q 218.113 -139.106 218.54 -138.336 Q 218.967 -137.566 218.967 -136.46 Q 218.967 -135.354 218.54 -134.577 Q 218.113 -133.8 217.413 -133.387 Q 216.713 -132.974 215.901 -132.974 Z M 215.901 -133.912 L 215.901 -133.912 Q 216.755 -133.912 217.28 -134.612 Q 217.805 -135.312 217.805 -136.46 Q 217.805 -137.594 217.28 -138.294 Q 216.755 -138.994 215.901 -138.994 Q 215.061 -138.994 214.536 -138.294 Q 214.011 -137.594 214.011 -136.46 Q 214.011 -135.312 214.536 -134.612 Q 215.061 -133.912 215.901 -133.912 Z " fill="black" /><path d="M 220.689 -133.142 L 220.689 -133.142 L 220.689 -143.026 L 221.795 -143.026 L 221.795 -136.278 L 221.837 -136.278 L 224.637 -139.778 L 225.883 -139.778 L 223.671 -137.104 L 226.163 -133.142 L 224.945 -133.142 L 223.027 -136.32 L 221.795 -134.892 L 221.795 -133.142 Z " fill="black" /><path d="M 230.083 -132.974 L 230.083 -132.974 Q 229.201 -132.974 228.48 -133.387 Q 227.759 -133.8 227.332 -134.577 Q 226.905 -135.354 226.905 -136.432 Q 226.905 -137.524 227.325 -138.308 Q 227.745 -139.092 228.438 -139.512 Q 229.131 -139.932 229.943 -139.932 Q 231.119 -139.932 231.812 -139.092 Q 232.505 -138.252 232.505 -136.824 Q 232.505 -136.642 232.491 -136.481 Q 232.477 -136.32 232.449 -136.194 L 228.011 -136.194 Q 228.081 -135.13 228.669 -134.5 Q 229.257 -133.87 230.209 -133.87 Q 230.671 -133.87 231.077 -134.017 Q 231.483 -134.164 231.847 -134.402 L 232.239 -133.674 Q 231.805 -133.38 231.273 -133.177 Q 230.741 -132.974 230.083 -132.974 Z M 228.011 -136.992 L 228.011 -136.992 L 231.525 -136.992 Q 231.525 -137.986 231.098 -138.511 Q 230.671 -139.036 229.929 -139.036 Q 229.201 -139.036 228.662 -138.518 Q 228.123 -138 228.011 -136.992 Z " fill="black" /></g></g></g><g><g><g><path d="M 240.853 -196.69 L 240.853 -196.69 L 244.675 -202.43 Q 244.871 -202.71 244.99 -202.948 Q 245.109 -203.186 245.109 -203.354 Q 245.109 -203.564 244.927 -203.641 Q 244.745 -203.718 244.269 -203.718 L 244.297 -204.138 L 247.321 -204.138 L 247.293 -203.718 Q 246.915 -203.718 246.649 -203.606 Q 246.383 -203.494 246.11 -203.179 Q 245.837 -202.864 245.403 -202.22 L 240.265 -194.87 L 239.803 -194.87 L 239.019 -202.444 Q 238.935 -203.144 238.711 -203.431 Q 238.487 -203.718 237.927 -203.718 L 237.955 -204.138 L 241.385 -204.138 L 241.343 -203.718 Q 240.811 -203.718 240.503 -203.508 Q 240.195 -203.298 240.223 -202.822 Q 240.223 -202.752 240.244 -202.57 Q 240.265 -202.388 240.265 -202.318 L 240.685 -198.328 L 240.783 -196.69 Z " fill="black" /><path d="M 246.218 -198.889 L 246.218 -198.889 L 249.188 -198.889 Q 249.972 -198.889 250.687 -198.718 Q 251.402 -198.546 251.966 -198.154 Q 252.529 -197.762 252.858 -197.106 Q 253.186 -196.449 253.186 -195.469 Q 253.186 -194.548 252.887 -193.887 Q 252.588 -193.225 252.049 -192.809 Q 251.51 -192.392 250.795 -192.196 Q 250.079 -192 249.246 -192 L 246.218 -192 L 246.218 -192.372 Q 246.679 -192.372 246.894 -192.441 Q 247.11 -192.51 247.174 -192.72 Q 247.237 -192.931 247.237 -193.362 L 247.237 -197.615 Q 247.237 -198.017 247.144 -198.208 Q 247.051 -198.399 246.831 -198.458 Q 246.61 -198.517 246.218 -198.517 Z M 248.286 -198.399 L 248.286 -198.399 L 248.286 -192.47 Q 248.443 -192.461 248.595 -192.456 Q 248.747 -192.451 248.894 -192.451 Q 249.864 -192.451 250.545 -192.706 Q 251.226 -192.96 251.584 -193.597 Q 251.941 -194.234 251.941 -195.381 Q 251.941 -196.851 251.192 -197.63 Q 250.442 -198.409 248.815 -198.409 Q 248.678 -198.409 248.551 -198.409 Q 248.423 -198.409 248.286 -198.399 Z " fill="black" /><path d="M 254.372 -198.889 L 254.372 -198.889 L 257.341 -198.889 Q 258.125 -198.889 258.841 -198.718 Q 259.556 -198.546 260.119 -198.154 Q 260.683 -197.762 261.011 -197.106 Q 261.34 -196.449 261.34 -195.469 Q 261.34 -194.548 261.041 -193.887 Q 260.742 -193.225 260.203 -192.809 Q 259.664 -192.392 258.948 -192.196 Q 258.233 -192 257.4 -192 L 254.372 -192 L 254.372 -192.372 Q 254.832 -192.372 255.048 -192.441 Q 255.264 -192.51 255.327 -192.72 Q 255.391 -192.931 255.391 -193.362 L 255.391 -197.615 Q 255.391 -198.017 255.298 -198.208 Q 255.205 -198.399 254.984 -198.458 Q 254.764 -198.517 254.372 -198.517 Z M 256.44 -198.399 L 256.44 -198.399 L 256.44 -192.47 Q 256.596 -192.461 256.748 -192.456 Q 256.9 -192.451 257.047 -192.451 Q 258.017 -192.451 258.698 -192.706 Q 259.38 -192.96 259.737 -193.597 Q 260.095 -194.234 260.095 -195.381 Q 260.095 -196.851 259.345 -197.63 Q 258.596 -198.409 256.969 -198.409 Q 256.832 -198.409 256.704 -198.409 Q 256.577 -198.409 256.44 -198.399 Z " fill="black" /></g></g></g><g><g><g><path d="M 212.062 -28.05 L 212.062 -28.05 L 212.314 -27.784 Q 211.6 -26.944 210.662 -26.405 Q 209.724 -25.866 208.394 -25.866 Q 207.134 -25.866 206.378 -26.335 Q 205.622 -26.804 205.293 -27.588 Q 204.964 -28.372 204.964 -29.296 Q 204.964 -30.766 205.412 -31.907 Q 205.86 -33.048 206.637 -33.825 Q 207.414 -34.602 208.394 -35.001 Q 209.374 -35.4 210.438 -35.4 Q 211.152 -35.4 211.551 -35.274 Q 211.95 -35.148 212.174 -35.015 Q 212.398 -34.882 212.566 -34.882 Q 212.734 -34.882 212.86 -35.022 Q 212.986 -35.162 213.154 -35.386 L 213.56 -35.386 L 212.902 -32.18 L 212.44 -32.18 Q 212.496 -33.58 211.922 -34.189 Q 211.348 -34.798 210.312 -34.798 Q 209.5 -34.798 208.786 -34.427 Q 208.072 -34.056 207.519 -33.377 Q 206.966 -32.698 206.651 -31.753 Q 206.336 -30.808 206.336 -29.646 Q 206.336 -28.246 207.001 -27.511 Q 207.666 -26.776 209.052 -26.776 Q 210.662 -26.776 212.062 -28.05 Z " fill="blue" /><path d="M 215.307 -26.873 L 215.307 -26.873 L 215.307 -24.158 Q 215.307 -23.864 215.366 -23.707 Q 215.425 -23.55 215.591 -23.497 Q 215.758 -23.443 216.081 -23.443 L 216.081 -23.08 L 213.612 -23.08 L 213.612 -23.443 Q 213.925 -23.443 214.082 -23.497 Q 214.239 -23.55 214.288 -23.712 Q 214.337 -23.874 214.337 -24.178 L 214.337 -27.147 Q 214.337 -27.421 214.234 -27.515 Q 214.131 -27.608 213.906 -27.608 Q 213.798 -27.608 213.715 -27.598 Q 213.631 -27.588 213.631 -27.588 L 213.631 -27.96 L 214.915 -28.196 L 215.278 -28.196 L 215.278 -27.392 L 215.346 -27.392 Q 215.758 -27.764 216.17 -27.995 Q 216.581 -28.225 217.14 -28.225 Q 217.6 -28.225 217.889 -27.99 Q 218.179 -27.755 218.335 -27.412 L 218.384 -27.412 Q 219.276 -28.225 220.099 -28.225 Q 220.766 -28.225 221.153 -27.813 Q 221.54 -27.402 221.54 -26.51 L 221.54 -24.354 Q 221.54 -24.021 221.579 -23.82 Q 221.618 -23.619 221.775 -23.531 Q 221.932 -23.443 222.285 -23.443 L 222.285 -23.08 L 219.825 -23.08 L 219.825 -23.443 Q 220.188 -23.443 220.349 -23.536 Q 220.511 -23.629 220.55 -23.83 Q 220.589 -24.031 220.589 -24.354 L 220.589 -26.392 Q 220.589 -27.01 220.339 -27.255 Q 220.09 -27.5 219.698 -27.5 Q 219.364 -27.5 219.031 -27.299 Q 218.698 -27.098 218.443 -26.902 L 218.443 -24.354 Q 218.443 -23.991 218.487 -23.791 Q 218.531 -23.59 218.703 -23.516 Q 218.874 -23.443 219.237 -23.443 L 219.237 -23.08 L 216.679 -23.08 L 216.679 -23.443 Q 217.052 -23.443 217.223 -23.516 Q 217.395 -23.59 217.444 -23.791 Q 217.493 -23.991 217.493 -24.354 L 217.493 -26.422 Q 217.493 -27.039 217.272 -27.27 Q 217.052 -27.5 216.669 -27.5 Q 216.268 -27.5 215.9 -27.284 Q 215.533 -27.069 215.307 -26.873 Z " fill="blue" /></g></g></g><g><g><g><path d="M 218.123 -108.75 L 218.123 -108.75 L 209.779 -108.75 L 209.779 -109.702 L 218.123 -109.702 Z " fill="black" /><path d="M 225.991 -105.6 L 225.991 -105.6 L 221.147 -105.6 L 221.147 -105.992 Q 222.141 -105.992 222.547 -106.202 Q 222.953 -106.412 222.953 -106.93 L 222.953 -112.852 Q 222.953 -113.216 222.855 -113.377 Q 222.757 -113.538 222.491 -113.538 Q 222.281 -113.538 221.833 -113.482 Q 221.385 -113.426 221.063 -113.314 L 221.063 -113.776 L 223.779 -114.546 L 224.185 -114.546 L 224.185 -106.93 Q 224.185 -106.412 224.605 -106.202 Q 225.025 -105.992 225.991 -105.992 Z " fill="black" /></g></g></g><g><g><g><path d="M 150.561 -101.57 L 150.561 -101.57 L 150.813 -101.304 Q 150.099 -100.464 149.161 -99.925 Q 148.223 -99.386 146.893 -99.386 Q 145.633 -99.386 144.877 -99.855 Q 144.121 -100.324 143.792 -101.108 Q 143.463 -101.892 143.463 -102.816 Q 143.463 -104.286 143.911 -105.427 Q 144.359 -106.568 145.136 -107.345 Q 145.913 -108.122 146.893 -108.521 Q 147.873 -108.92 148.937 -108.92 Q 149.651 -108.92 150.05 -108.794 Q 150.449 -108.668 150.673 -108.535 Q 150.897 -108.402 151.065 -108.402 Q 151.233 -108.402 151.359 -108.542 Q 151.485 -108.682 151.653 -108.906 L 152.059 -108.906 L 151.401 -105.7 L 150.939 -105.7 Q 150.995 -107.1 150.421 -107.709 Q 149.847 -108.318 148.811 -108.318 Q 147.999 -108.318 147.285 -107.947 Q 146.571 -107.576 146.018 -106.897 Q 145.465 -106.218 145.15 -105.273 Q 144.835 -104.328 144.835 -103.166 Q 144.835 -101.766 145.5 -101.031 Q 146.165 -100.296 147.551 -100.296 Q 149.161 -100.296 150.561 -101.57 Z " fill="black" /><path d="M 157.041 -99.883 L 157.041 -99.883 L 157.041 -97.688 Q 157.041 -97.413 157.09 -97.252 Q 157.139 -97.09 157.305 -97.021 Q 157.472 -96.953 157.825 -96.953 L 157.825 -96.6 L 155.306 -96.6 L 155.306 -96.953 Q 155.678 -96.953 155.845 -97.021 Q 156.012 -97.09 156.051 -97.252 Q 156.09 -97.413 156.09 -97.688 L 156.09 -99.56 Q 156.09 -100.216 155.938 -100.525 Q 155.786 -100.834 155.556 -100.932 Q 155.326 -101.03 155.09 -101.03 Q 154.669 -101.03 154.35 -100.814 Q 154.032 -100.598 153.797 -100.402 L 153.797 -97.688 Q 153.797 -97.413 153.841 -97.252 Q 153.885 -97.09 154.052 -97.021 Q 154.218 -96.953 154.581 -96.953 L 154.581 -96.6 L 152.111 -96.6 L 152.111 -96.953 Q 152.454 -96.953 152.606 -97.021 Q 152.758 -97.09 152.797 -97.252 Q 152.836 -97.413 152.836 -97.688 L 152.836 -100.667 Q 152.836 -100.941 152.733 -101.034 Q 152.631 -101.128 152.405 -101.128 Q 152.288 -101.128 152.209 -101.118 Q 152.131 -101.108 152.131 -101.108 L 152.131 -101.48 L 153.444 -101.716 L 153.767 -101.716 L 153.767 -100.912 L 153.836 -100.912 Q 154.257 -101.294 154.644 -101.52 Q 155.032 -101.745 155.522 -101.745 Q 156.1 -101.745 156.428 -101.485 Q 156.756 -101.226 156.898 -100.804 Q 157.041 -100.383 157.041 -99.883 Z " fill="black" /></g></g></g><circle cx="113.99999999999996" cy="-0.0" r="2.6999999999999997" style="stroke:black;fill:black;stroke-width:2.0;stroke-dasharray:-;" /><circle cx="176.99999999999997" cy="-0.0" r="2.6999999999999997" style="stroke:black;fill:black;stroke-width:2.0;stroke-dasharray:-;" /></svg>