<svg xmlns="http://www.w3.org/2000/svg" xmlns:xlink="http://www.w3.org/1999/xlink" xml:lang="en" height="158.60000000000002pt" width="439.29200000000003pt" viewBox="-38.692 -28.0 439.29200000000003 158.60000000000002"><path d="M 0.0,-23.400000000000002 L 0.0,126.0" style="stroke:#DDDDDD;fill:none;stroke-width:1;stroke-dasharray:2,3.3;stroke-linecap:round;stroke-linejoin:round;" /><path d="M 36.0,-23.400000000000002 L 36.0,126.0" style="stroke:#DDDDDD;fill:none;stroke-width:1;stroke-dasharray:2,3.3;stroke-linecap:round;stroke-linejoin:round;" /><path d="M 72.0,-23.400000000000002 L 72.0,126.0" style="stroke:#DDDDDD;fill:none;stroke-width:1;stroke-dasharray:2,3.3;stroke-linecap:round;stroke-linejoin:round;" /><path d="M 108.0,-23.400000000000002 L 108.0,126.0" style="stroke:#DDDDDD;fill:none;stroke-width:1;stroke-dasharray:2,3.3;stroke-linecap:round;stroke-linejoin:round;" /><path d="M 144.0,-23.400000000000002 L 144.0,126.0" style="stroke:#DDDDDD;fill:none;stroke-width:1;stroke-dasharray:2,3.3;stroke-linecap:round;stroke-linejoin:round;" /><path d="M 180.0,-23.400000000000002 L 180.0,126.0" style="stroke:#DDDDDD;fill:none;stroke-width:1;stroke-dasharray:2,3.3;stroke-linecap:round;stroke-linejoin:round;" /><path d="M 216.0,-23.400000000000002 L 216.0,126.0" style="stroke:#DDDDDD;fill:none;stroke-width:1;stroke-dasharray:2,3.3;stroke-linecap:round;stroke-linejoin:round;" /><path d="M 252.0,-23.400000000000002 L 252.0,126.0" style="stroke:#DDDDDD;fill:none;stroke-width:1;stroke-dasharray:2,3.3;stroke-linecap:round;stroke-linejoin:round;" /><path d="M 288.0,-23.400000000000002 L 288.0,126.0" style="stroke:#DDDDDD;fill:none;stroke-width:1;stroke-dasharray:2,3.3;stroke-linecap:round;stroke-linejoin:round;" /><path d="M 324.0,-23.400000000000002 L 324.0,126.0" style="stroke:#DDDDDD;fill:none;stroke-width:1;stroke-dasharray:2,3.3;stroke-linecap:round;stroke-linejoin:round;" /><path d="M 360.0,-23.400000000000002 L 360.0,126.0" style="stroke:#DDDDDD;fill:none;stroke-width:1;stroke-dasharray:2,3.3;stroke-linecap:round;stroke-linejoin:round;" /><path d="M 396.0,-23.400000000000002 L 396.0,126.0" style="stroke:#DDDDDD;fill:none;stroke-width:1;stroke-dasharray:2,3.3;stroke-linecap:round;stroke-linejoin:round;" /><defs><clipPath id="clip4"><rect x="-1.0" y="-20.8" width="398.0" height="165.8" /></clipPath></defs><path d="M 0.0,-0.0 L 108.0,-0.0" style="stroke:black;fill:none;stroke-width:1;stroke-dasharray:-;stroke-linecap:round;stroke-linejoin:round;" clip-path="url(#clip4)" /><path d="M 108.0,-0.0 L 113.39999999999999,-18.0 L 252.0,-18.0" style="stroke:black;fill:none;stroke-width:1;stroke-dasharray:-;stroke-linecap:round;stroke-linejoin:round;" clip-path="url(#clip4)" /><path d="M 252.0,-18.0 L 257.40000000000003,-0.0 L 396.0,-0.0" style="stroke:black;fill:none;stroke-width:1;stroke-dasharray:-;stroke-linecap:round;stroke-linejoin:round;" clip-path="url(#clip4)" /><path d="M 0.0,28.8 L 36.0,28.8" style="stroke:black;fill:none;stroke-width:1;stroke-dasharray:-;stroke-linecap:round;stroke-linejoin:round;" clip-path="url(#clip4)" /><path d="M 36.0,28.8 L 41.4,10.8 L 180.0,10.8" style="stroke:black;fill:none;stroke-width:1;stroke-dasharray:-;stroke-linecap:round;stroke-linejoin:round;" clip-path="url(#clip4)" /><path d="M 180.0,10.8 L 185.4,28.8 L 324.0,28.8" style="stroke:black;fill:none;stroke-width:1;stroke-dasharray:-;stroke-linecap:round;stroke-linejoin:round;" clip-path="url(#clip4)" /><path d="M 324.0,28.8 L 329.40000000000003,10.8 L 396.0,10.8" style="stroke:black;fill:none;stroke-width:1;stroke-dasharray:-;stroke-linecap:round;stroke-linejoin:round;" clip-path="url(#clip4)" /><path d="M 0.0,86.4 L 396.0,86.4" style="stroke:black;fill:none;stroke-width:1;stroke-dasharray:-;stroke-linecap:round;stroke-linejoin:round;" clip-path="url(#clip4)" /><path d="M 0.0,115.2 L 36.0,115.2" style="stroke:black;fill:none;stroke-width:1;stroke-dasharray:-;stroke-linecap:round;stroke-linejoin:round;" clip-path="url(#clip4)" /><path d="M 36.0,115.2 L 41.4,97.2 L 108.0,97.2" style="stroke:black;fill:none;stroke-width:1;stroke-dasharray:-;stroke-linecap:round;stroke-linejoin:round;" clip-path="url(#clip4)" /><path d="M 108.0,97.2 L 113.39999999999999,115.2 L 324.0,115.2" style="stroke:black;fill:none;stroke-width:1;stroke-dasharray:-;stroke-linecap:round;stroke-linejoin:round;" clip-path="url(#clip4)" /><path d="M 324.0,115.2 L 329.40000000000003,97.2 L 396.0,97.2" style="stroke:black;fill:none;stroke-width:1;stroke-dasharray:-;stroke-linecap:round;stroke-linejoin:round;" clip-path="url(#clip4)" /><g><g><g><path d="M -28.452 -1.536 L -28.452 -1.536 L -28.452 -6.372 L -29.208 -6.372 L -29.208 -7.092 L -28.452 -7.152 L -28.452 -8.256 Q -28.452 -9.132 -28.044 -9.642 Q -27.636 -10.152 -26.808 -10.152 Q -26.532 -10.152 -26.286 -10.098 Q -26.04 -10.044 -25.848 -9.96 L -26.052 -9.216 Q -26.364 -9.372 -26.676 -9.372 Q -27.492 -9.372 -27.492 -8.256 L -27.492 -7.152 L -26.292 -7.152 L -26.292 -6.372 L -27.492 -6.372 L -27.492 -1.536 Z " fill="blue" /><path d="M -20.028 0 L -20.028 0 L -26.172 0 L -26.172 -0.612 L -20.028 -0.612 Z " fill="blue" /><path d="M -19.08 -1.536 L -19.08 -1.536 L -19.08 -7.224 L -18.288 -7.224 L -18.204 -6.18 L -18.168 -6.18 Q -17.856 -6.744 -17.448 -7.05 Q -17.04 -7.356 -16.512 -7.356 Q -16.38 -7.356 -16.236 -7.332 Q -16.092 -7.308 -15.96 -7.248 L -16.14 -6.396 Q -16.296 -6.444 -16.404 -6.468 Q -16.512 -6.492 -16.644 -6.492 Q -17.04 -6.492 -17.436 -6.204 Q -17.832 -5.916 -18.12 -5.184 L -18.12 -1.536 Z " fill="blue" /><path d="M -12.744 -1.392 L -12.744 -1.392 Q -13.5 -1.392 -14.118 -1.746 Q -14.736 -2.1 -15.102 -2.766 Q -15.468 -3.432 -15.468 -4.356 Q -15.468 -5.292 -15.108 -5.964 Q -14.748 -6.636 -14.154 -6.996 Q -13.56 -7.356 -12.864 -7.356 Q -11.856 -7.356 -11.262 -6.636 Q -10.668 -5.916 -10.668 -4.692 Q -10.668 -4.536 -10.68 -4.398 Q -10.692 -4.26 -10.716 -4.152 L -14.52 -4.152 Q -14.46 -3.24 -13.956 -2.7 Q -13.452 -2.16 -12.636 -2.16 Q -12.24 -2.16 -11.892 -2.286 Q -11.544 -2.412 -11.232 -2.616 L -10.896 -1.992 Q -11.268 -1.74 -11.724 -1.566 Q -12.18 -1.392 -12.744 -1.392 Z M -14.52 -4.836 L -14.52 -4.836 L -11.508 -4.836 Q -11.508 -5.688 -11.874 -6.138 Q -12.24 -6.588 -12.876 -6.588 Q -13.5 -6.588 -13.962 -6.144 Q -14.424 -5.7 -14.52 -4.836 Z " fill="blue" /><path d="M -9.132 -1.536 L -9.132 -1.536 L -9.132 -6.372 L -9.888 -6.372 L -9.888 -7.092 L -9.132 -7.152 L -9.132 -8.256 Q -9.132 -9.132 -8.724 -9.642 Q -8.316 -10.152 -7.488 -10.152 Q -7.212 -10.152 -6.966 -10.098 Q -6.72 -10.044 -6.528 -9.96 L -6.732 -9.216 Q -7.044 -9.372 -7.356 -9.372 Q -8.172 -9.372 -8.172 -8.256 L -8.172 -7.152 L -6.972 -7.152 L -6.972 -6.372 L -8.172 -6.372 L -8.172 -1.536 Z " fill="blue" /></g></g></g><g><g><g><path d="M -25.092 27.264 L -25.092 27.264 L -25.092 22.428 L -25.848 22.428 L -25.848 21.708 L -25.092 21.648 L -25.092 20.544 Q -25.092 19.668 -24.684 19.158 Q -24.276 18.648 -23.448 18.648 Q -23.172 18.648 -22.926 18.702 Q -22.68 18.756 -22.488 18.84 L -22.692 19.584 Q -23.004 19.428 -23.316 19.428 Q -24.132 19.428 -24.132 20.544 L -24.132 21.648 L -22.932 21.648 L -22.932 22.428 L -24.132 22.428 L -24.132 27.264 Z " fill="blue" /><path d="M -16.668 28.8 L -16.668 28.8 L -22.812 28.8 L -22.812 28.188 L -16.668 28.188 Z " fill="blue" /><path d="M -15.564 27.264 L -15.564 27.264 L -15.564 22.428 L -16.32 22.428 L -16.32 21.708 L -15.564 21.648 L -15.564 20.544 Q -15.564 19.668 -15.156 19.158 Q -14.748 18.648 -13.92 18.648 Q -13.644 18.648 -13.398 18.702 Q -13.152 18.756 -12.96 18.84 L -13.164 19.584 Q -13.476 19.428 -13.788 19.428 Q -14.604 19.428 -14.604 20.544 L -14.604 21.648 L -13.404 21.648 L -13.404 22.428 L -14.604 22.428 L -14.604 27.264 Z " fill="blue" /><path d="M -9.792 27.408 L -9.792 27.408 Q -10.632 27.408 -11.448 26.676 L -11.472 26.676 L -11.568 27.264 L -12.336 27.264 L -12.336 18.792 L -11.376 18.792 L -11.376 21.204 L -11.4 22.236 Q -11.016 21.888 -10.572 21.666 Q -10.128 21.444 -9.576 21.444 Q -8.892 21.444 -8.406 21.798 Q -7.92 22.152 -7.656 22.788 Q -7.392 23.424 -7.392 24.276 Q -7.392 25.272 -7.734 25.974 Q -8.076 26.676 -8.622 27.042 Q -9.168 27.408 -9.792 27.408 Z M -9.984 26.592 L -9.984 26.592 Q -9.3 26.592 -8.844 25.998 Q -8.388 25.404 -8.388 24.288 Q -8.388 23.388 -8.73 22.818 Q -9.072 22.248 -9.816 22.248 Q -10.224 22.248 -10.602 22.446 Q -10.98 22.644 -11.376 23.028 L -11.376 26.004 Q -10.992 26.328 -10.638 26.46 Q -10.284 26.592 -9.984 26.592 Z " fill="blue" /></g></g></g><g><g><g><path d="M -16.512 83.904 L -16.512 83.904 Q -17.376 83.904 -17.796 83.328 Q -18.216 82.752 -18.216 81.684 L -18.216 78.072 L -17.256 78.072 L -17.256 81.552 Q -17.256 82.332 -17.004 82.698 Q -16.752 83.064 -16.2 83.064 Q -15.756 83.064 -15.42 82.836 Q -15.084 82.608 -14.676 82.104 L -14.676 78.072 L -13.716 78.072 L -13.716 83.76 L -14.52 83.76 L -14.592 82.872 L -14.628 82.872 Q -15.048 83.364 -15.486 83.634 Q -15.924 83.904 -16.512 83.904 Z " fill="blue" /><path d="M -11.82 86.4 L -11.82 86.4 L -11.82 78.072 L -11.028 78.072 L -10.944 78.732 L -10.908 78.732 Q -10.524 78.42 -10.074 78.18 Q -9.624 77.94 -9.048 77.94 Q -8.376 77.94 -7.89 78.294 Q -7.404 78.648 -7.14 79.284 Q -6.876 79.92 -6.876 80.772 Q -6.876 81.768 -7.218 82.47 Q -7.56 83.172 -8.106 83.538 Q -8.652 83.904 -9.288 83.904 Q -9.684 83.904 -10.074 83.742 Q -10.464 83.58 -10.884 83.232 L -10.86 84.24 L -10.86 86.4 Z M -9.468 83.088 L -9.468 83.088 Q -8.784 83.088 -8.328 82.494 Q -7.872 81.9 -7.872 80.784 Q -7.872 79.884 -8.22 79.314 Q -8.568 78.744 -9.312 78.744 Q -9.684 78.744 -10.038 78.918 Q -10.392 79.092 -10.86 79.524 L -10.86 82.5 Q -10.476 82.824 -10.122 82.956 Q -9.768 83.088 -9.468 83.088 Z " fill="blue" /></g></g></g><g><g><g><path d="M -31.26 115.2 L -31.26 115.2 Q -31.944 115.2 -32.454 114.84 Q -32.964 114.48 -33.252 113.826 Q -33.54 113.172 -33.54 112.296 Q -33.54 111.3 -33.198 110.622 Q -32.856 109.944 -32.292 109.59 Q -31.728 109.236 -31.08 109.236 Q -30.612 109.236 -30.252 109.404 Q -29.892 109.572 -29.52 109.884 L -29.556 108.912 L -29.556 106.584 L -28.596 106.584 L -28.596 115.056 L -29.388 115.056 L -29.472 114.384 L -29.508 114.384 Q -29.844 114.72 -30.27 114.96 Q -30.696 115.2 -31.26 115.2 Z M -31.02 114.384 L -31.02 114.384 Q -30.612 114.384 -30.264 114.186 Q -29.916 113.988 -29.556 113.616 L -29.556 110.628 Q -29.916 110.304 -30.246 110.172 Q -30.576 110.04 -30.888 110.04 Q -31.596 110.04 -32.076 110.628 Q -32.556 111.216 -32.556 112.284 Q -32.556 113.232 -32.154 113.808 Q -31.752 114.384 -31.02 114.384 Z " fill="blue" /><path d="M -24.504 115.2 L -24.504 115.2 Q -25.188 115.2 -25.788 114.846 Q -26.388 114.492 -26.754 113.826 Q -27.12 113.16 -27.12 112.212 Q -27.12 111.264 -26.754 110.604 Q -26.388 109.944 -25.788 109.59 Q -25.188 109.236 -24.504 109.236 Q -23.808 109.236 -23.208 109.59 Q -22.608 109.944 -22.242 110.604 Q -21.876 111.264 -21.876 112.212 Q -21.876 113.16 -22.242 113.826 Q -22.608 114.492 -23.208 114.846 Q -23.808 115.2 -24.504 115.2 Z M -24.504 114.396 L -24.504 114.396 Q -23.772 114.396 -23.322 113.796 Q -22.872 113.196 -22.872 112.212 Q -22.872 111.24 -23.322 110.64 Q -23.772 110.04 -24.504 110.04 Q -25.224 110.04 -25.674 110.64 Q -26.124 111.24 -26.124 112.212 Q -26.124 113.196 -25.674 113.796 Q -25.224 114.396 -24.504 114.396 Z " fill="blue" /><path d="M -19.5 115.056 L -19.5 115.056 L -21.072 109.368 L -20.088 109.368 L -19.248 112.656 Q -19.152 113.064 -19.074 113.454 Q -18.996 113.844 -18.924 114.24 L -18.876 114.24 Q -18.78 113.844 -18.684 113.448 Q -18.588 113.052 -18.492 112.656 L -17.616 109.368 L -16.692 109.368 L -15.792 112.656 Q -15.696 113.064 -15.6 113.454 Q -15.504 113.844 -15.408 114.24 L -15.36 114.24 Q -15.264 113.844 -15.18 113.454 Q -15.096 113.064 -15.012 112.656 L -14.184 109.368 L -13.272 109.368 L -14.796 115.056 L -15.96 115.056 L -16.776 112.008 Q -16.872 111.6 -16.962 111.198 Q -17.052 110.796 -17.148 110.364 L -17.196 110.364 Q -17.292 110.796 -17.382 111.204 Q -17.472 111.612 -17.592 112.02 L -18.372 115.056 Z " fill="blue" /><path d="M -12.048 115.056 L -12.048 115.056 L -12.048 109.368 L -11.256 109.368 L -11.172 110.184 L -11.136 110.184 Q -10.728 109.788 -10.284 109.512 Q -9.84 109.236 -9.216 109.236 Q -8.364 109.236 -7.938 109.8 Q -7.512 110.364 -7.512 111.456 L -7.512 115.056 L -8.484 115.056 L -8.484 111.576 Q -8.484 110.784 -8.73 110.43 Q -8.976 110.076 -9.528 110.076 Q -9.972 110.076 -10.32 110.292 Q -10.668 110.508 -11.088 110.94 L -11.088 115.056 Z " fill="blue" /></g></g></g></svg>