<svg xmlns="http://www.w3.org/2000/svg" xmlns:xlink="http://www.w3.org/1999/xlink" xml:lang="en" height="207.2pt" width="591.6800000000001pt" viewBox="-68.67999999999999 -62.2 591.6800000000001 207.2"><path d="M 0.0,-0.0 L 18.0,-0.0 L 27.0,-0.0" style="stroke:black;fill:none;stroke-width:2.0;stroke-dasharray:-;stroke-linecap:round;stroke-linejoin:round;" /><path d="M 34.0 0.0 L 27.0 2.6999999999999997 L 27.0 -2.6999999999999997 Z" style="stroke:black;fill:black;stroke-linecap:butt;stroke-linejoin:miter;" /><path d="M 36.0,-0.0 L 36.0,-18.0 L 72.0,-18.0 L 72.0,18.0 L 36.0,18.0 L 36.0,-0.0" style="stroke:black;fill:none;stroke-width:2.0;stroke-dasharray:-;stroke-linecap:round;stroke-linejoin:round;" /><path d="M 72.0,-0.0 L 90.0,-0.0 L 99.0,-0.0" style="stroke:black;fill:none;stroke-width:2.0;stroke-dasharray:-;stroke-linecap:round;stroke-linejoin:round;" /><path d="M 106.0 0.0 L 99.0 2.6999999999999997 L 99.0 -2.6999999999999997 Z" style="stroke:black;fill:black;stroke-linecap:butt;stroke-linejoin:miter;" /><path d="M 108.0,-0.0 L 108.0,-18.0 L 144.0,-18.0 L 144.0,18.0 L 108.0,18.0 L 108.0,-0.0" style="stroke:black;fill:none;stroke-width:2.0;stroke-dasharray:-;stroke-linecap:round;stroke-linejoin:round;" /><path d="M 144.0,-0.0 L 162.0,-0.0 L 171.0,-0.0" style="stroke:black;fill:none;stroke-width:2.0;stroke-dasharray:-;stroke-linecap:round;stroke-linejoin:round;" /><path d="M 178.0 0.0 L 171.0 2.6999999999999997 L 171.0 -2.6999999999999997 Z" style="stroke:black;fill:black;stroke-linecap:butt;stroke-linejoin:miter;" /><path d="M 180.0,-0.0 L 180.0,-18.0 L 216.0,-18.0 L 216.0,18.0 L 180.0,18.0 L 180.0,-0.0" style="stroke:black;fill:none;stroke-width:2.0;stroke-dasharray:-;stroke-linecap:round;stroke-linejoin:round;" /><path d="M 216.0,-0.0 L 234.0,-0.0 L 243.0,-0.0" style="stroke:black;fill:none;stroke-width:2.0;stroke-dasharray:-;stroke-linecap:round;stroke-linejoin:round;" /><path d="M 250.0 0.0 L 243.0 2.6999999999999997 L 243.0 -2.6999999999999997 Z" style="stroke:black;fill:black;stroke-linecap:butt;stroke-linejoin:miter;" /><path d="M 252.0,-0.0 L 252.0,-18.0 L 288.0,-18.0 L 288.0,18.0 L 252.0,18.0 L 252.0,-0.0" style="stroke:black;fill:none;stroke-width:2.0;stroke-dasharray:-;stroke-linecap:round;stroke-linejoin:round;" /><path d="M 288.0,-0.0 L 306.0,-0.0 L 315.0,-0.0" style="stroke:black;fill:none;stroke-width:2.0;stroke-dasharray:-;stroke-linecap:round;stroke-linejoin:round;" /><path d="M 322.0 0.0 L 315.0 2.6999999999999997 L 315.0 -2.6999999999999997 Z" style="stroke:black;fill:black;stroke-linecap:butt;stroke-linejoin:miter;" /><path d="M 324.0,-0.0 L 324.0,-18.0 L 360.0,-18.0 L 360.0,18.0 L 324.0,18.0 L 324.0,-0.0" style="stroke:black;fill:none;stroke-width:2.0;stroke-dasharray:-;stroke-linecap:round;stroke-linejoin:round;" /><path d="M 360.0,-0.0 L 378.0,-0.0 L 387.0,-0.0" style="stroke:black;fill:none;stroke-width:2.0;stroke-dasharray:-;stroke-linecap:round;stroke-linejoin:round;" /><path d="M 394.0 0.0 L 387.0 2.6999999999999997 L 387.0 -2.6999999999999997 Z" style="stroke:black;fill:black;stroke-linecap:butt;stroke-linejoin:miter;" /><path d="M 396.0,-0.0 L 396.0,-18.0 L 432.0,-18.0 L 432.0,18.0 L 396.0,18.0 L 396.0,-0.0" style="stroke:black;fill:none;stroke-width:2.0;stroke-dasharray:-;stroke-linecap:round;stroke-linejoin:round;" /><path d="M 432.0,-0.0 L 450.0,-0.0 L 468.0,-0.0" style="stroke:black;fill:none;stroke-width:2.0;stroke-dasharray:-;stroke-linecap:round;stroke-linejoin:round;" /><path d="M 468.0,-0.0 L 468.0,-21.599999999999998 L 454.32,-43.199999999999996 L 481.68,-43.199999999999996 L 468.0,-21.599999999999998" style="stroke:black;fill:none;stroke-width:2.0;stroke-dasharray:-;stroke-linecap:round;stroke-linejoin:round;" /><path d="M -36.0,108.0 L -36.0,86.39999999999999 L -49.67999999999999,64.8 L -22.32,64.8 L -36.0,86.39999999999999" style="stroke:black;fill:none;stroke-width:2.0;stroke-dasharray:-;stroke-linecap:round;stroke-linejoin:round;" /><path d="M -36.0,108.0 L -18.0,108.0 L -9.0,108.0" style="stroke:black;fill:none;stroke-width:2.0;stroke-dasharray:-;stroke-linecap:round;stroke-linejoin:round;" /><path d="M -2.0 108.0 L -9.0 110.7 L -9.0 105.3 Z" style="stroke:black;fill:black;stroke-linecap:butt;stroke-linejoin:miter;" /><path d="M 0.0,108.0 L 0.0,90.0 L 36.0,90.0 L 36.0,126.0 L 0.0,126.0 L 0.0,108.0" style="stroke:black;fill:none;stroke-width:2.0;stroke-dasharray:-;stroke-linecap:round;stroke-linejoin:round;" /><path d="M 36.0,108.0 L 54.0,108.0 L 63.0,108.0" style="stroke:black;fill:none;stroke-width:2.0;stroke-dasharray:-;stroke-linecap:round;stroke-linejoin:round;" /><path d="M 70.0 108.0 L 63.0 110.7 L 63.0 105.3 Z" style="stroke:black;fill:black;stroke-linecap:butt;stroke-linejoin:miter;" /><path d="M 72.0,108.0 L 72.0,90.0 L 108.0,90.0 L 108.0,126.0 L 72.0,126.0 L 72.0,108.0" style="stroke:black;fill:none;stroke-width:2.0;stroke-dasharray:-;stroke-linecap:round;stroke-linejoin:round;" /><path d="M 108.0,108.0 L 126.0,108.0 L 135.0,108.0" style="stroke:black;fill:none;stroke-width:2.0;stroke-dasharray:-;stroke-linecap:round;stroke-linejoin:round;" /><path d="M 142.0 108.0 L 135.0 110.7 L 135.0 105.3 Z" style="stroke:black;fill:black;stroke-linecap:butt;stroke-linejoin:miter;" /><path d="M 144.0,108.0 L 144.0,90.0 L 180.0,90.0 L 180.0,126.0 L 144.0,126.0 L 144.0,108.0" style="stroke:black;fill:none;stroke-width:2.0;stroke-dasharray:-;stroke-linecap:round;stroke-linejoin:round;" /><path d="M 180.0,108.0 L 198.0,108.0 L 207.0,108.0" style="stroke:black;fill:none;stroke-width:2.0;stroke-dasharray:-;stroke-linecap:round;stroke-linejoin:round;" /><path d="M 214.0 108.0 L 207.0 110.7 L 207.0 105.3 Z" style="stroke:black;fill:black;stroke-linecap:butt;stroke-linejoin:miter;" /><path d="M 216.0,108.0 L 216.0,90.0 L 252.0,90.0 L 252.0,126.0 L 216.0,126.0 L 216.0,108.0" style="stroke:black;fill:none;stroke-width:2.0;stroke-dasharray:-;stroke-linecap:round;stroke-linejoin:round;" /><path d="M 252.0,108.0 L 270.0,108.0 L 279.0,108.0" style="stroke:black;fill:none;stroke-width:2.0;stroke-dasharray:-;stroke-linecap:round;stroke-linejoin:round;" /><path d="M 286.0 108.0 L 279.0 110.7 L 279.0 105.3 Z" style="stroke:black;fill:black;stroke-linecap:butt;stroke-linejoin:miter;" /><path d="M 288.0,108.0 L 288.0,90.0 L 324.0,90.0 L 324.0,126.0 L 288.0,126.0 L 288.0,108.0" style="stroke:black;fill:none;stroke-width:2.0;stroke-dasharray:-;stroke-linecap:round;stroke-linejoin:round;" /><path d="M 324.0,108.0 L 342.0,108.0 L 351.0,108.0" style="stroke:black;fill:none;stroke-width:2.0;stroke-dasharray:-;stroke-linecap:round;stroke-linejoin:round;" /><path d="M 358.0 108.0 L 351.0 110.7 L 351.0 105.3 Z" style="stroke:black;fill:black;stroke-linecap:butt;stroke-linejoin:miter;" /><path d="M 360.0,108.0 L 360.0,90.0 L 396.0,90.0 L 396.0,126.0 L 360.0,126.0 L 360.0,108.0" style="stroke:black;fill:none;stroke-width:2.0;stroke-dasharray:-;stroke-linecap:round;stroke-linejoin:round;" /><path d="M 396.0,108.0 L 414.0,108.0 L 423.0,108.0" style="stroke:black;fill:none;stroke-width:2.0;stroke-dasharray:-;stroke-linecap:round;stroke-linejoin:round;" /><path d="M 430.0 108.0 L 423.0 110.7 L 423.0 105.3 Z" style="stroke:black;fill:black;stroke-linecap:butt;stroke-linejoin:miter;" /><path d="M 432.0,108.0 L 432.0,90.0 L 468.0,90.0 L 468.0,126.0 L 432.0,126.0 L 432.0,108.0" style="stroke:black;fill:none;stroke-width:2.0;stroke-dasharray:-;stroke-linecap:round;stroke-linejoin:round;" /><path d="M 468.0,108.0 L 486.0,108.0 L 495.0,108.0" style="stroke:black;fill:none;stroke-width:2.0;stroke-dasharray:-;stroke-linecap:round;stroke-linejoin:round;" /><path d="M 502.0 108.0 L 495.0 110.7 L 495.0 105.3 Z" style="stroke:black;fill:black;stroke-linecap:butt;stroke-linejoin:miter;" /><g><g><g><path d="M 20.379 -18.834 L 20.379 -18.834 L 19.945 -18.834 Q 19.945 -19.604 19.868 -20.003 Q 19.791 -20.402 19.455 -20.556 Q 19.119 -20.71 18.335 -20.71 L 17.537 -20.71 L 16.151 -13.892 Q 16.025 -13.262 16.06 -12.961 Q 16.095 -12.66 16.375 -12.569 Q 16.655 -12.478 17.243 -12.478 L 17.159 -12.058 L 13.169 -12.058 L 13.253 -12.478 Q 13.841 -12.478 14.149 -12.569 Q 14.457 -12.66 14.611 -12.961 Q 14.765 -13.262 14.891 -13.892 L 16.277 -20.71 L 15.479 -20.71 Q 14.891 -20.71 14.541 -20.626 Q 14.191 -20.542 13.967 -20.339 Q 13.743 -20.136 13.568 -19.772 Q 13.393 -19.408 13.155 -18.834 L 12.707 -18.834 L 13.281 -21.256 L 20.799 -21.256 Z " fill="black" /><path d="M 21.447 -16.438 L 21.447 -16.438 L 21.447 -13.4 L 21.496 -13.4 Q 21.78 -13.733 22.167 -13.998 Q 22.554 -14.263 23.103 -14.263 Q 23.613 -14.263 24.029 -13.954 Q 24.446 -13.645 24.696 -13.101 Q 24.945 -12.557 24.945 -11.852 Q 24.945 -10.911 24.602 -10.274 Q 24.259 -9.637 23.666 -9.319 Q 23.074 -9 22.319 -9 Q 21.878 -9 21.506 -9.074 Q 21.133 -9.147 20.873 -9.245 Q 20.614 -9.343 20.496 -9.392 L 20.496 -15.272 Q 20.496 -15.635 20.418 -15.738 Q 20.339 -15.84 20.006 -15.84 Q 19.898 -15.84 19.805 -15.826 Q 19.712 -15.811 19.712 -15.811 L 19.712 -16.183 L 21.045 -16.438 Z M 21.447 -12.891 L 21.447 -12.891 L 21.447 -9.951 Q 21.564 -9.735 21.819 -9.608 Q 22.074 -9.48 22.495 -9.48 Q 23.015 -9.48 23.328 -9.76 Q 23.642 -10.039 23.784 -10.504 Q 23.926 -10.97 23.926 -11.519 Q 23.926 -12.018 23.814 -12.474 Q 23.701 -12.93 23.417 -13.214 Q 23.132 -13.498 22.633 -13.498 Q 22.368 -13.498 22.128 -13.395 Q 21.888 -13.292 21.711 -13.15 Q 21.535 -13.008 21.447 -12.891 Z " fill="black" /></g></g></g><g><g><g><path d="M 47.63 4.508 L 47.63 4.508 Q 46.622 4.508 45.789 4.137 Q 44.956 3.766 44.34 3.15 L 45.054 2.324 Q 45.558 2.842 46.237 3.15 Q 46.916 3.458 47.686 3.458 Q 48.582 3.458 49.093 3.052 Q 49.604 2.646 49.604 1.96 Q 49.604 1.512 49.401 1.232 Q 49.198 0.952 48.841 0.756 Q 48.484 0.56 48.036 0.378 L 46.692 -0.196 Q 46.286 -0.378 45.838 -0.665 Q 45.39 -0.952 45.089 -1.407 Q 44.788 -1.862 44.788 -2.534 Q 44.788 -3.262 45.173 -3.822 Q 45.558 -4.382 46.223 -4.697 Q 46.888 -5.012 47.728 -5.012 Q 48.582 -5.012 49.296 -4.697 Q 50.01 -4.382 50.514 -3.878 L 49.884 -3.108 Q 49.436 -3.514 48.911 -3.745 Q 48.386 -3.976 47.756 -3.976 Q 46.958 -3.976 46.482 -3.619 Q 46.006 -3.262 46.006 -2.646 Q 46.006 -2.212 46.237 -1.932 Q 46.468 -1.652 46.825 -1.47 Q 47.182 -1.288 47.56 -1.134 L 48.89 -0.574 Q 49.422 -0.35 49.863 -0.035 Q 50.304 0.28 50.563 0.742 Q 50.822 1.204 50.822 1.848 Q 50.822 2.604 50.437 3.206 Q 50.052 3.808 49.338 4.158 Q 48.624 4.508 47.63 4.508 Z " fill="black" /><path d="M 56.282 -5.586 L 56.282 -5.586 L 52.642 5.586 L 51.858 5.586 L 55.512 -5.586 Z " fill="black" /><path d="M 58.06 4.34 L 58.06 4.34 L 58.06 -4.858 L 60.748 -4.858 Q 61.798 -4.858 62.589 -4.599 Q 63.38 -4.34 63.828 -3.752 Q 64.276 -3.164 64.276 -2.156 Q 64.276 -1.176 63.835 -0.539 Q 63.394 0.098 62.617 0.406 Q 61.84 0.714 60.804 0.714 L 59.264 0.714 L 59.264 4.34 Z M 59.264 -0.266 L 59.264 -0.266 L 60.664 -0.266 Q 61.882 -0.266 62.477 -0.714 Q 63.072 -1.162 63.072 -2.142 Q 63.072 -3.136 62.456 -3.514 Q 61.84 -3.892 60.608 -3.892 L 59.264 -3.892 Z " fill="black" /></g></g></g><g><g><g><path d="M 85.391 -20.98 L 85.391 -20.98 L 84.957 -20.98 Q 84.957 -21.75 84.88 -22.149 Q 84.803 -22.548 84.467 -22.702 Q 84.131 -22.856 83.347 -22.856 L 82.549 -22.856 L 81.163 -16.038 Q 81.037 -15.408 81.072 -15.107 Q 81.107 -14.806 81.387 -14.715 Q 81.667 -14.624 82.255 -14.624 L 82.171 -14.204 L 78.181 -14.204 L 78.265 -14.624 Q 78.853 -14.624 79.161 -14.715 Q 79.469 -14.806 79.623 -15.107 Q 79.777 -15.408 79.903 -16.038 L 81.289 -22.856 L 80.491 -22.856 Q 79.903 -22.856 79.553 -22.772 Q 79.203 -22.688 78.979 -22.485 Q 78.755 -22.282 78.58 -21.918 Q 78.405 -21.554 78.167 -20.98 L 77.719 -20.98 L 78.293 -23.402 L 85.811 -23.402 Z " fill="black" /><path d="M 84.999 -13.047 L 84.999 -13.047 L 85.313 -13.047 Q 85.44 -12.479 85.617 -12.165 Q 85.793 -11.852 86.072 -11.729 Q 86.352 -11.607 86.753 -11.607 Q 87.214 -11.607 87.464 -11.759 Q 87.714 -11.911 87.714 -12.293 Q 87.714 -12.548 87.591 -12.719 Q 87.469 -12.891 87.199 -13.047 Q 86.93 -13.204 86.479 -13.41 Q 86.018 -13.635 85.69 -13.831 Q 85.362 -14.027 85.19 -14.292 Q 85.019 -14.557 85.019 -14.958 Q 85.019 -15.664 85.494 -16.036 Q 85.969 -16.409 86.685 -16.409 Q 87.116 -16.409 87.415 -16.301 Q 87.714 -16.193 87.89 -16.115 L 87.91 -16.115 L 88.067 -16.36 L 88.341 -16.36 L 88.361 -14.733 L 88.018 -14.733 Q 87.831 -15.488 87.498 -15.747 Q 87.165 -16.007 86.734 -16.007 Q 86.283 -16.007 86.053 -15.811 Q 85.822 -15.615 85.822 -15.301 Q 85.822 -15.047 85.979 -14.88 Q 86.136 -14.713 86.425 -14.571 Q 86.714 -14.429 87.116 -14.233 Q 87.567 -14.018 87.91 -13.787 Q 88.253 -13.557 88.449 -13.268 Q 88.645 -12.979 88.645 -12.548 Q 88.645 -12.028 88.37 -11.715 Q 88.096 -11.401 87.665 -11.269 Q 87.234 -11.136 86.763 -11.136 Q 86.283 -11.136 86.018 -11.234 Q 85.754 -11.332 85.528 -11.421 L 85.489 -11.421 L 85.244 -11.166 L 85.019 -11.166 Z " fill="black" /><path d="M 94.78 -16.281 L 94.78 -16.281 L 94.78 -15.919 Q 94.437 -15.919 94.275 -15.767 Q 94.113 -15.615 94.005 -15.301 L 92.32 -11.107 Q 92.026 -10.343 91.727 -9.877 Q 91.428 -9.412 91.085 -9.206 Q 90.742 -9 90.291 -9 Q 89.909 -9 89.689 -9.137 Q 89.468 -9.274 89.468 -9.588 Q 89.468 -9.853 89.61 -9.98 Q 89.752 -10.107 89.997 -10.107 Q 90.193 -10.107 90.35 -10.034 Q 90.507 -9.96 90.639 -9.887 Q 90.771 -9.813 90.889 -9.813 Q 90.997 -9.813 91.149 -10.014 Q 91.301 -10.215 91.448 -10.49 Q 91.595 -10.764 91.693 -11.004 Q 91.791 -11.244 91.791 -11.332 Q 91.791 -11.372 91.746 -11.489 Q 91.702 -11.607 91.648 -11.744 Q 91.595 -11.881 91.546 -11.969 L 89.899 -15.537 Q 89.821 -15.713 89.693 -15.816 Q 89.566 -15.919 89.282 -15.919 L 89.282 -16.281 L 91.595 -16.281 L 91.595 -15.909 Q 91.232 -15.909 91.119 -15.835 Q 91.007 -15.762 91.007 -15.625 Q 91.007 -15.527 91.056 -15.404 Q 91.105 -15.282 91.144 -15.174 L 92.163 -12.949 L 92.339 -12.391 L 92.398 -12.391 L 93.437 -15.35 Q 93.466 -15.419 93.491 -15.497 Q 93.515 -15.576 93.515 -15.644 Q 93.515 -15.811 93.324 -15.865 Q 93.133 -15.919 92.859 -15.919 L 92.859 -16.281 Z " fill="black" /><path d="M 97.112 -15.056 L 97.112 -15.056 L 97.112 -12.342 Q 97.112 -12.048 97.171 -11.891 Q 97.23 -11.734 97.396 -11.68 Q 97.563 -11.626 97.886 -11.626 L 97.886 -11.264 L 95.417 -11.264 L 95.417 -11.626 Q 95.73 -11.626 95.887 -11.68 Q 96.044 -11.734 96.093 -11.896 Q 96.142 -12.058 96.142 -12.361 L 96.142 -15.331 Q 96.142 -15.605 96.039 -15.698 Q 95.936 -15.791 95.711 -15.791 Q 95.603 -15.791 95.519 -15.782 Q 95.436 -15.772 95.436 -15.772 L 95.436 -16.144 L 96.72 -16.379 L 97.083 -16.379 L 97.083 -15.576 L 97.151 -15.576 Q 97.563 -15.948 97.974 -16.178 Q 98.386 -16.409 98.945 -16.409 Q 99.405 -16.409 99.694 -16.174 Q 99.983 -15.938 100.14 -15.595 L 100.189 -15.595 Q 101.081 -16.409 101.904 -16.409 Q 102.571 -16.409 102.958 -15.997 Q 103.345 -15.586 103.345 -14.694 L 103.345 -12.538 Q 103.345 -12.205 103.384 -12.004 Q 103.423 -11.803 103.58 -11.715 Q 103.737 -11.626 104.09 -11.626 L 104.09 -11.264 L 101.63 -11.264 L 101.63 -11.626 Q 101.992 -11.626 102.154 -11.72 Q 102.316 -11.813 102.355 -12.014 Q 102.394 -12.214 102.394 -12.538 L 102.394 -14.576 Q 102.394 -15.194 102.144 -15.439 Q 101.894 -15.684 101.502 -15.684 Q 101.169 -15.684 100.836 -15.483 Q 100.503 -15.282 100.248 -15.086 L 100.248 -12.538 Q 100.248 -12.175 100.292 -11.974 Q 100.336 -11.773 100.508 -11.7 Q 100.679 -11.626 101.042 -11.626 L 101.042 -11.264 L 98.484 -11.264 L 98.484 -11.626 Q 98.856 -11.626 99.028 -11.7 Q 99.199 -11.773 99.248 -11.974 Q 99.297 -12.175 99.297 -12.538 L 99.297 -14.606 Q 99.297 -15.223 99.077 -15.453 Q 98.856 -15.684 98.474 -15.684 Q 98.072 -15.684 97.705 -15.468 Q 97.337 -15.252 97.112 -15.056 Z " fill="black" /></g></g></g><g><g><g><path d="M 120.155 -1.554 L 120.155 -1.554 Q 118.867 -1.554 117.985 -2.17 Q 117.103 -2.786 116.697 -3.738 Q 115.689 -3.878 114.919 -4.487 Q 114.149 -5.096 113.715 -6.118 Q 113.281 -7.14 113.281 -8.498 Q 113.281 -9.968 113.792 -11.025 Q 114.303 -12.082 115.206 -12.649 Q 116.109 -13.216 117.285 -13.216 Q 118.475 -13.216 119.378 -12.649 Q 120.281 -12.082 120.792 -11.025 Q 121.303 -9.968 121.303 -8.498 Q 121.303 -7.168 120.89 -6.167 Q 120.477 -5.166 119.728 -4.543 Q 118.979 -3.92 117.985 -3.752 Q 118.307 -3.15 118.916 -2.849 Q 119.525 -2.548 120.309 -2.548 Q 120.603 -2.548 120.841 -2.583 Q 121.079 -2.618 121.261 -2.674 L 121.499 -1.75 Q 121.289 -1.68 120.939 -1.617 Q 120.589 -1.554 120.155 -1.554 Z M 117.285 -4.69 L 117.285 -4.69 Q 118.125 -4.69 118.748 -5.152 Q 119.371 -5.614 119.714 -6.468 Q 120.057 -7.322 120.057 -8.484 Q 120.057 -10.22 119.301 -11.2 Q 118.545 -12.18 117.285 -12.18 Q 116.025 -12.18 115.269 -11.193 Q 114.513 -10.206 114.513 -8.484 Q 114.513 -7.336 114.856 -6.482 Q 115.199 -5.628 115.822 -5.159 Q 116.445 -4.69 117.285 -4.69 Z " fill="black" /><path d="M 122.101 -3.864 L 122.101 -3.864 L 125.279 -13.062 L 126.623 -13.062 L 129.801 -3.864 L 128.527 -3.864 L 127.645 -6.65 L 124.215 -6.65 L 123.319 -3.864 Z M 124.523 -7.588 L 124.523 -7.588 L 127.351 -7.588 L 126.903 -8.988 Q 126.637 -9.758 126.413 -10.521 Q 126.189 -11.284 125.951 -12.082 L 125.895 -12.082 Q 125.671 -11.284 125.447 -10.521 Q 125.223 -9.758 124.971 -8.988 Z " fill="black" /><path d="M 131.117 -3.864 L 131.117 -3.864 L 131.117 -13.062 L 132.559 -13.062 L 134.365 -8.162 Q 134.533 -7.7 134.694 -7.217 Q 134.855 -6.734 135.037 -6.258 L 135.079 -6.258 Q 135.247 -6.734 135.408 -7.217 Q 135.569 -7.7 135.737 -8.162 L 137.515 -13.062 L 138.957 -13.062 L 138.957 -3.864 L 137.837 -3.864 L 137.837 -8.876 Q 137.837 -9.492 137.886 -10.248 Q 137.935 -11.004 137.991 -11.606 L 137.935 -11.606 L 137.193 -9.506 L 135.429 -4.788 L 134.631 -4.788 L 132.853 -9.506 L 132.111 -11.606 L 132.055 -11.606 Q 132.111 -11.004 132.16 -10.248 Q 132.209 -9.492 132.209 -8.876 L 132.209 -3.864 Z " fill="black" /></g><g><path d="M 115.556 10.136 L 115.556 10.136 L 115.556 0.938 L 116.998 0.938 L 118.804 5.838 Q 118.972 6.3 119.133 6.783 Q 119.294 7.266 119.476 7.742 L 119.518 7.742 Q 119.686 7.266 119.847 6.783 Q 120.008 6.3 120.176 5.838 L 121.954 0.938 L 123.396 0.938 L 123.396 10.136 L 122.276 10.136 L 122.276 5.124 Q 122.276 4.508 122.325 3.752 Q 122.374 2.996 122.43 2.394 L 122.374 2.394 L 121.632 4.494 L 119.868 9.212 L 119.07 9.212 L 117.292 4.494 L 116.55 2.394 L 116.494 2.394 Q 116.55 2.996 116.599 3.752 Q 116.648 4.508 116.648 5.124 L 116.648 10.136 Z " fill="black" /><path d="M 127.288 10.304 L 127.288 10.304 Q 126.476 10.304 125.923 9.807 Q 125.37 9.31 125.37 8.414 Q 125.37 7.322 126.336 6.741 Q 127.302 6.16 129.416 5.936 Q 129.416 5.502 129.304 5.124 Q 129.192 4.746 128.891 4.508 Q 128.59 4.27 128.044 4.27 Q 127.498 4.27 126.994 4.494 Q 126.49 4.718 126.098 4.97 L 125.65 4.2 Q 126.112 3.892 126.784 3.619 Q 127.456 3.346 128.24 3.346 Q 129.444 3.346 129.99 4.081 Q 130.536 4.816 130.536 6.062 L 130.536 10.136 L 129.612 10.136 L 129.514 9.338 L 129.486 9.338 Q 129.01 9.73 128.464 10.017 Q 127.918 10.304 127.288 10.304 Z M 127.624 9.394 L 127.624 9.394 Q 128.1 9.394 128.52 9.163 Q 128.94 8.932 129.416 8.526 L 129.416 6.678 Q 127.792 6.874 127.127 7.28 Q 126.462 7.686 126.462 8.344 Q 126.462 8.89 126.805 9.142 Q 127.148 9.394 127.624 9.394 Z " fill="black" /><path d="M 132.608 13.216 L 132.608 13.216 L 132.608 3.5 L 133.532 3.5 L 133.63 4.27 L 133.672 4.27 Q 134.12 3.906 134.645 3.626 Q 135.17 3.346 135.842 3.346 Q 136.626 3.346 137.193 3.759 Q 137.76 4.172 138.068 4.914 Q 138.376 5.656 138.376 6.65 Q 138.376 7.812 137.977 8.631 Q 137.578 9.45 136.941 9.877 Q 136.304 10.304 135.562 10.304 Q 135.1 10.304 134.645 10.115 Q 134.19 9.926 133.7 9.52 L 133.728 10.696 L 133.728 13.216 Z M 135.352 9.352 L 135.352 9.352 Q 136.15 9.352 136.682 8.659 Q 137.214 7.966 137.214 6.664 Q 137.214 5.614 136.808 4.949 Q 136.402 4.284 135.534 4.284 Q 135.1 4.284 134.687 4.487 Q 134.274 4.69 133.728 5.194 L 133.728 8.666 Q 134.176 9.044 134.589 9.198 Q 135.002 9.352 135.352 9.352 Z " fill="black" /></g></g></g><g><g><g><path d="M 187.115 4.599 L 187.115 4.599 L 187.115 -4.599 L 188.319 -4.599 L 188.319 4.599 Z " fill="black" /><path d="M 190.895 4.599 L 190.895 4.599 L 190.895 -4.599 L 196.313 -4.599 L 196.313 -3.591 L 192.099 -3.591 L 192.099 -0.511 L 195.669 -0.511 L 195.669 0.497 L 192.099 0.497 L 192.099 4.599 Z " fill="black" /><path d="M 197.979 4.599 L 197.979 4.599 L 197.979 -4.599 L 203.397 -4.599 L 203.397 -3.591 L 199.183 -3.591 L 199.183 -0.511 L 202.753 -0.511 L 202.753 0.497 L 199.183 0.497 L 199.183 4.599 Z " fill="black" /><path d="M 207.023 4.599 L 207.023 4.599 L 207.023 -3.591 L 204.195 -3.591 L 204.195 -4.599 L 211.055 -4.599 L 211.055 -3.591 L 208.213 -3.591 L 208.213 4.599 Z " fill="black" /></g></g></g><g><g><g><path d="M 261.348 4.34 L 261.348 4.34 L 261.348 -4.858 L 264.036 -4.858 Q 265.086 -4.858 265.877 -4.599 Q 266.668 -4.34 267.116 -3.752 Q 267.564 -3.164 267.564 -2.156 Q 267.564 -1.176 267.123 -0.539 Q 266.682 0.098 265.905 0.406 Q 265.128 0.714 264.092 0.714 L 262.552 0.714 L 262.552 4.34 Z M 262.552 -0.266 L 262.552 -0.266 L 263.952 -0.266 Q 265.17 -0.266 265.765 -0.714 Q 266.36 -1.162 266.36 -2.142 Q 266.36 -3.136 265.744 -3.514 Q 265.128 -3.892 263.896 -3.892 L 262.552 -3.892 Z " fill="black" /><path d="M 273.094 -5.586 L 273.094 -5.586 L 269.454 5.586 L 268.67 5.586 L 272.324 -5.586 Z " fill="black" /><path d="M 277.49 4.508 L 277.49 4.508 Q 276.482 4.508 275.649 4.137 Q 274.816 3.766 274.2 3.15 L 274.914 2.324 Q 275.418 2.842 276.097 3.15 Q 276.776 3.458 277.546 3.458 Q 278.442 3.458 278.953 3.052 Q 279.464 2.646 279.464 1.96 Q 279.464 1.512 279.261 1.232 Q 279.058 0.952 278.701 0.756 Q 278.344 0.56 277.896 0.378 L 276.552 -0.196 Q 276.146 -0.378 275.698 -0.665 Q 275.25 -0.952 274.949 -1.407 Q 274.648 -1.862 274.648 -2.534 Q 274.648 -3.262 275.033 -3.822 Q 275.418 -4.382 276.083 -4.697 Q 276.748 -5.012 277.588 -5.012 Q 278.442 -5.012 279.156 -4.697 Q 279.87 -4.382 280.374 -3.878 L 279.744 -3.108 Q 279.296 -3.514 278.771 -3.745 Q 278.246 -3.976 277.616 -3.976 Q 276.818 -3.976 276.342 -3.619 Q 275.866 -3.262 275.866 -2.646 Q 275.866 -2.212 276.097 -1.932 Q 276.328 -1.652 276.685 -1.47 Q 277.042 -1.288 277.42 -1.134 L 278.75 -0.574 Q 279.282 -0.35 279.723 -0.035 Q 280.164 0.28 280.423 0.742 Q 280.682 1.204 280.682 1.848 Q 280.682 2.604 280.297 3.206 Q 279.912 3.808 279.198 4.158 Q 278.484 4.508 277.49 4.508 Z " fill="black" /></g></g></g><g><g><g><path d="M 330.674 -2.142 L 330.674 -2.142 L 333.852 -11.34 L 335.196 -11.34 L 338.374 -2.142 L 337.1 -2.142 L 336.218 -4.928 L 332.788 -4.928 L 331.892 -2.142 Z M 333.096 -5.866 L 333.096 -5.866 L 335.924 -5.866 L 335.476 -7.266 Q 335.21 -8.036 334.986 -8.799 Q 334.762 -9.562 334.524 -10.36 L 334.468 -10.36 Q 334.244 -9.562 334.02 -8.799 Q 333.796 -8.036 333.544 -7.266 Z " fill="black" /><path d="M 341.706 -1.974 L 341.706 -1.974 Q 340.908 -1.974 340.313 -2.394 Q 339.718 -2.814 339.382 -3.577 Q 339.046 -4.34 339.046 -5.362 Q 339.046 -6.524 339.445 -7.315 Q 339.844 -8.106 340.502 -8.519 Q 341.16 -8.932 341.916 -8.932 Q 342.462 -8.932 342.882 -8.736 Q 343.302 -8.54 343.736 -8.176 L 343.694 -9.31 L 343.694 -12.026 L 344.814 -12.026 L 344.814 -2.142 L 343.89 -2.142 L 343.792 -2.926 L 343.75 -2.926 Q 343.358 -2.534 342.861 -2.254 Q 342.364 -1.974 341.706 -1.974 Z M 341.986 -2.926 L 341.986 -2.926 Q 342.462 -2.926 342.868 -3.157 Q 343.274 -3.388 343.694 -3.822 L 343.694 -7.308 Q 343.274 -7.686 342.889 -7.84 Q 342.504 -7.994 342.14 -7.994 Q 341.314 -7.994 340.754 -7.308 Q 340.194 -6.622 340.194 -5.376 Q 340.194 -4.27 340.663 -3.598 Q 341.132 -2.926 341.986 -2.926 Z " fill="black" /><path d="M 349.224 -1.974 L 349.224 -1.974 Q 348.426 -1.974 347.831 -2.394 Q 347.236 -2.814 346.9 -3.577 Q 346.564 -4.34 346.564 -5.362 Q 346.564 -6.524 346.963 -7.315 Q 347.362 -8.106 348.02 -8.519 Q 348.678 -8.932 349.434 -8.932 Q 349.98 -8.932 350.4 -8.736 Q 350.82 -8.54 351.254 -8.176 L 351.212 -9.31 L 351.212 -12.026 L 352.332 -12.026 L 352.332 -2.142 L 351.408 -2.142 L 351.31 -2.926 L 351.268 -2.926 Q 350.876 -2.534 350.379 -2.254 Q 349.882 -1.974 349.224 -1.974 Z M 349.504 -2.926 L 349.504 -2.926 Q 349.98 -2.926 350.386 -3.157 Q 350.792 -3.388 351.212 -3.822 L 351.212 -7.308 Q 350.792 -7.686 350.407 -7.84 Q 350.022 -7.994 349.658 -7.994 Q 348.832 -7.994 348.272 -7.308 Q 347.712 -6.622 347.712 -5.376 Q 347.712 -4.27 348.181 -3.598 Q 348.65 -2.926 349.504 -2.926 Z " fill="black" /></g><g><path d="M 339.074 12.026 L 339.074 12.026 Q 337.912 12.026 336.981 11.459 Q 336.05 10.892 335.518 9.828 Q 334.986 8.764 334.986 7.294 Q 334.986 5.796 335.532 4.725 Q 336.078 3.654 337.009 3.08 Q 337.94 2.506 339.088 2.506 Q 340.068 2.506 340.698 2.863 Q 341.328 3.22 341.72 3.64 L 341.062 4.41 Q 340.25 3.542 339.13 3.542 Q 338.276 3.542 337.618 3.99 Q 336.96 4.438 336.589 5.271 Q 336.218 6.104 336.218 7.266 Q 336.218 8.4 336.575 9.233 Q 336.932 10.066 337.583 10.521 Q 338.234 10.976 339.116 10.976 Q 339.788 10.976 340.32 10.703 Q 340.852 10.43 341.3 9.954 L 341.944 10.696 Q 341.384 11.326 340.684 11.676 Q 339.984 12.026 339.074 12.026 Z " fill="black" /><path d="M 343.694 11.858 L 343.694 11.858 L 343.694 2.66 L 346.382 2.66 Q 347.432 2.66 348.223 2.919 Q 349.014 3.178 349.462 3.766 Q 349.91 4.354 349.91 5.362 Q 349.91 6.342 349.469 6.979 Q 349.028 7.616 348.251 7.924 Q 347.474 8.232 346.438 8.232 L 344.898 8.232 L 344.898 11.858 Z M 344.898 7.252 L 344.898 7.252 L 346.298 7.252 Q 347.516 7.252 348.111 6.804 Q 348.706 6.356 348.706 5.376 Q 348.706 4.382 348.09 4.004 Q 347.474 3.626 346.242 3.626 L 344.898 3.626 Z " fill="black" /></g></g></g><g><g><g><path d="M 399.328 4.858 L 399.328 4.858 L 399.328 -4.34 L 402.282 -4.34 Q 403.234 -4.34 403.976 -4.088 Q 404.718 -3.836 405.138 -3.276 Q 405.558 -2.716 405.558 -1.764 Q 405.558 -0.658 404.984 -0.014 Q 404.41 0.63 403.458 0.854 L 405.838 4.858 L 404.48 4.858 L 402.226 0.98 L 400.532 0.98 L 400.532 4.858 Z M 400.532 0.014 L 400.532 0.014 L 402.1 0.014 Q 403.192 0.014 403.78 -0.42 Q 404.368 -0.854 404.368 -1.75 Q 404.368 -2.646 403.78 -3.01 Q 403.192 -3.374 402.1 -3.374 L 400.532 -3.374 Z " fill="black" /><path d="M 408.82 5.026 L 408.82 5.026 Q 408.008 5.026 407.455 4.529 Q 406.902 4.032 406.902 3.136 Q 406.902 2.044 407.868 1.463 Q 408.834 0.882 410.948 0.658 Q 410.948 0.224 410.836 -0.154 Q 410.724 -0.532 410.423 -0.77 Q 410.122 -1.008 409.576 -1.008 Q 409.03 -1.008 408.526 -0.784 Q 408.022 -0.56 407.63 -0.308 L 407.182 -1.078 Q 407.644 -1.386 408.316 -1.659 Q 408.988 -1.932 409.772 -1.932 Q 410.976 -1.932 411.522 -1.197 Q 412.068 -0.462 412.068 0.784 L 412.068 4.858 L 411.144 4.858 L 411.046 4.06 L 411.018 4.06 Q 410.542 4.452 409.996 4.739 Q 409.45 5.026 408.82 5.026 Z M 409.156 4.116 L 409.156 4.116 Q 409.632 4.116 410.052 3.885 Q 410.472 3.654 410.948 3.248 L 410.948 1.4 Q 409.324 1.596 408.659 2.002 Q 407.994 2.408 407.994 3.066 Q 407.994 3.612 408.337 3.864 Q 408.68 4.116 409.156 4.116 Z " fill="black" /><path d="M 416.338 5.026 L 416.338 5.026 Q 415.54 5.026 414.945 4.606 Q 414.35 4.186 414.014 3.423 Q 413.678 2.66 413.678 1.638 Q 413.678 0.476 414.077 -0.315 Q 414.476 -1.106 415.134 -1.519 Q 415.792 -1.932 416.548 -1.932 Q 417.094 -1.932 417.514 -1.736 Q 417.934 -1.54 418.368 -1.176 L 418.326 -2.31 L 418.326 -5.026 L 419.446 -5.026 L 419.446 4.858 L 418.522 4.858 L 418.424 4.074 L 418.382 4.074 Q 417.99 4.466 417.493 4.746 Q 416.996 5.026 416.338 5.026 Z M 416.618 4.074 L 416.618 4.074 Q 417.094 4.074 417.5 3.843 Q 417.906 3.612 418.326 3.178 L 418.326 -0.308 Q 417.906 -0.686 417.521 -0.84 Q 417.136 -0.994 416.772 -0.994 Q 415.946 -0.994 415.386 -0.308 Q 414.826 0.378 414.826 1.624 Q 414.826 2.73 415.295 3.402 Q 415.764 4.074 416.618 4.074 Z " fill="black" /><path d="M 421.658 4.858 L 421.658 4.858 L 421.658 -1.778 L 422.778 -1.778 L 422.778 4.858 Z M 422.232 -3.136 L 422.232 -3.136 Q 421.91 -3.136 421.686 -3.346 Q 421.462 -3.556 421.462 -3.864 Q 421.462 -4.186 421.686 -4.389 Q 421.91 -4.592 422.232 -4.592 Q 422.554 -4.592 422.778 -4.389 Q 423.002 -4.186 423.002 -3.864 Q 423.002 -3.556 422.778 -3.346 Q 422.554 -3.136 422.232 -3.136 Z " fill="black" /><path d="M 427.566 5.026 L 427.566 5.026 Q 426.768 5.026 426.068 4.613 Q 425.368 4.2 424.941 3.423 Q 424.514 2.646 424.514 1.54 Q 424.514 0.434 424.941 -0.336 Q 425.368 -1.106 426.068 -1.519 Q 426.768 -1.932 427.566 -1.932 Q 428.378 -1.932 429.078 -1.519 Q 429.778 -1.106 430.205 -0.336 Q 430.632 0.434 430.632 1.54 Q 430.632 2.646 430.205 3.423 Q 429.778 4.2 429.078 4.613 Q 428.378 5.026 427.566 5.026 Z M 427.566 4.088 L 427.566 4.088 Q 428.42 4.088 428.945 3.388 Q 429.47 2.688 429.47 1.54 Q 429.47 0.406 428.945 -0.294 Q 428.42 -0.994 427.566 -0.994 Q 426.726 -0.994 426.201 -0.294 Q 425.676 0.406 425.676 1.54 Q 425.676 2.688 426.201 3.388 Q 426.726 4.088 427.566 4.088 Z " fill="black" /></g></g></g><g><g><g><path d="M 3.328 112.858 L 3.328 112.858 L 3.328 103.66 L 6.282 103.66 Q 7.234 103.66 7.976 103.912 Q 8.718 104.164 9.138 104.724 Q 9.558 105.284 9.558 106.236 Q 9.558 107.342 8.984 107.986 Q 8.41 108.63 7.458 108.854 L 9.838 112.858 L 8.48 112.858 L 6.226 108.98 L 4.532 108.98 L 4.532 112.858 Z M 4.532 108.014 L 4.532 108.014 L 6.1 108.014 Q 7.192 108.014 7.78 107.58 Q 8.368 107.146 8.368 106.25 Q 8.368 105.354 7.78 104.99 Q 7.192 104.626 6.1 104.626 L 4.532 104.626 Z " fill="black" /><path d="M 12.82 113.026 L 12.82 113.026 Q 12.008 113.026 11.455 112.529 Q 10.902 112.032 10.902 111.136 Q 10.902 110.044 11.868 109.463 Q 12.834 108.882 14.948 108.658 Q 14.948 108.224 14.836 107.846 Q 14.724 107.468 14.423 107.23 Q 14.122 106.992 13.576 106.992 Q 13.03 106.992 12.526 107.216 Q 12.022 107.44 11.63 107.692 L 11.182 106.922 Q 11.644 106.614 12.316 106.341 Q 12.988 106.068 13.772 106.068 Q 14.976 106.068 15.522 106.803 Q 16.068 107.538 16.068 108.784 L 16.068 112.858 L 15.144 112.858 L 15.046 112.06 L 15.018 112.06 Q 14.542 112.452 13.996 112.739 Q 13.45 113.026 12.82 113.026 Z M 13.156 112.116 L 13.156 112.116 Q 13.632 112.116 14.052 111.885 Q 14.472 111.654 14.948 111.248 L 14.948 109.4 Q 13.324 109.596 12.659 110.002 Q 11.994 110.408 11.994 111.066 Q 11.994 111.612 12.337 111.864 Q 12.68 112.116 13.156 112.116 Z " fill="black" /><path d="M 20.338 113.026 L 20.338 113.026 Q 19.54 113.026 18.945 112.606 Q 18.35 112.186 18.014 111.423 Q 17.678 110.66 17.678 109.638 Q 17.678 108.476 18.077 107.685 Q 18.476 106.894 19.134 106.481 Q 19.792 106.068 20.548 106.068 Q 21.094 106.068 21.514 106.264 Q 21.934 106.46 22.368 106.824 L 22.326 105.69 L 22.326 102.974 L 23.446 102.974 L 23.446 112.858 L 22.522 112.858 L 22.424 112.074 L 22.382 112.074 Q 21.99 112.466 21.493 112.746 Q 20.996 113.026 20.338 113.026 Z M 20.618 112.074 L 20.618 112.074 Q 21.094 112.074 21.5 111.843 Q 21.906 111.612 22.326 111.178 L 22.326 107.692 Q 21.906 107.314 21.521 107.16 Q 21.136 107.006 20.772 107.006 Q 19.946 107.006 19.386 107.692 Q 18.826 108.378 18.826 109.624 Q 18.826 110.73 19.295 111.402 Q 19.764 112.074 20.618 112.074 Z " fill="black" /><path d="M 25.658 112.858 L 25.658 112.858 L 25.658 106.222 L 26.778 106.222 L 26.778 112.858 Z M 26.232 104.864 L 26.232 104.864 Q 25.91 104.864 25.686 104.654 Q 25.462 104.444 25.462 104.136 Q 25.462 103.814 25.686 103.611 Q 25.91 103.408 26.232 103.408 Q 26.554 103.408 26.778 103.611 Q 27.002 103.814 27.002 104.136 Q 27.002 104.444 26.778 104.654 Q 26.554 104.864 26.232 104.864 Z " fill="black" /><path d="M 31.566 113.026 L 31.566 113.026 Q 30.768 113.026 30.068 112.613 Q 29.368 112.2 28.941 111.423 Q 28.514 110.646 28.514 109.54 Q 28.514 108.434 28.941 107.664 Q 29.368 106.894 30.068 106.481 Q 30.768 106.068 31.566 106.068 Q 32.378 106.068 33.078 106.481 Q 33.778 106.894 34.205 107.664 Q 34.632 108.434 34.632 109.54 Q 34.632 110.646 34.205 111.423 Q 33.778 112.2 33.078 112.613 Q 32.378 113.026 31.566 113.026 Z M 31.566 112.088 L 31.566 112.088 Q 32.42 112.088 32.945 111.388 Q 33.47 110.688 33.47 109.54 Q 33.47 108.406 32.945 107.706 Q 32.42 107.006 31.566 107.006 Q 30.726 107.006 30.201 107.706 Q 29.676 108.406 29.676 109.54 Q 29.676 110.688 30.201 111.388 Q 30.726 112.088 31.566 112.088 Z " fill="black" /></g></g></g><g><g><g><path d="M 77.155 105.515 L 77.155 105.515 L 77.155 96.317 L 80.109 96.317 Q 81.061 96.317 81.803 96.569 Q 82.545 96.821 82.965 97.381 Q 83.385 97.941 83.385 98.893 Q 83.385 99.999 82.811 100.643 Q 82.237 101.287 81.285 101.511 L 83.665 105.515 L 82.307 105.515 L 80.053 101.637 L 78.359 101.637 L 78.359 105.515 Z M 78.359 100.671 L 78.359 100.671 L 79.927 100.671 Q 81.019 100.671 81.607 100.237 Q 82.195 99.803 82.195 98.907 Q 82.195 98.011 81.607 97.647 Q 81.019 97.283 79.927 97.283 L 78.359 97.283 Z " fill="black" /><path d="M 87.823 105.683 L 87.823 105.683 Q 86.941 105.683 86.22 105.27 Q 85.499 104.857 85.072 104.08 Q 84.645 103.303 84.645 102.225 Q 84.645 101.133 85.065 100.349 Q 85.485 99.565 86.178 99.145 Q 86.871 98.725 87.683 98.725 Q 88.859 98.725 89.552 99.565 Q 90.245 100.405 90.245 101.833 Q 90.245 102.015 90.231 102.176 Q 90.217 102.337 90.189 102.463 L 85.751 102.463 Q 85.821 103.527 86.409 104.157 Q 86.997 104.787 87.949 104.787 Q 88.411 104.787 88.817 104.64 Q 89.223 104.493 89.587 104.255 L 89.979 104.983 Q 89.545 105.277 89.013 105.48 Q 88.481 105.683 87.823 105.683 Z M 85.751 101.665 L 85.751 101.665 L 89.265 101.665 Q 89.265 100.671 88.838 100.146 Q 88.411 99.621 87.669 99.621 Q 86.941 99.621 86.402 100.139 Q 85.863 100.657 85.751 101.665 Z " fill="black" /><path d="M 91.855 105.515 L 91.855 105.515 L 91.855 98.879 L 92.779 98.879 L 92.877 99.845 L 92.919 99.845 Q 93.367 99.369 93.857 99.047 Q 94.347 98.725 95.033 98.725 Q 95.733 98.725 96.167 99.075 Q 96.601 99.425 96.783 99.985 Q 97.329 99.411 97.833 99.068 Q 98.337 98.725 99.023 98.725 Q 99.961 98.725 100.465 99.383 Q 100.969 100.041 100.969 101.315 L 100.969 105.515 L 99.849 105.515 L 99.849 101.455 Q 99.849 99.705 98.673 99.705 Q 98.253 99.705 97.861 99.936 Q 97.469 100.167 96.979 100.713 L 96.979 105.515 L 95.859 105.515 L 95.859 101.455 Q 95.859 99.705 94.683 99.705 Q 94.291 99.705 93.892 99.922 Q 93.493 100.139 92.975 100.713 L 92.975 105.515 Z " fill="black" /><path d="M 104.553 104.815 L 104.553 104.815 Q 104.553 105.137 104.329 105.382 Q 104.105 105.627 103.685 105.627 Q 103.265 105.627 103.062 105.389 Q 102.859 105.151 102.859 104.801 Q 102.859 104.437 103.083 104.178 Q 103.307 103.919 103.699 103.919 Q 104.105 103.919 104.329 104.185 Q 104.553 104.451 104.553 104.815 Z " fill="black" /></g><g><path d="M 87.074 119.683 L 87.074 119.683 Q 85.912 119.683 84.981 119.116 Q 84.05 118.549 83.518 117.485 Q 82.986 116.421 82.986 114.951 Q 82.986 113.453 83.532 112.382 Q 84.078 111.311 85.009 110.737 Q 85.94 110.163 87.088 110.163 Q 88.068 110.163 88.698 110.52 Q 89.328 110.877 89.72 111.297 L 89.062 112.067 Q 88.25 111.199 87.13 111.199 Q 86.276 111.199 85.618 111.647 Q 84.96 112.095 84.589 112.928 Q 84.218 113.761 84.218 114.923 Q 84.218 116.057 84.575 116.89 Q 84.932 117.723 85.583 118.178 Q 86.234 118.633 87.116 118.633 Q 87.788 118.633 88.32 118.36 Q 88.852 118.087 89.3 117.611 L 89.944 118.353 Q 89.384 118.983 88.684 119.333 Q 87.984 119.683 87.074 119.683 Z " fill="black" /><path d="M 91.694 119.515 L 91.694 119.515 L 91.694 110.317 L 94.382 110.317 Q 95.432 110.317 96.223 110.576 Q 97.014 110.835 97.462 111.423 Q 97.91 112.011 97.91 113.019 Q 97.91 113.999 97.469 114.636 Q 97.028 115.273 96.251 115.581 Q 95.474 115.889 94.438 115.889 L 92.898 115.889 L 92.898 119.515 Z M 92.898 114.909 L 92.898 114.909 L 94.298 114.909 Q 95.516 114.909 96.111 114.461 Q 96.706 114.013 96.706 113.033 Q 96.706 112.039 96.09 111.661 Q 95.474 111.283 94.242 111.283 L 92.898 111.283 Z " fill="black" /></g></g></g><g><g><g><path d="M 155.63 112.508 L 155.63 112.508 Q 154.622 112.508 153.789 112.137 Q 152.956 111.766 152.34 111.15 L 153.054 110.324 Q 153.558 110.842 154.237 111.15 Q 154.916 111.458 155.686 111.458 Q 156.582 111.458 157.093 111.052 Q 157.604 110.646 157.604 109.96 Q 157.604 109.512 157.401 109.232 Q 157.198 108.952 156.841 108.756 Q 156.484 108.56 156.036 108.378 L 154.692 107.804 Q 154.286 107.622 153.838 107.335 Q 153.39 107.048 153.089 106.593 Q 152.788 106.138 152.788 105.466 Q 152.788 104.738 153.173 104.178 Q 153.558 103.618 154.223 103.303 Q 154.888 102.988 155.728 102.988 Q 156.582 102.988 157.296 103.303 Q 158.01 103.618 158.514 104.122 L 157.884 104.892 Q 157.436 104.486 156.911 104.255 Q 156.386 104.024 155.756 104.024 Q 154.958 104.024 154.482 104.381 Q 154.006 104.738 154.006 105.354 Q 154.006 105.788 154.237 106.068 Q 154.468 106.348 154.825 106.53 Q 155.182 106.712 155.56 106.866 L 156.89 107.426 Q 157.422 107.65 157.863 107.965 Q 158.304 108.28 158.563 108.742 Q 158.822 109.204 158.822 109.848 Q 158.822 110.604 158.437 111.206 Q 158.052 111.808 157.338 112.158 Q 156.624 112.508 155.63 112.508 Z " fill="black" /><path d="M 164.282 102.414 L 164.282 102.414 L 160.642 113.586 L 159.858 113.586 L 163.512 102.414 Z " fill="black" /><path d="M 166.06 112.34 L 166.06 112.34 L 166.06 103.142 L 168.748 103.142 Q 169.798 103.142 170.589 103.401 Q 171.38 103.66 171.828 104.248 Q 172.276 104.836 172.276 105.844 Q 172.276 106.824 171.835 107.461 Q 171.394 108.098 170.617 108.406 Q 169.84 108.714 168.804 108.714 L 167.264 108.714 L 167.264 112.34 Z M 167.264 107.734 L 167.264 107.734 L 168.664 107.734 Q 169.882 107.734 170.477 107.286 Q 171.072 106.838 171.072 105.858 Q 171.072 104.864 170.456 104.486 Q 169.84 104.108 168.608 104.108 L 167.264 104.108 Z " fill="black" /></g></g></g><g><g><g><path d="M 225.005 112.599 L 225.005 112.599 L 225.005 103.401 L 230.423 103.401 L 230.423 104.409 L 226.209 104.409 L 226.209 107.489 L 229.779 107.489 L 229.779 108.497 L 226.209 108.497 L 226.209 112.599 Z " fill="black" /><path d="M 232.089 112.599 L 232.089 112.599 L 232.089 103.401 L 237.507 103.401 L 237.507 104.409 L 233.293 104.409 L 233.293 107.489 L 236.863 107.489 L 236.863 108.497 L 233.293 108.497 L 233.293 112.599 Z " fill="black" /><path d="M 241.133 112.599 L 241.133 112.599 L 241.133 104.409 L 238.305 104.409 L 238.305 103.401 L 245.165 103.401 L 245.165 104.409 L 242.323 104.409 L 242.323 112.599 Z " fill="black" /></g></g></g><g><g><g><path d="M 299.399 111.521 L 299.399 111.521 L 299.399 102.323 L 304.817 102.323 L 304.817 103.331 L 300.603 103.331 L 300.603 106.201 L 304.159 106.201 L 304.159 107.195 L 300.603 107.195 L 300.603 110.499 L 304.957 110.499 L 304.957 111.521 Z " fill="black" /><path d="M 313.287 113.831 L 313.287 113.831 Q 311.999 113.831 311.117 113.215 Q 310.235 112.599 309.829 111.647 Q 308.821 111.507 308.051 110.898 Q 307.281 110.289 306.847 109.267 Q 306.413 108.245 306.413 106.887 Q 306.413 105.417 306.924 104.36 Q 307.435 103.303 308.338 102.736 Q 309.241 102.169 310.417 102.169 Q 311.607 102.169 312.51 102.736 Q 313.413 103.303 313.924 104.36 Q 314.435 105.417 314.435 106.887 Q 314.435 108.217 314.022 109.218 Q 313.609 110.219 312.86 110.842 Q 312.111 111.465 311.117 111.633 Q 311.439 112.235 312.048 112.536 Q 312.657 112.837 313.441 112.837 Q 313.735 112.837 313.973 112.802 Q 314.211 112.767 314.393 112.711 L 314.631 113.635 Q 314.421 113.705 314.071 113.768 Q 313.721 113.831 313.287 113.831 Z M 310.417 110.695 L 310.417 110.695 Q 311.257 110.695 311.88 110.233 Q 312.503 109.771 312.846 108.917 Q 313.189 108.063 313.189 106.901 Q 313.189 105.165 312.433 104.185 Q 311.677 103.205 310.417 103.205 Q 309.157 103.205 308.401 104.192 Q 307.645 105.179 307.645 106.901 Q 307.645 108.049 307.988 108.903 Q 308.331 109.757 308.954 110.226 Q 309.577 110.695 310.417 110.695 Z " fill="black" /></g></g></g><g><g><g><path d="M 372.155 107.902 L 372.155 107.902 Q 370.867 107.902 369.985 107.286 Q 369.103 106.67 368.697 105.718 Q 367.689 105.578 366.919 104.969 Q 366.149 104.36 365.715 103.338 Q 365.281 102.316 365.281 100.958 Q 365.281 99.488 365.792 98.431 Q 366.303 97.374 367.206 96.807 Q 368.109 96.24 369.285 96.24 Q 370.475 96.24 371.378 96.807 Q 372.281 97.374 372.792 98.431 Q 373.303 99.488 373.303 100.958 Q 373.303 102.288 372.89 103.289 Q 372.477 104.29 371.728 104.913 Q 370.979 105.536 369.985 105.704 Q 370.307 106.306 370.916 106.607 Q 371.525 106.908 372.309 106.908 Q 372.603 106.908 372.841 106.873 Q 373.079 106.838 373.261 106.782 L 373.499 107.706 Q 373.289 107.776 372.939 107.839 Q 372.589 107.902 372.155 107.902 Z M 369.285 104.766 L 369.285 104.766 Q 370.125 104.766 370.748 104.304 Q 371.371 103.842 371.714 102.988 Q 372.057 102.134 372.057 100.972 Q 372.057 99.236 371.301 98.256 Q 370.545 97.276 369.285 97.276 Q 368.025 97.276 367.269 98.263 Q 366.513 99.25 366.513 100.972 Q 366.513 102.12 366.856 102.974 Q 367.199 103.828 367.822 104.297 Q 368.445 104.766 369.285 104.766 Z " fill="black" /><path d="M 374.101 105.592 L 374.101 105.592 L 377.279 96.394 L 378.623 96.394 L 381.801 105.592 L 380.527 105.592 L 379.645 102.806 L 376.215 102.806 L 375.319 105.592 Z M 376.523 101.868 L 376.523 101.868 L 379.351 101.868 L 378.903 100.468 Q 378.637 99.698 378.413 98.935 Q 378.189 98.172 377.951 97.374 L 377.895 97.374 Q 377.671 98.172 377.447 98.935 Q 377.223 99.698 376.971 100.468 Z " fill="black" /><path d="M 383.117 105.592 L 383.117 105.592 L 383.117 96.394 L 384.559 96.394 L 386.365 101.294 Q 386.533 101.756 386.694 102.239 Q 386.855 102.722 387.037 103.198 L 387.079 103.198 Q 387.247 102.722 387.408 102.239 Q 387.569 101.756 387.737 101.294 L 389.515 96.394 L 390.957 96.394 L 390.957 105.592 L 389.837 105.592 L 389.837 100.58 Q 389.837 99.964 389.886 99.208 Q 389.935 98.452 389.991 97.85 L 389.935 97.85 L 389.193 99.95 L 387.429 104.668 L 386.631 104.668 L 384.853 99.95 L 384.111 97.85 L 384.055 97.85 Q 384.111 98.452 384.16 99.208 Q 384.209 99.964 384.209 100.58 L 384.209 105.592 Z " fill="black" /></g><g><path d="M 364.826 119.592 L 364.826 119.592 L 364.826 110.394 L 367.178 110.394 Q 369.348 110.394 370.482 111.577 Q 371.616 112.76 371.616 114.958 Q 371.616 117.156 370.489 118.374 Q 369.362 119.592 367.234 119.592 Z M 366.03 118.612 L 366.03 118.612 L 367.094 118.612 Q 368.746 118.612 369.565 117.653 Q 370.384 116.694 370.384 114.958 Q 370.384 113.222 369.565 112.298 Q 368.746 111.374 367.094 111.374 L 366.03 111.374 Z " fill="black" /><path d="M 376.152 119.76 L 376.152 119.76 Q 375.27 119.76 374.549 119.347 Q 373.828 118.934 373.401 118.157 Q 372.974 117.38 372.974 116.302 Q 372.974 115.21 373.394 114.426 Q 373.814 113.642 374.507 113.222 Q 375.2 112.802 376.012 112.802 Q 377.188 112.802 377.881 113.642 Q 378.574 114.482 378.574 115.91 Q 378.574 116.092 378.56 116.253 Q 378.546 116.414 378.518 116.54 L 374.08 116.54 Q 374.15 117.604 374.738 118.234 Q 375.326 118.864 376.278 118.864 Q 376.74 118.864 377.146 118.717 Q 377.552 118.57 377.916 118.332 L 378.308 119.06 Q 377.874 119.354 377.342 119.557 Q 376.81 119.76 376.152 119.76 Z M 374.08 115.742 L 374.08 115.742 L 377.594 115.742 Q 377.594 114.748 377.167 114.223 Q 376.74 113.698 375.998 113.698 Q 375.27 113.698 374.731 114.216 Q 374.192 114.734 374.08 115.742 Z " fill="black" /><path d="M 380.184 119.592 L 380.184 119.592 L 380.184 112.956 L 381.108 112.956 L 381.206 113.922 L 381.248 113.922 Q 381.696 113.446 382.186 113.124 Q 382.676 112.802 383.362 112.802 Q 384.062 112.802 384.496 113.152 Q 384.93 113.502 385.112 114.062 Q 385.658 113.488 386.162 113.145 Q 386.666 112.802 387.352 112.802 Q 388.29 112.802 388.794 113.46 Q 389.298 114.118 389.298 115.392 L 389.298 119.592 L 388.178 119.592 L 388.178 115.532 Q 388.178 113.782 387.002 113.782 Q 386.582 113.782 386.19 114.013 Q 385.798 114.244 385.308 114.79 L 385.308 119.592 L 384.188 119.592 L 384.188 115.532 Q 384.188 113.782 383.012 113.782 Q 382.62 113.782 382.221 113.999 Q 381.822 114.216 381.304 114.79 L 381.304 119.592 Z " fill="black" /><path d="M 392.882 118.892 L 392.882 118.892 Q 392.882 119.214 392.658 119.459 Q 392.434 119.704 392.014 119.704 Q 391.594 119.704 391.391 119.466 Q 391.188 119.228 391.188 118.878 Q 391.188 118.514 391.412 118.255 Q 391.636 117.996 392.028 117.996 Q 392.434 117.996 392.658 118.262 Q 392.882 118.528 392.882 118.892 Z " fill="black" /></g></g></g><g><g><g><path d="M 409.391 87.02 L 409.391 87.02 L 408.957 87.02 Q 408.957 86.25 408.88 85.851 Q 408.803 85.452 408.467 85.298 Q 408.131 85.144 407.347 85.144 L 406.549 85.144 L 405.163 91.962 Q 405.037 92.592 405.072 92.893 Q 405.107 93.194 405.387 93.285 Q 405.667 93.376 406.255 93.376 L 406.171 93.796 L 402.181 93.796 L 402.265 93.376 Q 402.853 93.376 403.161 93.285 Q 403.469 93.194 403.623 92.893 Q 403.777 92.592 403.903 91.962 L 405.289 85.144 L 404.491 85.144 Q 403.903 85.144 403.553 85.228 Q 403.203 85.312 402.979 85.515 Q 402.755 85.718 402.58 86.082 Q 402.405 86.446 402.167 87.02 L 401.719 87.02 L 402.293 84.598 L 409.811 84.598 Z " fill="black" /><path d="M 408.999 94.953 L 408.999 94.953 L 409.313 94.953 Q 409.44 95.521 409.617 95.835 Q 409.793 96.148 410.072 96.271 Q 410.352 96.393 410.753 96.393 Q 411.214 96.393 411.464 96.241 Q 411.714 96.089 411.714 95.707 Q 411.714 95.452 411.591 95.281 Q 411.469 95.109 411.199 94.953 Q 410.93 94.796 410.479 94.59 Q 410.018 94.365 409.69 94.169 Q 409.362 93.973 409.19 93.708 Q 409.019 93.443 409.019 93.042 Q 409.019 92.336 409.494 91.964 Q 409.969 91.591 410.685 91.591 Q 411.116 91.591 411.415 91.699 Q 411.714 91.807 411.89 91.885 L 411.91 91.885 L 412.067 91.64 L 412.341 91.64 L 412.361 93.267 L 412.018 93.267 Q 411.831 92.512 411.498 92.253 Q 411.165 91.993 410.734 91.993 Q 410.283 91.993 410.053 92.189 Q 409.822 92.385 409.822 92.699 Q 409.822 92.953 409.979 93.12 Q 410.136 93.287 410.425 93.429 Q 410.714 93.571 411.116 93.767 Q 411.567 93.982 411.91 94.213 Q 412.253 94.443 412.449 94.732 Q 412.645 95.021 412.645 95.452 Q 412.645 95.972 412.37 96.285 Q 412.096 96.599 411.665 96.731 Q 411.234 96.864 410.763 96.864 Q 410.283 96.864 410.018 96.766 Q 409.754 96.668 409.528 96.579 L 409.489 96.579 L 409.244 96.834 L 409.019 96.834 Z " fill="black" /><path d="M 418.78 91.719 L 418.78 91.719 L 418.78 92.081 Q 418.437 92.081 418.275 92.233 Q 418.113 92.385 418.005 92.699 L 416.32 96.893 Q 416.026 97.657 415.727 98.123 Q 415.428 98.588 415.085 98.794 Q 414.742 99 414.291 99 Q 413.909 99 413.688 98.863 Q 413.468 98.726 413.468 98.412 Q 413.468 98.147 413.61 98.02 Q 413.752 97.893 413.997 97.893 Q 414.193 97.893 414.35 97.966 Q 414.507 98.04 414.639 98.113 Q 414.771 98.187 414.889 98.187 Q 414.997 98.187 415.149 97.986 Q 415.301 97.785 415.448 97.51 Q 415.595 97.236 415.693 96.996 Q 415.791 96.756 415.791 96.668 Q 415.791 96.628 415.746 96.511 Q 415.702 96.393 415.648 96.256 Q 415.595 96.119 415.546 96.031 L 413.899 92.463 Q 413.821 92.287 413.693 92.184 Q 413.566 92.081 413.282 92.081 L 413.282 91.719 L 415.595 91.719 L 415.595 92.091 Q 415.232 92.091 415.119 92.165 Q 415.007 92.238 415.007 92.375 Q 415.007 92.473 415.056 92.596 Q 415.105 92.718 415.144 92.826 L 416.163 95.051 L 416.339 95.609 L 416.398 95.609 L 417.437 92.65 Q 417.466 92.581 417.491 92.503 Q 417.515 92.424 417.515 92.356 Q 417.515 92.189 417.324 92.135 Q 417.133 92.081 416.859 92.081 L 416.859 91.719 Z " fill="black" /><path d="M 421.112 92.944 L 421.112 92.944 L 421.112 95.658 Q 421.112 95.952 421.171 96.109 Q 421.23 96.266 421.396 96.32 Q 421.563 96.374 421.886 96.374 L 421.886 96.736 L 419.417 96.736 L 419.417 96.374 Q 419.73 96.374 419.887 96.32 Q 420.044 96.266 420.093 96.104 Q 420.142 95.942 420.142 95.639 L 420.142 92.669 Q 420.142 92.395 420.039 92.302 Q 419.936 92.209 419.711 92.209 Q 419.603 92.209 419.52 92.218 Q 419.436 92.228 419.436 92.228 L 419.436 91.856 L 420.72 91.621 L 421.083 91.621 L 421.083 92.424 L 421.151 92.424 Q 421.563 92.052 421.974 91.822 Q 422.386 91.591 422.945 91.591 Q 423.405 91.591 423.694 91.826 Q 423.983 92.062 424.14 92.405 L 424.189 92.405 Q 425.081 91.591 425.904 91.591 Q 426.571 91.591 426.958 92.003 Q 427.345 92.414 427.345 93.306 L 427.345 95.462 Q 427.345 95.795 427.384 95.996 Q 427.423 96.197 427.58 96.285 Q 427.737 96.374 428.09 96.374 L 428.09 96.736 L 425.63 96.736 L 425.63 96.374 Q 425.992 96.374 426.154 96.281 Q 426.316 96.187 426.355 95.986 Q 426.394 95.786 426.394 95.462 L 426.394 93.424 Q 426.394 92.806 426.144 92.561 Q 425.894 92.316 425.502 92.316 Q 425.169 92.316 424.836 92.517 Q 424.503 92.718 424.248 92.914 L 424.248 95.462 Q 424.248 95.825 424.292 96.026 Q 424.336 96.227 424.508 96.3 Q 424.679 96.374 425.042 96.374 L 425.042 96.736 L 422.484 96.736 L 422.484 96.374 Q 422.856 96.374 423.028 96.3 Q 423.199 96.227 423.248 96.026 Q 423.297 95.825 423.297 95.462 L 423.297 93.394 Q 423.297 92.777 423.077 92.547 Q 422.856 92.316 422.474 92.316 Q 422.072 92.316 421.705 92.532 Q 421.337 92.748 421.112 92.944 Z " fill="black" /></g></g></g><g><g><g><path d="M 441.348 112.34 L 441.348 112.34 L 441.348 103.142 L 444.036 103.142 Q 445.086 103.142 445.877 103.401 Q 446.668 103.66 447.116 104.248 Q 447.564 104.836 447.564 105.844 Q 447.564 106.824 447.123 107.461 Q 446.682 108.098 445.905 108.406 Q 445.128 108.714 444.092 108.714 L 442.552 108.714 L 442.552 112.34 Z M 442.552 107.734 L 442.552 107.734 L 443.952 107.734 Q 445.17 107.734 445.765 107.286 Q 446.36 106.838 446.36 105.858 Q 446.36 104.864 445.744 104.486 Q 445.128 104.108 443.896 104.108 L 442.552 104.108 Z " fill="black" /><path d="M 453.094 102.414 L 453.094 102.414 L 449.454 113.586 L 448.67 113.586 L 452.324 102.414 Z " fill="black" /><path d="M 457.49 112.508 L 457.49 112.508 Q 456.482 112.508 455.649 112.137 Q 454.816 111.766 454.2 111.15 L 454.914 110.324 Q 455.418 110.842 456.097 111.15 Q 456.776 111.458 457.546 111.458 Q 458.442 111.458 458.953 111.052 Q 459.464 110.646 459.464 109.96 Q 459.464 109.512 459.261 109.232 Q 459.058 108.952 458.701 108.756 Q 458.344 108.56 457.896 108.378 L 456.552 107.804 Q 456.146 107.622 455.698 107.335 Q 455.25 107.048 454.949 106.593 Q 454.648 106.138 454.648 105.466 Q 454.648 104.738 455.033 104.178 Q 455.418 103.618 456.083 103.303 Q 456.748 102.988 457.588 102.988 Q 458.442 102.988 459.156 103.303 Q 459.87 103.618 460.374 104.122 L 459.744 104.892 Q 459.296 104.486 458.771 104.255 Q 458.246 104.024 457.616 104.024 Q 456.818 104.024 456.342 104.381 Q 455.866 104.738 455.866 105.354 Q 455.866 105.788 456.097 106.068 Q 456.328 106.348 456.685 106.53 Q 457.042 106.712 457.42 106.866 L 458.75 107.426 Q 459.282 107.65 459.723 107.965 Q 460.164 108.28 460.423 108.742 Q 460.682 109.204 460.682 109.848 Q 460.682 110.604 460.297 111.206 Q 459.912 111.808 459.198 112.158 Q 458.484 112.508 457.49 112.508 Z " fill="black" /></g></g></g><g><g><g><path d="M 488.379 89.166 L 488.379 89.166 L 487.945 89.166 Q 487.945 88.396 487.868 87.997 Q 487.791 87.598 487.455 87.444 Q 487.119 87.29 486.335 87.29 L 485.537 87.29 L 484.151 94.108 Q 484.025 94.738 484.06 95.039 Q 484.095 95.34 484.375 95.431 Q 484.655 95.522 485.243 95.522 L 485.159 95.942 L 481.169 95.942 L 481.253 95.522 Q 481.841 95.522 482.149 95.431 Q 482.457 95.34 482.611 95.039 Q 482.765 94.738 482.891 94.108 L 484.277 87.29 L 483.479 87.29 Q 482.891 87.29 482.541 87.374 Q 482.191 87.458 481.967 87.661 Q 481.743 87.864 481.568 88.228 Q 481.393 88.592 481.155 89.166 L 480.707 89.166 L 481.281 86.744 L 488.799 86.744 Z " fill="black" /><path d="M 489.447 91.562 L 489.447 91.562 L 489.447 94.6 L 489.496 94.6 Q 489.78 94.267 490.167 94.002 Q 490.554 93.737 491.103 93.737 Q 491.613 93.737 492.029 94.046 Q 492.446 94.355 492.695 94.899 Q 492.945 95.443 492.945 96.148 Q 492.945 97.089 492.602 97.726 Q 492.259 98.363 491.666 98.681 Q 491.074 99 490.319 99 Q 489.878 99 489.506 98.927 Q 489.133 98.853 488.873 98.755 Q 488.614 98.657 488.496 98.608 L 488.496 92.728 Q 488.496 92.365 488.418 92.263 Q 488.339 92.16 488.006 92.16 Q 487.898 92.16 487.805 92.174 Q 487.712 92.189 487.712 92.189 L 487.712 91.817 L 489.045 91.562 Z M 489.447 95.109 L 489.447 95.109 L 489.447 98.049 Q 489.564 98.265 489.819 98.392 Q 490.074 98.52 490.495 98.52 Q 491.015 98.52 491.328 98.24 Q 491.642 97.961 491.784 97.496 Q 491.926 97.03 491.926 96.481 Q 491.926 95.982 491.813 95.526 Q 491.701 95.07 491.417 94.786 Q 491.132 94.502 490.633 94.502 Q 490.368 94.502 490.128 94.605 Q 489.888 94.708 489.711 94.85 Q 489.535 94.992 489.447 95.109 Z " fill="black" /></g></g></g></svg>