<svg xmlns="http://www.w3.org/2000/svg" xmlns:xlink="http://www.w3.org/1999/xlink" xml:lang="en" height="249.75480000000005pt" width="700.0843999999998pt" viewBox="-26.784399999999994 -22.6 700.0843999999998 249.75480000000005"><circle cx="630.0" cy="-0.0" r="2.6999999999999997" style="stroke:black;fill:black;stroke-width:2.0;stroke-dasharray:-;" /><circle cx="648.0" cy="-0.0" r="2.6999999999999997" style="stroke:black;fill:black;stroke-width:2.0;stroke-dasharray:-;" /><circle cx="666.0" cy="-0.0" r="2.6999999999999997" style="stroke:black;fill:black;stroke-width:2.0;stroke-dasharray:-;" /><circle cx="630.0" cy="216.0" r="2.6999999999999997" style="stroke:black;fill:black;stroke-width:2.0;stroke-dasharray:-;" /><circle cx="648.0" cy="216.0" r="2.6999999999999997" style="stroke:black;fill:black;stroke-width:2.0;stroke-dasharray:-;" /><circle cx="666.0" cy="216.0" r="2.6999999999999997" style="stroke:black;fill:black;stroke-width:2.0;stroke-dasharray:-;" /><path d="M 0.0,-0.0 L 18.0,-0.0 L 36.0,-0.0" style="stroke:black;fill:none;stroke-width:2.0;stroke-dasharray:-;stroke-linecap:round;stroke-linejoin:round;" /><path d="M 36.0,-0.0 L 35.99999999999999,36.0 L 35.999999999999986,72.0" style="stroke:black;fill:none;stroke-width:2.0;stroke-dasharray:-;stroke-linecap:round;stroke-linejoin:round;" /><path d="M 35.999999999999986,72.0 L 44.999999999999986,72.0 L 53.999999999999986,72.0" style="stroke:black;fill:none;stroke-width:2.0;stroke-dasharray:-;stroke-linecap:round;stroke-linejoin:round;" /><path d="M 71.99999999999999,162.0 L 143.99999999999997,162.0 L 143.99999999999997,54.0 L 71.99999999999999,54.0 L 71.99999999999999,162.0" style="stroke:black;fill:none;stroke-width:2.0;stroke-dasharray:-;stroke-linecap:round;stroke-linejoin:round;" /><path d="M 71.99999999999999,72.0 L 53.999999999999986,72.0" style="stroke:black;fill:none;stroke-width:2.0;stroke-dasharray:-;stroke-linecap:round;stroke-linejoin:round;" /><path d="M 71.99999999999999,144.0 L 53.999999999999986,144.0" style="stroke:black;fill:none;stroke-width:2.0;stroke-dasharray:-;stroke-linecap:round;stroke-linejoin:round;" /><path d="M 71.99999999999999,137.70000000000002 L 84.6,144.0 L 71.99999999999999,150.29999999999998" style="stroke:black;fill:none;stroke-width:2.0;stroke-dasharray:-;stroke-linecap:round;stroke-linejoin:round;" /><path d="M 143.99999999999997,72.0 L 162.0,72.0" style="stroke:black;fill:none;stroke-width:2.0;stroke-dasharray:-;stroke-linecap:round;stroke-linejoin:round;" /><path d="M 143.99999999999997,144.0 L 162.0,144.0" style="stroke:black;fill:none;stroke-width:2.0;stroke-dasharray:-;stroke-linecap:round;stroke-linejoin:round;" /><path d="M 53.999999999999986,144.0 L 44.999999999999986,144.0 L 35.999999999999986,144.0" style="stroke:black;fill:none;stroke-width:2.0;stroke-dasharray:-;stroke-linecap:round;stroke-linejoin:round;" /><path d="M 35.999999999999986,144.0 L 35.99999999999998,180.0 L 35.99999999999997,216.0" style="stroke:black;fill:none;stroke-width:2.0;stroke-dasharray:-;stroke-linecap:round;stroke-linejoin:round;" /><path d="M 36.0,-0.0 L 96.3,-0.0 M 119.7,-0.0 L 180.0,-0.0" style="stroke:black;fill:none;stroke-width:2.0;stroke-dasharray:-;stroke-linecap:round;stroke-linejoin:round;" /><path d="M 96.3,-18.0 L 119.7,-0.0 L 96.3,18.0 L 96.3,-18.0" style="stroke:black;fill:none;stroke-width:2.0;stroke-dasharray:-;stroke-linecap:round;stroke-linejoin:round;" /><path d="M 180.0,-0.0 L 180.0,36.0 L 180.0,72.0" style="stroke:black;fill:none;stroke-width:2.0;stroke-dasharray:-;stroke-linecap:round;stroke-linejoin:round;" /><path d="M 180.0,72.0 L 189.0,72.0 L 198.0,72.0" style="stroke:black;fill:none;stroke-width:2.0;stroke-dasharray:-;stroke-linecap:round;stroke-linejoin:round;" /><path d="M 216.0,162.0 L 288.0,162.0 L 288.0,54.0 L 216.0,54.0 L 216.0,162.0" style="stroke:black;fill:none;stroke-width:2.0;stroke-dasharray:-;stroke-linecap:round;stroke-linejoin:round;" /><path d="M 216.0,72.0 L 198.0,72.0" style="stroke:black;fill:none;stroke-width:2.0;stroke-dasharray:-;stroke-linecap:round;stroke-linejoin:round;" /><path d="M 216.0,144.0 L 198.0,144.0" style="stroke:black;fill:none;stroke-width:2.0;stroke-dasharray:-;stroke-linecap:round;stroke-linejoin:round;" /><path d="M 216.0,137.70000000000002 L 228.6,144.0 L 216.0,150.29999999999998" style="stroke:black;fill:none;stroke-width:2.0;stroke-dasharray:-;stroke-linecap:round;stroke-linejoin:round;" /><path d="M 288.0,72.0 L 306.0,72.0" style="stroke:black;fill:none;stroke-width:2.0;stroke-dasharray:-;stroke-linecap:round;stroke-linejoin:round;" /><path d="M 288.0,144.0 L 306.0,144.0" style="stroke:black;fill:none;stroke-width:2.0;stroke-dasharray:-;stroke-linecap:round;stroke-linejoin:round;" /><path d="M 198.0,144.0 L 189.0,144.0 L 180.0,144.0" style="stroke:black;fill:none;stroke-width:2.0;stroke-dasharray:-;stroke-linecap:round;stroke-linejoin:round;" /><path d="M 180.0,144.0 L 180.0,180.0 L 180.0,216.0" style="stroke:black;fill:none;stroke-width:2.0;stroke-dasharray:-;stroke-linecap:round;stroke-linejoin:round;" /><path d="M 180.0,-0.0 L 240.29999999999998,-0.0 M 263.7,-0.0 L 324.0,-0.0" style="stroke:black;fill:none;stroke-width:2.0;stroke-dasharray:-;stroke-linecap:round;stroke-linejoin:round;" /><path d="M 240.29999999999998,-18.0 L 263.7,-0.0 L 240.29999999999998,18.0 L 240.29999999999998,-18.0" style="stroke:black;fill:none;stroke-width:2.0;stroke-dasharray:-;stroke-linecap:round;stroke-linejoin:round;" /><path d="M 324.0,-0.0 L 324.0,36.0 L 324.0,72.0" style="stroke:black;fill:none;stroke-width:2.0;stroke-dasharray:-;stroke-linecap:round;stroke-linejoin:round;" /><path d="M 324.0,72.0 L 333.0,72.0 L 342.0,72.0" style="stroke:black;fill:none;stroke-width:2.0;stroke-dasharray:-;stroke-linecap:round;stroke-linejoin:round;" /><path d="M 360.0,162.0 L 432.0,162.0 L 432.0,54.0 L 360.0,54.0 L 360.0,162.0" style="stroke:black;fill:none;stroke-width:2.0;stroke-dasharray:-;stroke-linecap:round;stroke-linejoin:round;" /><path d="M 360.0,72.0 L 342.0,72.0" style="stroke:black;fill:none;stroke-width:2.0;stroke-dasharray:-;stroke-linecap:round;stroke-linejoin:round;" /><path d="M 360.0,144.0 L 342.0,144.0" style="stroke:black;fill:none;stroke-width:2.0;stroke-dasharray:-;stroke-linecap:round;stroke-linejoin:round;" /><path d="M 360.0,137.70000000000002 L 372.59999999999997,144.0 L 360.0,150.29999999999998" style="stroke:black;fill:none;stroke-width:2.0;stroke-dasharray:-;stroke-linecap:round;stroke-linejoin:round;" /><path d="M 432.0,72.0 L 450.0,72.0" style="stroke:black;fill:none;stroke-width:2.0;stroke-dasharray:-;stroke-linecap:round;stroke-linejoin:round;" /><path d="M 432.0,144.0 L 450.0,144.0" style="stroke:black;fill:none;stroke-width:2.0;stroke-dasharray:-;stroke-linecap:round;stroke-linejoin:round;" /><path d="M 342.0,144.0 L 333.0,144.0 L 324.0,144.0" style="stroke:black;fill:none;stroke-width:2.0;stroke-dasharray:-;stroke-linecap:round;stroke-linejoin:round;" /><path d="M 324.0,144.0 L 324.0,180.0 L 324.0,216.0" style="stroke:black;fill:none;stroke-width:2.0;stroke-dasharray:-;stroke-linecap:round;stroke-linejoin:round;" /><path d="M 324.0,-0.0 L 384.3,-0.0 M 407.7,-0.0 L 468.0,-0.0" style="stroke:black;fill:none;stroke-width:2.0;stroke-dasharray:-;stroke-linecap:round;stroke-linejoin:round;" /><path d="M 384.3,-18.0 L 407.7,-0.0 L 384.3,18.0 L 384.3,-18.0" style="stroke:black;fill:none;stroke-width:2.0;stroke-dasharray:-;stroke-linecap:round;stroke-linejoin:round;" /><path d="M 468.0,-0.0 L 468.0,36.0 L 468.0,72.0" style="stroke:black;fill:none;stroke-width:2.0;stroke-dasharray:-;stroke-linecap:round;stroke-linejoin:round;" /><path d="M 468.0,72.0 L 477.0,72.0 L 486.0,72.0" style="stroke:black;fill:none;stroke-width:2.0;stroke-dasharray:-;stroke-linecap:round;stroke-linejoin:round;" /><path d="M 504.0,162.0 L 576.0,162.0 L 576.0,54.0 L 504.0,54.0 L 504.0,162.0" style="stroke:black;fill:none;stroke-width:2.0;stroke-dasharray:-;stroke-linecap:round;stroke-linejoin:round;" /><path d="M 504.0,72.0 L 486.0,72.0" style="stroke:black;fill:none;stroke-width:2.0;stroke-dasharray:-;stroke-linecap:round;stroke-linejoin:round;" /><path d="M 504.0,144.0 L 486.0,144.0" style="stroke:black;fill:none;stroke-width:2.0;stroke-dasharray:-;stroke-linecap:round;stroke-linejoin:round;" /><path d="M 504.0,137.70000000000002 L 516.6,144.0 L 504.0,150.29999999999998" style="stroke:black;fill:none;stroke-width:2.0;stroke-dasharray:-;stroke-linecap:round;stroke-linejoin:round;" /><path d="M 576.0,72.0 L 594.0,72.0" style="stroke:black;fill:none;stroke-width:2.0;stroke-dasharray:-;stroke-linecap:round;stroke-linejoin:round;" /><path d="M 576.0,144.0 L 594.0,144.0" style="stroke:black;fill:none;stroke-width:2.0;stroke-dasharray:-;stroke-linecap:round;stroke-linejoin:round;" /><path d="M 486.0,144.0 L 477.0,144.0 L 468.0,144.0" style="stroke:black;fill:none;stroke-width:2.0;stroke-dasharray:-;stroke-linecap:round;stroke-linejoin:round;" /><path d="M 468.0,144.0 L 468.0,180.0 L 468.0,216.0" style="stroke:black;fill:none;stroke-width:2.0;stroke-dasharray:-;stroke-linecap:round;stroke-linejoin:round;" /><path d="M 468.0,-0.0 L 528.3000000000001,-0.0 M 551.6999999999999,-0.0 L 612.0,-0.0" style="stroke:black;fill:none;stroke-width:2.0;stroke-dasharray:-;stroke-linecap:round;stroke-linejoin:round;" /><path d="M 528.3000000000001,-18.0 L 551.6999999999999,-0.0 L 528.3000000000001,18.0 L 528.3000000000001,-18.0" style="stroke:black;fill:none;stroke-width:2.0;stroke-dasharray:-;stroke-linecap:round;stroke-linejoin:round;" /><path d="M 468.0,216.0 L 252.0,215.99999999999997 L 36.0,215.99999999999994" style="stroke:black;fill:none;stroke-width:2.0;stroke-dasharray:-;stroke-linecap:round;stroke-linejoin:round;" /><path d="M 468.0,216.0 L 540.0,216.0 L 612.0,216.0" style="stroke:black;fill:none;stroke-width:2.0;stroke-dasharray:-;stroke-linecap:round;stroke-linejoin:round;" /><path d="M 35.99999999999997,216.0 L 17.99999999999997,216.0 L -2.7977620220553945e-14,216.0" style="stroke:black;fill:none;stroke-width:2.0;stroke-dasharray:-;stroke-linecap:round;stroke-linejoin:round;" /><circle cx="0.0" cy="-0.0" r="2.6999999999999997" style="stroke:black;fill:white;stroke-width:2.0;stroke-dasharray:-;" /><g><g><g><path d="M -22.894 -3.136 L -22.894 -3.136 L -21.69 -3.136 Q -21.564 -3.724 -21.417 -4.27 Q -21.27 -4.816 -21.032 -5.25 Q -20.85 -5.586 -20.584 -5.88 Q -20.318 -6.174 -19.905 -6.363 Q -19.492 -6.552 -18.89 -6.552 Q -18.246 -6.552 -17.903 -6.265 Q -17.56 -5.978 -17.56 -5.53 Q -17.56 -5.222 -17.728 -5.068 Q -17.896 -4.914 -18.12 -4.914 Q -18.4 -4.914 -18.526 -5.075 Q -18.652 -5.236 -18.68 -5.46 Q -18.722 -5.726 -18.785 -5.936 Q -18.848 -6.146 -19.1 -6.146 Q -19.632 -6.146 -19.926 -5.586 Q -20.22 -5.026 -20.374 -4.13 L -20.542 -3.136 L -19.212 -3.136 L -19.296 -2.562 L -20.612 -2.562 L -21.41 2.212 Q -21.466 2.576 -21.585 3.122 Q -21.704 3.668 -21.914 4.263 Q -22.124 4.858 -22.425 5.376 Q -22.726 5.894 -23.16 6.223 Q -23.594 6.552 -24.168 6.552 Q -24.84 6.552 -25.127 6.23 Q -25.414 5.908 -25.414 5.544 Q -25.414 5.25 -25.267 5.054 Q -25.12 4.858 -24.854 4.858 Q -24.532 4.858 -24.42 5.047 Q -24.308 5.236 -24.28 5.481 Q -24.252 5.726 -24.196 5.915 Q -24.14 6.104 -23.944 6.104 Q -23.664 6.104 -23.454 5.74 Q -23.244 5.376 -23.09 4.837 Q -22.936 4.298 -22.838 3.766 Q -22.74 3.234 -22.684 2.884 L -21.774 -2.562 L -22.95 -2.562 Z " fill="black" /><path d="M -18.096 1.226 L -18.096 1.226 L -18.096 2.285 L -18.038 2.285 Q -17.646 1.736 -17.337 1.447 Q -17.028 1.158 -16.666 1.158 Q -16.038 1.158 -16.038 1.775 Q -16.038 2.118 -16.19 2.255 Q -16.342 2.393 -16.519 2.393 Q -16.695 2.393 -16.837 2.295 Q -16.979 2.197 -17.077 2.099 Q -17.175 2.001 -17.224 2.001 Q -17.381 2.001 -17.631 2.265 Q -17.881 2.53 -18.077 2.863 L -18.077 5.215 Q -18.077 5.695 -17.866 5.837 Q -17.655 5.979 -17.116 5.979 L -17.116 6.342 L -19.782 6.342 L -19.782 5.979 Q -19.449 5.979 -19.292 5.921 Q -19.135 5.862 -19.086 5.71 Q -19.037 5.558 -19.037 5.284 L -19.037 2.442 Q -19.037 2.128 -19.091 1.971 Q -19.145 1.814 -19.449 1.814 Q -19.586 1.814 -19.684 1.824 Q -19.782 1.834 -19.782 1.834 L -19.782 1.471 L -18.459 1.226 Z " fill="black" /><path d="M -11.129 4.882 L -11.129 4.882 L -10.893 5.068 Q -11.099 5.44 -11.354 5.754 Q -11.609 6.068 -11.981 6.254 Q -12.354 6.44 -12.922 6.44 Q -13.539 6.44 -14.073 6.161 Q -14.608 5.881 -14.931 5.303 Q -15.254 4.725 -15.254 3.843 Q -15.254 2.971 -14.951 2.383 Q -14.647 1.795 -14.127 1.496 Q -13.608 1.197 -12.971 1.197 Q -12.089 1.197 -11.506 1.81 Q -10.923 2.422 -10.903 3.637 L -14.353 3.637 Q -14.353 4.304 -14.103 4.74 Q -13.853 5.176 -13.461 5.387 Q -13.069 5.597 -12.638 5.597 Q -12.197 5.597 -11.932 5.504 Q -11.668 5.411 -11.486 5.244 Q -11.305 5.078 -11.129 4.882 Z M -14.353 3.186 L -14.353 3.186 L -11.952 3.186 Q -11.952 2.794 -12.079 2.447 Q -12.207 2.099 -12.452 1.878 Q -12.697 1.658 -13.079 1.658 Q -13.637 1.658 -13.966 2.05 Q -14.294 2.442 -14.353 3.186 Z " fill="black" /><path d="M -9.933 1.324 L -9.933 1.324 L -9.149 1.324 Q -9.149 0.805 -9.075 0.442 Q -9.002 0.08 -8.816 -0.283 Q -8.59 -0.636 -8.272 -0.856 Q -7.953 -1.077 -7.365 -1.077 Q -6.866 -1.077 -6.513 -0.885 Q -6.16 -0.694 -6.16 -0.322 Q -6.16 -0.087 -6.292 0.036 Q -6.425 0.158 -6.601 0.158 Q -6.817 0.158 -6.939 0.036 Q -7.062 -0.087 -7.258 -0.293 Q -7.395 -0.489 -7.503 -0.562 Q -7.61 -0.636 -7.757 -0.636 Q -8.032 -0.636 -8.12 -0.371 Q -8.208 -0.106 -8.208 0.54 L -8.208 1.324 L -6.934 1.324 L -6.934 1.805 L -8.208 1.805 L -8.208 5.039 Q -8.208 5.44 -8.12 5.641 Q -8.032 5.842 -7.797 5.911 Q -7.561 5.979 -7.13 5.979 L -7.13 6.342 L -10.021 6.342 L -10.021 5.979 Q -9.649 5.979 -9.463 5.911 Q -9.276 5.842 -9.213 5.641 Q -9.149 5.44 -9.149 5.039 L -9.149 1.805 L -9.933 1.805 Z " fill="black" /></g></g></g><g><g><g><path d="M 78.688 76.599 L 78.688 76.599 L 78.688 67.401 L 81.04 67.401 Q 83.21 67.401 84.344 68.584 Q 85.478 69.767 85.478 71.965 Q 85.478 74.163 84.351 75.381 Q 83.224 76.599 81.096 76.599 Z M 79.892 75.619 L 79.892 75.619 L 80.956 75.619 Q 82.608 75.619 83.427 74.66 Q 84.246 73.701 84.246 71.965 Q 84.246 70.229 83.427 69.305 Q 82.608 68.381 80.956 68.381 L 79.892 68.381 Z " fill="black" /></g></g></g><g><g><g><path d="M 137.466 77.831 L 137.466 77.831 Q 136.178 77.831 135.296 77.215 Q 134.414 76.599 134.008 75.647 Q 133 75.507 132.23 74.898 Q 131.46 74.289 131.026 73.267 Q 130.592 72.245 130.592 70.887 Q 130.592 69.417 131.103 68.36 Q 131.614 67.303 132.517 66.736 Q 133.42 66.169 134.596 66.169 Q 135.786 66.169 136.689 66.736 Q 137.592 67.303 138.103 68.36 Q 138.614 69.417 138.614 70.887 Q 138.614 72.217 138.201 73.218 Q 137.788 74.219 137.039 74.842 Q 136.29 75.465 135.296 75.633 Q 135.618 76.235 136.227 76.536 Q 136.836 76.837 137.62 76.837 Q 137.914 76.837 138.152 76.802 Q 138.39 76.767 138.572 76.711 L 138.81 77.635 Q 138.6 77.705 138.25 77.768 Q 137.9 77.831 137.466 77.831 Z M 134.596 74.695 L 134.596 74.695 Q 135.436 74.695 136.059 74.233 Q 136.682 73.771 137.025 72.917 Q 137.368 72.063 137.368 70.901 Q 137.368 69.165 136.612 68.185 Q 135.856 67.205 134.596 67.205 Q 133.336 67.205 132.58 68.192 Q 131.824 69.179 131.824 70.901 Q 131.824 72.049 132.167 72.903 Q 132.51 73.757 133.133 74.226 Q 133.756 74.695 134.596 74.695 Z " fill="black" /></g></g></g><g><g><g><path d="M 138.292 143.447 L 138.292 143.447 Q 138.292 145.071 137.746 146.254 Q 137.2 147.437 136.283 148.158 Q 135.366 148.879 134.246 149.131 L 134.246 149.173 Q 134.456 149.481 134.694 149.838 Q 134.932 150.195 135.268 150.503 Q 135.604 150.811 136.108 151.007 Q 136.612 151.203 137.368 151.203 L 137.298 151.595 L 136.598 151.595 Q 135.52 151.595 134.834 151.413 Q 134.148 151.231 133.749 150.853 Q 133.35 150.475 133.126 149.887 L 132.916 149.285 Q 131.278 149.187 130.417 148.305 Q 129.556 147.423 129.542 145.645 Q 129.542 144.385 129.934 143.321 Q 130.326 142.257 131.026 141.466 Q 131.726 140.675 132.678 140.241 Q 133.63 139.807 134.75 139.807 Q 135.996 139.807 136.78 140.318 Q 137.564 140.829 137.928 141.662 Q 138.292 142.495 138.292 143.447 Z M 136.864 143.363 L 136.864 143.363 Q 136.864 142.061 136.311 141.235 Q 135.758 140.409 134.54 140.409 Q 133.602 140.409 132.79 141.046 Q 131.978 141.683 131.481 142.88 Q 130.984 144.077 130.984 145.771 Q 130.984 147.115 131.495 147.927 Q 132.006 148.739 133.238 148.739 Q 134.372 148.739 135.184 148.06 Q 135.996 147.381 136.43 146.17 Q 136.864 144.959 136.864 143.363 Z " fill="black" /><rect x="128.702" y="136.881" width="9.058" height="0.952" fill="black" /></g></g></g><circle cx="35.99999999999997" cy="216.0" r="2.6999999999999997" style="stroke:black;fill:black;stroke-width:2.0;stroke-dasharray:-;" /><g><g><g><path d="M 222.688 76.599 L 222.688 76.599 L 222.688 67.401 L 225.04 67.401 Q 227.21 67.401 228.344 68.584 Q 229.478 69.767 229.478 71.965 Q 229.478 74.163 228.351 75.381 Q 227.224 76.599 225.096 76.599 Z M 223.892 75.619 L 223.892 75.619 L 224.956 75.619 Q 226.608 75.619 227.427 74.66 Q 228.246 73.701 228.246 71.965 Q 228.246 70.229 227.427 69.305 Q 226.608 68.381 224.956 68.381 L 223.892 68.381 Z " fill="black" /></g></g></g><g><g><g><path d="M 281.466 77.831 L 281.466 77.831 Q 280.178 77.831 279.296 77.215 Q 278.414 76.599 278.008 75.647 Q 277 75.507 276.23 74.898 Q 275.46 74.289 275.026 73.267 Q 274.592 72.245 274.592 70.887 Q 274.592 69.417 275.103 68.36 Q 275.614 67.303 276.517 66.736 Q 277.42 66.169 278.596 66.169 Q 279.786 66.169 280.689 66.736 Q 281.592 67.303 282.103 68.36 Q 282.614 69.417 282.614 70.887 Q 282.614 72.217 282.201 73.218 Q 281.788 74.219 281.039 74.842 Q 280.29 75.465 279.296 75.633 Q 279.618 76.235 280.227 76.536 Q 280.836 76.837 281.62 76.837 Q 281.914 76.837 282.152 76.802 Q 282.39 76.767 282.572 76.711 L 282.81 77.635 Q 282.6 77.705 282.25 77.768 Q 281.9 77.831 281.466 77.831 Z M 278.596 74.695 L 278.596 74.695 Q 279.436 74.695 280.059 74.233 Q 280.682 73.771 281.025 72.917 Q 281.368 72.063 281.368 70.901 Q 281.368 69.165 280.612 68.185 Q 279.856 67.205 278.596 67.205 Q 277.336 67.205 276.58 68.192 Q 275.824 69.179 275.824 70.901 Q 275.824 72.049 276.167 72.903 Q 276.51 73.757 277.133 74.226 Q 277.756 74.695 278.596 74.695 Z " fill="black" /></g></g></g><g><g><g><path d="M 282.292 143.447 L 282.292 143.447 Q 282.292 145.071 281.746 146.254 Q 281.2 147.437 280.283 148.158 Q 279.366 148.879 278.246 149.131 L 278.246 149.173 Q 278.456 149.481 278.694 149.838 Q 278.932 150.195 279.268 150.503 Q 279.604 150.811 280.108 151.007 Q 280.612 151.203 281.368 151.203 L 281.298 151.595 L 280.598 151.595 Q 279.52 151.595 278.834 151.413 Q 278.148 151.231 277.749 150.853 Q 277.35 150.475 277.126 149.887 L 276.916 149.285 Q 275.278 149.187 274.417 148.305 Q 273.556 147.423 273.542 145.645 Q 273.542 144.385 273.934 143.321 Q 274.326 142.257 275.026 141.466 Q 275.726 140.675 276.678 140.241 Q 277.63 139.807 278.75 139.807 Q 279.996 139.807 280.78 140.318 Q 281.564 140.829 281.928 141.662 Q 282.292 142.495 282.292 143.447 Z M 280.864 143.363 L 280.864 143.363 Q 280.864 142.061 280.311 141.235 Q 279.758 140.409 278.54 140.409 Q 277.602 140.409 276.79 141.046 Q 275.978 141.683 275.481 142.88 Q 274.984 144.077 274.984 145.771 Q 274.984 147.115 275.495 147.927 Q 276.006 148.739 277.238 148.739 Q 278.372 148.739 279.184 148.06 Q 279.996 147.381 280.43 146.17 Q 280.864 144.959 280.864 143.363 Z " fill="black" /><rect x="272.702" y="136.881" width="9.058" height="0.952" fill="black" /></g></g></g><circle cx="180.0" cy="216.0" r="2.6999999999999997" style="stroke:black;fill:black;stroke-width:2.0;stroke-dasharray:-;" /><g><g><g><path d="M 366.688 76.599 L 366.688 76.599 L 366.688 67.401 L 369.04 67.401 Q 371.21 67.401 372.344 68.584 Q 373.478 69.767 373.478 71.965 Q 373.478 74.163 372.351 75.381 Q 371.224 76.599 369.096 76.599 Z M 367.892 75.619 L 367.892 75.619 L 368.956 75.619 Q 370.608 75.619 371.427 74.66 Q 372.246 73.701 372.246 71.965 Q 372.246 70.229 371.427 69.305 Q 370.608 68.381 368.956 68.381 L 367.892 68.381 Z " fill="black" /></g></g></g><g><g><g><path d="M 425.466 77.831 L 425.466 77.831 Q 424.178 77.831 423.296 77.215 Q 422.414 76.599 422.008 75.647 Q 421 75.507 420.23 74.898 Q 419.46 74.289 419.026 73.267 Q 418.592 72.245 418.592 70.887 Q 418.592 69.417 419.103 68.36 Q 419.614 67.303 420.517 66.736 Q 421.42 66.169 422.596 66.169 Q 423.786 66.169 424.689 66.736 Q 425.592 67.303 426.103 68.36 Q 426.614 69.417 426.614 70.887 Q 426.614 72.217 426.201 73.218 Q 425.788 74.219 425.039 74.842 Q 424.29 75.465 423.296 75.633 Q 423.618 76.235 424.227 76.536 Q 424.836 76.837 425.62 76.837 Q 425.914 76.837 426.152 76.802 Q 426.39 76.767 426.572 76.711 L 426.81 77.635 Q 426.6 77.705 426.25 77.768 Q 425.9 77.831 425.466 77.831 Z M 422.596 74.695 L 422.596 74.695 Q 423.436 74.695 424.059 74.233 Q 424.682 73.771 425.025 72.917 Q 425.368 72.063 425.368 70.901 Q 425.368 69.165 424.612 68.185 Q 423.856 67.205 422.596 67.205 Q 421.336 67.205 420.58 68.192 Q 419.824 69.179 419.824 70.901 Q 419.824 72.049 420.167 72.903 Q 420.51 73.757 421.133 74.226 Q 421.756 74.695 422.596 74.695 Z " fill="black" /></g></g></g><g><g><g><path d="M 426.292 143.447 L 426.292 143.447 Q 426.292 145.071 425.746 146.254 Q 425.2 147.437 424.283 148.158 Q 423.366 148.879 422.246 149.131 L 422.246 149.173 Q 422.456 149.481 422.694 149.838 Q 422.932 150.195 423.268 150.503 Q 423.604 150.811 424.108 151.007 Q 424.612 151.203 425.368 151.203 L 425.298 151.595 L 424.598 151.595 Q 423.52 151.595 422.834 151.413 Q 422.148 151.231 421.749 150.853 Q 421.35 150.475 421.126 149.887 L 420.916 149.285 Q 419.278 149.187 418.417 148.305 Q 417.556 147.423 417.542 145.645 Q 417.542 144.385 417.934 143.321 Q 418.326 142.257 419.026 141.466 Q 419.726 140.675 420.678 140.241 Q 421.63 139.807 422.75 139.807 Q 423.996 139.807 424.78 140.318 Q 425.564 140.829 425.928 141.662 Q 426.292 142.495 426.292 143.447 Z M 424.864 143.363 L 424.864 143.363 Q 424.864 142.061 424.311 141.235 Q 423.758 140.409 422.54 140.409 Q 421.602 140.409 420.79 141.046 Q 419.978 141.683 419.481 142.88 Q 418.984 144.077 418.984 145.771 Q 418.984 147.115 419.495 147.927 Q 420.006 148.739 421.238 148.739 Q 422.372 148.739 423.184 148.06 Q 423.996 147.381 424.43 146.17 Q 424.864 144.959 424.864 143.363 Z " fill="black" /><rect x="416.702" y="136.881" width="9.058" height="0.952" fill="black" /></g></g></g><circle cx="324.0" cy="216.0" r="2.6999999999999997" style="stroke:black;fill:black;stroke-width:2.0;stroke-dasharray:-;" /><g><g><g><path d="M 510.688 76.599 L 510.688 76.599 L 510.688 67.401 L 513.04 67.401 Q 515.21 67.401 516.344 68.584 Q 517.478 69.767 517.478 71.965 Q 517.478 74.163 516.351 75.381 Q 515.224 76.599 513.096 76.599 Z M 511.892 75.619 L 511.892 75.619 L 512.956 75.619 Q 514.608 75.619 515.427 74.66 Q 516.246 73.701 516.246 71.965 Q 516.246 70.229 515.427 69.305 Q 514.608 68.381 512.956 68.381 L 511.892 68.381 Z " fill="black" /></g></g></g><g><g><g><path d="M 569.466 77.831 L 569.466 77.831 Q 568.178 77.831 567.296 77.215 Q 566.414 76.599 566.008 75.647 Q 565 75.507 564.23 74.898 Q 563.46 74.289 563.026 73.267 Q 562.592 72.245 562.592 70.887 Q 562.592 69.417 563.103 68.36 Q 563.614 67.303 564.517 66.736 Q 565.42 66.169 566.596 66.169 Q 567.786 66.169 568.689 66.736 Q 569.592 67.303 570.103 68.36 Q 570.614 69.417 570.614 70.887 Q 570.614 72.217 570.201 73.218 Q 569.788 74.219 569.039 74.842 Q 568.29 75.465 567.296 75.633 Q 567.618 76.235 568.227 76.536 Q 568.836 76.837 569.62 76.837 Q 569.914 76.837 570.152 76.802 Q 570.39 76.767 570.572 76.711 L 570.81 77.635 Q 570.6 77.705 570.25 77.768 Q 569.9 77.831 569.466 77.831 Z M 566.596 74.695 L 566.596 74.695 Q 567.436 74.695 568.059 74.233 Q 568.682 73.771 569.025 72.917 Q 569.368 72.063 569.368 70.901 Q 569.368 69.165 568.612 68.185 Q 567.856 67.205 566.596 67.205 Q 565.336 67.205 564.58 68.192 Q 563.824 69.179 563.824 70.901 Q 563.824 72.049 564.167 72.903 Q 564.51 73.757 565.133 74.226 Q 565.756 74.695 566.596 74.695 Z " fill="black" /></g></g></g><g><g><g><path d="M 570.292 143.447 L 570.292 143.447 Q 570.292 145.071 569.746 146.254 Q 569.2 147.437 568.283 148.158 Q 567.366 148.879 566.246 149.131 L 566.246 149.173 Q 566.456 149.481 566.694 149.838 Q 566.932 150.195 567.268 150.503 Q 567.604 150.811 568.108 151.007 Q 568.612 151.203 569.368 151.203 L 569.298 151.595 L 568.598 151.595 Q 567.52 151.595 566.834 151.413 Q 566.148 151.231 565.749 150.853 Q 565.35 150.475 565.126 149.887 L 564.916 149.285 Q 563.278 149.187 562.417 148.305 Q 561.556 147.423 561.542 145.645 Q 561.542 144.385 561.934 143.321 Q 562.326 142.257 563.026 141.466 Q 563.726 140.675 564.678 140.241 Q 565.63 139.807 566.75 139.807 Q 567.996 139.807 568.78 140.318 Q 569.564 140.829 569.928 141.662 Q 570.292 142.495 570.292 143.447 Z M 568.864 143.363 L 568.864 143.363 Q 568.864 142.061 568.311 141.235 Q 567.758 140.409 566.54 140.409 Q 565.602 140.409 564.79 141.046 Q 563.978 141.683 563.481 142.88 Q 562.984 144.077 562.984 145.771 Q 562.984 147.115 563.495 147.927 Q 564.006 148.739 565.238 148.739 Q 566.372 148.739 567.184 148.06 Q 567.996 147.381 568.43 146.17 Q 568.864 144.959 568.864 143.363 Z " fill="black" /><rect x="560.702" y="136.881" width="9.058" height="0.952" fill="black" /></g></g></g><circle cx="468.0" cy="216.0" r="2.6999999999999997" style="stroke:black;fill:black;stroke-width:2.0;stroke-dasharray:-;" /><circle cx="-2.7977620220553945e-14" cy="216.0" r="2.6999999999999997" style="stroke:black;fill:white;stroke-width:2.0;stroke-dasharray:-;" /><g><g><g><path d="M -19.141 212.864 L -19.141 212.864 L -17.937 212.864 Q -17.811 212.276 -17.664 211.73 Q -17.517 211.184 -17.279 210.75 Q -17.097 210.414 -16.831 210.12 Q -16.565 209.826 -16.152 209.637 Q -15.739 209.448 -15.137 209.448 Q -14.493 209.448 -14.15 209.735 Q -13.807 210.022 -13.807 210.47 Q -13.807 210.778 -13.975 210.932 Q -14.143 211.086 -14.367 211.086 Q -14.647 211.086 -14.773 210.925 Q -14.899 210.764 -14.927 210.54 Q -14.969 210.274 -15.032 210.064 Q -15.095 209.854 -15.347 209.854 Q -15.879 209.854 -16.173 210.414 Q -16.467 210.974 -16.621 211.87 L -16.789 212.864 L -15.459 212.864 L -15.543 213.438 L -16.859 213.438 L -17.657 218.212 Q -17.713 218.576 -17.832 219.122 Q -17.951 219.668 -18.161 220.263 Q -18.371 220.858 -18.672 221.376 Q -18.973 221.894 -19.407 222.223 Q -19.841 222.552 -20.415 222.552 Q -21.087 222.552 -21.374 222.23 Q -21.661 221.908 -21.661 221.544 Q -21.661 221.25 -21.514 221.054 Q -21.367 220.858 -21.101 220.858 Q -20.779 220.858 -20.667 221.047 Q -20.555 221.236 -20.527 221.481 Q -20.499 221.726 -20.443 221.915 Q -20.387 222.104 -20.191 222.104 Q -19.911 222.104 -19.701 221.74 Q -19.491 221.376 -19.337 220.837 Q -19.183 220.298 -19.085 219.766 Q -18.987 219.234 -18.931 218.884 L -18.021 213.438 L -19.197 213.438 Z " fill="black" /><path d="M -16.068 217.324 L -16.068 217.324 L -15.284 217.324 Q -15.284 216.805 -15.21 216.442 Q -15.137 216.08 -14.951 215.717 Q -14.725 215.364 -14.407 215.144 Q -14.088 214.923 -13.5 214.923 Q -13 214.923 -12.648 215.114 Q -12.295 215.306 -12.295 215.678 Q -12.295 215.913 -12.427 216.036 Q -12.559 216.158 -12.736 216.158 Q -12.951 216.158 -13.074 216.036 Q -13.196 215.913 -13.392 215.707 Q -13.53 215.511 -13.637 215.438 Q -13.745 215.364 -13.892 215.364 Q -14.167 215.364 -14.255 215.629 Q -14.343 215.894 -14.343 216.54 L -14.343 217.324 L -13.069 217.324 L -13.069 217.805 L -14.343 217.805 L -14.343 221.039 Q -14.343 221.44 -14.255 221.641 Q -14.167 221.842 -13.931 221.911 Q -13.696 221.979 -13.265 221.979 L -13.265 222.342 L -16.156 222.342 L -16.156 221.979 Q -15.784 221.979 -15.597 221.911 Q -15.411 221.842 -15.348 221.641 Q -15.284 221.44 -15.284 221.039 L -15.284 217.805 L -16.068 217.805 Z " fill="black" /><path d="M -10.247 215.021 L -10.247 215.021 L -10.247 218.059 L -10.198 218.059 Q -9.913 217.726 -9.526 217.462 Q -9.139 217.197 -8.59 217.197 Q -8.081 217.197 -7.664 217.506 Q -7.248 217.814 -6.998 218.358 Q -6.748 218.902 -6.748 219.608 Q -6.748 220.549 -7.091 221.186 Q -7.434 221.823 -8.027 222.141 Q -8.62 222.46 -9.374 222.46 Q -9.815 222.46 -10.188 222.386 Q -10.56 222.313 -10.82 222.215 Q -11.08 222.117 -11.197 222.068 L -11.197 216.188 Q -11.197 215.825 -11.276 215.722 Q -11.354 215.619 -11.687 215.619 Q -11.795 215.619 -11.888 215.634 Q -11.981 215.649 -11.981 215.649 L -11.981 215.276 L -10.648 215.021 Z M -10.247 218.569 L -10.247 218.569 L -10.247 221.509 Q -10.129 221.725 -9.874 221.852 Q -9.619 221.979 -9.198 221.979 Q -8.679 221.979 -8.365 221.7 Q -8.051 221.421 -7.909 220.955 Q -7.767 220.49 -7.767 219.941 Q -7.767 219.441 -7.88 218.985 Q -7.993 218.53 -8.277 218.246 Q -8.561 217.961 -9.061 217.961 Q -9.325 217.961 -9.566 218.064 Q -9.806 218.167 -9.982 218.309 Q -10.158 218.451 -10.247 218.569 Z " fill="black" /></g></g></g><circle cx="36.0" cy="-0.0" r="2.6999999999999997" style="stroke:black;fill:black;stroke-width:2.0;stroke-dasharray:-;" /><circle cx="180.0" cy="-0.0" r="2.6999999999999997" style="stroke:black;fill:black;stroke-width:2.0;stroke-dasharray:-;" /><circle cx="324.0" cy="-0.0" r="2.6999999999999997" style="stroke:black;fill:black;stroke-width:2.0;stroke-dasharray:-;" /><circle cx="468.0" cy="-0.0" r="2.6999999999999997" style="stroke:black;fill:black;stroke-width:2.0;stroke-dasharray:-;" /></svg>