<svg xmlns="http://www.w3.org/2000/svg" xmlns:xlink="http://www.w3.org/1999/xlink" xml:lang="en" height="315.20000000000005pt" width="471.2pt" viewBox="-16.6 -220.60000000000002 471.2 315.20000000000005"><circle cx="54.0" cy="-0.0" r="18.0" style="stroke:blue;fill:none;stroke-width:2.0;stroke-dasharray:-;" /><circle cx="126.0" cy="-0.0" r="18.0" style="stroke:black;fill:none;stroke-width:2.0;stroke-dasharray:-;" /><circle cx="252.0" cy="-0.0" r="18.0" style="stroke:black;fill:none;stroke-width:2.0;stroke-dasharray:-;" /><circle cx="378.0" cy="-0.0" r="18.0" style="stroke:black;fill:none;stroke-width:2.0;stroke-dasharray:-;" /><circle cx="126.0" cy="-72.0" r="18.0" style="stroke:black;fill:none;stroke-width:2.0;stroke-dasharray:-;" /><circle cx="252.0" cy="-72.0" r="18.0" style="stroke:black;fill:none;stroke-width:2.0;stroke-dasharray:-;" /><circle cx="72.0" cy="-198.0" r="18.0" style="stroke:black;fill:none;stroke-width:2.0;stroke-dasharray:-;" /><path d="M 0.0,-0.0 L 18.0,-0.0 L 27.0,-0.0" style="stroke:black;fill:none;stroke-width:2.0;stroke-dasharray:-;stroke-linecap:round;stroke-linejoin:round;" /><path d="M 34.0 0.0 L 27.0 2.6999999999999997 L 27.0 -2.6999999999999997 Z" style="stroke:black;fill:black;stroke-linecap:butt;stroke-linejoin:miter;" /><path d="M 54.0,-7.2 L 54.0,7.2" style="stroke:blue;fill:none;stroke-width:2.0;stroke-dasharray:-;stroke-linecap:round;stroke-linejoin:round;" /><path d="M 46.800000000000004,-0.0 L 61.199999999999996,-0.0" style="stroke:blue;fill:none;stroke-width:2.0;stroke-dasharray:-;stroke-linecap:round;stroke-linejoin:round;" /><path d="M 54.0,27.0 L 54.0,36.0 L 53.99999999999999,54.0" style="stroke:blue;fill:none;stroke-width:2.0;stroke-dasharray:-;stroke-linecap:round;stroke-linejoin:round;" /><path d="M 54.0 20.0 L 56.7 27.0 L 51.3 27.0 Z" style="stroke:blue;fill:blue;stroke-linecap:butt;stroke-linejoin:miter;" /><path d="M 53.99999999999999,54.0 L 71.99999999999999,54.0 L 71.99999999999999,90.0 L 35.999999999999986,90.0 L 35.99999999999999,54.0 L 53.99999999999999,54.0" style="stroke:blue;fill:none;stroke-width:2.0;stroke-dasharray:-;stroke-linecap:round;stroke-linejoin:round;" /><path d="M 72.0,-0.0 L 90.0,-0.0 L 99.0,-0.0" style="stroke:black;fill:none;stroke-width:2.0;stroke-dasharray:-;stroke-linecap:round;stroke-linejoin:round;" /><path d="M 106.0 0.0 L 99.0 2.6999999999999997 L 99.0 -2.6999999999999997 Z" style="stroke:black;fill:black;stroke-linecap:butt;stroke-linejoin:miter;" /><path d="M 126.0,-7.2 L 126.0,7.2" style="stroke:black;fill:none;stroke-width:2.0;stroke-dasharray:-;stroke-linecap:round;stroke-linejoin:round;" /><path d="M 118.8,-0.0 L 133.20000000000002,-0.0" style="stroke:black;fill:none;stroke-width:2.0;stroke-dasharray:-;stroke-linecap:round;stroke-linejoin:round;" /><path d="M 144.0,-0.0 L 171.0,-0.0 L 198.0,-0.0" style="stroke:black;fill:none;stroke-width:2.0;stroke-dasharray:-;stroke-linecap:round;stroke-linejoin:round;" /><path d="M 198.0,-0.0 L 198.0,36.0 L 198.0,72.0" style="stroke:black;fill:none;stroke-width:2.0;stroke-dasharray:-;stroke-linecap:round;stroke-linejoin:round;" /><path d="M 198.0,72.0 L 189.0,72.0 L 189.0,72.0" style="stroke:black;fill:none;stroke-width:2.0;stroke-dasharray:-;stroke-linecap:round;stroke-linejoin:round;" /><path d="M 182.0 72.0 L 189.0 69.3 L 189.0 74.7 Z" style="stroke:black;fill:black;stroke-linecap:butt;stroke-linejoin:miter;" /><path d="M 180.0,72.0 L 180.0,90.0 L 144.0,90.0 L 144.0,54.0 L 180.0,54.0 L 180.0,72.0" style="stroke:black;fill:none;stroke-width:2.0;stroke-dasharray:-;stroke-linecap:round;stroke-linejoin:round;" /><path d="M 144.0,71.99999999999999 L 135.0,71.99999999999999 L 126.0,71.99999999999999" style="stroke:black;fill:none;stroke-width:2.0;stroke-dasharray:-;stroke-linecap:round;stroke-linejoin:round;" /><path d="M 126.0,71.99999999999999 L 126.0,45.0 L 126.0,27.0" style="stroke:black;fill:none;stroke-width:2.0;stroke-dasharray:-;stroke-linecap:round;stroke-linejoin:round;" /><path d="M 126.0 20.0 L 128.7 27.0 L 123.3 27.0 Z" style="stroke:black;fill:black;stroke-linecap:butt;stroke-linejoin:miter;" /><path d="M 198.0,-0.0 L 216.0,-0.0 L 225.0,-0.0" style="stroke:black;fill:none;stroke-width:2.0;stroke-dasharray:-;stroke-linecap:round;stroke-linejoin:round;" /><path d="M 232.0 0.0 L 225.0 2.6999999999999997 L 225.0 -2.6999999999999997 Z" style="stroke:black;fill:black;stroke-linecap:butt;stroke-linejoin:miter;" /><path d="M 252.0,-7.2 L 252.0,7.2" style="stroke:black;fill:none;stroke-width:2.0;stroke-dasharray:-;stroke-linecap:round;stroke-linejoin:round;" /><path d="M 244.79999999999998,-0.0 L 259.2,-0.0" style="stroke:black;fill:none;stroke-width:2.0;stroke-dasharray:-;stroke-linecap:round;stroke-linejoin:round;" /><path d="M 270.0,-0.0 L 297.0,-0.0 L 324.0,-0.0" style="stroke:black;fill:none;stroke-width:2.0;stroke-dasharray:-;stroke-linecap:round;stroke-linejoin:round;" /><path d="M 324.0,-0.0 L 324.0,36.0 L 324.0,72.0" style="stroke:black;fill:none;stroke-width:2.0;stroke-dasharray:-;stroke-linecap:round;stroke-linejoin:round;" /><path d="M 324.0,72.0 L 315.0,72.0 L 315.0,72.0" style="stroke:black;fill:none;stroke-width:2.0;stroke-dasharray:-;stroke-linecap:round;stroke-linejoin:round;" /><path d="M 308.0 72.0 L 315.0 69.3 L 315.0 74.7 Z" style="stroke:black;fill:black;stroke-linecap:butt;stroke-linejoin:miter;" /><path d="M 306.0,72.0 L 306.0,90.0 L 270.0,90.0 L 270.0,54.0 L 306.0,54.0 L 306.0,72.0" style="stroke:black;fill:none;stroke-width:2.0;stroke-dasharray:-;stroke-linecap:round;stroke-linejoin:round;" /><path d="M 270.0,71.99999999999999 L 261.0,71.99999999999999 L 252.0,71.99999999999999" style="stroke:black;fill:none;stroke-width:2.0;stroke-dasharray:-;stroke-linecap:round;stroke-linejoin:round;" /><path d="M 252.0,71.99999999999999 L 252.0,45.0 L 252.0,27.0" style="stroke:black;fill:none;stroke-width:2.0;stroke-dasharray:-;stroke-linecap:round;stroke-linejoin:round;" /><path d="M 252.0 20.0 L 254.7 27.0 L 249.3 27.0 Z" style="stroke:black;fill:black;stroke-linecap:butt;stroke-linejoin:miter;" /><path d="M 324.0,-0.0 L 342.0,-0.0 L 351.0,-0.0" style="stroke:black;fill:none;stroke-width:2.0;stroke-dasharray:-;stroke-linecap:round;stroke-linejoin:round;" /><path d="M 358.0 0.0 L 351.0 2.6999999999999997 L 351.0 -2.6999999999999997 Z" style="stroke:black;fill:black;stroke-linecap:butt;stroke-linejoin:miter;" /><path d="M 378.0,-7.2 L 378.0,7.2" style="stroke:black;fill:none;stroke-width:2.0;stroke-dasharray:-;stroke-linecap:round;stroke-linejoin:round;" /><path d="M 370.8,-0.0 L 385.2,-0.0" style="stroke:black;fill:none;stroke-width:2.0;stroke-dasharray:-;stroke-linecap:round;stroke-linejoin:round;" /><path d="M 396.0,-0.0 L 423.0,-0.0 L 450.0,-0.0" style="stroke:black;fill:none;stroke-width:2.0;stroke-dasharray:-;stroke-linecap:round;stroke-linejoin:round;" /><path d="M 450.0,-0.0 L 450.0,36.0 L 450.0,72.0" style="stroke:black;fill:none;stroke-width:2.0;stroke-dasharray:-;stroke-linecap:round;stroke-linejoin:round;" /><path d="M 450.0,72.0 L 441.0,72.0 L 441.0,72.0" style="stroke:black;fill:none;stroke-width:2.0;stroke-dasharray:-;stroke-linecap:round;stroke-linejoin:round;" /><path d="M 434.0 72.0 L 441.0 69.3 L 441.0 74.7 Z" style="stroke:black;fill:black;stroke-linecap:butt;stroke-linejoin:miter;" /><path d="M 432.0,72.0 L 432.0,90.0 L 396.0,90.0 L 396.0,54.0 L 432.0,54.0 L 432.0,72.0" style="stroke:black;fill:none;stroke-width:2.0;stroke-dasharray:-;stroke-linecap:round;stroke-linejoin:round;" /><path d="M 396.0,71.99999999999999 L 387.0,71.99999999999999 L 378.0,71.99999999999999" style="stroke:black;fill:none;stroke-width:2.0;stroke-dasharray:-;stroke-linecap:round;stroke-linejoin:round;" /><path d="M 378.0,71.99999999999999 L 378.0,45.0 L 378.0,27.0" style="stroke:black;fill:none;stroke-width:2.0;stroke-dasharray:-;stroke-linecap:round;stroke-linejoin:round;" /><path d="M 378.0 20.0 L 380.7 27.0 L 375.3 27.0 Z" style="stroke:black;fill:black;stroke-linecap:butt;stroke-linejoin:miter;" /><path d="M 126.0,-18.0 L 126.0,-36.0 L 126.0,-45.0" style="stroke:black;fill:none;stroke-width:2.0;stroke-dasharray:-;stroke-linecap:round;stroke-linejoin:round;" /><path d="M 126.0 -52.0 L 128.7 -45.0 L 123.3 -45.0 Z" style="stroke:black;fill:black;stroke-linecap:butt;stroke-linejoin:miter;" /><path d="M 118.8,-72.0 L 133.20000000000002,-72.0" style="stroke:black;fill:none;stroke-width:2.0;stroke-dasharray:-;stroke-linecap:round;stroke-linejoin:round;" /><path d="M 126.0,-64.8 L 126.0,-79.2" style="stroke:black;fill:none;stroke-width:2.0;stroke-dasharray:-;stroke-linecap:round;stroke-linejoin:round;" /><path d="M 252.0,-18.0 L 252.0,-36.0 L 252.0,-45.0" style="stroke:black;fill:none;stroke-width:2.0;stroke-dasharray:-;stroke-linecap:round;stroke-linejoin:round;" /><path d="M 252.0 -52.0 L 254.7 -45.0 L 249.3 -45.0 Z" style="stroke:black;fill:black;stroke-linecap:butt;stroke-linejoin:miter;" /><path d="M 244.79999999999998,-72.0 L 259.2,-72.0" style="stroke:black;fill:none;stroke-width:2.0;stroke-dasharray:-;stroke-linecap:round;stroke-linejoin:round;" /><path d="M 252.0,-64.8 L 252.0,-79.2" style="stroke:black;fill:none;stroke-width:2.0;stroke-dasharray:-;stroke-linecap:round;stroke-linejoin:round;" /><path d="M 378.0,-18.0 L 378.0,-45.0 L 378.0,-72.0" style="stroke:black;fill:none;stroke-width:2.0;stroke-dasharray:-;stroke-linecap:round;stroke-linejoin:round;" /><path d="M 378.0,-72.0 L 360.0,-72.0 L 342.0,-72.0" style="stroke:black;fill:none;stroke-width:2.0;stroke-dasharray:-;stroke-linecap:round;stroke-linejoin:round;" /><path d="M 342.0,-72.0 L 306.0,-72.0 L 279.0,-72.00000000000001" style="stroke:black;fill:none;stroke-width:2.0;stroke-dasharray:-;stroke-linecap:round;stroke-linejoin:round;" /><path d="M 272.0 -72.00000000000001 L 279.0 -74.70000000000002 L 279.0 -69.30000000000001 Z" style="stroke:black;fill:black;stroke-linecap:butt;stroke-linejoin:miter;" /><path d="M 342.0,-72.0 L 342.0,-108.0 L 342.0,-144.0" style="stroke:black;fill:none;stroke-width:2.0;stroke-dasharray:-;stroke-linecap:round;stroke-linejoin:round;" /><path d="M 342.0,-144.0 L 333.0,-144.0 L 333.0,-144.0" style="stroke:black;fill:none;stroke-width:2.0;stroke-dasharray:-;stroke-linecap:round;stroke-linejoin:round;" /><path d="M 326.0 -144.0 L 333.0 -146.7 L 333.0 -141.3 Z" style="stroke:black;fill:black;stroke-linecap:butt;stroke-linejoin:miter;" /><path d="M 324.0,-144.0 L 324.0,-126.0 L 288.0,-126.0 L 288.0,-162.0 L 324.0,-162.0 L 324.0,-144.0" style="stroke:black;fill:none;stroke-width:2.0;stroke-dasharray:-;stroke-linecap:round;stroke-linejoin:round;" /><path d="M 288.0,-144.0 L 270.0,-144.0 L 252.0,-144.0" style="stroke:black;fill:none;stroke-width:2.0;stroke-dasharray:-;stroke-linecap:round;stroke-linejoin:round;" /><path d="M 252.0,-144.0 L 252.0,-117.0 L 252.0,-99.0" style="stroke:black;fill:none;stroke-width:2.0;stroke-dasharray:-;stroke-linecap:round;stroke-linejoin:round;" /><path d="M 252.0 -92.0 L 249.3 -99.0 L 254.7 -99.0 Z" style="stroke:black;fill:black;stroke-linecap:butt;stroke-linejoin:miter;" /><path d="M 234.0,-72.0 L 216.0,-72.0 L 198.0,-72.0" style="stroke:black;fill:none;stroke-width:2.0;stroke-dasharray:-;stroke-linecap:round;stroke-linejoin:round;" /><path d="M 198.0,-72.0 L 171.0,-72.0 L 153.0,-72.0" style="stroke:black;fill:none;stroke-width:2.0;stroke-dasharray:-;stroke-linecap:round;stroke-linejoin:round;" /><path d="M 146.0 -72.0 L 153.0 -74.7 L 153.0 -69.3 Z" style="stroke:black;fill:black;stroke-linecap:butt;stroke-linejoin:miter;" /><path d="M 198.0,-72.0 L 198.0,-108.0 L 198.0,-144.0" style="stroke:black;fill:none;stroke-width:2.0;stroke-dasharray:-;stroke-linecap:round;stroke-linejoin:round;" /><path d="M 198.0,-144.0 L 189.0,-144.0 L 189.0,-144.0" style="stroke:black;fill:none;stroke-width:2.0;stroke-dasharray:-;stroke-linecap:round;stroke-linejoin:round;" /><path d="M 182.0 -144.0 L 189.0 -146.7 L 189.0 -141.3 Z" style="stroke:black;fill:black;stroke-linecap:butt;stroke-linejoin:miter;" /><path d="M 180.0,-144.0 L 180.0,-126.0 L 144.0,-126.0 L 144.0,-162.0 L 180.0,-162.0 L 180.0,-144.0" style="stroke:black;fill:none;stroke-width:2.0;stroke-dasharray:-;stroke-linecap:round;stroke-linejoin:round;" /><path d="M 144.0,-144.0 L 135.0,-144.0 L 126.0,-144.0" style="stroke:black;fill:none;stroke-width:2.0;stroke-dasharray:-;stroke-linecap:round;stroke-linejoin:round;" /><path d="M 126.0,-144.0 L 126.0,-117.0 L 126.0,-99.0" style="stroke:black;fill:none;stroke-width:2.0;stroke-dasharray:-;stroke-linecap:round;stroke-linejoin:round;" /><path d="M 126.0 -92.0 L 123.3 -99.0 L 128.7 -99.0 Z" style="stroke:black;fill:black;stroke-linecap:butt;stroke-linejoin:miter;" /><path d="M 108.0,-72.0 L 90.0,-72.0 L 72.0,-72.0" style="stroke:black;fill:none;stroke-width:2.0;stroke-dasharray:-;stroke-linecap:round;stroke-linejoin:round;" /><path d="M 72.0,-72.0 L 72.0,-126.0 L 72.0,-171.0" style="stroke:black;fill:none;stroke-width:2.0;stroke-dasharray:-;stroke-linecap:round;stroke-linejoin:round;" /><path d="M 72.0 -178.0 L 74.7 -171.0 L 69.3 -171.0 Z" style="stroke:black;fill:black;stroke-linecap:butt;stroke-linejoin:miter;" /><path d="M 64.8,-198.0 L 79.2,-198.0" style="stroke:black;fill:none;stroke-width:2.0;stroke-dasharray:-;stroke-linecap:round;stroke-linejoin:round;" /><path d="M 72.0,-190.79999999999998 L 72.0,-205.20000000000002" style="stroke:black;fill:none;stroke-width:2.0;stroke-dasharray:-;stroke-linecap:round;stroke-linejoin:round;" /><path d="M 90.0,-198.0 L 126.0,-198.0 L 153.0,-198.0" style="stroke:black;fill:none;stroke-width:2.0;stroke-dasharray:-;stroke-linecap:round;stroke-linejoin:round;" /><path d="M 160.0 -198.0 L 153.0 -195.3 L 153.0 -200.7 Z" style="stroke:black;fill:black;stroke-linecap:butt;stroke-linejoin:miter;" /><path d="M 45.0,-198.0 L 27.0,-198.0 L 0.0,-198.0" style="stroke:black;fill:none;stroke-width:2.0;stroke-dasharray:-;stroke-linecap:round;stroke-linejoin:round;" /><path d="M 52.0 -198.0 L 45.0 -195.3 L 45.0 -200.7 Z" style="stroke:black;fill:black;stroke-linecap:butt;stroke-linejoin:miter;" /><g><g><g><path d="M -4.16 -2.317 L -4.16 -2.317 L -4.58 -2.317 Q -4.566 -2.989 -4.657 -3.367 Q -4.748 -3.745 -5.14 -3.899 Q -5.532 -4.053 -6.442 -4.053 L -8.542 -4.053 L -9.298 -0.413 L -7.744 -0.413 Q -7.142 -0.413 -6.813 -0.525 Q -6.484 -0.637 -6.309 -0.938 Q -6.134 -1.239 -6.022 -1.799 L -5.574 -1.799 L -6.218 1.463 L -6.68 1.463 Q -6.568 0.861 -6.624 0.581 Q -6.68 0.301 -6.981 0.21 Q -7.282 0.119 -7.884 0.119 L -9.396 0.119 L -9.998 3.115 Q -10.026 3.255 -10.04 3.374 Q -10.054 3.493 -10.054 3.591 Q -10.054 3.955 -9.718 4.067 Q -9.382 4.179 -8.738 4.179 L -8.808 4.599 L -12.84 4.599 L -12.756 4.179 Q -12.266 4.179 -11.979 4.095 Q -11.692 4.011 -11.517 3.752 Q -11.342 3.493 -11.244 2.975 L -9.998 -3.017 Q -9.9 -3.507 -9.942 -3.752 Q -9.984 -3.997 -10.25 -4.088 Q -10.516 -4.179 -11.09 -4.179 L -11.006 -4.599 L -3.782 -4.599 Z " fill="black" /></g></g></g><g><g><g><path d="M 40.504 77.026 L 40.504 77.026 Q 39.706 77.026 39.111 76.606 Q 38.516 76.186 38.18 75.423 Q 37.844 74.66 37.844 73.638 Q 37.844 72.476 38.243 71.685 Q 38.642 70.894 39.3 70.481 Q 39.958 70.068 40.714 70.068 Q 41.26 70.068 41.68 70.264 Q 42.1 70.46 42.534 70.824 L 42.492 69.69 L 42.492 66.974 L 43.612 66.974 L 43.612 76.858 L 42.688 76.858 L 42.59 76.074 L 42.548 76.074 Q 42.156 76.466 41.659 76.746 Q 41.162 77.026 40.504 77.026 Z M 40.784 76.074 L 40.784 76.074 Q 41.26 76.074 41.666 75.843 Q 42.072 75.612 42.492 75.178 L 42.492 71.692 Q 42.072 71.314 41.687 71.16 Q 41.302 71.006 40.938 71.006 Q 40.112 71.006 39.552 71.692 Q 38.992 72.378 38.992 73.624 Q 38.992 74.73 39.461 75.402 Q 39.93 76.074 40.784 76.074 Z " fill="blue" /><path d="M 45.824 76.858 L 45.824 76.858 L 45.824 70.222 L 46.944 70.222 L 46.944 76.858 Z M 46.398 68.864 L 46.398 68.864 Q 46.076 68.864 45.852 68.654 Q 45.628 68.444 45.628 68.136 Q 45.628 67.814 45.852 67.611 Q 46.076 67.408 46.398 67.408 Q 46.72 67.408 46.944 67.611 Q 47.168 67.814 47.168 68.136 Q 47.168 68.444 46.944 68.654 Q 46.72 68.864 46.398 68.864 Z " fill="blue" /><path d="M 51.2 77.026 L 51.2 77.026 Q 50.22 77.026 49.793 76.41 Q 49.366 75.794 49.366 74.8 L 49.366 71.216 L 48.4 71.216 L 48.4 70.376 L 49.422 70.306 L 49.562 68.36 L 50.486 68.36 L 50.486 70.306 L 52.264 70.306 L 52.264 71.216 L 50.486 71.216 L 50.486 74.828 Q 50.486 75.416 50.71 75.759 Q 50.934 76.102 51.466 76.102 Q 51.69 76.102 51.893 76.046 Q 52.096 75.99 52.25 75.92 L 52.474 76.774 Q 52.194 76.872 51.879 76.949 Q 51.564 77.026 51.2 77.026 Z " fill="blue" /><path d="M 53.748 76.858 L 53.748 76.858 L 53.748 67.142 L 54.868 67.142 L 54.868 69.788 L 54.84 71.16 Q 55.302 70.712 55.813 70.39 Q 56.324 70.068 57.052 70.068 Q 58.046 70.068 58.543 70.726 Q 59.04 71.384 59.04 72.658 L 59.04 76.858 L 57.906 76.858 L 57.906 72.798 Q 57.906 71.874 57.619 71.461 Q 57.332 71.048 56.688 71.048 Q 56.17 71.048 55.764 71.3 Q 55.358 71.552 54.868 72.056 L 54.868 76.858 Z " fill="blue" /><path d="M 63.814 77.026 L 63.814 77.026 Q 62.932 77.026 62.211 76.613 Q 61.49 76.2 61.063 75.423 Q 60.636 74.646 60.636 73.568 Q 60.636 72.476 61.056 71.692 Q 61.476 70.908 62.169 70.488 Q 62.862 70.068 63.674 70.068 Q 64.85 70.068 65.543 70.908 Q 66.236 71.748 66.236 73.176 Q 66.236 73.358 66.222 73.519 Q 66.208 73.68 66.18 73.806 L 61.742 73.806 Q 61.812 74.87 62.4 75.5 Q 62.988 76.13 63.94 76.13 Q 64.402 76.13 64.808 75.983 Q 65.214 75.836 65.578 75.598 L 65.97 76.326 Q 65.536 76.62 65.004 76.823 Q 64.472 77.026 63.814 77.026 Z M 61.742 73.008 L 61.742 73.008 L 65.256 73.008 Q 65.256 72.014 64.829 71.489 Q 64.402 70.964 63.66 70.964 Q 62.932 70.964 62.393 71.482 Q 61.854 72 61.742 73.008 Z " fill="blue" /><path d="M 67.846 76.858 L 67.846 76.858 L 67.846 70.222 L 68.77 70.222 L 68.868 71.44 L 68.91 71.44 Q 69.274 70.782 69.75 70.425 Q 70.226 70.068 70.842 70.068 Q 70.996 70.068 71.164 70.096 Q 71.332 70.124 71.486 70.194 L 71.276 71.188 Q 71.094 71.132 70.968 71.104 Q 70.842 71.076 70.688 71.076 Q 70.226 71.076 69.764 71.412 Q 69.302 71.748 68.966 72.602 L 68.966 76.858 Z " fill="blue" /></g></g></g><g><g><g><path d="M 158.788 75.38 L 158.788 75.38 L 158.158 77.788 L 152.838 77.788 L 152.894 77.382 L 157.808 72.258 L 157.808 72.216 L 155.526 72.216 Q 155.078 72.216 154.84 72.321 Q 154.602 72.426 154.469 72.678 Q 154.336 72.93 154.196 73.406 L 153.762 73.406 L 154.266 71.25 L 159.39 71.25 L 159.334 71.628 L 154.42 76.738 L 154.42 76.78 L 156.576 76.78 Q 157.08 76.78 157.381 76.675 Q 157.682 76.57 157.892 76.269 Q 158.102 75.968 158.326 75.38 Z " fill="black" /><path d="M 166.538 70.524 L 166.538 70.524 L 160.423 70.524 L 160.423 69.759 L 166.538 69.759 Z " fill="black" /><path d="M 170.772 72.748 L 170.772 72.748 L 167.449 72.748 L 167.449 72.395 Q 168.155 72.395 168.385 72.253 Q 168.616 72.111 168.616 71.739 L 168.616 67.466 Q 168.616 67.201 168.537 67.084 Q 168.459 66.966 168.253 66.966 Q 168.096 66.966 167.827 67.01 Q 167.557 67.054 167.361 67.103 L 167.361 66.711 L 169.174 66.212 L 169.596 66.212 L 169.596 71.739 Q 169.596 72.111 169.846 72.253 Q 170.095 72.395 170.772 72.395 Z " fill="black" /></g></g></g><circle cx="198.0" cy="-0.0" r="2.6999999999999997" style="stroke:black;fill:black;stroke-width:2.0;stroke-dasharray:-;" /><g><g><g><path d="M 284.788 75.38 L 284.788 75.38 L 284.158 77.788 L 278.838 77.788 L 278.894 77.382 L 283.808 72.258 L 283.808 72.216 L 281.526 72.216 Q 281.078 72.216 280.84 72.321 Q 280.602 72.426 280.469 72.678 Q 280.336 72.93 280.196 73.406 L 279.762 73.406 L 280.266 71.25 L 285.39 71.25 L 285.334 71.628 L 280.42 76.738 L 280.42 76.78 L 282.576 76.78 Q 283.08 76.78 283.381 76.675 Q 283.682 76.57 283.892 76.269 Q 284.102 75.968 284.326 75.38 Z " fill="black" /><path d="M 292.538 70.524 L 292.538 70.524 L 286.423 70.524 L 286.423 69.759 L 292.538 69.759 Z " fill="black" /><path d="M 296.772 72.748 L 296.772 72.748 L 293.45 72.748 L 293.45 72.395 Q 294.155 72.395 294.385 72.253 Q 294.616 72.111 294.616 71.739 L 294.616 67.466 Q 294.616 67.201 294.537 67.084 Q 294.459 66.966 294.253 66.966 Q 294.096 66.966 293.827 67.01 Q 293.557 67.054 293.361 67.103 L 293.361 66.711 L 295.174 66.212 L 295.596 66.212 L 295.596 71.739 Q 295.596 72.111 295.846 72.253 Q 296.095 72.395 296.772 72.395 Z " fill="black" /></g></g></g><circle cx="324.0" cy="-0.0" r="2.6999999999999997" style="stroke:black;fill:black;stroke-width:2.0;stroke-dasharray:-;" /><g><g><g><path d="M 410.788 75.38 L 410.788 75.38 L 410.158 77.788 L 404.838 77.788 L 404.894 77.382 L 409.808 72.258 L 409.808 72.216 L 407.526 72.216 Q 407.078 72.216 406.84 72.321 Q 406.602 72.426 406.469 72.678 Q 406.336 72.93 406.196 73.406 L 405.762 73.406 L 406.266 71.25 L 411.39 71.25 L 411.334 71.628 L 406.42 76.738 L 406.42 76.78 L 408.576 76.78 Q 409.08 76.78 409.381 76.675 Q 409.682 76.57 409.892 76.269 Q 410.102 75.968 410.326 75.38 Z " fill="black" /><path d="M 418.538 70.524 L 418.538 70.524 L 412.423 70.524 L 412.423 69.759 L 418.538 69.759 Z " fill="black" /><path d="M 422.772 72.748 L 422.772 72.748 L 419.45 72.748 L 419.45 72.395 Q 420.155 72.395 420.385 72.253 Q 420.616 72.111 420.616 71.739 L 420.616 67.466 Q 420.616 67.201 420.537 67.084 Q 420.459 66.966 420.253 66.966 Q 420.096 66.966 419.827 67.01 Q 419.557 67.054 419.361 67.103 L 419.361 66.711 L 421.174 66.212 L 421.596 66.212 L 421.596 71.739 Q 421.596 72.111 421.846 72.253 Q 422.095 72.395 422.772 72.395 Z " fill="black" /></g></g></g><g><g><g><path d="M 92.528 -34.005 L 92.528 -34.005 Q 91.674 -34.005 90.981 -34.425 Q 90.288 -34.845 89.882 -35.622 Q 89.476 -36.399 89.476 -37.463 Q 89.476 -38.583 89.917 -39.367 Q 90.358 -40.151 91.079 -40.557 Q 91.8 -40.963 92.64 -40.963 Q 93.34 -40.963 93.795 -40.725 Q 94.25 -40.487 94.586 -40.193 L 94.012 -39.451 Q 93.718 -39.717 93.403 -39.871 Q 93.088 -40.025 92.682 -40.025 Q 92.094 -40.025 91.632 -39.703 Q 91.17 -39.381 90.904 -38.814 Q 90.638 -38.247 90.638 -37.477 Q 90.638 -36.343 91.205 -35.643 Q 91.772 -34.943 92.654 -34.943 Q 93.144 -34.943 93.529 -35.139 Q 93.914 -35.335 94.222 -35.601 L 94.712 -34.845 Q 94.264 -34.453 93.718 -34.229 Q 93.172 -34.005 92.528 -34.005 Z " fill="black" /><path d="M 97.652 -34.005 L 97.652 -34.005 Q 96.84 -34.005 96.287 -34.502 Q 95.734 -34.999 95.734 -35.895 Q 95.734 -36.987 96.7 -37.568 Q 97.666 -38.149 99.78 -38.373 Q 99.78 -38.807 99.668 -39.185 Q 99.556 -39.563 99.255 -39.801 Q 98.954 -40.039 98.408 -40.039 Q 97.862 -40.039 97.358 -39.815 Q 96.854 -39.591 96.462 -39.339 L 96.014 -40.109 Q 96.476 -40.417 97.148 -40.69 Q 97.82 -40.963 98.604 -40.963 Q 99.808 -40.963 100.354 -40.228 Q 100.9 -39.493 100.9 -38.247 L 100.9 -34.173 L 99.976 -34.173 L 99.878 -34.971 L 99.85 -34.971 Q 99.374 -34.579 98.828 -34.292 Q 98.282 -34.005 97.652 -34.005 Z M 97.988 -34.915 L 97.988 -34.915 Q 98.464 -34.915 98.884 -35.146 Q 99.304 -35.377 99.78 -35.783 L 99.78 -37.631 Q 98.156 -37.435 97.491 -37.029 Q 96.826 -36.623 96.826 -35.965 Q 96.826 -35.419 97.169 -35.167 Q 97.512 -34.915 97.988 -34.915 Z " fill="black" /><path d="M 102.972 -34.173 L 102.972 -34.173 L 102.972 -40.809 L 103.896 -40.809 L 103.994 -39.591 L 104.036 -39.591 Q 104.4 -40.249 104.876 -40.606 Q 105.352 -40.963 105.968 -40.963 Q 106.122 -40.963 106.29 -40.935 Q 106.458 -40.907 106.612 -40.837 L 106.402 -39.843 Q 106.22 -39.899 106.094 -39.927 Q 105.968 -39.955 105.814 -39.955 Q 105.352 -39.955 104.89 -39.619 Q 104.428 -39.283 104.092 -38.429 L 104.092 -34.173 Z " fill="black" /><path d="M 107.676 -34.173 L 107.676 -34.173 L 107.676 -40.809 L 108.6 -40.809 L 108.698 -39.591 L 108.74 -39.591 Q 109.104 -40.249 109.58 -40.606 Q 110.056 -40.963 110.672 -40.963 Q 110.826 -40.963 110.994 -40.935 Q 111.162 -40.907 111.316 -40.837 L 111.106 -39.843 Q 110.924 -39.899 110.798 -39.927 Q 110.672 -39.955 110.518 -39.955 Q 110.056 -39.955 109.594 -39.619 Q 109.132 -39.283 108.796 -38.429 L 108.796 -34.173 Z " fill="black" /><path d="M 112.408 -31.037 L 112.408 -31.037 Q 112.184 -31.037 111.988 -31.079 Q 111.792 -31.121 111.624 -31.177 L 111.848 -32.073 Q 112.072 -31.975 112.352 -31.975 Q 112.926 -31.975 113.29 -32.402 Q 113.654 -32.829 113.836 -33.389 L 114.088 -34.159 L 111.442 -40.809 L 112.59 -40.809 L 113.934 -37.127 Q 114.088 -36.707 114.249 -36.217 Q 114.41 -35.727 114.578 -35.265 L 114.634 -35.265 Q 114.774 -35.713 114.907 -36.203 Q 115.04 -36.693 115.18 -37.127 L 116.356 -40.809 L 117.448 -40.809 L 114.872 -33.347 Q 114.648 -32.689 114.319 -32.164 Q 113.99 -31.639 113.528 -31.338 Q 113.066 -31.037 112.408 -31.037 Z " fill="black" /></g></g></g><g><g><g><path d="M 218.528 -34.005 L 218.528 -34.005 Q 217.674 -34.005 216.981 -34.425 Q 216.288 -34.845 215.882 -35.622 Q 215.476 -36.399 215.476 -37.463 Q 215.476 -38.583 215.917 -39.367 Q 216.358 -40.151 217.079 -40.557 Q 217.8 -40.963 218.64 -40.963 Q 219.34 -40.963 219.795 -40.725 Q 220.25 -40.487 220.586 -40.193 L 220.012 -39.451 Q 219.718 -39.717 219.403 -39.871 Q 219.088 -40.025 218.682 -40.025 Q 218.094 -40.025 217.632 -39.703 Q 217.17 -39.381 216.904 -38.814 Q 216.638 -38.247 216.638 -37.477 Q 216.638 -36.343 217.205 -35.643 Q 217.772 -34.943 218.654 -34.943 Q 219.144 -34.943 219.529 -35.139 Q 219.914 -35.335 220.222 -35.601 L 220.712 -34.845 Q 220.264 -34.453 219.718 -34.229 Q 219.172 -34.005 218.528 -34.005 Z " fill="black" /><path d="M 223.652 -34.005 L 223.652 -34.005 Q 222.84 -34.005 222.287 -34.502 Q 221.734 -34.999 221.734 -35.895 Q 221.734 -36.987 222.7 -37.568 Q 223.666 -38.149 225.78 -38.373 Q 225.78 -38.807 225.668 -39.185 Q 225.556 -39.563 225.255 -39.801 Q 224.954 -40.039 224.408 -40.039 Q 223.862 -40.039 223.358 -39.815 Q 222.854 -39.591 222.462 -39.339 L 222.014 -40.109 Q 222.476 -40.417 223.148 -40.69 Q 223.82 -40.963 224.604 -40.963 Q 225.808 -40.963 226.354 -40.228 Q 226.9 -39.493 226.9 -38.247 L 226.9 -34.173 L 225.976 -34.173 L 225.878 -34.971 L 225.85 -34.971 Q 225.374 -34.579 224.828 -34.292 Q 224.282 -34.005 223.652 -34.005 Z M 223.988 -34.915 L 223.988 -34.915 Q 224.464 -34.915 224.884 -35.146 Q 225.304 -35.377 225.78 -35.783 L 225.78 -37.631 Q 224.156 -37.435 223.491 -37.029 Q 222.826 -36.623 222.826 -35.965 Q 222.826 -35.419 223.169 -35.167 Q 223.512 -34.915 223.988 -34.915 Z " fill="black" /><path d="M 228.972 -34.173 L 228.972 -34.173 L 228.972 -40.809 L 229.896 -40.809 L 229.994 -39.591 L 230.036 -39.591 Q 230.4 -40.249 230.876 -40.606 Q 231.352 -40.963 231.968 -40.963 Q 232.122 -40.963 232.29 -40.935 Q 232.458 -40.907 232.612 -40.837 L 232.402 -39.843 Q 232.22 -39.899 232.094 -39.927 Q 231.968 -39.955 231.814 -39.955 Q 231.352 -39.955 230.89 -39.619 Q 230.428 -39.283 230.092 -38.429 L 230.092 -34.173 Z " fill="black" /><path d="M 233.676 -34.173 L 233.676 -34.173 L 233.676 -40.809 L 234.6 -40.809 L 234.698 -39.591 L 234.74 -39.591 Q 235.104 -40.249 235.58 -40.606 Q 236.056 -40.963 236.672 -40.963 Q 236.826 -40.963 236.994 -40.935 Q 237.162 -40.907 237.316 -40.837 L 237.106 -39.843 Q 236.924 -39.899 236.798 -39.927 Q 236.672 -39.955 236.518 -39.955 Q 236.056 -39.955 235.594 -39.619 Q 235.132 -39.283 234.796 -38.429 L 234.796 -34.173 Z " fill="black" /><path d="M 238.408 -31.037 L 238.408 -31.037 Q 238.184 -31.037 237.988 -31.079 Q 237.792 -31.121 237.624 -31.177 L 237.848 -32.073 Q 238.072 -31.975 238.352 -31.975 Q 238.926 -31.975 239.29 -32.402 Q 239.654 -32.829 239.836 -33.389 L 240.088 -34.159 L 237.442 -40.809 L 238.59 -40.809 L 239.934 -37.127 Q 240.088 -36.707 240.249 -36.217 Q 240.41 -35.727 240.578 -35.265 L 240.634 -35.265 Q 240.774 -35.713 240.907 -36.203 Q 241.04 -36.693 241.18 -37.127 L 242.356 -40.809 L 243.448 -40.809 L 240.872 -33.347 Q 240.648 -32.689 240.319 -32.164 Q 239.99 -31.639 239.528 -31.338 Q 239.066 -31.037 238.408 -31.037 Z " fill="black" /></g></g></g><g><g><g><path d="M 349.928 -43.005 L 349.928 -43.005 Q 349.074 -43.005 348.381 -43.425 Q 347.688 -43.845 347.282 -44.622 Q 346.876 -45.399 346.876 -46.463 Q 346.876 -47.583 347.317 -48.367 Q 347.758 -49.151 348.479 -49.557 Q 349.2 -49.963 350.04 -49.963 Q 350.74 -49.963 351.195 -49.725 Q 351.65 -49.487 351.986 -49.193 L 351.412 -48.451 Q 351.118 -48.717 350.803 -48.871 Q 350.488 -49.025 350.082 -49.025 Q 349.494 -49.025 349.032 -48.703 Q 348.57 -48.381 348.304 -47.814 Q 348.038 -47.247 348.038 -46.477 Q 348.038 -45.343 348.605 -44.643 Q 349.172 -43.943 350.054 -43.943 Q 350.544 -43.943 350.929 -44.139 Q 351.314 -44.335 351.622 -44.601 L 352.112 -43.845 Q 351.664 -43.453 351.118 -43.229 Q 350.572 -43.005 349.928 -43.005 Z " fill="black" /><path d="M 355.052 -43.005 L 355.052 -43.005 Q 354.24 -43.005 353.687 -43.502 Q 353.134 -43.999 353.134 -44.895 Q 353.134 -45.987 354.1 -46.568 Q 355.066 -47.149 357.18 -47.373 Q 357.18 -47.807 357.068 -48.185 Q 356.956 -48.563 356.655 -48.801 Q 356.354 -49.039 355.808 -49.039 Q 355.262 -49.039 354.758 -48.815 Q 354.254 -48.591 353.862 -48.339 L 353.414 -49.109 Q 353.876 -49.417 354.548 -49.69 Q 355.22 -49.963 356.004 -49.963 Q 357.208 -49.963 357.754 -49.228 Q 358.3 -48.493 358.3 -47.247 L 358.3 -43.173 L 357.376 -43.173 L 357.278 -43.971 L 357.25 -43.971 Q 356.774 -43.579 356.228 -43.292 Q 355.682 -43.005 355.052 -43.005 Z M 355.388 -43.915 L 355.388 -43.915 Q 355.864 -43.915 356.284 -44.146 Q 356.704 -44.377 357.18 -44.783 L 357.18 -46.631 Q 355.556 -46.435 354.891 -46.029 Q 354.226 -45.623 354.226 -44.965 Q 354.226 -44.419 354.569 -44.167 Q 354.912 -43.915 355.388 -43.915 Z " fill="black" /><path d="M 360.372 -43.173 L 360.372 -43.173 L 360.372 -49.809 L 361.296 -49.809 L 361.394 -48.591 L 361.436 -48.591 Q 361.8 -49.249 362.276 -49.606 Q 362.752 -49.963 363.368 -49.963 Q 363.522 -49.963 363.69 -49.935 Q 363.858 -49.907 364.012 -49.837 L 363.802 -48.843 Q 363.62 -48.899 363.494 -48.927 Q 363.368 -48.955 363.214 -48.955 Q 362.752 -48.955 362.29 -48.619 Q 361.828 -48.283 361.492 -47.429 L 361.492 -43.173 Z " fill="black" /><path d="M 365.076 -43.173 L 365.076 -43.173 L 365.076 -49.809 L 366 -49.809 L 366.098 -48.591 L 366.14 -48.591 Q 366.504 -49.249 366.98 -49.606 Q 367.456 -49.963 368.072 -49.963 Q 368.226 -49.963 368.394 -49.935 Q 368.562 -49.907 368.716 -49.837 L 368.506 -48.843 Q 368.324 -48.899 368.198 -48.927 Q 368.072 -48.955 367.918 -48.955 Q 367.456 -48.955 366.994 -48.619 Q 366.532 -48.283 366.196 -47.429 L 366.196 -43.173 Z " fill="black" /><path d="M 369.808 -40.037 L 369.808 -40.037 Q 369.584 -40.037 369.388 -40.079 Q 369.192 -40.121 369.024 -40.177 L 369.248 -41.073 Q 369.472 -40.975 369.752 -40.975 Q 370.326 -40.975 370.69 -41.402 Q 371.054 -41.829 371.236 -42.389 L 371.488 -43.159 L 368.842 -49.809 L 369.99 -49.809 L 371.334 -46.127 Q 371.488 -45.707 371.649 -45.217 Q 371.81 -44.727 371.978 -44.265 L 372.034 -44.265 Q 372.174 -44.713 372.307 -45.203 Q 372.44 -45.693 372.58 -46.127 L 373.756 -49.809 L 374.848 -49.809 L 372.272 -42.347 Q 372.048 -41.689 371.719 -41.164 Q 371.39 -40.639 370.928 -40.338 Q 370.466 -40.037 369.808 -40.037 Z " fill="black" /></g></g></g><circle cx="342.0" cy="-72.0" r="2.6999999999999997" style="stroke:black;fill:black;stroke-width:2.0;stroke-dasharray:-;" /><g><g><g><path d="M 302.788 -140.62 L 302.788 -140.62 L 302.158 -138.212 L 296.838 -138.212 L 296.894 -138.618 L 301.808 -143.742 L 301.808 -143.784 L 299.526 -143.784 Q 299.078 -143.784 298.84 -143.679 Q 298.602 -143.574 298.469 -143.322 Q 298.336 -143.07 298.196 -142.594 L 297.762 -142.594 L 298.266 -144.75 L 303.39 -144.75 L 303.334 -144.372 L 298.42 -139.262 L 298.42 -139.22 L 300.576 -139.22 Q 301.08 -139.22 301.381 -139.325 Q 301.682 -139.43 301.892 -139.731 Q 302.102 -140.032 302.326 -140.62 Z " fill="black" /><path d="M 310.538 -145.476 L 310.538 -145.476 L 304.423 -145.476 L 304.423 -146.241 L 310.538 -146.241 Z " fill="black" /><path d="M 314.772 -143.252 L 314.772 -143.252 L 311.45 -143.252 L 311.45 -143.605 Q 312.155 -143.605 312.385 -143.747 Q 312.616 -143.889 312.616 -144.261 L 312.616 -148.534 Q 312.616 -148.798 312.537 -148.916 Q 312.459 -149.034 312.253 -149.034 Q 312.096 -149.034 311.827 -148.99 Q 311.557 -148.946 311.361 -148.897 L 311.361 -149.288 L 313.174 -149.788 L 313.596 -149.788 L 313.596 -144.261 Q 313.596 -143.889 313.846 -143.747 Q 314.095 -143.605 314.772 -143.605 Z " fill="black" /></g></g></g><g><g><g><rect x="235.44" y="-121.088" width="7.56" height="0.952" fill="black" /></g></g></g><circle cx="198.0" cy="-72.0" r="2.6999999999999997" style="stroke:black;fill:black;stroke-width:2.0;stroke-dasharray:-;" /><g><g><g><path d="M 158.788 -140.62 L 158.788 -140.62 L 158.158 -138.212 L 152.838 -138.212 L 152.894 -138.618 L 157.808 -143.742 L 157.808 -143.784 L 155.526 -143.784 Q 155.078 -143.784 154.84 -143.679 Q 154.602 -143.574 154.469 -143.322 Q 154.336 -143.07 154.196 -142.594 L 153.762 -142.594 L 154.266 -144.75 L 159.39 -144.75 L 159.334 -144.372 L 154.42 -139.262 L 154.42 -139.22 L 156.576 -139.22 Q 157.08 -139.22 157.381 -139.325 Q 157.682 -139.43 157.892 -139.731 Q 158.102 -140.032 158.326 -140.62 Z " fill="black" /><path d="M 166.538 -145.476 L 166.538 -145.476 L 160.423 -145.476 L 160.423 -146.241 L 166.538 -146.241 Z " fill="black" /><path d="M 170.772 -143.252 L 170.772 -143.252 L 167.449 -143.252 L 167.449 -143.605 Q 168.155 -143.605 168.385 -143.747 Q 168.616 -143.889 168.616 -144.261 L 168.616 -148.534 Q 168.616 -148.798 168.537 -148.916 Q 168.459 -149.034 168.253 -149.034 Q 168.096 -149.034 167.827 -148.99 Q 167.557 -148.946 167.361 -148.897 L 167.361 -149.288 L 169.174 -149.788 L 169.596 -149.788 L 169.596 -144.261 Q 169.596 -143.889 169.846 -143.747 Q 170.095 -143.605 170.772 -143.605 Z " fill="black" /></g></g></g><g><g><g><rect x="109.44" y="-121.088" width="7.56" height="0.952" fill="black" /></g></g></g><g><g><g><path d="M 176.856 -202.844 L 176.856 -202.844 L 176.772 -202.424 Q 176.394 -202.424 176.191 -202.354 Q 175.988 -202.284 175.834 -202.144 Q 175.708 -202.032 175.582 -201.871 Q 175.456 -201.71 175.344 -201.402 Q 175.232 -201.094 175.12 -200.548 L 173.692 -193.534 L 173.23 -193.534 L 169.114 -201.052 L 169.044 -201.052 L 167.952 -195.732 Q 167.812 -195.032 167.84 -194.675 Q 167.868 -194.318 168.127 -194.192 Q 168.386 -194.066 168.904 -194.066 L 168.82 -193.646 L 165.6 -193.646 L 165.684 -194.066 Q 166.23 -194.066 166.524 -194.185 Q 166.818 -194.304 166.972 -194.668 Q 167.126 -195.032 167.266 -195.732 L 168.512 -201.78 Q 168.274 -202.172 168.036 -202.298 Q 167.798 -202.424 167.35 -202.424 L 167.434 -202.844 L 169.632 -202.844 L 173.412 -195.956 L 173.482 -195.956 L 174.448 -200.618 Q 174.574 -201.248 174.581 -201.57 Q 174.588 -201.892 174.49 -202.074 Q 174.364 -202.284 174.14 -202.354 Q 173.916 -202.424 173.468 -202.424 L 173.552 -202.844 Z " fill="black" /><path d="M 190.215 -196.796 L 190.215 -196.796 L 186.547 -196.796 L 186.547 -193.086 L 185.539 -193.086 L 185.539 -196.796 L 181.871 -196.796 L 181.871 -197.748 L 185.539 -197.748 L 185.539 -201.458 L 186.547 -201.458 L 186.547 -197.748 L 190.215 -197.748 Z " fill="black" /><path d="M 204.036 -193.646 L 204.036 -193.646 L 195.622 -193.646 L 195.622 -194.038 L 199.668 -202.914 L 200.2 -202.914 L 204.036 -194.038 Z M 202.16 -194.766 L 202.16 -194.766 L 199.626 -201.192 L 199.57 -201.192 L 196.742 -194.766 Z " fill="black" /><path d="M 215.824 -202.844 L 215.824 -202.844 L 215.74 -202.424 Q 215.362 -202.424 215.159 -202.354 Q 214.956 -202.284 214.802 -202.144 Q 214.676 -202.032 214.55 -201.871 Q 214.424 -201.71 214.312 -201.402 Q 214.2 -201.094 214.088 -200.548 L 212.66 -193.534 L 212.198 -193.534 L 208.082 -201.052 L 208.012 -201.052 L 206.92 -195.732 Q 206.78 -195.032 206.808 -194.675 Q 206.836 -194.318 207.095 -194.192 Q 207.354 -194.066 207.872 -194.066 L 207.788 -193.646 L 204.568 -193.646 L 204.652 -194.066 Q 205.198 -194.066 205.492 -194.185 Q 205.786 -194.304 205.94 -194.668 Q 206.094 -195.032 206.234 -195.732 L 207.48 -201.78 Q 207.242 -202.172 207.004 -202.298 Q 206.766 -202.424 206.318 -202.424 L 206.402 -202.844 L 208.6 -202.844 L 212.38 -195.956 L 212.45 -195.956 L 213.416 -200.618 Q 213.542 -201.248 213.549 -201.57 Q 213.556 -201.892 213.458 -202.074 Q 213.332 -202.284 213.108 -202.354 Q 212.884 -202.424 212.436 -202.424 L 212.52 -202.844 Z " fill="black" /></g></g></g><g><g><g><path d="M -3.894 -202.655 L -3.894 -202.655 L -3.978 -202.235 Q -4.356 -202.235 -4.559 -202.165 Q -4.762 -202.095 -4.916 -201.955 Q -5.042 -201.843 -5.168 -201.682 Q -5.294 -201.521 -5.406 -201.213 Q -5.518 -200.905 -5.63 -200.359 L -7.058 -193.345 L -7.52 -193.345 L -11.636 -200.863 L -11.706 -200.863 L -12.798 -195.543 Q -12.938 -194.843 -12.91 -194.486 Q -12.882 -194.129 -12.623 -194.003 Q -12.364 -193.877 -11.846 -193.877 L -11.93 -193.457 L -15.15 -193.457 L -15.066 -193.877 Q -14.52 -193.877 -14.226 -193.996 Q -13.932 -194.115 -13.778 -194.479 Q -13.624 -194.843 -13.484 -195.543 L -12.238 -201.591 Q -12.476 -201.983 -12.714 -202.109 Q -12.952 -202.235 -13.4 -202.235 L -13.316 -202.655 L -11.118 -202.655 L -7.338 -195.767 L -7.268 -195.767 L -6.302 -200.429 Q -6.176 -201.059 -6.169 -201.381 Q -6.162 -201.703 -6.26 -201.885 Q -6.386 -202.095 -6.61 -202.165 Q -6.834 -202.235 -7.282 -202.235 L -7.198 -202.655 Z " fill="black" /></g></g></g></svg>