<svg xmlns="http://www.w3.org/2000/svg" xmlns:xlink="http://www.w3.org/1999/xlink" xml:lang="en" height="130.3478522974302pt" width="475.4pt" viewBox="-21.7 -48.34785229743024 475.4 130.3478522974302"><path d="M 0.0,-0.0 L 28.8,-0 M 28.8,-9 L 28.8,9 M 32.4,-9 L 32.4,9 L 39.6,9 L 39.6,-9 L 32.4,-9 M 43.2,-9 L 43.2,9 M 43.2,-0 L 72,-0" style="stroke:black;fill:none;stroke-width:2.0;stroke-dasharray:-;stroke-linecap:round;stroke-linejoin:round;" /><path d="M 144.0,-0.0 L 162,-0 L 180,-0" style="stroke:black;fill:none;stroke-width:2.0;stroke-dasharray:-;stroke-linecap:round;stroke-linejoin:round;" /><path d="M 180.0,-0.0 L 198,-0 L 201,-9 L 207,9 L 213,-9 L 219,9 L 225,-9 L 231,9 L 234,-0 L 252,-0" style="stroke:black;fill:none;stroke-width:2.0;stroke-dasharray:-;stroke-linecap:round;stroke-linejoin:round;" /><path d="M 252.0,-0.0 L 270,-0 L 270.067,-1.662 L 270.271,-3.367 L 270.614,-5.07 L 271.093,-6.724 L 271.704,-8.284 L 272.436,-9.708 L 273.276,-10.956 L 274.21,-11.996 L 275.219,-12.798 L 276.282,-13.341 L 277.379,-13.61 L 278.486,-13.598 L 279.58,-13.304 L 280.64,-12.738 L 281.643,-11.914 L 282.569,-10.855 L 283.401,-9.59 L 284.122,-8.152 L 284.722,-6.582 L 285.189,-4.922 L 285.52,-3.217 L 285.712,-1.514 L 285.767,0.142 L 285.691,1.704 L 285.494,3.131 L 285.187,4.384 L 284.787,5.429 L 284.312,6.236 L 283.781,6.785 L 283.217,7.06 L 282.642,7.054 L 282.079,6.767 L 281.55,6.206 L 281.077,5.388 L 280.681,4.334 L 280.379,3.072 L 280.186,1.639 L 280.116,0.071 L 280.177,-1.588 L 280.375,-3.292 L 280.712,-4.996 L 281.186,-6.653 L 281.791,-8.218 L 282.517,-9.649 L 283.354,-10.906 L 284.284,-11.955 L 285.289,-12.768 L 286.351,-13.323 L 287.447,-13.604 L 288.553,-13.604 L 289.649,-13.323 L 290.711,-12.768 L 291.716,-11.955 L 292.646,-10.906 L 293.483,-9.649 L 294.209,-8.218 L 294.814,-6.653 L 295.288,-4.996 L 295.625,-3.292 L 295.823,-1.588 L 295.884,0.071 L 295.814,1.639 L 295.621,3.072 L 295.319,4.334 L 294.923,5.388 L 294.45,6.206 L 293.921,6.767 L 293.358,7.054 L 292.783,7.06 L 292.219,6.785 L 291.688,6.236 L 291.213,5.429 L 290.813,4.384 L 290.506,3.131 L 290.309,1.704 L 290.233,0.142 L 290.288,-1.514 L 290.48,-3.217 L 290.811,-4.922 L 291.278,-6.582 L 291.878,-8.152 L 292.599,-9.59 L 293.431,-10.855 L 294.357,-11.914 L 295.36,-12.738 L 296.42,-13.304 L 297.514,-13.598 L 298.621,-13.61 L 299.718,-13.341 L 300.781,-12.798 L 301.79,-11.996 L 302.724,-10.956 L 303.564,-9.708 L 304.296,-8.284 L 304.907,-6.724 L 305.386,-5.07 L 305.729,-3.367 L 305.933,-1.662 L 306,-0 L 324,-0" style="stroke:black;fill:none;stroke-width:2.0;stroke-dasharray:-;stroke-linecap:round;stroke-linejoin:round;" /><path d="M 324.0,-2.4228213137514263e-14 L 356.76,-0 M 356.76,-9 L 356.76,9 M 363.24,-9 L 363.24,9 M 363.24,-0 L 396,-0" style="stroke:black;fill:none;stroke-width:2.0;stroke-dasharray:-;stroke-linecap:round;stroke-linejoin:round;" /><path d="M 396.0,-2.4228213137514263e-14 L 414,-0 L 432,-0" style="stroke:black;fill:none;stroke-width:2.0;stroke-dasharray:-;stroke-linecap:round;stroke-linejoin:round;" /><path d="M 396.0,-2.4228213137514263e-14 L 396,27 L 396,54" style="stroke:black;fill:none;stroke-width:2.0;stroke-dasharray:-;stroke-linecap:round;stroke-linejoin:round;" /><path d="M 396.0,53.99999999999998 L 291.24,54 M 291.24,63 L 291.24,45 M 284.76,63 L 284.76,45 M 284.76,54 L 180,54" style="stroke:black;fill:none;stroke-width:2.0;stroke-dasharray:-;stroke-linecap:round;stroke-linejoin:round;" /><path d="M 180.0,53.99999999999995 L 180,27 L 180,-0" style="stroke:black;fill:none;stroke-width:2.0;stroke-dasharray:-;stroke-linecap:round;stroke-linejoin:round;" /><circle cx="72" cy="-0" r="2.7" style="stroke:black;fill:white;stroke-width:2.0;stroke-dasharray:-;" /><circle cx="0" cy="-0" r="2.7" style="stroke:black;fill:white;stroke-width:2.0;stroke-dasharray:-;" /><circle cx="180" cy="-0" r="2.7" style="stroke:black;fill:black;stroke-width:2.0;stroke-dasharray:-;" /><circle cx="144" cy="-0" r="2.7" style="stroke:black;fill:white;stroke-width:2.0;stroke-dasharray:-;" /><g><g><g><path d="M 214.789 -22.806 L 214.789 -22.806 Q 214.789 -22.064 214.509 -21.56 Q 214.229 -21.056 213.781 -20.734 Q 213.333 -20.412 212.822 -20.237 Q 212.311 -20.062 211.849 -19.978 L 211.849 -19.908 Q 212.101 -19.74 212.325 -19.397 Q 212.549 -19.054 212.878 -18.41 Q 213.207 -17.766 213.781 -16.674 Q 214.019 -16.254 214.306 -16.107 Q 214.593 -15.96 215.069 -15.96 L 214.985 -15.54 L 212.857 -15.54 Q 212.465 -16.408 212.199 -16.989 Q 211.933 -17.57 211.737 -17.962 Q 211.541 -18.354 211.394 -18.662 Q 211.247 -18.97 211.079 -19.292 Q 210.925 -19.586 210.743 -19.677 Q 210.561 -19.768 210.183 -19.768 L 209.889 -19.768 L 209.371 -17.276 Q 209.259 -16.702 209.294 -16.415 Q 209.329 -16.128 209.609 -16.044 Q 209.889 -15.96 210.491 -15.96 L 210.421 -15.54 L 206.557 -15.54 L 206.641 -15.96 Q 207.159 -15.96 207.439 -16.044 Q 207.719 -16.128 207.866 -16.408 Q 208.013 -16.688 208.125 -17.276 L 209.357 -23.282 Q 209.441 -23.674 209.399 -23.898 Q 209.357 -24.122 209.112 -24.22 Q 208.867 -24.318 208.307 -24.318 L 208.391 -24.738 L 211.681 -24.738 Q 213.151 -24.738 213.97 -24.283 Q 214.789 -23.828 214.789 -22.806 Z M 210.771 -24.15 L 210.771 -24.15 L 209.987 -20.286 L 210.421 -20.272 Q 211.261 -20.3 211.94 -20.545 Q 212.619 -20.79 213.011 -21.322 Q 213.403 -21.854 213.403 -22.75 Q 213.403 -23.128 213.242 -23.457 Q 213.081 -23.786 212.689 -23.989 Q 212.297 -24.192 211.597 -24.192 Q 211.331 -24.192 211.17 -24.185 Q 211.009 -24.178 210.771 -24.15 Z " fill="black" /><path d="M 217.908 -16.393 L 217.908 -16.393 L 217.908 -13.678 Q 217.908 -13.384 217.967 -13.227 Q 218.026 -13.07 218.192 -13.016 Q 218.359 -12.963 218.682 -12.963 L 218.682 -12.6 L 216.213 -12.6 L 216.213 -12.963 Q 216.526 -12.963 216.683 -13.016 Q 216.84 -13.07 216.889 -13.232 Q 216.938 -13.394 216.938 -13.698 L 216.938 -16.667 Q 216.938 -16.941 216.835 -17.034 Q 216.732 -17.128 216.507 -17.128 Q 216.399 -17.128 216.316 -17.118 Q 216.232 -17.108 216.232 -17.108 L 216.232 -17.48 L 217.516 -17.716 L 217.879 -17.716 L 217.879 -16.912 L 217.947 -16.912 Q 218.359 -17.284 218.771 -17.515 Q 219.182 -17.745 219.741 -17.745 Q 220.201 -17.745 220.49 -17.51 Q 220.78 -17.275 220.936 -16.932 L 220.985 -16.932 Q 221.877 -17.745 222.7 -17.745 Q 223.367 -17.745 223.754 -17.333 Q 224.141 -16.922 224.141 -16.03 L 224.141 -13.874 Q 224.141 -13.541 224.18 -13.34 Q 224.219 -13.139 224.376 -13.051 Q 224.533 -12.963 224.886 -12.963 L 224.886 -12.6 L 222.426 -12.6 L 222.426 -12.963 Q 222.789 -12.963 222.95 -13.056 Q 223.112 -13.149 223.151 -13.35 Q 223.19 -13.551 223.19 -13.874 L 223.19 -15.912 Q 223.19 -16.53 222.94 -16.775 Q 222.691 -17.02 222.299 -17.02 Q 221.965 -17.02 221.632 -16.819 Q 221.299 -16.618 221.044 -16.422 L 221.044 -13.874 Q 221.044 -13.511 221.088 -13.31 Q 221.132 -13.11 221.304 -13.036 Q 221.475 -12.963 221.838 -12.963 L 221.838 -12.6 L 219.28 -12.6 L 219.28 -12.963 Q 219.653 -12.963 219.824 -13.036 Q 219.996 -13.11 220.045 -13.31 Q 220.094 -13.511 220.094 -13.874 L 220.094 -15.942 Q 220.094 -16.559 219.873 -16.789 Q 219.653 -17.02 219.27 -17.02 Q 218.869 -17.02 218.501 -16.804 Q 218.134 -16.589 217.908 -16.393 Z " fill="black" /></g></g></g><g><g><g><path d="M 286.789 -22.88 L 286.789 -22.88 L 285.949 -20.15 L 279.033 -20.15 L 279.117 -20.57 Q 279.663 -20.57 279.95 -20.668 Q 280.237 -20.766 280.391 -21.046 Q 280.545 -21.326 280.657 -21.886 L 281.861 -27.724 Q 281.959 -28.186 281.931 -28.452 Q 281.903 -28.718 281.644 -28.823 Q 281.385 -28.928 280.783 -28.928 L 280.867 -29.348 L 284.843 -29.348 L 284.773 -28.928 Q 284.017 -28.928 283.639 -28.697 Q 283.261 -28.466 283.107 -27.71 L 281.833 -21.438 Q 281.735 -20.976 281.931 -20.829 Q 282.127 -20.682 282.743 -20.682 L 283.401 -20.682 Q 284.073 -20.682 284.493 -20.801 Q 284.913 -20.92 285.207 -21.172 Q 285.501 -21.424 285.76 -21.851 Q 286.019 -22.278 286.341 -22.88 Z " fill="black" /><path d="M 289.376 -21.002 L 289.376 -21.002 L 289.376 -18.288 Q 289.376 -17.994 289.435 -17.837 Q 289.494 -17.68 289.66 -17.626 Q 289.827 -17.572 290.15 -17.572 L 290.15 -17.21 L 287.681 -17.21 L 287.681 -17.572 Q 287.994 -17.572 288.151 -17.626 Q 288.308 -17.68 288.357 -17.842 Q 288.406 -18.004 288.406 -18.307 L 288.406 -21.277 Q 288.406 -21.551 288.303 -21.644 Q 288.2 -21.737 287.975 -21.737 Q 287.867 -21.737 287.784 -21.728 Q 287.7 -21.718 287.7 -21.718 L 287.7 -22.09 L 288.984 -22.325 L 289.347 -22.325 L 289.347 -21.522 L 289.415 -21.522 Q 289.827 -21.894 290.239 -22.125 Q 290.65 -22.355 291.209 -22.355 Q 291.669 -22.355 291.959 -22.12 Q 292.248 -21.884 292.404 -21.541 L 292.453 -21.541 Q 293.345 -22.355 294.168 -22.355 Q 294.835 -22.355 295.222 -21.943 Q 295.609 -21.532 295.609 -20.64 L 295.609 -18.484 Q 295.609 -18.151 295.648 -17.95 Q 295.687 -17.749 295.844 -17.661 Q 296.001 -17.572 296.354 -17.572 L 296.354 -17.21 L 293.894 -17.21 L 293.894 -17.572 Q 294.257 -17.572 294.418 -17.666 Q 294.58 -17.759 294.619 -17.96 Q 294.658 -18.16 294.658 -18.484 L 294.658 -20.522 Q 294.658 -21.14 294.409 -21.385 Q 294.159 -21.63 293.767 -21.63 Q 293.433 -21.63 293.1 -21.429 Q 292.767 -21.228 292.512 -21.032 L 292.512 -18.484 Q 292.512 -18.121 292.556 -17.92 Q 292.6 -17.719 292.772 -17.646 Q 292.943 -17.572 293.306 -17.572 L 293.306 -17.21 L 290.748 -17.21 L 290.748 -17.572 Q 291.121 -17.572 291.292 -17.646 Q 291.464 -17.719 291.513 -17.92 Q 291.562 -18.121 291.562 -18.484 L 291.562 -20.552 Q 291.562 -21.169 291.341 -21.399 Q 291.121 -21.63 290.738 -21.63 Q 290.337 -21.63 289.969 -21.414 Q 289.602 -21.198 289.376 -21.002 Z " fill="black" /></g></g></g><circle cx="396" cy="-0" r="2.7" style="stroke:black;fill:black;stroke-width:2.0;stroke-dasharray:-;" /><g><g><g><path d="M 360.412 -17.57 L 360.412 -17.57 L 360.664 -17.304 Q 359.95 -16.464 359.012 -15.925 Q 358.074 -15.386 356.744 -15.386 Q 355.484 -15.386 354.728 -15.855 Q 353.972 -16.324 353.643 -17.108 Q 353.314 -17.892 353.314 -18.816 Q 353.314 -20.286 353.762 -21.427 Q 354.21 -22.568 354.987 -23.345 Q 355.764 -24.122 356.744 -24.521 Q 357.724 -24.92 358.788 -24.92 Q 359.502 -24.92 359.901 -24.794 Q 360.3 -24.668 360.524 -24.535 Q 360.748 -24.402 360.916 -24.402 Q 361.084 -24.402 361.21 -24.542 Q 361.336 -24.682 361.504 -24.906 L 361.91 -24.906 L 361.252 -21.7 L 360.79 -21.7 Q 360.846 -23.1 360.272 -23.709 Q 359.698 -24.318 358.662 -24.318 Q 357.85 -24.318 357.136 -23.947 Q 356.422 -23.576 355.869 -22.897 Q 355.316 -22.218 355.001 -21.273 Q 354.686 -20.328 354.686 -19.166 Q 354.686 -17.766 355.351 -17.031 Q 356.016 -16.296 357.402 -16.296 Q 359.012 -16.296 360.412 -17.57 Z " fill="black" /><path d="M 363.657 -16.393 L 363.657 -16.393 L 363.657 -13.678 Q 363.657 -13.384 363.716 -13.227 Q 363.775 -13.07 363.941 -13.017 Q 364.108 -12.963 364.431 -12.963 L 364.431 -12.6 L 361.962 -12.6 L 361.962 -12.963 Q 362.275 -12.963 362.432 -13.017 Q 362.589 -13.07 362.638 -13.232 Q 362.687 -13.394 362.687 -13.698 L 362.687 -16.667 Q 362.687 -16.941 362.584 -17.035 Q 362.481 -17.128 362.256 -17.128 Q 362.148 -17.128 362.065 -17.118 Q 361.981 -17.108 361.981 -17.108 L 361.981 -17.48 L 363.265 -17.716 L 363.628 -17.716 L 363.628 -16.912 L 363.696 -16.912 Q 364.108 -17.284 364.52 -17.515 Q 364.931 -17.745 365.49 -17.745 Q 365.95 -17.745 366.239 -17.51 Q 366.529 -17.275 366.685 -16.932 L 366.734 -16.932 Q 367.626 -17.745 368.449 -17.745 Q 369.116 -17.745 369.503 -17.333 Q 369.89 -16.922 369.89 -16.03 L 369.89 -13.874 Q 369.89 -13.541 369.929 -13.34 Q 369.968 -13.139 370.125 -13.051 Q 370.282 -12.963 370.635 -12.963 L 370.635 -12.6 L 368.175 -12.6 L 368.175 -12.963 Q 368.538 -12.963 368.699 -13.056 Q 368.861 -13.149 368.9 -13.35 Q 368.939 -13.551 368.939 -13.874 L 368.939 -15.912 Q 368.939 -16.53 368.69 -16.775 Q 368.44 -17.02 368.048 -17.02 Q 367.714 -17.02 367.381 -16.819 Q 367.048 -16.618 366.793 -16.422 L 366.793 -13.874 Q 366.793 -13.511 366.837 -13.311 Q 366.881 -13.11 367.053 -13.036 Q 367.224 -12.963 367.587 -12.963 L 367.587 -12.6 L 365.029 -12.6 L 365.029 -12.963 Q 365.402 -12.963 365.573 -13.036 Q 365.745 -13.11 365.794 -13.311 Q 365.843 -13.511 365.843 -13.874 L 365.843 -15.942 Q 365.843 -16.559 365.622 -16.79 Q 365.402 -17.02 365.019 -17.02 Q 364.618 -17.02 364.25 -16.804 Q 363.883 -16.589 363.657 -16.393 Z " fill="black" /></g></g></g><circle cx="432" cy="-0" r="2.7" style="stroke:black;fill:white;stroke-width:2.0;stroke-dasharray:-;" /><g><g><g><path d="M 289.022 36.303 L 289.022 36.303 L 289.274 36.569 Q 288.56 37.409 287.622 37.948 Q 286.684 38.487 285.354 38.487 Q 284.094 38.487 283.338 38.018 Q 282.582 37.549 282.253 36.765 Q 281.924 35.981 281.924 35.057 Q 281.924 33.587 282.372 32.446 Q 282.82 31.305 283.597 30.528 Q 284.374 29.751 285.354 29.352 Q 286.334 28.953 287.398 28.953 Q 288.112 28.953 288.511 29.079 Q 288.91 29.205 289.134 29.338 Q 289.358 29.471 289.526 29.471 Q 289.694 29.471 289.82 29.331 Q 289.946 29.191 290.114 28.967 L 290.52 28.967 L 289.862 32.173 L 289.4 32.173 Q 289.456 30.773 288.882 30.164 Q 288.308 29.555 287.272 29.555 Q 286.46 29.555 285.746 29.926 Q 285.032 30.297 284.479 30.976 Q 283.926 31.655 283.611 32.6 Q 283.296 33.545 283.296 34.707 Q 283.296 36.107 283.961 36.842 Q 284.626 37.577 286.012 37.577 Q 287.622 37.577 289.022 36.303 Z " fill="black" /><path d="M 295.286 38.029 L 295.286 38.029 Q 295.286 38.676 295.148 39.283 Q 295.011 39.891 294.722 40.366 Q 294.433 40.841 293.982 41.121 Q 293.531 41.4 292.914 41.4 Q 292.287 41.4 291.836 41.13 Q 291.385 40.861 291.101 40.391 Q 290.817 39.92 290.685 39.308 Q 290.552 38.695 290.552 38.009 Q 290.552 36.99 290.846 36.255 Q 291.14 35.52 291.674 35.118 Q 292.208 34.716 292.934 34.716 Q 293.61 34.716 294.144 35.103 Q 294.678 35.491 294.982 36.23 Q 295.286 36.97 295.286 38.029 Z M 294.237 38.097 L 294.237 38.097 Q 294.237 36.559 293.904 35.838 Q 293.571 35.118 292.914 35.118 Q 292.267 35.118 291.929 35.838 Q 291.591 36.559 291.591 38.058 Q 291.591 39.538 291.939 40.258 Q 292.287 40.979 292.914 40.979 Q 293.551 40.979 293.894 40.253 Q 294.237 39.528 294.237 38.097 Z " fill="black" /></g></g></g></svg>