<svg xmlns="http://www.w3.org/2000/svg" xmlns:xlink="http://www.w3.org/1999/xlink" xml:lang="en" height="221.97799999999995pt" width="336.8343999999999pt" viewBox="-59.66279999999999 -194.33799999999997 336.8343999999999 221.97799999999995"><circle cx="2.204364238465236e-15" cy="-36.0" r="18.0" style="stroke:blue;fill:none;stroke-width:2.0;stroke-dasharray:-;" /><path d="M 0.0,-0.0 L 0.0,14.4 L -9.0,14.4 L 9.0,14.4 M -6.3,18.72 L 6.3,18.72 M -1.8,23.04 L 1.8,23.04" style="stroke:black;fill:none;stroke-width:2.0;stroke-dasharray:-;stroke-linecap:round;stroke-linejoin:round;" /><path d="M 0.0,-0.0 L 1.102182119232618e-15,-18.0 L 1.102182119232618e-15,-18.0 M 3.3065463576978533e-15,-54.0 L 3.3065463576978533e-15,-54.0 L 4.408728476930472e-15,-72.0" style="stroke:blue;fill:none;stroke-width:2.0;stroke-dasharray:-;stroke-linecap:round;stroke-linejoin:round;" /><path d="M 9.000000000000002,-36.0 L 8.250000000000002,-37.86349712473816 L 7.500000000000003,-39.6 L 6.750000000000003,-41.091168824543146 L 6.0000000000000036,-42.23538290724795 L 5.2500000000000036,-42.95466594928129 L 4.500000000000003,-43.199999999999996 L 3.750000000000003,-42.9546659492813 L 3.0000000000000027,-42.23538290724795 L 2.2500000000000027,-41.09116882454314 L 1.500000000000003,-39.6 L 0.7500000000000027,-37.863497124738146 L 2.204364238465236e-15,-36.0 L -0.7499999999999972,-34.136502875261854 L -1.4999999999999967,-32.400000000000006 L -2.2499999999999982,-30.908831175456857 L -2.9999999999999973,-29.764617092752044 L -3.7499999999999964,-29.04533405071871 L -4.499999999999998,-28.8 L -5.249999999999997,-29.045334050718708 L -5.9999999999999964,-29.76461709275204 L -6.749999999999998,-30.90883117545686 L -7.499999999999997,-32.4 L -8.249999999999996,-34.13650287526185 L -8.999999999999998,-36.0" style="stroke:blue;fill:none;stroke-width:2.0;stroke-dasharray:-;stroke-linecap:round;stroke-linejoin:round;" /><path d="M 4.408728476930472e-15,-72.0 L 18.000000000000004,-72.0 L 21.000000000000007,-81.0 L 27.000000000000004,-63.0 L 33.0,-81.0 L 39.00000000000001,-63.0 L 45.00000000000001,-81.0 L 51.0,-63.0 L 54.00000000000001,-72.0 L 72.0,-72.0" style="stroke:black;fill:none;stroke-width:2.0;stroke-dasharray:-;stroke-linecap:round;stroke-linejoin:round;" /><path d="M 72.0,-72.0 L 81.0,-72.0 L 90.0,-72.0" style="stroke:black;fill:none;stroke-width:2.0;stroke-dasharray:-;stroke-linecap:round;stroke-linejoin:round;" /><path d="M 90.0,-72.0 L 108.0,-72.0 L 126.0,-72.0" style="stroke:black;fill:none;stroke-width:2.0;stroke-dasharray:-;stroke-linecap:round;stroke-linejoin:round;" /><path d="M 126.0,-72.0 L 126.0,-54.0 L 135.0,-50.99999999999999 L 117.0,-45.0 L 135.0,-39.00000000000001 L 117.0,-33.0 L 135.0,-27.0 L 116.99999999999999,-21.000000000000007 L 125.99999999999999,-18.0 L 125.99999999999999,-0.0" style="stroke:black;fill:none;stroke-width:2.0;stroke-dasharray:-;stroke-linecap:round;stroke-linejoin:round;" /><path d="M 125.99999999999999,-0.0 L 125.99999999999999,14.4 L 116.99999999999999,14.4 L 134.99999999999997,14.4 M 119.69999999999999,18.72 L 132.29999999999998,18.72 M 124.19999999999999,23.04 L 127.79999999999998,23.04" style="stroke:black;fill:none;stroke-width:2.0;stroke-dasharray:-;stroke-linecap:round;stroke-linejoin:round;" /><path d="M 126.0,-72.0 L 144.0,-72.0 L 162.0,-72.0" style="stroke:black;fill:none;stroke-width:2.0;stroke-dasharray:-;stroke-linecap:round;stroke-linejoin:round;" /><path d="M 194.99999999999997,-42.0 L 194.99999999999997,-57.0 L 180.0,-57.0 L 180.0,-87.0 L 194.99999999999997,-87.0 L 194.99999999999997,-101.99999999999999" style="stroke:black;fill:none;stroke-width:2.0;stroke-dasharray:-;stroke-linecap:round;stroke-linejoin:round;" /><path d="M 185.99999999999997,-57.0 L 180.0,-57.0" style="stroke:black;fill:none;stroke-width:2.0;stroke-dasharray:-;stroke-linecap:round;stroke-linejoin:round;" /><path d="M 192.99999999999997 -57.0 L 185.99999999999997 -52.5 L 185.99999999999997 -61.5 Z" style="stroke:black;fill:black;stroke-linecap:butt;stroke-linejoin:miter;" /><path d="M 177.0,-59.99999999999999 L 177.0,-84.0" style="stroke:black;fill:none;stroke-width:2.0;stroke-dasharray:-;stroke-linecap:round;stroke-linejoin:round;" /><path d="M 162.0,-72.0 L 177.0,-72.0" style="stroke:black;fill:none;stroke-width:2.0;stroke-dasharray:-;stroke-linecap:round;stroke-linejoin:round;" /><path d="M 194.99999999999997,-42.0 L 194.99999999999997,-21.0 L 194.99999999999997,-0.0" style="stroke:black;fill:none;stroke-width:2.0;stroke-dasharray:-;stroke-linecap:round;stroke-linejoin:round;" /><path d="M 194.99999999999997,-0.0 L 194.99999999999997,14.4 L 185.99999999999997,14.4 L 203.99999999999997,14.4 M 188.7,18.72 L 201.29999999999998,18.72 M 193.2,23.04 L 196.79999999999998,23.04" style="stroke:black;fill:none;stroke-width:2.0;stroke-dasharray:-;stroke-linecap:round;stroke-linejoin:round;" /><path d="M 194.99999999999997,-101.99999999999999 L 212.99999999999997,-101.99999999999999 L 230.99999999999997,-101.99999999999999" style="stroke:black;fill:none;stroke-width:2.0;stroke-dasharray:-;stroke-linecap:round;stroke-linejoin:round;" /><path d="M 194.99999999999997,-101.99999999999999 L 194.99999999999997,-119.99999999999999 L 185.99999999999997,-123.0 L 203.99999999999997,-129.0 L 185.99999999999997,-134.99999999999997 L 203.99999999999997,-140.99999999999997 L 185.99999999999997,-147.0 L 203.99999999999997,-153.0 L 194.99999999999997,-156.0 L 194.99999999999997,-174.0" style="stroke:black;fill:none;stroke-width:2.0;stroke-dasharray:-;stroke-linecap:round;stroke-linejoin:round;" /><path d="M 176.99999999999997,-174.0 L 194.99999999999997,-174.0 L 212.99999999999997,-174.0" style="stroke:black;fill:none;stroke-width:3;stroke-dasharray:-;stroke-linecap:round;stroke-linejoin:round;" /><g><g><g><path d="M -52.168 -34.811 L -52.168 -34.811 L -53.596 -34.811 L -53.596 -32.599 L -54.842 -32.599 L -54.842 -34.811 L -58.72 -34.811 L -58.72 -35.693 L -54.45 -41.629 L -53.596 -41.629 L -53.596 -35.777 L -52.168 -35.777 Z M -54.842 -35.777 L -54.842 -35.777 L -54.842 -40.103 L -54.898 -40.103 L -57.95 -35.833 L -57.95 -35.777 Z " fill="blue" /><path d="M -48.388 -42.469 L -48.388 -42.469 L -49.634 -35.931 L -49.564 -35.931 L -47.38 -37.905 Q -47.226 -38.031 -47.135 -38.157 Q -47.044 -38.283 -47.044 -38.423 Q -47.044 -38.647 -47.233 -38.717 Q -47.422 -38.787 -47.674 -38.787 L -47.632 -39.137 L -44.622 -39.137 L -44.664 -38.787 Q -45.378 -38.773 -45.77 -38.521 Q -46.162 -38.269 -46.512 -37.947 L -48.066 -36.575 L -47.03 -34.167 Q -46.876 -33.817 -46.729 -33.614 Q -46.582 -33.411 -46.274 -33.411 Q -45.91 -33.411 -45.651 -33.656 Q -45.392 -33.901 -45.168 -34.223 L -44.874 -34.027 Q -44.93 -33.929 -45.084 -33.677 Q -45.238 -33.425 -45.49 -33.145 Q -45.742 -32.865 -46.071 -32.662 Q -46.4 -32.459 -46.806 -32.459 Q -47.156 -32.459 -47.38 -32.627 Q -47.604 -32.795 -47.737 -33.047 Q -47.87 -33.299 -47.982 -33.551 L -48.948 -35.889 L -49.76 -35.175 L -50.25 -32.599 L -51.398 -32.599 L -49.746 -41.111 Q -49.746 -41.111 -49.725 -41.251 Q -49.704 -41.391 -49.704 -41.531 Q -49.704 -41.979 -50.194 -41.979 Q -50.32 -41.979 -50.474 -41.965 Q -50.628 -41.951 -50.628 -41.951 L -50.628 -42.315 L -48.696 -42.469 Z " fill="blue" /><path d="M -35.718 -39.375 L -35.718 -39.375 L -36.152 -39.375 Q -36.152 -40.145 -36.229 -40.544 Q -36.306 -40.943 -36.642 -41.097 Q -36.978 -41.251 -37.762 -41.251 L -38.56 -41.251 L -39.946 -34.433 Q -40.072 -33.803 -40.037 -33.502 Q -40.002 -33.201 -39.722 -33.11 Q -39.442 -33.019 -38.854 -33.019 L -38.938 -32.599 L -42.928 -32.599 L -42.844 -33.019 Q -42.256 -33.019 -41.948 -33.11 Q -41.64 -33.201 -41.486 -33.502 Q -41.332 -33.803 -41.206 -34.433 L -39.82 -41.251 L -40.618 -41.251 Q -41.206 -41.251 -41.556 -41.167 Q -41.906 -41.083 -42.13 -40.88 Q -42.354 -40.677 -42.529 -40.313 Q -42.704 -39.949 -42.942 -39.375 L -43.39 -39.375 L -42.816 -41.797 L -35.298 -41.797 Z " fill="blue" /><path d="M -27.066 -39.865 L -27.066 -39.865 Q -27.066 -39.123 -27.346 -38.619 Q -27.626 -38.115 -28.074 -37.793 Q -28.522 -37.471 -29.033 -37.296 Q -29.544 -37.121 -30.006 -37.037 L -30.006 -36.967 Q -29.754 -36.799 -29.53 -36.456 Q -29.306 -36.113 -28.977 -35.469 Q -28.648 -34.825 -28.074 -33.733 Q -27.836 -33.313 -27.549 -33.166 Q -27.262 -33.019 -26.786 -33.019 L -26.87 -32.599 L -28.998 -32.599 Q -29.39 -33.467 -29.656 -34.048 Q -29.922 -34.629 -30.118 -35.021 Q -30.314 -35.413 -30.461 -35.721 Q -30.608 -36.029 -30.776 -36.351 Q -30.93 -36.645 -31.112 -36.736 Q -31.294 -36.827 -31.672 -36.827 L -31.966 -36.827 L -32.484 -34.335 Q -32.596 -33.761 -32.561 -33.474 Q -32.526 -33.187 -32.246 -33.103 Q -31.966 -33.019 -31.364 -33.019 L -31.434 -32.599 L -35.298 -32.599 L -35.214 -33.019 Q -34.696 -33.019 -34.416 -33.103 Q -34.136 -33.187 -33.989 -33.467 Q -33.842 -33.747 -33.73 -34.335 L -32.498 -40.341 Q -32.414 -40.733 -32.456 -40.957 Q -32.498 -41.181 -32.743 -41.279 Q -32.988 -41.377 -33.548 -41.377 L -33.464 -41.797 L -30.174 -41.797 Q -28.704 -41.797 -27.885 -41.342 Q -27.066 -40.887 -27.066 -39.865 Z M -31.084 -41.209 L -31.084 -41.209 L -31.868 -37.345 L -31.434 -37.331 Q -30.594 -37.359 -29.915 -37.604 Q -29.236 -37.849 -28.844 -38.381 Q -28.452 -38.913 -28.452 -39.809 Q -28.452 -40.187 -28.613 -40.516 Q -28.774 -40.845 -29.166 -41.048 Q -29.558 -41.251 -30.258 -41.251 Q -30.524 -41.251 -30.685 -41.244 Q -30.846 -41.237 -31.084 -41.209 Z " fill="blue" /><path d="M -25.554 -31.442 L -25.554 -31.442 L -25.24 -31.442 Q -25.113 -30.874 -24.936 -30.56 Q -24.76 -30.247 -24.48 -30.124 Q -24.201 -30.002 -23.799 -30.002 Q -23.339 -30.002 -23.089 -30.154 Q -22.839 -30.305 -22.839 -30.688 Q -22.839 -30.942 -22.961 -31.114 Q -23.084 -31.285 -23.353 -31.442 Q -23.623 -31.599 -24.074 -31.805 Q -24.534 -32.03 -24.863 -32.226 Q -25.191 -32.422 -25.362 -32.687 Q -25.534 -32.951 -25.534 -33.353 Q -25.534 -34.059 -25.059 -34.431 Q -24.583 -34.804 -23.868 -34.804 Q -23.437 -34.804 -23.138 -34.696 Q -22.839 -34.588 -22.663 -34.51 L -22.643 -34.51 L -22.486 -34.755 L -22.212 -34.755 L -22.192 -33.128 L -22.535 -33.128 Q -22.721 -33.883 -23.055 -34.142 Q -23.388 -34.402 -23.819 -34.402 Q -24.27 -34.402 -24.5 -34.206 Q -24.73 -34.01 -24.73 -33.696 Q -24.73 -33.441 -24.574 -33.275 Q -24.417 -33.108 -24.128 -32.966 Q -23.839 -32.824 -23.437 -32.628 Q -22.986 -32.413 -22.643 -32.182 Q -22.3 -31.952 -22.104 -31.663 Q -21.908 -31.374 -21.908 -30.942 Q -21.908 -30.423 -22.182 -30.11 Q -22.457 -29.796 -22.888 -29.664 Q -23.319 -29.531 -23.79 -29.531 Q -24.27 -29.531 -24.534 -29.629 Q -24.799 -29.727 -25.024 -29.816 L -25.064 -29.816 L -25.309 -29.561 L -25.534 -29.561 Z " fill="blue" /></g></g></g><g><g><g><path d="M 37.229 -94.933 L 37.229 -94.933 Q 37.229 -94.191 36.949 -93.687 Q 36.669 -93.183 36.221 -92.861 Q 35.773 -92.539 35.262 -92.364 Q 34.751 -92.189 34.289 -92.105 L 34.289 -92.035 Q 34.541 -91.867 34.765 -91.524 Q 34.989 -91.181 35.318 -90.537 Q 35.647 -89.893 36.221 -88.801 Q 36.459 -88.381 36.746 -88.234 Q 37.033 -88.087 37.509 -88.087 L 37.425 -87.667 L 35.297 -87.667 Q 34.905 -88.535 34.639 -89.116 Q 34.373 -89.697 34.177 -90.089 Q 33.981 -90.481 33.834 -90.789 Q 33.687 -91.097 33.519 -91.419 Q 33.365 -91.713 33.183 -91.804 Q 33.001 -91.895 32.623 -91.895 L 32.329 -91.895 L 31.811 -89.403 Q 31.699 -88.829 31.734 -88.542 Q 31.769 -88.255 32.049 -88.171 Q 32.329 -88.087 32.931 -88.087 L 32.861 -87.667 L 28.997 -87.667 L 29.081 -88.087 Q 29.599 -88.087 29.879 -88.171 Q 30.159 -88.255 30.306 -88.535 Q 30.453 -88.815 30.565 -89.403 L 31.797 -95.409 Q 31.881 -95.801 31.839 -96.025 Q 31.797 -96.249 31.552 -96.347 Q 31.307 -96.445 30.747 -96.445 L 30.831 -96.865 L 34.121 -96.865 Q 35.591 -96.865 36.41 -96.41 Q 37.229 -95.955 37.229 -94.933 Z M 33.211 -96.277 L 33.211 -96.277 L 32.427 -92.413 L 32.861 -92.399 Q 33.701 -92.427 34.38 -92.672 Q 35.059 -92.917 35.451 -93.449 Q 35.843 -93.981 35.843 -94.877 Q 35.843 -95.255 35.682 -95.584 Q 35.521 -95.913 35.129 -96.116 Q 34.737 -96.319 34.037 -96.319 Q 33.771 -96.319 33.61 -96.312 Q 33.449 -96.305 33.211 -96.277 Z " fill="black" /><path d="M 38.741 -86.511 L 38.741 -86.511 L 39.055 -86.511 Q 39.182 -85.943 39.359 -85.629 Q 39.535 -85.315 39.814 -85.193 Q 40.094 -85.07 40.495 -85.07 Q 40.956 -85.07 41.206 -85.222 Q 41.456 -85.374 41.456 -85.756 Q 41.456 -86.011 41.333 -86.183 Q 41.211 -86.354 40.941 -86.511 Q 40.672 -86.668 40.221 -86.874 Q 39.76 -87.099 39.432 -87.295 Q 39.104 -87.491 38.932 -87.756 Q 38.761 -88.02 38.761 -88.422 Q 38.761 -89.128 39.236 -89.5 Q 39.711 -89.872 40.427 -89.872 Q 40.858 -89.872 41.157 -89.765 Q 41.456 -89.657 41.632 -89.578 L 41.652 -89.578 L 41.809 -89.823 L 42.083 -89.823 L 42.103 -88.197 L 41.76 -88.197 Q 41.573 -88.951 41.24 -89.211 Q 40.907 -89.471 40.476 -89.471 Q 40.025 -89.471 39.795 -89.275 Q 39.564 -89.079 39.564 -88.765 Q 39.564 -88.51 39.721 -88.344 Q 39.878 -88.177 40.167 -88.035 Q 40.456 -87.893 40.858 -87.697 Q 41.309 -87.481 41.652 -87.251 Q 41.995 -87.021 42.191 -86.732 Q 42.387 -86.442 42.387 -86.011 Q 42.387 -85.492 42.112 -85.178 Q 41.838 -84.865 41.407 -84.732 Q 40.976 -84.6 40.505 -84.6 Q 40.025 -84.6 39.76 -84.698 Q 39.496 -84.796 39.27 -84.884 L 39.231 -84.884 L 38.986 -84.629 L 38.761 -84.629 Z " fill="black" /></g></g></g><circle cx="90.0" cy="-72.0" r="2.6999999999999997" style="stroke:black;fill:white;stroke-width:2.0;stroke-dasharray:-;" /><circle cx="126.0" cy="-72.0" r="2.6999999999999997" style="stroke:black;fill:black;stroke-width:2.0;stroke-dasharray:-;" /><g><g><g><path d="M 106.186 -41.269 L 106.186 -41.269 Q 106.186 -40.527 105.906 -40.023 Q 105.626 -39.519 105.178 -39.197 Q 104.73 -38.875 104.219 -38.7 Q 103.708 -38.525 103.246 -38.441 L 103.246 -38.371 Q 103.498 -38.203 103.722 -37.86 Q 103.946 -37.517 104.275 -36.873 Q 104.604 -36.229 105.178 -35.137 Q 105.416 -34.717 105.703 -34.57 Q 105.99 -34.423 106.466 -34.423 L 106.382 -34.003 L 104.254 -34.003 Q 103.862 -34.871 103.596 -35.452 Q 103.33 -36.033 103.134 -36.425 Q 102.938 -36.817 102.791 -37.125 Q 102.644 -37.433 102.476 -37.755 Q 102.322 -38.049 102.14 -38.14 Q 101.958 -38.231 101.58 -38.231 L 101.286 -38.231 L 100.768 -35.739 Q 100.656 -35.165 100.691 -34.878 Q 100.726 -34.591 101.006 -34.507 Q 101.286 -34.423 101.888 -34.423 L 101.818 -34.003 L 97.954 -34.003 L 98.038 -34.423 Q 98.556 -34.423 98.836 -34.507 Q 99.116 -34.591 99.263 -34.871 Q 99.41 -35.151 99.522 -35.739 L 100.754 -41.745 Q 100.838 -42.137 100.796 -42.361 Q 100.754 -42.585 100.509 -42.683 Q 100.264 -42.781 99.704 -42.781 L 99.788 -43.201 L 103.078 -43.201 Q 104.548 -43.201 105.367 -42.746 Q 106.186 -42.291 106.186 -41.269 Z M 102.168 -42.613 L 102.168 -42.613 L 101.384 -38.749 L 101.818 -38.735 Q 102.658 -38.763 103.337 -39.008 Q 104.016 -39.253 104.408 -39.785 Q 104.8 -40.317 104.8 -41.213 Q 104.8 -41.591 104.639 -41.92 Q 104.478 -42.249 104.086 -42.452 Q 103.694 -42.655 102.994 -42.655 Q 102.728 -42.655 102.567 -42.648 Q 102.406 -42.641 102.168 -42.613 Z " fill="black" /><path d="M 109.168 -36.178 L 109.168 -36.178 L 109.168 -35.336 L 109.217 -35.336 Q 109.599 -35.777 109.981 -35.992 Q 110.363 -36.208 110.824 -36.208 Q 111.343 -36.208 111.765 -35.899 Q 112.186 -35.59 112.436 -35.047 Q 112.686 -34.503 112.686 -33.797 Q 112.686 -32.876 112.358 -32.239 Q 112.029 -31.602 111.485 -31.274 Q 110.942 -30.945 110.305 -30.945 Q 110.001 -30.945 109.731 -31.024 Q 109.462 -31.102 109.236 -31.229 L 109.187 -31.229 L 109.187 -29.975 Q 109.187 -29.632 109.276 -29.451 Q 109.364 -29.269 109.589 -29.206 Q 109.815 -29.142 110.236 -29.142 L 110.236 -28.799 L 107.463 -28.799 L 107.463 -29.132 Q 107.806 -29.142 107.967 -29.206 Q 108.129 -29.269 108.183 -29.436 Q 108.237 -29.603 108.237 -29.906 L 108.237 -35.061 Q 108.237 -35.345 108.178 -35.468 Q 108.119 -35.59 107.835 -35.59 Q 107.747 -35.59 107.61 -35.581 Q 107.472 -35.571 107.472 -35.571 L 107.472 -35.963 L 108.795 -36.178 Z M 109.187 -34.836 L 109.187 -34.836 L 109.187 -32.072 Q 109.295 -31.964 109.457 -31.803 Q 109.619 -31.641 109.844 -31.519 Q 110.069 -31.396 110.334 -31.396 Q 110.697 -31.396 110.995 -31.617 Q 111.294 -31.837 111.481 -32.307 Q 111.667 -32.778 111.667 -33.503 Q 111.667 -34.424 111.334 -34.934 Q 111 -35.443 110.393 -35.443 Q 110.001 -35.443 109.677 -35.238 Q 109.354 -35.032 109.187 -34.836 Z " fill="black" /></g></g></g><g><g><g><path d="M 209.926 -68.871 L 209.926 -68.871 L 206.188 -68.871 L 206.272 -69.291 Q 206.79 -69.291 207.063 -69.389 Q 207.336 -69.487 207.476 -69.76 Q 207.616 -70.033 207.714 -70.537 L 208.96 -76.585 L 208.904 -76.585 L 204.2 -68.871 L 203.892 -68.871 L 202.198 -76.571 L 202.142 -76.571 L 200.98 -70.915 Q 200.84 -70.201 200.861 -69.851 Q 200.882 -69.501 201.134 -69.396 Q 201.386 -69.291 201.918 -69.291 L 201.834 -68.871 L 198.6 -68.871 L 198.684 -69.291 Q 199.23 -69.291 199.524 -69.396 Q 199.818 -69.501 199.986 -69.851 Q 200.154 -70.201 200.294 -70.915 L 201.4 -76.361 Q 201.512 -76.893 201.47 -77.166 Q 201.428 -77.439 201.169 -77.544 Q 200.91 -77.649 200.35 -77.649 L 200.434 -78.069 L 203.234 -78.069 L 204.746 -70.985 L 204.802 -70.985 L 209.072 -78.069 L 211.718 -78.069 L 211.634 -77.649 Q 211.144 -77.649 210.857 -77.544 Q 210.57 -77.439 210.416 -77.166 Q 210.262 -76.893 210.15 -76.375 L 208.96 -70.537 Q 208.806 -69.767 209.037 -69.529 Q 209.268 -69.291 210.01 -69.291 Z " fill="black" /><path d="M 215.952 -65.931 L 215.952 -65.931 L 212.629 -65.931 L 212.629 -66.284 Q 213.335 -66.284 213.565 -66.426 Q 213.796 -66.568 213.796 -66.94 L 213.796 -71.213 Q 213.796 -71.478 213.717 -71.595 Q 213.639 -71.713 213.433 -71.713 Q 213.276 -71.713 213.007 -71.669 Q 212.737 -71.625 212.541 -71.576 L 212.541 -71.968 L 214.354 -72.468 L 214.776 -72.468 L 214.776 -66.94 Q 214.776 -66.568 215.025 -66.426 Q 215.275 -66.284 215.952 -66.284 Z " fill="black" /></g></g></g><circle cx="230.99999999999997" cy="-101.99999999999999" r="2.6999999999999997" style="stroke:black;fill:white;stroke-width:2.0;stroke-dasharray:-;" /><circle cx="194.99999999999997" cy="-101.99999999999999" r="2.6999999999999997" style="stroke:black;fill:black;stroke-width:2.0;stroke-dasharray:-;" /><g><g><g><path d="M 241.178 -98.446 L 241.178 -98.446 L 245 -104.186 Q 245.196 -104.466 245.315 -104.704 Q 245.434 -104.942 245.434 -105.11 Q 245.434 -105.32 245.252 -105.397 Q 245.07 -105.474 244.594 -105.474 L 244.622 -105.894 L 247.646 -105.894 L 247.618 -105.474 Q 247.24 -105.474 246.974 -105.362 Q 246.708 -105.25 246.435 -104.935 Q 246.162 -104.62 245.728 -103.976 L 240.59 -96.626 L 240.128 -96.626 L 239.344 -104.2 Q 239.26 -104.9 239.036 -105.187 Q 238.812 -105.474 238.252 -105.474 L 238.28 -105.894 L 241.71 -105.894 L 241.668 -105.474 Q 241.136 -105.474 240.828 -105.264 Q 240.52 -105.054 240.548 -104.578 Q 240.548 -104.508 240.569 -104.326 Q 240.59 -104.144 240.59 -104.074 L 241.01 -100.084 L 241.108 -98.446 Z " fill="black" /><path d="M 249.967 -96.725 L 249.967 -96.725 L 249.967 -94.53 Q 249.967 -94.256 250.016 -94.094 Q 250.065 -93.932 250.232 -93.864 Q 250.398 -93.795 250.751 -93.795 L 250.751 -93.442 L 248.233 -93.442 L 248.233 -93.795 Q 248.605 -93.795 248.772 -93.864 Q 248.938 -93.932 248.977 -94.094 Q 249.017 -94.256 249.017 -94.53 L 249.017 -96.402 Q 249.017 -97.059 248.865 -97.367 Q 248.713 -97.676 248.482 -97.774 Q 248.252 -97.872 248.017 -97.872 Q 247.596 -97.872 247.277 -97.656 Q 246.959 -97.441 246.723 -97.245 L 246.723 -94.53 Q 246.723 -94.256 246.767 -94.094 Q 246.812 -93.932 246.978 -93.864 Q 247.145 -93.795 247.507 -93.795 L 247.507 -93.442 L 245.038 -93.442 L 245.038 -93.795 Q 245.381 -93.795 245.533 -93.864 Q 245.685 -93.932 245.724 -94.094 Q 245.763 -94.256 245.763 -94.53 L 245.763 -97.509 Q 245.763 -97.784 245.66 -97.877 Q 245.557 -97.97 245.332 -97.97 Q 245.214 -97.97 245.136 -97.96 Q 245.057 -97.95 245.057 -97.95 L 245.057 -98.323 L 246.371 -98.558 L 246.694 -98.558 L 246.694 -97.754 L 246.763 -97.754 Q 247.184 -98.137 247.571 -98.362 Q 247.958 -98.587 248.448 -98.587 Q 249.026 -98.587 249.355 -98.328 Q 249.683 -98.068 249.825 -97.647 Q 249.967 -97.225 249.967 -96.725 Z " fill="black" /><path d="M 251.976 -91.972 L 251.976 -91.972 L 251.81 -92.296 Q 252.015 -92.384 252.231 -92.526 Q 252.447 -92.668 252.589 -92.928 Q 252.731 -93.188 252.731 -93.609 Q 252.564 -93.54 252.388 -93.54 Q 252.064 -93.54 251.927 -93.732 Q 251.79 -93.923 251.79 -94.168 Q 251.79 -94.432 251.966 -94.628 Q 252.143 -94.824 252.476 -94.824 Q 252.897 -94.824 253.118 -94.565 Q 253.338 -94.305 253.338 -93.844 Q 253.338 -93.374 253.191 -93.046 Q 253.044 -92.717 252.824 -92.507 Q 252.603 -92.296 252.373 -92.173 Q 252.143 -92.051 251.976 -91.972 Z " fill="black" /><path d="M 256.367 -98.587 L 256.367 -98.587 Q 257.102 -98.587 257.65 -98.269 Q 258.199 -97.95 258.498 -97.377 Q 258.797 -96.804 258.797 -96.03 Q 258.797 -95.099 258.483 -94.501 Q 258.17 -93.903 257.621 -93.614 Q 257.072 -93.325 256.367 -93.325 Q 255.651 -93.325 255.097 -93.624 Q 254.544 -93.923 254.235 -94.52 Q 253.926 -95.118 253.926 -96.02 Q 253.926 -96.784 254.23 -97.362 Q 254.534 -97.941 255.083 -98.264 Q 255.632 -98.587 256.367 -98.587 Z M 256.347 -98.137 L 256.347 -98.137 Q 255.7 -98.137 255.333 -97.612 Q 254.965 -97.088 254.965 -96.079 Q 254.965 -94.834 255.342 -94.32 Q 255.72 -93.805 256.396 -93.805 Q 256.827 -93.815 257.131 -94.021 Q 257.435 -94.226 257.596 -94.712 Q 257.758 -95.197 257.758 -96.03 Q 257.758 -97.029 257.415 -97.583 Q 257.072 -98.137 256.347 -98.137 Z " fill="black" /><path d="M 265.461 -93.942 L 265.461 -93.942 L 265.461 -93.57 L 264.138 -93.393 L 263.824 -93.393 L 263.824 -94.158 L 263.726 -94.158 Q 263.354 -93.825 262.972 -93.585 Q 262.59 -93.344 262.051 -93.344 Q 261.325 -93.344 260.943 -93.785 Q 260.561 -94.226 260.561 -95.314 L 260.561 -97.421 Q 260.561 -97.823 260.419 -97.916 Q 260.277 -98.009 259.826 -98.009 L 259.826 -98.362 L 261.188 -98.548 L 261.512 -98.548 L 261.512 -95.442 Q 261.512 -94.893 261.639 -94.589 Q 261.766 -94.285 261.982 -94.168 Q 262.198 -94.05 262.452 -94.05 Q 262.884 -94.05 263.173 -94.231 Q 263.462 -94.413 263.775 -94.667 L 263.775 -97.421 Q 263.775 -97.823 263.599 -97.916 Q 263.423 -98.009 262.923 -98.009 L 262.923 -98.362 L 264.383 -98.548 L 264.726 -98.548 L 264.726 -94.579 Q 264.726 -94.285 264.78 -94.148 Q 264.834 -94.011 264.971 -93.977 Q 265.108 -93.942 265.353 -93.942 Z " fill="black" /><path d="M 269.283 -94.422 L 269.283 -94.422 L 269.508 -94.236 Q 269.293 -93.942 269.116 -93.741 Q 268.94 -93.54 268.715 -93.433 Q 268.489 -93.325 268.136 -93.325 Q 267.568 -93.325 267.308 -93.648 Q 267.049 -93.972 267.049 -94.687 L 267.049 -97.98 L 266.431 -97.98 L 266.431 -98.274 Q 266.784 -98.529 267.078 -98.896 Q 267.372 -99.264 267.666 -99.95 L 268.009 -99.95 L 267.999 -98.46 L 269.244 -98.46 L 269.244 -97.98 L 267.999 -97.98 L 267.999 -95.01 Q 267.999 -94.462 268.102 -94.231 Q 268.205 -94.001 268.519 -94.001 Q 268.803 -94.001 268.95 -94.104 Q 269.097 -94.207 269.283 -94.422 Z " fill="black" /><path d="M 270.596 -91.972 L 270.596 -91.972 L 270.43 -92.296 Q 270.635 -92.384 270.851 -92.526 Q 271.067 -92.668 271.209 -92.928 Q 271.351 -93.188 271.351 -93.609 Q 271.184 -93.54 271.008 -93.54 Q 270.684 -93.54 270.547 -93.732 Q 270.41 -93.923 270.41 -94.168 Q 270.41 -94.432 270.586 -94.628 Q 270.763 -94.824 271.096 -94.824 Q 271.517 -94.824 271.738 -94.565 Q 271.958 -94.305 271.958 -93.844 Q 271.958 -93.374 271.811 -93.046 Q 271.664 -92.717 271.444 -92.507 Q 271.223 -92.296 270.993 -92.173 Q 270.763 -92.051 270.596 -91.972 Z " fill="black" /><path d="M 272.546 -95.226 L 272.546 -95.226 L 272.86 -95.226 Q 272.987 -94.658 273.164 -94.344 Q 273.34 -94.03 273.619 -93.908 Q 273.899 -93.785 274.301 -93.785 Q 274.761 -93.785 275.011 -93.937 Q 275.261 -94.089 275.261 -94.471 Q 275.261 -94.726 275.138 -94.898 Q 275.016 -95.069 274.746 -95.226 Q 274.477 -95.383 274.026 -95.589 Q 273.566 -95.814 273.237 -96.01 Q 272.909 -96.206 272.738 -96.471 Q 272.566 -96.735 272.566 -97.137 Q 272.566 -97.843 273.041 -98.215 Q 273.517 -98.587 274.232 -98.587 Q 274.663 -98.587 274.962 -98.48 Q 275.261 -98.372 275.437 -98.293 L 275.457 -98.293 L 275.614 -98.538 L 275.888 -98.538 L 275.908 -96.912 L 275.565 -96.912 Q 275.379 -97.666 275.045 -97.926 Q 274.712 -98.186 274.281 -98.186 Q 273.83 -98.186 273.6 -97.99 Q 273.37 -97.794 273.37 -97.48 Q 273.37 -97.225 273.526 -97.059 Q 273.683 -96.892 273.972 -96.75 Q 274.261 -96.608 274.663 -96.412 Q 275.114 -96.196 275.457 -95.966 Q 275.8 -95.736 275.996 -95.447 Q 276.192 -95.157 276.192 -94.726 Q 276.192 -94.207 275.918 -93.893 Q 275.643 -93.58 275.212 -93.447 Q 274.781 -93.315 274.31 -93.315 Q 273.83 -93.315 273.566 -93.413 Q 273.301 -93.511 273.076 -93.599 L 273.036 -93.599 L 272.791 -93.344 L 272.566 -93.344 Z " fill="black" /><path d="M 253.838 -103.755 L 253.838 -103.755 L 253.505 -102.05 L 249.487 -102.05 L 249.487 -102.53 L 250.879 -103.941 Q 251.427 -104.49 251.785 -104.911 Q 252.143 -105.333 252.319 -105.759 Q 252.496 -106.185 252.496 -106.734 Q 252.496 -107.253 252.177 -107.592 Q 251.859 -107.93 251.28 -107.93 Q 250.751 -107.93 250.393 -107.719 Q 250.036 -107.508 249.761 -107.028 L 249.497 -107.155 Q 249.742 -107.841 250.256 -108.233 Q 250.771 -108.625 251.525 -108.625 Q 252.113 -108.625 252.564 -108.415 Q 253.015 -108.204 253.27 -107.812 Q 253.525 -107.42 253.525 -106.861 Q 253.525 -106.381 253.309 -105.96 Q 253.093 -105.538 252.696 -105.097 Q 252.3 -104.656 251.751 -104.117 L 250.526 -102.932 L 250.526 -102.863 L 251.29 -102.902 L 252.564 -102.902 Q 252.848 -102.902 253 -102.981 Q 253.152 -103.059 253.26 -103.25 Q 253.368 -103.441 253.495 -103.755 Z " fill="black" /><rect x="237.3" y="-111.551" width="38.43" height="0.952" fill="black" /></g></g></g><g><g><g><path d="M 173.196 -142.137 L 173.196 -142.137 Q 173.196 -141.395 172.916 -140.891 Q 172.636 -140.387 172.188 -140.065 Q 171.74 -139.743 171.229 -139.568 Q 170.718 -139.393 170.256 -139.309 L 170.256 -139.239 Q 170.508 -139.071 170.732 -138.728 Q 170.956 -138.385 171.285 -137.741 Q 171.614 -137.097 172.188 -136.005 Q 172.426 -135.585 172.713 -135.438 Q 173 -135.291 173.476 -135.291 L 173.392 -134.871 L 171.264 -134.871 Q 170.872 -135.739 170.606 -136.32 Q 170.34 -136.901 170.144 -137.293 Q 169.948 -137.685 169.801 -137.993 Q 169.654 -138.301 169.486 -138.623 Q 169.332 -138.917 169.15 -139.008 Q 168.968 -139.099 168.59 -139.099 L 168.296 -139.099 L 167.778 -136.607 Q 167.666 -136.033 167.701 -135.746 Q 167.736 -135.459 168.016 -135.375 Q 168.296 -135.291 168.898 -135.291 L 168.828 -134.871 L 164.964 -134.871 L 165.048 -135.291 Q 165.566 -135.291 165.846 -135.375 Q 166.126 -135.459 166.273 -135.739 Q 166.42 -136.019 166.532 -136.607 L 167.764 -142.613 Q 167.848 -143.005 167.806 -143.229 Q 167.764 -143.453 167.519 -143.551 Q 167.274 -143.649 166.714 -143.649 L 166.798 -144.069 L 170.088 -144.069 Q 171.558 -144.069 172.377 -143.614 Q 173.196 -143.159 173.196 -142.137 Z M 169.178 -143.481 L 169.178 -143.481 L 168.394 -139.617 L 168.828 -139.603 Q 169.668 -139.631 170.347 -139.876 Q 171.026 -140.121 171.418 -140.653 Q 171.81 -141.185 171.81 -142.081 Q 171.81 -142.459 171.649 -142.788 Q 171.488 -143.117 171.096 -143.32 Q 170.704 -143.523 170.004 -143.523 Q 169.738 -143.523 169.577 -143.516 Q 169.416 -143.509 169.178 -143.481 Z " fill="black" /><path d="M 174.669 -138.82 L 174.669 -138.82 L 177.639 -138.82 Q 178.423 -138.82 179.138 -138.649 Q 179.853 -138.477 180.417 -138.085 Q 180.98 -137.693 181.309 -137.037 Q 181.637 -136.38 181.637 -135.4 Q 181.637 -134.479 181.338 -133.818 Q 181.039 -133.156 180.5 -132.74 Q 179.961 -132.323 179.246 -132.127 Q 178.53 -131.931 177.697 -131.931 L 174.669 -131.931 L 174.669 -132.303 Q 175.13 -132.303 175.345 -132.372 Q 175.561 -132.441 175.625 -132.651 Q 175.688 -132.862 175.688 -133.293 L 175.688 -137.546 Q 175.688 -137.948 175.595 -138.139 Q 175.502 -138.33 175.282 -138.389 Q 175.061 -138.448 174.669 -138.448 Z M 176.737 -138.33 L 176.737 -138.33 L 176.737 -132.401 Q 176.894 -132.392 177.046 -132.387 Q 177.198 -132.382 177.345 -132.382 Q 178.315 -132.382 178.996 -132.637 Q 179.677 -132.891 180.035 -133.528 Q 180.392 -134.165 180.392 -135.312 Q 180.392 -136.782 179.643 -137.561 Q 178.893 -138.34 177.266 -138.34 Q 177.129 -138.34 177.002 -138.34 Q 176.874 -138.34 176.737 -138.33 Z " fill="black" /></g></g></g><g><g><g><path d="M 186.853 -182.29 L 186.853 -182.29 L 190.675 -188.03 Q 190.871 -188.31 190.99 -188.548 Q 191.109 -188.786 191.109 -188.954 Q 191.109 -189.164 190.927 -189.241 Q 190.745 -189.318 190.269 -189.318 L 190.297 -189.738 L 193.321 -189.738 L 193.293 -189.318 Q 192.915 -189.318 192.649 -189.206 Q 192.383 -189.094 192.11 -188.779 Q 191.837 -188.464 191.403 -187.82 L 186.265 -180.47 L 185.803 -180.47 L 185.019 -188.044 Q 184.935 -188.744 184.711 -189.031 Q 184.487 -189.318 183.927 -189.318 L 183.955 -189.738 L 187.385 -189.738 L 187.343 -189.318 Q 186.811 -189.318 186.503 -189.108 Q 186.195 -188.898 186.223 -188.422 Q 186.223 -188.352 186.244 -188.17 Q 186.265 -187.988 186.265 -187.918 L 186.685 -183.928 L 186.783 -182.29 Z " fill="black" /><path d="M 192.218 -184.489 L 192.218 -184.489 L 195.188 -184.489 Q 195.972 -184.489 196.687 -184.318 Q 197.402 -184.146 197.966 -183.754 Q 198.529 -183.362 198.858 -182.706 Q 199.186 -182.049 199.186 -181.069 Q 199.186 -180.148 198.887 -179.486 Q 198.588 -178.825 198.049 -178.408 Q 197.51 -177.992 196.795 -177.796 Q 196.079 -177.6 195.246 -177.6 L 192.218 -177.6 L 192.218 -177.972 Q 192.679 -177.972 192.894 -178.041 Q 193.11 -178.11 193.174 -178.32 Q 193.237 -178.531 193.237 -178.962 L 193.237 -183.215 Q 193.237 -183.617 193.144 -183.808 Q 193.051 -183.999 192.831 -184.058 Q 192.61 -184.117 192.218 -184.117 Z M 194.286 -183.999 L 194.286 -183.999 L 194.286 -178.07 Q 194.443 -178.061 194.595 -178.056 Q 194.747 -178.051 194.894 -178.051 Q 195.864 -178.051 196.545 -178.306 Q 197.226 -178.56 197.584 -179.197 Q 197.941 -179.834 197.941 -180.981 Q 197.941 -182.451 197.192 -183.23 Q 196.442 -184.009 194.815 -184.009 Q 194.678 -184.009 194.551 -184.009 Q 194.423 -184.009 194.286 -183.999 Z " fill="black" /><path d="M 200.372 -184.489 L 200.372 -184.489 L 203.341 -184.489 Q 204.125 -184.489 204.841 -184.318 Q 205.556 -184.146 206.119 -183.754 Q 206.683 -183.362 207.011 -182.706 Q 207.34 -182.049 207.34 -181.069 Q 207.34 -180.148 207.041 -179.486 Q 206.742 -178.825 206.203 -178.408 Q 205.664 -177.992 204.948 -177.796 Q 204.233 -177.6 203.4 -177.6 L 200.372 -177.6 L 200.372 -177.972 Q 200.832 -177.972 201.048 -178.041 Q 201.264 -178.11 201.327 -178.32 Q 201.391 -178.531 201.391 -178.962 L 201.391 -183.215 Q 201.391 -183.617 201.298 -183.808 Q 201.205 -183.999 200.984 -184.058 Q 200.764 -184.117 200.372 -184.117 Z M 202.44 -183.999 L 202.44 -183.999 L 202.44 -178.07 Q 202.596 -178.061 202.748 -178.056 Q 202.9 -178.051 203.047 -178.051 Q 204.017 -178.051 204.698 -178.306 Q 205.38 -178.56 205.737 -179.197 Q 206.095 -179.834 206.095 -180.981 Q 206.095 -182.451 205.345 -183.23 Q 204.596 -184.009 202.969 -184.009 Q 202.832 -184.009 202.704 -184.009 Q 202.577 -184.009 202.44 -183.999 Z " fill="black" /></g></g></g></svg>