<svg xmlns="http://www.w3.org/2000/svg" xmlns:xlink="http://www.w3.org/1999/xlink" xml:lang="en" height="351.43999999999994pt" width="290.4208pt" viewBox="-253.21039999999996 -159.39999999999998 290.4208 351.43999999999994"><circle cx="-108" cy="114" r="18" style="stroke:black;fill:none;stroke-width:2.0;stroke-dasharray:-;" /><path d="M 0.0,59.99999999999999 L 0,45 L -15,45 L -15,15 L 0,15 L 0,-0" style="stroke:black;fill:none;stroke-width:2.0;stroke-dasharray:-;stroke-linecap:round;stroke-linejoin:round;" /><path d="M -9.0,45.0 L -15,45" style="stroke:black;fill:none;stroke-width:2.0;stroke-dasharray:-;stroke-linecap:round;stroke-linejoin:round;" /><path d="M -2 45 L -9 49.5 L -9 40.5 Z" style="stroke:black;fill:black;stroke-linecap:butt;stroke-linejoin:miter;" /><path d="M -17.999999999999996,42.0 L -18,18" style="stroke:black;fill:none;stroke-width:2.0;stroke-dasharray:-;stroke-linecap:round;stroke-linejoin:round;" /><path d="M -32.99999999999999,29.999999999999996 L -18,30" style="stroke:black;fill:none;stroke-width:2.0;stroke-dasharray:-;stroke-linecap:round;stroke-linejoin:round;" /><path d="M 0.0,59.99999999999999 L -0,69 L -0,78" style="stroke:black;fill:none;stroke-width:2.0;stroke-dasharray:-;stroke-linecap:round;stroke-linejoin:round;" /><path d="M -3.3065463576978533e-15,78.0 L -54,78 L -108,78" style="stroke:black;fill:none;stroke-width:2.0;stroke-dasharray:-;stroke-linecap:round;stroke-linejoin:round;" /><path d="M -108.0,77.99999999999997 L -108,96 L -108,96 M -108,132 L -108,132 L -108,150" style="stroke:black;fill:none;stroke-width:2.0;stroke-dasharray:-;stroke-linecap:round;stroke-linejoin:round;" /><path d="M -108.0,104.99999999999997 L -108,114" style="stroke:black;fill:none;stroke-width:2.0;stroke-dasharray:-;stroke-linecap:round;stroke-linejoin:round;" /><path d="M -108 121 L -110.7 114 L -105.3 114 Z" style="stroke:black;fill:black;stroke-linecap:butt;stroke-linejoin:miter;" /><path d="M -108.00000000000001,149.99999999999997 L -108,164.4 L -117,164.4 L -99,164.4 M -114.3,168.72 L -101.7,168.72 M -109.8,173.04 L -106.2,173.04" style="stroke:black;fill:none;stroke-width:2.0;stroke-dasharray:-;stroke-linecap:round;stroke-linejoin:round;" /><path d="M -108.0,77.99999999999997 L -162,78 L -216,78" style="stroke:black;fill:none;stroke-width:2.0;stroke-dasharray:-;stroke-linecap:round;stroke-linejoin:round;" /><path d="M -216.0,77.99999999999996 L -216,69 L -216,60" style="stroke:black;fill:none;stroke-width:2.0;stroke-dasharray:-;stroke-linecap:round;stroke-linejoin:round;" /><path d="M -216.0,-3.197442310920451e-14 L -216,15 L -201,15 L -201,45 L -216,45 L -216,60" style="stroke:black;fill:none;stroke-width:2.0;stroke-dasharray:-;stroke-linecap:round;stroke-linejoin:round;" /><path d="M -201.0,44.99999999999997 L -207,45" style="stroke:black;fill:none;stroke-width:2.0;stroke-dasharray:-;stroke-linecap:round;stroke-linejoin:round;" /><path d="M -214 45 L -207 40.5 L -207 49.5 Z" style="stroke:black;fill:black;stroke-linecap:butt;stroke-linejoin:miter;" /><path d="M -198.0,17.999999999999968 L -198,42" style="stroke:black;fill:none;stroke-width:2.0;stroke-dasharray:-;stroke-linecap:round;stroke-linejoin:round;" /><path d="M -198.0,29.999999999999964 L -183,30" style="stroke:black;fill:none;stroke-width:2.0;stroke-dasharray:-;stroke-linecap:round;stroke-linejoin:round;" /><path d="M 0.0,-0.0 L 0,-9 L 0,-18" style="stroke:black;fill:none;stroke-width:2.0;stroke-dasharray:-;stroke-linecap:round;stroke-linejoin:round;" /><path d="M 1.102182119232618e-15,-18.0 L 0,-36 L 0,-54" style="stroke:black;fill:none;stroke-width:2.0;stroke-dasharray:-;stroke-linecap:round;stroke-linejoin:round;" /><path d="M 1.102182119232618e-15,-18.0 L -36,-18 L -147,30 L -183,30" style="stroke:black;fill:none;stroke-width:2.0;stroke-dasharray:-;stroke-linecap:round;stroke-linejoin:round;" /><path d="M -216.0,-3.197442310920451e-14 L -216,-9 L -216,-18" style="stroke:black;fill:none;stroke-width:2.0;stroke-dasharray:-;stroke-linecap:round;stroke-linejoin:round;" /><path d="M -216.0,-18.000000000000032 L -216,-36 L -216,-54" style="stroke:black;fill:none;stroke-width:2.0;stroke-dasharray:-;stroke-linecap:round;stroke-linejoin:round;" /><path d="M -216.0,-18.000000000000032 L -180,-18 L -69,30 L -33,30" style="stroke:black;fill:none;stroke-width:2.0;stroke-dasharray:-;stroke-linecap:round;stroke-linejoin:round;" /><path d="M 3.3065463576978533e-15,-54.0 L -104.76,-54 M -104.76,-45 L -104.76,-63 M -111.24,-45 L -111.24,-63 M -111.24,-54 L -216,-54" style="stroke:black;fill:none;stroke-width:2.0;stroke-dasharray:-;stroke-linecap:round;stroke-linejoin:round;" /><path d="M -99.1384698277371,-61.87107112058405 L -123.24,-45" style="stroke:black;fill:none;stroke-width:2.0;stroke-dasharray:-;stroke-linecap:round;stroke-linejoin:round;" /><path d="M -94.878 -64.853 L -97.487 -59.512 L -100.79 -64.23 Z" style="stroke:black;fill:black;stroke-linecap:butt;stroke-linejoin:miter;" /><path d="M 3.3065463576978533e-15,-54.0 L 0,-90 L 0,-126" style="stroke:black;fill:none;stroke-width:2.0;stroke-dasharray:-;stroke-linecap:round;stroke-linejoin:round;" /><path d="M -216.0,-54.00000000000003 L -216,-90 L -216,-126" style="stroke:black;fill:none;stroke-width:2.0;stroke-dasharray:-;stroke-linecap:round;stroke-linejoin:round;" /><path d="M 7.715274834628325e-15,-126.0 L -36,-126 L -36.067,-124.338 L -36.271,-122.633 L -36.614,-120.93 L -37.093,-119.276 L -37.704,-117.716 L -38.436,-116.292 L -39.276,-115.044 L -40.21,-114.004 L -41.219,-113.202 L -42.282,-112.659 L -43.379,-112.39 L -44.486,-112.402 L -45.58,-112.696 L -46.64,-113.262 L -47.643,-114.086 L -48.569,-115.145 L -49.401,-116.41 L -50.122,-117.848 L -50.722,-119.418 L -51.189,-121.078 L -51.52,-122.783 L -51.712,-124.486 L -51.767,-126.142 L -51.691,-127.704 L -51.494,-129.131 L -51.187,-130.384 L -50.787,-131.429 L -50.312,-132.236 L -49.781,-132.785 L -49.217,-133.06 L -48.642,-133.054 L -48.079,-132.767 L -47.55,-132.206 L -47.077,-131.388 L -46.681,-130.334 L -46.379,-129.072 L -46.186,-127.639 L -46.116,-126.071 L -46.177,-124.412 L -46.375,-122.708 L -46.712,-121.004 L -47.186,-119.347 L -47.791,-117.782 L -48.517,-116.351 L -49.354,-115.094 L -50.284,-114.045 L -51.289,-113.232 L -52.351,-112.677 L -53.447,-112.396 L -54.553,-112.396 L -55.649,-112.677 L -56.711,-113.232 L -57.716,-114.045 L -58.646,-115.094 L -59.483,-116.351 L -60.209,-117.782 L -60.814,-119.347 L -61.288,-121.004 L -61.625,-122.708 L -61.823,-124.412 L -61.884,-126.071 L -61.814,-127.639 L -61.621,-129.072 L -61.319,-130.334 L -60.923,-131.388 L -60.45,-132.206 L -59.921,-132.767 L -59.358,-133.054 L -58.783,-133.06 L -58.219,-132.785 L -57.688,-132.236 L -57.213,-131.429 L -56.813,-130.384 L -56.506,-129.131 L -56.309,-127.704 L -56.233,-126.142 L -56.288,-124.486 L -56.48,-122.783 L -56.811,-121.078 L -57.278,-119.418 L -57.878,-117.848 L -58.599,-116.41 L -59.431,-115.145 L -60.357,-114.086 L -61.36,-113.262 L -62.42,-112.696 L -63.514,-112.402 L -64.621,-112.39 L -65.718,-112.659 L -66.781,-113.202 L -67.79,-114.004 L -68.724,-115.044 L -69.564,-116.292 L -70.296,-117.716 L -70.907,-119.276 L -71.386,-120.93 L -71.729,-122.633 L -71.933,-124.338 L -72,-126 L -108,-126" style="stroke:black;fill:none;stroke-width:2.0;stroke-dasharray:-;stroke-linecap:round;stroke-linejoin:round;" /><path d="M -108.0,-125.99999999999999 L -108,-140.4" style="stroke:black;fill:none;stroke-width:2.0;stroke-dasharray:-;stroke-linecap:round;stroke-linejoin:round;" /><path d="M -108.0,-140.39999999999998 L -114.75,-140.4" style="stroke:black;fill:none;stroke-width:2.0;stroke-dasharray:-;stroke-linecap:round;stroke-linejoin:round;" /><path d="M -108.0,-140.39999999999998 L -101.25,-140.4" style="stroke:black;fill:none;stroke-width:2.0;stroke-dasharray:-;stroke-linecap:round;stroke-linejoin:round;" /><path d="M -108.0,-125.99999999999999 L -144,-126 L -144.067,-124.338 L -144.271,-122.633 L -144.614,-120.93 L -145.093,-119.276 L -145.704,-117.716 L -146.436,-116.292 L -147.276,-115.044 L -148.21,-114.004 L -149.219,-113.202 L -150.282,-112.659 L -151.379,-112.39 L -152.486,-112.402 L -153.58,-112.696 L -154.64,-113.262 L -155.643,-114.086 L -156.569,-115.145 L -157.401,-116.41 L -158.122,-117.848 L -158.722,-119.418 L -159.189,-121.078 L -159.52,-122.783 L -159.712,-124.486 L -159.767,-126.142 L -159.691,-127.704 L -159.494,-129.131 L -159.187,-130.384 L -158.787,-131.429 L -158.312,-132.236 L -157.781,-132.785 L -157.217,-133.06 L -156.642,-133.054 L -156.079,-132.767 L -155.55,-132.206 L -155.077,-131.388 L -154.681,-130.334 L -154.379,-129.072 L -154.186,-127.639 L -154.116,-126.071 L -154.177,-124.412 L -154.375,-122.708 L -154.712,-121.004 L -155.186,-119.347 L -155.791,-117.782 L -156.517,-116.351 L -157.354,-115.094 L -158.284,-114.045 L -159.289,-113.232 L -160.351,-112.677 L -161.447,-112.396 L -162.553,-112.396 L -163.649,-112.677 L -164.711,-113.232 L -165.716,-114.045 L -166.646,-115.094 L -167.483,-116.351 L -168.209,-117.782 L -168.814,-119.347 L -169.288,-121.004 L -169.625,-122.708 L -169.823,-124.412 L -169.884,-126.071 L -169.814,-127.639 L -169.621,-129.072 L -169.319,-130.334 L -168.923,-131.388 L -168.45,-132.206 L -167.921,-132.767 L -167.358,-133.054 L -166.783,-133.06 L -166.219,-132.785 L -165.688,-132.236 L -165.213,-131.429 L -164.813,-130.384 L -164.506,-129.131 L -164.309,-127.704 L -164.233,-126.142 L -164.288,-124.486 L -164.48,-122.783 L -164.811,-121.078 L -165.278,-119.418 L -165.878,-117.848 L -166.599,-116.41 L -167.431,-115.145 L -168.357,-114.086 L -169.36,-113.262 L -170.42,-112.696 L -171.514,-112.402 L -172.621,-112.39 L -173.718,-112.659 L -174.781,-113.202 L -175.79,-114.004 L -176.724,-115.044 L -177.564,-116.292 L -178.296,-117.716 L -178.907,-119.276 L -179.386,-120.93 L -179.729,-122.633 L -179.933,-124.338 L -180,-126 L -216,-126" style="stroke:black;fill:none;stroke-width:2.0;stroke-dasharray:-;stroke-linecap:round;stroke-linejoin:round;" /><g><g><g><path d="M 14.926 33.129 L 14.926 33.129 L 11.188 33.129 L 11.272 32.709 Q 11.79 32.709 12.063 32.611 Q 12.336 32.513 12.476 32.24 Q 12.616 31.967 12.714 31.463 L 13.96 25.415 L 13.904 25.415 L 9.2 33.129 L 8.892 33.129 L 7.198 25.429 L 7.142 25.429 L 5.98 31.085 Q 5.84 31.799 5.861 32.149 Q 5.882 32.499 6.134 32.604 Q 6.386 32.709 6.918 32.709 L 6.834 33.129 L 3.6 33.129 L 3.684 32.709 Q 4.23 32.709 4.524 32.604 Q 4.818 32.499 4.986 32.149 Q 5.154 31.799 5.294 31.085 L 6.4 25.639 Q 6.512 25.107 6.47 24.834 Q 6.428 24.561 6.169 24.456 Q 5.91 24.351 5.35 24.351 L 5.434 23.931 L 8.234 23.931 L 9.746 31.015 L 9.802 31.015 L 14.072 23.931 L 16.718 23.931 L 16.634 24.351 Q 16.144 24.351 15.857 24.456 Q 15.57 24.561 15.416 24.834 Q 15.262 25.107 15.15 25.625 L 13.96 31.463 Q 13.806 32.233 14.037 32.471 Q 14.268 32.709 15.01 32.709 Z " fill="black" /><path d="M 20.952 36.069 L 20.952 36.069 L 17.629 36.069 L 17.629 35.716 Q 18.335 35.716 18.565 35.574 Q 18.796 35.432 18.796 35.06 L 18.796 30.787 Q 18.796 30.522 18.717 30.405 Q 18.639 30.287 18.433 30.287 Q 18.276 30.287 18.007 30.331 Q 17.737 30.375 17.541 30.424 L 17.541 30.032 L 19.354 29.532 L 19.776 29.532 L 19.776 35.06 Q 19.776 35.432 20.026 35.574 Q 20.275 35.716 20.952 35.716 Z " fill="black" /></g></g></g><circle cx="-108" cy="78" r="2.7" style="stroke:black;fill:black;stroke-width:2.0;stroke-dasharray:-;" /><g><g><g><path d="M -226.849 33.129 L -226.849 33.129 L -230.587 33.129 L -230.503 32.709 Q -229.985 32.709 -229.712 32.611 Q -229.439 32.513 -229.299 32.24 Q -229.159 31.967 -229.061 31.463 L -227.815 25.415 L -227.871 25.415 L -232.575 33.129 L -232.883 33.129 L -234.577 25.429 L -234.633 25.429 L -235.795 31.085 Q -235.935 31.799 -235.914 32.149 Q -235.893 32.499 -235.641 32.604 Q -235.389 32.709 -234.857 32.709 L -234.941 33.129 L -238.175 33.129 L -238.091 32.709 Q -237.545 32.709 -237.251 32.604 Q -236.957 32.499 -236.789 32.149 Q -236.621 31.799 -236.481 31.085 L -235.375 25.639 Q -235.263 25.107 -235.305 24.834 Q -235.347 24.561 -235.606 24.456 Q -235.865 24.351 -236.425 24.351 L -236.341 23.931 L -233.541 23.931 L -232.029 31.015 L -231.973 31.015 L -227.703 23.931 L -225.057 23.931 L -225.141 24.351 Q -225.631 24.351 -225.918 24.456 Q -226.205 24.561 -226.359 24.834 Q -226.513 25.107 -226.625 25.625 L -227.815 31.463 Q -227.969 32.233 -227.738 32.471 Q -227.507 32.709 -226.765 32.709 Z " fill="black" /><path d="M -220.265 34.364 L -220.265 34.364 L -220.598 36.069 L -224.616 36.069 L -224.616 35.589 L -223.225 34.178 Q -222.676 33.629 -222.318 33.207 Q -221.96 32.786 -221.784 32.36 Q -221.608 31.933 -221.608 31.385 Q -221.608 30.865 -221.926 30.527 Q -222.245 30.189 -222.823 30.189 Q -223.352 30.189 -223.71 30.4 Q -224.067 30.61 -224.342 31.091 L -224.606 30.963 Q -224.361 30.277 -223.847 29.885 Q -223.332 29.493 -222.578 29.493 Q -221.99 29.493 -221.539 29.704 Q -221.088 29.915 -220.833 30.307 Q -220.579 30.699 -220.579 31.257 Q -220.579 31.737 -220.794 32.159 Q -221.01 32.58 -221.407 33.021 Q -221.804 33.462 -222.352 34.001 L -223.577 35.187 L -223.577 35.256 L -222.813 35.216 L -221.539 35.216 Q -221.255 35.216 -221.103 35.138 Q -220.951 35.06 -220.843 34.868 Q -220.735 34.677 -220.608 34.364 Z " fill="black" /></g></g></g><circle cx="0" cy="-18" r="2.7" style="stroke:black;fill:black;stroke-width:2.0;stroke-dasharray:-;" /><circle cx="0" cy="-54" r="2.7" style="stroke:black;fill:black;stroke-width:2.0;stroke-dasharray:-;" /><circle cx="-216" cy="-18" r="2.7" style="stroke:black;fill:black;stroke-width:2.0;stroke-dasharray:-;" /><circle cx="-216" cy="-54" r="2.7" style="stroke:black;fill:black;stroke-width:2.0;stroke-dasharray:-;" /><g><g><g><path d="M -104.36 -77.544 L -104.36 -77.544 L -104.108 -77.278 Q -104.822 -76.438 -105.76 -75.899 Q -106.698 -75.36 -108.028 -75.36 Q -109.288 -75.36 -110.044 -75.829 Q -110.8 -76.298 -111.129 -77.082 Q -111.458 -77.866 -111.458 -78.79 Q -111.458 -80.26 -111.01 -81.401 Q -110.562 -82.542 -109.785 -83.319 Q -109.008 -84.096 -108.028 -84.495 Q -107.048 -84.894 -105.984 -84.894 Q -105.27 -84.894 -104.871 -84.768 Q -104.472 -84.642 -104.248 -84.509 Q -104.024 -84.376 -103.856 -84.376 Q -103.688 -84.376 -103.562 -84.516 Q -103.436 -84.656 -103.268 -84.88 L -102.862 -84.88 L -103.52 -81.674 L -103.982 -81.674 Q -103.926 -83.074 -104.5 -83.683 Q -105.074 -84.292 -106.11 -84.292 Q -106.922 -84.292 -107.636 -83.921 Q -108.35 -83.55 -108.903 -82.871 Q -109.456 -82.192 -109.771 -81.247 Q -110.086 -80.302 -110.086 -79.14 Q -110.086 -77.74 -109.421 -77.005 Q -108.756 -76.27 -107.37 -76.27 Q -105.76 -76.27 -104.36 -77.544 Z " fill="black" /></g></g></g><circle cx="-108" cy="-126" r="2.7" style="stroke:black;fill:black;stroke-width:2.0;stroke-dasharray:-;" /><g><g><g><path d="M -54.253 -102.322 L -54.253 -102.322 L -55.093 -99.592 L -62.009 -99.592 L -61.925 -100.012 Q -61.379 -100.012 -61.092 -100.11 Q -60.805 -100.208 -60.651 -100.488 Q -60.497 -100.768 -60.385 -101.328 L -59.181 -107.166 Q -59.083 -107.628 -59.111 -107.894 Q -59.139 -108.16 -59.398 -108.265 Q -59.657 -108.37 -60.259 -108.37 L -60.175 -108.79 L -56.199 -108.79 L -56.269 -108.37 Q -57.025 -108.37 -57.403 -108.139 Q -57.781 -107.908 -57.935 -107.152 L -59.209 -100.88 Q -59.307 -100.418 -59.111 -100.271 Q -58.915 -100.124 -58.299 -100.124 L -57.641 -100.124 Q -56.969 -100.124 -56.549 -100.243 Q -56.129 -100.362 -55.835 -100.614 Q -55.541 -100.866 -55.282 -101.293 Q -55.023 -101.72 -54.701 -102.322 Z " fill="black" /><path d="M -49.627 -96.652 L -49.627 -96.652 L -52.95 -96.652 L -52.95 -97.005 Q -52.244 -97.005 -52.014 -97.147 Q -51.783 -97.289 -51.783 -97.662 L -51.783 -101.934 Q -51.783 -102.199 -51.862 -102.317 Q -51.94 -102.434 -52.146 -102.434 Q -52.303 -102.434 -52.572 -102.39 Q -52.842 -102.346 -53.038 -102.297 L -53.038 -102.689 L -51.225 -103.189 L -50.803 -103.189 L -50.803 -97.662 Q -50.803 -97.289 -50.554 -97.147 Q -50.304 -97.005 -49.627 -97.005 Z " fill="black" /></g></g></g><g><g><g><path d="M -160.977 -102.322 L -160.977 -102.322 L -161.817 -99.592 L -168.733 -99.592 L -168.649 -100.012 Q -168.103 -100.012 -167.816 -100.11 Q -167.529 -100.208 -167.375 -100.488 Q -167.221 -100.768 -167.109 -101.328 L -165.905 -107.166 Q -165.807 -107.628 -165.835 -107.894 Q -165.863 -108.16 -166.122 -108.265 Q -166.381 -108.37 -166.983 -108.37 L -166.899 -108.79 L -162.923 -108.79 L -162.993 -108.37 Q -163.749 -108.37 -164.127 -108.139 Q -164.505 -107.908 -164.659 -107.152 L -165.933 -100.88 Q -166.031 -100.418 -165.835 -100.271 Q -165.639 -100.124 -165.023 -100.124 L -164.365 -100.124 Q -163.693 -100.124 -163.273 -100.243 Q -162.853 -100.362 -162.559 -100.614 Q -162.265 -100.866 -162.006 -101.293 Q -161.747 -101.72 -161.425 -102.322 Z " fill="black" /><path d="M -155.792 -98.357 L -155.792 -98.357 L -156.126 -96.652 L -160.144 -96.652 L -160.144 -97.132 L -158.752 -98.544 Q -158.203 -99.092 -157.845 -99.514 Q -157.488 -99.935 -157.311 -100.361 Q -157.135 -100.788 -157.135 -101.337 Q -157.135 -101.856 -157.453 -102.194 Q -157.772 -102.532 -158.35 -102.532 Q -158.879 -102.532 -159.237 -102.321 Q -159.595 -102.111 -159.869 -101.631 L -160.134 -101.758 Q -159.889 -102.444 -159.374 -102.836 Q -158.86 -103.228 -158.105 -103.228 Q -157.517 -103.228 -157.066 -103.017 Q -156.616 -102.807 -156.361 -102.415 Q -156.106 -102.023 -156.106 -101.464 Q -156.106 -100.984 -156.322 -100.562 Q -156.537 -100.141 -156.934 -99.7 Q -157.331 -99.259 -157.88 -98.72 L -159.105 -97.534 L -159.105 -97.466 L -158.34 -97.505 L -157.066 -97.505 Q -156.782 -97.505 -156.63 -97.583 Q -156.478 -97.662 -156.371 -97.853 Q -156.263 -98.044 -156.135 -98.357 Z " fill="black" /></g></g></g></svg>