<svg xmlns="http://www.w3.org/2000/svg" xmlns:xlink="http://www.w3.org/1999/xlink" xml:lang="en" height="171.71999999999997pt" width="188.6pt" viewBox="-58.29999999999999 -67.3 188.6 171.71999999999997"><circle cx="35.99999999999999" cy="36.3" r="4.32" style="stroke:black;fill:none;stroke-width:2.0;stroke-dasharray:-;" /><path d="M 0.0,-0.0 L 1.8369701987210296e-15,-14.999999999999998 L -14.999999999999996,-15.0 L -14.999999999999993,-45.0 L 5.5109105961630896e-15,-45.0 L 7.347880794884118e-15,-59.99999999999999" style="stroke:black;fill:none;stroke-width:2.0;stroke-dasharray:-;stroke-linecap:round;stroke-linejoin:round;" /><path d="M -17.999999999999996,-18.0 L -17.999999999999993,-42.0" style="stroke:black;fill:none;stroke-width:2.0;stroke-dasharray:-;stroke-linecap:round;stroke-linejoin:round;" /><path d="M -17.999999999999993,-30.0 L -32.99999999999999,-30.0" style="stroke:black;fill:none;stroke-width:2.0;stroke-dasharray:-;stroke-linecap:round;stroke-linejoin:round;" /><path d="M -32.99999999999999,-30.0 L -41.99999999999999,-30.0 L -50.99999999999999,-30.000000000000007" style="stroke:black;fill:none;stroke-width:2.0;stroke-dasharray:-;stroke-linecap:round;stroke-linejoin:round;" /><path d="M 0.0,-0.0 L 18.0,-0.0 L 36.0,-0.0" style="stroke:black;fill:none;stroke-width:2.0;stroke-dasharray:-;stroke-linecap:round;stroke-linejoin:round;" /><path d="M 36.0,-0.0 L 54.0,-0.0 L 72.0,-0.0" style="stroke:black;fill:none;stroke-width:2.0;stroke-dasharray:-;stroke-linecap:round;stroke-linejoin:round;" /><path d="M 72.0,-59.99999999999999 L 72.0,-45.0 L 87.00000000000001,-45.0 L 87.0,-14.999999999999996 L 72.0,-14.999999999999998 L 72.0,-0.0" style="stroke:black;fill:none;stroke-width:2.0;stroke-dasharray:-;stroke-linecap:round;stroke-linejoin:round;" /><path d="M 90.0,-42.0 L 90.0,-17.999999999999996" style="stroke:black;fill:none;stroke-width:2.0;stroke-dasharray:-;stroke-linecap:round;stroke-linejoin:round;" /><path d="M 105.0,-29.999999999999993 L 90.0,-29.999999999999993" style="stroke:black;fill:none;stroke-width:2.0;stroke-dasharray:-;stroke-linecap:round;stroke-linejoin:round;" /><path d="M 105.0,-29.999999999999993 L 114.0,-29.999999999999993 L 123.0,-29.999999999999993" style="stroke:black;fill:none;stroke-width:2.0;stroke-dasharray:-;stroke-linecap:round;stroke-linejoin:round;" /><path d="M 7.347880794884118e-15,-59.99999999999999 L 18.000000000000007,-59.99999999999999 L 36.00000000000001,-59.99999999999999" style="stroke:black;fill:none;stroke-width:2.0;stroke-dasharray:-;stroke-linecap:round;stroke-linejoin:round;" /><path d="M 36.00000000000001,-59.99999999999999 L 54.00000000000001,-59.99999999999999 L 72.0,-59.99999999999999" style="stroke:black;fill:none;stroke-width:2.0;stroke-dasharray:-;stroke-linecap:round;stroke-linejoin:round;" /><path d="M 36.00000000000001,-59.99999999999999 L 36.0,-23.999999999999993 L 35.99999999999999,12.000000000000005" style="stroke:black;fill:none;stroke-width:2.0;stroke-dasharray:-;stroke-linecap:round;stroke-linejoin:round;" /><path d="M 35.99999999999999,12.000000000000005 L 35.99999999999999,31.980000000000004 M 35.999999999999986,64.02 L 35.999999999999986,83.99999999999999" style="stroke:black;fill:none;stroke-width:2.0;stroke-dasharray:-;stroke-linecap:round;stroke-linejoin:round;" /><path d="M 53.999999999999986,64.02 L 17.99999999999999,64.02 L 35.99999999999999,40.620000000000005 L 53.999999999999986,64.02" style="stroke:black;fill:none;stroke-width:2.0;stroke-dasharray:-;stroke-linecap:round;stroke-linejoin:round;" /><circle cx="-50.99999999999999" cy="-30.000000000000007" r="2.6999999999999997" style="stroke:black;fill:white;stroke-width:2.0;stroke-dasharray:-;" /><circle cx="36.0" cy="-0.0" r="2.6999999999999997" style="stroke:black;fill:black;stroke-width:2.0;stroke-dasharray:-;" /><circle cx="123.0" cy="-29.999999999999993" r="2.6999999999999997" style="stroke:black;fill:white;stroke-width:2.0;stroke-dasharray:-;" /><circle cx="36.00000000000001" cy="-59.99999999999999" r="2.6999999999999997" style="stroke:black;fill:black;stroke-width:2.0;stroke-dasharray:-;" /><circle cx="35.999999999999986" cy="83.99999999999999" r="2.6999999999999997" style="stroke:black;fill:white;stroke-width:2.0;stroke-dasharray:-;" /><g><g><g><path d="M 39.465 93.016 L 39.465 93.016 L 39.059 93.016 Q 39.017 91.854 38.639 91.329 Q 38.261 90.804 37.197 90.804 Q 36.329 90.804 35.839 91.224 Q 35.349 91.644 35.349 92.4 Q 35.349 93.044 35.853 93.506 Q 36.357 93.968 37.043 94.388 Q 37.561 94.724 38.016 95.06 Q 38.471 95.396 38.765 95.844 Q 39.059 96.292 39.059 96.964 Q 39.059 97.86 38.611 98.49 Q 38.163 99.12 37.421 99.463 Q 36.679 99.806 35.811 99.806 Q 35.083 99.806 34.663 99.701 Q 34.243 99.596 34.012 99.491 Q 33.781 99.386 33.613 99.386 Q 33.473 99.386 33.333 99.512 Q 33.193 99.638 33.151 99.848 L 32.731 99.848 L 33.319 96.824 L 33.711 96.824 Q 33.781 97.79 33.984 98.308 Q 34.187 98.826 34.607 99.022 Q 35.027 99.218 35.727 99.218 Q 36.595 99.218 37.169 98.826 Q 37.743 98.434 37.757 97.622 Q 37.757 97.02 37.498 96.607 Q 37.239 96.194 36.805 95.872 Q 36.371 95.55 35.881 95.228 Q 35.867 95.214 35.853 95.214 Q 35.391 94.92 35.006 94.612 Q 34.621 94.304 34.39 93.877 Q 34.159 93.45 34.159 92.806 Q 34.159 91.994 34.593 91.434 Q 35.027 90.874 35.727 90.587 Q 36.427 90.3 37.211 90.3 Q 37.827 90.3 38.17 90.398 Q 38.513 90.496 38.709 90.601 Q 38.905 90.706 39.059 90.706 Q 39.409 90.706 39.605 90.3 L 39.941 90.3 Z " fill="black" /></g></g></g></svg>