<svg xmlns="http://www.w3.org/2000/svg" xmlns:xlink="http://www.w3.org/1999/xlink" xml:lang="en" height="232.8616pt" width="246.1246pt" viewBox="-36.0684 -219.26160000000002 246.1246 232.8616"><path d="M 0.0,-0.0 L 18.0,-0.0 L 36.0,-0.0" style="stroke:black;fill:none;stroke-width:2.0;stroke-dasharray:-;stroke-linecap:round;stroke-linejoin:round;" /><path d="M 36.0,-0.0 L 50.99999999999999,2.7554552980815436e-15 L 50.99999999999999,-14.999999999999996 L 81.0,-14.999999999999991 L 81.0,8.266365894244634e-15 L 96.0,1.1021821192326178e-14" style="stroke:black;fill:none;stroke-width:2.0;stroke-dasharray:-;stroke-linecap:round;stroke-linejoin:round;" /><path d="M 50.99999999999999,-8.999999999999996 L 50.99999999999999,-14.999999999999996" style="stroke:black;fill:none;stroke-width:2.0;stroke-dasharray:-;stroke-linecap:round;stroke-linejoin:round;" /><path d="M 50.99999999999999 -1.9999999999999973 L 46.49999999999999 -8.999999999999996 L 55.49999999999999 -8.999999999999996 Z" style="stroke:black;fill:black;stroke-linecap:butt;stroke-linejoin:miter;" /><path d="M 54.0,-17.999999999999993 L 78.0,-17.99999999999999" style="stroke:black;fill:none;stroke-width:2.0;stroke-dasharray:-;stroke-linecap:round;stroke-linejoin:round;" /><path d="M 66.0,-32.99999999999999 L 66.0,-17.999999999999993" style="stroke:black;fill:none;stroke-width:2.0;stroke-dasharray:-;stroke-linecap:round;stroke-linejoin:round;" /><path d="M 96.0,1.1021821192326178e-14 L 132.0,1.1021821192326178e-14 L 158.99999999999997,1.1021821192326178e-14" style="stroke:black;fill:none;stroke-width:2.0;stroke-dasharray:-;stroke-linecap:round;stroke-linejoin:round;" /><path d="M 165.99999999999997 1.1021821192326178e-14 L 158.99999999999997 2.700000000000011 L 158.99999999999997 -2.6999999999999886 Z" style="stroke:black;fill:black;stroke-linecap:butt;stroke-linejoin:miter;" /><path d="M 66.0,-32.99999999999999 L 66.0,-41.99999999999999 L 66.0,-50.99999999999999" style="stroke:black;fill:none;stroke-width:2.0;stroke-dasharray:-;stroke-linecap:round;stroke-linejoin:round;" /><path d="M 66.0,-50.99999999999999 L 84.0,-50.99999999999999 L 87.00000000000001,-59.99999999999999 L 93.0,-41.99999999999999 L 99.0,-59.99999999999999 L 105.00000000000001,-41.99999999999999 L 111.0,-59.99999999999999 L 117.0,-41.99999999999999 L 120.0,-50.99999999999999 L 138.0,-50.99999999999999" style="stroke:black;fill:none;stroke-width:2.0;stroke-dasharray:-;stroke-linecap:round;stroke-linejoin:round;" /><path d="M 66.0,-50.99999999999999 L 66.0,-83.76 M 57.00000000000001,-83.76 L 75.0,-83.76 M 57.00000000000001,-90.24000000000001 L 75.0,-90.24000000000001 M 66.0,-90.24000000000001 L 66.00000000000001,-123.0" style="stroke:black;fill:none;stroke-width:2.0;stroke-dasharray:-;stroke-linecap:round;stroke-linejoin:round;" /><path d="M 66.00000000000001,-123.0 L 66.00000000000001,-147.3 M 66.00000000000001,-170.70000000000002 L 66.00000000000003,-194.99999999999997" style="stroke:black;fill:none;stroke-width:2.0;stroke-dasharray:-;stroke-linecap:round;stroke-linejoin:round;" /><path d="M 48.000000000000014,-170.70000000000002 L 84.00000000000003,-170.70000000000002 L 66.00000000000001,-147.3 L 48.000000000000014,-170.70000000000002" style="stroke:black;fill:none;stroke-width:2.0;stroke-dasharray:-;stroke-linecap:round;stroke-linejoin:round;" /><g><g><g><path d="M -32.262 -2.982 L -32.262 -2.982 L -31.954 -2.982 L -32.612 -0.294 Q -32.71 0.07 -32.815 0.581 Q -32.92 1.092 -32.92 1.568 Q -32.92 2.114 -32.696 2.513 Q -32.472 2.912 -31.828 2.912 Q -31.114 2.912 -30.596 2.569 Q -30.078 2.226 -29.749 1.694 Q -29.42 1.162 -29.259 0.574 Q -29.098 -0.014 -29.098 -0.504 Q -29.098 -0.868 -29.224 -1.134 Q -29.35 -1.4 -29.525 -1.61 Q -29.7 -1.82 -29.826 -2.016 Q -29.952 -2.212 -29.952 -2.436 Q -29.952 -2.716 -29.798 -2.87 Q -29.644 -3.024 -29.42 -3.024 Q -28.944 -3.024 -28.65 -2.548 Q -28.356 -2.072 -28.356 -1.33 Q -28.356 -0.686 -28.517 0.021 Q -28.678 0.728 -29 1.4 Q -29.322 2.072 -29.798 2.618 Q -30.274 3.164 -30.89 3.486 Q -31.506 3.808 -32.262 3.808 Q -32.962 3.808 -33.354 3.528 Q -33.746 3.248 -33.907 2.786 Q -34.068 2.324 -34.068 1.792 Q -34.068 1.288 -33.97 0.756 Q -33.872 0.224 -33.76 -0.21 L -33.48 -1.274 Q -33.452 -1.386 -33.396 -1.61 Q -33.34 -1.834 -33.34 -2.044 Q -33.34 -2.226 -33.41 -2.352 Q -33.48 -2.478 -33.676 -2.478 Q -33.844 -2.478 -34.082 -2.457 Q -34.32 -2.436 -34.32 -2.436 L -34.32 -2.828 Z " fill="black" /><path d="M -24.583 6.259 L -24.583 6.259 L -24.583 6.622 L -27.072 6.622 L -27.072 6.259 Q -26.729 6.259 -26.577 6.186 Q -26.426 6.112 -26.386 5.951 Q -26.347 5.789 -26.347 5.524 L -26.347 2.565 Q -26.347 2.232 -26.455 2.163 Q -26.563 2.094 -26.818 2.094 Q -26.945 2.094 -27.023 2.104 Q -27.102 2.114 -27.102 2.114 L -27.102 1.722 L -25.789 1.506 L -25.387 1.506 L -25.387 5.524 Q -25.387 5.809 -25.343 5.97 Q -25.299 6.132 -25.127 6.196 Q -24.956 6.259 -24.583 6.259 Z M -25.877 -0.659 L -25.877 -0.659 Q -25.593 -0.659 -25.401 -0.463 Q -25.21 -0.267 -25.21 -0.013 Q -25.21 0.223 -25.401 0.419 Q -25.593 0.615 -25.877 0.615 Q -26.151 0.615 -26.332 0.419 Q -26.514 0.223 -26.514 -0.013 Q -26.514 -0.267 -26.332 -0.463 Q -26.151 -0.659 -25.877 -0.659 Z " fill="black" /><path d="M -18.762 3.339 L -18.762 3.339 L -18.762 5.534 Q -18.762 5.809 -18.713 5.97 Q -18.664 6.132 -18.497 6.201 Q -18.331 6.269 -17.978 6.269 L -17.978 6.622 L -20.497 6.622 L -20.497 6.269 Q -20.124 6.269 -19.958 6.201 Q -19.791 6.132 -19.752 5.97 Q -19.713 5.809 -19.713 5.534 L -19.713 3.662 Q -19.713 3.006 -19.864 2.697 Q -20.016 2.388 -20.247 2.29 Q -20.477 2.192 -20.712 2.192 Q -21.134 2.192 -21.452 2.408 Q -21.771 2.624 -22.006 2.82 L -22.006 5.534 Q -22.006 5.809 -21.962 5.97 Q -21.918 6.132 -21.751 6.201 Q -21.584 6.269 -21.222 6.269 L -21.222 6.622 L -23.691 6.622 L -23.691 6.269 Q -23.348 6.269 -23.196 6.201 Q -23.045 6.132 -23.005 5.97 Q -22.966 5.809 -22.966 5.534 L -22.966 2.555 Q -22.966 2.281 -23.069 2.188 Q -23.172 2.094 -23.397 2.094 Q -23.515 2.094 -23.593 2.104 Q -23.672 2.114 -23.672 2.114 L -23.672 1.742 L -22.359 1.506 L -22.035 1.506 L -22.035 2.31 L -21.967 2.31 Q -21.545 1.928 -21.158 1.702 Q -20.771 1.477 -20.281 1.477 Q -19.703 1.477 -19.374 1.737 Q -19.046 1.996 -18.904 2.418 Q -18.762 2.839 -18.762 3.339 Z " fill="black" /><path d="M -16.956 -0.098 L -16.956 -0.098 Q -16.956 -2.436 -15.941 -4.088 Q -14.926 -5.74 -13.232 -6.622 L -13.008 -6.258 Q -14.534 -5.222 -15.171 -3.731 Q -15.808 -2.24 -15.808 -0.098 Q -15.808 2.044 -15.171 3.535 Q -14.534 5.026 -13.008 6.062 L -13.232 6.426 Q -14.926 5.544 -15.941 3.892 Q -16.956 2.24 -16.956 -0.098 Z " fill="black" /><path d="M -8.15 -2.856 L -8.15 -2.856 L -8.262 -2.31 L -9.676 -2.31 L -10.502 1.862 Q -10.502 1.862 -10.551 2.121 Q -10.6 2.38 -10.6 2.562 Q -10.6 2.674 -10.551 2.765 Q -10.502 2.856 -10.362 2.856 Q -10.054 2.856 -9.795 2.674 Q -9.536 2.492 -9.172 2.016 L -8.892 2.226 Q -9.088 2.492 -9.368 2.87 Q -9.648 3.248 -10.04 3.528 Q -10.432 3.808 -10.992 3.808 Q -11.426 3.808 -11.636 3.598 Q -11.846 3.388 -11.846 3.066 Q -11.846 2.884 -11.804 2.625 Q -11.762 2.366 -11.748 2.268 L -10.796 -2.31 L -11.594 -2.31 L -11.538 -2.604 Q -11.09 -2.842 -10.789 -3.066 Q -10.488 -3.29 -10.215 -3.654 Q -9.942 -4.018 -9.592 -4.62 L -9.172 -4.62 L -9.564 -2.856 Z " fill="black" /><path d="M -3.488 -0.098 L -3.488 -0.098 Q -3.488 2.24 -4.503 3.892 Q -5.518 5.544 -7.212 6.426 L -7.436 6.062 Q -5.896 5.026 -5.266 3.535 Q -4.636 2.044 -4.636 -0.098 Q -4.636 -2.24 -5.266 -3.731 Q -5.896 -5.222 -7.436 -6.258 L -7.212 -6.622 Q -5.518 -5.74 -4.503 -4.088 Q -3.488 -2.436 -3.488 -0.098 Z " fill="black" /></g></g></g><g><g><g><path d="M 174.4 -3.041 L 174.4 -3.041 L 174.708 -3.041 L 174.05 -0.353 Q 173.952 0.011 173.847 0.522 Q 173.742 1.033 173.742 1.509 Q 173.742 2.055 173.966 2.454 Q 174.19 2.853 174.834 2.853 Q 175.548 2.853 176.066 2.51 Q 176.584 2.167 176.913 1.635 Q 177.242 1.103 177.403 0.515 Q 177.564 -0.073 177.564 -0.563 Q 177.564 -0.927 177.438 -1.193 Q 177.312 -1.459 177.137 -1.669 Q 176.962 -1.879 176.836 -2.075 Q 176.71 -2.271 176.71 -2.495 Q 176.71 -2.775 176.864 -2.929 Q 177.018 -3.083 177.242 -3.083 Q 177.718 -3.083 178.012 -2.607 Q 178.306 -2.131 178.306 -1.389 Q 178.306 -0.745 178.145 -0.038 Q 177.984 0.669 177.662 1.341 Q 177.34 2.013 176.864 2.559 Q 176.388 3.105 175.772 3.427 Q 175.156 3.749 174.4 3.749 Q 173.7 3.749 173.308 3.469 Q 172.916 3.189 172.755 2.727 Q 172.594 2.265 172.594 1.733 Q 172.594 1.229 172.692 0.697 Q 172.79 0.165 172.902 -0.269 L 173.182 -1.333 Q 173.21 -1.445 173.266 -1.669 Q 173.322 -1.893 173.322 -2.103 Q 173.322 -2.285 173.252 -2.411 Q 173.182 -2.537 172.986 -2.537 Q 172.818 -2.537 172.58 -2.516 Q 172.342 -2.495 172.342 -2.495 L 172.342 -2.887 Z " fill="black" /><path d="M 181.334 1.418 L 181.334 1.418 Q 182.069 1.418 182.618 1.737 Q 183.167 2.055 183.466 2.629 Q 183.765 3.202 183.765 3.976 Q 183.765 4.907 183.451 5.505 Q 183.137 6.103 182.589 6.392 Q 182.04 6.681 181.334 6.681 Q 180.619 6.681 180.065 6.382 Q 179.511 6.083 179.203 5.485 Q 178.894 4.887 178.894 3.986 Q 178.894 3.221 179.198 2.643 Q 179.502 2.065 180.05 1.742 Q 180.599 1.418 181.334 1.418 Z M 181.315 1.869 L 181.315 1.869 Q 180.668 1.869 180.3 2.393 Q 179.933 2.918 179.933 3.927 Q 179.933 5.172 180.31 5.686 Q 180.687 6.201 181.364 6.201 Q 181.795 6.191 182.099 5.985 Q 182.402 5.779 182.564 5.294 Q 182.726 4.809 182.726 3.976 Q 182.726 2.976 182.383 2.423 Q 182.04 1.869 181.315 1.869 Z " fill="black" /><path d="M 190.429 6.063 L 190.429 6.063 L 190.429 6.436 L 189.106 6.612 L 188.792 6.612 L 188.792 5.848 L 188.694 5.848 Q 188.322 6.181 187.939 6.421 Q 187.557 6.661 187.018 6.661 Q 186.293 6.661 185.911 6.22 Q 185.529 5.779 185.529 4.691 L 185.529 2.584 Q 185.529 2.183 185.386 2.09 Q 185.244 1.996 184.794 1.996 L 184.794 1.644 L 186.156 1.457 L 186.479 1.457 L 186.479 4.564 Q 186.479 5.113 186.607 5.417 Q 186.734 5.72 186.95 5.838 Q 187.165 5.956 187.42 5.956 Q 187.851 5.956 188.14 5.774 Q 188.429 5.593 188.743 5.338 L 188.743 2.584 Q 188.743 2.183 188.567 2.09 Q 188.39 1.996 187.89 1.996 L 187.89 1.644 L 189.351 1.457 L 189.694 1.457 L 189.694 5.426 Q 189.694 5.72 189.748 5.858 Q 189.801 5.995 189.939 6.029 Q 190.076 6.063 190.321 6.063 Z " fill="black" /><path d="M 194.251 5.583 L 194.251 5.583 L 194.476 5.769 Q 194.26 6.063 194.084 6.264 Q 193.908 6.465 193.682 6.573 Q 193.457 6.681 193.104 6.681 Q 192.536 6.681 192.276 6.357 Q 192.016 6.034 192.016 5.319 L 192.016 2.026 L 191.399 2.026 L 191.399 1.732 Q 191.752 1.477 192.046 1.11 Q 192.34 0.742 192.634 0.056 L 192.977 0.056 L 192.967 1.546 L 194.211 1.546 L 194.211 2.026 L 192.967 2.026 L 192.967 4.995 Q 192.967 5.544 193.07 5.774 Q 193.173 6.005 193.486 6.005 Q 193.77 6.005 193.917 5.902 Q 194.064 5.799 194.251 5.583 Z " fill="black" /><path d="M 195.361 -0.157 L 195.361 -0.157 Q 195.361 -2.495 196.376 -4.147 Q 197.391 -5.799 199.085 -6.681 L 199.309 -6.317 Q 197.783 -5.281 197.146 -3.79 Q 196.509 -2.299 196.509 -0.157 Q 196.509 1.985 197.146 3.476 Q 197.783 4.967 199.309 6.003 L 199.085 6.367 Q 197.391 5.485 196.376 3.833 Q 195.361 2.181 195.361 -0.157 Z " fill="black" /><path d="M 204.167 -2.915 L 204.167 -2.915 L 204.055 -2.369 L 202.641 -2.369 L 201.815 1.803 Q 201.815 1.803 201.766 2.062 Q 201.717 2.321 201.717 2.503 Q 201.717 2.615 201.766 2.706 Q 201.815 2.797 201.955 2.797 Q 202.263 2.797 202.522 2.615 Q 202.781 2.433 203.145 1.957 L 203.425 2.167 Q 203.229 2.433 202.949 2.811 Q 202.669 3.189 202.277 3.469 Q 201.885 3.749 201.325 3.749 Q 200.891 3.749 200.681 3.539 Q 200.471 3.329 200.471 3.007 Q 200.471 2.825 200.513 2.566 Q 200.555 2.307 200.569 2.209 L 201.521 -2.369 L 200.723 -2.369 L 200.779 -2.663 Q 201.227 -2.901 201.528 -3.125 Q 201.829 -3.349 202.102 -3.713 Q 202.375 -4.077 202.725 -4.679 L 203.145 -4.679 L 202.753 -2.915 Z " fill="black" /><path d="M 208.829 -0.157 L 208.829 -0.157 Q 208.829 2.181 207.814 3.833 Q 206.799 5.485 205.105 6.367 L 204.881 6.003 Q 206.421 4.967 207.051 3.476 Q 207.681 1.985 207.681 -0.157 Q 207.681 -2.299 207.051 -3.79 Q 206.421 -5.281 204.881 -6.317 L 205.105 -6.681 Q 206.799 -5.799 207.814 -4.147 Q 208.829 -2.495 208.829 -0.157 Z " fill="black" /></g></g></g><circle cx="66.0" cy="-50.99999999999999" r="2.6999999999999997" style="stroke:black;fill:black;stroke-width:2.0;stroke-dasharray:-;" /><circle cx="138.0" cy="-50.99999999999999" r="2.6999999999999997" style="stroke:black;fill:white;stroke-width:2.0;stroke-dasharray:-;" /><g><g><g><path d="M 148.178 -49.685 L 148.178 -49.685 L 152 -55.425 Q 152.196 -55.705 152.315 -55.943 Q 152.434 -56.181 152.434 -56.349 Q 152.434 -56.559 152.252 -56.636 Q 152.07 -56.713 151.594 -56.713 L 151.622 -57.133 L 154.646 -57.133 L 154.618 -56.713 Q 154.24 -56.713 153.974 -56.601 Q 153.708 -56.489 153.435 -56.174 Q 153.162 -55.859 152.728 -55.215 L 147.59 -47.865 L 147.128 -47.865 L 146.344 -55.439 Q 146.26 -56.139 146.036 -56.426 Q 145.812 -56.713 145.252 -56.713 L 145.28 -57.133 L 148.71 -57.133 L 148.668 -56.713 Q 148.136 -56.713 147.828 -56.503 Q 147.52 -56.293 147.548 -55.817 Q 147.548 -55.747 147.569 -55.565 Q 147.59 -55.383 147.59 -55.313 L 148.01 -51.323 L 148.108 -49.685 Z " fill="black" /><path d="M 155.042 -52.315 L 155.042 -52.315 L 155.042 -49.277 L 155.091 -49.277 Q 155.375 -49.61 155.762 -49.875 Q 156.15 -50.14 156.698 -50.14 Q 157.208 -50.14 157.624 -49.831 Q 158.041 -49.522 158.291 -48.978 Q 158.541 -48.434 158.541 -47.729 Q 158.541 -46.788 158.198 -46.151 Q 157.855 -45.514 157.262 -45.196 Q 156.669 -44.877 155.914 -44.877 Q 155.473 -44.877 155.101 -44.951 Q 154.729 -45.024 154.469 -45.122 Q 154.209 -45.22 154.092 -45.269 L 154.092 -51.149 Q 154.092 -51.512 154.013 -51.615 Q 153.935 -51.717 153.602 -51.717 Q 153.494 -51.717 153.401 -51.703 Q 153.308 -51.688 153.308 -51.688 L 153.308 -52.06 L 154.64 -52.315 Z M 155.042 -48.768 L 155.042 -48.768 L 155.042 -45.828 Q 155.16 -45.612 155.415 -45.485 Q 155.669 -45.357 156.091 -45.357 Q 156.61 -45.357 156.924 -45.637 Q 157.237 -45.916 157.379 -46.381 Q 157.522 -46.847 157.522 -47.396 Q 157.522 -47.895 157.409 -48.351 Q 157.296 -48.807 157.012 -49.091 Q 156.728 -49.375 156.228 -49.375 Q 155.963 -49.375 155.723 -49.272 Q 155.483 -49.169 155.307 -49.027 Q 155.13 -48.885 155.042 -48.768 Z " fill="black" /><path d="M 162.118 -45.357 L 162.118 -45.357 L 162.118 -44.995 L 159.629 -44.995 L 159.629 -45.357 Q 159.972 -45.357 160.123 -45.431 Q 160.275 -45.504 160.315 -45.666 Q 160.354 -45.828 160.354 -46.092 L 160.354 -49.052 Q 160.354 -49.385 160.246 -49.454 Q 160.138 -49.522 159.883 -49.522 Q 159.756 -49.522 159.678 -49.512 Q 159.599 -49.503 159.599 -49.503 L 159.599 -49.895 L 160.912 -50.11 L 161.314 -50.11 L 161.314 -46.092 Q 161.314 -45.808 161.358 -45.646 Q 161.402 -45.485 161.574 -45.421 Q 161.745 -45.357 162.118 -45.357 Z M 160.824 -52.276 L 160.824 -52.276 Q 161.108 -52.276 161.299 -52.08 Q 161.491 -51.884 161.491 -51.629 Q 161.491 -51.394 161.299 -51.198 Q 161.108 -51.002 160.824 -51.002 Q 160.55 -51.002 160.368 -51.198 Q 160.187 -51.394 160.187 -51.629 Q 160.187 -51.884 160.368 -52.08 Q 160.55 -52.276 160.824 -52.276 Z " fill="black" /><path d="M 166.038 -45.612 L 166.038 -45.612 L 165.969 -45.612 Q 165.636 -45.338 165.234 -45.132 Q 164.832 -44.926 164.362 -44.926 Q 163.745 -44.926 163.416 -45.298 Q 163.088 -45.671 163.088 -46.2 Q 163.088 -46.651 163.299 -46.955 Q 163.509 -47.258 163.847 -47.45 Q 164.186 -47.641 164.578 -47.758 Q 164.97 -47.876 165.332 -47.944 Q 165.695 -48.013 165.94 -48.072 L 165.94 -48.581 Q 165.94 -49.238 165.68 -49.488 Q 165.42 -49.738 164.921 -49.738 Q 164.617 -49.738 164.484 -49.659 Q 164.352 -49.581 164.318 -49.405 Q 164.284 -49.228 164.274 -48.944 Q 164.264 -48.728 164.146 -48.596 Q 164.029 -48.464 163.803 -48.464 Q 163.588 -48.464 163.436 -48.596 Q 163.284 -48.728 163.284 -48.983 Q 163.284 -49.287 163.519 -49.552 Q 163.754 -49.816 164.19 -49.978 Q 164.627 -50.14 165.215 -50.14 Q 166.097 -50.14 166.493 -49.733 Q 166.89 -49.326 166.89 -48.513 L 166.89 -46.112 Q 166.89 -45.788 166.964 -45.695 Q 167.037 -45.602 167.194 -45.602 Q 167.361 -45.602 167.483 -45.671 Q 167.606 -45.739 167.714 -45.867 L 167.929 -45.661 Q 167.42 -44.936 166.734 -44.936 Q 166.351 -44.936 166.209 -45.117 Q 166.067 -45.298 166.038 -45.612 Z M 165.94 -45.975 L 165.94 -45.975 L 165.94 -47.699 Q 165.489 -47.582 165.058 -47.44 Q 164.627 -47.298 164.347 -47.053 Q 164.068 -46.808 164.068 -46.367 Q 164.068 -45.984 164.288 -45.764 Q 164.509 -45.543 164.852 -45.543 Q 165.058 -45.543 165.347 -45.637 Q 165.636 -45.73 165.94 -45.975 Z " fill="black" /><path d="M 168.605 -46.778 L 168.605 -46.778 L 168.919 -46.778 Q 169.046 -46.21 169.223 -45.896 Q 169.399 -45.583 169.678 -45.46 Q 169.958 -45.338 170.36 -45.338 Q 170.82 -45.338 171.07 -45.49 Q 171.32 -45.641 171.32 -46.024 Q 171.32 -46.278 171.197 -46.45 Q 171.075 -46.621 170.805 -46.778 Q 170.536 -46.935 170.085 -47.141 Q 169.625 -47.366 169.296 -47.562 Q 168.968 -47.758 168.796 -48.023 Q 168.625 -48.287 168.625 -48.689 Q 168.625 -49.395 169.1 -49.767 Q 169.576 -50.14 170.291 -50.14 Q 170.722 -50.14 171.021 -50.032 Q 171.32 -49.924 171.496 -49.846 L 171.516 -49.846 L 171.673 -50.091 L 171.947 -50.091 L 171.967 -48.464 L 171.624 -48.464 Q 171.438 -49.218 171.104 -49.478 Q 170.771 -49.738 170.34 -49.738 Q 169.889 -49.738 169.659 -49.542 Q 169.429 -49.346 169.429 -49.032 Q 169.429 -48.777 169.585 -48.611 Q 169.742 -48.444 170.031 -48.302 Q 170.32 -48.16 170.722 -47.964 Q 171.173 -47.748 171.516 -47.518 Q 171.859 -47.288 172.055 -46.999 Q 172.251 -46.71 172.251 -46.278 Q 172.251 -45.759 171.977 -45.445 Q 171.702 -45.132 171.271 -45 Q 170.84 -44.867 170.369 -44.867 Q 169.889 -44.867 169.625 -44.965 Q 169.36 -45.063 169.135 -45.151 L 169.095 -45.151 L 168.85 -44.897 L 168.625 -44.897 Z " fill="black" /></g></g></g><circle cx="66.00000000000003" cy="-194.99999999999997" r="2.6999999999999997" style="stroke:black;fill:white;stroke-width:2.0;stroke-dasharray:-;" /><g><g><g><path d="M 50.737 -211.041 L 50.737 -211.041 L 51.045 -211.041 L 50.387 -208.353 Q 50.289 -207.989 50.184 -207.478 Q 50.079 -206.967 50.079 -206.491 Q 50.079 -205.945 50.303 -205.546 Q 50.527 -205.147 51.171 -205.147 Q 51.885 -205.147 52.403 -205.49 Q 52.921 -205.833 53.25 -206.365 Q 53.579 -206.897 53.74 -207.485 Q 53.901 -208.073 53.901 -208.563 Q 53.901 -208.927 53.775 -209.193 Q 53.649 -209.459 53.474 -209.669 Q 53.299 -209.879 53.173 -210.075 Q 53.047 -210.271 53.047 -210.495 Q 53.047 -210.775 53.201 -210.929 Q 53.355 -211.083 53.579 -211.083 Q 54.055 -211.083 54.349 -210.607 Q 54.643 -210.131 54.643 -209.389 Q 54.643 -208.745 54.482 -208.038 Q 54.321 -207.331 53.999 -206.659 Q 53.677 -205.987 53.201 -205.441 Q 52.725 -204.895 52.109 -204.573 Q 51.493 -204.251 50.737 -204.251 Q 50.037 -204.251 49.645 -204.531 Q 49.253 -204.811 49.092 -205.273 Q 48.931 -205.735 48.931 -206.267 Q 48.931 -206.771 49.029 -207.303 Q 49.127 -207.835 49.239 -208.269 L 49.519 -209.333 Q 49.547 -209.445 49.603 -209.669 Q 49.659 -209.893 49.659 -210.103 Q 49.659 -210.285 49.589 -210.411 Q 49.519 -210.537 49.323 -210.537 Q 49.155 -210.537 48.917 -210.516 Q 48.679 -210.495 48.679 -210.495 L 48.679 -210.887 Z " fill="black" /><path d="M 61.659 -203.525 L 61.659 -203.525 L 61.405 -201.437 L 56.015 -201.437 L 56.015 -201.81 Q 56.456 -201.81 56.661 -201.883 Q 56.867 -201.957 56.931 -202.167 Q 56.995 -202.378 56.995 -202.79 L 56.995 -206.876 Q 56.995 -207.307 56.931 -207.538 Q 56.867 -207.768 56.661 -207.861 Q 56.456 -207.954 56.015 -207.954 L 56.015 -208.327 L 59.072 -208.327 L 59.072 -207.954 Q 58.641 -207.954 58.416 -207.866 Q 58.19 -207.778 58.107 -207.543 Q 58.024 -207.307 58.024 -206.866 L 58.024 -202.515 Q 58.024 -202.133 58.18 -202.03 Q 58.337 -201.927 58.729 -201.927 L 59.356 -201.927 Q 59.876 -201.927 60.189 -201.996 Q 60.503 -202.064 60.684 -202.236 Q 60.866 -202.407 60.983 -202.721 Q 61.101 -203.035 61.248 -203.525 Z " fill="black" /><path d="M 69.441 -204.848 L 69.441 -204.848 Q 69.441 -203.75 69.019 -202.956 Q 68.598 -202.162 67.824 -201.731 Q 67.049 -201.3 65.981 -201.3 Q 64.923 -201.3 64.149 -201.731 Q 63.374 -202.162 62.953 -202.966 Q 62.532 -203.77 62.532 -204.887 Q 62.532 -205.955 62.953 -206.754 Q 63.374 -207.552 64.153 -207.998 Q 64.933 -208.444 65.981 -208.444 Q 67.049 -208.444 67.824 -207.979 Q 68.598 -207.513 69.019 -206.705 Q 69.441 -205.896 69.441 -204.848 Z M 68.196 -204.985 L 68.196 -204.985 Q 68.196 -206.416 67.593 -207.18 Q 66.991 -207.944 65.971 -207.944 Q 64.962 -207.944 64.369 -207.17 Q 63.776 -206.396 63.776 -204.955 Q 63.776 -203.456 64.315 -202.643 Q 64.854 -201.829 65.991 -201.829 Q 67.128 -201.829 67.662 -202.618 Q 68.196 -203.407 68.196 -204.985 Z " fill="black" /><path d="M 70.708 -208.157 L 70.708 -208.157 Q 70.708 -210.495 71.723 -212.147 Q 72.738 -213.799 74.432 -214.681 L 74.656 -214.317 Q 73.13 -213.281 72.493 -211.79 Q 71.856 -210.299 71.856 -208.157 Q 71.856 -206.015 72.493 -204.524 Q 73.13 -203.033 74.656 -201.997 L 74.432 -201.633 Q 72.738 -202.515 71.723 -204.167 Q 70.708 -205.819 70.708 -208.157 Z " fill="black" /><path d="M 79.514 -210.915 L 79.514 -210.915 L 79.402 -210.369 L 77.988 -210.369 L 77.162 -206.197 Q 77.162 -206.197 77.113 -205.938 Q 77.064 -205.679 77.064 -205.497 Q 77.064 -205.385 77.113 -205.294 Q 77.162 -205.203 77.302 -205.203 Q 77.61 -205.203 77.869 -205.385 Q 78.128 -205.567 78.492 -206.043 L 78.772 -205.833 Q 78.576 -205.567 78.296 -205.189 Q 78.016 -204.811 77.624 -204.531 Q 77.232 -204.251 76.672 -204.251 Q 76.238 -204.251 76.028 -204.461 Q 75.818 -204.671 75.818 -204.993 Q 75.818 -205.175 75.86 -205.434 Q 75.902 -205.693 75.916 -205.791 L 76.868 -210.369 L 76.07 -210.369 L 76.126 -210.663 Q 76.574 -210.901 76.875 -211.125 Q 77.176 -211.349 77.449 -211.713 Q 77.722 -212.077 78.072 -212.679 L 78.492 -212.679 L 78.1 -210.915 Z " fill="black" /><path d="M 84.176 -208.157 L 84.176 -208.157 Q 84.176 -205.819 83.161 -204.167 Q 82.146 -202.515 80.452 -201.633 L 80.228 -201.997 Q 81.768 -203.033 82.398 -204.524 Q 83.028 -206.015 83.028 -208.157 Q 83.028 -210.299 82.398 -211.79 Q 81.768 -213.281 80.228 -214.317 L 80.452 -214.681 Q 82.146 -213.799 83.161 -212.147 Q 84.176 -210.495 84.176 -208.157 Z " fill="black" /></g></g></g></svg>