<svg xmlns="http://www.w3.org/2000/svg" xmlns:xlink="http://www.w3.org/1999/xlink" xml:lang="en" height="140.24pt" width="360.4524pt" viewBox="-40.85239999999999 -112.6 360.4524 140.24"><circle cx="2.204364238465236e-15" cy="-36.0" r="18.0" style="stroke:black;fill:none;stroke-width:2.0;stroke-dasharray:-;" /><path d="M 0.0,-0.0 L 0.0,14.4 L -9.0,14.4 L 9.0,14.4 M -6.3,18.72 L 6.3,18.72 M -1.8,23.04 L 1.8,23.04" style="stroke:black;fill:none;stroke-width:2.0;stroke-dasharray:-;stroke-linecap:round;stroke-linejoin:round;" /><path d="M 0.0,-0.0 L 1.102182119232618e-15,-18.0 L 1.102182119232618e-15,-18.0 M 3.3065463576978533e-15,-54.0 L 3.3065463576978533e-15,-54.0 L 4.408728476930472e-15,-72.0" style="stroke:black;fill:none;stroke-width:2.0;stroke-dasharray:-;stroke-linecap:round;stroke-linejoin:round;" /><path d="M 9.000000000000002,-36.0 L 8.250000000000002,-37.86349712473816 L 7.500000000000003,-39.6 L 6.750000000000003,-41.091168824543146 L 6.0000000000000036,-42.23538290724795 L 5.2500000000000036,-42.95466594928129 L 4.500000000000003,-43.199999999999996 L 3.750000000000003,-42.9546659492813 L 3.0000000000000027,-42.23538290724795 L 2.2500000000000027,-41.09116882454314 L 1.500000000000003,-39.6 L 0.7500000000000027,-37.863497124738146 L 2.204364238465236e-15,-36.0 L -0.7499999999999972,-34.136502875261854 L -1.4999999999999967,-32.400000000000006 L -2.2499999999999982,-30.908831175456857 L -2.9999999999999973,-29.764617092752044 L -3.7499999999999964,-29.04533405071871 L -4.499999999999998,-28.8 L -5.249999999999997,-29.045334050718708 L -5.9999999999999964,-29.76461709275204 L -6.749999999999998,-30.90883117545686 L -7.499999999999997,-32.4 L -8.249999999999996,-34.13650287526185 L -8.999999999999998,-36.0" style="stroke:black;fill:none;stroke-width:2.0;stroke-dasharray:-;stroke-linecap:round;stroke-linejoin:round;" /><path d="M 4.408728476930472e-15,-72.0 L 18.000000000000004,-72.0 L 21.000000000000007,-81.0 L 27.000000000000004,-63.0 L 33.0,-81.0 L 39.00000000000001,-63.0 L 45.00000000000001,-81.0 L 51.0,-63.0 L 54.00000000000001,-72.0 L 72.0,-72.0" style="stroke:black;fill:none;stroke-width:2.0;stroke-dasharray:-;stroke-linecap:round;stroke-linejoin:round;" /><path d="M 72.0,-72.0 L 81.0,-72.0 L 90.0,-72.0" style="stroke:black;fill:none;stroke-width:2.0;stroke-dasharray:-;stroke-linecap:round;stroke-linejoin:round;" /><path d="M 90.0,-72.0 L 108.0,-72.0 L 126.0,-72.0" style="stroke:black;fill:none;stroke-width:2.0;stroke-dasharray:-;stroke-linecap:round;stroke-linejoin:round;" /><path d="M 126.0,-72.0 L 126.0,-108.0 L 234.0,-108.0 L 234.0,-36.0 L 126.0,-36.0 L 126.0,-72.0" style="stroke:black;fill:none;stroke-width:2.0;stroke-dasharray:-;stroke-linecap:round;stroke-linejoin:round;" /><path d="M 234.0,-72.0 L 252.0,-72.0 L 270.0,-72.0" style="stroke:black;fill:none;stroke-width:2.0;stroke-dasharray:-;stroke-linecap:round;stroke-linejoin:round;" /><path d="M 270.0,-72.0 L 288.0,-72.0 L 306.0,-72.0" style="stroke:black;fill:none;stroke-width:2.0;stroke-dasharray:-;stroke-linecap:round;stroke-linejoin:round;" /><path d="M 306.0,-72.0 L 306.0,-54.0 L 315.0,-50.99999999999999 L 297.0,-45.0 L 315.0,-39.00000000000001 L 297.0,-33.0 L 315.0,-27.0 L 297.0,-21.000000000000007 L 306.0,-18.0 L 306.0,-0.0" style="stroke:black;fill:none;stroke-width:2.0;stroke-dasharray:-;stroke-linecap:round;stroke-linejoin:round;" /><path d="M 306.0,-0.0 L 306.0,14.4 L 297.0,14.4 L 315.0,14.4 M 299.7,18.72 L 312.3,18.72 M 304.2,23.04 L 307.8,23.04" style="stroke:black;fill:none;stroke-width:2.0;stroke-dasharray:-;stroke-linecap:round;stroke-linejoin:round;" /><g><g><g><path d="M -32.216 -39.423 L -32.216 -39.423 L -32.622 -39.423 Q -32.664 -40.585 -33.042 -41.11 Q -33.42 -41.635 -34.484 -41.635 Q -35.352 -41.635 -35.842 -41.215 Q -36.332 -40.795 -36.332 -40.039 Q -36.332 -39.395 -35.828 -38.933 Q -35.324 -38.471 -34.638 -38.051 Q -34.12 -37.715 -33.665 -37.379 Q -33.21 -37.043 -32.916 -36.595 Q -32.622 -36.147 -32.622 -35.475 Q -32.622 -34.579 -33.07 -33.949 Q -33.518 -33.319 -34.26 -32.976 Q -35.002 -32.633 -35.87 -32.633 Q -36.598 -32.633 -37.018 -32.738 Q -37.438 -32.843 -37.669 -32.948 Q -37.9 -33.053 -38.068 -33.053 Q -38.208 -33.053 -38.348 -32.927 Q -38.488 -32.801 -38.53 -32.591 L -38.95 -32.591 L -38.362 -35.615 L -37.97 -35.615 Q -37.9 -34.649 -37.697 -34.131 Q -37.494 -33.613 -37.074 -33.417 Q -36.654 -33.221 -35.954 -33.221 Q -35.086 -33.221 -34.512 -33.613 Q -33.938 -34.005 -33.924 -34.817 Q -33.924 -35.419 -34.183 -35.832 Q -34.442 -36.245 -34.876 -36.567 Q -35.31 -36.889 -35.8 -37.211 Q -35.814 -37.225 -35.828 -37.225 Q -36.29 -37.519 -36.675 -37.827 Q -37.06 -38.135 -37.291 -38.562 Q -37.522 -38.989 -37.522 -39.633 Q -37.522 -40.445 -37.088 -41.005 Q -36.654 -41.565 -35.954 -41.852 Q -35.254 -42.139 -34.47 -42.139 Q -33.854 -42.139 -33.511 -42.041 Q -33.168 -41.943 -32.972 -41.838 Q -32.776 -41.733 -32.622 -41.733 Q -32.272 -41.733 -32.076 -42.139 L -31.74 -42.139 Z " fill="black" /><path d="M -28.261 -30.224 L -28.261 -30.224 L -28.261 -29.861 L -30.75 -29.861 L -30.75 -30.224 Q -30.407 -30.224 -30.255 -30.297 Q -30.104 -30.371 -30.064 -30.532 Q -30.025 -30.694 -30.025 -30.959 L -30.025 -33.918 Q -30.025 -34.251 -30.133 -34.32 Q -30.241 -34.389 -30.496 -34.389 Q -30.623 -34.389 -30.701 -34.379 Q -30.78 -34.369 -30.78 -34.369 L -30.78 -34.761 L -29.467 -34.977 L -29.065 -34.977 L -29.065 -30.959 Q -29.065 -30.674 -29.021 -30.513 Q -28.977 -30.351 -28.805 -30.287 Q -28.634 -30.224 -28.261 -30.224 Z M -29.555 -37.142 L -29.555 -37.142 Q -29.271 -37.142 -29.079 -36.946 Q -28.888 -36.75 -28.888 -36.496 Q -28.888 -36.26 -29.079 -36.064 Q -29.271 -35.868 -29.555 -35.868 Q -29.829 -35.868 -30.01 -36.064 Q -30.192 -36.26 -30.192 -36.496 Q -30.192 -36.75 -30.01 -36.946 Q -29.829 -37.142 -29.555 -37.142 Z " fill="black" /><path d="M -22.44 -33.144 L -22.44 -33.144 L -22.44 -30.949 Q -22.44 -30.674 -22.391 -30.513 Q -22.342 -30.351 -22.175 -30.282 Q -22.009 -30.214 -21.656 -30.214 L -21.656 -29.861 L -24.175 -29.861 L -24.175 -30.214 Q -23.802 -30.214 -23.636 -30.282 Q -23.469 -30.351 -23.43 -30.513 Q -23.391 -30.674 -23.391 -30.949 L -23.391 -32.821 Q -23.391 -33.477 -23.542 -33.786 Q -23.694 -34.095 -23.925 -34.193 Q -24.155 -34.291 -24.39 -34.291 Q -24.812 -34.291 -25.13 -34.075 Q -25.449 -33.859 -25.684 -33.663 L -25.684 -30.949 Q -25.684 -30.674 -25.64 -30.513 Q -25.596 -30.351 -25.429 -30.282 Q -25.262 -30.214 -24.9 -30.214 L -24.9 -29.861 L -27.369 -29.861 L -27.369 -30.214 Q -27.026 -30.214 -26.874 -30.282 Q -26.723 -30.351 -26.683 -30.513 Q -26.644 -30.674 -26.644 -30.949 L -26.644 -33.928 Q -26.644 -34.202 -26.747 -34.295 Q -26.85 -34.389 -27.075 -34.389 Q -27.193 -34.389 -27.271 -34.379 Q -27.35 -34.369 -27.35 -34.369 L -27.35 -34.741 L -26.037 -34.977 L -25.713 -34.977 L -25.713 -34.173 L -25.645 -34.173 Q -25.223 -34.555 -24.836 -34.781 Q -24.449 -35.006 -23.959 -35.006 Q -23.381 -35.006 -23.052 -34.746 Q -22.724 -34.487 -22.582 -34.065 Q -22.44 -33.644 -22.44 -33.144 Z " fill="black" /></g></g></g><g><g><g><path d="M 37.229 -94.933 L 37.229 -94.933 Q 37.229 -94.191 36.949 -93.687 Q 36.669 -93.183 36.221 -92.861 Q 35.773 -92.539 35.262 -92.364 Q 34.751 -92.189 34.289 -92.105 L 34.289 -92.035 Q 34.541 -91.867 34.765 -91.524 Q 34.989 -91.181 35.318 -90.537 Q 35.647 -89.893 36.221 -88.801 Q 36.459 -88.381 36.746 -88.234 Q 37.033 -88.087 37.509 -88.087 L 37.425 -87.667 L 35.297 -87.667 Q 34.905 -88.535 34.639 -89.116 Q 34.373 -89.697 34.177 -90.089 Q 33.981 -90.481 33.834 -90.789 Q 33.687 -91.097 33.519 -91.419 Q 33.365 -91.713 33.183 -91.804 Q 33.001 -91.895 32.623 -91.895 L 32.329 -91.895 L 31.811 -89.403 Q 31.699 -88.829 31.734 -88.542 Q 31.769 -88.255 32.049 -88.171 Q 32.329 -88.087 32.931 -88.087 L 32.861 -87.667 L 28.997 -87.667 L 29.081 -88.087 Q 29.599 -88.087 29.879 -88.171 Q 30.159 -88.255 30.306 -88.535 Q 30.453 -88.815 30.565 -89.403 L 31.797 -95.409 Q 31.881 -95.801 31.839 -96.025 Q 31.797 -96.249 31.552 -96.347 Q 31.307 -96.445 30.747 -96.445 L 30.831 -96.865 L 34.121 -96.865 Q 35.591 -96.865 36.41 -96.41 Q 37.229 -95.955 37.229 -94.933 Z M 33.211 -96.277 L 33.211 -96.277 L 32.427 -92.413 L 32.861 -92.399 Q 33.701 -92.427 34.38 -92.672 Q 35.059 -92.917 35.451 -93.449 Q 35.843 -93.981 35.843 -94.877 Q 35.843 -95.255 35.682 -95.584 Q 35.521 -95.913 35.129 -96.116 Q 34.737 -96.319 34.037 -96.319 Q 33.771 -96.319 33.61 -96.312 Q 33.449 -96.305 33.211 -96.277 Z " fill="black" /><path d="M 38.741 -86.511 L 38.741 -86.511 L 39.055 -86.511 Q 39.182 -85.943 39.359 -85.629 Q 39.535 -85.315 39.814 -85.193 Q 40.094 -85.07 40.495 -85.07 Q 40.956 -85.07 41.206 -85.222 Q 41.456 -85.374 41.456 -85.756 Q 41.456 -86.011 41.333 -86.183 Q 41.211 -86.354 40.941 -86.511 Q 40.672 -86.668 40.221 -86.874 Q 39.76 -87.099 39.432 -87.295 Q 39.104 -87.491 38.932 -87.756 Q 38.761 -88.02 38.761 -88.422 Q 38.761 -89.128 39.236 -89.5 Q 39.711 -89.872 40.427 -89.872 Q 40.858 -89.872 41.157 -89.765 Q 41.456 -89.657 41.632 -89.578 L 41.652 -89.578 L 41.809 -89.823 L 42.083 -89.823 L 42.103 -88.197 L 41.76 -88.197 Q 41.573 -88.951 41.24 -89.211 Q 40.907 -89.471 40.476 -89.471 Q 40.025 -89.471 39.795 -89.275 Q 39.564 -89.079 39.564 -88.765 Q 39.564 -88.51 39.721 -88.344 Q 39.878 -88.177 40.167 -88.035 Q 40.456 -87.893 40.858 -87.697 Q 41.309 -87.481 41.652 -87.251 Q 41.995 -87.021 42.191 -86.732 Q 42.387 -86.442 42.387 -86.011 Q 42.387 -85.492 42.112 -85.178 Q 41.838 -84.865 41.407 -84.732 Q 40.976 -84.6 40.505 -84.6 Q 40.025 -84.6 39.76 -84.698 Q 39.496 -84.796 39.27 -84.884 L 39.231 -84.884 L 38.986 -84.629 L 38.761 -84.629 Z " fill="black" /></g></g></g><g><g><g><path d="M 145.441 -68.843 L 145.441 -68.843 L 145.441 -78.041 L 146.687 -78.041 L 150.075 -72.287 L 151.083 -70.383 L 151.153 -70.383 Q 151.111 -71.083 151.055 -71.839 Q 150.999 -72.595 150.999 -73.323 L 150.999 -78.041 L 152.133 -78.041 L 152.133 -68.843 L 150.901 -68.843 L 147.499 -74.597 L 146.491 -76.501 L 146.435 -76.501 Q 146.477 -75.801 146.533 -75.066 Q 146.589 -74.331 146.589 -73.617 L 146.589 -68.843 Z " fill="black" /><path d="M 157.089 -68.675 L 157.089 -68.675 Q 156.291 -68.675 155.591 -69.088 Q 154.891 -69.501 154.464 -70.278 Q 154.037 -71.055 154.037 -72.161 Q 154.037 -73.267 154.464 -74.037 Q 154.891 -74.807 155.591 -75.22 Q 156.291 -75.633 157.089 -75.633 Q 157.901 -75.633 158.601 -75.22 Q 159.301 -74.807 159.728 -74.037 Q 160.155 -73.267 160.155 -72.161 Q 160.155 -71.055 159.728 -70.278 Q 159.301 -69.501 158.601 -69.088 Q 157.901 -68.675 157.089 -68.675 Z M 157.089 -69.613 L 157.089 -69.613 Q 157.943 -69.613 158.468 -70.313 Q 158.993 -71.013 158.993 -72.161 Q 158.993 -73.295 158.468 -73.995 Q 157.943 -74.695 157.089 -74.695 Q 156.249 -74.695 155.724 -73.995 Q 155.199 -73.295 155.199 -72.161 Q 155.199 -71.013 155.724 -70.313 Q 156.249 -69.613 157.089 -69.613 Z " fill="black" /><path d="M 161.877 -68.843 L 161.877 -68.843 L 161.877 -75.479 L 162.997 -75.479 L 162.997 -68.843 Z M 162.451 -76.837 L 162.451 -76.837 Q 162.129 -76.837 161.905 -77.047 Q 161.681 -77.257 161.681 -77.565 Q 161.681 -77.887 161.905 -78.09 Q 162.129 -78.293 162.451 -78.293 Q 162.773 -78.293 162.997 -78.09 Q 163.221 -77.887 163.221 -77.565 Q 163.221 -77.257 162.997 -77.047 Q 162.773 -76.837 162.451 -76.837 Z " fill="black" /><path d="M 167.001 -68.675 L 167.001 -68.675 Q 166.245 -68.675 165.601 -68.941 Q 164.957 -69.207 164.495 -69.599 L 165.041 -70.341 Q 165.489 -69.991 165.944 -69.774 Q 166.399 -69.557 166.959 -69.557 Q 167.631 -69.557 167.96 -69.858 Q 168.289 -70.159 168.289 -70.565 Q 168.289 -70.915 168.079 -71.146 Q 167.869 -71.377 167.526 -71.538 Q 167.183 -71.699 166.777 -71.839 Q 166.315 -72.021 165.86 -72.252 Q 165.405 -72.483 165.111 -72.847 Q 164.817 -73.211 164.817 -73.771 Q 164.817 -74.555 165.426 -75.094 Q 166.035 -75.633 167.057 -75.633 Q 167.757 -75.633 168.268 -75.409 Q 168.779 -75.185 169.143 -74.905 L 168.611 -74.177 Q 168.261 -74.429 167.897 -74.597 Q 167.533 -74.765 167.085 -74.765 Q 166.483 -74.765 166.189 -74.478 Q 165.895 -74.191 165.895 -73.827 Q 165.895 -73.505 166.098 -73.302 Q 166.301 -73.099 166.637 -72.959 Q 166.973 -72.819 167.351 -72.665 Q 167.799 -72.497 168.261 -72.28 Q 168.723 -72.063 169.038 -71.685 Q 169.353 -71.307 169.353 -70.677 Q 169.353 -69.851 168.737 -69.263 Q 168.121 -68.675 167.001 -68.675 Z " fill="black" /><path d="M 170.935 -65.707 L 170.935 -65.707 Q 170.711 -65.707 170.515 -65.749 Q 170.319 -65.791 170.151 -65.847 L 170.375 -66.743 Q 170.599 -66.645 170.879 -66.645 Q 171.453 -66.645 171.817 -67.072 Q 172.181 -67.499 172.363 -68.059 L 172.615 -68.829 L 169.969 -75.479 L 171.117 -75.479 L 172.461 -71.797 Q 172.615 -71.377 172.776 -70.887 Q 172.937 -70.397 173.105 -69.935 L 173.161 -69.935 Q 173.301 -70.383 173.434 -70.873 Q 173.567 -71.363 173.707 -71.797 L 174.883 -75.479 L 175.975 -75.479 L 173.399 -68.017 Q 173.175 -67.359 172.846 -66.834 Q 172.517 -66.309 172.055 -66.008 Q 171.593 -65.707 170.935 -65.707 Z " fill="black" /><path d="M 184.277 -68.675 L 184.277 -68.675 Q 183.115 -68.675 182.184 -69.242 Q 181.253 -69.809 180.721 -70.873 Q 180.189 -71.937 180.189 -73.407 Q 180.189 -74.905 180.735 -75.976 Q 181.281 -77.047 182.212 -77.621 Q 183.143 -78.195 184.291 -78.195 Q 185.271 -78.195 185.901 -77.838 Q 186.531 -77.481 186.923 -77.061 L 186.265 -76.291 Q 185.453 -77.159 184.333 -77.159 Q 183.479 -77.159 182.821 -76.711 Q 182.163 -76.263 181.792 -75.43 Q 181.421 -74.597 181.421 -73.435 Q 181.421 -72.301 181.778 -71.468 Q 182.135 -70.635 182.786 -70.18 Q 183.437 -69.725 184.319 -69.725 Q 184.991 -69.725 185.523 -69.998 Q 186.055 -70.271 186.503 -70.747 L 187.147 -70.005 Q 186.587 -69.375 185.887 -69.025 Q 185.187 -68.675 184.277 -68.675 Z " fill="black" /><path d="M 188.715 -68.843 L 188.715 -68.843 L 188.715 -75.479 L 189.835 -75.479 L 189.835 -68.843 Z M 189.289 -76.837 L 189.289 -76.837 Q 188.967 -76.837 188.743 -77.047 Q 188.519 -77.257 188.519 -77.565 Q 188.519 -77.887 188.743 -78.09 Q 188.967 -78.293 189.289 -78.293 Q 189.611 -78.293 189.835 -78.09 Q 190.059 -77.887 190.059 -77.565 Q 190.059 -77.257 189.835 -77.047 Q 189.611 -76.837 189.289 -76.837 Z " fill="black" /><path d="M 192.061 -68.843 L 192.061 -68.843 L 192.061 -75.479 L 192.985 -75.479 L 193.083 -74.261 L 193.125 -74.261 Q 193.489 -74.919 193.965 -75.276 Q 194.441 -75.633 195.057 -75.633 Q 195.211 -75.633 195.379 -75.605 Q 195.547 -75.577 195.701 -75.507 L 195.491 -74.513 Q 195.309 -74.569 195.183 -74.597 Q 195.057 -74.625 194.903 -74.625 Q 194.441 -74.625 193.979 -74.289 Q 193.517 -73.953 193.181 -73.099 L 193.181 -68.843 Z " fill="black" /><path d="M 199.327 -68.675 L 199.327 -68.675 Q 198.473 -68.675 197.78 -69.095 Q 197.087 -69.515 196.681 -70.292 Q 196.275 -71.069 196.275 -72.133 Q 196.275 -73.253 196.716 -74.037 Q 197.157 -74.821 197.878 -75.227 Q 198.599 -75.633 199.439 -75.633 Q 200.139 -75.633 200.594 -75.395 Q 201.049 -75.157 201.385 -74.863 L 200.811 -74.121 Q 200.517 -74.387 200.202 -74.541 Q 199.887 -74.695 199.481 -74.695 Q 198.893 -74.695 198.431 -74.373 Q 197.969 -74.051 197.703 -73.484 Q 197.437 -72.917 197.437 -72.147 Q 197.437 -71.013 198.004 -70.313 Q 198.571 -69.613 199.453 -69.613 Q 199.943 -69.613 200.328 -69.809 Q 200.713 -70.005 201.021 -70.271 L 201.511 -69.515 Q 201.063 -69.123 200.517 -68.899 Q 199.971 -68.675 199.327 -68.675 Z " fill="black" /><path d="M 204.843 -68.675 L 204.843 -68.675 Q 203.835 -68.675 203.345 -69.347 Q 202.855 -70.019 202.855 -71.265 L 202.855 -75.479 L 203.975 -75.479 L 203.975 -71.419 Q 203.975 -70.509 204.269 -70.082 Q 204.563 -69.655 205.207 -69.655 Q 205.725 -69.655 206.117 -69.921 Q 206.509 -70.187 206.985 -70.775 L 206.985 -75.479 L 208.105 -75.479 L 208.105 -68.843 L 207.167 -68.843 L 207.083 -69.879 L 207.041 -69.879 Q 206.551 -69.305 206.04 -68.99 Q 205.529 -68.675 204.843 -68.675 Z " fill="black" /><path d="M 210.317 -68.843 L 210.317 -68.843 L 210.317 -75.479 L 211.437 -75.479 L 211.437 -68.843 Z M 210.891 -76.837 L 210.891 -76.837 Q 210.569 -76.837 210.345 -77.047 Q 210.121 -77.257 210.121 -77.565 Q 210.121 -77.887 210.345 -78.09 Q 210.569 -78.293 210.891 -78.293 Q 211.213 -78.293 211.437 -78.09 Q 211.661 -77.887 211.661 -77.565 Q 211.661 -77.257 211.437 -77.047 Q 211.213 -76.837 210.891 -76.837 Z " fill="black" /><path d="M 215.693 -68.675 L 215.693 -68.675 Q 214.713 -68.675 214.286 -69.291 Q 213.859 -69.907 213.859 -70.901 L 213.859 -74.485 L 212.893 -74.485 L 212.893 -75.325 L 213.915 -75.395 L 214.055 -77.341 L 214.979 -77.341 L 214.979 -75.395 L 216.757 -75.395 L 216.757 -74.485 L 214.979 -74.485 L 214.979 -70.873 Q 214.979 -70.285 215.203 -69.942 Q 215.427 -69.599 215.959 -69.599 Q 216.183 -69.599 216.386 -69.655 Q 216.589 -69.711 216.743 -69.781 L 216.967 -68.927 Q 216.687 -68.829 216.372 -68.752 Q 216.057 -68.675 215.693 -68.675 Z " fill="black" /></g></g></g><g><g><g><path d="M 271.202 -40.196 L 271.202 -40.196 Q 271.202 -39.454 270.922 -38.95 Q 270.642 -38.446 270.194 -38.124 Q 269.746 -37.802 269.235 -37.627 Q 268.724 -37.452 268.262 -37.368 L 268.262 -37.298 Q 268.514 -37.13 268.738 -36.787 Q 268.962 -36.444 269.291 -35.8 Q 269.62 -35.156 270.194 -34.064 Q 270.432 -33.644 270.719 -33.497 Q 271.006 -33.35 271.482 -33.35 L 271.398 -32.93 L 269.27 -32.93 Q 268.878 -33.798 268.612 -34.379 Q 268.346 -34.96 268.15 -35.352 Q 267.954 -35.744 267.807 -36.052 Q 267.66 -36.36 267.492 -36.682 Q 267.338 -36.976 267.156 -37.067 Q 266.974 -37.158 266.596 -37.158 L 266.302 -37.158 L 265.784 -34.666 Q 265.672 -34.092 265.707 -33.805 Q 265.742 -33.518 266.022 -33.434 Q 266.302 -33.35 266.904 -33.35 L 266.834 -32.93 L 262.97 -32.93 L 263.054 -33.35 Q 263.572 -33.35 263.852 -33.434 Q 264.132 -33.518 264.279 -33.798 Q 264.426 -34.078 264.538 -34.666 L 265.77 -40.672 Q 265.854 -41.064 265.812 -41.288 Q 265.77 -41.512 265.525 -41.61 Q 265.28 -41.708 264.72 -41.708 L 264.804 -42.128 L 268.094 -42.128 Q 269.564 -42.128 270.383 -41.673 Q 271.202 -41.218 271.202 -40.196 Z M 267.184 -41.54 L 267.184 -41.54 L 266.4 -37.676 L 266.834 -37.662 Q 267.674 -37.69 268.353 -37.935 Q 269.032 -38.18 269.424 -38.712 Q 269.816 -39.244 269.816 -40.14 Q 269.816 -40.518 269.655 -40.847 Q 269.494 -41.176 269.102 -41.379 Q 268.71 -41.582 268.01 -41.582 Q 267.744 -41.582 267.583 -41.575 Q 267.422 -41.568 267.184 -41.54 Z " fill="black" /><path d="M 275.075 -30.352 L 275.075 -30.352 L 275.075 -29.99 L 272.596 -29.99 L 272.596 -30.352 Q 272.939 -30.352 273.091 -30.421 Q 273.243 -30.49 273.282 -30.651 Q 273.321 -30.813 273.321 -31.087 L 273.321 -36.262 Q 273.321 -36.575 273.209 -36.644 Q 273.096 -36.713 272.861 -36.713 Q 272.733 -36.713 272.65 -36.698 Q 272.567 -36.683 272.567 -36.683 L 272.567 -37.056 L 273.899 -37.31 L 274.282 -37.31 L 274.282 -31.087 Q 274.282 -30.803 274.326 -30.641 Q 274.37 -30.48 274.541 -30.416 Q 274.713 -30.352 275.075 -30.352 Z " fill="black" /><path d="M 278.505 -35.135 L 278.505 -35.135 Q 279.24 -35.135 279.789 -34.816 Q 280.338 -34.498 280.637 -33.924 Q 280.936 -33.351 280.936 -32.577 Q 280.936 -31.646 280.622 -31.048 Q 280.309 -30.45 279.76 -30.161 Q 279.211 -29.872 278.505 -29.872 Q 277.79 -29.872 277.236 -30.171 Q 276.683 -30.47 276.374 -31.068 Q 276.065 -31.666 276.065 -32.567 Q 276.065 -33.332 276.369 -33.91 Q 276.673 -34.488 277.222 -34.811 Q 277.77 -35.135 278.505 -35.135 Z M 278.486 -34.684 L 278.486 -34.684 Q 277.839 -34.684 277.472 -34.16 Q 277.104 -33.635 277.104 -32.626 Q 277.104 -31.381 277.481 -30.867 Q 277.859 -30.352 278.535 -30.352 Q 278.966 -30.362 279.27 -30.568 Q 279.574 -30.774 279.735 -31.259 Q 279.897 -31.744 279.897 -32.577 Q 279.897 -33.577 279.554 -34.13 Q 279.211 -34.684 278.486 -34.684 Z " fill="black" /><path d="M 285.052 -30.607 L 285.052 -30.607 L 284.983 -30.607 Q 284.65 -30.333 284.248 -30.127 Q 283.846 -29.921 283.376 -29.921 Q 282.759 -29.921 282.43 -30.294 Q 282.102 -30.666 282.102 -31.195 Q 282.102 -31.646 282.313 -31.95 Q 282.523 -32.254 282.861 -32.445 Q 283.2 -32.636 283.592 -32.753 Q 283.984 -32.871 284.346 -32.94 Q 284.709 -33.008 284.954 -33.067 L 284.954 -33.577 Q 284.954 -34.233 284.694 -34.483 Q 284.434 -34.733 283.935 -34.733 Q 283.631 -34.733 283.498 -34.655 Q 283.366 -34.576 283.332 -34.4 Q 283.298 -34.223 283.288 -33.939 Q 283.278 -33.724 283.16 -33.591 Q 283.043 -33.459 282.817 -33.459 Q 282.602 -33.459 282.45 -33.591 Q 282.298 -33.724 282.298 -33.978 Q 282.298 -34.282 282.533 -34.547 Q 282.768 -34.811 283.204 -34.973 Q 283.641 -35.135 284.229 -35.135 Q 285.111 -35.135 285.507 -34.728 Q 285.904 -34.321 285.904 -33.508 L 285.904 -31.107 Q 285.904 -30.784 285.978 -30.691 Q 286.051 -30.597 286.208 -30.597 Q 286.375 -30.597 286.497 -30.666 Q 286.62 -30.735 286.728 -30.862 L 286.943 -30.656 Q 286.434 -29.931 285.748 -29.931 Q 285.365 -29.931 285.223 -30.112 Q 285.081 -30.294 285.052 -30.607 Z M 284.954 -30.97 L 284.954 -30.97 L 284.954 -32.695 Q 284.503 -32.577 284.072 -32.435 Q 283.641 -32.293 283.361 -32.048 Q 283.082 -31.803 283.082 -31.362 Q 283.082 -30.98 283.303 -30.759 Q 283.523 -30.539 283.866 -30.539 Q 284.072 -30.539 284.361 -30.632 Q 284.65 -30.725 284.954 -30.97 Z " fill="black" /><path d="M 292.823 -30.117 L 292.823 -30.117 L 291.5 -29.941 L 291.147 -29.941 L 291.147 -30.627 L 291.079 -30.627 Q 290.755 -30.352 290.349 -30.127 Q 289.942 -29.902 289.432 -29.902 Q 288.854 -29.902 288.447 -30.215 Q 288.041 -30.529 287.825 -31.078 Q 287.61 -31.626 287.61 -32.322 Q 287.61 -33.194 287.948 -33.826 Q 288.286 -34.459 288.849 -34.797 Q 289.413 -35.135 290.079 -35.135 Q 290.657 -35.135 291.128 -34.87 L 291.128 -36.134 Q 291.128 -36.487 291.054 -36.6 Q 290.981 -36.713 290.667 -36.713 Q 290.599 -36.713 290.486 -36.698 Q 290.373 -36.683 290.373 -36.683 L 290.373 -37.056 L 291.677 -37.31 L 292.078 -37.31 L 292.078 -31.097 Q 292.078 -30.715 292.186 -30.602 Q 292.294 -30.49 292.559 -30.49 L 292.823 -30.49 Z M 291.128 -31.078 L 291.128 -31.078 L 291.128 -33.939 Q 291.02 -34.214 290.77 -34.429 Q 290.52 -34.645 290.06 -34.645 Q 289.403 -34.645 288.982 -34.199 Q 288.56 -33.753 288.56 -32.724 Q 288.56 -31.675 288.928 -31.19 Q 289.295 -30.705 289.962 -30.705 Q 290.275 -30.705 290.535 -30.793 Q 290.795 -30.882 291.128 -31.078 Z " fill="black" /></g></g></g><circle cx="90.0" cy="-72.0" r="2.6999999999999997" style="stroke:black;fill:white;stroke-width:2.0;stroke-dasharray:-;" /><circle cx="270.0" cy="-72.0" r="2.6999999999999997" style="stroke:black;fill:white;stroke-width:2.0;stroke-dasharray:-;" /></svg>