<svg xmlns="http://www.w3.org/2000/svg" xmlns:xlink="http://www.w3.org/1999/xlink" xml:lang="en" height="411.44pt" width="290.4208pt" viewBox="-145.21040000000002 -33.4 290.4208 411.44"><path d="M 0.0,-0.0 L 0,-14.4" style="stroke:black;fill:none;stroke-width:2.0;stroke-dasharray:-;stroke-linecap:round;stroke-linejoin:round;" /><path d="M 0.0,-14.4 L -6.75,-14.4" style="stroke:black;fill:none;stroke-width:2.0;stroke-dasharray:-;stroke-linecap:round;stroke-linejoin:round;" /><path d="M 0.0,-14.4 L 6.75,-14.4" style="stroke:black;fill:none;stroke-width:2.0;stroke-dasharray:-;stroke-linecap:round;stroke-linejoin:round;" /><path d="M 0.0,-0.0 L -54,-0 L -108,-0" style="stroke:black;fill:none;stroke-width:2.0;stroke-dasharray:-;stroke-linecap:round;stroke-linejoin:round;" /><path d="M -108.0,-1.3226185430791413e-14 L -108,9 L -108,18" style="stroke:black;fill:none;stroke-width:2.0;stroke-dasharray:-;stroke-linecap:round;stroke-linejoin:round;" /><path d="M -108.0,17.999999999999986 L -108,33 L -93,33 L -93,63 L -108,63 L -108,78" style="stroke:black;fill:none;stroke-width:2.0;stroke-dasharray:-;stroke-linecap:round;stroke-linejoin:round;" /><path d="M -108.0,32.999999999999986 L -102,33" style="stroke:black;fill:none;stroke-width:2.0;stroke-dasharray:-;stroke-linecap:round;stroke-linejoin:round;" /><path d="M -95 33 L -102 37.5 L -102 28.5 Z" style="stroke:black;fill:black;stroke-linecap:butt;stroke-linejoin:miter;" /><path d="M -90.0,35.999999999999986 L -90,60" style="stroke:black;fill:none;stroke-width:2.0;stroke-dasharray:-;stroke-linecap:round;stroke-linejoin:round;" /><path d="M -90.0,47.99999999999998 L -75,48" style="stroke:black;fill:none;stroke-width:2.0;stroke-dasharray:-;stroke-linecap:round;stroke-linejoin:round;" /><path d="M 0.0,-0.0 L 54,-0 L 108,-0" style="stroke:black;fill:none;stroke-width:2.0;stroke-dasharray:-;stroke-linecap:round;stroke-linejoin:round;" /><path d="M 108.0,-0.0 L 108,9 L 108,18" style="stroke:black;fill:none;stroke-width:2.0;stroke-dasharray:-;stroke-linecap:round;stroke-linejoin:round;" /><path d="M 108.0,78.0 L 108,63 L 93,63 L 93,33 L 108,33 L 108,18" style="stroke:black;fill:none;stroke-width:2.0;stroke-dasharray:-;stroke-linecap:round;stroke-linejoin:round;" /><path d="M 102.0,33.0 L 108,33" style="stroke:black;fill:none;stroke-width:2.0;stroke-dasharray:-;stroke-linecap:round;stroke-linejoin:round;" /><path d="M 95 33 L 102 28.5 L 102 37.5 Z" style="stroke:black;fill:black;stroke-linecap:butt;stroke-linejoin:miter;" /><path d="M 90.0,60.0 L 90,36" style="stroke:black;fill:none;stroke-width:2.0;stroke-dasharray:-;stroke-linecap:round;stroke-linejoin:round;" /><path d="M 75.0,48.0 L 90,48" style="stroke:black;fill:none;stroke-width:2.0;stroke-dasharray:-;stroke-linecap:round;stroke-linejoin:round;" /><path d="M -108.0,77.99999999999997 L -108,87 L -108,96" style="stroke:black;fill:none;stroke-width:2.0;stroke-dasharray:-;stroke-linecap:round;stroke-linejoin:round;" /><path d="M -108.0,95.99999999999997 L -108,114 L -108,132" style="stroke:black;fill:none;stroke-width:2.0;stroke-dasharray:-;stroke-linecap:round;stroke-linejoin:round;" /><path d="M -108.0,95.99999999999997 L -72,96 L 39,48 L 75,48" style="stroke:black;fill:none;stroke-width:2.0;stroke-dasharray:-;stroke-linecap:round;stroke-linejoin:round;" /><path d="M 108.0,78.0 L 108,87 L 108,96" style="stroke:black;fill:none;stroke-width:2.0;stroke-dasharray:-;stroke-linecap:round;stroke-linejoin:round;" /><path d="M 108.0,96.0 L 108,114 L 108,132" style="stroke:black;fill:none;stroke-width:2.0;stroke-dasharray:-;stroke-linecap:round;stroke-linejoin:round;" /><path d="M 108.0,96.0 L 72,96 L -39,48 L -75,48" style="stroke:black;fill:none;stroke-width:2.0;stroke-dasharray:-;stroke-linecap:round;stroke-linejoin:round;" /><path d="M -108.0,131.99999999999997 L -3.24,132 M -3.24,123 L -3.24,141 M 3.24,123 L 3.24,141 M 3.24,132 L 108,132" style="stroke:black;fill:none;stroke-width:2.0;stroke-dasharray:-;stroke-linecap:round;stroke-linejoin:round;" /><path d="M -15.24,140.99999999999997 L 8.862,124.129" style="stroke:black;fill:none;stroke-width:2.0;stroke-dasharray:-;stroke-linecap:round;stroke-linejoin:round;" /><path d="M 13.122 121.147 L 10.513 126.488 L 7.21 121.77 Z" style="stroke:black;fill:black;stroke-linecap:butt;stroke-linejoin:miter;" /><path d="M -108.0,131.99999999999997 L -108,168 L -108,204" style="stroke:black;fill:none;stroke-width:2.0;stroke-dasharray:-;stroke-linecap:round;stroke-linejoin:round;" /><path d="M 108.0,132.0 L 108,168 L 108,204" style="stroke:black;fill:none;stroke-width:2.0;stroke-dasharray:-;stroke-linecap:round;stroke-linejoin:round;" /><path d="M -108.00000000000001,203.99999999999997 L -18,204 L -17.933,202.338 L -17.729,200.633 L -17.386,198.93 L -16.907,197.276 L -16.296,195.716 L -15.564,194.292 L -14.724,193.044 L -13.79,192.004 L -12.781,191.202 L -11.718,190.659 L -10.621,190.39 L -9.514,190.402 L -8.42,190.696 L -7.36,191.262 L -6.357,192.086 L -5.431,193.145 L -4.599,194.41 L -3.878,195.848 L -3.278,197.418 L -2.811,199.078 L -2.48,200.783 L -2.288,202.486 L -2.233,204.142 L -2.309,205.704 L -2.506,207.131 L -2.813,208.384 L -3.213,209.429 L -3.688,210.236 L -4.219,210.785 L -4.783,211.06 L -5.358,211.054 L -5.921,210.767 L -6.45,210.206 L -6.923,209.388 L -7.319,208.334 L -7.621,207.072 L -7.814,205.639 L -7.884,204.071 L -7.823,202.412 L -7.625,200.708 L -7.288,199.004 L -6.814,197.347 L -6.209,195.782 L -5.483,194.351 L -4.646,193.094 L -3.716,192.045 L -2.711,191.232 L -1.649,190.677 L -0.553,190.396 L 0.553,190.396 L 1.649,190.677 L 2.711,191.232 L 3.716,192.045 L 4.646,193.094 L 5.483,194.351 L 6.209,195.782 L 6.814,197.347 L 7.288,199.004 L 7.625,200.708 L 7.823,202.412 L 7.884,204.071 L 7.814,205.639 L 7.621,207.072 L 7.319,208.334 L 6.923,209.388 L 6.45,210.206 L 5.921,210.767 L 5.358,211.054 L 4.783,211.06 L 4.219,210.785 L 3.688,210.236 L 3.213,209.429 L 2.813,208.384 L 2.506,207.131 L 2.309,205.704 L 2.233,204.142 L 2.288,202.486 L 2.48,200.783 L 2.811,199.078 L 3.278,197.418 L 3.878,195.848 L 4.599,194.41 L 5.431,193.145 L 6.357,192.086 L 7.36,191.262 L 8.42,190.696 L 9.514,190.402 L 10.621,190.39 L 11.718,190.659 L 12.781,191.202 L 13.79,192.004 L 14.724,193.044 L 15.564,194.292 L 16.296,195.716 L 16.907,197.276 L 17.386,198.93 L 17.729,200.633 L 17.933,202.338 L 18,204 L 108,204" style="stroke:black;fill:none;stroke-width:2.0;stroke-dasharray:-;stroke-linecap:round;stroke-linejoin:round;" /><path d="M 107.99999999999999,203.99999999999997 L 108,222 L 108,240" style="stroke:black;fill:none;stroke-width:2.0;stroke-dasharray:-;stroke-linecap:round;stroke-linejoin:round;" /><path d="M 107.99999999999999,239.99999999999997 L 108,249 L 108,258" style="stroke:black;fill:none;stroke-width:2.0;stroke-dasharray:-;stroke-linecap:round;stroke-linejoin:round;" /><path d="M 107.99999999999999,317.99999999999994 L 108,303 L 93,303 L 93,273 L 108,273 L 108,258" style="stroke:black;fill:none;stroke-width:2.0;stroke-dasharray:-;stroke-linecap:round;stroke-linejoin:round;" /><path d="M 98.99999999999999,303.0 L 93,303" style="stroke:black;fill:none;stroke-width:2.0;stroke-dasharray:-;stroke-linecap:round;stroke-linejoin:round;" /><path d="M 106 303 L 99 307.5 L 99 298.5 Z" style="stroke:black;fill:black;stroke-linecap:butt;stroke-linejoin:miter;" /><path d="M 89.99999999999999,299.99999999999994 L 90,276" style="stroke:black;fill:none;stroke-width:2.0;stroke-dasharray:-;stroke-linecap:round;stroke-linejoin:round;" /><path d="M 74.99999999999999,287.99999999999994 L 90,288" style="stroke:black;fill:none;stroke-width:2.0;stroke-dasharray:-;stroke-linecap:round;stroke-linejoin:round;" /><path d="M 107.99999999999999,317.99999999999994 L 108,327 L 108,336" style="stroke:black;fill:none;stroke-width:2.0;stroke-dasharray:-;stroke-linecap:round;stroke-linejoin:round;" /><path d="M 107.99999999999999,335.99999999999994 L 54,336 L -0,336" style="stroke:black;fill:none;stroke-width:2.0;stroke-dasharray:-;stroke-linecap:round;stroke-linejoin:round;" /><path d="M -1.5987211554602254e-14,335.99999999999994 L -0,350.4 L -9,350.4 L 9,350.4 M -6.3,354.72 L 6.3,354.72 M -1.8,359.04 L 1.8,359.04" style="stroke:black;fill:none;stroke-width:2.0;stroke-dasharray:-;stroke-linecap:round;stroke-linejoin:round;" /><path d="M -1.5987211554602254e-14,335.99999999999994 L -54,336 L -108,336" style="stroke:black;fill:none;stroke-width:2.0;stroke-dasharray:-;stroke-linecap:round;stroke-linejoin:round;" /><path d="M -108.00000000000001,335.99999999999994 L -108,327 L -108,318" style="stroke:black;fill:none;stroke-width:2.0;stroke-dasharray:-;stroke-linecap:round;stroke-linejoin:round;" /><path d="M -108.00000000000001,258.0 L -108,273 L -93,273 L -93,303 L -108,303 L -108,318" style="stroke:black;fill:none;stroke-width:2.0;stroke-dasharray:-;stroke-linecap:round;stroke-linejoin:round;" /><path d="M -93.00000000000003,303.0 L -99,303" style="stroke:black;fill:none;stroke-width:2.0;stroke-dasharray:-;stroke-linecap:round;stroke-linejoin:round;" /><path d="M -106 303 L -99 298.5 L -99 307.5 Z" style="stroke:black;fill:black;stroke-linecap:butt;stroke-linejoin:miter;" /><path d="M -90.00000000000001,276.0 L -90,300" style="stroke:black;fill:none;stroke-width:2.0;stroke-dasharray:-;stroke-linecap:round;stroke-linejoin:round;" /><path d="M -90.00000000000001,287.99999999999994 L -75,288" style="stroke:black;fill:none;stroke-width:2.0;stroke-dasharray:-;stroke-linecap:round;stroke-linejoin:round;" /><path d="M -108.00000000000001,258.0 L -108,249 L -108,240" style="stroke:black;fill:none;stroke-width:2.0;stroke-dasharray:-;stroke-linecap:round;stroke-linejoin:round;" /><path d="M -108.00000000000001,239.99999999999997 L -72,240 L 39,288 L 75,288" style="stroke:black;fill:none;stroke-width:2.0;stroke-dasharray:-;stroke-linecap:round;stroke-linejoin:round;" /><path d="M -108.00000000000001,239.99999999999997 L -108,222 L -108,204" style="stroke:black;fill:none;stroke-width:2.0;stroke-dasharray:-;stroke-linecap:round;stroke-linejoin:round;" /><path d="M 107.99999999999999,239.99999999999997 L 72,240 L -39,288 L -75,288" style="stroke:black;fill:none;stroke-width:2.0;stroke-dasharray:-;stroke-linecap:round;stroke-linejoin:round;" /><circle cx="0" cy="-0" r="2.7" style="stroke:black;fill:black;stroke-width:2.0;stroke-dasharray:-;" /><g><g><g><path d="M -118.702 51.129 L -118.702 51.129 L -122.44 51.129 L -122.356 50.709 Q -121.838 50.709 -121.565 50.611 Q -121.292 50.513 -121.152 50.24 Q -121.012 49.967 -120.914 49.463 L -119.668 43.415 L -119.724 43.415 L -124.428 51.129 L -124.736 51.129 L -126.43 43.429 L -126.486 43.429 L -127.648 49.085 Q -127.788 49.799 -127.767 50.149 Q -127.746 50.499 -127.494 50.604 Q -127.242 50.709 -126.71 50.709 L -126.794 51.129 L -130.028 51.129 L -129.944 50.709 Q -129.398 50.709 -129.104 50.604 Q -128.81 50.499 -128.642 50.149 Q -128.474 49.799 -128.334 49.085 L -127.228 43.639 Q -127.116 43.107 -127.158 42.834 Q -127.2 42.561 -127.459 42.456 Q -127.718 42.351 -128.278 42.351 L -128.194 41.931 L -125.394 41.931 L -123.882 49.015 L -123.826 49.015 L -119.556 41.931 L -116.91 41.931 L -116.994 42.351 Q -117.484 42.351 -117.771 42.456 Q -118.058 42.561 -118.212 42.834 Q -118.366 43.107 -118.478 43.625 L -119.668 49.463 Q -119.822 50.233 -119.591 50.471 Q -119.36 50.709 -118.618 50.709 Z " fill="black" /><path d="M -112.677 54.069 L -112.677 54.069 L -115.999 54.069 L -115.999 53.716 Q -115.293 53.716 -115.063 53.574 Q -114.833 53.432 -114.833 53.06 L -114.833 48.787 Q -114.833 48.522 -114.911 48.405 Q -114.989 48.287 -115.195 48.287 Q -115.352 48.287 -115.621 48.331 Q -115.891 48.375 -116.087 48.424 L -116.087 48.032 L -114.274 47.532 L -113.853 47.532 L -113.853 53.06 Q -113.853 53.432 -113.603 53.574 Q -113.353 53.716 -112.677 53.716 Z " fill="black" /></g></g></g><g><g><g><path d="M 122.926 51.129 L 122.926 51.129 L 119.188 51.129 L 119.272 50.709 Q 119.79 50.709 120.063 50.611 Q 120.336 50.513 120.476 50.24 Q 120.616 49.967 120.714 49.463 L 121.96 43.415 L 121.904 43.415 L 117.2 51.129 L 116.892 51.129 L 115.198 43.429 L 115.142 43.429 L 113.98 49.085 Q 113.84 49.799 113.861 50.149 Q 113.882 50.499 114.134 50.604 Q 114.386 50.709 114.918 50.709 L 114.834 51.129 L 111.6 51.129 L 111.684 50.709 Q 112.23 50.709 112.524 50.604 Q 112.818 50.499 112.986 50.149 Q 113.154 49.799 113.294 49.085 L 114.4 43.639 Q 114.512 43.107 114.47 42.834 Q 114.428 42.561 114.169 42.456 Q 113.91 42.351 113.35 42.351 L 113.434 41.931 L 116.234 41.931 L 117.746 49.015 L 117.802 49.015 L 122.072 41.931 L 124.718 41.931 L 124.634 42.351 Q 124.144 42.351 123.857 42.456 Q 123.57 42.561 123.416 42.834 Q 123.262 43.107 123.15 43.625 L 121.96 49.463 Q 121.806 50.233 122.037 50.471 Q 122.268 50.709 123.01 50.709 Z " fill="black" /><path d="M 129.51 52.364 L 129.51 52.364 L 129.177 54.069 L 125.159 54.069 L 125.159 53.589 L 126.551 52.178 Q 127.099 51.629 127.457 51.207 Q 127.815 50.786 127.991 50.36 Q 128.168 49.933 128.168 49.385 Q 128.168 48.865 127.849 48.527 Q 127.531 48.189 126.952 48.189 Q 126.423 48.189 126.066 48.4 Q 125.708 48.61 125.433 49.091 L 125.169 48.963 Q 125.414 48.277 125.928 47.885 Q 126.443 47.493 127.197 47.493 Q 127.785 47.493 128.236 47.704 Q 128.687 47.915 128.942 48.307 Q 129.197 48.699 129.197 49.257 Q 129.197 49.737 128.981 50.159 Q 128.765 50.58 128.369 51.021 Q 127.972 51.462 127.423 52.001 L 126.198 53.187 L 126.198 53.256 L 126.962 53.216 L 128.236 53.216 Q 128.52 53.216 128.672 53.138 Q 128.824 53.06 128.932 52.868 Q 129.04 52.677 129.167 52.364 Z " fill="black" /></g></g></g><circle cx="-108" cy="96" r="2.7" style="stroke:black;fill:black;stroke-width:2.0;stroke-dasharray:-;" /><circle cx="-108" cy="132" r="2.7" style="stroke:black;fill:black;stroke-width:2.0;stroke-dasharray:-;" /><circle cx="108" cy="96" r="2.7" style="stroke:black;fill:black;stroke-width:2.0;stroke-dasharray:-;" /><circle cx="108" cy="132" r="2.7" style="stroke:black;fill:black;stroke-width:2.0;stroke-dasharray:-;" /><g><g><g><path d="M 3.64 157.71 L 3.64 157.71 L 3.892 157.976 Q 3.178 158.816 2.24 159.355 Q 1.302 159.894 -0.028 159.894 Q -1.288 159.894 -2.044 159.425 Q -2.8 158.956 -3.129 158.172 Q -3.458 157.388 -3.458 156.464 Q -3.458 154.994 -3.01 153.853 Q -2.562 152.712 -1.785 151.935 Q -1.008 151.158 -0.028 150.759 Q 0.952 150.36 2.016 150.36 Q 2.73 150.36 3.129 150.486 Q 3.528 150.612 3.752 150.745 Q 3.976 150.878 4.144 150.878 Q 4.312 150.878 4.438 150.738 Q 4.564 150.598 4.732 150.374 L 5.138 150.374 L 4.48 153.58 L 4.018 153.58 Q 4.074 152.18 3.5 151.571 Q 2.926 150.962 1.89 150.962 Q 1.078 150.962 0.364 151.333 Q -0.35 151.704 -0.903 152.383 Q -1.456 153.062 -1.771 154.007 Q -2.086 154.952 -2.086 156.114 Q -2.086 157.514 -1.421 158.249 Q -0.756 158.984 0.63 158.984 Q 2.24 158.984 3.64 157.71 Z " fill="black" /></g></g></g><circle cx="-108" cy="204" r="2.7" style="stroke:black;fill:black;stroke-width:2.0;stroke-dasharray:-;" /><circle cx="108" cy="204" r="2.7" style="stroke:black;fill:black;stroke-width:2.0;stroke-dasharray:-;" /><g><g><g><path d="M 3.591 184.06 L 3.591 184.06 L 2.751 186.79 L -4.165 186.79 L -4.081 186.37 Q -3.535 186.37 -3.248 186.272 Q -2.961 186.174 -2.807 185.894 Q -2.653 185.614 -2.541 185.054 L -1.337 179.216 Q -1.239 178.754 -1.267 178.488 Q -1.295 178.222 -1.554 178.117 Q -1.813 178.012 -2.415 178.012 L -2.331 177.592 L 1.645 177.592 L 1.575 178.012 Q 0.819 178.012 0.441 178.243 Q 0.063 178.474 -0.091 179.23 L -1.365 185.502 Q -1.463 185.964 -1.267 186.111 Q -1.071 186.258 -0.455 186.258 L 0.203 186.258 Q 0.875 186.258 1.295 186.139 Q 1.715 186.02 2.009 185.768 Q 2.303 185.516 2.562 185.089 Q 2.821 184.662 3.143 184.06 Z " fill="black" /></g></g></g><circle cx="108" cy="240" r="2.7" style="stroke:black;fill:black;stroke-width:2.0;stroke-dasharray:-;" /><g><g><g><path d="M 122.926 291.129 L 122.926 291.129 L 119.188 291.129 L 119.272 290.709 Q 119.79 290.709 120.063 290.611 Q 120.336 290.513 120.476 290.24 Q 120.616 289.967 120.714 289.463 L 121.96 283.415 L 121.904 283.415 L 117.2 291.129 L 116.892 291.129 L 115.198 283.429 L 115.142 283.429 L 113.98 289.085 Q 113.84 289.799 113.861 290.149 Q 113.882 290.499 114.134 290.604 Q 114.386 290.709 114.918 290.709 L 114.834 291.129 L 111.6 291.129 L 111.684 290.709 Q 112.23 290.709 112.524 290.604 Q 112.818 290.499 112.986 290.149 Q 113.154 289.799 113.294 289.085 L 114.4 283.639 Q 114.512 283.107 114.47 282.834 Q 114.428 282.561 114.169 282.456 Q 113.91 282.351 113.35 282.351 L 113.434 281.931 L 116.234 281.931 L 117.746 289.015 L 117.802 289.015 L 122.072 281.931 L 124.718 281.931 L 124.634 282.351 Q 124.144 282.351 123.857 282.456 Q 123.57 282.561 123.416 282.834 Q 123.262 283.107 123.15 283.625 L 121.96 289.463 Q 121.806 290.233 122.037 290.471 Q 122.268 290.709 123.01 290.709 Z " fill="black" /><path d="M 129.981 292.521 L 129.981 292.521 L 128.912 292.521 L 128.912 294.069 L 127.942 294.069 L 127.942 292.521 L 125.061 292.521 L 125.061 291.776 L 128.207 287.503 L 128.912 287.503 L 128.912 291.717 L 129.981 291.717 Z M 127.942 291.717 L 127.942 291.717 L 127.942 288.689 L 127.883 288.689 L 125.727 291.658 L 125.727 291.717 Z " fill="black" /></g></g></g><circle cx="-0" cy="336" r="2.7" style="stroke:black;fill:black;stroke-width:2.0;stroke-dasharray:-;" /><g><g><g><path d="M -118.849 291.065 L -118.849 291.065 L -122.587 291.065 L -122.503 290.645 Q -121.985 290.645 -121.712 290.547 Q -121.439 290.449 -121.299 290.176 Q -121.159 289.903 -121.061 289.399 L -119.815 283.351 L -119.871 283.351 L -124.575 291.065 L -124.883 291.065 L -126.577 283.365 L -126.633 283.365 L -127.795 289.021 Q -127.935 289.735 -127.914 290.085 Q -127.893 290.435 -127.641 290.54 Q -127.389 290.645 -126.857 290.645 L -126.941 291.065 L -130.175 291.065 L -130.091 290.645 Q -129.545 290.645 -129.251 290.54 Q -128.957 290.435 -128.789 290.085 Q -128.621 289.735 -128.481 289.021 L -127.375 283.575 Q -127.263 283.043 -127.305 282.77 Q -127.347 282.497 -127.606 282.392 Q -127.865 282.287 -128.425 282.287 L -128.341 281.867 L -125.541 281.867 L -124.029 288.951 L -123.973 288.951 L -119.703 281.867 L -117.057 281.867 L -117.141 282.287 Q -117.631 282.287 -117.918 282.392 Q -118.205 282.497 -118.359 282.77 Q -118.513 283.043 -118.625 283.561 L -119.815 289.399 Q -119.969 290.169 -119.738 290.407 Q -119.507 290.645 -118.765 290.645 Z " fill="black" /><path d="M -116.234 288.909 L -116.234 288.909 L -116.518 288.772 Q -116.224 288.106 -115.739 287.768 Q -115.254 287.429 -114.646 287.429 Q -113.862 287.429 -113.382 287.812 Q -112.902 288.194 -112.902 288.801 Q -112.902 289.331 -113.225 289.654 Q -113.549 289.977 -114.029 290.291 L -114.029 290.34 Q -113.617 290.448 -113.27 290.663 Q -112.922 290.879 -112.716 291.217 Q -112.51 291.555 -112.51 292.035 Q -112.51 292.574 -112.745 292.971 Q -112.98 293.368 -113.382 293.628 Q -113.784 293.888 -114.299 294.01 Q -114.813 294.133 -115.372 294.133 Q -115.852 294.133 -116.102 294.049 Q -116.352 293.966 -116.445 293.829 Q -116.538 293.692 -116.538 293.554 Q -116.538 293.388 -116.44 293.226 Q -116.342 293.064 -116.107 293.064 Q -116.009 293.064 -115.906 293.118 Q -115.803 293.172 -115.528 293.329 Q -115.303 293.437 -115.171 293.496 Q -115.038 293.554 -114.936 293.574 Q -114.833 293.594 -114.695 293.594 Q -114.401 293.594 -114.112 293.486 Q -113.823 293.378 -113.627 293.099 Q -113.431 292.819 -113.431 292.31 Q -113.431 291.859 -113.681 291.536 Q -113.931 291.212 -114.352 291.031 Q -114.774 290.85 -115.283 290.85 L -115.499 290.85 L -115.499 290.389 L -115.293 290.389 Q -114.94 290.389 -114.607 290.227 Q -114.274 290.066 -114.058 289.767 Q -113.843 289.468 -113.843 289.056 Q -113.843 288.596 -114.142 288.36 Q -114.441 288.125 -114.901 288.125 Q -115.754 288.125 -116.234 288.909 Z " fill="black" /></g></g></g><circle cx="-108" cy="240" r="2.7" style="stroke:black;fill:black;stroke-width:2.0;stroke-dasharray:-;" /></svg>