<svg xmlns="http://www.w3.org/2000/svg" xmlns:xlink="http://www.w3.org/1999/xlink" xml:lang="en" height="227.14pt" width="290.59999999999997pt" viewBox="-7.3 -26.719999999999995 290.59999999999997 227.14"><circle cx="138.0" cy="58.8" r="4.32" style="stroke:black;fill:none;stroke-width:2.0;stroke-dasharray:-;" /><circle cx="138.0" cy="132.29999999999998" r="4.32" style="stroke:black;fill:none;stroke-width:2.0;stroke-dasharray:-;" /><path d="M 0.0,-0.0 L 32.76,-0.0 M 32.76,-9.0 L 32.76,9.0 M 39.24,-9.0 L 39.24,9.0 M 39.24,-0.0 L 72.0,-0.0" style="stroke:black;fill:none;stroke-width:2.0;stroke-dasharray:-;stroke-linecap:round;stroke-linejoin:round;" /><path d="M 72.0,-0.0 L 90.0,-0.0 L 108.0,-0.0" style="stroke:black;fill:none;stroke-width:2.0;stroke-dasharray:-;stroke-linecap:round;stroke-linejoin:round;" /><path d="M 167.99999999999997,1.1021821192326178e-14 L 153.0,8.266365894244634e-15 L 153.0,15.000000000000007 L 123.0,15.0 L 123.0,2.7554552980815436e-15 L 108.0,-0.0" style="stroke:black;fill:none;stroke-width:2.0;stroke-dasharray:-;stroke-linecap:round;stroke-linejoin:round;" /><path d="M 149.99999999999997,18.000000000000004 L 125.99999999999999,18.0" style="stroke:black;fill:none;stroke-width:2.0;stroke-dasharray:-;stroke-linecap:round;stroke-linejoin:round;" /><path d="M 138.0,18.000000000000004 L 138.0,33.0" style="stroke:black;fill:none;stroke-width:2.0;stroke-dasharray:-;stroke-linecap:round;stroke-linejoin:round;" /><path d="M 167.99999999999997,1.1021821192326178e-14 L 185.99999999999997,1.1021821192326178e-14 L 203.99999999999997,1.1021821192326178e-14" style="stroke:black;fill:none;stroke-width:2.0;stroke-dasharray:-;stroke-linecap:round;stroke-linejoin:round;" /><path d="M 203.99999999999997,1.1021821192326178e-14 L 236.76,1.1021821192326178e-14 M 236.76,-8.99999999999999 L 236.76,9.000000000000012 M 243.23999999999998,-8.99999999999999 L 243.23999999999998,9.000000000000012 M 243.23999999999998,1.1021821192326178e-14 L 276.0,1.1021821192326178e-14" style="stroke:black;fill:none;stroke-width:2.0;stroke-dasharray:-;stroke-linecap:round;stroke-linejoin:round;" /><path d="M 72.0,-0.0 L 71.99999999999999,36.0 L 81.0,39.0 L 62.99999999999999,45.0 L 80.99999999999999,50.99999999999999 L 62.99999999999999,57.0 L 80.99999999999999,63.0 L 62.999999999999986,69.0 L 71.99999999999999,72.0 L 71.99999999999999,108.0" style="stroke:black;fill:none;stroke-width:2.0;stroke-dasharray:-;stroke-linecap:round;stroke-linejoin:round;" /><path d="M 203.99999999999997,1.1021821192326178e-14 L 203.99999999999997,36.00000000000001 L 212.99999999999997,39.00000000000001 L 194.99999999999997,45.00000000000001 L 212.99999999999997,51.0 L 194.99999999999997,57.00000000000001 L 212.99999999999997,63.00000000000001 L 194.99999999999997,69.0 L 203.99999999999997,72.00000000000001 L 203.99999999999994,108.00000000000001" style="stroke:black;fill:none;stroke-width:2.0;stroke-dasharray:-;stroke-linecap:round;stroke-linejoin:round;" /><path d="M 71.99999999999999,108.0 L 104.99999999999997,108.0 L 138.0,108.0" style="stroke:black;fill:none;stroke-width:2.0;stroke-dasharray:-;stroke-linecap:round;stroke-linejoin:round;" /><path d="M 138.0,108.0 L 138.0,86.52 M 138.0,54.48 L 138.0,32.99999999999999" style="stroke:black;fill:none;stroke-width:2.0;stroke-dasharray:-;stroke-linecap:round;stroke-linejoin:round;" /><path d="M 119.99999999999999,86.52 L 138.0,63.120000000000005 L 156.0,86.52 L 119.99999999999999,86.52" style="stroke:black;fill:none;stroke-width:2.0;stroke-dasharray:-;stroke-linecap:round;stroke-linejoin:round;" /><path d="M 138.0,108.0 L 170.99999999999997,108.0 L 203.99999999999994,108.00000000000001" style="stroke:black;fill:none;stroke-width:2.0;stroke-dasharray:-;stroke-linecap:round;stroke-linejoin:round;" /><path d="M 138.0,108.0 L 138.0,127.97999999999999 M 137.99999999999997,160.02 L 137.99999999999997,180.0" style="stroke:black;fill:none;stroke-width:2.0;stroke-dasharray:-;stroke-linecap:round;stroke-linejoin:round;" /><path d="M 156.0,160.02 L 119.99999999999999,160.02 L 138.0,136.62 L 156.0,160.02" style="stroke:black;fill:none;stroke-width:2.0;stroke-dasharray:-;stroke-linecap:round;stroke-linejoin:round;" /><circle cx="72.0" cy="-0.0" r="2.6999999999999997" style="stroke:black;fill:black;stroke-width:2.0;stroke-dasharray:-;" /><circle cx="0.0" cy="-0.0" r="2.6999999999999997" style="stroke:black;fill:white;stroke-width:2.0;stroke-dasharray:-;" /><g><g><g><path d="M 39.64 -14.784 L 39.64 -14.784 L 39.892 -14.518 Q 39.178 -13.678 38.24 -13.139 Q 37.302 -12.6 35.972 -12.6 Q 34.712 -12.6 33.956 -13.069 Q 33.2 -13.538 32.871 -14.322 Q 32.542 -15.106 32.542 -16.03 Q 32.542 -17.5 32.99 -18.641 Q 33.438 -19.782 34.215 -20.559 Q 34.992 -21.336 35.972 -21.735 Q 36.952 -22.134 38.016 -22.134 Q 38.73 -22.134 39.129 -22.008 Q 39.528 -21.882 39.752 -21.749 Q 39.976 -21.616 40.144 -21.616 Q 40.312 -21.616 40.438 -21.756 Q 40.564 -21.896 40.732 -22.12 L 41.138 -22.12 L 40.48 -18.914 L 40.018 -18.914 Q 40.074 -20.314 39.5 -20.923 Q 38.926 -21.532 37.89 -21.532 Q 37.078 -21.532 36.364 -21.161 Q 35.65 -20.79 35.097 -20.111 Q 34.544 -19.432 34.229 -18.487 Q 33.914 -17.542 33.914 -16.38 Q 33.914 -14.98 34.579 -14.245 Q 35.244 -13.51 36.63 -13.51 Q 38.24 -13.51 39.64 -14.784 Z " fill="black" /></g></g></g><g><g><g><path d="M 140.112 -6.54 L 140.112 -6.54 L 136.374 -6.54 L 136.458 -6.96 Q 136.976 -6.96 137.249 -7.058 Q 137.522 -7.156 137.662 -7.429 Q 137.802 -7.702 137.9 -8.206 L 139.146 -14.254 L 139.09 -14.254 L 134.386 -6.54 L 134.078 -6.54 L 132.384 -14.24 L 132.328 -14.24 L 131.166 -8.584 Q 131.026 -7.87 131.047 -7.52 Q 131.068 -7.17 131.32 -7.065 Q 131.572 -6.96 132.104 -6.96 L 132.02 -6.54 L 128.786 -6.54 L 128.87 -6.96 Q 129.416 -6.96 129.71 -7.065 Q 130.004 -7.17 130.172 -7.52 Q 130.34 -7.87 130.48 -8.584 L 131.586 -14.03 Q 131.698 -14.562 131.656 -14.835 Q 131.614 -15.108 131.355 -15.213 Q 131.096 -15.318 130.536 -15.318 L 130.62 -15.738 L 133.42 -15.738 L 134.932 -8.654 L 134.988 -8.654 L 139.258 -15.738 L 141.904 -15.738 L 141.82 -15.318 Q 141.33 -15.318 141.043 -15.213 Q 140.756 -15.108 140.602 -14.835 Q 140.448 -14.562 140.336 -14.044 L 139.146 -8.206 Q 138.992 -7.436 139.223 -7.198 Q 139.454 -6.96 140.196 -6.96 Z " fill="black" /><path d="M 146.137 -3.6 L 146.137 -3.6 L 142.815 -3.6 L 142.815 -3.953 Q 143.521 -3.953 143.751 -4.095 Q 143.981 -4.237 143.981 -4.609 L 143.981 -8.882 Q 143.981 -9.147 143.903 -9.264 Q 143.825 -9.382 143.619 -9.382 Q 143.462 -9.382 143.193 -9.338 Q 142.923 -9.294 142.727 -9.245 L 142.727 -9.637 L 144.54 -10.137 L 144.962 -10.137 L 144.962 -4.609 Q 144.962 -4.237 145.211 -4.095 Q 145.461 -3.953 146.137 -3.953 Z " fill="black" /></g></g></g><circle cx="276.0" cy="1.1021821192326178e-14" r="2.6999999999999997" style="stroke:black;fill:white;stroke-width:2.0;stroke-dasharray:-;" /><circle cx="203.99999999999997" cy="1.1021821192326178e-14" r="2.6999999999999997" style="stroke:black;fill:black;stroke-width:2.0;stroke-dasharray:-;" /><g><g><g><path d="M 243.64 -14.784 L 243.64 -14.784 L 243.892 -14.518 Q 243.178 -13.678 242.24 -13.139 Q 241.302 -12.6 239.972 -12.6 Q 238.712 -12.6 237.956 -13.069 Q 237.2 -13.538 236.871 -14.322 Q 236.542 -15.106 236.542 -16.03 Q 236.542 -17.5 236.99 -18.641 Q 237.438 -19.782 238.215 -20.559 Q 238.992 -21.336 239.972 -21.735 Q 240.952 -22.134 242.016 -22.134 Q 242.73 -22.134 243.129 -22.008 Q 243.528 -21.882 243.752 -21.749 Q 243.976 -21.616 244.144 -21.616 Q 244.312 -21.616 244.438 -21.756 Q 244.564 -21.896 244.732 -22.12 L 245.138 -22.12 L 244.48 -18.914 L 244.018 -18.914 Q 244.074 -20.314 243.5 -20.923 Q 242.926 -21.532 241.89 -21.532 Q 241.078 -21.532 240.364 -21.161 Q 239.65 -20.79 239.097 -20.111 Q 238.544 -19.432 238.229 -18.487 Q 237.914 -17.542 237.914 -16.38 Q 237.914 -14.98 238.579 -14.245 Q 239.244 -13.51 240.63 -13.51 Q 242.24 -13.51 243.64 -14.784 Z " fill="black" /></g></g></g><g><g><g><path d="M 38.603 49.799 L 38.603 49.799 Q 38.603 50.541 38.323 51.045 Q 38.043 51.549 37.595 51.871 Q 37.147 52.193 36.636 52.368 Q 36.125 52.543 35.663 52.627 L 35.663 52.697 Q 35.915 52.865 36.139 53.208 Q 36.363 53.551 36.692 54.195 Q 37.021 54.839 37.595 55.931 Q 37.833 56.351 38.12 56.498 Q 38.407 56.645 38.883 56.645 L 38.799 57.065 L 36.671 57.065 Q 36.279 56.197 36.013 55.616 Q 35.747 55.035 35.551 54.643 Q 35.355 54.251 35.208 53.943 Q 35.061 53.635 34.893 53.313 Q 34.739 53.019 34.557 52.928 Q 34.375 52.837 33.997 52.837 L 33.703 52.837 L 33.185 55.329 Q 33.073 55.903 33.108 56.19 Q 33.143 56.477 33.423 56.561 Q 33.703 56.645 34.305 56.645 L 34.235 57.065 L 30.371 57.065 L 30.455 56.645 Q 30.973 56.645 31.253 56.561 Q 31.533 56.477 31.68 56.197 Q 31.827 55.917 31.939 55.329 L 33.171 49.323 Q 33.255 48.931 33.213 48.707 Q 33.171 48.483 32.926 48.385 Q 32.681 48.287 32.121 48.287 L 32.205 47.867 L 35.495 47.867 Q 36.965 47.867 37.784 48.322 Q 38.603 48.777 38.603 49.799 Z M 34.585 48.455 L 34.585 48.455 L 33.801 52.319 L 34.235 52.333 Q 35.075 52.305 35.754 52.06 Q 36.433 51.815 36.825 51.283 Q 37.217 50.751 37.217 49.855 Q 37.217 49.477 37.056 49.148 Q 36.895 48.819 36.503 48.616 Q 36.111 48.413 35.411 48.413 Q 35.145 48.413 34.984 48.42 Q 34.823 48.427 34.585 48.455 Z " fill="black" /><path d="M 41.575 52.685 L 41.575 52.685 L 41.575 55.723 L 41.624 55.723 Q 41.908 55.389 42.295 55.125 Q 42.683 54.86 43.231 54.86 Q 43.741 54.86 44.157 55.169 Q 44.574 55.478 44.824 56.022 Q 45.074 56.566 45.074 57.271 Q 45.074 58.212 44.731 58.849 Q 44.388 59.486 43.795 59.804 Q 43.202 60.123 42.447 60.123 Q 42.006 60.123 41.634 60.049 Q 41.262 59.976 41.002 59.878 Q 40.742 59.78 40.625 59.731 L 40.625 53.851 Q 40.625 53.488 40.546 53.385 Q 40.468 53.282 40.135 53.282 Q 40.027 53.282 39.934 53.297 Q 39.841 53.312 39.841 53.312 L 39.841 52.94 L 41.173 52.685 Z M 41.575 56.232 L 41.575 56.232 L 41.575 59.172 Q 41.693 59.388 41.948 59.515 Q 42.202 59.643 42.624 59.643 Q 43.143 59.643 43.457 59.363 Q 43.77 59.084 43.912 58.619 Q 44.055 58.153 44.055 57.604 Q 44.055 57.105 43.942 56.649 Q 43.829 56.193 43.545 55.909 Q 43.261 55.625 42.761 55.625 Q 42.496 55.625 42.256 55.728 Q 42.016 55.831 41.84 55.973 Q 41.663 56.115 41.575 56.232 Z " fill="black" /><path d="M 48.651 59.643 L 48.651 59.643 L 48.651 60.005 L 46.162 60.005 L 46.162 59.643 Q 46.505 59.643 46.656 59.569 Q 46.808 59.496 46.848 59.334 Q 46.887 59.172 46.887 58.908 L 46.887 55.948 Q 46.887 55.615 46.779 55.546 Q 46.671 55.478 46.416 55.478 Q 46.289 55.478 46.211 55.487 Q 46.132 55.497 46.132 55.497 L 46.132 55.105 L 47.445 54.89 L 47.847 54.89 L 47.847 58.908 Q 47.847 59.192 47.891 59.354 Q 47.935 59.515 48.107 59.579 Q 48.278 59.643 48.651 59.643 Z M 47.357 52.724 L 47.357 52.724 Q 47.641 52.724 47.832 52.92 Q 48.024 53.116 48.024 53.371 Q 48.024 53.606 47.832 53.802 Q 47.641 53.998 47.357 53.998 Q 47.083 53.998 46.901 53.802 Q 46.72 53.606 46.72 53.371 Q 46.72 53.116 46.901 52.92 Q 47.083 52.724 47.357 52.724 Z " fill="black" /><path d="M 52.571 59.388 L 52.571 59.388 L 52.502 59.388 Q 52.169 59.662 51.767 59.868 Q 51.365 60.074 50.895 60.074 Q 50.278 60.074 49.949 59.701 Q 49.621 59.329 49.621 58.8 Q 49.621 58.349 49.832 58.045 Q 50.042 57.742 50.38 57.55 Q 50.719 57.359 51.111 57.242 Q 51.503 57.124 51.865 57.056 Q 52.228 56.987 52.473 56.928 L 52.473 56.419 Q 52.473 55.762 52.213 55.512 Q 51.953 55.262 51.454 55.262 Q 51.15 55.262 51.017 55.34 Q 50.885 55.419 50.851 55.595 Q 50.817 55.772 50.807 56.056 Q 50.797 56.271 50.679 56.404 Q 50.562 56.536 50.336 56.536 Q 50.121 56.536 49.969 56.404 Q 49.817 56.271 49.817 56.017 Q 49.817 55.713 50.052 55.448 Q 50.287 55.184 50.723 55.022 Q 51.16 54.86 51.748 54.86 Q 52.63 54.86 53.026 55.267 Q 53.423 55.674 53.423 56.487 L 53.423 58.888 Q 53.423 59.212 53.497 59.305 Q 53.57 59.398 53.727 59.398 Q 53.894 59.398 54.016 59.329 Q 54.139 59.261 54.247 59.133 L 54.462 59.339 Q 53.953 60.064 53.267 60.064 Q 52.884 60.064 52.742 59.883 Q 52.6 59.701 52.571 59.388 Z M 52.473 59.025 L 52.473 59.025 L 52.473 57.3 Q 52.022 57.418 51.591 57.56 Q 51.16 57.702 50.88 57.947 Q 50.601 58.192 50.601 58.633 Q 50.601 59.015 50.821 59.236 Q 51.042 59.456 51.385 59.456 Q 51.591 59.456 51.88 59.363 Q 52.169 59.27 52.473 59.025 Z " fill="black" /><path d="M 55.138 58.222 L 55.138 58.222 L 55.452 58.222 Q 55.579 58.79 55.756 59.104 Q 55.932 59.417 56.211 59.54 Q 56.491 59.662 56.893 59.662 Q 57.353 59.662 57.603 59.51 Q 57.853 59.358 57.853 58.976 Q 57.853 58.721 57.73 58.55 Q 57.608 58.378 57.338 58.222 Q 57.069 58.065 56.618 57.859 Q 56.158 57.634 55.829 57.438 Q 55.501 57.242 55.329 56.977 Q 55.158 56.712 55.158 56.311 Q 55.158 55.605 55.633 55.233 Q 56.109 54.86 56.824 54.86 Q 57.255 54.86 57.554 54.968 Q 57.853 55.076 58.029 55.154 L 58.049 55.154 L 58.206 54.909 L 58.48 54.909 L 58.5 56.536 L 58.157 56.536 Q 57.971 55.782 57.637 55.522 Q 57.304 55.262 56.873 55.262 Q 56.422 55.262 56.192 55.458 Q 55.962 55.654 55.962 55.968 Q 55.962 56.222 56.118 56.389 Q 56.275 56.556 56.564 56.698 Q 56.853 56.84 57.255 57.036 Q 57.706 57.252 58.049 57.482 Q 58.392 57.712 58.588 58.001 Q 58.784 58.29 58.784 58.721 Q 58.784 59.241 58.51 59.554 Q 58.235 59.868 57.804 60 Q 57.373 60.133 56.902 60.133 Q 56.422 60.133 56.158 60.035 Q 55.893 59.937 55.668 59.849 L 55.628 59.849 L 55.383 60.103 L 55.158 60.103 Z " fill="black" /></g></g></g><g><g><g><path d="M 224.832 49.799 L 224.832 49.799 Q 224.832 50.541 224.552 51.045 Q 224.272 51.549 223.824 51.871 Q 223.376 52.193 222.865 52.368 Q 222.354 52.543 221.892 52.627 L 221.892 52.697 Q 222.144 52.865 222.368 53.208 Q 222.592 53.551 222.921 54.195 Q 223.25 54.839 223.824 55.931 Q 224.062 56.351 224.349 56.498 Q 224.636 56.645 225.112 56.645 L 225.028 57.065 L 222.9 57.065 Q 222.508 56.197 222.242 55.616 Q 221.976 55.035 221.78 54.643 Q 221.584 54.251 221.437 53.943 Q 221.29 53.635 221.122 53.313 Q 220.968 53.019 220.786 52.928 Q 220.604 52.837 220.226 52.837 L 219.932 52.837 L 219.414 55.329 Q 219.302 55.903 219.337 56.19 Q 219.372 56.477 219.652 56.561 Q 219.932 56.645 220.534 56.645 L 220.464 57.065 L 216.6 57.065 L 216.684 56.645 Q 217.202 56.645 217.482 56.561 Q 217.762 56.477 217.909 56.197 Q 218.056 55.917 218.168 55.329 L 219.4 49.323 Q 219.484 48.931 219.442 48.707 Q 219.4 48.483 219.155 48.385 Q 218.91 48.287 218.35 48.287 L 218.434 47.867 L 221.724 47.867 Q 223.194 47.867 224.013 48.322 Q 224.832 48.777 224.832 49.799 Z M 220.814 48.455 L 220.814 48.455 L 220.03 52.319 L 220.464 52.333 Q 221.304 52.305 221.983 52.06 Q 222.662 51.815 223.054 51.283 Q 223.446 50.751 223.446 49.855 Q 223.446 49.477 223.285 49.148 Q 223.124 48.819 222.732 48.616 Q 222.34 48.413 221.64 48.413 Q 221.374 48.413 221.213 48.42 Q 221.052 48.427 220.814 48.455 Z " fill="black" /><path d="M 227.804 52.685 L 227.804 52.685 L 227.804 55.723 L 227.853 55.723 Q 228.137 55.39 228.524 55.125 Q 228.912 54.86 229.46 54.86 Q 229.97 54.86 230.386 55.169 Q 230.803 55.478 231.053 56.022 Q 231.303 56.566 231.303 57.271 Q 231.303 58.212 230.96 58.849 Q 230.617 59.486 230.024 59.804 Q 229.431 60.123 228.676 60.123 Q 228.235 60.123 227.863 60.049 Q 227.491 59.976 227.231 59.878 Q 226.971 59.78 226.854 59.731 L 226.854 53.851 Q 226.854 53.488 226.775 53.385 Q 226.697 53.283 226.364 53.283 Q 226.256 53.283 226.163 53.297 Q 226.07 53.312 226.07 53.312 L 226.07 52.94 L 227.402 52.685 Z M 227.804 56.232 L 227.804 56.232 L 227.804 59.172 Q 227.922 59.388 228.177 59.515 Q 228.431 59.643 228.853 59.643 Q 229.372 59.643 229.686 59.363 Q 229.999 59.084 230.141 58.619 Q 230.284 58.153 230.284 57.604 Q 230.284 57.105 230.171 56.649 Q 230.058 56.193 229.774 55.909 Q 229.49 55.625 228.99 55.625 Q 228.725 55.625 228.485 55.728 Q 228.245 55.831 228.069 55.973 Q 227.892 56.115 227.804 56.232 Z " fill="black" /><path d="M 234.88 59.643 L 234.88 59.643 L 234.88 60.005 L 232.391 60.005 L 232.391 59.643 Q 232.734 59.643 232.885 59.569 Q 233.037 59.496 233.077 59.334 Q 233.116 59.172 233.116 58.908 L 233.116 55.948 Q 233.116 55.615 233.008 55.546 Q 232.9 55.478 232.645 55.478 Q 232.518 55.478 232.44 55.488 Q 232.361 55.497 232.361 55.497 L 232.361 55.105 L 233.674 54.89 L 234.076 54.89 L 234.076 58.908 Q 234.076 59.192 234.12 59.354 Q 234.164 59.515 234.336 59.579 Q 234.507 59.643 234.88 59.643 Z M 233.586 52.724 L 233.586 52.724 Q 233.87 52.724 234.061 52.92 Q 234.253 53.116 234.253 53.371 Q 234.253 53.606 234.061 53.802 Q 233.87 53.998 233.586 53.998 Q 233.312 53.998 233.13 53.802 Q 232.949 53.606 232.949 53.371 Q 232.949 53.116 233.13 52.92 Q 233.312 52.724 233.586 52.724 Z " fill="black" /><path d="M 238.8 59.388 L 238.8 59.388 L 238.731 59.388 Q 238.398 59.662 237.996 59.868 Q 237.594 60.074 237.124 60.074 Q 236.507 60.074 236.178 59.702 Q 235.85 59.329 235.85 58.8 Q 235.85 58.349 236.061 58.045 Q 236.271 57.742 236.609 57.55 Q 236.948 57.359 237.34 57.242 Q 237.732 57.124 238.094 57.056 Q 238.457 56.987 238.702 56.928 L 238.702 56.419 Q 238.702 55.762 238.442 55.512 Q 238.182 55.262 237.683 55.262 Q 237.379 55.262 237.246 55.341 Q 237.114 55.419 237.08 55.595 Q 237.046 55.772 237.036 56.056 Q 237.026 56.272 236.908 56.404 Q 236.791 56.536 236.565 56.536 Q 236.35 56.536 236.198 56.404 Q 236.046 56.272 236.046 56.017 Q 236.046 55.713 236.281 55.448 Q 236.516 55.184 236.952 55.022 Q 237.389 54.86 237.977 54.86 Q 238.859 54.86 239.255 55.267 Q 239.652 55.674 239.652 56.487 L 239.652 58.888 Q 239.652 59.212 239.726 59.305 Q 239.799 59.398 239.956 59.398 Q 240.123 59.398 240.245 59.329 Q 240.368 59.261 240.476 59.133 L 240.691 59.339 Q 240.182 60.064 239.496 60.064 Q 239.113 60.064 238.971 59.883 Q 238.829 59.702 238.8 59.388 Z M 238.702 59.025 L 238.702 59.025 L 238.702 57.301 Q 238.251 57.418 237.82 57.56 Q 237.389 57.702 237.109 57.947 Q 236.83 58.192 236.83 58.633 Q 236.83 59.016 237.05 59.236 Q 237.271 59.457 237.614 59.457 Q 237.82 59.457 238.109 59.363 Q 238.398 59.27 238.702 59.025 Z " fill="black" /><path d="M 241.367 58.222 L 241.367 58.222 L 241.681 58.222 Q 241.808 58.79 241.985 59.104 Q 242.161 59.417 242.44 59.54 Q 242.72 59.662 243.122 59.662 Q 243.582 59.662 243.832 59.51 Q 244.082 59.359 244.082 58.976 Q 244.082 58.722 243.959 58.55 Q 243.837 58.379 243.567 58.222 Q 243.298 58.065 242.847 57.859 Q 242.387 57.634 242.058 57.438 Q 241.73 57.242 241.558 56.977 Q 241.387 56.713 241.387 56.311 Q 241.387 55.605 241.862 55.233 Q 242.338 54.86 243.053 54.86 Q 243.484 54.86 243.783 54.968 Q 244.082 55.076 244.258 55.154 L 244.278 55.154 L 244.435 54.909 L 244.709 54.909 L 244.729 56.536 L 244.386 56.536 Q 244.2 55.782 243.866 55.522 Q 243.533 55.262 243.102 55.262 Q 242.651 55.262 242.421 55.458 Q 242.191 55.654 242.191 55.968 Q 242.191 56.223 242.347 56.389 Q 242.504 56.556 242.793 56.698 Q 243.082 56.84 243.484 57.036 Q 243.935 57.252 244.278 57.482 Q 244.621 57.712 244.817 58.001 Q 245.013 58.29 245.013 58.722 Q 245.013 59.241 244.739 59.555 Q 244.464 59.868 244.033 60 Q 243.602 60.133 243.131 60.133 Q 242.651 60.133 242.387 60.035 Q 242.122 59.937 241.897 59.849 L 241.857 59.849 L 241.612 60.103 L 241.387 60.103 Z " fill="black" /></g></g></g><circle cx="138.0" cy="108.0" r="2.6999999999999997" style="stroke:black;fill:black;stroke-width:2.0;stroke-dasharray:-;" /><circle cx="137.99999999999997" cy="180.0" r="2.6999999999999997" style="stroke:black;fill:white;stroke-width:2.0;stroke-dasharray:-;" /><g><g><g><path d="M 141.465 189.016 L 141.465 189.016 L 141.059 189.016 Q 141.017 187.854 140.639 187.329 Q 140.261 186.804 139.197 186.804 Q 138.329 186.804 137.839 187.224 Q 137.349 187.644 137.349 188.4 Q 137.349 189.044 137.853 189.506 Q 138.357 189.968 139.043 190.388 Q 139.561 190.724 140.016 191.06 Q 140.471 191.396 140.765 191.844 Q 141.059 192.292 141.059 192.964 Q 141.059 193.86 140.611 194.49 Q 140.163 195.12 139.421 195.463 Q 138.679 195.806 137.811 195.806 Q 137.083 195.806 136.663 195.701 Q 136.243 195.596 136.012 195.491 Q 135.781 195.386 135.613 195.386 Q 135.473 195.386 135.333 195.512 Q 135.193 195.638 135.151 195.848 L 134.731 195.848 L 135.319 192.824 L 135.711 192.824 Q 135.781 193.79 135.984 194.308 Q 136.187 194.826 136.607 195.022 Q 137.027 195.218 137.727 195.218 Q 138.595 195.218 139.169 194.826 Q 139.743 194.434 139.757 193.622 Q 139.757 193.02 139.498 192.607 Q 139.239 192.194 138.805 191.872 Q 138.371 191.55 137.881 191.228 Q 137.867 191.214 137.853 191.214 Q 137.391 190.92 137.006 190.612 Q 136.621 190.304 136.39 189.877 Q 136.159 189.45 136.159 188.806 Q 136.159 187.994 136.593 187.434 Q 137.027 186.874 137.727 186.587 Q 138.427 186.3 139.211 186.3 Q 139.827 186.3 140.17 186.398 Q 140.513 186.496 140.709 186.601 Q 140.905 186.706 141.059 186.706 Q 141.409 186.706 141.605 186.3 L 141.941 186.3 Z " fill="black" /></g></g></g></svg>