<svg xmlns="http://www.w3.org/2000/svg" xmlns:xlink="http://www.w3.org/1999/xlink" xml:lang="en" height="279.20000000000005pt" width="253.56779999999995pt" viewBox="-36.64179999999999 -112.60000000000002 253.56779999999995 279.20000000000005"><path d="M 0.0,-0.0 L 18.0,-0.0 L 36.0,-0.0" style="stroke:black;fill:none;stroke-width:2.0;stroke-dasharray:-;stroke-linecap:round;stroke-linejoin:round;" /><path d="M 54.0,18.0 L 126.0,18.0 L 126.0,-90.0 L 54.0,-90.0 L 54.0,18.0" style="stroke:black;fill:none;stroke-width:2.0;stroke-dasharray:-;stroke-linecap:round;stroke-linejoin:round;" /><path d="M 54.0,-72.0 L 36.0,-72.0" style="stroke:black;fill:none;stroke-width:2.0;stroke-dasharray:-;stroke-linecap:round;stroke-linejoin:round;" /><path d="M 54.0,-0.0 L 36.0,-0.0" style="stroke:black;fill:none;stroke-width:2.0;stroke-dasharray:-;stroke-linecap:round;stroke-linejoin:round;" /><path d="M 54.0,-6.300000000000002 L 66.60000000000001,-0.0 L 54.0,6.300000000000002" style="stroke:black;fill:none;stroke-width:2.0;stroke-dasharray:-;stroke-linecap:round;stroke-linejoin:round;" /><path d="M 126.0,-72.0 L 144.0,-72.0" style="stroke:black;fill:none;stroke-width:2.0;stroke-dasharray:-;stroke-linecap:round;stroke-linejoin:round;" /><path d="M 126.0,-0.0 L 144.0,-0.0" style="stroke:black;fill:none;stroke-width:2.0;stroke-dasharray:-;stroke-linecap:round;stroke-linejoin:round;" /><path d="M 0.0,144.0 L 18.0,144.0 L 36.0,144.0" style="stroke:black;fill:none;stroke-width:2.0;stroke-dasharray:-;stroke-linecap:round;stroke-linejoin:round;" /><path d="M 54.0,162.0 L 126.0,162.0 L 126.0,54.0 L 54.0,54.0 L 54.0,162.0" style="stroke:black;fill:none;stroke-width:2.0;stroke-dasharray:-;stroke-linecap:round;stroke-linejoin:round;" /><path d="M 54.0,72.0 L 36.0,72.0" style="stroke:black;fill:none;stroke-width:2.0;stroke-dasharray:-;stroke-linecap:round;stroke-linejoin:round;" /><path d="M 54.0,144.0 L 36.0,144.0" style="stroke:black;fill:none;stroke-width:2.0;stroke-dasharray:-;stroke-linecap:round;stroke-linejoin:round;" /><path d="M 54.0,137.70000000000002 L 66.60000000000001,144.0 L 54.0,150.29999999999998" style="stroke:black;fill:none;stroke-width:2.0;stroke-dasharray:-;stroke-linecap:round;stroke-linejoin:round;" /><path d="M 126.0,72.0 L 144.0,72.0" style="stroke:black;fill:none;stroke-width:2.0;stroke-dasharray:-;stroke-linecap:round;stroke-linejoin:round;" /><path d="M 126.0,144.0 L 144.0,144.0" style="stroke:black;fill:none;stroke-width:2.0;stroke-dasharray:-;stroke-linecap:round;stroke-linejoin:round;" /><path d="M 144.0,-72.0 L 162.0,-72.0 L 180.0,-72.0" style="stroke:black;fill:none;stroke-width:2.0;stroke-dasharray:-;stroke-linecap:round;stroke-linejoin:round;" /><path d="M 144.0,-0.0 L 162.0,-0.0 L 180.0,-0.0" style="stroke:black;fill:none;stroke-width:2.0;stroke-dasharray:-;stroke-linecap:round;stroke-linejoin:round;" /><path d="M 144.0,72.0 L 162.0,72.0 L 180.0,72.0" style="stroke:black;fill:none;stroke-width:2.0;stroke-dasharray:-;stroke-linecap:round;stroke-linejoin:round;" /><path d="M 144.0,144.0 L 162.0,144.0 L 180.0,144.0" style="stroke:black;fill:none;stroke-width:2.0;stroke-dasharray:-;stroke-linecap:round;stroke-linejoin:round;" /><path d="M 144.0,-0.0 L 144.0,-54.0 L 144.0,-108.0" style="stroke:black;fill:none;stroke-width:2.0;stroke-dasharray:-;stroke-linecap:round;stroke-linejoin:round;" /><path d="M 144.0,-108.0 L 90.0,-108.0 L 36.0,-108.00000000000001" style="stroke:black;fill:none;stroke-width:2.0;stroke-dasharray:-;stroke-linecap:round;stroke-linejoin:round;" /><path d="M 36.0,-108.00000000000001 L 35.99999999999999,-90.0 L 35.99999999999999,-72.0" style="stroke:black;fill:none;stroke-width:2.0;stroke-dasharray:-;stroke-linecap:round;stroke-linejoin:round;" /><path d="M 144.0,144.0 L 144.0,90.0 L 144.0,36.0" style="stroke:black;fill:none;stroke-width:2.0;stroke-dasharray:-;stroke-linecap:round;stroke-linejoin:round;" /><path d="M 144.0,36.0 L 90.0,35.99999999999999 L 36.0,35.999999999999986" style="stroke:black;fill:none;stroke-width:2.0;stroke-dasharray:-;stroke-linecap:round;stroke-linejoin:round;" /><path d="M 36.0,35.999999999999986 L 35.99999999999999,54.0 L 35.99999999999999,72.0" style="stroke:black;fill:none;stroke-width:2.0;stroke-dasharray:-;stroke-linecap:round;stroke-linejoin:round;" /><circle cx="0.0" cy="-0.0" r="2.6999999999999997" style="stroke:black;fill:white;stroke-width:2.0;stroke-dasharray:-;" /><g><g><g><path d="M -33.141 -5.913 L -33.141 -5.913 L -32.833 -5.913 L -33.491 -3.225 Q -33.589 -2.861 -33.694 -2.35 Q -33.799 -1.839 -33.799 -1.363 Q -33.799 -0.817 -33.575 -0.418 Q -33.351 -0.019 -32.707 -0.019 Q -31.993 -0.019 -31.475 -0.362 Q -30.957 -0.705 -30.628 -1.237 Q -30.299 -1.769 -30.138 -2.357 Q -29.977 -2.945 -29.977 -3.435 Q -29.977 -3.799 -30.103 -4.065 Q -30.229 -4.331 -30.404 -4.541 Q -30.579 -4.751 -30.705 -4.947 Q -30.831 -5.143 -30.831 -5.367 Q -30.831 -5.647 -30.677 -5.801 Q -30.523 -5.955 -30.299 -5.955 Q -29.823 -5.955 -29.529 -5.479 Q -29.235 -5.003 -29.235 -4.261 Q -29.235 -3.617 -29.396 -2.91 Q -29.557 -2.203 -29.879 -1.531 Q -30.201 -0.859 -30.677 -0.313 Q -31.153 0.233 -31.769 0.555 Q -32.385 0.877 -33.141 0.877 Q -33.841 0.877 -34.233 0.597 Q -34.625 0.317 -34.786 -0.145 Q -34.947 -0.607 -34.947 -1.139 Q -34.947 -1.643 -34.849 -2.175 Q -34.751 -2.707 -34.639 -3.141 L -34.359 -4.205 Q -34.331 -4.317 -34.275 -4.541 Q -34.219 -4.765 -34.219 -4.975 Q -34.219 -5.157 -34.289 -5.283 Q -34.359 -5.409 -34.555 -5.409 Q -34.723 -5.409 -34.961 -5.388 Q -35.199 -5.367 -35.199 -5.367 L -35.199 -5.759 Z " fill="black" /><path d="M -25.501 3.329 L -25.501 3.329 L -25.501 3.691 L -27.98 3.691 L -27.98 3.329 Q -27.637 3.329 -27.485 3.26 Q -27.334 3.191 -27.294 3.03 Q -27.255 2.868 -27.255 2.594 L -27.255 -2.581 Q -27.255 -2.894 -27.368 -2.963 Q -27.481 -3.032 -27.716 -3.032 Q -27.843 -3.032 -27.926 -3.017 Q -28.01 -3.002 -28.01 -3.002 L -28.01 -3.375 L -26.677 -3.629 L -26.295 -3.629 L -26.295 2.594 Q -26.295 2.878 -26.251 3.039 Q -26.207 3.201 -26.035 3.265 Q -25.864 3.329 -25.501 3.329 Z " fill="black" /><path d="M -22.071 -1.454 L -22.071 -1.454 Q -21.336 -1.454 -20.787 -1.135 Q -20.238 -0.817 -19.939 -0.244 Q -19.641 0.33 -19.641 1.104 Q -19.641 2.035 -19.954 2.633 Q -20.268 3.231 -20.817 3.52 Q -21.365 3.809 -22.071 3.809 Q -22.786 3.809 -23.34 3.51 Q -23.894 3.211 -24.202 2.613 Q -24.511 2.015 -24.511 1.114 Q -24.511 0.349 -24.207 -0.229 Q -23.904 -0.807 -23.355 -1.13 Q -22.806 -1.454 -22.071 -1.454 Z M -22.091 -1.003 L -22.091 -1.003 Q -22.737 -1.003 -23.105 -0.479 Q -23.472 0.046 -23.472 1.055 Q -23.472 2.3 -23.095 2.814 Q -22.718 3.329 -22.042 3.329 Q -21.61 3.319 -21.307 3.113 Q -21.003 2.907 -20.841 2.422 Q -20.679 1.937 -20.679 1.104 Q -20.679 0.104 -21.022 -0.449 Q -21.365 -1.003 -22.091 -1.003 Z " fill="black" /><path d="M -14.26 1.986 L -14.26 1.986 L -14.594 3.691 L -18.612 3.691 L -18.612 3.211 L -17.22 1.8 Q -16.671 1.251 -16.313 0.83 Q -15.956 0.408 -15.779 -0.018 Q -15.603 -0.444 -15.603 -0.993 Q -15.603 -1.513 -15.921 -1.851 Q -16.24 -2.189 -16.818 -2.189 Q -17.347 -2.189 -17.705 -1.978 Q -18.063 -1.767 -18.337 -1.287 L -18.602 -1.415 Q -18.357 -2.101 -17.842 -2.493 Q -17.328 -2.885 -16.573 -2.885 Q -15.985 -2.885 -15.534 -2.674 Q -15.084 -2.463 -14.829 -2.071 Q -14.574 -1.679 -14.574 -1.121 Q -14.574 -0.64 -14.79 -0.219 Q -15.005 0.202 -15.402 0.643 Q -15.799 1.084 -16.348 1.623 L -17.573 2.809 L -17.573 2.878 L -16.808 2.839 L -15.534 2.839 Q -15.25 2.839 -15.098 2.76 Q -14.946 2.682 -14.839 2.491 Q -14.731 2.3 -14.603 1.986 Z " fill="black" /><path d="M -13.084 5.161 L -13.084 5.161 L -13.251 4.838 Q -13.045 4.75 -12.83 4.607 Q -12.614 4.465 -12.472 4.206 Q -12.33 3.946 -12.33 3.525 Q -12.496 3.593 -12.673 3.593 Q -12.996 3.593 -13.133 3.402 Q -13.271 3.211 -13.271 2.966 Q -13.271 2.701 -13.094 2.505 Q -12.918 2.309 -12.585 2.309 Q -12.163 2.309 -11.943 2.569 Q -11.722 2.829 -11.722 3.289 Q -11.722 3.76 -11.869 4.088 Q -12.016 4.416 -12.237 4.627 Q -12.457 4.838 -12.687 4.96 Q -12.918 5.083 -13.084 5.161 Z " fill="black" /><path d="M -9.664 -1.424 L -9.664 -1.424 L -9.664 -0.582 L -9.615 -0.582 Q -9.233 -1.023 -8.851 -1.238 Q -8.469 -1.454 -8.008 -1.454 Q -7.489 -1.454 -7.067 -1.145 Q -6.646 -0.836 -6.396 -0.293 Q -6.146 0.251 -6.146 0.957 Q -6.146 1.878 -6.474 2.515 Q -6.803 3.152 -7.346 3.48 Q -7.89 3.809 -8.527 3.809 Q -8.831 3.809 -9.101 3.73 Q -9.37 3.652 -9.596 3.525 L -9.645 3.525 L -9.645 4.779 Q -9.645 5.122 -9.556 5.303 Q -9.468 5.485 -9.243 5.548 Q -9.017 5.612 -8.596 5.612 L -8.596 5.955 L -11.369 5.955 L -11.369 5.622 Q -11.026 5.612 -10.865 5.548 Q -10.703 5.485 -10.649 5.318 Q -10.595 5.151 -10.595 4.848 L -10.595 -0.307 Q -10.595 -0.591 -10.654 -0.714 Q -10.713 -0.836 -10.997 -0.836 Q -11.085 -0.836 -11.222 -0.827 Q -11.36 -0.817 -11.36 -0.817 L -11.36 -1.209 L -10.037 -1.424 Z M -9.645 -0.082 L -9.645 -0.082 L -9.645 2.682 Q -9.537 2.79 -9.375 2.951 Q -9.213 3.113 -8.988 3.235 Q -8.763 3.358 -8.498 3.358 Q -8.135 3.358 -7.836 3.137 Q -7.538 2.917 -7.351 2.447 Q -7.165 1.976 -7.165 1.251 Q -7.165 0.33 -7.498 -0.18 Q -7.832 -0.689 -8.439 -0.689 Q -8.831 -0.689 -9.155 -0.484 Q -9.478 -0.278 -9.645 -0.082 Z " fill="black" /></g></g></g><g><g><g><path d="M 60.688 -67.401 L 60.688 -67.401 L 60.688 -76.599 L 63.04 -76.599 Q 65.21 -76.599 66.344 -75.416 Q 67.478 -74.233 67.478 -72.035 Q 67.478 -69.837 66.351 -68.619 Q 65.224 -67.401 63.096 -67.401 Z M 61.892 -68.381 L 61.892 -68.381 L 62.956 -68.381 Q 64.608 -68.381 65.427 -69.34 Q 66.246 -70.299 66.246 -72.035 Q 66.246 -73.771 65.427 -74.695 Q 64.608 -75.619 62.956 -75.619 L 61.892 -75.619 Z " fill="black" /></g></g></g><g><g><g><path d="M 119.466 -66.169 L 119.466 -66.169 Q 118.178 -66.169 117.296 -66.785 Q 116.414 -67.401 116.008 -68.353 Q 115 -68.493 114.23 -69.102 Q 113.46 -69.711 113.026 -70.733 Q 112.592 -71.755 112.592 -73.113 Q 112.592 -74.583 113.103 -75.64 Q 113.614 -76.697 114.517 -77.264 Q 115.42 -77.831 116.596 -77.831 Q 117.786 -77.831 118.689 -77.264 Q 119.592 -76.697 120.103 -75.64 Q 120.614 -74.583 120.614 -73.113 Q 120.614 -71.783 120.201 -70.782 Q 119.788 -69.781 119.039 -69.158 Q 118.29 -68.535 117.296 -68.367 Q 117.618 -67.765 118.227 -67.464 Q 118.836 -67.163 119.62 -67.163 Q 119.914 -67.163 120.152 -67.198 Q 120.39 -67.233 120.572 -67.289 L 120.81 -66.365 Q 120.6 -66.295 120.25 -66.232 Q 119.9 -66.169 119.466 -66.169 Z M 116.596 -69.305 L 116.596 -69.305 Q 117.436 -69.305 118.059 -69.767 Q 118.682 -70.229 119.025 -71.083 Q 119.368 -71.937 119.368 -73.099 Q 119.368 -74.835 118.612 -75.815 Q 117.856 -76.795 116.596 -76.795 Q 115.336 -76.795 114.58 -75.808 Q 113.824 -74.821 113.824 -73.099 Q 113.824 -71.951 114.167 -71.097 Q 114.51 -70.243 115.133 -69.774 Q 115.756 -69.305 116.596 -69.305 Z " fill="black" /></g></g></g><g><g><g><path d="M 120.292 -0.553 L 120.292 -0.553 Q 120.292 1.071 119.746 2.254 Q 119.2 3.437 118.283 4.158 Q 117.366 4.879 116.246 5.131 L 116.246 5.173 Q 116.456 5.481 116.694 5.838 Q 116.932 6.195 117.268 6.503 Q 117.604 6.811 118.108 7.007 Q 118.612 7.203 119.368 7.203 L 119.298 7.595 L 118.598 7.595 Q 117.52 7.595 116.834 7.413 Q 116.148 7.231 115.749 6.853 Q 115.35 6.475 115.126 5.887 L 114.916 5.285 Q 113.278 5.187 112.417 4.305 Q 111.556 3.423 111.542 1.645 Q 111.542 0.385 111.934 -0.679 Q 112.326 -1.743 113.026 -2.534 Q 113.726 -3.325 114.678 -3.759 Q 115.63 -4.193 116.75 -4.193 Q 117.996 -4.193 118.78 -3.682 Q 119.564 -3.171 119.928 -2.338 Q 120.292 -1.505 120.292 -0.553 Z M 118.864 -0.637 L 118.864 -0.637 Q 118.864 -1.939 118.311 -2.765 Q 117.758 -3.591 116.54 -3.591 Q 115.602 -3.591 114.79 -2.954 Q 113.978 -2.317 113.481 -1.12 Q 112.984 0.077 112.984 1.771 Q 112.984 3.115 113.495 3.927 Q 114.006 4.739 115.238 4.739 Q 116.372 4.739 117.184 4.06 Q 117.996 3.381 118.43 2.17 Q 118.864 0.959 118.864 -0.637 Z " fill="black" /><rect x="110.702" y="-7.119" width="9.058" height="0.952" fill="black" /></g></g></g><circle cx="0.0" cy="144.0" r="2.6999999999999997" style="stroke:black;fill:white;stroke-width:2.0;stroke-dasharray:-;" /><g><g><g><path d="M -33.582 138.484 L -33.582 138.484 L -33.274 138.484 L -33.932 141.172 Q -34.03 141.536 -34.135 142.047 Q -34.24 142.558 -34.24 143.034 Q -34.24 143.58 -34.016 143.979 Q -33.792 144.378 -33.148 144.378 Q -32.434 144.378 -31.916 144.035 Q -31.398 143.692 -31.069 143.16 Q -30.74 142.628 -30.579 142.04 Q -30.418 141.452 -30.418 140.962 Q -30.418 140.598 -30.544 140.332 Q -30.67 140.066 -30.845 139.856 Q -31.02 139.646 -31.146 139.45 Q -31.272 139.254 -31.272 139.03 Q -31.272 138.75 -31.118 138.596 Q -30.964 138.442 -30.74 138.442 Q -30.264 138.442 -29.97 138.918 Q -29.676 139.394 -29.676 140.136 Q -29.676 140.78 -29.837 141.487 Q -29.998 142.194 -30.32 142.866 Q -30.642 143.538 -31.118 144.084 Q -31.594 144.63 -32.21 144.952 Q -32.826 145.274 -33.582 145.274 Q -34.282 145.274 -34.674 144.994 Q -35.066 144.714 -35.227 144.252 Q -35.388 143.79 -35.388 143.258 Q -35.388 142.754 -35.29 142.222 Q -35.192 141.69 -35.08 141.256 L -34.8 140.192 Q -34.772 140.08 -34.716 139.856 Q -34.66 139.632 -34.66 139.422 Q -34.66 139.24 -34.73 139.114 Q -34.8 138.988 -34.996 138.988 Q -35.164 138.988 -35.402 139.009 Q -35.64 139.03 -35.64 139.03 L -35.64 138.638 Z " fill="black" /><path d="M -25.942 147.725 L -25.942 147.725 L -25.942 148.088 L -28.421 148.088 L -28.421 147.725 Q -28.078 147.725 -27.926 147.657 Q -27.775 147.588 -27.735 147.427 Q -27.696 147.265 -27.696 146.99 L -27.696 141.816 Q -27.696 141.502 -27.809 141.434 Q -27.922 141.365 -28.157 141.365 Q -28.284 141.365 -28.367 141.38 Q -28.451 141.395 -28.451 141.395 L -28.451 141.022 L -27.118 140.767 L -26.736 140.767 L -26.736 146.99 Q -26.736 147.275 -26.692 147.436 Q -26.648 147.598 -26.476 147.662 Q -26.305 147.725 -25.942 147.725 Z " fill="black" /><path d="M -22.512 142.943 L -22.512 142.943 Q -21.777 142.943 -21.228 143.261 Q -20.679 143.58 -20.38 144.153 Q -20.082 144.727 -20.082 145.501 Q -20.082 146.432 -20.395 147.03 Q -20.709 147.627 -21.258 147.916 Q -21.806 148.206 -22.512 148.206 Q -23.227 148.206 -23.781 147.907 Q -24.335 147.608 -24.643 147.01 Q -24.952 146.412 -24.952 145.511 Q -24.952 144.746 -24.648 144.168 Q -24.345 143.59 -23.796 143.266 Q -23.247 142.943 -22.512 142.943 Z M -22.532 143.394 L -22.532 143.394 Q -23.178 143.394 -23.546 143.918 Q -23.913 144.442 -23.913 145.452 Q -23.913 146.696 -23.536 147.211 Q -23.159 147.725 -22.483 147.725 Q -22.051 147.716 -21.748 147.51 Q -21.444 147.304 -21.282 146.819 Q -21.12 146.334 -21.12 145.501 Q -21.12 144.501 -21.463 143.947 Q -21.806 143.394 -22.532 143.394 Z " fill="black" /><path d="M -14.701 146.383 L -14.701 146.383 L -15.035 148.088 L -19.053 148.088 L -19.053 147.608 L -17.661 146.197 Q -17.112 145.648 -16.754 145.226 Q -16.397 144.805 -16.22 144.379 Q -16.044 143.952 -16.044 143.404 Q -16.044 142.884 -16.362 142.546 Q -16.681 142.208 -17.259 142.208 Q -17.788 142.208 -18.146 142.419 Q -18.504 142.629 -18.778 143.11 L -19.043 142.982 Q -18.798 142.296 -18.283 141.904 Q -17.769 141.512 -17.014 141.512 Q -16.426 141.512 -15.975 141.723 Q -15.525 141.934 -15.27 142.326 Q -15.015 142.718 -15.015 143.276 Q -15.015 143.756 -15.231 144.178 Q -15.446 144.599 -15.843 145.04 Q -16.24 145.481 -16.789 146.02 L -18.014 147.206 L -18.014 147.275 L -17.249 147.235 L -15.975 147.235 Q -15.691 147.235 -15.539 147.157 Q -15.387 147.079 -15.28 146.887 Q -15.172 146.696 -15.044 146.383 Z " fill="black" /><path d="M -13.525 149.558 L -13.525 149.558 L -13.692 149.235 Q -13.486 149.146 -13.271 149.004 Q -13.055 148.862 -12.913 148.602 Q -12.771 148.343 -12.771 147.921 Q -12.937 147.99 -13.114 147.99 Q -13.437 147.99 -13.574 147.799 Q -13.712 147.608 -13.712 147.363 Q -13.712 147.098 -13.535 146.902 Q -13.359 146.706 -13.026 146.706 Q -12.604 146.706 -12.384 146.966 Q -12.163 147.226 -12.163 147.686 Q -12.163 148.157 -12.31 148.485 Q -12.457 148.813 -12.678 149.024 Q -12.898 149.235 -13.128 149.357 Q -13.359 149.48 -13.525 149.558 Z " fill="black" /><path d="M -6.734 144.805 L -6.734 144.805 L -6.734 147 Q -6.734 147.275 -6.685 147.436 Q -6.636 147.598 -6.469 147.667 Q -6.303 147.735 -5.95 147.735 L -5.95 148.088 L -8.469 148.088 L -8.469 147.735 Q -8.096 147.735 -7.93 147.667 Q -7.763 147.598 -7.724 147.436 Q -7.685 147.275 -7.685 147 L -7.685 145.128 Q -7.685 144.472 -7.836 144.163 Q -7.988 143.854 -8.219 143.756 Q -8.449 143.658 -8.684 143.658 Q -9.106 143.658 -9.424 143.874 Q -9.743 144.09 -9.978 144.286 L -9.978 147 Q -9.978 147.275 -9.934 147.436 Q -9.89 147.598 -9.723 147.667 Q -9.556 147.735 -9.194 147.735 L -9.194 148.088 L -11.663 148.088 L -11.663 147.735 Q -11.32 147.735 -11.168 147.667 Q -11.017 147.598 -10.977 147.436 Q -10.938 147.275 -10.938 147 L -10.938 144.021 Q -10.938 143.747 -11.041 143.654 Q -11.144 143.56 -11.369 143.56 Q -11.487 143.56 -11.565 143.57 Q -11.644 143.58 -11.644 143.58 L -11.644 143.208 L -10.331 142.972 L -10.007 142.972 L -10.007 143.776 L -9.939 143.776 Q -9.517 143.394 -9.13 143.168 Q -8.743 142.943 -8.253 142.943 Q -7.675 142.943 -7.346 143.203 Q -7.018 143.462 -6.876 143.884 Q -6.734 144.305 -6.734 144.805 Z " fill="black" /></g></g></g><g><g><g><path d="M 60.688 76.599 L 60.688 76.599 L 60.688 67.401 L 63.04 67.401 Q 65.21 67.401 66.344 68.584 Q 67.478 69.767 67.478 71.965 Q 67.478 74.163 66.351 75.381 Q 65.224 76.599 63.096 76.599 Z M 61.892 75.619 L 61.892 75.619 L 62.956 75.619 Q 64.608 75.619 65.427 74.66 Q 66.246 73.701 66.246 71.965 Q 66.246 70.229 65.427 69.305 Q 64.608 68.381 62.956 68.381 L 61.892 68.381 Z " fill="black" /></g></g></g><g><g><g><path d="M 119.466 77.831 L 119.466 77.831 Q 118.178 77.831 117.296 77.215 Q 116.414 76.599 116.008 75.647 Q 115 75.507 114.23 74.898 Q 113.46 74.289 113.026 73.267 Q 112.592 72.245 112.592 70.887 Q 112.592 69.417 113.103 68.36 Q 113.614 67.303 114.517 66.736 Q 115.42 66.169 116.596 66.169 Q 117.786 66.169 118.689 66.736 Q 119.592 67.303 120.103 68.36 Q 120.614 69.417 120.614 70.887 Q 120.614 72.217 120.201 73.218 Q 119.788 74.219 119.039 74.842 Q 118.29 75.465 117.296 75.633 Q 117.618 76.235 118.227 76.536 Q 118.836 76.837 119.62 76.837 Q 119.914 76.837 120.152 76.802 Q 120.39 76.767 120.572 76.711 L 120.81 77.635 Q 120.6 77.705 120.25 77.768 Q 119.9 77.831 119.466 77.831 Z M 116.596 74.695 L 116.596 74.695 Q 117.436 74.695 118.059 74.233 Q 118.682 73.771 119.025 72.917 Q 119.368 72.063 119.368 70.901 Q 119.368 69.165 118.612 68.185 Q 117.856 67.205 116.596 67.205 Q 115.336 67.205 114.58 68.192 Q 113.824 69.179 113.824 70.901 Q 113.824 72.049 114.167 72.903 Q 114.51 73.757 115.133 74.226 Q 115.756 74.695 116.596 74.695 Z " fill="black" /></g></g></g><g><g><g><path d="M 120.292 143.447 L 120.292 143.447 Q 120.292 145.071 119.746 146.254 Q 119.2 147.437 118.283 148.158 Q 117.366 148.879 116.246 149.131 L 116.246 149.173 Q 116.456 149.481 116.694 149.838 Q 116.932 150.195 117.268 150.503 Q 117.604 150.811 118.108 151.007 Q 118.612 151.203 119.368 151.203 L 119.298 151.595 L 118.598 151.595 Q 117.52 151.595 116.834 151.413 Q 116.148 151.231 115.749 150.853 Q 115.35 150.475 115.126 149.887 L 114.916 149.285 Q 113.278 149.187 112.417 148.305 Q 111.556 147.423 111.542 145.645 Q 111.542 144.385 111.934 143.321 Q 112.326 142.257 113.026 141.466 Q 113.726 140.675 114.678 140.241 Q 115.63 139.807 116.75 139.807 Q 117.996 139.807 118.78 140.318 Q 119.564 140.829 119.928 141.662 Q 120.292 142.495 120.292 143.447 Z M 118.864 143.363 L 118.864 143.363 Q 118.864 142.061 118.311 141.235 Q 117.758 140.409 116.54 140.409 Q 115.602 140.409 114.79 141.046 Q 113.978 141.683 113.481 142.88 Q 112.984 144.077 112.984 145.771 Q 112.984 147.115 113.495 147.927 Q 114.006 148.739 115.238 148.739 Q 116.372 148.739 117.184 148.06 Q 117.996 147.381 118.43 146.17 Q 118.864 144.959 118.864 143.363 Z " fill="black" /><rect x="110.702" y="136.881" width="9.058" height="0.952" fill="black" /></g></g></g><circle cx="180.0" cy="-72.0" r="2.6999999999999997" style="stroke:black;fill:white;stroke-width:2.0;stroke-dasharray:-;" /><g><g><g><path d="M 189.1 -77.913 L 189.1 -77.913 L 189.408 -77.913 L 188.75 -75.225 Q 188.652 -74.861 188.547 -74.35 Q 188.442 -73.839 188.442 -73.363 Q 188.442 -72.817 188.666 -72.418 Q 188.89 -72.019 189.534 -72.019 Q 190.248 -72.019 190.766 -72.362 Q 191.284 -72.705 191.613 -73.237 Q 191.942 -73.769 192.103 -74.357 Q 192.264 -74.945 192.264 -75.435 Q 192.264 -75.799 192.138 -76.065 Q 192.012 -76.331 191.837 -76.541 Q 191.662 -76.751 191.536 -76.947 Q 191.41 -77.143 191.41 -77.367 Q 191.41 -77.647 191.564 -77.801 Q 191.718 -77.955 191.942 -77.955 Q 192.418 -77.955 192.712 -77.479 Q 193.006 -77.003 193.006 -76.261 Q 193.006 -75.617 192.845 -74.91 Q 192.684 -74.203 192.362 -73.531 Q 192.04 -72.859 191.564 -72.313 Q 191.088 -71.767 190.472 -71.445 Q 189.856 -71.123 189.1 -71.123 Q 188.4 -71.123 188.008 -71.403 Q 187.616 -71.683 187.455 -72.145 Q 187.294 -72.607 187.294 -73.139 Q 187.294 -73.643 187.392 -74.175 Q 187.49 -74.707 187.602 -75.141 L 187.882 -76.205 Q 187.91 -76.317 187.966 -76.541 Q 188.022 -76.765 188.022 -76.975 Q 188.022 -77.157 187.952 -77.283 Q 187.882 -77.409 187.686 -77.409 Q 187.518 -77.409 187.28 -77.388 Q 187.042 -77.367 187.042 -77.367 L 187.042 -77.759 Z " fill="black" /><path d="M 196.74 -68.671 L 196.74 -68.671 L 196.74 -68.309 L 194.26 -68.309 L 194.26 -68.671 Q 194.603 -68.671 194.755 -68.74 Q 194.907 -68.809 194.946 -68.97 Q 194.986 -69.132 194.986 -69.406 L 194.986 -74.581 Q 194.986 -74.894 194.873 -74.963 Q 194.76 -75.032 194.525 -75.032 Q 194.398 -75.032 194.314 -75.017 Q 194.231 -75.002 194.231 -75.002 L 194.231 -75.375 L 195.564 -75.629 L 195.946 -75.629 L 195.946 -69.406 Q 195.946 -69.122 195.99 -68.961 Q 196.034 -68.799 196.206 -68.735 Q 196.377 -68.671 196.74 -68.671 Z " fill="black" /><path d="M 200.17 -73.454 L 200.17 -73.454 Q 200.905 -73.454 201.454 -73.135 Q 202.002 -72.817 202.301 -72.244 Q 202.6 -71.67 202.6 -70.896 Q 202.6 -69.965 202.287 -69.367 Q 201.973 -68.769 201.424 -68.48 Q 200.875 -68.191 200.17 -68.191 Q 199.454 -68.191 198.901 -68.49 Q 198.347 -68.789 198.038 -69.387 Q 197.73 -69.985 197.73 -70.886 Q 197.73 -71.651 198.033 -72.229 Q 198.337 -72.807 198.886 -73.13 Q 199.435 -73.454 200.17 -73.454 Z M 200.15 -73.003 L 200.15 -73.003 Q 199.503 -73.003 199.136 -72.479 Q 198.768 -71.954 198.768 -70.945 Q 198.768 -69.7 199.146 -69.186 Q 199.523 -68.671 200.199 -68.671 Q 200.63 -68.681 200.934 -68.887 Q 201.238 -69.093 201.4 -69.578 Q 201.561 -70.063 201.561 -70.896 Q 201.561 -71.896 201.218 -72.449 Q 200.875 -73.003 200.15 -73.003 Z " fill="black" /><path d="M 204.021 -66.839 L 204.021 -66.839 L 203.855 -67.162 Q 204.06 -67.25 204.276 -67.393 Q 204.492 -67.535 204.634 -67.794 Q 204.776 -68.054 204.776 -68.475 Q 204.609 -68.407 204.433 -68.407 Q 204.109 -68.407 203.972 -68.598 Q 203.835 -68.789 203.835 -69.034 Q 203.835 -69.299 204.011 -69.495 Q 204.188 -69.691 204.521 -69.691 Q 204.942 -69.691 205.163 -69.431 Q 205.383 -69.171 205.383 -68.711 Q 205.383 -68.24 205.236 -67.912 Q 205.089 -67.584 204.869 -67.373 Q 204.648 -67.162 204.418 -67.04 Q 204.188 -66.917 204.021 -66.839 Z " fill="black" /><path d="M 208.372 -68.671 L 208.372 -68.671 L 208.372 -68.309 L 205.883 -68.309 L 205.883 -68.671 Q 206.226 -68.671 206.378 -68.745 Q 206.53 -68.819 206.569 -68.98 Q 206.608 -69.142 206.608 -69.406 L 206.608 -72.366 Q 206.608 -72.699 206.501 -72.768 Q 206.393 -72.836 206.138 -72.836 Q 206.011 -72.836 205.932 -72.827 Q 205.854 -72.817 205.854 -72.817 L 205.854 -73.209 L 207.167 -73.424 L 207.569 -73.424 L 207.569 -69.406 Q 207.569 -69.122 207.613 -68.961 Q 207.657 -68.799 207.828 -68.735 Q 208 -68.671 208.372 -68.671 Z M 207.079 -75.59 L 207.079 -75.59 Q 207.363 -75.59 207.554 -75.394 Q 207.745 -75.198 207.745 -74.944 Q 207.745 -74.708 207.554 -74.512 Q 207.363 -74.316 207.079 -74.316 Q 206.804 -74.316 206.623 -74.512 Q 206.442 -74.708 206.442 -74.944 Q 206.442 -75.198 206.623 -75.394 Q 206.804 -75.59 207.079 -75.59 Z " fill="black" /><path d="M 210.822 -73.424 L 210.822 -73.424 L 210.822 -72.582 L 210.871 -72.582 Q 211.254 -73.023 211.636 -73.238 Q 212.018 -73.454 212.479 -73.454 Q 212.998 -73.454 213.419 -73.145 Q 213.841 -72.836 214.091 -72.293 Q 214.341 -71.749 214.341 -71.043 Q 214.341 -70.122 214.012 -69.485 Q 213.684 -68.848 213.14 -68.52 Q 212.596 -68.191 211.959 -68.191 Q 211.655 -68.191 211.386 -68.27 Q 211.116 -68.348 210.891 -68.475 L 210.842 -68.475 L 210.842 -67.221 Q 210.842 -66.878 210.93 -66.697 Q 211.018 -66.515 211.244 -66.452 Q 211.469 -66.388 211.891 -66.388 L 211.891 -66.045 L 209.117 -66.045 L 209.117 -66.378 Q 209.46 -66.388 209.622 -66.452 Q 209.784 -66.515 209.838 -66.682 Q 209.891 -66.849 209.891 -67.152 L 209.891 -72.307 Q 209.891 -72.591 209.833 -72.714 Q 209.774 -72.836 209.49 -72.836 Q 209.401 -72.836 209.264 -72.827 Q 209.127 -72.817 209.127 -72.817 L 209.127 -73.209 L 210.45 -73.424 Z M 210.842 -72.082 L 210.842 -72.082 L 210.842 -69.318 Q 210.95 -69.21 211.112 -69.049 Q 211.273 -68.887 211.499 -68.765 Q 211.724 -68.642 211.989 -68.642 Q 212.351 -68.642 212.65 -68.863 Q 212.949 -69.083 213.135 -69.553 Q 213.321 -70.024 213.321 -70.749 Q 213.321 -71.67 212.988 -72.18 Q 212.655 -72.689 212.047 -72.689 Q 211.655 -72.689 211.332 -72.484 Q 211.009 -72.278 210.842 -72.082 Z " fill="black" /></g></g></g><circle cx="180.0" cy="-0.0" r="2.6999999999999997" style="stroke:black;fill:white;stroke-width:2.0;stroke-dasharray:-;" /><g><g><g><path d="M 189.1 -5.516 L 189.1 -5.516 L 189.408 -5.516 L 188.75 -2.828 Q 188.652 -2.464 188.547 -1.953 Q 188.442 -1.442 188.442 -0.966 Q 188.442 -0.42 188.666 -0.021 Q 188.89 0.378 189.534 0.378 Q 190.248 0.378 190.766 0.035 Q 191.284 -0.308 191.613 -0.84 Q 191.942 -1.372 192.103 -1.96 Q 192.264 -2.548 192.264 -3.038 Q 192.264 -3.402 192.138 -3.668 Q 192.012 -3.934 191.837 -4.144 Q 191.662 -4.354 191.536 -4.55 Q 191.41 -4.746 191.41 -4.97 Q 191.41 -5.25 191.564 -5.404 Q 191.718 -5.558 191.942 -5.558 Q 192.418 -5.558 192.712 -5.082 Q 193.006 -4.606 193.006 -3.864 Q 193.006 -3.22 192.845 -2.513 Q 192.684 -1.806 192.362 -1.134 Q 192.04 -0.462 191.564 0.084 Q 191.088 0.63 190.472 0.952 Q 189.856 1.274 189.1 1.274 Q 188.4 1.274 188.008 0.994 Q 187.616 0.714 187.455 0.252 Q 187.294 -0.21 187.294 -0.742 Q 187.294 -1.246 187.392 -1.778 Q 187.49 -2.31 187.602 -2.744 L 187.882 -3.808 Q 187.91 -3.92 187.966 -4.144 Q 188.022 -4.368 188.022 -4.578 Q 188.022 -4.76 187.952 -4.886 Q 187.882 -5.012 187.686 -5.012 Q 187.518 -5.012 187.28 -4.991 Q 187.042 -4.97 187.042 -4.97 L 187.042 -5.362 Z " fill="black" /><path d="M 196.74 3.725 L 196.74 3.725 L 196.74 4.088 L 194.26 4.088 L 194.26 3.725 Q 194.603 3.725 194.755 3.657 Q 194.907 3.588 194.946 3.426 Q 194.986 3.265 194.986 2.99 L 194.986 -2.184 Q 194.986 -2.498 194.873 -2.566 Q 194.76 -2.635 194.525 -2.635 Q 194.398 -2.635 194.314 -2.62 Q 194.231 -2.605 194.231 -2.605 L 194.231 -2.978 L 195.564 -3.233 L 195.946 -3.233 L 195.946 2.99 Q 195.946 3.275 195.99 3.436 Q 196.034 3.598 196.206 3.662 Q 196.377 3.725 196.74 3.725 Z " fill="black" /><path d="M 200.17 -1.057 L 200.17 -1.057 Q 200.905 -1.057 201.454 -0.739 Q 202.002 -0.42 202.301 0.153 Q 202.6 0.727 202.6 1.501 Q 202.6 2.432 202.287 3.03 Q 201.973 3.627 201.424 3.916 Q 200.875 4.206 200.17 4.206 Q 199.454 4.206 198.901 3.907 Q 198.347 3.608 198.038 3.01 Q 197.73 2.412 197.73 1.511 Q 197.73 0.746 198.033 0.168 Q 198.337 -0.41 198.886 -0.734 Q 199.435 -1.057 200.17 -1.057 Z M 200.15 -0.606 L 200.15 -0.606 Q 199.503 -0.606 199.136 -0.082 Q 198.768 0.442 198.768 1.452 Q 198.768 2.696 199.146 3.211 Q 199.523 3.725 200.199 3.725 Q 200.63 3.716 200.934 3.51 Q 201.238 3.304 201.4 2.819 Q 201.561 2.334 201.561 1.501 Q 201.561 0.501 201.218 -0.053 Q 200.875 -0.606 200.15 -0.606 Z " fill="black" /><path d="M 204.021 5.558 L 204.021 5.558 L 203.855 5.235 Q 204.06 5.146 204.276 5.004 Q 204.492 4.862 204.634 4.602 Q 204.776 4.343 204.776 3.921 Q 204.609 3.99 204.433 3.99 Q 204.109 3.99 203.972 3.799 Q 203.835 3.608 203.835 3.363 Q 203.835 3.098 204.011 2.902 Q 204.188 2.706 204.521 2.706 Q 204.942 2.706 205.163 2.966 Q 205.383 3.226 205.383 3.686 Q 205.383 4.157 205.236 4.485 Q 205.089 4.813 204.869 5.024 Q 204.648 5.235 204.418 5.357 Q 204.188 5.48 204.021 5.558 Z " fill="black" /><path d="M 208.372 3.725 L 208.372 3.725 L 208.372 4.088 L 205.883 4.088 L 205.883 3.725 Q 206.226 3.725 206.378 3.652 Q 206.53 3.578 206.569 3.417 Q 206.608 3.255 206.608 2.99 L 206.608 0.031 Q 206.608 -0.302 206.501 -0.371 Q 206.393 -0.44 206.138 -0.44 Q 206.011 -0.44 205.932 -0.43 Q 205.854 -0.42 205.854 -0.42 L 205.854 -0.812 L 207.167 -1.028 L 207.569 -1.028 L 207.569 2.99 Q 207.569 3.275 207.613 3.436 Q 207.657 3.598 207.828 3.662 Q 208 3.725 208.372 3.725 Z M 207.079 -3.193 L 207.079 -3.193 Q 207.363 -3.193 207.554 -2.997 Q 207.745 -2.801 207.745 -2.547 Q 207.745 -2.311 207.554 -2.115 Q 207.363 -1.919 207.079 -1.919 Q 206.804 -1.919 206.623 -2.115 Q 206.442 -2.311 206.442 -2.547 Q 206.442 -2.801 206.623 -2.997 Q 206.804 -3.193 207.079 -3.193 Z " fill="black" /><path d="M 214.194 0.805 L 214.194 0.805 L 214.194 3 Q 214.194 3.275 214.243 3.436 Q 214.292 3.598 214.458 3.667 Q 214.625 3.735 214.978 3.735 L 214.978 4.088 L 212.459 4.088 L 212.459 3.735 Q 212.831 3.735 212.998 3.667 Q 213.165 3.598 213.204 3.436 Q 213.243 3.275 213.243 3 L 213.243 1.128 Q 213.243 0.472 213.091 0.163 Q 212.939 -0.146 212.709 -0.244 Q 212.479 -0.342 212.243 -0.342 Q 211.822 -0.342 211.504 -0.126 Q 211.185 0.09 210.95 0.286 L 210.95 3 Q 210.95 3.275 210.994 3.436 Q 211.038 3.598 211.205 3.667 Q 211.371 3.735 211.734 3.735 L 211.734 4.088 L 209.264 4.088 L 209.264 3.735 Q 209.607 3.735 209.759 3.667 Q 209.911 3.598 209.95 3.436 Q 209.989 3.275 209.989 3 L 209.989 0.021 Q 209.989 -0.253 209.886 -0.346 Q 209.784 -0.44 209.558 -0.44 Q 209.441 -0.44 209.362 -0.43 Q 209.284 -0.42 209.284 -0.42 L 209.284 -0.792 L 210.597 -1.028 L 210.92 -1.028 L 210.92 -0.224 L 210.989 -0.224 Q 211.41 -0.606 211.797 -0.832 Q 212.185 -1.057 212.675 -1.057 Q 213.253 -1.057 213.581 -0.797 Q 213.909 -0.538 214.052 -0.116 Q 214.194 0.305 214.194 0.805 Z " fill="black" /></g></g></g><circle cx="180.0" cy="72.0" r="2.6999999999999997" style="stroke:black;fill:white;stroke-width:2.0;stroke-dasharray:-;" /><g><g><g><path d="M 189.1 66.087 L 189.1 66.087 L 189.408 66.087 L 188.75 68.775 Q 188.652 69.139 188.547 69.65 Q 188.442 70.161 188.442 70.637 Q 188.442 71.183 188.666 71.582 Q 188.89 71.981 189.534 71.981 Q 190.248 71.981 190.766 71.638 Q 191.284 71.295 191.613 70.763 Q 191.942 70.231 192.103 69.643 Q 192.264 69.055 192.264 68.565 Q 192.264 68.201 192.138 67.935 Q 192.012 67.669 191.837 67.459 Q 191.662 67.249 191.536 67.053 Q 191.41 66.857 191.41 66.633 Q 191.41 66.353 191.564 66.199 Q 191.718 66.045 191.942 66.045 Q 192.418 66.045 192.712 66.521 Q 193.006 66.997 193.006 67.739 Q 193.006 68.383 192.845 69.09 Q 192.684 69.797 192.362 70.469 Q 192.04 71.141 191.564 71.687 Q 191.088 72.233 190.472 72.555 Q 189.856 72.877 189.1 72.877 Q 188.4 72.877 188.008 72.597 Q 187.616 72.317 187.455 71.855 Q 187.294 71.393 187.294 70.861 Q 187.294 70.357 187.392 69.825 Q 187.49 69.293 187.602 68.859 L 187.882 67.795 Q 187.91 67.683 187.966 67.459 Q 188.022 67.235 188.022 67.025 Q 188.022 66.843 187.952 66.717 Q 187.882 66.591 187.686 66.591 Q 187.518 66.591 187.28 66.612 Q 187.042 66.633 187.042 66.633 L 187.042 66.241 Z " fill="black" /><path d="M 196.74 75.329 L 196.74 75.329 L 196.74 75.691 L 194.26 75.691 L 194.26 75.329 Q 194.603 75.329 194.755 75.26 Q 194.907 75.191 194.946 75.03 Q 194.986 74.868 194.986 74.594 L 194.986 69.419 Q 194.986 69.106 194.873 69.037 Q 194.76 68.968 194.525 68.968 Q 194.398 68.968 194.314 68.983 Q 194.231 68.998 194.231 68.998 L 194.231 68.625 L 195.564 68.371 L 195.946 68.371 L 195.946 74.594 Q 195.946 74.878 195.99 75.039 Q 196.034 75.201 196.206 75.265 Q 196.377 75.329 196.74 75.329 Z " fill="black" /><path d="M 200.17 70.546 L 200.17 70.546 Q 200.905 70.546 201.454 70.865 Q 202.002 71.183 202.301 71.756 Q 202.6 72.33 202.6 73.104 Q 202.6 74.035 202.287 74.633 Q 201.973 75.231 201.424 75.52 Q 200.875 75.809 200.17 75.809 Q 199.454 75.809 198.901 75.51 Q 198.347 75.211 198.038 74.613 Q 197.73 74.015 197.73 73.114 Q 197.73 72.349 198.033 71.771 Q 198.337 71.193 198.886 70.87 Q 199.435 70.546 200.17 70.546 Z M 200.15 70.997 L 200.15 70.997 Q 199.503 70.997 199.136 71.521 Q 198.768 72.046 198.768 73.055 Q 198.768 74.3 199.146 74.814 Q 199.523 75.329 200.199 75.329 Q 200.63 75.319 200.934 75.113 Q 201.238 74.907 201.4 74.422 Q 201.561 73.937 201.561 73.104 Q 201.561 72.104 201.218 71.551 Q 200.875 70.997 200.15 70.997 Z " fill="black" /><path d="M 204.021 77.161 L 204.021 77.161 L 203.855 76.838 Q 204.06 76.75 204.276 76.607 Q 204.492 76.465 204.634 76.206 Q 204.776 75.946 204.776 75.525 Q 204.609 75.593 204.433 75.593 Q 204.109 75.593 203.972 75.402 Q 203.835 75.211 203.835 74.966 Q 203.835 74.701 204.011 74.505 Q 204.188 74.309 204.521 74.309 Q 204.942 74.309 205.163 74.569 Q 205.383 74.829 205.383 75.289 Q 205.383 75.76 205.236 76.088 Q 205.089 76.416 204.869 76.627 Q 204.648 76.838 204.418 76.96 Q 204.188 77.083 204.021 77.161 Z " fill="black" /><path d="M 211.136 77.955 L 211.136 77.955 L 208.47 77.955 L 208.47 77.612 Q 208.921 77.612 209.132 77.534 Q 209.343 77.455 209.411 77.269 Q 209.48 77.083 209.48 76.769 L 209.48 75.064 L 209.431 75.064 Q 209.068 75.329 208.696 75.554 Q 208.323 75.779 207.775 75.779 Q 207.206 75.779 206.799 75.461 Q 206.393 75.142 206.177 74.594 Q 205.962 74.045 205.962 73.359 Q 205.962 72.516 206.29 71.884 Q 206.618 71.252 207.177 70.899 Q 207.735 70.546 208.421 70.546 Q 208.764 70.546 209.053 70.625 Q 209.343 70.703 209.705 70.928 L 210.107 70.585 L 210.43 70.585 L 210.43 76.877 Q 210.43 77.269 210.558 77.44 Q 210.685 77.612 211.136 77.612 Z M 209.48 74.574 L 209.48 74.574 L 209.48 71.742 Q 209.323 71.418 209.078 71.227 Q 208.833 71.036 208.421 71.036 Q 207.755 71.036 207.334 71.477 Q 206.912 71.918 206.912 72.928 Q 206.912 73.467 207.04 73.927 Q 207.167 74.388 207.471 74.667 Q 207.775 74.946 208.304 74.946 Q 208.696 74.946 208.98 74.839 Q 209.264 74.731 209.48 74.574 Z " fill="black" /><path d="M 213.488 70.576 L 213.488 70.576 L 213.488 71.418 L 213.537 71.418 Q 213.919 70.977 214.301 70.762 Q 214.684 70.546 215.144 70.546 Q 215.664 70.546 216.085 70.855 Q 216.506 71.164 216.756 71.707 Q 217.006 72.251 217.006 72.957 Q 217.006 73.878 216.678 74.515 Q 216.35 75.152 215.806 75.48 Q 215.262 75.809 214.625 75.809 Q 214.321 75.809 214.052 75.73 Q 213.782 75.652 213.557 75.525 L 213.508 75.525 L 213.508 76.779 Q 213.508 77.122 213.596 77.303 Q 213.684 77.485 213.909 77.548 Q 214.135 77.612 214.556 77.612 L 214.556 77.955 L 211.783 77.955 L 211.783 77.622 Q 212.126 77.612 212.287 77.548 Q 212.449 77.485 212.503 77.318 Q 212.557 77.151 212.557 76.848 L 212.557 71.693 Q 212.557 71.409 212.498 71.286 Q 212.439 71.164 212.155 71.164 Q 212.067 71.164 211.93 71.173 Q 211.793 71.183 211.793 71.183 L 211.793 70.791 L 213.116 70.576 Z M 213.508 71.918 L 213.508 71.918 L 213.508 74.682 Q 213.615 74.79 213.777 74.951 Q 213.939 75.113 214.164 75.235 Q 214.39 75.358 214.654 75.358 Q 215.017 75.358 215.316 75.137 Q 215.615 74.917 215.801 74.447 Q 215.987 73.976 215.987 73.251 Q 215.987 72.33 215.654 71.82 Q 215.321 71.311 214.713 71.311 Q 214.321 71.311 213.998 71.516 Q 213.674 71.722 213.508 71.918 Z " fill="black" /></g></g></g><circle cx="180.0" cy="144.0" r="2.6999999999999997" style="stroke:black;fill:white;stroke-width:2.0;stroke-dasharray:-;" /><g><g><g><path d="M 189.1 138.087 L 189.1 138.087 L 189.408 138.087 L 188.75 140.775 Q 188.652 141.139 188.547 141.65 Q 188.442 142.161 188.442 142.637 Q 188.442 143.183 188.666 143.582 Q 188.89 143.981 189.534 143.981 Q 190.248 143.981 190.766 143.638 Q 191.284 143.295 191.613 142.763 Q 191.942 142.231 192.103 141.643 Q 192.264 141.055 192.264 140.565 Q 192.264 140.201 192.138 139.935 Q 192.012 139.669 191.837 139.459 Q 191.662 139.249 191.536 139.053 Q 191.41 138.857 191.41 138.633 Q 191.41 138.353 191.564 138.199 Q 191.718 138.045 191.942 138.045 Q 192.418 138.045 192.712 138.521 Q 193.006 138.997 193.006 139.739 Q 193.006 140.383 192.845 141.09 Q 192.684 141.797 192.362 142.469 Q 192.04 143.141 191.564 143.687 Q 191.088 144.233 190.472 144.555 Q 189.856 144.877 189.1 144.877 Q 188.4 144.877 188.008 144.597 Q 187.616 144.317 187.455 143.855 Q 187.294 143.393 187.294 142.861 Q 187.294 142.357 187.392 141.825 Q 187.49 141.293 187.602 140.859 L 187.882 139.795 Q 187.91 139.683 187.966 139.459 Q 188.022 139.235 188.022 139.025 Q 188.022 138.843 187.952 138.717 Q 187.882 138.591 187.686 138.591 Q 187.518 138.591 187.28 138.612 Q 187.042 138.633 187.042 138.633 L 187.042 138.241 Z " fill="black" /><path d="M 196.74 147.329 L 196.74 147.329 L 196.74 147.691 L 194.26 147.691 L 194.26 147.329 Q 194.603 147.329 194.755 147.26 Q 194.907 147.191 194.946 147.03 Q 194.986 146.868 194.986 146.594 L 194.986 141.419 Q 194.986 141.106 194.873 141.037 Q 194.76 140.968 194.525 140.968 Q 194.398 140.968 194.314 140.983 Q 194.231 140.998 194.231 140.998 L 194.231 140.625 L 195.564 140.37 L 195.946 140.37 L 195.946 146.594 Q 195.946 146.878 195.99 147.039 Q 196.034 147.201 196.206 147.265 Q 196.377 147.329 196.74 147.329 Z " fill="black" /><path d="M 200.17 142.546 L 200.17 142.546 Q 200.905 142.546 201.454 142.865 Q 202.002 143.183 202.301 143.756 Q 202.6 144.33 202.6 145.104 Q 202.6 146.035 202.287 146.633 Q 201.973 147.231 201.424 147.52 Q 200.875 147.809 200.17 147.809 Q 199.454 147.809 198.901 147.51 Q 198.347 147.211 198.038 146.613 Q 197.73 146.015 197.73 145.114 Q 197.73 144.349 198.033 143.771 Q 198.337 143.193 198.886 142.87 Q 199.435 142.546 200.17 142.546 Z M 200.15 142.997 L 200.15 142.997 Q 199.503 142.997 199.136 143.521 Q 198.768 144.046 198.768 145.055 Q 198.768 146.299 199.146 146.814 Q 199.523 147.329 200.199 147.329 Q 200.63 147.319 200.934 147.113 Q 201.238 146.907 201.4 146.422 Q 201.561 145.937 201.561 145.104 Q 201.561 144.104 201.218 143.551 Q 200.875 142.997 200.15 142.997 Z " fill="black" /><path d="M 204.021 149.161 L 204.021 149.161 L 203.855 148.838 Q 204.06 148.75 204.276 148.607 Q 204.492 148.465 204.634 148.206 Q 204.776 147.946 204.776 147.525 Q 204.609 147.593 204.433 147.593 Q 204.109 147.593 203.972 147.402 Q 203.835 147.211 203.835 146.966 Q 203.835 146.701 204.011 146.505 Q 204.188 146.309 204.521 146.309 Q 204.942 146.309 205.163 146.569 Q 205.383 146.829 205.383 147.289 Q 205.383 147.76 205.236 148.088 Q 205.089 148.416 204.869 148.627 Q 204.648 148.838 204.418 148.96 Q 204.188 149.083 204.021 149.161 Z " fill="black" /><path d="M 211.136 149.955 L 211.136 149.955 L 208.47 149.955 L 208.47 149.612 Q 208.921 149.612 209.132 149.534 Q 209.343 149.455 209.411 149.269 Q 209.48 149.083 209.48 148.769 L 209.48 147.064 L 209.431 147.064 Q 209.068 147.329 208.696 147.554 Q 208.323 147.779 207.775 147.779 Q 207.206 147.779 206.799 147.461 Q 206.393 147.142 206.177 146.594 Q 205.962 146.045 205.962 145.359 Q 205.962 144.516 206.29 143.884 Q 206.618 143.252 207.177 142.899 Q 207.735 142.546 208.421 142.546 Q 208.764 142.546 209.053 142.625 Q 209.343 142.703 209.705 142.928 L 210.107 142.585 L 210.43 142.585 L 210.43 148.877 Q 210.43 149.269 210.558 149.44 Q 210.685 149.612 211.136 149.612 Z M 209.48 146.574 L 209.48 146.574 L 209.48 143.742 Q 209.323 143.418 209.078 143.227 Q 208.833 143.036 208.421 143.036 Q 207.755 143.036 207.334 143.477 Q 206.912 143.918 206.912 144.928 Q 206.912 145.466 207.04 145.927 Q 207.167 146.388 207.471 146.667 Q 207.775 146.946 208.304 146.946 Q 208.696 146.946 208.98 146.839 Q 209.264 146.731 209.48 146.574 Z " fill="black" /><path d="M 216.859 144.408 L 216.859 144.408 L 216.859 146.603 Q 216.859 146.878 216.908 147.039 Q 216.957 147.201 217.124 147.27 Q 217.29 147.338 217.643 147.338 L 217.643 147.691 L 215.125 147.691 L 215.125 147.338 Q 215.497 147.338 215.664 147.27 Q 215.83 147.201 215.869 147.039 Q 215.909 146.878 215.909 146.603 L 215.909 144.732 Q 215.909 144.075 215.757 143.766 Q 215.605 143.458 215.375 143.359 Q 215.144 143.262 214.909 143.262 Q 214.488 143.262 214.169 143.477 Q 213.851 143.693 213.615 143.889 L 213.615 146.603 Q 213.615 146.878 213.66 147.039 Q 213.704 147.201 213.87 147.27 Q 214.037 147.338 214.399 147.338 L 214.399 147.691 L 211.93 147.691 L 211.93 147.338 Q 212.273 147.338 212.425 147.27 Q 212.577 147.201 212.616 147.039 Q 212.655 146.878 212.655 146.603 L 212.655 143.624 Q 212.655 143.35 212.552 143.257 Q 212.449 143.163 212.224 143.163 Q 212.106 143.163 212.028 143.173 Q 211.949 143.183 211.949 143.183 L 211.949 142.811 L 213.263 142.576 L 213.586 142.576 L 213.586 143.379 L 213.655 143.379 Q 214.076 142.997 214.463 142.772 Q 214.85 142.546 215.34 142.546 Q 215.918 142.546 216.247 142.806 Q 216.575 143.066 216.717 143.487 Q 216.859 143.908 216.859 144.408 Z " fill="black" /></g></g></g><circle cx="144.0" cy="-0.0" r="2.6999999999999997" style="stroke:black;fill:black;stroke-width:2.0;stroke-dasharray:-;" /><circle cx="144.0" cy="144.0" r="2.6999999999999997" style="stroke:black;fill:black;stroke-width:2.0;stroke-dasharray:-;" /></svg>