<svg xmlns="http://www.w3.org/2000/svg" xmlns:xlink="http://www.w3.org/1999/xlink" xml:lang="en" height="249.232pt" width="381.2361999999999pt" viewBox="-31.62419999999999 -91.63199999999998 381.2361999999999 249.232"><path d="M 0.0,-0.0 L 18.0,-0.0 L 36.0,-0.0" style="stroke:black;fill:none;stroke-width:2.0;stroke-dasharray:-;stroke-linecap:round;stroke-linejoin:round;" /><path d="M 36.0,-0.0 L 54.0,-0.0 L 72.0,-0.0" style="stroke:black;fill:none;stroke-width:2.0;stroke-dasharray:-;stroke-linecap:round;stroke-linejoin:round;" /><path d="M 72.0,-0.0 L 87.0,2.7554552980815436e-15 L 87.0,-14.999999999999996 L 117.0,-14.999999999999991 L 117.0,8.266365894244634e-15 L 132.0,1.1021821192326178e-14" style="stroke:black;fill:none;stroke-width:2.0;stroke-dasharray:-;stroke-linecap:round;stroke-linejoin:round;" /><path d="M 87.0,-8.999999999999996 L 87.0,-14.999999999999996" style="stroke:black;fill:none;stroke-width:2.0;stroke-dasharray:-;stroke-linecap:round;stroke-linejoin:round;" /><path d="M 87.0 -1.9999999999999973 L 82.5 -8.999999999999996 L 91.5 -8.999999999999996 Z" style="stroke:black;fill:black;stroke-linecap:butt;stroke-linejoin:miter;" /><path d="M 90.0,-17.999999999999993 L 114.0,-17.99999999999999" style="stroke:black;fill:none;stroke-width:2.0;stroke-dasharray:-;stroke-linecap:round;stroke-linejoin:round;" /><path d="M 102.0,-32.99999999999999 L 102.0,-17.999999999999993" style="stroke:black;fill:none;stroke-width:2.0;stroke-dasharray:-;stroke-linecap:round;stroke-linejoin:round;" /><path d="M 132.0,1.1021821192326178e-14 L 185.99999999999997,1.1021821192326178e-14 L 239.99999999999997,1.1021821192326178e-14" style="stroke:black;fill:none;stroke-width:2.0;stroke-dasharray:-;stroke-linecap:round;stroke-linejoin:round;" /><path d="M 239.99999999999997,1.1021821192326178e-14 L 276.0,1.1021821192326178e-14 L 312.0,1.1021821192326178e-14" style="stroke:black;fill:none;stroke-width:2.0;stroke-dasharray:-;stroke-linecap:round;stroke-linejoin:round;" /><path d="M 102.0,-32.99999999999999 L 102.0,-50.99999999999999 L 102.0,-69.0" style="stroke:black;fill:none;stroke-width:2.0;stroke-dasharray:-;stroke-linecap:round;stroke-linejoin:round;" /><path d="M 0.0,144.0 L 18.0,144.0 L 36.0,144.0" style="stroke:black;fill:none;stroke-width:2.0;stroke-dasharray:-;stroke-linecap:round;stroke-linejoin:round;" /><path d="M 36.0,144.0 L 54.0,144.0 L 72.0,144.0" style="stroke:black;fill:none;stroke-width:2.0;stroke-dasharray:-;stroke-linecap:round;stroke-linejoin:round;" /><path d="M 72.0,144.0 L 87.0,144.0 L 87.0,129.0 L 117.0,129.0 L 117.0,144.0 L 132.0,144.0" style="stroke:black;fill:none;stroke-width:2.0;stroke-dasharray:-;stroke-linecap:round;stroke-linejoin:round;" /><path d="M 87.0,135.0 L 87.0,129.0" style="stroke:black;fill:none;stroke-width:2.0;stroke-dasharray:-;stroke-linecap:round;stroke-linejoin:round;" /><path d="M 87.0 142.0 L 82.5 135.0 L 91.5 135.0 Z" style="stroke:black;fill:black;stroke-linecap:butt;stroke-linejoin:miter;" /><path d="M 90.0,126.0 L 114.0,126.00000000000001" style="stroke:black;fill:none;stroke-width:2.0;stroke-dasharray:-;stroke-linecap:round;stroke-linejoin:round;" /><path d="M 102.0,111.0 L 102.0,126.0" style="stroke:black;fill:none;stroke-width:2.0;stroke-dasharray:-;stroke-linecap:round;stroke-linejoin:round;" /><path d="M 132.0,144.0 L 203.99999999999997,144.0 L 276.0,144.0" style="stroke:black;fill:none;stroke-width:2.0;stroke-dasharray:-;stroke-linecap:round;stroke-linejoin:round;" /><path d="M 276.0,144.0 L 294.0,144.0 L 312.0,144.0" style="stroke:black;fill:none;stroke-width:2.0;stroke-dasharray:-;stroke-linecap:round;stroke-linejoin:round;" /><path d="M 102.0,-32.99999999999999 L 102.0,39.00000000000001 L 102.00000000000003,111.0" style="stroke:black;fill:none;stroke-width:2.0;stroke-dasharray:-;stroke-linecap:round;stroke-linejoin:round;" /><path d="M 36.0,-0.0 L 35.99999999999999,18.0 L 35.99999999999999,36.0" style="stroke:black;fill:none;stroke-width:2.0;stroke-dasharray:-;stroke-linecap:round;stroke-linejoin:round;" /><path d="M 35.99999999999999,36.0 L 90.0,36.0 L 144.0,36.0" style="stroke:black;fill:none;stroke-width:2.0;stroke-dasharray:-;stroke-linecap:round;stroke-linejoin:round;" /><path d="M 144.0,36.0 L 158.99999999999997,36.0 L 159.0,21.000000000000007 L 189.0,21.00000000000001 L 189.0,36.00000000000001 L 203.99999999999997,36.00000000000001" style="stroke:black;fill:none;stroke-width:2.0;stroke-dasharray:-;stroke-linecap:round;stroke-linejoin:round;" /><path d="M 159.0,27.0 L 159.0,21.000000000000007" style="stroke:black;fill:none;stroke-width:2.0;stroke-dasharray:-;stroke-linecap:round;stroke-linejoin:round;" /><path d="M 158.99999999999997 34.0 L 154.49999999999997 26.99999999999999 L 163.49999999999997 27.00000000000001 Z" style="stroke:black;fill:black;stroke-linecap:butt;stroke-linejoin:miter;" /><path d="M 162.0,18.000000000000007 L 185.99999999999997,18.000000000000007" style="stroke:black;fill:none;stroke-width:2.0;stroke-dasharray:-;stroke-linecap:round;stroke-linejoin:round;" /><path d="M 174.00000000000003,3.0000000000000093 L 174.0,18.000000000000007" style="stroke:black;fill:none;stroke-width:2.0;stroke-dasharray:-;stroke-linecap:round;stroke-linejoin:round;" /><path d="M 203.99999999999997,36.00000000000001 L 239.99999999999997,36.00000000000001 L 276.0,36.00000000000001" style="stroke:black;fill:none;stroke-width:2.0;stroke-dasharray:-;stroke-linecap:round;stroke-linejoin:round;" /><path d="M 276.0,36.00000000000001 L 276.0,90.0 L 275.99999999999994,144.0" style="stroke:black;fill:none;stroke-width:2.0;stroke-dasharray:-;stroke-linecap:round;stroke-linejoin:round;" /><path d="M 174.00000000000003,3.0000000000000093 L 174.00000000000003,-32.99999999999999 L 174.00000000000003,-69.0" style="stroke:black;fill:none;stroke-width:2.0;stroke-dasharray:-;stroke-linecap:round;stroke-linejoin:round;" /><path d="M 36.0,144.0 L 36.0,126.0 L 36.0,108.0" style="stroke:black;fill:none;stroke-width:2.0;stroke-dasharray:-;stroke-linecap:round;stroke-linejoin:round;" /><path d="M 36.0,108.0 L 90.0,108.0 L 144.0,108.0" style="stroke:black;fill:none;stroke-width:2.0;stroke-dasharray:-;stroke-linecap:round;stroke-linejoin:round;" /><path d="M 144.0,108.0 L 158.99999999999997,108.0 L 159.0,93.0 L 189.0,93.0 L 189.0,108.00000000000001 L 203.99999999999997,108.00000000000001" style="stroke:black;fill:none;stroke-width:2.0;stroke-dasharray:-;stroke-linecap:round;stroke-linejoin:round;" /><path d="M 159.0,99.0 L 159.0,93.0" style="stroke:black;fill:none;stroke-width:2.0;stroke-dasharray:-;stroke-linecap:round;stroke-linejoin:round;" /><path d="M 158.99999999999997 106.0 L 154.49999999999997 98.99999999999999 L 163.49999999999997 99.00000000000001 Z" style="stroke:black;fill:black;stroke-linecap:butt;stroke-linejoin:miter;" /><path d="M 162.0,90.0 L 185.99999999999997,90.00000000000001" style="stroke:black;fill:none;stroke-width:2.0;stroke-dasharray:-;stroke-linecap:round;stroke-linejoin:round;" /><path d="M 174.00000000000003,75.0 L 174.0,90.0" style="stroke:black;fill:none;stroke-width:2.0;stroke-dasharray:-;stroke-linecap:round;stroke-linejoin:round;" /><path d="M 203.99999999999997,108.00000000000001 L 221.99999999999997,108.00000000000001 L 239.99999999999997,108.00000000000001" style="stroke:black;fill:none;stroke-width:2.0;stroke-dasharray:-;stroke-linecap:round;stroke-linejoin:round;" /><path d="M 239.99999999999997,108.00000000000001 L 239.99999999999997,54.000000000000014 L 239.99999999999997,1.5987211554602254e-14" style="stroke:black;fill:none;stroke-width:2.0;stroke-dasharray:-;stroke-linecap:round;stroke-linejoin:round;" /><path d="M 174.00000000000003,3.0000000000000093 L 174.00000000000003,39.00000000000001 L 174.00000000000003,75.0" style="stroke:black;fill:none;stroke-width:2.0;stroke-dasharray:-;stroke-linecap:round;stroke-linejoin:round;" /><circle cx="36.0" cy="-0.0" r="2.6999999999999997" style="stroke:black;fill:black;stroke-width:2.0;stroke-dasharray:-;" /><circle cx="0.0" cy="-0.0" r="2.6999999999999997" style="stroke:black;fill:white;stroke-width:2.0;stroke-dasharray:-;" /><g><g><g><path d="M -28.594 -5.913 L -28.594 -5.913 L -28.286 -5.913 L -28.944 -3.225 Q -29.042 -2.861 -29.147 -2.35 Q -29.252 -1.839 -29.252 -1.363 Q -29.252 -0.817 -29.028 -0.418 Q -28.804 -0.019 -28.16 -0.019 Q -27.446 -0.019 -26.928 -0.362 Q -26.41 -0.705 -26.081 -1.237 Q -25.752 -1.769 -25.591 -2.357 Q -25.43 -2.945 -25.43 -3.435 Q -25.43 -3.799 -25.556 -4.065 Q -25.682 -4.331 -25.857 -4.541 Q -26.032 -4.751 -26.158 -4.947 Q -26.284 -5.143 -26.284 -5.367 Q -26.284 -5.647 -26.13 -5.801 Q -25.976 -5.955 -25.752 -5.955 Q -25.276 -5.955 -24.982 -5.479 Q -24.688 -5.003 -24.688 -4.261 Q -24.688 -3.617 -24.849 -2.91 Q -25.01 -2.203 -25.332 -1.531 Q -25.654 -0.859 -26.13 -0.313 Q -26.606 0.233 -27.222 0.555 Q -27.838 0.877 -28.594 0.877 Q -29.294 0.877 -29.686 0.597 Q -30.078 0.317 -30.239 -0.145 Q -30.4 -0.607 -30.4 -1.139 Q -30.4 -1.643 -30.302 -2.175 Q -30.204 -2.707 -30.092 -3.141 L -29.812 -4.205 Q -29.784 -4.317 -29.728 -4.541 Q -29.672 -4.765 -29.672 -4.975 Q -29.672 -5.157 -29.742 -5.283 Q -29.812 -5.409 -30.008 -5.409 Q -30.176 -5.409 -30.414 -5.388 Q -30.652 -5.367 -30.652 -5.367 L -30.652 -5.759 Z " fill="black" /><path d="M -20.915 3.329 L -20.915 3.329 L -20.915 3.691 L -23.404 3.691 L -23.404 3.329 Q -23.061 3.329 -22.909 3.255 Q -22.757 3.182 -22.718 3.02 Q -22.679 2.858 -22.679 2.594 L -22.679 -0.366 Q -22.679 -0.699 -22.786 -0.768 Q -22.894 -0.836 -23.149 -0.836 Q -23.276 -0.836 -23.355 -0.827 Q -23.433 -0.817 -23.433 -0.817 L -23.433 -1.209 L -22.12 -1.424 L -21.718 -1.424 L -21.718 2.594 Q -21.718 2.878 -21.674 3.039 Q -21.63 3.201 -21.458 3.265 Q -21.287 3.329 -20.915 3.329 Z M -22.208 -3.59 L -22.208 -3.59 Q -21.924 -3.59 -21.733 -3.394 Q -21.542 -3.198 -21.542 -2.943 Q -21.542 -2.708 -21.733 -2.512 Q -21.924 -2.316 -22.208 -2.316 Q -22.483 -2.316 -22.664 -2.512 Q -22.845 -2.708 -22.845 -2.943 Q -22.845 -3.198 -22.664 -3.394 Q -22.483 -3.59 -22.208 -3.59 Z " fill="black" /><path d="M -15.093 0.408 L -15.093 0.408 L -15.093 2.603 Q -15.093 2.878 -15.044 3.039 Q -14.995 3.201 -14.829 3.27 Q -14.662 3.338 -14.309 3.338 L -14.309 3.691 L -16.828 3.691 L -16.828 3.338 Q -16.456 3.338 -16.289 3.27 Q -16.122 3.201 -16.083 3.039 Q -16.044 2.878 -16.044 2.603 L -16.044 0.732 Q -16.044 0.075 -16.196 -0.234 Q -16.348 -0.542 -16.578 -0.64 Q -16.808 -0.738 -17.044 -0.738 Q -17.465 -0.738 -17.783 -0.523 Q -18.102 -0.307 -18.337 -0.111 L -18.337 2.603 Q -18.337 2.878 -18.293 3.039 Q -18.249 3.201 -18.082 3.27 Q -17.916 3.338 -17.553 3.338 L -17.553 3.691 L -20.023 3.691 L -20.023 3.338 Q -19.68 3.338 -19.528 3.27 Q -19.376 3.201 -19.337 3.039 Q -19.298 2.878 -19.298 2.603 L -19.298 -0.376 Q -19.298 -0.65 -19.4 -0.743 Q -19.503 -0.836 -19.729 -0.836 Q -19.846 -0.836 -19.925 -0.827 Q -20.003 -0.817 -20.003 -0.817 L -20.003 -1.189 L -18.69 -1.424 L -18.367 -1.424 L -18.367 -0.621 L -18.298 -0.621 Q -17.877 -1.003 -17.489 -1.228 Q -17.102 -1.454 -16.612 -1.454 Q -16.034 -1.454 -15.706 -1.194 Q -15.378 -0.934 -15.235 -0.513 Q -15.093 -0.092 -15.093 0.408 Z " fill="black" /><path d="M -13.084 5.161 L -13.084 5.161 L -13.251 4.838 Q -13.045 4.75 -12.83 4.607 Q -12.614 4.465 -12.472 4.206 Q -12.33 3.946 -12.33 3.525 Q -12.496 3.593 -12.673 3.593 Q -12.996 3.593 -13.133 3.402 Q -13.271 3.211 -13.271 2.966 Q -13.271 2.701 -13.094 2.505 Q -12.918 2.309 -12.585 2.309 Q -12.163 2.309 -11.943 2.569 Q -11.722 2.829 -11.722 3.289 Q -11.722 3.76 -11.869 4.088 Q -12.016 4.416 -12.237 4.627 Q -12.457 4.838 -12.687 4.96 Q -12.918 5.083 -13.084 5.161 Z " fill="black" /><path d="M -9.664 -1.424 L -9.664 -1.424 L -9.664 -0.582 L -9.615 -0.582 Q -9.233 -1.023 -8.851 -1.238 Q -8.469 -1.454 -8.008 -1.454 Q -7.489 -1.454 -7.067 -1.145 Q -6.646 -0.836 -6.396 -0.293 Q -6.146 0.251 -6.146 0.957 Q -6.146 1.878 -6.474 2.515 Q -6.803 3.152 -7.346 3.48 Q -7.89 3.809 -8.527 3.809 Q -8.831 3.809 -9.101 3.73 Q -9.37 3.652 -9.596 3.525 L -9.645 3.525 L -9.645 4.779 Q -9.645 5.122 -9.556 5.303 Q -9.468 5.485 -9.243 5.548 Q -9.017 5.612 -8.596 5.612 L -8.596 5.955 L -11.369 5.955 L -11.369 5.622 Q -11.026 5.612 -10.865 5.548 Q -10.703 5.485 -10.649 5.318 Q -10.595 5.151 -10.595 4.848 L -10.595 -0.307 Q -10.595 -0.591 -10.654 -0.714 Q -10.713 -0.836 -10.997 -0.836 Q -11.085 -0.836 -11.222 -0.827 Q -11.36 -0.817 -11.36 -0.817 L -11.36 -1.209 L -10.037 -1.424 Z M -9.645 -0.082 L -9.645 -0.082 L -9.645 2.682 Q -9.537 2.79 -9.375 2.951 Q -9.213 3.113 -8.988 3.235 Q -8.763 3.358 -8.498 3.358 Q -8.135 3.358 -7.836 3.137 Q -7.538 2.917 -7.351 2.447 Q -7.165 1.976 -7.165 1.251 Q -7.165 0.33 -7.498 -0.18 Q -7.832 -0.689 -8.439 -0.689 Q -8.831 -0.689 -9.155 -0.484 Q -9.478 -0.278 -9.645 -0.082 Z " fill="black" /></g></g></g><circle cx="239.99999999999997" cy="1.1021821192326178e-14" r="2.6999999999999997" style="stroke:black;fill:black;stroke-width:2.0;stroke-dasharray:-;" /><circle cx="312.0" cy="1.1021821192326178e-14" r="2.6999999999999997" style="stroke:black;fill:white;stroke-width:2.0;stroke-dasharray:-;" /><g><g><g><path d="M 321.1 -5.913 L 321.1 -5.913 L 321.408 -5.913 L 320.75 -3.225 Q 320.652 -2.861 320.547 -2.35 Q 320.442 -1.839 320.442 -1.363 Q 320.442 -0.817 320.666 -0.418 Q 320.89 -0.019 321.534 -0.019 Q 322.248 -0.019 322.766 -0.362 Q 323.284 -0.705 323.613 -1.237 Q 323.942 -1.769 324.103 -2.357 Q 324.264 -2.945 324.264 -3.435 Q 324.264 -3.799 324.138 -4.065 Q 324.012 -4.331 323.837 -4.541 Q 323.662 -4.751 323.536 -4.947 Q 323.41 -5.143 323.41 -5.367 Q 323.41 -5.647 323.564 -5.801 Q 323.718 -5.955 323.942 -5.955 Q 324.418 -5.955 324.712 -5.479 Q 325.006 -5.003 325.006 -4.261 Q 325.006 -3.617 324.845 -2.91 Q 324.684 -2.203 324.362 -1.531 Q 324.04 -0.859 323.564 -0.313 Q 323.088 0.233 322.472 0.555 Q 321.856 0.877 321.1 0.877 Q 320.4 0.877 320.008 0.597 Q 319.616 0.317 319.455 -0.145 Q 319.294 -0.607 319.294 -1.139 Q 319.294 -1.643 319.392 -2.175 Q 319.49 -2.707 319.602 -3.141 L 319.882 -4.205 Q 319.91 -4.317 319.966 -4.541 Q 320.022 -4.765 320.022 -4.975 Q 320.022 -5.157 319.952 -5.283 Q 319.882 -5.409 319.686 -5.409 Q 319.518 -5.409 319.28 -5.388 Q 319.042 -5.367 319.042 -5.367 L 319.042 -5.759 Z " fill="black" /><path d="M 328.034 -1.454 L 328.034 -1.454 Q 328.769 -1.454 329.318 -1.135 Q 329.867 -0.817 330.166 -0.244 Q 330.465 0.33 330.465 1.104 Q 330.465 2.035 330.151 2.633 Q 329.837 3.231 329.289 3.52 Q 328.74 3.809 328.034 3.809 Q 327.319 3.809 326.765 3.51 Q 326.211 3.211 325.903 2.613 Q 325.594 2.015 325.594 1.114 Q 325.594 0.349 325.898 -0.229 Q 326.202 -0.807 326.75 -1.13 Q 327.299 -1.454 328.034 -1.454 Z M 328.015 -1.003 L 328.015 -1.003 Q 327.368 -1.003 327 -0.479 Q 326.633 0.046 326.633 1.055 Q 326.633 2.3 327.01 2.814 Q 327.387 3.329 328.064 3.329 Q 328.495 3.319 328.799 3.113 Q 329.102 2.907 329.264 2.422 Q 329.426 1.937 329.426 1.104 Q 329.426 0.104 329.083 -0.449 Q 328.74 -1.003 328.015 -1.003 Z " fill="black" /><path d="M 337.129 3.191 L 337.129 3.191 L 337.129 3.564 L 335.806 3.74 L 335.492 3.74 L 335.492 2.976 L 335.394 2.976 Q 335.022 3.309 334.639 3.549 Q 334.257 3.789 333.718 3.789 Q 332.993 3.789 332.611 3.348 Q 332.229 2.907 332.229 1.819 L 332.229 -0.288 Q 332.229 -0.689 332.087 -0.783 Q 331.944 -0.876 331.494 -0.876 L 331.494 -1.228 L 332.856 -1.415 L 333.179 -1.415 L 333.179 1.692 Q 333.179 2.241 333.307 2.545 Q 333.434 2.848 333.65 2.966 Q 333.865 3.084 334.12 3.084 Q 334.551 3.084 334.84 2.902 Q 335.129 2.721 335.443 2.466 L 335.443 -0.288 Q 335.443 -0.689 335.267 -0.783 Q 335.09 -0.876 334.59 -0.876 L 334.59 -1.228 L 336.051 -1.415 L 336.394 -1.415 L 336.394 2.554 Q 336.394 2.848 336.447 2.986 Q 336.501 3.123 336.639 3.157 Q 336.776 3.191 337.021 3.191 Z " fill="black" /><path d="M 340.951 2.711 L 340.951 2.711 L 341.176 2.897 Q 340.96 3.191 340.784 3.392 Q 340.608 3.593 340.382 3.701 Q 340.157 3.809 339.804 3.809 Q 339.236 3.809 338.976 3.485 Q 338.716 3.162 338.716 2.447 L 338.716 -0.846 L 338.099 -0.846 L 338.099 -1.14 Q 338.452 -1.395 338.746 -1.763 Q 339.04 -2.13 339.334 -2.816 L 339.677 -2.816 L 339.667 -1.326 L 340.911 -1.326 L 340.911 -0.846 L 339.667 -0.846 L 339.667 2.123 Q 339.667 2.672 339.77 2.902 Q 339.873 3.133 340.186 3.133 Q 340.47 3.133 340.617 3.03 Q 340.764 2.927 340.951 2.711 Z " fill="black" /><path d="M 342.264 5.161 L 342.264 5.161 L 342.097 4.838 Q 342.303 4.75 342.519 4.607 Q 342.734 4.465 342.876 4.206 Q 343.018 3.946 343.018 3.525 Q 342.852 3.593 342.675 3.593 Q 342.352 3.593 342.215 3.402 Q 342.078 3.211 342.078 2.966 Q 342.078 2.701 342.254 2.505 Q 342.43 2.309 342.764 2.309 Q 343.185 2.309 343.405 2.569 Q 343.626 2.829 343.626 3.289 Q 343.626 3.76 343.479 4.088 Q 343.332 4.416 343.111 4.627 Q 342.891 4.838 342.661 4.96 Q 342.43 5.083 342.264 5.161 Z " fill="black" /><path d="M 345.684 -1.424 L 345.684 -1.424 L 345.684 -0.582 L 345.733 -0.582 Q 346.115 -1.023 346.497 -1.238 Q 346.88 -1.454 347.34 -1.454 Q 347.86 -1.454 348.281 -1.145 Q 348.702 -0.836 348.952 -0.293 Q 349.202 0.251 349.202 0.957 Q 349.202 1.878 348.874 2.515 Q 348.546 3.152 348.002 3.48 Q 347.458 3.809 346.821 3.809 Q 346.517 3.809 346.248 3.73 Q 345.978 3.652 345.753 3.525 L 345.704 3.525 L 345.704 4.779 Q 345.704 5.122 345.792 5.303 Q 345.88 5.485 346.105 5.548 Q 346.331 5.612 346.752 5.612 L 346.752 5.955 L 343.979 5.955 L 343.979 5.622 Q 344.322 5.612 344.483 5.548 Q 344.645 5.485 344.699 5.318 Q 344.753 5.151 344.753 4.848 L 344.753 -0.307 Q 344.753 -0.591 344.694 -0.714 Q 344.635 -0.836 344.351 -0.836 Q 344.263 -0.836 344.126 -0.827 Q 343.989 -0.817 343.989 -0.817 L 343.989 -1.209 L 345.312 -1.424 Z M 345.704 -0.082 L 345.704 -0.082 L 345.704 2.682 Q 345.811 2.79 345.973 2.951 Q 346.135 3.113 346.36 3.235 Q 346.586 3.358 346.85 3.358 Q 347.213 3.358 347.512 3.137 Q 347.811 2.917 347.997 2.447 Q 348.183 1.976 348.183 1.251 Q 348.183 0.33 347.85 -0.18 Q 347.517 -0.689 346.909 -0.689 Q 346.517 -0.689 346.194 -0.484 Q 345.87 -0.278 345.704 -0.082 Z " fill="black" /></g></g></g><circle cx="102.0" cy="-69.0" r="2.6999999999999997" style="stroke:black;fill:white;stroke-width:2.0;stroke-dasharray:-;" /><g><g><g><path d="M 89.921 -87.168 L 89.921 -87.168 L 90.229 -87.168 L 89.571 -84.48 Q 89.473 -84.116 89.368 -83.605 Q 89.263 -83.094 89.263 -82.618 Q 89.263 -82.072 89.487 -81.673 Q 89.711 -81.274 90.355 -81.274 Q 91.069 -81.274 91.587 -81.617 Q 92.105 -81.96 92.434 -82.492 Q 92.763 -83.024 92.924 -83.612 Q 93.085 -84.2 93.085 -84.69 Q 93.085 -85.054 92.959 -85.32 Q 92.833 -85.586 92.658 -85.796 Q 92.483 -86.006 92.357 -86.202 Q 92.231 -86.398 92.231 -86.622 Q 92.231 -86.902 92.385 -87.056 Q 92.539 -87.21 92.763 -87.21 Q 93.239 -87.21 93.533 -86.734 Q 93.827 -86.258 93.827 -85.516 Q 93.827 -84.872 93.666 -84.165 Q 93.505 -83.458 93.183 -82.786 Q 92.861 -82.114 92.385 -81.568 Q 91.909 -81.022 91.293 -80.7 Q 90.677 -80.378 89.921 -80.378 Q 89.221 -80.378 88.829 -80.658 Q 88.437 -80.938 88.276 -81.4 Q 88.115 -81.862 88.115 -82.394 Q 88.115 -82.898 88.213 -83.43 Q 88.311 -83.962 88.423 -84.396 L 88.703 -85.46 Q 88.731 -85.572 88.787 -85.796 Q 88.843 -86.02 88.843 -86.23 Q 88.843 -86.412 88.773 -86.538 Q 88.703 -86.664 88.507 -86.664 Q 88.339 -86.664 88.101 -86.643 Q 87.863 -86.622 87.863 -86.622 L 87.863 -87.014 Z " fill="black" /><path d="M 100.844 -79.651 L 100.844 -79.651 L 100.589 -77.564 L 95.199 -77.564 L 95.199 -77.936 Q 95.64 -77.936 95.846 -78.01 Q 96.051 -78.083 96.115 -78.294 Q 96.179 -78.505 96.179 -78.916 L 96.179 -83.003 Q 96.179 -83.434 96.115 -83.664 Q 96.051 -83.895 95.846 -83.988 Q 95.64 -84.081 95.199 -84.081 L 95.199 -84.453 L 98.256 -84.453 L 98.256 -84.081 Q 97.825 -84.081 97.6 -83.993 Q 97.374 -83.904 97.291 -83.669 Q 97.208 -83.434 97.208 -82.993 L 97.208 -78.642 Q 97.208 -78.26 97.365 -78.157 Q 97.521 -78.054 97.913 -78.054 L 98.541 -78.054 Q 99.06 -78.054 99.374 -78.122 Q 99.687 -78.191 99.868 -78.362 Q 100.05 -78.534 100.167 -78.848 Q 100.285 -79.161 100.432 -79.651 Z " fill="black" /><path d="M 108.625 -80.974 L 108.625 -80.974 Q 108.625 -79.877 108.203 -79.083 Q 107.782 -78.289 107.008 -77.858 Q 106.234 -77.427 105.165 -77.427 Q 104.107 -77.427 103.333 -77.858 Q 102.559 -78.289 102.137 -79.093 Q 101.716 -79.896 101.716 -81.013 Q 101.716 -82.082 102.137 -82.88 Q 102.559 -83.679 103.338 -84.125 Q 104.117 -84.571 105.165 -84.571 Q 106.234 -84.571 107.008 -84.105 Q 107.782 -83.64 108.203 -82.831 Q 108.625 -82.023 108.625 -80.974 Z M 107.38 -81.111 L 107.38 -81.111 Q 107.38 -82.542 106.778 -83.307 Q 106.175 -84.071 105.156 -84.071 Q 104.146 -84.071 103.553 -83.297 Q 102.96 -82.523 102.96 -81.082 Q 102.96 -79.583 103.499 -78.769 Q 104.038 -77.956 105.175 -77.956 Q 106.312 -77.956 106.846 -78.745 Q 107.38 -79.534 107.38 -81.111 Z " fill="black" /><path d="M 110.095 -76.094 L 110.095 -76.094 L 109.928 -76.417 Q 110.134 -76.505 110.35 -76.647 Q 110.565 -76.79 110.707 -77.049 Q 110.849 -77.309 110.849 -77.73 Q 110.683 -77.662 110.506 -77.662 Q 110.183 -77.662 110.046 -77.853 Q 109.909 -78.044 109.909 -78.289 Q 109.909 -78.554 110.085 -78.75 Q 110.261 -78.946 110.595 -78.946 Q 111.016 -78.946 111.236 -78.686 Q 111.457 -78.426 111.457 -77.966 Q 111.457 -77.495 111.31 -77.167 Q 111.163 -76.839 110.942 -76.628 Q 110.722 -76.417 110.492 -76.295 Q 110.261 -76.172 110.095 -76.094 Z " fill="black" /><path d="M 113.515 -82.679 L 113.515 -82.679 L 113.515 -81.837 L 113.564 -81.837 Q 113.946 -82.278 114.328 -82.493 Q 114.711 -82.709 115.171 -82.709 Q 115.691 -82.709 116.112 -82.4 Q 116.533 -82.091 116.783 -81.547 Q 117.033 -81.004 117.033 -80.298 Q 117.033 -79.377 116.705 -78.74 Q 116.377 -78.103 115.833 -77.774 Q 115.289 -77.446 114.652 -77.446 Q 114.348 -77.446 114.078 -77.525 Q 113.809 -77.603 113.584 -77.73 L 113.535 -77.73 L 113.535 -76.476 Q 113.535 -76.133 113.623 -75.952 Q 113.711 -75.77 113.936 -75.707 Q 114.162 -75.643 114.583 -75.643 L 114.583 -75.3 L 111.81 -75.3 L 111.81 -75.633 Q 112.153 -75.643 112.314 -75.707 Q 112.476 -75.77 112.53 -75.937 Q 112.584 -76.104 112.584 -76.407 L 112.584 -81.562 Q 112.584 -81.846 112.525 -81.969 Q 112.466 -82.091 112.182 -82.091 Q 112.094 -82.091 111.957 -82.082 Q 111.82 -82.072 111.82 -82.072 L 111.82 -82.464 L 113.143 -82.679 Z M 113.535 -81.337 L 113.535 -81.337 L 113.535 -78.573 Q 113.642 -78.465 113.804 -78.304 Q 113.966 -78.142 114.191 -78.019 Q 114.417 -77.897 114.681 -77.897 Q 115.044 -77.897 115.343 -78.117 Q 115.642 -78.338 115.828 -78.808 Q 116.014 -79.279 116.014 -80.004 Q 116.014 -80.925 115.681 -81.435 Q 115.348 -81.944 114.74 -81.944 Q 114.348 -81.944 114.025 -81.739 Q 113.701 -81.533 113.535 -81.337 Z " fill="black" /></g></g></g><circle cx="36.0" cy="144.0" r="2.6999999999999997" style="stroke:black;fill:black;stroke-width:2.0;stroke-dasharray:-;" /><circle cx="0.0" cy="144.0" r="2.6999999999999997" style="stroke:black;fill:white;stroke-width:2.0;stroke-dasharray:-;" /><g><g><g><path d="M -29.035 138.484 L -29.035 138.484 L -28.727 138.484 L -29.385 141.172 Q -29.483 141.536 -29.588 142.047 Q -29.693 142.558 -29.693 143.034 Q -29.693 143.58 -29.469 143.979 Q -29.245 144.378 -28.601 144.378 Q -27.887 144.378 -27.369 144.035 Q -26.851 143.692 -26.522 143.16 Q -26.193 142.628 -26.032 142.04 Q -25.871 141.452 -25.871 140.962 Q -25.871 140.598 -25.997 140.332 Q -26.123 140.066 -26.298 139.856 Q -26.473 139.646 -26.599 139.45 Q -26.725 139.254 -26.725 139.03 Q -26.725 138.75 -26.571 138.596 Q -26.417 138.442 -26.193 138.442 Q -25.717 138.442 -25.423 138.918 Q -25.129 139.394 -25.129 140.136 Q -25.129 140.78 -25.29 141.487 Q -25.451 142.194 -25.773 142.866 Q -26.095 143.538 -26.571 144.084 Q -27.047 144.63 -27.663 144.952 Q -28.279 145.274 -29.035 145.274 Q -29.735 145.274 -30.127 144.994 Q -30.519 144.714 -30.68 144.252 Q -30.841 143.79 -30.841 143.258 Q -30.841 142.754 -30.743 142.222 Q -30.645 141.69 -30.533 141.256 L -30.253 140.192 Q -30.225 140.08 -30.169 139.856 Q -30.113 139.632 -30.113 139.422 Q -30.113 139.24 -30.183 139.114 Q -30.253 138.988 -30.449 138.988 Q -30.617 138.988 -30.855 139.009 Q -31.093 139.03 -31.093 139.03 L -31.093 138.638 Z " fill="black" /><path d="M -21.356 147.725 L -21.356 147.725 L -21.356 148.088 L -23.845 148.088 L -23.845 147.725 Q -23.502 147.725 -23.35 147.652 Q -23.198 147.578 -23.159 147.417 Q -23.12 147.255 -23.12 146.99 L -23.12 144.031 Q -23.12 143.698 -23.227 143.629 Q -23.335 143.56 -23.59 143.56 Q -23.717 143.56 -23.796 143.57 Q -23.874 143.58 -23.874 143.58 L -23.874 143.188 L -22.561 142.972 L -22.159 142.972 L -22.159 146.99 Q -22.159 147.275 -22.115 147.436 Q -22.071 147.598 -21.899 147.662 Q -21.728 147.725 -21.356 147.725 Z M -22.649 140.807 L -22.649 140.807 Q -22.365 140.807 -22.174 141.003 Q -21.983 141.199 -21.983 141.453 Q -21.983 141.689 -22.174 141.885 Q -22.365 142.081 -22.649 142.081 Q -22.924 142.081 -23.105 141.885 Q -23.286 141.689 -23.286 141.453 Q -23.286 141.199 -23.105 141.003 Q -22.924 140.807 -22.649 140.807 Z " fill="black" /><path d="M -15.534 144.805 L -15.534 144.805 L -15.534 147 Q -15.534 147.275 -15.485 147.436 Q -15.436 147.598 -15.27 147.667 Q -15.103 147.735 -14.75 147.735 L -14.75 148.088 L -17.269 148.088 L -17.269 147.735 Q -16.897 147.735 -16.73 147.667 Q -16.563 147.598 -16.524 147.436 Q -16.485 147.275 -16.485 147 L -16.485 145.128 Q -16.485 144.472 -16.637 144.163 Q -16.789 143.854 -17.019 143.756 Q -17.249 143.658 -17.485 143.658 Q -17.906 143.658 -18.224 143.874 Q -18.543 144.09 -18.778 144.286 L -18.778 147 Q -18.778 147.275 -18.734 147.436 Q -18.69 147.598 -18.523 147.667 Q -18.357 147.735 -17.994 147.735 L -17.994 148.088 L -20.464 148.088 L -20.464 147.735 Q -20.121 147.735 -19.969 147.667 Q -19.817 147.598 -19.778 147.436 Q -19.739 147.275 -19.739 147 L -19.739 144.021 Q -19.739 143.747 -19.841 143.654 Q -19.944 143.56 -20.17 143.56 Q -20.287 143.56 -20.366 143.57 Q -20.444 143.58 -20.444 143.58 L -20.444 143.208 L -19.131 142.972 L -18.808 142.972 L -18.808 143.776 L -18.739 143.776 Q -18.318 143.394 -17.931 143.168 Q -17.543 142.943 -17.053 142.943 Q -16.475 142.943 -16.147 143.203 Q -15.819 143.462 -15.677 143.884 Q -15.534 144.305 -15.534 144.805 Z " fill="black" /><path d="M -13.525 149.558 L -13.525 149.558 L -13.692 149.235 Q -13.486 149.146 -13.271 149.004 Q -13.055 148.862 -12.913 148.602 Q -12.771 148.343 -12.771 147.921 Q -12.937 147.99 -13.114 147.99 Q -13.437 147.99 -13.574 147.799 Q -13.712 147.608 -13.712 147.363 Q -13.712 147.098 -13.535 146.902 Q -13.359 146.706 -13.026 146.706 Q -12.604 146.706 -12.384 146.966 Q -12.163 147.226 -12.163 147.686 Q -12.163 148.157 -12.31 148.485 Q -12.457 148.813 -12.678 149.024 Q -12.898 149.235 -13.128 149.357 Q -13.359 149.48 -13.525 149.558 Z " fill="black" /><path d="M -6.734 144.805 L -6.734 144.805 L -6.734 147 Q -6.734 147.275 -6.685 147.436 Q -6.636 147.598 -6.469 147.667 Q -6.303 147.735 -5.95 147.735 L -5.95 148.088 L -8.469 148.088 L -8.469 147.735 Q -8.096 147.735 -7.93 147.667 Q -7.763 147.598 -7.724 147.436 Q -7.685 147.275 -7.685 147 L -7.685 145.128 Q -7.685 144.472 -7.837 144.163 Q -7.988 143.854 -8.219 143.756 Q -8.449 143.658 -8.684 143.658 Q -9.106 143.658 -9.424 143.874 Q -9.743 144.09 -9.978 144.286 L -9.978 147 Q -9.978 147.275 -9.934 147.436 Q -9.89 147.598 -9.723 147.667 Q -9.556 147.735 -9.194 147.735 L -9.194 148.088 L -11.663 148.088 L -11.663 147.735 Q -11.32 147.735 -11.168 147.667 Q -11.017 147.598 -10.977 147.436 Q -10.938 147.275 -10.938 147 L -10.938 144.021 Q -10.938 143.747 -11.041 143.654 Q -11.144 143.56 -11.369 143.56 Q -11.487 143.56 -11.565 143.57 Q -11.644 143.58 -11.644 143.58 L -11.644 143.208 L -10.331 142.972 L -10.007 142.972 L -10.007 143.776 L -9.939 143.776 Q -9.517 143.394 -9.13 143.168 Q -8.743 142.943 -8.253 142.943 Q -7.675 142.943 -7.347 143.203 Q -7.018 143.462 -6.876 143.884 Q -6.734 144.305 -6.734 144.805 Z " fill="black" /></g></g></g><circle cx="276.0" cy="144.0" r="2.6999999999999997" style="stroke:black;fill:black;stroke-width:2.0;stroke-dasharray:-;" /><circle cx="312.0" cy="144.0" r="2.6999999999999997" style="stroke:black;fill:white;stroke-width:2.0;stroke-dasharray:-;" /><g><g><g><path d="M 321.1 138.484 L 321.1 138.484 L 321.408 138.484 L 320.75 141.172 Q 320.652 141.536 320.547 142.047 Q 320.442 142.558 320.442 143.034 Q 320.442 143.58 320.666 143.979 Q 320.89 144.378 321.534 144.378 Q 322.248 144.378 322.766 144.035 Q 323.284 143.692 323.613 143.16 Q 323.942 142.628 324.103 142.04 Q 324.264 141.452 324.264 140.962 Q 324.264 140.598 324.138 140.332 Q 324.012 140.066 323.837 139.856 Q 323.662 139.646 323.536 139.45 Q 323.41 139.254 323.41 139.03 Q 323.41 138.75 323.564 138.596 Q 323.718 138.442 323.942 138.442 Q 324.418 138.442 324.712 138.918 Q 325.006 139.394 325.006 140.136 Q 325.006 140.78 324.845 141.487 Q 324.684 142.194 324.362 142.866 Q 324.04 143.538 323.564 144.084 Q 323.088 144.63 322.472 144.952 Q 321.856 145.274 321.1 145.274 Q 320.4 145.274 320.008 144.994 Q 319.616 144.714 319.455 144.252 Q 319.294 143.79 319.294 143.258 Q 319.294 142.754 319.392 142.222 Q 319.49 141.69 319.602 141.256 L 319.882 140.192 Q 319.91 140.08 319.966 139.856 Q 320.022 139.632 320.022 139.422 Q 320.022 139.24 319.952 139.114 Q 319.882 138.988 319.686 138.988 Q 319.518 138.988 319.28 139.009 Q 319.042 139.03 319.042 139.03 L 319.042 138.638 Z " fill="black" /><path d="M 328.034 142.943 L 328.034 142.943 Q 328.769 142.943 329.318 143.261 Q 329.867 143.58 330.166 144.153 Q 330.465 144.727 330.465 145.501 Q 330.465 146.432 330.151 147.03 Q 329.837 147.627 329.289 147.916 Q 328.74 148.206 328.034 148.206 Q 327.319 148.206 326.765 147.907 Q 326.211 147.608 325.903 147.01 Q 325.594 146.412 325.594 145.511 Q 325.594 144.746 325.898 144.168 Q 326.202 143.59 326.75 143.266 Q 327.299 142.943 328.034 142.943 Z M 328.015 143.394 L 328.015 143.394 Q 327.368 143.394 327 143.918 Q 326.633 144.442 326.633 145.452 Q 326.633 146.696 327.01 147.211 Q 327.387 147.725 328.064 147.725 Q 328.495 147.716 328.799 147.51 Q 329.102 147.304 329.264 146.819 Q 329.426 146.334 329.426 145.501 Q 329.426 144.501 329.083 143.947 Q 328.74 143.394 328.015 143.394 Z " fill="black" /><path d="M 337.129 147.588 L 337.129 147.588 L 337.129 147.961 L 335.806 148.137 L 335.492 148.137 L 335.492 147.373 L 335.394 147.373 Q 335.022 147.706 334.639 147.946 Q 334.257 148.186 333.718 148.186 Q 332.993 148.186 332.611 147.745 Q 332.229 147.304 332.229 146.216 L 332.229 144.109 Q 332.229 143.707 332.087 143.614 Q 331.944 143.521 331.494 143.521 L 331.494 143.168 L 332.856 142.982 L 333.179 142.982 L 333.179 146.089 Q 333.179 146.638 333.307 146.941 Q 333.434 147.245 333.65 147.363 Q 333.865 147.48 334.12 147.48 Q 334.551 147.48 334.84 147.299 Q 335.129 147.118 335.443 146.863 L 335.443 144.109 Q 335.443 143.707 335.267 143.614 Q 335.09 143.521 334.59 143.521 L 334.59 143.168 L 336.051 142.982 L 336.394 142.982 L 336.394 146.951 Q 336.394 147.245 336.447 147.382 Q 336.501 147.52 336.639 147.554 Q 336.776 147.588 337.021 147.588 Z " fill="black" /><path d="M 340.951 147.108 L 340.951 147.108 L 341.176 147.294 Q 340.96 147.588 340.784 147.789 Q 340.608 147.99 340.382 148.098 Q 340.157 148.206 339.804 148.206 Q 339.236 148.206 338.976 147.882 Q 338.716 147.559 338.716 146.843 L 338.716 143.551 L 338.099 143.551 L 338.099 143.257 Q 338.452 143.002 338.746 142.634 Q 339.04 142.267 339.334 141.581 L 339.677 141.581 L 339.667 143.07 L 340.911 143.07 L 340.911 143.551 L 339.667 143.551 L 339.667 146.52 Q 339.667 147.069 339.77 147.299 Q 339.873 147.529 340.186 147.529 Q 340.47 147.529 340.617 147.427 Q 340.764 147.324 340.951 147.108 Z " fill="black" /><path d="M 342.264 149.558 L 342.264 149.558 L 342.097 149.235 Q 342.303 149.146 342.519 149.004 Q 342.734 148.862 342.876 148.602 Q 343.018 148.343 343.018 147.921 Q 342.852 147.99 342.675 147.99 Q 342.352 147.99 342.215 147.799 Q 342.078 147.608 342.078 147.363 Q 342.078 147.098 342.254 146.902 Q 342.43 146.706 342.764 146.706 Q 343.185 146.706 343.405 146.966 Q 343.626 147.226 343.626 147.686 Q 343.626 148.157 343.479 148.485 Q 343.332 148.813 343.111 149.024 Q 342.891 149.235 342.661 149.357 Q 342.43 149.48 342.264 149.558 Z " fill="black" /><path d="M 349.055 144.805 L 349.055 144.805 L 349.055 147 Q 349.055 147.275 349.104 147.436 Q 349.153 147.598 349.32 147.667 Q 349.486 147.735 349.839 147.735 L 349.839 148.088 L 347.321 148.088 L 347.321 147.735 Q 347.693 147.735 347.86 147.667 Q 348.026 147.598 348.065 147.436 Q 348.105 147.275 348.105 147 L 348.105 145.128 Q 348.105 144.472 347.953 144.163 Q 347.801 143.854 347.57 143.756 Q 347.34 143.658 347.105 143.658 Q 346.684 143.658 346.365 143.874 Q 346.047 144.09 345.811 144.286 L 345.811 147 Q 345.811 147.275 345.855 147.436 Q 345.9 147.598 346.066 147.667 Q 346.233 147.735 346.595 147.735 L 346.595 148.088 L 344.126 148.088 L 344.126 147.735 Q 344.469 147.735 344.621 147.667 Q 344.773 147.598 344.812 147.436 Q 344.851 147.275 344.851 147 L 344.851 144.021 Q 344.851 143.747 344.748 143.654 Q 344.645 143.56 344.42 143.56 Q 344.302 143.56 344.224 143.57 Q 344.145 143.58 344.145 143.58 L 344.145 143.208 L 345.459 142.972 L 345.782 142.972 L 345.782 143.776 L 345.851 143.776 Q 346.272 143.394 346.659 143.168 Q 347.046 142.943 347.536 142.943 Q 348.114 142.943 348.443 143.203 Q 348.771 143.462 348.913 143.884 Q 349.055 144.305 349.055 144.805 Z " fill="black" /></g></g></g><circle cx="174.00000000000003" cy="-69.0" r="2.6999999999999997" style="stroke:black;fill:white;stroke-width:2.0;stroke-dasharray:-;" /><g><g><g><path d="M 161.7 -86.374 L 161.7 -86.374 L 162.008 -86.374 L 161.35 -83.686 Q 161.252 -83.322 161.147 -82.811 Q 161.042 -82.3 161.042 -81.824 Q 161.042 -81.278 161.266 -80.879 Q 161.49 -80.48 162.134 -80.48 Q 162.848 -80.48 163.366 -80.823 Q 163.884 -81.166 164.213 -81.698 Q 164.542 -82.23 164.703 -82.818 Q 164.864 -83.406 164.864 -83.896 Q 164.864 -84.26 164.738 -84.526 Q 164.612 -84.792 164.437 -85.002 Q 164.262 -85.212 164.136 -85.408 Q 164.01 -85.604 164.01 -85.828 Q 164.01 -86.108 164.164 -86.262 Q 164.318 -86.416 164.542 -86.416 Q 165.018 -86.416 165.312 -85.94 Q 165.606 -85.464 165.606 -84.722 Q 165.606 -84.078 165.445 -83.371 Q 165.284 -82.664 164.962 -81.992 Q 164.64 -81.32 164.164 -80.774 Q 163.688 -80.228 163.072 -79.906 Q 162.456 -79.584 161.7 -79.584 Q 161 -79.584 160.608 -79.864 Q 160.216 -80.144 160.055 -80.606 Q 159.894 -81.068 159.894 -81.6 Q 159.894 -82.104 159.992 -82.636 Q 160.09 -83.168 160.202 -83.602 L 160.482 -84.666 Q 160.51 -84.778 160.566 -85.002 Q 160.622 -85.226 160.622 -85.436 Q 160.622 -85.618 160.552 -85.744 Q 160.482 -85.87 160.286 -85.87 Q 160.118 -85.87 159.88 -85.849 Q 159.642 -85.828 159.642 -85.828 L 159.642 -86.22 Z " fill="black" /><path d="M 172.623 -78.857 L 172.623 -78.857 L 172.368 -76.77 L 166.978 -76.77 L 166.978 -77.142 Q 167.419 -77.142 167.625 -77.216 Q 167.831 -77.289 167.895 -77.5 Q 167.958 -77.711 167.958 -78.122 L 167.958 -82.209 Q 167.958 -82.64 167.895 -82.87 Q 167.831 -83.101 167.625 -83.194 Q 167.419 -83.287 166.978 -83.287 L 166.978 -83.659 L 170.036 -83.659 L 170.036 -83.287 Q 169.605 -83.287 169.379 -83.199 Q 169.154 -83.111 169.071 -82.875 Q 168.987 -82.64 168.987 -82.199 L 168.987 -77.848 Q 168.987 -77.466 169.144 -77.363 Q 169.301 -77.26 169.693 -77.26 L 170.32 -77.26 Q 170.84 -77.26 171.153 -77.329 Q 171.467 -77.397 171.648 -77.569 Q 171.829 -77.74 171.947 -78.054 Q 172.065 -78.367 172.212 -78.857 Z " fill="black" /><path d="M 180.404 -80.18 L 180.404 -80.18 Q 180.404 -79.083 179.983 -78.289 Q 179.562 -77.495 178.787 -77.064 Q 178.013 -76.633 176.945 -76.633 Q 175.887 -76.633 175.112 -77.064 Q 174.338 -77.495 173.917 -78.299 Q 173.495 -79.102 173.495 -80.22 Q 173.495 -81.288 173.917 -82.086 Q 174.338 -82.885 175.117 -83.331 Q 175.896 -83.777 176.945 -83.777 Q 178.013 -83.777 178.787 -83.311 Q 179.562 -82.846 179.983 -82.037 Q 180.404 -81.229 180.404 -80.18 Z M 179.16 -80.318 L 179.16 -80.318 Q 179.16 -81.748 178.557 -82.513 Q 177.954 -83.277 176.935 -83.277 Q 175.926 -83.277 175.333 -82.503 Q 174.74 -81.729 174.74 -80.288 Q 174.74 -78.789 175.279 -77.975 Q 175.818 -77.162 176.955 -77.162 Q 178.092 -77.162 178.626 -77.951 Q 179.16 -78.74 179.16 -80.318 Z " fill="black" /><path d="M 181.874 -75.3 L 181.874 -75.3 L 181.708 -75.623 Q 181.914 -75.712 182.129 -75.854 Q 182.345 -75.996 182.487 -76.255 Q 182.629 -76.515 182.629 -76.937 Q 182.462 -76.868 182.286 -76.868 Q 181.963 -76.868 181.825 -77.059 Q 181.688 -77.25 181.688 -77.495 Q 181.688 -77.76 181.865 -77.956 Q 182.041 -78.152 182.374 -78.152 Q 182.796 -78.152 183.016 -77.892 Q 183.237 -77.632 183.237 -77.172 Q 183.237 -76.701 183.09 -76.373 Q 182.943 -76.045 182.722 -75.834 Q 182.502 -75.623 182.271 -75.501 Q 182.041 -75.378 181.874 -75.3 Z " fill="black" /><path d="M 188.666 -80.053 L 188.666 -80.053 L 188.666 -77.858 Q 188.666 -77.583 188.715 -77.422 Q 188.764 -77.26 188.93 -77.191 Q 189.097 -77.123 189.45 -77.123 L 189.45 -76.77 L 186.931 -76.77 L 186.931 -77.123 Q 187.304 -77.123 187.47 -77.191 Q 187.637 -77.26 187.676 -77.422 Q 187.715 -77.583 187.715 -77.858 L 187.715 -79.73 Q 187.715 -80.386 187.563 -80.695 Q 187.411 -81.004 187.181 -81.102 Q 186.951 -81.2 186.716 -81.2 Q 186.294 -81.2 185.976 -80.984 Q 185.657 -80.768 185.422 -80.572 L 185.422 -77.858 Q 185.422 -77.583 185.466 -77.422 Q 185.51 -77.26 185.677 -77.191 Q 185.843 -77.123 186.206 -77.123 L 186.206 -76.77 L 183.736 -76.77 L 183.736 -77.123 Q 184.079 -77.123 184.231 -77.191 Q 184.383 -77.26 184.422 -77.422 Q 184.462 -77.583 184.462 -77.858 L 184.462 -80.837 Q 184.462 -81.111 184.359 -81.204 Q 184.256 -81.298 184.03 -81.298 Q 183.913 -81.298 183.834 -81.288 Q 183.756 -81.278 183.756 -81.278 L 183.756 -81.65 L 185.069 -81.886 L 185.393 -81.886 L 185.393 -81.082 L 185.461 -81.082 Q 185.883 -81.464 186.27 -81.69 Q 186.657 -81.915 187.147 -81.915 Q 187.725 -81.915 188.053 -81.655 Q 188.382 -81.396 188.524 -80.974 Q 188.666 -80.553 188.666 -80.053 Z " fill="black" /></g></g></g></svg>