<svg xmlns="http://www.w3.org/2000/svg" xmlns:xlink="http://www.w3.org/1999/xlink" xml:lang="en" height="293.59999999999997pt" width="338.0604pt" viewBox="-95.1844 -109.0 338.0604 293.59999999999997"><path d="M 0.0,-0.0 L 90.0,-0.0 L 90.0,-90.0 L 0.0,-90.0 L 0.0,-0.0" style="stroke:black;fill:none;stroke-width:2.0;stroke-dasharray:-;stroke-linecap:round;stroke-linejoin:round;" /><path d="M 0.0,-27.0 L -18.0,-27.0" style="stroke:black;fill:none;stroke-width:2.0;stroke-dasharray:-;stroke-linecap:round;stroke-linejoin:round;" /><path d="M 0.0,-33.300000000000004 L 12.600000000000001,-27.0 L 0.0,-20.7" style="stroke:black;fill:none;stroke-width:2.0;stroke-dasharray:-;stroke-linecap:round;stroke-linejoin:round;" /><path d="M 0.0,-63.0 L -18.0,-63.0" style="stroke:black;fill:none;stroke-width:2.0;stroke-dasharray:-;stroke-linecap:round;stroke-linejoin:round;" /><path d="M 90.0,-45.0 L 108.0,-45.0" style="stroke:black;fill:none;stroke-width:2.0;stroke-dasharray:-;stroke-linecap:round;stroke-linejoin:round;" /><path d="M 45.0,-0.0 L 45.0,18.0" style="stroke:black;fill:none;stroke-width:2.0;stroke-dasharray:-;stroke-linecap:round;stroke-linejoin:round;" /><path d="M 0.0,165.6 L 90.0,165.6 L 90.0,75.6 L 0.0,75.6 L 0.0,165.6" style="stroke:black;fill:none;stroke-width:2.0;stroke-dasharray:-;stroke-linecap:round;stroke-linejoin:round;" /><path d="M 0.0,138.6 L -18.0,138.6" style="stroke:black;fill:none;stroke-width:2.0;stroke-dasharray:-;stroke-linecap:round;stroke-linejoin:round;" /><path d="M 0.0,102.6 L -18.0,102.6" style="stroke:black;fill:none;stroke-width:2.0;stroke-dasharray:-;stroke-linecap:round;stroke-linejoin:round;" /><path d="M 0.0,96.3 L 12.600000000000001,102.6 L 0.0,108.89999999999998" style="stroke:black;fill:none;stroke-width:2.0;stroke-dasharray:-;stroke-linecap:round;stroke-linejoin:round;" /><path d="M 90.0,120.6 L 108.0,120.6" style="stroke:black;fill:none;stroke-width:2.0;stroke-dasharray:-;stroke-linecap:round;stroke-linejoin:round;" /><path d="M 45.0,75.6 L 45.0,57.59999999999999" style="stroke:black;fill:none;stroke-width:2.0;stroke-dasharray:-;stroke-linecap:round;stroke-linejoin:round;" /><path d="M -18.0,-63.0 L -27.0,-63.0 L -36.0,-63.0" style="stroke:black;fill:none;stroke-width:2.0;stroke-dasharray:-;stroke-linecap:round;stroke-linejoin:round;" /><path d="M -18.0,138.6 L -27.0,138.6 L -36.0,138.6" style="stroke:black;fill:none;stroke-width:2.0;stroke-dasharray:-;stroke-linecap:round;stroke-linejoin:round;" /><path d="M -18.0,-27.0 L -36.0,-27.000000000000004 L -54.0,-27.000000000000004" style="stroke:black;fill:none;stroke-width:2.0;stroke-dasharray:-;stroke-linecap:round;stroke-linejoin:round;" /><path d="M -18.0,102.6 L -36.0,102.6 L -54.0,102.6" style="stroke:black;fill:none;stroke-width:2.0;stroke-dasharray:-;stroke-linecap:round;stroke-linejoin:round;" /><path d="M 45.0,18.0 L 45.0,37.8 L 45.0,57.59999999999999" style="stroke:black;fill:none;stroke-width:2.0;stroke-dasharray:-;stroke-linecap:round;stroke-linejoin:round;" /><path d="M 108.0,-45.0 L 126.0,-45.0 L 144.0,-45.0" style="stroke:black;fill:none;stroke-width:2.0;stroke-dasharray:-;stroke-linecap:round;stroke-linejoin:round;" /><path d="M 144.0,-45.0 L 162.0,-45.0 L 180.0,-45.0" style="stroke:black;fill:none;stroke-width:2.0;stroke-dasharray:-;stroke-linecap:round;stroke-linejoin:round;" /><path d="M 108.0,120.6 L 126.0,120.6 L 144.0,120.6" style="stroke:black;fill:none;stroke-width:2.0;stroke-dasharray:-;stroke-linecap:round;stroke-linejoin:round;" /><path d="M 144.0,120.6 L 162.0,120.6 L 180.0,120.6" style="stroke:black;fill:none;stroke-width:2.0;stroke-dasharray:-;stroke-linecap:round;stroke-linejoin:round;" /><path d="M 102.60000000000001,54.0 L 126.0,54.0 L 126.0,36.0 L 126.0,18.0 L 102.60000000000001,18.0 L 102.60000000000001,18.0 L 101.44673604034718,18.036982930493945 L 100.29821108967889,18.14777975118157 L 99.1591446833753,18.331935174160826 L 98.03421748962887,18.58869246529747 L 96.92805207557483,18.916996553807966 L 95.84519391217127,19.31549836777161 L 94.79009269588396,19.782560377756457 L 93.76708406392912,20.316263325778994 L 92.78037177821012,20.914414111946872 L 91.83401045115811,21.57455480637678 L 90.93188888445981,22.293972749355586 L 90.07771408913723,23.0697116982409 L 89.27499605264433,23.8985839752963 L 88.52703331557547,24.7771835665428 L 87.83689941725478,25.70190011780095 L 87.20743026590378,26.66893377041055 L 86.641212485286,27.674310775664964 L 86.14057278571538,28.713899823796915 L 85.7075684031043,29.783429020416463 L 85.3439786453401,30.878503440641417 L 85.05129758072718,31.994623188786342 L 84.83072789853989,33.127201889399174 L 84.68317596691443,34.271585533661735 L 84.60924810838762,35.42307160371021 L 84.60924810838762,36.5769283962898 L 84.68317596691443,37.72841446633828 L 84.83072789853989,38.872798110600826 L 85.05129758072718,40.00537681121366 L 85.3439786453401,41.12149655935858 L 85.7075684031043,42.21657097958354 L 86.14057278571538,43.286100176203085 L 86.641212485286,44.325689224335036 L 87.20743026590378,45.33106622958945 L 87.83689941725478,46.298099882199054 L 88.52703331557547,47.2228164334572 L 89.27499605264433,48.10141602470371 L 90.07771408913726,48.9302883017591 L 90.93188888445981,49.70602725064442 L 91.83401045115812,50.425445193623226 L 92.78037177821012,51.08558588805314 L 93.76708406392912,51.68373667422101 L 94.79009269588396,52.217439622243546 L 95.84519391217127,52.68450163222839 L 96.92805207557483,53.08300344619204 L 98.03421748962887,53.41130753470253 L 99.1591446833753,53.668064825839174 L 100.29821108967889,53.852220248818426 L 101.44673604034718,53.96301706950605 L 102.60000000000001,54.0" style="stroke:black;fill:none;stroke-width:2.0;stroke-dasharray:-;stroke-linecap:round;stroke-linejoin:round;" /><path d="M 126.0,45.0 L 138.6,45.0" style="stroke:black;fill:none;stroke-width:2.0;stroke-dasharray:-;stroke-linecap:round;stroke-linejoin:round;" /><path d="M 126.0,27.0 L 138.6,27.0" style="stroke:black;fill:none;stroke-width:2.0;stroke-dasharray:-;stroke-linecap:round;stroke-linejoin:round;" /><path d="M 72.0,36.0 L 84.60000000000001,36.0" style="stroke:black;fill:none;stroke-width:2.0;stroke-dasharray:-;stroke-linecap:round;stroke-linejoin:round;" /><path d="M 144.0,-45.0 L 144.0,27.0 L 138.6,27.0" style="stroke:black;fill:none;stroke-width:2.0;stroke-dasharray:-;stroke-linecap:round;stroke-linejoin:round;" /><path d="M 144.0,120.6 L 144.0,45.0 L 138.6,45.0" style="stroke:black;fill:none;stroke-width:2.0;stroke-dasharray:-;stroke-linecap:round;stroke-linejoin:round;" /><path d="M 72.0,36.0 L 58.5,36.0 L 45.0,35.99999999999999" style="stroke:black;fill:none;stroke-width:2.0;stroke-dasharray:-;stroke-linecap:round;stroke-linejoin:round;" /><g><g><g><path d="M 6.688 -58.401 L 6.688 -58.401 L 6.688 -67.599 L 9.04 -67.599 Q 11.21 -67.599 12.344 -66.416 Q 13.478 -65.233 13.478 -63.035 Q 13.478 -60.837 12.351 -59.619 Q 11.224 -58.401 9.096 -58.401 Z M 7.892 -59.381 L 7.892 -59.381 L 8.956 -59.381 Q 10.608 -59.381 11.427 -60.34 Q 12.246 -61.299 12.246 -63.035 Q 12.246 -64.771 11.427 -65.695 Q 10.608 -66.619 8.956 -66.619 L 7.892 -66.619 Z " fill="black" /></g></g></g><g><g><g><path d="M 83.466 -39.169 L 83.466 -39.169 Q 82.178 -39.169 81.296 -39.785 Q 80.414 -40.401 80.008 -41.353 Q 79 -41.493 78.23 -42.102 Q 77.46 -42.711 77.026 -43.733 Q 76.592 -44.755 76.592 -46.113 Q 76.592 -47.583 77.103 -48.64 Q 77.614 -49.697 78.517 -50.264 Q 79.42 -50.831 80.596 -50.831 Q 81.786 -50.831 82.689 -50.264 Q 83.592 -49.697 84.103 -48.64 Q 84.614 -47.583 84.614 -46.113 Q 84.614 -44.783 84.201 -43.782 Q 83.788 -42.781 83.039 -42.158 Q 82.29 -41.535 81.296 -41.367 Q 81.618 -40.765 82.227 -40.464 Q 82.836 -40.163 83.62 -40.163 Q 83.914 -40.163 84.152 -40.198 Q 84.39 -40.233 84.572 -40.289 L 84.81 -39.365 Q 84.6 -39.295 84.25 -39.232 Q 83.9 -39.169 83.466 -39.169 Z M 80.596 -42.305 L 80.596 -42.305 Q 81.436 -42.305 82.059 -42.767 Q 82.682 -43.229 83.025 -44.083 Q 83.368 -44.937 83.368 -46.099 Q 83.368 -47.835 82.612 -48.815 Q 81.856 -49.795 80.596 -49.795 Q 79.336 -49.795 78.58 -48.808 Q 77.824 -47.821 77.824 -46.099 Q 77.824 -44.951 78.167 -44.097 Q 78.51 -43.243 79.133 -42.774 Q 79.756 -42.305 80.596 -42.305 Z " fill="black" /></g></g></g><g><g><g><path d="M 42.851 -5.4 L 42.851 -5.4 L 42.851 -14.598 L 45.805 -14.598 Q 46.757 -14.598 47.499 -14.346 Q 48.241 -14.094 48.661 -13.534 Q 49.081 -12.974 49.081 -12.022 Q 49.081 -10.916 48.507 -10.272 Q 47.933 -9.628 46.981 -9.404 L 49.361 -5.4 L 48.003 -5.4 L 45.749 -9.278 L 44.055 -9.278 L 44.055 -5.4 Z M 44.055 -10.244 L 44.055 -10.244 L 45.623 -10.244 Q 46.715 -10.244 47.303 -10.678 Q 47.891 -11.112 47.891 -12.008 Q 47.891 -12.904 47.303 -13.268 Q 46.715 -13.632 45.623 -13.632 L 44.055 -13.632 Z " fill="black" /></g></g></g><g><g><g><path d="M 6.688 143.199 L 6.688 143.199 L 6.688 134.001 L 9.04 134.001 Q 11.21 134.001 12.344 135.184 Q 13.478 136.367 13.478 138.565 Q 13.478 140.763 12.351 141.981 Q 11.224 143.199 9.096 143.199 Z M 7.892 142.219 L 7.892 142.219 L 8.956 142.219 Q 10.608 142.219 11.427 141.26 Q 12.246 140.301 12.246 138.565 Q 12.246 136.829 11.427 135.905 Q 10.608 134.981 8.956 134.981 L 7.892 134.981 Z " fill="black" /></g></g></g><g><g><g><path d="M 83.466 126.431 L 83.466 126.431 Q 82.178 126.431 81.296 125.815 Q 80.414 125.199 80.008 124.247 Q 79 124.107 78.23 123.498 Q 77.46 122.889 77.026 121.867 Q 76.592 120.845 76.592 119.487 Q 76.592 118.017 77.103 116.96 Q 77.614 115.903 78.517 115.336 Q 79.42 114.769 80.596 114.769 Q 81.786 114.769 82.689 115.336 Q 83.592 115.903 84.103 116.96 Q 84.614 118.017 84.614 119.487 Q 84.614 120.817 84.201 121.818 Q 83.788 122.819 83.039 123.442 Q 82.29 124.065 81.296 124.233 Q 81.618 124.835 82.227 125.136 Q 82.836 125.437 83.62 125.437 Q 83.914 125.437 84.152 125.402 Q 84.39 125.367 84.572 125.311 L 84.81 126.235 Q 84.6 126.305 84.25 126.368 Q 83.9 126.431 83.466 126.431 Z M 80.596 123.295 L 80.596 123.295 Q 81.436 123.295 82.059 122.833 Q 82.682 122.371 83.025 121.517 Q 83.368 120.663 83.368 119.501 Q 83.368 117.765 82.612 116.785 Q 81.856 115.805 80.596 115.805 Q 79.336 115.805 78.58 116.792 Q 77.824 117.779 77.824 119.501 Q 77.824 120.649 78.167 121.503 Q 78.51 122.357 79.133 122.826 Q 79.756 123.295 80.596 123.295 Z " fill="black" /></g></g></g><g><g><g><path d="M 42.851 90.198 L 42.851 90.198 L 42.851 81 L 45.805 81 Q 46.757 81 47.499 81.252 Q 48.241 81.504 48.661 82.064 Q 49.081 82.624 49.081 83.576 Q 49.081 84.682 48.507 85.326 Q 47.933 85.97 46.981 86.194 L 49.361 90.198 L 48.003 90.198 L 45.749 86.32 L 44.055 86.32 L 44.055 90.198 Z M 44.055 85.354 L 44.055 85.354 L 45.623 85.354 Q 46.715 85.354 47.303 84.92 Q 47.891 84.486 47.891 83.59 Q 47.891 82.694 47.303 82.33 Q 46.715 81.966 45.623 81.966 L 44.055 81.966 Z " fill="black" /></g></g></g><g><g><g><path d="M -40.916 -58.59 L -40.916 -58.59 L -42.078 -58.59 L -42.078 -65.996 L -43.884 -65.996 L -43.884 -66.752 Q -43.142 -66.864 -42.666 -67.025 Q -42.19 -67.186 -41.798 -67.41 L -40.916 -67.41 Z " fill="black" /></g></g></g><g><g><g><path d="M -40.916 143.01 L -40.916 143.01 L -42.078 143.01 L -42.078 135.604 L -43.884 135.604 L -43.884 134.848 Q -43.142 134.736 -42.666 134.575 Q -42.19 134.414 -41.798 134.19 L -40.916 134.19 Z " fill="black" /></g></g></g><circle cx="-54.0" cy="-27.000000000000004" r="2.6999999999999997" style="stroke:black;fill:white;stroke-width:2.0;stroke-dasharray:-;" /><g><g><g><path d="M -76.894 -30.136 L -76.894 -30.136 L -75.69 -30.136 Q -75.564 -30.724 -75.417 -31.27 Q -75.27 -31.816 -75.032 -32.25 Q -74.85 -32.586 -74.584 -32.88 Q -74.318 -33.174 -73.905 -33.363 Q -73.492 -33.552 -72.89 -33.552 Q -72.246 -33.552 -71.903 -33.265 Q -71.56 -32.978 -71.56 -32.53 Q -71.56 -32.222 -71.728 -32.068 Q -71.896 -31.914 -72.12 -31.914 Q -72.4 -31.914 -72.526 -32.075 Q -72.652 -32.236 -72.68 -32.46 Q -72.722 -32.726 -72.785 -32.936 Q -72.848 -33.146 -73.1 -33.146 Q -73.632 -33.146 -73.926 -32.586 Q -74.22 -32.026 -74.374 -31.13 L -74.542 -30.136 L -73.212 -30.136 L -73.296 -29.562 L -74.612 -29.562 L -75.41 -24.788 Q -75.466 -24.424 -75.585 -23.878 Q -75.704 -23.332 -75.914 -22.737 Q -76.124 -22.142 -76.425 -21.624 Q -76.726 -21.106 -77.16 -20.777 Q -77.594 -20.448 -78.168 -20.448 Q -78.84 -20.448 -79.127 -20.77 Q -79.414 -21.092 -79.414 -21.456 Q -79.414 -21.75 -79.267 -21.946 Q -79.12 -22.142 -78.854 -22.142 Q -78.532 -22.142 -78.42 -21.953 Q -78.308 -21.764 -78.28 -21.519 Q -78.252 -21.274 -78.196 -21.085 Q -78.14 -20.896 -77.944 -20.896 Q -77.664 -20.896 -77.454 -21.26 Q -77.244 -21.624 -77.09 -22.163 Q -76.936 -22.702 -76.838 -23.234 Q -76.74 -23.766 -76.684 -24.116 L -75.774 -29.562 L -76.95 -29.562 Z " fill="black" /><path d="M -72.096 -25.774 L -72.096 -25.774 L -72.096 -24.715 L -72.038 -24.715 Q -71.646 -25.264 -71.337 -25.553 Q -71.028 -25.842 -70.666 -25.842 Q -70.038 -25.842 -70.038 -25.225 Q -70.038 -24.882 -70.19 -24.745 Q -70.342 -24.607 -70.519 -24.607 Q -70.695 -24.607 -70.837 -24.705 Q -70.979 -24.803 -71.077 -24.901 Q -71.175 -24.999 -71.224 -24.999 Q -71.381 -24.999 -71.631 -24.735 Q -71.881 -24.47 -72.077 -24.137 L -72.077 -21.785 Q -72.077 -21.305 -71.866 -21.163 Q -71.655 -21.021 -71.116 -21.021 L -71.116 -20.658 L -73.782 -20.658 L -73.782 -21.021 Q -73.449 -21.021 -73.292 -21.079 Q -73.135 -21.138 -73.086 -21.29 Q -73.037 -21.442 -73.037 -21.716 L -73.037 -24.558 Q -73.037 -24.872 -73.091 -25.029 Q -73.145 -25.186 -73.449 -25.186 Q -73.586 -25.186 -73.684 -25.176 Q -73.782 -25.166 -73.782 -25.166 L -73.782 -25.529 L -72.459 -25.774 Z " fill="black" /><path d="M -65.129 -22.118 L -65.129 -22.118 L -64.893 -21.932 Q -65.099 -21.56 -65.354 -21.246 Q -65.609 -20.932 -65.981 -20.746 Q -66.354 -20.56 -66.922 -20.56 Q -67.539 -20.56 -68.073 -20.839 Q -68.608 -21.119 -68.931 -21.697 Q -69.254 -22.275 -69.254 -23.157 Q -69.254 -24.029 -68.951 -24.617 Q -68.647 -25.205 -68.127 -25.504 Q -67.608 -25.803 -66.971 -25.803 Q -66.089 -25.803 -65.506 -25.191 Q -64.923 -24.578 -64.903 -23.363 L -68.353 -23.363 Q -68.353 -22.696 -68.103 -22.26 Q -67.853 -21.824 -67.461 -21.614 Q -67.069 -21.403 -66.638 -21.403 Q -66.197 -21.403 -65.932 -21.496 Q -65.668 -21.589 -65.486 -21.756 Q -65.305 -21.922 -65.129 -22.118 Z M -68.353 -23.814 L -68.353 -23.814 L -65.952 -23.814 Q -65.952 -24.206 -66.079 -24.553 Q -66.207 -24.901 -66.452 -25.122 Q -66.697 -25.342 -67.079 -25.342 Q -67.637 -25.342 -67.966 -24.95 Q -68.294 -24.558 -68.353 -23.814 Z " fill="black" /><path d="M -63.933 -25.676 L -63.933 -25.676 L -63.149 -25.676 Q -63.149 -26.195 -63.075 -26.558 Q -63.002 -26.92 -62.816 -27.283 Q -62.59 -27.636 -62.272 -27.856 Q -61.953 -28.077 -61.365 -28.077 Q -60.866 -28.077 -60.513 -27.886 Q -60.16 -27.694 -60.16 -27.322 Q -60.16 -27.087 -60.292 -26.964 Q -60.425 -26.842 -60.601 -26.842 Q -60.817 -26.842 -60.939 -26.964 Q -61.062 -27.087 -61.258 -27.293 Q -61.395 -27.489 -61.503 -27.562 Q -61.61 -27.636 -61.757 -27.636 Q -62.032 -27.636 -62.12 -27.371 Q -62.208 -27.106 -62.208 -26.46 L -62.208 -25.676 L -60.934 -25.676 L -60.934 -25.195 L -62.208 -25.195 L -62.208 -21.961 Q -62.208 -21.56 -62.12 -21.359 Q -62.032 -21.158 -61.797 -21.089 Q -61.561 -21.021 -61.13 -21.021 L -61.13 -20.658 L -64.021 -20.658 L -64.021 -21.021 Q -63.649 -21.021 -63.463 -21.089 Q -63.276 -21.158 -63.213 -21.359 Q -63.149 -21.56 -63.149 -21.961 L -63.149 -25.195 L -63.933 -25.195 Z " fill="black" /></g></g></g><circle cx="-54.0" cy="102.6" r="2.6999999999999997" style="stroke:black;fill:white;stroke-width:2.0;stroke-dasharray:-;" /><g><g><g><path d="M -73.141 99.464 L -73.141 99.464 L -71.937 99.464 Q -71.811 98.876 -71.664 98.33 Q -71.517 97.784 -71.279 97.35 Q -71.097 97.014 -70.831 96.72 Q -70.565 96.426 -70.152 96.237 Q -69.739 96.048 -69.137 96.048 Q -68.493 96.048 -68.15 96.335 Q -67.807 96.622 -67.807 97.07 Q -67.807 97.378 -67.975 97.532 Q -68.143 97.686 -68.367 97.686 Q -68.647 97.686 -68.773 97.525 Q -68.899 97.364 -68.927 97.14 Q -68.969 96.874 -69.032 96.664 Q -69.095 96.454 -69.347 96.454 Q -69.879 96.454 -70.173 97.014 Q -70.467 97.574 -70.621 98.47 L -70.789 99.464 L -69.459 99.464 L -69.543 100.038 L -70.859 100.038 L -71.657 104.812 Q -71.713 105.176 -71.832 105.722 Q -71.951 106.268 -72.161 106.863 Q -72.371 107.458 -72.672 107.976 Q -72.973 108.494 -73.407 108.823 Q -73.841 109.152 -74.415 109.152 Q -75.087 109.152 -75.374 108.83 Q -75.661 108.508 -75.661 108.144 Q -75.661 107.85 -75.514 107.654 Q -75.367 107.458 -75.101 107.458 Q -74.779 107.458 -74.667 107.647 Q -74.555 107.836 -74.527 108.081 Q -74.499 108.326 -74.443 108.515 Q -74.387 108.704 -74.191 108.704 Q -73.911 108.704 -73.701 108.34 Q -73.491 107.976 -73.337 107.437 Q -73.183 106.898 -73.085 106.366 Q -72.987 105.834 -72.931 105.484 L -72.021 100.038 L -73.197 100.038 Z " fill="black" /><path d="M -70.068 103.924 L -70.068 103.924 L -69.284 103.924 Q -69.284 103.405 -69.21 103.042 Q -69.137 102.68 -68.951 102.317 Q -68.725 101.964 -68.407 101.744 Q -68.088 101.523 -67.5 101.523 Q -67 101.523 -66.648 101.715 Q -66.295 101.906 -66.295 102.278 Q -66.295 102.513 -66.427 102.636 Q -66.559 102.758 -66.736 102.758 Q -66.951 102.758 -67.074 102.636 Q -67.196 102.513 -67.392 102.307 Q -67.53 102.111 -67.637 102.038 Q -67.745 101.964 -67.892 101.964 Q -68.167 101.964 -68.255 102.229 Q -68.343 102.494 -68.343 103.14 L -68.343 103.924 L -67.069 103.924 L -67.069 104.405 L -68.343 104.405 L -68.343 107.639 Q -68.343 108.04 -68.255 108.241 Q -68.167 108.442 -67.931 108.511 Q -67.696 108.579 -67.265 108.579 L -67.265 108.942 L -70.156 108.942 L -70.156 108.579 Q -69.784 108.579 -69.597 108.511 Q -69.411 108.442 -69.347 108.241 Q -69.284 108.04 -69.284 107.639 L -69.284 104.405 L -70.068 104.405 Z " fill="black" /><path d="M -64.247 101.621 L -64.247 101.621 L -64.247 104.659 L -64.198 104.659 Q -63.913 104.326 -63.526 104.062 Q -63.139 103.797 -62.59 103.797 Q -62.081 103.797 -61.664 104.106 Q -61.248 104.414 -60.998 104.958 Q -60.748 105.502 -60.748 106.208 Q -60.748 107.149 -61.091 107.786 Q -61.434 108.423 -62.027 108.741 Q -62.62 109.06 -63.374 109.06 Q -63.815 109.06 -64.188 108.986 Q -64.56 108.913 -64.82 108.815 Q -65.08 108.717 -65.197 108.668 L -65.197 102.788 Q -65.197 102.425 -65.276 102.322 Q -65.354 102.219 -65.687 102.219 Q -65.795 102.219 -65.888 102.234 Q -65.981 102.249 -65.981 102.249 L -65.981 101.876 L -64.648 101.621 Z M -64.247 105.169 L -64.247 105.169 L -64.247 108.109 Q -64.129 108.325 -63.874 108.452 Q -63.619 108.579 -63.198 108.579 Q -62.679 108.579 -62.365 108.3 Q -62.051 108.021 -61.909 107.555 Q -61.767 107.09 -61.767 106.541 Q -61.767 106.041 -61.88 105.585 Q -61.993 105.13 -62.277 104.846 Q -62.561 104.561 -63.061 104.561 Q -63.325 104.561 -63.565 104.664 Q -63.806 104.767 -63.982 104.909 Q -64.158 105.051 -64.247 105.169 Z " fill="black" /></g></g></g><circle cx="144.0" cy="-45.0" r="2.6999999999999997" style="stroke:black;fill:black;stroke-width:2.0;stroke-dasharray:-;" /><circle cx="180.0" cy="-45.0" r="2.6999999999999997" style="stroke:black;fill:white;stroke-width:2.0;stroke-dasharray:-;" /><g><g><g><path d="M 190.934 -40.317 L 190.934 -40.317 Q 189.982 -40.317 189.212 -40.695 Q 188.442 -41.073 188.001 -41.948 Q 187.56 -42.823 187.56 -44.293 L 187.56 -49.683 L 188.764 -49.683 L 188.764 -44.251 Q 188.764 -43.159 189.051 -42.529 Q 189.338 -41.899 189.828 -41.633 Q 190.318 -41.367 190.934 -41.367 Q 191.564 -41.367 192.068 -41.633 Q 192.572 -41.899 192.866 -42.529 Q 193.16 -43.159 193.16 -44.251 L 193.16 -49.683 L 194.308 -49.683 L 194.308 -44.293 Q 194.308 -42.823 193.867 -41.948 Q 193.426 -41.073 192.663 -40.695 Q 191.9 -40.317 190.934 -40.317 Z " fill="black" /><path d="M 196.828 -40.485 L 196.828 -40.485 L 196.828 -49.683 L 199.516 -49.683 Q 200.566 -49.683 201.357 -49.424 Q 202.148 -49.165 202.596 -48.577 Q 203.044 -47.989 203.044 -46.981 Q 203.044 -46.001 202.603 -45.364 Q 202.162 -44.727 201.385 -44.419 Q 200.608 -44.111 199.572 -44.111 L 198.032 -44.111 L 198.032 -40.485 Z M 198.032 -45.091 L 198.032 -45.091 L 199.432 -45.091 Q 200.65 -45.091 201.245 -45.539 Q 201.84 -45.987 201.84 -46.967 Q 201.84 -47.961 201.224 -48.339 Q 200.608 -48.717 199.376 -48.717 L 198.032 -48.717 Z " fill="black" /></g></g></g><circle cx="144.0" cy="120.6" r="2.6999999999999997" style="stroke:black;fill:black;stroke-width:2.0;stroke-dasharray:-;" /><circle cx="180.0" cy="120.6" r="2.6999999999999997" style="stroke:black;fill:white;stroke-width:2.0;stroke-dasharray:-;" /><g><g><g><path d="M 187.588 125.192 L 187.588 125.192 L 187.588 115.994 L 189.94 115.994 Q 192.11 115.994 193.244 117.177 Q 194.378 118.36 194.378 120.558 Q 194.378 122.756 193.251 123.974 Q 192.124 125.192 189.996 125.192 Z M 188.792 124.212 L 188.792 124.212 L 189.856 124.212 Q 191.508 124.212 192.327 123.253 Q 193.146 122.294 193.146 120.558 Q 193.146 118.822 192.327 117.898 Q 191.508 116.974 189.856 116.974 L 188.792 116.974 Z " fill="black" /><path d="M 199.88 125.36 L 199.88 125.36 Q 198.704 125.36 197.801 124.779 Q 196.898 124.198 196.387 123.12 Q 195.876 122.042 195.876 120.558 Q 195.876 119.088 196.387 118.031 Q 196.898 116.974 197.801 116.407 Q 198.704 115.84 199.88 115.84 Q 201.07 115.84 201.973 116.407 Q 202.876 116.974 203.387 118.031 Q 203.898 119.088 203.898 120.558 Q 203.898 122.028 203.387 123.106 Q 202.876 124.184 201.973 124.772 Q 201.07 125.36 199.88 125.36 Z M 199.88 124.31 L 199.88 124.31 Q 200.72 124.31 201.343 123.848 Q 201.966 123.386 202.309 122.539 Q 202.652 121.692 202.652 120.558 Q 202.652 118.85 201.896 117.863 Q 201.14 116.876 199.88 116.876 Q 198.62 116.876 197.864 117.863 Q 197.108 118.85 197.108 120.558 Q 197.108 121.692 197.451 122.539 Q 197.794 123.386 198.417 123.848 Q 199.04 124.31 199.88 124.31 Z " fill="black" /><path d="M 206.964 125.192 L 206.964 125.192 L 204.976 115.994 L 206.208 115.994 L 207.188 120.992 Q 207.328 121.72 207.468 122.462 Q 207.608 123.204 207.748 123.946 L 207.804 123.946 Q 207.958 123.204 208.126 122.462 Q 208.294 121.72 208.462 120.992 L 209.764 115.994 L 210.842 115.994 L 212.144 120.992 Q 212.326 121.72 212.494 122.462 Q 212.662 123.204 212.816 123.946 L 212.886 123.946 Q 213.026 123.204 213.152 122.462 Q 213.278 121.72 213.418 120.992 L 214.398 115.994 L 215.56 115.994 L 213.614 125.192 L 212.172 125.192 L 210.758 119.704 Q 210.632 119.158 210.52 118.647 Q 210.408 118.136 210.296 117.604 L 210.24 117.604 Q 210.142 118.136 210.016 118.647 Q 209.89 119.158 209.778 119.704 L 208.392 125.192 Z " fill="black" /><path d="M 217.184 125.192 L 217.184 125.192 L 217.184 115.994 L 218.43 115.994 L 221.818 121.748 L 222.826 123.652 L 222.896 123.652 Q 222.854 122.952 222.798 122.196 Q 222.742 121.44 222.742 120.712 L 222.742 115.994 L 223.876 115.994 L 223.876 125.192 L 222.644 125.192 L 219.242 119.438 L 218.234 117.534 L 218.178 117.534 Q 218.22 118.234 218.276 118.969 Q 218.332 119.704 218.332 120.418 L 218.332 125.192 Z " fill="black" /></g></g></g><circle cx="45.0" cy="35.99999999999999" r="2.6999999999999997" style="stroke:black;fill:black;stroke-width:2.0;stroke-dasharray:-;" /></svg>