<svg xmlns="http://www.w3.org/2000/svg" xmlns:xlink="http://www.w3.org/1999/xlink" xml:lang="en" height="178.19160000000005pt" width="521.279pt" viewBox="-33.6164 -118.00000000000004 521.279 178.19160000000005"><path d="M 0.0,-0.0 L 18.0,-0.0 L 36.0,-0.0" style="stroke:black;fill:none;stroke-width:2.0;stroke-dasharray:-;stroke-linecap:round;stroke-linejoin:round;" /><path d="M 36.0,-0.0 L 72.0,-0.0 L 108.0,-0.0" style="stroke:black;fill:none;stroke-width:2.0;stroke-dasharray:-;stroke-linecap:round;stroke-linejoin:round;" /><path d="M 108.0,-0.0 L 108.0,18.0 L 135.0,-0.0 L 108.0,-18.0 L 108.0,-0.0" style="stroke:black;fill:none;stroke-width:2.0;stroke-dasharray:-;stroke-linecap:round;stroke-linejoin:round;" /><path d="M 104.39999999999999,18.0 L 129.17116421914014,-11.142546140164866" style="stroke:black;fill:none;stroke-width:2.0;stroke-dasharray:-;stroke-linecap:round;stroke-linejoin:round;" /><path d="M 133.70470315980893 -16.47612136448108 L 131.22840037709065 -9.393895405906907 L 127.11392806118958 -12.891196874422826 Z" style="stroke:black;fill:black;stroke-linecap:butt;stroke-linejoin:miter;" /><path d="M 135.0,-0.0 L 153.0,-0.0 L 171.0,-0.0" style="stroke:black;fill:none;stroke-width:2.0;stroke-dasharray:-;stroke-linecap:round;stroke-linejoin:round;" /><path d="M 171.0,-0.0 L 189.0,-0.0 L 207.0,-0.0" style="stroke:black;fill:none;stroke-width:2.0;stroke-dasharray:-;stroke-linecap:round;stroke-linejoin:round;" /><path d="M 207.0,-0.0 L 207.0,18.0 L 234.0,-0.0 L 207.0,-18.0 L 207.0,-0.0" style="stroke:black;fill:none;stroke-width:2.0;stroke-dasharray:-;stroke-linecap:round;stroke-linejoin:round;" /><path d="M 203.4,18.0 L 228.17116421914014,-11.142546140164864" style="stroke:black;fill:none;stroke-width:2.0;stroke-dasharray:-;stroke-linecap:round;stroke-linejoin:round;" /><path d="M 232.70470315980893 -16.47612136448108 L 230.22840037709065 -9.393895405906907 L 226.1139280611896 -12.891196874422823 Z" style="stroke:black;fill:black;stroke-linecap:butt;stroke-linejoin:miter;" /><path d="M 234.0,-0.0 L 252.0,-0.0 L 270.0,-0.0" style="stroke:black;fill:none;stroke-width:2.0;stroke-dasharray:-;stroke-linecap:round;stroke-linejoin:round;" /><path d="M 270.0,-0.0 L 288.0,-0.0 L 306.0,-0.0" style="stroke:black;fill:none;stroke-width:2.0;stroke-dasharray:-;stroke-linecap:round;stroke-linejoin:round;" /><path d="M 306.0,-0.0 L 306.0,18.0 L 333.0,-0.0 L 306.0,-18.0 L 306.0,-0.0" style="stroke:black;fill:none;stroke-width:2.0;stroke-dasharray:-;stroke-linecap:round;stroke-linejoin:round;" /><path d="M 302.40000000000003,18.0 L 327.1711642191401,-11.142546140164864" style="stroke:black;fill:none;stroke-width:2.0;stroke-dasharray:-;stroke-linecap:round;stroke-linejoin:round;" /><path d="M 331.7047031598089 -16.47612136448108 L 329.2284003770907 -9.393895405906907 L 325.1139280611896 -12.891196874422823 Z" style="stroke:black;fill:black;stroke-linecap:butt;stroke-linejoin:miter;" /><path d="M 333.0,-0.0 L 351.0,-0.0 L 369.0,-0.0" style="stroke:black;fill:none;stroke-width:2.0;stroke-dasharray:-;stroke-linecap:round;stroke-linejoin:round;" /><path d="M 369.0,-0.0 L 387.0,-0.0 L 405.0,-0.0" style="stroke:black;fill:none;stroke-width:2.0;stroke-dasharray:-;stroke-linecap:round;stroke-linejoin:round;" /><path d="M 405.0,-0.0 L 405.0,18.0 L 432.0,-0.0 L 405.0,-18.0 L 405.0,-0.0" style="stroke:black;fill:none;stroke-width:2.0;stroke-dasharray:-;stroke-linecap:round;stroke-linejoin:round;" /><path d="M 401.40000000000003,18.0 L 426.1711642191401,-11.142546140164864" style="stroke:black;fill:none;stroke-width:2.0;stroke-dasharray:-;stroke-linecap:round;stroke-linejoin:round;" /><path d="M 430.7047031598089 -16.47612136448108 L 428.2284003770907 -9.393895405906907 L 424.1139280611896 -12.891196874422823 Z" style="stroke:black;fill:black;stroke-linecap:butt;stroke-linejoin:miter;" /><path d="M 432.0,-0.0 L 450.0,-0.0 L 468.0,-0.0" style="stroke:black;fill:none;stroke-width:2.0;stroke-dasharray:-;stroke-linecap:round;stroke-linejoin:round;" /><path d="M 36.0,-0.0 L 36.0,-36.0 L 36.00000000000001,-72.0" style="stroke:black;fill:none;stroke-width:2.0;stroke-dasharray:-;stroke-linecap:round;stroke-linejoin:round;" /><path d="M 36.00000000000001,-72.0 L 45.00000000000001,-72.0 L 45.00000000000001,-72.0" style="stroke:black;fill:none;stroke-width:2.0;stroke-dasharray:-;stroke-linecap:round;stroke-linejoin:round;" /><path d="M 52.00000000000001 -72.0 L 45.00000000000001 -69.3 L 45.00000000000001 -74.7 Z" style="stroke:black;fill:black;stroke-linecap:butt;stroke-linejoin:miter;" /><path d="M 54.00000000000001,-72.0 L 54.00000000000001,-90.0 L 90.0,-90.0 L 90.0,-54.0 L 54.00000000000001,-54.0 L 54.00000000000001,-72.0" style="stroke:black;fill:none;stroke-width:2.0;stroke-dasharray:-;stroke-linecap:round;stroke-linejoin:round;" /><path d="M 468.0,-0.0 L 468.0,-54.0 L 468.0,-108.0" style="stroke:black;fill:none;stroke-width:2.0;stroke-dasharray:-;stroke-linecap:round;stroke-linejoin:round;" /><path d="M 468.0,-108.0 L 270.0,-108.00000000000003 L 72.0,-108.00000000000004" style="stroke:black;fill:none;stroke-width:2.0;stroke-dasharray:-;stroke-linecap:round;stroke-linejoin:round;" /><path d="M 72.0,-108.00000000000004 L 72.0,-99.00000000000003 L 72.0,-99.0" style="stroke:black;fill:none;stroke-width:2.0;stroke-dasharray:-;stroke-linecap:round;stroke-linejoin:round;" /><path d="M 72.0 -92.0 L 69.3 -99.0 L 74.7 -99.0 Z" style="stroke:black;fill:black;stroke-linecap:butt;stroke-linejoin:miter;" /><path d="M 72.0,-54.0 L 72.0,-45.0 L 72.0,-36.0" style="stroke:black;fill:none;stroke-width:2.0;stroke-dasharray:-;stroke-linecap:round;stroke-linejoin:round;" /><path d="M 72.0,-36.0 L 244.35,-36.0 L 416.7,-36.0" style="stroke:black;fill:none;stroke-width:2.0;stroke-dasharray:-;stroke-linecap:round;stroke-linejoin:round;" /><path d="M 119.7,-18.0 L 119.7,-27.0 L 119.7,-36.0" style="stroke:black;fill:none;stroke-width:2.0;stroke-dasharray:-;stroke-linecap:round;stroke-linejoin:round;" /><path d="M 218.70000000000002,-18.0 L 218.70000000000002,-27.0 L 218.70000000000002,-36.0" style="stroke:black;fill:none;stroke-width:2.0;stroke-dasharray:-;stroke-linecap:round;stroke-linejoin:round;" /><path d="M 317.7,-18.0 L 317.7,-27.0 L 317.7,-36.0" style="stroke:black;fill:none;stroke-width:2.0;stroke-dasharray:-;stroke-linecap:round;stroke-linejoin:round;" /><path d="M 416.7,-18.0 L 416.7,-27.0 L 416.7,-36.0" style="stroke:black;fill:none;stroke-width:2.0;stroke-dasharray:-;stroke-linecap:round;stroke-linejoin:round;" /><path d="M 171.0,-0.0 L 171.0,18.0 L 171.0,36.0" style="stroke:black;fill:none;stroke-width:2.0;stroke-dasharray:-;stroke-linecap:round;stroke-linejoin:round;" /><path d="M 270.0,-0.0 L 270.0,18.0 L 270.0,36.0" style="stroke:black;fill:none;stroke-width:2.0;stroke-dasharray:-;stroke-linecap:round;stroke-linejoin:round;" /><path d="M 369.0,-0.0 L 369.0,18.0 L 369.0,36.0" style="stroke:black;fill:none;stroke-width:2.0;stroke-dasharray:-;stroke-linecap:round;stroke-linejoin:round;" /><path d="M 468.0,-0.0 L 468.0,18.0 L 468.0,36.0" style="stroke:black;fill:none;stroke-width:2.0;stroke-dasharray:-;stroke-linecap:round;stroke-linejoin:round;" /><circle cx="36.0" cy="-0.0" r="2.6999999999999997" style="stroke:black;fill:black;stroke-width:2.0;stroke-dasharray:-;" /><circle cx="0.0" cy="-0.0" r="2.6999999999999997" style="stroke:black;fill:white;stroke-width:2.0;stroke-dasharray:-;" /><g><g><g><path d="M -26.128 -0.672 L -26.128 -0.672 L -26.548 2.058 L -33.492 2.058 L -33.492 1.638 Q -32.932 1.638 -32.659 1.54 Q -32.386 1.442 -32.302 1.162 Q -32.218 0.882 -32.218 0.336 L -32.218 -5.362 Q -32.218 -5.908 -32.302 -6.202 Q -32.386 -6.496 -32.659 -6.608 Q -32.932 -6.72 -33.492 -6.72 L -33.492 -7.14 L -29.558 -7.14 L -29.558 -6.72 Q -30.118 -6.72 -30.419 -6.601 Q -30.72 -6.482 -30.825 -6.188 Q -30.93 -5.894 -30.93 -5.348 L -30.93 0.728 Q -30.93 1.19 -30.706 1.33 Q -30.482 1.47 -29.866 1.47 L -29.222 1.47 Q -28.522 1.47 -28.088 1.365 Q -27.654 1.26 -27.395 1.008 Q -27.136 0.756 -26.961 0.343 Q -26.786 -0.07 -26.576 -0.672 Z " fill="black" /><path d="M -16.398 -2.674 L -16.398 -2.674 Q -16.398 -1.204 -16.937 -0.105 Q -17.476 0.994 -18.47 1.61 Q -19.464 2.226 -20.85 2.226 Q -22.236 2.226 -23.237 1.652 Q -24.238 1.078 -24.777 0.007 Q -25.316 -1.064 -25.316 -2.548 Q -25.316 -3.976 -24.777 -5.047 Q -24.238 -6.118 -23.237 -6.713 Q -22.236 -7.308 -20.85 -7.308 Q -19.45 -7.308 -18.456 -6.727 Q -17.462 -6.146 -16.93 -5.103 Q -16.398 -4.06 -16.398 -2.674 Z M -17.868 -2.632 L -17.868 -2.632 Q -17.868 -3.892 -18.246 -4.809 Q -18.624 -5.726 -19.303 -6.223 Q -19.982 -6.72 -20.892 -6.72 Q -22.25 -6.72 -23.048 -5.635 Q -23.846 -4.55 -23.846 -2.632 Q -23.846 -0.658 -23.097 0.49 Q -22.348 1.638 -20.836 1.638 Q -19.338 1.638 -18.603 0.56 Q -17.868 -0.518 -17.868 -2.632 Z " fill="black" /><path d="M -12.709 6.945 L -12.709 6.945 L -12.709 7.308 L -15.198 7.308 L -15.198 6.945 Q -14.855 6.945 -14.703 6.872 Q -14.552 6.798 -14.512 6.637 Q -14.473 6.475 -14.473 6.21 L -14.473 3.251 Q -14.473 2.918 -14.581 2.849 Q -14.689 2.78 -14.944 2.78 Q -15.071 2.78 -15.149 2.79 Q -15.228 2.8 -15.228 2.8 L -15.228 2.408 L -13.915 2.192 L -13.513 2.192 L -13.513 6.21 Q -13.513 6.495 -13.469 6.656 Q -13.425 6.818 -13.253 6.882 Q -13.082 6.945 -12.709 6.945 Z M -14.003 0.027 L -14.003 0.027 Q -13.719 0.027 -13.527 0.223 Q -13.336 0.419 -13.336 0.673 Q -13.336 0.909 -13.527 1.105 Q -13.719 1.301 -14.003 1.301 Q -14.277 1.301 -14.458 1.105 Q -14.64 0.909 -14.64 0.673 Q -14.64 0.419 -14.458 0.223 Q -14.277 0.027 -14.003 0.027 Z " fill="black" /><path d="M -6.888 4.025 L -6.888 4.025 L -6.888 6.22 Q -6.888 6.495 -6.839 6.656 Q -6.79 6.818 -6.623 6.887 Q -6.457 6.955 -6.104 6.955 L -6.104 7.308 L -8.623 7.308 L -8.623 6.955 Q -8.25 6.955 -8.084 6.887 Q -7.917 6.818 -7.878 6.656 Q -7.839 6.495 -7.839 6.22 L -7.839 4.348 Q -7.839 3.692 -7.99 3.383 Q -8.142 3.074 -8.373 2.976 Q -8.603 2.878 -8.838 2.878 Q -9.26 2.878 -9.578 3.094 Q -9.897 3.31 -10.132 3.506 L -10.132 6.22 Q -10.132 6.495 -10.088 6.656 Q -10.044 6.818 -9.877 6.887 Q -9.71 6.955 -9.348 6.955 L -9.348 7.308 L -11.817 7.308 L -11.817 6.955 Q -11.474 6.955 -11.322 6.887 Q -11.171 6.818 -11.131 6.656 Q -11.092 6.495 -11.092 6.22 L -11.092 3.241 Q -11.092 2.967 -11.195 2.874 Q -11.298 2.78 -11.523 2.78 Q -11.641 2.78 -11.719 2.79 Q -11.798 2.8 -11.798 2.8 L -11.798 2.428 L -10.485 2.192 L -10.161 2.192 L -10.161 2.996 L -10.093 2.996 Q -9.671 2.614 -9.284 2.388 Q -8.897 2.163 -8.407 2.163 Q -7.829 2.163 -7.5 2.423 Q -7.172 2.682 -7.03 3.104 Q -6.888 3.525 -6.888 4.025 Z " fill="black" /></g></g></g><circle cx="171.0" cy="-0.0" r="2.6999999999999997" style="stroke:black;fill:black;stroke-width:2.0;stroke-dasharray:-;" /><circle cx="270.0" cy="-0.0" r="2.6999999999999997" style="stroke:black;fill:black;stroke-width:2.0;stroke-dasharray:-;" /><circle cx="369.0" cy="-0.0" r="2.6999999999999997" style="stroke:black;fill:black;stroke-width:2.0;stroke-dasharray:-;" /><circle cx="468.0" cy="-0.0" r="2.6999999999999997" style="stroke:black;fill:black;stroke-width:2.0;stroke-dasharray:-;" /><g><g><g><path d="M 65.462 -67.401 L 65.462 -67.401 L 65.462 -76.599 L 68.15 -76.599 Q 69.2 -76.599 69.991 -76.34 Q 70.782 -76.081 71.23 -75.493 Q 71.678 -74.905 71.678 -73.897 Q 71.678 -72.917 71.237 -72.28 Q 70.796 -71.643 70.019 -71.335 Q 69.242 -71.027 68.206 -71.027 L 66.666 -71.027 L 66.666 -67.401 Z M 66.666 -72.007 L 66.666 -72.007 L 68.066 -72.007 Q 69.284 -72.007 69.879 -72.455 Q 70.474 -72.903 70.474 -73.883 Q 70.474 -74.877 69.858 -75.255 Q 69.242 -75.633 68.01 -75.633 L 66.666 -75.633 Z " fill="black" /><path d="M 73.582 -67.401 L 73.582 -67.401 L 73.582 -76.599 L 75.934 -76.599 Q 78.104 -76.599 79.238 -75.416 Q 80.372 -74.233 80.372 -72.035 Q 80.372 -69.837 79.245 -68.619 Q 78.118 -67.401 75.99 -67.401 Z M 74.786 -68.381 L 74.786 -68.381 L 75.85 -68.381 Q 77.502 -68.381 78.321 -69.34 Q 79.14 -70.299 79.14 -72.035 Q 79.14 -73.771 78.321 -74.695 Q 77.502 -75.619 75.85 -75.619 L 74.786 -75.619 Z " fill="black" /></g></g></g><circle cx="119.7" cy="-36.0" r="2.6999999999999997" style="stroke:black;fill:black;stroke-width:2.0;stroke-dasharray:-;" /><circle cx="218.70000000000002" cy="-36.0" r="2.6999999999999997" style="stroke:black;fill:black;stroke-width:2.0;stroke-dasharray:-;" /><circle cx="317.7" cy="-36.0" r="2.6999999999999997" style="stroke:black;fill:black;stroke-width:2.0;stroke-dasharray:-;" /><circle cx="171.0" cy="36.0" r="2.6999999999999997" style="stroke:black;fill:white;stroke-width:2.0;stroke-dasharray:-;" /><g><g><g><path d="M 167.213 48.936 L 167.213 48.936 L 166.793 51.666 L 159.849 51.666 L 159.849 51.246 Q 160.409 51.246 160.682 51.148 Q 160.955 51.05 161.039 50.77 Q 161.123 50.49 161.123 49.944 L 161.123 44.246 Q 161.123 43.7 161.039 43.406 Q 160.955 43.112 160.682 43 Q 160.409 42.888 159.849 42.888 L 159.849 42.468 L 163.783 42.468 L 163.783 42.888 Q 163.223 42.888 162.922 43.007 Q 162.621 43.126 162.516 43.42 Q 162.411 43.714 162.411 44.26 L 162.411 50.336 Q 162.411 50.798 162.635 50.938 Q 162.859 51.078 163.475 51.078 L 164.119 51.078 Q 164.819 51.078 165.253 50.973 Q 165.687 50.868 165.946 50.616 Q 166.205 50.364 166.38 49.951 Q 166.555 49.538 166.765 48.936 Z " fill="black" /><path d="M 176.943 46.934 L 176.943 46.934 Q 176.943 48.404 176.404 49.503 Q 175.865 50.602 174.871 51.218 Q 173.877 51.834 172.491 51.834 Q 171.105 51.834 170.104 51.26 Q 169.103 50.686 168.564 49.615 Q 168.025 48.544 168.025 47.06 Q 168.025 45.632 168.564 44.561 Q 169.103 43.49 170.104 42.895 Q 171.105 42.3 172.491 42.3 Q 173.891 42.3 174.885 42.881 Q 175.879 43.462 176.411 44.505 Q 176.943 45.548 176.943 46.934 Z M 175.473 46.976 L 175.473 46.976 Q 175.473 45.716 175.095 44.799 Q 174.717 43.882 174.038 43.385 Q 173.359 42.888 172.449 42.888 Q 171.091 42.888 170.293 43.973 Q 169.495 45.058 169.495 46.976 Q 169.495 48.95 170.244 50.098 Q 170.993 51.246 172.505 51.246 Q 174.003 51.246 174.738 50.168 Q 175.473 49.09 175.473 46.976 Z " fill="black" /><path d="M 182.857 52.636 L 182.857 52.636 Q 182.857 53.283 182.719 53.891 Q 182.582 54.498 182.293 54.973 Q 182.004 55.449 181.553 55.728 Q 181.102 56.007 180.485 56.007 Q 179.858 56.007 179.407 55.738 Q 178.956 55.468 178.672 54.998 Q 178.388 54.528 178.256 53.915 Q 178.123 53.303 178.123 52.617 Q 178.123 51.597 178.417 50.862 Q 178.711 50.127 179.245 49.726 Q 179.779 49.324 180.505 49.324 Q 181.181 49.324 181.715 49.711 Q 182.249 50.098 182.553 50.838 Q 182.857 51.578 182.857 52.636 Z M 181.808 52.705 L 181.808 52.705 Q 181.808 51.166 181.475 50.446 Q 181.142 49.726 180.485 49.726 Q 179.838 49.726 179.5 50.446 Q 179.162 51.166 179.162 52.666 Q 179.162 54.145 179.51 54.866 Q 179.858 55.586 180.485 55.586 Q 181.122 55.586 181.465 54.861 Q 181.808 54.136 181.808 52.705 Z " fill="black" /></g></g></g><circle cx="270.0" cy="36.0" r="2.6999999999999997" style="stroke:black;fill:white;stroke-width:2.0;stroke-dasharray:-;" /><g><g><g><path d="M 263.547 48.936 L 263.547 48.936 L 263.127 51.666 L 256.183 51.666 L 256.183 51.246 Q 256.743 51.246 257.016 51.148 Q 257.289 51.05 257.373 50.77 Q 257.457 50.49 257.457 49.944 L 257.457 44.246 Q 257.457 43.7 257.373 43.406 Q 257.289 43.112 257.016 43 Q 256.743 42.888 256.183 42.888 L 256.183 42.468 L 260.117 42.468 L 260.117 42.888 Q 259.557 42.888 259.256 43.007 Q 258.955 43.126 258.85 43.42 Q 258.745 43.714 258.745 44.26 L 258.745 50.336 Q 258.745 50.798 258.969 50.938 Q 259.193 51.078 259.809 51.078 L 260.453 51.078 Q 261.153 51.078 261.587 50.973 Q 262.021 50.868 262.28 50.616 Q 262.539 50.364 262.714 49.951 Q 262.889 49.538 263.099 48.936 Z " fill="black" /><path d="M 273.277 46.934 L 273.277 46.934 Q 273.277 48.404 272.738 49.503 Q 272.199 50.602 271.205 51.218 Q 270.211 51.834 268.825 51.834 Q 267.439 51.834 266.438 51.26 Q 265.437 50.686 264.898 49.615 Q 264.359 48.544 264.359 47.06 Q 264.359 45.632 264.898 44.561 Q 265.437 43.49 266.438 42.895 Q 267.439 42.3 268.825 42.3 Q 270.225 42.3 271.219 42.881 Q 272.213 43.462 272.745 44.505 Q 273.277 45.548 273.277 46.934 Z M 271.807 46.976 L 271.807 46.976 Q 271.807 45.716 271.429 44.799 Q 271.051 43.882 270.372 43.385 Q 269.693 42.888 268.783 42.888 Q 267.425 42.888 266.627 43.973 Q 265.829 45.058 265.829 46.976 Q 265.829 48.95 266.578 50.098 Q 267.327 51.246 268.839 51.246 Q 270.337 51.246 271.072 50.168 Q 271.807 49.09 271.807 46.976 Z " fill="black" /><path d="M 274.869 56.059 L 274.869 56.059 L 274.859 55.746 Q 275.594 55.657 276.212 55.339 Q 276.829 55.02 277.241 54.462 Q 277.652 53.903 277.77 53.1 L 277.692 53.09 Q 277.329 53.413 277.02 53.58 Q 276.712 53.746 276.329 53.746 Q 275.477 53.746 274.952 53.163 Q 274.428 52.58 274.428 51.541 Q 274.428 50.493 275.006 49.915 Q 275.585 49.336 276.565 49.336 Q 277.329 49.336 277.824 49.699 Q 278.319 50.062 278.564 50.694 Q 278.809 51.326 278.809 52.149 Q 278.809 53.501 278.304 54.364 Q 277.799 55.226 276.912 55.638 Q 276.026 56.049 274.869 56.059 Z M 275.389 51.473 L 275.389 51.473 Q 275.389 52.208 275.707 52.639 Q 276.026 53.07 276.643 53.07 Q 276.957 53.07 277.226 52.953 Q 277.496 52.835 277.662 52.57 Q 277.829 52.306 277.829 51.865 Q 277.829 50.895 277.535 50.331 Q 277.241 49.768 276.555 49.768 Q 276.045 49.768 275.717 50.145 Q 275.389 50.522 275.389 51.473 Z " fill="black" /><path d="M 284.522 52.678 L 284.522 52.678 Q 284.522 53.325 284.385 53.933 Q 284.248 54.54 283.959 55.015 Q 283.67 55.491 283.219 55.77 Q 282.768 56.049 282.151 56.049 Q 281.523 56.049 281.073 55.78 Q 280.622 55.51 280.338 55.04 Q 280.053 54.57 279.921 53.957 Q 279.789 53.345 279.789 52.659 Q 279.789 51.639 280.083 50.904 Q 280.377 50.169 280.911 49.768 Q 281.445 49.366 282.17 49.366 Q 282.846 49.366 283.38 49.753 Q 283.915 50.14 284.218 50.88 Q 284.522 51.62 284.522 52.678 Z M 283.474 52.747 L 283.474 52.747 Q 283.474 51.208 283.14 50.488 Q 282.807 49.768 282.151 49.768 Q 281.504 49.768 281.166 50.488 Q 280.828 51.208 280.828 52.708 Q 280.828 54.187 281.175 54.908 Q 281.523 55.628 282.151 55.628 Q 282.788 55.628 283.131 54.903 Q 283.474 54.178 283.474 52.747 Z " fill="black" /></g></g></g><circle cx="369.0" cy="36.0" r="2.6999999999999997" style="stroke:black;fill:white;stroke-width:2.0;stroke-dasharray:-;" /><g><g><g><path d="M 360.146 48.936 L 360.146 48.936 L 359.726 51.666 L 352.782 51.666 L 352.782 51.246 Q 353.342 51.246 353.615 51.148 Q 353.888 51.05 353.972 50.77 Q 354.056 50.49 354.056 49.944 L 354.056 44.246 Q 354.056 43.7 353.972 43.406 Q 353.888 43.112 353.615 43 Q 353.342 42.888 352.782 42.888 L 352.782 42.468 L 356.716 42.468 L 356.716 42.888 Q 356.156 42.888 355.855 43.007 Q 355.554 43.126 355.449 43.42 Q 355.344 43.714 355.344 44.26 L 355.344 50.336 Q 355.344 50.798 355.568 50.938 Q 355.792 51.078 356.408 51.078 L 357.052 51.078 Q 357.752 51.078 358.186 50.973 Q 358.62 50.868 358.879 50.616 Q 359.138 50.364 359.313 49.951 Q 359.488 49.538 359.698 48.936 Z " fill="black" /><path d="M 369.876 46.934 L 369.876 46.934 Q 369.876 48.404 369.337 49.503 Q 368.798 50.602 367.804 51.218 Q 366.81 51.834 365.424 51.834 Q 364.038 51.834 363.037 51.26 Q 362.036 50.686 361.497 49.615 Q 360.958 48.544 360.958 47.06 Q 360.958 45.632 361.497 44.561 Q 362.036 43.49 363.037 42.895 Q 364.038 42.3 365.424 42.3 Q 366.824 42.3 367.818 42.881 Q 368.812 43.462 369.344 44.505 Q 369.876 45.548 369.876 46.934 Z M 368.406 46.976 L 368.406 46.976 Q 368.406 45.716 368.028 44.799 Q 367.65 43.882 366.971 43.385 Q 366.292 42.888 365.382 42.888 Q 364.024 42.888 363.226 43.973 Q 362.428 45.058 362.428 46.976 Q 362.428 48.95 363.177 50.098 Q 363.926 51.246 365.438 51.246 Q 366.936 51.246 367.671 50.168 Q 368.406 49.09 368.406 46.976 Z " fill="black" /><path d="M 374.81 55.852 L 374.81 55.852 L 371.488 55.852 L 371.488 55.499 Q 372.193 55.499 372.424 55.357 Q 372.654 55.215 372.654 54.843 L 372.654 50.57 Q 372.654 50.305 372.576 50.188 Q 372.497 50.07 372.291 50.07 Q 372.135 50.07 371.865 50.114 Q 371.596 50.158 371.4 50.207 L 371.4 49.815 L 373.213 49.315 L 373.634 49.315 L 373.634 54.843 Q 373.634 55.215 373.884 55.357 Q 374.134 55.499 374.81 55.499 Z " fill="black" /><path d="M 380.269 54.313 L 380.269 54.313 Q 380.269 55.137 379.671 55.563 Q 379.073 55.989 378.132 55.989 Q 377.534 55.989 377.054 55.813 Q 376.574 55.636 376.3 55.284 Q 376.025 54.931 376.025 54.402 Q 376.025 53.98 376.192 53.696 Q 376.358 53.412 376.677 53.172 Q 376.995 52.932 377.436 52.647 L 377.436 52.608 Q 376.897 52.255 376.623 51.976 Q 376.349 51.697 376.251 51.413 Q 376.153 51.128 376.153 50.776 Q 376.153 50.305 376.412 49.962 Q 376.672 49.619 377.128 49.438 Q 377.583 49.257 378.162 49.257 Q 378.681 49.257 379.097 49.438 Q 379.514 49.619 379.759 49.938 Q 380.004 50.256 380.004 50.668 Q 380.004 51.04 379.877 51.3 Q 379.749 51.56 379.465 51.78 Q 379.181 52.001 378.71 52.255 L 378.71 52.304 Q 379.308 52.647 379.646 52.946 Q 379.984 53.245 380.126 53.569 Q 380.269 53.892 380.269 54.313 Z M 377.779 52.834 L 377.779 52.834 Q 377.329 53.186 377.108 53.495 Q 376.888 53.804 376.888 54.294 Q 376.888 55.009 377.24 55.328 Q 377.593 55.646 378.171 55.646 Q 378.652 55.646 378.995 55.396 Q 379.338 55.146 379.338 54.637 Q 379.338 54.304 379.21 54.039 Q 379.083 53.774 378.745 53.49 Q 378.407 53.206 377.779 52.834 Z M 379.191 50.658 L 379.191 50.658 Q 379.191 50.139 378.911 49.894 Q 378.632 49.649 378.142 49.649 Q 377.613 49.649 377.324 49.894 Q 377.035 50.139 377.035 50.629 Q 377.035 50.913 377.162 51.133 Q 377.289 51.354 377.578 51.569 Q 377.868 51.785 378.328 52.079 Q 378.857 51.765 379.024 51.452 Q 379.191 51.138 379.191 50.658 Z " fill="black" /><path d="M 385.923 52.608 L 385.923 52.608 Q 385.923 53.255 385.786 53.863 Q 385.649 54.47 385.36 54.945 Q 385.071 55.421 384.62 55.7 Q 384.169 55.979 383.552 55.979 Q 382.924 55.979 382.474 55.71 Q 382.023 55.44 381.739 54.97 Q 381.454 54.5 381.322 53.887 Q 381.19 53.275 381.19 52.589 Q 381.19 51.569 381.484 50.834 Q 381.778 50.099 382.312 49.698 Q 382.846 49.296 383.571 49.296 Q 384.247 49.296 384.781 49.683 Q 385.316 50.07 385.619 50.81 Q 385.923 51.55 385.923 52.608 Z M 384.875 52.677 L 384.875 52.677 Q 384.875 51.138 384.541 50.418 Q 384.208 49.698 383.552 49.698 Q 382.905 49.698 382.567 50.418 Q 382.229 51.138 382.229 52.638 Q 382.229 54.117 382.576 54.838 Q 382.924 55.558 383.552 55.558 Q 384.189 55.558 384.532 54.833 Q 384.875 54.108 384.875 52.677 Z " fill="black" /></g></g></g><circle cx="468.0" cy="36.0" r="2.6999999999999997" style="stroke:black;fill:white;stroke-width:2.0;stroke-dasharray:-;" /><g><g><g><path d="M 459.132 48.936 L 459.132 48.936 L 458.712 51.666 L 451.768 51.666 L 451.768 51.246 Q 452.328 51.246 452.601 51.148 Q 452.874 51.05 452.958 50.77 Q 453.042 50.49 453.042 49.944 L 453.042 44.246 Q 453.042 43.7 452.958 43.406 Q 452.874 43.112 452.601 43 Q 452.328 42.888 451.768 42.888 L 451.768 42.468 L 455.702 42.468 L 455.702 42.888 Q 455.142 42.888 454.841 43.007 Q 454.54 43.126 454.435 43.42 Q 454.33 43.714 454.33 44.26 L 454.33 50.336 Q 454.33 50.798 454.554 50.938 Q 454.778 51.078 455.394 51.078 L 456.038 51.078 Q 456.738 51.078 457.172 50.973 Q 457.606 50.868 457.865 50.616 Q 458.124 50.364 458.299 49.951 Q 458.474 49.538 458.684 48.936 Z " fill="black" /><path d="M 468.862 46.934 L 468.862 46.934 Q 468.862 48.404 468.323 49.503 Q 467.784 50.602 466.79 51.218 Q 465.796 51.834 464.41 51.834 Q 463.024 51.834 462.023 51.26 Q 461.022 50.686 460.483 49.615 Q 459.944 48.544 459.944 47.06 Q 459.944 45.632 460.483 44.561 Q 461.022 43.49 462.023 42.895 Q 463.024 42.3 464.41 42.3 Q 465.81 42.3 466.804 42.881 Q 467.798 43.462 468.33 44.505 Q 468.862 45.548 468.862 46.934 Z M 467.392 46.976 L 467.392 46.976 Q 467.392 45.716 467.014 44.799 Q 466.636 43.882 465.957 43.385 Q 465.278 42.888 464.368 42.888 Q 463.01 42.888 462.212 43.973 Q 461.414 45.058 461.414 46.976 Q 461.414 48.95 462.163 50.098 Q 462.912 51.246 464.424 51.246 Q 465.922 51.246 466.657 50.168 Q 467.392 49.09 467.392 46.976 Z " fill="black" /><path d="M 474.354 54.203 L 474.354 54.203 L 474.021 55.908 L 470.003 55.908 L 470.003 55.428 L 471.394 54.017 Q 471.943 53.468 472.301 53.046 Q 472.659 52.625 472.835 52.199 Q 473.011 51.772 473.011 51.224 Q 473.011 50.704 472.693 50.366 Q 472.374 50.028 471.796 50.028 Q 471.267 50.028 470.909 50.239 Q 470.552 50.449 470.277 50.93 L 470.013 50.802 Q 470.258 50.116 470.772 49.724 Q 471.287 49.332 472.041 49.332 Q 472.629 49.332 473.08 49.543 Q 473.531 49.754 473.786 50.146 Q 474.04 50.538 474.04 51.096 Q 474.04 51.576 473.825 51.998 Q 473.609 52.419 473.212 52.86 Q 472.815 53.301 472.267 53.84 L 471.042 55.026 L 471.042 55.095 L 471.806 55.055 L 473.08 55.055 Q 473.364 55.055 473.516 54.977 Q 473.668 54.899 473.776 54.707 Q 473.884 54.516 474.011 54.203 Z " fill="black" /><path d="M 479.391 49.891 L 479.391 49.891 L 477.137 55.986 L 476.275 55.986 L 478.578 50.342 L 476.461 50.342 Q 476.157 50.342 476 50.405 Q 475.844 50.469 475.755 50.636 Q 475.667 50.802 475.55 51.126 L 475.158 51.106 L 475.491 49.479 L 479.391 49.479 Z " fill="black" /><path d="M 484.938 52.664 L 484.938 52.664 Q 484.938 53.311 484.801 53.919 Q 484.663 54.526 484.374 55.001 Q 484.085 55.477 483.635 55.756 Q 483.184 56.035 482.566 56.035 Q 481.939 56.035 481.488 55.766 Q 481.038 55.496 480.753 55.026 Q 480.469 54.556 480.337 53.943 Q 480.205 53.331 480.205 52.645 Q 480.205 51.625 480.499 50.89 Q 480.793 50.155 481.327 49.754 Q 481.861 49.352 482.586 49.352 Q 483.262 49.352 483.796 49.739 Q 484.33 50.126 484.634 50.866 Q 484.938 51.606 484.938 52.664 Z M 483.889 52.733 L 483.889 52.733 Q 483.889 51.194 483.556 50.474 Q 483.223 49.754 482.566 49.754 Q 481.92 49.754 481.581 50.474 Q 481.243 51.194 481.243 52.694 Q 481.243 54.173 481.591 54.894 Q 481.939 55.614 482.566 55.614 Q 483.203 55.614 483.546 54.889 Q 483.889 54.164 483.889 52.733 Z " fill="black" /></g></g></g></svg>