<svg xmlns="http://www.w3.org/2000/svg" xmlns:xlink="http://www.w3.org/1999/xlink" xml:lang="en" height="321.938pt" width="451.2694pt" viewBox="-114.64079999999998 -29.338 451.2694 321.938"><path d="M 0.0,-0.0 L 18.0,-0.0 L 21.0,-9.0 L 27.0,9.0 L 33.0,-9.0 L 39.0,9.0 L 45.0,-9.0 L 50.99999999999999,9.0 L 54.0,-0.0 L 72.0,-0.0" style="stroke:black;fill:none;stroke-width:2.0;stroke-dasharray:-;stroke-linecap:round;stroke-linejoin:round;" /><path d="M 0.0,72.0 L 18.0,72.0 L 21.0,63.0 L 27.0,81.0 L 33.0,63.0 L 39.0,81.0 L 45.0,63.0 L 50.99999999999999,81.0 L 54.0,72.0 L 72.0,72.0" style="stroke:black;fill:none;stroke-width:2.0;stroke-dasharray:-;stroke-linecap:round;stroke-linejoin:round;" /><path d="M 0.0,144.0 L 18.0,144.0 L 21.0,135.0 L 27.0,153.0 L 33.0,135.0 L 39.0,153.0 L 45.0,135.0 L 50.99999999999999,153.0 L 54.0,144.0 L 72.0,144.0" style="stroke:black;fill:none;stroke-width:2.0;stroke-dasharray:-;stroke-linecap:round;stroke-linejoin:round;" /><path d="M 0.0,216.0 L 18.0,216.0 L 21.0,207.0 L 27.0,225.0 L 33.0,207.0 L 39.0,225.0 L 45.0,207.0 L 50.99999999999999,225.0 L 54.0,216.0 L 72.0,216.0" style="stroke:black;fill:none;stroke-width:2.0;stroke-dasharray:-;stroke-linecap:round;stroke-linejoin:round;" /><path d="M 0.0,-0.0 L 33.70897402895559,33.70897402895558 M 40.07293505963452,27.34501299827666 L 27.345012998276662,40.07293505963452 M 44.65498700172335,31.92706494036548 L 31.92706494036549,44.65498700172334 M 38.29102597104442,38.291025971044405 L 72.0,71.99999999999999" style="stroke:black;fill:none;stroke-width:2.0;stroke-dasharray:-;stroke-linecap:round;stroke-linejoin:round;" /><path d="M 0.0,72.0 L 33.70897402895559,105.70897402895558 M 40.07293505963452,99.34501299827666 L 27.345012998276662,112.07293505963452 M 44.65498700172335,103.92706494036548 L 31.92706494036549,116.65498700172333 M 38.29102597104442,110.29102597104442 L 72.0,143.99999999999997" style="stroke:black;fill:none;stroke-width:2.0;stroke-dasharray:-;stroke-linecap:round;stroke-linejoin:round;" /><path d="M 0.0,144.0 L 33.70897402895559,177.7089740289556 M 40.07293505963452,171.34501299827667 L 27.345012998276662,184.07293505963452 M 44.65498700172335,175.92706494036548 L 31.92706494036549,188.65498700172333 M 38.29102597104442,182.2910259710444 L 72.0,216.0" style="stroke:black;fill:none;stroke-width:2.0;stroke-dasharray:-;stroke-linecap:round;stroke-linejoin:round;" /><path d="M 0.0,216.0 L 33.70897402895559,249.7089740289556 M 40.07293505963452,243.34501299827667 L 27.345012998276662,256.0729350596345 M 44.65498700172335,247.92706494036548 L 31.92706494036549,260.6549870017233 M 38.29102597104442,254.2910259710444 L 72.0,288.0" style="stroke:black;fill:none;stroke-width:2.0;stroke-dasharray:-;stroke-linecap:round;stroke-linejoin:round;" /><path d="M 72.0,288.0 L 90.0,288.0 L 108.0,288.0" style="stroke:black;fill:none;stroke-width:2.0;stroke-dasharray:-;stroke-linecap:round;stroke-linejoin:round;" /><path d="M 108.0,288.0 L 108.00000000000001,144.0 L 108.00000000000001,-0.0" style="stroke:black;fill:none;stroke-width:2.0;stroke-dasharray:-;stroke-linecap:round;stroke-linejoin:round;" /><path d="M 144.0,-0.0 L 162.0,-0.0 L 165.0,-9.0 L 171.0,9.0 L 177.0,-9.0 L 183.0,9.0 L 189.0,-9.0 L 194.99999999999997,9.0 L 198.0,-0.0 L 216.0,-0.0" style="stroke:black;fill:none;stroke-width:2.0;stroke-dasharray:-;stroke-linecap:round;stroke-linejoin:round;" /><path d="M 144.0,72.0 L 162.0,72.0 L 165.0,63.0 L 171.0,81.0 L 177.0,63.0 L 183.0,81.0 L 189.0,63.0 L 194.99999999999997,81.0 L 198.0,72.0 L 216.0,72.0" style="stroke:black;fill:none;stroke-width:2.0;stroke-dasharray:-;stroke-linecap:round;stroke-linejoin:round;" /><path d="M 144.0,144.0 L 162.0,144.0 L 165.0,135.0 L 171.0,153.0 L 177.0,135.0 L 183.0,153.0 L 189.0,135.0 L 194.99999999999997,153.0 L 198.0,144.0 L 216.0,144.0" style="stroke:black;fill:none;stroke-width:2.0;stroke-dasharray:-;stroke-linecap:round;stroke-linejoin:round;" /><path d="M 144.0,216.0 L 162.0,216.0 L 165.0,207.0 L 171.0,225.0 L 177.0,207.0 L 183.0,225.0 L 189.0,207.0 L 194.99999999999997,225.0 L 198.0,216.0 L 216.0,216.0" style="stroke:black;fill:none;stroke-width:2.0;stroke-dasharray:-;stroke-linecap:round;stroke-linejoin:round;" /><path d="M 144.0,-0.0 L 177.7089740289556,33.70897402895558 M 184.07293505963452,27.34501299827666 L 171.34501299827667,40.07293505963452 M 188.65498700172336,31.92706494036548 L 175.9270649403655,44.65498700172334 M 182.2910259710444,38.291025971044405 L 216.0,71.99999999999999" style="stroke:black;fill:none;stroke-width:2.0;stroke-dasharray:-;stroke-linecap:round;stroke-linejoin:round;" /><path d="M 144.0,72.0 L 177.7089740289556,105.70897402895558 M 184.07293505963452,99.34501299827666 L 171.34501299827667,112.07293505963452 M 188.65498700172336,103.92706494036548 L 175.9270649403655,116.65498700172333 M 182.2910259710444,110.29102597104442 L 216.0,143.99999999999997" style="stroke:black;fill:none;stroke-width:2.0;stroke-dasharray:-;stroke-linecap:round;stroke-linejoin:round;" /><path d="M 144.0,144.0 L 177.7089740289556,177.7089740289556 M 184.07293505963452,171.34501299827667 L 171.34501299827667,184.07293505963452 M 188.65498700172336,175.92706494036548 L 175.9270649403655,188.65498700172333 M 182.2910259710444,182.2910259710444 L 216.0,216.0" style="stroke:black;fill:none;stroke-width:2.0;stroke-dasharray:-;stroke-linecap:round;stroke-linejoin:round;" /><path d="M 144.0,216.0 L 177.7089740289556,249.7089740289556 M 184.07293505963452,243.34501299827667 L 171.34501299827667,256.0729350596345 M 188.65498700172336,247.92706494036548 L 175.9270649403655,260.6549870017233 M 182.2910259710444,254.2910259710444 L 216.0,288.0" style="stroke:black;fill:none;stroke-width:2.0;stroke-dasharray:-;stroke-linecap:round;stroke-linejoin:round;" /><path d="M 216.0,288.0 L 234.0,288.0 L 252.0,288.0" style="stroke:black;fill:none;stroke-width:2.0;stroke-dasharray:-;stroke-linecap:round;stroke-linejoin:round;" /><path d="M 252.0,288.0 L 252.0,144.0 L 252.00000000000003,-0.0" style="stroke:black;fill:none;stroke-width:2.0;stroke-dasharray:-;stroke-linecap:round;stroke-linejoin:round;" /><path d="M 0.0,-0.0 L -18.0,-2.204364238465236e-15 L -36.0,-4.408728476930472e-15" style="stroke:black;fill:none;stroke-width:2.0;stroke-dasharray:-;stroke-linecap:round;stroke-linejoin:round;" /><path d="M -36.0,-4.408728476930472e-15 L -54.0,-6.613092715395707e-15 L -72.0,-8.817456953860943e-15" style="stroke:black;fill:none;stroke-width:2.0;stroke-dasharray:-;stroke-linecap:round;stroke-linejoin:round;" /><path d="M 0.0,72.0 L -18.0,72.0 L -36.0,71.99999999999999" style="stroke:black;fill:none;stroke-width:2.0;stroke-dasharray:-;stroke-linecap:round;stroke-linejoin:round;" /><path d="M -36.0,71.99999999999999 L -35.99999999999999,35.99999999999999 L -35.99999999999999,-7.993605777301127e-15" style="stroke:black;fill:none;stroke-width:2.0;stroke-dasharray:-;stroke-linecap:round;stroke-linejoin:round;" /><path d="M 0.0,144.0 L -18.0,144.0 L -36.0,144.0" style="stroke:black;fill:none;stroke-width:2.0;stroke-dasharray:-;stroke-linecap:round;stroke-linejoin:round;" /><path d="M -36.0,144.0 L -54.0,144.0 L -72.0,144.0" style="stroke:black;fill:none;stroke-width:2.0;stroke-dasharray:-;stroke-linecap:round;stroke-linejoin:round;" /><path d="M 0.0,216.0 L -18.0,216.0 L -36.0,216.0" style="stroke:black;fill:none;stroke-width:2.0;stroke-dasharray:-;stroke-linecap:round;stroke-linejoin:round;" /><path d="M -36.0,216.0 L -35.99999999999999,180.0 L -35.99999999999999,144.0" style="stroke:black;fill:none;stroke-width:2.0;stroke-dasharray:-;stroke-linecap:round;stroke-linejoin:round;" /><path d="M 72.0,-0.0 L 108.0,-0.0 L 144.0,-0.0" style="stroke:black;fill:none;stroke-width:2.0;stroke-dasharray:-;stroke-linecap:round;stroke-linejoin:round;" /><path d="M 72.0,72.0 L 108.0,72.0 L 144.0,72.0" style="stroke:black;fill:none;stroke-width:2.0;stroke-dasharray:-;stroke-linecap:round;stroke-linejoin:round;" /><path d="M 72.0,144.0 L 108.0,144.0 L 144.0,144.0" style="stroke:black;fill:none;stroke-width:2.0;stroke-dasharray:-;stroke-linecap:round;stroke-linejoin:round;" /><path d="M 72.0,216.0 L 108.0,216.0 L 144.0,216.0" style="stroke:black;fill:none;stroke-width:2.0;stroke-dasharray:-;stroke-linecap:round;stroke-linejoin:round;" /><path d="M 216.0,-0.0 L 252.0,-0.0 L 288.0,-0.0" style="stroke:black;fill:none;stroke-width:2.0;stroke-dasharray:-;stroke-linecap:round;stroke-linejoin:round;" /><path d="M 216.0,72.0 L 252.0,72.0 L 288.0,72.0" style="stroke:black;fill:none;stroke-width:2.0;stroke-dasharray:-;stroke-linecap:round;stroke-linejoin:round;" /><path d="M 216.0,144.0 L 252.0,144.0 L 288.0,144.0" style="stroke:black;fill:none;stroke-width:2.0;stroke-dasharray:-;stroke-linecap:round;stroke-linejoin:round;" /><path d="M 216.0,216.0 L 252.0,216.0 L 288.0,216.0" style="stroke:black;fill:none;stroke-width:2.0;stroke-dasharray:-;stroke-linecap:round;stroke-linejoin:round;" /><circle cx="0.0" cy="-0.0" r="2.6999999999999997" style="stroke:black;fill:black;stroke-width:2.0;stroke-dasharray:-;" /><g><g><g><path d="M 35.747 -22.806 L 35.747 -22.806 Q 35.747 -22.064 35.467 -21.56 Q 35.187 -21.056 34.739 -20.734 Q 34.291 -20.412 33.78 -20.237 Q 33.269 -20.062 32.807 -19.978 L 32.807 -19.908 Q 33.059 -19.74 33.283 -19.397 Q 33.507 -19.054 33.836 -18.41 Q 34.165 -17.766 34.739 -16.674 Q 34.977 -16.254 35.264 -16.107 Q 35.551 -15.96 36.027 -15.96 L 35.943 -15.54 L 33.815 -15.54 Q 33.423 -16.408 33.157 -16.989 Q 32.891 -17.57 32.695 -17.962 Q 32.499 -18.354 32.352 -18.662 Q 32.205 -18.97 32.037 -19.292 Q 31.883 -19.586 31.701 -19.677 Q 31.519 -19.768 31.141 -19.768 L 30.847 -19.768 L 30.329 -17.276 Q 30.217 -16.702 30.252 -16.415 Q 30.287 -16.128 30.567 -16.044 Q 30.847 -15.96 31.449 -15.96 L 31.379 -15.54 L 27.515 -15.54 L 27.599 -15.96 Q 28.117 -15.96 28.397 -16.044 Q 28.677 -16.128 28.824 -16.408 Q 28.971 -16.688 29.083 -17.276 L 30.315 -23.282 Q 30.399 -23.674 30.357 -23.898 Q 30.315 -24.122 30.07 -24.22 Q 29.825 -24.318 29.265 -24.318 L 29.349 -24.738 L 32.639 -24.738 Q 34.109 -24.738 34.928 -24.283 Q 35.747 -23.828 35.747 -22.806 Z M 31.729 -24.15 L 31.729 -24.15 L 30.945 -20.286 L 31.379 -20.272 Q 32.219 -20.3 32.898 -20.545 Q 33.577 -20.79 33.969 -21.322 Q 34.361 -21.854 34.361 -22.75 Q 34.361 -23.128 34.2 -23.457 Q 34.039 -23.786 33.647 -23.989 Q 33.255 -24.192 32.555 -24.192 Q 32.289 -24.192 32.128 -24.185 Q 31.967 -24.178 31.729 -24.15 Z " fill="black" /><path d="M 40.904 -12.6 L 40.904 -12.6 L 37.582 -12.6 L 37.582 -12.953 Q 38.288 -12.953 38.518 -13.095 Q 38.748 -13.237 38.748 -13.609 L 38.748 -17.882 Q 38.748 -18.147 38.67 -18.264 Q 38.592 -18.382 38.386 -18.382 Q 38.229 -18.382 37.96 -18.338 Q 37.69 -18.294 37.494 -18.245 L 37.494 -18.637 L 39.307 -19.137 L 39.729 -19.137 L 39.729 -13.609 Q 39.729 -13.237 39.978 -13.095 Q 40.228 -12.953 40.904 -12.953 Z " fill="black" /></g></g></g><circle cx="72.0" cy="72.0" r="2.6999999999999997" style="stroke:black;fill:black;stroke-width:2.0;stroke-dasharray:-;" /><circle cx="0.0" cy="72.0" r="2.6999999999999997" style="stroke:black;fill:black;stroke-width:2.0;stroke-dasharray:-;" /><g><g><g><path d="M 37.097 49.194 L 37.097 49.194 Q 37.097 49.936 36.817 50.44 Q 36.537 50.944 36.089 51.266 Q 35.641 51.588 35.13 51.763 Q 34.619 51.938 34.157 52.022 L 34.157 52.092 Q 34.409 52.26 34.633 52.603 Q 34.857 52.946 35.186 53.59 Q 35.515 54.234 36.089 55.326 Q 36.327 55.746 36.614 55.893 Q 36.901 56.04 37.377 56.04 L 37.293 56.46 L 35.165 56.46 Q 34.773 55.592 34.507 55.011 Q 34.241 54.43 34.045 54.038 Q 33.849 53.646 33.702 53.338 Q 33.555 53.03 33.387 52.708 Q 33.233 52.414 33.051 52.323 Q 32.869 52.232 32.491 52.232 L 32.197 52.232 L 31.679 54.724 Q 31.567 55.298 31.602 55.585 Q 31.637 55.872 31.917 55.956 Q 32.197 56.04 32.799 56.04 L 32.729 56.46 L 28.865 56.46 L 28.949 56.04 Q 29.467 56.04 29.747 55.956 Q 30.027 55.872 30.174 55.592 Q 30.321 55.312 30.433 54.724 L 31.665 48.718 Q 31.749 48.326 31.707 48.102 Q 31.665 47.878 31.42 47.78 Q 31.175 47.682 30.615 47.682 L 30.699 47.262 L 33.989 47.262 Q 35.459 47.262 36.278 47.717 Q 37.097 48.172 37.097 49.194 Z M 33.079 47.85 L 33.079 47.85 L 32.295 51.714 L 32.729 51.728 Q 33.569 51.7 34.248 51.455 Q 34.927 51.21 35.319 50.678 Q 35.711 50.146 35.711 49.25 Q 35.711 48.872 35.55 48.543 Q 35.389 48.214 34.997 48.011 Q 34.605 47.808 33.905 47.808 Q 33.639 47.808 33.478 47.815 Q 33.317 47.822 33.079 47.85 Z " fill="black" /><path d="M 42.254 59.4 L 42.254 59.4 L 38.932 59.4 L 38.932 59.047 Q 39.638 59.047 39.868 58.905 Q 40.098 58.763 40.098 58.391 L 40.098 54.118 Q 40.098 53.853 40.02 53.736 Q 39.942 53.618 39.736 53.618 Q 39.579 53.618 39.31 53.662 Q 39.04 53.706 38.844 53.755 L 38.844 53.363 L 40.657 52.863 L 41.078 52.863 L 41.078 58.391 Q 41.078 58.763 41.328 58.905 Q 41.578 59.047 42.254 59.047 Z " fill="black" /></g></g></g><circle cx="72.0" cy="144.0" r="2.6999999999999997" style="stroke:black;fill:black;stroke-width:2.0;stroke-dasharray:-;" /><circle cx="0.0" cy="144.0" r="2.6999999999999997" style="stroke:black;fill:black;stroke-width:2.0;stroke-dasharray:-;" /><g><g><g><path d="M 37.097 121.194 L 37.097 121.194 Q 37.097 121.936 36.817 122.44 Q 36.537 122.944 36.089 123.266 Q 35.641 123.588 35.13 123.763 Q 34.619 123.938 34.157 124.022 L 34.157 124.092 Q 34.409 124.26 34.633 124.603 Q 34.857 124.946 35.186 125.59 Q 35.515 126.234 36.089 127.326 Q 36.327 127.746 36.614 127.893 Q 36.901 128.04 37.377 128.04 L 37.293 128.46 L 35.165 128.46 Q 34.773 127.592 34.507 127.011 Q 34.241 126.43 34.045 126.038 Q 33.849 125.646 33.702 125.338 Q 33.555 125.03 33.387 124.708 Q 33.233 124.414 33.051 124.323 Q 32.869 124.232 32.491 124.232 L 32.197 124.232 L 31.679 126.724 Q 31.567 127.298 31.602 127.585 Q 31.637 127.872 31.917 127.956 Q 32.197 128.04 32.799 128.04 L 32.729 128.46 L 28.865 128.46 L 28.949 128.04 Q 29.467 128.04 29.747 127.956 Q 30.027 127.872 30.174 127.592 Q 30.321 127.312 30.433 126.724 L 31.665 120.718 Q 31.749 120.326 31.707 120.102 Q 31.665 119.878 31.42 119.78 Q 31.175 119.682 30.615 119.682 L 30.699 119.262 L 33.989 119.262 Q 35.459 119.262 36.278 119.717 Q 37.097 120.172 37.097 121.194 Z M 33.079 119.85 L 33.079 119.85 L 32.295 123.714 L 32.729 123.728 Q 33.569 123.7 34.248 123.455 Q 34.927 123.21 35.319 122.678 Q 35.711 122.146 35.711 121.25 Q 35.711 120.872 35.55 120.543 Q 35.389 120.214 34.997 120.011 Q 34.605 119.808 33.905 119.808 Q 33.639 119.808 33.478 119.815 Q 33.317 119.822 33.079 119.85 Z " fill="black" /><path d="M 42.254 131.4 L 42.254 131.4 L 38.932 131.4 L 38.932 131.047 Q 39.638 131.047 39.868 130.905 Q 40.098 130.763 40.098 130.391 L 40.098 126.118 Q 40.098 125.853 40.02 125.736 Q 39.942 125.618 39.736 125.618 Q 39.579 125.618 39.31 125.662 Q 39.04 125.706 38.844 125.755 L 38.844 125.363 L 40.657 124.863 L 41.078 124.863 L 41.078 130.391 Q 41.078 130.763 41.328 130.905 Q 41.578 131.047 42.254 131.047 Z " fill="black" /></g></g></g><circle cx="72.0" cy="216.0" r="2.6999999999999997" style="stroke:black;fill:black;stroke-width:2.0;stroke-dasharray:-;" /><circle cx="0.0" cy="216.0" r="2.6999999999999997" style="stroke:black;fill:black;stroke-width:2.0;stroke-dasharray:-;" /><g><g><g><path d="M 37.097 193.194 L 37.097 193.194 Q 37.097 193.936 36.817 194.44 Q 36.537 194.944 36.089 195.266 Q 35.641 195.588 35.13 195.763 Q 34.619 195.938 34.157 196.022 L 34.157 196.092 Q 34.409 196.26 34.633 196.603 Q 34.857 196.946 35.186 197.59 Q 35.515 198.234 36.089 199.326 Q 36.327 199.746 36.614 199.893 Q 36.901 200.04 37.377 200.04 L 37.293 200.46 L 35.165 200.46 Q 34.773 199.592 34.507 199.011 Q 34.241 198.43 34.045 198.038 Q 33.849 197.646 33.702 197.338 Q 33.555 197.03 33.387 196.708 Q 33.233 196.414 33.051 196.323 Q 32.869 196.232 32.491 196.232 L 32.197 196.232 L 31.679 198.724 Q 31.567 199.298 31.602 199.585 Q 31.637 199.872 31.917 199.956 Q 32.197 200.04 32.799 200.04 L 32.729 200.46 L 28.865 200.46 L 28.949 200.04 Q 29.467 200.04 29.747 199.956 Q 30.027 199.872 30.174 199.592 Q 30.321 199.312 30.433 198.724 L 31.665 192.718 Q 31.749 192.326 31.707 192.102 Q 31.665 191.878 31.42 191.78 Q 31.175 191.682 30.615 191.682 L 30.699 191.262 L 33.989 191.262 Q 35.459 191.262 36.278 191.717 Q 37.097 192.172 37.097 193.194 Z M 33.079 191.85 L 33.079 191.85 L 32.295 195.714 L 32.729 195.728 Q 33.569 195.7 34.248 195.455 Q 34.927 195.21 35.319 194.678 Q 35.711 194.146 35.711 193.25 Q 35.711 192.872 35.55 192.543 Q 35.389 192.214 34.997 192.011 Q 34.605 191.808 33.905 191.808 Q 33.639 191.808 33.478 191.815 Q 33.317 191.822 33.079 191.85 Z " fill="black" /><path d="M 42.254 203.4 L 42.254 203.4 L 38.932 203.4 L 38.932 203.047 Q 39.638 203.047 39.868 202.905 Q 40.098 202.763 40.098 202.391 L 40.098 198.118 Q 40.098 197.853 40.02 197.736 Q 39.942 197.618 39.736 197.618 Q 39.579 197.618 39.31 197.662 Q 39.04 197.706 38.844 197.755 L 38.844 197.363 L 40.657 196.863 L 41.078 196.863 L 41.078 202.391 Q 41.078 202.763 41.328 202.905 Q 41.578 203.047 42.254 203.047 Z " fill="black" /></g></g></g><g><g><g><path d="M 52.848 22.12 L 52.848 22.12 L 53.1 22.386 Q 52.386 23.226 51.448 23.765 Q 50.51 24.304 49.18 24.304 Q 47.92 24.304 47.164 23.835 Q 46.408 23.366 46.079 22.582 Q 45.75 21.798 45.75 20.874 Q 45.75 19.404 46.198 18.263 Q 46.646 17.122 47.423 16.345 Q 48.2 15.568 49.18 15.169 Q 50.16 14.77 51.224 14.77 Q 51.938 14.77 52.337 14.896 Q 52.736 15.022 52.96 15.155 Q 53.184 15.288 53.352 15.288 Q 53.52 15.288 53.646 15.148 Q 53.772 15.008 53.94 14.784 L 54.346 14.784 L 53.688 17.99 L 53.226 17.99 Q 53.282 16.59 52.708 15.981 Q 52.134 15.372 51.098 15.372 Q 50.286 15.372 49.572 15.743 Q 48.858 16.114 48.305 16.793 Q 47.752 17.472 47.437 18.417 Q 47.122 19.362 47.122 20.524 Q 47.122 21.924 47.787 22.659 Q 48.452 23.394 49.838 23.394 Q 51.448 23.394 52.848 22.12 Z " fill="black" /><path d="M 58.131 27.09 L 58.131 27.09 L 54.809 27.09 L 54.809 26.738 Q 55.515 26.738 55.745 26.596 Q 55.975 26.453 55.975 26.081 L 55.975 21.808 Q 55.975 21.544 55.897 21.426 Q 55.818 21.308 55.613 21.308 Q 55.456 21.308 55.186 21.353 Q 54.917 21.397 54.721 21.446 L 54.721 21.054 L 56.534 20.554 L 56.955 20.554 L 56.955 26.081 Q 56.955 26.453 57.205 26.596 Q 57.455 26.738 58.131 26.738 Z " fill="black" /></g></g></g><g><g><g><path d="M 52.848 94.12 L 52.848 94.12 L 53.1 94.386 Q 52.386 95.226 51.448 95.765 Q 50.51 96.304 49.18 96.304 Q 47.92 96.304 47.164 95.835 Q 46.408 95.366 46.079 94.582 Q 45.75 93.798 45.75 92.874 Q 45.75 91.404 46.198 90.263 Q 46.646 89.122 47.423 88.345 Q 48.2 87.568 49.18 87.169 Q 50.16 86.77 51.224 86.77 Q 51.938 86.77 52.337 86.896 Q 52.736 87.022 52.96 87.155 Q 53.184 87.288 53.352 87.288 Q 53.52 87.288 53.646 87.148 Q 53.772 87.008 53.94 86.784 L 54.346 86.784 L 53.688 89.99 L 53.226 89.99 Q 53.282 88.59 52.708 87.981 Q 52.134 87.372 51.098 87.372 Q 50.286 87.372 49.572 87.743 Q 48.858 88.114 48.305 88.793 Q 47.752 89.472 47.437 90.417 Q 47.122 91.362 47.122 92.524 Q 47.122 93.924 47.787 94.659 Q 48.452 95.394 49.838 95.394 Q 51.448 95.394 52.848 94.12 Z " fill="black" /><path d="M 58.131 99.09 L 58.131 99.09 L 54.809 99.09 L 54.809 98.738 Q 55.515 98.738 55.745 98.596 Q 55.975 98.453 55.975 98.081 L 55.975 93.808 Q 55.975 93.544 55.897 93.426 Q 55.818 93.308 55.613 93.308 Q 55.456 93.308 55.186 93.353 Q 54.917 93.397 54.721 93.446 L 54.721 93.054 L 56.534 92.554 L 56.955 92.554 L 56.955 98.081 Q 56.955 98.453 57.205 98.596 Q 57.455 98.738 58.131 98.738 Z " fill="black" /></g></g></g><g><g><g><path d="M 52.848 166.12 L 52.848 166.12 L 53.1 166.386 Q 52.386 167.226 51.448 167.765 Q 50.51 168.304 49.18 168.304 Q 47.92 168.304 47.164 167.835 Q 46.408 167.366 46.079 166.582 Q 45.75 165.798 45.75 164.874 Q 45.75 163.404 46.198 162.263 Q 46.646 161.122 47.423 160.345 Q 48.2 159.568 49.18 159.169 Q 50.16 158.77 51.224 158.77 Q 51.938 158.77 52.337 158.896 Q 52.736 159.022 52.96 159.155 Q 53.184 159.288 53.352 159.288 Q 53.52 159.288 53.646 159.148 Q 53.772 159.008 53.94 158.784 L 54.346 158.784 L 53.688 161.99 L 53.226 161.99 Q 53.282 160.59 52.708 159.981 Q 52.134 159.372 51.098 159.372 Q 50.286 159.372 49.572 159.743 Q 48.858 160.114 48.305 160.793 Q 47.752 161.472 47.437 162.417 Q 47.122 163.362 47.122 164.524 Q 47.122 165.924 47.787 166.659 Q 48.452 167.394 49.838 167.394 Q 51.448 167.394 52.848 166.12 Z " fill="black" /><path d="M 58.131 171.09 L 58.131 171.09 L 54.809 171.09 L 54.809 170.738 Q 55.515 170.738 55.745 170.596 Q 55.975 170.453 55.975 170.081 L 55.975 165.808 Q 55.975 165.544 55.897 165.426 Q 55.818 165.308 55.613 165.308 Q 55.456 165.308 55.186 165.353 Q 54.917 165.397 54.721 165.446 L 54.721 165.054 L 56.534 164.554 L 56.955 164.554 L 56.955 170.081 Q 56.955 170.453 57.205 170.596 Q 57.455 170.738 58.131 170.738 Z " fill="black" /></g></g></g><g><g><g><path d="M 52.848 238.12 L 52.848 238.12 L 53.1 238.386 Q 52.386 239.226 51.448 239.765 Q 50.51 240.304 49.18 240.304 Q 47.92 240.304 47.164 239.835 Q 46.408 239.366 46.079 238.582 Q 45.75 237.798 45.75 236.874 Q 45.75 235.404 46.198 234.263 Q 46.646 233.122 47.423 232.345 Q 48.2 231.568 49.18 231.169 Q 50.16 230.77 51.224 230.77 Q 51.938 230.77 52.337 230.896 Q 52.736 231.022 52.96 231.155 Q 53.184 231.288 53.352 231.288 Q 53.52 231.288 53.646 231.148 Q 53.772 231.008 53.94 230.784 L 54.346 230.784 L 53.688 233.99 L 53.226 233.99 Q 53.282 232.59 52.708 231.981 Q 52.134 231.372 51.098 231.372 Q 50.286 231.372 49.572 231.743 Q 48.858 232.114 48.305 232.793 Q 47.752 233.472 47.437 234.417 Q 47.122 235.362 47.122 236.524 Q 47.122 237.924 47.787 238.659 Q 48.452 239.394 49.838 239.394 Q 51.448 239.394 52.848 238.12 Z " fill="black" /><path d="M 58.131 243.09 L 58.131 243.09 L 54.809 243.09 L 54.809 242.738 Q 55.515 242.738 55.745 242.596 Q 55.975 242.453 55.975 242.081 L 55.975 237.808 Q 55.975 237.544 55.897 237.426 Q 55.818 237.308 55.613 237.308 Q 55.456 237.308 55.186 237.353 Q 54.917 237.397 54.721 237.446 L 54.721 237.054 L 56.534 236.554 L 56.955 236.554 L 56.955 242.081 Q 56.955 242.453 57.205 242.596 Q 57.455 242.738 58.131 242.738 Z " fill="black" /></g></g></g><circle cx="108.00000000000001" cy="-0.0" r="2.6999999999999997" style="stroke:black;fill:black;stroke-width:2.0;stroke-dasharray:-;" /><circle cx="144.0" cy="-0.0" r="2.6999999999999997" style="stroke:black;fill:black;stroke-width:2.0;stroke-dasharray:-;" /><g><g><g><path d="M 179.673 -22.806 L 179.673 -22.806 Q 179.673 -22.064 179.393 -21.56 Q 179.113 -21.056 178.665 -20.734 Q 178.217 -20.412 177.706 -20.237 Q 177.195 -20.062 176.733 -19.978 L 176.733 -19.908 Q 176.985 -19.74 177.209 -19.397 Q 177.433 -19.054 177.762 -18.41 Q 178.091 -17.766 178.665 -16.674 Q 178.903 -16.254 179.19 -16.107 Q 179.477 -15.96 179.953 -15.96 L 179.869 -15.54 L 177.741 -15.54 Q 177.349 -16.408 177.083 -16.989 Q 176.817 -17.57 176.621 -17.962 Q 176.425 -18.354 176.278 -18.662 Q 176.131 -18.97 175.963 -19.292 Q 175.809 -19.586 175.627 -19.677 Q 175.445 -19.768 175.067 -19.768 L 174.773 -19.768 L 174.255 -17.276 Q 174.143 -16.702 174.178 -16.415 Q 174.213 -16.128 174.493 -16.044 Q 174.773 -15.96 175.375 -15.96 L 175.305 -15.54 L 171.441 -15.54 L 171.525 -15.96 Q 172.043 -15.96 172.323 -16.044 Q 172.603 -16.128 172.75 -16.408 Q 172.897 -16.688 173.009 -17.276 L 174.241 -23.282 Q 174.325 -23.674 174.283 -23.898 Q 174.241 -24.122 173.996 -24.22 Q 173.751 -24.318 173.191 -24.318 L 173.275 -24.738 L 176.565 -24.738 Q 178.035 -24.738 178.854 -24.283 Q 179.673 -23.828 179.673 -22.806 Z M 175.655 -24.15 L 175.655 -24.15 L 174.871 -20.286 L 175.305 -20.272 Q 176.145 -20.3 176.824 -20.545 Q 177.503 -20.79 177.895 -21.322 Q 178.287 -21.854 178.287 -22.75 Q 178.287 -23.128 178.126 -23.457 Q 177.965 -23.786 177.573 -23.989 Q 177.181 -24.192 176.481 -24.192 Q 176.215 -24.192 176.054 -24.185 Q 175.893 -24.178 175.655 -24.15 Z " fill="black" /><path d="M 185.39 -14.305 L 185.39 -14.305 L 185.056 -12.6 L 181.038 -12.6 L 181.038 -13.08 L 182.43 -14.491 Q 182.979 -15.04 183.337 -15.462 Q 183.694 -15.883 183.871 -16.309 Q 184.047 -16.736 184.047 -17.284 Q 184.047 -17.804 183.729 -18.142 Q 183.41 -18.48 182.832 -18.48 Q 182.303 -18.48 181.945 -18.269 Q 181.587 -18.059 181.313 -17.578 L 181.048 -17.706 Q 181.293 -18.392 181.808 -18.784 Q 182.322 -19.176 183.077 -19.176 Q 183.665 -19.176 184.116 -18.965 Q 184.566 -18.754 184.821 -18.362 Q 185.076 -17.97 185.076 -17.412 Q 185.076 -16.932 184.86 -16.51 Q 184.645 -16.089 184.248 -15.648 Q 183.851 -15.207 183.302 -14.668 L 182.077 -13.482 L 182.077 -13.413 L 182.842 -13.453 L 184.116 -13.453 Q 184.4 -13.453 184.552 -13.531 Q 184.704 -13.609 184.811 -13.8 Q 184.919 -13.992 185.047 -14.305 Z " fill="black" /></g></g></g><circle cx="216.0" cy="72.0" r="2.6999999999999997" style="stroke:black;fill:black;stroke-width:2.0;stroke-dasharray:-;" /><circle cx="144.0" cy="72.0" r="2.6999999999999997" style="stroke:black;fill:black;stroke-width:2.0;stroke-dasharray:-;" /><g><g><g><path d="M 181.023 49.194 L 181.023 49.194 Q 181.023 49.936 180.743 50.44 Q 180.463 50.944 180.015 51.266 Q 179.567 51.588 179.056 51.763 Q 178.545 51.938 178.083 52.022 L 178.083 52.092 Q 178.335 52.26 178.559 52.603 Q 178.783 52.946 179.112 53.59 Q 179.441 54.234 180.015 55.326 Q 180.253 55.746 180.54 55.893 Q 180.827 56.04 181.303 56.04 L 181.219 56.46 L 179.091 56.46 Q 178.699 55.592 178.433 55.011 Q 178.167 54.43 177.971 54.038 Q 177.775 53.646 177.628 53.338 Q 177.481 53.03 177.313 52.708 Q 177.159 52.414 176.977 52.323 Q 176.795 52.232 176.417 52.232 L 176.123 52.232 L 175.605 54.724 Q 175.493 55.298 175.528 55.585 Q 175.563 55.872 175.843 55.956 Q 176.123 56.04 176.725 56.04 L 176.655 56.46 L 172.791 56.46 L 172.875 56.04 Q 173.393 56.04 173.673 55.956 Q 173.953 55.872 174.1 55.592 Q 174.247 55.312 174.359 54.724 L 175.591 48.718 Q 175.675 48.326 175.633 48.102 Q 175.591 47.878 175.346 47.78 Q 175.101 47.682 174.541 47.682 L 174.625 47.262 L 177.915 47.262 Q 179.385 47.262 180.204 47.717 Q 181.023 48.172 181.023 49.194 Z M 177.005 47.85 L 177.005 47.85 L 176.221 51.714 L 176.655 51.728 Q 177.495 51.7 178.174 51.455 Q 178.853 51.21 179.245 50.678 Q 179.637 50.146 179.637 49.25 Q 179.637 48.872 179.476 48.543 Q 179.315 48.214 178.923 48.011 Q 178.531 47.808 177.831 47.808 Q 177.565 47.808 177.404 47.815 Q 177.243 47.822 177.005 47.85 Z " fill="black" /><path d="M 186.74 57.695 L 186.74 57.695 L 186.406 59.4 L 182.388 59.4 L 182.388 58.92 L 183.78 57.509 Q 184.329 56.96 184.687 56.538 Q 185.044 56.117 185.221 55.691 Q 185.397 55.264 185.397 54.716 Q 185.397 54.196 185.079 53.858 Q 184.76 53.52 184.182 53.52 Q 183.653 53.52 183.295 53.731 Q 182.937 53.941 182.663 54.422 L 182.398 54.294 Q 182.643 53.608 183.158 53.216 Q 183.672 52.824 184.427 52.824 Q 185.015 52.824 185.466 53.035 Q 185.916 53.246 186.171 53.638 Q 186.426 54.03 186.426 54.588 Q 186.426 55.068 186.21 55.49 Q 185.995 55.911 185.598 56.352 Q 185.201 56.793 184.652 57.332 L 183.427 58.518 L 183.427 58.587 L 184.192 58.547 L 185.466 58.547 Q 185.75 58.547 185.902 58.469 Q 186.054 58.391 186.161 58.2 Q 186.269 58.008 186.397 57.695 Z " fill="black" /></g></g></g><circle cx="216.0" cy="144.0" r="2.6999999999999997" style="stroke:black;fill:black;stroke-width:2.0;stroke-dasharray:-;" /><circle cx="144.0" cy="144.0" r="2.6999999999999997" style="stroke:black;fill:black;stroke-width:2.0;stroke-dasharray:-;" /><g><g><g><path d="M 181.023 121.194 L 181.023 121.194 Q 181.023 121.936 180.743 122.44 Q 180.463 122.944 180.015 123.266 Q 179.567 123.588 179.056 123.763 Q 178.545 123.938 178.083 124.022 L 178.083 124.092 Q 178.335 124.26 178.559 124.603 Q 178.783 124.946 179.112 125.59 Q 179.441 126.234 180.015 127.326 Q 180.253 127.746 180.54 127.893 Q 180.827 128.04 181.303 128.04 L 181.219 128.46 L 179.091 128.46 Q 178.699 127.592 178.433 127.011 Q 178.167 126.43 177.971 126.038 Q 177.775 125.646 177.628 125.338 Q 177.481 125.03 177.313 124.708 Q 177.159 124.414 176.977 124.323 Q 176.795 124.232 176.417 124.232 L 176.123 124.232 L 175.605 126.724 Q 175.493 127.298 175.528 127.585 Q 175.563 127.872 175.843 127.956 Q 176.123 128.04 176.725 128.04 L 176.655 128.46 L 172.791 128.46 L 172.875 128.04 Q 173.393 128.04 173.673 127.956 Q 173.953 127.872 174.1 127.592 Q 174.247 127.312 174.359 126.724 L 175.591 120.718 Q 175.675 120.326 175.633 120.102 Q 175.591 119.878 175.346 119.78 Q 175.101 119.682 174.541 119.682 L 174.625 119.262 L 177.915 119.262 Q 179.385 119.262 180.204 119.717 Q 181.023 120.172 181.023 121.194 Z M 177.005 119.85 L 177.005 119.85 L 176.221 123.714 L 176.655 123.728 Q 177.495 123.7 178.174 123.455 Q 178.853 123.21 179.245 122.678 Q 179.637 122.146 179.637 121.25 Q 179.637 120.872 179.476 120.543 Q 179.315 120.214 178.923 120.011 Q 178.531 119.808 177.831 119.808 Q 177.565 119.808 177.404 119.815 Q 177.243 119.822 177.005 119.85 Z " fill="black" /><path d="M 186.74 129.695 L 186.74 129.695 L 186.406 131.4 L 182.388 131.4 L 182.388 130.92 L 183.78 129.509 Q 184.329 128.96 184.687 128.538 Q 185.044 128.117 185.221 127.691 Q 185.397 127.264 185.397 126.716 Q 185.397 126.196 185.079 125.858 Q 184.76 125.52 184.182 125.52 Q 183.653 125.52 183.295 125.731 Q 182.937 125.941 182.663 126.422 L 182.398 126.294 Q 182.643 125.608 183.158 125.216 Q 183.672 124.824 184.427 124.824 Q 185.015 124.824 185.466 125.035 Q 185.916 125.246 186.171 125.638 Q 186.426 126.03 186.426 126.588 Q 186.426 127.068 186.21 127.49 Q 185.995 127.911 185.598 128.352 Q 185.201 128.793 184.652 129.332 L 183.427 130.518 L 183.427 130.587 L 184.192 130.547 L 185.466 130.547 Q 185.75 130.547 185.902 130.469 Q 186.054 130.391 186.161 130.2 Q 186.269 130.008 186.397 129.695 Z " fill="black" /></g></g></g><circle cx="216.0" cy="216.0" r="2.6999999999999997" style="stroke:black;fill:black;stroke-width:2.0;stroke-dasharray:-;" /><circle cx="144.0" cy="216.0" r="2.6999999999999997" style="stroke:black;fill:black;stroke-width:2.0;stroke-dasharray:-;" /><g><g><g><path d="M 181.023 193.194 L 181.023 193.194 Q 181.023 193.936 180.743 194.44 Q 180.463 194.944 180.015 195.266 Q 179.567 195.588 179.056 195.763 Q 178.545 195.938 178.083 196.022 L 178.083 196.092 Q 178.335 196.26 178.559 196.603 Q 178.783 196.946 179.112 197.59 Q 179.441 198.234 180.015 199.326 Q 180.253 199.746 180.54 199.893 Q 180.827 200.04 181.303 200.04 L 181.219 200.46 L 179.091 200.46 Q 178.699 199.592 178.433 199.011 Q 178.167 198.43 177.971 198.038 Q 177.775 197.646 177.628 197.338 Q 177.481 197.03 177.313 196.708 Q 177.159 196.414 176.977 196.323 Q 176.795 196.232 176.417 196.232 L 176.123 196.232 L 175.605 198.724 Q 175.493 199.298 175.528 199.585 Q 175.563 199.872 175.843 199.956 Q 176.123 200.04 176.725 200.04 L 176.655 200.46 L 172.791 200.46 L 172.875 200.04 Q 173.393 200.04 173.673 199.956 Q 173.953 199.872 174.1 199.592 Q 174.247 199.312 174.359 198.724 L 175.591 192.718 Q 175.675 192.326 175.633 192.102 Q 175.591 191.878 175.346 191.78 Q 175.101 191.682 174.541 191.682 L 174.625 191.262 L 177.915 191.262 Q 179.385 191.262 180.204 191.717 Q 181.023 192.172 181.023 193.194 Z M 177.005 191.85 L 177.005 191.85 L 176.221 195.714 L 176.655 195.728 Q 177.495 195.7 178.174 195.455 Q 178.853 195.21 179.245 194.678 Q 179.637 194.146 179.637 193.25 Q 179.637 192.872 179.476 192.543 Q 179.315 192.214 178.923 192.011 Q 178.531 191.808 177.831 191.808 Q 177.565 191.808 177.404 191.815 Q 177.243 191.822 177.005 191.85 Z " fill="black" /><path d="M 186.74 201.695 L 186.74 201.695 L 186.406 203.4 L 182.388 203.4 L 182.388 202.92 L 183.78 201.509 Q 184.329 200.96 184.687 200.538 Q 185.044 200.117 185.221 199.691 Q 185.397 199.264 185.397 198.716 Q 185.397 198.196 185.079 197.858 Q 184.76 197.52 184.182 197.52 Q 183.653 197.52 183.295 197.731 Q 182.937 197.941 182.663 198.422 L 182.398 198.294 Q 182.643 197.608 183.158 197.216 Q 183.672 196.824 184.427 196.824 Q 185.015 196.824 185.466 197.035 Q 185.916 197.246 186.171 197.638 Q 186.426 198.03 186.426 198.588 Q 186.426 199.068 186.21 199.49 Q 185.995 199.911 185.598 200.352 Q 185.201 200.793 184.652 201.332 L 183.427 202.518 L 183.427 202.587 L 184.192 202.547 L 185.466 202.547 Q 185.75 202.547 185.902 202.469 Q 186.054 202.391 186.161 202.2 Q 186.269 202.008 186.397 201.695 Z " fill="black" /></g></g></g><g><g><g><path d="M 196.848 22.12 L 196.848 22.12 L 197.1 22.386 Q 196.386 23.226 195.448 23.765 Q 194.51 24.304 193.18 24.304 Q 191.92 24.304 191.164 23.835 Q 190.408 23.366 190.079 22.582 Q 189.75 21.798 189.75 20.874 Q 189.75 19.404 190.198 18.263 Q 190.646 17.122 191.423 16.345 Q 192.2 15.568 193.18 15.169 Q 194.16 14.77 195.224 14.77 Q 195.938 14.77 196.337 14.896 Q 196.736 15.022 196.96 15.155 Q 197.184 15.288 197.352 15.288 Q 197.52 15.288 197.646 15.148 Q 197.772 15.008 197.94 14.784 L 198.346 14.784 L 197.688 17.99 L 197.226 17.99 Q 197.282 16.59 196.708 15.981 Q 196.134 15.372 195.098 15.372 Q 194.286 15.372 193.572 15.743 Q 192.858 16.114 192.305 16.793 Q 191.752 17.472 191.437 18.417 Q 191.122 19.362 191.122 20.524 Q 191.122 21.924 191.787 22.659 Q 192.452 23.394 193.838 23.394 Q 195.448 23.394 196.848 22.12 Z " fill="black" /><path d="M 202.69 25.385 L 202.69 25.385 L 202.357 27.09 L 198.339 27.09 L 198.339 26.61 L 199.73 25.199 Q 200.279 24.65 200.637 24.229 Q 200.994 23.807 201.171 23.381 Q 201.347 22.955 201.347 22.406 Q 201.347 21.887 201.029 21.549 Q 200.71 21.21 200.132 21.21 Q 199.603 21.21 199.245 21.421 Q 198.887 21.632 198.613 22.112 L 198.348 21.985 Q 198.593 21.299 199.108 20.907 Q 199.622 20.515 200.377 20.515 Q 200.965 20.515 201.416 20.725 Q 201.867 20.936 202.121 21.328 Q 202.376 21.72 202.376 22.279 Q 202.376 22.759 202.161 23.18 Q 201.945 23.602 201.548 24.043 Q 201.151 24.484 200.602 25.023 L 199.377 26.208 L 199.377 26.277 L 200.142 26.238 L 201.416 26.238 Q 201.7 26.238 201.852 26.159 Q 202.004 26.081 202.112 25.89 Q 202.219 25.699 202.347 25.385 Z " fill="black" /></g></g></g><g><g><g><path d="M 196.848 94.12 L 196.848 94.12 L 197.1 94.386 Q 196.386 95.226 195.448 95.765 Q 194.51 96.304 193.18 96.304 Q 191.92 96.304 191.164 95.835 Q 190.408 95.366 190.079 94.582 Q 189.75 93.798 189.75 92.874 Q 189.75 91.404 190.198 90.263 Q 190.646 89.122 191.423 88.345 Q 192.2 87.568 193.18 87.169 Q 194.16 86.77 195.224 86.77 Q 195.938 86.77 196.337 86.896 Q 196.736 87.022 196.96 87.155 Q 197.184 87.288 197.352 87.288 Q 197.52 87.288 197.646 87.148 Q 197.772 87.008 197.94 86.784 L 198.346 86.784 L 197.688 89.99 L 197.226 89.99 Q 197.282 88.59 196.708 87.981 Q 196.134 87.372 195.098 87.372 Q 194.286 87.372 193.572 87.743 Q 192.858 88.114 192.305 88.793 Q 191.752 89.472 191.437 90.417 Q 191.122 91.362 191.122 92.524 Q 191.122 93.924 191.787 94.659 Q 192.452 95.394 193.838 95.394 Q 195.448 95.394 196.848 94.12 Z " fill="black" /><path d="M 202.69 97.385 L 202.69 97.385 L 202.357 99.09 L 198.339 99.09 L 198.339 98.61 L 199.73 97.199 Q 200.279 96.65 200.637 96.229 Q 200.994 95.807 201.171 95.381 Q 201.347 94.955 201.347 94.406 Q 201.347 93.887 201.029 93.549 Q 200.71 93.21 200.132 93.21 Q 199.603 93.21 199.245 93.421 Q 198.887 93.632 198.613 94.112 L 198.348 93.985 Q 198.593 93.299 199.108 92.907 Q 199.622 92.515 200.377 92.515 Q 200.965 92.515 201.416 92.725 Q 201.867 92.936 202.121 93.328 Q 202.376 93.72 202.376 94.279 Q 202.376 94.759 202.161 95.18 Q 201.945 95.602 201.548 96.043 Q 201.151 96.484 200.602 97.023 L 199.377 98.208 L 199.377 98.277 L 200.142 98.238 L 201.416 98.238 Q 201.7 98.238 201.852 98.159 Q 202.004 98.081 202.112 97.89 Q 202.219 97.699 202.347 97.385 Z " fill="black" /></g></g></g><g><g><g><path d="M 196.848 166.12 L 196.848 166.12 L 197.1 166.386 Q 196.386 167.226 195.448 167.765 Q 194.51 168.304 193.18 168.304 Q 191.92 168.304 191.164 167.835 Q 190.408 167.366 190.079 166.582 Q 189.75 165.798 189.75 164.874 Q 189.75 163.404 190.198 162.263 Q 190.646 161.122 191.423 160.345 Q 192.2 159.568 193.18 159.169 Q 194.16 158.77 195.224 158.77 Q 195.938 158.77 196.337 158.896 Q 196.736 159.022 196.96 159.155 Q 197.184 159.288 197.352 159.288 Q 197.52 159.288 197.646 159.148 Q 197.772 159.008 197.94 158.784 L 198.346 158.784 L 197.688 161.99 L 197.226 161.99 Q 197.282 160.59 196.708 159.981 Q 196.134 159.372 195.098 159.372 Q 194.286 159.372 193.572 159.743 Q 192.858 160.114 192.305 160.793 Q 191.752 161.472 191.437 162.417 Q 191.122 163.362 191.122 164.524 Q 191.122 165.924 191.787 166.659 Q 192.452 167.394 193.838 167.394 Q 195.448 167.394 196.848 166.12 Z " fill="black" /><path d="M 202.69 169.385 L 202.69 169.385 L 202.357 171.09 L 198.339 171.09 L 198.339 170.61 L 199.73 169.199 Q 200.279 168.65 200.637 168.229 Q 200.994 167.807 201.171 167.381 Q 201.347 166.955 201.347 166.406 Q 201.347 165.887 201.029 165.549 Q 200.71 165.21 200.132 165.21 Q 199.603 165.21 199.245 165.421 Q 198.887 165.632 198.613 166.112 L 198.348 165.985 Q 198.593 165.299 199.108 164.907 Q 199.622 164.515 200.377 164.515 Q 200.965 164.515 201.416 164.725 Q 201.867 164.936 202.121 165.328 Q 202.376 165.72 202.376 166.279 Q 202.376 166.759 202.161 167.18 Q 201.945 167.602 201.548 168.043 Q 201.151 168.484 200.602 169.023 L 199.377 170.208 L 199.377 170.277 L 200.142 170.238 L 201.416 170.238 Q 201.7 170.238 201.852 170.159 Q 202.004 170.081 202.112 169.89 Q 202.219 169.699 202.347 169.385 Z " fill="black" /></g></g></g><g><g><g><path d="M 196.848 238.12 L 196.848 238.12 L 197.1 238.386 Q 196.386 239.226 195.448 239.765 Q 194.51 240.304 193.18 240.304 Q 191.92 240.304 191.164 239.835 Q 190.408 239.366 190.079 238.582 Q 189.75 237.798 189.75 236.874 Q 189.75 235.404 190.198 234.263 Q 190.646 233.122 191.423 232.345 Q 192.2 231.568 193.18 231.169 Q 194.16 230.77 195.224 230.77 Q 195.938 230.77 196.337 230.896 Q 196.736 231.022 196.96 231.155 Q 197.184 231.288 197.352 231.288 Q 197.52 231.288 197.646 231.148 Q 197.772 231.008 197.94 230.784 L 198.346 230.784 L 197.688 233.99 L 197.226 233.99 Q 197.282 232.59 196.708 231.981 Q 196.134 231.372 195.098 231.372 Q 194.286 231.372 193.572 231.743 Q 192.858 232.114 192.305 232.793 Q 191.752 233.472 191.437 234.417 Q 191.122 235.362 191.122 236.524 Q 191.122 237.924 191.787 238.659 Q 192.452 239.394 193.838 239.394 Q 195.448 239.394 196.848 238.12 Z " fill="black" /><path d="M 202.69 241.385 L 202.69 241.385 L 202.357 243.09 L 198.339 243.09 L 198.339 242.61 L 199.73 241.199 Q 200.279 240.65 200.637 240.229 Q 200.994 239.807 201.171 239.381 Q 201.347 238.955 201.347 238.406 Q 201.347 237.887 201.029 237.549 Q 200.71 237.21 200.132 237.21 Q 199.603 237.21 199.245 237.421 Q 198.887 237.632 198.613 238.112 L 198.348 237.985 Q 198.593 237.299 199.108 236.907 Q 199.622 236.515 200.377 236.515 Q 200.965 236.515 201.416 236.725 Q 201.867 236.936 202.121 237.328 Q 202.376 237.72 202.376 238.279 Q 202.376 238.759 202.161 239.18 Q 201.945 239.602 201.548 240.043 Q 201.151 240.484 200.602 241.023 L 199.377 242.208 L 199.377 242.277 L 200.142 242.238 L 201.416 242.238 Q 201.7 242.238 201.852 242.159 Q 202.004 242.081 202.112 241.89 Q 202.219 241.699 202.347 241.385 Z " fill="black" /></g></g></g><circle cx="252.00000000000003" cy="-0.0" r="2.6999999999999997" style="stroke:black;fill:black;stroke-width:2.0;stroke-dasharray:-;" /><circle cx="-36.0" cy="-4.408728476930472e-15" r="2.6999999999999997" style="stroke:black;fill:black;stroke-width:2.0;stroke-dasharray:-;" /><circle cx="-72.0" cy="-8.817456953860943e-15" r="2.6999999999999997" style="stroke:black;fill:white;stroke-width:2.0;stroke-dasharray:-;" /><g><g><g><path d="M -100.029 0.644 L -100.029 0.644 L -96.207 -5.096 Q -96.011 -5.376 -95.892 -5.614 Q -95.773 -5.852 -95.773 -6.02 Q -95.773 -6.23 -95.955 -6.307 Q -96.137 -6.384 -96.613 -6.384 L -96.585 -6.804 L -93.561 -6.804 L -93.589 -6.384 Q -93.967 -6.384 -94.233 -6.272 Q -94.499 -6.16 -94.772 -5.845 Q -95.045 -5.53 -95.479 -4.886 L -100.617 2.464 L -101.079 2.464 L -101.863 -5.11 Q -101.947 -5.81 -102.171 -6.097 Q -102.395 -6.384 -102.955 -6.384 L -102.927 -6.804 L -99.497 -6.804 L -99.539 -6.384 Q -100.071 -6.384 -100.379 -6.174 Q -100.687 -5.964 -100.659 -5.488 Q -100.659 -5.418 -100.638 -5.236 Q -100.617 -5.054 -100.617 -4.984 L -100.197 -0.994 L -100.099 0.644 Z " fill="black" /><path d="M -92.224 4.971 L -92.224 4.971 L -92.224 5.334 L -94.714 5.334 L -94.714 4.971 Q -94.371 4.971 -94.219 4.898 Q -94.067 4.824 -94.028 4.663 Q -93.988 4.501 -93.988 4.236 L -93.988 1.277 Q -93.988 0.944 -94.096 0.875 Q -94.204 0.806 -94.459 0.806 Q -94.586 0.806 -94.665 0.816 Q -94.743 0.826 -94.743 0.826 L -94.743 0.434 L -93.43 0.218 L -93.028 0.218 L -93.028 4.236 Q -93.028 4.521 -92.984 4.682 Q -92.94 4.844 -92.768 4.908 Q -92.597 4.971 -92.224 4.971 Z M -93.518 -1.947 L -93.518 -1.947 Q -93.234 -1.947 -93.043 -1.751 Q -92.852 -1.555 -92.852 -1.301 Q -92.852 -1.065 -93.043 -0.869 Q -93.234 -0.673 -93.518 -0.673 Q -93.792 -0.673 -93.974 -0.869 Q -94.155 -1.065 -94.155 -1.301 Q -94.155 -1.555 -93.974 -1.751 Q -93.792 -1.947 -93.518 -1.947 Z " fill="black" /><path d="M -86.403 2.051 L -86.403 2.051 L -86.403 4.246 Q -86.403 4.521 -86.354 4.682 Q -86.305 4.844 -86.139 4.913 Q -85.972 4.981 -85.619 4.981 L -85.619 5.334 L -88.138 5.334 L -88.138 4.981 Q -87.765 4.981 -87.599 4.913 Q -87.432 4.844 -87.393 4.682 Q -87.354 4.521 -87.354 4.246 L -87.354 2.374 Q -87.354 1.718 -87.506 1.409 Q -87.658 1.1 -87.888 1.002 Q -88.118 0.904 -88.353 0.904 Q -88.775 0.904 -89.093 1.12 Q -89.412 1.336 -89.647 1.532 L -89.647 4.246 Q -89.647 4.521 -89.603 4.682 Q -89.559 4.844 -89.392 4.913 Q -89.226 4.981 -88.863 4.981 L -88.863 5.334 L -91.333 5.334 L -91.333 4.981 Q -90.99 4.981 -90.838 4.913 Q -90.686 4.844 -90.647 4.682 Q -90.607 4.521 -90.607 4.246 L -90.607 1.267 Q -90.607 0.993 -90.71 0.899 Q -90.813 0.806 -91.039 0.806 Q -91.156 0.806 -91.235 0.816 Q -91.313 0.826 -91.313 0.826 L -91.313 0.454 L -90 0.218 L -89.676 0.218 L -89.676 1.022 L -89.608 1.022 Q -89.186 0.64 -88.799 0.414 Q -88.412 0.189 -87.922 0.189 Q -87.344 0.189 -87.016 0.449 Q -86.687 0.708 -86.545 1.13 Q -86.403 1.551 -86.403 2.051 Z " fill="black" /><path d="M -84.394 6.804 L -84.394 6.804 L -84.561 6.481 Q -84.355 6.392 -84.139 6.25 Q -83.924 6.108 -83.782 5.848 Q -83.64 5.589 -83.64 5.167 Q -83.806 5.236 -83.983 5.236 Q -84.306 5.236 -84.443 5.045 Q -84.58 4.854 -84.58 4.609 Q -84.58 4.344 -84.404 4.148 Q -84.228 3.952 -83.894 3.952 Q -83.473 3.952 -83.252 4.212 Q -83.032 4.472 -83.032 4.932 Q -83.032 5.403 -83.179 5.731 Q -83.326 6.059 -83.546 6.27 Q -83.767 6.481 -83.997 6.603 Q -84.228 6.726 -84.394 6.804 Z " fill="black" /><path d="M -77.818 2.09 L -77.818 2.09 Q -77.818 2.737 -77.956 3.345 Q -78.093 3.952 -78.382 4.427 Q -78.671 4.903 -79.122 5.182 Q -79.573 5.461 -80.19 5.461 Q -80.817 5.461 -81.268 5.192 Q -81.719 4.922 -82.003 4.452 Q -82.287 3.982 -82.419 3.369 Q -82.552 2.757 -82.552 2.071 Q -82.552 1.051 -82.258 0.316 Q -81.964 -0.419 -81.43 -0.82 Q -80.896 -1.222 -80.17 -1.222 Q -79.494 -1.222 -78.96 -0.835 Q -78.426 -0.448 -78.122 0.292 Q -77.818 1.032 -77.818 2.09 Z M -78.867 2.159 L -78.867 2.159 Q -78.867 0.62 -79.2 -0.1 Q -79.533 -0.82 -80.19 -0.82 Q -80.837 -0.82 -81.175 -0.1 Q -81.513 0.62 -81.513 2.12 Q -81.513 3.599 -81.165 4.32 Q -80.817 5.04 -80.19 5.04 Q -79.553 5.04 -79.21 4.315 Q -78.867 3.59 -78.867 2.159 Z " fill="black" /></g></g></g><circle cx="-36.0" cy="144.0" r="2.6999999999999997" style="stroke:black;fill:black;stroke-width:2.0;stroke-dasharray:-;" /><circle cx="-72.0" cy="144.0" r="2.6999999999999997" style="stroke:black;fill:white;stroke-width:2.0;stroke-dasharray:-;" /><g><g><g><path d="M -110.163 144.644 L -110.163 144.644 L -106.341 138.904 Q -106.145 138.624 -106.026 138.386 Q -105.907 138.148 -105.907 137.98 Q -105.907 137.77 -106.089 137.693 Q -106.271 137.616 -106.747 137.616 L -106.719 137.196 L -103.695 137.196 L -103.723 137.616 Q -104.101 137.616 -104.367 137.728 Q -104.633 137.84 -104.906 138.155 Q -105.179 138.47 -105.613 139.114 L -110.751 146.464 L -111.213 146.464 L -111.997 138.89 Q -112.081 138.19 -112.305 137.903 Q -112.529 137.616 -113.089 137.616 L -113.061 137.196 L -109.631 137.196 L -109.673 137.616 Q -110.205 137.616 -110.513 137.826 Q -110.821 138.036 -110.793 138.512 Q -110.793 138.582 -110.772 138.764 Q -110.751 138.946 -110.751 139.016 L -110.331 143.006 L -110.233 144.644 Z " fill="black" /><path d="M -102.358 148.971 L -102.358 148.971 L -102.358 149.334 L -104.847 149.334 L -104.847 148.971 Q -104.504 148.971 -104.352 148.898 Q -104.2 148.824 -104.161 148.663 Q -104.122 148.501 -104.122 148.236 L -104.122 145.277 Q -104.122 144.944 -104.229 144.875 Q -104.337 144.806 -104.592 144.806 Q -104.719 144.806 -104.798 144.816 Q -104.876 144.826 -104.876 144.826 L -104.876 144.434 L -103.563 144.218 L -103.161 144.218 L -103.161 148.236 Q -103.161 148.521 -103.117 148.682 Q -103.073 148.844 -102.901 148.908 Q -102.73 148.971 -102.358 148.971 Z M -103.651 142.053 L -103.651 142.053 Q -103.367 142.053 -103.176 142.249 Q -102.985 142.445 -102.985 142.699 Q -102.985 142.935 -103.176 143.131 Q -103.367 143.327 -103.651 143.327 Q -103.926 143.327 -104.107 143.131 Q -104.288 142.935 -104.288 142.699 Q -104.288 142.445 -104.107 142.249 Q -103.926 142.053 -103.651 142.053 Z " fill="black" /><path d="M -96.536 146.051 L -96.536 146.051 L -96.536 148.246 Q -96.536 148.521 -96.487 148.682 Q -96.438 148.844 -96.272 148.913 Q -96.105 148.981 -95.752 148.981 L -95.752 149.334 L -98.271 149.334 L -98.271 148.981 Q -97.899 148.981 -97.732 148.913 Q -97.565 148.844 -97.526 148.682 Q -97.487 148.521 -97.487 148.246 L -97.487 146.374 Q -97.487 145.718 -97.639 145.409 Q -97.791 145.1 -98.021 145.002 Q -98.251 144.904 -98.487 144.904 Q -98.908 144.904 -99.227 145.12 Q -99.545 145.336 -99.78 145.532 L -99.78 148.246 Q -99.78 148.521 -99.736 148.682 Q -99.692 148.844 -99.525 148.913 Q -99.359 148.981 -98.996 148.981 L -98.996 149.334 L -101.466 149.334 L -101.466 148.981 Q -101.123 148.981 -100.971 148.913 Q -100.819 148.844 -100.78 148.682 Q -100.741 148.521 -100.741 148.246 L -100.741 145.267 Q -100.741 144.993 -100.843 144.9 Q -100.946 144.806 -101.172 144.806 Q -101.289 144.806 -101.368 144.816 Q -101.446 144.826 -101.446 144.826 L -101.446 144.454 L -100.133 144.218 L -99.81 144.218 L -99.81 145.022 L -99.741 145.022 Q -99.32 144.64 -98.932 144.414 Q -98.545 144.189 -98.055 144.189 Q -97.477 144.189 -97.149 144.449 Q -96.821 144.708 -96.678 145.13 Q -96.536 145.551 -96.536 146.051 Z " fill="black" /><path d="M -94.527 150.804 L -94.527 150.804 L -94.694 150.481 Q -94.488 150.392 -94.273 150.25 Q -94.057 150.108 -93.915 149.849 Q -93.773 149.589 -93.773 149.167 Q -93.939 149.236 -94.116 149.236 Q -94.439 149.236 -94.576 149.045 Q -94.714 148.854 -94.714 148.609 Q -94.714 148.344 -94.537 148.148 Q -94.361 147.952 -94.028 147.952 Q -93.606 147.952 -93.386 148.212 Q -93.165 148.472 -93.165 148.932 Q -93.165 149.403 -93.312 149.731 Q -93.459 150.059 -93.68 150.27 Q -93.9 150.481 -94.13 150.603 Q -94.361 150.726 -94.527 150.804 Z " fill="black" /><path d="M -88.932 149.334 L -88.932 149.334 L -92.254 149.334 L -92.254 148.981 Q -91.548 148.981 -91.318 148.839 Q -91.088 148.697 -91.088 148.325 L -91.088 144.052 Q -91.088 143.787 -91.166 143.67 Q -91.244 143.552 -91.45 143.552 Q -91.607 143.552 -91.876 143.596 Q -92.146 143.64 -92.342 143.689 L -92.342 143.297 L -90.529 142.797 L -90.108 142.797 L -90.108 148.325 Q -90.108 148.697 -89.858 148.839 Q -89.608 148.981 -88.932 148.981 Z " fill="black" /><path d="M -83.473 147.795 L -83.473 147.795 Q -83.473 148.619 -84.071 149.045 Q -84.669 149.471 -85.609 149.471 Q -86.207 149.471 -86.687 149.295 Q -87.168 149.118 -87.442 148.766 Q -87.716 148.413 -87.716 147.884 Q -87.716 147.462 -87.55 147.178 Q -87.383 146.894 -87.065 146.654 Q -86.746 146.414 -86.305 146.129 L -86.305 146.09 Q -86.844 145.737 -87.119 145.458 Q -87.393 145.179 -87.491 144.895 Q -87.589 144.61 -87.589 144.258 Q -87.589 143.787 -87.329 143.444 Q -87.07 143.101 -86.614 142.92 Q -86.158 142.739 -85.58 142.739 Q -85.061 142.739 -84.644 142.92 Q -84.228 143.101 -83.983 143.42 Q -83.738 143.738 -83.738 144.15 Q -83.738 144.522 -83.865 144.782 Q -83.992 145.042 -84.277 145.262 Q -84.561 145.483 -85.031 145.737 L -85.031 145.786 Q -84.433 146.129 -84.095 146.428 Q -83.757 146.727 -83.615 147.051 Q -83.473 147.374 -83.473 147.795 Z M -85.962 146.316 L -85.962 146.316 Q -86.413 146.668 -86.633 146.977 Q -86.854 147.286 -86.854 147.776 Q -86.854 148.491 -86.501 148.81 Q -86.148 149.128 -85.57 149.128 Q -85.09 149.128 -84.747 148.878 Q -84.404 148.628 -84.404 148.119 Q -84.404 147.786 -84.531 147.521 Q -84.659 147.256 -84.997 146.972 Q -85.335 146.688 -85.962 146.316 Z M -84.551 144.14 L -84.551 144.14 Q -84.551 143.621 -84.83 143.376 Q -85.11 143.131 -85.6 143.131 Q -86.129 143.131 -86.418 143.376 Q -86.707 143.621 -86.707 144.111 Q -86.707 144.395 -86.58 144.615 Q -86.452 144.836 -86.163 145.051 Q -85.874 145.267 -85.413 145.561 Q -84.884 145.247 -84.718 144.934 Q -84.551 144.62 -84.551 144.14 Z " fill="black" /><path d="M -77.818 146.09 L -77.818 146.09 Q -77.818 146.737 -77.956 147.345 Q -78.093 147.952 -78.382 148.428 Q -78.671 148.903 -79.122 149.182 Q -79.573 149.461 -80.19 149.461 Q -80.817 149.461 -81.268 149.192 Q -81.719 148.922 -82.003 148.452 Q -82.287 147.982 -82.419 147.369 Q -82.552 146.757 -82.552 146.071 Q -82.552 145.051 -82.258 144.316 Q -81.964 143.581 -81.43 143.18 Q -80.896 142.778 -80.17 142.778 Q -79.494 142.778 -78.96 143.165 Q -78.426 143.552 -78.122 144.292 Q -77.818 145.032 -77.818 146.09 Z M -78.867 146.159 L -78.867 146.159 Q -78.867 144.62 -79.2 143.9 Q -79.533 143.18 -80.19 143.18 Q -80.837 143.18 -81.175 143.9 Q -81.513 144.62 -81.513 146.12 Q -81.513 147.599 -81.165 148.32 Q -80.817 149.04 -80.19 149.04 Q -79.553 149.04 -79.21 148.315 Q -78.867 147.59 -78.867 146.159 Z " fill="black" /></g></g></g><circle cx="288.0" cy="-0.0" r="2.6999999999999997" style="stroke:black;fill:white;stroke-width:2.0;stroke-dasharray:-;" /><g><g><g><path d="M 298.178 0.644 L 298.178 0.644 L 302 -5.096 Q 302.196 -5.376 302.315 -5.614 Q 302.434 -5.852 302.434 -6.02 Q 302.434 -6.23 302.252 -6.307 Q 302.07 -6.384 301.594 -6.384 L 301.622 -6.804 L 304.646 -6.804 L 304.618 -6.384 Q 304.24 -6.384 303.974 -6.272 Q 303.708 -6.16 303.435 -5.845 Q 303.162 -5.53 302.728 -4.886 L 297.59 2.464 L 297.128 2.464 L 296.344 -5.11 Q 296.26 -5.81 296.036 -6.097 Q 295.812 -6.384 295.252 -6.384 L 295.28 -6.804 L 298.71 -6.804 L 298.668 -6.384 Q 298.136 -6.384 297.828 -6.174 Q 297.52 -5.964 297.548 -5.488 Q 297.548 -5.418 297.569 -5.236 Q 297.59 -5.054 297.59 -4.984 L 298.01 -0.994 L 298.108 0.644 Z " fill="black" /><path d="M 304.566 0.189 L 304.566 0.189 Q 305.301 0.189 305.85 0.508 Q 306.399 0.826 306.698 1.399 Q 306.997 1.973 306.997 2.747 Q 306.997 3.678 306.683 4.276 Q 306.369 4.873 305.821 5.162 Q 305.272 5.452 304.566 5.452 Q 303.851 5.452 303.297 5.153 Q 302.743 4.854 302.435 4.256 Q 302.126 3.658 302.126 2.757 Q 302.126 1.992 302.43 1.414 Q 302.734 0.836 303.282 0.512 Q 303.831 0.189 304.566 0.189 Z M 304.547 0.64 L 304.547 0.64 Q 303.9 0.64 303.532 1.164 Q 303.165 1.688 303.165 2.698 Q 303.165 3.942 303.542 4.457 Q 303.919 4.971 304.596 4.971 Q 305.027 4.962 305.331 4.756 Q 305.634 4.55 305.796 4.065 Q 305.958 3.58 305.958 2.747 Q 305.958 1.747 305.615 1.194 Q 305.272 0.64 304.547 0.64 Z " fill="black" /><path d="M 313.661 4.834 L 313.661 4.834 L 313.661 5.207 L 312.338 5.383 L 312.024 5.383 L 312.024 4.619 L 311.926 4.619 Q 311.554 4.952 311.171 5.192 Q 310.789 5.432 310.25 5.432 Q 309.525 5.432 309.143 4.991 Q 308.761 4.55 308.761 3.462 L 308.761 1.355 Q 308.761 0.953 308.619 0.86 Q 308.476 0.767 308.026 0.767 L 308.026 0.414 L 309.388 0.228 L 309.711 0.228 L 309.711 3.335 Q 309.711 3.884 309.839 4.187 Q 309.966 4.491 310.182 4.609 Q 310.397 4.726 310.652 4.726 Q 311.083 4.726 311.372 4.545 Q 311.661 4.364 311.975 4.109 L 311.975 1.355 Q 311.975 0.953 311.799 0.86 Q 311.622 0.767 311.122 0.767 L 311.122 0.414 L 312.583 0.228 L 312.926 0.228 L 312.926 4.197 Q 312.926 4.491 312.98 4.628 Q 313.033 4.766 313.171 4.8 Q 313.308 4.834 313.553 4.834 Z " fill="black" /><path d="M 317.483 4.354 L 317.483 4.354 L 317.708 4.54 Q 317.492 4.834 317.316 5.035 Q 317.14 5.236 316.914 5.344 Q 316.689 5.452 316.336 5.452 Q 315.768 5.452 315.508 5.128 Q 315.248 4.805 315.248 4.089 L 315.248 0.797 L 314.631 0.797 L 314.631 0.503 Q 314.984 0.248 315.278 -0.12 Q 315.572 -0.487 315.866 -1.173 L 316.209 -1.173 L 316.199 0.316 L 317.443 0.316 L 317.443 0.797 L 316.199 0.797 L 316.199 3.766 Q 316.199 4.315 316.302 4.545 Q 316.405 4.775 316.718 4.775 Q 317.002 4.775 317.149 4.672 Q 317.296 4.57 317.483 4.354 Z " fill="black" /><path d="M 318.796 6.804 L 318.796 6.804 L 318.629 6.481 Q 318.835 6.392 319.051 6.25 Q 319.266 6.108 319.408 5.848 Q 319.55 5.589 319.55 5.167 Q 319.384 5.236 319.207 5.236 Q 318.884 5.236 318.747 5.045 Q 318.61 4.854 318.61 4.609 Q 318.61 4.344 318.786 4.148 Q 318.962 3.952 319.296 3.952 Q 319.717 3.952 319.938 4.212 Q 320.158 4.472 320.158 4.932 Q 320.158 5.403 320.011 5.731 Q 319.864 6.059 319.644 6.27 Q 319.423 6.481 319.193 6.603 Q 318.962 6.726 318.796 6.804 Z " fill="black" /><path d="M 325.372 2.09 L 325.372 2.09 Q 325.372 2.737 325.234 3.345 Q 325.097 3.952 324.808 4.428 Q 324.519 4.903 324.068 5.182 Q 323.617 5.461 323 5.461 Q 322.373 5.461 321.922 5.192 Q 321.471 4.922 321.187 4.452 Q 320.903 3.982 320.771 3.369 Q 320.638 2.757 320.638 2.071 Q 320.638 1.051 320.932 0.316 Q 321.226 -0.419 321.76 -0.82 Q 322.294 -1.222 323.02 -1.222 Q 323.696 -1.222 324.23 -0.835 Q 324.764 -0.448 325.068 0.292 Q 325.372 1.032 325.372 2.09 Z M 324.323 2.159 L 324.323 2.159 Q 324.323 0.62 323.99 -0.1 Q 323.657 -0.82 323 -0.82 Q 322.353 -0.82 322.015 -0.1 Q 321.677 0.62 321.677 2.12 Q 321.677 3.599 322.025 4.32 Q 322.373 5.04 323 5.04 Q 323.637 5.04 323.98 4.315 Q 324.323 3.59 324.323 2.159 Z " fill="black" /></g></g></g><circle cx="288.0" cy="72.0" r="2.6999999999999997" style="stroke:black;fill:white;stroke-width:2.0;stroke-dasharray:-;" /><g><g><g><path d="M 298.178 72.644 L 298.178 72.644 L 302 66.904 Q 302.196 66.624 302.315 66.386 Q 302.434 66.148 302.434 65.98 Q 302.434 65.77 302.252 65.693 Q 302.07 65.616 301.594 65.616 L 301.622 65.196 L 304.646 65.196 L 304.618 65.616 Q 304.24 65.616 303.974 65.728 Q 303.708 65.84 303.435 66.155 Q 303.162 66.47 302.728 67.114 L 297.59 74.464 L 297.128 74.464 L 296.344 66.89 Q 296.26 66.19 296.036 65.903 Q 295.812 65.616 295.252 65.616 L 295.28 65.196 L 298.71 65.196 L 298.668 65.616 Q 298.136 65.616 297.828 65.826 Q 297.52 66.036 297.548 66.512 Q 297.548 66.582 297.569 66.764 Q 297.59 66.946 297.59 67.016 L 298.01 71.006 L 298.108 72.644 Z " fill="black" /><path d="M 304.566 72.189 L 304.566 72.189 Q 305.301 72.189 305.85 72.508 Q 306.399 72.826 306.698 73.399 Q 306.997 73.973 306.997 74.747 Q 306.997 75.678 306.683 76.276 Q 306.369 76.873 305.821 77.163 Q 305.272 77.452 304.566 77.452 Q 303.851 77.452 303.297 77.153 Q 302.743 76.854 302.435 76.256 Q 302.126 75.658 302.126 74.757 Q 302.126 73.992 302.43 73.414 Q 302.734 72.836 303.282 72.512 Q 303.831 72.189 304.566 72.189 Z M 304.547 72.64 L 304.547 72.64 Q 303.9 72.64 303.532 73.164 Q 303.165 73.688 303.165 74.698 Q 303.165 75.942 303.542 76.457 Q 303.919 76.971 304.596 76.971 Q 305.027 76.962 305.331 76.756 Q 305.634 76.55 305.796 76.065 Q 305.958 75.58 305.958 74.747 Q 305.958 73.747 305.615 73.194 Q 305.272 72.64 304.547 72.64 Z " fill="black" /><path d="M 313.661 76.834 L 313.661 76.834 L 313.661 77.207 L 312.338 77.383 L 312.024 77.383 L 312.024 76.619 L 311.926 76.619 Q 311.554 76.952 311.171 77.192 Q 310.789 77.432 310.25 77.432 Q 309.525 77.432 309.143 76.991 Q 308.761 76.55 308.761 75.462 L 308.761 73.355 Q 308.761 72.953 308.619 72.86 Q 308.476 72.767 308.026 72.767 L 308.026 72.414 L 309.388 72.228 L 309.711 72.228 L 309.711 75.335 Q 309.711 75.884 309.839 76.187 Q 309.966 76.491 310.182 76.609 Q 310.397 76.726 310.652 76.726 Q 311.083 76.726 311.372 76.545 Q 311.661 76.364 311.975 76.109 L 311.975 73.355 Q 311.975 72.953 311.799 72.86 Q 311.622 72.767 311.122 72.767 L 311.122 72.414 L 312.583 72.228 L 312.926 72.228 L 312.926 76.197 Q 312.926 76.491 312.98 76.628 Q 313.033 76.766 313.171 76.8 Q 313.308 76.834 313.553 76.834 Z " fill="black" /><path d="M 317.483 76.354 L 317.483 76.354 L 317.708 76.54 Q 317.492 76.834 317.316 77.035 Q 317.14 77.236 316.914 77.344 Q 316.689 77.452 316.336 77.452 Q 315.768 77.452 315.508 77.128 Q 315.248 76.805 315.248 76.089 L 315.248 72.797 L 314.631 72.797 L 314.631 72.503 Q 314.984 72.248 315.278 71.88 Q 315.572 71.513 315.866 70.827 L 316.209 70.827 L 316.199 72.316 L 317.443 72.316 L 317.443 72.797 L 316.199 72.797 L 316.199 75.766 Q 316.199 76.315 316.302 76.545 Q 316.405 76.775 316.718 76.775 Q 317.002 76.775 317.149 76.672 Q 317.296 76.57 317.483 76.354 Z " fill="black" /><path d="M 318.796 78.804 L 318.796 78.804 L 318.629 78.481 Q 318.835 78.392 319.051 78.25 Q 319.266 78.108 319.408 77.849 Q 319.55 77.589 319.55 77.167 Q 319.384 77.236 319.207 77.236 Q 318.884 77.236 318.747 77.045 Q 318.61 76.854 318.61 76.609 Q 318.61 76.344 318.786 76.148 Q 318.962 75.952 319.296 75.952 Q 319.717 75.952 319.938 76.212 Q 320.158 76.472 320.158 76.932 Q 320.158 77.403 320.011 77.731 Q 319.864 78.059 319.644 78.27 Q 319.423 78.481 319.193 78.603 Q 318.962 78.726 318.796 78.804 Z " fill="black" /><path d="M 321.05 77.471 L 321.05 77.471 L 321.04 77.158 Q 321.775 77.069 322.392 76.751 Q 323.01 76.432 323.421 75.874 Q 323.833 75.315 323.951 74.512 L 323.872 74.502 Q 323.51 74.825 323.201 74.992 Q 322.892 75.158 322.51 75.158 Q 321.657 75.158 321.133 74.575 Q 320.609 73.992 320.609 72.953 Q 320.609 71.905 321.187 71.327 Q 321.765 70.748 322.745 70.748 Q 323.51 70.748 324.005 71.111 Q 324.499 71.474 324.744 72.106 Q 324.989 72.738 324.989 73.561 Q 324.989 74.913 324.485 75.776 Q 323.98 76.638 323.093 77.05 Q 322.206 77.461 321.05 77.471 Z M 321.569 72.885 L 321.569 72.885 Q 321.569 73.62 321.888 74.051 Q 322.206 74.482 322.824 74.482 Q 323.137 74.482 323.407 74.365 Q 323.676 74.247 323.843 73.982 Q 324.009 73.718 324.009 73.277 Q 324.009 72.307 323.715 71.743 Q 323.421 71.18 322.735 71.18 Q 322.226 71.18 321.898 71.557 Q 321.569 71.934 321.569 72.885 Z " fill="black" /><path d="M 330.703 74.09 L 330.703 74.09 Q 330.703 74.737 330.566 75.345 Q 330.428 75.952 330.139 76.428 Q 329.85 76.903 329.399 77.182 Q 328.949 77.461 328.331 77.461 Q 327.704 77.461 327.253 77.192 Q 326.802 76.922 326.518 76.452 Q 326.234 75.982 326.102 75.369 Q 325.969 74.757 325.969 74.071 Q 325.969 73.051 326.263 72.316 Q 326.557 71.581 327.092 71.18 Q 327.626 70.778 328.351 70.778 Q 329.027 70.778 329.561 71.165 Q 330.095 71.552 330.399 72.292 Q 330.703 73.032 330.703 74.09 Z M 329.654 74.159 L 329.654 74.159 Q 329.654 72.62 329.321 71.9 Q 328.988 71.18 328.331 71.18 Q 327.684 71.18 327.346 71.9 Q 327.008 72.62 327.008 74.12 Q 327.008 75.599 327.356 76.32 Q 327.704 77.04 328.331 77.04 Q 328.968 77.04 329.311 76.315 Q 329.654 75.59 329.654 74.159 Z " fill="black" /></g></g></g><circle cx="288.0" cy="144.0" r="2.6999999999999997" style="stroke:black;fill:white;stroke-width:2.0;stroke-dasharray:-;" /><g><g><g><path d="M 298.178 144.644 L 298.178 144.644 L 302 138.904 Q 302.196 138.624 302.315 138.386 Q 302.434 138.148 302.434 137.98 Q 302.434 137.77 302.252 137.693 Q 302.07 137.616 301.594 137.616 L 301.622 137.196 L 304.646 137.196 L 304.618 137.616 Q 304.24 137.616 303.974 137.728 Q 303.708 137.84 303.435 138.155 Q 303.162 138.47 302.728 139.114 L 297.59 146.464 L 297.128 146.464 L 296.344 138.89 Q 296.26 138.19 296.036 137.903 Q 295.812 137.616 295.252 137.616 L 295.28 137.196 L 298.71 137.196 L 298.668 137.616 Q 298.136 137.616 297.828 137.826 Q 297.52 138.036 297.548 138.512 Q 297.548 138.582 297.569 138.764 Q 297.59 138.946 297.59 139.016 L 298.01 143.006 L 298.108 144.644 Z " fill="black" /><path d="M 304.566 144.189 L 304.566 144.189 Q 305.301 144.189 305.85 144.507 Q 306.399 144.826 306.698 145.399 Q 306.997 145.973 306.997 146.747 Q 306.997 147.678 306.683 148.276 Q 306.369 148.873 305.821 149.162 Q 305.272 149.452 304.566 149.452 Q 303.851 149.452 303.297 149.153 Q 302.743 148.854 302.435 148.256 Q 302.126 147.658 302.126 146.757 Q 302.126 145.992 302.43 145.414 Q 302.734 144.836 303.282 144.512 Q 303.831 144.189 304.566 144.189 Z M 304.547 144.64 L 304.547 144.64 Q 303.9 144.64 303.532 145.164 Q 303.165 145.688 303.165 146.698 Q 303.165 147.942 303.542 148.457 Q 303.919 148.971 304.596 148.971 Q 305.027 148.962 305.331 148.756 Q 305.634 148.55 305.796 148.065 Q 305.958 147.58 305.958 146.747 Q 305.958 145.747 305.615 145.194 Q 305.272 144.64 304.547 144.64 Z " fill="black" /><path d="M 313.661 148.834 L 313.661 148.834 L 313.661 149.207 L 312.338 149.383 L 312.024 149.383 L 312.024 148.619 L 311.926 148.619 Q 311.554 148.952 311.171 149.192 Q 310.789 149.432 310.25 149.432 Q 309.525 149.432 309.143 148.991 Q 308.761 148.55 308.761 147.462 L 308.761 145.355 Q 308.761 144.953 308.619 144.86 Q 308.476 144.767 308.026 144.767 L 308.026 144.414 L 309.388 144.228 L 309.711 144.228 L 309.711 147.335 Q 309.711 147.884 309.839 148.187 Q 309.966 148.491 310.182 148.609 Q 310.397 148.726 310.652 148.726 Q 311.083 148.726 311.372 148.545 Q 311.661 148.364 311.975 148.109 L 311.975 145.355 Q 311.975 144.953 311.799 144.86 Q 311.622 144.767 311.122 144.767 L 311.122 144.414 L 312.583 144.228 L 312.926 144.228 L 312.926 148.197 Q 312.926 148.491 312.98 148.628 Q 313.033 148.766 313.171 148.8 Q 313.308 148.834 313.553 148.834 Z " fill="black" /><path d="M 317.483 148.354 L 317.483 148.354 L 317.708 148.54 Q 317.492 148.834 317.316 149.035 Q 317.14 149.236 316.914 149.344 Q 316.689 149.452 316.336 149.452 Q 315.768 149.452 315.508 149.128 Q 315.248 148.805 315.248 148.089 L 315.248 144.797 L 314.631 144.797 L 314.631 144.503 Q 314.984 144.248 315.278 143.88 Q 315.572 143.513 315.866 142.827 L 316.209 142.827 L 316.199 144.316 L 317.443 144.316 L 317.443 144.797 L 316.199 144.797 L 316.199 147.766 Q 316.199 148.315 316.302 148.545 Q 316.405 148.775 316.718 148.775 Q 317.002 148.775 317.149 148.673 Q 317.296 148.57 317.483 148.354 Z " fill="black" /><path d="M 318.796 150.804 L 318.796 150.804 L 318.629 150.481 Q 318.835 150.392 319.051 150.25 Q 319.266 150.108 319.408 149.849 Q 319.55 149.589 319.55 149.167 Q 319.384 149.236 319.207 149.236 Q 318.884 149.236 318.747 149.045 Q 318.61 148.854 318.61 148.609 Q 318.61 148.344 318.786 148.148 Q 318.962 147.952 319.296 147.952 Q 319.717 147.952 319.938 148.212 Q 320.158 148.472 320.158 148.932 Q 320.158 149.403 320.011 149.731 Q 319.864 150.059 319.644 150.27 Q 319.423 150.481 319.193 150.603 Q 318.962 150.726 318.796 150.804 Z " fill="black" /><path d="M 324.392 149.334 L 324.392 149.334 L 321.069 149.334 L 321.069 148.981 Q 321.775 148.981 322.005 148.839 Q 322.236 148.697 322.236 148.325 L 322.236 144.052 Q 322.236 143.787 322.157 143.67 Q 322.079 143.552 321.873 143.552 Q 321.716 143.552 321.447 143.596 Q 321.177 143.64 320.981 143.689 L 320.981 143.297 L 322.794 142.797 L 323.216 142.797 L 323.216 148.325 Q 323.216 148.697 323.466 148.839 Q 323.715 148.981 324.392 148.981 Z " fill="black" /><path d="M 329.85 147.795 L 329.85 147.795 Q 329.85 148.619 329.252 149.045 Q 328.655 149.471 327.714 149.471 Q 327.116 149.471 326.636 149.295 Q 326.156 149.118 325.881 148.766 Q 325.607 148.413 325.607 147.884 Q 325.607 147.462 325.773 147.178 Q 325.94 146.894 326.259 146.654 Q 326.577 146.414 327.018 146.129 L 327.018 146.09 Q 326.479 145.737 326.205 145.458 Q 325.93 145.179 325.832 144.895 Q 325.734 144.61 325.734 144.258 Q 325.734 143.787 325.994 143.444 Q 326.254 143.101 326.709 142.92 Q 327.165 142.739 327.743 142.739 Q 328.263 142.739 328.679 142.92 Q 329.096 143.101 329.341 143.42 Q 329.586 143.738 329.586 144.15 Q 329.586 144.522 329.458 144.782 Q 329.331 145.042 329.047 145.262 Q 328.762 145.483 328.292 145.737 L 328.292 145.786 Q 328.89 146.129 329.228 146.428 Q 329.566 146.727 329.708 147.051 Q 329.85 147.374 329.85 147.795 Z M 327.361 146.316 L 327.361 146.316 Q 326.91 146.668 326.69 146.977 Q 326.469 147.286 326.469 147.776 Q 326.469 148.491 326.822 148.81 Q 327.175 149.128 327.753 149.128 Q 328.233 149.128 328.576 148.878 Q 328.919 148.628 328.919 148.119 Q 328.919 147.786 328.792 147.521 Q 328.664 147.256 328.326 146.972 Q 327.988 146.688 327.361 146.316 Z M 328.772 144.14 L 328.772 144.14 Q 328.772 143.621 328.493 143.376 Q 328.214 143.131 327.724 143.131 Q 327.194 143.131 326.905 143.376 Q 326.616 143.621 326.616 144.111 Q 326.616 144.395 326.744 144.615 Q 326.871 144.836 327.16 145.051 Q 327.449 145.267 327.91 145.561 Q 328.439 145.247 328.606 144.934 Q 328.772 144.62 328.772 144.14 Z " fill="black" /><path d="M 335.505 146.09 L 335.505 146.09 Q 335.505 146.737 335.368 147.345 Q 335.23 147.952 334.941 148.428 Q 334.652 148.903 334.201 149.182 Q 333.751 149.461 333.133 149.461 Q 332.506 149.461 332.055 149.192 Q 331.604 148.922 331.32 148.452 Q 331.036 147.982 330.904 147.369 Q 330.771 146.757 330.771 146.071 Q 330.771 145.051 331.065 144.316 Q 331.359 143.581 331.894 143.18 Q 332.428 142.778 333.153 142.778 Q 333.829 142.778 334.363 143.165 Q 334.897 143.552 335.201 144.292 Q 335.505 145.032 335.505 146.09 Z M 334.456 146.159 L 334.456 146.159 Q 334.456 144.62 334.123 143.9 Q 333.79 143.18 333.133 143.18 Q 332.486 143.18 332.148 143.9 Q 331.81 144.62 331.81 146.12 Q 331.81 147.599 332.158 148.32 Q 332.506 149.04 333.133 149.04 Q 333.77 149.04 334.113 148.315 Q 334.456 147.59 334.456 146.159 Z " fill="black" /></g></g></g><circle cx="288.0" cy="216.0" r="2.6999999999999997" style="stroke:black;fill:white;stroke-width:2.0;stroke-dasharray:-;" /><g><g><g><path d="M 298.178 216.644 L 298.178 216.644 L 302 210.904 Q 302.196 210.624 302.315 210.386 Q 302.434 210.148 302.434 209.98 Q 302.434 209.77 302.252 209.693 Q 302.07 209.616 301.594 209.616 L 301.622 209.196 L 304.646 209.196 L 304.618 209.616 Q 304.24 209.616 303.974 209.728 Q 303.708 209.84 303.435 210.155 Q 303.162 210.47 302.728 211.114 L 297.59 218.464 L 297.128 218.464 L 296.344 210.89 Q 296.26 210.19 296.036 209.903 Q 295.812 209.616 295.252 209.616 L 295.28 209.196 L 298.71 209.196 L 298.668 209.616 Q 298.136 209.616 297.828 209.826 Q 297.52 210.036 297.548 210.512 Q 297.548 210.582 297.569 210.764 Q 297.59 210.946 297.59 211.016 L 298.01 215.006 L 298.108 216.644 Z " fill="black" /><path d="M 304.566 216.189 L 304.566 216.189 Q 305.301 216.189 305.85 216.507 Q 306.399 216.826 306.698 217.399 Q 306.997 217.973 306.997 218.747 Q 306.997 219.678 306.683 220.276 Q 306.369 220.873 305.821 221.162 Q 305.272 221.452 304.566 221.452 Q 303.851 221.452 303.297 221.153 Q 302.743 220.854 302.435 220.256 Q 302.126 219.658 302.126 218.757 Q 302.126 217.992 302.43 217.414 Q 302.734 216.836 303.282 216.512 Q 303.831 216.189 304.566 216.189 Z M 304.547 216.64 L 304.547 216.64 Q 303.9 216.64 303.532 217.164 Q 303.165 217.688 303.165 218.698 Q 303.165 219.942 303.542 220.457 Q 303.919 220.971 304.596 220.971 Q 305.027 220.962 305.331 220.756 Q 305.634 220.55 305.796 220.065 Q 305.958 219.58 305.958 218.747 Q 305.958 217.747 305.615 217.194 Q 305.272 216.64 304.547 216.64 Z " fill="black" /><path d="M 313.661 220.834 L 313.661 220.834 L 313.661 221.207 L 312.338 221.383 L 312.024 221.383 L 312.024 220.619 L 311.926 220.619 Q 311.554 220.952 311.171 221.192 Q 310.789 221.432 310.25 221.432 Q 309.525 221.432 309.143 220.991 Q 308.761 220.55 308.761 219.462 L 308.761 217.355 Q 308.761 216.953 308.619 216.86 Q 308.476 216.767 308.026 216.767 L 308.026 216.414 L 309.388 216.228 L 309.711 216.228 L 309.711 219.335 Q 309.711 219.884 309.839 220.187 Q 309.966 220.491 310.182 220.609 Q 310.397 220.726 310.652 220.726 Q 311.083 220.726 311.372 220.545 Q 311.661 220.364 311.975 220.109 L 311.975 217.355 Q 311.975 216.953 311.799 216.86 Q 311.622 216.767 311.122 216.767 L 311.122 216.414 L 312.583 216.228 L 312.926 216.228 L 312.926 220.197 Q 312.926 220.491 312.98 220.628 Q 313.033 220.766 313.171 220.8 Q 313.308 220.834 313.553 220.834 Z " fill="black" /><path d="M 317.483 220.354 L 317.483 220.354 L 317.708 220.54 Q 317.492 220.834 317.316 221.035 Q 317.14 221.236 316.914 221.344 Q 316.689 221.452 316.336 221.452 Q 315.768 221.452 315.508 221.128 Q 315.248 220.805 315.248 220.089 L 315.248 216.797 L 314.631 216.797 L 314.631 216.503 Q 314.984 216.248 315.278 215.88 Q 315.572 215.513 315.866 214.827 L 316.209 214.827 L 316.199 216.316 L 317.443 216.316 L 317.443 216.797 L 316.199 216.797 L 316.199 219.766 Q 316.199 220.315 316.302 220.545 Q 316.405 220.775 316.718 220.775 Q 317.002 220.775 317.149 220.673 Q 317.296 220.57 317.483 220.354 Z " fill="black" /><path d="M 318.796 222.804 L 318.796 222.804 L 318.629 222.481 Q 318.835 222.392 319.051 222.25 Q 319.266 222.108 319.408 221.849 Q 319.55 221.589 319.55 221.167 Q 319.384 221.236 319.207 221.236 Q 318.884 221.236 318.747 221.045 Q 318.61 220.854 318.61 220.609 Q 318.61 220.344 318.786 220.148 Q 318.962 219.952 319.296 219.952 Q 319.717 219.952 319.938 220.212 Q 320.158 220.472 320.158 220.932 Q 320.158 221.403 320.011 221.731 Q 319.864 222.059 319.644 222.27 Q 319.423 222.481 319.193 222.603 Q 318.962 222.726 318.796 222.804 Z " fill="black" /><path d="M 324.95 219.629 L 324.95 219.629 L 324.617 221.334 L 320.599 221.334 L 320.599 220.854 L 321.991 219.443 Q 322.539 218.894 322.897 218.472 Q 323.255 218.051 323.431 217.625 Q 323.608 217.198 323.608 216.65 Q 323.608 216.13 323.289 215.792 Q 322.971 215.454 322.392 215.454 Q 321.863 215.454 321.506 215.665 Q 321.148 215.875 320.873 216.356 L 320.609 216.228 Q 320.854 215.542 321.368 215.15 Q 321.883 214.758 322.637 214.758 Q 323.225 214.758 323.676 214.969 Q 324.127 215.18 324.382 215.572 Q 324.637 215.964 324.637 216.522 Q 324.637 217.002 324.421 217.424 Q 324.205 217.845 323.809 218.286 Q 323.412 218.727 322.863 219.266 L 321.638 220.452 L 321.638 220.521 L 322.402 220.481 L 323.676 220.481 Q 323.96 220.481 324.112 220.403 Q 324.264 220.325 324.372 220.133 Q 324.48 219.942 324.607 219.629 Z " fill="black" /><path d="M 329.987 215.317 L 329.987 215.317 L 327.733 221.412 L 326.871 221.412 L 329.174 215.768 L 327.057 215.768 Q 326.753 215.768 326.597 215.831 Q 326.44 215.895 326.352 216.062 Q 326.263 216.228 326.146 216.552 L 325.754 216.532 L 326.087 214.905 L 329.987 214.905 Z " fill="black" /><path d="M 335.534 218.09 L 335.534 218.09 Q 335.534 218.737 335.397 219.345 Q 335.26 219.952 334.971 220.428 Q 334.682 220.903 334.231 221.182 Q 333.78 221.461 333.163 221.461 Q 332.535 221.461 332.085 221.192 Q 331.634 220.922 331.35 220.452 Q 331.065 219.982 330.933 219.369 Q 330.801 218.757 330.801 218.071 Q 330.801 217.051 331.095 216.316 Q 331.389 215.581 331.923 215.18 Q 332.457 214.778 333.182 214.778 Q 333.858 214.778 334.393 215.165 Q 334.927 215.552 335.23 216.292 Q 335.534 217.032 335.534 218.09 Z M 334.486 218.159 L 334.486 218.159 Q 334.486 216.62 334.152 215.9 Q 333.819 215.18 333.163 215.18 Q 332.516 215.18 332.178 215.9 Q 331.84 216.62 331.84 218.12 Q 331.84 219.599 332.188 220.32 Q 332.535 221.04 333.163 221.04 Q 333.8 221.04 334.143 220.315 Q 334.486 219.59 334.486 218.159 Z " fill="black" /></g></g></g></svg>