<svg xmlns="http://www.w3.org/2000/svg" xmlns:xlink="http://www.w3.org/1999/xlink" xml:lang="en" height="189.39800000000002pt" width="175.88000000000002pt" viewBox="-18.28 -94.798 175.88000000000002 189.39800000000002"><path d="M 0.0,-0.0 L 0.0,-21.599999999999998 L -13.68,-43.199999999999996 L 13.68,-43.199999999999996 L 0.0,-21.599999999999998" style="stroke:black;fill:none;stroke-width:2.0;stroke-dasharray:-;stroke-linecap:round;stroke-linejoin:round;" /><path d="M 0.0,-0.0 L 18.0,-0.0 L 36.0,-0.0" style="stroke:black;fill:none;stroke-width:2.0;stroke-dasharray:-;stroke-linecap:round;stroke-linejoin:round;" /><path d="M 36.0,-18.0 L 36.0,-36.0 L 72.0,-36.0 L 72.0,-0.0 L 36.0,-0.0 L 36.0,-18.0" style="stroke:black;fill:none;stroke-width:2.0;stroke-dasharray:-;stroke-linecap:round;stroke-linejoin:round;" /><path d="M 43.199999999999996,-18.0 L 44.33684210526316,-19.16891808913686 L 45.473684210526315,-20.211165765682804 L 46.61052631578947,-21.013799321745104 L 47.747368421052634,-21.489840957381592 L 48.88421052631579,-21.58770417482401 L 50.02105263157894,-21.296783975958206 L 51.1578947368421,-20.648606078423274 L 52.294736842105266,-19.713410614933466 L 53.43157894736842,-18.592540525010644 L 54.56842105263158,-17.40745947498936 L 55.705263157894734,-16.286589385066534 L 56.8421052631579,-15.351393921576726 L 57.97894736842106,-14.703216024041794 L 59.11578947368421,-14.412295825175988 L 60.252631578947366,-14.510159042618408 L 61.38947368421053,-14.986200678254896 L 62.526315789473685,-15.788834234317196 L 63.66315789473684,-16.83108191086314 L 64.8,-18.0" style="stroke:black;fill:none;stroke-width:2.0;stroke-dasharray:-;stroke-linecap:round;stroke-linejoin:round;" /><path d="M 43.199999999999996,-27.0 L 44.33684210526316,-28.16891808913686 L 45.473684210526315,-29.211165765682804 L 46.61052631578947,-30.013799321745104 L 47.747368421052634,-30.489840957381592 L 48.88421052631579,-30.587704174824008 L 50.02105263157894,-30.296783975958206 L 51.1578947368421,-29.648606078423274 L 52.294736842105266,-28.713410614933462 L 53.43157894736842,-27.59254052501064 L 54.56842105263158,-26.40745947498936 L 55.705263157894734,-25.286589385066534 L 56.8421052631579,-24.351393921576726 L 57.97894736842106,-23.703216024041794 L 59.11578947368421,-23.412295825175992 L 60.252631578947366,-23.510159042618408 L 61.38947368421053,-23.986200678254896 L 62.526315789473685,-24.788834234317196 L 63.66315789473684,-25.83108191086314 L 64.8,-27.0" style="stroke:black;fill:none;stroke-width:2.0;stroke-dasharray:-;stroke-linecap:round;stroke-linejoin:round;" /><path d="M 43.199999999999996,-9.0 L 44.33684210526316,-10.16891808913686 L 45.473684210526315,-11.211165765682804 L 46.61052631578947,-12.013799321745104 L 47.747368421052634,-12.489840957381588 L 48.88421052631579,-12.587704174824012 L 50.02105263157894,-12.296783975958206 L 51.1578947368421,-11.648606078423274 L 52.294736842105266,-10.713410614933466 L 53.43157894736842,-9.592540525010643 L 54.56842105263158,-8.407459474989357 L 55.705263157894734,-7.286589385066536 L 56.8421052631579,-6.351393921576726 L 57.97894736842106,-5.703216024041794 L 59.11578947368421,-5.412295825175989 L 60.252631578947366,-5.510159042618409 L 61.38947368421053,-5.986200678254896 L 62.526315789473685,-6.7888342343171955 L 63.66315789473684,-7.83108191086314 L 64.8,-9.0" style="stroke:black;fill:none;stroke-width:2.0;stroke-dasharray:-;stroke-linecap:round;stroke-linejoin:round;" /><path d="M 52.199999999999996,-24.12 L 55.800000000000004,-29.880000000000003" style="stroke:black;fill:none;stroke-width:2.0;stroke-dasharray:-;stroke-linecap:round;stroke-linejoin:round;" /><path d="M 52.199999999999996,-6.119999999999999 L 55.800000000000004,-11.879999999999999" style="stroke:black;fill:none;stroke-width:2.0;stroke-dasharray:-;stroke-linecap:round;stroke-linejoin:round;" /><path d="M 54.0,-36.0 L 54.0,-54.0 L 54.0,-72.0" style="stroke:black;fill:none;stroke-width:2.0;stroke-dasharray:-;stroke-linecap:round;stroke-linejoin:round;" /><path d="M 54.0,-72.0 L 72.0,-72.0 L 81.0,-72.0" style="stroke:black;fill:none;stroke-width:2.0;stroke-dasharray:-;stroke-linecap:round;stroke-linejoin:round;" /><path d="M 88.0 -72.0 L 81.0 -69.3 L 81.0 -74.7 Z" style="stroke:black;fill:black;stroke-linecap:butt;stroke-linejoin:miter;" /><path d="M 90.0,-72.0 L 90.0,-54.0 L 117.0,-72.0 L 90.0,-90.0 L 90.0,-72.0" style="stroke:black;fill:none;stroke-width:2.0;stroke-dasharray:-;stroke-linecap:round;stroke-linejoin:round;" /><path d="M 117.0,-72.0 L 135.0,-72.0 L 144.0,-72.0" style="stroke:black;fill:none;stroke-width:2.0;stroke-dasharray:7.4,3.2;stroke-linecap:round;stroke-linejoin:round;" /><path d="M 151.0 -72.0 L 144.0 -69.3 L 144.0 -74.7 Z" style="stroke:black;fill:black;stroke-linecap:butt;stroke-linejoin:miter;" /><path d="M 36.0,18.0 L 36.0,-0.0 L 72.0,-0.0 L 72.0,36.0 L 36.0,36.0 L 36.0,18.0" style="stroke:black;fill:none;stroke-width:2.0;stroke-dasharray:-;stroke-linecap:round;stroke-linejoin:round;" /><path d="M 43.199999999999996,18.0 L 44.33684210526316,16.83108191086314 L 45.473684210526315,15.788834234317196 L 46.61052631578947,14.986200678254896 L 47.747368421052634,14.510159042618412 L 48.88421052631579,14.412295825175988 L 50.02105263157894,14.703216024041794 L 51.1578947368421,15.351393921576726 L 52.294736842105266,16.286589385066534 L 53.43157894736842,17.40745947498936 L 54.56842105263158,18.592540525010644 L 55.705263157894734,19.713410614933466 L 56.8421052631579,20.648606078423274 L 57.97894736842106,21.296783975958206 L 59.11578947368421,21.58770417482401 L 60.252631578947366,21.489840957381592 L 61.38947368421053,21.013799321745104 L 62.526315789473685,20.211165765682804 L 63.66315789473684,19.16891808913686 L 64.8,18.0" style="stroke:black;fill:none;stroke-width:2.0;stroke-dasharray:-;stroke-linecap:round;stroke-linejoin:round;" /><path d="M 43.199999999999996,9.0 L 44.33684210526316,7.83108191086314 L 45.473684210526315,6.7888342343171955 L 46.61052631578947,5.986200678254896 L 47.747368421052634,5.510159042618411 L 48.88421052631579,5.412295825175989 L 50.02105263157894,5.703216024041794 L 51.1578947368421,6.351393921576726 L 52.294736842105266,7.286589385066536 L 53.43157894736842,8.407459474989357 L 54.56842105263158,9.592540525010643 L 55.705263157894734,10.713410614933466 L 56.8421052631579,11.648606078423274 L 57.97894736842106,12.296783975958206 L 59.11578947368421,12.587704174824012 L 60.252631578947366,12.489840957381592 L 61.38947368421053,12.013799321745104 L 62.526315789473685,11.211165765682804 L 63.66315789473684,10.16891808913686 L 64.8,9.0" style="stroke:black;fill:none;stroke-width:2.0;stroke-dasharray:-;stroke-linecap:round;stroke-linejoin:round;" /><path d="M 43.199999999999996,27.0 L 44.33684210526316,25.83108191086314 L 45.473684210526315,24.788834234317196 L 46.61052631578947,23.986200678254896 L 47.747368421052634,23.510159042618408 L 48.88421052631579,23.412295825175992 L 50.02105263157894,23.703216024041794 L 51.1578947368421,24.351393921576726 L 52.294736842105266,25.286589385066534 L 53.43157894736842,26.40745947498936 L 54.56842105263158,27.59254052501064 L 55.705263157894734,28.713410614933462 L 56.8421052631579,29.648606078423274 L 57.97894736842106,30.296783975958206 L 59.11578947368421,30.587704174824008 L 60.252631578947366,30.489840957381592 L 61.38947368421053,30.013799321745104 L 62.526315789473685,29.211165765682804 L 63.66315789473684,28.16891808913686 L 64.8,27.0" style="stroke:black;fill:none;stroke-width:2.0;stroke-dasharray:-;stroke-linecap:round;stroke-linejoin:round;" /><path d="M 52.199999999999996,11.879999999999999 L 55.800000000000004,6.119999999999999" style="stroke:black;fill:none;stroke-width:2.0;stroke-dasharray:-;stroke-linecap:round;stroke-linejoin:round;" /><path d="M 52.199999999999996,29.880000000000003 L 55.800000000000004,24.12" style="stroke:black;fill:none;stroke-width:2.0;stroke-dasharray:-;stroke-linecap:round;stroke-linejoin:round;" /><path d="M 54.0,45.0 L 54.0,54.0 L 53.99999999999999,72.0" style="stroke:black;fill:none;stroke-width:2.0;stroke-dasharray:-;stroke-linecap:round;stroke-linejoin:round;" /><path d="M 54.0 38.0 L 56.7 45.0 L 51.3 45.0 Z" style="stroke:black;fill:black;stroke-linecap:butt;stroke-linejoin:miter;" /><path d="M 53.99999999999999,72.0 L 71.99999999999999,72.0 L 90.0,72.0" style="stroke:black;fill:none;stroke-width:2.0;stroke-dasharray:-;stroke-linecap:round;stroke-linejoin:round;" /><path d="M 117.0,72.0 L 117.0,54.0 L 90.0,72.0 L 117.0,90.0 L 117.0,72.0" style="stroke:black;fill:none;stroke-width:2.0;stroke-dasharray:-;stroke-linecap:round;stroke-linejoin:round;" /><path d="M 126.0,72.0 L 135.0,72.0 L 153.0,72.0" style="stroke:black;fill:none;stroke-width:2.0;stroke-dasharray:7.4,3.2;stroke-linecap:round;stroke-linejoin:round;" /><path d="M 119.0 72.0 L 126.0 69.3 L 126.0 74.7 Z" style="stroke:black;fill:black;stroke-linecap:butt;stroke-linejoin:miter;" /><g><g><g><path d="M 66.176 -81 L 66.176 -81 L 66.176 -90.198 L 69.13 -90.198 Q 70.082 -90.198 70.824 -89.946 Q 71.566 -89.694 71.986 -89.134 Q 72.406 -88.574 72.406 -87.622 Q 72.406 -86.516 71.832 -85.872 Q 71.258 -85.228 70.306 -85.004 L 72.686 -81 L 71.328 -81 L 69.074 -84.878 L 67.38 -84.878 L 67.38 -81 Z M 67.38 -85.844 L 67.38 -85.844 L 68.948 -85.844 Q 70.04 -85.844 70.628 -86.278 Q 71.216 -86.712 71.216 -87.608 Q 71.216 -88.504 70.628 -88.868 Q 70.04 -89.232 68.948 -89.232 L 67.38 -89.232 Z " fill="black" /><path d="M 73.288 -81 L 73.288 -81 L 76.018 -85.76 L 73.456 -90.198 L 74.772 -90.198 L 76.046 -87.86 Q 76.242 -87.552 76.403 -87.237 Q 76.564 -86.922 76.788 -86.516 L 76.844 -86.516 Q 77.04 -86.922 77.187 -87.237 Q 77.334 -87.552 77.502 -87.86 L 78.748 -90.198 L 80.008 -90.198 L 77.46 -85.69 L 80.19 -81 L 78.874 -81 L 77.502 -83.464 Q 77.292 -83.856 77.173 -84.073 Q 77.054 -84.29 76.984 -84.409 Q 76.914 -84.528 76.851 -84.64 Q 76.788 -84.752 76.69 -84.934 L 76.634 -84.934 Q 76.438 -84.514 76.256 -84.164 Q 76.074 -83.814 75.892 -83.464 L 74.548 -81 Z " fill="black" /></g></g></g><g><g><g><path d="M 67.94 68.4 L 67.94 68.4 L 67.94 60.21 L 65.112 60.21 L 65.112 59.202 L 71.972 59.202 L 71.972 60.21 L 69.13 60.21 L 69.13 68.4 Z " fill="black" /><path d="M 72.616 68.4 L 72.616 68.4 L 75.346 63.64 L 72.784 59.202 L 74.1 59.202 L 75.374 61.54 Q 75.57 61.848 75.731 62.163 Q 75.892 62.478 76.116 62.884 L 76.172 62.884 Q 76.368 62.478 76.515 62.163 Q 76.662 61.848 76.83 61.54 L 78.076 59.202 L 79.336 59.202 L 76.788 63.71 L 79.518 68.4 L 78.202 68.4 L 76.83 65.936 Q 76.62 65.544 76.501 65.327 Q 76.382 65.11 76.312 64.991 Q 76.242 64.872 76.179 64.76 Q 76.116 64.648 76.018 64.466 L 75.962 64.466 Q 75.766 64.886 75.584 65.236 Q 75.402 65.586 75.22 65.936 L 73.876 68.4 Z " fill="black" /></g></g></g></svg>