<svg xmlns="http://www.w3.org/2000/svg" xmlns:xlink="http://www.w3.org/1999/xlink" xml:lang="en" height="189.2pt" width="218.28019999999995pt" viewBox="-39.1442 -94.6 218.28019999999995 189.2"><circle cx="90.0" cy="-72.0" r="18.0" style="stroke:black;fill:none;stroke-width:2.0;stroke-dasharray:-;" /><circle cx="89.99999999999999" cy="72.0" r="18.0" style="stroke:black;fill:none;stroke-width:2.0;stroke-dasharray:-;" /><path d="M 0.0,-0.0 L 9.0,-0.0 L 18.0,-0.0" style="stroke:black;fill:none;stroke-width:2.0;stroke-dasharray:-;stroke-linecap:round;stroke-linejoin:round;" /><path d="M 18.0,-0.0 L 27.0,-0.0 L 36.0,-0.0" style="stroke:black;fill:none;stroke-width:2.0;stroke-dasharray:-;stroke-linecap:round;stroke-linejoin:round;" /><path d="M 36.0,-0.0 L 36.0,-36.0 L 36.00000000000001,-72.0" style="stroke:black;fill:none;stroke-width:2.0;stroke-dasharray:-;stroke-linecap:round;stroke-linejoin:round;" /><path d="M 36.00000000000001,-72.0 L 54.00000000000001,-72.0 L 63.0,-72.0" style="stroke:black;fill:none;stroke-width:2.0;stroke-dasharray:-;stroke-linecap:round;stroke-linejoin:round;" /><path d="M 70.0 -72.0 L 63.0 -69.3 L 63.0 -74.7 Z" style="stroke:black;fill:black;stroke-linecap:butt;stroke-linejoin:miter;" /><path d="M 102.72792206135786,-84.72792206135786 L 77.27207793864214,-59.27207793864215" style="stroke:black;fill:none;stroke-width:1;stroke-dasharray:-;stroke-linecap:round;stroke-linejoin:round;" /><path d="M 102.72792206135786,-59.27207793864215 L 77.27207793864214,-84.72792206135786" style="stroke:black;fill:none;stroke-width:1;stroke-dasharray:-;stroke-linecap:round;stroke-linejoin:round;" /><path d="M 108.0,-72.0 L 126.0,-72.0 L 135.0,-72.0" style="stroke:black;fill:none;stroke-width:2.0;stroke-dasharray:-;stroke-linecap:round;stroke-linejoin:round;" /><path d="M 142.0 -72.0 L 135.0 -69.3 L 135.0 -74.7 Z" style="stroke:black;fill:black;stroke-linecap:butt;stroke-linejoin:miter;" /><path d="M 90.0,-45.0 L 90.0,-45.0 L 90.0,-36.0" style="stroke:black;fill:none;stroke-width:2.0;stroke-dasharray:-;stroke-linecap:round;stroke-linejoin:round;" /><path d="M 90.0 -52.0 L 92.7 -45.0 L 87.3 -45.0 Z" style="stroke:black;fill:black;stroke-linecap:butt;stroke-linejoin:miter;" /><path d="M 36.0,-0.0 L 35.99999999999999,36.0 L 35.999999999999986,72.0" style="stroke:black;fill:none;stroke-width:2.0;stroke-dasharray:-;stroke-linecap:round;stroke-linejoin:round;" /><path d="M 35.999999999999986,72.0 L 53.999999999999986,72.0 L 62.999999999999986,72.0" style="stroke:black;fill:none;stroke-width:2.0;stroke-dasharray:-;stroke-linecap:round;stroke-linejoin:round;" /><path d="M 69.99999999999999 72.0 L 62.999999999999986 74.7 L 62.999999999999986 69.3 Z" style="stroke:black;fill:black;stroke-linecap:butt;stroke-linejoin:miter;" /><path d="M 102.72792206135783,59.27207793864215 L 77.27207793864213,84.72792206135786" style="stroke:black;fill:none;stroke-width:1;stroke-dasharray:-;stroke-linecap:round;stroke-linejoin:round;" /><path d="M 102.72792206135783,84.72792206135786 L 77.27207793864213,59.27207793864215" style="stroke:black;fill:none;stroke-width:1;stroke-dasharray:-;stroke-linecap:round;stroke-linejoin:round;" /><path d="M 107.99999999999999,72.0 L 125.99999999999999,72.0 L 134.99999999999997,72.0" style="stroke:black;fill:none;stroke-width:2.0;stroke-dasharray:-;stroke-linecap:round;stroke-linejoin:round;" /><path d="M 141.99999999999997 72.0 L 134.99999999999997 74.7 L 134.99999999999997 69.3 Z" style="stroke:black;fill:black;stroke-linecap:butt;stroke-linejoin:miter;" /><path d="M 89.99999999999999,45.0 L 89.99999999999999,45.0 L 89.99999999999999,36.0" style="stroke:black;fill:none;stroke-width:2.0;stroke-dasharray:-;stroke-linecap:round;stroke-linejoin:round;" /><path d="M 89.99999999999999 52.0 L 87.29999999999998 45.0 L 92.69999999999999 45.0 Z" style="stroke:black;fill:black;stroke-linecap:butt;stroke-linejoin:miter;" /><g><g><g><path d="M -32.033 -3.024 L -32.033 -3.024 L -32.355 -0.84 L -32.691 -0.84 Q -32.719 -1.652 -33.062 -2.128 Q -33.405 -2.604 -34.021 -2.604 Q -34.567 -2.604 -34.805 -2.31 Q -35.043 -2.016 -35.043 -1.708 Q -35.043 -1.414 -34.84 -1.141 Q -34.637 -0.868 -34.329 -0.581 Q -34.021 -0.294 -33.713 0.042 Q -33.265 0.518 -32.936 0.973 Q -32.607 1.428 -32.607 2.1 Q -32.607 2.506 -32.81 2.905 Q -33.013 3.304 -33.475 3.57 Q -33.937 3.836 -34.735 3.836 Q -35.393 3.836 -35.792 3.675 Q -36.191 3.514 -36.345 3.458 L -36.387 3.458 L -36.723 3.836 L -37.031 3.836 L -36.667 1.498 L -36.317 1.498 Q -36.205 2.408 -35.89 2.884 Q -35.575 3.36 -34.861 3.36 Q -34.371 3.36 -34.07 3.122 Q -33.769 2.884 -33.769 2.338 Q -33.769 1.764 -34.084 1.365 Q -34.399 0.966 -34.805 0.588 Q -35.085 0.308 -35.372 0.042 Q -35.659 -0.224 -35.848 -0.553 Q -36.037 -0.882 -36.037 -1.316 Q -36.037 -2.03 -35.561 -2.527 Q -35.085 -3.024 -34.133 -3.024 Q -33.573 -3.024 -33.202 -2.87 Q -32.831 -2.716 -32.705 -2.646 L -32.663 -2.646 L -32.299 -3.024 Z " fill="black" /><path d="M -25.796 1.546 L -25.796 1.546 Q -25.796 2.124 -26.06 2.486 Q -26.325 2.849 -26.732 3.045 Q -27.138 3.241 -27.569 3.339 L -27.569 3.417 Q -27.422 3.545 -27.222 3.78 Q -27.021 4.015 -26.678 4.471 Q -26.335 4.927 -25.766 5.711 Q -25.511 6.054 -25.291 6.152 Q -25.07 6.25 -24.678 6.25 L -24.678 6.622 L -26.452 6.622 Q -26.893 5.985 -27.192 5.549 Q -27.491 5.113 -27.692 4.814 Q -27.893 4.515 -28.045 4.29 Q -28.197 4.064 -28.353 3.829 Q -28.51 3.633 -28.608 3.574 Q -28.706 3.515 -28.902 3.515 L -29.314 3.515 L -29.314 5.26 Q -29.314 5.691 -29.235 5.902 Q -29.157 6.112 -28.927 6.181 Q -28.696 6.25 -28.246 6.25 L -28.246 6.622 L -31.323 6.622 L -31.323 6.25 Q -30.931 6.25 -30.72 6.186 Q -30.509 6.122 -30.431 5.907 Q -30.353 5.691 -30.353 5.26 L -30.353 0.928 Q -30.353 0.615 -30.416 0.438 Q -30.48 0.262 -30.686 0.183 Q -30.892 0.105 -31.323 0.105 L -31.323 -0.267 L -28.598 -0.267 Q -27.834 -0.267 -27.197 -0.115 Q -26.56 0.036 -26.178 0.428 Q -25.796 0.82 -25.796 1.546 Z M -29.314 0.223 L -29.314 0.223 L -29.314 3.055 L -28.941 3.055 Q -28.03 3.055 -27.476 2.687 Q -26.923 2.32 -26.923 1.506 Q -26.923 0.203 -28.53 0.203 Q -28.726 0.203 -28.922 0.208 Q -29.118 0.213 -29.314 0.223 Z " fill="black" /><path d="M -18.318 1.516 L -18.318 1.516 L -18.72 1.516 Q -18.789 1.163 -18.862 0.914 Q -18.936 0.664 -19.083 0.517 Q -19.23 0.37 -19.514 0.301 Q -19.798 0.232 -20.288 0.232 L -22.052 0.232 L -22.052 2.898 L -20.856 2.898 Q -20.425 2.898 -20.19 2.82 Q -19.955 2.741 -19.862 2.521 Q -19.769 2.3 -19.769 1.869 L -19.357 1.869 L -19.357 4.28 L -19.769 4.28 Q -19.769 3.868 -19.862 3.672 Q -19.955 3.476 -20.19 3.417 Q -20.425 3.359 -20.856 3.359 L -22.052 3.359 L -22.052 5.475 Q -22.052 5.956 -21.817 6.103 Q -21.582 6.25 -20.974 6.25 L -20.974 6.622 L -24.1 6.622 L -24.1 6.25 Q -23.669 6.25 -23.453 6.181 Q -23.238 6.112 -23.164 5.921 Q -23.091 5.73 -23.091 5.348 L -23.091 1.036 Q -23.091 0.664 -23.174 0.463 Q -23.257 0.262 -23.473 0.183 Q -23.689 0.105 -24.1 0.105 L -24.1 -0.267 L -18.377 -0.267 Z " fill="black" /><path d="M -17.404 -0.098 L -17.404 -0.098 Q -17.404 -2.436 -16.389 -4.088 Q -15.374 -5.74 -13.68 -6.622 L -13.456 -6.258 Q -14.982 -5.222 -15.619 -3.731 Q -16.256 -2.24 -16.256 -0.098 Q -16.256 2.044 -15.619 3.535 Q -14.982 5.026 -13.456 6.062 L -13.68 6.426 Q -15.374 5.544 -16.389 3.892 Q -17.404 2.24 -17.404 -0.098 Z " fill="black" /><path d="M -8.598 -2.856 L -8.598 -2.856 L -8.71 -2.31 L -10.124 -2.31 L -10.95 1.862 Q -10.95 1.862 -10.999 2.121 Q -11.048 2.38 -11.048 2.562 Q -11.048 2.674 -10.999 2.765 Q -10.95 2.856 -10.81 2.856 Q -10.502 2.856 -10.243 2.674 Q -9.984 2.492 -9.62 2.016 L -9.34 2.226 Q -9.536 2.492 -9.816 2.87 Q -10.096 3.248 -10.488 3.528 Q -10.88 3.808 -11.44 3.808 Q -11.874 3.808 -12.084 3.598 Q -12.294 3.388 -12.294 3.066 Q -12.294 2.884 -12.252 2.625 Q -12.21 2.366 -12.196 2.268 L -11.244 -2.31 L -12.042 -2.31 L -11.986 -2.604 Q -11.538 -2.842 -11.237 -3.066 Q -10.936 -3.29 -10.663 -3.654 Q -10.39 -4.018 -10.04 -4.62 L -9.62 -4.62 L -10.012 -2.856 Z " fill="black" /><path d="M -3.936 -0.098 L -3.936 -0.098 Q -3.936 2.24 -4.951 3.892 Q -5.966 5.544 -7.66 6.426 L -7.884 6.062 Q -6.344 5.026 -5.714 3.535 Q -5.084 2.044 -5.084 -0.098 Q -5.084 -2.24 -5.714 -3.731 Q -6.344 -5.222 -7.884 -6.258 L -7.66 -6.622 Q -5.966 -5.74 -4.951 -4.088 Q -3.936 -2.436 -3.936 -0.098 Z " fill="black" /></g></g></g><circle cx="36.0" cy="-0.0" r="2.6999999999999997" style="stroke:black;fill:black;stroke-width:2.0;stroke-dasharray:-;" /><g><g><g><path d="M 152.892 -75.024 L 152.892 -75.024 L 152.57 -72.84 L 152.234 -72.84 Q 152.206 -73.652 151.863 -74.128 Q 151.52 -74.604 150.904 -74.604 Q 150.358 -74.604 150.12 -74.31 Q 149.882 -74.016 149.882 -73.708 Q 149.882 -73.414 150.085 -73.141 Q 150.288 -72.868 150.596 -72.581 Q 150.904 -72.294 151.212 -71.958 Q 151.66 -71.482 151.989 -71.027 Q 152.318 -70.572 152.318 -69.9 Q 152.318 -69.494 152.115 -69.095 Q 151.912 -68.696 151.45 -68.43 Q 150.988 -68.164 150.19 -68.164 Q 149.532 -68.164 149.133 -68.325 Q 148.734 -68.486 148.58 -68.542 L 148.538 -68.542 L 148.202 -68.164 L 147.894 -68.164 L 148.258 -70.502 L 148.608 -70.502 Q 148.72 -69.592 149.035 -69.116 Q 149.35 -68.64 150.064 -68.64 Q 150.554 -68.64 150.855 -68.878 Q 151.156 -69.116 151.156 -69.662 Q 151.156 -70.236 150.841 -70.635 Q 150.526 -71.034 150.12 -71.412 Q 149.84 -71.692 149.553 -71.958 Q 149.266 -72.224 149.077 -72.553 Q 148.888 -72.882 148.888 -73.316 Q 148.888 -74.03 149.364 -74.527 Q 149.84 -75.024 150.792 -75.024 Q 151.352 -75.024 151.723 -74.87 Q 152.094 -74.716 152.22 -74.646 L 152.262 -74.646 L 152.626 -75.024 Z " fill="black" /><path d="M 154.572 -66.809 L 154.572 -66.809 L 154.572 -70.807 Q 154.572 -71.219 154.523 -71.459 Q 154.474 -71.699 154.258 -71.797 Q 154.043 -71.895 153.543 -71.895 L 153.543 -72.267 L 156.63 -72.267 L 156.63 -71.895 Q 156.14 -71.895 155.924 -71.797 Q 155.709 -71.699 155.66 -71.459 Q 155.611 -71.219 155.611 -70.807 L 155.611 -66.809 Q 155.611 -66.378 155.674 -66.147 Q 155.738 -65.917 155.954 -65.834 Q 156.169 -65.75 156.63 -65.75 L 156.63 -65.378 L 153.543 -65.378 L 153.543 -65.75 Q 154.023 -65.75 154.239 -65.819 Q 154.454 -65.888 154.513 -66.118 Q 154.572 -66.348 154.572 -66.809 Z " fill="black" /><path d="M 157.809 -72.098 L 157.809 -72.098 Q 157.809 -74.436 158.824 -76.088 Q 159.839 -77.74 161.533 -78.622 L 161.757 -78.258 Q 160.231 -77.222 159.594 -75.731 Q 158.957 -74.24 158.957 -72.098 Q 158.957 -69.956 159.594 -68.465 Q 160.231 -66.974 161.757 -65.938 L 161.533 -65.574 Q 159.839 -66.456 158.824 -68.108 Q 157.809 -69.76 157.809 -72.098 Z " fill="black" /><path d="M 166.615 -74.856 L 166.615 -74.856 L 166.503 -74.31 L 165.089 -74.31 L 164.263 -70.138 Q 164.263 -70.138 164.214 -69.879 Q 164.165 -69.62 164.165 -69.438 Q 164.165 -69.326 164.214 -69.235 Q 164.263 -69.144 164.403 -69.144 Q 164.711 -69.144 164.97 -69.326 Q 165.229 -69.508 165.593 -69.984 L 165.873 -69.774 Q 165.677 -69.508 165.397 -69.13 Q 165.117 -68.752 164.725 -68.472 Q 164.333 -68.192 163.773 -68.192 Q 163.339 -68.192 163.129 -68.402 Q 162.919 -68.612 162.919 -68.934 Q 162.919 -69.116 162.961 -69.375 Q 163.003 -69.634 163.017 -69.732 L 163.969 -74.31 L 163.171 -74.31 L 163.227 -74.604 Q 163.675 -74.842 163.976 -75.066 Q 164.277 -75.29 164.55 -75.654 Q 164.823 -76.018 165.173 -76.62 L 165.593 -76.62 L 165.201 -74.856 Z " fill="black" /><path d="M 171.277 -72.098 L 171.277 -72.098 Q 171.277 -69.76 170.262 -68.108 Q 169.247 -66.456 167.553 -65.574 L 167.329 -65.938 Q 168.869 -66.974 169.499 -68.465 Q 170.129 -69.956 170.129 -72.098 Q 170.129 -74.24 169.499 -75.731 Q 168.869 -77.222 167.329 -78.258 L 167.553 -78.622 Q 169.247 -77.74 170.262 -76.088 Q 171.277 -74.436 171.277 -72.098 Z " fill="black" /></g></g></g><g><g><g><path d="M 71.771 -24.168 L 71.771 -24.168 L 72.037 -23.972 Q 71.771 -23.412 71.428 -22.95 Q 71.085 -22.488 70.581 -22.222 Q 70.077 -21.956 69.321 -21.956 Q 68.453 -21.956 67.823 -22.376 Q 67.193 -22.796 66.857 -23.545 Q 66.521 -24.294 66.521 -25.26 Q 66.521 -26.912 67.347 -27.899 Q 68.173 -28.886 69.685 -28.886 Q 70.679 -28.886 71.246 -28.452 Q 71.813 -28.018 71.813 -27.402 Q 71.813 -26.772 71.225 -26.772 Q 70.917 -26.772 70.756 -26.933 Q 70.595 -27.094 70.497 -27.332 Q 70.399 -27.57 70.294 -27.808 Q 70.189 -28.046 70 -28.207 Q 69.811 -28.368 69.447 -28.368 Q 68.593 -28.368 68.11 -27.745 Q 67.627 -27.122 67.627 -25.918 Q 67.627 -24.644 68.152 -23.825 Q 68.677 -23.006 69.755 -23.006 Q 70.441 -23.006 70.868 -23.286 Q 71.295 -23.566 71.771 -24.168 Z " fill="black" /><path d="M 75.915 -28.886 L 75.915 -28.886 Q 77.357 -28.886 78.19 -27.99 Q 79.023 -27.094 79.023 -25.54 Q 79.023 -24.364 78.624 -23.566 Q 78.225 -22.768 77.525 -22.362 Q 76.825 -21.956 75.915 -21.956 Q 74.445 -21.956 73.612 -22.873 Q 72.779 -23.79 72.779 -25.484 Q 72.779 -26.506 73.171 -27.269 Q 73.563 -28.032 74.27 -28.459 Q 74.977 -28.886 75.915 -28.886 Z M 75.859 -28.354 L 75.859 -28.354 Q 75.061 -28.354 74.571 -27.682 Q 74.081 -27.01 74.081 -25.666 Q 74.081 -24 74.578 -23.251 Q 75.075 -22.502 75.971 -22.516 Q 76.545 -22.516 76.937 -22.782 Q 77.329 -23.048 77.532 -23.692 Q 77.735 -24.336 77.735 -25.47 Q 77.735 -26.758 77.266 -27.556 Q 76.797 -28.354 75.859 -28.354 Z " fill="black" /><path d="M 80.045 -24.392 L 80.045 -24.392 L 80.409 -24.392 Q 80.633 -23.314 81.067 -22.887 Q 81.501 -22.46 82.271 -22.46 Q 82.803 -22.46 83.139 -22.677 Q 83.475 -22.894 83.475 -23.384 Q 83.475 -23.72 83.356 -23.944 Q 83.237 -24.168 82.901 -24.399 Q 82.565 -24.63 81.907 -24.952 Q 80.955 -25.442 80.507 -25.897 Q 80.059 -26.352 80.059 -27.122 Q 80.059 -27.99 80.682 -28.438 Q 81.305 -28.886 82.201 -28.886 Q 82.733 -28.886 83.069 -28.767 Q 83.405 -28.648 83.671 -28.522 L 83.685 -28.522 L 83.923 -28.816 L 84.203 -28.816 L 84.245 -26.674 L 83.867 -26.674 Q 83.643 -27.668 83.237 -28.039 Q 82.831 -28.41 82.187 -28.41 Q 81.711 -28.41 81.382 -28.186 Q 81.053 -27.962 81.053 -27.486 Q 81.053 -27.08 81.431 -26.758 Q 81.809 -26.436 82.691 -25.988 Q 83.643 -25.484 84.147 -25.015 Q 84.651 -24.546 84.651 -23.762 Q 84.651 -23.104 84.329 -22.705 Q 84.007 -22.306 83.468 -22.124 Q 82.929 -21.942 82.299 -21.942 Q 81.697 -21.942 81.34 -22.068 Q 80.983 -22.194 80.703 -22.306 L 80.675 -22.306 L 80.381 -21.984 L 80.087 -21.984 Z " fill="black" /><path d="M 87.409 -25.876 L 87.409 -25.876 Q 87.409 -28.214 88.424 -29.866 Q 89.439 -31.518 91.133 -32.4 L 91.357 -32.036 Q 89.831 -31 89.194 -29.509 Q 88.557 -28.018 88.557 -25.876 Q 88.557 -23.734 89.194 -22.243 Q 89.831 -20.752 91.357 -19.716 L 91.133 -19.352 Q 89.439 -20.234 88.424 -21.886 Q 87.409 -23.538 87.409 -25.876 Z " fill="black" /><path d="M 96.257 -24.056 L 96.257 -24.056 Q 96.257 -23.706 96.481 -23.426 Q 96.705 -23.146 97.321 -23.146 Q 98.119 -23.146 98.623 -23.531 Q 99.127 -23.916 99.358 -24.574 Q 99.589 -25.232 99.589 -26.072 Q 99.589 -26.744 99.428 -27.255 Q 99.267 -27.766 99.064 -28.095 Q 98.861 -28.424 98.735 -28.536 L 98.861 -28.718 Q 99.141 -28.69 99.519 -28.375 Q 99.897 -28.06 100.191 -27.444 Q 100.485 -26.828 100.485 -25.862 Q 100.485 -25.176 100.303 -24.476 Q 100.121 -23.776 99.743 -23.209 Q 99.365 -22.642 98.77 -22.292 Q 98.175 -21.942 97.335 -21.942 Q 96.733 -21.942 96.369 -22.327 Q 96.005 -22.712 95.823 -23.44 L 95.767 -23.44 Q 95.417 -22.852 94.927 -22.397 Q 94.437 -21.942 93.765 -21.942 Q 92.911 -21.942 92.561 -22.663 Q 92.211 -23.384 92.211 -24.532 Q 92.211 -25.218 92.379 -25.904 Q 92.547 -26.59 92.939 -27.178 Q 93.331 -27.766 94.003 -28.186 Q 94.675 -28.606 95.697 -28.774 Q 95.865 -28.578 95.865 -28.312 Q 95.865 -28.074 95.725 -27.871 Q 95.585 -27.668 95.347 -27.612 Q 94.199 -27.402 93.513 -26.639 Q 92.827 -25.876 92.827 -24.756 Q 92.827 -23.888 93.205 -23.545 Q 93.583 -23.202 94.129 -23.202 Q 94.577 -23.202 94.885 -23.349 Q 95.193 -23.496 95.389 -23.678 Q 95.585 -23.86 95.683 -24 Q 95.669 -24.098 95.669 -24.196 Q 95.669 -24.294 95.669 -24.378 Q 95.669 -24.672 95.746 -25.134 Q 95.823 -25.596 95.97 -26.079 Q 96.117 -26.562 96.341 -26.912 Q 96.397 -26.996 96.565 -27.045 Q 96.733 -27.094 96.901 -27.094 Q 97.125 -27.094 97.293 -27.003 Q 97.461 -26.912 97.461 -26.828 Q 97.405 -26.282 97.055 -25.526 Q 96.705 -24.77 96.257 -24.056 Z " fill="black" /><path d="M 105.422 -20.655 L 105.422 -20.655 L 105.658 -20.479 Q 105.432 -20.058 105.153 -19.734 Q 104.874 -19.411 104.491 -19.234 Q 104.109 -19.058 103.551 -19.058 Q 102.865 -19.058 102.38 -19.377 Q 101.894 -19.695 101.64 -20.254 Q 101.385 -20.812 101.385 -21.547 Q 101.385 -22.821 102.032 -23.561 Q 102.678 -24.301 103.825 -24.301 Q 104.619 -24.301 105.05 -23.968 Q 105.481 -23.635 105.481 -23.164 Q 105.481 -22.674 105.001 -22.674 Q 104.756 -22.674 104.629 -22.797 Q 104.501 -22.919 104.433 -23.096 Q 104.364 -23.272 104.286 -23.448 Q 104.207 -23.625 104.065 -23.747 Q 103.923 -23.87 103.649 -23.87 Q 102.992 -23.87 102.629 -23.404 Q 102.267 -22.939 102.267 -22.057 Q 102.267 -21.077 102.669 -20.489 Q 103.07 -19.901 103.923 -19.901 Q 104.433 -19.901 104.751 -20.082 Q 105.07 -20.263 105.422 -20.655 Z " fill="black" /><path d="M 110.399 -28.634 L 110.399 -28.634 L 110.287 -28.088 L 108.873 -28.088 L 108.047 -23.916 Q 108.047 -23.916 107.998 -23.657 Q 107.949 -23.398 107.949 -23.216 Q 107.949 -23.104 107.998 -23.013 Q 108.047 -22.922 108.187 -22.922 Q 108.495 -22.922 108.754 -23.104 Q 109.013 -23.286 109.377 -23.762 L 109.657 -23.552 Q 109.461 -23.286 109.181 -22.908 Q 108.901 -22.53 108.509 -22.25 Q 108.117 -21.97 107.557 -21.97 Q 107.123 -21.97 106.913 -22.18 Q 106.703 -22.39 106.703 -22.712 Q 106.703 -22.894 106.745 -23.153 Q 106.787 -23.412 106.801 -23.51 L 107.753 -28.088 L 106.955 -28.088 L 107.011 -28.382 Q 107.459 -28.62 107.76 -28.844 Q 108.061 -29.068 108.334 -29.432 Q 108.607 -29.796 108.957 -30.398 L 109.377 -30.398 L 108.985 -28.634 Z " fill="black" /><path d="M 115.061 -25.876 L 115.061 -25.876 Q 115.061 -23.538 114.046 -21.886 Q 113.031 -20.234 111.337 -19.352 L 111.113 -19.716 Q 112.653 -20.752 113.283 -22.243 Q 113.913 -23.734 113.913 -25.876 Q 113.913 -28.018 113.283 -29.509 Q 112.653 -31 111.113 -32.036 L 111.337 -32.4 Q 113.031 -31.518 114.046 -29.866 Q 115.061 -28.214 115.061 -25.876 Z " fill="black" /></g></g></g><g><g><g><path d="M 152.892 68.074 L 152.892 68.074 L 152.57 70.258 L 152.234 70.258 Q 152.206 69.446 151.863 68.97 Q 151.52 68.494 150.904 68.494 Q 150.358 68.494 150.12 68.788 Q 149.882 69.082 149.882 69.39 Q 149.882 69.684 150.085 69.957 Q 150.288 70.23 150.596 70.517 Q 150.904 70.804 151.212 71.14 Q 151.66 71.616 151.989 72.071 Q 152.318 72.526 152.318 73.198 Q 152.318 73.604 152.115 74.003 Q 151.912 74.402 151.45 74.668 Q 150.988 74.934 150.19 74.934 Q 149.532 74.934 149.133 74.773 Q 148.734 74.612 148.58 74.556 L 148.538 74.556 L 148.202 74.934 L 147.894 74.934 L 148.258 72.596 L 148.608 72.596 Q 148.72 73.506 149.035 73.982 Q 149.35 74.458 150.064 74.458 Q 150.554 74.458 150.855 74.22 Q 151.156 73.982 151.156 73.436 Q 151.156 72.862 150.841 72.463 Q 150.526 72.064 150.12 71.686 Q 149.84 71.406 149.553 71.14 Q 149.266 70.874 149.077 70.545 Q 148.888 70.216 148.888 69.782 Q 148.888 69.068 149.364 68.571 Q 149.84 68.074 150.792 68.074 Q 151.352 68.074 151.723 68.228 Q 152.094 68.382 152.22 68.452 L 152.262 68.452 L 152.626 68.074 Z " fill="black" /><path d="M 160.55 74.31 L 160.55 74.31 Q 160.55 75.653 159.898 76.52 Q 159.247 77.387 158.139 77.681 L 158.139 77.73 Q 158.502 78.24 158.855 78.539 Q 159.207 78.838 159.639 78.965 Q 160.07 79.092 160.677 79.092 L 160.677 79.524 L 160.129 79.524 Q 159.305 79.524 158.727 79.406 Q 158.149 79.288 157.747 79.009 Q 157.345 78.73 157.051 78.25 L 156.787 77.838 Q 155.836 77.769 155.126 77.333 Q 154.415 76.897 154.028 76.118 Q 153.641 75.339 153.641 74.271 Q 153.641 73.203 154.062 72.404 Q 154.484 71.605 155.263 71.159 Q 156.042 70.713 157.091 70.713 Q 158.159 70.713 158.933 71.179 Q 159.707 71.644 160.129 72.453 Q 160.55 73.261 160.55 74.31 Z M 159.305 74.173 L 159.305 74.173 Q 159.305 72.742 158.703 71.978 Q 158.1 71.213 157.081 71.213 Q 156.071 71.213 155.478 71.987 Q 154.886 72.762 154.886 74.202 Q 154.886 75.702 155.425 76.515 Q 155.964 77.328 157.1 77.328 Q 158.237 77.328 158.771 76.54 Q 159.305 75.751 159.305 74.173 Z " fill="black" /><path d="M 161.817 71 L 161.817 71 Q 161.817 68.662 162.832 67.01 Q 163.847 65.358 165.541 64.476 L 165.765 64.84 Q 164.239 65.876 163.602 67.367 Q 162.965 68.858 162.965 71 Q 162.965 73.142 163.602 74.633 Q 164.239 76.124 165.765 77.16 L 165.541 77.524 Q 163.847 76.642 162.832 74.99 Q 161.817 73.338 161.817 71 Z " fill="black" /><path d="M 170.623 68.242 L 170.623 68.242 L 170.511 68.788 L 169.097 68.788 L 168.271 72.96 Q 168.271 72.96 168.222 73.219 Q 168.173 73.478 168.173 73.66 Q 168.173 73.772 168.222 73.863 Q 168.271 73.954 168.411 73.954 Q 168.719 73.954 168.978 73.772 Q 169.237 73.59 169.601 73.114 L 169.881 73.324 Q 169.685 73.59 169.405 73.968 Q 169.125 74.346 168.733 74.626 Q 168.341 74.906 167.781 74.906 Q 167.347 74.906 167.137 74.696 Q 166.927 74.486 166.927 74.164 Q 166.927 73.982 166.969 73.723 Q 167.011 73.464 167.025 73.366 L 167.977 68.788 L 167.179 68.788 L 167.235 68.494 Q 167.683 68.256 167.984 68.032 Q 168.285 67.808 168.558 67.444 Q 168.831 67.08 169.181 66.478 L 169.601 66.478 L 169.209 68.242 Z " fill="black" /><path d="M 175.285 71 L 175.285 71 Q 175.285 73.338 174.27 74.99 Q 173.255 76.642 171.561 77.524 L 171.337 77.16 Q 172.877 76.124 173.507 74.633 Q 174.137 73.142 174.137 71 Q 174.137 68.858 173.507 67.367 Q 172.877 65.876 171.337 64.84 L 171.561 64.476 Q 173.255 65.358 174.27 67.01 Q 175.285 68.662 175.285 71 Z " fill="black" /></g></g></g><g><g><g><path d="M 69.089 26.212 L 69.089 26.212 L 60.745 26.212 L 60.745 25.26 L 69.089 25.26 Z " fill="black" /><path d="M 73.29 27.066 L 73.29 27.066 L 73.654 27.066 Q 73.878 28.144 74.312 28.571 Q 74.746 28.998 75.516 28.998 Q 76.048 28.998 76.384 28.781 Q 76.72 28.564 76.72 28.074 Q 76.72 27.738 76.601 27.514 Q 76.482 27.29 76.146 27.059 Q 75.81 26.828 75.152 26.506 Q 74.2 26.016 73.752 25.561 Q 73.304 25.106 73.304 24.336 Q 73.304 23.468 73.927 23.02 Q 74.55 22.572 75.446 22.572 Q 75.978 22.572 76.314 22.691 Q 76.65 22.81 76.916 22.936 L 76.93 22.936 L 77.168 22.642 L 77.448 22.642 L 77.49 24.784 L 77.112 24.784 Q 76.888 23.79 76.482 23.419 Q 76.076 23.048 75.432 23.048 Q 74.956 23.048 74.627 23.272 Q 74.298 23.496 74.298 23.972 Q 74.298 24.378 74.676 24.7 Q 75.054 25.022 75.936 25.47 Q 76.888 25.974 77.392 26.443 Q 77.896 26.912 77.896 27.696 Q 77.896 28.354 77.574 28.753 Q 77.252 29.152 76.713 29.334 Q 76.174 29.516 75.544 29.516 Q 74.942 29.516 74.585 29.39 Q 74.228 29.264 73.948 29.152 L 73.92 29.152 L 73.626 29.474 L 73.332 29.474 Z " fill="black" /><path d="M 81.872 28.97 L 81.872 28.97 L 81.872 29.362 L 78.722 29.362 L 78.722 28.97 Q 79.198 28.97 79.401 28.879 Q 79.604 28.788 79.653 28.564 Q 79.702 28.34 79.702 27.948 L 79.702 24.042 Q 79.702 23.594 79.548 23.489 Q 79.394 23.384 79.086 23.384 Q 78.946 23.384 78.841 23.398 Q 78.736 23.412 78.736 23.412 L 78.736 23.006 L 80.5 22.614 L 80.864 22.614 L 80.864 27.948 Q 80.864 28.354 80.92 28.578 Q 80.976 28.802 81.193 28.886 Q 81.41 28.97 81.872 28.97 Z M 80.304 19.94 L 80.304 19.94 Q 80.668 19.94 80.885 20.171 Q 81.102 20.402 81.102 20.724 Q 81.102 21.046 80.885 21.284 Q 80.668 21.522 80.304 21.522 Q 79.954 21.522 79.73 21.284 Q 79.506 21.046 79.506 20.724 Q 79.506 20.402 79.723 20.171 Q 79.94 19.94 80.304 19.94 Z " fill="black" /><path d="M 88.998 25.064 L 88.998 25.064 L 88.998 27.948 Q 88.998 28.34 89.061 28.564 Q 89.124 28.788 89.348 28.879 Q 89.572 28.97 90.034 28.97 L 90.034 29.362 L 86.8 29.362 L 86.8 28.97 Q 87.304 28.97 87.521 28.879 Q 87.738 28.788 87.787 28.564 Q 87.836 28.34 87.836 27.948 L 87.836 25.414 Q 87.836 24.574 87.647 24.154 Q 87.458 23.734 87.164 23.601 Q 86.87 23.468 86.548 23.468 Q 85.988 23.468 85.582 23.769 Q 85.176 24.07 84.854 24.35 L 84.854 27.948 Q 84.854 28.34 84.91 28.564 Q 84.966 28.788 85.19 28.879 Q 85.414 28.97 85.918 28.97 L 85.918 29.362 L 82.712 29.362 L 82.712 28.97 Q 83.188 28.97 83.391 28.879 Q 83.594 28.788 83.643 28.564 Q 83.692 28.34 83.692 27.948 L 83.692 24.014 Q 83.692 23.636 83.538 23.517 Q 83.384 23.398 83.104 23.398 Q 82.922 23.398 82.824 23.412 Q 82.726 23.426 82.726 23.426 L 82.726 23.02 L 84.504 22.614 L 84.826 22.614 L 84.812 23.748 L 84.868 23.748 Q 85.442 23.244 85.953 22.908 Q 86.464 22.572 87.122 22.572 Q 88.074 22.572 88.536 23.216 Q 88.998 23.86 88.998 25.064 Z " fill="black" /><path d="M 92.708 25.582 L 92.708 25.582 Q 92.708 23.244 93.723 21.592 Q 94.738 19.94 96.432 19.058 L 96.656 19.422 Q 95.13 20.458 94.493 21.949 Q 93.856 23.44 93.856 25.582 Q 93.856 27.724 94.493 29.215 Q 95.13 30.706 96.656 31.742 L 96.432 32.106 Q 94.738 31.224 93.723 29.572 Q 92.708 27.92 92.708 25.582 Z " fill="black" /><path d="M 101.556 27.402 L 101.556 27.402 Q 101.556 27.752 101.78 28.032 Q 102.004 28.312 102.62 28.312 Q 103.418 28.312 103.922 27.927 Q 104.426 27.542 104.657 26.884 Q 104.888 26.226 104.888 25.386 Q 104.888 24.714 104.727 24.203 Q 104.566 23.692 104.363 23.363 Q 104.16 23.034 104.034 22.922 L 104.16 22.74 Q 104.44 22.768 104.818 23.083 Q 105.196 23.398 105.49 24.014 Q 105.784 24.63 105.784 25.596 Q 105.784 26.282 105.602 26.982 Q 105.42 27.682 105.042 28.249 Q 104.664 28.816 104.069 29.166 Q 103.474 29.516 102.634 29.516 Q 102.032 29.516 101.668 29.131 Q 101.304 28.746 101.122 28.018 L 101.066 28.018 Q 100.716 28.606 100.226 29.061 Q 99.736 29.516 99.064 29.516 Q 98.21 29.516 97.86 28.795 Q 97.51 28.074 97.51 26.926 Q 97.51 26.24 97.678 25.554 Q 97.846 24.868 98.238 24.28 Q 98.63 23.692 99.302 23.272 Q 99.974 22.852 100.996 22.684 Q 101.164 22.88 101.164 23.146 Q 101.164 23.384 101.024 23.587 Q 100.884 23.79 100.646 23.846 Q 99.498 24.056 98.812 24.819 Q 98.126 25.582 98.126 26.702 Q 98.126 27.57 98.504 27.913 Q 98.882 28.256 99.428 28.256 Q 99.876 28.256 100.184 28.109 Q 100.492 27.962 100.688 27.78 Q 100.884 27.598 100.982 27.458 Q 100.968 27.36 100.968 27.262 Q 100.968 27.164 100.968 27.08 Q 100.968 26.786 101.045 26.324 Q 101.122 25.862 101.269 25.379 Q 101.416 24.896 101.64 24.546 Q 101.696 24.462 101.864 24.413 Q 102.032 24.364 102.2 24.364 Q 102.424 24.364 102.592 24.455 Q 102.76 24.546 102.76 24.63 Q 102.704 25.176 102.354 25.932 Q 102.004 26.688 101.556 27.402 Z " fill="black" /><path d="M 110.722 30.803 L 110.722 30.803 L 110.957 30.979 Q 110.732 31.4 110.452 31.724 Q 110.173 32.047 109.791 32.224 Q 109.409 32.4 108.85 32.4 Q 108.164 32.4 107.679 32.081 Q 107.194 31.763 106.939 31.204 Q 106.684 30.646 106.684 29.911 Q 106.684 28.637 107.331 27.897 Q 107.978 27.157 109.124 27.157 Q 109.918 27.157 110.349 27.49 Q 110.781 27.823 110.781 28.294 Q 110.781 28.784 110.3 28.784 Q 110.055 28.784 109.928 28.661 Q 109.801 28.539 109.732 28.362 Q 109.663 28.186 109.585 28.01 Q 109.507 27.833 109.364 27.711 Q 109.222 27.588 108.948 27.588 Q 108.291 27.588 107.929 28.054 Q 107.566 28.519 107.566 29.401 Q 107.566 30.381 107.968 30.969 Q 108.37 31.557 109.222 31.557 Q 109.732 31.557 110.05 31.376 Q 110.369 31.195 110.722 30.803 Z " fill="black" /><path d="M 115.699 22.824 L 115.699 22.824 L 115.587 23.37 L 114.173 23.37 L 113.347 27.542 Q 113.347 27.542 113.298 27.801 Q 113.249 28.06 113.249 28.242 Q 113.249 28.354 113.298 28.445 Q 113.347 28.536 113.487 28.536 Q 113.795 28.536 114.054 28.354 Q 114.313 28.172 114.677 27.696 L 114.957 27.906 Q 114.761 28.172 114.481 28.55 Q 114.201 28.928 113.809 29.208 Q 113.417 29.488 112.857 29.488 Q 112.423 29.488 112.213 29.278 Q 112.003 29.068 112.003 28.746 Q 112.003 28.564 112.045 28.305 Q 112.087 28.046 112.101 27.948 L 113.053 23.37 L 112.255 23.37 L 112.311 23.076 Q 112.759 22.838 113.06 22.614 Q 113.361 22.39 113.634 22.026 Q 113.907 21.662 114.257 21.06 L 114.677 21.06 L 114.285 22.824 Z " fill="black" /><path d="M 120.361 25.582 L 120.361 25.582 Q 120.361 27.92 119.346 29.572 Q 118.331 31.224 116.637 32.106 L 116.413 31.742 Q 117.953 30.706 118.583 29.215 Q 119.213 27.724 119.213 25.582 Q 119.213 23.44 118.583 21.949 Q 117.953 20.458 116.413 19.422 L 116.637 19.058 Q 118.331 19.94 119.346 21.592 Q 120.361 23.244 120.361 25.582 Z " fill="black" /></g></g></g></svg>