<svg xmlns="http://www.w3.org/2000/svg" xmlns:xlink="http://www.w3.org/1999/xlink" xml:lang="en" height="441.20000000000005pt" width="520.7284pt" viewBox="-24.728399999999993 -94.6 520.7284 441.20000000000005"><circle cx="117.0" cy="-72.0" r="18.0" style="stroke:black;fill:none;stroke-width:2.0;stroke-dasharray:-;" /><circle cx="116.99999999999999" cy="72.0" r="18.0" style="stroke:black;fill:none;stroke-width:2.0;stroke-dasharray:-;" /><circle cx="171.0" cy="-0.0" r="18.0" style="stroke:black;fill:none;stroke-width:2.0;stroke-dasharray:-;" /><circle cx="117.0" cy="180.0" r="18.0" style="stroke:black;fill:none;stroke-width:2.0;stroke-dasharray:-;" /><circle cx="116.99999999999999" cy="324.0" r="18.0" style="stroke:black;fill:none;stroke-width:2.0;stroke-dasharray:-;" /><circle cx="171.0" cy="252.0" r="18.0" style="stroke:black;fill:none;stroke-width:2.0;stroke-dasharray:-;" /><path d="M 0.0,-0.0 L 18.0,-0.0 L 27.0,-0.0" style="stroke:black;fill:none;stroke-width:2.0;stroke-dasharray:-;stroke-linecap:round;stroke-linejoin:round;" /><path d="M 34.0 0.0 L 27.0 2.6999999999999997 L 27.0 -2.6999999999999997 Z" style="stroke:black;fill:black;stroke-linecap:butt;stroke-linejoin:miter;" /><path d="M 36.0,-0.0 L 36.0,18.0 L 63.0,-0.0 L 36.0,-18.0 L 36.0,-0.0" style="stroke:black;fill:none;stroke-width:2.0;stroke-dasharray:-;stroke-linecap:round;stroke-linejoin:round;" /><path d="M 63.0,-0.0 L 72.0,-0.0 L 81.0,-0.0" style="stroke:black;fill:none;stroke-width:2.0;stroke-dasharray:-;stroke-linecap:round;stroke-linejoin:round;" /><path d="M 81.0,-0.0 L 81.0,-36.0 L 81.0,-72.0" style="stroke:black;fill:none;stroke-width:2.0;stroke-dasharray:-;stroke-linecap:round;stroke-linejoin:round;" /><path d="M 81.0,-72.0 L 90.0,-72.0 L 90.0,-72.0" style="stroke:black;fill:none;stroke-width:2.0;stroke-dasharray:-;stroke-linecap:round;stroke-linejoin:round;" /><path d="M 97.0 -72.0 L 90.0 -69.3 L 90.0 -74.7 Z" style="stroke:black;fill:black;stroke-linecap:butt;stroke-linejoin:miter;" /><path d="M 129.72792206135787,-84.72792206135786 L 104.27207793864214,-59.27207793864215" style="stroke:black;fill:none;stroke-width:1;stroke-dasharray:-;stroke-linecap:round;stroke-linejoin:round;" /><path d="M 129.72792206135787,-59.27207793864215 L 104.27207793864214,-84.72792206135786" style="stroke:black;fill:none;stroke-width:1;stroke-dasharray:-;stroke-linecap:round;stroke-linejoin:round;" /><path d="M 135.0,-72.0 L 144.0,-72.0 L 144.0,-72.0" style="stroke:black;fill:none;stroke-width:2.0;stroke-dasharray:-;stroke-linecap:round;stroke-linejoin:round;" /><path d="M 151.0 -72.0 L 144.0 -69.3 L 144.0 -74.7 Z" style="stroke:black;fill:black;stroke-linecap:butt;stroke-linejoin:miter;" /><path d="M 153.0,-72.0 L 153.0,-90.0 L 189.0,-90.0 L 189.0,-54.0 L 153.0,-54.0 L 153.0,-72.0" style="stroke:black;fill:none;stroke-width:2.0;stroke-dasharray:-;stroke-linecap:round;stroke-linejoin:round;" /><path d="M 160.20000000000002,-72.0 L 161.33684210526314,-73.16891808913687 L 162.47368421052633,-74.2111657656828 L 163.61052631578949,-75.01379932174511 L 164.7473684210526,-75.48984095738159 L 165.8842105263158,-75.58770417482401 L 167.02105263157895,-75.2967839759582 L 168.15789473684208,-74.64860607842327 L 169.29473684210527,-73.71341061493347 L 170.43157894736842,-72.59254052501065 L 171.56842105263158,-71.40745947498937 L 172.70526315789473,-70.28658938506653 L 173.8421052631579,-69.35139392157673 L 174.97894736842105,-68.7032160240418 L 176.1157894736842,-68.41229582517599 L 177.2526315789474,-68.51015904261841 L 178.38947368421051,-68.9862006782549 L 179.52631578947367,-69.78883423431719 L 180.66315789473686,-70.83108191086313 L 181.79999999999998,-72.0" style="stroke:black;fill:none;stroke-width:2.0;stroke-dasharray:-;stroke-linecap:round;stroke-linejoin:round;" /><path d="M 160.20000000000002,-81.0 L 161.33684210526314,-82.16891808913685 L 162.47368421052633,-83.2111657656828 L 163.61052631578949,-84.01379932174511 L 164.7473684210526,-84.48984095738159 L 165.8842105263158,-84.58770417482401 L 167.02105263157895,-84.2967839759582 L 168.15789473684208,-83.64860607842327 L 169.29473684210527,-82.71341061493347 L 170.43157894736842,-81.59254052501065 L 171.56842105263158,-80.40745947498935 L 172.70526315789473,-79.28658938506653 L 173.8421052631579,-78.35139392157673 L 174.97894736842105,-77.7032160240418 L 176.1157894736842,-77.41229582517599 L 177.2526315789474,-77.51015904261841 L 178.38947368421051,-77.98620067825489 L 179.52631578947367,-78.7888342343172 L 180.66315789473686,-79.83108191086313 L 181.79999999999998,-81.0" style="stroke:black;fill:none;stroke-width:2.0;stroke-dasharray:-;stroke-linecap:round;stroke-linejoin:round;" /><path d="M 160.20000000000002,-63.0 L 161.33684210526314,-64.16891808913687 L 162.47368421052633,-65.21116576568281 L 163.61052631578949,-66.01379932174511 L 164.7473684210526,-66.48984095738159 L 165.8842105263158,-66.58770417482401 L 167.02105263157895,-66.2967839759582 L 168.15789473684208,-65.64860607842327 L 169.29473684210527,-64.71341061493347 L 170.43157894736842,-63.59254052501064 L 171.56842105263158,-62.40745947498936 L 172.70526315789473,-61.286589385066534 L 173.8421052631579,-60.35139392157673 L 174.97894736842105,-59.703216024041794 L 176.1157894736842,-59.41229582517599 L 177.2526315789474,-59.51015904261841 L 178.38947368421051,-59.98620067825489 L 179.52631578947367,-60.78883423431719 L 180.66315789473686,-61.83108191086314 L 181.79999999999998,-63.0" style="stroke:black;fill:none;stroke-width:2.0;stroke-dasharray:-;stroke-linecap:round;stroke-linejoin:round;" /><path d="M 169.20000000000002,-78.12 L 172.79999999999998,-83.88" style="stroke:black;fill:none;stroke-width:2.0;stroke-dasharray:-;stroke-linecap:round;stroke-linejoin:round;" /><path d="M 169.20000000000002,-69.12 L 172.79999999999998,-74.88" style="stroke:black;fill:none;stroke-width:2.0;stroke-dasharray:-;stroke-linecap:round;stroke-linejoin:round;" /><path d="M 189.0,-72.0 L 198.0,-72.0 L 198.0,-72.0" style="stroke:black;fill:none;stroke-width:2.0;stroke-dasharray:-;stroke-linecap:round;stroke-linejoin:round;" /><path d="M 205.0 -72.0 L 198.0 -69.3 L 198.0 -74.7 Z" style="stroke:black;fill:black;stroke-linecap:butt;stroke-linejoin:miter;" /><path d="M 207.0,-72.0 L 207.0,-54.0 L 234.0,-72.0 L 207.0,-90.0 L 207.0,-72.0" style="stroke:black;fill:none;stroke-width:2.0;stroke-dasharray:-;stroke-linecap:round;stroke-linejoin:round;" /><path d="M 234.0,-72.0 L 243.0,-72.0 L 243.0,-72.0" style="stroke:black;fill:none;stroke-width:2.0;stroke-dasharray:-;stroke-linecap:round;stroke-linejoin:round;" /><path d="M 250.0 -72.0 L 243.0 -69.3 L 243.0 -74.7 Z" style="stroke:black;fill:black;stroke-linecap:butt;stroke-linejoin:miter;" /><path d="M 252.0,-72.0 L 259.92,-90.0 L 302.40000000000003,-90.0 L 302.40000000000003,-54.0 L 259.92,-54.0 L 252.0,-72.0" style="stroke:black;fill:none;stroke-width:2.0;stroke-dasharray:-;stroke-linecap:round;stroke-linejoin:round;" /><path d="M 302.40000000000003,-72.0 L 311.40000000000003,-72.0 L 311.40000000000003,-72.0" style="stroke:black;fill:none;stroke-width:2.0;stroke-dasharray:-;stroke-linecap:round;stroke-linejoin:round;" /><path d="M 318.40000000000003 -72.0 L 311.40000000000003 -69.3 L 311.40000000000003 -74.7 Z" style="stroke:black;fill:black;stroke-linecap:butt;stroke-linejoin:miter;" /><path d="M 320.40000000000003,-72.0 L 320.40000000000003,-90.0 L 356.40000000000003,-90.0 L 356.40000000000003,-54.0 L 320.40000000000003,-54.0 L 320.40000000000003,-72.0" style="stroke:black;fill:none;stroke-width:2.0;stroke-dasharray:-;stroke-linecap:round;stroke-linejoin:round;" /><path d="M 356.40000000000003,-72.0 L 374.40000000000003,-72.0 L 383.40000000000003,-72.0" style="stroke:black;fill:none;stroke-width:2.0;stroke-dasharray:-;stroke-linecap:round;stroke-linejoin:round;" /><path d="M 390.40000000000003 -72.0 L 383.40000000000003 -69.3 L 383.40000000000003 -74.7 Z" style="stroke:black;fill:black;stroke-linecap:butt;stroke-linejoin:miter;" /><path d="M 392.40000000000003,342.0 L 491.40000000000003,342.0 L 491.40000000000003,-90.0 L 392.40000000000003,-90.0 L 392.40000000000003,342.0" style="stroke:black;fill:none;stroke-width:2.0;stroke-dasharray:-;stroke-linecap:round;stroke-linejoin:round;" /><path d="M 81.0,-0.0 L 81.0,36.0 L 80.99999999999999,72.0" style="stroke:black;fill:none;stroke-width:2.0;stroke-dasharray:-;stroke-linecap:round;stroke-linejoin:round;" /><path d="M 80.99999999999999,72.0 L 89.99999999999999,72.0 L 89.99999999999999,72.0" style="stroke:black;fill:none;stroke-width:2.0;stroke-dasharray:-;stroke-linecap:round;stroke-linejoin:round;" /><path d="M 96.99999999999999 72.0 L 89.99999999999999 74.7 L 89.99999999999999 69.3 Z" style="stroke:black;fill:black;stroke-linecap:butt;stroke-linejoin:miter;" /><path d="M 129.72792206135784,59.27207793864215 L 104.27207793864213,84.72792206135786" style="stroke:black;fill:none;stroke-width:1;stroke-dasharray:-;stroke-linecap:round;stroke-linejoin:round;" /><path d="M 129.72792206135784,84.72792206135786 L 104.27207793864213,59.27207793864215" style="stroke:black;fill:none;stroke-width:1;stroke-dasharray:-;stroke-linecap:round;stroke-linejoin:round;" /><path d="M 134.99999999999997,72.0 L 143.99999999999997,72.0 L 144.0,72.0" style="stroke:black;fill:none;stroke-width:2.0;stroke-dasharray:-;stroke-linecap:round;stroke-linejoin:round;" /><path d="M 151.0 72.0 L 144.0 74.7 L 144.0 69.3 Z" style="stroke:black;fill:black;stroke-linecap:butt;stroke-linejoin:miter;" /><path d="M 153.0,72.0 L 153.0,54.0 L 189.0,54.0 L 189.0,90.0 L 153.0,90.0 L 153.0,72.0" style="stroke:black;fill:none;stroke-width:2.0;stroke-dasharray:-;stroke-linecap:round;stroke-linejoin:round;" /><path d="M 160.20000000000002,72.0 L 161.33684210526314,70.83108191086313 L 162.47368421052633,69.78883423431719 L 163.61052631578949,68.9862006782549 L 164.7473684210526,68.51015904261841 L 165.8842105263158,68.41229582517599 L 167.02105263157895,68.7032160240418 L 168.15789473684208,69.35139392157673 L 169.29473684210527,70.28658938506653 L 170.43157894736842,71.40745947498937 L 171.56842105263158,72.59254052501065 L 172.70526315789473,73.71341061493347 L 173.8421052631579,74.64860607842327 L 174.97894736842105,75.2967839759582 L 176.1157894736842,75.58770417482401 L 177.2526315789474,75.48984095738159 L 178.38947368421051,75.01379932174511 L 179.52631578947367,74.2111657656828 L 180.66315789473686,73.16891808913687 L 181.79999999999998,72.0" style="stroke:black;fill:none;stroke-width:2.0;stroke-dasharray:-;stroke-linecap:round;stroke-linejoin:round;" /><path d="M 160.20000000000002,63.0 L 161.33684210526314,61.83108191086314 L 162.47368421052633,60.78883423431719 L 163.61052631578949,59.98620067825489 L 164.7473684210526,59.51015904261841 L 165.8842105263158,59.41229582517599 L 167.02105263157895,59.703216024041794 L 168.15789473684208,60.35139392157673 L 169.29473684210527,61.286589385066534 L 170.43157894736842,62.40745947498936 L 171.56842105263158,63.59254052501064 L 172.70526315789473,64.71341061493347 L 173.8421052631579,65.64860607842327 L 174.97894736842105,66.2967839759582 L 176.1157894736842,66.58770417482401 L 177.2526315789474,66.48984095738159 L 178.38947368421051,66.01379932174511 L 179.52631578947367,65.21116576568281 L 180.66315789473686,64.16891808913687 L 181.79999999999998,63.0" style="stroke:black;fill:none;stroke-width:2.0;stroke-dasharray:-;stroke-linecap:round;stroke-linejoin:round;" /><path d="M 160.20000000000002,81.0 L 161.33684210526314,79.83108191086313 L 162.47368421052633,78.7888342343172 L 163.61052631578949,77.98620067825489 L 164.7473684210526,77.51015904261841 L 165.8842105263158,77.41229582517599 L 167.02105263157895,77.7032160240418 L 168.15789473684208,78.35139392157673 L 169.29473684210527,79.28658938506653 L 170.43157894736842,80.40745947498935 L 171.56842105263158,81.59254052501065 L 172.70526315789473,82.71341061493347 L 173.8421052631579,83.64860607842327 L 174.97894736842105,84.2967839759582 L 176.1157894736842,84.58770417482401 L 177.2526315789474,84.4898409573816 L 178.38947368421051,84.01379932174511 L 179.52631578947367,83.2111657656828 L 180.66315789473686,82.16891808913685 L 181.79999999999998,81.0" style="stroke:black;fill:none;stroke-width:2.0;stroke-dasharray:-;stroke-linecap:round;stroke-linejoin:round;" /><path d="M 169.20000000000002,65.88 L 172.79999999999998,60.12" style="stroke:black;fill:none;stroke-width:2.0;stroke-dasharray:-;stroke-linecap:round;stroke-linejoin:round;" /><path d="M 169.20000000000002,74.88 L 172.79999999999998,69.12" style="stroke:black;fill:none;stroke-width:2.0;stroke-dasharray:-;stroke-linecap:round;stroke-linejoin:round;" /><path d="M 189.0,72.0 L 198.0,72.0 L 198.0,72.0" style="stroke:black;fill:none;stroke-width:2.0;stroke-dasharray:-;stroke-linecap:round;stroke-linejoin:round;" /><path d="M 205.0 72.0 L 198.0 74.7 L 198.0 69.3 Z" style="stroke:black;fill:black;stroke-linecap:butt;stroke-linejoin:miter;" /><path d="M 207.0,72.0 L 207.0,90.0 L 234.0,72.0 L 207.0,54.0 L 207.0,72.0" style="stroke:black;fill:none;stroke-width:2.0;stroke-dasharray:-;stroke-linecap:round;stroke-linejoin:round;" /><path d="M 234.0,72.0 L 243.0,72.0 L 243.0,72.0" style="stroke:black;fill:none;stroke-width:2.0;stroke-dasharray:-;stroke-linecap:round;stroke-linejoin:round;" /><path d="M 250.0 72.0 L 243.0 74.7 L 243.0 69.3 Z" style="stroke:black;fill:black;stroke-linecap:butt;stroke-linejoin:miter;" /><path d="M 252.0,72.0 L 259.92,54.0 L 302.40000000000003,54.0 L 302.40000000000003,90.0 L 259.92,90.0 L 252.0,72.0" style="stroke:black;fill:none;stroke-width:2.0;stroke-dasharray:-;stroke-linecap:round;stroke-linejoin:round;" /><path d="M 302.40000000000003,72.0 L 311.40000000000003,72.0 L 311.40000000000003,72.0" style="stroke:black;fill:none;stroke-width:2.0;stroke-dasharray:-;stroke-linecap:round;stroke-linejoin:round;" /><path d="M 318.40000000000003 72.0 L 311.40000000000003 74.7 L 311.40000000000003 69.3 Z" style="stroke:black;fill:black;stroke-linecap:butt;stroke-linejoin:miter;" /><path d="M 320.40000000000003,72.0 L 320.40000000000003,54.0 L 356.40000000000003,54.0 L 356.40000000000003,90.0 L 320.40000000000003,90.0 L 320.40000000000003,72.0" style="stroke:black;fill:none;stroke-width:2.0;stroke-dasharray:-;stroke-linecap:round;stroke-linejoin:round;" /><path d="M 356.40000000000003,72.0 L 374.40000000000003,72.0 L 383.40000000000003,72.0" style="stroke:black;fill:none;stroke-width:2.0;stroke-dasharray:-;stroke-linecap:round;stroke-linejoin:round;" /><path d="M 390.40000000000003 72.0 L 383.40000000000003 74.7 L 383.40000000000003 69.3 Z" style="stroke:black;fill:black;stroke-linecap:butt;stroke-linejoin:miter;" /><path d="M 99.0,-0.0 L 99.0,-18.0 L 135.0,-18.0 L 135.0,18.0 L 99.0,18.0 L 99.0,-0.0" style="stroke:black;fill:none;stroke-width:2.0;stroke-dasharray:-;stroke-linecap:round;stroke-linejoin:round;" /><path d="M 117.0,-18.0 L 117.0,-36.0 L 117.0,-45.0" style="stroke:black;fill:none;stroke-width:2.0;stroke-dasharray:-;stroke-linecap:round;stroke-linejoin:round;" /><path d="M 117.0 -52.0 L 119.7 -45.0 L 114.3 -45.0 Z" style="stroke:black;fill:black;stroke-linecap:butt;stroke-linejoin:miter;" /><path d="M 117.0,18.0 L 117.0,36.0 L 117.0,45.0" style="stroke:black;fill:none;stroke-width:2.0;stroke-dasharray:-;stroke-linecap:round;stroke-linejoin:round;" /><path d="M 117.0 52.0 L 114.3 45.0 L 119.7 45.0 Z" style="stroke:black;fill:black;stroke-linecap:butt;stroke-linejoin:miter;" /><path d="M 144.0,-0.0 L 144.0,-0.0 L 153.0,-0.0" style="stroke:black;fill:none;stroke-width:2.0;stroke-dasharray:-;stroke-linecap:round;stroke-linejoin:round;" /><path d="M 137.0 2.4492935982947064e-16 L 144.0 -2.699999999999999 L 144.0 2.7000000000000006 Z" style="stroke:black;fill:black;stroke-linecap:butt;stroke-linejoin:miter;" /><path d="M 160.20000000000002,-4.4087284769304716e-16 L 161.33684210526314,-1.168918089136861 L 162.47368421052633,-2.2111657656828045 L 163.61052631578949,-3.013799321745103 L 164.7473684210526,-3.4898409573815896 L 165.8842105263158,-3.5877041748240117 L 167.02105263157895,-3.2967839759582067 L 168.15789473684208,-2.648606078423274 L 169.29473684210527,-1.7134106149334647 L 170.43157894736842,-0.5925405250106421 L 171.56842105263158,0.5925405250106421 L 172.70526315789473,1.7134106149334647 L 173.8421052631579,2.6486060784232732 L 174.97894736842105,3.2967839759582063 L 176.1157894736842,3.5877041748240117 L 177.2526315789474,3.48984095738159 L 178.38947368421051,3.013799321745103 L 179.52631578947367,2.2111657656828045 L 180.66315789473686,1.168918089136861 L 181.79999999999998,4.4087284769304716e-16" style="stroke:black;fill:none;stroke-width:2.0;stroke-dasharray:-;stroke-linecap:round;stroke-linejoin:round;" /><path d="M 189.0,-0.0 L 198.0,-0.0 L 207.0,-0.0" style="stroke:black;fill:none;stroke-width:2.0;stroke-dasharray:-;stroke-linecap:round;stroke-linejoin:round;" /><path d="M 207.0,-0.0 L 207.0,-18.0 L 243.0,-18.0 L 243.0,18.0 L 207.0,18.0 L 207.0,-0.0" style="stroke:black;fill:none;stroke-width:2.0;stroke-dasharray:-;stroke-linecap:round;stroke-linejoin:round;" /><path d="M 9.0,252.0 L 18.0,252.0 L 36.0,252.0" style="stroke:black;fill:none;stroke-width:2.0;stroke-dasharray:-;stroke-linecap:round;stroke-linejoin:round;" /><path d="M 2.0 252.0 L 9.0 249.3 L 9.0 254.7 Z" style="stroke:black;fill:black;stroke-linecap:butt;stroke-linejoin:miter;" /><path d="M 63.0,252.0 L 63.0,234.0 L 36.0,252.0 L 63.0,270.0 L 63.0,252.0" style="stroke:black;fill:none;stroke-width:2.0;stroke-dasharray:-;stroke-linecap:round;stroke-linejoin:round;" /><path d="M 72.0,252.0 L 72.0,252.0 L 81.0,252.0" style="stroke:black;fill:none;stroke-width:2.0;stroke-dasharray:-;stroke-linecap:round;stroke-linejoin:round;" /><path d="M 65.0 252.0 L 72.0 249.3 L 72.0 254.7 Z" style="stroke:black;fill:black;stroke-linecap:butt;stroke-linejoin:miter;" /><path d="M 81.0,252.0 L 81.0,216.0 L 81.0,180.0" style="stroke:black;fill:none;stroke-width:2.0;stroke-dasharray:-;stroke-linecap:round;stroke-linejoin:round;" /><path d="M 81.0,180.0 L 90.0,180.0 L 99.0,180.0" style="stroke:black;fill:none;stroke-width:2.0;stroke-dasharray:-;stroke-linecap:round;stroke-linejoin:round;" /><path d="M 129.72792206135787,167.27207793864213 L 104.27207793864214,192.72792206135787" style="stroke:black;fill:none;stroke-width:1;stroke-dasharray:-;stroke-linecap:round;stroke-linejoin:round;" /><path d="M 129.72792206135787,192.72792206135787 L 104.27207793864214,167.27207793864213" style="stroke:black;fill:none;stroke-width:1;stroke-dasharray:-;stroke-linecap:round;stroke-linejoin:round;" /><path d="M 144.0,180.0 L 144.0,180.0 L 153.0,180.0" style="stroke:black;fill:none;stroke-width:2.0;stroke-dasharray:-;stroke-linecap:round;stroke-linejoin:round;" /><path d="M 137.0 180.0 L 144.0 177.3 L 144.0 182.7 Z" style="stroke:black;fill:black;stroke-linecap:butt;stroke-linejoin:miter;" /><path d="M 153.0,180.0 L 153.0,162.0 L 189.0,162.0 L 189.0,198.0 L 153.0,198.0 L 153.0,180.0" style="stroke:black;fill:none;stroke-width:2.0;stroke-dasharray:-;stroke-linecap:round;stroke-linejoin:round;" /><path d="M 160.20000000000002,180.0 L 161.33684210526314,178.83108191086313 L 162.47368421052633,177.7888342343172 L 163.61052631578949,176.9862006782549 L 164.7473684210526,176.5101590426184 L 165.8842105263158,176.412295825176 L 167.02105263157895,176.70321602404178 L 168.15789473684208,177.35139392157672 L 169.29473684210527,178.28658938506655 L 170.43157894736842,179.40745947498937 L 171.56842105263158,180.59254052501063 L 172.70526315789473,181.71341061493345 L 173.8421052631579,182.64860607842328 L 174.97894736842105,183.29678397595822 L 176.1157894736842,183.587704174824 L 177.2526315789474,183.4898409573816 L 178.38947368421051,183.0137993217451 L 179.52631578947367,182.2111657656828 L 180.66315789473686,181.16891808913687 L 181.79999999999998,180.0" style="stroke:black;fill:none;stroke-width:2.0;stroke-dasharray:-;stroke-linecap:round;stroke-linejoin:round;" /><path d="M 160.20000000000002,171.0 L 161.33684210526314,169.83108191086313 L 162.47368421052633,168.7888342343172 L 163.61052631578949,167.9862006782549 L 164.7473684210526,167.5101590426184 L 165.8842105263158,167.412295825176 L 167.02105263157895,167.70321602404178 L 168.15789473684208,168.35139392157672 L 169.29473684210527,169.28658938506655 L 170.43157894736842,170.40745947498937 L 171.56842105263158,171.59254052501063 L 172.70526315789473,172.71341061493345 L 173.8421052631579,173.64860607842328 L 174.97894736842105,174.29678397595822 L 176.1157894736842,174.587704174824 L 177.2526315789474,174.4898409573816 L 178.38947368421051,174.0137993217451 L 179.52631578947367,173.2111657656828 L 180.66315789473686,172.16891808913687 L 181.79999999999998,171.0" style="stroke:black;fill:none;stroke-width:2.0;stroke-dasharray:-;stroke-linecap:round;stroke-linejoin:round;" /><path d="M 160.20000000000002,189.0 L 161.33684210526314,187.83108191086313 L 162.47368421052633,186.7888342343172 L 163.61052631578949,185.9862006782549 L 164.7473684210526,185.5101590426184 L 165.8842105263158,185.412295825176 L 167.02105263157895,185.70321602404178 L 168.15789473684208,186.35139392157672 L 169.29473684210527,187.28658938506655 L 170.43157894736842,188.40745947498937 L 171.56842105263158,189.59254052501063 L 172.70526315789473,190.71341061493345 L 173.8421052631579,191.64860607842328 L 174.97894736842105,192.29678397595822 L 176.1157894736842,192.587704174824 L 177.2526315789474,192.4898409573816 L 178.38947368421051,192.0137993217451 L 179.52631578947367,191.2111657656828 L 180.66315789473686,190.16891808913687 L 181.79999999999998,189.0" style="stroke:black;fill:none;stroke-width:2.0;stroke-dasharray:-;stroke-linecap:round;stroke-linejoin:round;" /><path d="M 169.20000000000002,173.88 L 172.79999999999998,168.12" style="stroke:black;fill:none;stroke-width:2.0;stroke-dasharray:-;stroke-linecap:round;stroke-linejoin:round;" /><path d="M 169.20000000000002,182.88 L 172.79999999999998,177.12" style="stroke:black;fill:none;stroke-width:2.0;stroke-dasharray:-;stroke-linecap:round;stroke-linejoin:round;" /><path d="M 198.0,180.0 L 198.0,180.0 L 207.0,180.0" style="stroke:black;fill:none;stroke-width:2.0;stroke-dasharray:-;stroke-linecap:round;stroke-linejoin:round;" /><path d="M 191.0 180.0 L 198.0 177.3 L 198.0 182.7 Z" style="stroke:black;fill:black;stroke-linecap:butt;stroke-linejoin:miter;" /><path d="M 234.0,180.0 L 234.0,162.0 L 207.0,180.0 L 234.0,198.0 L 234.0,180.0" style="stroke:black;fill:none;stroke-width:2.0;stroke-dasharray:-;stroke-linecap:round;stroke-linejoin:round;" /><path d="M 243.0,180.0 L 243.0,180.0 L 252.0,180.0" style="stroke:black;fill:none;stroke-width:2.0;stroke-dasharray:-;stroke-linecap:round;stroke-linejoin:round;" /><path d="M 236.0 180.0 L 243.0 177.3 L 243.0 182.7 Z" style="stroke:black;fill:black;stroke-linecap:butt;stroke-linejoin:miter;" /><path d="M 252.0,180.0 L 259.92,162.0 L 302.40000000000003,162.0 L 302.40000000000003,198.0 L 259.92,198.0 L 252.0,180.0" style="stroke:black;fill:none;stroke-width:2.0;stroke-dasharray:-;stroke-linecap:round;stroke-linejoin:round;" /><path d="M 311.40000000000003,180.0 L 311.40000000000003,180.0 L 320.40000000000003,180.0" style="stroke:black;fill:none;stroke-width:2.0;stroke-dasharray:-;stroke-linecap:round;stroke-linejoin:round;" /><path d="M 304.40000000000003 180.0 L 311.40000000000003 177.3 L 311.40000000000003 182.7 Z" style="stroke:black;fill:black;stroke-linecap:butt;stroke-linejoin:miter;" /><path d="M 320.40000000000003,180.0 L 320.40000000000003,162.0 L 356.40000000000003,162.0 L 356.40000000000003,198.0 L 320.40000000000003,198.0 L 320.40000000000003,180.0" style="stroke:black;fill:none;stroke-width:2.0;stroke-dasharray:-;stroke-linecap:round;stroke-linejoin:round;" /><path d="M 365.40000000000003,180.0 L 374.40000000000003,180.0 L 392.40000000000003,180.0" style="stroke:black;fill:none;stroke-width:2.0;stroke-dasharray:-;stroke-linecap:round;stroke-linejoin:round;" /><path d="M 358.40000000000003 180.0 L 365.40000000000003 177.3 L 365.40000000000003 182.7 Z" style="stroke:black;fill:black;stroke-linecap:butt;stroke-linejoin:miter;" /><path d="M 81.0,252.0 L 81.0,288.0 L 80.99999999999999,324.0" style="stroke:black;fill:none;stroke-width:2.0;stroke-dasharray:-;stroke-linecap:round;stroke-linejoin:round;" /><path d="M 80.99999999999999,324.0 L 89.99999999999999,324.0 L 98.99999999999999,324.0" style="stroke:black;fill:none;stroke-width:2.0;stroke-dasharray:-;stroke-linecap:round;stroke-linejoin:round;" /><path d="M 129.72792206135784,311.27207793864216 L 104.27207793864213,336.72792206135784" style="stroke:black;fill:none;stroke-width:1;stroke-dasharray:-;stroke-linecap:round;stroke-linejoin:round;" /><path d="M 129.72792206135784,336.72792206135784 L 104.27207793864213,311.27207793864216" style="stroke:black;fill:none;stroke-width:1;stroke-dasharray:-;stroke-linecap:round;stroke-linejoin:round;" /><path d="M 143.99999999999997,324.0 L 143.99999999999997,324.0 L 153.0,324.0" style="stroke:black;fill:none;stroke-width:2.0;stroke-dasharray:-;stroke-linecap:round;stroke-linejoin:round;" /><path d="M 136.99999999999997 324.0 L 143.99999999999997 321.3 L 143.99999999999997 326.7 Z" style="stroke:black;fill:black;stroke-linecap:butt;stroke-linejoin:miter;" /><path d="M 153.0,324.0 L 153.0,306.0 L 189.0,306.0 L 189.0,342.0 L 153.0,342.0 L 153.0,324.0" style="stroke:black;fill:none;stroke-width:2.0;stroke-dasharray:-;stroke-linecap:round;stroke-linejoin:round;" /><path d="M 160.20000000000002,324.0 L 161.33684210526314,322.83108191086313 L 162.47368421052633,321.78883423431716 L 163.61052631578949,320.98620067825493 L 164.7473684210526,320.51015904261845 L 165.8842105263158,320.412295825176 L 167.02105263157895,320.7032160240418 L 168.15789473684208,321.35139392157674 L 169.29473684210527,322.2865893850665 L 170.43157894736842,323.40745947498937 L 171.56842105263158,324.59254052501063 L 172.70526315789473,325.7134106149335 L 173.8421052631579,326.64860607842326 L 174.97894736842105,327.2967839759582 L 176.1157894736842,327.587704174824 L 177.2526315789474,327.48984095738155 L 178.38947368421051,327.01379932174507 L 179.52631578947367,326.21116576568284 L 180.66315789473686,325.16891808913687 L 181.79999999999998,324.0" style="stroke:black;fill:none;stroke-width:2.0;stroke-dasharray:-;stroke-linecap:round;stroke-linejoin:round;" /><path d="M 160.20000000000002,315.0 L 161.33684210526314,313.83108191086313 L 162.47368421052633,312.78883423431716 L 163.61052631578949,311.98620067825493 L 164.7473684210526,311.51015904261845 L 165.8842105263158,311.412295825176 L 167.02105263157895,311.7032160240418 L 168.15789473684208,312.35139392157674 L 169.29473684210527,313.2865893850665 L 170.43157894736842,314.40745947498937 L 171.56842105263158,315.59254052501063 L 172.70526315789473,316.7134106149335 L 173.8421052631579,317.64860607842326 L 174.97894736842105,318.2967839759582 L 176.1157894736842,318.587704174824 L 177.2526315789474,318.48984095738155 L 178.38947368421051,318.01379932174507 L 179.52631578947367,317.21116576568284 L 180.66315789473686,316.16891808913687 L 181.79999999999998,315.0" style="stroke:black;fill:none;stroke-width:2.0;stroke-dasharray:-;stroke-linecap:round;stroke-linejoin:round;" /><path d="M 160.20000000000002,333.0 L 161.33684210526314,331.83108191086313 L 162.47368421052633,330.78883423431716 L 163.61052631578949,329.98620067825493 L 164.7473684210526,329.51015904261845 L 165.8842105263158,329.412295825176 L 167.02105263157895,329.7032160240418 L 168.15789473684208,330.35139392157674 L 169.29473684210527,331.2865893850665 L 170.43157894736842,332.40745947498937 L 171.56842105263158,333.59254052501063 L 172.70526315789473,334.7134106149335 L 173.8421052631579,335.64860607842326 L 174.97894736842105,336.2967839759582 L 176.1157894736842,336.587704174824 L 177.2526315789474,336.48984095738155 L 178.38947368421051,336.01379932174507 L 179.52631578947367,335.21116576568284 L 180.66315789473686,334.16891808913687 L 181.79999999999998,333.0" style="stroke:black;fill:none;stroke-width:2.0;stroke-dasharray:-;stroke-linecap:round;stroke-linejoin:round;" /><path d="M 169.20000000000002,317.88 L 172.79999999999998,312.12" style="stroke:black;fill:none;stroke-width:2.0;stroke-dasharray:-;stroke-linecap:round;stroke-linejoin:round;" /><path d="M 169.20000000000002,326.88 L 172.79999999999998,321.12" style="stroke:black;fill:none;stroke-width:2.0;stroke-dasharray:-;stroke-linecap:round;stroke-linejoin:round;" /><path d="M 198.0,324.0 L 198.0,324.0 L 207.0,324.0" style="stroke:black;fill:none;stroke-width:2.0;stroke-dasharray:-;stroke-linecap:round;stroke-linejoin:round;" /><path d="M 191.0 324.0 L 198.0 321.3 L 198.0 326.7 Z" style="stroke:black;fill:black;stroke-linecap:butt;stroke-linejoin:miter;" /><path d="M 234.0,324.0 L 234.0,306.0 L 207.0,324.0 L 234.0,342.0 L 234.0,324.0" style="stroke:black;fill:none;stroke-width:2.0;stroke-dasharray:-;stroke-linecap:round;stroke-linejoin:round;" /><path d="M 243.0,324.0 L 243.0,324.0 L 252.0,324.0" style="stroke:black;fill:none;stroke-width:2.0;stroke-dasharray:-;stroke-linecap:round;stroke-linejoin:round;" /><path d="M 236.0 324.0 L 243.0 321.3 L 243.0 326.7 Z" style="stroke:black;fill:black;stroke-linecap:butt;stroke-linejoin:miter;" /><path d="M 252.0,324.0 L 259.92,306.0 L 302.40000000000003,306.0 L 302.40000000000003,342.0 L 259.92,342.0 L 252.0,324.0" style="stroke:black;fill:none;stroke-width:2.0;stroke-dasharray:-;stroke-linecap:round;stroke-linejoin:round;" /><path d="M 311.40000000000003,324.0 L 311.40000000000003,324.0 L 320.40000000000003,324.0" style="stroke:black;fill:none;stroke-width:2.0;stroke-dasharray:-;stroke-linecap:round;stroke-linejoin:round;" /><path d="M 304.40000000000003 324.0 L 311.40000000000003 321.3 L 311.40000000000003 326.7 Z" style="stroke:black;fill:black;stroke-linecap:butt;stroke-linejoin:miter;" /><path d="M 320.40000000000003,324.0 L 320.40000000000003,306.0 L 356.40000000000003,306.0 L 356.40000000000003,342.0 L 320.40000000000003,342.0 L 320.40000000000003,324.0" style="stroke:black;fill:none;stroke-width:2.0;stroke-dasharray:-;stroke-linecap:round;stroke-linejoin:round;" /><path d="M 365.40000000000003,324.0 L 374.40000000000003,324.0 L 392.40000000000003,324.0" style="stroke:black;fill:none;stroke-width:2.0;stroke-dasharray:-;stroke-linecap:round;stroke-linejoin:round;" /><path d="M 358.40000000000003 324.0 L 365.40000000000003 321.3 L 365.40000000000003 326.7 Z" style="stroke:black;fill:black;stroke-linecap:butt;stroke-linejoin:miter;" /><path d="M 99.0,252.0 L 99.0,234.0 L 135.0,234.0 L 135.0,270.0 L 99.0,270.0 L 99.0,252.0" style="stroke:black;fill:none;stroke-width:2.0;stroke-dasharray:-;stroke-linecap:round;stroke-linejoin:round;" /><path d="M 117.0,234.0 L 117.0,216.0 L 117.0,207.0" style="stroke:black;fill:none;stroke-width:2.0;stroke-dasharray:-;stroke-linecap:round;stroke-linejoin:round;" /><path d="M 117.0 200.0 L 119.7 207.0 L 114.3 207.0 Z" style="stroke:black;fill:black;stroke-linecap:butt;stroke-linejoin:miter;" /><path d="M 117.0,270.0 L 117.0,288.0 L 117.0,297.0" style="stroke:black;fill:none;stroke-width:2.0;stroke-dasharray:-;stroke-linecap:round;stroke-linejoin:round;" /><path d="M 117.0 304.0 L 114.3 297.0 L 119.7 297.0 Z" style="stroke:black;fill:black;stroke-linecap:butt;stroke-linejoin:miter;" /><path d="M 144.0,252.0 L 144.0,252.0 L 153.0,252.0" style="stroke:black;fill:none;stroke-width:2.0;stroke-dasharray:-;stroke-linecap:round;stroke-linejoin:round;" /><path d="M 137.0 252.0 L 144.0 249.3 L 144.0 254.7 Z" style="stroke:black;fill:black;stroke-linecap:butt;stroke-linejoin:miter;" /><path d="M 160.20000000000002,252.0 L 161.33684210526314,250.83108191086313 L 162.47368421052633,249.7888342343172 L 163.61052631578949,248.9862006782549 L 164.7473684210526,248.5101590426184 L 165.8842105263158,248.412295825176 L 167.02105263157895,248.70321602404178 L 168.15789473684208,249.35139392157672 L 169.29473684210527,250.28658938506655 L 170.43157894736842,251.40745947498937 L 171.56842105263158,252.59254052501063 L 172.70526315789473,253.71341061493345 L 173.8421052631579,254.64860607842328 L 174.97894736842105,255.29678397595822 L 176.1157894736842,255.587704174824 L 177.2526315789474,255.4898409573816 L 178.38947368421051,255.0137993217451 L 179.52631578947367,254.2111657656828 L 180.66315789473686,253.16891808913687 L 181.79999999999998,252.0" style="stroke:black;fill:none;stroke-width:2.0;stroke-dasharray:-;stroke-linecap:round;stroke-linejoin:round;" /><path d="M 189.0,252.0 L 198.0,252.0 L 207.0,252.0" style="stroke:black;fill:none;stroke-width:2.0;stroke-dasharray:-;stroke-linecap:round;stroke-linejoin:round;" /><path d="M 207.0,252.0 L 207.0,234.0 L 243.0,234.0 L 243.0,270.0 L 207.0,270.0 L 207.0,252.0" style="stroke:black;fill:none;stroke-width:2.0;stroke-dasharray:-;stroke-linecap:round;stroke-linejoin:round;" /><g><g><g><path d="M -18.089 -4.823 L -18.089 -4.823 L -18.411 -2.639 L -18.747 -2.639 Q -18.775 -3.451 -19.118 -3.927 Q -19.461 -4.403 -20.077 -4.403 Q -20.623 -4.403 -20.861 -4.109 Q -21.099 -3.815 -21.099 -3.507 Q -21.099 -3.213 -20.896 -2.94 Q -20.693 -2.667 -20.385 -2.38 Q -20.077 -2.093 -19.769 -1.757 Q -19.321 -1.281 -18.992 -0.826 Q -18.663 -0.371 -18.663 0.301 Q -18.663 0.707 -18.866 1.106 Q -19.069 1.505 -19.531 1.771 Q -19.993 2.037 -20.791 2.037 Q -21.449 2.037 -21.848 1.876 Q -22.247 1.715 -22.401 1.659 L -22.443 1.659 L -22.779 2.037 L -23.087 2.037 L -22.723 -0.301 L -22.373 -0.301 Q -22.261 0.609 -21.946 1.085 Q -21.631 1.561 -20.917 1.561 Q -20.427 1.561 -20.126 1.323 Q -19.825 1.085 -19.825 0.539 Q -19.825 -0.035 -20.14 -0.434 Q -20.455 -0.833 -20.861 -1.211 Q -21.141 -1.491 -21.428 -1.757 Q -21.715 -2.023 -21.904 -2.352 Q -22.093 -2.681 -22.093 -3.115 Q -22.093 -3.829 -21.617 -4.326 Q -21.141 -4.823 -20.189 -4.823 Q -19.629 -4.823 -19.258 -4.669 Q -18.887 -4.515 -18.761 -4.445 L -18.719 -4.445 L -18.355 -4.823 Z " fill="black" /><path d="M -11.852 -0.253 L -11.852 -0.253 Q -11.852 0.325 -12.116 0.687 Q -12.381 1.05 -12.787 1.246 Q -13.194 1.442 -13.625 1.54 L -13.625 1.618 Q -13.478 1.746 -13.277 1.981 Q -13.077 2.216 -12.734 2.672 Q -12.391 3.128 -11.822 3.912 Q -11.567 4.255 -11.347 4.353 Q -11.126 4.451 -10.734 4.451 L -10.734 4.823 L -12.508 4.823 Q -12.949 4.186 -13.248 3.75 Q -13.547 3.314 -13.748 3.015 Q -13.949 2.716 -14.101 2.491 Q -14.253 2.265 -14.409 2.03 Q -14.566 1.834 -14.664 1.775 Q -14.762 1.716 -14.958 1.716 L -15.37 1.716 L -15.37 3.461 Q -15.37 3.892 -15.291 4.103 Q -15.213 4.313 -14.983 4.382 Q -14.752 4.451 -14.302 4.451 L -14.302 4.823 L -17.379 4.823 L -17.379 4.451 Q -16.987 4.451 -16.776 4.387 Q -16.565 4.323 -16.487 4.108 Q -16.409 3.892 -16.409 3.461 L -16.409 -0.871 Q -16.409 -1.184 -16.472 -1.361 Q -16.536 -1.537 -16.742 -1.616 Q -16.948 -1.694 -17.379 -1.694 L -17.379 -2.066 L -14.654 -2.066 Q -13.89 -2.066 -13.253 -1.914 Q -12.616 -1.763 -12.234 -1.371 Q -11.852 -0.979 -11.852 -0.253 Z M -15.37 -1.576 L -15.37 -1.576 L -15.37 1.256 L -14.997 1.256 Q -14.086 1.256 -13.532 0.888 Q -12.979 0.521 -12.979 -0.293 Q -12.979 -1.596 -14.586 -1.596 Q -14.782 -1.596 -14.978 -1.591 Q -15.174 -1.586 -15.37 -1.576 Z " fill="black" /><path d="M -3.492 4.823 L -3.492 4.823 L -6.501 4.823 L -6.501 4.46 L -6.364 4.46 Q -5.844 4.46 -5.844 4.196 Q -5.844 4.029 -5.937 3.843 Q -6.03 3.657 -6.256 3.333 L -6.903 2.334 L -7.187 1.844 L -7.226 1.844 L -8.431 3.49 Q -8.529 3.647 -8.671 3.848 Q -8.814 4.049 -8.814 4.186 Q -8.814 4.294 -8.701 4.377 Q -8.588 4.46 -8.157 4.46 L -8.157 4.823 L -10.538 4.823 L -10.538 4.46 Q -10.254 4.451 -10.063 4.382 Q -9.872 4.313 -9.681 4.117 Q -9.49 3.921 -9.206 3.539 L -7.549 1.383 L -9 -0.704 Q -9.294 -1.135 -9.48 -1.346 Q -9.666 -1.557 -9.862 -1.625 Q -10.058 -1.694 -10.401 -1.694 L -10.401 -2.066 L -7.461 -2.066 L -7.461 -1.694 L -7.569 -1.694 Q -7.843 -1.694 -7.941 -1.62 Q -8.039 -1.547 -8.039 -1.39 Q -8.039 -1.302 -7.985 -1.189 Q -7.932 -1.077 -7.843 -0.939 L -7.275 -0.067 L -6.863 0.648 L -6.814 0.648 L -5.785 -0.832 Q -5.658 -1.047 -5.58 -1.194 Q -5.501 -1.341 -5.501 -1.449 Q -5.501 -1.576 -5.629 -1.635 Q -5.756 -1.694 -6.128 -1.694 L -6.128 -2.066 L -3.62 -2.066 L -3.62 -1.694 Q -3.963 -1.694 -4.183 -1.625 Q -4.404 -1.557 -4.604 -1.371 Q -4.805 -1.184 -5.09 -0.802 L -6.54 1.079 L -4.59 3.843 Q -4.404 4.098 -4.257 4.23 Q -4.11 4.362 -3.933 4.407 Q -3.757 4.451 -3.492 4.46 Z " fill="black" /></g></g></g><circle cx="81.0" cy="-0.0" r="2.6999999999999997" style="stroke:black;fill:black;stroke-width:2.0;stroke-dasharray:-;" /><g><g><g><path d="M 264.894 -67.408 L 264.894 -67.408 L 268.072 -76.606 L 269.416 -76.606 L 272.594 -67.408 L 271.32 -67.408 L 270.438 -70.194 L 267.008 -70.194 L 266.112 -67.408 Z M 267.316 -71.132 L 267.316 -71.132 L 270.144 -71.132 L 269.696 -72.532 Q 269.43 -73.302 269.206 -74.065 Q 268.982 -74.828 268.744 -75.626 L 268.688 -75.626 Q 268.464 -74.828 268.24 -74.065 Q 268.016 -73.302 267.764 -72.532 Z " fill="black" /><path d="M 273.91 -67.408 L 273.91 -67.408 L 273.91 -76.606 L 276.262 -76.606 Q 278.432 -76.606 279.566 -75.423 Q 280.7 -74.24 280.7 -72.042 Q 280.7 -69.844 279.573 -68.626 Q 278.446 -67.408 276.318 -67.408 Z M 275.114 -68.388 L 275.114 -68.388 L 276.178 -68.388 Q 277.83 -68.388 278.649 -69.347 Q 279.468 -70.306 279.468 -72.042 Q 279.468 -73.778 278.649 -74.702 Q 277.83 -75.626 276.178 -75.626 L 275.114 -75.626 Z " fill="black" /><path d="M 286.286 -67.24 L 286.286 -67.24 Q 285.124 -67.24 284.193 -67.807 Q 283.262 -68.374 282.73 -69.438 Q 282.198 -70.502 282.198 -71.972 Q 282.198 -73.47 282.744 -74.541 Q 283.29 -75.612 284.221 -76.186 Q 285.152 -76.76 286.3 -76.76 Q 287.28 -76.76 287.91 -76.403 Q 288.54 -76.046 288.932 -75.626 L 288.274 -74.856 Q 287.462 -75.724 286.342 -75.724 Q 285.488 -75.724 284.83 -75.276 Q 284.172 -74.828 283.801 -73.995 Q 283.43 -73.162 283.43 -72 Q 283.43 -70.866 283.787 -70.033 Q 284.144 -69.2 284.795 -68.745 Q 285.446 -68.29 286.328 -68.29 Q 287 -68.29 287.532 -68.563 Q 288.064 -68.836 288.512 -69.312 L 289.156 -68.57 Q 288.596 -67.94 287.896 -67.59 Q 287.196 -67.24 286.286 -67.24 Z " fill="black" /></g></g></g><g><g><g><path d="M 328.04 -67.408 L 328.04 -67.408 L 328.04 -76.606 L 330.392 -76.606 Q 332.562 -76.606 333.696 -75.423 Q 334.83 -74.24 334.83 -72.042 Q 334.83 -69.844 333.703 -68.626 Q 332.576 -67.408 330.448 -67.408 Z M 329.244 -68.388 L 329.244 -68.388 L 330.308 -68.388 Q 331.96 -68.388 332.779 -69.347 Q 333.598 -70.306 333.598 -72.042 Q 333.598 -73.778 332.779 -74.702 Q 331.96 -75.626 330.308 -75.626 L 329.244 -75.626 Z " fill="black" /><path d="M 339.478 -67.24 L 339.478 -67.24 Q 338.47 -67.24 337.637 -67.611 Q 336.804 -67.982 336.188 -68.598 L 336.902 -69.424 Q 337.406 -68.906 338.085 -68.598 Q 338.764 -68.29 339.534 -68.29 Q 340.43 -68.29 340.941 -68.696 Q 341.452 -69.102 341.452 -69.788 Q 341.452 -70.236 341.249 -70.516 Q 341.046 -70.796 340.689 -70.992 Q 340.332 -71.188 339.884 -71.37 L 338.54 -71.944 Q 338.134 -72.126 337.686 -72.413 Q 337.238 -72.7 336.937 -73.155 Q 336.636 -73.61 336.636 -74.282 Q 336.636 -75.01 337.021 -75.57 Q 337.406 -76.13 338.071 -76.445 Q 338.736 -76.76 339.576 -76.76 Q 340.43 -76.76 341.144 -76.445 Q 341.858 -76.13 342.362 -75.626 L 341.732 -74.856 Q 341.284 -75.262 340.759 -75.493 Q 340.234 -75.724 339.604 -75.724 Q 338.806 -75.724 338.33 -75.367 Q 337.854 -75.01 337.854 -74.394 Q 337.854 -73.96 338.085 -73.68 Q 338.316 -73.4 338.673 -73.218 Q 339.03 -73.036 339.408 -72.882 L 340.738 -72.322 Q 341.27 -72.098 341.711 -71.783 Q 342.152 -71.468 342.411 -71.006 Q 342.67 -70.544 342.67 -69.9 Q 342.67 -69.144 342.285 -68.542 Q 341.9 -67.94 341.186 -67.59 Q 340.472 -67.24 339.478 -67.24 Z " fill="black" /><path d="M 344.504 -67.408 L 344.504 -67.408 L 344.504 -76.606 L 347.192 -76.606 Q 348.242 -76.606 349.033 -76.347 Q 349.824 -76.088 350.272 -75.5 Q 350.72 -74.912 350.72 -73.904 Q 350.72 -72.924 350.279 -72.287 Q 349.838 -71.65 349.061 -71.342 Q 348.284 -71.034 347.248 -71.034 L 345.708 -71.034 L 345.708 -67.408 Z M 345.708 -72.014 L 345.708 -72.014 L 347.108 -72.014 Q 348.326 -72.014 348.921 -72.462 Q 349.516 -72.91 349.516 -73.89 Q 349.516 -74.884 348.9 -75.262 Q 348.284 -75.64 347.052 -75.64 L 345.708 -75.64 Z " fill="black" /></g></g></g><g><g><g><path d="M 401.292 -77.558 L 401.292 -77.558 L 400.97 -75.374 L 400.634 -75.374 Q 400.606 -76.186 400.263 -76.662 Q 399.92 -77.138 399.304 -77.138 Q 398.758 -77.138 398.52 -76.844 Q 398.282 -76.55 398.282 -76.242 Q 398.282 -75.948 398.485 -75.675 Q 398.688 -75.402 398.996 -75.115 Q 399.304 -74.828 399.612 -74.492 Q 400.06 -74.016 400.389 -73.561 Q 400.718 -73.106 400.718 -72.434 Q 400.718 -72.028 400.515 -71.629 Q 400.312 -71.23 399.85 -70.964 Q 399.388 -70.698 398.59 -70.698 Q 397.932 -70.698 397.533 -70.859 Q 397.134 -71.02 396.98 -71.076 L 396.938 -71.076 L 396.602 -70.698 L 396.294 -70.698 L 396.658 -73.036 L 397.008 -73.036 Q 397.12 -72.126 397.435 -71.65 Q 397.75 -71.174 398.464 -71.174 Q 398.954 -71.174 399.255 -71.412 Q 399.556 -71.65 399.556 -72.196 Q 399.556 -72.77 399.241 -73.169 Q 398.926 -73.568 398.52 -73.946 Q 398.24 -74.226 397.953 -74.492 Q 397.666 -74.758 397.477 -75.087 Q 397.288 -75.416 397.288 -75.85 Q 397.288 -76.564 397.764 -77.061 Q 398.24 -77.558 399.192 -77.558 Q 399.752 -77.558 400.123 -77.404 Q 400.494 -77.25 400.62 -77.18 L 400.662 -77.18 L 401.026 -77.558 Z " fill="black" /><path d="M 407.529 -72.988 L 407.529 -72.988 Q 407.529 -72.41 407.264 -72.048 Q 407 -71.685 406.593 -71.489 Q 406.186 -71.293 405.755 -71.195 L 405.755 -71.117 Q 405.902 -70.989 406.103 -70.754 Q 406.304 -70.519 406.647 -70.063 Q 406.99 -69.607 407.558 -68.823 Q 407.813 -68.48 408.034 -68.382 Q 408.254 -68.284 408.646 -68.284 L 408.646 -67.912 L 406.872 -67.912 Q 406.431 -68.549 406.132 -68.985 Q 405.834 -69.421 405.633 -69.72 Q 405.432 -70.019 405.28 -70.244 Q 405.128 -70.47 404.971 -70.705 Q 404.814 -70.901 404.716 -70.96 Q 404.618 -71.019 404.422 -71.019 L 404.011 -71.019 L 404.011 -69.274 Q 404.011 -68.843 404.089 -68.632 Q 404.168 -68.422 404.398 -68.353 Q 404.628 -68.284 405.079 -68.284 L 405.079 -67.912 L 402.002 -67.912 L 402.002 -68.284 Q 402.394 -68.284 402.604 -68.348 Q 402.815 -68.412 402.894 -68.627 Q 402.972 -68.843 402.972 -69.274 L 402.972 -73.606 Q 402.972 -73.919 402.908 -74.096 Q 402.845 -74.272 402.639 -74.351 Q 402.433 -74.429 402.002 -74.429 L 402.002 -74.801 L 404.726 -74.801 Q 405.491 -74.801 406.128 -74.65 Q 406.765 -74.498 407.147 -74.106 Q 407.529 -73.714 407.529 -72.988 Z M 404.011 -74.311 L 404.011 -74.311 L 404.011 -71.479 L 404.383 -71.479 Q 405.295 -71.479 405.848 -71.847 Q 406.402 -72.214 406.402 -73.028 Q 406.402 -74.331 404.795 -74.331 Q 404.599 -74.331 404.403 -74.326 Q 404.207 -74.321 404.011 -74.311 Z " fill="black" /><path d="M 415.888 -67.912 L 415.888 -67.912 L 412.88 -67.912 L 412.88 -68.275 L 413.017 -68.275 Q 413.536 -68.275 413.536 -68.539 Q 413.536 -68.706 413.443 -68.892 Q 413.35 -69.078 413.125 -69.402 L 412.478 -70.401 L 412.194 -70.891 L 412.155 -70.891 L 410.949 -69.245 Q 410.851 -69.088 410.709 -68.887 Q 410.567 -68.686 410.567 -68.549 Q 410.567 -68.441 410.68 -68.358 Q 410.792 -68.275 411.224 -68.275 L 411.224 -67.912 L 408.842 -67.912 L 408.842 -68.275 Q 409.126 -68.284 409.317 -68.353 Q 409.509 -68.422 409.7 -68.618 Q 409.891 -68.814 410.175 -69.196 L 411.831 -71.352 L 410.381 -73.439 Q 410.087 -73.87 409.901 -74.081 Q 409.714 -74.292 409.518 -74.36 Q 409.322 -74.429 408.979 -74.429 L 408.979 -74.801 L 411.919 -74.801 L 411.919 -74.429 L 411.812 -74.429 Q 411.537 -74.429 411.439 -74.356 Q 411.341 -74.282 411.341 -74.125 Q 411.341 -74.037 411.395 -73.924 Q 411.449 -73.812 411.537 -73.674 L 412.106 -72.802 L 412.517 -72.087 L 412.566 -72.087 L 413.595 -73.567 Q 413.723 -73.782 413.801 -73.929 Q 413.879 -74.076 413.879 -74.184 Q 413.879 -74.311 413.752 -74.37 Q 413.625 -74.429 413.252 -74.429 L 413.252 -74.801 L 415.761 -74.801 L 415.761 -74.429 Q 415.418 -74.429 415.197 -74.36 Q 414.977 -74.292 414.776 -74.106 Q 414.575 -73.919 414.291 -73.537 L 412.841 -71.656 L 414.791 -68.892 Q 414.977 -68.637 415.124 -68.505 Q 415.271 -68.373 415.447 -68.329 Q 415.624 -68.284 415.888 -68.275 Z " fill="black" /><path d="M 416.908 -66.442 L 416.908 -66.442 L 416.741 -66.765 Q 416.947 -66.854 417.162 -66.996 Q 417.378 -67.138 417.52 -67.398 Q 417.662 -67.657 417.662 -68.079 Q 417.496 -68.01 417.319 -68.01 Q 416.996 -68.01 416.859 -68.201 Q 416.721 -68.392 416.721 -68.637 Q 416.721 -68.902 416.898 -69.098 Q 417.074 -69.294 417.407 -69.294 Q 417.829 -69.294 418.049 -69.034 Q 418.27 -68.774 418.27 -68.314 Q 418.27 -67.843 418.123 -67.515 Q 417.976 -67.187 417.755 -66.976 Q 417.535 -66.765 417.304 -66.643 Q 417.074 -66.52 416.908 -66.442 Z " fill="black" /><path d="M 419.838 -69.343 L 419.838 -69.343 L 419.838 -73.341 Q 419.838 -73.753 419.789 -73.993 Q 419.74 -74.233 419.524 -74.331 Q 419.309 -74.429 418.809 -74.429 L 418.809 -74.801 L 421.896 -74.801 L 421.896 -74.429 Q 421.406 -74.429 421.19 -74.331 Q 420.975 -74.233 420.926 -73.993 Q 420.877 -73.753 420.877 -73.341 L 420.877 -69.343 Q 420.877 -68.912 420.94 -68.681 Q 421.004 -68.451 421.22 -68.368 Q 421.435 -68.284 421.896 -68.284 L 421.896 -67.912 L 418.809 -67.912 L 418.809 -68.284 Q 419.289 -68.284 419.505 -68.353 Q 419.72 -68.422 419.779 -68.652 Q 419.838 -68.882 419.838 -69.343 Z " fill="black" /></g></g></g><g><g><g><path d="M 424.087 126.992 L 424.087 126.992 L 424.087 117.794 L 425.529 117.794 L 427.335 122.694 Q 427.503 123.156 427.664 123.639 Q 427.825 124.122 428.007 124.598 L 428.049 124.598 Q 428.217 124.122 428.378 123.639 Q 428.539 123.156 428.707 122.694 L 430.485 117.794 L 431.927 117.794 L 431.927 126.992 L 430.807 126.992 L 430.807 121.98 Q 430.807 121.364 430.856 120.608 Q 430.905 119.852 430.961 119.25 L 430.905 119.25 L 430.163 121.35 L 428.399 126.068 L 427.601 126.068 L 425.823 121.35 L 425.081 119.25 L 425.025 119.25 Q 425.081 119.852 425.13 120.608 Q 425.179 121.364 425.179 121.98 L 425.179 126.992 Z " fill="black" /><path d="M 437.961 127.16 L 437.961 127.16 Q 436.785 127.16 435.882 126.579 Q 434.979 125.998 434.468 124.92 Q 433.957 123.842 433.957 122.358 Q 433.957 120.888 434.468 119.831 Q 434.979 118.774 435.882 118.207 Q 436.785 117.64 437.961 117.64 Q 439.151 117.64 440.054 118.207 Q 440.957 118.774 441.468 119.831 Q 441.979 120.888 441.979 122.358 Q 441.979 123.828 441.468 124.906 Q 440.957 125.984 440.054 126.572 Q 439.151 127.16 437.961 127.16 Z M 437.961 126.11 L 437.961 126.11 Q 438.801 126.11 439.424 125.648 Q 440.047 125.186 440.39 124.339 Q 440.733 123.492 440.733 122.358 Q 440.733 120.65 439.977 119.663 Q 439.221 118.676 437.961 118.676 Q 436.701 118.676 435.945 119.663 Q 435.189 120.65 435.189 122.358 Q 435.189 123.492 435.532 124.339 Q 435.875 125.186 436.498 125.648 Q 437.121 126.11 437.961 126.11 Z " fill="black" /><path d="M 444.009 126.992 L 444.009 126.992 L 444.009 117.794 L 446.361 117.794 Q 448.531 117.794 449.665 118.977 Q 450.799 120.16 450.799 122.358 Q 450.799 124.556 449.672 125.774 Q 448.545 126.992 446.417 126.992 Z M 445.213 126.012 L 445.213 126.012 L 446.277 126.012 Q 447.929 126.012 448.748 125.053 Q 449.567 124.094 449.567 122.358 Q 449.567 120.622 448.748 119.698 Q 447.929 118.774 446.277 118.774 L 445.213 118.774 Z " fill="black" /><path d="M 452.829 126.992 L 452.829 126.992 L 452.829 117.794 L 458.247 117.794 L 458.247 118.802 L 454.033 118.802 L 454.033 121.672 L 457.589 121.672 L 457.589 122.666 L 454.033 122.666 L 454.033 125.97 L 458.387 125.97 L 458.387 126.992 Z " fill="black" /><path d="M 460.375 126.992 L 460.375 126.992 L 460.375 117.794 L 461.817 117.794 L 463.623 122.694 Q 463.791 123.156 463.952 123.639 Q 464.113 124.122 464.295 124.598 L 464.337 124.598 Q 464.505 124.122 464.666 123.639 Q 464.827 123.156 464.995 122.694 L 466.773 117.794 L 468.215 117.794 L 468.215 126.992 L 467.095 126.992 L 467.095 121.98 Q 467.095 121.364 467.144 120.608 Q 467.193 119.852 467.249 119.25 L 467.193 119.25 L 466.451 121.35 L 464.687 126.068 L 463.889 126.068 L 462.111 121.35 L 461.369 119.25 L 461.313 119.25 Q 461.369 119.852 461.418 120.608 Q 461.467 121.364 461.467 121.98 L 461.467 126.992 Z " fill="black" /></g></g></g><g><g><g><path d="M 264.894 76.592 L 264.894 76.592 L 268.072 67.394 L 269.416 67.394 L 272.594 76.592 L 271.32 76.592 L 270.438 73.806 L 267.008 73.806 L 266.112 76.592 Z M 267.316 72.868 L 267.316 72.868 L 270.144 72.868 L 269.696 71.468 Q 269.43 70.698 269.206 69.935 Q 268.982 69.172 268.744 68.374 L 268.688 68.374 Q 268.464 69.172 268.24 69.935 Q 268.016 70.698 267.764 71.468 Z " fill="black" /><path d="M 273.91 76.592 L 273.91 76.592 L 273.91 67.394 L 276.262 67.394 Q 278.432 67.394 279.566 68.577 Q 280.7 69.76 280.7 71.958 Q 280.7 74.156 279.573 75.374 Q 278.446 76.592 276.318 76.592 Z M 275.114 75.612 L 275.114 75.612 L 276.178 75.612 Q 277.83 75.612 278.649 74.653 Q 279.468 73.694 279.468 71.958 Q 279.468 70.222 278.649 69.298 Q 277.83 68.374 276.178 68.374 L 275.114 68.374 Z " fill="black" /><path d="M 286.286 76.76 L 286.286 76.76 Q 285.124 76.76 284.193 76.193 Q 283.262 75.626 282.73 74.562 Q 282.198 73.498 282.198 72.028 Q 282.198 70.53 282.744 69.459 Q 283.29 68.388 284.221 67.814 Q 285.152 67.24 286.3 67.24 Q 287.28 67.24 287.91 67.597 Q 288.54 67.954 288.932 68.374 L 288.274 69.144 Q 287.462 68.276 286.342 68.276 Q 285.488 68.276 284.83 68.724 Q 284.172 69.172 283.801 70.005 Q 283.43 70.838 283.43 72 Q 283.43 73.134 283.787 73.967 Q 284.144 74.8 284.795 75.255 Q 285.446 75.71 286.328 75.71 Q 287 75.71 287.532 75.437 Q 288.064 75.164 288.512 74.688 L 289.156 75.43 Q 288.596 76.06 287.896 76.41 Q 287.196 76.76 286.286 76.76 Z " fill="black" /></g></g></g><g><g><g><path d="M 328.04 76.592 L 328.04 76.592 L 328.04 67.394 L 330.392 67.394 Q 332.562 67.394 333.696 68.577 Q 334.83 69.76 334.83 71.958 Q 334.83 74.156 333.703 75.374 Q 332.576 76.592 330.448 76.592 Z M 329.244 75.612 L 329.244 75.612 L 330.308 75.612 Q 331.96 75.612 332.779 74.653 Q 333.598 73.694 333.598 71.958 Q 333.598 70.222 332.779 69.298 Q 331.96 68.374 330.308 68.374 L 329.244 68.374 Z " fill="black" /><path d="M 339.478 76.76 L 339.478 76.76 Q 338.47 76.76 337.637 76.389 Q 336.804 76.018 336.188 75.402 L 336.902 74.576 Q 337.406 75.094 338.085 75.402 Q 338.764 75.71 339.534 75.71 Q 340.43 75.71 340.941 75.304 Q 341.452 74.898 341.452 74.212 Q 341.452 73.764 341.249 73.484 Q 341.046 73.204 340.689 73.008 Q 340.332 72.812 339.884 72.63 L 338.54 72.056 Q 338.134 71.874 337.686 71.587 Q 337.238 71.3 336.937 70.845 Q 336.636 70.39 336.636 69.718 Q 336.636 68.99 337.021 68.43 Q 337.406 67.87 338.071 67.555 Q 338.736 67.24 339.576 67.24 Q 340.43 67.24 341.144 67.555 Q 341.858 67.87 342.362 68.374 L 341.732 69.144 Q 341.284 68.738 340.759 68.507 Q 340.234 68.276 339.604 68.276 Q 338.806 68.276 338.33 68.633 Q 337.854 68.99 337.854 69.606 Q 337.854 70.04 338.085 70.32 Q 338.316 70.6 338.673 70.782 Q 339.03 70.964 339.408 71.118 L 340.738 71.678 Q 341.27 71.902 341.711 72.217 Q 342.152 72.532 342.411 72.994 Q 342.67 73.456 342.67 74.1 Q 342.67 74.856 342.285 75.458 Q 341.9 76.06 341.186 76.41 Q 340.472 76.76 339.478 76.76 Z " fill="black" /><path d="M 344.504 76.592 L 344.504 76.592 L 344.504 67.394 L 347.192 67.394 Q 348.242 67.394 349.033 67.653 Q 349.824 67.912 350.272 68.5 Q 350.72 69.088 350.72 70.096 Q 350.72 71.076 350.279 71.713 Q 349.838 72.35 349.061 72.658 Q 348.284 72.966 347.248 72.966 L 345.708 72.966 L 345.708 76.592 Z M 345.708 71.986 L 345.708 71.986 L 347.108 71.986 Q 348.326 71.986 348.921 71.538 Q 349.516 71.09 349.516 70.11 Q 349.516 69.116 348.9 68.738 Q 348.284 68.36 347.052 68.36 L 345.708 68.36 Z " fill="black" /></g></g></g><g><g><g><path d="M 401.292 66.275 L 401.292 66.275 L 400.97 68.459 L 400.634 68.459 Q 400.606 67.647 400.263 67.171 Q 399.92 66.695 399.304 66.695 Q 398.758 66.695 398.52 66.989 Q 398.282 67.283 398.282 67.591 Q 398.282 67.885 398.485 68.158 Q 398.688 68.431 398.996 68.718 Q 399.304 69.005 399.612 69.341 Q 400.06 69.817 400.389 70.272 Q 400.718 70.727 400.718 71.399 Q 400.718 71.805 400.515 72.204 Q 400.312 72.603 399.85 72.869 Q 399.388 73.135 398.59 73.135 Q 397.932 73.135 397.533 72.974 Q 397.134 72.813 396.98 72.757 L 396.938 72.757 L 396.602 73.135 L 396.294 73.135 L 396.658 70.797 L 397.008 70.797 Q 397.12 71.707 397.435 72.183 Q 397.75 72.659 398.464 72.659 Q 398.954 72.659 399.255 72.421 Q 399.556 72.183 399.556 71.637 Q 399.556 71.063 399.241 70.664 Q 398.926 70.265 398.52 69.887 Q 398.24 69.607 397.953 69.341 Q 397.666 69.075 397.477 68.746 Q 397.288 68.417 397.288 67.983 Q 397.288 67.269 397.764 66.772 Q 398.24 66.275 399.192 66.275 Q 399.752 66.275 400.123 66.429 Q 400.494 66.583 400.62 66.653 L 400.662 66.653 L 401.026 66.275 Z " fill="black" /><path d="M 407.529 70.845 L 407.529 70.845 Q 407.529 71.423 407.264 71.786 Q 407 72.148 406.593 72.344 Q 406.186 72.54 405.755 72.638 L 405.755 72.717 Q 405.902 72.844 406.103 73.079 Q 406.304 73.315 406.647 73.77 Q 406.99 74.226 407.558 75.01 Q 407.813 75.353 408.034 75.451 Q 408.254 75.549 408.646 75.549 L 408.646 75.921 L 406.872 75.921 Q 406.431 75.284 406.132 74.848 Q 405.834 74.412 405.633 74.113 Q 405.432 73.814 405.28 73.589 Q 405.128 73.364 404.971 73.128 Q 404.814 72.932 404.716 72.874 Q 404.618 72.815 404.422 72.815 L 404.011 72.815 L 404.011 74.559 Q 404.011 74.99 404.089 75.201 Q 404.168 75.412 404.398 75.48 Q 404.628 75.549 405.079 75.549 L 405.079 75.921 L 402.002 75.921 L 402.002 75.549 Q 402.394 75.549 402.604 75.485 Q 402.815 75.422 402.894 75.206 Q 402.972 74.99 402.972 74.559 L 402.972 70.228 Q 402.972 69.914 402.908 69.738 Q 402.845 69.561 402.639 69.483 Q 402.433 69.404 402.002 69.404 L 402.002 69.032 L 404.726 69.032 Q 405.491 69.032 406.128 69.184 Q 406.765 69.336 407.147 69.728 Q 407.529 70.12 407.529 70.845 Z M 404.011 69.522 L 404.011 69.522 L 404.011 72.354 L 404.383 72.354 Q 405.295 72.354 405.848 71.987 Q 406.402 71.619 406.402 70.806 Q 406.402 69.502 404.795 69.502 Q 404.599 69.502 404.403 69.507 Q 404.207 69.512 404.011 69.522 Z " fill="black" /><path d="M 415.888 75.921 L 415.888 75.921 L 412.88 75.921 L 412.88 75.559 L 413.017 75.559 Q 413.536 75.559 413.536 75.294 Q 413.536 75.128 413.443 74.941 Q 413.35 74.755 413.125 74.432 L 412.478 73.432 L 412.194 72.942 L 412.155 72.942 L 410.949 74.589 Q 410.851 74.745 410.709 74.946 Q 410.567 75.147 410.567 75.284 Q 410.567 75.392 410.68 75.476 Q 410.792 75.559 411.224 75.559 L 411.224 75.921 L 408.842 75.921 L 408.842 75.559 Q 409.126 75.549 409.317 75.48 Q 409.509 75.412 409.7 75.216 Q 409.891 75.02 410.175 74.638 L 411.831 72.482 L 410.381 70.394 Q 410.087 69.963 409.901 69.752 Q 409.714 69.542 409.518 69.473 Q 409.322 69.404 408.979 69.404 L 408.979 69.032 L 411.919 69.032 L 411.919 69.404 L 411.812 69.404 Q 411.537 69.404 411.439 69.478 Q 411.341 69.551 411.341 69.708 Q 411.341 69.796 411.395 69.909 Q 411.449 70.022 411.537 70.159 L 412.106 71.031 L 412.517 71.747 L 412.566 71.747 L 413.595 70.267 Q 413.723 70.051 413.801 69.904 Q 413.879 69.757 413.879 69.649 Q 413.879 69.522 413.752 69.463 Q 413.625 69.404 413.252 69.404 L 413.252 69.032 L 415.761 69.032 L 415.761 69.404 Q 415.418 69.404 415.197 69.473 Q 414.977 69.542 414.776 69.728 Q 414.575 69.914 414.291 70.296 L 412.841 72.178 L 414.791 74.941 Q 414.977 75.196 415.124 75.329 Q 415.271 75.461 415.447 75.505 Q 415.624 75.549 415.888 75.559 Z " fill="black" /><path d="M 416.908 77.391 L 416.908 77.391 L 416.741 77.068 Q 416.947 76.98 417.162 76.838 Q 417.378 76.696 417.52 76.436 Q 417.662 76.176 417.662 75.755 Q 417.496 75.823 417.319 75.823 Q 416.996 75.823 416.859 75.632 Q 416.721 75.441 416.721 75.196 Q 416.721 74.932 416.898 74.736 Q 417.074 74.54 417.407 74.54 Q 417.829 74.54 418.049 74.799 Q 418.27 75.059 418.27 75.52 Q 418.27 75.99 418.123 76.318 Q 417.976 76.647 417.755 76.857 Q 417.535 77.068 417.304 77.191 Q 417.074 77.313 416.908 77.391 Z " fill="black" /><path d="M 425.816 72.511 L 425.816 72.511 Q 425.816 73.854 425.164 74.721 Q 424.512 75.588 423.405 75.882 L 423.405 75.931 Q 423.768 76.441 424.12 76.74 Q 424.473 77.039 424.904 77.166 Q 425.336 77.293 425.943 77.293 L 425.943 77.725 L 425.394 77.725 Q 424.571 77.725 423.993 77.607 Q 423.415 77.489 423.013 77.21 Q 422.611 76.931 422.317 76.451 L 422.053 76.039 Q 421.102 75.97 420.391 75.534 Q 419.681 75.098 419.294 74.319 Q 418.907 73.54 418.907 72.472 Q 418.907 71.404 419.328 70.605 Q 419.75 69.806 420.529 69.36 Q 421.308 68.914 422.356 68.914 Q 423.425 68.914 424.199 69.38 Q 424.973 69.845 425.394 70.654 Q 425.816 71.462 425.816 72.511 Z M 424.571 72.374 L 424.571 72.374 Q 424.571 70.943 423.968 70.179 Q 423.366 69.414 422.347 69.414 Q 421.337 69.414 420.744 70.188 Q 420.151 70.963 420.151 72.403 Q 420.151 73.903 420.69 74.716 Q 421.229 75.529 422.366 75.529 Q 423.503 75.529 424.037 74.741 Q 424.571 73.952 424.571 72.374 Z " fill="black" /></g></g></g><g><g><g><path d="M 104.645 4.508 L 104.645 4.508 Q 103.287 4.508 102.51 3.311 Q 101.733 2.114 101.733 -0.098 Q 101.733 -2.324 102.51 -3.479 Q 103.287 -4.634 104.645 -4.634 Q 106.017 -4.634 106.794 -3.472 Q 107.571 -2.31 107.571 -0.098 Q 107.571 2.114 106.794 3.311 Q 106.017 4.508 104.645 4.508 Z M 104.645 3.556 L 104.645 3.556 Q 105.443 3.556 105.933 2.695 Q 106.423 1.834 106.423 -0.098 Q 106.423 -2.03 105.933 -2.863 Q 105.443 -3.696 104.645 -3.696 Q 103.861 -3.696 103.364 -2.863 Q 102.867 -2.03 102.867 -0.098 Q 102.867 1.834 103.364 2.695 Q 103.861 3.556 104.645 3.556 Z " fill="black" /><path d="M 113.115 -5.586 L 113.115 -5.586 L 109.475 5.586 L 108.691 5.586 L 112.345 -5.586 Z " fill="black" /><path d="M 116.545 4.508 L 116.545 4.508 Q 115.817 4.508 115.264 4.235 Q 114.711 3.962 114.333 3.57 L 114.991 2.842 Q 115.271 3.15 115.67 3.339 Q 116.069 3.528 116.489 3.528 Q 117.133 3.528 117.672 3.178 Q 118.211 2.828 118.547 2.016 Q 118.883 1.204 118.911 -0.182 Q 118.477 0.336 117.903 0.63 Q 117.329 0.924 116.769 0.924 Q 115.579 0.924 114.879 0.238 Q 114.179 -0.448 114.179 -1.806 Q 114.179 -2.66 114.55 -3.29 Q 114.921 -3.92 115.53 -4.277 Q 116.139 -4.634 116.867 -4.634 Q 117.777 -4.634 118.484 -4.165 Q 119.191 -3.696 119.604 -2.758 Q 120.017 -1.82 120.017 -0.392 Q 120.017 1.372 119.527 2.45 Q 119.037 3.528 118.246 4.018 Q 117.455 4.508 116.545 4.508 Z M 118.883 -1.12 L 118.883 -1.12 Q 118.771 -2.394 118.253 -3.059 Q 117.735 -3.724 116.867 -3.724 Q 116.209 -3.724 115.747 -3.199 Q 115.285 -2.674 115.285 -1.806 Q 115.285 -0.952 115.705 -0.448 Q 116.125 0.056 116.965 0.056 Q 117.399 0.056 117.91 -0.217 Q 118.421 -0.49 118.883 -1.12 Z " fill="black" /><path d="M 124.273 4.508 L 124.273 4.508 Q 122.915 4.508 122.138 3.311 Q 121.361 2.114 121.361 -0.098 Q 121.361 -2.324 122.138 -3.479 Q 122.915 -4.634 124.273 -4.634 Q 125.645 -4.634 126.422 -3.472 Q 127.199 -2.31 127.199 -0.098 Q 127.199 2.114 126.422 3.311 Q 125.645 4.508 124.273 4.508 Z M 124.273 3.556 L 124.273 3.556 Q 125.071 3.556 125.561 2.695 Q 126.051 1.834 126.051 -0.098 Q 126.051 -2.03 125.561 -2.863 Q 125.071 -3.696 124.273 -3.696 Q 123.489 -3.696 122.992 -2.863 Q 122.495 -2.03 122.495 -0.098 Q 122.495 1.834 122.992 2.695 Q 123.489 3.556 124.273 3.556 Z " fill="black" /><path d="M 132.827 -3.29 L 132.827 -3.29 Q 132.827 -2.31 132.225 -1.736 Q 131.623 -1.162 130.685 -1.162 Q 129.747 -1.162 129.152 -1.736 Q 128.557 -2.31 128.557 -3.29 Q 128.557 -4.284 129.166 -4.858 Q 129.775 -5.432 130.685 -5.432 Q 131.259 -5.432 131.749 -5.173 Q 132.239 -4.914 132.533 -4.438 Q 132.827 -3.962 132.827 -3.29 Z M 132.057 -3.29 L 132.057 -3.29 Q 132.057 -4.004 131.665 -4.389 Q 131.273 -4.774 130.685 -4.774 Q 130.125 -4.774 129.726 -4.382 Q 129.327 -3.99 129.327 -3.29 Q 129.327 -2.59 129.712 -2.205 Q 130.097 -1.82 130.685 -1.82 Q 131.273 -1.82 131.665 -2.198 Q 132.057 -2.576 132.057 -3.29 Z " fill="black" /></g></g></g><g><g><g><path d="M 215.914 4.599 L 215.914 4.599 L 215.914 -4.599 L 218.602 -4.599 Q 219.652 -4.599 220.443 -4.34 Q 221.234 -4.081 221.682 -3.493 Q 222.13 -2.905 222.13 -1.897 Q 222.13 -0.917 221.689 -0.28 Q 221.248 0.357 220.471 0.665 Q 219.694 0.973 218.658 0.973 L 217.118 0.973 L 217.118 4.599 Z M 217.118 -0.007 L 217.118 -0.007 L 218.518 -0.007 Q 219.736 -0.007 220.331 -0.455 Q 220.926 -0.903 220.926 -1.883 Q 220.926 -2.877 220.31 -3.255 Q 219.694 -3.633 218.462 -3.633 L 217.118 -3.633 Z " fill="black" /><path d="M 224.034 4.599 L 224.034 4.599 L 224.034 -4.599 L 225.238 -4.599 L 225.238 3.577 L 229.34 3.577 L 229.34 4.599 Z " fill="black" /><path d="M 230.992 4.599 L 230.992 4.599 L 230.992 -4.599 L 232.196 -4.599 L 232.196 3.577 L 236.298 3.577 L 236.298 4.599 Z " fill="black" /></g></g></g><g><g><g><path d="M -17.579 247.177 L -17.579 247.177 L -17.901 249.361 L -18.237 249.361 Q -18.265 248.549 -18.608 248.073 Q -18.951 247.597 -19.567 247.597 Q -20.113 247.597 -20.351 247.891 Q -20.589 248.185 -20.589 248.493 Q -20.589 248.787 -20.386 249.06 Q -20.183 249.333 -19.875 249.62 Q -19.567 249.907 -19.259 250.243 Q -18.811 250.719 -18.482 251.174 Q -18.153 251.629 -18.153 252.301 Q -18.153 252.707 -18.356 253.106 Q -18.559 253.505 -19.021 253.771 Q -19.483 254.037 -20.281 254.037 Q -20.939 254.037 -21.338 253.876 Q -21.737 253.715 -21.891 253.659 L -21.933 253.659 L -22.269 254.037 L -22.577 254.037 L -22.213 251.699 L -21.863 251.699 Q -21.751 252.609 -21.436 253.085 Q -21.121 253.561 -20.407 253.561 Q -19.917 253.561 -19.616 253.323 Q -19.315 253.085 -19.315 252.539 Q -19.315 251.965 -19.63 251.566 Q -19.945 251.167 -20.351 250.789 Q -20.631 250.509 -20.918 250.243 Q -21.205 249.977 -21.394 249.648 Q -21.583 249.319 -21.583 248.885 Q -21.583 248.171 -21.107 247.674 Q -20.631 247.177 -19.679 247.177 Q -19.119 247.177 -18.748 247.331 Q -18.377 247.485 -18.251 247.555 L -18.209 247.555 L -17.845 247.177 Z " fill="black" /><path d="M -11.028 251.874 L -11.028 251.874 L -11.411 251.874 Q -11.499 251.443 -11.587 251.164 Q -11.675 250.884 -11.812 250.727 Q -11.95 250.571 -12.199 250.502 Q -12.449 250.433 -12.871 250.433 L -13.557 250.433 L -13.557 255.382 Q -13.557 255.853 -13.483 256.078 Q -13.41 256.304 -13.189 256.377 Q -12.969 256.451 -12.528 256.451 L -12.528 256.823 L -15.634 256.823 L -15.634 256.451 Q -15.184 256.451 -14.973 256.377 Q -14.762 256.304 -14.694 256.078 Q -14.625 255.853 -14.625 255.382 L -14.625 250.433 L -15.311 250.433 Q -15.87 250.433 -16.139 250.556 Q -16.409 250.678 -16.531 250.992 Q -16.654 251.306 -16.771 251.874 L -17.163 251.874 L -17.046 249.934 L -11.126 249.934 Z " fill="black" /><path d="M -3.492 256.823 L -3.492 256.823 L -6.501 256.823 L -6.501 256.46 L -6.364 256.46 Q -5.844 256.46 -5.844 256.196 Q -5.844 256.029 -5.937 255.843 Q -6.03 255.657 -6.256 255.333 L -6.903 254.334 L -7.187 253.844 L -7.226 253.844 L -8.431 255.49 Q -8.529 255.647 -8.671 255.848 Q -8.814 256.049 -8.814 256.186 Q -8.814 256.294 -8.701 256.377 Q -8.588 256.46 -8.157 256.46 L -8.157 256.823 L -10.538 256.823 L -10.538 256.46 Q -10.254 256.451 -10.063 256.382 Q -9.872 256.313 -9.681 256.117 Q -9.49 255.921 -9.206 255.539 L -7.549 253.383 L -9 251.296 Q -9.294 250.865 -9.48 250.654 Q -9.666 250.443 -9.862 250.375 Q -10.058 250.306 -10.401 250.306 L -10.401 249.934 L -7.461 249.934 L -7.461 250.306 L -7.569 250.306 Q -7.843 250.306 -7.941 250.38 Q -8.039 250.453 -8.039 250.61 Q -8.039 250.698 -7.985 250.811 Q -7.932 250.923 -7.843 251.061 L -7.275 251.933 L -6.863 252.648 L -6.814 252.648 L -5.785 251.168 Q -5.658 250.953 -5.58 250.806 Q -5.501 250.659 -5.501 250.551 Q -5.501 250.424 -5.629 250.365 Q -5.756 250.306 -6.128 250.306 L -6.128 249.934 L -3.62 249.934 L -3.62 250.306 Q -3.963 250.306 -4.183 250.375 Q -4.404 250.443 -4.604 250.629 Q -4.805 250.816 -5.09 251.198 L -6.54 253.079 L -4.59 255.843 Q -4.404 256.098 -4.257 256.23 Q -4.11 256.362 -3.933 256.407 Q -3.757 256.451 -3.492 256.46 Z " fill="black" /></g></g></g><circle cx="81.0" cy="252.0" r="2.6999999999999997" style="stroke:black;fill:black;stroke-width:2.0;stroke-dasharray:-;" /><g><g><g><path d="M 266.742 184.592 L 266.742 184.592 L 266.742 175.394 L 269.094 175.394 Q 271.264 175.394 272.398 176.577 Q 273.532 177.76 273.532 179.958 Q 273.532 182.156 272.405 183.374 Q 271.278 184.592 269.15 184.592 Z M 267.946 183.612 L 267.946 183.612 L 269.01 183.612 Q 270.662 183.612 271.481 182.653 Q 272.3 181.694 272.3 179.958 Q 272.3 178.222 271.481 177.298 Q 270.662 176.374 269.01 176.374 L 267.946 176.374 Z " fill="black" /><path d="M 274.33 184.592 L 274.33 184.592 L 277.508 175.394 L 278.852 175.394 L 282.03 184.592 L 280.756 184.592 L 279.874 181.806 L 276.444 181.806 L 275.548 184.592 Z M 276.752 180.868 L 276.752 180.868 L 279.58 180.868 L 279.132 179.468 Q 278.866 178.698 278.642 177.935 Q 278.418 177.172 278.18 176.374 L 278.124 176.374 Q 277.9 177.172 277.676 177.935 Q 277.452 178.698 277.2 179.468 Z " fill="black" /><path d="M 286.902 184.76 L 286.902 184.76 Q 285.74 184.76 284.809 184.193 Q 283.878 183.626 283.346 182.562 Q 282.814 181.498 282.814 180.028 Q 282.814 178.53 283.36 177.459 Q 283.906 176.388 284.837 175.814 Q 285.768 175.24 286.916 175.24 Q 287.896 175.24 288.526 175.597 Q 289.156 175.954 289.548 176.374 L 288.89 177.144 Q 288.078 176.276 286.958 176.276 Q 286.104 176.276 285.446 176.724 Q 284.788 177.172 284.417 178.005 Q 284.046 178.838 284.046 180 Q 284.046 181.134 284.403 181.967 Q 284.76 182.8 285.411 183.255 Q 286.062 183.71 286.944 183.71 Q 287.616 183.71 288.148 183.437 Q 288.68 183.164 289.128 182.688 L 289.772 183.43 Q 289.212 184.06 288.512 184.41 Q 287.812 184.76 286.902 184.76 Z " fill="black" /></g></g></g><g><g><g><path d="M 328.04 184.592 L 328.04 184.592 L 328.04 175.394 L 330.392 175.394 Q 332.562 175.394 333.696 176.577 Q 334.83 177.76 334.83 179.958 Q 334.83 182.156 333.703 183.374 Q 332.576 184.592 330.448 184.592 Z M 329.244 183.612 L 329.244 183.612 L 330.308 183.612 Q 331.96 183.612 332.779 182.653 Q 333.598 181.694 333.598 179.958 Q 333.598 178.222 332.779 177.298 Q 331.96 176.374 330.308 176.374 L 329.244 176.374 Z " fill="black" /><path d="M 339.478 184.76 L 339.478 184.76 Q 338.47 184.76 337.637 184.389 Q 336.804 184.018 336.188 183.402 L 336.902 182.576 Q 337.406 183.094 338.085 183.402 Q 338.764 183.71 339.534 183.71 Q 340.43 183.71 340.941 183.304 Q 341.452 182.898 341.452 182.212 Q 341.452 181.764 341.249 181.484 Q 341.046 181.204 340.689 181.008 Q 340.332 180.812 339.884 180.63 L 338.54 180.056 Q 338.134 179.874 337.686 179.587 Q 337.238 179.3 336.937 178.845 Q 336.636 178.39 336.636 177.718 Q 336.636 176.99 337.021 176.43 Q 337.406 175.87 338.071 175.555 Q 338.736 175.24 339.576 175.24 Q 340.43 175.24 341.144 175.555 Q 341.858 175.87 342.362 176.374 L 341.732 177.144 Q 341.284 176.738 340.759 176.507 Q 340.234 176.276 339.604 176.276 Q 338.806 176.276 338.33 176.633 Q 337.854 176.99 337.854 177.606 Q 337.854 178.04 338.085 178.32 Q 338.316 178.6 338.673 178.782 Q 339.03 178.964 339.408 179.118 L 340.738 179.678 Q 341.27 179.902 341.711 180.217 Q 342.152 180.532 342.411 180.994 Q 342.67 181.456 342.67 182.1 Q 342.67 182.856 342.285 183.458 Q 341.9 184.06 341.186 184.41 Q 340.472 184.76 339.478 184.76 Z " fill="black" /><path d="M 344.504 184.592 L 344.504 184.592 L 344.504 175.394 L 347.192 175.394 Q 348.242 175.394 349.033 175.653 Q 349.824 175.912 350.272 176.5 Q 350.72 177.088 350.72 178.096 Q 350.72 179.076 350.279 179.713 Q 349.838 180.35 349.061 180.658 Q 348.284 180.966 347.248 180.966 L 345.708 180.966 L 345.708 184.592 Z M 345.708 179.986 L 345.708 179.986 L 347.108 179.986 Q 348.326 179.986 348.921 179.538 Q 349.516 179.09 349.516 178.11 Q 349.516 177.116 348.9 176.738 Q 348.284 176.36 347.052 176.36 L 345.708 176.36 Z " fill="black" /></g></g></g><g><g><g><path d="M 401.292 174.442 L 401.292 174.442 L 400.97 176.626 L 400.634 176.626 Q 400.606 175.814 400.263 175.338 Q 399.92 174.862 399.304 174.862 Q 398.758 174.862 398.52 175.156 Q 398.282 175.45 398.282 175.758 Q 398.282 176.052 398.485 176.325 Q 398.688 176.598 398.996 176.885 Q 399.304 177.172 399.612 177.508 Q 400.06 177.984 400.389 178.439 Q 400.718 178.894 400.718 179.566 Q 400.718 179.972 400.515 180.371 Q 400.312 180.77 399.85 181.036 Q 399.388 181.302 398.59 181.302 Q 397.932 181.302 397.533 181.141 Q 397.134 180.98 396.98 180.924 L 396.938 180.924 L 396.602 181.302 L 396.294 181.302 L 396.658 178.964 L 397.008 178.964 Q 397.12 179.874 397.435 180.35 Q 397.75 180.826 398.464 180.826 Q 398.954 180.826 399.255 180.588 Q 399.556 180.35 399.556 179.804 Q 399.556 179.23 399.241 178.831 Q 398.926 178.432 398.52 178.054 Q 398.24 177.774 397.953 177.508 Q 397.666 177.242 397.477 176.913 Q 397.288 176.584 397.288 176.15 Q 397.288 175.436 397.764 174.939 Q 398.24 174.442 399.192 174.442 Q 399.752 174.442 400.123 174.596 Q 400.494 174.75 400.62 174.82 L 400.662 174.82 L 401.026 174.442 Z " fill="black" /><path d="M 407.843 179.139 L 407.843 179.139 L 407.46 179.139 Q 407.372 178.708 407.284 178.428 Q 407.196 178.149 407.059 177.992 Q 406.921 177.836 406.671 177.767 Q 406.422 177.698 406 177.698 L 405.314 177.698 L 405.314 182.647 Q 405.314 183.118 405.388 183.343 Q 405.461 183.569 405.682 183.642 Q 405.902 183.716 406.343 183.716 L 406.343 184.088 L 403.237 184.088 L 403.237 183.716 Q 403.687 183.716 403.898 183.642 Q 404.109 183.569 404.177 183.343 Q 404.246 183.118 404.246 182.647 L 404.246 177.698 L 403.56 177.698 Q 403.001 177.698 402.732 177.821 Q 402.462 177.943 402.34 178.257 Q 402.217 178.571 402.1 179.139 L 401.708 179.139 L 401.825 177.199 L 407.745 177.199 Z " fill="black" /><path d="M 415.379 184.088 L 415.379 184.088 L 412.37 184.088 L 412.37 183.725 L 412.507 183.725 Q 413.027 183.725 413.027 183.461 Q 413.027 183.294 412.934 183.108 Q 412.841 182.922 412.615 182.598 L 411.968 181.599 L 411.684 181.109 L 411.645 181.109 L 410.44 182.755 Q 410.342 182.912 410.2 183.113 Q 410.057 183.314 410.057 183.451 Q 410.057 183.559 410.17 183.642 Q 410.283 183.725 410.714 183.725 L 410.714 184.088 L 408.333 184.088 L 408.333 183.725 Q 408.617 183.716 408.808 183.647 Q 408.999 183.578 409.19 183.382 Q 409.381 183.186 409.665 182.804 L 411.322 180.648 L 409.871 178.561 Q 409.577 178.13 409.391 177.919 Q 409.205 177.708 409.009 177.64 Q 408.813 177.571 408.47 177.571 L 408.47 177.199 L 411.41 177.199 L 411.41 177.571 L 411.302 177.571 Q 411.028 177.571 410.93 177.644 Q 410.832 177.718 410.832 177.875 Q 410.832 177.963 410.886 178.076 Q 410.939 178.188 411.028 178.326 L 411.596 179.198 L 412.008 179.913 L 412.057 179.913 L 413.086 178.433 Q 413.213 178.218 413.291 178.071 Q 413.37 177.924 413.37 177.816 Q 413.37 177.689 413.242 177.63 Q 413.115 177.571 412.743 177.571 L 412.743 177.199 L 415.251 177.199 L 415.251 177.571 Q 414.908 177.571 414.688 177.64 Q 414.467 177.708 414.267 177.894 Q 414.066 178.081 413.781 178.463 L 412.331 180.344 L 414.281 183.108 Q 414.467 183.363 414.614 183.495 Q 414.761 183.627 414.938 183.671 Q 415.114 183.716 415.379 183.725 Z " fill="black" /><path d="M 416.398 185.558 L 416.398 185.558 L 416.231 185.235 Q 416.437 185.146 416.653 185.004 Q 416.868 184.862 417.01 184.602 Q 417.153 184.343 417.153 183.921 Q 416.986 183.99 416.81 183.99 Q 416.486 183.99 416.349 183.799 Q 416.212 183.608 416.212 183.363 Q 416.212 183.098 416.388 182.902 Q 416.565 182.706 416.898 182.706 Q 417.319 182.706 417.54 182.966 Q 417.76 183.226 417.76 183.686 Q 417.76 184.157 417.613 184.485 Q 417.466 184.813 417.246 185.024 Q 417.025 185.235 416.795 185.357 Q 416.565 185.48 416.398 185.558 Z " fill="black" /><path d="M 419.328 182.657 L 419.328 182.657 L 419.328 178.659 Q 419.328 178.247 419.279 178.007 Q 419.23 177.767 419.015 177.669 Q 418.799 177.571 418.299 177.571 L 418.299 177.199 L 421.386 177.199 L 421.386 177.571 Q 420.896 177.571 420.681 177.669 Q 420.465 177.767 420.416 178.007 Q 420.367 178.247 420.367 178.659 L 420.367 182.657 Q 420.367 183.088 420.431 183.319 Q 420.494 183.549 420.71 183.632 Q 420.926 183.716 421.386 183.716 L 421.386 184.088 L 418.299 184.088 L 418.299 183.716 Q 418.779 183.716 418.995 183.647 Q 419.211 183.578 419.269 183.348 Q 419.328 183.118 419.328 182.657 Z " fill="black" /></g></g></g><g><g><g><path d="M 266.742 328.592 L 266.742 328.592 L 266.742 319.394 L 269.094 319.394 Q 271.264 319.394 272.398 320.577 Q 273.532 321.76 273.532 323.958 Q 273.532 326.156 272.405 327.374 Q 271.278 328.592 269.15 328.592 Z M 267.946 327.612 L 267.946 327.612 L 269.01 327.612 Q 270.662 327.612 271.481 326.653 Q 272.3 325.694 272.3 323.958 Q 272.3 322.222 271.481 321.298 Q 270.662 320.374 269.01 320.374 L 267.946 320.374 Z " fill="black" /><path d="M 274.33 328.592 L 274.33 328.592 L 277.508 319.394 L 278.852 319.394 L 282.03 328.592 L 280.756 328.592 L 279.874 325.806 L 276.444 325.806 L 275.548 328.592 Z M 276.752 324.868 L 276.752 324.868 L 279.58 324.868 L 279.132 323.468 Q 278.866 322.698 278.642 321.935 Q 278.418 321.172 278.18 320.374 L 278.124 320.374 Q 277.9 321.172 277.676 321.935 Q 277.452 322.698 277.2 323.468 Z " fill="black" /><path d="M 286.902 328.76 L 286.902 328.76 Q 285.74 328.76 284.809 328.193 Q 283.878 327.626 283.346 326.562 Q 282.814 325.498 282.814 324.028 Q 282.814 322.53 283.36 321.459 Q 283.906 320.388 284.837 319.814 Q 285.768 319.24 286.916 319.24 Q 287.896 319.24 288.526 319.597 Q 289.156 319.954 289.548 320.374 L 288.89 321.144 Q 288.078 320.276 286.958 320.276 Q 286.104 320.276 285.446 320.724 Q 284.788 321.172 284.417 322.005 Q 284.046 322.838 284.046 324 Q 284.046 325.134 284.403 325.967 Q 284.76 326.8 285.411 327.255 Q 286.062 327.71 286.944 327.71 Q 287.616 327.71 288.148 327.437 Q 288.68 327.164 289.128 326.688 L 289.772 327.43 Q 289.212 328.06 288.512 328.41 Q 287.812 328.76 286.902 328.76 Z " fill="black" /></g></g></g><g><g><g><path d="M 328.04 328.592 L 328.04 328.592 L 328.04 319.394 L 330.392 319.394 Q 332.562 319.394 333.696 320.577 Q 334.83 321.76 334.83 323.958 Q 334.83 326.156 333.703 327.374 Q 332.576 328.592 330.448 328.592 Z M 329.244 327.612 L 329.244 327.612 L 330.308 327.612 Q 331.96 327.612 332.779 326.653 Q 333.598 325.694 333.598 323.958 Q 333.598 322.222 332.779 321.298 Q 331.96 320.374 330.308 320.374 L 329.244 320.374 Z " fill="black" /><path d="M 339.478 328.76 L 339.478 328.76 Q 338.47 328.76 337.637 328.389 Q 336.804 328.018 336.188 327.402 L 336.902 326.576 Q 337.406 327.094 338.085 327.402 Q 338.764 327.71 339.534 327.71 Q 340.43 327.71 340.941 327.304 Q 341.452 326.898 341.452 326.212 Q 341.452 325.764 341.249 325.484 Q 341.046 325.204 340.689 325.008 Q 340.332 324.812 339.884 324.63 L 338.54 324.056 Q 338.134 323.874 337.686 323.587 Q 337.238 323.3 336.937 322.845 Q 336.636 322.39 336.636 321.718 Q 336.636 320.99 337.021 320.43 Q 337.406 319.87 338.071 319.555 Q 338.736 319.24 339.576 319.24 Q 340.43 319.24 341.144 319.555 Q 341.858 319.87 342.362 320.374 L 341.732 321.144 Q 341.284 320.738 340.759 320.507 Q 340.234 320.276 339.604 320.276 Q 338.806 320.276 338.33 320.633 Q 337.854 320.99 337.854 321.606 Q 337.854 322.04 338.085 322.32 Q 338.316 322.6 338.673 322.782 Q 339.03 322.964 339.408 323.118 L 340.738 323.678 Q 341.27 323.902 341.711 324.217 Q 342.152 324.532 342.411 324.994 Q 342.67 325.456 342.67 326.1 Q 342.67 326.856 342.285 327.458 Q 341.9 328.06 341.186 328.41 Q 340.472 328.76 339.478 328.76 Z " fill="black" /><path d="M 344.504 328.592 L 344.504 328.592 L 344.504 319.394 L 347.192 319.394 Q 348.242 319.394 349.033 319.653 Q 349.824 319.912 350.272 320.5 Q 350.72 321.088 350.72 322.096 Q 350.72 323.076 350.279 323.713 Q 349.838 324.35 349.061 324.658 Q 348.284 324.966 347.248 324.966 L 345.708 324.966 L 345.708 328.592 Z M 345.708 323.986 L 345.708 323.986 L 347.108 323.986 Q 348.326 323.986 348.921 323.538 Q 349.516 323.09 349.516 322.11 Q 349.516 321.116 348.9 320.738 Q 348.284 320.36 347.052 320.36 L 345.708 320.36 Z " fill="black" /></g></g></g><g><g><g><path d="M 401.292 318.275 L 401.292 318.275 L 400.97 320.459 L 400.634 320.459 Q 400.606 319.647 400.263 319.171 Q 399.92 318.695 399.304 318.695 Q 398.758 318.695 398.52 318.989 Q 398.282 319.283 398.282 319.591 Q 398.282 319.885 398.485 320.158 Q 398.688 320.431 398.996 320.718 Q 399.304 321.005 399.612 321.341 Q 400.06 321.817 400.389 322.272 Q 400.718 322.727 400.718 323.399 Q 400.718 323.805 400.515 324.204 Q 400.312 324.603 399.85 324.869 Q 399.388 325.135 398.59 325.135 Q 397.932 325.135 397.533 324.974 Q 397.134 324.813 396.98 324.757 L 396.938 324.757 L 396.602 325.135 L 396.294 325.135 L 396.658 322.797 L 397.008 322.797 Q 397.12 323.707 397.435 324.183 Q 397.75 324.659 398.464 324.659 Q 398.954 324.659 399.255 324.421 Q 399.556 324.183 399.556 323.637 Q 399.556 323.063 399.241 322.664 Q 398.926 322.265 398.52 321.887 Q 398.24 321.607 397.953 321.341 Q 397.666 321.075 397.477 320.746 Q 397.288 320.417 397.288 319.983 Q 397.288 319.269 397.764 318.772 Q 398.24 318.275 399.192 318.275 Q 399.752 318.275 400.123 318.429 Q 400.494 318.583 400.62 318.653 L 400.662 318.653 L 401.026 318.275 Z " fill="black" /><path d="M 407.843 322.972 L 407.843 322.972 L 407.46 322.972 Q 407.372 322.541 407.284 322.262 Q 407.196 321.983 407.059 321.826 Q 406.921 321.669 406.671 321.6 Q 406.422 321.532 406 321.532 L 405.314 321.532 L 405.314 326.481 Q 405.314 326.951 405.388 327.177 Q 405.461 327.402 405.682 327.476 Q 405.902 327.549 406.343 327.549 L 406.343 327.921 L 403.237 327.921 L 403.237 327.549 Q 403.687 327.549 403.898 327.476 Q 404.109 327.402 404.177 327.177 Q 404.246 326.951 404.246 326.481 L 404.246 321.532 L 403.56 321.532 Q 403.001 321.532 402.732 321.654 Q 402.462 321.777 402.34 322.09 Q 402.217 322.404 402.1 322.972 L 401.708 322.972 L 401.825 321.032 L 407.745 321.032 Z " fill="black" /><path d="M 415.379 327.921 L 415.379 327.921 L 412.37 327.921 L 412.37 327.559 L 412.507 327.559 Q 413.027 327.559 413.027 327.294 Q 413.027 327.128 412.934 326.941 Q 412.841 326.755 412.615 326.432 L 411.968 325.432 L 411.684 324.942 L 411.645 324.942 L 410.44 326.589 Q 410.342 326.745 410.2 326.946 Q 410.057 327.147 410.057 327.284 Q 410.057 327.392 410.17 327.476 Q 410.283 327.559 410.714 327.559 L 410.714 327.921 L 408.333 327.921 L 408.333 327.559 Q 408.617 327.549 408.808 327.48 Q 408.999 327.412 409.19 327.216 Q 409.381 327.02 409.665 326.638 L 411.322 324.482 L 409.871 322.394 Q 409.577 321.963 409.391 321.752 Q 409.205 321.542 409.009 321.473 Q 408.813 321.404 408.47 321.404 L 408.47 321.032 L 411.41 321.032 L 411.41 321.404 L 411.302 321.404 Q 411.028 321.404 410.93 321.478 Q 410.832 321.551 410.832 321.708 Q 410.832 321.796 410.886 321.909 Q 410.939 322.022 411.028 322.159 L 411.596 323.031 L 412.008 323.747 L 412.057 323.747 L 413.086 322.267 Q 413.213 322.051 413.291 321.904 Q 413.37 321.757 413.37 321.649 Q 413.37 321.522 413.242 321.463 Q 413.115 321.404 412.743 321.404 L 412.743 321.032 L 415.251 321.032 L 415.251 321.404 Q 414.908 321.404 414.688 321.473 Q 414.467 321.542 414.267 321.728 Q 414.066 321.914 413.781 322.296 L 412.331 324.178 L 414.281 326.941 Q 414.467 327.196 414.614 327.329 Q 414.761 327.461 414.938 327.505 Q 415.114 327.549 415.379 327.559 Z " fill="black" /><path d="M 416.398 329.391 L 416.398 329.391 L 416.231 329.068 Q 416.437 328.98 416.653 328.838 Q 416.868 328.696 417.01 328.436 Q 417.153 328.176 417.153 327.755 Q 416.986 327.823 416.81 327.823 Q 416.486 327.823 416.349 327.632 Q 416.212 327.441 416.212 327.196 Q 416.212 326.932 416.388 326.736 Q 416.565 326.54 416.898 326.54 Q 417.319 326.54 417.54 326.799 Q 417.76 327.059 417.76 327.52 Q 417.76 327.99 417.613 328.318 Q 417.466 328.647 417.246 328.857 Q 417.025 329.068 416.795 329.19 Q 416.565 329.313 416.398 329.391 Z " fill="black" /><path d="M 425.306 324.511 L 425.306 324.511 Q 425.306 325.854 424.654 326.721 Q 424.003 327.588 422.895 327.882 L 422.895 327.931 Q 423.258 328.441 423.611 328.74 Q 423.964 329.039 424.395 329.166 Q 424.826 329.293 425.434 329.293 L 425.434 329.725 L 424.885 329.725 Q 424.062 329.725 423.483 329.607 Q 422.905 329.489 422.503 329.21 Q 422.102 328.931 421.808 328.451 L 421.543 328.039 Q 420.592 327.97 419.882 327.534 Q 419.171 327.098 418.784 326.319 Q 418.397 325.54 418.397 324.472 Q 418.397 323.404 418.819 322.605 Q 419.24 321.806 420.019 321.36 Q 420.798 320.914 421.847 320.914 Q 422.915 320.914 423.689 321.38 Q 424.463 321.845 424.885 322.654 Q 425.306 323.462 425.306 324.511 Z M 424.062 324.374 L 424.062 324.374 Q 424.062 322.943 423.459 322.179 Q 422.856 321.414 421.837 321.414 Q 420.828 321.414 420.235 322.188 Q 419.642 322.963 419.642 324.403 Q 419.642 325.903 420.181 326.716 Q 420.72 327.529 421.857 327.529 Q 422.993 327.529 423.527 326.74 Q 424.062 325.952 424.062 324.374 Z " fill="black" /></g></g></g><g><g><g><path d="M 104.645 256.508 L 104.645 256.508 Q 103.287 256.508 102.51 255.311 Q 101.733 254.114 101.733 251.902 Q 101.733 249.676 102.51 248.521 Q 103.287 247.366 104.645 247.366 Q 106.017 247.366 106.794 248.528 Q 107.571 249.69 107.571 251.902 Q 107.571 254.114 106.794 255.311 Q 106.017 256.508 104.645 256.508 Z M 104.645 255.556 L 104.645 255.556 Q 105.443 255.556 105.933 254.695 Q 106.423 253.834 106.423 251.902 Q 106.423 249.97 105.933 249.137 Q 105.443 248.304 104.645 248.304 Q 103.861 248.304 103.364 249.137 Q 102.867 249.97 102.867 251.902 Q 102.867 253.834 103.364 254.695 Q 103.861 255.556 104.645 255.556 Z " fill="black" /><path d="M 113.115 246.414 L 113.115 246.414 L 109.475 257.586 L 108.691 257.586 L 112.345 246.414 Z " fill="black" /><path d="M 116.545 256.508 L 116.545 256.508 Q 115.817 256.508 115.264 256.235 Q 114.711 255.962 114.333 255.57 L 114.991 254.842 Q 115.271 255.15 115.67 255.339 Q 116.069 255.528 116.489 255.528 Q 117.133 255.528 117.672 255.178 Q 118.211 254.828 118.547 254.016 Q 118.883 253.204 118.911 251.818 Q 118.477 252.336 117.903 252.63 Q 117.329 252.924 116.769 252.924 Q 115.579 252.924 114.879 252.238 Q 114.179 251.552 114.179 250.194 Q 114.179 249.34 114.55 248.71 Q 114.921 248.08 115.53 247.723 Q 116.139 247.366 116.867 247.366 Q 117.777 247.366 118.484 247.835 Q 119.191 248.304 119.604 249.242 Q 120.017 250.18 120.017 251.608 Q 120.017 253.372 119.527 254.45 Q 119.037 255.528 118.246 256.018 Q 117.455 256.508 116.545 256.508 Z M 118.883 250.88 L 118.883 250.88 Q 118.771 249.606 118.253 248.941 Q 117.735 248.276 116.867 248.276 Q 116.209 248.276 115.747 248.801 Q 115.285 249.326 115.285 250.194 Q 115.285 251.048 115.705 251.552 Q 116.125 252.056 116.965 252.056 Q 117.399 252.056 117.91 251.783 Q 118.421 251.51 118.883 250.88 Z " fill="black" /><path d="M 124.273 256.508 L 124.273 256.508 Q 122.915 256.508 122.138 255.311 Q 121.361 254.114 121.361 251.902 Q 121.361 249.676 122.138 248.521 Q 122.915 247.366 124.273 247.366 Q 125.645 247.366 126.422 248.528 Q 127.199 249.69 127.199 251.902 Q 127.199 254.114 126.422 255.311 Q 125.645 256.508 124.273 256.508 Z M 124.273 255.556 L 124.273 255.556 Q 125.071 255.556 125.561 254.695 Q 126.051 253.834 126.051 251.902 Q 126.051 249.97 125.561 249.137 Q 125.071 248.304 124.273 248.304 Q 123.489 248.304 122.992 249.137 Q 122.495 249.97 122.495 251.902 Q 122.495 253.834 122.992 254.695 Q 123.489 255.556 124.273 255.556 Z " fill="black" /><path d="M 132.827 248.71 L 132.827 248.71 Q 132.827 249.69 132.225 250.264 Q 131.623 250.838 130.685 250.838 Q 129.747 250.838 129.152 250.264 Q 128.557 249.69 128.557 248.71 Q 128.557 247.716 129.166 247.142 Q 129.775 246.568 130.685 246.568 Q 131.259 246.568 131.749 246.827 Q 132.239 247.086 132.533 247.562 Q 132.827 248.038 132.827 248.71 Z M 132.057 248.71 L 132.057 248.71 Q 132.057 247.996 131.665 247.611 Q 131.273 247.226 130.685 247.226 Q 130.125 247.226 129.726 247.618 Q 129.327 248.01 129.327 248.71 Q 129.327 249.41 129.712 249.795 Q 130.097 250.18 130.685 250.18 Q 131.273 250.18 131.665 249.802 Q 132.057 249.424 132.057 248.71 Z " fill="black" /></g></g></g><g><g><g><path d="M 215.914 256.599 L 215.914 256.599 L 215.914 247.401 L 218.602 247.401 Q 219.652 247.401 220.443 247.66 Q 221.234 247.919 221.682 248.507 Q 222.13 249.095 222.13 250.103 Q 222.13 251.083 221.689 251.72 Q 221.248 252.357 220.471 252.665 Q 219.694 252.973 218.658 252.973 L 217.118 252.973 L 217.118 256.599 Z M 217.118 251.993 L 217.118 251.993 L 218.518 251.993 Q 219.736 251.993 220.331 251.545 Q 220.926 251.097 220.926 250.117 Q 220.926 249.123 220.31 248.745 Q 219.694 248.367 218.462 248.367 L 217.118 248.367 Z " fill="black" /><path d="M 224.034 256.599 L 224.034 256.599 L 224.034 247.401 L 225.238 247.401 L 225.238 255.577 L 229.34 255.577 L 229.34 256.599 Z " fill="black" /><path d="M 230.992 256.599 L 230.992 256.599 L 230.992 247.401 L 232.196 247.401 L 232.196 255.577 L 236.298 255.577 L 236.298 256.599 Z " fill="black" /></g></g></g></svg>