<svg xmlns="http://www.w3.org/2000/svg" xmlns:xlink="http://www.w3.org/1999/xlink" xml:lang="en" height="322.63999999999993pt" width="261.6208pt" viewBox="-238.8104 -144.99999999999997 261.6208 322.63999999999993"><circle cx="-108.0" cy="113.99999999999997" r="18.0" style="stroke:black;fill:none;stroke-width:2.0;stroke-dasharray:-;" /><path d="M 0.0,59.99999999999999 L 0.0,45.0 L -14.999999999999998,45.0 L -14.999999999999998,14.999999999999998 L 0.0,14.999999999999998 L 0.0,-0.0" style="stroke:black;fill:none;stroke-width:2.0;stroke-dasharray:-;stroke-linecap:round;stroke-linejoin:round;" /><path d="M -9.0,45.0 L -14.999999999999998,45.0" style="stroke:black;fill:none;stroke-width:2.0;stroke-dasharray:-;stroke-linecap:round;stroke-linejoin:round;" /><path d="M -2.0 45.0 L -9.0 49.5 L -9.0 40.5 Z" style="stroke:black;fill:black;stroke-linecap:butt;stroke-linejoin:miter;" /><path d="M -17.999999999999996,42.0 L -17.999999999999996,17.999999999999996" style="stroke:black;fill:none;stroke-width:2.0;stroke-dasharray:-;stroke-linecap:round;stroke-linejoin:round;" /><path d="M -32.99999999999999,29.999999999999996 L -17.999999999999996,29.999999999999996" style="stroke:black;fill:none;stroke-width:2.0;stroke-dasharray:-;stroke-linecap:round;stroke-linejoin:round;" /><path d="M 0.0,59.99999999999999 L -1.6532731788489267e-15,69.0 L -3.3065463576978533e-15,78.0" style="stroke:black;fill:none;stroke-width:2.0;stroke-dasharray:-;stroke-linecap:round;stroke-linejoin:round;" /><path d="M -3.3065463576978533e-15,78.0 L -54.0,78.0 L -108.0,77.99999999999997" style="stroke:black;fill:none;stroke-width:2.0;stroke-dasharray:-;stroke-linecap:round;stroke-linejoin:round;" /><path d="M -108.0,77.99999999999997 L -108.0,95.99999999999997 L -108.0,95.99999999999997 M -108.00000000000001,131.99999999999997 L -108.00000000000001,131.99999999999997 L -108.00000000000001,149.99999999999997" style="stroke:black;fill:none;stroke-width:2.0;stroke-dasharray:-;stroke-linecap:round;stroke-linejoin:round;" /><path d="M -108.0,104.99999999999997 L -108.00000000000001,113.99999999999997" style="stroke:black;fill:none;stroke-width:2.0;stroke-dasharray:-;stroke-linecap:round;stroke-linejoin:round;" /><path d="M -108.00000000000001 120.99999999999997 L -110.7 113.99999999999997 L -105.30000000000001 113.99999999999997 Z" style="stroke:black;fill:black;stroke-linecap:butt;stroke-linejoin:miter;" /><path d="M -108.00000000000001,149.99999999999997 L -108.00000000000001,164.39999999999998 L -117.00000000000001,164.39999999999998 L -99.00000000000001,164.39999999999998 M -114.30000000000001,168.71999999999997 L -101.70000000000002,168.71999999999997 M -109.80000000000001,173.03999999999996 L -106.20000000000002,173.03999999999996" style="stroke:black;fill:none;stroke-width:2.0;stroke-dasharray:-;stroke-linecap:round;stroke-linejoin:round;" /><path d="M -108.0,77.99999999999997 L -162.0,77.99999999999997 L -216.0,77.99999999999996" style="stroke:black;fill:none;stroke-width:2.0;stroke-dasharray:-;stroke-linecap:round;stroke-linejoin:round;" /><path d="M -216.0,77.99999999999996 L -216.0,68.99999999999996 L -216.0,59.999999999999964" style="stroke:black;fill:none;stroke-width:2.0;stroke-dasharray:-;stroke-linecap:round;stroke-linejoin:round;" /><path d="M -216.0,-3.197442310920451e-14 L -216.0,14.999999999999963 L -201.0,14.999999999999963 L -201.0,44.99999999999997 L -216.0,44.99999999999997 L -216.0,59.999999999999964" style="stroke:black;fill:none;stroke-width:2.0;stroke-dasharray:-;stroke-linecap:round;stroke-linejoin:round;" /><path d="M -201.0,44.99999999999997 L -207.0,44.99999999999997" style="stroke:black;fill:none;stroke-width:2.0;stroke-dasharray:-;stroke-linecap:round;stroke-linejoin:round;" /><path d="M -214.0 44.99999999999997 L -207.0 40.49999999999997 L -207.0 49.49999999999997 Z" style="stroke:black;fill:black;stroke-linecap:butt;stroke-linejoin:miter;" /><path d="M -198.0,17.999999999999968 L -198.0,41.99999999999997" style="stroke:black;fill:none;stroke-width:2.0;stroke-dasharray:-;stroke-linecap:round;stroke-linejoin:round;" /><path d="M -198.0,29.999999999999964 L -183.00000000000003,29.999999999999964" style="stroke:black;fill:none;stroke-width:2.0;stroke-dasharray:-;stroke-linecap:round;stroke-linejoin:round;" /><path d="M 0.0,-0.0 L 5.51091059616309e-16,-9.0 L 1.102182119232618e-15,-18.0" style="stroke:black;fill:none;stroke-width:2.0;stroke-dasharray:-;stroke-linecap:round;stroke-linejoin:round;" /><path d="M 1.102182119232618e-15,-18.0 L 2.204364238465236e-15,-36.0 L 3.3065463576978533e-15,-54.0" style="stroke:black;fill:none;stroke-width:2.0;stroke-dasharray:-;stroke-linecap:round;stroke-linejoin:round;" /><path d="M 1.102182119232618e-15,-18.0 L -36.0,-18.0 L -147.00000000000003,29.999999999999964 L -183.00000000000003,29.999999999999964" style="stroke:black;fill:none;stroke-width:2.0;stroke-dasharray:-;stroke-linecap:round;stroke-linejoin:round;" /><path d="M -216.0,-3.197442310920451e-14 L -216.0,-9.000000000000032 L -216.0,-18.000000000000032" style="stroke:black;fill:none;stroke-width:2.0;stroke-dasharray:-;stroke-linecap:round;stroke-linejoin:round;" /><path d="M -216.0,-18.000000000000032 L -216.0,-36.00000000000003 L -216.0,-54.00000000000003" style="stroke:black;fill:none;stroke-width:2.0;stroke-dasharray:-;stroke-linecap:round;stroke-linejoin:round;" /><path d="M -216.0,-18.000000000000032 L -180.0,-18.000000000000032 L -68.99999999999997,29.999999999999996 L -32.99999999999998,29.999999999999996" style="stroke:black;fill:none;stroke-width:2.0;stroke-dasharray:-;stroke-linecap:round;stroke-linejoin:round;" /><path d="M 3.3065463576978533e-15,-54.0 L -104.76,-54.000000000000014 M -104.76,-45.000000000000014 L -104.76,-63.000000000000014 M -111.24,-45.000000000000014 L -111.24,-63.000000000000014 M -111.24,-54.000000000000014 L -216.0,-54.00000000000002" style="stroke:black;fill:none;stroke-width:2.0;stroke-dasharray:-;stroke-linecap:round;stroke-linejoin:round;" /><path d="M -99.1384698277371,-61.87107112058405 L -123.24,-45.000000000000014" style="stroke:black;fill:none;stroke-width:2.0;stroke-dasharray:-;stroke-linecap:round;stroke-linejoin:round;" /><path d="M -94.87846384103807 -64.85307531127336 L -97.4868982759707 -59.51168318948921 L -100.79004137950348 -64.23045905167889 Z" style="stroke:black;fill:black;stroke-linecap:butt;stroke-linejoin:miter;" /><path d="M 3.3065463576978533e-15,-54.0 L 5.510910596163089e-15,-90.0 L 7.715274834628325e-15,-126.0" style="stroke:black;fill:none;stroke-width:2.0;stroke-dasharray:-;stroke-linecap:round;stroke-linejoin:round;" /><path d="M -216.0,-54.00000000000003 L -216.0,-90.00000000000003 L -216.0,-126.00000000000003" style="stroke:black;fill:none;stroke-width:2.0;stroke-dasharray:-;stroke-linecap:round;stroke-linejoin:round;" /><path d="M 7.715274834628325e-15,-126.0 L -35.99999999999999,-126.0 L -36.06703383328697,-124.33844372661017 L -36.27113325898925,-122.63302063457498 L -36.61398039413746,-120.930143609328 L -37.09348135344776,-119.27615624539972 L -37.703823234159316,-117.71607161103638 L -38.435632313487645,-116.29234722293252 L -39.27622915336871,-115.04372956999323 L -40.209973669849134,-114.00419963227372 L -41.218690776099926,-113.20204809267226 L -42.2821650152303,-112.65910540937938 L -43.378690721528656,-112.39014770256978 L -44.485662737558286,-112.40249462405946 L -45.58019161081282,-112.69581015385711 L -46.63972652742794,-113.262111744908 L -47.642669029883045,-114.08598756715716 L -48.56896081643887,-115.14501593866065 L -49.40062962541976,-116.4103755289773 L -50.12227834816522,-117.84762972822897 L -50.72150405950019,-119.41766383531876 L -51.18923556185993,-121.07774955984212 L -51.519980256846594,-122.78270786739871 L -51.711973625637526,-124.48613852160898 L -51.767227250153994,-126.14168286099644 L -51.69147406809976,-127.70428544441396 L -51.494012351747365,-129.1314202294847 L -51.187452656570535,-130.38424791375812 L -50.787374626485544,-131.42867294167988 L -50.31190299570577,-132.2362714110575 L -49.781214326268355,-132.7850646261581 L -49.216987905311974,-133.06011724528372 L -48.64181574587085,-133.0539437443089 L -48.07858774794266,-132.76671213432405 L -47.54986875259838,-132.2062393892341 L -47.07728444253185,-131.3877787077484 L -46.6809328016924,-130.33360439940284 L -46.37883715105589,-129.07240569189045 L -46.186455646100434,-127.6385059571616 L -46.11626058495433,-126.07092860496248 L -46.177398976294505,-124.41233506540718 L -46.375443604599624,-122.70786376326066 L -46.71224136748714,-121.0039016811085 L -47.18586301261561,-119.34682194317503 L -47.790655642056386,-117.78172177629513 L -48.51739655523439,-116.35119519428082 L -49.353544243621116,-115.09417380693068 L -50.28357970638888,-114.04486730092661 L -51.28942879816174,-113.23183242730316 L -52.35095411471984,-112.67719583288437 L -53.44650303004626,-112.3960518862373 L -54.55349696995371,-112.3960518862373 L -55.64904588528012,-112.67719583288437 L -56.71057120183823,-113.23183242730316 L -57.71642029361109,-114.0448673009266 L -58.646455756378835,-115.09417380693066 L -59.48260344476558,-116.35119519428079 L -60.2093443579436,-117.78172177629511 L -60.81413698738436,-119.346821943175 L -61.28775863251283,-121.00390168110846 L -61.624556395400354,-122.70786376326062 L -61.822601023705474,-124.41233506540715 L -61.88373941504565,-126.07092860496243 L -61.81354435389956,-127.63850595716156 L -61.621162848944095,-129.07240569189042 L -61.319067198307586,-130.33360439940284 L -60.922715557468145,-131.38777870774837 L -60.450131247401615,-132.20623938923407 L -59.92141225205733,-132.76671213432405 L -59.35818425412914,-133.05394374430887 L -58.783012094688026,-133.06011724528372 L -58.21878567373164,-132.7850646261581 L -57.68809700429423,-132.2362714110575 L -57.212625373514456,-131.4286729416799 L -56.81254734342946,-130.38424791375814 L -56.50598764825263,-129.13142022948472 L -56.308525931900235,-127.704285444414 L -56.23277274984599,-126.14168286099647 L -56.28802637436245,-124.486138521609 L -56.48001974315338,-122.78270786739876 L -56.81076443814003,-121.07774955984218 L -57.27849594049978,-119.4176638353188 L -57.877721651834754,-117.84762972822901 L -58.599370374580204,-116.41037552897733 L -59.43103918356109,-115.14501593866068 L -60.35733097011691,-114.08598756715719 L -61.36027347257203,-113.26211174490803 L -62.419808389187146,-112.69581015385711 L -63.514337262441664,-112.40249462405947 L -64.6213092784713,-112.39014770256978 L -65.71783498476967,-112.65910540937935 L -66.78130922390004,-113.20204809267224 L -67.79002633015084,-114.00419963227371 L -68.72377084663124,-115.0437295699932 L -69.56436768651234,-116.29234722293252 L -70.29617676584064,-117.71607161103636 L -70.90651864655221,-119.27615624539968 L -71.38601960586251,-120.930143609328 L -71.72886674101072,-122.63302063457495 L -71.93296616671302,-124.33844372661018 L -71.99999999999999,-125.99999999999999 L -108.0,-125.99999999999999" style="stroke:black;fill:none;stroke-width:2.0;stroke-dasharray:-;stroke-linecap:round;stroke-linejoin:round;" /><path d="M -108.0,-125.99999999999999 L -108.0,-140.39999999999998" style="stroke:black;fill:none;stroke-width:2.0;stroke-dasharray:-;stroke-linecap:round;stroke-linejoin:round;" /><path d="M -108.0,-140.39999999999998 L -114.75,-140.39999999999998" style="stroke:black;fill:none;stroke-width:2.0;stroke-dasharray:-;stroke-linecap:round;stroke-linejoin:round;" /><path d="M -108.0,-140.39999999999998 L -101.25,-140.39999999999998" style="stroke:black;fill:none;stroke-width:2.0;stroke-dasharray:-;stroke-linecap:round;stroke-linejoin:round;" /><path d="M -108.0,-125.99999999999999 L -144.0,-126.0 L -144.06703383328696,-124.33844372661017 L -144.27113325898927,-122.63302063457498 L -144.61398039413746,-120.93014360932801 L -145.09348135344777,-119.27615624539972 L -145.70382323415936,-117.71607161103638 L -146.43563231348767,-116.29234722293252 L -147.27622915336875,-115.04372956999323 L -148.20997366984915,-114.00419963227372 L -149.21869077609995,-113.20204809267226 L -150.2821650152303,-112.65910540937938 L -151.37869072152867,-112.39014770256978 L -152.4856627375583,-112.40249462405946 L -153.58019161081285,-112.69581015385711 L -154.63972652742797,-113.262111744908 L -155.64266902988305,-114.08598756715718 L -156.5689608164389,-115.14501593866065 L -157.40062962541978,-116.4103755289773 L -158.12227834816522,-117.84762972822898 L -158.7215040595002,-119.41766383531879 L -159.18923556185993,-121.07774955984215 L -159.51998025684662,-122.78270786739871 L -159.71197362563754,-124.48613852160899 L -159.76722725015398,-126.14168286099645 L -159.69147406809975,-127.70428544441397 L -159.4940123517474,-129.13142022948472 L -159.18745265657054,-130.38424791375814 L -158.78737462648556,-131.42867294167988 L -158.3119029957058,-132.2362714110575 L -157.78121432626835,-132.7850646261581 L -157.21698790531198,-133.06011724528375 L -156.64181574587087,-133.0539437443089 L -156.07858774794266,-132.76671213432408 L -155.5498687525984,-132.2062393892341 L -155.07728444253186,-131.3877787077484 L -154.6809328016924,-130.33360439940284 L -154.3788371510559,-129.07240569189045 L -154.18645564610043,-127.6385059571616 L -154.11626058495435,-126.07092860496248 L -154.1773989762945,-124.41233506540718 L -154.3754436045996,-122.70786376326068 L -154.71224136748714,-121.0039016811085 L -155.1858630126156,-119.34682194317503 L -155.7906556420564,-117.78172177629513 L -156.51739655523443,-116.35119519428082 L -157.35354424362112,-115.09417380693068 L -158.2835797063889,-114.04486730092661 L -159.28942879816174,-113.23183242730317 L -160.35095411471985,-112.67719583288438 L -161.44650303004627,-112.39605188623732 L -162.55349696995373,-112.39605188623732 L -163.64904588528015,-112.67719583288437 L -164.71057120183826,-113.23183242730316 L -165.7164202936111,-114.04486730092661 L -166.64645575637883,-115.09417380693066 L -167.48260344476557,-116.35119519428079 L -168.20934435794362,-117.78172177629511 L -168.81413698738436,-119.34682194317502 L -169.28775863251283,-121.00390168110847 L -169.62455639540036,-122.70786376326062 L -169.8226010237055,-124.41233506540715 L -169.88373941504565,-126.07092860496246 L -169.81354435389957,-127.63850595716158 L -169.6211628489441,-129.07240569189045 L -169.3190671983076,-130.33360439940284 L -168.92271555746817,-131.3877787077484 L -168.45013124740163,-132.2062393892341 L -167.92141225205734,-132.76671213432405 L -167.35818425412916,-133.0539437443089 L -166.78301209468802,-133.06011724528375 L -166.21878567373165,-132.7850646261581 L -165.68809700429426,-132.2362714110575 L -165.21262537351444,-131.4286729416799 L -164.81254734342946,-130.38424791375814 L -164.50598764825264,-129.13142022948475 L -164.30852593190025,-127.704285444414 L -164.23277274984602,-126.14168286099648 L -164.28802637436246,-124.48613852160902 L -164.48001974315338,-122.78270786739877 L -164.81076443814004,-121.07774955984219 L -165.2784959404998,-119.41766383531882 L -165.87772165183478,-117.84762972822901 L -166.59937037458022,-116.41037552897733 L -167.4310391835611,-115.14501593866068 L -168.35733097011692,-114.08598756715719 L -169.36027347257203,-113.26211174490803 L -170.41980838918715,-112.69581015385712 L -171.51433726244167,-112.40249462405947 L -172.6213092784713,-112.39014770256979 L -173.7178349847697,-112.65910540937938 L -174.78130922390005,-113.20204809267226 L -175.79002633015085,-114.00419963227372 L -176.72377084663125,-115.0437295699932 L -177.56436768651236,-116.29234722293253 L -178.29617676584064,-117.71607161103637 L -178.90651864655223,-119.27615624539969 L -179.38601960586251,-120.93014360932801 L -179.72886674101073,-122.63302063457496 L -179.93296616671304,-124.3384437266102 L -180.0,-126.0 L -216.0,-126.00000000000001" style="stroke:black;fill:none;stroke-width:2.0;stroke-dasharray:-;stroke-linecap:round;stroke-linejoin:round;" /><g><g><g><path d="M 14.926 33.129 L 14.926 33.129 L 11.188 33.129 L 11.272 32.709 Q 11.79 32.709 12.063 32.611 Q 12.336 32.513 12.476 32.24 Q 12.616 31.967 12.714 31.463 L 13.96 25.415 L 13.904 25.415 L 9.2 33.129 L 8.892 33.129 L 7.198 25.429 L 7.142 25.429 L 5.98 31.085 Q 5.84 31.799 5.861 32.149 Q 5.882 32.499 6.134 32.604 Q 6.386 32.709 6.918 32.709 L 6.834 33.129 L 3.6 33.129 L 3.684 32.709 Q 4.23 32.709 4.524 32.604 Q 4.818 32.499 4.986 32.149 Q 5.154 31.799 5.294 31.085 L 6.4 25.639 Q 6.512 25.107 6.47 24.834 Q 6.428 24.561 6.169 24.456 Q 5.91 24.351 5.35 24.351 L 5.434 23.931 L 8.234 23.931 L 9.746 31.015 L 9.802 31.015 L 14.072 23.931 L 16.718 23.931 L 16.634 24.351 Q 16.144 24.351 15.857 24.456 Q 15.57 24.561 15.416 24.834 Q 15.262 25.107 15.15 25.625 L 13.96 31.463 Q 13.806 32.233 14.037 32.471 Q 14.268 32.709 15.01 32.709 Z " fill="black" /><path d="M 20.952 36.069 L 20.952 36.069 L 17.629 36.069 L 17.629 35.716 Q 18.335 35.716 18.565 35.574 Q 18.796 35.432 18.796 35.06 L 18.796 30.787 Q 18.796 30.522 18.717 30.405 Q 18.639 30.287 18.433 30.287 Q 18.276 30.287 18.007 30.331 Q 17.737 30.375 17.541 30.424 L 17.541 30.032 L 19.354 29.532 L 19.776 29.532 L 19.776 35.06 Q 19.776 35.432 20.026 35.574 Q 20.275 35.716 20.952 35.716 Z " fill="black" /></g></g></g><circle cx="-108.0" cy="77.99999999999997" r="2.6999999999999997" style="stroke:black;fill:black;stroke-width:2.0;stroke-dasharray:-;" /><g><g><g><path d="M -226.849 33.129 L -226.849 33.129 L -230.587 33.129 L -230.503 32.709 Q -229.985 32.709 -229.712 32.611 Q -229.439 32.513 -229.299 32.24 Q -229.159 31.967 -229.061 31.463 L -227.815 25.415 L -227.871 25.415 L -232.575 33.129 L -232.883 33.129 L -234.577 25.429 L -234.633 25.429 L -235.795 31.085 Q -235.935 31.799 -235.914 32.149 Q -235.893 32.499 -235.641 32.604 Q -235.389 32.709 -234.857 32.709 L -234.941 33.129 L -238.175 33.129 L -238.091 32.709 Q -237.545 32.709 -237.251 32.604 Q -236.957 32.499 -236.789 32.149 Q -236.621 31.799 -236.481 31.085 L -235.375 25.639 Q -235.263 25.107 -235.305 24.834 Q -235.347 24.561 -235.606 24.456 Q -235.865 24.351 -236.425 24.351 L -236.341 23.931 L -233.541 23.931 L -232.029 31.015 L -231.973 31.015 L -227.703 23.931 L -225.057 23.931 L -225.141 24.351 Q -225.631 24.351 -225.918 24.456 Q -226.205 24.561 -226.359 24.834 Q -226.513 25.107 -226.625 25.625 L -227.815 31.463 Q -227.969 32.233 -227.738 32.471 Q -227.507 32.709 -226.765 32.709 Z " fill="black" /><path d="M -220.265 34.364 L -220.265 34.364 L -220.598 36.069 L -224.616 36.069 L -224.616 35.589 L -223.225 34.178 Q -222.676 33.629 -222.318 33.207 Q -221.96 32.786 -221.784 32.36 Q -221.608 31.933 -221.608 31.385 Q -221.608 30.865 -221.926 30.527 Q -222.245 30.189 -222.823 30.189 Q -223.352 30.189 -223.71 30.4 Q -224.067 30.61 -224.342 31.091 L -224.606 30.963 Q -224.361 30.277 -223.847 29.885 Q -223.332 29.493 -222.578 29.493 Q -221.99 29.493 -221.539 29.704 Q -221.088 29.915 -220.833 30.307 Q -220.579 30.699 -220.579 31.257 Q -220.579 31.737 -220.794 32.159 Q -221.01 32.58 -221.407 33.021 Q -221.804 33.462 -222.352 34.001 L -223.577 35.187 L -223.577 35.256 L -222.813 35.216 L -221.539 35.216 Q -221.255 35.216 -221.103 35.138 Q -220.951 35.06 -220.843 34.868 Q -220.735 34.677 -220.608 34.364 Z " fill="black" /></g></g></g><circle cx="1.102182119232618e-15" cy="-18.0" r="2.6999999999999997" style="stroke:black;fill:black;stroke-width:2.0;stroke-dasharray:-;" /><circle cx="3.3065463576978533e-15" cy="-54.0" r="2.6999999999999997" style="stroke:black;fill:black;stroke-width:2.0;stroke-dasharray:-;" /><circle cx="-216.0" cy="-18.000000000000032" r="2.6999999999999997" style="stroke:black;fill:black;stroke-width:2.0;stroke-dasharray:-;" /><circle cx="-216.0" cy="-54.00000000000003" r="2.6999999999999997" style="stroke:black;fill:black;stroke-width:2.0;stroke-dasharray:-;" /><g><g><g><path d="M -104.36 -77.544 L -104.36 -77.544 L -104.108 -77.278 Q -104.822 -76.438 -105.76 -75.899 Q -106.698 -75.36 -108.028 -75.36 Q -109.288 -75.36 -110.044 -75.829 Q -110.8 -76.298 -111.129 -77.082 Q -111.458 -77.866 -111.458 -78.79 Q -111.458 -80.26 -111.01 -81.401 Q -110.562 -82.542 -109.785 -83.319 Q -109.008 -84.096 -108.028 -84.495 Q -107.048 -84.894 -105.984 -84.894 Q -105.27 -84.894 -104.871 -84.768 Q -104.472 -84.642 -104.248 -84.509 Q -104.024 -84.376 -103.856 -84.376 Q -103.688 -84.376 -103.562 -84.516 Q -103.436 -84.656 -103.268 -84.88 L -102.862 -84.88 L -103.52 -81.674 L -103.982 -81.674 Q -103.926 -83.074 -104.5 -83.683 Q -105.074 -84.292 -106.11 -84.292 Q -106.922 -84.292 -107.636 -83.921 Q -108.35 -83.55 -108.903 -82.871 Q -109.456 -82.192 -109.771 -81.247 Q -110.086 -80.302 -110.086 -79.14 Q -110.086 -77.74 -109.421 -77.005 Q -108.756 -76.27 -107.37 -76.27 Q -105.76 -76.27 -104.36 -77.544 Z " fill="black" /></g></g></g><circle cx="-108.0" cy="-125.99999999999999" r="2.6999999999999997" style="stroke:black;fill:black;stroke-width:2.0;stroke-dasharray:-;" /><g><g><g><path d="M -54.253 -102.322 L -54.253 -102.322 L -55.093 -99.592 L -62.009 -99.592 L -61.925 -100.012 Q -61.379 -100.012 -61.092 -100.11 Q -60.805 -100.208 -60.651 -100.488 Q -60.497 -100.768 -60.385 -101.328 L -59.181 -107.166 Q -59.083 -107.628 -59.111 -107.894 Q -59.139 -108.16 -59.398 -108.265 Q -59.657 -108.37 -60.259 -108.37 L -60.175 -108.79 L -56.199 -108.79 L -56.269 -108.37 Q -57.025 -108.37 -57.403 -108.139 Q -57.781 -107.908 -57.935 -107.152 L -59.209 -100.88 Q -59.307 -100.418 -59.111 -100.271 Q -58.915 -100.124 -58.299 -100.124 L -57.641 -100.124 Q -56.969 -100.124 -56.549 -100.243 Q -56.129 -100.362 -55.835 -100.614 Q -55.541 -100.866 -55.282 -101.293 Q -55.023 -101.72 -54.701 -102.322 Z " fill="black" /><path d="M -49.627 -96.652 L -49.627 -96.652 L -52.95 -96.652 L -52.95 -97.005 Q -52.244 -97.005 -52.014 -97.147 Q -51.783 -97.289 -51.783 -97.662 L -51.783 -101.934 Q -51.783 -102.199 -51.862 -102.317 Q -51.94 -102.434 -52.146 -102.434 Q -52.303 -102.434 -52.572 -102.39 Q -52.842 -102.346 -53.038 -102.297 L -53.038 -102.689 L -51.225 -103.189 L -50.803 -103.189 L -50.803 -97.662 Q -50.803 -97.289 -50.554 -97.147 Q -50.304 -97.005 -49.627 -97.005 Z " fill="black" /></g></g></g><g><g><g><path d="M -160.977 -102.322 L -160.977 -102.322 L -161.817 -99.592 L -168.733 -99.592 L -168.649 -100.012 Q -168.103 -100.012 -167.816 -100.11 Q -167.529 -100.208 -167.375 -100.488 Q -167.221 -100.768 -167.109 -101.328 L -165.905 -107.166 Q -165.807 -107.628 -165.835 -107.894 Q -165.863 -108.16 -166.122 -108.265 Q -166.381 -108.37 -166.983 -108.37 L -166.899 -108.79 L -162.923 -108.79 L -162.993 -108.37 Q -163.749 -108.37 -164.127 -108.139 Q -164.505 -107.908 -164.659 -107.152 L -165.933 -100.88 Q -166.031 -100.418 -165.835 -100.271 Q -165.639 -100.124 -165.023 -100.124 L -164.365 -100.124 Q -163.693 -100.124 -163.273 -100.243 Q -162.853 -100.362 -162.559 -100.614 Q -162.265 -100.866 -162.006 -101.293 Q -161.747 -101.72 -161.425 -102.322 Z " fill="black" /><path d="M -155.792 -98.357 L -155.792 -98.357 L -156.126 -96.652 L -160.144 -96.652 L -160.144 -97.132 L -158.752 -98.544 Q -158.203 -99.092 -157.845 -99.514 Q -157.488 -99.935 -157.311 -100.361 Q -157.135 -100.788 -157.135 -101.337 Q -157.135 -101.856 -157.453 -102.194 Q -157.772 -102.532 -158.35 -102.532 Q -158.879 -102.532 -159.237 -102.321 Q -159.595 -102.111 -159.869 -101.631 L -160.134 -101.758 Q -159.889 -102.444 -159.374 -102.836 Q -158.86 -103.228 -158.105 -103.228 Q -157.517 -103.228 -157.066 -103.017 Q -156.616 -102.807 -156.361 -102.415 Q -156.106 -102.023 -156.106 -101.464 Q -156.106 -100.984 -156.322 -100.562 Q -156.537 -100.141 -156.934 -99.7 Q -157.331 -99.259 -157.88 -98.72 L -159.105 -97.534 L -159.105 -97.466 L -158.34 -97.505 L -157.066 -97.505 Q -156.782 -97.505 -156.63 -97.583 Q -156.478 -97.662 -156.371 -97.853 Q -156.263 -98.044 -156.135 -98.357 Z " fill="black" /></g></g></g></svg>