<svg xmlns="http://www.w3.org/2000/svg" xmlns:xlink="http://www.w3.org/1999/xlink" xml:lang="en" height="199.17799999999997pt" width="225.25599999999994pt" viewBox="-22.227399999999996 -27.538 225.25599999999994 199.17799999999997"><circle cx="143.99999999999997" cy="36.0" r="18.0" style="stroke:black;fill:none;stroke-width:2.0;stroke-dasharray:-;" /><path d="M 0.0,-0.0 L 36.0,-0.0 L 72.0,-0.0" style="stroke:black;fill:none;stroke-width:2.0;stroke-dasharray:-;stroke-linecap:round;stroke-linejoin:round;" /><path d="M 72.0,-0.0 L 71.99999999999999,32.76 M 81.0,32.76 L 62.99999999999999,32.76 M 81.0,39.24 L 62.99999999999999,39.24 M 71.99999999999999,39.24 L 71.99999999999999,72.0" style="stroke:black;fill:none;stroke-width:2.0;stroke-dasharray:-;stroke-linecap:round;stroke-linejoin:round;" /><path d="M 71.99999999999999,72.0 L 107.99999999999999,72.0 L 143.99999999999997,72.0" style="stroke:black;fill:none;stroke-width:2.0;stroke-dasharray:-;stroke-linecap:round;stroke-linejoin:round;" /><path d="M 143.99999999999997,72.0 L 143.99999999999997,90.0 L 152.99999999999997,90.0 L 152.99999999999997,126.0 L 134.99999999999997,126.0 L 134.99999999999997,90.0 L 143.99999999999997,90.0 M 143.99999999999997,126.0 L 143.99999999999997,144.0" style="stroke:black;fill:none;stroke-width:2.0;stroke-dasharray:-;stroke-linecap:round;stroke-linejoin:round;" /><path d="M 143.99999999999997,144.0 L 143.99999999999997,158.4 L 134.99999999999997,158.4 L 152.99999999999997,158.4 M 137.7,162.71999999999997 L 150.29999999999995,162.71999999999997 M 142.2,167.04 L 145.79999999999995,167.04" style="stroke:black;fill:none;stroke-width:2.0;stroke-dasharray:-;stroke-linecap:round;stroke-linejoin:round;" /><path d="M 143.99999999999997,72.0 L 143.99999999999997,54.0 L 143.99999999999997,54.0 M 143.99999999999997,18.0 L 143.99999999999997,18.0 L 143.99999999999997,-0.0" style="stroke:black;fill:none;stroke-width:2.0;stroke-dasharray:-;stroke-linecap:round;stroke-linejoin:round;" /><path d="M 143.99999999999997,36.0 L 143.99999999999997,27.0" style="stroke:black;fill:none;stroke-width:2.0;stroke-dasharray:-;stroke-linecap:round;stroke-linejoin:round;" /><path d="M 143.99999999999997 43.0 L 141.29999999999998 36.0 L 146.69999999999996 36.0 Z" style="stroke:black;fill:black;stroke-linecap:butt;stroke-linejoin:miter;" /><g><g><g><path d="M 48.978 35.945 L 48.978 35.945 L 49.23 36.211 Q 48.516 37.051 47.578 37.59 Q 46.64 38.129 45.31 38.129 Q 44.05 38.129 43.294 37.66 Q 42.538 37.191 42.209 36.407 Q 41.88 35.623 41.88 34.699 Q 41.88 33.229 42.328 32.088 Q 42.776 30.947 43.553 30.17 Q 44.33 29.393 45.31 28.994 Q 46.29 28.595 47.354 28.595 Q 48.068 28.595 48.467 28.721 Q 48.866 28.847 49.09 28.98 Q 49.314 29.113 49.482 29.113 Q 49.65 29.113 49.776 28.973 Q 49.902 28.833 50.07 28.609 L 50.476 28.609 L 49.818 31.815 L 49.356 31.815 Q 49.412 30.415 48.838 29.806 Q 48.264 29.197 47.228 29.197 Q 46.416 29.197 45.702 29.568 Q 44.988 29.939 44.435 30.618 Q 43.882 31.297 43.567 32.242 Q 43.252 33.187 43.252 34.349 Q 43.252 35.749 43.917 36.484 Q 44.582 37.219 45.968 37.219 Q 47.578 37.219 48.978 35.945 Z " fill="black" /><path d="M 51.459 38.946 L 51.459 38.946 L 51.459 38.906 Q 51.116 38.701 50.876 38.372 Q 50.636 38.044 50.636 37.525 Q 50.636 36.976 50.901 36.584 Q 51.165 36.192 51.616 35.981 Q 52.067 35.77 52.625 35.77 Q 53.145 35.77 53.473 35.883 Q 53.801 35.996 53.801 35.996 L 55.242 35.957 L 55.242 36.535 L 54.213 36.515 L 54.213 36.584 Q 54.34 36.76 54.478 37 Q 54.615 37.24 54.615 37.672 Q 54.615 38.162 54.355 38.519 Q 54.095 38.877 53.659 39.068 Q 53.223 39.259 52.674 39.259 Q 52.175 39.259 51.734 39.083 Q 51.665 39.21 51.572 39.445 Q 51.479 39.681 51.479 39.847 Q 51.479 40.053 51.719 40.151 Q 51.959 40.249 52.674 40.249 Q 53.204 40.249 53.654 40.273 Q 54.105 40.298 54.438 40.411 Q 54.772 40.523 54.953 40.773 Q 55.134 41.023 55.134 41.484 Q 55.134 42.013 54.865 42.38 Q 54.595 42.748 54.154 42.973 Q 53.713 43.199 53.199 43.302 Q 52.684 43.405 52.184 43.405 Q 51.469 43.405 51.077 43.228 Q 50.685 43.052 50.533 42.777 Q 50.381 42.503 50.381 42.219 Q 50.381 41.944 50.572 41.675 Q 50.763 41.405 51.185 41.013 L 51.185 40.964 Q 50.94 40.837 50.773 40.621 Q 50.607 40.406 50.607 40.2 Q 50.607 39.906 50.866 39.578 Q 51.126 39.249 51.459 38.946 Z M 51.508 41.062 L 51.508 41.062 Q 51.342 41.347 51.283 41.513 Q 51.224 41.68 51.224 41.846 Q 51.224 42.297 51.591 42.527 Q 51.959 42.758 52.733 42.758 Q 53.37 42.758 53.762 42.601 Q 54.154 42.444 54.34 42.224 Q 54.527 42.003 54.527 41.797 Q 54.527 41.533 54.355 41.386 Q 54.184 41.239 53.919 41.175 Q 53.654 41.111 53.36 41.092 Q 53.066 41.072 52.812 41.072 Q 52.743 41.072 52.704 41.072 Q 52.077 41.072 51.846 41.067 Q 51.616 41.062 51.508 41.062 Z M 52.567 36.202 L 52.567 36.202 Q 52.145 36.202 51.886 36.486 Q 51.626 36.77 51.626 37.466 Q 51.626 38.152 51.9 38.505 Q 52.175 38.857 52.674 38.857 Q 52.939 38.857 53.155 38.75 Q 53.37 38.642 53.502 38.358 Q 53.635 38.073 53.635 37.554 Q 53.635 36.888 53.346 36.545 Q 53.057 36.202 52.567 36.202 Z " fill="black" /><path d="M 56.104 39.132 L 56.104 39.132 L 56.418 39.132 Q 56.545 39.7 56.722 40.014 Q 56.898 40.327 57.177 40.45 Q 57.457 40.572 57.859 40.572 Q 58.319 40.572 58.569 40.42 Q 58.819 40.269 58.819 39.886 Q 58.819 39.632 58.697 39.46 Q 58.574 39.289 58.304 39.132 Q 58.035 38.975 57.584 38.769 Q 57.124 38.544 56.795 38.348 Q 56.467 38.152 56.295 37.887 Q 56.124 37.623 56.124 37.221 Q 56.124 36.515 56.599 36.143 Q 57.075 35.77 57.79 35.77 Q 58.221 35.77 58.52 35.878 Q 58.819 35.986 58.995 36.064 L 59.015 36.064 L 59.172 35.819 L 59.446 35.819 L 59.466 37.446 L 59.123 37.446 Q 58.937 36.692 58.603 36.432 Q 58.27 36.172 57.839 36.172 Q 57.388 36.172 57.158 36.368 Q 56.928 36.564 56.928 36.878 Q 56.928 37.133 57.084 37.299 Q 57.241 37.466 57.53 37.608 Q 57.819 37.75 58.221 37.946 Q 58.672 38.162 59.015 38.392 Q 59.358 38.622 59.554 38.911 Q 59.75 39.2 59.75 39.632 Q 59.75 40.151 59.476 40.465 Q 59.201 40.778 58.77 40.91 Q 58.339 41.043 57.868 41.043 Q 57.388 41.043 57.124 40.945 Q 56.859 40.847 56.634 40.759 L 56.594 40.759 L 56.349 41.013 L 56.124 41.013 Z " fill="black" /></g></g></g><circle cx="143.99999999999997" cy="72.0" r="2.6999999999999997" style="stroke:black;fill:black;stroke-width:2.0;stroke-dasharray:-;" /><g><g><g><path d="M 113.059 107.28 L 113.059 107.28 L 112.247 109.884 L 105.191 109.884 L 105.261 109.478 L 112.345 101.33 L 112.345 101.274 L 109.783 101.274 Q 109.069 101.274 108.635 101.379 Q 108.201 101.484 107.907 101.848 Q 107.613 102.212 107.305 102.996 L 106.857 102.996 L 107.375 100.686 L 114.179 100.686 L 114.095 101.078 L 107.039 109.24 L 107.039 109.31 L 109.909 109.31 Q 110.707 109.31 111.162 109.128 Q 111.617 108.946 111.932 108.498 Q 112.247 108.05 112.639 107.28 Z " fill="black" /><path d="M 119.97 112.697 L 119.97 112.697 L 118.647 112.873 L 118.295 112.873 L 118.295 112.187 L 118.226 112.187 Q 117.903 112.462 117.496 112.687 Q 117.089 112.913 116.58 112.913 Q 116.001 112.913 115.595 112.599 Q 115.188 112.285 114.972 111.737 Q 114.757 111.188 114.757 110.492 Q 114.757 109.62 115.095 108.988 Q 115.433 108.356 115.996 108.017 Q 116.56 107.679 117.226 107.679 Q 117.805 107.679 118.275 107.944 L 118.275 106.68 Q 118.275 106.327 118.201 106.214 Q 118.128 106.102 117.814 106.102 Q 117.746 106.102 117.633 106.116 Q 117.52 106.131 117.52 106.131 L 117.52 105.759 L 118.824 105.504 L 119.226 105.504 L 119.226 111.717 Q 119.226 112.099 119.333 112.212 Q 119.441 112.325 119.706 112.325 L 119.97 112.325 Z M 118.275 111.737 L 118.275 111.737 L 118.275 108.875 Q 118.167 108.601 117.917 108.385 Q 117.667 108.169 117.207 108.169 Q 116.55 108.169 116.129 108.615 Q 115.707 109.061 115.707 110.09 Q 115.707 111.139 116.075 111.624 Q 116.442 112.109 117.109 112.109 Q 117.422 112.109 117.682 112.021 Q 117.942 111.933 118.275 111.737 Z " fill="black" /><path d="M 125.115 111.364 L 125.115 111.364 L 125.351 111.55 Q 125.145 111.923 124.89 112.236 Q 124.635 112.55 124.263 112.736 Q 123.89 112.922 123.322 112.922 Q 122.705 112.922 122.17 112.643 Q 121.636 112.364 121.313 111.786 Q 120.99 111.207 120.99 110.325 Q 120.99 109.453 121.293 108.865 Q 121.597 108.277 122.117 107.978 Q 122.636 107.679 123.273 107.679 Q 124.155 107.679 124.738 108.292 Q 125.321 108.904 125.341 110.12 L 121.891 110.12 Q 121.891 110.786 122.141 111.222 Q 122.391 111.658 122.783 111.869 Q 123.175 112.08 123.606 112.08 Q 124.047 112.08 124.312 111.986 Q 124.576 111.893 124.758 111.727 Q 124.939 111.56 125.115 111.364 Z M 121.891 109.669 L 121.891 109.669 L 124.292 109.669 Q 124.292 109.277 124.165 108.929 Q 124.037 108.581 123.792 108.361 Q 123.547 108.14 123.165 108.14 Q 122.607 108.14 122.278 108.532 Q 121.95 108.924 121.891 109.669 Z " fill="black" /><path d="M 127.301 110.855 L 127.301 110.855 L 127.301 110.815 Q 126.958 110.61 126.718 110.281 Q 126.478 109.953 126.478 109.434 Q 126.478 108.885 126.742 108.493 Q 127.007 108.101 127.458 107.89 Q 127.908 107.679 128.467 107.679 Q 128.986 107.679 129.315 107.792 Q 129.643 107.905 129.643 107.905 L 131.084 107.866 L 131.084 108.444 L 130.055 108.424 L 130.055 108.493 Q 130.182 108.669 130.319 108.909 Q 130.456 109.149 130.456 109.581 Q 130.456 110.071 130.197 110.428 Q 129.937 110.786 129.501 110.977 Q 129.065 111.168 128.516 111.168 Q 128.016 111.168 127.575 110.992 Q 127.507 111.119 127.413 111.354 Q 127.32 111.59 127.32 111.756 Q 127.32 111.962 127.56 112.06 Q 127.801 112.158 128.516 112.158 Q 129.045 112.158 129.496 112.182 Q 129.947 112.207 130.28 112.32 Q 130.613 112.432 130.794 112.682 Q 130.976 112.932 130.976 113.393 Q 130.976 113.922 130.706 114.29 Q 130.437 114.657 129.996 114.882 Q 129.555 115.108 129.04 115.211 Q 128.526 115.314 128.026 115.314 Q 127.311 115.314 126.919 115.137 Q 126.527 114.961 126.375 114.686 Q 126.223 114.412 126.223 114.128 Q 126.223 113.853 126.414 113.584 Q 126.605 113.314 127.026 112.922 L 127.026 112.873 Q 126.781 112.746 126.615 112.53 Q 126.448 112.315 126.448 112.109 Q 126.448 111.815 126.708 111.487 Q 126.968 111.158 127.301 110.855 Z M 127.35 112.971 L 127.35 112.971 Q 127.183 113.256 127.124 113.422 Q 127.066 113.589 127.066 113.755 Q 127.066 114.206 127.433 114.436 Q 127.801 114.667 128.575 114.667 Q 129.212 114.667 129.604 114.51 Q 129.996 114.353 130.182 114.133 Q 130.368 113.912 130.368 113.706 Q 130.368 113.442 130.197 113.295 Q 130.025 113.148 129.761 113.084 Q 129.496 113.02 129.202 113.001 Q 128.908 112.981 128.653 112.981 Q 128.585 112.981 128.545 112.981 Q 127.918 112.981 127.688 112.976 Q 127.458 112.971 127.35 112.971 Z M 128.408 108.111 L 128.408 108.111 Q 127.987 108.111 127.727 108.395 Q 127.467 108.679 127.467 109.375 Q 127.467 110.061 127.742 110.414 Q 128.016 110.766 128.516 110.766 Q 128.781 110.766 128.996 110.659 Q 129.212 110.551 129.344 110.267 Q 129.476 109.982 129.476 109.463 Q 129.476 108.797 129.187 108.454 Q 128.898 108.111 128.408 108.111 Z " fill="black" /></g></g></g><circle cx="143.99999999999997" cy="-0.0" r="2.6999999999999997" style="stroke:black;fill:white;stroke-width:2.0;stroke-dasharray:-;" /><g><g><g><path d="M 172.474 29.996 L 172.474 29.996 L 172.39 30.71 L 171.172 30.57 L 171.172 30.612 Q 171.41 30.878 171.543 31.277 Q 171.676 31.676 171.676 32.04 Q 171.676 32.67 171.424 33.097 Q 171.172 33.524 170.766 33.783 Q 170.36 34.042 169.87 34.175 Q 169.38 34.308 168.918 34.35 Q 168.358 34.406 168.127 34.588 Q 167.896 34.77 167.896 34.966 Q 167.896 35.218 168.176 35.351 Q 168.456 35.484 168.897 35.568 Q 169.338 35.652 169.842 35.757 Q 170.346 35.862 170.787 36.044 Q 171.228 36.226 171.508 36.555 Q 171.788 36.884 171.788 37.43 Q 171.788 38.032 171.396 38.543 Q 171.004 39.054 170.234 39.369 Q 169.464 39.684 168.344 39.684 Q 167.336 39.684 166.734 39.439 Q 166.132 39.194 165.866 38.809 Q 165.6 38.424 165.6 38.004 Q 165.6 37.332 166.118 36.919 Q 166.636 36.506 167.294 36.296 L 167.294 36.24 Q 167.112 36.128 166.951 35.925 Q 166.79 35.722 166.79 35.4 Q 166.79 35.05 166.972 34.84 Q 167.154 34.63 167.441 34.497 Q 167.728 34.364 168.008 34.266 L 168.008 34.182 Q 167.462 33.944 167.056 33.51 Q 166.65 33.076 166.65 32.278 Q 166.65 31.55 167 30.997 Q 167.35 30.444 167.959 30.136 Q 168.568 29.828 169.324 29.828 Q 169.828 29.828 170.087 29.877 Q 170.346 29.926 170.598 29.996 Z M 170.78 37.948 L 170.78 37.948 Q 170.78 37.528 170.43 37.269 Q 170.08 37.01 169.562 36.856 Q 169.044 36.702 168.519 36.611 Q 167.994 36.52 167.63 36.45 Q 167.28 36.674 166.986 36.961 Q 166.692 37.248 166.692 37.794 Q 166.692 38.354 167.126 38.774 Q 167.56 39.194 168.624 39.194 Q 169.632 39.194 170.206 38.823 Q 170.78 38.452 170.78 37.948 Z M 170.43 31.886 L 170.43 31.886 Q 170.43 31.186 170.164 30.717 Q 169.898 30.248 169.282 30.248 Q 168.68 30.248 168.288 30.752 Q 167.896 31.256 167.896 32.278 Q 167.896 33.006 168.148 33.461 Q 168.4 33.916 169.002 33.916 Q 169.702 33.916 170.066 33.328 Q 170.43 32.74 170.43 31.886 Z " fill="black" /><path d="M 174.865 35.682 L 174.865 35.682 L 174.865 38.396 Q 174.865 38.69 174.924 38.847 Q 174.983 39.004 175.149 39.058 Q 175.316 39.112 175.639 39.112 L 175.639 39.474 L 173.17 39.474 L 173.17 39.112 Q 173.483 39.112 173.64 39.058 Q 173.797 39.004 173.846 38.842 Q 173.895 38.681 173.895 38.377 L 173.895 35.407 Q 173.895 35.133 173.792 35.04 Q 173.689 34.947 173.464 34.947 Q 173.356 34.947 173.273 34.957 Q 173.189 34.966 173.189 34.966 L 173.189 34.594 L 174.473 34.359 L 174.836 34.359 L 174.836 35.162 L 174.904 35.162 Q 175.316 34.79 175.728 34.56 Q 176.139 34.329 176.698 34.329 Q 177.158 34.329 177.447 34.565 Q 177.737 34.8 177.893 35.143 L 177.942 35.143 Q 178.834 34.329 179.657 34.329 Q 180.324 34.329 180.711 34.741 Q 181.098 35.153 181.098 36.044 L 181.098 38.2 Q 181.098 38.534 181.137 38.734 Q 181.176 38.935 181.333 39.024 Q 181.49 39.112 181.843 39.112 L 181.843 39.474 L 179.383 39.474 L 179.383 39.112 Q 179.746 39.112 179.907 39.019 Q 180.069 38.926 180.108 38.725 Q 180.147 38.524 180.147 38.2 L 180.147 36.162 Q 180.147 35.545 179.897 35.3 Q 179.648 35.055 179.256 35.055 Q 178.922 35.055 178.589 35.255 Q 178.256 35.456 178.001 35.652 L 178.001 38.2 Q 178.001 38.563 178.045 38.764 Q 178.089 38.965 178.261 39.038 Q 178.432 39.112 178.795 39.112 L 178.795 39.474 L 176.237 39.474 L 176.237 39.112 Q 176.61 39.112 176.781 39.038 Q 176.953 38.965 177.002 38.764 Q 177.051 38.563 177.051 38.2 L 177.051 36.133 Q 177.051 35.515 176.83 35.285 Q 176.61 35.055 176.227 35.055 Q 175.826 35.055 175.458 35.27 Q 175.091 35.486 174.865 35.682 Z " fill="black" /><path d="M 186.152 34.784 L 186.152 34.784 L 189.974 29.044 Q 190.17 28.764 190.289 28.526 Q 190.408 28.288 190.408 28.12 Q 190.408 27.91 190.226 27.833 Q 190.044 27.756 189.568 27.756 L 189.596 27.336 L 192.62 27.336 L 192.592 27.756 Q 192.214 27.756 191.948 27.868 Q 191.682 27.98 191.409 28.295 Q 191.136 28.61 190.702 29.254 L 185.564 36.604 L 185.102 36.604 L 184.318 29.03 Q 184.234 28.33 184.01 28.043 Q 183.786 27.756 183.226 27.756 L 183.254 27.336 L 186.684 27.336 L 186.642 27.756 Q 186.11 27.756 185.802 27.966 Q 185.494 28.176 185.522 28.652 Q 185.522 28.722 185.543 28.904 Q 185.564 29.086 185.564 29.156 L 185.984 33.146 L 186.082 34.784 Z " fill="black" /><path d="M 190.943 37.505 L 190.943 37.505 L 190.943 37.465 Q 190.6 37.26 190.36 36.931 Q 190.12 36.603 190.12 36.084 Q 190.12 35.535 190.384 35.143 Q 190.649 34.751 191.1 34.54 Q 191.55 34.329 192.109 34.329 Q 192.628 34.329 192.957 34.442 Q 193.285 34.555 193.285 34.555 L 194.726 34.516 L 194.726 35.094 L 193.697 35.074 L 193.697 35.143 Q 193.824 35.319 193.961 35.559 Q 194.098 35.799 194.098 36.231 Q 194.098 36.721 193.839 37.078 Q 193.579 37.436 193.143 37.627 Q 192.707 37.818 192.158 37.818 Q 191.658 37.818 191.217 37.642 Q 191.149 37.769 191.055 38.004 Q 190.962 38.24 190.962 38.406 Q 190.962 38.612 191.202 38.71 Q 191.443 38.808 192.158 38.808 Q 192.687 38.808 193.138 38.832 Q 193.589 38.857 193.922 38.97 Q 194.255 39.082 194.436 39.332 Q 194.618 39.582 194.618 40.043 Q 194.618 40.572 194.348 40.939 Q 194.079 41.307 193.638 41.532 Q 193.197 41.758 192.682 41.861 Q 192.168 41.964 191.668 41.964 Q 190.953 41.964 190.561 41.787 Q 190.169 41.611 190.017 41.336 Q 189.865 41.062 189.865 40.778 Q 189.865 40.503 190.056 40.234 Q 190.247 39.964 190.668 39.572 L 190.668 39.523 Q 190.423 39.396 190.257 39.18 Q 190.09 38.965 190.09 38.759 Q 190.09 38.465 190.35 38.137 Q 190.61 37.808 190.943 37.505 Z M 190.992 39.621 L 190.992 39.621 Q 190.825 39.906 190.766 40.072 Q 190.708 40.239 190.708 40.405 Q 190.708 40.856 191.075 41.086 Q 191.443 41.317 192.217 41.317 Q 192.854 41.317 193.246 41.16 Q 193.638 41.003 193.824 40.783 Q 194.01 40.562 194.01 40.356 Q 194.01 40.092 193.839 39.945 Q 193.667 39.798 193.403 39.734 Q 193.138 39.67 192.844 39.651 Q 192.55 39.631 192.295 39.631 Q 192.227 39.631 192.187 39.631 Q 191.56 39.631 191.33 39.626 Q 191.1 39.621 190.992 39.621 Z M 192.05 34.761 L 192.05 34.761 Q 191.629 34.761 191.369 35.045 Q 191.109 35.329 191.109 36.025 Q 191.109 36.711 191.384 37.064 Q 191.658 37.416 192.158 37.416 Q 192.423 37.416 192.638 37.309 Q 192.854 37.201 192.986 36.917 Q 193.118 36.632 193.118 36.113 Q 193.118 35.447 192.829 35.104 Q 192.54 34.761 192.05 34.761 Z " fill="black" /><path d="M 195.588 37.691 L 195.588 37.691 L 195.902 37.691 Q 196.029 38.259 196.205 38.573 Q 196.382 38.886 196.661 39.009 Q 196.94 39.131 197.342 39.131 Q 197.803 39.131 198.053 38.979 Q 198.303 38.828 198.303 38.445 Q 198.303 38.191 198.18 38.019 Q 198.058 37.848 197.788 37.691 Q 197.519 37.534 197.068 37.328 Q 196.607 37.103 196.279 36.907 Q 195.951 36.711 195.779 36.446 Q 195.608 36.182 195.608 35.78 Q 195.608 35.074 196.083 34.702 Q 196.558 34.329 197.274 34.329 Q 197.705 34.329 198.004 34.437 Q 198.303 34.545 198.479 34.623 L 198.499 34.623 L 198.655 34.378 L 198.93 34.378 L 198.949 36.005 L 198.606 36.005 Q 198.42 35.251 198.087 34.991 Q 197.754 34.731 197.323 34.731 Q 196.872 34.731 196.642 34.927 Q 196.411 35.123 196.411 35.437 Q 196.411 35.692 196.568 35.858 Q 196.725 36.025 197.014 36.167 Q 197.303 36.309 197.705 36.505 Q 198.156 36.721 198.499 36.951 Q 198.842 37.181 199.038 37.47 Q 199.234 37.759 199.234 38.191 Q 199.234 38.71 198.959 39.024 Q 198.685 39.337 198.254 39.469 Q 197.822 39.602 197.352 39.602 Q 196.872 39.602 196.607 39.504 Q 196.343 39.406 196.117 39.318 L 196.078 39.318 L 195.833 39.572 L 195.608 39.572 Z " fill="black" /></g></g></g><circle cx="0.0" cy="-0.0" r="2.6999999999999997" style="stroke:black;fill:white;stroke-width:2.0;stroke-dasharray:-;" /><g><g><g><path d="M -14.686 1.379 L -14.686 1.379 L -10.864 -4.361 Q -10.668 -4.641 -10.549 -4.879 Q -10.43 -5.117 -10.43 -5.285 Q -10.43 -5.495 -10.612 -5.572 Q -10.794 -5.649 -11.27 -5.649 L -11.242 -6.069 L -8.218 -6.069 L -8.246 -5.649 Q -8.624 -5.649 -8.89 -5.537 Q -9.156 -5.425 -9.429 -5.11 Q -9.702 -4.795 -10.136 -4.151 L -15.274 3.199 L -15.736 3.199 L -16.52 -4.375 Q -16.604 -5.075 -16.828 -5.362 Q -17.052 -5.649 -17.612 -5.649 L -17.584 -6.069 L -14.154 -6.069 L -14.196 -5.649 Q -14.728 -5.649 -15.036 -5.439 Q -15.344 -5.229 -15.316 -4.753 Q -15.316 -4.683 -15.295 -4.501 Q -15.274 -4.319 -15.274 -4.249 L -14.854 -0.259 L -14.756 1.379 Z " fill="black" /><path d="M -5.681 6.069 L -5.681 6.069 L -7.974 6.069 L -7.974 5.706 Q -7.69 5.706 -7.582 5.662 Q -7.475 5.618 -7.475 5.51 Q -7.475 5.442 -7.553 5.305 L -8.19 4.383 L -8.445 3.962 L -8.504 3.962 L -9.356 5.128 Q -9.444 5.275 -9.528 5.388 Q -9.611 5.501 -9.611 5.55 Q -9.611 5.706 -9.101 5.706 L -9.101 6.069 L -10.973 6.069 L -10.973 5.706 Q -10.689 5.706 -10.493 5.594 Q -10.297 5.481 -10.052 5.187 L -8.768 3.58 L -9.895 2.031 Q -10.091 1.767 -10.209 1.635 Q -10.326 1.502 -10.459 1.458 Q -10.591 1.414 -10.816 1.414 L -10.816 1.051 L -8.464 1.051 L -8.464 1.404 Q -8.974 1.404 -8.974 1.639 Q -8.974 1.737 -8.856 1.933 L -8.464 2.531 L -8.18 3.031 L -8.112 3.031 L -7.631 2.384 Q -7.416 2.09 -7.328 1.924 Q -7.239 1.757 -7.239 1.659 Q -7.239 1.551 -7.328 1.478 Q -7.416 1.404 -7.68 1.404 L -7.68 1.051 L -5.877 1.051 L -5.877 1.414 Q -6.152 1.414 -6.348 1.556 Q -6.544 1.698 -6.74 1.924 L -7.867 3.335 L -6.553 5.109 Q -6.328 5.432 -6.147 5.569 Q -5.965 5.706 -5.681 5.706 Z " fill="black" /></g></g></g><path d="M 25.2,-0.0 L 25.2,-0.0" style="stroke:black;fill:none;stroke-width:2.0;stroke-dasharray:-;stroke-linecap:round;stroke-linejoin:round;" /><path d="M 34.0 0.0 L 25.200000000000003 5.3999999999999995 L 25.200000000000003 -5.3999999999999995 Z" style="stroke:black;fill:black;stroke-linecap:butt;stroke-linejoin:miter;" /><g><g><g><path d="M 26.302 -15.574 L 26.302 -15.574 L 27.45 -21.09 Q 27.576 -21.636 27.569 -21.951 Q 27.562 -22.266 27.31 -22.392 Q 27.058 -22.518 26.414 -22.518 L 26.498 -22.938 L 30.376 -22.938 L 30.292 -22.518 Q 29.676 -22.518 29.368 -22.392 Q 29.06 -22.266 28.934 -21.951 Q 28.808 -21.636 28.696 -21.09 L 27.548 -15.518 Q 27.506 -15.294 27.478 -15.112 Q 27.45 -14.93 27.45 -14.776 Q 27.45 -14.384 27.681 -14.272 Q 27.912 -14.16 28.57 -14.16 L 28.486 -13.74 L 24.664 -13.74 L 24.748 -14.16 Q 25.322 -14.16 25.609 -14.258 Q 25.896 -14.356 26.036 -14.657 Q 26.176 -14.958 26.302 -15.574 Z " fill="black" /><path d="M 36.021 -10.8 L 36.021 -10.8 L 33.728 -10.8 L 33.728 -11.163 Q 34.012 -11.163 34.12 -11.207 Q 34.227 -11.251 34.227 -11.359 Q 34.227 -11.427 34.149 -11.564 L 33.512 -12.486 L 33.257 -12.907 L 33.198 -12.907 L 32.346 -11.741 Q 32.258 -11.594 32.174 -11.481 Q 32.091 -11.368 32.091 -11.319 Q 32.091 -11.163 32.601 -11.163 L 32.601 -10.8 L 30.729 -10.8 L 30.729 -11.163 Q 31.013 -11.163 31.209 -11.275 Q 31.405 -11.388 31.65 -11.682 L 32.934 -13.289 L 31.807 -14.838 Q 31.611 -15.102 31.493 -15.234 Q 31.376 -15.367 31.243 -15.411 Q 31.111 -15.455 30.886 -15.455 L 30.886 -15.818 L 33.238 -15.818 L 33.238 -15.465 Q 32.728 -15.465 32.728 -15.23 Q 32.728 -15.132 32.846 -14.936 L 33.238 -14.338 L 33.522 -13.838 L 33.59 -13.838 L 34.071 -14.485 Q 34.286 -14.779 34.374 -14.945 Q 34.463 -15.112 34.463 -15.21 Q 34.463 -15.318 34.374 -15.391 Q 34.286 -15.465 34.022 -15.465 L 34.022 -15.818 L 35.825 -15.818 L 35.825 -15.455 Q 35.55 -15.455 35.354 -15.313 Q 35.158 -15.171 34.962 -14.945 L 33.835 -13.534 L 35.149 -11.76 Q 35.374 -11.437 35.555 -11.3 Q 35.737 -11.163 36.021 -11.163 Z " fill="black" /></g></g></g></svg>