<svg xmlns="http://www.w3.org/2000/svg" xmlns:xlink="http://www.w3.org/1999/xlink" xml:lang="en" height="98.16159999999999pt" width="185.98460000000003pt" viewBox="-35.9984 -22.6 185.98460000000003 98.16159999999999"><circle cx="54.0" cy="-0.0" r="18.0" style="stroke:black;fill:none;stroke-width:2.0;stroke-dasharray:-;" /><path d="M 0.0,-0.0 L 18.0,-0.0 L 27.0,-0.0" style="stroke:black;fill:none;stroke-width:2.0;stroke-dasharray:-;stroke-linecap:round;stroke-linejoin:round;" /><path d="M 34.0 0.0 L 27.0 2.6999999999999997 L 27.0 -2.6999999999999997 Z" style="stroke:black;fill:black;stroke-linecap:butt;stroke-linejoin:miter;" /><path d="M 66.72792206135786,-12.727922061357857 L 41.27207793864215,12.727922061357857" style="stroke:black;fill:none;stroke-width:1;stroke-dasharray:-;stroke-linecap:round;stroke-linejoin:round;" /><path d="M 66.72792206135786,12.727922061357857 L 41.27207793864215,-12.727922061357857" style="stroke:black;fill:none;stroke-width:1;stroke-dasharray:-;stroke-linecap:round;stroke-linejoin:round;" /><path d="M 72.0,-0.0 L 90.0,-0.0 L 99.0,-0.0" style="stroke:black;fill:none;stroke-width:2.0;stroke-dasharray:-;stroke-linecap:round;stroke-linejoin:round;" /><path d="M 106.0 0.0 L 99.0 2.6999999999999997 L 99.0 -2.6999999999999997 Z" style="stroke:black;fill:black;stroke-linecap:butt;stroke-linejoin:miter;" /><path d="M 54.0,27.0 L 54.0,36.0 L 53.99999999999999,54.0" style="stroke:black;fill:none;stroke-width:2.0;stroke-dasharray:-;stroke-linecap:round;stroke-linejoin:round;" /><path d="M 54.0 20.0 L 56.7 27.0 L 51.3 27.0 Z" style="stroke:black;fill:black;stroke-linecap:butt;stroke-linejoin:miter;" /><g><g><g><path d="M -28.132 -3.024 L -28.132 -3.024 L -28.454 -0.84 L -28.79 -0.84 Q -28.818 -1.652 -29.161 -2.128 Q -29.504 -2.604 -30.12 -2.604 Q -30.666 -2.604 -30.904 -2.31 Q -31.142 -2.016 -31.142 -1.708 Q -31.142 -1.414 -30.939 -1.141 Q -30.736 -0.868 -30.428 -0.581 Q -30.12 -0.294 -29.812 0.042 Q -29.364 0.518 -29.035 0.973 Q -28.706 1.428 -28.706 2.1 Q -28.706 2.506 -28.909 2.905 Q -29.112 3.304 -29.574 3.57 Q -30.036 3.836 -30.834 3.836 Q -31.492 3.836 -31.891 3.675 Q -32.29 3.514 -32.444 3.458 L -32.486 3.458 L -32.822 3.836 L -33.13 3.836 L -32.766 1.498 L -32.416 1.498 Q -32.304 2.408 -31.989 2.884 Q -31.674 3.36 -30.96 3.36 Q -30.47 3.36 -30.169 3.122 Q -29.868 2.884 -29.868 2.338 Q -29.868 1.764 -30.183 1.365 Q -30.498 0.966 -30.904 0.588 Q -31.184 0.308 -31.471 0.042 Q -31.758 -0.224 -31.947 -0.553 Q -32.136 -0.882 -32.136 -1.316 Q -32.136 -2.03 -31.66 -2.527 Q -31.184 -3.024 -30.232 -3.024 Q -29.672 -3.024 -29.301 -2.87 Q -28.93 -2.716 -28.804 -2.646 L -28.762 -2.646 L -28.398 -3.024 Z " fill="black" /><path d="M -25.031 6.259 L -25.031 6.259 L -25.031 6.622 L -27.52 6.622 L -27.52 6.259 Q -27.177 6.259 -27.026 6.186 Q -26.874 6.112 -26.834 5.951 Q -26.795 5.789 -26.795 5.524 L -26.795 2.565 Q -26.795 2.232 -26.903 2.163 Q -27.011 2.094 -27.266 2.094 Q -27.393 2.094 -27.471 2.104 Q -27.55 2.114 -27.55 2.114 L -27.55 1.722 L -26.237 1.506 L -25.835 1.506 L -25.835 5.524 Q -25.835 5.809 -25.791 5.97 Q -25.747 6.132 -25.575 6.196 Q -25.404 6.259 -25.031 6.259 Z M -26.325 -0.659 L -26.325 -0.659 Q -26.041 -0.659 -25.849 -0.463 Q -25.658 -0.267 -25.658 -0.013 Q -25.658 0.223 -25.849 0.419 Q -26.041 0.615 -26.325 0.615 Q -26.599 0.615 -26.78 0.419 Q -26.962 0.223 -26.962 -0.013 Q -26.962 -0.267 -26.78 -0.463 Q -26.599 -0.659 -26.325 -0.659 Z " fill="black" /><path d="M -19.21 3.339 L -19.21 3.339 L -19.21 5.534 Q -19.21 5.809 -19.161 5.97 Q -19.112 6.132 -18.945 6.201 Q -18.779 6.269 -18.426 6.269 L -18.426 6.622 L -20.945 6.622 L -20.945 6.269 Q -20.572 6.269 -20.406 6.201 Q -20.239 6.132 -20.2 5.97 Q -20.161 5.809 -20.161 5.534 L -20.161 3.662 Q -20.161 3.006 -20.312 2.697 Q -20.464 2.388 -20.695 2.29 Q -20.925 2.192 -21.16 2.192 Q -21.582 2.192 -21.9 2.408 Q -22.219 2.624 -22.454 2.82 L -22.454 5.534 Q -22.454 5.809 -22.41 5.97 Q -22.366 6.132 -22.199 6.201 Q -22.032 6.269 -21.67 6.269 L -21.67 6.622 L -24.139 6.622 L -24.139 6.269 Q -23.796 6.269 -23.645 6.201 Q -23.493 6.132 -23.453 5.97 Q -23.414 5.809 -23.414 5.534 L -23.414 2.555 Q -23.414 2.281 -23.517 2.188 Q -23.62 2.094 -23.845 2.094 Q -23.963 2.094 -24.041 2.104 Q -24.12 2.114 -24.12 2.114 L -24.12 1.742 L -22.807 1.506 L -22.483 1.506 L -22.483 2.31 L -22.415 2.31 Q -21.993 1.928 -21.606 1.702 Q -21.219 1.477 -20.729 1.477 Q -20.151 1.477 -19.822 1.737 Q -19.494 1.996 -19.352 2.418 Q -19.21 2.839 -19.21 3.339 Z " fill="black" /><path d="M -17.404 -0.098 L -17.404 -0.098 Q -17.404 -2.436 -16.389 -4.088 Q -15.374 -5.74 -13.68 -6.622 L -13.456 -6.258 Q -14.982 -5.222 -15.619 -3.731 Q -16.256 -2.24 -16.256 -0.098 Q -16.256 2.044 -15.619 3.535 Q -14.982 5.026 -13.456 6.062 L -13.68 6.426 Q -15.374 5.544 -16.389 3.892 Q -17.404 2.24 -17.404 -0.098 Z " fill="black" /><path d="M -8.598 -2.856 L -8.598 -2.856 L -8.71 -2.31 L -10.124 -2.31 L -10.95 1.862 Q -10.95 1.862 -10.999 2.121 Q -11.048 2.38 -11.048 2.562 Q -11.048 2.674 -10.999 2.765 Q -10.95 2.856 -10.81 2.856 Q -10.502 2.856 -10.243 2.674 Q -9.984 2.492 -9.62 2.016 L -9.34 2.226 Q -9.536 2.492 -9.816 2.87 Q -10.096 3.248 -10.488 3.528 Q -10.88 3.808 -11.44 3.808 Q -11.874 3.808 -12.084 3.598 Q -12.294 3.388 -12.294 3.066 Q -12.294 2.884 -12.252 2.625 Q -12.21 2.366 -12.196 2.268 L -11.244 -2.31 L -12.042 -2.31 L -11.986 -2.604 Q -11.538 -2.842 -11.237 -3.066 Q -10.936 -3.29 -10.663 -3.654 Q -10.39 -4.018 -10.04 -4.62 L -9.62 -4.62 L -10.012 -2.856 Z " fill="black" /><path d="M -3.936 -0.098 L -3.936 -0.098 Q -3.936 2.24 -4.951 3.892 Q -5.966 5.544 -7.66 6.426 L -7.884 6.062 Q -6.344 5.026 -5.714 3.535 Q -5.084 2.044 -5.084 -0.098 Q -5.084 -2.24 -5.714 -3.731 Q -6.344 -5.222 -7.884 -6.258 L -7.66 -6.622 Q -5.966 -5.74 -4.951 -4.088 Q -3.936 -2.436 -3.936 -0.098 Z " fill="black" /></g></g></g><g><g><g><path d="M 116.892 -3.083 L 116.892 -3.083 L 116.57 -0.899 L 116.234 -0.899 Q 116.206 -1.711 115.863 -2.187 Q 115.52 -2.663 114.904 -2.663 Q 114.358 -2.663 114.12 -2.369 Q 113.882 -2.075 113.882 -1.767 Q 113.882 -1.473 114.085 -1.2 Q 114.288 -0.927 114.596 -0.64 Q 114.904 -0.353 115.212 -0.017 Q 115.66 0.459 115.989 0.914 Q 116.318 1.369 116.318 2.041 Q 116.318 2.447 116.115 2.846 Q 115.912 3.245 115.45 3.511 Q 114.988 3.777 114.19 3.777 Q 113.532 3.777 113.133 3.616 Q 112.734 3.455 112.58 3.399 L 112.538 3.399 L 112.202 3.777 L 111.894 3.777 L 112.258 1.439 L 112.608 1.439 Q 112.72 2.349 113.035 2.825 Q 113.35 3.301 114.064 3.301 Q 114.554 3.301 114.855 3.063 Q 115.156 2.825 115.156 2.279 Q 115.156 1.705 114.841 1.306 Q 114.526 0.907 114.12 0.529 Q 113.84 0.249 113.553 -0.017 Q 113.266 -0.283 113.077 -0.612 Q 112.888 -0.941 112.888 -1.375 Q 112.888 -2.089 113.364 -2.586 Q 113.84 -3.083 114.792 -3.083 Q 115.352 -3.083 115.723 -2.929 Q 116.094 -2.775 116.22 -2.705 L 116.262 -2.705 L 116.626 -3.083 Z " fill="black" /><path d="M 120.032 1.418 L 120.032 1.418 Q 120.767 1.418 121.316 1.737 Q 121.865 2.055 122.164 2.629 Q 122.463 3.202 122.463 3.976 Q 122.463 4.907 122.149 5.505 Q 121.835 6.103 121.287 6.392 Q 120.738 6.681 120.032 6.681 Q 119.317 6.681 118.763 6.382 Q 118.209 6.083 117.901 5.485 Q 117.592 4.887 117.592 3.986 Q 117.592 3.221 117.896 2.643 Q 118.2 2.065 118.748 1.742 Q 119.297 1.418 120.032 1.418 Z M 120.013 1.869 L 120.013 1.869 Q 119.366 1.869 118.998 2.393 Q 118.631 2.918 118.631 3.927 Q 118.631 5.172 119.008 5.686 Q 119.385 6.201 120.062 6.201 Q 120.493 6.191 120.797 5.985 Q 121.1 5.779 121.262 5.294 Q 121.424 4.809 121.424 3.976 Q 121.424 2.976 121.081 2.423 Q 120.738 1.869 120.013 1.869 Z " fill="black" /><path d="M 129.127 6.063 L 129.127 6.063 L 129.127 6.436 L 127.804 6.612 L 127.49 6.612 L 127.49 5.848 L 127.392 5.848 Q 127.02 6.181 126.637 6.421 Q 126.255 6.661 125.716 6.661 Q 124.991 6.661 124.609 6.22 Q 124.227 5.779 124.227 4.691 L 124.227 2.584 Q 124.227 2.183 124.085 2.09 Q 123.942 1.996 123.492 1.996 L 123.492 1.644 L 124.854 1.457 L 125.177 1.457 L 125.177 4.564 Q 125.177 5.113 125.305 5.417 Q 125.432 5.72 125.648 5.838 Q 125.863 5.956 126.118 5.956 Q 126.549 5.956 126.838 5.774 Q 127.127 5.593 127.441 5.338 L 127.441 2.584 Q 127.441 2.183 127.265 2.09 Q 127.088 1.996 126.588 1.996 L 126.588 1.644 L 128.049 1.457 L 128.392 1.457 L 128.392 5.426 Q 128.392 5.72 128.446 5.858 Q 128.499 5.995 128.637 6.029 Q 128.774 6.063 129.019 6.063 Z " fill="black" /><path d="M 132.949 5.583 L 132.949 5.583 L 133.174 5.769 Q 132.958 6.063 132.782 6.264 Q 132.606 6.465 132.38 6.573 Q 132.155 6.681 131.802 6.681 Q 131.234 6.681 130.974 6.357 Q 130.714 6.034 130.714 5.319 L 130.714 2.026 L 130.097 2.026 L 130.097 1.732 Q 130.45 1.477 130.744 1.11 Q 131.038 0.742 131.332 0.056 L 131.675 0.056 L 131.665 1.546 L 132.909 1.546 L 132.909 2.026 L 131.665 2.026 L 131.665 4.995 Q 131.665 5.544 131.768 5.774 Q 131.871 6.005 132.184 6.005 Q 132.468 6.005 132.615 5.902 Q 132.762 5.799 132.949 5.583 Z " fill="black" /><path d="M 134.059 -0.157 L 134.059 -0.157 Q 134.059 -2.495 135.074 -4.147 Q 136.089 -5.799 137.783 -6.681 L 138.007 -6.317 Q 136.481 -5.281 135.844 -3.79 Q 135.207 -2.299 135.207 -0.157 Q 135.207 1.985 135.844 3.476 Q 136.481 4.967 138.007 6.003 L 137.783 6.367 Q 136.089 5.485 135.074 3.833 Q 134.059 2.181 134.059 -0.157 Z " fill="black" /><path d="M 142.865 -2.915 L 142.865 -2.915 L 142.753 -2.369 L 141.339 -2.369 L 140.513 1.803 Q 140.513 1.803 140.464 2.062 Q 140.415 2.321 140.415 2.503 Q 140.415 2.615 140.464 2.706 Q 140.513 2.797 140.653 2.797 Q 140.961 2.797 141.22 2.615 Q 141.479 2.433 141.843 1.957 L 142.123 2.167 Q 141.927 2.433 141.647 2.811 Q 141.367 3.189 140.975 3.469 Q 140.583 3.749 140.023 3.749 Q 139.589 3.749 139.379 3.539 Q 139.169 3.329 139.169 3.007 Q 139.169 2.825 139.211 2.566 Q 139.253 2.307 139.267 2.209 L 140.219 -2.369 L 139.421 -2.369 L 139.477 -2.663 Q 139.925 -2.901 140.226 -3.125 Q 140.527 -3.349 140.8 -3.713 Q 141.073 -4.077 141.423 -4.679 L 141.843 -4.679 L 141.451 -2.915 Z " fill="black" /><path d="M 147.527 -0.157 L 147.527 -0.157 Q 147.527 2.181 146.512 3.833 Q 145.497 5.485 143.803 6.367 L 143.579 6.003 Q 145.119 4.967 145.749 3.476 Q 146.379 1.985 146.379 -0.157 Q 146.379 -2.299 145.749 -3.79 Q 145.119 -5.281 143.579 -6.317 L 143.803 -6.681 Q 145.497 -5.799 146.512 -4.147 Q 147.527 -2.495 147.527 -0.157 Z " fill="black" /></g></g></g><g><g><g><path d="M 42.047 61.198 L 42.047 61.198 L 41.725 63.382 L 41.389 63.382 Q 41.361 62.57 41.018 62.094 Q 40.675 61.618 40.059 61.618 Q 39.513 61.618 39.275 61.912 Q 39.037 62.206 39.037 62.514 Q 39.037 62.808 39.24 63.081 Q 39.443 63.354 39.751 63.641 Q 40.059 63.928 40.367 64.264 Q 40.815 64.74 41.144 65.195 Q 41.473 65.65 41.473 66.322 Q 41.473 66.728 41.27 67.127 Q 41.067 67.526 40.605 67.792 Q 40.143 68.058 39.345 68.058 Q 38.687 68.058 38.288 67.897 Q 37.889 67.736 37.735 67.68 L 37.693 67.68 L 37.357 68.058 L 37.049 68.058 L 37.413 65.72 L 37.763 65.72 Q 37.875 66.63 38.19 67.106 Q 38.505 67.582 39.219 67.582 Q 39.709 67.582 40.01 67.344 Q 40.311 67.106 40.311 66.56 Q 40.311 65.986 39.996 65.587 Q 39.681 65.188 39.275 64.81 Q 38.995 64.53 38.708 64.264 Q 38.421 63.998 38.232 63.669 Q 38.043 63.34 38.043 62.906 Q 38.043 62.192 38.519 61.695 Q 38.995 61.198 39.947 61.198 Q 40.507 61.198 40.878 61.352 Q 41.249 61.506 41.375 61.576 L 41.417 61.576 L 41.781 61.198 Z " fill="black" /><path d="M 48.392 68.757 L 48.392 68.757 L 48.137 70.844 L 42.747 70.844 L 42.747 70.472 Q 43.188 70.472 43.394 70.398 Q 43.6 70.325 43.664 70.114 Q 43.727 69.903 43.727 69.492 L 43.727 65.405 Q 43.727 64.974 43.664 64.743 Q 43.6 64.513 43.394 64.42 Q 43.188 64.327 42.747 64.327 L 42.747 63.955 L 45.805 63.955 L 45.805 64.327 Q 45.374 64.327 45.148 64.415 Q 44.923 64.503 44.84 64.739 Q 44.756 64.974 44.756 65.415 L 44.756 69.766 Q 44.756 70.148 44.913 70.251 Q 45.07 70.354 45.462 70.354 L 46.089 70.354 Q 46.609 70.354 46.922 70.285 Q 47.236 70.217 47.417 70.045 Q 47.598 69.874 47.716 69.56 Q 47.834 69.247 47.981 68.757 Z " fill="black" /><path d="M 56.173 67.434 L 56.173 67.434 Q 56.173 68.531 55.752 69.325 Q 55.331 70.119 54.556 70.55 Q 53.782 70.981 52.714 70.981 Q 51.656 70.981 50.881 70.55 Q 50.107 70.119 49.686 69.315 Q 49.264 68.512 49.264 67.394 Q 49.264 66.326 49.686 65.527 Q 50.107 64.729 50.886 64.283 Q 51.665 63.837 52.714 63.837 Q 53.782 63.837 54.556 64.302 Q 55.331 64.768 55.752 65.576 Q 56.173 66.385 56.173 67.434 Z M 54.929 67.296 L 54.929 67.296 Q 54.929 65.866 54.326 65.101 Q 53.723 64.337 52.704 64.337 Q 51.695 64.337 51.102 65.111 Q 50.509 65.885 50.509 67.326 Q 50.509 68.825 51.048 69.639 Q 51.587 70.452 52.724 70.452 Q 53.861 70.452 54.395 69.663 Q 54.929 68.874 54.929 67.296 Z " fill="black" /><path d="M 57.44 64.124 L 57.44 64.124 Q 57.44 61.786 58.455 60.134 Q 59.47 58.482 61.164 57.6 L 61.388 57.964 Q 59.862 59 59.225 60.491 Q 58.588 61.982 58.588 64.124 Q 58.588 66.266 59.225 67.757 Q 59.862 69.248 61.388 70.284 L 61.164 70.648 Q 59.47 69.766 58.455 68.114 Q 57.44 66.462 57.44 64.124 Z " fill="black" /><path d="M 66.246 61.366 L 66.246 61.366 L 66.135 61.912 L 64.721 61.912 L 63.894 66.084 Q 63.894 66.084 63.845 66.343 Q 63.796 66.602 63.796 66.784 Q 63.796 66.896 63.845 66.987 Q 63.894 67.078 64.034 67.078 Q 64.343 67.078 64.602 66.896 Q 64.861 66.714 65.224 66.238 L 65.504 66.448 Q 65.308 66.714 65.028 67.092 Q 64.748 67.47 64.356 67.75 Q 63.964 68.03 63.404 68.03 Q 62.97 68.03 62.76 67.82 Q 62.55 67.61 62.55 67.288 Q 62.55 67.106 62.592 66.847 Q 62.634 66.588 62.648 66.49 L 63.6 61.912 L 62.802 61.912 L 62.858 61.618 Q 63.306 61.38 63.607 61.156 Q 63.908 60.932 64.181 60.568 Q 64.454 60.204 64.804 59.602 L 65.224 59.602 L 64.832 61.366 Z " fill="black" /><path d="M 70.908 64.124 L 70.908 64.124 Q 70.908 66.462 69.893 68.114 Q 68.878 69.766 67.184 70.648 L 66.96 70.284 Q 68.5 69.248 69.13 67.757 Q 69.76 66.266 69.76 64.124 Q 69.76 61.982 69.13 60.491 Q 68.5 59 66.96 57.964 L 67.184 57.6 Q 68.878 58.482 69.893 60.134 Q 70.908 61.786 70.908 64.124 Z " fill="black" /></g></g></g></svg>