<svg xmlns="http://www.w3.org/2000/svg" xmlns:xlink="http://www.w3.org/1999/xlink" xml:lang="en" height="135.68399999999997pt" width="519.0390776213334pt" viewBox="-4.6 -41.083999999999996 519.0390776213334 135.68399999999997"><circle cx="18.0" cy="-0.0" r="18.0" style="stroke:black;fill:none;stroke-width:2.0;stroke-dasharray:-;" /><circle cx="342.0" cy="-0.0" r="18.0" style="stroke:black;fill:none;stroke-width:2.0;stroke-dasharray:-;" /><path d="M 7.2,-4.4087284769304716e-16 L 8.336842105263157,-1.168918089136861 L 9.473684210526317,-2.2111657656828045 L 10.610526315789475,-3.013799321745103 L 11.747368421052633,-3.4898409573815896 L 12.88421052631579,-3.5877041748240117 L 14.021052631578947,-3.2967839759582067 L 15.157894736842104,-2.648606078423274 L 16.294736842105262,-1.7134106149334647 L 17.431578947368422,-0.5925405250106421 L 18.56842105263158,0.5925405250106421 L 19.705263157894738,1.7134106149334647 L 20.84210526315789,2.6486060784232732 L 21.978947368421053,3.2967839759582063 L 23.11578947368421,3.5877041748240117 L 24.25263157894737,3.48984095738159 L 25.389473684210525,3.013799321745103 L 26.52631578947368,2.2111657656828045 L 27.66315789473684,1.168918089136861 L 28.8,4.4087284769304716e-16" style="stroke:black;fill:none;stroke-width:2.0;stroke-dasharray:-;stroke-linecap:round;stroke-linejoin:round;" /><path d="M 36.0,-0.0 L 72.0,-0.0 L 99.0,-0.0" style="stroke:black;fill:none;stroke-width:2.0;stroke-dasharray:-;stroke-linecap:round;stroke-linejoin:round;" /><path d="M 106.0 0.0 L 99.0 2.6999999999999997 L 99.0 -2.6999999999999997 Z" style="stroke:black;fill:black;stroke-linecap:butt;stroke-linejoin:miter;" /><path d="M 108.0,-0.0 L 108.0,-18.0 L 144.0,-18.0 L 144.0,18.0 L 108.0,18.0 L 108.0,-0.0" style="stroke:black;fill:none;stroke-width:2.0;stroke-dasharray:-;stroke-linecap:round;stroke-linejoin:round;" /><path d="M 144.0,-0.0 L 180.0,-0.0 M 175.5,-9.0 L 184.5,9.0 M 180.0,-0.0 L 216.0,-0.0" style="stroke:black;fill:none;stroke-width:2.0;stroke-dasharray:-;stroke-linecap:round;stroke-linejoin:round;" /><path d="M 216.0,-0.0 L 216.0,-18.0 L 252.0,-18.0 L 252.0,18.0 L 216.0,18.0 L 216.0,-0.0" style="stroke:black;fill:none;stroke-width:2.0;stroke-dasharray:-;stroke-linecap:round;stroke-linejoin:round;" /><path d="M 223.20000000000002,-4.4087284769304716e-16 L 224.33684210526314,-1.168918089136861 L 225.47368421052633,-2.2111657656828045 L 226.61052631578949,-3.013799321745103 L 227.7473684210526,-3.4898409573815896 L 228.8842105263158,-3.5877041748240117 L 230.02105263157895,-3.2967839759582067 L 231.15789473684208,-2.648606078423274 L 232.29473684210527,-1.7134106149334647 L 233.43157894736842,-0.5925405250106421 L 234.56842105263158,0.5925405250106421 L 235.70526315789473,1.7134106149334647 L 236.8421052631579,2.6486060784232732 L 237.97894736842105,3.2967839759582063 L 239.1157894736842,3.5877041748240117 L 240.2526315789474,3.48984095738159 L 241.38947368421051,3.013799321745103 L 242.52631578947367,2.2111657656828045 L 243.66315789473686,1.168918089136861 L 244.79999999999998,4.4087284769304716e-16" style="stroke:black;fill:none;stroke-width:2.0;stroke-dasharray:-;stroke-linecap:round;stroke-linejoin:round;" /><path d="M 223.20000000000002,-9.0 L 224.33684210526314,-10.16891808913686 L 225.47368421052633,-11.211165765682804 L 226.61052631578949,-12.013799321745104 L 227.7473684210526,-12.489840957381588 L 228.8842105263158,-12.587704174824012 L 230.02105263157895,-12.296783975958206 L 231.15789473684208,-11.648606078423274 L 232.29473684210527,-10.713410614933464 L 233.43157894736842,-9.592540525010643 L 234.56842105263158,-8.407459474989357 L 235.70526315789473,-7.286589385066535 L 236.8421052631579,-6.351393921576727 L 237.97894736842105,-5.703216024041794 L 239.1157894736842,-5.412295825175989 L 240.2526315789474,-5.51015904261841 L 241.38947368421051,-5.986200678254896 L 242.52631578947367,-6.7888342343171955 L 243.66315789473686,-7.831081910863139 L 244.79999999999998,-9.0" style="stroke:black;fill:none;stroke-width:2.0;stroke-dasharray:-;stroke-linecap:round;stroke-linejoin:round;" /><path d="M 223.20000000000002,9.0 L 224.33684210526314,7.831081910863139 L 225.47368421052633,6.7888342343171955 L 226.61052631578949,5.986200678254896 L 227.7473684210526,5.510159042618411 L 228.8842105263158,5.412295825175989 L 230.02105263157895,5.703216024041793 L 231.15789473684208,6.351393921576726 L 232.29473684210527,7.286589385066535 L 233.43157894736842,8.407459474989357 L 234.56842105263158,9.592540525010643 L 235.70526315789473,10.713410614933464 L 236.8421052631579,11.648606078423274 L 237.97894736842105,12.296783975958206 L 239.1157894736842,12.587704174824012 L 240.2526315789474,12.489840957381592 L 241.38947368421051,12.013799321745104 L 242.52631578947367,11.211165765682804 L 243.66315789473686,10.16891808913686 L 244.79999999999998,9.0" style="stroke:black;fill:none;stroke-width:2.0;stroke-dasharray:-;stroke-linecap:round;stroke-linejoin:round;" /><path d="M 232.20000000000002,-6.12 L 235.79999999999998,-11.88" style="stroke:black;fill:none;stroke-width:2.0;stroke-dasharray:-;stroke-linecap:round;stroke-linejoin:round;" /><path d="M 232.20000000000002,2.88 L 235.79999999999998,-2.88" style="stroke:black;fill:none;stroke-width:2.0;stroke-dasharray:-;stroke-linecap:round;stroke-linejoin:round;" /><path d="M 252.0,-0.0 L 288.0,-0.0 M 283.5,-9.0 L 292.5,9.0 M 288.0,-0.0 L 324.0,-0.0" style="stroke:black;fill:none;stroke-width:2.0;stroke-dasharray:-;stroke-linecap:round;stroke-linejoin:round;" /><path d="M 331.2,-4.4087284769304716e-16 L 332.33684210526314,-1.168918089136861 L 333.47368421052636,-2.2111657656828045 L 334.61052631578946,-3.013799321745103 L 335.7473684210526,-3.4898409573815896 L 336.88421052631577,-3.5877041748240117 L 338.021052631579,-3.2967839759582067 L 339.1578947368421,-2.648606078423274 L 340.2947368421053,-1.7134106149334647 L 341.43157894736845,-0.5925405250106421 L 342.56842105263155,0.5925405250106421 L 343.7052631578947,1.7134106149334647 L 344.8421052631579,2.6486060784232732 L 345.978947368421,3.2967839759582063 L 347.11578947368423,3.5877041748240117 L 348.2526315789474,3.48984095738159 L 349.38947368421054,3.013799321745103 L 350.52631578947364,2.2111657656828045 L 351.66315789473686,1.168918089136861 L 352.8,4.4087284769304716e-16" style="stroke:black;fill:none;stroke-width:2.0;stroke-dasharray:-;stroke-linecap:round;stroke-linejoin:round;" /><path d="M 360.0,-0.0 L 378.0,-0.0 L 396.0,-0.0" style="stroke:black;fill:none;stroke-width:2.0;stroke-dasharray:-;stroke-linecap:round;stroke-linejoin:round;" /><path d="M 396.0,-0.0 L 414.0,-0.0 L 423.0,-0.0" style="stroke:black;fill:none;stroke-width:2.0;stroke-dasharray:-;stroke-linecap:round;stroke-linejoin:round;" /><path d="M 430.0 0.0 L 423.0 2.6999999999999997 L 423.0 -2.6999999999999997 Z" style="stroke:black;fill:black;stroke-linecap:butt;stroke-linejoin:miter;" /><path d="M 396.0,-0.0 L 396.0,36.0 L 396.0,72.0" style="stroke:black;fill:none;stroke-width:2.0;stroke-dasharray:-;stroke-linecap:round;stroke-linejoin:round;" /><path d="M 396.0,72.0 L 342.0,71.99999999999999 L 297.0,71.99999999999999" style="stroke:black;fill:none;stroke-width:2.0;stroke-dasharray:-;stroke-linecap:round;stroke-linejoin:round;" /><path d="M 290.0 71.99999999999999 L 297.0 69.29999999999998 L 297.0 74.69999999999999 Z" style="stroke:black;fill:black;stroke-linecap:butt;stroke-linejoin:miter;" /><path d="M 288.0,71.99999999999999 L 288.0,89.99999999999999 L 252.0,89.99999999999999 L 252.0,53.999999999999986 L 288.0,53.999999999999986 L 288.0,71.99999999999999" style="stroke:black;fill:none;stroke-width:2.0;stroke-dasharray:-;stroke-linecap:round;stroke-linejoin:round;" /><path d="M 252.0,71.99999999999997 L 189.0,71.99999999999997 L 126.0,71.99999999999996" style="stroke:black;fill:none;stroke-width:2.0;stroke-dasharray:-;stroke-linecap:round;stroke-linejoin:round;" /><path d="M 126.0,71.99999999999996 L 126.0,44.999999999999986 L 126.0,27.0" style="stroke:black;fill:none;stroke-width:2.0;stroke-dasharray:-;stroke-linecap:round;stroke-linejoin:round;" /><path d="M 126.0 20.0 L 128.7 27.0 L 123.3 27.0 Z" style="stroke:black;fill:black;stroke-linecap:butt;stroke-linejoin:miter;" /><g><g><g><path d="M 65.033 -18.688 L 65.033 -18.688 L 66.237 -18.688 Q 66.363 -19.276 66.51 -19.822 Q 66.657 -20.368 66.895 -20.802 Q 67.077 -21.138 67.343 -21.432 Q 67.609 -21.726 68.022 -21.915 Q 68.435 -22.104 69.037 -22.104 Q 69.681 -22.104 70.024 -21.817 Q 70.367 -21.53 70.367 -21.082 Q 70.367 -20.774 70.199 -20.62 Q 70.031 -20.466 69.807 -20.466 Q 69.527 -20.466 69.401 -20.627 Q 69.275 -20.788 69.247 -21.012 Q 69.205 -21.278 69.142 -21.488 Q 69.079 -21.698 68.827 -21.698 Q 68.295 -21.698 68.001 -21.138 Q 67.707 -20.578 67.553 -19.682 L 67.385 -18.688 L 68.715 -18.688 L 68.631 -18.114 L 67.315 -18.114 L 66.517 -13.34 Q 66.461 -12.976 66.342 -12.43 Q 66.223 -11.884 66.013 -11.289 Q 65.803 -10.694 65.502 -10.176 Q 65.201 -9.658 64.767 -9.329 Q 64.333 -9 63.759 -9 Q 63.087 -9 62.8 -9.322 Q 62.513 -9.644 62.513 -10.008 Q 62.513 -10.302 62.66 -10.498 Q 62.807 -10.694 63.073 -10.694 Q 63.395 -10.694 63.507 -10.505 Q 63.619 -10.316 63.647 -10.071 Q 63.675 -9.826 63.731 -9.637 Q 63.787 -9.448 63.983 -9.448 Q 64.263 -9.448 64.473 -9.812 Q 64.683 -10.176 64.837 -10.715 Q 64.991 -11.254 65.089 -11.786 Q 65.187 -12.318 65.243 -12.668 L 66.153 -18.114 L 64.977 -18.114 Z " fill="black" /><path d="M 69.831 -14.326 L 69.831 -14.326 L 69.831 -13.267 L 69.889 -13.267 Q 70.282 -13.816 70.59 -14.105 Q 70.899 -14.394 71.261 -14.394 Q 71.889 -14.394 71.889 -13.777 Q 71.889 -13.434 71.737 -13.297 Q 71.585 -13.159 71.409 -13.159 Q 71.232 -13.159 71.09 -13.257 Q 70.948 -13.355 70.85 -13.453 Q 70.752 -13.551 70.703 -13.551 Q 70.546 -13.551 70.296 -13.287 Q 70.046 -13.022 69.85 -12.689 L 69.85 -10.337 Q 69.85 -9.857 70.061 -9.715 Q 70.272 -9.573 70.811 -9.573 L 70.811 -9.21 L 68.145 -9.21 L 68.145 -9.573 Q 68.478 -9.573 68.635 -9.631 Q 68.792 -9.69 68.841 -9.842 Q 68.89 -9.994 68.89 -10.268 L 68.89 -13.11 Q 68.89 -13.424 68.836 -13.581 Q 68.782 -13.738 68.478 -13.738 Q 68.341 -13.738 68.243 -13.728 Q 68.145 -13.718 68.145 -13.718 L 68.145 -14.081 L 69.468 -14.326 Z " fill="black" /><path d="M 76.799 -10.67 L 76.799 -10.67 L 77.034 -10.484 Q 76.828 -10.112 76.573 -9.798 Q 76.318 -9.484 75.946 -9.298 Q 75.574 -9.112 75.005 -9.112 Q 74.388 -9.112 73.854 -9.391 Q 73.32 -9.671 72.996 -10.249 Q 72.673 -10.827 72.673 -11.709 Q 72.673 -12.581 72.977 -13.169 Q 73.28 -13.757 73.8 -14.056 Q 74.319 -14.355 74.956 -14.355 Q 75.838 -14.355 76.421 -13.742 Q 77.004 -13.13 77.024 -11.915 L 73.574 -11.915 Q 73.574 -11.248 73.824 -10.812 Q 74.074 -10.376 74.466 -10.166 Q 74.858 -9.955 75.289 -9.955 Q 75.73 -9.955 75.995 -10.048 Q 76.26 -10.141 76.441 -10.308 Q 76.622 -10.474 76.799 -10.67 Z M 73.574 -12.366 L 73.574 -12.366 L 75.975 -12.366 Q 75.975 -12.758 75.848 -13.105 Q 75.721 -13.453 75.476 -13.674 Q 75.231 -13.894 74.848 -13.894 Q 74.29 -13.894 73.961 -13.502 Q 73.633 -13.11 73.574 -12.366 Z " fill="black" /><path d="M 77.994 -14.228 L 77.994 -14.228 L 78.778 -14.228 Q 78.778 -14.747 78.852 -15.11 Q 78.925 -15.472 79.111 -15.835 Q 79.337 -16.188 79.655 -16.408 Q 79.974 -16.629 80.562 -16.629 Q 81.061 -16.629 81.414 -16.438 Q 81.767 -16.246 81.767 -15.874 Q 81.767 -15.639 81.635 -15.516 Q 81.502 -15.394 81.326 -15.394 Q 81.111 -15.394 80.988 -15.516 Q 80.865 -15.639 80.669 -15.845 Q 80.532 -16.041 80.424 -16.114 Q 80.317 -16.188 80.17 -16.188 Q 79.895 -16.188 79.807 -15.923 Q 79.719 -15.658 79.719 -15.012 L 79.719 -14.228 L 80.993 -14.228 L 80.993 -13.747 L 79.719 -13.747 L 79.719 -10.513 Q 79.719 -10.112 79.807 -9.911 Q 79.895 -9.71 80.13 -9.641 Q 80.366 -9.573 80.797 -9.573 L 80.797 -9.21 L 77.906 -9.21 L 77.906 -9.573 Q 78.278 -9.573 78.465 -9.641 Q 78.651 -9.71 78.714 -9.911 Q 78.778 -10.112 78.778 -10.513 L 78.778 -13.747 L 77.994 -13.747 Z " fill="black" /></g></g></g><g><g><g><path d="M 117.117 4.592 L 117.117 4.592 L 117.117 -3.598 L 114.289 -3.598 L 114.289 -4.606 L 121.149 -4.606 L 121.149 -3.598 L 118.307 -3.598 L 118.307 4.592 Z " fill="black" /><path d="M 122.843 4.592 L 122.843 4.592 L 122.843 -4.606 L 125.195 -4.606 Q 127.365 -4.606 128.499 -3.423 Q 129.633 -2.24 129.633 -0.042 Q 129.633 2.156 128.506 3.374 Q 127.379 4.592 125.251 4.592 Z M 124.047 3.612 L 124.047 3.612 L 125.111 3.612 Q 126.763 3.612 127.582 2.653 Q 128.401 1.694 128.401 -0.042 Q 128.401 -1.778 127.582 -2.702 Q 126.763 -3.626 125.111 -3.626 L 124.047 -3.626 Z " fill="black" /><path d="M 135.219 4.76 L 135.219 4.76 Q 134.057 4.76 133.126 4.193 Q 132.195 3.626 131.663 2.562 Q 131.131 1.498 131.131 0.028 Q 131.131 -1.47 131.677 -2.541 Q 132.223 -3.612 133.154 -4.186 Q 134.085 -4.76 135.233 -4.76 Q 136.213 -4.76 136.843 -4.403 Q 137.473 -4.046 137.865 -3.626 L 137.207 -2.856 Q 136.395 -3.724 135.275 -3.724 Q 134.421 -3.724 133.763 -3.276 Q 133.105 -2.828 132.734 -1.995 Q 132.363 -1.162 132.363 0 Q 132.363 1.134 132.72 1.967 Q 133.077 2.8 133.728 3.255 Q 134.379 3.71 135.261 3.71 Q 135.933 3.71 136.465 3.437 Q 136.997 3.164 137.445 2.688 L 138.089 3.43 Q 137.529 4.06 136.829 4.41 Q 136.129 4.76 135.219 4.76 Z " fill="black" /></g></g></g><g><g><g><path d="M 148.857 -23.688 L 148.857 -23.688 L 148.857 -33.404 L 149.781 -33.404 L 149.879 -32.634 L 149.921 -32.634 Q 150.369 -32.998 150.894 -33.278 Q 151.419 -33.558 152.091 -33.558 Q 152.875 -33.558 153.442 -33.145 Q 154.009 -32.732 154.317 -31.99 Q 154.625 -31.248 154.625 -30.254 Q 154.625 -29.092 154.226 -28.273 Q 153.827 -27.454 153.19 -27.027 Q 152.553 -26.6 151.811 -26.6 Q 151.349 -26.6 150.894 -26.789 Q 150.439 -26.978 149.949 -27.384 L 149.977 -26.208 L 149.977 -23.688 Z M 151.601 -27.552 L 151.601 -27.552 Q 152.399 -27.552 152.931 -28.245 Q 153.463 -28.938 153.463 -30.24 Q 153.463 -31.29 153.057 -31.955 Q 152.651 -32.62 151.783 -32.62 Q 151.349 -32.62 150.936 -32.417 Q 150.523 -32.214 149.977 -31.71 L 149.977 -28.238 Q 150.425 -27.86 150.838 -27.706 Q 151.251 -27.552 151.601 -27.552 Z " fill="black" /><path d="M 156.375 -26.768 L 156.375 -26.768 L 156.375 -36.484 L 157.495 -36.484 L 157.495 -33.838 L 157.467 -32.466 Q 157.929 -32.914 158.44 -33.236 Q 158.951 -33.558 159.679 -33.558 Q 160.673 -33.558 161.17 -32.9 Q 161.667 -32.242 161.667 -30.968 L 161.667 -26.768 L 160.533 -26.768 L 160.533 -30.828 Q 160.533 -31.752 160.246 -32.165 Q 159.959 -32.578 159.315 -32.578 Q 158.797 -32.578 158.391 -32.326 Q 157.985 -32.074 157.495 -31.57 L 157.495 -26.768 Z " fill="black" /><path d="M 165.265 -26.6 L 165.265 -26.6 Q 164.453 -26.6 163.9 -27.097 Q 163.347 -27.594 163.347 -28.49 Q 163.347 -29.582 164.313 -30.163 Q 165.279 -30.744 167.393 -30.968 Q 167.393 -31.402 167.281 -31.78 Q 167.169 -32.158 166.868 -32.396 Q 166.567 -32.634 166.021 -32.634 Q 165.475 -32.634 164.971 -32.41 Q 164.467 -32.186 164.075 -31.934 L 163.627 -32.704 Q 164.089 -33.012 164.761 -33.285 Q 165.433 -33.558 166.217 -33.558 Q 167.421 -33.558 167.967 -32.823 Q 168.513 -32.088 168.513 -30.842 L 168.513 -26.768 L 167.589 -26.768 L 167.491 -27.566 L 167.463 -27.566 Q 166.987 -27.174 166.441 -26.887 Q 165.895 -26.6 165.265 -26.6 Z M 165.601 -27.51 L 165.601 -27.51 Q 166.077 -27.51 166.497 -27.741 Q 166.917 -27.972 167.393 -28.378 L 167.393 -30.226 Q 165.769 -30.03 165.104 -29.624 Q 164.439 -29.218 164.439 -28.56 Q 164.439 -28.014 164.782 -27.762 Q 165.125 -27.51 165.601 -27.51 Z " fill="black" /><path d="M 172.363 -26.6 L 172.363 -26.6 Q 171.607 -26.6 170.963 -26.866 Q 170.319 -27.132 169.857 -27.524 L 170.403 -28.266 Q 170.851 -27.916 171.306 -27.699 Q 171.761 -27.482 172.321 -27.482 Q 172.993 -27.482 173.322 -27.783 Q 173.651 -28.084 173.651 -28.49 Q 173.651 -28.84 173.441 -29.071 Q 173.231 -29.302 172.888 -29.463 Q 172.545 -29.624 172.139 -29.764 Q 171.677 -29.946 171.222 -30.177 Q 170.767 -30.408 170.473 -30.772 Q 170.179 -31.136 170.179 -31.696 Q 170.179 -32.48 170.788 -33.019 Q 171.397 -33.558 172.419 -33.558 Q 173.119 -33.558 173.63 -33.334 Q 174.141 -33.11 174.505 -32.83 L 173.973 -32.102 Q 173.623 -32.354 173.259 -32.522 Q 172.895 -32.69 172.447 -32.69 Q 171.845 -32.69 171.551 -32.403 Q 171.257 -32.116 171.257 -31.752 Q 171.257 -31.43 171.46 -31.227 Q 171.663 -31.024 171.999 -30.884 Q 172.335 -30.744 172.713 -30.59 Q 173.161 -30.422 173.623 -30.205 Q 174.085 -29.988 174.4 -29.61 Q 174.715 -29.232 174.715 -28.602 Q 174.715 -27.776 174.099 -27.188 Q 173.483 -26.6 172.363 -26.6 Z " fill="black" /><path d="M 178.957 -26.6 L 178.957 -26.6 Q 178.075 -26.6 177.354 -27.013 Q 176.633 -27.426 176.206 -28.203 Q 175.779 -28.98 175.779 -30.058 Q 175.779 -31.15 176.199 -31.934 Q 176.619 -32.718 177.312 -33.138 Q 178.005 -33.558 178.817 -33.558 Q 179.993 -33.558 180.686 -32.718 Q 181.379 -31.878 181.379 -30.45 Q 181.379 -30.268 181.365 -30.107 Q 181.351 -29.946 181.323 -29.82 L 176.885 -29.82 Q 176.955 -28.756 177.543 -28.126 Q 178.131 -27.496 179.083 -27.496 Q 179.545 -27.496 179.951 -27.643 Q 180.357 -27.79 180.721 -28.028 L 181.113 -27.3 Q 180.679 -27.006 180.147 -26.803 Q 179.615 -26.6 178.957 -26.6 Z M 176.885 -30.618 L 176.885 -30.618 L 180.399 -30.618 Q 180.399 -31.612 179.972 -32.137 Q 179.545 -32.662 178.803 -32.662 Q 178.075 -32.662 177.536 -32.144 Q 176.997 -31.626 176.885 -30.618 Z " fill="black" /><path d="M 188.967 -26.6 L 188.967 -26.6 Q 188.085 -26.6 187.364 -27.013 Q 186.643 -27.426 186.216 -28.203 Q 185.789 -28.98 185.789 -30.058 Q 185.789 -31.15 186.209 -31.934 Q 186.629 -32.718 187.322 -33.138 Q 188.015 -33.558 188.827 -33.558 Q 190.003 -33.558 190.696 -32.718 Q 191.389 -31.878 191.389 -30.45 Q 191.389 -30.268 191.375 -30.107 Q 191.361 -29.946 191.333 -29.82 L 186.895 -29.82 Q 186.965 -28.756 187.553 -28.126 Q 188.141 -27.496 189.093 -27.496 Q 189.555 -27.496 189.961 -27.643 Q 190.367 -27.79 190.731 -28.028 L 191.123 -27.3 Q 190.689 -27.006 190.157 -26.803 Q 189.625 -26.6 188.967 -26.6 Z M 186.895 -30.618 L 186.895 -30.618 L 190.409 -30.618 Q 190.409 -31.612 189.982 -32.137 Q 189.555 -32.662 188.813 -32.662 Q 188.085 -32.662 187.546 -32.144 Q 187.007 -31.626 186.895 -30.618 Z " fill="black" /><path d="M 192.999 -26.768 L 192.999 -26.768 L 192.999 -33.404 L 193.923 -33.404 L 194.021 -32.186 L 194.063 -32.186 Q 194.427 -32.844 194.903 -33.201 Q 195.379 -33.558 195.995 -33.558 Q 196.149 -33.558 196.317 -33.53 Q 196.485 -33.502 196.639 -33.432 L 196.429 -32.438 Q 196.247 -32.494 196.121 -32.522 Q 195.995 -32.55 195.841 -32.55 Q 195.379 -32.55 194.917 -32.214 Q 194.455 -31.878 194.119 -31.024 L 194.119 -26.768 Z " fill="black" /><path d="M 197.703 -26.768 L 197.703 -26.768 L 197.703 -33.404 L 198.627 -33.404 L 198.725 -32.186 L 198.767 -32.186 Q 199.131 -32.844 199.607 -33.201 Q 200.083 -33.558 200.699 -33.558 Q 200.853 -33.558 201.021 -33.53 Q 201.189 -33.502 201.343 -33.432 L 201.133 -32.438 Q 200.951 -32.494 200.825 -32.522 Q 200.699 -32.55 200.545 -32.55 Q 200.083 -32.55 199.621 -32.214 Q 199.159 -31.878 198.823 -31.024 L 198.823 -26.768 Z " fill="black" /><path d="M 204.969 -26.6 L 204.969 -26.6 Q 204.171 -26.6 203.471 -27.013 Q 202.771 -27.426 202.344 -28.203 Q 201.917 -28.98 201.917 -30.086 Q 201.917 -31.192 202.344 -31.962 Q 202.771 -32.732 203.471 -33.145 Q 204.171 -33.558 204.969 -33.558 Q 205.781 -33.558 206.481 -33.145 Q 207.181 -32.732 207.608 -31.962 Q 208.035 -31.192 208.035 -30.086 Q 208.035 -28.98 207.608 -28.203 Q 207.181 -27.426 206.481 -27.013 Q 205.781 -26.6 204.969 -26.6 Z M 204.969 -27.538 L 204.969 -27.538 Q 205.823 -27.538 206.348 -28.238 Q 206.873 -28.938 206.873 -30.086 Q 206.873 -31.22 206.348 -31.92 Q 205.823 -32.62 204.969 -32.62 Q 204.129 -32.62 203.604 -31.92 Q 203.079 -31.22 203.079 -30.086 Q 203.079 -28.938 203.604 -28.238 Q 204.129 -27.538 204.969 -27.538 Z " fill="black" /><path d="M 209.757 -26.768 L 209.757 -26.768 L 209.757 -33.404 L 210.681 -33.404 L 210.779 -32.186 L 210.821 -32.186 Q 211.185 -32.844 211.661 -33.201 Q 212.137 -33.558 212.753 -33.558 Q 212.907 -33.558 213.075 -33.53 Q 213.243 -33.502 213.397 -33.432 L 213.187 -32.438 Q 213.005 -32.494 212.879 -32.522 Q 212.753 -32.55 212.599 -32.55 Q 212.137 -32.55 211.675 -32.214 Q 211.213 -31.878 210.877 -31.024 L 210.877 -26.768 Z " fill="black" /></g><g><path d="M 167.659 -12.768 L 167.659 -12.768 L 165.825 -19.404 L 166.973 -19.404 L 167.953 -15.568 Q 168.065 -15.092 168.156 -14.637 Q 168.247 -14.182 168.331 -13.72 L 168.387 -13.72 Q 168.499 -14.182 168.611 -14.644 Q 168.723 -15.106 168.835 -15.568 L 169.857 -19.404 L 170.935 -19.404 L 171.985 -15.568 Q 172.097 -15.092 172.209 -14.637 Q 172.321 -14.182 172.433 -13.72 L 172.489 -13.72 Q 172.601 -14.182 172.699 -14.637 Q 172.797 -15.092 172.895 -15.568 L 173.861 -19.404 L 174.925 -19.404 L 173.147 -12.768 L 171.789 -12.768 L 170.837 -16.324 Q 170.725 -16.8 170.62 -17.269 Q 170.515 -17.738 170.403 -18.242 L 170.347 -18.242 Q 170.235 -17.738 170.13 -17.262 Q 170.025 -16.786 169.885 -16.31 L 168.975 -12.768 Z " fill="black" /><path d="M 178.915 -12.6 L 178.915 -12.6 Q 178.117 -12.6 177.417 -13.013 Q 176.717 -13.426 176.29 -14.203 Q 175.863 -14.98 175.863 -16.086 Q 175.863 -17.192 176.29 -17.962 Q 176.717 -18.732 177.417 -19.145 Q 178.117 -19.558 178.915 -19.558 Q 179.727 -19.558 180.427 -19.145 Q 181.127 -18.732 181.554 -17.962 Q 181.981 -17.192 181.981 -16.086 Q 181.981 -14.98 181.554 -14.203 Q 181.127 -13.426 180.427 -13.013 Q 179.727 -12.6 178.915 -12.6 Z M 178.915 -13.538 L 178.915 -13.538 Q 179.769 -13.538 180.294 -14.238 Q 180.819 -14.938 180.819 -16.086 Q 180.819 -17.22 180.294 -17.92 Q 179.769 -18.62 178.915 -18.62 Q 178.075 -18.62 177.55 -17.92 Q 177.025 -17.22 177.025 -16.086 Q 177.025 -14.938 177.55 -14.238 Q 178.075 -13.538 178.915 -13.538 Z " fill="black" /><path d="M 183.703 -12.768 L 183.703 -12.768 L 183.703 -19.404 L 184.627 -19.404 L 184.725 -18.186 L 184.767 -18.186 Q 185.131 -18.844 185.607 -19.201 Q 186.083 -19.558 186.699 -19.558 Q 186.853 -19.558 187.021 -19.53 Q 187.189 -19.502 187.343 -19.432 L 187.133 -18.438 Q 186.951 -18.494 186.825 -18.522 Q 186.699 -18.55 186.545 -18.55 Q 186.083 -18.55 185.621 -18.214 Q 185.159 -17.878 184.823 -17.024 L 184.823 -12.768 Z " fill="black" /><path d="M 190.605 -12.6 L 190.605 -12.6 Q 189.807 -12.6 189.212 -13.02 Q 188.617 -13.44 188.281 -14.203 Q 187.945 -14.966 187.945 -15.988 Q 187.945 -17.15 188.344 -17.941 Q 188.743 -18.732 189.401 -19.145 Q 190.059 -19.558 190.815 -19.558 Q 191.361 -19.558 191.781 -19.362 Q 192.201 -19.166 192.635 -18.802 L 192.593 -19.936 L 192.593 -22.652 L 193.713 -22.652 L 193.713 -12.768 L 192.789 -12.768 L 192.691 -13.552 L 192.649 -13.552 Q 192.257 -13.16 191.76 -12.88 Q 191.263 -12.6 190.605 -12.6 Z M 190.885 -13.552 L 190.885 -13.552 Q 191.361 -13.552 191.767 -13.783 Q 192.173 -14.014 192.593 -14.448 L 192.593 -17.934 Q 192.173 -18.312 191.788 -18.466 Q 191.403 -18.62 191.039 -18.62 Q 190.213 -18.62 189.653 -17.934 Q 189.093 -17.248 189.093 -16.002 Q 189.093 -14.896 189.562 -14.224 Q 190.031 -13.552 190.885 -13.552 Z " fill="black" /></g></g></g><g><g><g><path d="M 272.831 -26.6 L 272.831 -26.6 Q 271.851 -26.6 271.424 -27.216 Q 270.997 -27.832 270.997 -28.826 L 270.997 -32.41 L 270.031 -32.41 L 270.031 -33.25 L 271.053 -33.32 L 271.193 -35.266 L 272.117 -35.266 L 272.117 -33.32 L 273.895 -33.32 L 273.895 -32.41 L 272.117 -32.41 L 272.117 -28.798 Q 272.117 -28.21 272.341 -27.867 Q 272.565 -27.524 273.097 -27.524 Q 273.321 -27.524 273.524 -27.58 Q 273.727 -27.636 273.881 -27.706 L 274.105 -26.852 Q 273.825 -26.754 273.51 -26.677 Q 273.195 -26.6 272.831 -26.6 Z " fill="black" /><path d="M 277.283 -26.6 L 277.283 -26.6 Q 276.275 -26.6 275.785 -27.272 Q 275.295 -27.944 275.295 -29.19 L 275.295 -33.404 L 276.415 -33.404 L 276.415 -29.344 Q 276.415 -28.434 276.709 -28.007 Q 277.003 -27.58 277.647 -27.58 Q 278.165 -27.58 278.557 -27.846 Q 278.949 -28.112 279.425 -28.7 L 279.425 -33.404 L 280.545 -33.404 L 280.545 -26.768 L 279.607 -26.768 L 279.523 -27.804 L 279.481 -27.804 Q 278.991 -27.23 278.48 -26.915 Q 277.969 -26.6 277.283 -26.6 Z " fill="black" /><path d="M 282.757 -26.768 L 282.757 -26.768 L 282.757 -33.404 L 283.681 -33.404 L 283.779 -32.452 L 283.821 -32.452 Q 284.297 -32.914 284.815 -33.236 Q 285.333 -33.558 286.061 -33.558 Q 287.055 -33.558 287.552 -32.9 Q 288.049 -32.242 288.049 -30.968 L 288.049 -26.768 L 286.915 -26.768 L 286.915 -30.828 Q 286.915 -31.752 286.628 -32.165 Q 286.341 -32.578 285.697 -32.578 Q 285.179 -32.578 284.773 -32.326 Q 284.367 -32.074 283.877 -31.57 L 283.877 -26.768 Z " fill="black" /><path d="M 290.163 -26.768 L 290.163 -26.768 L 290.163 -33.404 L 291.283 -33.404 L 291.283 -26.768 Z M 290.737 -34.762 L 290.737 -34.762 Q 290.415 -34.762 290.191 -34.972 Q 289.967 -35.182 289.967 -35.49 Q 289.967 -35.812 290.191 -36.015 Q 290.415 -36.218 290.737 -36.218 Q 291.059 -36.218 291.283 -36.015 Q 291.507 -35.812 291.507 -35.49 Q 291.507 -35.182 291.283 -34.972 Q 291.059 -34.762 290.737 -34.762 Z " fill="black" /><path d="M 293.509 -26.768 L 293.509 -26.768 L 293.509 -33.404 L 294.433 -33.404 L 294.531 -32.452 L 294.573 -32.452 Q 295.049 -32.914 295.567 -33.236 Q 296.085 -33.558 296.813 -33.558 Q 297.807 -33.558 298.304 -32.9 Q 298.801 -32.242 298.801 -30.968 L 298.801 -26.768 L 297.667 -26.768 L 297.667 -30.828 Q 297.667 -31.752 297.38 -32.165 Q 297.093 -32.578 296.449 -32.578 Q 295.931 -32.578 295.525 -32.326 Q 295.119 -32.074 294.629 -31.57 L 294.629 -26.768 Z " fill="black" /><path d="M 303.155 -23.562 L 303.155 -23.562 Q 301.937 -23.562 301.181 -24.052 Q 300.425 -24.542 300.425 -25.396 Q 300.425 -25.886 300.677 -26.285 Q 300.929 -26.684 301.391 -26.992 L 301.391 -27.048 Q 301.139 -27.202 300.964 -27.475 Q 300.789 -27.748 300.789 -28.112 Q 300.789 -28.56 301.027 -28.875 Q 301.265 -29.19 301.531 -29.372 L 301.531 -29.414 Q 301.195 -29.68 300.929 -30.142 Q 300.663 -30.604 300.663 -31.234 Q 300.663 -31.934 301.006 -32.459 Q 301.349 -32.984 301.916 -33.271 Q 302.483 -33.558 303.141 -33.558 Q 303.421 -33.558 303.666 -33.509 Q 303.911 -33.46 304.093 -33.39 L 306.389 -33.39 L 306.389 -32.522 L 305.045 -32.522 Q 305.269 -32.298 305.409 -31.948 Q 305.549 -31.598 305.549 -31.136 Q 305.549 -30.45 305.22 -29.939 Q 304.891 -29.428 304.359 -29.148 Q 303.827 -28.868 303.197 -28.868 Q 302.637 -28.868 302.161 -29.092 Q 301.979 -28.952 301.86 -28.777 Q 301.741 -28.602 301.741 -28.322 Q 301.741 -28 301.993 -27.797 Q 302.245 -27.594 302.889 -27.594 L 304.177 -27.594 Q 306.473 -27.594 306.473 -26.012 Q 306.473 -25.326 306.067 -24.773 Q 305.661 -24.22 304.919 -23.891 Q 304.177 -23.562 303.155 -23.562 Z M 303.253 -24.332 L 303.253 -24.332 Q 304.247 -24.332 304.814 -24.773 Q 305.381 -25.214 305.381 -25.816 Q 305.381 -26.278 305.031 -26.474 Q 304.681 -26.67 304.065 -26.67 L 302.917 -26.67 Q 302.735 -26.67 302.511 -26.691 Q 302.287 -26.712 302.063 -26.768 Q 301.713 -26.502 301.552 -26.201 Q 301.391 -25.9 301.391 -25.592 Q 301.391 -25.018 301.902 -24.675 Q 302.413 -24.332 303.253 -24.332 Z M 303.141 -29.624 L 303.141 -29.624 Q 303.715 -29.624 304.128 -30.051 Q 304.541 -30.478 304.541 -31.206 Q 304.541 -31.92 304.135 -32.333 Q 303.729 -32.746 303.141 -32.746 Q 302.567 -32.746 302.154 -32.34 Q 301.741 -31.934 301.741 -31.206 Q 301.741 -30.478 302.161 -30.051 Q 302.581 -29.624 303.141 -29.624 Z " fill="black" /></g><g><path d="M 275.659 -12.768 L 275.659 -12.768 L 273.825 -19.404 L 274.973 -19.404 L 275.953 -15.568 Q 276.065 -15.092 276.156 -14.637 Q 276.247 -14.182 276.331 -13.72 L 276.387 -13.72 Q 276.499 -14.182 276.611 -14.644 Q 276.723 -15.106 276.835 -15.568 L 277.857 -19.404 L 278.935 -19.404 L 279.985 -15.568 Q 280.097 -15.092 280.209 -14.637 Q 280.321 -14.182 280.433 -13.72 L 280.489 -13.72 Q 280.601 -14.182 280.699 -14.637 Q 280.797 -15.092 280.895 -15.568 L 281.861 -19.404 L 282.925 -19.404 L 281.147 -12.768 L 279.789 -12.768 L 278.837 -16.324 Q 278.725 -16.8 278.62 -17.269 Q 278.515 -17.738 278.403 -18.242 L 278.347 -18.242 Q 278.235 -17.738 278.13 -17.262 Q 278.025 -16.786 277.885 -16.31 L 276.975 -12.768 Z " fill="black" /><path d="M 286.915 -12.6 L 286.915 -12.6 Q 286.117 -12.6 285.417 -13.013 Q 284.717 -13.426 284.29 -14.203 Q 283.863 -14.98 283.863 -16.086 Q 283.863 -17.192 284.29 -17.962 Q 284.717 -18.732 285.417 -19.145 Q 286.117 -19.558 286.915 -19.558 Q 287.727 -19.558 288.427 -19.145 Q 289.127 -18.732 289.554 -17.962 Q 289.981 -17.192 289.981 -16.086 Q 289.981 -14.98 289.554 -14.203 Q 289.127 -13.426 288.427 -13.013 Q 287.727 -12.6 286.915 -12.6 Z M 286.915 -13.538 L 286.915 -13.538 Q 287.769 -13.538 288.294 -14.238 Q 288.819 -14.938 288.819 -16.086 Q 288.819 -17.22 288.294 -17.92 Q 287.769 -18.62 286.915 -18.62 Q 286.075 -18.62 285.55 -17.92 Q 285.025 -17.22 285.025 -16.086 Q 285.025 -14.938 285.55 -14.238 Q 286.075 -13.538 286.915 -13.538 Z " fill="black" /><path d="M 291.703 -12.768 L 291.703 -12.768 L 291.703 -19.404 L 292.627 -19.404 L 292.725 -18.186 L 292.767 -18.186 Q 293.131 -18.844 293.607 -19.201 Q 294.083 -19.558 294.699 -19.558 Q 294.853 -19.558 295.021 -19.53 Q 295.189 -19.502 295.343 -19.432 L 295.133 -18.438 Q 294.951 -18.494 294.825 -18.522 Q 294.699 -18.55 294.545 -18.55 Q 294.083 -18.55 293.621 -18.214 Q 293.159 -17.878 292.823 -17.024 L 292.823 -12.768 Z " fill="black" /><path d="M 298.605 -12.6 L 298.605 -12.6 Q 297.807 -12.6 297.212 -13.02 Q 296.617 -13.44 296.281 -14.203 Q 295.945 -14.966 295.945 -15.988 Q 295.945 -17.15 296.344 -17.941 Q 296.743 -18.732 297.401 -19.145 Q 298.059 -19.558 298.815 -19.558 Q 299.361 -19.558 299.781 -19.362 Q 300.201 -19.166 300.635 -18.802 L 300.593 -19.936 L 300.593 -22.652 L 301.713 -22.652 L 301.713 -12.768 L 300.789 -12.768 L 300.691 -13.552 L 300.649 -13.552 Q 300.257 -13.16 299.76 -12.88 Q 299.263 -12.6 298.605 -12.6 Z M 298.885 -13.552 L 298.885 -13.552 Q 299.361 -13.552 299.767 -13.783 Q 300.173 -14.014 300.593 -14.448 L 300.593 -17.934 Q 300.173 -18.312 299.788 -18.466 Q 299.403 -18.62 299.039 -18.62 Q 298.213 -18.62 297.653 -17.934 Q 297.093 -17.248 297.093 -16.002 Q 297.093 -14.896 297.562 -14.224 Q 298.031 -13.552 298.885 -13.552 Z " fill="black" /></g></g></g><g><g><g><path d="M 330.674 -25.368 L 330.674 -25.368 L 330.674 -34.566 L 333.026 -34.566 Q 335.196 -34.566 336.33 -33.383 Q 337.464 -32.2 337.464 -30.002 Q 337.464 -27.804 336.337 -26.586 Q 335.21 -25.368 333.082 -25.368 Z M 331.878 -26.348 L 331.878 -26.348 L 332.942 -26.348 Q 334.594 -26.348 335.413 -27.307 Q 336.232 -28.266 336.232 -30.002 Q 336.232 -31.738 335.413 -32.662 Q 334.594 -33.586 332.942 -33.586 L 331.878 -33.586 Z " fill="black" /><path d="M 343.05 -25.2 L 343.05 -25.2 Q 341.888 -25.2 340.957 -25.767 Q 340.026 -26.334 339.494 -27.398 Q 338.962 -28.462 338.962 -29.932 Q 338.962 -31.43 339.508 -32.501 Q 340.054 -33.572 340.985 -34.146 Q 341.916 -34.72 343.064 -34.72 Q 344.044 -34.72 344.674 -34.363 Q 345.304 -34.006 345.696 -33.586 L 345.038 -32.816 Q 344.226 -33.684 343.106 -33.684 Q 342.252 -33.684 341.594 -33.236 Q 340.936 -32.788 340.565 -31.955 Q 340.194 -31.122 340.194 -29.96 Q 340.194 -28.826 340.551 -27.993 Q 340.908 -27.16 341.559 -26.705 Q 342.21 -26.25 343.092 -26.25 Q 343.764 -26.25 344.296 -26.523 Q 344.828 -26.796 345.276 -27.272 L 345.92 -26.53 Q 345.36 -25.9 344.66 -25.55 Q 343.96 -25.2 343.05 -25.2 Z " fill="black" /><path d="M 351.142 -25.2 L 351.142 -25.2 Q 349.966 -25.2 349.063 -25.781 Q 348.16 -26.362 347.649 -27.44 Q 347.138 -28.518 347.138 -30.002 Q 347.138 -31.472 347.649 -32.529 Q 348.16 -33.586 349.063 -34.153 Q 349.966 -34.72 351.142 -34.72 Q 352.332 -34.72 353.235 -34.153 Q 354.138 -33.586 354.649 -32.529 Q 355.16 -31.472 355.16 -30.002 Q 355.16 -28.532 354.649 -27.454 Q 354.138 -26.376 353.235 -25.788 Q 352.332 -25.2 351.142 -25.2 Z M 351.142 -26.25 L 351.142 -26.25 Q 351.982 -26.25 352.605 -26.712 Q 353.228 -27.174 353.571 -28.021 Q 353.914 -28.868 353.914 -30.002 Q 353.914 -31.71 353.158 -32.697 Q 352.402 -33.684 351.142 -33.684 Q 349.882 -33.684 349.126 -32.697 Q 348.37 -31.71 348.37 -30.002 Q 348.37 -28.868 348.713 -28.021 Q 349.056 -27.174 349.679 -26.712 Q 350.302 -26.25 351.142 -26.25 Z " fill="black" /></g></g></g><circle cx="396.0" cy="-0.0" r="2.6999999999999997" style="stroke:black;fill:black;stroke-width:2.0;stroke-dasharray:-;" /><g><g><g><path d="M 438.26 -3.136 L 438.26 -3.136 L 439.464 -3.136 Q 439.59 -3.724 439.737 -4.27 Q 439.884 -4.816 440.122 -5.25 Q 440.304 -5.586 440.57 -5.88 Q 440.836 -6.174 441.249 -6.363 Q 441.662 -6.552 442.264 -6.552 Q 442.908 -6.552 443.251 -6.265 Q 443.594 -5.978 443.594 -5.53 Q 443.594 -5.222 443.426 -5.068 Q 443.258 -4.914 443.034 -4.914 Q 442.754 -4.914 442.628 -5.075 Q 442.502 -5.236 442.474 -5.46 Q 442.432 -5.726 442.369 -5.936 Q 442.306 -6.146 442.054 -6.146 Q 441.522 -6.146 441.228 -5.586 Q 440.934 -5.026 440.78 -4.13 L 440.612 -3.136 L 441.942 -3.136 L 441.858 -2.562 L 440.542 -2.562 L 439.744 2.212 Q 439.688 2.576 439.569 3.122 Q 439.45 3.668 439.24 4.263 Q 439.03 4.858 438.729 5.376 Q 438.428 5.894 437.994 6.223 Q 437.56 6.552 436.986 6.552 Q 436.314 6.552 436.027 6.23 Q 435.74 5.908 435.74 5.544 Q 435.74 5.25 435.887 5.054 Q 436.034 4.858 436.3 4.858 Q 436.622 4.858 436.734 5.047 Q 436.846 5.236 436.874 5.481 Q 436.902 5.726 436.958 5.915 Q 437.014 6.104 437.21 6.104 Q 437.49 6.104 437.7 5.74 Q 437.91 5.376 438.064 4.837 Q 438.218 4.298 438.316 3.766 Q 438.414 3.234 438.47 2.884 L 439.38 -2.562 L 438.204 -2.562 Z " fill="black" /><path d="M 443.92 1.197 L 443.92 1.197 Q 444.655 1.197 445.204 1.516 Q 445.753 1.834 446.052 2.407 Q 446.351 2.981 446.351 3.755 Q 446.351 4.686 446.037 5.284 Q 445.723 5.881 445.175 6.171 Q 444.626 6.46 443.92 6.46 Q 443.205 6.46 442.651 6.161 Q 442.097 5.862 441.789 5.264 Q 441.48 4.666 441.48 3.765 Q 441.48 3 441.784 2.422 Q 442.088 1.844 442.636 1.52 Q 443.185 1.197 443.92 1.197 Z M 443.901 1.648 L 443.901 1.648 Q 443.254 1.648 442.886 2.172 Q 442.519 2.696 442.519 3.706 Q 442.519 4.95 442.896 5.465 Q 443.273 5.979 443.95 5.979 Q 444.381 5.97 444.685 5.764 Q 444.988 5.558 445.15 5.073 Q 445.312 4.588 445.312 3.755 Q 445.312 2.755 444.969 2.202 Q 444.626 1.648 443.901 1.648 Z " fill="black" /><path d="M 453.015 5.842 L 453.015 5.842 L 453.015 6.215 L 451.692 6.391 L 451.378 6.391 L 451.378 5.627 L 451.28 5.627 Q 450.908 5.96 450.525 6.2 Q 450.143 6.44 449.604 6.44 Q 448.879 6.44 448.497 5.999 Q 448.115 5.558 448.115 4.47 L 448.115 2.363 Q 448.115 1.961 447.972 1.868 Q 447.83 1.775 447.38 1.775 L 447.38 1.422 L 448.742 1.236 L 449.065 1.236 L 449.065 4.343 Q 449.065 4.892 449.193 5.195 Q 449.32 5.499 449.536 5.617 Q 449.751 5.734 450.006 5.734 Q 450.437 5.734 450.726 5.553 Q 451.015 5.372 451.329 5.117 L 451.329 2.363 Q 451.329 1.961 451.153 1.868 Q 450.976 1.775 450.476 1.775 L 450.476 1.422 L 451.937 1.236 L 452.28 1.236 L 452.28 5.205 Q 452.28 5.499 452.333 5.636 Q 452.387 5.774 452.525 5.808 Q 452.662 5.842 452.907 5.842 Z " fill="black" /><path d="M 456.837 5.362 L 456.837 5.362 L 457.062 5.548 Q 456.846 5.842 456.67 6.043 Q 456.494 6.244 456.268 6.352 Q 456.043 6.46 455.69 6.46 Q 455.122 6.46 454.862 6.136 Q 454.602 5.813 454.602 5.097 L 454.602 1.805 L 453.985 1.805 L 453.985 1.511 Q 454.338 1.256 454.632 0.888 Q 454.926 0.521 455.22 -0.165 L 455.563 -0.165 L 455.553 1.324 L 456.797 1.324 L 456.797 1.805 L 455.553 1.805 L 455.553 4.774 Q 455.553 5.323 455.656 5.553 Q 455.759 5.783 456.072 5.783 Q 456.356 5.783 456.503 5.681 Q 456.65 5.578 456.837 5.362 Z " fill="black" /><path d="M 471.713 -1.176 L 471.713 -1.176 L 463.369 -1.176 L 463.369 -2.128 L 471.713 -2.128 Z M 471.713 1.68 L 471.713 1.68 L 463.369 1.68 L 463.369 0.742 L 471.713 0.742 Z " fill="black" /><path d="M 489.021 -5.796 L 489.021 -5.796 L 488.937 -5.376 Q 488.559 -5.376 488.356 -5.306 Q 488.153 -5.236 487.999 -5.096 Q 487.873 -4.984 487.747 -4.823 Q 487.621 -4.662 487.509 -4.354 Q 487.397 -4.046 487.285 -3.5 L 485.857 3.514 L 485.395 3.514 L 481.279 -4.004 L 481.209 -4.004 L 480.117 1.316 Q 479.977 2.016 480.005 2.373 Q 480.033 2.73 480.292 2.856 Q 480.551 2.982 481.069 2.982 L 480.985 3.402 L 477.765 3.402 L 477.849 2.982 Q 478.395 2.982 478.689 2.863 Q 478.983 2.744 479.137 2.38 Q 479.291 2.016 479.431 1.316 L 480.677 -4.732 Q 480.439 -5.124 480.201 -5.25 Q 479.963 -5.376 479.515 -5.376 L 479.599 -5.796 L 481.797 -5.796 L 485.577 1.092 L 485.647 1.092 L 486.613 -3.57 Q 486.739 -4.2 486.746 -4.522 Q 486.753 -4.844 486.655 -5.026 Q 486.529 -5.236 486.305 -5.306 Q 486.081 -5.376 485.633 -5.376 L 485.717 -5.796 Z " fill="black" /><path d="M 494.931 -0.168 L 494.931 -0.168 Q 494.931 0.154 494.714 0.392 Q 494.497 0.63 494.091 0.63 Q 493.685 0.63 493.482 0.399 Q 493.279 0.168 493.279 -0.182 Q 493.279 -0.532 493.496 -0.784 Q 493.713 -1.036 494.105 -1.036 Q 494.511 -1.036 494.721 -0.777 Q 494.931 -0.518 494.931 -0.168 Z " fill="black" /><path d="M 501.849 -3.136 L 501.849 -3.136 L 503.053 -3.136 Q 503.179 -3.724 503.326 -4.27 Q 503.473 -4.816 503.711 -5.25 Q 503.893 -5.586 504.159 -5.88 Q 504.425 -6.174 504.838 -6.363 Q 505.251 -6.552 505.853 -6.552 Q 506.497 -6.552 506.84 -6.265 Q 507.183 -5.978 507.183 -5.53 Q 507.183 -5.222 507.015 -5.068 Q 506.847 -4.914 506.623 -4.914 Q 506.343 -4.914 506.217 -5.075 Q 506.091 -5.236 506.063 -5.46 Q 506.021 -5.726 505.958 -5.936 Q 505.895 -6.146 505.643 -6.146 Q 505.111 -6.146 504.817 -5.586 Q 504.523 -5.026 504.369 -4.13 L 504.201 -3.136 L 505.531 -3.136 L 505.447 -2.562 L 504.131 -2.562 L 503.333 2.212 Q 503.277 2.576 503.158 3.122 Q 503.039 3.668 502.829 4.263 Q 502.619 4.858 502.318 5.376 Q 502.017 5.894 501.583 6.223 Q 501.149 6.552 500.575 6.552 Q 499.903 6.552 499.616 6.23 Q 499.329 5.908 499.329 5.544 Q 499.329 5.25 499.476 5.054 Q 499.623 4.858 499.889 4.858 Q 500.211 4.858 500.323 5.047 Q 500.435 5.236 500.463 5.481 Q 500.491 5.726 500.547 5.915 Q 500.603 6.104 500.799 6.104 Q 501.079 6.104 501.289 5.74 Q 501.499 5.376 501.653 4.837 Q 501.807 4.298 501.905 3.766 Q 502.003 3.234 502.059 2.884 L 502.969 -2.562 L 501.793 -2.562 Z " fill="black" /><path d="M 506.647 1.226 L 506.647 1.226 L 506.647 2.285 L 506.706 2.285 Q 507.098 1.736 507.407 1.447 Q 507.715 1.158 508.078 1.158 Q 508.705 1.158 508.705 1.775 Q 508.705 2.118 508.553 2.255 Q 508.401 2.393 508.225 2.393 Q 508.048 2.393 507.906 2.295 Q 507.764 2.197 507.666 2.099 Q 507.568 2.001 507.519 2.001 Q 507.362 2.001 507.113 2.265 Q 506.863 2.53 506.667 2.863 L 506.667 5.215 Q 506.667 5.695 506.877 5.837 Q 507.088 5.979 507.627 5.979 L 507.627 6.342 L 504.961 6.342 L 504.961 5.979 Q 505.295 5.979 505.451 5.921 Q 505.608 5.862 505.657 5.71 Q 505.706 5.558 505.706 5.284 L 505.706 2.442 Q 505.706 2.128 505.652 1.971 Q 505.598 1.814 505.295 1.814 Q 505.157 1.814 505.059 1.824 Q 504.961 1.834 504.961 1.834 L 504.961 1.471 L 506.284 1.226 Z " fill="black" /><path d="M 513.615 4.882 L 513.615 4.882 L 513.85 5.068 Q 513.644 5.44 513.389 5.754 Q 513.135 6.068 512.762 6.254 Q 512.39 6.44 511.821 6.44 Q 511.204 6.44 510.67 6.161 Q 510.136 5.881 509.812 5.303 Q 509.489 4.725 509.489 3.843 Q 509.489 2.971 509.793 2.383 Q 510.097 1.795 510.616 1.496 Q 511.135 1.197 511.772 1.197 Q 512.654 1.197 513.238 1.81 Q 513.821 2.422 513.84 3.637 L 510.391 3.637 Q 510.391 4.304 510.641 4.74 Q 510.89 5.176 511.282 5.387 Q 511.674 5.597 512.106 5.597 Q 512.547 5.597 512.811 5.504 Q 513.076 5.411 513.257 5.244 Q 513.438 5.078 513.615 4.882 Z M 510.391 3.186 L 510.391 3.186 L 512.792 3.186 Q 512.792 2.794 512.664 2.447 Q 512.537 2.099 512.292 1.878 Q 512.047 1.658 511.665 1.658 Q 511.106 1.658 510.778 2.05 Q 510.449 2.442 510.391 3.186 Z " fill="black" /><path d="M 514.81 1.324 L 514.81 1.324 L 515.594 1.324 Q 515.594 0.805 515.668 0.442 Q 515.741 0.08 515.928 -0.283 Q 516.153 -0.636 516.472 -0.856 Q 516.79 -1.077 517.378 -1.077 Q 517.878 -1.077 518.231 -0.885 Q 518.583 -0.694 518.583 -0.322 Q 518.583 -0.087 518.451 0.036 Q 518.319 0.158 518.142 0.158 Q 517.927 0.158 517.804 0.036 Q 517.682 -0.087 517.486 -0.293 Q 517.349 -0.489 517.241 -0.562 Q 517.133 -0.636 516.986 -0.636 Q 516.712 -0.636 516.623 -0.371 Q 516.535 -0.106 516.535 0.54 L 516.535 1.324 L 517.809 1.324 L 517.809 1.805 L 516.535 1.805 L 516.535 5.039 Q 516.535 5.44 516.623 5.641 Q 516.712 5.842 516.947 5.911 Q 517.182 5.979 517.613 5.979 L 517.613 6.342 L 514.722 6.342 L 514.722 5.979 Q 515.095 5.979 515.281 5.911 Q 515.467 5.842 515.531 5.641 Q 515.594 5.44 515.594 5.039 L 515.594 1.805 L 514.81 1.805 Z " fill="black" /></g></g></g><g><g><g><path d="M 266.647 75.843 L 266.647 75.843 Q 266.647 76.165 266.423 76.41 Q 266.199 76.655 265.779 76.655 Q 265.359 76.655 265.156 76.417 Q 264.953 76.179 264.953 75.829 Q 264.953 75.465 265.177 75.206 Q 265.401 74.947 265.793 74.947 Q 266.199 74.947 266.423 75.213 Q 266.647 75.479 266.647 75.843 Z M 266.647 70.747 L 266.647 70.747 Q 266.647 71.069 266.423 71.314 Q 266.199 71.559 265.779 71.559 Q 265.359 71.559 265.156 71.321 Q 264.953 71.083 264.953 70.733 Q 264.953 70.369 265.177 70.11 Q 265.401 69.851 265.793 69.851 Q 266.199 69.851 266.423 70.117 Q 266.647 70.383 266.647 70.747 Z " fill="black" /><path d="M 268.803 76.543 L 268.803 76.543 L 268.803 67.345 L 270.049 67.345 L 273.437 73.099 L 274.445 75.003 L 274.515 75.003 Q 274.473 74.303 274.417 73.547 Q 274.361 72.791 274.361 72.063 L 274.361 67.345 L 275.495 67.345 L 275.495 76.543 L 274.263 76.543 L 270.861 70.789 L 269.853 68.885 L 269.797 68.885 Q 269.839 69.585 269.895 70.32 Q 269.951 71.055 269.951 71.769 L 269.951 76.543 Z " fill="black" /></g></g></g><g><g><g><path d="M 154.497 58.712 L 154.497 58.712 L 155.701 58.712 Q 155.827 58.124 155.974 57.578 Q 156.121 57.032 156.359 56.598 Q 156.541 56.262 156.807 55.968 Q 157.073 55.674 157.486 55.485 Q 157.899 55.296 158.501 55.296 Q 159.145 55.296 159.488 55.583 Q 159.831 55.87 159.831 56.318 Q 159.831 56.626 159.663 56.78 Q 159.495 56.934 159.271 56.934 Q 158.991 56.934 158.865 56.773 Q 158.739 56.612 158.711 56.388 Q 158.669 56.122 158.606 55.912 Q 158.543 55.702 158.291 55.702 Q 157.759 55.702 157.465 56.262 Q 157.171 56.822 157.017 57.718 L 156.849 58.712 L 158.179 58.712 L 158.095 59.286 L 156.779 59.286 L 155.981 64.06 Q 155.925 64.424 155.806 64.97 Q 155.687 65.516 155.477 66.111 Q 155.267 66.706 154.966 67.224 Q 154.665 67.742 154.231 68.071 Q 153.797 68.4 153.223 68.4 Q 152.551 68.4 152.264 68.078 Q 151.977 67.756 151.977 67.392 Q 151.977 67.098 152.124 66.902 Q 152.271 66.706 152.537 66.706 Q 152.859 66.706 152.971 66.895 Q 153.083 67.084 153.111 67.329 Q 153.139 67.574 153.195 67.763 Q 153.251 67.952 153.447 67.952 Q 153.727 67.952 153.937 67.588 Q 154.147 67.224 154.301 66.685 Q 154.455 66.146 154.553 65.614 Q 154.651 65.082 154.707 64.732 L 155.617 59.286 L 154.441 59.286 Z " fill="black" /><path d="M 157.57 63.172 L 157.57 63.172 L 158.354 63.172 Q 158.354 62.653 158.428 62.29 Q 158.501 61.928 158.688 61.565 Q 158.913 61.212 159.231 60.992 Q 159.55 60.771 160.138 60.771 Q 160.638 60.771 160.991 60.962 Q 161.343 61.154 161.343 61.526 Q 161.343 61.761 161.211 61.884 Q 161.079 62.006 160.902 62.006 Q 160.687 62.006 160.564 61.884 Q 160.442 61.761 160.246 61.555 Q 160.109 61.359 160.001 61.286 Q 159.893 61.212 159.746 61.212 Q 159.472 61.212 159.383 61.477 Q 159.295 61.742 159.295 62.388 L 159.295 63.172 L 160.569 63.172 L 160.569 63.653 L 159.295 63.653 L 159.295 66.887 Q 159.295 67.288 159.383 67.489 Q 159.472 67.69 159.707 67.759 Q 159.942 67.827 160.373 67.827 L 160.373 68.19 L 157.482 68.19 L 157.482 67.827 Q 157.855 67.827 158.041 67.759 Q 158.227 67.69 158.291 67.489 Q 158.354 67.288 158.354 66.887 L 158.354 63.653 L 157.57 63.653 Z " fill="black" /><path d="M 163.392 60.869 L 163.392 60.869 L 163.392 63.907 L 163.441 63.907 Q 163.725 63.574 164.112 63.31 Q 164.499 63.045 165.048 63.045 Q 165.557 63.045 165.974 63.354 Q 166.39 63.662 166.64 64.206 Q 166.89 64.75 166.89 65.456 Q 166.89 66.397 166.547 67.034 Q 166.204 67.671 165.611 67.989 Q 165.018 68.308 164.264 68.308 Q 163.823 68.308 163.45 68.234 Q 163.078 68.161 162.818 68.063 Q 162.559 67.965 162.441 67.916 L 162.441 62.036 Q 162.441 61.673 162.363 61.57 Q 162.284 61.467 161.951 61.467 Q 161.843 61.467 161.75 61.482 Q 161.657 61.497 161.657 61.497 L 161.657 61.124 L 162.99 60.869 Z M 163.392 64.417 L 163.392 64.417 L 163.392 67.357 Q 163.509 67.573 163.764 67.7 Q 164.019 67.827 164.44 67.827 Q 164.96 67.827 165.273 67.548 Q 165.587 67.269 165.729 66.803 Q 165.871 66.338 165.871 65.789 Q 165.871 65.289 165.758 64.833 Q 165.646 64.378 165.361 64.094 Q 165.077 63.809 164.577 63.809 Q 164.313 63.809 164.073 63.912 Q 163.833 64.015 163.656 64.157 Q 163.48 64.299 163.392 64.417 Z " fill="black" /><path d="M 181.874 60.672 L 181.874 60.672 L 173.53 60.672 L 173.53 59.72 L 181.874 59.72 Z M 181.874 63.528 L 181.874 63.528 L 173.53 63.528 L 173.53 62.59 L 181.874 62.59 Z " fill="black" /><path d="M 190.586 58.712 L 190.586 58.712 L 191.79 58.712 Q 191.916 58.124 192.063 57.578 Q 192.21 57.032 192.448 56.598 Q 192.63 56.262 192.896 55.968 Q 193.162 55.674 193.575 55.485 Q 193.988 55.296 194.59 55.296 Q 195.234 55.296 195.577 55.583 Q 195.92 55.87 195.92 56.318 Q 195.92 56.626 195.752 56.78 Q 195.584 56.934 195.36 56.934 Q 195.08 56.934 194.954 56.773 Q 194.828 56.612 194.8 56.388 Q 194.758 56.122 194.695 55.912 Q 194.632 55.702 194.38 55.702 Q 193.848 55.702 193.554 56.262 Q 193.26 56.822 193.106 57.718 L 192.938 58.712 L 194.268 58.712 L 194.184 59.286 L 192.868 59.286 L 192.07 64.06 Q 192.014 64.424 191.895 64.97 Q 191.776 65.516 191.566 66.111 Q 191.356 66.706 191.055 67.224 Q 190.754 67.742 190.32 68.071 Q 189.886 68.4 189.312 68.4 Q 188.64 68.4 188.353 68.078 Q 188.066 67.756 188.066 67.392 Q 188.066 67.098 188.213 66.902 Q 188.36 66.706 188.626 66.706 Q 188.948 66.706 189.06 66.895 Q 189.172 67.084 189.2 67.329 Q 189.228 67.574 189.284 67.763 Q 189.34 67.952 189.536 67.952 Q 189.816 67.952 190.026 67.588 Q 190.236 67.224 190.39 66.685 Q 190.544 66.146 190.642 65.614 Q 190.74 65.082 190.796 64.732 L 191.706 59.286 L 190.53 59.286 Z " fill="black" /><path d="M 196.246 63.045 L 196.246 63.045 Q 196.981 63.045 197.53 63.363 Q 198.079 63.682 198.378 64.255 Q 198.676 64.829 198.676 65.603 Q 198.676 66.534 198.363 67.132 Q 198.049 67.729 197.5 68.018 Q 196.952 68.308 196.246 68.308 Q 195.531 68.308 194.977 68.009 Q 194.423 67.71 194.115 67.112 Q 193.806 66.514 193.806 65.613 Q 193.806 64.848 194.11 64.27 Q 194.413 63.692 194.962 63.368 Q 195.511 63.045 196.246 63.045 Z M 196.226 63.496 L 196.226 63.496 Q 195.58 63.496 195.212 64.02 Q 194.845 64.544 194.845 65.554 Q 194.845 66.798 195.222 67.313 Q 195.599 67.827 196.275 67.827 Q 196.707 67.818 197.01 67.612 Q 197.314 67.406 197.476 66.921 Q 197.638 66.436 197.638 65.603 Q 197.638 64.603 197.295 64.049 Q 196.952 63.496 196.226 63.496 Z " fill="black" /><path d="M 205.34 67.69 L 205.34 67.69 L 205.34 68.063 L 204.017 68.239 L 203.704 68.239 L 203.704 67.475 L 203.606 67.475 Q 203.233 67.808 202.851 68.048 Q 202.469 68.288 201.93 68.288 Q 201.205 68.288 200.823 67.847 Q 200.44 67.406 200.44 66.318 L 200.44 64.211 Q 200.44 63.809 200.298 63.716 Q 200.156 63.623 199.705 63.623 L 199.705 63.27 L 201.068 63.084 L 201.391 63.084 L 201.391 66.191 Q 201.391 66.74 201.518 67.043 Q 201.646 67.347 201.861 67.465 Q 202.077 67.582 202.332 67.582 Q 202.763 67.582 203.052 67.401 Q 203.341 67.22 203.655 66.965 L 203.655 64.211 Q 203.655 63.809 203.478 63.716 Q 203.302 63.623 202.802 63.623 L 202.802 63.27 L 204.262 63.084 L 204.605 63.084 L 204.605 67.053 Q 204.605 67.347 204.659 67.484 Q 204.713 67.622 204.85 67.656 Q 204.988 67.69 205.233 67.69 Z " fill="black" /><path d="M 209.162 67.21 L 209.162 67.21 L 209.388 67.396 Q 209.172 67.69 208.996 67.891 Q 208.819 68.092 208.594 68.2 Q 208.369 68.308 208.016 68.308 Q 207.447 68.308 207.188 67.984 Q 206.928 67.661 206.928 66.945 L 206.928 63.653 L 206.311 63.653 L 206.311 63.359 Q 206.663 63.104 206.957 62.736 Q 207.251 62.369 207.545 61.683 L 207.888 61.683 L 207.879 63.172 L 209.123 63.172 L 209.123 63.653 L 207.879 63.653 L 207.879 66.622 Q 207.879 67.171 207.982 67.401 Q 208.084 67.631 208.398 67.631 Q 208.682 67.631 208.829 67.528 Q 208.976 67.426 209.162 67.21 Z " fill="black" /><path d="M 214.557 55.324 L 214.557 55.324 L 210.917 66.496 L 210.133 66.496 L 213.787 55.324 Z " fill="black" /><path d="M 226.303 56.052 L 226.303 56.052 L 226.219 56.472 Q 225.841 56.472 225.638 56.542 Q 225.435 56.612 225.281 56.752 Q 225.155 56.864 225.029 57.025 Q 224.903 57.186 224.791 57.494 Q 224.679 57.802 224.567 58.348 L 223.139 65.362 L 222.677 65.362 L 218.561 57.844 L 218.491 57.844 L 217.399 63.164 Q 217.259 63.864 217.287 64.221 Q 217.315 64.578 217.574 64.704 Q 217.833 64.83 218.351 64.83 L 218.267 65.25 L 215.047 65.25 L 215.131 64.83 Q 215.677 64.83 215.971 64.711 Q 216.265 64.592 216.419 64.228 Q 216.573 63.864 216.713 63.164 L 217.959 57.116 Q 217.721 56.724 217.483 56.598 Q 217.245 56.472 216.797 56.472 L 216.881 56.052 L 219.079 56.052 L 222.859 62.94 L 222.929 62.94 L 223.895 58.278 Q 224.021 57.648 224.028 57.326 Q 224.035 57.004 223.937 56.822 Q 223.811 56.612 223.587 56.542 Q 223.363 56.472 222.915 56.472 L 222.999 56.052 Z " fill="black" /></g></g></g></svg>