<svg xmlns="http://www.w3.org/2000/svg" xmlns:xlink="http://www.w3.org/1999/xlink" xml:lang="en" height="441.20000000000005pt" width="646.7284pt" viewBox="-24.728399999999993 -94.6 646.7284 441.20000000000005"><circle cx="117.0" cy="-72.0" r="18.0" style="stroke:black;fill:none;stroke-width:2.0;stroke-dasharray:-;" /><circle cx="116.99999999999999" cy="72.0" r="18.0" style="stroke:black;fill:none;stroke-width:2.0;stroke-dasharray:-;" /><circle cx="171.0" cy="-0.0" r="18.0" style="stroke:black;fill:none;stroke-width:2.0;stroke-dasharray:-;" /><circle cx="117.0" cy="180.0" r="18.0" style="stroke:black;fill:none;stroke-width:2.0;stroke-dasharray:-;" /><circle cx="116.99999999999999" cy="324.0" r="18.0" style="stroke:black;fill:none;stroke-width:2.0;stroke-dasharray:-;" /><circle cx="171.0" cy="252.0" r="18.0" style="stroke:black;fill:none;stroke-width:2.0;stroke-dasharray:-;" /><path d="M 0.0,-0.0 L 18.0,-0.0 L 27.0,-0.0" style="stroke:black;fill:none;stroke-width:2.0;stroke-dasharray:-;stroke-linecap:round;stroke-linejoin:round;" /><path d="M 34.0 0.0 L 27.0 2.6999999999999997 L 27.0 -2.6999999999999997 Z" style="stroke:black;fill:black;stroke-linecap:butt;stroke-linejoin:miter;" /><path d="M 36.0,-0.0 L 36.0,18.0 L 63.0,-0.0 L 36.0,-18.0 L 36.0,-0.0" style="stroke:black;fill:none;stroke-width:2.0;stroke-dasharray:-;stroke-linecap:round;stroke-linejoin:round;" /><path d="M 63.0,-0.0 L 72.0,-0.0 L 81.0,-0.0" style="stroke:black;fill:none;stroke-width:2.0;stroke-dasharray:-;stroke-linecap:round;stroke-linejoin:round;" /><path d="M 81.0,-0.0 L 81.0,-36.0 L 81.0,-72.0" style="stroke:black;fill:none;stroke-width:2.0;stroke-dasharray:-;stroke-linecap:round;stroke-linejoin:round;" /><path d="M 81.0,-72.0 L 90.0,-72.0 L 90.0,-72.0" style="stroke:black;fill:none;stroke-width:2.0;stroke-dasharray:-;stroke-linecap:round;stroke-linejoin:round;" /><path d="M 97.0 -72.0 L 90.0 -69.3 L 90.0 -74.7 Z" style="stroke:black;fill:black;stroke-linecap:butt;stroke-linejoin:miter;" /><path d="M 129.72792206135787,-84.72792206135786 L 104.27207793864214,-59.27207793864215" style="stroke:black;fill:none;stroke-width:1;stroke-dasharray:-;stroke-linecap:round;stroke-linejoin:round;" /><path d="M 129.72792206135787,-59.27207793864215 L 104.27207793864214,-84.72792206135786" style="stroke:black;fill:none;stroke-width:1;stroke-dasharray:-;stroke-linecap:round;stroke-linejoin:round;" /><path d="M 135.0,-72.0 L 207.0,-72.0 L 270.0,-72.0" style="stroke:black;fill:none;stroke-width:2.0;stroke-dasharray:-;stroke-linecap:round;stroke-linejoin:round;" /><path d="M 277.0 -72.0 L 270.0 -69.3 L 270.0 -74.7 Z" style="stroke:black;fill:black;stroke-linecap:butt;stroke-linejoin:miter;" /><path d="M 279.0,90.0 L 315.0,90.0 L 315.0,-90.0 L 279.0,-90.0 L 279.0,90.0" style="stroke:gray;fill:none;stroke-width:2.0;stroke-dasharray:-;stroke-linecap:round;stroke-linejoin:round;" /><path d="M 279.0,-72.0 L 279.0,-90.0 L 315.0,-90.0 L 315.0,-54.0 L 279.0,-54.0 L 279.0,-72.0" style="stroke:black;fill:none;stroke-width:2.0;stroke-dasharray:-;stroke-linecap:round;stroke-linejoin:round;" /><path d="M 286.2,-72.0 L 287.33684210526314,-73.16891808913687 L 288.47368421052636,-74.2111657656828 L 289.61052631578946,-75.01379932174511 L 290.7473684210526,-75.48984095738159 L 291.88421052631577,-75.58770417482401 L 293.021052631579,-75.2967839759582 L 294.1578947368421,-74.64860607842327 L 295.2947368421053,-73.71341061493347 L 296.43157894736845,-72.59254052501065 L 297.56842105263155,-71.40745947498937 L 298.7052631578947,-70.28658938506653 L 299.8421052631579,-69.35139392157673 L 300.978947368421,-68.7032160240418 L 302.11578947368423,-68.41229582517599 L 303.2526315789474,-68.51015904261841 L 304.38947368421054,-68.9862006782549 L 305.52631578947364,-69.78883423431719 L 306.66315789473686,-70.83108191086313 L 307.8,-72.0" style="stroke:black;fill:none;stroke-width:2.0;stroke-dasharray:-;stroke-linecap:round;stroke-linejoin:round;" /><path d="M 286.2,-81.0 L 287.33684210526314,-82.16891808913685 L 288.47368421052636,-83.2111657656828 L 289.61052631578946,-84.01379932174511 L 290.7473684210526,-84.48984095738159 L 291.88421052631577,-84.58770417482401 L 293.021052631579,-84.2967839759582 L 294.1578947368421,-83.64860607842327 L 295.2947368421053,-82.71341061493347 L 296.43157894736845,-81.59254052501065 L 297.56842105263155,-80.40745947498935 L 298.7052631578947,-79.28658938506653 L 299.8421052631579,-78.35139392157673 L 300.978947368421,-77.7032160240418 L 302.11578947368423,-77.41229582517599 L 303.2526315789474,-77.51015904261841 L 304.38947368421054,-77.98620067825489 L 305.52631578947364,-78.7888342343172 L 306.66315789473686,-79.83108191086313 L 307.8,-81.0" style="stroke:black;fill:none;stroke-width:2.0;stroke-dasharray:-;stroke-linecap:round;stroke-linejoin:round;" /><path d="M 286.2,-63.0 L 287.33684210526314,-64.16891808913687 L 288.47368421052636,-65.21116576568281 L 289.61052631578946,-66.01379932174511 L 290.7473684210526,-66.48984095738159 L 291.88421052631577,-66.58770417482401 L 293.021052631579,-66.2967839759582 L 294.1578947368421,-65.64860607842327 L 295.2947368421053,-64.71341061493347 L 296.43157894736845,-63.59254052501064 L 297.56842105263155,-62.40745947498936 L 298.7052631578947,-61.286589385066534 L 299.8421052631579,-60.35139392157673 L 300.978947368421,-59.703216024041794 L 302.11578947368423,-59.41229582517599 L 303.2526315789474,-59.51015904261841 L 304.38947368421054,-59.98620067825489 L 305.52631578947364,-60.78883423431719 L 306.66315789473686,-61.83108191086314 L 307.8,-63.0" style="stroke:black;fill:none;stroke-width:2.0;stroke-dasharray:-;stroke-linecap:round;stroke-linejoin:round;" /><path d="M 295.2,-78.12 L 298.8,-83.88" style="stroke:black;fill:none;stroke-width:2.0;stroke-dasharray:-;stroke-linecap:round;stroke-linejoin:round;" /><path d="M 295.2,-60.12 L 298.8,-65.88" style="stroke:black;fill:none;stroke-width:2.0;stroke-dasharray:-;stroke-linecap:round;stroke-linejoin:round;" /><path d="M 315.0,-72.0 L 324.0,-72.0 L 324.0,-72.0" style="stroke:black;fill:none;stroke-width:2.0;stroke-dasharray:-;stroke-linecap:round;stroke-linejoin:round;" /><path d="M 331.0 -72.0 L 324.0 -69.3 L 324.0 -74.7 Z" style="stroke:black;fill:black;stroke-linecap:butt;stroke-linejoin:miter;" /><path d="M 333.0,-72.0 L 333.0,-54.0 L 360.0,-72.0 L 333.0,-90.0 L 333.0,-72.0" style="stroke:black;fill:none;stroke-width:2.0;stroke-dasharray:-;stroke-linecap:round;stroke-linejoin:round;" /><path d="M 360.0,-72.0 L 369.0,-72.0 L 369.0,-72.0" style="stroke:black;fill:none;stroke-width:2.0;stroke-dasharray:-;stroke-linecap:round;stroke-linejoin:round;" /><path d="M 376.0 -72.0 L 369.0 -69.3 L 369.0 -74.7 Z" style="stroke:black;fill:black;stroke-linecap:butt;stroke-linejoin:miter;" /><path d="M 378.0,-72.0 L 385.92,-90.0 L 428.40000000000003,-90.0 L 428.40000000000003,-54.0 L 385.92,-54.0 L 378.0,-72.0" style="stroke:black;fill:none;stroke-width:2.0;stroke-dasharray:-;stroke-linecap:round;stroke-linejoin:round;" /><path d="M 428.40000000000003,-72.0 L 437.40000000000003,-72.0 L 437.40000000000003,-72.0" style="stroke:black;fill:none;stroke-width:2.0;stroke-dasharray:-;stroke-linecap:round;stroke-linejoin:round;" /><path d="M 444.40000000000003 -72.0 L 437.40000000000003 -69.3 L 437.40000000000003 -74.7 Z" style="stroke:black;fill:black;stroke-linecap:butt;stroke-linejoin:miter;" /><path d="M 446.40000000000003,90.0 L 482.40000000000003,90.0 L 482.40000000000003,-90.0 L 446.40000000000003,-90.0 L 446.40000000000003,90.0" style="stroke:gray;fill:none;stroke-width:2.0;stroke-dasharray:-;stroke-linecap:round;stroke-linejoin:round;" /><path d="M 446.40000000000003,-72.0 L 446.40000000000003,-90.0 L 482.40000000000003,-90.0 L 482.40000000000003,-54.0 L 446.40000000000003,-54.0 L 446.40000000000003,-72.0" style="stroke:black;fill:none;stroke-width:2.0;stroke-dasharray:-;stroke-linecap:round;stroke-linejoin:round;" /><path d="M 482.40000000000003,-72.0 L 500.40000000000003,-72.0 L 509.40000000000003,-72.0" style="stroke:black;fill:none;stroke-width:2.0;stroke-dasharray:-;stroke-linecap:round;stroke-linejoin:round;" /><path d="M 516.4 -72.0 L 509.4 -69.3 L 509.4 -74.7 Z" style="stroke:black;fill:black;stroke-linecap:butt;stroke-linejoin:miter;" /><path d="M 518.4,342.0 L 617.4,342.0 L 617.4,-90.0 L 518.4,-90.0 L 518.4,342.0" style="stroke:black;fill:none;stroke-width:2.0;stroke-dasharray:-;stroke-linecap:round;stroke-linejoin:round;" /><path d="M 81.0,-0.0 L 81.0,36.0 L 80.99999999999999,72.0" style="stroke:black;fill:none;stroke-width:2.0;stroke-dasharray:-;stroke-linecap:round;stroke-linejoin:round;" /><path d="M 80.99999999999999,72.0 L 89.99999999999999,72.0 L 89.99999999999999,72.0" style="stroke:black;fill:none;stroke-width:2.0;stroke-dasharray:-;stroke-linecap:round;stroke-linejoin:round;" /><path d="M 96.99999999999999 72.0 L 89.99999999999999 74.7 L 89.99999999999999 69.3 Z" style="stroke:black;fill:black;stroke-linecap:butt;stroke-linejoin:miter;" /><path d="M 129.72792206135784,59.27207793864215 L 104.27207793864213,84.72792206135786" style="stroke:black;fill:none;stroke-width:1;stroke-dasharray:-;stroke-linecap:round;stroke-linejoin:round;" /><path d="M 129.72792206135784,84.72792206135786 L 104.27207793864213,59.27207793864215" style="stroke:black;fill:none;stroke-width:1;stroke-dasharray:-;stroke-linecap:round;stroke-linejoin:round;" /><path d="M 134.99999999999997,72.0 L 207.0,72.0 L 270.0,72.0" style="stroke:black;fill:none;stroke-width:2.0;stroke-dasharray:-;stroke-linecap:round;stroke-linejoin:round;" /><path d="M 277.0 72.0 L 270.0 74.7 L 270.0 69.3 Z" style="stroke:black;fill:black;stroke-linecap:butt;stroke-linejoin:miter;" /><path d="M 279.0,72.0 L 279.0,54.0 L 315.0,54.0 L 315.0,90.0 L 279.0,90.0 L 279.0,72.0" style="stroke:black;fill:none;stroke-width:2.0;stroke-dasharray:-;stroke-linecap:round;stroke-linejoin:round;" /><path d="M 286.2,72.0 L 287.33684210526314,70.83108191086313 L 288.47368421052636,69.78883423431719 L 289.61052631578946,68.9862006782549 L 290.7473684210526,68.51015904261841 L 291.88421052631577,68.41229582517599 L 293.021052631579,68.7032160240418 L 294.1578947368421,69.35139392157673 L 295.2947368421053,70.28658938506653 L 296.43157894736845,71.40745947498937 L 297.56842105263155,72.59254052501065 L 298.7052631578947,73.71341061493347 L 299.8421052631579,74.64860607842327 L 300.978947368421,75.2967839759582 L 302.11578947368423,75.58770417482401 L 303.2526315789474,75.48984095738159 L 304.38947368421054,75.01379932174511 L 305.52631578947364,74.2111657656828 L 306.66315789473686,73.16891808913687 L 307.8,72.0" style="stroke:black;fill:none;stroke-width:2.0;stroke-dasharray:-;stroke-linecap:round;stroke-linejoin:round;" /><path d="M 286.2,63.0 L 287.33684210526314,61.83108191086314 L 288.47368421052636,60.78883423431719 L 289.61052631578946,59.98620067825489 L 290.7473684210526,59.51015904261841 L 291.88421052631577,59.41229582517599 L 293.021052631579,59.703216024041794 L 294.1578947368421,60.35139392157673 L 295.2947368421053,61.286589385066534 L 296.43157894736845,62.40745947498936 L 297.56842105263155,63.59254052501064 L 298.7052631578947,64.71341061493347 L 299.8421052631579,65.64860607842327 L 300.978947368421,66.2967839759582 L 302.11578947368423,66.58770417482401 L 303.2526315789474,66.48984095738159 L 304.38947368421054,66.01379932174511 L 305.52631578947364,65.21116576568281 L 306.66315789473686,64.16891808913687 L 307.8,63.0" style="stroke:black;fill:none;stroke-width:2.0;stroke-dasharray:-;stroke-linecap:round;stroke-linejoin:round;" /><path d="M 286.2,81.0 L 287.33684210526314,79.83108191086313 L 288.47368421052636,78.7888342343172 L 289.61052631578946,77.98620067825489 L 290.7473684210526,77.51015904261841 L 291.88421052631577,77.41229582517599 L 293.021052631579,77.7032160240418 L 294.1578947368421,78.35139392157673 L 295.2947368421053,79.28658938506653 L 296.43157894736845,80.40745947498935 L 297.56842105263155,81.59254052501065 L 298.7052631578947,82.71341061493347 L 299.8421052631579,83.64860607842327 L 300.978947368421,84.2967839759582 L 302.11578947368423,84.58770417482401 L 303.2526315789474,84.4898409573816 L 304.38947368421054,84.01379932174511 L 305.52631578947364,83.2111657656828 L 306.66315789473686,82.16891808913685 L 307.8,81.0" style="stroke:black;fill:none;stroke-width:2.0;stroke-dasharray:-;stroke-linecap:round;stroke-linejoin:round;" /><path d="M 295.2,65.88 L 298.8,60.12" style="stroke:black;fill:none;stroke-width:2.0;stroke-dasharray:-;stroke-linecap:round;stroke-linejoin:round;" /><path d="M 295.2,83.88 L 298.8,78.12" style="stroke:black;fill:none;stroke-width:2.0;stroke-dasharray:-;stroke-linecap:round;stroke-linejoin:round;" /><path d="M 315.0,72.0 L 324.0,72.0 L 324.0,72.0" style="stroke:black;fill:none;stroke-width:2.0;stroke-dasharray:-;stroke-linecap:round;stroke-linejoin:round;" /><path d="M 331.0 72.0 L 324.0 74.7 L 324.0 69.3 Z" style="stroke:black;fill:black;stroke-linecap:butt;stroke-linejoin:miter;" /><path d="M 333.0,72.0 L 333.0,90.0 L 360.0,72.0 L 333.0,54.0 L 333.0,72.0" style="stroke:black;fill:none;stroke-width:2.0;stroke-dasharray:-;stroke-linecap:round;stroke-linejoin:round;" /><path d="M 360.0,72.0 L 369.0,72.0 L 369.0,72.0" style="stroke:black;fill:none;stroke-width:2.0;stroke-dasharray:-;stroke-linecap:round;stroke-linejoin:round;" /><path d="M 376.0 72.0 L 369.0 74.7 L 369.0 69.3 Z" style="stroke:black;fill:black;stroke-linecap:butt;stroke-linejoin:miter;" /><path d="M 378.0,72.0 L 385.92,54.0 L 428.40000000000003,54.0 L 428.40000000000003,90.0 L 385.92,90.0 L 378.0,72.0" style="stroke:black;fill:none;stroke-width:2.0;stroke-dasharray:-;stroke-linecap:round;stroke-linejoin:round;" /><path d="M 428.40000000000003,72.0 L 437.40000000000003,72.0 L 437.40000000000003,72.0" style="stroke:black;fill:none;stroke-width:2.0;stroke-dasharray:-;stroke-linecap:round;stroke-linejoin:round;" /><path d="M 444.40000000000003 72.0 L 437.40000000000003 74.7 L 437.40000000000003 69.3 Z" style="stroke:black;fill:black;stroke-linecap:butt;stroke-linejoin:miter;" /><path d="M 446.40000000000003,72.0 L 446.40000000000003,54.0 L 482.40000000000003,54.0 L 482.40000000000003,90.0 L 446.40000000000003,90.0 L 446.40000000000003,72.0" style="stroke:black;fill:none;stroke-width:2.0;stroke-dasharray:-;stroke-linecap:round;stroke-linejoin:round;" /><path d="M 482.40000000000003,72.0 L 500.40000000000003,72.0 L 509.40000000000003,72.0" style="stroke:black;fill:none;stroke-width:2.0;stroke-dasharray:-;stroke-linecap:round;stroke-linejoin:round;" /><path d="M 516.4 72.0 L 509.4 74.7 L 509.4 69.3 Z" style="stroke:black;fill:black;stroke-linecap:butt;stroke-linejoin:miter;" /><path d="M 99.0,-0.0 L 99.0,-18.0 L 135.0,-18.0 L 135.0,18.0 L 99.0,18.0 L 99.0,-0.0" style="stroke:black;fill:none;stroke-width:2.0;stroke-dasharray:-;stroke-linecap:round;stroke-linejoin:round;" /><path d="M 117.0,-18.0 L 117.0,-36.0 L 117.0,-45.0" style="stroke:black;fill:none;stroke-width:2.0;stroke-dasharray:-;stroke-linecap:round;stroke-linejoin:round;" /><path d="M 117.0 -52.0 L 119.7 -45.0 L 114.3 -45.0 Z" style="stroke:black;fill:black;stroke-linecap:butt;stroke-linejoin:miter;" /><path d="M 117.0,18.0 L 117.0,36.0 L 117.0,45.0" style="stroke:black;fill:none;stroke-width:2.0;stroke-dasharray:-;stroke-linecap:round;stroke-linejoin:round;" /><path d="M 117.0 52.0 L 114.3 45.0 L 119.7 45.0 Z" style="stroke:black;fill:black;stroke-linecap:butt;stroke-linejoin:miter;" /><path d="M 144.0,-0.0 L 144.0,-0.0 L 153.0,-0.0" style="stroke:black;fill:none;stroke-width:2.0;stroke-dasharray:-;stroke-linecap:round;stroke-linejoin:round;" /><path d="M 137.0 2.4492935982947064e-16 L 144.0 -2.699999999999999 L 144.0 2.7000000000000006 Z" style="stroke:black;fill:black;stroke-linecap:butt;stroke-linejoin:miter;" /><path d="M 160.20000000000002,-4.4087284769304716e-16 L 161.33684210526314,-1.168918089136861 L 162.47368421052633,-2.2111657656828045 L 163.61052631578949,-3.013799321745103 L 164.7473684210526,-3.4898409573815896 L 165.8842105263158,-3.5877041748240117 L 167.02105263157895,-3.2967839759582067 L 168.15789473684208,-2.648606078423274 L 169.29473684210527,-1.7134106149334647 L 170.43157894736842,-0.5925405250106421 L 171.56842105263158,0.5925405250106421 L 172.70526315789473,1.7134106149334647 L 173.8421052631579,2.6486060784232732 L 174.97894736842105,3.2967839759582063 L 176.1157894736842,3.5877041748240117 L 177.2526315789474,3.48984095738159 L 178.38947368421051,3.013799321745103 L 179.52631578947367,2.2111657656828045 L 180.66315789473686,1.168918089136861 L 181.79999999999998,4.4087284769304716e-16" style="stroke:black;fill:none;stroke-width:2.0;stroke-dasharray:-;stroke-linecap:round;stroke-linejoin:round;" /><path d="M 189.0,-0.0 L 198.0,-0.0 L 207.0,-0.0" style="stroke:black;fill:none;stroke-width:2.0;stroke-dasharray:-;stroke-linecap:round;stroke-linejoin:round;" /><path d="M 207.0,-0.0 L 207.0,-18.0 L 243.0,-18.0 L 243.0,18.0 L 207.0,18.0 L 207.0,-0.0" style="stroke:black;fill:none;stroke-width:2.0;stroke-dasharray:-;stroke-linecap:round;stroke-linejoin:round;" /><path d="M 9.0,252.0 L 18.0,252.0 L 36.0,252.0" style="stroke:black;fill:none;stroke-width:2.0;stroke-dasharray:-;stroke-linecap:round;stroke-linejoin:round;" /><path d="M 2.0 252.0 L 9.0 249.3 L 9.0 254.7 Z" style="stroke:black;fill:black;stroke-linecap:butt;stroke-linejoin:miter;" /><path d="M 63.0,252.0 L 63.0,234.0 L 36.0,252.0 L 63.0,270.0 L 63.0,252.0" style="stroke:black;fill:none;stroke-width:2.0;stroke-dasharray:-;stroke-linecap:round;stroke-linejoin:round;" /><path d="M 72.0,252.0 L 72.0,252.0 L 81.0,252.0" style="stroke:black;fill:none;stroke-width:2.0;stroke-dasharray:-;stroke-linecap:round;stroke-linejoin:round;" /><path d="M 65.0 252.0 L 72.0 249.3 L 72.0 254.7 Z" style="stroke:black;fill:black;stroke-linecap:butt;stroke-linejoin:miter;" /><path d="M 81.0,252.0 L 81.0,216.0 L 81.0,180.0" style="stroke:black;fill:none;stroke-width:2.0;stroke-dasharray:-;stroke-linecap:round;stroke-linejoin:round;" /><path d="M 81.0,180.0 L 90.0,180.0 L 99.0,180.0" style="stroke:black;fill:none;stroke-width:2.0;stroke-dasharray:-;stroke-linecap:round;stroke-linejoin:round;" /><path d="M 129.72792206135787,167.27207793864213 L 104.27207793864214,192.72792206135787" style="stroke:black;fill:none;stroke-width:1;stroke-dasharray:-;stroke-linecap:round;stroke-linejoin:round;" /><path d="M 129.72792206135787,192.72792206135787 L 104.27207793864214,167.27207793864213" style="stroke:black;fill:none;stroke-width:1;stroke-dasharray:-;stroke-linecap:round;stroke-linejoin:round;" /><path d="M 144.0,180.0 L 207.0,180.0 L 279.0,180.0" style="stroke:black;fill:none;stroke-width:2.0;stroke-dasharray:-;stroke-linecap:round;stroke-linejoin:round;" /><path d="M 137.0 180.0 L 144.0 177.3 L 144.0 182.7 Z" style="stroke:black;fill:black;stroke-linecap:butt;stroke-linejoin:miter;" /><path d="M 279.0,342.0 L 315.0,342.0 L 315.0,162.0 L 279.0,162.0 L 279.0,342.0" style="stroke:gray;fill:none;stroke-width:2.0;stroke-dasharray:-;stroke-linecap:round;stroke-linejoin:round;" /><path d="M 279.0,180.0 L 279.0,162.0 L 315.0,162.0 L 315.0,198.0 L 279.0,198.0 L 279.0,180.0" style="stroke:black;fill:none;stroke-width:2.0;stroke-dasharray:-;stroke-linecap:round;stroke-linejoin:round;" /><path d="M 286.2,180.0 L 287.33684210526314,178.83108191086313 L 288.47368421052636,177.7888342343172 L 289.61052631578946,176.9862006782549 L 290.7473684210526,176.5101590426184 L 291.88421052631577,176.412295825176 L 293.021052631579,176.70321602404178 L 294.1578947368421,177.35139392157672 L 295.2947368421053,178.28658938506655 L 296.43157894736845,179.40745947498937 L 297.56842105263155,180.59254052501063 L 298.7052631578947,181.71341061493345 L 299.8421052631579,182.64860607842328 L 300.978947368421,183.29678397595822 L 302.11578947368423,183.587704174824 L 303.2526315789474,183.4898409573816 L 304.38947368421054,183.0137993217451 L 305.52631578947364,182.2111657656828 L 306.66315789473686,181.16891808913687 L 307.8,180.0" style="stroke:black;fill:none;stroke-width:2.0;stroke-dasharray:-;stroke-linecap:round;stroke-linejoin:round;" /><path d="M 286.2,171.0 L 287.33684210526314,169.83108191086313 L 288.47368421052636,168.7888342343172 L 289.61052631578946,167.9862006782549 L 290.7473684210526,167.5101590426184 L 291.88421052631577,167.412295825176 L 293.021052631579,167.70321602404178 L 294.1578947368421,168.35139392157672 L 295.2947368421053,169.28658938506655 L 296.43157894736845,170.40745947498937 L 297.56842105263155,171.59254052501063 L 298.7052631578947,172.71341061493345 L 299.8421052631579,173.64860607842328 L 300.978947368421,174.29678397595822 L 302.11578947368423,174.587704174824 L 303.2526315789474,174.4898409573816 L 304.38947368421054,174.0137993217451 L 305.52631578947364,173.2111657656828 L 306.66315789473686,172.16891808913687 L 307.8,171.0" style="stroke:black;fill:none;stroke-width:2.0;stroke-dasharray:-;stroke-linecap:round;stroke-linejoin:round;" /><path d="M 286.2,189.0 L 287.33684210526314,187.83108191086313 L 288.47368421052636,186.7888342343172 L 289.61052631578946,185.9862006782549 L 290.7473684210526,185.5101590426184 L 291.88421052631577,185.412295825176 L 293.021052631579,185.70321602404178 L 294.1578947368421,186.35139392157672 L 295.2947368421053,187.28658938506655 L 296.43157894736845,188.40745947498937 L 297.56842105263155,189.59254052501063 L 298.7052631578947,190.71341061493345 L 299.8421052631579,191.64860607842328 L 300.978947368421,192.29678397595822 L 302.11578947368423,192.587704174824 L 303.2526315789474,192.4898409573816 L 304.38947368421054,192.0137993217451 L 305.52631578947364,191.2111657656828 L 306.66315789473686,190.16891808913687 L 307.8,189.0" style="stroke:black;fill:none;stroke-width:2.0;stroke-dasharray:-;stroke-linecap:round;stroke-linejoin:round;" /><path d="M 295.2,173.88 L 298.8,168.12" style="stroke:black;fill:none;stroke-width:2.0;stroke-dasharray:-;stroke-linecap:round;stroke-linejoin:round;" /><path d="M 295.2,191.88 L 298.8,186.12" style="stroke:black;fill:none;stroke-width:2.0;stroke-dasharray:-;stroke-linecap:round;stroke-linejoin:round;" /><path d="M 324.0,180.0 L 324.0,180.0 L 333.0,180.0" style="stroke:black;fill:none;stroke-width:2.0;stroke-dasharray:-;stroke-linecap:round;stroke-linejoin:round;" /><path d="M 317.0 180.0 L 324.0 177.3 L 324.0 182.7 Z" style="stroke:black;fill:black;stroke-linecap:butt;stroke-linejoin:miter;" /><path d="M 360.0,180.0 L 360.0,162.0 L 333.0,180.0 L 360.0,198.0 L 360.0,180.0" style="stroke:black;fill:none;stroke-width:2.0;stroke-dasharray:-;stroke-linecap:round;stroke-linejoin:round;" /><path d="M 369.0,180.0 L 369.0,180.0 L 378.0,180.0" style="stroke:black;fill:none;stroke-width:2.0;stroke-dasharray:-;stroke-linecap:round;stroke-linejoin:round;" /><path d="M 362.0 180.0 L 369.0 177.3 L 369.0 182.7 Z" style="stroke:black;fill:black;stroke-linecap:butt;stroke-linejoin:miter;" /><path d="M 378.0,180.0 L 385.92,162.0 L 428.40000000000003,162.0 L 428.40000000000003,198.0 L 385.92,198.0 L 378.0,180.0" style="stroke:black;fill:none;stroke-width:2.0;stroke-dasharray:-;stroke-linecap:round;stroke-linejoin:round;" /><path d="M 437.40000000000003,180.0 L 437.40000000000003,180.0 L 446.40000000000003,180.0" style="stroke:black;fill:none;stroke-width:2.0;stroke-dasharray:-;stroke-linecap:round;stroke-linejoin:round;" /><path d="M 430.40000000000003 180.0 L 437.40000000000003 177.3 L 437.40000000000003 182.7 Z" style="stroke:black;fill:black;stroke-linecap:butt;stroke-linejoin:miter;" /><path d="M 446.40000000000003,342.0 L 482.40000000000003,342.0 L 482.40000000000003,162.0 L 446.40000000000003,162.0 L 446.40000000000003,342.0" style="stroke:gray;fill:none;stroke-width:2.0;stroke-dasharray:-;stroke-linecap:round;stroke-linejoin:round;" /><path d="M 446.40000000000003,180.0 L 446.40000000000003,162.0 L 482.40000000000003,162.0 L 482.40000000000003,198.0 L 446.40000000000003,198.0 L 446.40000000000003,180.0" style="stroke:black;fill:none;stroke-width:2.0;stroke-dasharray:-;stroke-linecap:round;stroke-linejoin:round;" /><path d="M 491.40000000000003,180.0 L 500.40000000000003,180.0 L 518.4,180.0" style="stroke:black;fill:none;stroke-width:2.0;stroke-dasharray:-;stroke-linecap:round;stroke-linejoin:round;" /><path d="M 484.40000000000003 180.0 L 491.40000000000003 177.3 L 491.40000000000003 182.7 Z" style="stroke:black;fill:black;stroke-linecap:butt;stroke-linejoin:miter;" /><path d="M 81.0,252.0 L 81.0,288.0 L 80.99999999999999,324.0" style="stroke:black;fill:none;stroke-width:2.0;stroke-dasharray:-;stroke-linecap:round;stroke-linejoin:round;" /><path d="M 80.99999999999999,324.0 L 89.99999999999999,324.0 L 98.99999999999999,324.0" style="stroke:black;fill:none;stroke-width:2.0;stroke-dasharray:-;stroke-linecap:round;stroke-linejoin:round;" /><path d="M 129.72792206135784,311.27207793864216 L 104.27207793864213,336.72792206135784" style="stroke:black;fill:none;stroke-width:1;stroke-dasharray:-;stroke-linecap:round;stroke-linejoin:round;" /><path d="M 129.72792206135784,336.72792206135784 L 104.27207793864213,311.27207793864216" style="stroke:black;fill:none;stroke-width:1;stroke-dasharray:-;stroke-linecap:round;stroke-linejoin:round;" /><path d="M 143.99999999999997,324.0 L 207.0,324.0 L 279.0,324.0" style="stroke:black;fill:none;stroke-width:2.0;stroke-dasharray:-;stroke-linecap:round;stroke-linejoin:round;" /><path d="M 136.99999999999997 324.0 L 143.99999999999997 321.3 L 143.99999999999997 326.7 Z" style="stroke:black;fill:black;stroke-linecap:butt;stroke-linejoin:miter;" /><path d="M 279.0,324.0 L 279.0,306.0 L 315.0,306.0 L 315.0,342.0 L 279.0,342.0 L 279.0,324.0" style="stroke:black;fill:none;stroke-width:2.0;stroke-dasharray:-;stroke-linecap:round;stroke-linejoin:round;" /><path d="M 286.2,324.0 L 287.33684210526314,322.83108191086313 L 288.47368421052636,321.78883423431716 L 289.61052631578946,320.98620067825493 L 290.7473684210526,320.51015904261845 L 291.88421052631577,320.412295825176 L 293.021052631579,320.7032160240418 L 294.1578947368421,321.35139392157674 L 295.2947368421053,322.2865893850665 L 296.43157894736845,323.40745947498937 L 297.56842105263155,324.59254052501063 L 298.7052631578947,325.7134106149335 L 299.8421052631579,326.64860607842326 L 300.978947368421,327.2967839759582 L 302.11578947368423,327.587704174824 L 303.2526315789474,327.48984095738155 L 304.38947368421054,327.01379932174507 L 305.52631578947364,326.21116576568284 L 306.66315789473686,325.16891808913687 L 307.8,324.0" style="stroke:black;fill:none;stroke-width:2.0;stroke-dasharray:-;stroke-linecap:round;stroke-linejoin:round;" /><path d="M 286.2,315.0 L 287.33684210526314,313.83108191086313 L 288.47368421052636,312.78883423431716 L 289.61052631578946,311.98620067825493 L 290.7473684210526,311.51015904261845 L 291.88421052631577,311.412295825176 L 293.021052631579,311.7032160240418 L 294.1578947368421,312.35139392157674 L 295.2947368421053,313.2865893850665 L 296.43157894736845,314.40745947498937 L 297.56842105263155,315.59254052501063 L 298.7052631578947,316.7134106149335 L 299.8421052631579,317.64860607842326 L 300.978947368421,318.2967839759582 L 302.11578947368423,318.587704174824 L 303.2526315789474,318.48984095738155 L 304.38947368421054,318.01379932174507 L 305.52631578947364,317.21116576568284 L 306.66315789473686,316.16891808913687 L 307.8,315.0" style="stroke:black;fill:none;stroke-width:2.0;stroke-dasharray:-;stroke-linecap:round;stroke-linejoin:round;" /><path d="M 286.2,333.0 L 287.33684210526314,331.83108191086313 L 288.47368421052636,330.78883423431716 L 289.61052631578946,329.98620067825493 L 290.7473684210526,329.51015904261845 L 291.88421052631577,329.412295825176 L 293.021052631579,329.7032160240418 L 294.1578947368421,330.35139392157674 L 295.2947368421053,331.2865893850665 L 296.43157894736845,332.40745947498937 L 297.56842105263155,333.59254052501063 L 298.7052631578947,334.7134106149335 L 299.8421052631579,335.64860607842326 L 300.978947368421,336.2967839759582 L 302.11578947368423,336.587704174824 L 303.2526315789474,336.48984095738155 L 304.38947368421054,336.01379932174507 L 305.52631578947364,335.21116576568284 L 306.66315789473686,334.16891808913687 L 307.8,333.0" style="stroke:black;fill:none;stroke-width:2.0;stroke-dasharray:-;stroke-linecap:round;stroke-linejoin:round;" /><path d="M 295.2,317.88 L 298.8,312.12" style="stroke:black;fill:none;stroke-width:2.0;stroke-dasharray:-;stroke-linecap:round;stroke-linejoin:round;" /><path d="M 295.2,335.88 L 298.8,330.12" style="stroke:black;fill:none;stroke-width:2.0;stroke-dasharray:-;stroke-linecap:round;stroke-linejoin:round;" /><path d="M 324.0,324.0 L 324.0,324.0 L 333.0,324.0" style="stroke:black;fill:none;stroke-width:2.0;stroke-dasharray:-;stroke-linecap:round;stroke-linejoin:round;" /><path d="M 317.0 324.0 L 324.0 321.3 L 324.0 326.7 Z" style="stroke:black;fill:black;stroke-linecap:butt;stroke-linejoin:miter;" /><path d="M 360.0,324.0 L 360.0,306.0 L 333.0,324.0 L 360.0,342.0 L 360.0,324.0" style="stroke:black;fill:none;stroke-width:2.0;stroke-dasharray:-;stroke-linecap:round;stroke-linejoin:round;" /><path d="M 369.0,324.0 L 369.0,324.0 L 378.0,324.0" style="stroke:black;fill:none;stroke-width:2.0;stroke-dasharray:-;stroke-linecap:round;stroke-linejoin:round;" /><path d="M 362.0 324.0 L 369.0 321.3 L 369.0 326.7 Z" style="stroke:black;fill:black;stroke-linecap:butt;stroke-linejoin:miter;" /><path d="M 378.0,324.0 L 385.92,306.0 L 428.40000000000003,306.0 L 428.40000000000003,342.0 L 385.92,342.0 L 378.0,324.0" style="stroke:black;fill:none;stroke-width:2.0;stroke-dasharray:-;stroke-linecap:round;stroke-linejoin:round;" /><path d="M 437.40000000000003,324.0 L 437.40000000000003,324.0 L 446.40000000000003,324.0" style="stroke:black;fill:none;stroke-width:2.0;stroke-dasharray:-;stroke-linecap:round;stroke-linejoin:round;" /><path d="M 430.40000000000003 324.0 L 437.40000000000003 321.3 L 437.40000000000003 326.7 Z" style="stroke:black;fill:black;stroke-linecap:butt;stroke-linejoin:miter;" /><path d="M 446.40000000000003,324.0 L 446.40000000000003,306.0 L 482.40000000000003,306.0 L 482.40000000000003,342.0 L 446.40000000000003,342.0 L 446.40000000000003,324.0" style="stroke:black;fill:none;stroke-width:2.0;stroke-dasharray:-;stroke-linecap:round;stroke-linejoin:round;" /><path d="M 491.40000000000003,324.0 L 500.40000000000003,324.0 L 518.4,324.0" style="stroke:black;fill:none;stroke-width:2.0;stroke-dasharray:-;stroke-linecap:round;stroke-linejoin:round;" /><path d="M 484.40000000000003 324.0 L 491.40000000000003 321.3 L 491.40000000000003 326.7 Z" style="stroke:black;fill:black;stroke-linecap:butt;stroke-linejoin:miter;" /><path d="M 99.0,252.0 L 99.0,234.0 L 135.0,234.0 L 135.0,270.0 L 99.0,270.0 L 99.0,252.0" style="stroke:black;fill:none;stroke-width:2.0;stroke-dasharray:-;stroke-linecap:round;stroke-linejoin:round;" /><path d="M 117.0,234.0 L 117.0,216.0 L 117.0,207.0" style="stroke:black;fill:none;stroke-width:2.0;stroke-dasharray:-;stroke-linecap:round;stroke-linejoin:round;" /><path d="M 117.0 200.0 L 119.7 207.0 L 114.3 207.0 Z" style="stroke:black;fill:black;stroke-linecap:butt;stroke-linejoin:miter;" /><path d="M 117.0,270.0 L 117.0,288.0 L 117.0,297.0" style="stroke:black;fill:none;stroke-width:2.0;stroke-dasharray:-;stroke-linecap:round;stroke-linejoin:round;" /><path d="M 117.0 304.0 L 114.3 297.0 L 119.7 297.0 Z" style="stroke:black;fill:black;stroke-linecap:butt;stroke-linejoin:miter;" /><path d="M 144.0,252.0 L 144.0,252.0 L 153.0,252.0" style="stroke:black;fill:none;stroke-width:2.0;stroke-dasharray:-;stroke-linecap:round;stroke-linejoin:round;" /><path d="M 137.0 252.0 L 144.0 249.3 L 144.0 254.7 Z" style="stroke:black;fill:black;stroke-linecap:butt;stroke-linejoin:miter;" /><path d="M 160.20000000000002,252.0 L 161.33684210526314,250.83108191086313 L 162.47368421052633,249.7888342343172 L 163.61052631578949,248.9862006782549 L 164.7473684210526,248.5101590426184 L 165.8842105263158,248.412295825176 L 167.02105263157895,248.70321602404178 L 168.15789473684208,249.35139392157672 L 169.29473684210527,250.28658938506655 L 170.43157894736842,251.40745947498937 L 171.56842105263158,252.59254052501063 L 172.70526315789473,253.71341061493345 L 173.8421052631579,254.64860607842328 L 174.97894736842105,255.29678397595822 L 176.1157894736842,255.587704174824 L 177.2526315789474,255.4898409573816 L 178.38947368421051,255.0137993217451 L 179.52631578947367,254.2111657656828 L 180.66315789473686,253.16891808913687 L 181.79999999999998,252.0" style="stroke:black;fill:none;stroke-width:2.0;stroke-dasharray:-;stroke-linecap:round;stroke-linejoin:round;" /><path d="M 189.0,252.0 L 198.0,252.0 L 207.0,252.0" style="stroke:black;fill:none;stroke-width:2.0;stroke-dasharray:-;stroke-linecap:round;stroke-linejoin:round;" /><path d="M 207.0,252.0 L 207.0,234.0 L 243.0,234.0 L 243.0,270.0 L 207.0,270.0 L 207.0,252.0" style="stroke:black;fill:none;stroke-width:2.0;stroke-dasharray:-;stroke-linecap:round;stroke-linejoin:round;" /><g><g><g><path d="M -18.089 -4.823 L -18.089 -4.823 L -18.411 -2.639 L -18.747 -2.639 Q -18.775 -3.451 -19.118 -3.927 Q -19.461 -4.403 -20.077 -4.403 Q -20.623 -4.403 -20.861 -4.109 Q -21.099 -3.815 -21.099 -3.507 Q -21.099 -3.213 -20.896 -2.94 Q -20.693 -2.667 -20.385 -2.38 Q -20.077 -2.093 -19.769 -1.757 Q -19.321 -1.281 -18.992 -0.826 Q -18.663 -0.371 -18.663 0.301 Q -18.663 0.707 -18.866 1.106 Q -19.069 1.505 -19.531 1.771 Q -19.993 2.037 -20.791 2.037 Q -21.449 2.037 -21.848 1.876 Q -22.247 1.715 -22.401 1.659 L -22.443 1.659 L -22.779 2.037 L -23.087 2.037 L -22.723 -0.301 L -22.373 -0.301 Q -22.261 0.609 -21.946 1.085 Q -21.631 1.561 -20.917 1.561 Q -20.427 1.561 -20.126 1.323 Q -19.825 1.085 -19.825 0.539 Q -19.825 -0.035 -20.14 -0.434 Q -20.455 -0.833 -20.861 -1.211 Q -21.141 -1.491 -21.428 -1.757 Q -21.715 -2.023 -21.904 -2.352 Q -22.093 -2.681 -22.093 -3.115 Q -22.093 -3.829 -21.617 -4.326 Q -21.141 -4.823 -20.189 -4.823 Q -19.629 -4.823 -19.258 -4.669 Q -18.887 -4.515 -18.761 -4.445 L -18.719 -4.445 L -18.355 -4.823 Z " fill="black" /><path d="M -11.852 -0.253 L -11.852 -0.253 Q -11.852 0.325 -12.116 0.687 Q -12.381 1.05 -12.787 1.246 Q -13.194 1.442 -13.625 1.54 L -13.625 1.618 Q -13.478 1.746 -13.277 1.981 Q -13.077 2.216 -12.734 2.672 Q -12.391 3.128 -11.822 3.912 Q -11.567 4.255 -11.347 4.353 Q -11.126 4.451 -10.734 4.451 L -10.734 4.823 L -12.508 4.823 Q -12.949 4.186 -13.248 3.75 Q -13.547 3.314 -13.748 3.015 Q -13.949 2.716 -14.101 2.491 Q -14.253 2.265 -14.409 2.03 Q -14.566 1.834 -14.664 1.775 Q -14.762 1.716 -14.958 1.716 L -15.37 1.716 L -15.37 3.461 Q -15.37 3.892 -15.291 4.103 Q -15.213 4.313 -14.983 4.382 Q -14.752 4.451 -14.302 4.451 L -14.302 4.823 L -17.379 4.823 L -17.379 4.451 Q -16.987 4.451 -16.776 4.387 Q -16.565 4.323 -16.487 4.108 Q -16.409 3.892 -16.409 3.461 L -16.409 -0.871 Q -16.409 -1.184 -16.472 -1.361 Q -16.536 -1.537 -16.742 -1.616 Q -16.948 -1.694 -17.379 -1.694 L -17.379 -2.066 L -14.654 -2.066 Q -13.89 -2.066 -13.253 -1.914 Q -12.616 -1.763 -12.234 -1.371 Q -11.852 -0.979 -11.852 -0.253 Z M -15.37 -1.576 L -15.37 -1.576 L -15.37 1.256 L -14.997 1.256 Q -14.086 1.256 -13.532 0.888 Q -12.979 0.521 -12.979 -0.293 Q -12.979 -1.596 -14.586 -1.596 Q -14.782 -1.596 -14.978 -1.591 Q -15.174 -1.586 -15.37 -1.576 Z " fill="black" /><path d="M -3.492 4.823 L -3.492 4.823 L -6.501 4.823 L -6.501 4.46 L -6.364 4.46 Q -5.844 4.46 -5.844 4.196 Q -5.844 4.029 -5.937 3.843 Q -6.03 3.657 -6.256 3.333 L -6.903 2.334 L -7.187 1.844 L -7.226 1.844 L -8.431 3.49 Q -8.529 3.647 -8.671 3.848 Q -8.814 4.049 -8.814 4.186 Q -8.814 4.294 -8.701 4.377 Q -8.588 4.46 -8.157 4.46 L -8.157 4.823 L -10.538 4.823 L -10.538 4.46 Q -10.254 4.451 -10.063 4.382 Q -9.872 4.313 -9.681 4.117 Q -9.49 3.921 -9.206 3.539 L -7.549 1.383 L -9 -0.704 Q -9.294 -1.135 -9.48 -1.346 Q -9.666 -1.557 -9.862 -1.625 Q -10.058 -1.694 -10.401 -1.694 L -10.401 -2.066 L -7.461 -2.066 L -7.461 -1.694 L -7.569 -1.694 Q -7.843 -1.694 -7.941 -1.62 Q -8.039 -1.547 -8.039 -1.39 Q -8.039 -1.302 -7.985 -1.189 Q -7.932 -1.077 -7.843 -0.939 L -7.275 -0.067 L -6.863 0.648 L -6.814 0.648 L -5.785 -0.832 Q -5.658 -1.047 -5.58 -1.194 Q -5.501 -1.341 -5.501 -1.449 Q -5.501 -1.576 -5.629 -1.635 Q -5.756 -1.694 -6.128 -1.694 L -6.128 -2.066 L -3.62 -2.066 L -3.62 -1.694 Q -3.963 -1.694 -4.183 -1.625 Q -4.404 -1.557 -4.604 -1.371 Q -4.805 -1.184 -5.09 -0.802 L -6.54 1.079 L -4.59 3.843 Q -4.404 4.098 -4.257 4.23 Q -4.11 4.362 -3.933 4.407 Q -3.757 4.451 -3.492 4.46 Z " fill="black" /></g></g></g><circle cx="81.0" cy="-0.0" r="2.6999999999999997" style="stroke:black;fill:black;stroke-width:2.0;stroke-dasharray:-;" /><g><g><g><path d="M 390.894 -67.408 L 390.894 -67.408 L 394.072 -76.606 L 395.416 -76.606 L 398.594 -67.408 L 397.32 -67.408 L 396.438 -70.194 L 393.008 -70.194 L 392.112 -67.408 Z M 393.316 -71.132 L 393.316 -71.132 L 396.144 -71.132 L 395.696 -72.532 Q 395.43 -73.302 395.206 -74.065 Q 394.982 -74.828 394.744 -75.626 L 394.688 -75.626 Q 394.464 -74.828 394.24 -74.065 Q 394.016 -73.302 393.764 -72.532 Z " fill="black" /><path d="M 399.91 -67.408 L 399.91 -67.408 L 399.91 -76.606 L 402.262 -76.606 Q 404.432 -76.606 405.566 -75.423 Q 406.7 -74.24 406.7 -72.042 Q 406.7 -69.844 405.573 -68.626 Q 404.446 -67.408 402.318 -67.408 Z M 401.114 -68.388 L 401.114 -68.388 L 402.178 -68.388 Q 403.83 -68.388 404.649 -69.347 Q 405.468 -70.306 405.468 -72.042 Q 405.468 -73.778 404.649 -74.702 Q 403.83 -75.626 402.178 -75.626 L 401.114 -75.626 Z " fill="black" /><path d="M 412.286 -67.24 L 412.286 -67.24 Q 411.124 -67.24 410.193 -67.807 Q 409.262 -68.374 408.73 -69.438 Q 408.198 -70.502 408.198 -71.972 Q 408.198 -73.47 408.744 -74.541 Q 409.29 -75.612 410.221 -76.186 Q 411.152 -76.76 412.3 -76.76 Q 413.28 -76.76 413.91 -76.403 Q 414.54 -76.046 414.932 -75.626 L 414.274 -74.856 Q 413.462 -75.724 412.342 -75.724 Q 411.488 -75.724 410.83 -75.276 Q 410.172 -74.828 409.801 -73.995 Q 409.43 -73.162 409.43 -72 Q 409.43 -70.866 409.787 -70.033 Q 410.144 -69.2 410.795 -68.745 Q 411.446 -68.29 412.328 -68.29 Q 413 -68.29 413.532 -68.563 Q 414.064 -68.836 414.512 -69.312 L 415.156 -68.57 Q 414.596 -67.94 413.896 -67.59 Q 413.196 -67.24 412.286 -67.24 Z " fill="black" /></g></g></g><g><g><g><path d="M 454.04 -67.408 L 454.04 -67.408 L 454.04 -76.606 L 456.392 -76.606 Q 458.562 -76.606 459.696 -75.423 Q 460.83 -74.24 460.83 -72.042 Q 460.83 -69.844 459.703 -68.626 Q 458.576 -67.408 456.448 -67.408 Z M 455.244 -68.388 L 455.244 -68.388 L 456.308 -68.388 Q 457.96 -68.388 458.779 -69.347 Q 459.598 -70.306 459.598 -72.042 Q 459.598 -73.778 458.779 -74.702 Q 457.96 -75.626 456.308 -75.626 L 455.244 -75.626 Z " fill="black" /><path d="M 465.478 -67.24 L 465.478 -67.24 Q 464.47 -67.24 463.637 -67.611 Q 462.804 -67.982 462.188 -68.598 L 462.902 -69.424 Q 463.406 -68.906 464.085 -68.598 Q 464.764 -68.29 465.534 -68.29 Q 466.43 -68.29 466.941 -68.696 Q 467.452 -69.102 467.452 -69.788 Q 467.452 -70.236 467.249 -70.516 Q 467.046 -70.796 466.689 -70.992 Q 466.332 -71.188 465.884 -71.37 L 464.54 -71.944 Q 464.134 -72.126 463.686 -72.413 Q 463.238 -72.7 462.937 -73.155 Q 462.636 -73.61 462.636 -74.282 Q 462.636 -75.01 463.021 -75.57 Q 463.406 -76.13 464.071 -76.445 Q 464.736 -76.76 465.576 -76.76 Q 466.43 -76.76 467.144 -76.445 Q 467.858 -76.13 468.362 -75.626 L 467.732 -74.856 Q 467.284 -75.262 466.759 -75.493 Q 466.234 -75.724 465.604 -75.724 Q 464.806 -75.724 464.33 -75.367 Q 463.854 -75.01 463.854 -74.394 Q 463.854 -73.96 464.085 -73.68 Q 464.316 -73.4 464.673 -73.218 Q 465.03 -73.036 465.408 -72.882 L 466.738 -72.322 Q 467.27 -72.098 467.711 -71.783 Q 468.152 -71.468 468.411 -71.006 Q 468.67 -70.544 468.67 -69.9 Q 468.67 -69.144 468.285 -68.542 Q 467.9 -67.94 467.186 -67.59 Q 466.472 -67.24 465.478 -67.24 Z " fill="black" /><path d="M 470.504 -67.408 L 470.504 -67.408 L 470.504 -76.606 L 473.192 -76.606 Q 474.242 -76.606 475.033 -76.347 Q 475.824 -76.088 476.272 -75.5 Q 476.72 -74.912 476.72 -73.904 Q 476.72 -72.924 476.279 -72.287 Q 475.838 -71.65 475.061 -71.342 Q 474.284 -71.034 473.248 -71.034 L 471.708 -71.034 L 471.708 -67.408 Z M 471.708 -72.014 L 471.708 -72.014 L 473.108 -72.014 Q 474.326 -72.014 474.921 -72.462 Q 475.516 -72.91 475.516 -73.89 Q 475.516 -74.884 474.9 -75.262 Q 474.284 -75.64 473.052 -75.64 L 471.708 -75.64 Z " fill="black" /></g></g></g><g><g><g><path d="M 527.292 -77.558 L 527.292 -77.558 L 526.97 -75.374 L 526.634 -75.374 Q 526.606 -76.186 526.263 -76.662 Q 525.92 -77.138 525.304 -77.138 Q 524.758 -77.138 524.52 -76.844 Q 524.282 -76.55 524.282 -76.242 Q 524.282 -75.948 524.485 -75.675 Q 524.688 -75.402 524.996 -75.115 Q 525.304 -74.828 525.612 -74.492 Q 526.06 -74.016 526.389 -73.561 Q 526.718 -73.106 526.718 -72.434 Q 526.718 -72.028 526.515 -71.629 Q 526.312 -71.23 525.85 -70.964 Q 525.388 -70.698 524.59 -70.698 Q 523.932 -70.698 523.533 -70.859 Q 523.134 -71.02 522.98 -71.076 L 522.938 -71.076 L 522.602 -70.698 L 522.294 -70.698 L 522.658 -73.036 L 523.008 -73.036 Q 523.12 -72.126 523.435 -71.65 Q 523.75 -71.174 524.464 -71.174 Q 524.954 -71.174 525.255 -71.412 Q 525.556 -71.65 525.556 -72.196 Q 525.556 -72.77 525.241 -73.169 Q 524.926 -73.568 524.52 -73.946 Q 524.24 -74.226 523.953 -74.492 Q 523.666 -74.758 523.477 -75.087 Q 523.288 -75.416 523.288 -75.85 Q 523.288 -76.564 523.764 -77.061 Q 524.24 -77.558 525.192 -77.558 Q 525.752 -77.558 526.123 -77.404 Q 526.494 -77.25 526.62 -77.18 L 526.662 -77.18 L 527.026 -77.558 Z " fill="black" /><path d="M 533.529 -72.988 L 533.529 -72.988 Q 533.529 -72.41 533.264 -72.048 Q 533 -71.685 532.593 -71.489 Q 532.186 -71.293 531.755 -71.195 L 531.755 -71.117 Q 531.902 -70.989 532.103 -70.754 Q 532.304 -70.519 532.647 -70.063 Q 532.99 -69.607 533.558 -68.823 Q 533.813 -68.48 534.034 -68.382 Q 534.254 -68.284 534.646 -68.284 L 534.646 -67.912 L 532.872 -67.912 Q 532.431 -68.549 532.133 -68.985 Q 531.834 -69.421 531.633 -69.72 Q 531.432 -70.019 531.28 -70.244 Q 531.128 -70.47 530.971 -70.705 Q 530.814 -70.901 530.716 -70.96 Q 530.618 -71.019 530.422 -71.019 L 530.011 -71.019 L 530.011 -69.274 Q 530.011 -68.843 530.089 -68.632 Q 530.168 -68.422 530.398 -68.353 Q 530.628 -68.284 531.079 -68.284 L 531.079 -67.912 L 528.002 -67.912 L 528.002 -68.284 Q 528.394 -68.284 528.605 -68.348 Q 528.815 -68.412 528.894 -68.627 Q 528.972 -68.843 528.972 -69.274 L 528.972 -73.606 Q 528.972 -73.919 528.908 -74.096 Q 528.845 -74.272 528.639 -74.351 Q 528.433 -74.429 528.002 -74.429 L 528.002 -74.801 L 530.726 -74.801 Q 531.491 -74.801 532.128 -74.65 Q 532.765 -74.498 533.147 -74.106 Q 533.529 -73.714 533.529 -72.988 Z M 530.011 -74.311 L 530.011 -74.311 L 530.011 -71.479 L 530.383 -71.479 Q 531.295 -71.479 531.848 -71.847 Q 532.402 -72.214 532.402 -73.028 Q 532.402 -74.331 530.795 -74.331 Q 530.599 -74.331 530.403 -74.326 Q 530.207 -74.321 530.011 -74.311 Z " fill="black" /><path d="M 541.888 -67.912 L 541.888 -67.912 L 538.88 -67.912 L 538.88 -68.275 L 539.017 -68.275 Q 539.536 -68.275 539.536 -68.539 Q 539.536 -68.706 539.443 -68.892 Q 539.35 -69.078 539.125 -69.402 L 538.478 -70.401 L 538.194 -70.891 L 538.155 -70.891 L 536.949 -69.245 Q 536.851 -69.088 536.709 -68.887 Q 536.567 -68.686 536.567 -68.549 Q 536.567 -68.441 536.68 -68.358 Q 536.792 -68.275 537.224 -68.275 L 537.224 -67.912 L 534.842 -67.912 L 534.842 -68.275 Q 535.126 -68.284 535.317 -68.353 Q 535.509 -68.422 535.7 -68.618 Q 535.891 -68.814 536.175 -69.196 L 537.831 -71.352 L 536.381 -73.439 Q 536.087 -73.87 535.901 -74.081 Q 535.714 -74.292 535.518 -74.36 Q 535.322 -74.429 534.979 -74.429 L 534.979 -74.801 L 537.919 -74.801 L 537.919 -74.429 L 537.812 -74.429 Q 537.537 -74.429 537.439 -74.356 Q 537.341 -74.282 537.341 -74.125 Q 537.341 -74.037 537.395 -73.924 Q 537.449 -73.812 537.537 -73.674 L 538.106 -72.802 L 538.517 -72.087 L 538.566 -72.087 L 539.595 -73.567 Q 539.723 -73.782 539.801 -73.929 Q 539.879 -74.076 539.879 -74.184 Q 539.879 -74.311 539.752 -74.37 Q 539.625 -74.429 539.252 -74.429 L 539.252 -74.801 L 541.761 -74.801 L 541.761 -74.429 Q 541.418 -74.429 541.197 -74.36 Q 540.977 -74.292 540.776 -74.106 Q 540.575 -73.919 540.291 -73.537 L 538.841 -71.656 L 540.791 -68.892 Q 540.977 -68.637 541.124 -68.505 Q 541.271 -68.373 541.447 -68.329 Q 541.624 -68.284 541.888 -68.275 Z " fill="black" /><path d="M 542.908 -66.442 L 542.908 -66.442 L 542.741 -66.765 Q 542.947 -66.854 543.162 -66.996 Q 543.378 -67.138 543.52 -67.398 Q 543.662 -67.657 543.662 -68.079 Q 543.496 -68.01 543.319 -68.01 Q 542.996 -68.01 542.859 -68.201 Q 542.721 -68.392 542.721 -68.637 Q 542.721 -68.902 542.898 -69.098 Q 543.074 -69.294 543.407 -69.294 Q 543.829 -69.294 544.049 -69.034 Q 544.27 -68.774 544.27 -68.314 Q 544.27 -67.843 544.123 -67.515 Q 543.976 -67.187 543.755 -66.976 Q 543.535 -66.765 543.305 -66.643 Q 543.074 -66.52 542.908 -66.442 Z " fill="black" /><path d="M 545.838 -69.343 L 545.838 -69.343 L 545.838 -73.341 Q 545.838 -73.753 545.789 -73.993 Q 545.74 -74.233 545.524 -74.331 Q 545.309 -74.429 544.809 -74.429 L 544.809 -74.801 L 547.896 -74.801 L 547.896 -74.429 Q 547.406 -74.429 547.19 -74.331 Q 546.975 -74.233 546.926 -73.993 Q 546.877 -73.753 546.877 -73.341 L 546.877 -69.343 Q 546.877 -68.912 546.94 -68.681 Q 547.004 -68.451 547.22 -68.368 Q 547.435 -68.284 547.896 -68.284 L 547.896 -67.912 L 544.809 -67.912 L 544.809 -68.284 Q 545.289 -68.284 545.505 -68.353 Q 545.72 -68.422 545.779 -68.652 Q 545.838 -68.882 545.838 -69.343 Z " fill="black" /></g></g></g><g><g><g><path d="M 550.087 126.992 L 550.087 126.992 L 550.087 117.794 L 551.529 117.794 L 553.335 122.694 Q 553.503 123.156 553.664 123.639 Q 553.825 124.122 554.007 124.598 L 554.049 124.598 Q 554.217 124.122 554.378 123.639 Q 554.539 123.156 554.707 122.694 L 556.485 117.794 L 557.927 117.794 L 557.927 126.992 L 556.807 126.992 L 556.807 121.98 Q 556.807 121.364 556.856 120.608 Q 556.905 119.852 556.961 119.25 L 556.905 119.25 L 556.163 121.35 L 554.399 126.068 L 553.601 126.068 L 551.823 121.35 L 551.081 119.25 L 551.025 119.25 Q 551.081 119.852 551.13 120.608 Q 551.179 121.364 551.179 121.98 L 551.179 126.992 Z " fill="black" /><path d="M 563.961 127.16 L 563.961 127.16 Q 562.785 127.16 561.882 126.579 Q 560.979 125.998 560.468 124.92 Q 559.957 123.842 559.957 122.358 Q 559.957 120.888 560.468 119.831 Q 560.979 118.774 561.882 118.207 Q 562.785 117.64 563.961 117.64 Q 565.151 117.64 566.054 118.207 Q 566.957 118.774 567.468 119.831 Q 567.979 120.888 567.979 122.358 Q 567.979 123.828 567.468 124.906 Q 566.957 125.984 566.054 126.572 Q 565.151 127.16 563.961 127.16 Z M 563.961 126.11 L 563.961 126.11 Q 564.801 126.11 565.424 125.648 Q 566.047 125.186 566.39 124.339 Q 566.733 123.492 566.733 122.358 Q 566.733 120.65 565.977 119.663 Q 565.221 118.676 563.961 118.676 Q 562.701 118.676 561.945 119.663 Q 561.189 120.65 561.189 122.358 Q 561.189 123.492 561.532 124.339 Q 561.875 125.186 562.498 125.648 Q 563.121 126.11 563.961 126.11 Z " fill="black" /><path d="M 570.009 126.992 L 570.009 126.992 L 570.009 117.794 L 572.361 117.794 Q 574.531 117.794 575.665 118.977 Q 576.799 120.16 576.799 122.358 Q 576.799 124.556 575.672 125.774 Q 574.545 126.992 572.417 126.992 Z M 571.213 126.012 L 571.213 126.012 L 572.277 126.012 Q 573.929 126.012 574.748 125.053 Q 575.567 124.094 575.567 122.358 Q 575.567 120.622 574.748 119.698 Q 573.929 118.774 572.277 118.774 L 571.213 118.774 Z " fill="black" /><path d="M 578.829 126.992 L 578.829 126.992 L 578.829 117.794 L 584.247 117.794 L 584.247 118.802 L 580.033 118.802 L 580.033 121.672 L 583.589 121.672 L 583.589 122.666 L 580.033 122.666 L 580.033 125.97 L 584.387 125.97 L 584.387 126.992 Z " fill="black" /><path d="M 586.375 126.992 L 586.375 126.992 L 586.375 117.794 L 587.817 117.794 L 589.623 122.694 Q 589.791 123.156 589.952 123.639 Q 590.113 124.122 590.295 124.598 L 590.337 124.598 Q 590.505 124.122 590.666 123.639 Q 590.827 123.156 590.995 122.694 L 592.773 117.794 L 594.215 117.794 L 594.215 126.992 L 593.095 126.992 L 593.095 121.98 Q 593.095 121.364 593.144 120.608 Q 593.193 119.852 593.249 119.25 L 593.193 119.25 L 592.451 121.35 L 590.687 126.068 L 589.889 126.068 L 588.111 121.35 L 587.369 119.25 L 587.313 119.25 Q 587.369 119.852 587.418 120.608 Q 587.467 121.364 587.467 121.98 L 587.467 126.992 Z " fill="black" /></g></g></g><g><g><g><path d="M 390.894 76.592 L 390.894 76.592 L 394.072 67.394 L 395.416 67.394 L 398.594 76.592 L 397.32 76.592 L 396.438 73.806 L 393.008 73.806 L 392.112 76.592 Z M 393.316 72.868 L 393.316 72.868 L 396.144 72.868 L 395.696 71.468 Q 395.43 70.698 395.206 69.935 Q 394.982 69.172 394.744 68.374 L 394.688 68.374 Q 394.464 69.172 394.24 69.935 Q 394.016 70.698 393.764 71.468 Z " fill="black" /><path d="M 399.91 76.592 L 399.91 76.592 L 399.91 67.394 L 402.262 67.394 Q 404.432 67.394 405.566 68.577 Q 406.7 69.76 406.7 71.958 Q 406.7 74.156 405.573 75.374 Q 404.446 76.592 402.318 76.592 Z M 401.114 75.612 L 401.114 75.612 L 402.178 75.612 Q 403.83 75.612 404.649 74.653 Q 405.468 73.694 405.468 71.958 Q 405.468 70.222 404.649 69.298 Q 403.83 68.374 402.178 68.374 L 401.114 68.374 Z " fill="black" /><path d="M 412.286 76.76 L 412.286 76.76 Q 411.124 76.76 410.193 76.193 Q 409.262 75.626 408.73 74.562 Q 408.198 73.498 408.198 72.028 Q 408.198 70.53 408.744 69.459 Q 409.29 68.388 410.221 67.814 Q 411.152 67.24 412.3 67.24 Q 413.28 67.24 413.91 67.597 Q 414.54 67.954 414.932 68.374 L 414.274 69.144 Q 413.462 68.276 412.342 68.276 Q 411.488 68.276 410.83 68.724 Q 410.172 69.172 409.801 70.005 Q 409.43 70.838 409.43 72 Q 409.43 73.134 409.787 73.967 Q 410.144 74.8 410.795 75.255 Q 411.446 75.71 412.328 75.71 Q 413 75.71 413.532 75.437 Q 414.064 75.164 414.512 74.688 L 415.156 75.43 Q 414.596 76.06 413.896 76.41 Q 413.196 76.76 412.286 76.76 Z " fill="black" /></g></g></g><g><g><g><path d="M 454.04 76.592 L 454.04 76.592 L 454.04 67.394 L 456.392 67.394 Q 458.562 67.394 459.696 68.577 Q 460.83 69.76 460.83 71.958 Q 460.83 74.156 459.703 75.374 Q 458.576 76.592 456.448 76.592 Z M 455.244 75.612 L 455.244 75.612 L 456.308 75.612 Q 457.96 75.612 458.779 74.653 Q 459.598 73.694 459.598 71.958 Q 459.598 70.222 458.779 69.298 Q 457.96 68.374 456.308 68.374 L 455.244 68.374 Z " fill="black" /><path d="M 465.478 76.76 L 465.478 76.76 Q 464.47 76.76 463.637 76.389 Q 462.804 76.018 462.188 75.402 L 462.902 74.576 Q 463.406 75.094 464.085 75.402 Q 464.764 75.71 465.534 75.71 Q 466.43 75.71 466.941 75.304 Q 467.452 74.898 467.452 74.212 Q 467.452 73.764 467.249 73.484 Q 467.046 73.204 466.689 73.008 Q 466.332 72.812 465.884 72.63 L 464.54 72.056 Q 464.134 71.874 463.686 71.587 Q 463.238 71.3 462.937 70.845 Q 462.636 70.39 462.636 69.718 Q 462.636 68.99 463.021 68.43 Q 463.406 67.87 464.071 67.555 Q 464.736 67.24 465.576 67.24 Q 466.43 67.24 467.144 67.555 Q 467.858 67.87 468.362 68.374 L 467.732 69.144 Q 467.284 68.738 466.759 68.507 Q 466.234 68.276 465.604 68.276 Q 464.806 68.276 464.33 68.633 Q 463.854 68.99 463.854 69.606 Q 463.854 70.04 464.085 70.32 Q 464.316 70.6 464.673 70.782 Q 465.03 70.964 465.408 71.118 L 466.738 71.678 Q 467.27 71.902 467.711 72.217 Q 468.152 72.532 468.411 72.994 Q 468.67 73.456 468.67 74.1 Q 468.67 74.856 468.285 75.458 Q 467.9 76.06 467.186 76.41 Q 466.472 76.76 465.478 76.76 Z " fill="black" /><path d="M 470.504 76.592 L 470.504 76.592 L 470.504 67.394 L 473.192 67.394 Q 474.242 67.394 475.033 67.653 Q 475.824 67.912 476.272 68.5 Q 476.72 69.088 476.72 70.096 Q 476.72 71.076 476.279 71.713 Q 475.838 72.35 475.061 72.658 Q 474.284 72.966 473.248 72.966 L 471.708 72.966 L 471.708 76.592 Z M 471.708 71.986 L 471.708 71.986 L 473.108 71.986 Q 474.326 71.986 474.921 71.538 Q 475.516 71.09 475.516 70.11 Q 475.516 69.116 474.9 68.738 Q 474.284 68.36 473.052 68.36 L 471.708 68.36 Z " fill="black" /></g></g></g><g><g><g><path d="M 527.292 66.275 L 527.292 66.275 L 526.97 68.459 L 526.634 68.459 Q 526.606 67.647 526.263 67.171 Q 525.92 66.695 525.304 66.695 Q 524.758 66.695 524.52 66.989 Q 524.282 67.283 524.282 67.591 Q 524.282 67.885 524.485 68.158 Q 524.688 68.431 524.996 68.718 Q 525.304 69.005 525.612 69.341 Q 526.06 69.817 526.389 70.272 Q 526.718 70.727 526.718 71.399 Q 526.718 71.805 526.515 72.204 Q 526.312 72.603 525.85 72.869 Q 525.388 73.135 524.59 73.135 Q 523.932 73.135 523.533 72.974 Q 523.134 72.813 522.98 72.757 L 522.938 72.757 L 522.602 73.135 L 522.294 73.135 L 522.658 70.797 L 523.008 70.797 Q 523.12 71.707 523.435 72.183 Q 523.75 72.659 524.464 72.659 Q 524.954 72.659 525.255 72.421 Q 525.556 72.183 525.556 71.637 Q 525.556 71.063 525.241 70.664 Q 524.926 70.265 524.52 69.887 Q 524.24 69.607 523.953 69.341 Q 523.666 69.075 523.477 68.746 Q 523.288 68.417 523.288 67.983 Q 523.288 67.269 523.764 66.772 Q 524.24 66.275 525.192 66.275 Q 525.752 66.275 526.123 66.429 Q 526.494 66.583 526.62 66.653 L 526.662 66.653 L 527.026 66.275 Z " fill="black" /><path d="M 533.529 70.845 L 533.529 70.845 Q 533.529 71.423 533.264 71.786 Q 533 72.148 532.593 72.344 Q 532.186 72.54 531.755 72.638 L 531.755 72.717 Q 531.902 72.844 532.103 73.079 Q 532.304 73.315 532.647 73.77 Q 532.99 74.226 533.558 75.01 Q 533.813 75.353 534.034 75.451 Q 534.254 75.549 534.646 75.549 L 534.646 75.921 L 532.872 75.921 Q 532.431 75.284 532.133 74.848 Q 531.834 74.412 531.633 74.113 Q 531.432 73.814 531.28 73.589 Q 531.128 73.364 530.971 73.128 Q 530.814 72.932 530.716 72.874 Q 530.618 72.815 530.422 72.815 L 530.011 72.815 L 530.011 74.559 Q 530.011 74.99 530.089 75.201 Q 530.168 75.412 530.398 75.48 Q 530.628 75.549 531.079 75.549 L 531.079 75.921 L 528.002 75.921 L 528.002 75.549 Q 528.394 75.549 528.605 75.485 Q 528.815 75.422 528.894 75.206 Q 528.972 74.99 528.972 74.559 L 528.972 70.228 Q 528.972 69.914 528.908 69.738 Q 528.845 69.561 528.639 69.483 Q 528.433 69.404 528.002 69.404 L 528.002 69.032 L 530.726 69.032 Q 531.491 69.032 532.128 69.184 Q 532.765 69.336 533.147 69.728 Q 533.529 70.12 533.529 70.845 Z M 530.011 69.522 L 530.011 69.522 L 530.011 72.354 L 530.383 72.354 Q 531.295 72.354 531.848 71.987 Q 532.402 71.619 532.402 70.806 Q 532.402 69.502 530.795 69.502 Q 530.599 69.502 530.403 69.507 Q 530.207 69.512 530.011 69.522 Z " fill="black" /><path d="M 541.888 75.921 L 541.888 75.921 L 538.88 75.921 L 538.88 75.559 L 539.017 75.559 Q 539.536 75.559 539.536 75.294 Q 539.536 75.128 539.443 74.941 Q 539.35 74.755 539.125 74.432 L 538.478 73.432 L 538.194 72.942 L 538.155 72.942 L 536.949 74.589 Q 536.851 74.745 536.709 74.946 Q 536.567 75.147 536.567 75.284 Q 536.567 75.392 536.68 75.476 Q 536.792 75.559 537.224 75.559 L 537.224 75.921 L 534.842 75.921 L 534.842 75.559 Q 535.126 75.549 535.317 75.48 Q 535.509 75.412 535.7 75.216 Q 535.891 75.02 536.175 74.638 L 537.831 72.482 L 536.381 70.394 Q 536.087 69.963 535.901 69.752 Q 535.714 69.542 535.518 69.473 Q 535.322 69.404 534.979 69.404 L 534.979 69.032 L 537.919 69.032 L 537.919 69.404 L 537.812 69.404 Q 537.537 69.404 537.439 69.478 Q 537.341 69.551 537.341 69.708 Q 537.341 69.796 537.395 69.909 Q 537.449 70.022 537.537 70.159 L 538.106 71.031 L 538.517 71.747 L 538.566 71.747 L 539.595 70.267 Q 539.723 70.051 539.801 69.904 Q 539.879 69.757 539.879 69.649 Q 539.879 69.522 539.752 69.463 Q 539.625 69.404 539.252 69.404 L 539.252 69.032 L 541.761 69.032 L 541.761 69.404 Q 541.418 69.404 541.197 69.473 Q 540.977 69.542 540.776 69.728 Q 540.575 69.914 540.291 70.296 L 538.841 72.178 L 540.791 74.941 Q 540.977 75.196 541.124 75.329 Q 541.271 75.461 541.447 75.505 Q 541.624 75.549 541.888 75.559 Z " fill="black" /><path d="M 542.908 77.391 L 542.908 77.391 L 542.741 77.068 Q 542.947 76.98 543.162 76.838 Q 543.378 76.696 543.52 76.436 Q 543.662 76.176 543.662 75.755 Q 543.496 75.823 543.319 75.823 Q 542.996 75.823 542.859 75.632 Q 542.721 75.441 542.721 75.196 Q 542.721 74.932 542.898 74.736 Q 543.074 74.54 543.407 74.54 Q 543.829 74.54 544.049 74.799 Q 544.27 75.059 544.27 75.52 Q 544.27 75.99 544.123 76.318 Q 543.976 76.647 543.755 76.857 Q 543.535 77.068 543.305 77.191 Q 543.074 77.313 542.908 77.391 Z " fill="black" /><path d="M 551.816 72.511 L 551.816 72.511 Q 551.816 73.854 551.164 74.721 Q 550.512 75.588 549.405 75.882 L 549.405 75.931 Q 549.768 76.441 550.12 76.74 Q 550.473 77.039 550.904 77.166 Q 551.336 77.293 551.943 77.293 L 551.943 77.725 L 551.394 77.725 Q 550.571 77.725 549.993 77.607 Q 549.415 77.489 549.013 77.21 Q 548.611 76.931 548.317 76.451 L 548.053 76.039 Q 547.102 75.97 546.392 75.534 Q 545.681 75.098 545.294 74.319 Q 544.907 73.54 544.907 72.472 Q 544.907 71.404 545.328 70.605 Q 545.75 69.806 546.529 69.36 Q 547.308 68.914 548.356 68.914 Q 549.425 68.914 550.199 69.38 Q 550.973 69.845 551.394 70.654 Q 551.816 71.462 551.816 72.511 Z M 550.571 72.374 L 550.571 72.374 Q 550.571 70.943 549.969 70.179 Q 549.366 69.414 548.347 69.414 Q 547.337 69.414 546.744 70.188 Q 546.151 70.963 546.151 72.403 Q 546.151 73.903 546.69 74.716 Q 547.229 75.529 548.366 75.529 Q 549.503 75.529 550.037 74.741 Q 550.571 73.952 550.571 72.374 Z " fill="black" /></g></g></g><g><g><g><path d="M 104.645 4.508 L 104.645 4.508 Q 103.287 4.508 102.51 3.311 Q 101.733 2.114 101.733 -0.098 Q 101.733 -2.324 102.51 -3.479 Q 103.287 -4.634 104.645 -4.634 Q 106.017 -4.634 106.794 -3.472 Q 107.571 -2.31 107.571 -0.098 Q 107.571 2.114 106.794 3.311 Q 106.017 4.508 104.645 4.508 Z M 104.645 3.556 L 104.645 3.556 Q 105.443 3.556 105.933 2.695 Q 106.423 1.834 106.423 -0.098 Q 106.423 -2.03 105.933 -2.863 Q 105.443 -3.696 104.645 -3.696 Q 103.861 -3.696 103.364 -2.863 Q 102.867 -2.03 102.867 -0.098 Q 102.867 1.834 103.364 2.695 Q 103.861 3.556 104.645 3.556 Z " fill="black" /><path d="M 113.115 -5.586 L 113.115 -5.586 L 109.475 5.586 L 108.691 5.586 L 112.345 -5.586 Z " fill="black" /><path d="M 116.545 4.508 L 116.545 4.508 Q 115.817 4.508 115.264 4.235 Q 114.711 3.962 114.333 3.57 L 114.991 2.842 Q 115.271 3.15 115.67 3.339 Q 116.069 3.528 116.489 3.528 Q 117.133 3.528 117.672 3.178 Q 118.211 2.828 118.547 2.016 Q 118.883 1.204 118.911 -0.182 Q 118.477 0.336 117.903 0.63 Q 117.329 0.924 116.769 0.924 Q 115.579 0.924 114.879 0.238 Q 114.179 -0.448 114.179 -1.806 Q 114.179 -2.66 114.55 -3.29 Q 114.921 -3.92 115.53 -4.277 Q 116.139 -4.634 116.867 -4.634 Q 117.777 -4.634 118.484 -4.165 Q 119.191 -3.696 119.604 -2.758 Q 120.017 -1.82 120.017 -0.392 Q 120.017 1.372 119.527 2.45 Q 119.037 3.528 118.246 4.018 Q 117.455 4.508 116.545 4.508 Z M 118.883 -1.12 L 118.883 -1.12 Q 118.771 -2.394 118.253 -3.059 Q 117.735 -3.724 116.867 -3.724 Q 116.209 -3.724 115.747 -3.199 Q 115.285 -2.674 115.285 -1.806 Q 115.285 -0.952 115.705 -0.448 Q 116.125 0.056 116.965 0.056 Q 117.399 0.056 117.91 -0.217 Q 118.421 -0.49 118.883 -1.12 Z " fill="black" /><path d="M 124.273 4.508 L 124.273 4.508 Q 122.915 4.508 122.138 3.311 Q 121.361 2.114 121.361 -0.098 Q 121.361 -2.324 122.138 -3.479 Q 122.915 -4.634 124.273 -4.634 Q 125.645 -4.634 126.422 -3.472 Q 127.199 -2.31 127.199 -0.098 Q 127.199 2.114 126.422 3.311 Q 125.645 4.508 124.273 4.508 Z M 124.273 3.556 L 124.273 3.556 Q 125.071 3.556 125.561 2.695 Q 126.051 1.834 126.051 -0.098 Q 126.051 -2.03 125.561 -2.863 Q 125.071 -3.696 124.273 -3.696 Q 123.489 -3.696 122.992 -2.863 Q 122.495 -2.03 122.495 -0.098 Q 122.495 1.834 122.992 2.695 Q 123.489 3.556 124.273 3.556 Z " fill="black" /><path d="M 132.827 -3.29 L 132.827 -3.29 Q 132.827 -2.31 132.225 -1.736 Q 131.623 -1.162 130.685 -1.162 Q 129.747 -1.162 129.152 -1.736 Q 128.557 -2.31 128.557 -3.29 Q 128.557 -4.284 129.166 -4.858 Q 129.775 -5.432 130.685 -5.432 Q 131.259 -5.432 131.749 -5.173 Q 132.239 -4.914 132.533 -4.438 Q 132.827 -3.962 132.827 -3.29 Z M 132.057 -3.29 L 132.057 -3.29 Q 132.057 -4.004 131.665 -4.389 Q 131.273 -4.774 130.685 -4.774 Q 130.125 -4.774 129.726 -4.382 Q 129.327 -3.99 129.327 -3.29 Q 129.327 -2.59 129.712 -2.205 Q 130.097 -1.82 130.685 -1.82 Q 131.273 -1.82 131.665 -2.198 Q 132.057 -2.576 132.057 -3.29 Z " fill="black" /></g></g></g><g><g><g><path d="M 215.914 4.599 L 215.914 4.599 L 215.914 -4.599 L 218.602 -4.599 Q 219.652 -4.599 220.443 -4.34 Q 221.234 -4.081 221.682 -3.493 Q 222.13 -2.905 222.13 -1.897 Q 222.13 -0.917 221.689 -0.28 Q 221.248 0.357 220.471 0.665 Q 219.694 0.973 218.658 0.973 L 217.118 0.973 L 217.118 4.599 Z M 217.118 -0.007 L 217.118 -0.007 L 218.518 -0.007 Q 219.736 -0.007 220.331 -0.455 Q 220.926 -0.903 220.926 -1.883 Q 220.926 -2.877 220.31 -3.255 Q 219.694 -3.633 218.462 -3.633 L 217.118 -3.633 Z " fill="black" /><path d="M 224.034 4.599 L 224.034 4.599 L 224.034 -4.599 L 225.238 -4.599 L 225.238 3.577 L 229.34 3.577 L 229.34 4.599 Z " fill="black" /><path d="M 230.992 4.599 L 230.992 4.599 L 230.992 -4.599 L 232.196 -4.599 L 232.196 3.577 L 236.298 3.577 L 236.298 4.599 Z " fill="black" /></g></g></g><g><g><g><path d="M -17.579 247.177 L -17.579 247.177 L -17.901 249.361 L -18.237 249.361 Q -18.265 248.549 -18.608 248.073 Q -18.951 247.597 -19.567 247.597 Q -20.113 247.597 -20.351 247.891 Q -20.589 248.185 -20.589 248.493 Q -20.589 248.787 -20.386 249.06 Q -20.183 249.333 -19.875 249.62 Q -19.567 249.907 -19.259 250.243 Q -18.811 250.719 -18.482 251.174 Q -18.153 251.629 -18.153 252.301 Q -18.153 252.707 -18.356 253.106 Q -18.559 253.505 -19.021 253.771 Q -19.483 254.037 -20.281 254.037 Q -20.939 254.037 -21.338 253.876 Q -21.737 253.715 -21.891 253.659 L -21.933 253.659 L -22.269 254.037 L -22.577 254.037 L -22.213 251.699 L -21.863 251.699 Q -21.751 252.609 -21.436 253.085 Q -21.121 253.561 -20.407 253.561 Q -19.917 253.561 -19.616 253.323 Q -19.315 253.085 -19.315 252.539 Q -19.315 251.965 -19.63 251.566 Q -19.945 251.167 -20.351 250.789 Q -20.631 250.509 -20.918 250.243 Q -21.205 249.977 -21.394 249.648 Q -21.583 249.319 -21.583 248.885 Q -21.583 248.171 -21.107 247.674 Q -20.631 247.177 -19.679 247.177 Q -19.119 247.177 -18.748 247.331 Q -18.377 247.485 -18.251 247.555 L -18.209 247.555 L -17.845 247.177 Z " fill="black" /><path d="M -11.028 251.874 L -11.028 251.874 L -11.411 251.874 Q -11.499 251.443 -11.587 251.164 Q -11.675 250.884 -11.812 250.727 Q -11.95 250.571 -12.199 250.502 Q -12.449 250.433 -12.871 250.433 L -13.557 250.433 L -13.557 255.382 Q -13.557 255.853 -13.483 256.078 Q -13.41 256.304 -13.189 256.377 Q -12.969 256.451 -12.528 256.451 L -12.528 256.823 L -15.634 256.823 L -15.634 256.451 Q -15.184 256.451 -14.973 256.377 Q -14.762 256.304 -14.694 256.078 Q -14.625 255.853 -14.625 255.382 L -14.625 250.433 L -15.311 250.433 Q -15.87 250.433 -16.139 250.556 Q -16.409 250.678 -16.531 250.992 Q -16.654 251.306 -16.771 251.874 L -17.163 251.874 L -17.046 249.934 L -11.126 249.934 Z " fill="black" /><path d="M -3.492 256.823 L -3.492 256.823 L -6.501 256.823 L -6.501 256.46 L -6.364 256.46 Q -5.844 256.46 -5.844 256.196 Q -5.844 256.029 -5.937 255.843 Q -6.03 255.657 -6.256 255.333 L -6.903 254.334 L -7.187 253.844 L -7.226 253.844 L -8.431 255.49 Q -8.529 255.647 -8.671 255.848 Q -8.814 256.049 -8.814 256.186 Q -8.814 256.294 -8.701 256.377 Q -8.588 256.46 -8.157 256.46 L -8.157 256.823 L -10.538 256.823 L -10.538 256.46 Q -10.254 256.451 -10.063 256.382 Q -9.872 256.313 -9.681 256.117 Q -9.49 255.921 -9.206 255.539 L -7.549 253.383 L -9 251.296 Q -9.294 250.865 -9.48 250.654 Q -9.666 250.443 -9.862 250.375 Q -10.058 250.306 -10.401 250.306 L -10.401 249.934 L -7.461 249.934 L -7.461 250.306 L -7.569 250.306 Q -7.843 250.306 -7.941 250.38 Q -8.039 250.453 -8.039 250.61 Q -8.039 250.698 -7.985 250.811 Q -7.932 250.923 -7.843 251.061 L -7.275 251.933 L -6.863 252.648 L -6.814 252.648 L -5.785 251.168 Q -5.658 250.953 -5.58 250.806 Q -5.501 250.659 -5.501 250.551 Q -5.501 250.424 -5.629 250.365 Q -5.756 250.306 -6.128 250.306 L -6.128 249.934 L -3.62 249.934 L -3.62 250.306 Q -3.963 250.306 -4.183 250.375 Q -4.404 250.443 -4.604 250.629 Q -4.805 250.816 -5.09 251.198 L -6.54 253.079 L -4.59 255.843 Q -4.404 256.098 -4.257 256.23 Q -4.11 256.362 -3.933 256.407 Q -3.757 256.451 -3.492 256.46 Z " fill="black" /></g></g></g><circle cx="81.0" cy="252.0" r="2.6999999999999997" style="stroke:black;fill:black;stroke-width:2.0;stroke-dasharray:-;" /><g><g><g><path d="M 392.742 184.592 L 392.742 184.592 L 392.742 175.394 L 395.094 175.394 Q 397.264 175.394 398.398 176.577 Q 399.532 177.76 399.532 179.958 Q 399.532 182.156 398.405 183.374 Q 397.278 184.592 395.15 184.592 Z M 393.946 183.612 L 393.946 183.612 L 395.01 183.612 Q 396.662 183.612 397.481 182.653 Q 398.3 181.694 398.3 179.958 Q 398.3 178.222 397.481 177.298 Q 396.662 176.374 395.01 176.374 L 393.946 176.374 Z " fill="black" /><path d="M 400.33 184.592 L 400.33 184.592 L 403.508 175.394 L 404.852 175.394 L 408.03 184.592 L 406.756 184.592 L 405.874 181.806 L 402.444 181.806 L 401.548 184.592 Z M 402.752 180.868 L 402.752 180.868 L 405.58 180.868 L 405.132 179.468 Q 404.866 178.698 404.642 177.935 Q 404.418 177.172 404.18 176.374 L 404.124 176.374 Q 403.9 177.172 403.676 177.935 Q 403.452 178.698 403.2 179.468 Z " fill="black" /><path d="M 412.902 184.76 L 412.902 184.76 Q 411.74 184.76 410.809 184.193 Q 409.878 183.626 409.346 182.562 Q 408.814 181.498 408.814 180.028 Q 408.814 178.53 409.36 177.459 Q 409.906 176.388 410.837 175.814 Q 411.768 175.24 412.916 175.24 Q 413.896 175.24 414.526 175.597 Q 415.156 175.954 415.548 176.374 L 414.89 177.144 Q 414.078 176.276 412.958 176.276 Q 412.104 176.276 411.446 176.724 Q 410.788 177.172 410.417 178.005 Q 410.046 178.838 410.046 180 Q 410.046 181.134 410.403 181.967 Q 410.76 182.8 411.411 183.255 Q 412.062 183.71 412.944 183.71 Q 413.616 183.71 414.148 183.437 Q 414.68 183.164 415.128 182.688 L 415.772 183.43 Q 415.212 184.06 414.512 184.41 Q 413.812 184.76 412.902 184.76 Z " fill="black" /></g></g></g><g><g><g><path d="M 454.04 184.592 L 454.04 184.592 L 454.04 175.394 L 456.392 175.394 Q 458.562 175.394 459.696 176.577 Q 460.83 177.76 460.83 179.958 Q 460.83 182.156 459.703 183.374 Q 458.576 184.592 456.448 184.592 Z M 455.244 183.612 L 455.244 183.612 L 456.308 183.612 Q 457.96 183.612 458.779 182.653 Q 459.598 181.694 459.598 179.958 Q 459.598 178.222 458.779 177.298 Q 457.96 176.374 456.308 176.374 L 455.244 176.374 Z " fill="black" /><path d="M 465.478 184.76 L 465.478 184.76 Q 464.47 184.76 463.637 184.389 Q 462.804 184.018 462.188 183.402 L 462.902 182.576 Q 463.406 183.094 464.085 183.402 Q 464.764 183.71 465.534 183.71 Q 466.43 183.71 466.941 183.304 Q 467.452 182.898 467.452 182.212 Q 467.452 181.764 467.249 181.484 Q 467.046 181.204 466.689 181.008 Q 466.332 180.812 465.884 180.63 L 464.54 180.056 Q 464.134 179.874 463.686 179.587 Q 463.238 179.3 462.937 178.845 Q 462.636 178.39 462.636 177.718 Q 462.636 176.99 463.021 176.43 Q 463.406 175.87 464.071 175.555 Q 464.736 175.24 465.576 175.24 Q 466.43 175.24 467.144 175.555 Q 467.858 175.87 468.362 176.374 L 467.732 177.144 Q 467.284 176.738 466.759 176.507 Q 466.234 176.276 465.604 176.276 Q 464.806 176.276 464.33 176.633 Q 463.854 176.99 463.854 177.606 Q 463.854 178.04 464.085 178.32 Q 464.316 178.6 464.673 178.782 Q 465.03 178.964 465.408 179.118 L 466.738 179.678 Q 467.27 179.902 467.711 180.217 Q 468.152 180.532 468.411 180.994 Q 468.67 181.456 468.67 182.1 Q 468.67 182.856 468.285 183.458 Q 467.9 184.06 467.186 184.41 Q 466.472 184.76 465.478 184.76 Z " fill="black" /><path d="M 470.504 184.592 L 470.504 184.592 L 470.504 175.394 L 473.192 175.394 Q 474.242 175.394 475.033 175.653 Q 475.824 175.912 476.272 176.5 Q 476.72 177.088 476.72 178.096 Q 476.72 179.076 476.279 179.713 Q 475.838 180.35 475.061 180.658 Q 474.284 180.966 473.248 180.966 L 471.708 180.966 L 471.708 184.592 Z M 471.708 179.986 L 471.708 179.986 L 473.108 179.986 Q 474.326 179.986 474.921 179.538 Q 475.516 179.09 475.516 178.11 Q 475.516 177.116 474.9 176.738 Q 474.284 176.36 473.052 176.36 L 471.708 176.36 Z " fill="black" /></g></g></g><g><g><g><path d="M 527.292 174.442 L 527.292 174.442 L 526.97 176.626 L 526.634 176.626 Q 526.606 175.814 526.263 175.338 Q 525.92 174.862 525.304 174.862 Q 524.758 174.862 524.52 175.156 Q 524.282 175.45 524.282 175.758 Q 524.282 176.052 524.485 176.325 Q 524.688 176.598 524.996 176.885 Q 525.304 177.172 525.612 177.508 Q 526.06 177.984 526.389 178.439 Q 526.718 178.894 526.718 179.566 Q 526.718 179.972 526.515 180.371 Q 526.312 180.77 525.85 181.036 Q 525.388 181.302 524.59 181.302 Q 523.932 181.302 523.533 181.141 Q 523.134 180.98 522.98 180.924 L 522.938 180.924 L 522.602 181.302 L 522.294 181.302 L 522.658 178.964 L 523.008 178.964 Q 523.12 179.874 523.435 180.35 Q 523.75 180.826 524.464 180.826 Q 524.954 180.826 525.255 180.588 Q 525.556 180.35 525.556 179.804 Q 525.556 179.23 525.241 178.831 Q 524.926 178.432 524.52 178.054 Q 524.24 177.774 523.953 177.508 Q 523.666 177.242 523.477 176.913 Q 523.288 176.584 523.288 176.15 Q 523.288 175.436 523.764 174.939 Q 524.24 174.442 525.192 174.442 Q 525.752 174.442 526.123 174.596 Q 526.494 174.75 526.62 174.82 L 526.662 174.82 L 527.026 174.442 Z " fill="black" /><path d="M 533.843 179.139 L 533.843 179.139 L 533.46 179.139 Q 533.372 178.708 533.284 178.428 Q 533.196 178.149 533.059 177.992 Q 532.921 177.836 532.672 177.767 Q 532.422 177.698 532 177.698 L 531.314 177.698 L 531.314 182.647 Q 531.314 183.118 531.388 183.343 Q 531.461 183.569 531.682 183.642 Q 531.902 183.716 532.343 183.716 L 532.343 184.088 L 529.237 184.088 L 529.237 183.716 Q 529.687 183.716 529.898 183.642 Q 530.109 183.569 530.177 183.343 Q 530.246 183.118 530.246 182.647 L 530.246 177.698 L 529.56 177.698 Q 529.001 177.698 528.732 177.821 Q 528.462 177.943 528.34 178.257 Q 528.217 178.571 528.1 179.139 L 527.708 179.139 L 527.825 177.199 L 533.745 177.199 Z " fill="black" /><path d="M 541.379 184.088 L 541.379 184.088 L 538.37 184.088 L 538.37 183.725 L 538.507 183.725 Q 539.027 183.725 539.027 183.461 Q 539.027 183.294 538.934 183.108 Q 538.841 182.922 538.615 182.598 L 537.968 181.599 L 537.684 181.109 L 537.645 181.109 L 536.44 182.755 Q 536.342 182.912 536.2 183.113 Q 536.057 183.314 536.057 183.451 Q 536.057 183.559 536.17 183.642 Q 536.283 183.725 536.714 183.725 L 536.714 184.088 L 534.333 184.088 L 534.333 183.725 Q 534.617 183.716 534.808 183.647 Q 534.999 183.578 535.19 183.382 Q 535.381 183.186 535.665 182.804 L 537.322 180.648 L 535.871 178.561 Q 535.577 178.13 535.391 177.919 Q 535.205 177.708 535.009 177.64 Q 534.813 177.571 534.47 177.571 L 534.47 177.199 L 537.41 177.199 L 537.41 177.571 L 537.302 177.571 Q 537.028 177.571 536.93 177.644 Q 536.832 177.718 536.832 177.875 Q 536.832 177.963 536.885 178.076 Q 536.939 178.188 537.028 178.326 L 537.596 179.198 L 538.008 179.913 L 538.057 179.913 L 539.086 178.433 Q 539.213 178.218 539.291 178.071 Q 539.37 177.924 539.37 177.816 Q 539.37 177.689 539.242 177.63 Q 539.115 177.571 538.743 177.571 L 538.743 177.199 L 541.251 177.199 L 541.251 177.571 Q 540.908 177.571 540.688 177.64 Q 540.467 177.708 540.267 177.894 Q 540.066 178.081 539.781 178.463 L 538.331 180.344 L 540.281 183.108 Q 540.467 183.363 540.614 183.495 Q 540.761 183.627 540.938 183.671 Q 541.114 183.716 541.379 183.725 Z " fill="black" /><path d="M 542.398 185.558 L 542.398 185.558 L 542.231 185.235 Q 542.437 185.146 542.653 185.004 Q 542.868 184.862 543.01 184.602 Q 543.153 184.343 543.153 183.921 Q 542.986 183.99 542.81 183.99 Q 542.486 183.99 542.349 183.799 Q 542.212 183.608 542.212 183.363 Q 542.212 183.098 542.388 182.902 Q 542.565 182.706 542.898 182.706 Q 543.319 182.706 543.54 182.966 Q 543.76 183.226 543.76 183.686 Q 543.76 184.157 543.613 184.485 Q 543.466 184.813 543.246 185.024 Q 543.025 185.235 542.795 185.357 Q 542.565 185.48 542.398 185.558 Z " fill="black" /><path d="M 545.328 182.657 L 545.328 182.657 L 545.328 178.659 Q 545.328 178.247 545.279 178.007 Q 545.23 177.767 545.015 177.669 Q 544.799 177.571 544.299 177.571 L 544.299 177.199 L 547.386 177.199 L 547.386 177.571 Q 546.896 177.571 546.681 177.669 Q 546.465 177.767 546.416 178.007 Q 546.367 178.247 546.367 178.659 L 546.367 182.657 Q 546.367 183.088 546.431 183.319 Q 546.494 183.549 546.71 183.632 Q 546.926 183.716 547.386 183.716 L 547.386 184.088 L 544.299 184.088 L 544.299 183.716 Q 544.779 183.716 544.995 183.647 Q 545.211 183.578 545.269 183.348 Q 545.328 183.118 545.328 182.657 Z " fill="black" /></g></g></g><g><g><g><path d="M 392.742 328.592 L 392.742 328.592 L 392.742 319.394 L 395.094 319.394 Q 397.264 319.394 398.398 320.577 Q 399.532 321.76 399.532 323.958 Q 399.532 326.156 398.405 327.374 Q 397.278 328.592 395.15 328.592 Z M 393.946 327.612 L 393.946 327.612 L 395.01 327.612 Q 396.662 327.612 397.481 326.653 Q 398.3 325.694 398.3 323.958 Q 398.3 322.222 397.481 321.298 Q 396.662 320.374 395.01 320.374 L 393.946 320.374 Z " fill="black" /><path d="M 400.33 328.592 L 400.33 328.592 L 403.508 319.394 L 404.852 319.394 L 408.03 328.592 L 406.756 328.592 L 405.874 325.806 L 402.444 325.806 L 401.548 328.592 Z M 402.752 324.868 L 402.752 324.868 L 405.58 324.868 L 405.132 323.468 Q 404.866 322.698 404.642 321.935 Q 404.418 321.172 404.18 320.374 L 404.124 320.374 Q 403.9 321.172 403.676 321.935 Q 403.452 322.698 403.2 323.468 Z " fill="black" /><path d="M 412.902 328.76 L 412.902 328.76 Q 411.74 328.76 410.809 328.193 Q 409.878 327.626 409.346 326.562 Q 408.814 325.498 408.814 324.028 Q 408.814 322.53 409.36 321.459 Q 409.906 320.388 410.837 319.814 Q 411.768 319.24 412.916 319.24 Q 413.896 319.24 414.526 319.597 Q 415.156 319.954 415.548 320.374 L 414.89 321.144 Q 414.078 320.276 412.958 320.276 Q 412.104 320.276 411.446 320.724 Q 410.788 321.172 410.417 322.005 Q 410.046 322.838 410.046 324 Q 410.046 325.134 410.403 325.967 Q 410.76 326.8 411.411 327.255 Q 412.062 327.71 412.944 327.71 Q 413.616 327.71 414.148 327.437 Q 414.68 327.164 415.128 326.688 L 415.772 327.43 Q 415.212 328.06 414.512 328.41 Q 413.812 328.76 412.902 328.76 Z " fill="black" /></g></g></g><g><g><g><path d="M 454.04 328.592 L 454.04 328.592 L 454.04 319.394 L 456.392 319.394 Q 458.562 319.394 459.696 320.577 Q 460.83 321.76 460.83 323.958 Q 460.83 326.156 459.703 327.374 Q 458.576 328.592 456.448 328.592 Z M 455.244 327.612 L 455.244 327.612 L 456.308 327.612 Q 457.96 327.612 458.779 326.653 Q 459.598 325.694 459.598 323.958 Q 459.598 322.222 458.779 321.298 Q 457.96 320.374 456.308 320.374 L 455.244 320.374 Z " fill="black" /><path d="M 465.478 328.76 L 465.478 328.76 Q 464.47 328.76 463.637 328.389 Q 462.804 328.018 462.188 327.402 L 462.902 326.576 Q 463.406 327.094 464.085 327.402 Q 464.764 327.71 465.534 327.71 Q 466.43 327.71 466.941 327.304 Q 467.452 326.898 467.452 326.212 Q 467.452 325.764 467.249 325.484 Q 467.046 325.204 466.689 325.008 Q 466.332 324.812 465.884 324.63 L 464.54 324.056 Q 464.134 323.874 463.686 323.587 Q 463.238 323.3 462.937 322.845 Q 462.636 322.39 462.636 321.718 Q 462.636 320.99 463.021 320.43 Q 463.406 319.87 464.071 319.555 Q 464.736 319.24 465.576 319.24 Q 466.43 319.24 467.144 319.555 Q 467.858 319.87 468.362 320.374 L 467.732 321.144 Q 467.284 320.738 466.759 320.507 Q 466.234 320.276 465.604 320.276 Q 464.806 320.276 464.33 320.633 Q 463.854 320.99 463.854 321.606 Q 463.854 322.04 464.085 322.32 Q 464.316 322.6 464.673 322.782 Q 465.03 322.964 465.408 323.118 L 466.738 323.678 Q 467.27 323.902 467.711 324.217 Q 468.152 324.532 468.411 324.994 Q 468.67 325.456 468.67 326.1 Q 468.67 326.856 468.285 327.458 Q 467.9 328.06 467.186 328.41 Q 466.472 328.76 465.478 328.76 Z " fill="black" /><path d="M 470.504 328.592 L 470.504 328.592 L 470.504 319.394 L 473.192 319.394 Q 474.242 319.394 475.033 319.653 Q 475.824 319.912 476.272 320.5 Q 476.72 321.088 476.72 322.096 Q 476.72 323.076 476.279 323.713 Q 475.838 324.35 475.061 324.658 Q 474.284 324.966 473.248 324.966 L 471.708 324.966 L 471.708 328.592 Z M 471.708 323.986 L 471.708 323.986 L 473.108 323.986 Q 474.326 323.986 474.921 323.538 Q 475.516 323.09 475.516 322.11 Q 475.516 321.116 474.9 320.738 Q 474.284 320.36 473.052 320.36 L 471.708 320.36 Z " fill="black" /></g></g></g><g><g><g><path d="M 527.292 318.275 L 527.292 318.275 L 526.97 320.459 L 526.634 320.459 Q 526.606 319.647 526.263 319.171 Q 525.92 318.695 525.304 318.695 Q 524.758 318.695 524.52 318.989 Q 524.282 319.283 524.282 319.591 Q 524.282 319.885 524.485 320.158 Q 524.688 320.431 524.996 320.718 Q 525.304 321.005 525.612 321.341 Q 526.06 321.817 526.389 322.272 Q 526.718 322.727 526.718 323.399 Q 526.718 323.805 526.515 324.204 Q 526.312 324.603 525.85 324.869 Q 525.388 325.135 524.59 325.135 Q 523.932 325.135 523.533 324.974 Q 523.134 324.813 522.98 324.757 L 522.938 324.757 L 522.602 325.135 L 522.294 325.135 L 522.658 322.797 L 523.008 322.797 Q 523.12 323.707 523.435 324.183 Q 523.75 324.659 524.464 324.659 Q 524.954 324.659 525.255 324.421 Q 525.556 324.183 525.556 323.637 Q 525.556 323.063 525.241 322.664 Q 524.926 322.265 524.52 321.887 Q 524.24 321.607 523.953 321.341 Q 523.666 321.075 523.477 320.746 Q 523.288 320.417 523.288 319.983 Q 523.288 319.269 523.764 318.772 Q 524.24 318.275 525.192 318.275 Q 525.752 318.275 526.123 318.429 Q 526.494 318.583 526.62 318.653 L 526.662 318.653 L 527.026 318.275 Z " fill="black" /><path d="M 533.843 322.972 L 533.843 322.972 L 533.46 322.972 Q 533.372 322.541 533.284 322.262 Q 533.196 321.983 533.059 321.826 Q 532.921 321.669 532.672 321.6 Q 532.422 321.532 532 321.532 L 531.314 321.532 L 531.314 326.481 Q 531.314 326.951 531.388 327.177 Q 531.461 327.402 531.682 327.476 Q 531.902 327.549 532.343 327.549 L 532.343 327.921 L 529.237 327.921 L 529.237 327.549 Q 529.687 327.549 529.898 327.476 Q 530.109 327.402 530.177 327.177 Q 530.246 326.951 530.246 326.481 L 530.246 321.532 L 529.56 321.532 Q 529.001 321.532 528.732 321.654 Q 528.462 321.777 528.34 322.09 Q 528.217 322.404 528.1 322.972 L 527.708 322.972 L 527.825 321.032 L 533.745 321.032 Z " fill="black" /><path d="M 541.379 327.921 L 541.379 327.921 L 538.37 327.921 L 538.37 327.559 L 538.507 327.559 Q 539.027 327.559 539.027 327.294 Q 539.027 327.128 538.934 326.941 Q 538.841 326.755 538.615 326.432 L 537.968 325.432 L 537.684 324.942 L 537.645 324.942 L 536.44 326.589 Q 536.342 326.745 536.2 326.946 Q 536.057 327.147 536.057 327.284 Q 536.057 327.392 536.17 327.476 Q 536.283 327.559 536.714 327.559 L 536.714 327.921 L 534.333 327.921 L 534.333 327.559 Q 534.617 327.549 534.808 327.48 Q 534.999 327.412 535.19 327.216 Q 535.381 327.02 535.665 326.638 L 537.322 324.482 L 535.871 322.394 Q 535.577 321.963 535.391 321.752 Q 535.205 321.542 535.009 321.473 Q 534.813 321.404 534.47 321.404 L 534.47 321.032 L 537.41 321.032 L 537.41 321.404 L 537.302 321.404 Q 537.028 321.404 536.93 321.478 Q 536.832 321.551 536.832 321.708 Q 536.832 321.796 536.885 321.909 Q 536.939 322.022 537.028 322.159 L 537.596 323.031 L 538.008 323.747 L 538.057 323.747 L 539.086 322.267 Q 539.213 322.051 539.291 321.904 Q 539.37 321.757 539.37 321.649 Q 539.37 321.522 539.242 321.463 Q 539.115 321.404 538.743 321.404 L 538.743 321.032 L 541.251 321.032 L 541.251 321.404 Q 540.908 321.404 540.688 321.473 Q 540.467 321.542 540.267 321.728 Q 540.066 321.914 539.781 322.296 L 538.331 324.178 L 540.281 326.941 Q 540.467 327.196 540.614 327.329 Q 540.761 327.461 540.938 327.505 Q 541.114 327.549 541.379 327.559 Z " fill="black" /><path d="M 542.398 329.391 L 542.398 329.391 L 542.231 329.068 Q 542.437 328.98 542.653 328.838 Q 542.868 328.696 543.01 328.436 Q 543.153 328.176 543.153 327.755 Q 542.986 327.823 542.81 327.823 Q 542.486 327.823 542.349 327.632 Q 542.212 327.441 542.212 327.196 Q 542.212 326.932 542.388 326.736 Q 542.565 326.54 542.898 326.54 Q 543.319 326.54 543.54 326.799 Q 543.76 327.059 543.76 327.52 Q 543.76 327.99 543.613 328.318 Q 543.466 328.647 543.246 328.857 Q 543.025 329.068 542.795 329.19 Q 542.565 329.313 542.398 329.391 Z " fill="black" /><path d="M 551.306 324.511 L 551.306 324.511 Q 551.306 325.854 550.654 326.721 Q 550.003 327.588 548.895 327.882 L 548.895 327.931 Q 549.258 328.441 549.611 328.74 Q 549.964 329.039 550.395 329.166 Q 550.826 329.293 551.434 329.293 L 551.434 329.725 L 550.885 329.725 Q 550.062 329.725 549.483 329.607 Q 548.905 329.489 548.503 329.21 Q 548.102 328.931 547.808 328.451 L 547.543 328.039 Q 546.592 327.97 545.882 327.534 Q 545.171 327.098 544.784 326.319 Q 544.397 325.54 544.397 324.472 Q 544.397 323.404 544.819 322.605 Q 545.24 321.806 546.019 321.36 Q 546.798 320.914 547.847 320.914 Q 548.915 320.914 549.689 321.38 Q 550.463 321.845 550.885 322.654 Q 551.306 323.462 551.306 324.511 Z M 550.062 324.374 L 550.062 324.374 Q 550.062 322.943 549.459 322.179 Q 548.856 321.414 547.837 321.414 Q 546.828 321.414 546.235 322.188 Q 545.642 322.963 545.642 324.403 Q 545.642 325.903 546.181 326.716 Q 546.72 327.529 547.857 327.529 Q 548.993 327.529 549.527 326.74 Q 550.062 325.952 550.062 324.374 Z " fill="black" /></g></g></g><g><g><g><path d="M 104.645 256.508 L 104.645 256.508 Q 103.287 256.508 102.51 255.311 Q 101.733 254.114 101.733 251.902 Q 101.733 249.676 102.51 248.521 Q 103.287 247.366 104.645 247.366 Q 106.017 247.366 106.794 248.528 Q 107.571 249.69 107.571 251.902 Q 107.571 254.114 106.794 255.311 Q 106.017 256.508 104.645 256.508 Z M 104.645 255.556 L 104.645 255.556 Q 105.443 255.556 105.933 254.695 Q 106.423 253.834 106.423 251.902 Q 106.423 249.97 105.933 249.137 Q 105.443 248.304 104.645 248.304 Q 103.861 248.304 103.364 249.137 Q 102.867 249.97 102.867 251.902 Q 102.867 253.834 103.364 254.695 Q 103.861 255.556 104.645 255.556 Z " fill="black" /><path d="M 113.115 246.414 L 113.115 246.414 L 109.475 257.586 L 108.691 257.586 L 112.345 246.414 Z " fill="black" /><path d="M 116.545 256.508 L 116.545 256.508 Q 115.817 256.508 115.264 256.235 Q 114.711 255.962 114.333 255.57 L 114.991 254.842 Q 115.271 255.15 115.67 255.339 Q 116.069 255.528 116.489 255.528 Q 117.133 255.528 117.672 255.178 Q 118.211 254.828 118.547 254.016 Q 118.883 253.204 118.911 251.818 Q 118.477 252.336 117.903 252.63 Q 117.329 252.924 116.769 252.924 Q 115.579 252.924 114.879 252.238 Q 114.179 251.552 114.179 250.194 Q 114.179 249.34 114.55 248.71 Q 114.921 248.08 115.53 247.723 Q 116.139 247.366 116.867 247.366 Q 117.777 247.366 118.484 247.835 Q 119.191 248.304 119.604 249.242 Q 120.017 250.18 120.017 251.608 Q 120.017 253.372 119.527 254.45 Q 119.037 255.528 118.246 256.018 Q 117.455 256.508 116.545 256.508 Z M 118.883 250.88 L 118.883 250.88 Q 118.771 249.606 118.253 248.941 Q 117.735 248.276 116.867 248.276 Q 116.209 248.276 115.747 248.801 Q 115.285 249.326 115.285 250.194 Q 115.285 251.048 115.705 251.552 Q 116.125 252.056 116.965 252.056 Q 117.399 252.056 117.91 251.783 Q 118.421 251.51 118.883 250.88 Z " fill="black" /><path d="M 124.273 256.508 L 124.273 256.508 Q 122.915 256.508 122.138 255.311 Q 121.361 254.114 121.361 251.902 Q 121.361 249.676 122.138 248.521 Q 122.915 247.366 124.273 247.366 Q 125.645 247.366 126.422 248.528 Q 127.199 249.69 127.199 251.902 Q 127.199 254.114 126.422 255.311 Q 125.645 256.508 124.273 256.508 Z M 124.273 255.556 L 124.273 255.556 Q 125.071 255.556 125.561 254.695 Q 126.051 253.834 126.051 251.902 Q 126.051 249.97 125.561 249.137 Q 125.071 248.304 124.273 248.304 Q 123.489 248.304 122.992 249.137 Q 122.495 249.97 122.495 251.902 Q 122.495 253.834 122.992 254.695 Q 123.489 255.556 124.273 255.556 Z " fill="black" /><path d="M 132.827 248.71 L 132.827 248.71 Q 132.827 249.69 132.225 250.264 Q 131.623 250.838 130.685 250.838 Q 129.747 250.838 129.152 250.264 Q 128.557 249.69 128.557 248.71 Q 128.557 247.716 129.166 247.142 Q 129.775 246.568 130.685 246.568 Q 131.259 246.568 131.749 246.827 Q 132.239 247.086 132.533 247.562 Q 132.827 248.038 132.827 248.71 Z M 132.057 248.71 L 132.057 248.71 Q 132.057 247.996 131.665 247.611 Q 131.273 247.226 130.685 247.226 Q 130.125 247.226 129.726 247.618 Q 129.327 248.01 129.327 248.71 Q 129.327 249.41 129.712 249.795 Q 130.097 250.18 130.685 250.18 Q 131.273 250.18 131.665 249.802 Q 132.057 249.424 132.057 248.71 Z " fill="black" /></g></g></g><g><g><g><path d="M 215.914 256.599 L 215.914 256.599 L 215.914 247.401 L 218.602 247.401 Q 219.652 247.401 220.443 247.66 Q 221.234 247.919 221.682 248.507 Q 222.13 249.095 222.13 250.103 Q 222.13 251.083 221.689 251.72 Q 221.248 252.357 220.471 252.665 Q 219.694 252.973 218.658 252.973 L 217.118 252.973 L 217.118 256.599 Z M 217.118 251.993 L 217.118 251.993 L 218.518 251.993 Q 219.736 251.993 220.331 251.545 Q 220.926 251.097 220.926 250.117 Q 220.926 249.123 220.31 248.745 Q 219.694 248.367 218.462 248.367 L 217.118 248.367 Z " fill="black" /><path d="M 224.034 256.599 L 224.034 256.599 L 224.034 247.401 L 225.238 247.401 L 225.238 255.577 L 229.34 255.577 L 229.34 256.599 Z " fill="black" /><path d="M 230.992 256.599 L 230.992 256.599 L 230.992 247.401 L 232.196 247.401 L 232.196 255.577 L 236.298 255.577 L 236.298 256.599 Z " fill="black" /></g></g></g></svg>