<svg xmlns="http://www.w3.org/2000/svg" xmlns:xlink="http://www.w3.org/1999/xlink" xml:lang="en" height="243.38699999999997pt" width="274.0836pt" viewBox="-245.0418 -65.74700000000001 274.0836 243.38699999999997"><circle cx="-108.0" cy="113.99999999999997" r="18.0" style="stroke:black;fill:none;stroke-width:2.0;stroke-dasharray:-;" /><path d="M 0.0,59.99999999999999 L 0.0,45.0 L -14.999999999999998,45.0 L -14.999999999999998,14.999999999999998 L 0.0,14.999999999999998 L 0.0,-0.0" style="stroke:black;fill:none;stroke-width:2.0;stroke-dasharray:-;stroke-linecap:round;stroke-linejoin:round;" /><path d="M -9.0,45.0 L -14.999999999999998,45.0" style="stroke:black;fill:none;stroke-width:2.0;stroke-dasharray:-;stroke-linecap:round;stroke-linejoin:round;" /><path d="M -2.0 45.0 L -9.0 49.5 L -9.0 40.5 Z" style="stroke:black;fill:black;stroke-linecap:butt;stroke-linejoin:miter;" /><path d="M -17.999999999999996,42.0 L -17.999999999999996,17.999999999999996" style="stroke:black;fill:none;stroke-width:2.0;stroke-dasharray:-;stroke-linecap:round;stroke-linejoin:round;" /><path d="M -32.99999999999999,29.999999999999996 L -17.999999999999996,29.999999999999996" style="stroke:black;fill:none;stroke-width:2.0;stroke-dasharray:-;stroke-linecap:round;stroke-linejoin:round;" /><path d="M 0.0,59.99999999999999 L -1.6532731788489267e-15,69.0 L -3.3065463576978533e-15,78.0" style="stroke:black;fill:none;stroke-width:2.0;stroke-dasharray:-;stroke-linecap:round;stroke-linejoin:round;" /><path d="M -3.3065463576978533e-15,78.0 L -54.0,78.0 L -108.0,77.99999999999997" style="stroke:black;fill:none;stroke-width:2.0;stroke-dasharray:-;stroke-linecap:round;stroke-linejoin:round;" /><path d="M -108.0,77.99999999999997 L -108.0,95.99999999999997 L -108.0,95.99999999999997 M -108.00000000000001,131.99999999999997 L -108.00000000000001,131.99999999999997 L -108.00000000000001,149.99999999999997" style="stroke:black;fill:none;stroke-width:2.0;stroke-dasharray:-;stroke-linecap:round;stroke-linejoin:round;" /><path d="M -108.0,104.99999999999997 L -108.00000000000001,113.99999999999997" style="stroke:black;fill:none;stroke-width:2.0;stroke-dasharray:-;stroke-linecap:round;stroke-linejoin:round;" /><path d="M -108.00000000000001 120.99999999999997 L -110.7 113.99999999999997 L -105.30000000000001 113.99999999999997 Z" style="stroke:black;fill:black;stroke-linecap:butt;stroke-linejoin:miter;" /><path d="M -108.00000000000001,149.99999999999997 L -108.00000000000001,164.39999999999998 L -117.00000000000001,164.39999999999998 L -99.00000000000001,164.39999999999998 M -114.30000000000001,168.71999999999997 L -101.70000000000002,168.71999999999997 M -109.80000000000001,173.03999999999996 L -106.20000000000002,173.03999999999996" style="stroke:black;fill:none;stroke-width:2.0;stroke-dasharray:-;stroke-linecap:round;stroke-linejoin:round;" /><path d="M -108.0,77.99999999999997 L -162.0,77.99999999999997 L -216.0,77.99999999999996" style="stroke:black;fill:none;stroke-width:2.0;stroke-dasharray:-;stroke-linecap:round;stroke-linejoin:round;" /><path d="M -216.0,77.99999999999996 L -216.0,68.99999999999996 L -216.0,59.999999999999964" style="stroke:black;fill:none;stroke-width:2.0;stroke-dasharray:-;stroke-linecap:round;stroke-linejoin:round;" /><path d="M -216.0,-3.197442310920451e-14 L -216.0,14.999999999999963 L -201.0,14.999999999999963 L -201.0,44.99999999999997 L -216.0,44.99999999999997 L -216.0,59.999999999999964" style="stroke:black;fill:none;stroke-width:2.0;stroke-dasharray:-;stroke-linecap:round;stroke-linejoin:round;" /><path d="M -201.0,44.99999999999997 L -207.0,44.99999999999997" style="stroke:black;fill:none;stroke-width:2.0;stroke-dasharray:-;stroke-linecap:round;stroke-linejoin:round;" /><path d="M -214.0 44.99999999999997 L -207.0 40.49999999999997 L -207.0 49.49999999999997 Z" style="stroke:black;fill:black;stroke-linecap:butt;stroke-linejoin:miter;" /><path d="M -198.0,17.999999999999968 L -198.0,41.99999999999997" style="stroke:black;fill:none;stroke-width:2.0;stroke-dasharray:-;stroke-linecap:round;stroke-linejoin:round;" /><path d="M -198.0,29.999999999999964 L -183.00000000000003,29.999999999999964" style="stroke:black;fill:none;stroke-width:2.0;stroke-dasharray:-;stroke-linecap:round;stroke-linejoin:round;" /><path d="M 0.0,-0.0 L 5.51091059616309e-16,-9.0 L 1.102182119232618e-15,-18.0" style="stroke:black;fill:none;stroke-width:2.0;stroke-dasharray:-;stroke-linecap:round;stroke-linejoin:round;" /><path d="M 1.102182119232618e-15,-18.0 L 2.204364238465236e-15,-36.0 L 3.3065463576978533e-15,-54.0" style="stroke:black;fill:none;stroke-width:2.0;stroke-dasharray:-;stroke-linecap:round;stroke-linejoin:round;" /><path d="M 1.102182119232618e-15,-18.0 L -36.0,-18.0 L -147.00000000000003,29.999999999999964 L -183.00000000000003,29.999999999999964" style="stroke:black;fill:none;stroke-width:2.0;stroke-dasharray:-;stroke-linecap:round;stroke-linejoin:round;" /><path d="M -216.0,-3.197442310920451e-14 L -216.0,-9.000000000000032 L -216.0,-18.000000000000032" style="stroke:black;fill:none;stroke-width:2.0;stroke-dasharray:-;stroke-linecap:round;stroke-linejoin:round;" /><path d="M -216.0,-18.000000000000032 L -216.0,-36.00000000000003 L -216.0,-54.00000000000003" style="stroke:black;fill:none;stroke-width:2.0;stroke-dasharray:-;stroke-linecap:round;stroke-linejoin:round;" /><path d="M -216.0,-18.000000000000032 L -180.0,-18.000000000000032 L -68.99999999999997,29.999999999999996 L -32.99999999999998,29.999999999999996" style="stroke:black;fill:none;stroke-width:2.0;stroke-dasharray:-;stroke-linecap:round;stroke-linejoin:round;" /><g><g><g><path d="M 10.474 25.24 L 10.474 25.24 L 10.39 25.954 L 9.172 25.814 L 9.172 25.856 Q 9.41 26.122 9.543 26.521 Q 9.676 26.92 9.676 27.284 Q 9.676 27.914 9.424 28.341 Q 9.172 28.768 8.766 29.027 Q 8.36 29.286 7.87 29.419 Q 7.38 29.552 6.918 29.594 Q 6.358 29.65 6.127 29.832 Q 5.896 30.014 5.896 30.21 Q 5.896 30.462 6.176 30.595 Q 6.456 30.728 6.897 30.812 Q 7.338 30.896 7.842 31.001 Q 8.346 31.106 8.787 31.288 Q 9.228 31.47 9.508 31.799 Q 9.788 32.128 9.788 32.674 Q 9.788 33.276 9.396 33.787 Q 9.004 34.298 8.234 34.613 Q 7.464 34.928 6.344 34.928 Q 5.336 34.928 4.734 34.683 Q 4.132 34.438 3.866 34.053 Q 3.6 33.668 3.6 33.248 Q 3.6 32.576 4.118 32.163 Q 4.636 31.75 5.294 31.54 L 5.294 31.484 Q 5.112 31.372 4.951 31.169 Q 4.79 30.966 4.79 30.644 Q 4.79 30.294 4.972 30.084 Q 5.154 29.874 5.441 29.741 Q 5.728 29.608 6.008 29.51 L 6.008 29.426 Q 5.462 29.188 5.056 28.754 Q 4.65 28.32 4.65 27.522 Q 4.65 26.794 5 26.241 Q 5.35 25.688 5.959 25.38 Q 6.568 25.072 7.324 25.072 Q 7.828 25.072 8.087 25.121 Q 8.346 25.17 8.598 25.24 Z M 8.78 33.192 L 8.78 33.192 Q 8.78 32.772 8.43 32.513 Q 8.08 32.254 7.562 32.1 Q 7.044 31.946 6.519 31.855 Q 5.994 31.764 5.63 31.694 Q 5.28 31.918 4.986 32.205 Q 4.692 32.492 4.692 33.038 Q 4.692 33.598 5.126 34.018 Q 5.56 34.438 6.624 34.438 Q 7.632 34.438 8.206 34.067 Q 8.78 33.696 8.78 33.192 Z M 8.43 27.13 L 8.43 27.13 Q 8.43 26.43 8.164 25.961 Q 7.898 25.492 7.282 25.492 Q 6.68 25.492 6.288 25.996 Q 5.896 26.5 5.896 27.522 Q 5.896 28.25 6.148 28.705 Q 6.4 29.16 7.002 29.16 Q 7.702 29.16 8.066 28.572 Q 8.43 27.984 8.43 27.13 Z " fill="black" /><path d="M 12.865 30.925 L 12.865 30.925 L 12.865 33.64 Q 12.865 33.934 12.924 34.091 Q 12.983 34.248 13.149 34.301 Q 13.316 34.355 13.639 34.355 L 13.639 34.718 L 11.17 34.718 L 11.17 34.355 Q 11.483 34.355 11.64 34.301 Q 11.797 34.248 11.846 34.086 Q 11.895 33.924 11.895 33.62 L 11.895 30.651 Q 11.895 30.377 11.792 30.283 Q 11.689 30.19 11.464 30.19 Q 11.356 30.19 11.273 30.2 Q 11.189 30.21 11.189 30.21 L 11.189 29.838 L 12.473 29.602 L 12.836 29.602 L 12.836 30.406 L 12.904 30.406 Q 13.316 30.034 13.728 29.803 Q 14.139 29.573 14.698 29.573 Q 15.158 29.573 15.447 29.808 Q 15.737 30.043 15.893 30.386 L 15.942 30.386 Q 16.834 29.573 17.657 29.573 Q 18.324 29.573 18.711 29.985 Q 19.098 30.396 19.098 31.288 L 19.098 33.444 Q 19.098 33.777 19.137 33.978 Q 19.176 34.179 19.333 34.267 Q 19.49 34.355 19.843 34.355 L 19.843 34.718 L 17.383 34.718 L 17.383 34.355 Q 17.746 34.355 17.907 34.262 Q 18.069 34.169 18.108 33.968 Q 18.147 33.767 18.147 33.444 L 18.147 31.406 Q 18.147 30.788 17.897 30.543 Q 17.648 30.298 17.256 30.298 Q 16.922 30.298 16.589 30.499 Q 16.256 30.7 16.001 30.896 L 16.001 33.444 Q 16.001 33.807 16.045 34.007 Q 16.089 34.208 16.261 34.282 Q 16.432 34.355 16.795 34.355 L 16.795 34.718 L 14.237 34.718 L 14.237 34.355 Q 14.61 34.355 14.781 34.282 Q 14.953 34.208 15.002 34.007 Q 15.051 33.807 15.051 33.444 L 15.051 31.376 Q 15.051 30.759 14.83 30.528 Q 14.61 30.298 14.227 30.298 Q 13.826 30.298 13.458 30.514 Q 13.091 30.729 12.865 30.925 Z " fill="black" /><path d="M 24.508 34.718 L 24.508 34.718 L 21.185 34.718 L 21.185 34.365 Q 21.891 34.365 22.121 34.223 Q 22.352 34.081 22.352 33.709 L 22.352 29.436 Q 22.352 29.171 22.273 29.054 Q 22.195 28.936 21.989 28.936 Q 21.832 28.936 21.563 28.98 Q 21.293 29.024 21.097 29.073 L 21.097 28.681 L 22.91 28.181 L 23.332 28.181 L 23.332 33.709 Q 23.332 34.081 23.581 34.223 Q 23.831 34.365 24.508 34.365 Z " fill="black" /></g></g></g><circle cx="-108.0" cy="77.99999999999997" r="2.6999999999999997" style="stroke:black;fill:black;stroke-width:2.0;stroke-dasharray:-;" /><g><g><g><path d="M -234.563 25.24 L -234.563 25.24 L -234.647 25.954 L -235.865 25.814 L -235.865 25.856 Q -235.627 26.122 -235.494 26.521 Q -235.361 26.92 -235.361 27.284 Q -235.361 27.914 -235.613 28.341 Q -235.865 28.768 -236.271 29.027 Q -236.677 29.286 -237.167 29.419 Q -237.657 29.552 -238.119 29.594 Q -238.679 29.65 -238.91 29.832 Q -239.141 30.014 -239.141 30.21 Q -239.141 30.462 -238.861 30.595 Q -238.581 30.728 -238.14 30.812 Q -237.699 30.896 -237.195 31.001 Q -236.691 31.106 -236.25 31.288 Q -235.809 31.47 -235.529 31.799 Q -235.249 32.128 -235.249 32.674 Q -235.249 33.276 -235.641 33.787 Q -236.033 34.298 -236.803 34.613 Q -237.573 34.928 -238.693 34.928 Q -239.701 34.928 -240.303 34.683 Q -240.905 34.438 -241.171 34.053 Q -241.437 33.668 -241.437 33.248 Q -241.437 32.576 -240.919 32.163 Q -240.401 31.75 -239.743 31.54 L -239.743 31.484 Q -239.925 31.372 -240.086 31.169 Q -240.247 30.966 -240.247 30.644 Q -240.247 30.294 -240.065 30.084 Q -239.883 29.874 -239.596 29.741 Q -239.309 29.608 -239.029 29.51 L -239.029 29.426 Q -239.575 29.188 -239.981 28.754 Q -240.387 28.32 -240.387 27.522 Q -240.387 26.794 -240.037 26.241 Q -239.687 25.688 -239.078 25.38 Q -238.469 25.072 -237.713 25.072 Q -237.209 25.072 -236.95 25.121 Q -236.691 25.17 -236.439 25.24 Z M -236.257 33.192 L -236.257 33.192 Q -236.257 32.772 -236.607 32.513 Q -236.957 32.254 -237.475 32.1 Q -237.993 31.946 -238.518 31.855 Q -239.043 31.764 -239.407 31.694 Q -239.757 31.918 -240.051 32.205 Q -240.345 32.492 -240.345 33.038 Q -240.345 33.598 -239.911 34.018 Q -239.477 34.438 -238.413 34.438 Q -237.405 34.438 -236.831 34.067 Q -236.257 33.696 -236.257 33.192 Z M -236.607 27.13 L -236.607 27.13 Q -236.607 26.43 -236.873 25.961 Q -237.139 25.492 -237.755 25.492 Q -238.357 25.492 -238.749 25.996 Q -239.141 26.5 -239.141 27.522 Q -239.141 28.25 -238.889 28.705 Q -238.637 29.16 -238.035 29.16 Q -237.335 29.16 -236.971 28.572 Q -236.607 27.984 -236.607 27.13 Z " fill="black" /><path d="M -232.172 30.925 L -232.172 30.925 L -232.172 33.64 Q -232.172 33.934 -232.113 34.091 Q -232.054 34.248 -231.888 34.301 Q -231.721 34.355 -231.398 34.355 L -231.398 34.718 L -233.867 34.718 L -233.867 34.355 Q -233.554 34.355 -233.397 34.301 Q -233.24 34.248 -233.191 34.086 Q -233.142 33.924 -233.142 33.62 L -233.142 30.651 Q -233.142 30.377 -233.245 30.283 Q -233.348 30.19 -233.573 30.19 Q -233.681 30.19 -233.764 30.2 Q -233.848 30.21 -233.848 30.21 L -233.848 29.838 L -232.564 29.602 L -232.201 29.602 L -232.201 30.406 L -232.133 30.406 Q -231.721 30.034 -231.31 29.803 Q -230.898 29.573 -230.339 29.573 Q -229.879 29.573 -229.59 29.808 Q -229.301 30.043 -229.144 30.386 L -229.095 30.386 Q -228.203 29.573 -227.38 29.573 Q -226.713 29.573 -226.326 29.985 Q -225.939 30.396 -225.939 31.288 L -225.939 33.444 Q -225.939 33.777 -225.9 33.978 Q -225.861 34.179 -225.704 34.267 Q -225.547 34.355 -225.194 34.355 L -225.194 34.718 L -227.654 34.718 L -227.654 34.355 Q -227.292 34.355 -227.13 34.262 Q -226.968 34.169 -226.929 33.968 Q -226.89 33.767 -226.89 33.444 L -226.89 31.406 Q -226.89 30.788 -227.14 30.543 Q -227.39 30.298 -227.782 30.298 Q -228.115 30.298 -228.448 30.499 Q -228.781 30.7 -229.036 30.896 L -229.036 33.444 Q -229.036 33.807 -228.992 34.007 Q -228.948 34.208 -228.776 34.282 Q -228.605 34.355 -228.242 34.355 L -228.242 34.718 L -230.8 34.718 L -230.8 34.355 Q -230.428 34.355 -230.256 34.282 Q -230.085 34.208 -230.036 34.007 Q -229.987 33.807 -229.987 33.444 L -229.987 31.376 Q -229.987 30.759 -230.207 30.528 Q -230.428 30.298 -230.81 30.298 Q -231.212 30.298 -231.579 30.514 Q -231.947 30.729 -232.172 30.925 Z " fill="black" /><path d="M -219.971 33.013 L -219.971 33.013 L -220.304 34.718 L -224.322 34.718 L -224.322 34.238 L -222.931 32.827 Q -222.382 32.278 -222.024 31.856 Q -221.666 31.435 -221.49 31.009 Q -221.314 30.582 -221.314 30.034 Q -221.314 29.514 -221.632 29.176 Q -221.951 28.838 -222.529 28.838 Q -223.058 28.838 -223.416 29.049 Q -223.773 29.259 -224.048 29.74 L -224.312 29.612 Q -224.067 28.926 -223.553 28.534 Q -223.038 28.142 -222.284 28.142 Q -221.696 28.142 -221.245 28.353 Q -220.794 28.564 -220.539 28.956 Q -220.285 29.348 -220.285 29.906 Q -220.285 30.386 -220.5 30.808 Q -220.716 31.229 -221.113 31.67 Q -221.51 32.111 -222.058 32.65 L -223.283 33.836 L -223.283 33.905 L -222.519 33.865 L -221.245 33.865 Q -220.961 33.865 -220.809 33.787 Q -220.657 33.709 -220.549 33.517 Q -220.441 33.326 -220.314 33.013 Z " fill="black" /></g></g></g><circle cx="1.102182119232618e-15" cy="-18.0" r="2.6999999999999997" style="stroke:black;fill:black;stroke-width:2.0;stroke-dasharray:-;" /><circle cx="3.3065463576978533e-15" cy="-54.0" r="2.6999999999999997" style="stroke:black;fill:white;stroke-width:2.0;stroke-dasharray:-;" /><circle cx="-216.0" cy="-18.000000000000032" r="2.6999999999999997" style="stroke:black;fill:black;stroke-width:2.0;stroke-dasharray:-;" /><circle cx="-216.0" cy="-54.00000000000003" r="2.6999999999999997" style="stroke:black;fill:white;stroke-width:2.0;stroke-dasharray:-;" /><g><g><g><path d="M -115.285 -54.607 L -115.285 -54.607 L -116.097 -52.003 L -123.153 -52.003 L -123.083 -52.409 L -115.999 -60.557 L -115.999 -60.613 L -118.561 -60.613 Q -119.275 -60.613 -119.709 -60.508 Q -120.143 -60.403 -120.437 -60.039 Q -120.731 -59.675 -121.039 -58.891 L -121.487 -58.891 L -120.969 -61.201 L -114.165 -61.201 L -114.249 -60.809 L -121.305 -52.647 L -121.305 -52.577 L -118.435 -52.577 Q -117.637 -52.577 -117.182 -52.759 Q -116.727 -52.941 -116.412 -53.389 Q -116.097 -53.837 -115.705 -54.607 Z " fill="black" /><path d="M -110.637 -49.68 L -110.637 -49.68 L -110.706 -49.68 Q -111.039 -49.406 -111.441 -49.2 Q -111.842 -48.994 -112.313 -48.994 Q -112.93 -48.994 -113.258 -49.367 Q -113.587 -49.739 -113.587 -50.268 Q -113.587 -50.719 -113.376 -51.023 Q -113.165 -51.327 -112.827 -51.518 Q -112.489 -51.709 -112.097 -51.827 Q -111.705 -51.944 -111.343 -52.013 Q -110.98 -52.081 -110.735 -52.14 L -110.735 -52.65 Q -110.735 -53.306 -110.995 -53.556 Q -111.254 -53.806 -111.754 -53.806 Q -112.058 -53.806 -112.19 -53.728 Q -112.323 -53.649 -112.357 -53.473 Q -112.391 -53.297 -112.401 -53.012 Q -112.411 -52.797 -112.528 -52.664 Q -112.646 -52.532 -112.871 -52.532 Q -113.087 -52.532 -113.239 -52.664 Q -113.391 -52.797 -113.391 -53.052 Q -113.391 -53.355 -113.156 -53.62 Q -112.92 -53.885 -112.484 -54.046 Q -112.048 -54.208 -111.46 -54.208 Q -110.578 -54.208 -110.181 -53.801 Q -109.784 -53.395 -109.784 -52.581 L -109.784 -50.18 Q -109.784 -49.857 -109.711 -49.764 Q -109.637 -49.671 -109.481 -49.671 Q -109.314 -49.671 -109.191 -49.739 Q -109.069 -49.808 -108.961 -49.935 L -108.746 -49.729 Q -109.255 -49.004 -109.941 -49.004 Q -110.323 -49.004 -110.465 -49.185 Q -110.608 -49.367 -110.637 -49.68 Z M -110.735 -50.043 L -110.735 -50.043 L -110.735 -51.768 Q -111.186 -51.65 -111.617 -51.508 Q -112.048 -51.366 -112.327 -51.121 Q -112.607 -50.876 -112.607 -50.435 Q -112.607 -50.053 -112.386 -49.832 Q -112.166 -49.612 -111.823 -49.612 Q -111.617 -49.612 -111.328 -49.705 Q -111.039 -49.798 -110.735 -50.043 Z " fill="black" /><path d="M -106.462 -52.856 L -106.462 -52.856 L -106.462 -50.141 Q -106.462 -49.847 -106.403 -49.69 Q -106.345 -49.533 -106.178 -49.479 Q -106.011 -49.426 -105.688 -49.426 L -105.688 -49.063 L -108.158 -49.063 L -108.158 -49.426 Q -107.844 -49.426 -107.687 -49.479 Q -107.53 -49.533 -107.481 -49.695 Q -107.432 -49.857 -107.432 -50.161 L -107.432 -53.13 Q -107.432 -53.404 -107.535 -53.497 Q -107.638 -53.591 -107.864 -53.591 Q -107.971 -53.591 -108.055 -53.581 Q -108.138 -53.571 -108.138 -53.571 L -108.138 -53.943 L -106.854 -54.179 L -106.492 -54.179 L -106.492 -53.375 L -106.423 -53.375 Q -106.011 -53.747 -105.6 -53.978 Q -105.188 -54.208 -104.63 -54.208 Q -104.169 -54.208 -103.88 -53.973 Q -103.591 -53.738 -103.434 -53.395 L -103.385 -53.395 Q -102.493 -54.208 -101.67 -54.208 Q -101.004 -54.208 -100.616 -53.796 Q -100.229 -53.385 -100.229 -52.493 L -100.229 -50.337 Q -100.229 -50.004 -100.19 -49.803 Q -100.151 -49.602 -99.994 -49.514 Q -99.837 -49.426 -99.485 -49.426 L -99.485 -49.063 L -101.944 -49.063 L -101.944 -49.426 Q -101.582 -49.426 -101.42 -49.519 Q -101.258 -49.612 -101.219 -49.813 Q -101.18 -50.014 -101.18 -50.337 L -101.18 -52.375 Q -101.18 -52.993 -101.43 -53.238 Q -101.68 -53.483 -102.072 -53.483 Q -102.405 -53.483 -102.738 -53.282 Q -103.071 -53.081 -103.326 -52.885 L -103.326 -50.337 Q -103.326 -49.974 -103.282 -49.773 Q -103.238 -49.573 -103.066 -49.499 Q -102.895 -49.426 -102.532 -49.426 L -102.532 -49.063 L -105.09 -49.063 L -105.09 -49.426 Q -104.718 -49.426 -104.546 -49.499 Q -104.375 -49.573 -104.326 -49.773 Q -104.277 -49.974 -104.277 -50.337 L -104.277 -52.405 Q -104.277 -53.022 -104.497 -53.252 Q -104.718 -53.483 -105.1 -53.483 Q -105.502 -53.483 -105.869 -53.267 Q -106.237 -53.052 -106.462 -52.856 Z " fill="black" /><path d="M -96.995 -54.179 L -96.995 -54.179 L -96.995 -53.336 L -96.946 -53.336 Q -96.564 -53.777 -96.182 -53.992 Q -95.8 -54.208 -95.339 -54.208 Q -94.82 -54.208 -94.398 -53.899 Q -93.977 -53.591 -93.727 -53.047 Q -93.477 -52.503 -93.477 -51.797 Q -93.477 -50.876 -93.805 -50.239 Q -94.134 -49.602 -94.678 -49.274 Q -95.222 -48.945 -95.859 -48.945 Q -96.162 -48.945 -96.432 -49.024 Q -96.701 -49.102 -96.927 -49.23 L -96.976 -49.23 L -96.976 -47.975 Q -96.976 -47.632 -96.888 -47.451 Q -96.799 -47.27 -96.574 -47.206 Q -96.349 -47.142 -95.927 -47.142 L -95.927 -46.799 L -98.701 -46.799 L -98.701 -47.132 Q -98.358 -47.142 -98.196 -47.206 Q -98.034 -47.27 -97.98 -47.436 Q -97.926 -47.603 -97.926 -47.907 L -97.926 -53.061 Q -97.926 -53.346 -97.985 -53.468 Q -98.044 -53.591 -98.328 -53.591 Q -98.416 -53.591 -98.554 -53.581 Q -98.691 -53.571 -98.691 -53.571 L -98.691 -53.963 L -97.368 -54.179 Z M -96.976 -52.836 L -96.976 -52.836 L -96.976 -50.072 Q -96.868 -49.965 -96.706 -49.803 Q -96.545 -49.641 -96.319 -49.519 Q -96.094 -49.396 -95.829 -49.396 Q -95.467 -49.396 -95.168 -49.617 Q -94.869 -49.837 -94.683 -50.308 Q -94.496 -50.778 -94.496 -51.503 Q -94.496 -52.424 -94.83 -52.934 Q -95.163 -53.444 -95.77 -53.444 Q -96.162 -53.444 -96.486 -53.238 Q -96.809 -53.032 -96.976 -52.836 Z " fill="black" /></g></g></g></svg>