<svg xmlns="http://www.w3.org/2000/svg" xmlns:xlink="http://www.w3.org/1999/xlink" xml:lang="en" height="71.84pt" width="409.00887762133334pt" viewBox="-26.784399999999994 -13.240000000000004 409.00887762133334 71.84"><path d="M 0.0,-0.0 L 18.0,-0.0 L 36.0,-0.0" style="stroke:black;fill:none;stroke-width:2.0;stroke-dasharray:-;stroke-linecap:round;stroke-linejoin:round;" /><path d="M 36.0,-0.0 L 108.0,-0.0 L 180.0,-0.0" style="stroke:black;fill:none;stroke-width:2.0;stroke-dasharray:-;stroke-linecap:round;stroke-linejoin:round;" /><path d="M 192.6,26.640000000000004 L 210.6,26.640000000000004 L 211.1142857142857,26.632653061224495 L 211.6285714285714,26.61061224489796 L 212.1428571428571,26.57387755102041 L 212.65714285714287,26.522448979591843 L 213.17142857142858,26.456326530612245 L 213.68571428571428,26.375510204081635 L 214.20000000000002,26.280000000000005 L 214.71428571428572,26.16979591836735 L 215.22857142857143,26.04489795918368 L 215.74285714285713,25.905306122448984 L 216.25714285714287,25.751020408163267 L 216.77142857142857,25.582040816326533 L 217.28571428571428,25.39836734693878 L 217.79999999999998,25.200000000000003 L 218.31428571428572,24.986938775510207 L 218.82857142857145,24.759183673469387 L 219.34285714285716,24.516734693877552 L 219.8571428571429,24.259591836734696 L 220.3714285714286,23.987755102040822 L 220.8857142857143,23.701224489795923 L 221.4,23.400000000000006 L 221.9142857142857,23.084081632653067 L 222.42857142857144,22.753469387755107 L 222.94285714285715,22.40816326530613 L 223.45714285714286,22.048163265306126 L 223.9714285714286,21.673469387755105 L 224.4857142857143,21.284081632653063 L 225.0,20.880000000000003 L 225.5142857142857,20.46122448979592 L 226.0285714285714,20.027755102040818 L 226.54285714285714,19.579591836734696 L 227.05714285714285,19.116734693877554 L 227.57142857142856,18.63918367346939 L 228.0857142857143,18.146938775510208 L 228.6,17.640000000000004 L 229.1142857142857,17.118367346938776 L 229.6285714285714,16.582040816326533 L 230.1428571428571,16.031020408163265 L 230.65714285714284,15.465306122448983 L 231.17142857142858,14.884897959183673 L 231.68571428571428,14.289795918367348 L 232.20000000000002,13.68 L 232.71428571428572,13.055510204081635 L 233.22857142857143,12.416326530612244 L 233.74285714285713,11.762448979591838 L 234.25714285714287,11.093877551020407 L 234.77142857142857,10.41061224489796 L 235.28571428571428,9.712653061224492 L 235.8,9.0 L 235.8,9.0 L 235.28571428571428,8.287346938775508 L 234.77142857142857,7.58938775510204 L 234.25714285714287,6.906122448979593 L 233.74285714285713,6.237551020408162 L 233.22857142857143,5.583673469387756 L 232.71428571428572,4.944489795918365 L 232.20000000000002,4.32 L 231.68571428571428,3.710204081632652 L 231.17142857142858,3.1151020408163257 L 230.65714285714284,2.5346938775510166 L 230.1428571428571,1.9689795918367343 L 229.6285714285714,1.4179591836734664 L 229.1142857142857,0.8816326530612231 L 228.6,0.3599999999999963 L 228.0857142857143,-0.14693877551020584 L 227.57142857142856,-0.6391836734693894 L 227.05714285714285,-1.1167346938775524 L 226.54285714285714,-1.5795918367346968 L 226.0285714285714,-2.0277551020408184 L 225.5142857142857,-2.46122448979592 L 225.0,-2.8800000000000026 L 224.4857142857143,-3.2840816326530646 L 223.9714285714286,-3.673469387755106 L 223.45714285714286,-4.048163265306127 L 222.94285714285715,-4.408163265306126 L 222.42857142857144,-4.753469387755105 L 221.9142857142857,-5.0840816326530645 L 221.4,-5.400000000000003 L 220.8857142857143,-5.701224489795921 L 220.3714285714286,-5.98775510204082 L 219.8571428571429,-6.259591836734697 L 219.34285714285716,-6.516734693877553 L 218.82857142857145,-6.759183673469391 L 218.31428571428572,-6.9869387755102075 L 217.79999999999998,-7.200000000000003 L 217.28571428571428,-7.3983673469387785 L 216.77142857142857,-7.582040816326534 L 216.25714285714287,-7.751020408163268 L 215.74285714285713,-7.905306122448982 L 215.22857142857143,-8.044897959183679 L 214.71428571428572,-8.16979591836735 L 214.20000000000002,-8.280000000000003 L 213.68571428571428,-8.375510204081637 L 213.17142857142858,-8.456326530612248 L 212.65714285714287,-8.522448979591841 L 212.1428571428571,-8.573877551020411 L 211.6285714285714,-8.610612244897963 L 211.1142857142857,-8.632653061224493 L 210.6,-8.640000000000004 L 192.6,-8.640000000000004 L 192.6,-8.640000000000004 L 193.2912,-7.9200000000000035 L 193.9536,-7.200000000000003 L 194.5872,-6.480000000000002 L 195.19199999999998,-5.760000000000002 L 195.768,-5.040000000000001 L 196.3152,-4.320000000000004 L 196.8336,-3.600000000000003 L 197.3232,-2.8800000000000026 L 197.784,-2.160000000000002 L 198.216,-1.4400000000000013 L 198.6192,-0.7200000000000006 L 198.9936,-0.0 L 199.3392,0.7199999999999966 L 199.656,1.4399999999999973 L 199.94400000000002,2.159999999999998 L 200.2032,2.8799999999999986 L 200.4336,3.599999999999999 L 200.6352,4.32 L 200.80800000000002,5.040000000000001 L 200.952,5.760000000000002 L 201.0672,6.480000000000002 L 201.1536,7.199999999999998 L 201.2112,7.919999999999999 L 201.24,8.64 L 201.24,9.36 L 201.2112,10.080000000000002 L 201.1536,10.8 L 201.0672,11.52 L 200.952,12.24 L 200.80800000000002,12.96 L 200.6352,13.68 L 200.4336,14.4 L 200.2032,15.120000000000001 L 199.94400000000002,15.840000000000002 L 199.656,16.560000000000002 L 199.3392,17.28 L 198.9936,18.0 L 198.6192,18.72 L 198.216,19.44 L 197.784,20.160000000000004 L 197.3232,20.880000000000003 L 196.8336,21.6 L 196.3152,22.320000000000004 L 195.768,23.040000000000006 L 195.19199999999998,23.760000000000005 L 194.5872,24.480000000000004 L 193.9536,25.200000000000003 L 193.2912,25.92 L 192.6,26.640000000000004" style="stroke:black;fill:none;stroke-width:2.0;stroke-dasharray:-;stroke-linecap:round;stroke-linejoin:round;" /><path d="M 187.20000000000002,26.640000000000004 L 187.8912,25.92 L 188.5536,25.200000000000003 L 189.18720000000002,24.480000000000004 L 189.792,23.760000000000005 L 190.368,23.040000000000006 L 190.91520000000003,22.320000000000004 L 191.43359999999998,21.6 L 191.9232,20.880000000000003 L 192.38400000000001,20.160000000000004 L 192.816,19.44 L 193.2192,18.72 L 193.5936,18.0 L 193.9392,17.28 L 194.256,16.560000000000002 L 194.54399999999998,15.840000000000002 L 194.8032,15.120000000000001 L 195.0336,14.4 L 195.2352,13.68 L 195.408,12.96 L 195.55200000000002,12.24 L 195.6672,11.52 L 195.7536,10.8 L 195.81119999999999,10.080000000000002 L 195.84,9.36 L 195.84,8.64 L 195.81119999999999,7.919999999999999 L 195.7536,7.199999999999998 L 195.6672,6.480000000000002 L 195.55200000000002,5.760000000000002 L 195.408,5.040000000000001 L 195.2352,4.32 L 195.0336,3.599999999999999 L 194.8032,2.8799999999999986 L 194.54399999999998,2.159999999999998 L 194.256,1.4399999999999973 L 193.9392,0.7199999999999966 L 193.5936,-0.0 L 193.2192,-0.7200000000000006 L 192.816,-1.4400000000000013 L 192.38400000000001,-2.160000000000002 L 191.9232,-2.8800000000000026 L 191.43359999999998,-3.600000000000003 L 190.91520000000003,-4.320000000000004 L 190.368,-5.040000000000001 L 189.792,-5.760000000000002 L 189.18720000000002,-6.480000000000002 L 188.5536,-7.200000000000003 L 187.8912,-7.9200000000000035 L 187.20000000000002,-8.640000000000004" style="stroke:black;fill:none;stroke-width:2.0;stroke-dasharray:-;stroke-linecap:round;stroke-linejoin:round;" /><path d="M 180.0,18.0 L 193.5936,18.0" style="stroke:black;fill:none;stroke-width:2.0;stroke-dasharray:-;stroke-linecap:round;stroke-linejoin:round;" /><path d="M 180.0,-0.0 L 193.5936,-0.0" style="stroke:black;fill:none;stroke-width:2.0;stroke-dasharray:-;stroke-linecap:round;stroke-linejoin:round;" /><path d="M 235.8,9.0 L 248.4,9.0" style="stroke:black;fill:none;stroke-width:2.0;stroke-dasharray:-;stroke-linecap:round;stroke-linejoin:round;" /><path d="M 248.4,9.0 L 266.40000000000003,9.0 L 284.40000000000003,9.0" style="stroke:black;fill:none;stroke-width:2.0;stroke-dasharray:-;stroke-linecap:round;stroke-linejoin:round;" /><path d="M 36.0,-0.0 L 35.99999999999999,18.0 L 35.99999999999999,36.0" style="stroke:black;fill:none;stroke-width:2.0;stroke-dasharray:-;stroke-linecap:round;stroke-linejoin:round;" /><path d="M 35.99999999999999,36.0 L 53.99999999999999,36.0 L 71.99999999999999,36.0" style="stroke:black;fill:none;stroke-width:2.0;stroke-dasharray:-;stroke-linecap:round;stroke-linejoin:round;" /><path d="M 71.99999999999999,36.0 L 71.99999999999999,18.0 L 108.0,18.0 L 108.0,54.0 L 71.99999999999999,54.0 L 71.99999999999999,36.0" style="stroke:black;fill:none;stroke-width:2.0;stroke-dasharray:-;stroke-linecap:round;stroke-linejoin:round;" /><path d="M 108.0,36.0 L 126.0,36.0 L 144.0,36.0" style="stroke:black;fill:none;stroke-width:2.0;stroke-dasharray:-;stroke-linecap:round;stroke-linejoin:round;" /><path d="M 144.0,36.0 L 144.0,18.0 L 180.0,18.0" style="stroke:black;fill:none;stroke-width:2.0;stroke-dasharray:-;stroke-linecap:round;stroke-linejoin:round;" /><circle cx="36.0" cy="-0.0" r="2.6999999999999997" style="stroke:black;fill:black;stroke-width:2.0;stroke-dasharray:-;" /><circle cx="0.0" cy="-0.0" r="2.6999999999999997" style="stroke:black;fill:white;stroke-width:2.0;stroke-dasharray:-;" /><g><g><g><path d="M -22.894 -3.136 L -22.894 -3.136 L -21.69 -3.136 Q -21.564 -3.724 -21.417 -4.27 Q -21.27 -4.816 -21.032 -5.25 Q -20.85 -5.586 -20.584 -5.88 Q -20.318 -6.174 -19.905 -6.363 Q -19.492 -6.552 -18.89 -6.552 Q -18.246 -6.552 -17.903 -6.265 Q -17.56 -5.978 -17.56 -5.53 Q -17.56 -5.222 -17.728 -5.068 Q -17.896 -4.914 -18.12 -4.914 Q -18.4 -4.914 -18.526 -5.075 Q -18.652 -5.236 -18.68 -5.46 Q -18.722 -5.726 -18.785 -5.936 Q -18.848 -6.146 -19.1 -6.146 Q -19.632 -6.146 -19.926 -5.586 Q -20.22 -5.026 -20.374 -4.13 L -20.542 -3.136 L -19.212 -3.136 L -19.296 -2.562 L -20.612 -2.562 L -21.41 2.212 Q -21.466 2.576 -21.585 3.122 Q -21.704 3.668 -21.914 4.263 Q -22.124 4.858 -22.425 5.376 Q -22.726 5.894 -23.16 6.223 Q -23.594 6.552 -24.168 6.552 Q -24.84 6.552 -25.127 6.23 Q -25.414 5.908 -25.414 5.544 Q -25.414 5.25 -25.267 5.054 Q -25.12 4.858 -24.854 4.858 Q -24.532 4.858 -24.42 5.047 Q -24.308 5.236 -24.28 5.481 Q -24.252 5.726 -24.196 5.915 Q -24.14 6.104 -23.944 6.104 Q -23.664 6.104 -23.454 5.74 Q -23.244 5.376 -23.09 4.837 Q -22.936 4.298 -22.838 3.766 Q -22.74 3.234 -22.684 2.884 L -21.774 -2.562 L -22.95 -2.562 Z " fill="black" /><path d="M -18.096 1.226 L -18.096 1.226 L -18.096 2.285 L -18.038 2.285 Q -17.646 1.736 -17.337 1.447 Q -17.028 1.158 -16.666 1.158 Q -16.038 1.158 -16.038 1.775 Q -16.038 2.118 -16.19 2.255 Q -16.342 2.393 -16.519 2.393 Q -16.695 2.393 -16.837 2.295 Q -16.979 2.197 -17.077 2.099 Q -17.175 2.001 -17.224 2.001 Q -17.381 2.001 -17.631 2.265 Q -17.881 2.53 -18.077 2.863 L -18.077 5.215 Q -18.077 5.695 -17.866 5.837 Q -17.655 5.979 -17.116 5.979 L -17.116 6.342 L -19.782 6.342 L -19.782 5.979 Q -19.449 5.979 -19.292 5.921 Q -19.135 5.862 -19.086 5.71 Q -19.037 5.558 -19.037 5.284 L -19.037 2.442 Q -19.037 2.128 -19.091 1.971 Q -19.145 1.814 -19.449 1.814 Q -19.586 1.814 -19.684 1.824 Q -19.782 1.834 -19.782 1.834 L -19.782 1.471 L -18.459 1.226 Z " fill="black" /><path d="M -11.129 4.882 L -11.129 4.882 L -10.893 5.068 Q -11.099 5.44 -11.354 5.754 Q -11.609 6.068 -11.981 6.254 Q -12.354 6.44 -12.922 6.44 Q -13.539 6.44 -14.073 6.161 Q -14.608 5.881 -14.931 5.303 Q -15.254 4.725 -15.254 3.843 Q -15.254 2.971 -14.951 2.383 Q -14.647 1.795 -14.127 1.496 Q -13.608 1.197 -12.971 1.197 Q -12.089 1.197 -11.506 1.81 Q -10.923 2.422 -10.903 3.637 L -14.353 3.637 Q -14.353 4.304 -14.103 4.74 Q -13.853 5.176 -13.461 5.387 Q -13.069 5.597 -12.638 5.597 Q -12.197 5.597 -11.932 5.504 Q -11.668 5.411 -11.486 5.244 Q -11.305 5.078 -11.129 4.882 Z M -14.353 3.186 L -14.353 3.186 L -11.952 3.186 Q -11.952 2.794 -12.079 2.447 Q -12.207 2.099 -12.452 1.878 Q -12.697 1.658 -13.079 1.658 Q -13.637 1.658 -13.966 2.05 Q -14.294 2.442 -14.353 3.186 Z " fill="black" /><path d="M -9.933 1.324 L -9.933 1.324 L -9.149 1.324 Q -9.149 0.805 -9.075 0.442 Q -9.002 0.08 -8.816 -0.283 Q -8.59 -0.636 -8.272 -0.856 Q -7.953 -1.077 -7.365 -1.077 Q -6.866 -1.077 -6.513 -0.885 Q -6.16 -0.694 -6.16 -0.322 Q -6.16 -0.087 -6.292 0.036 Q -6.425 0.158 -6.601 0.158 Q -6.817 0.158 -6.939 0.036 Q -7.062 -0.087 -7.258 -0.293 Q -7.395 -0.489 -7.503 -0.562 Q -7.61 -0.636 -7.757 -0.636 Q -8.032 -0.636 -8.12 -0.371 Q -8.208 -0.106 -8.208 0.54 L -8.208 1.324 L -6.934 1.324 L -6.934 1.805 L -8.208 1.805 L -8.208 5.039 Q -8.208 5.44 -8.12 5.641 Q -8.032 5.842 -7.797 5.911 Q -7.561 5.979 -7.13 5.979 L -7.13 6.342 L -10.021 6.342 L -10.021 5.979 Q -9.649 5.979 -9.463 5.911 Q -9.276 5.842 -9.213 5.641 Q -9.149 5.44 -9.149 5.039 L -9.149 1.805 L -9.933 1.805 Z " fill="black" /></g></g></g><circle cx="284.40000000000003" cy="9.0" r="2.6999999999999997" style="stroke:black;fill:white;stroke-width:2.0;stroke-dasharray:-;" /><g><g><g><path d="M 293.36 5.864 L 293.36 5.864 L 294.564 5.864 Q 294.69 5.276 294.837 4.73 Q 294.984 4.184 295.222 3.75 Q 295.404 3.414 295.67 3.12 Q 295.936 2.826 296.349 2.637 Q 296.762 2.448 297.364 2.448 Q 298.008 2.448 298.351 2.735 Q 298.694 3.022 298.694 3.47 Q 298.694 3.778 298.526 3.932 Q 298.358 4.086 298.134 4.086 Q 297.854 4.086 297.728 3.925 Q 297.602 3.764 297.574 3.54 Q 297.532 3.274 297.469 3.064 Q 297.406 2.854 297.154 2.854 Q 296.622 2.854 296.328 3.414 Q 296.034 3.974 295.88 4.87 L 295.712 5.864 L 297.042 5.864 L 296.958 6.438 L 295.642 6.438 L 294.844 11.212 Q 294.788 11.576 294.669 12.122 Q 294.55 12.668 294.34 13.263 Q 294.13 13.858 293.829 14.376 Q 293.528 14.894 293.094 15.223 Q 292.66 15.552 292.086 15.552 Q 291.414 15.552 291.127 15.23 Q 290.84 14.908 290.84 14.544 Q 290.84 14.25 290.987 14.054 Q 291.134 13.858 291.4 13.858 Q 291.722 13.858 291.834 14.047 Q 291.946 14.236 291.974 14.481 Q 292.002 14.726 292.058 14.915 Q 292.114 15.104 292.31 15.104 Q 292.59 15.104 292.8 14.74 Q 293.01 14.376 293.164 13.837 Q 293.318 13.298 293.416 12.766 Q 293.514 12.234 293.57 11.884 L 294.48 6.438 L 293.304 6.438 Z " fill="black" /><path d="M 301.784 15.215 L 301.784 15.215 L 300.461 15.391 L 300.108 15.391 L 300.108 14.705 L 300.039 14.705 Q 299.716 14.979 299.309 15.205 Q 298.903 15.43 298.393 15.43 Q 297.815 15.43 297.408 15.117 Q 297.001 14.803 296.786 14.254 Q 296.57 13.705 296.57 13.01 Q 296.57 12.137 296.908 11.505 Q 297.246 10.873 297.81 10.535 Q 298.373 10.197 299.04 10.197 Q 299.618 10.197 300.088 10.462 L 300.088 9.197 Q 300.088 8.845 300.015 8.732 Q 299.941 8.619 299.628 8.619 Q 299.559 8.619 299.446 8.634 Q 299.334 8.649 299.334 8.649 L 299.334 8.276 L 300.637 8.021 L 301.039 8.021 L 301.039 14.235 Q 301.039 14.617 301.147 14.73 Q 301.255 14.842 301.519 14.842 L 301.784 14.842 Z M 300.088 14.254 L 300.088 14.254 L 300.088 11.393 Q 299.981 11.118 299.731 10.903 Q 299.481 10.687 299.02 10.687 Q 298.364 10.687 297.942 11.133 Q 297.521 11.579 297.521 12.608 Q 297.521 13.656 297.888 14.142 Q 298.256 14.627 298.922 14.627 Q 299.236 14.627 299.495 14.538 Q 299.755 14.45 300.088 14.254 Z " fill="black" /><path d="M 305.263 10.197 L 305.263 10.197 Q 305.998 10.197 306.547 10.516 Q 307.095 10.834 307.394 11.407 Q 307.693 11.981 307.693 12.755 Q 307.693 13.686 307.38 14.284 Q 307.066 14.881 306.517 15.171 Q 305.968 15.46 305.263 15.46 Q 304.547 15.46 303.994 15.161 Q 303.44 14.862 303.131 14.264 Q 302.823 13.666 302.823 12.765 Q 302.823 12 303.126 11.422 Q 303.43 10.844 303.979 10.52 Q 304.528 10.197 305.263 10.197 Z M 305.243 10.648 L 305.243 10.648 Q 304.596 10.648 304.229 11.172 Q 303.861 11.696 303.861 12.706 Q 303.861 13.95 304.239 14.465 Q 304.616 14.979 305.292 14.979 Q 305.723 14.97 306.027 14.764 Q 306.331 14.558 306.493 14.073 Q 306.654 13.588 306.654 12.755 Q 306.654 11.755 306.311 11.202 Q 305.968 10.648 305.243 10.648 Z " fill="black" /><path d="M 314.357 14.842 L 314.357 14.842 L 314.357 15.215 L 313.034 15.391 L 312.721 15.391 L 312.721 14.627 L 312.623 14.627 Q 312.25 14.96 311.868 15.2 Q 311.486 15.44 310.947 15.44 Q 310.222 15.44 309.839 14.999 Q 309.457 14.558 309.457 13.47 L 309.457 11.363 Q 309.457 10.961 309.315 10.868 Q 309.173 10.775 308.722 10.775 L 308.722 10.422 L 310.084 10.236 L 310.408 10.236 L 310.408 13.343 Q 310.408 13.892 310.535 14.195 Q 310.663 14.499 310.878 14.617 Q 311.094 14.734 311.349 14.734 Q 311.78 14.734 312.069 14.553 Q 312.358 14.372 312.672 14.117 L 312.672 11.363 Q 312.672 10.961 312.495 10.868 Q 312.319 10.775 311.819 10.775 L 311.819 10.422 L 313.279 10.236 L 313.622 10.236 L 313.622 14.205 Q 313.622 14.499 313.676 14.636 Q 313.73 14.774 313.867 14.808 Q 314.004 14.842 314.249 14.842 Z " fill="black" /><path d="M 316.866 8.021 L 316.866 8.021 L 316.866 11.059 L 316.915 11.059 Q 317.199 10.726 317.586 10.462 Q 317.973 10.197 318.522 10.197 Q 319.032 10.197 319.448 10.506 Q 319.865 10.814 320.115 11.358 Q 320.365 11.902 320.365 12.608 Q 320.365 13.549 320.022 14.186 Q 319.679 14.823 319.086 15.141 Q 318.493 15.46 317.738 15.46 Q 317.297 15.46 316.925 15.386 Q 316.552 15.313 316.293 15.215 Q 316.033 15.117 315.915 15.068 L 315.915 9.188 Q 315.915 8.825 315.837 8.722 Q 315.759 8.619 315.425 8.619 Q 315.318 8.619 315.224 8.634 Q 315.131 8.649 315.131 8.649 L 315.131 8.276 L 316.464 8.021 Z M 316.866 11.569 L 316.866 11.569 L 316.866 14.509 Q 316.984 14.725 317.238 14.852 Q 317.493 14.979 317.915 14.979 Q 318.434 14.979 318.748 14.7 Q 319.061 14.421 319.203 13.955 Q 319.345 13.49 319.345 12.941 Q 319.345 12.441 319.233 11.986 Q 319.12 11.53 318.836 11.246 Q 318.552 10.961 318.052 10.961 Q 317.787 10.961 317.547 11.064 Q 317.307 11.167 317.131 11.309 Q 316.954 11.451 316.866 11.569 Z " fill="black" /><path d="M 323.902 14.979 L 323.902 14.979 L 323.902 15.342 L 321.423 15.342 L 321.423 14.979 Q 321.766 14.979 321.918 14.911 Q 322.07 14.842 322.109 14.681 Q 322.148 14.519 322.148 14.244 L 322.148 9.07 Q 322.148 8.756 322.035 8.688 Q 321.923 8.619 321.688 8.619 Q 321.56 8.619 321.477 8.634 Q 321.394 8.649 321.394 8.649 L 321.394 8.276 L 322.726 8.021 L 323.109 8.021 L 323.109 14.244 Q 323.109 14.529 323.153 14.69 Q 323.197 14.852 323.368 14.916 Q 323.54 14.979 323.902 14.979 Z " fill="black" /><path d="M 328.998 13.882 L 328.998 13.882 L 329.234 14.068 Q 329.028 14.44 328.773 14.754 Q 328.518 15.068 328.146 15.254 Q 327.773 15.44 327.205 15.44 Q 326.588 15.44 326.053 15.161 Q 325.519 14.881 325.196 14.303 Q 324.873 13.725 324.873 12.843 Q 324.873 11.971 325.176 11.383 Q 325.48 10.795 326 10.496 Q 326.519 10.197 327.156 10.197 Q 328.038 10.197 328.621 10.81 Q 329.204 11.422 329.224 12.637 L 325.774 12.637 Q 325.774 13.304 326.024 13.74 Q 326.274 14.176 326.666 14.387 Q 327.058 14.597 327.489 14.597 Q 327.93 14.597 328.195 14.504 Q 328.459 14.411 328.641 14.244 Q 328.822 14.078 328.998 13.882 Z M 325.774 12.186 L 325.774 12.186 L 328.175 12.186 Q 328.175 11.794 328.048 11.447 Q 327.92 11.099 327.675 10.878 Q 327.43 10.658 327.048 10.658 Q 326.49 10.658 326.161 11.05 Q 325.833 11.442 325.774 12.186 Z " fill="black" /><path d="M 344.149 7.824 L 344.149 7.824 L 335.805 7.824 L 335.805 6.872 L 344.149 6.872 Z M 344.149 10.68 L 344.149 10.68 L 335.805 10.68 L 335.805 9.742 L 344.149 9.742 Z " fill="black" /><path d="M 356.697 10.162 L 356.697 10.162 L 356.249 12.402 L 350.733 12.402 L 350.733 11.926 L 352.861 9.798 Q 353.561 9.084 354.023 8.503 Q 354.485 7.922 354.716 7.334 Q 354.947 6.746 354.947 6.018 Q 354.947 5.234 354.478 4.765 Q 354.009 4.296 353.197 4.296 Q 352.511 4.296 352.028 4.59 Q 351.545 4.884 351.153 5.668 L 350.817 5.528 Q 351.139 4.506 351.839 3.946 Q 352.539 3.386 353.561 3.386 Q 354.359 3.386 354.961 3.687 Q 355.563 3.988 355.906 4.527 Q 356.249 5.066 356.249 5.808 Q 356.249 6.424 355.99 6.991 Q 355.731 7.558 355.22 8.16 Q 354.709 8.762 353.967 9.518 L 352.119 11.268 L 352.119 11.338 L 353.099 11.296 L 355.045 11.296 Q 355.605 11.296 355.829 11.044 Q 356.053 10.792 356.291 10.162 Z " fill="black" /><path d="M 363.041 8.832 L 363.041 8.832 Q 363.041 9.154 362.824 9.392 Q 362.607 9.63 362.201 9.63 Q 361.795 9.63 361.592 9.399 Q 361.389 9.168 361.389 8.818 Q 361.389 8.468 361.606 8.216 Q 361.823 7.964 362.215 7.964 Q 362.621 7.964 362.831 8.223 Q 363.041 8.482 363.041 8.832 Z " fill="black" /><path d="M 369.959 5.864 L 369.959 5.864 L 371.163 5.864 Q 371.289 5.276 371.436 4.73 Q 371.583 4.184 371.821 3.75 Q 372.003 3.414 372.269 3.12 Q 372.535 2.826 372.948 2.637 Q 373.361 2.448 373.963 2.448 Q 374.607 2.448 374.95 2.735 Q 375.293 3.022 375.293 3.47 Q 375.293 3.778 375.125 3.932 Q 374.957 4.086 374.733 4.086 Q 374.453 4.086 374.327 3.925 Q 374.201 3.764 374.173 3.54 Q 374.131 3.274 374.068 3.064 Q 374.005 2.854 373.753 2.854 Q 373.221 2.854 372.927 3.414 Q 372.633 3.974 372.479 4.87 L 372.311 5.864 L 373.641 5.864 L 373.557 6.438 L 372.241 6.438 L 371.443 11.212 Q 371.387 11.576 371.268 12.122 Q 371.149 12.668 370.939 13.263 Q 370.729 13.858 370.428 14.376 Q 370.127 14.894 369.693 15.223 Q 369.259 15.552 368.685 15.552 Q 368.013 15.552 367.726 15.23 Q 367.439 14.908 367.439 14.544 Q 367.439 14.25 367.586 14.054 Q 367.733 13.858 367.999 13.858 Q 368.321 13.858 368.433 14.047 Q 368.545 14.236 368.573 14.481 Q 368.601 14.726 368.657 14.915 Q 368.713 15.104 368.909 15.104 Q 369.189 15.104 369.399 14.74 Q 369.609 14.376 369.763 13.837 Q 369.917 13.298 370.015 12.766 Q 370.113 12.234 370.169 11.884 L 371.079 6.438 L 369.903 6.438 Z " fill="black" /><path d="M 374.757 10.226 L 374.757 10.226 L 374.757 11.285 L 374.816 11.285 Q 375.208 10.736 375.517 10.447 Q 375.825 10.158 376.188 10.158 Q 376.815 10.158 376.815 10.775 Q 376.815 11.118 376.663 11.255 Q 376.511 11.393 376.335 11.393 Q 376.159 11.393 376.017 11.295 Q 375.874 11.197 375.776 11.099 Q 375.678 11.001 375.629 11.001 Q 375.473 11.001 375.223 11.265 Q 374.973 11.53 374.777 11.863 L 374.777 14.215 Q 374.777 14.695 374.988 14.837 Q 375.198 14.979 375.737 14.979 L 375.737 15.342 L 373.072 15.342 L 373.072 14.979 Q 373.405 14.979 373.562 14.921 Q 373.718 14.862 373.767 14.71 Q 373.816 14.558 373.816 14.284 L 373.816 11.442 Q 373.816 11.128 373.763 10.971 Q 373.709 10.814 373.405 10.814 Q 373.268 10.814 373.17 10.824 Q 373.072 10.834 373.072 10.834 L 373.072 10.471 L 374.395 10.226 Z " fill="black" /><path d="M 381.725 13.882 L 381.725 13.882 L 381.96 14.068 Q 381.754 14.44 381.5 14.754 Q 381.245 15.068 380.872 15.254 Q 380.5 15.44 379.932 15.44 Q 379.314 15.44 378.78 15.161 Q 378.246 14.881 377.923 14.303 Q 377.599 13.725 377.599 12.843 Q 377.599 11.971 377.903 11.383 Q 378.207 10.795 378.726 10.496 Q 379.246 10.197 379.883 10.197 Q 380.765 10.197 381.348 10.81 Q 381.931 11.422 381.95 12.637 L 378.501 12.637 Q 378.501 13.304 378.751 13.74 Q 379.001 14.176 379.393 14.387 Q 379.785 14.597 380.216 14.597 Q 380.657 14.597 380.921 14.504 Q 381.186 14.411 381.367 14.244 Q 381.549 14.078 381.725 13.882 Z M 378.501 12.186 L 378.501 12.186 L 380.902 12.186 Q 380.902 11.794 380.774 11.447 Q 380.647 11.099 380.402 10.878 Q 380.157 10.658 379.775 10.658 Q 379.216 10.658 378.888 11.05 Q 378.56 11.442 378.501 12.186 Z " fill="black" /><path d="M 382.921 10.324 L 382.921 10.324 L 383.705 10.324 Q 383.705 9.805 383.778 9.442 Q 383.852 9.08 384.038 8.717 Q 384.263 8.364 384.582 8.144 Q 384.9 7.923 385.488 7.923 Q 385.988 7.923 386.341 8.115 Q 386.694 8.306 386.694 8.678 Q 386.694 8.913 386.561 9.036 Q 386.429 9.158 386.253 9.158 Q 386.037 9.158 385.915 9.036 Q 385.792 8.913 385.596 8.707 Q 385.459 8.511 385.351 8.438 Q 385.243 8.364 385.096 8.364 Q 384.822 8.364 384.734 8.629 Q 384.645 8.894 384.645 9.54 L 384.645 10.324 L 385.919 10.324 L 385.919 10.805 L 384.645 10.805 L 384.645 14.039 Q 384.645 14.44 384.734 14.641 Q 384.822 14.842 385.057 14.911 Q 385.292 14.979 385.723 14.979 L 385.723 15.342 L 382.832 15.342 L 382.832 14.979 Q 383.205 14.979 383.391 14.911 Q 383.577 14.842 383.641 14.641 Q 383.705 14.44 383.705 14.039 L 383.705 10.805 L 382.921 10.805 Z " fill="black" /></g></g></g><g><g><g><path d="M 92.325 32.309 L 92.325 32.309 L 91.891 32.309 Q 91.891 31.539 91.814 31.14 Q 91.737 30.741 91.401 30.587 Q 91.065 30.433 90.281 30.433 L 89.483 30.433 L 88.097 37.251 Q 87.971 37.881 88.006 38.182 Q 88.041 38.483 88.321 38.574 Q 88.601 38.665 89.189 38.665 L 89.105 39.085 L 85.115 39.085 L 85.199 38.665 Q 85.787 38.665 86.095 38.574 Q 86.403 38.483 86.557 38.182 Q 86.711 37.881 86.837 37.251 L 88.223 30.433 L 87.425 30.433 Q 86.837 30.433 86.487 30.517 Q 86.137 30.601 85.913 30.804 Q 85.689 31.007 85.514 31.371 Q 85.339 31.735 85.101 32.309 L 84.653 32.309 L 85.227 29.887 L 92.745 29.887 Z " fill="black" /><path d="M 97.136 41.897 L 97.136 41.897 L 95.814 42.074 L 95.461 42.074 L 95.461 41.388 L 95.392 41.388 Q 95.069 41.662 94.662 41.888 Q 94.255 42.113 93.746 42.113 Q 93.168 42.113 92.761 41.799 Q 92.354 41.486 92.139 40.937 Q 91.923 40.388 91.923 39.692 Q 91.923 38.82 92.261 38.188 Q 92.599 37.556 93.163 37.218 Q 93.726 36.88 94.392 36.88 Q 94.971 36.88 95.441 37.144 L 95.441 35.88 Q 95.441 35.527 95.368 35.415 Q 95.294 35.302 94.981 35.302 Q 94.912 35.302 94.799 35.317 Q 94.686 35.331 94.686 35.331 L 94.686 34.959 L 95.99 34.704 L 96.392 34.704 L 96.392 40.917 Q 96.392 41.3 96.499 41.412 Q 96.607 41.525 96.872 41.525 L 97.136 41.525 Z M 95.441 40.937 L 95.441 40.937 L 95.441 38.075 Q 95.333 37.801 95.083 37.585 Q 94.834 37.37 94.373 37.37 Q 93.716 37.37 93.295 37.816 Q 92.874 38.262 92.874 39.291 Q 92.874 40.339 93.241 40.824 Q 93.609 41.309 94.275 41.309 Q 94.588 41.309 94.848 41.221 Q 95.108 41.133 95.441 40.937 Z " fill="black" /></g></g></g></svg>