<svg xmlns="http://www.w3.org/2000/svg" xmlns:xlink="http://www.w3.org/1999/xlink" xml:lang="en" height="230.37800000000004pt" width="453.03pt" viewBox="-31.55419999999999 -172.73800000000003 453.03 230.37800000000004"><path d="M 0.0,-0.0 L 18.0,-0.0 L 36.0,-0.0" style="stroke:black;fill:none;stroke-width:2.0;stroke-dasharray:-;stroke-linecap:round;stroke-linejoin:round;" /><path d="M 36.0,-0.0 L 45.0,-0.0 L 54.0,-0.0" style="stroke:black;fill:none;stroke-width:2.0;stroke-dasharray:-;stroke-linecap:round;stroke-linejoin:round;" /><path d="M 87.0,29.999999999999996 L 87.0,15.000000000000004 L 72.0,15.000000000000004 L 72.0,-14.999999999999998 L 87.0,-14.999999999999998 L 87.0,-29.999999999999996" style="stroke:black;fill:none;stroke-width:2.0;stroke-dasharray:-;stroke-linecap:round;stroke-linejoin:round;" /><path d="M 78.0,15.0 L 72.0,15.000000000000004" style="stroke:black;fill:none;stroke-width:2.0;stroke-dasharray:-;stroke-linecap:round;stroke-linejoin:round;" /><path d="M 85.0 15.000000000000004 L 78.0 19.500000000000004 L 78.0 10.500000000000004 Z" style="stroke:black;fill:black;stroke-linecap:butt;stroke-linejoin:miter;" /><path d="M 69.0,12.000000000000005 L 69.0,-12.0" style="stroke:black;fill:none;stroke-width:2.0;stroke-dasharray:-;stroke-linecap:round;stroke-linejoin:round;" /><path d="M 54.0,-0.0 L 69.0,-0.0" style="stroke:black;fill:none;stroke-width:2.0;stroke-dasharray:-;stroke-linecap:round;stroke-linejoin:round;" /><path d="M 87.0,29.999999999999996 L 87.0,44.400000000000006 L 78.0,44.400000000000006 L 96.0,44.400000000000006 M 80.7,48.72 L 93.29999999999998,48.72 M 85.2,53.03999999999999 L 88.79999999999998,53.03999999999999" style="stroke:black;fill:none;stroke-width:2.0;stroke-dasharray:-;stroke-linecap:round;stroke-linejoin:round;" /><path d="M 87.0,-29.999999999999996 L 87.0,-39.0 L 87.0,-48.0" style="stroke:black;fill:none;stroke-width:2.0;stroke-dasharray:-;stroke-linecap:round;stroke-linejoin:round;" /><path d="M 87.0,-48.0 L 87.0,-92.99999999999999 L 87.0,-138.0" style="stroke:black;fill:none;stroke-width:2.0;stroke-dasharray:-;stroke-linecap:round;stroke-linejoin:round;" /><path d="M 87.0,-138.0 L 123.0,-138.0 L 123.06703383328697,-139.66155627338983 L 123.27113325898927,-141.366979365425 L 123.61398039413747,-143.069856390672 L 124.09348135344774,-144.72384375460027 L 124.70382323415933,-146.2839283889636 L 125.43563231348764,-147.70765277706747 L 126.27622915336872,-148.95627043000675 L 127.20997366984913,-149.99580036772628 L 128.21869077609992,-150.79795190732776 L 129.2821650152303,-151.34089459062062 L 130.37869072152867,-151.60985229743022 L 131.48566273755827,-151.59750537594056 L 132.58019161081282,-151.3041898461429 L 133.63972652742794,-150.737888255092 L 134.64266902988305,-149.9140124328428 L 135.56896081643887,-148.85498406133934 L 136.40062962541975,-147.5896244710227 L 137.12227834816522,-146.15237027177102 L 137.72150405950018,-144.5823361646812 L 138.18923556185993,-142.92225044015785 L 138.5199802568466,-141.21729213260127 L 138.71197362563754,-139.51386147839102 L 138.767227250154,-137.85831713900356 L 138.69147406809975,-136.29571455558604 L 138.49401235174736,-134.86857977051528 L 138.18745265657054,-133.61575208624186 L 137.78737462648556,-132.5713270583201 L 137.31190299570576,-131.76372858894254 L 136.78121432626835,-131.21493537384194 L 136.21698790531198,-130.93988275471628 L 135.64181574587084,-130.9460562556911 L 135.07858774794266,-131.23328786567592 L 134.54986875259837,-131.7937606107659 L 134.07728444253183,-132.6122212922516 L 133.6809328016924,-133.66639560059713 L 133.3788371510559,-134.92759430810952 L 133.18645564610046,-136.3614940428384 L 133.11626058495435,-137.92907139503754 L 133.1773989762945,-139.58766493459282 L 133.37544360459964,-141.29213623673934 L 133.71224136748714,-142.9960983188915 L 134.18586301261564,-144.65317805682497 L 134.79065564205638,-146.21827822370486 L 135.5173965552344,-147.64880480571918 L 136.35354424362112,-148.9058261930693 L 137.28357970638888,-149.95513269907337 L 138.28942879816174,-150.76816757269683 L 139.35095411471985,-151.32280416711563 L 140.44650303004624,-151.6039481137627 L 141.5534969699537,-151.6039481137627 L 142.64904588528012,-151.32280416711563 L 143.71057120183823,-150.76816757269683 L 144.71642029361107,-149.9551326990734 L 145.64645575637883,-148.90582619306934 L 146.48260344476557,-147.6488048057192 L 147.2093443579436,-146.21827822370489 L 147.81413698738436,-144.653178056825 L 148.28775863251283,-142.99609831889154 L 148.62455639540036,-141.2921362367394 L 148.82260102370546,-139.58766493459285 L 148.88373941504562,-137.92907139503754 L 148.81354435389954,-136.36149404283842 L 148.6211628489441,-134.92759430810955 L 148.31906719830758,-133.66639560059716 L 147.92271555746814,-132.6122212922516 L 147.4501312474016,-131.79376061076593 L 146.92141225205734,-131.23328786567595 L 146.35818425412913,-130.9460562556911 L 145.78301209468802,-130.93988275471628 L 145.21878567373165,-131.2149353738419 L 144.68809700429424,-131.7637285889425 L 144.21262537351447,-132.5713270583201 L 143.81254734342946,-133.61575208624186 L 143.5059876482526,-134.86857977051528 L 143.30852593190025,-136.29571455558602 L 143.232772749846,-137.85831713900353 L 143.28802637436246,-139.513861478391 L 143.48001974315338,-141.21729213260124 L 143.81076443814004,-142.92225044015782 L 144.2784959404998,-144.58233616468118 L 144.87772165183478,-146.152370271771 L 145.59937037458022,-147.58962447102266 L 146.4310391835611,-148.8549840613393 L 147.35733097011692,-149.9140124328428 L 148.36027347257206,-150.737888255092 L 149.41980838918715,-151.3041898461429 L 150.51433726244167,-151.59750537594053 L 151.6213092784713,-151.60985229743022 L 152.71783498476967,-151.34089459062065 L 153.78130922390005,-150.79795190732776 L 154.79002633015085,-149.9958003677263 L 155.72377084663125,-148.95627043000678 L 156.56436768651236,-147.70765277706747 L 157.29617676584067,-146.28392838896363 L 157.9065186465522,-144.72384375460032 L 158.38601960586251,-143.069856390672 L 158.72886674101073,-141.36697936542507 L 158.93296616671302,-139.66155627338983 L 158.99999999999997,-138.00000000000003 L 194.99999999999997,-138.00000000000003" style="stroke:black;fill:none;stroke-width:2.0;stroke-dasharray:-;stroke-linecap:round;stroke-linejoin:round;" /><path d="M 194.99999999999997,-138.00000000000003 L 194.99999999999997,-152.40000000000003" style="stroke:black;fill:none;stroke-width:2.0;stroke-dasharray:-;stroke-linecap:round;stroke-linejoin:round;" /><path d="M 194.99999999999997,-152.40000000000003 L 188.24999999999997,-152.40000000000003" style="stroke:black;fill:none;stroke-width:2.0;stroke-dasharray:-;stroke-linecap:round;stroke-linejoin:round;" /><path d="M 194.99999999999997,-152.40000000000003 L 201.74999999999997,-152.40000000000003" style="stroke:black;fill:none;stroke-width:2.0;stroke-dasharray:-;stroke-linecap:round;stroke-linejoin:round;" /><path d="M 194.99999999999997,-138.00000000000003 L 230.99999999999997,-138.00000000000003 L 231.06703383328693,-139.66155627338986 L 231.27113325898924,-141.36697936542504 L 231.61398039413743,-143.06985639067202 L 232.09348135344774,-144.7238437546003 L 232.7038232341593,-146.28392838896363 L 233.43563231348764,-147.7076527770675 L 234.2762291533687,-148.95627043000678 L 235.2099736698491,-149.9958003677263 L 236.21869077609992,-150.79795190732779 L 237.2821650152303,-151.34089459062065 L 238.37869072152864,-151.60985229743025 L 239.48566273755827,-151.59750537594059 L 240.5801916108128,-151.30418984614292 L 241.63972652742794,-150.73788825509203 L 242.64266902988302,-149.91401243284287 L 243.56896081643885,-148.85498406133937 L 244.40062962541973,-147.58962447102272 L 245.12227834816522,-146.15237027177108 L 245.72150405950018,-144.58233616468124 L 246.1892355618599,-142.92225044015788 L 246.5199802568466,-141.2172921326013 L 246.7119736256375,-139.51386147839105 L 246.76722725015398,-137.8583171390036 L 246.69147406809975,-136.29571455558607 L 246.49401235174736,-134.8685797705153 L 246.1874526565705,-133.6157520862419 L 245.78737462648553,-132.57132705832012 L 245.31190299570576,-131.76372858894257 L 244.78121432626833,-131.21493537384197 L 244.21698790531195,-130.9398827547163 L 243.64181574587084,-130.94605625569113 L 243.07858774794263,-131.23328786567595 L 242.54986875259837,-131.79376061076593 L 242.07728444253183,-132.61222129225166 L 241.6809328016924,-133.66639560059716 L 241.3788371510559,-134.92759430810955 L 241.1864556461004,-136.36149404283842 L 241.11626058495432,-137.92907139503757 L 241.1773989762945,-139.58766493459285 L 241.3754436045996,-141.29213623673937 L 241.7122413674871,-142.99609831889154 L 242.18586301261558,-144.653178056825 L 242.79065564205635,-146.21827822370489 L 243.5173965552344,-147.6488048057192 L 244.35354424362112,-148.90582619306934 L 245.28357970638885,-149.9551326990734 L 246.28942879816174,-150.76816757269685 L 247.35095411471983,-151.32280416711566 L 248.44650303004624,-151.60394811376273 L 249.5534969699537,-151.60394811376273 L 250.64904588528012,-151.32280416711566 L 251.7105712018382,-150.76816757269685 L 252.71642029361107,-149.95513269907343 L 253.64645575637883,-148.90582619306937 L 254.48260344476557,-147.64880480571924 L 255.2093443579436,-146.2182782237049 L 255.81413698738433,-144.65317805682503 L 256.2877586325128,-142.99609831889157 L 256.6245563954003,-141.29213623673942 L 256.8226010237055,-139.58766493459288 L 256.8837394150456,-137.92907139503757 L 256.81354435389954,-136.36149404283844 L 256.6211628489441,-134.92759430810958 L 256.31906719830755,-133.66639560059718 L 255.92271555746814,-132.61222129225166 L 255.4501312474016,-131.79376061076596 L 254.92141225205734,-131.23328786567598 L 254.35818425412913,-130.94605625569113 L 253.783012094688,-130.9398827547163 L 253.21878567373162,-131.21493537384194 L 252.68809700429424,-131.76372858894254 L 252.2126253735144,-132.57132705832012 L 251.81254734342946,-133.61575208624188 L 251.5059876482526,-134.8685797705153 L 251.30852593190022,-136.29571455558604 L 251.232772749846,-137.85831713900356 L 251.28802637436243,-139.51386147839102 L 251.48001974315338,-141.21729213260127 L 251.81076443814,-142.92225044015785 L 252.27849594049977,-144.5823361646812 L 252.87772165183475,-146.15237027177102 L 253.5993703745802,-147.5896244710227 L 254.4310391835611,-148.85498406133934 L 255.3573309701169,-149.91401243284284 L 256.36027347257203,-150.737888255092 L 257.41980838918715,-151.30418984614292 L 258.51433726244164,-151.59750537594059 L 259.6213092784713,-151.60985229743025 L 260.71783498476964,-151.34089459062068 L 261.78130922390005,-150.79795190732779 L 262.7900263301508,-149.99580036772633 L 263.7237708466312,-148.9562704300068 L 264.5643676865123,-147.7076527770675 L 265.29617676584064,-146.28392838896366 L 265.90651864655223,-144.72384375460035 L 266.3860196058625,-143.06985639067204 L 266.72886674101073,-141.3669793654251 L 266.932966166713,-139.66155627338986 L 267.0,-138.00000000000006 L 303.0,-138.00000000000006" style="stroke:black;fill:none;stroke-width:2.0;stroke-dasharray:-;stroke-linecap:round;stroke-linejoin:round;" /><path d="M 303.0,-138.00000000000006 L 303.0,-111.00000000000006 L 303.0,-84.00000000000006" style="stroke:black;fill:none;stroke-width:2.0;stroke-dasharray:-;stroke-linecap:round;stroke-linejoin:round;" /><path d="M 303.0,-84.00000000000006 L 303.0,-57.00000000000006 L 303.0,-30.000000000000053" style="stroke:black;fill:none;stroke-width:2.0;stroke-dasharray:-;stroke-linecap:round;stroke-linejoin:round;" /><path d="M 303.0,-30.000000000000053 L 303.0,-15.000000000000055 L 317.99999999999994,-15.000000000000055 L 317.99999999999994,14.999999999999947 L 303.0,14.999999999999947 L 303.0,29.999999999999943" style="stroke:black;fill:none;stroke-width:2.0;stroke-dasharray:-;stroke-linecap:round;stroke-linejoin:round;" /><path d="M 317.99999999999994,14.999999999999947 L 312.0,14.999999999999948" style="stroke:black;fill:none;stroke-width:2.0;stroke-dasharray:-;stroke-linecap:round;stroke-linejoin:round;" /><path d="M 305.0 14.999999999999947 L 312.0 10.499999999999947 L 312.0 19.499999999999947 Z" style="stroke:black;fill:black;stroke-linecap:butt;stroke-linejoin:miter;" /><path d="M 321.0,-12.000000000000055 L 321.0,11.99999999999995" style="stroke:black;fill:none;stroke-width:2.0;stroke-dasharray:-;stroke-linecap:round;stroke-linejoin:round;" /><path d="M 321.0,-5.595524044110789e-14 L 335.99999999999994,-5.595524044110789e-14" style="stroke:black;fill:none;stroke-width:2.0;stroke-dasharray:-;stroke-linecap:round;stroke-linejoin:round;" /><path d="M 303.0,29.999999999999943 L 303.0,44.399999999999935 L 294.0,44.399999999999935 L 312.0,44.399999999999935 M 296.69999999999993,48.71999999999994 L 309.3,48.71999999999994 M 301.19999999999993,53.03999999999995 L 304.8,53.03999999999995" style="stroke:black;fill:none;stroke-width:2.0;stroke-dasharray:-;stroke-linecap:round;stroke-linejoin:round;" /><path d="M 335.99999999999994,-5.595524044110789e-14 L 344.99999999999994,-5.595524044110789e-14 L 353.99999999999994,-5.595524044110789e-14" style="stroke:black;fill:none;stroke-width:2.0;stroke-dasharray:-;stroke-linecap:round;stroke-linejoin:round;" /><path d="M 353.99999999999994,-5.595524044110789e-14 L 371.99999999999994,-5.595524044110789e-14 L 389.99999999999994,-5.595524044110789e-14" style="stroke:black;fill:none;stroke-width:2.0;stroke-dasharray:-;stroke-linecap:round;stroke-linejoin:round;" /><path d="M 87.0,-48.0 L 217.26,-48.0 M 217.26,-57.0 L 217.26,-39.0 M 223.74,-57.0 L 223.74,-39.0 M 223.74,-48.0 L 353.99999999999994,-48.0" style="stroke:black;fill:none;stroke-width:2.0;stroke-dasharray:-;stroke-linecap:round;stroke-linejoin:round;" /><path d="M 353.99999999999994,-48.0 L 353.99999999999994,-24.00000000000003 L 353.99999999999994,-5.595524044110789e-14" style="stroke:black;fill:none;stroke-width:2.0;stroke-dasharray:-;stroke-linecap:round;stroke-linejoin:round;" /><path d="M 303.0,-84.00000000000006 L 172.73999999999998,-84.00000000000007 M 172.73999999999998,-75.00000000000007 L 172.73999999999998,-93.00000000000007 M 166.25999999999996,-75.00000000000007 L 166.25999999999996,-93.00000000000007 M 166.25999999999996,-84.00000000000007 L 36.0,-84.00000000000009" style="stroke:black;fill:none;stroke-width:2.0;stroke-dasharray:-;stroke-linecap:round;stroke-linejoin:round;" /><path d="M 36.0,-84.00000000000009 L 35.99999999999999,-42.00000000000004 L 35.999999999999986,-0.0" style="stroke:black;fill:none;stroke-width:2.0;stroke-dasharray:-;stroke-linecap:round;stroke-linejoin:round;" /><circle cx="36.0" cy="-0.0" r="2.6999999999999997" style="stroke:black;fill:black;stroke-width:2.0;stroke-dasharray:-;" /><circle cx="0.0" cy="-0.0" r="2.6999999999999997" style="stroke:black;fill:white;stroke-width:2.0;stroke-dasharray:-;" /><g><g><g><path d="M -24.464 -5.955 L -24.464 -5.955 L -24.786 -3.771 L -25.122 -3.771 Q -25.15 -4.583 -25.493 -5.059 Q -25.836 -5.535 -26.452 -5.535 Q -26.998 -5.535 -27.236 -5.241 Q -27.474 -4.947 -27.474 -4.639 Q -27.474 -4.345 -27.271 -4.072 Q -27.068 -3.799 -26.76 -3.512 Q -26.452 -3.225 -26.144 -2.889 Q -25.696 -2.413 -25.367 -1.958 Q -25.038 -1.503 -25.038 -0.831 Q -25.038 -0.425 -25.241 -0.026 Q -25.444 0.373 -25.906 0.639 Q -26.368 0.905 -27.166 0.905 Q -27.824 0.905 -28.223 0.744 Q -28.622 0.583 -28.776 0.527 L -28.818 0.527 L -29.154 0.905 L -29.462 0.905 L -29.098 -1.433 L -28.748 -1.433 Q -28.636 -0.523 -28.321 -0.047 Q -28.006 0.429 -27.292 0.429 Q -26.802 0.429 -26.501 0.191 Q -26.2 -0.047 -26.2 -0.593 Q -26.2 -1.167 -26.515 -1.566 Q -26.83 -1.965 -27.236 -2.343 Q -27.516 -2.623 -27.803 -2.889 Q -28.09 -3.155 -28.279 -3.484 Q -28.468 -3.813 -28.468 -4.247 Q -28.468 -4.961 -27.992 -5.458 Q -27.516 -5.955 -26.564 -5.955 Q -26.004 -5.955 -25.633 -5.801 Q -25.262 -5.647 -25.136 -5.577 L -25.094 -5.577 L -24.73 -5.955 Z " fill="black" /><path d="M -21.363 3.329 L -21.363 3.329 L -21.363 3.691 L -23.852 3.691 L -23.852 3.329 Q -23.509 3.329 -23.357 3.255 Q -23.205 3.182 -23.166 3.02 Q -23.127 2.858 -23.127 2.594 L -23.127 -0.366 Q -23.127 -0.699 -23.234 -0.768 Q -23.342 -0.836 -23.597 -0.836 Q -23.724 -0.836 -23.803 -0.827 Q -23.881 -0.817 -23.881 -0.817 L -23.881 -1.209 L -22.568 -1.424 L -22.166 -1.424 L -22.166 2.594 Q -22.166 2.878 -22.122 3.039 Q -22.078 3.201 -21.906 3.265 Q -21.735 3.329 -21.363 3.329 Z M -22.656 -3.59 L -22.656 -3.59 Q -22.372 -3.59 -22.181 -3.394 Q -21.99 -3.198 -21.99 -2.943 Q -21.99 -2.708 -22.181 -2.512 Q -22.372 -2.316 -22.656 -2.316 Q -22.931 -2.316 -23.112 -2.512 Q -23.293 -2.708 -23.293 -2.943 Q -23.293 -3.198 -23.112 -3.394 Q -22.931 -3.59 -22.656 -3.59 Z " fill="black" /><path d="M -15.541 0.408 L -15.541 0.408 L -15.541 2.603 Q -15.541 2.878 -15.492 3.039 Q -15.443 3.201 -15.277 3.27 Q -15.11 3.338 -14.757 3.338 L -14.757 3.691 L -17.276 3.691 L -17.276 3.338 Q -16.904 3.338 -16.737 3.27 Q -16.57 3.201 -16.531 3.039 Q -16.492 2.878 -16.492 2.603 L -16.492 0.732 Q -16.492 0.075 -16.644 -0.234 Q -16.796 -0.542 -17.026 -0.64 Q -17.256 -0.738 -17.492 -0.738 Q -17.913 -0.738 -18.231 -0.523 Q -18.55 -0.307 -18.785 -0.111 L -18.785 2.603 Q -18.785 2.878 -18.741 3.039 Q -18.697 3.201 -18.53 3.27 Q -18.364 3.338 -18.001 3.338 L -18.001 3.691 L -20.471 3.691 L -20.471 3.338 Q -20.128 3.338 -19.976 3.27 Q -19.824 3.201 -19.785 3.039 Q -19.746 2.878 -19.746 2.603 L -19.746 -0.376 Q -19.746 -0.65 -19.848 -0.743 Q -19.951 -0.836 -20.177 -0.836 Q -20.294 -0.836 -20.373 -0.827 Q -20.451 -0.817 -20.451 -0.817 L -20.451 -1.189 L -19.138 -1.424 L -18.815 -1.424 L -18.815 -0.621 L -18.746 -0.621 Q -18.325 -1.003 -17.938 -1.228 Q -17.55 -1.454 -17.06 -1.454 Q -16.482 -1.454 -16.154 -1.194 Q -15.826 -0.934 -15.683 -0.513 Q -15.541 -0.092 -15.541 0.408 Z " fill="black" /><path d="M -13.532 5.161 L -13.532 5.161 L -13.699 4.838 Q -13.493 4.75 -13.278 4.607 Q -13.062 4.465 -12.92 4.206 Q -12.778 3.946 -12.778 3.525 Q -12.944 3.593 -13.121 3.593 Q -13.444 3.593 -13.581 3.402 Q -13.719 3.211 -13.719 2.966 Q -13.719 2.701 -13.542 2.505 Q -13.366 2.309 -13.033 2.309 Q -12.611 2.309 -12.391 2.569 Q -12.17 2.829 -12.17 3.289 Q -12.17 3.76 -12.317 4.088 Q -12.464 4.416 -12.685 4.627 Q -12.905 4.838 -13.135 4.96 Q -13.366 5.083 -13.532 5.161 Z " fill="black" /><path d="M -10.112 -1.424 L -10.112 -1.424 L -10.112 -0.582 L -10.063 -0.582 Q -9.681 -1.023 -9.299 -1.238 Q -8.917 -1.454 -8.456 -1.454 Q -7.937 -1.454 -7.515 -1.145 Q -7.094 -0.836 -6.844 -0.293 Q -6.594 0.251 -6.594 0.957 Q -6.594 1.878 -6.922 2.515 Q -7.251 3.152 -7.794 3.48 Q -8.338 3.809 -8.975 3.809 Q -9.279 3.809 -9.549 3.73 Q -9.818 3.652 -10.044 3.525 L -10.093 3.525 L -10.093 4.779 Q -10.093 5.122 -10.004 5.303 Q -9.916 5.485 -9.691 5.548 Q -9.465 5.612 -9.044 5.612 L -9.044 5.955 L -11.817 5.955 L -11.817 5.622 Q -11.474 5.612 -11.313 5.548 Q -11.151 5.485 -11.097 5.318 Q -11.043 5.151 -11.043 4.848 L -11.043 -0.307 Q -11.043 -0.591 -11.102 -0.714 Q -11.161 -0.836 -11.445 -0.836 Q -11.533 -0.836 -11.67 -0.827 Q -11.808 -0.817 -11.808 -0.817 L -11.808 -1.209 L -10.485 -1.424 Z M -10.093 -0.082 L -10.093 -0.082 L -10.093 2.682 Q -9.985 2.79 -9.823 2.951 Q -9.661 3.113 -9.436 3.235 Q -9.211 3.358 -8.946 3.358 Q -8.583 3.358 -8.284 3.137 Q -7.986 2.917 -7.799 2.447 Q -7.613 1.976 -7.613 1.251 Q -7.613 0.33 -7.946 -0.18 Q -8.28 -0.689 -8.887 -0.689 Q -9.279 -0.689 -9.603 -0.484 Q -9.926 -0.278 -10.093 -0.082 Z " fill="black" /></g></g></g><g><g><g><path d="M 101.926 3.129 L 101.926 3.129 L 98.188 3.129 L 98.272 2.709 Q 98.79 2.709 99.063 2.611 Q 99.336 2.513 99.476 2.24 Q 99.616 1.967 99.714 1.463 L 100.96 -4.585 L 100.904 -4.585 L 96.2 3.129 L 95.892 3.129 L 94.198 -4.571 L 94.142 -4.571 L 92.98 1.085 Q 92.84 1.799 92.861 2.149 Q 92.882 2.499 93.134 2.604 Q 93.386 2.709 93.918 2.709 L 93.834 3.129 L 90.6 3.129 L 90.684 2.709 Q 91.23 2.709 91.524 2.604 Q 91.818 2.499 91.986 2.149 Q 92.154 1.799 92.294 1.085 L 93.4 -4.361 Q 93.512 -4.893 93.47 -5.166 Q 93.428 -5.439 93.169 -5.544 Q 92.91 -5.649 92.35 -5.649 L 92.434 -6.069 L 95.234 -6.069 L 96.746 1.015 L 96.802 1.015 L 101.072 -6.069 L 103.718 -6.069 L 103.634 -5.649 Q 103.144 -5.649 102.857 -5.544 Q 102.57 -5.439 102.416 -5.166 Q 102.262 -4.893 102.15 -4.375 L 100.96 1.463 Q 100.806 2.233 101.037 2.471 Q 101.268 2.709 102.01 2.709 Z " fill="black" /><path d="M 107.952 6.069 L 107.952 6.069 L 104.629 6.069 L 104.629 5.716 Q 105.335 5.716 105.565 5.574 Q 105.796 5.432 105.796 5.06 L 105.796 0.787 Q 105.796 0.522 105.717 0.405 Q 105.639 0.287 105.433 0.287 Q 105.276 0.287 105.007 0.331 Q 104.737 0.375 104.541 0.424 L 104.541 0.032 L 106.354 -0.468 L 106.776 -0.468 L 106.776 5.06 Q 106.776 5.432 107.025 5.574 Q 107.275 5.716 107.952 5.716 Z " fill="black" /></g></g></g><circle cx="87.0" cy="-48.0" r="2.6999999999999997" style="stroke:black;fill:black;stroke-width:2.0;stroke-dasharray:-;" /><circle cx="194.99999999999997" cy="-138.00000000000003" r="2.6999999999999997" style="stroke:black;fill:black;stroke-width:2.0;stroke-dasharray:-;" /><g><g><g><path d="M 143.447 -120.872 L 143.447 -120.872 L 142.607 -118.142 L 135.691 -118.142 L 135.775 -118.562 Q 136.321 -118.562 136.608 -118.66 Q 136.895 -118.758 137.049 -119.038 Q 137.203 -119.318 137.315 -119.878 L 138.519 -125.716 Q 138.617 -126.178 138.589 -126.444 Q 138.561 -126.71 138.302 -126.815 Q 138.043 -126.92 137.441 -126.92 L 137.525 -127.34 L 141.501 -127.34 L 141.431 -126.92 Q 140.675 -126.92 140.297 -126.689 Q 139.919 -126.458 139.765 -125.702 L 138.491 -119.43 Q 138.393 -118.968 138.589 -118.821 Q 138.785 -118.674 139.401 -118.674 L 140.059 -118.674 Q 140.731 -118.674 141.151 -118.793 Q 141.571 -118.912 141.865 -119.164 Q 142.159 -119.416 142.418 -119.843 Q 142.677 -120.27 142.999 -120.872 Z " fill="black" /><path d="M 148.072 -115.202 L 148.072 -115.202 L 144.75 -115.202 L 144.75 -115.555 Q 145.456 -115.555 145.686 -115.697 Q 145.916 -115.839 145.916 -116.211 L 145.916 -120.484 Q 145.916 -120.749 145.838 -120.866 Q 145.76 -120.984 145.554 -120.984 Q 145.397 -120.984 145.128 -120.94 Q 144.858 -120.896 144.662 -120.847 L 144.662 -121.239 L 146.475 -121.738 L 146.897 -121.738 L 146.897 -116.211 Q 146.897 -115.839 147.146 -115.697 Q 147.396 -115.555 148.072 -115.555 Z " fill="black" /></g></g></g><g><g><g><path d="M 186.853 -160.69 L 186.853 -160.69 L 190.675 -166.43 Q 190.871 -166.71 190.99 -166.948 Q 191.109 -167.186 191.109 -167.354 Q 191.109 -167.564 190.927 -167.641 Q 190.745 -167.718 190.269 -167.718 L 190.297 -168.138 L 193.321 -168.138 L 193.293 -167.718 Q 192.915 -167.718 192.649 -167.606 Q 192.383 -167.494 192.11 -167.179 Q 191.837 -166.864 191.403 -166.22 L 186.265 -158.87 L 185.803 -158.87 L 185.019 -166.444 Q 184.935 -167.144 184.711 -167.431 Q 184.487 -167.718 183.927 -167.718 L 183.955 -168.138 L 187.385 -168.138 L 187.343 -167.718 Q 186.811 -167.718 186.503 -167.508 Q 186.195 -167.298 186.223 -166.822 Q 186.223 -166.752 186.244 -166.57 Q 186.265 -166.388 186.265 -166.318 L 186.685 -162.328 L 186.783 -160.69 Z " fill="black" /><path d="M 192.218 -162.889 L 192.218 -162.889 L 195.188 -162.889 Q 195.972 -162.889 196.687 -162.718 Q 197.402 -162.546 197.966 -162.154 Q 198.529 -161.762 198.858 -161.106 Q 199.186 -160.449 199.186 -159.469 Q 199.186 -158.548 198.887 -157.887 Q 198.588 -157.225 198.049 -156.809 Q 197.51 -156.392 196.795 -156.196 Q 196.079 -156 195.246 -156 L 192.218 -156 L 192.218 -156.372 Q 192.679 -156.372 192.894 -156.441 Q 193.11 -156.51 193.174 -156.72 Q 193.237 -156.931 193.237 -157.362 L 193.237 -161.615 Q 193.237 -162.017 193.144 -162.208 Q 193.051 -162.399 192.831 -162.458 Q 192.61 -162.517 192.218 -162.517 Z M 194.286 -162.399 L 194.286 -162.399 L 194.286 -156.47 Q 194.443 -156.461 194.595 -156.456 Q 194.747 -156.451 194.894 -156.451 Q 195.864 -156.451 196.545 -156.706 Q 197.226 -156.96 197.584 -157.597 Q 197.941 -158.234 197.941 -159.381 Q 197.941 -160.851 197.192 -161.63 Q 196.442 -162.409 194.815 -162.409 Q 194.678 -162.409 194.551 -162.409 Q 194.423 -162.409 194.286 -162.399 Z " fill="black" /><path d="M 200.372 -162.889 L 200.372 -162.889 L 203.341 -162.889 Q 204.125 -162.889 204.841 -162.718 Q 205.556 -162.546 206.119 -162.154 Q 206.683 -161.762 207.011 -161.106 Q 207.34 -160.449 207.34 -159.469 Q 207.34 -158.548 207.041 -157.887 Q 206.742 -157.225 206.203 -156.809 Q 205.664 -156.392 204.948 -156.196 Q 204.233 -156 203.4 -156 L 200.372 -156 L 200.372 -156.372 Q 200.832 -156.372 201.048 -156.441 Q 201.264 -156.51 201.327 -156.72 Q 201.391 -156.931 201.391 -157.362 L 201.391 -161.615 Q 201.391 -162.017 201.298 -162.208 Q 201.205 -162.399 200.984 -162.458 Q 200.764 -162.517 200.372 -162.517 Z M 202.44 -162.399 L 202.44 -162.399 L 202.44 -156.47 Q 202.596 -156.461 202.748 -156.456 Q 202.9 -156.451 203.047 -156.451 Q 204.017 -156.451 204.698 -156.706 Q 205.38 -156.96 205.737 -157.597 Q 206.095 -158.234 206.095 -159.381 Q 206.095 -160.851 205.345 -161.63 Q 204.596 -162.409 202.969 -162.409 Q 202.832 -162.409 202.704 -162.409 Q 202.577 -162.409 202.44 -162.399 Z " fill="black" /></g></g></g><g><g><g><path d="M 250.023 -120.872 L 250.023 -120.872 L 249.183 -118.142 L 242.267 -118.142 L 242.351 -118.562 Q 242.897 -118.562 243.184 -118.66 Q 243.471 -118.758 243.625 -119.038 Q 243.779 -119.318 243.891 -119.878 L 245.095 -125.716 Q 245.193 -126.178 245.165 -126.444 Q 245.137 -126.71 244.878 -126.815 Q 244.619 -126.92 244.017 -126.92 L 244.101 -127.34 L 248.077 -127.34 L 248.007 -126.92 Q 247.251 -126.92 246.873 -126.689 Q 246.495 -126.458 246.341 -125.702 L 245.067 -119.43 Q 244.969 -118.968 245.165 -118.821 Q 245.361 -118.674 245.977 -118.674 L 246.635 -118.674 Q 247.307 -118.674 247.727 -118.793 Q 248.147 -118.912 248.441 -119.164 Q 248.735 -119.416 248.994 -119.843 Q 249.253 -120.27 249.575 -120.872 Z " fill="black" /><path d="M 255.208 -116.907 L 255.208 -116.907 L 254.874 -115.202 L 250.856 -115.202 L 250.856 -115.682 L 252.248 -117.093 Q 252.797 -117.642 253.154 -118.063 Q 253.512 -118.485 253.689 -118.911 Q 253.865 -119.337 253.865 -119.886 Q 253.865 -120.406 253.546 -120.744 Q 253.228 -121.082 252.65 -121.082 Q 252.121 -121.082 251.763 -120.871 Q 251.405 -120.66 251.131 -120.18 L 250.866 -120.308 Q 251.111 -120.994 251.626 -121.386 Q 252.14 -121.778 252.895 -121.778 Q 253.483 -121.778 253.934 -121.567 Q 254.384 -121.356 254.639 -120.964 Q 254.894 -120.572 254.894 -120.014 Q 254.894 -119.533 254.678 -119.112 Q 254.463 -118.691 254.066 -118.25 Q 253.669 -117.809 253.12 -117.27 L 251.895 -116.084 L 251.895 -116.015 L 252.66 -116.054 L 253.934 -116.054 Q 254.218 -116.054 254.37 -116.133 Q 254.522 -116.211 254.629 -116.402 Q 254.737 -116.593 254.865 -116.907 Z " fill="black" /></g></g></g><circle cx="303.0" cy="-84.00000000000006" r="2.6999999999999997" style="stroke:black;fill:black;stroke-width:2.0;stroke-dasharray:-;" /><g><g><g><path d="M 292.151 3.129 L 292.151 3.129 L 288.413 3.129 L 288.497 2.709 Q 289.015 2.709 289.288 2.611 Q 289.561 2.513 289.701 2.24 Q 289.841 1.967 289.939 1.463 L 291.185 -4.585 L 291.129 -4.585 L 286.425 3.129 L 286.117 3.129 L 284.423 -4.571 L 284.367 -4.571 L 283.205 1.085 Q 283.065 1.799 283.086 2.149 Q 283.107 2.499 283.359 2.604 Q 283.611 2.709 284.143 2.709 L 284.059 3.129 L 280.825 3.129 L 280.909 2.709 Q 281.455 2.709 281.749 2.604 Q 282.043 2.499 282.211 2.149 Q 282.379 1.799 282.519 1.085 L 283.625 -4.361 Q 283.737 -4.893 283.695 -5.166 Q 283.653 -5.439 283.394 -5.544 Q 283.135 -5.649 282.575 -5.649 L 282.659 -6.069 L 285.459 -6.069 L 286.971 1.015 L 287.027 1.015 L 291.297 -6.069 L 293.943 -6.069 L 293.859 -5.649 Q 293.369 -5.649 293.082 -5.544 Q 292.795 -5.439 292.641 -5.166 Q 292.487 -4.893 292.375 -4.375 L 291.185 1.463 Q 291.031 2.233 291.262 2.471 Q 291.493 2.709 292.235 2.709 Z " fill="black" /><path d="M 298.735 4.364 L 298.735 4.364 L 298.402 6.069 L 294.384 6.069 L 294.384 5.589 L 295.775 4.178 Q 296.324 3.629 296.682 3.207 Q 297.04 2.786 297.216 2.36 Q 297.392 1.933 297.392 1.385 Q 297.392 0.865 297.074 0.527 Q 296.755 0.189 296.177 0.189 Q 295.648 0.189 295.29 0.4 Q 294.933 0.61 294.658 1.091 L 294.394 0.963 Q 294.639 0.277 295.153 -0.115 Q 295.668 -0.507 296.422 -0.507 Q 297.01 -0.507 297.461 -0.296 Q 297.912 -0.085 298.167 0.307 Q 298.421 0.699 298.421 1.257 Q 298.421 1.737 298.206 2.159 Q 297.99 2.58 297.593 3.021 Q 297.196 3.462 296.648 4.001 L 295.423 5.187 L 295.423 5.256 L 296.187 5.216 L 297.461 5.216 Q 297.745 5.216 297.897 5.138 Q 298.049 5.06 298.157 4.868 Q 298.265 4.677 298.392 4.364 Z " fill="black" /></g></g></g><circle cx="353.99999999999994" cy="-5.595524044110789e-14" r="2.6999999999999997" style="stroke:black;fill:black;stroke-width:2.0;stroke-dasharray:-;" /><circle cx="389.99999999999994" cy="-5.595524044110789e-14" r="2.6999999999999997" style="stroke:black;fill:white;stroke-width:2.0;stroke-dasharray:-;" /><g><g><g><path d="M 401.592 -5.558 L 401.592 -5.558 L 401.27 -3.374 L 400.934 -3.374 Q 400.906 -4.186 400.563 -4.662 Q 400.22 -5.138 399.604 -5.138 Q 399.058 -5.138 398.82 -4.844 Q 398.582 -4.55 398.582 -4.242 Q 398.582 -3.948 398.785 -3.675 Q 398.988 -3.402 399.296 -3.115 Q 399.604 -2.828 399.912 -2.492 Q 400.36 -2.016 400.689 -1.561 Q 401.018 -1.106 401.018 -0.434 Q 401.018 -0.028 400.815 0.371 Q 400.612 0.77 400.15 1.036 Q 399.688 1.302 398.89 1.302 Q 398.232 1.302 397.833 1.141 Q 397.434 0.98 397.28 0.924 L 397.238 0.924 L 396.902 1.302 L 396.594 1.302 L 396.958 -1.036 L 397.308 -1.036 Q 397.42 -0.126 397.735 0.35 Q 398.05 0.826 398.764 0.826 Q 399.254 0.826 399.555 0.588 Q 399.856 0.35 399.856 -0.196 Q 399.856 -0.77 399.541 -1.169 Q 399.226 -1.568 398.82 -1.946 Q 398.54 -2.226 398.253 -2.492 Q 397.966 -2.758 397.777 -3.087 Q 397.588 -3.416 397.588 -3.85 Q 397.588 -4.564 398.064 -5.061 Q 398.54 -5.558 399.492 -5.558 Q 400.052 -5.558 400.423 -5.404 Q 400.794 -5.25 400.92 -5.18 L 400.962 -5.18 L 401.326 -5.558 Z " fill="black" /><path d="M 404.693 3.725 L 404.693 3.725 L 404.693 4.088 L 402.204 4.088 L 402.204 3.725 Q 402.547 3.725 402.699 3.652 Q 402.851 3.578 402.89 3.417 Q 402.929 3.255 402.929 2.99 L 402.929 0.031 Q 402.929 -0.302 402.821 -0.371 Q 402.713 -0.44 402.459 -0.44 Q 402.331 -0.44 402.253 -0.43 Q 402.174 -0.42 402.174 -0.42 L 402.174 -0.812 L 403.488 -1.028 L 403.889 -1.028 L 403.889 2.99 Q 403.889 3.275 403.933 3.436 Q 403.978 3.598 404.149 3.662 Q 404.321 3.725 404.693 3.725 Z M 403.399 -3.193 L 403.399 -3.193 Q 403.684 -3.193 403.875 -2.997 Q 404.066 -2.801 404.066 -2.547 Q 404.066 -2.311 403.875 -2.115 Q 403.684 -1.919 403.399 -1.919 Q 403.125 -1.919 402.944 -2.115 Q 402.762 -2.311 402.762 -2.547 Q 402.762 -2.801 402.944 -2.997 Q 403.125 -3.193 403.399 -3.193 Z " fill="black" /><path d="M 410.514 0.805 L 410.514 0.805 L 410.514 3 Q 410.514 3.275 410.563 3.436 Q 410.612 3.598 410.779 3.667 Q 410.945 3.735 411.298 3.735 L 411.298 4.088 L 408.78 4.088 L 408.78 3.735 Q 409.152 3.735 409.319 3.667 Q 409.485 3.598 409.524 3.436 Q 409.564 3.275 409.564 3 L 409.564 1.128 Q 409.564 0.472 409.412 0.163 Q 409.26 -0.146 409.029 -0.244 Q 408.799 -0.342 408.564 -0.342 Q 408.143 -0.342 407.824 -0.126 Q 407.506 0.09 407.27 0.286 L 407.27 3 Q 407.27 3.275 407.314 3.436 Q 407.359 3.598 407.525 3.667 Q 407.692 3.735 408.054 3.735 L 408.054 4.088 L 405.585 4.088 L 405.585 3.735 Q 405.928 3.735 406.08 3.667 Q 406.232 3.598 406.271 3.436 Q 406.31 3.275 406.31 3 L 406.31 0.021 Q 406.31 -0.253 406.207 -0.347 Q 406.104 -0.44 405.879 -0.44 Q 405.761 -0.44 405.683 -0.43 Q 405.604 -0.42 405.604 -0.42 L 405.604 -0.792 L 406.918 -1.028 L 407.241 -1.028 L 407.241 -0.224 L 407.31 -0.224 Q 407.731 -0.606 408.118 -0.832 Q 408.505 -1.057 408.995 -1.057 Q 409.573 -1.057 409.902 -0.797 Q 410.23 -0.538 410.372 -0.116 Q 410.514 0.305 410.514 0.805 Z " fill="black" /><path d="M 412.523 5.558 L 412.523 5.558 L 412.357 5.235 Q 412.562 5.146 412.778 5.004 Q 412.994 4.862 413.136 4.602 Q 413.278 4.343 413.278 3.921 Q 413.111 3.99 412.935 3.99 Q 412.611 3.99 412.474 3.799 Q 412.337 3.608 412.337 3.363 Q 412.337 3.098 412.513 2.902 Q 412.69 2.706 413.023 2.706 Q 413.444 2.706 413.665 2.966 Q 413.885 3.226 413.885 3.686 Q 413.885 4.157 413.738 4.485 Q 413.591 4.813 413.371 5.024 Q 413.15 5.235 412.92 5.357 Q 412.69 5.48 412.523 5.558 Z " fill="black" /><path d="M 419.315 0.805 L 419.315 0.805 L 419.315 3 Q 419.315 3.275 419.364 3.436 Q 419.413 3.598 419.579 3.667 Q 419.746 3.735 420.099 3.735 L 420.099 4.088 L 417.58 4.088 L 417.58 3.735 Q 417.952 3.735 418.119 3.667 Q 418.286 3.598 418.325 3.436 Q 418.364 3.275 418.364 3 L 418.364 1.128 Q 418.364 0.472 418.212 0.163 Q 418.06 -0.146 417.83 -0.244 Q 417.6 -0.342 417.364 -0.342 Q 416.943 -0.342 416.624 -0.126 Q 416.306 0.09 416.071 0.286 L 416.071 3 Q 416.071 3.275 416.115 3.436 Q 416.159 3.598 416.326 3.667 Q 416.492 3.735 416.855 3.735 L 416.855 4.088 L 414.385 4.088 L 414.385 3.735 Q 414.728 3.735 414.88 3.667 Q 415.032 3.598 415.071 3.436 Q 415.11 3.275 415.11 3 L 415.11 0.021 Q 415.11 -0.253 415.007 -0.347 Q 414.905 -0.44 414.679 -0.44 Q 414.562 -0.44 414.483 -0.43 Q 414.405 -0.42 414.405 -0.42 L 414.405 -0.792 L 415.718 -1.028 L 416.041 -1.028 L 416.041 -0.224 L 416.11 -0.224 Q 416.531 -0.606 416.918 -0.832 Q 417.306 -1.057 417.796 -1.057 Q 418.374 -1.057 418.702 -0.797 Q 419.03 -0.538 419.172 -0.116 Q 419.315 0.305 419.315 0.805 Z " fill="black" /></g></g></g><g><g><g><path d="M 218.567 -65.57 L 218.567 -65.57 L 218.819 -65.304 Q 218.105 -64.464 217.167 -63.925 Q 216.229 -63.386 214.899 -63.386 Q 213.639 -63.386 212.883 -63.855 Q 212.127 -64.324 211.798 -65.108 Q 211.469 -65.892 211.469 -66.816 Q 211.469 -68.286 211.917 -69.427 Q 212.365 -70.568 213.142 -71.345 Q 213.919 -72.122 214.899 -72.521 Q 215.879 -72.92 216.943 -72.92 Q 217.657 -72.92 218.056 -72.794 Q 218.455 -72.668 218.679 -72.535 Q 218.903 -72.402 219.071 -72.402 Q 219.239 -72.402 219.365 -72.542 Q 219.491 -72.682 219.659 -72.906 L 220.065 -72.906 L 219.407 -69.7 L 218.945 -69.7 Q 219.001 -71.1 218.427 -71.709 Q 217.853 -72.318 216.817 -72.318 Q 216.005 -72.318 215.291 -71.947 Q 214.577 -71.576 214.024 -70.897 Q 213.471 -70.218 213.156 -69.273 Q 212.841 -68.328 212.841 -67.166 Q 212.841 -65.766 213.506 -65.031 Q 214.171 -64.296 215.557 -64.296 Q 217.167 -64.296 218.567 -65.57 Z " fill="black" /><path d="M 225.047 -63.883 L 225.047 -63.883 L 225.047 -61.688 Q 225.047 -61.413 225.095 -61.252 Q 225.144 -61.09 225.311 -61.021 Q 225.478 -60.953 225.831 -60.953 L 225.831 -60.6 L 223.312 -60.6 L 223.312 -60.953 Q 223.684 -60.953 223.851 -61.021 Q 224.018 -61.09 224.057 -61.252 Q 224.096 -61.413 224.096 -61.688 L 224.096 -63.56 Q 224.096 -64.216 223.944 -64.525 Q 223.792 -64.834 223.562 -64.932 Q 223.332 -65.03 223.096 -65.03 Q 222.675 -65.03 222.356 -64.814 Q 222.038 -64.598 221.803 -64.402 L 221.803 -61.688 Q 221.803 -61.413 221.847 -61.252 Q 221.891 -61.09 222.058 -61.021 Q 222.224 -60.953 222.587 -60.953 L 222.587 -60.6 L 220.117 -60.6 L 220.117 -60.953 Q 220.46 -60.953 220.612 -61.021 Q 220.764 -61.09 220.803 -61.252 Q 220.842 -61.413 220.842 -61.688 L 220.842 -64.667 Q 220.842 -64.941 220.739 -65.034 Q 220.637 -65.128 220.411 -65.128 Q 220.293 -65.128 220.215 -65.118 Q 220.137 -65.108 220.137 -65.108 L 220.137 -65.48 L 221.45 -65.716 L 221.773 -65.716 L 221.773 -64.912 L 221.842 -64.912 Q 222.263 -65.294 222.65 -65.52 Q 223.037 -65.745 223.528 -65.745 Q 224.106 -65.745 224.434 -65.485 Q 224.762 -65.226 224.904 -64.804 Q 225.047 -64.383 225.047 -63.883 Z " fill="black" /><path d="M 230.456 -60.6 L 230.456 -60.6 L 227.134 -60.6 L 227.134 -60.953 Q 227.839 -60.953 228.07 -61.095 Q 228.3 -61.237 228.3 -61.609 L 228.3 -65.882 Q 228.3 -66.147 228.222 -66.264 Q 228.143 -66.382 227.938 -66.382 Q 227.781 -66.382 227.511 -66.338 Q 227.242 -66.294 227.046 -66.245 L 227.046 -66.637 L 228.859 -67.137 L 229.28 -67.137 L 229.28 -61.609 Q 229.28 -61.237 229.53 -61.095 Q 229.78 -60.953 230.456 -60.953 Z " fill="black" /></g></g></g><g><g><g><path d="M 167.494 -101.57 L 167.494 -101.57 L 167.746 -101.304 Q 167.032 -100.464 166.094 -99.925 Q 165.156 -99.386 163.826 -99.386 Q 162.566 -99.386 161.81 -99.855 Q 161.054 -100.324 160.725 -101.108 Q 160.396 -101.892 160.396 -102.816 Q 160.396 -104.286 160.844 -105.427 Q 161.292 -106.568 162.069 -107.345 Q 162.846 -108.122 163.826 -108.521 Q 164.806 -108.92 165.87 -108.92 Q 166.584 -108.92 166.983 -108.794 Q 167.382 -108.668 167.606 -108.535 Q 167.83 -108.402 167.998 -108.402 Q 168.166 -108.402 168.292 -108.542 Q 168.418 -108.682 168.586 -108.906 L 168.992 -108.906 L 168.334 -105.7 L 167.872 -105.7 Q 167.928 -107.1 167.354 -107.709 Q 166.78 -108.318 165.744 -108.318 Q 164.932 -108.318 164.218 -107.947 Q 163.504 -107.576 162.951 -106.897 Q 162.398 -106.218 162.083 -105.273 Q 161.768 -104.328 161.768 -103.166 Q 161.768 -101.766 162.433 -101.031 Q 163.098 -100.296 164.484 -100.296 Q 166.094 -100.296 167.494 -101.57 Z " fill="black" /><path d="M 173.973 -99.883 L 173.973 -99.883 L 173.973 -97.688 Q 173.973 -97.413 174.022 -97.252 Q 174.071 -97.09 174.238 -97.021 Q 174.404 -96.953 174.757 -96.953 L 174.757 -96.6 L 172.238 -96.6 L 172.238 -96.953 Q 172.611 -96.953 172.777 -97.021 Q 172.944 -97.09 172.983 -97.252 Q 173.022 -97.413 173.022 -97.688 L 173.022 -99.56 Q 173.022 -100.216 172.87 -100.525 Q 172.719 -100.834 172.488 -100.932 Q 172.258 -101.03 172.023 -101.03 Q 171.601 -101.03 171.283 -100.814 Q 170.964 -100.598 170.729 -100.402 L 170.729 -97.688 Q 170.729 -97.413 170.773 -97.252 Q 170.817 -97.09 170.984 -97.021 Q 171.151 -96.953 171.513 -96.953 L 171.513 -96.6 L 169.044 -96.6 L 169.044 -96.953 Q 169.387 -96.953 169.538 -97.021 Q 169.69 -97.09 169.73 -97.252 Q 169.769 -97.413 169.769 -97.688 L 169.769 -100.667 Q 169.769 -100.941 169.666 -101.035 Q 169.563 -101.128 169.338 -101.128 Q 169.22 -101.128 169.142 -101.118 Q 169.063 -101.108 169.063 -101.108 L 169.063 -101.48 L 170.376 -101.716 L 170.7 -101.716 L 170.7 -100.912 L 170.768 -100.912 Q 171.19 -101.294 171.577 -101.52 Q 171.964 -101.745 172.454 -101.745 Q 173.032 -101.745 173.361 -101.485 Q 173.689 -101.226 173.831 -100.804 Q 173.973 -100.383 173.973 -99.883 Z " fill="black" /><path d="M 179.941 -98.305 L 179.941 -98.305 L 179.608 -96.6 L 175.59 -96.6 L 175.59 -97.08 L 176.982 -98.491 Q 177.53 -99.04 177.888 -99.462 Q 178.246 -99.883 178.422 -100.309 Q 178.599 -100.736 178.599 -101.284 Q 178.599 -101.804 178.28 -102.142 Q 177.962 -102.48 177.383 -102.48 Q 176.854 -102.48 176.496 -102.269 Q 176.139 -102.059 175.864 -101.578 L 175.6 -101.706 Q 175.845 -102.392 176.359 -102.784 Q 176.874 -103.176 177.628 -103.176 Q 178.216 -103.176 178.667 -102.965 Q 179.118 -102.754 179.373 -102.362 Q 179.628 -101.97 179.628 -101.412 Q 179.628 -100.932 179.412 -100.51 Q 179.196 -100.089 178.799 -99.648 Q 178.403 -99.207 177.854 -98.668 L 176.629 -97.482 L 176.629 -97.413 L 177.393 -97.453 L 178.667 -97.453 Q 178.951 -97.453 179.103 -97.531 Q 179.255 -97.609 179.363 -97.801 Q 179.471 -97.992 179.598 -98.305 Z " fill="black" /></g></g></g></svg>