<svg xmlns="http://www.w3.org/2000/svg" xmlns:xlink="http://www.w3.org/1999/xlink" xml:lang="en" height="99.2pt" width="461.00000000000006pt" viewBox="-19.0 -62.2 461.00000000000006 99.2"><circle cx="18" cy="-0" r="18" style="stroke:black;fill:none;stroke-width:2.0;stroke-dasharray:-;" /><path d="M 7.2,-4.4087284769304716e-16 L 8.337,-1.169 L 9.474,-2.211 L 10.611,-3.014 L 11.747,-3.49 L 12.884,-3.588 L 14.021,-3.297 L 15.158,-2.649 L 16.295,-1.713 L 17.432,-0.593 L 18.568,0.593 L 19.705,1.713 L 20.842,2.649 L 21.979,3.297 L 23.116,3.588 L 24.253,3.49 L 25.389,3.014 L 26.526,2.211 L 27.663,1.169 L 28.8,0" style="stroke:black;fill:none;stroke-width:2.0;stroke-dasharray:-;stroke-linecap:round;stroke-linejoin:round;" /><path d="M 36.0,-0.0 L 54,-0 L 63,-0" style="stroke:black;fill:none;stroke-width:2.0;stroke-dasharray:-;stroke-linecap:round;stroke-linejoin:round;" /><path d="M 70 0 L 63 2.7 L 63 -2.7 Z" style="stroke:black;fill:black;stroke-linecap:butt;stroke-linejoin:miter;" /><path d="M 72.0,-0.0 L 72,18 L 99,-0 L 72,-18 L 72,-0" style="stroke:black;fill:none;stroke-width:2.0;stroke-dasharray:-;stroke-linecap:round;stroke-linejoin:round;" /><path d="M 99.0,-0.0 L 117,-0 L 135,-0" style="stroke:black;fill:none;stroke-width:2.0;stroke-dasharray:-;stroke-linecap:round;stroke-linejoin:round;" /><path d="M 135.0,-0.0 L 135,-21.6 L 121.32,-43.2 L 148.68,-43.2 L 135,-21.6" style="stroke:black;fill:none;stroke-width:2.0;stroke-dasharray:-;stroke-linecap:round;stroke-linejoin:round;" /><path d="M 279.0,-0.0 L 279,-21.6 L 265.32,-43.2 L 292.68,-43.2 L 279,-21.6" style="stroke:black;fill:none;stroke-width:2.0;stroke-dasharray:-;stroke-linecap:round;stroke-linejoin:round;" /><path d="M 279.0,-0.0 L 297,-0 L 306,-0" style="stroke:black;fill:none;stroke-width:2.0;stroke-dasharray:-;stroke-linecap:round;stroke-linejoin:round;" /><path d="M 313 0 L 306 2.7 L 306 -2.7 Z" style="stroke:black;fill:black;stroke-linecap:butt;stroke-linejoin:miter;" /><path d="M 315.0,-0.0 L 315,-18 L 351,-18 L 351,18 L 315,18 L 315,-0" style="stroke:black;fill:none;stroke-width:2.0;stroke-dasharray:-;stroke-linecap:round;stroke-linejoin:round;" /><path d="M 322.2,-4.4087284769304716e-16 L 323.337,-1.169 L 324.474,-2.211 L 325.611,-3.014 L 326.747,-3.49 L 327.884,-3.588 L 329.021,-3.297 L 330.158,-2.649 L 331.295,-1.713 L 332.432,-0.593 L 333.568,0.593 L 334.705,1.713 L 335.842,2.649 L 336.979,3.297 L 338.116,3.588 L 339.253,3.49 L 340.389,3.014 L 341.526,2.211 L 342.663,1.169 L 343.8,0" style="stroke:black;fill:none;stroke-width:2.0;stroke-dasharray:-;stroke-linecap:round;stroke-linejoin:round;" /><path d="M 322.2,-9.0 L 323.337,-10.169 L 324.474,-11.211 L 325.611,-12.014 L 326.747,-12.49 L 327.884,-12.588 L 329.021,-12.297 L 330.158,-11.649 L 331.295,-10.713 L 332.432,-9.593 L 333.568,-8.407 L 334.705,-7.287 L 335.842,-6.351 L 336.979,-5.703 L 338.116,-5.412 L 339.253,-5.51 L 340.389,-5.986 L 341.526,-6.789 L 342.663,-7.831 L 343.8,-9" style="stroke:black;fill:none;stroke-width:2.0;stroke-dasharray:-;stroke-linecap:round;stroke-linejoin:round;" /><path d="M 322.2,9.0 L 323.337,7.831 L 324.474,6.789 L 325.611,5.986 L 326.747,5.51 L 327.884,5.412 L 329.021,5.703 L 330.158,6.351 L 331.295,7.287 L 332.432,8.407 L 333.568,9.593 L 334.705,10.713 L 335.842,11.649 L 336.979,12.297 L 338.116,12.588 L 339.253,12.49 L 340.389,12.014 L 341.526,11.211 L 342.663,10.169 L 343.8,9" style="stroke:black;fill:none;stroke-width:2.0;stroke-dasharray:-;stroke-linecap:round;stroke-linejoin:round;" /><path d="M 331.2,-6.12 L 334.8,-11.88" style="stroke:black;fill:none;stroke-width:2.0;stroke-dasharray:-;stroke-linecap:round;stroke-linejoin:round;" /><path d="M 331.2,11.88 L 334.8,6.12" style="stroke:black;fill:none;stroke-width:2.0;stroke-dasharray:-;stroke-linecap:round;stroke-linejoin:round;" /><path d="M 351.0,-0.0 L 369,-0 L 378,-0" style="stroke:black;fill:none;stroke-width:2.0;stroke-dasharray:-;stroke-linecap:round;stroke-linejoin:round;" /><path d="M 385 0 L 378 2.7 L 378 -2.7 Z" style="stroke:black;fill:black;stroke-linecap:butt;stroke-linejoin:miter;" /><path d="M 387.0,-0.0 L 387,-18 L 423,-18 L 423,18 L 387,18 L 387,-0" style="stroke:black;fill:none;stroke-width:2.0;stroke-dasharray:-;stroke-linecap:round;stroke-linejoin:round;" /><path d="M 392.40000000000003,-0.0 L 397.8,-0" style="stroke:black;fill:none;stroke-width:2.0;stroke-dasharray:-;stroke-linecap:round;stroke-linejoin:round;" /><path d="M 397.8,-9.0 L 412.2,-0 L 397.8,9 L 397.8,-9" style="stroke:black;fill:none;stroke-width:2.0;stroke-dasharray:-;stroke-linecap:round;stroke-linejoin:round;" /><path d="M 412.2,-9.0 L 412.2,9" style="stroke:black;fill:none;stroke-width:2.0;stroke-dasharray:-;stroke-linecap:round;stroke-linejoin:round;" /><path d="M 412.2,-0.0 L 417.6,-0" style="stroke:black;fill:none;stroke-width:2.0;stroke-dasharray:-;stroke-linecap:round;stroke-linejoin:round;" /></svg>