<svg xmlns="http://www.w3.org/2000/svg" xmlns:xlink="http://www.w3.org/1999/xlink" xml:lang="en" height="214.65584412271573pt" width="471.23384628842416pt" viewBox="-39.3304 -107.32792206135787 471.23384628842416 214.65584412271573"><circle cx="117.0" cy="-0.0" r="18.0" style="stroke:black;fill:none;stroke-width:2.0;stroke-dasharray:-;" /><path d="M 0.0,-0.0 L 18.0,-0.0 L 36.0,-0.0" style="stroke:black;fill:none;stroke-width:2.0;stroke-dasharray:-;stroke-linecap:round;stroke-linejoin:round;" /><path d="M 36.0,-0.0 L 36.0,18.0 L 63.0,-0.0 L 36.0,-18.0 L 36.0,-0.0" style="stroke:black;fill:none;stroke-width:2.0;stroke-dasharray:-;stroke-linecap:round;stroke-linejoin:round;" /><path d="M 63.0,-0.0 L 81.0,-0.0 L 99.0,-0.0" style="stroke:black;fill:none;stroke-width:2.0;stroke-dasharray:-;stroke-linecap:round;stroke-linejoin:round;" /><path d="M 129.72792206135787,-12.727922061357857 L 104.27207793864214,12.727922061357857" style="stroke:black;fill:none;stroke-width:1;stroke-dasharray:-;stroke-linecap:round;stroke-linejoin:round;" /><path d="M 129.72792206135787,12.727922061357857 L 104.27207793864214,-12.727922061357857" style="stroke:black;fill:none;stroke-width:1;stroke-dasharray:-;stroke-linecap:round;stroke-linejoin:round;" /><path d="M 129.72792206135787,-12.727922061357857 L 147.72792206135787,-12.727922061357857 L 165.72792206135787,-12.727922061357857" style="stroke:black;fill:none;stroke-width:2.0;stroke-dasharray:-;stroke-linecap:round;stroke-linejoin:round;" /><path d="M 165.72792206135787,-12.727922061357857 L 165.72792206135787,-17.227922061357855 L 165.72792206135787,-21.727922061357855" style="stroke:black;fill:none;stroke-width:2.0;stroke-dasharray:-;stroke-linecap:round;stroke-linejoin:round;" /><path d="M 165.72792206135787,-21.727922061357855 L 165.72792206135787,-45.48792206135785 M 156.72792206135787,-45.48792206135785 L 174.72792206135787,-45.48792206135785 M 156.72792206135787,-51.967922061357854 L 174.72792206135787,-51.967922061357854 M 165.72792206135787,-51.967922061357854 L 165.72792206135787,-75.72792206135786" style="stroke:black;fill:none;stroke-width:2.0;stroke-dasharray:-;stroke-linecap:round;stroke-linejoin:round;" /><path d="M 165.72792206135787,-75.72792206135786 L 165.72792206135787,-90.12792206135786 L 156.72792206135787,-90.12792206135786 L 174.72792206135787,-90.12792206135786 M 159.42792206135786,-94.44792206135786 L 172.02792206135786,-94.44792206135786 M 163.92792206135786,-98.76792206135787 L 167.52792206135786,-98.76792206135787" style="stroke:black;fill:none;stroke-width:2.0;stroke-dasharray:-;stroke-linecap:round;stroke-linejoin:round;" /><path d="M 165.72792206135787,-21.727922061357855 L 192.72792206135787,-21.727922061357855 L 219.72792206135787,-21.727922061357855" style="stroke:black;fill:none;stroke-width:2.0;stroke-dasharray:-;stroke-linecap:round;stroke-linejoin:round;" /><path d="M 219.72792206135787,-21.727922061357855 L 237.72792206135787,-21.727922061357855 L 255.72792206135787,-21.727922061357855" style="stroke:black;fill:none;stroke-width:2.0;stroke-dasharray:-;stroke-linecap:round;stroke-linejoin:round;" /><path d="M 255.72792206135787,0.7720779386421457 L 255.72792206135787,-44.22792206135785 L 333.6702084019573,0.7720779386421457 L 255.72792206135787,45.77207793864215 L 255.72792206135787,0.7720779386421457 M 333.6702084019573,0.7720779386421457" style="stroke:black;fill:none;stroke-width:2.0;stroke-dasharray:-;stroke-linecap:round;stroke-linejoin:round;" /><path d="M 261.8707078539328,-21.727922061357855 L 269.0707078539328,-21.727922061357855" style="stroke:black;fill:none;stroke-width:2.0;stroke-dasharray:-;stroke-linecap:round;stroke-linejoin:round;" /><path d="M 261.8707078539328,23.272077938642145 L 269.0707078539328,23.272077938642145" style="stroke:black;fill:none;stroke-width:2.0;stroke-dasharray:-;stroke-linecap:round;stroke-linejoin:round;" /><path d="M 265.4707078539328,26.87207793864215 L 265.4707078539328,19.672077938642143" style="stroke:black;fill:none;stroke-width:2.0;stroke-dasharray:-;stroke-linecap:round;stroke-linejoin:round;" /><path d="M 117.0,27.0 L 117.0,36.0 L 117.0,54.0" style="stroke:black;fill:none;stroke-width:2.0;stroke-dasharray:-;stroke-linecap:round;stroke-linejoin:round;" /><path d="M 117.0 20.0 L 119.7 27.0 L 114.3 27.0 Z" style="stroke:black;fill:black;stroke-linecap:butt;stroke-linejoin:miter;" /><path d="M 129.72792206135787,12.727922061357857 L 147.72792206135787,12.727922061357857 L 165.72792206135787,12.727922061357857" style="stroke:black;fill:none;stroke-width:2.0;stroke-dasharray:-;stroke-linecap:round;stroke-linejoin:round;" /><path d="M 165.72792206135787,12.727922061357857 L 165.72792206135787,17.227922061357855 L 165.72792206135787,21.727922061357855" style="stroke:black;fill:none;stroke-width:2.0;stroke-dasharray:-;stroke-linecap:round;stroke-linejoin:round;" /><path d="M 165.72792206135787,21.727922061357855 L 165.72792206135787,45.48792206135785 M 174.72792206135787,45.48792206135785 L 156.72792206135787,45.48792206135785 M 174.72792206135787,51.967922061357854 L 156.72792206135787,51.967922061357854 M 165.72792206135787,51.967922061357854 L 165.72792206135787,75.72792206135786" style="stroke:black;fill:none;stroke-width:2.0;stroke-dasharray:-;stroke-linecap:round;stroke-linejoin:round;" /><path d="M 165.72792206135787,75.72792206135786 L 165.72792206135787,90.12792206135786 L 156.72792206135787,90.12792206135786 L 174.72792206135787,90.12792206135786 M 159.42792206135786,94.44792206135786 L 172.02792206135786,94.44792206135786 M 163.92792206135786,98.76792206135787 L 167.52792206135786,98.76792206135787" style="stroke:black;fill:none;stroke-width:2.0;stroke-dasharray:-;stroke-linecap:round;stroke-linejoin:round;" /><path d="M 165.72792206135787,21.727922061357855 L 192.72792206135787,21.727922061357855 L 219.72792206135787,21.727922061357855" style="stroke:black;fill:none;stroke-width:2.0;stroke-dasharray:-;stroke-linecap:round;stroke-linejoin:round;" /><path d="M 219.72792206135787,21.727922061357855 L 237.72792206135787,21.727922061357855 L 255.72792206135787,21.727922061357855" style="stroke:black;fill:none;stroke-width:2.0;stroke-dasharray:-;stroke-linecap:round;stroke-linejoin:round;" /><path d="M 307.68944628842416,-14.347922061357854 L 325.68944628842416,-14.347922061357854 L 343.68944628842416,-14.347922061357854" style="stroke:black;fill:none;stroke-width:2.0;stroke-dasharray:-;stroke-linecap:round;stroke-linejoin:round;" /><path d="M 343.68944628842416,-14.347922061357854 L 361.68944628842416,-14.347922061357854 L 379.68944628842416,-14.347922061357854" style="stroke:black;fill:none;stroke-width:2.0;stroke-dasharray:-;stroke-linecap:round;stroke-linejoin:round;" /><path d="M 307.68944628842416,15.892077938642142 L 325.68944628842416,15.892077938642142 L 343.68944628842416,15.892077938642142" style="stroke:black;fill:none;stroke-width:2.0;stroke-dasharray:-;stroke-linecap:round;stroke-linejoin:round;" /><path d="M 343.68944628842416,15.892077938642142 L 361.68944628842416,15.892077938642142 L 379.68944628842416,15.892077938642142" style="stroke:black;fill:none;stroke-width:2.0;stroke-dasharray:-;stroke-linecap:round;stroke-linejoin:round;" /><path d="M 219.72792206135787,-21.727922061357855 L 219.72792206135787,-39.72792206135785 L 219.72792206135787,-57.72792206135785" style="stroke:black;fill:none;stroke-width:2.0;stroke-dasharray:-;stroke-linecap:round;stroke-linejoin:round;" /><path d="M 219.72792206135787,-57.72792206135785 L 263.70868417489106,-57.72792206135785 L 266.708684174891,-66.72792206135786 L 272.70868417489106,-48.72792206135785 L 278.708684174891,-66.72792206135786 L 284.708684174891,-48.72792206135785 L 290.70868417489106,-66.72792206135786 L 296.708684174891,-48.72792206135785 L 299.70868417489106,-57.72792206135785 L 343.68944628842416,-57.72792206135785" style="stroke:black;fill:none;stroke-width:2.0;stroke-dasharray:-;stroke-linecap:round;stroke-linejoin:round;" /><path d="M 343.68944628842416,-57.72792206135785 L 343.68944628842416,-36.037922061357854 L 343.68944628842416,-14.347922061357853" style="stroke:black;fill:none;stroke-width:2.0;stroke-dasharray:-;stroke-linecap:round;stroke-linejoin:round;" /><path d="M 219.72792206135787,-57.72792206135785 L 219.72792206135787,-75.72792206135786 L 219.72792206135787,-93.72792206135786" style="stroke:black;fill:none;stroke-width:2.0;stroke-dasharray:-;stroke-linecap:round;stroke-linejoin:round;" /><path d="M 219.72792206135787,-93.72792206135786 L 278.468684174891,-93.72792206135786 M 278.468684174891,-102.72792206135786 L 278.468684174891,-84.72792206135786 M 284.948684174891,-102.72792206135786 L 284.948684174891,-84.72792206135786 M 284.948684174891,-93.72792206135786 L 343.68944628842416,-93.72792206135786" style="stroke:black;fill:none;stroke-width:2.0;stroke-dasharray:-;stroke-linecap:round;stroke-linejoin:round;" /><path d="M 343.68944628842416,-93.72792206135786 L 343.68944628842416,-75.72792206135786 L 343.68944628842416,-57.72792206135785" style="stroke:black;fill:none;stroke-width:2.0;stroke-dasharray:-;stroke-linecap:round;stroke-linejoin:round;" /><path d="M 219.72792206135787,21.727922061357855 L 219.72792206135787,39.72792206135785 L 219.72792206135787,57.72792206135785" style="stroke:black;fill:none;stroke-width:2.0;stroke-dasharray:-;stroke-linecap:round;stroke-linejoin:round;" /><path d="M 219.72792206135787,57.72792206135785 L 263.70868417489106,57.72792206135785 L 266.708684174891,48.72792206135785 L 272.70868417489106,66.72792206135786 L 278.708684174891,48.72792206135785 L 284.708684174891,66.72792206135786 L 290.70868417489106,48.72792206135785 L 296.708684174891,66.72792206135786 L 299.70868417489106,57.72792206135785 L 343.68944628842416,57.72792206135785" style="stroke:black;fill:none;stroke-width:2.0;stroke-dasharray:-;stroke-linecap:round;stroke-linejoin:round;" /><path d="M 343.68944628842416,57.72792206135785 L 343.68944628842416,36.81 L 343.68944628842416,15.892077938642142" style="stroke:black;fill:none;stroke-width:2.0;stroke-dasharray:-;stroke-linecap:round;stroke-linejoin:round;" /><path d="M 219.72792206135787,57.72792206135785 L 219.72792206135787,75.72792206135786 L 219.72792206135787,93.72792206135786" style="stroke:black;fill:none;stroke-width:2.0;stroke-dasharray:-;stroke-linecap:round;stroke-linejoin:round;" /><path d="M 219.72792206135787,93.72792206135786 L 278.468684174891,93.72792206135786 M 278.468684174891,84.72792206135786 L 278.468684174891,102.72792206135786 M 284.948684174891,84.72792206135786 L 284.948684174891,102.72792206135786 M 284.948684174891,93.72792206135786 L 343.68944628842416,93.72792206135786" style="stroke:black;fill:none;stroke-width:2.0;stroke-dasharray:-;stroke-linecap:round;stroke-linejoin:round;" /><path d="M 343.68944628842416,93.72792206135786 L 343.68944628842416,75.72792206135786 L 343.68944628842416,57.72792206135785" style="stroke:black;fill:none;stroke-width:2.0;stroke-dasharray:-;stroke-linecap:round;stroke-linejoin:round;" /><g><g><g><path d="M -32.817 -3.024 L -32.817 -3.024 L -33.139 -0.84 L -33.475 -0.84 Q -33.503 -1.652 -33.846 -2.128 Q -34.189 -2.604 -34.805 -2.604 Q -35.351 -2.604 -35.589 -2.31 Q -35.827 -2.016 -35.827 -1.708 Q -35.827 -1.414 -35.624 -1.141 Q -35.421 -0.868 -35.113 -0.581 Q -34.805 -0.294 -34.497 0.042 Q -34.049 0.518 -33.72 0.973 Q -33.391 1.428 -33.391 2.1 Q -33.391 2.506 -33.594 2.905 Q -33.797 3.304 -34.259 3.57 Q -34.721 3.836 -35.519 3.836 Q -36.177 3.836 -36.576 3.675 Q -36.975 3.514 -37.129 3.458 L -37.171 3.458 L -37.507 3.836 L -37.815 3.836 L -37.451 1.498 L -37.101 1.498 Q -36.989 2.408 -36.674 2.884 Q -36.359 3.36 -35.645 3.36 Q -35.155 3.36 -34.854 3.122 Q -34.553 2.884 -34.553 2.338 Q -34.553 1.764 -34.868 1.365 Q -35.183 0.966 -35.589 0.588 Q -35.869 0.308 -36.156 0.042 Q -36.443 -0.224 -36.632 -0.553 Q -36.821 -0.882 -36.821 -1.316 Q -36.821 -2.03 -36.345 -2.527 Q -35.869 -3.024 -34.917 -3.024 Q -34.357 -3.024 -33.986 -2.87 Q -33.615 -2.716 -33.489 -2.646 L -33.447 -2.646 L -33.083 -3.024 Z " fill="black" /><path d="M -26.58 1.546 L -26.58 1.546 Q -26.58 2.124 -26.844 2.486 Q -27.109 2.849 -27.515 3.045 Q -27.922 3.241 -28.353 3.339 L -28.353 3.417 Q -28.206 3.545 -28.006 3.78 Q -27.805 4.015 -27.462 4.471 Q -27.119 4.927 -26.55 5.711 Q -26.295 6.054 -26.075 6.152 Q -25.854 6.25 -25.462 6.25 L -25.462 6.622 L -27.236 6.622 Q -27.677 5.985 -27.976 5.549 Q -28.275 5.113 -28.476 4.814 Q -28.677 4.515 -28.829 4.29 Q -28.981 4.064 -29.137 3.829 Q -29.294 3.633 -29.392 3.574 Q -29.49 3.515 -29.686 3.515 L -30.098 3.515 L -30.098 5.26 Q -30.098 5.691 -30.019 5.902 Q -29.941 6.112 -29.711 6.181 Q -29.48 6.25 -29.03 6.25 L -29.03 6.622 L -32.107 6.622 L -32.107 6.25 Q -31.715 6.25 -31.504 6.186 Q -31.293 6.122 -31.215 5.907 Q -31.137 5.691 -31.137 5.26 L -31.137 0.928 Q -31.137 0.615 -31.2 0.438 Q -31.264 0.262 -31.47 0.183 Q -31.676 0.105 -32.107 0.105 L -32.107 -0.267 L -29.382 -0.267 Q -28.618 -0.267 -27.981 -0.115 Q -27.344 0.036 -26.962 0.428 Q -26.58 0.82 -26.58 1.546 Z M -30.098 0.223 L -30.098 0.223 L -30.098 3.055 L -29.725 3.055 Q -28.814 3.055 -28.26 2.687 Q -27.707 2.32 -27.707 1.506 Q -27.707 0.203 -29.314 0.203 Q -29.51 0.203 -29.706 0.208 Q -29.902 0.213 -30.098 0.223 Z " fill="black" /><path d="M -18.22 6.622 L -18.22 6.622 L -21.229 6.622 L -21.229 6.259 L -21.092 6.259 Q -20.572 6.259 -20.572 5.995 Q -20.572 5.828 -20.665 5.642 Q -20.758 5.456 -20.984 5.132 L -21.631 4.133 L -21.915 3.643 L -21.954 3.643 L -23.159 5.289 Q -23.257 5.446 -23.399 5.647 Q -23.542 5.848 -23.542 5.985 Q -23.542 6.093 -23.429 6.176 Q -23.316 6.259 -22.885 6.259 L -22.885 6.622 L -25.266 6.622 L -25.266 6.259 Q -24.982 6.25 -24.791 6.181 Q -24.6 6.112 -24.409 5.916 Q -24.218 5.72 -23.934 5.338 L -22.277 3.182 L -23.728 1.095 Q -24.022 0.664 -24.208 0.453 Q -24.394 0.242 -24.59 0.174 Q -24.786 0.105 -25.129 0.105 L -25.129 -0.267 L -22.189 -0.267 L -22.189 0.105 L -22.297 0.105 Q -22.571 0.105 -22.669 0.179 Q -22.767 0.252 -22.767 0.409 Q -22.767 0.497 -22.713 0.61 Q -22.66 0.722 -22.571 0.86 L -22.003 1.732 L -21.591 2.447 L -21.542 2.447 L -20.513 0.967 Q -20.386 0.752 -20.308 0.605 Q -20.229 0.458 -20.229 0.35 Q -20.229 0.223 -20.357 0.164 Q -20.484 0.105 -20.856 0.105 L -20.856 -0.267 L -18.348 -0.267 L -18.348 0.105 Q -18.691 0.105 -18.911 0.174 Q -19.132 0.242 -19.332 0.428 Q -19.533 0.615 -19.818 0.997 L -21.268 2.878 L -19.318 5.642 Q -19.132 5.897 -18.985 6.029 Q -18.838 6.161 -18.661 6.205 Q -18.485 6.25 -18.22 6.259 Z " fill="black" /><path d="M -17.404 -0.098 L -17.404 -0.098 Q -17.404 -2.436 -16.389 -4.088 Q -15.374 -5.74 -13.68 -6.622 L -13.456 -6.258 Q -14.982 -5.222 -15.619 -3.731 Q -16.256 -2.24 -16.256 -0.098 Q -16.256 2.044 -15.619 3.535 Q -14.982 5.026 -13.456 6.062 L -13.68 6.426 Q -15.374 5.544 -16.389 3.892 Q -17.404 2.24 -17.404 -0.098 Z " fill="black" /><path d="M -8.598 -2.856 L -8.598 -2.856 L -8.71 -2.31 L -10.124 -2.31 L -10.95 1.862 Q -10.95 1.862 -10.999 2.121 Q -11.048 2.38 -11.048 2.562 Q -11.048 2.674 -10.999 2.765 Q -10.95 2.856 -10.81 2.856 Q -10.502 2.856 -10.243 2.674 Q -9.984 2.492 -9.62 2.016 L -9.34 2.226 Q -9.536 2.492 -9.816 2.87 Q -10.096 3.248 -10.488 3.528 Q -10.88 3.808 -11.44 3.808 Q -11.874 3.808 -12.084 3.598 Q -12.294 3.388 -12.294 3.066 Q -12.294 2.884 -12.252 2.625 Q -12.21 2.366 -12.196 2.268 L -11.244 -2.31 L -12.042 -2.31 L -11.986 -2.604 Q -11.538 -2.842 -11.237 -3.066 Q -10.936 -3.29 -10.663 -3.654 Q -10.39 -4.018 -10.04 -4.62 L -9.62 -4.62 L -10.012 -2.856 Z " fill="black" /><path d="M -3.936 -0.098 L -3.936 -0.098 Q -3.936 2.24 -4.951 3.892 Q -5.966 5.544 -7.66 6.426 L -7.884 6.062 Q -6.344 5.026 -5.714 3.535 Q -5.084 2.044 -5.084 -0.098 Q -5.084 -2.24 -5.714 -3.731 Q -6.344 -5.222 -7.884 -6.258 L -7.66 -6.622 Q -5.966 -5.74 -4.951 -4.088 Q -3.936 -2.436 -3.936 -0.098 Z " fill="black" /></g></g></g><circle cx="165.72792206135787" cy="-21.727922061357855" r="2.6999999999999997" style="stroke:black;fill:black;stroke-width:2.0;stroke-dasharray:-;" /><circle cx="219.72792206135787" cy="-21.727922061357855" r="2.6999999999999997" style="stroke:black;fill:black;stroke-width:2.0;stroke-dasharray:-;" /><g><g><g><path d="M 105.047 61.198 L 105.047 61.198 L 104.725 63.382 L 104.389 63.382 Q 104.361 62.57 104.019 62.094 Q 103.675 61.618 103.059 61.618 Q 102.513 61.618 102.275 61.912 Q 102.037 62.206 102.037 62.514 Q 102.037 62.808 102.24 63.081 Q 102.444 63.354 102.751 63.641 Q 103.059 63.928 103.367 64.264 Q 103.816 64.74 104.144 65.195 Q 104.474 65.65 104.474 66.322 Q 104.474 66.728 104.27 67.127 Q 104.067 67.526 103.605 67.792 Q 103.144 68.058 102.346 68.058 Q 101.688 68.058 101.288 67.897 Q 100.889 67.736 100.736 67.68 L 100.694 67.68 L 100.358 68.058 L 100.049 68.058 L 100.413 65.72 L 100.763 65.72 Q 100.876 66.63 101.191 67.106 Q 101.505 67.582 102.219 67.582 Q 102.709 67.582 103.01 67.344 Q 103.311 67.106 103.311 66.56 Q 103.311 65.986 102.996 65.587 Q 102.681 65.188 102.275 64.81 Q 101.995 64.53 101.709 64.264 Q 101.421 63.998 101.233 63.669 Q 101.043 63.34 101.043 62.906 Q 101.043 62.192 101.519 61.695 Q 101.995 61.198 102.948 61.198 Q 103.507 61.198 103.879 61.352 Q 104.249 61.506 104.376 61.576 L 104.418 61.576 L 104.781 61.198 Z " fill="black" /><path d="M 111.392 68.757 L 111.392 68.757 L 111.137 70.844 L 105.747 70.844 L 105.747 70.472 Q 106.188 70.472 106.394 70.398 Q 106.6 70.325 106.664 70.114 Q 106.727 69.903 106.727 69.492 L 106.727 65.405 Q 106.727 64.974 106.664 64.743 Q 106.6 64.513 106.394 64.42 Q 106.188 64.327 105.747 64.327 L 105.747 63.955 L 108.805 63.955 L 108.805 64.327 Q 108.374 64.327 108.148 64.415 Q 107.923 64.503 107.84 64.739 Q 107.756 64.974 107.756 65.415 L 107.756 69.766 Q 107.756 70.148 107.913 70.251 Q 108.07 70.354 108.462 70.354 L 109.089 70.354 Q 109.609 70.354 109.922 70.285 Q 110.236 70.217 110.417 70.045 Q 110.598 69.874 110.716 69.56 Q 110.834 69.247 110.981 68.757 Z " fill="black" /><path d="M 119.173 67.434 L 119.173 67.434 Q 119.173 68.531 118.752 69.325 Q 118.331 70.119 117.556 70.55 Q 116.782 70.981 115.714 70.981 Q 114.656 70.981 113.882 70.55 Q 113.107 70.119 112.686 69.315 Q 112.264 68.512 112.264 67.394 Q 112.264 66.326 112.686 65.527 Q 113.107 64.729 113.886 64.283 Q 114.665 63.837 115.714 63.837 Q 116.782 63.837 117.556 64.302 Q 118.331 64.768 118.752 65.576 Q 119.173 66.385 119.173 67.434 Z M 117.929 67.296 L 117.929 67.296 Q 117.929 65.866 117.326 65.101 Q 116.724 64.337 115.704 64.337 Q 114.695 64.337 114.102 65.111 Q 113.509 65.885 113.509 67.326 Q 113.509 68.825 114.048 69.639 Q 114.587 70.452 115.724 70.452 Q 116.861 70.452 117.395 69.663 Q 117.929 68.874 117.929 67.296 Z " fill="black" /><path d="M 120.44 64.124 L 120.44 64.124 Q 120.44 61.786 121.455 60.134 Q 122.47 58.482 124.164 57.6 L 124.388 57.964 Q 122.862 59 122.225 60.491 Q 121.588 61.982 121.588 64.124 Q 121.588 66.266 122.225 67.757 Q 122.862 69.248 124.388 70.284 L 124.164 70.648 Q 122.47 69.766 121.455 68.114 Q 120.44 66.462 120.44 64.124 Z " fill="black" /><path d="M 129.246 61.366 L 129.246 61.366 L 129.135 61.912 L 127.721 61.912 L 126.894 66.084 Q 126.894 66.084 126.846 66.343 Q 126.796 66.602 126.796 66.784 Q 126.796 66.896 126.846 66.987 Q 126.894 67.078 127.034 67.078 Q 127.343 67.078 127.602 66.896 Q 127.861 66.714 128.225 66.238 L 128.505 66.448 Q 128.309 66.714 128.029 67.092 Q 127.748 67.47 127.356 67.75 Q 126.965 68.03 126.404 68.03 Q 125.971 68.03 125.76 67.82 Q 125.55 67.61 125.55 67.288 Q 125.55 67.106 125.593 66.847 Q 125.634 66.588 125.648 66.49 L 126.6 61.912 L 125.802 61.912 L 125.858 61.618 Q 126.306 61.38 126.608 61.156 Q 126.908 60.932 127.181 60.568 Q 127.454 60.204 127.804 59.602 L 128.225 59.602 L 127.832 61.366 Z " fill="black" /><path d="M 133.909 64.124 L 133.909 64.124 Q 133.909 66.462 132.894 68.114 Q 131.879 69.766 130.185 70.648 L 129.96 70.284 Q 131.501 69.248 132.131 67.757 Q 132.761 66.266 132.761 64.124 Q 132.761 61.982 132.131 60.491 Q 131.501 59 129.96 57.964 L 130.185 57.6 Q 131.879 58.482 132.894 60.134 Q 133.909 61.786 133.909 64.124 Z " fill="black" /></g></g></g><circle cx="165.72792206135787" cy="21.727922061357855" r="2.6999999999999997" style="stroke:black;fill:black;stroke-width:2.0;stroke-dasharray:-;" /><circle cx="219.72792206135787" cy="21.727922061357855" r="2.6999999999999997" style="stroke:black;fill:black;stroke-width:2.0;stroke-dasharray:-;" /><circle cx="343.68944628842416" cy="-14.347922061357854" r="2.6999999999999997" style="stroke:black;fill:black;stroke-width:2.0;stroke-dasharray:-;" /><circle cx="379.68944628842416" cy="-14.347922061357854" r="2.6999999999999997" style="stroke:black;fill:white;stroke-width:2.0;stroke-dasharray:-;" /><g><g><g><path d="M 388.789 -18.462 L 388.789 -18.462 L 389.097 -18.462 L 388.439 -15.774 Q 388.341 -15.41 388.236 -14.899 Q 388.131 -14.388 388.131 -13.912 Q 388.131 -13.366 388.355 -12.967 Q 388.579 -12.568 389.223 -12.568 Q 389.937 -12.568 390.455 -12.911 Q 390.973 -13.254 391.302 -13.786 Q 391.631 -14.318 391.792 -14.906 Q 391.953 -15.494 391.953 -15.984 Q 391.953 -16.348 391.827 -16.614 Q 391.701 -16.88 391.526 -17.09 Q 391.351 -17.3 391.225 -17.496 Q 391.099 -17.692 391.099 -17.916 Q 391.099 -18.196 391.253 -18.35 Q 391.407 -18.504 391.631 -18.504 Q 392.107 -18.504 392.401 -18.028 Q 392.695 -17.552 392.695 -16.81 Q 392.695 -16.166 392.534 -15.459 Q 392.373 -14.752 392.051 -14.08 Q 391.729 -13.408 391.253 -12.862 Q 390.777 -12.316 390.161 -11.994 Q 389.545 -11.672 388.789 -11.672 Q 388.089 -11.672 387.697 -11.952 Q 387.305 -12.232 387.144 -12.694 Q 386.983 -13.156 386.983 -13.688 Q 386.983 -14.192 387.081 -14.724 Q 387.179 -15.256 387.291 -15.69 L 387.571 -16.754 Q 387.599 -16.866 387.655 -17.09 Q 387.711 -17.314 387.711 -17.524 Q 387.711 -17.706 387.641 -17.832 Q 387.571 -17.958 387.375 -17.958 Q 387.207 -17.958 386.969 -17.937 Q 386.731 -17.916 386.731 -17.916 L 386.731 -18.308 Z " fill="black" /><path d="M 395.724 -14.003 L 395.724 -14.003 Q 396.459 -14.003 397.007 -13.684 Q 397.556 -13.366 397.855 -12.793 Q 398.154 -12.219 398.154 -11.445 Q 398.154 -10.514 397.84 -9.916 Q 397.527 -9.318 396.978 -9.029 Q 396.429 -8.74 395.724 -8.74 Q 395.008 -8.74 394.455 -9.039 Q 393.901 -9.338 393.592 -9.936 Q 393.283 -10.534 393.283 -11.435 Q 393.283 -12.2 393.587 -12.778 Q 393.891 -13.356 394.44 -13.679 Q 394.989 -14.003 395.724 -14.003 Z M 395.704 -13.552 L 395.704 -13.552 Q 395.057 -13.552 394.69 -13.028 Q 394.322 -12.503 394.322 -11.494 Q 394.322 -10.249 394.7 -9.735 Q 395.077 -9.22 395.753 -9.22 Q 396.184 -9.23 396.488 -9.436 Q 396.792 -9.642 396.954 -10.127 Q 397.115 -10.612 397.115 -11.445 Q 397.115 -12.445 396.772 -12.998 Q 396.429 -13.552 395.704 -13.552 Z " fill="black" /><path d="M 404.818 -9.358 L 404.818 -9.358 L 404.818 -8.985 L 403.495 -8.809 L 403.181 -8.809 L 403.181 -9.573 L 403.083 -9.573 Q 402.711 -9.24 402.329 -9 Q 401.947 -8.76 401.408 -8.76 Q 400.682 -8.76 400.3 -9.201 Q 399.918 -9.642 399.918 -10.73 L 399.918 -12.837 Q 399.918 -13.238 399.776 -13.332 Q 399.634 -13.425 399.183 -13.425 L 399.183 -13.777 L 400.545 -13.964 L 400.869 -13.964 L 400.869 -10.857 Q 400.869 -10.308 400.996 -10.004 Q 401.123 -9.701 401.339 -9.583 Q 401.555 -9.465 401.809 -9.465 Q 402.241 -9.465 402.53 -9.647 Q 402.819 -9.828 403.132 -10.083 L 403.132 -12.837 Q 403.132 -13.238 402.956 -13.332 Q 402.78 -13.425 402.28 -13.425 L 402.28 -13.777 L 403.74 -13.964 L 404.083 -13.964 L 404.083 -9.995 Q 404.083 -9.701 404.137 -9.563 Q 404.191 -9.426 404.328 -9.392 Q 404.465 -9.358 404.71 -9.358 Z " fill="black" /><path d="M 408.64 -9.838 L 408.64 -9.838 L 408.865 -9.652 Q 408.65 -9.358 408.473 -9.157 Q 408.297 -8.956 408.072 -8.848 Q 407.846 -8.74 407.493 -8.74 Q 406.925 -8.74 406.665 -9.064 Q 406.406 -9.387 406.406 -10.102 L 406.406 -13.395 L 405.788 -13.395 L 405.788 -13.689 Q 406.141 -13.944 406.435 -14.312 Q 406.729 -14.679 407.023 -15.365 L 407.366 -15.365 L 407.356 -13.875 L 408.601 -13.875 L 408.601 -13.395 L 407.356 -13.395 L 407.356 -10.426 Q 407.356 -9.877 407.459 -9.647 Q 407.562 -9.416 407.876 -9.416 Q 408.16 -9.416 408.307 -9.519 Q 408.454 -9.622 408.64 -9.838 Z " fill="black" /><path d="M 409.953 -7.388 L 409.953 -7.388 L 409.787 -7.711 Q 409.992 -7.799 410.208 -7.942 Q 410.424 -8.084 410.566 -8.343 Q 410.708 -8.603 410.708 -9.024 Q 410.541 -8.956 410.365 -8.956 Q 410.041 -8.956 409.904 -9.147 Q 409.767 -9.338 409.767 -9.583 Q 409.767 -9.848 409.943 -10.044 Q 410.12 -10.24 410.453 -10.24 Q 410.874 -10.24 411.095 -9.98 Q 411.315 -9.72 411.315 -9.26 Q 411.315 -8.789 411.168 -8.461 Q 411.021 -8.133 410.801 -7.922 Q 410.58 -7.711 410.35 -7.589 Q 410.12 -7.466 409.953 -7.388 Z " fill="black" /><path d="M 413.373 -13.973 L 413.373 -13.973 L 413.373 -13.131 L 413.422 -13.131 Q 413.805 -13.572 414.187 -13.787 Q 414.569 -14.003 415.03 -14.003 Q 415.549 -14.003 415.97 -13.694 Q 416.392 -13.385 416.642 -12.842 Q 416.892 -12.298 416.892 -11.592 Q 416.892 -10.671 416.563 -10.034 Q 416.235 -9.397 415.691 -9.069 Q 415.147 -8.74 414.51 -8.74 Q 414.206 -8.74 413.937 -8.819 Q 413.667 -8.897 413.442 -9.024 L 413.393 -9.024 L 413.393 -7.77 Q 413.393 -7.427 413.481 -7.246 Q 413.569 -7.064 413.795 -7.001 Q 414.02 -6.937 414.442 -6.937 L 414.442 -6.594 L 411.668 -6.594 L 411.668 -6.927 Q 412.011 -6.937 412.173 -7.001 Q 412.335 -7.064 412.389 -7.231 Q 412.442 -7.398 412.442 -7.701 L 412.442 -12.856 Q 412.442 -13.14 412.384 -13.263 Q 412.325 -13.385 412.041 -13.385 Q 411.952 -13.385 411.815 -13.376 Q 411.678 -13.366 411.678 -13.366 L 411.678 -13.758 L 413.001 -13.973 Z M 413.393 -12.631 L 413.393 -12.631 L 413.393 -9.867 Q 413.501 -9.759 413.663 -9.598 Q 413.824 -9.436 414.05 -9.314 Q 414.275 -9.191 414.54 -9.191 Q 414.902 -9.191 415.201 -9.412 Q 415.5 -9.632 415.686 -10.102 Q 415.872 -10.573 415.872 -11.298 Q 415.872 -12.219 415.539 -12.729 Q 415.206 -13.238 414.598 -13.238 Q 414.206 -13.238 413.883 -13.033 Q 413.56 -12.827 413.393 -12.631 Z " fill="black" /><path d="M 418.11 -15.578 L 418.11 -15.578 Q 418.11 -17.916 419.125 -19.568 Q 420.14 -21.22 421.834 -22.102 L 422.058 -21.738 Q 420.532 -20.702 419.895 -19.211 Q 419.258 -17.72 419.258 -15.578 Q 419.258 -13.436 419.895 -11.945 Q 420.532 -10.454 422.058 -9.418 L 421.834 -9.054 Q 420.14 -9.936 419.125 -11.588 Q 418.11 -13.24 418.11 -15.578 Z " fill="black" /><path d="M 426.916 -18.336 L 426.916 -18.336 L 426.804 -17.79 L 425.39 -17.79 L 424.564 -13.618 Q 424.564 -13.618 424.515 -13.359 Q 424.466 -13.1 424.466 -12.918 Q 424.466 -12.806 424.515 -12.715 Q 424.564 -12.624 424.704 -12.624 Q 425.012 -12.624 425.271 -12.806 Q 425.53 -12.988 425.894 -13.464 L 426.174 -13.254 Q 425.978 -12.988 425.698 -12.61 Q 425.418 -12.232 425.026 -11.952 Q 424.634 -11.672 424.074 -11.672 Q 423.64 -11.672 423.43 -11.882 Q 423.22 -12.092 423.22 -12.414 Q 423.22 -12.596 423.262 -12.855 Q 423.304 -13.114 423.318 -13.212 L 424.27 -17.79 L 423.472 -17.79 L 423.528 -18.084 Q 423.976 -18.322 424.277 -18.546 Q 424.578 -18.77 424.851 -19.134 Q 425.124 -19.498 425.474 -20.1 L 425.894 -20.1 L 425.502 -18.336 Z " fill="black" /><path d="M 431.578 -15.578 L 431.578 -15.578 Q 431.578 -13.24 430.563 -11.588 Q 429.548 -9.936 427.854 -9.054 L 427.63 -9.418 Q 429.17 -10.454 429.8 -11.945 Q 430.43 -13.436 430.43 -15.578 Q 430.43 -17.72 429.8 -19.211 Q 429.17 -20.702 427.63 -21.738 L 427.854 -22.102 Q 429.548 -21.22 430.563 -19.568 Q 431.578 -17.916 431.578 -15.578 Z " fill="black" /></g></g></g><circle cx="343.68944628842416" cy="15.892077938642142" r="2.6999999999999997" style="stroke:black;fill:black;stroke-width:2.0;stroke-dasharray:-;" /><circle cx="379.68944628842416" cy="15.892077938642142" r="2.6999999999999997" style="stroke:black;fill:white;stroke-width:2.0;stroke-dasharray:-;" /><g><g><g><path d="M 388.789 12.175 L 388.789 12.175 L 389.097 12.175 L 388.439 14.863 Q 388.341 15.227 388.236 15.738 Q 388.131 16.249 388.131 16.725 Q 388.131 17.271 388.355 17.67 Q 388.579 18.069 389.223 18.069 Q 389.937 18.069 390.455 17.726 Q 390.973 17.383 391.302 16.851 Q 391.631 16.319 391.792 15.731 Q 391.953 15.143 391.953 14.653 Q 391.953 14.289 391.827 14.023 Q 391.701 13.757 391.526 13.547 Q 391.351 13.337 391.225 13.141 Q 391.099 12.945 391.099 12.721 Q 391.099 12.441 391.253 12.287 Q 391.407 12.133 391.631 12.133 Q 392.107 12.133 392.401 12.609 Q 392.695 13.085 392.695 13.827 Q 392.695 14.471 392.534 15.178 Q 392.373 15.885 392.051 16.557 Q 391.729 17.229 391.253 17.775 Q 390.777 18.321 390.161 18.643 Q 389.545 18.965 388.789 18.965 Q 388.089 18.965 387.697 18.685 Q 387.305 18.405 387.144 17.943 Q 386.983 17.481 386.983 16.949 Q 386.983 16.445 387.081 15.913 Q 387.179 15.381 387.291 14.947 L 387.571 13.883 Q 387.599 13.771 387.655 13.547 Q 387.711 13.323 387.711 13.113 Q 387.711 12.931 387.641 12.805 Q 387.571 12.679 387.375 12.679 Q 387.207 12.679 386.969 12.7 Q 386.731 12.721 386.731 12.721 L 386.731 12.329 Z " fill="black" /><path d="M 395.724 16.634 L 395.724 16.634 Q 396.459 16.634 397.007 16.953 Q 397.556 17.271 397.855 17.844 Q 398.154 18.418 398.154 19.192 Q 398.154 20.123 397.84 20.721 Q 397.527 21.318 396.978 21.608 Q 396.429 21.897 395.724 21.897 Q 395.008 21.897 394.455 21.598 Q 393.901 21.299 393.592 20.701 Q 393.283 20.103 393.283 19.202 Q 393.283 18.437 393.587 17.859 Q 393.891 17.281 394.44 16.957 Q 394.989 16.634 395.724 16.634 Z M 395.704 17.085 L 395.704 17.085 Q 395.057 17.085 394.69 17.609 Q 394.322 18.133 394.322 19.143 Q 394.322 20.387 394.7 20.902 Q 395.077 21.416 395.753 21.416 Q 396.184 21.407 396.488 21.201 Q 396.792 20.995 396.954 20.51 Q 397.115 20.025 397.115 19.192 Q 397.115 18.192 396.772 17.639 Q 396.429 17.085 395.704 17.085 Z " fill="black" /><path d="M 404.818 21.279 L 404.818 21.279 L 404.818 21.652 L 403.495 21.828 L 403.181 21.828 L 403.181 21.064 L 403.083 21.064 Q 402.711 21.397 402.329 21.637 Q 401.947 21.877 401.408 21.877 Q 400.682 21.877 400.3 21.436 Q 399.918 20.995 399.918 19.907 L 399.918 17.8 Q 399.918 17.398 399.776 17.305 Q 399.634 17.212 399.183 17.212 L 399.183 16.859 L 400.545 16.673 L 400.869 16.673 L 400.869 19.78 Q 400.869 20.329 400.996 20.632 Q 401.123 20.936 401.339 21.054 Q 401.555 21.171 401.809 21.171 Q 402.241 21.171 402.53 20.99 Q 402.819 20.809 403.132 20.554 L 403.132 17.8 Q 403.132 17.398 402.956 17.305 Q 402.78 17.212 402.28 17.212 L 402.28 16.859 L 403.74 16.673 L 404.083 16.673 L 404.083 20.642 Q 404.083 20.936 404.137 21.073 Q 404.191 21.211 404.328 21.245 Q 404.465 21.279 404.71 21.279 Z " fill="black" /><path d="M 408.64 20.799 L 408.64 20.799 L 408.865 20.985 Q 408.65 21.279 408.473 21.48 Q 408.297 21.681 408.072 21.789 Q 407.846 21.897 407.493 21.897 Q 406.925 21.897 406.665 21.573 Q 406.406 21.25 406.406 20.534 L 406.406 17.242 L 405.788 17.242 L 405.788 16.948 Q 406.141 16.693 406.435 16.325 Q 406.729 15.958 407.023 15.272 L 407.366 15.272 L 407.356 16.761 L 408.601 16.761 L 408.601 17.242 L 407.356 17.242 L 407.356 20.211 Q 407.356 20.76 407.459 20.99 Q 407.562 21.22 407.876 21.22 Q 408.16 21.22 408.307 21.118 Q 408.454 21.015 408.64 20.799 Z " fill="black" /><path d="M 409.953 23.249 L 409.953 23.249 L 409.787 22.926 Q 409.992 22.837 410.208 22.695 Q 410.424 22.553 410.566 22.294 Q 410.708 22.034 410.708 21.612 Q 410.541 21.681 410.365 21.681 Q 410.041 21.681 409.904 21.49 Q 409.767 21.299 409.767 21.054 Q 409.767 20.789 409.943 20.593 Q 410.12 20.397 410.453 20.397 Q 410.874 20.397 411.095 20.657 Q 411.315 20.917 411.315 21.377 Q 411.315 21.848 411.168 22.176 Q 411.021 22.504 410.801 22.715 Q 410.58 22.926 410.35 23.048 Q 410.12 23.171 409.953 23.249 Z " fill="black" /><path d="M 416.745 18.496 L 416.745 18.496 L 416.745 20.691 Q 416.745 20.966 416.794 21.127 Q 416.843 21.289 417.009 21.358 Q 417.176 21.426 417.529 21.426 L 417.529 21.779 L 415.01 21.779 L 415.01 21.426 Q 415.382 21.426 415.549 21.358 Q 415.716 21.289 415.755 21.127 Q 415.794 20.966 415.794 20.691 L 415.794 18.819 Q 415.794 18.163 415.642 17.854 Q 415.49 17.545 415.26 17.447 Q 415.03 17.349 414.794 17.349 Q 414.373 17.349 414.055 17.565 Q 413.736 17.781 413.501 17.977 L 413.501 20.691 Q 413.501 20.966 413.545 21.127 Q 413.589 21.289 413.756 21.358 Q 413.922 21.426 414.285 21.426 L 414.285 21.779 L 411.815 21.779 L 411.815 21.426 Q 412.158 21.426 412.31 21.358 Q 412.462 21.289 412.501 21.127 Q 412.54 20.966 412.54 20.691 L 412.54 17.712 Q 412.54 17.438 412.438 17.345 Q 412.335 17.251 412.109 17.251 Q 411.992 17.251 411.913 17.261 Q 411.835 17.271 411.835 17.271 L 411.835 16.899 L 413.148 16.663 L 413.471 16.663 L 413.471 17.467 L 413.54 17.467 Q 413.961 17.085 414.349 16.859 Q 414.736 16.634 415.226 16.634 Q 415.804 16.634 416.132 16.894 Q 416.46 17.153 416.603 17.575 Q 416.745 17.996 416.745 18.496 Z " fill="black" /><path d="M 418.551 15.059 L 418.551 15.059 Q 418.551 12.721 419.566 11.069 Q 420.581 9.417 422.275 8.535 L 422.499 8.899 Q 420.973 9.935 420.336 11.426 Q 419.699 12.917 419.699 15.059 Q 419.699 17.201 420.336 18.692 Q 420.973 20.183 422.499 21.219 L 422.275 21.583 Q 420.581 20.701 419.566 19.049 Q 418.551 17.397 418.551 15.059 Z " fill="black" /><path d="M 427.357 12.301 L 427.357 12.301 L 427.245 12.847 L 425.831 12.847 L 425.005 17.019 Q 425.005 17.019 424.956 17.278 Q 424.907 17.537 424.907 17.719 Q 424.907 17.831 424.956 17.922 Q 425.005 18.013 425.145 18.013 Q 425.453 18.013 425.712 17.831 Q 425.971 17.649 426.335 17.173 L 426.615 17.383 Q 426.419 17.649 426.139 18.027 Q 425.859 18.405 425.467 18.685 Q 425.075 18.965 424.515 18.965 Q 424.081 18.965 423.871 18.755 Q 423.661 18.545 423.661 18.223 Q 423.661 18.041 423.703 17.782 Q 423.745 17.523 423.759 17.425 L 424.711 12.847 L 423.913 12.847 L 423.969 12.553 Q 424.417 12.315 424.718 12.091 Q 425.019 11.867 425.292 11.503 Q 425.565 11.139 425.915 10.537 L 426.335 10.537 L 425.943 12.301 Z " fill="black" /><path d="M 432.019 15.059 L 432.019 15.059 Q 432.019 17.397 431.004 19.049 Q 429.989 20.701 428.295 21.583 L 428.071 21.219 Q 429.611 20.183 430.241 18.692 Q 430.871 17.201 430.871 15.059 Q 430.871 12.917 430.241 11.426 Q 429.611 9.935 428.071 8.899 L 428.295 8.535 Q 429.989 9.417 431.004 11.069 Q 432.019 12.721 432.019 15.059 Z " fill="black" /></g></g></g><circle cx="219.72792206135787" cy="-57.72792206135785" r="2.6999999999999997" style="stroke:black;fill:black;stroke-width:2.0;stroke-dasharray:-;" /><circle cx="343.68944628842416" cy="-57.72792206135785" r="2.6999999999999997" style="stroke:black;fill:black;stroke-width:2.0;stroke-dasharray:-;" /><circle cx="219.72792206135787" cy="57.72792206135785" r="2.6999999999999997" style="stroke:black;fill:black;stroke-width:2.0;stroke-dasharray:-;" /><circle cx="343.68944628842416" cy="57.72792206135785" r="2.6999999999999997" style="stroke:black;fill:black;stroke-width:2.0;stroke-dasharray:-;" /></svg>