<svg xmlns="http://www.w3.org/2000/svg" xmlns:xlink="http://www.w3.org/1999/xlink" xml:lang="en" height="178.4pt" width="632.1776000000001pt" viewBox="-64.0888 -47.8 632.1776000000001 178.4"><path d="M 0.0,-0.0 L 18.0,-0.0 L 27.0,-0.0" style="stroke:black;fill:none;stroke-width:2.0;stroke-dasharray:-;stroke-linecap:round;stroke-linejoin:round;" /><path d="M 34.0 0.0 L 27.0 2.6999999999999997 L 27.0 -2.6999999999999997 Z" style="stroke:black;fill:black;stroke-linecap:butt;stroke-linejoin:miter;" /><path d="M 36.0,-0.0 L 36.0,-18.0 L 72.0,-18.0 L 72.0,18.0 L 36.0,18.0 L 36.0,-0.0" style="stroke:black;fill:none;stroke-width:2.0;stroke-dasharray:-;stroke-linecap:round;stroke-linejoin:round;" /><path d="M 72.0,-0.0 L 90.0,-0.0 L 99.0,-0.0" style="stroke:black;fill:none;stroke-width:2.0;stroke-dasharray:-;stroke-linecap:round;stroke-linejoin:round;" /><path d="M 106.0 0.0 L 99.0 2.6999999999999997 L 99.0 -2.6999999999999997 Z" style="stroke:black;fill:black;stroke-linecap:butt;stroke-linejoin:miter;" /><path d="M 108.0,-0.0 L 108.0,-18.0 L 144.0,-18.0 L 144.0,18.0 L 108.0,18.0 L 108.0,-0.0" style="stroke:black;fill:none;stroke-width:2.0;stroke-dasharray:-;stroke-linecap:round;stroke-linejoin:round;" /><path d="M 144.0,-0.0 L 162.0,-0.0 L 171.0,-0.0" style="stroke:black;fill:none;stroke-width:2.0;stroke-dasharray:-;stroke-linecap:round;stroke-linejoin:round;" /><path d="M 178.0 0.0 L 171.0 2.6999999999999997 L 171.0 -2.6999999999999997 Z" style="stroke:black;fill:black;stroke-linecap:butt;stroke-linejoin:miter;" /><path d="M 180.0,-0.0 L 180.0,-18.0 L 216.0,-18.0 L 216.0,18.0 L 180.0,18.0 L 180.0,-0.0" style="stroke:black;fill:none;stroke-width:2.0;stroke-dasharray:-;stroke-linecap:round;stroke-linejoin:round;" /><path d="M 216.0,-0.0 L 234.0,-0.0 L 243.0,-0.0" style="stroke:black;fill:none;stroke-width:2.0;stroke-dasharray:-;stroke-linecap:round;stroke-linejoin:round;" /><path d="M 250.0 0.0 L 243.0 2.6999999999999997 L 243.0 -2.6999999999999997 Z" style="stroke:black;fill:black;stroke-linecap:butt;stroke-linejoin:miter;" /><path d="M 252.0,-0.0 L 252.0,-18.0 L 288.0,-18.0 L 288.0,18.0 L 252.0,18.0 L 252.0,-0.0" style="stroke:black;fill:none;stroke-width:2.0;stroke-dasharray:-;stroke-linecap:round;stroke-linejoin:round;" /><path d="M 288.0,-0.0 L 306.0,-0.0 L 315.0,-0.0" style="stroke:black;fill:none;stroke-width:2.0;stroke-dasharray:-;stroke-linecap:round;stroke-linejoin:round;" /><path d="M 322.0 0.0 L 315.0 2.6999999999999997 L 315.0 -2.6999999999999997 Z" style="stroke:black;fill:black;stroke-linecap:butt;stroke-linejoin:miter;" /><path d="M 324.0,-0.0 L 324.0,-18.0 L 360.0,-18.0 L 360.0,18.0 L 324.0,18.0 L 324.0,-0.0" style="stroke:black;fill:none;stroke-width:2.0;stroke-dasharray:-;stroke-linecap:round;stroke-linejoin:round;" /><path d="M 360.0,-0.0 L 378.0,-0.0 L 387.0,-0.0" style="stroke:black;fill:none;stroke-width:2.0;stroke-dasharray:-;stroke-linecap:round;stroke-linejoin:round;" /><path d="M 394.0 0.0 L 387.0 2.6999999999999997 L 387.0 -2.6999999999999997 Z" style="stroke:black;fill:black;stroke-linecap:butt;stroke-linejoin:miter;" /><path d="M 396.0,-0.0 L 396.0,-18.0 L 432.0,-18.0 L 432.0,18.0 L 396.0,18.0 L 396.0,-0.0" style="stroke:black;fill:none;stroke-width:2.0;stroke-dasharray:-;stroke-linecap:round;stroke-linejoin:round;" /><path d="M 432.0,-0.0 L 450.0,-0.0 L 468.0,-0.0" style="stroke:black;fill:none;stroke-width:2.0;stroke-dasharray:-;stroke-linecap:round;stroke-linejoin:round;" /><path d="M 468.0,-0.0 L 468.0,-21.599999999999998 L 454.32,-43.199999999999996 L 481.68,-43.199999999999996 L 468.0,-21.599999999999998" style="stroke:black;fill:none;stroke-width:2.0;stroke-dasharray:-;stroke-linecap:round;stroke-linejoin:round;" /><path d="M -36.0,108.0 L -36.0,86.39999999999999 L -49.67999999999999,64.8 L -22.32,64.8 L -36.0,86.39999999999999" style="stroke:black;fill:none;stroke-width:2.0;stroke-dasharray:-;stroke-linecap:round;stroke-linejoin:round;" /><path d="M -36.0,108.0 L -18.0,108.0 L -9.0,108.0" style="stroke:black;fill:none;stroke-width:2.0;stroke-dasharray:-;stroke-linecap:round;stroke-linejoin:round;" /><path d="M -2.0 108.0 L -9.0 110.7 L -9.0 105.3 Z" style="stroke:black;fill:black;stroke-linecap:butt;stroke-linejoin:miter;" /><path d="M 0.0,108.0 L 0.0,90.0 L 36.0,90.0 L 36.0,126.0 L 0.0,126.0 L 0.0,108.0" style="stroke:black;fill:none;stroke-width:2.0;stroke-dasharray:-;stroke-linecap:round;stroke-linejoin:round;" /><path d="M 36.0,108.0 L 54.0,108.0 L 63.0,108.0" style="stroke:black;fill:none;stroke-width:2.0;stroke-dasharray:-;stroke-linecap:round;stroke-linejoin:round;" /><path d="M 70.0 108.0 L 63.0 110.7 L 63.0 105.3 Z" style="stroke:black;fill:black;stroke-linecap:butt;stroke-linejoin:miter;" /><path d="M 72.0,108.0 L 72.0,90.0 L 108.0,90.0 L 108.0,126.0 L 72.0,126.0 L 72.0,108.0" style="stroke:black;fill:none;stroke-width:2.0;stroke-dasharray:-;stroke-linecap:round;stroke-linejoin:round;" /><path d="M 108.0,108.0 L 126.0,108.0 L 135.0,108.0" style="stroke:black;fill:none;stroke-width:2.0;stroke-dasharray:-;stroke-linecap:round;stroke-linejoin:round;" /><path d="M 142.0 108.0 L 135.0 110.7 L 135.0 105.3 Z" style="stroke:black;fill:black;stroke-linecap:butt;stroke-linejoin:miter;" /><path d="M 144.0,108.0 L 144.0,90.0 L 180.0,90.0 L 180.0,126.0 L 144.0,126.0 L 144.0,108.0" style="stroke:black;fill:none;stroke-width:2.0;stroke-dasharray:-;stroke-linecap:round;stroke-linejoin:round;" /><path d="M 180.0,108.0 L 198.0,108.0 L 207.0,108.0" style="stroke:black;fill:none;stroke-width:2.0;stroke-dasharray:-;stroke-linecap:round;stroke-linejoin:round;" /><path d="M 214.0 108.0 L 207.0 110.7 L 207.0 105.3 Z" style="stroke:black;fill:black;stroke-linecap:butt;stroke-linejoin:miter;" /><path d="M 216.0,108.0 L 216.0,90.0 L 252.0,90.0 L 252.0,126.0 L 216.0,126.0 L 216.0,108.0" style="stroke:black;fill:none;stroke-width:2.0;stroke-dasharray:-;stroke-linecap:round;stroke-linejoin:round;" /><path d="M 252.0,108.0 L 270.0,108.0 L 279.0,108.0" style="stroke:black;fill:none;stroke-width:2.0;stroke-dasharray:-;stroke-linecap:round;stroke-linejoin:round;" /><path d="M 286.0 108.0 L 279.0 110.7 L 279.0 105.3 Z" style="stroke:black;fill:black;stroke-linecap:butt;stroke-linejoin:miter;" /><path d="M 288.0,108.0 L 288.0,90.0 L 324.0,90.0 L 324.0,126.0 L 288.0,126.0 L 288.0,108.0" style="stroke:black;fill:none;stroke-width:2.0;stroke-dasharray:-;stroke-linecap:round;stroke-linejoin:round;" /><path d="M 324.0,108.0 L 342.0,108.0 L 351.0,108.0" style="stroke:black;fill:none;stroke-width:2.0;stroke-dasharray:-;stroke-linecap:round;stroke-linejoin:round;" /><path d="M 358.0 108.0 L 351.0 110.7 L 351.0 105.3 Z" style="stroke:black;fill:black;stroke-linecap:butt;stroke-linejoin:miter;" /><path d="M 360.0,108.0 L 360.0,90.0 L 396.0,90.0 L 396.0,126.0 L 360.0,126.0 L 360.0,108.0" style="stroke:black;fill:none;stroke-width:2.0;stroke-dasharray:-;stroke-linecap:round;stroke-linejoin:round;" /><path d="M 396.0,108.0 L 414.0,108.0 L 423.0,108.0" style="stroke:black;fill:none;stroke-width:2.0;stroke-dasharray:-;stroke-linecap:round;stroke-linejoin:round;" /><path d="M 430.0 108.0 L 423.0 110.7 L 423.0 105.3 Z" style="stroke:black;fill:black;stroke-linecap:butt;stroke-linejoin:miter;" /><path d="M 432.0,108.0 L 432.0,90.0 L 468.0,90.0 L 468.0,126.0 L 432.0,126.0 L 432.0,108.0" style="stroke:black;fill:none;stroke-width:2.0;stroke-dasharray:-;stroke-linecap:round;stroke-linejoin:round;" /><path d="M 468.0,108.0 L 486.0,108.0 L 495.0,108.0" style="stroke:black;fill:none;stroke-width:2.0;stroke-dasharray:-;stroke-linecap:round;stroke-linejoin:round;" /><path d="M 502.0 108.0 L 495.0 110.7 L 495.0 105.3 Z" style="stroke:black;fill:black;stroke-linecap:butt;stroke-linejoin:miter;" /><g><g><g><path d="M 47.63 4.508 L 47.63 4.508 Q 46.622 4.508 45.789 4.137 Q 44.956 3.766 44.34 3.15 L 45.054 2.324 Q 45.558 2.842 46.237 3.15 Q 46.916 3.458 47.686 3.458 Q 48.582 3.458 49.093 3.052 Q 49.604 2.646 49.604 1.96 Q 49.604 1.512 49.401 1.232 Q 49.198 0.952 48.841 0.756 Q 48.484 0.56 48.036 0.378 L 46.692 -0.196 Q 46.286 -0.378 45.838 -0.665 Q 45.39 -0.952 45.089 -1.407 Q 44.788 -1.862 44.788 -2.534 Q 44.788 -3.262 45.173 -3.822 Q 45.558 -4.382 46.223 -4.697 Q 46.888 -5.012 47.728 -5.012 Q 48.582 -5.012 49.296 -4.697 Q 50.01 -4.382 50.514 -3.878 L 49.884 -3.108 Q 49.436 -3.514 48.911 -3.745 Q 48.386 -3.976 47.756 -3.976 Q 46.958 -3.976 46.482 -3.619 Q 46.006 -3.262 46.006 -2.646 Q 46.006 -2.212 46.237 -1.932 Q 46.468 -1.652 46.825 -1.47 Q 47.182 -1.288 47.56 -1.134 L 48.89 -0.574 Q 49.422 -0.35 49.863 -0.035 Q 50.304 0.28 50.563 0.742 Q 50.822 1.204 50.822 1.848 Q 50.822 2.604 50.437 3.206 Q 50.052 3.808 49.338 4.158 Q 48.624 4.508 47.63 4.508 Z " fill="black" /><path d="M 56.282 -5.586 L 56.282 -5.586 L 52.642 5.586 L 51.858 5.586 L 55.512 -5.586 Z " fill="black" /><path d="M 58.06 4.34 L 58.06 4.34 L 58.06 -4.858 L 60.748 -4.858 Q 61.798 -4.858 62.589 -4.599 Q 63.38 -4.34 63.828 -3.752 Q 64.276 -3.164 64.276 -2.156 Q 64.276 -1.176 63.835 -0.539 Q 63.394 0.098 62.617 0.406 Q 61.84 0.714 60.804 0.714 L 59.264 0.714 L 59.264 4.34 Z M 59.264 -0.266 L 59.264 -0.266 L 60.664 -0.266 Q 61.882 -0.266 62.477 -0.714 Q 63.072 -1.162 63.072 -2.142 Q 63.072 -3.136 62.456 -3.514 Q 61.84 -3.892 60.608 -3.892 L 59.264 -3.892 Z " fill="black" /></g></g></g><g><g><g><path d="M 84.049 -18.834 L 84.049 -18.834 L 83.615 -18.834 Q 83.615 -19.604 83.538 -20.003 Q 83.461 -20.402 83.125 -20.556 Q 82.789 -20.71 82.005 -20.71 L 81.207 -20.71 L 79.821 -13.892 Q 79.695 -13.262 79.73 -12.961 Q 79.765 -12.66 80.045 -12.569 Q 80.325 -12.478 80.913 -12.478 L 80.829 -12.058 L 76.839 -12.058 L 76.923 -12.478 Q 77.511 -12.478 77.819 -12.569 Q 78.127 -12.66 78.281 -12.961 Q 78.435 -13.262 78.561 -13.892 L 79.947 -20.71 L 79.149 -20.71 Q 78.561 -20.71 78.211 -20.626 Q 77.861 -20.542 77.637 -20.339 Q 77.413 -20.136 77.238 -19.772 Q 77.063 -19.408 76.825 -18.834 L 76.377 -18.834 L 76.951 -21.256 L 84.469 -21.256 Z " fill="black" /><path d="M 85.117 -16.438 L 85.117 -16.438 L 85.117 -13.4 L 85.166 -13.4 Q 85.45 -13.733 85.837 -13.998 Q 86.224 -14.263 86.773 -14.263 Q 87.283 -14.263 87.699 -13.954 Q 88.116 -13.645 88.365 -13.101 Q 88.615 -12.557 88.615 -11.852 Q 88.615 -10.911 88.272 -10.274 Q 87.929 -9.637 87.337 -9.319 Q 86.744 -9 85.989 -9 Q 85.548 -9 85.176 -9.074 Q 84.803 -9.147 84.544 -9.245 Q 84.284 -9.343 84.166 -9.392 L 84.166 -15.272 Q 84.166 -15.635 84.088 -15.738 Q 84.009 -15.84 83.676 -15.84 Q 83.568 -15.84 83.475 -15.826 Q 83.382 -15.811 83.382 -15.811 L 83.382 -16.183 L 84.715 -16.438 Z M 85.117 -12.891 L 85.117 -12.891 L 85.117 -9.951 Q 85.234 -9.735 85.489 -9.608 Q 85.744 -9.48 86.165 -9.48 Q 86.685 -9.48 86.998 -9.76 Q 87.312 -10.039 87.454 -10.504 Q 87.596 -10.97 87.596 -11.519 Q 87.596 -12.018 87.484 -12.474 Q 87.371 -12.93 87.087 -13.214 Q 86.802 -13.498 86.303 -13.498 Q 86.038 -13.498 85.798 -13.395 Q 85.558 -13.292 85.381 -13.15 Q 85.205 -13.008 85.117 -12.891 Z " fill="black" /><path d="M 94.117 -21.984 L 94.117 -21.984 L 90.477 -10.812 L 89.693 -10.812 L 93.347 -21.984 Z " fill="black" /><path d="M 105.863 -21.256 L 105.863 -21.256 L 105.779 -20.836 Q 105.401 -20.836 105.198 -20.766 Q 104.995 -20.696 104.841 -20.556 Q 104.715 -20.444 104.589 -20.283 Q 104.463 -20.122 104.351 -19.814 Q 104.239 -19.506 104.127 -18.96 L 102.699 -11.946 L 102.237 -11.946 L 98.121 -19.464 L 98.051 -19.464 L 96.959 -14.144 Q 96.819 -13.444 96.847 -13.087 Q 96.875 -12.73 97.134 -12.604 Q 97.393 -12.478 97.911 -12.478 L 97.827 -12.058 L 94.607 -12.058 L 94.691 -12.478 Q 95.237 -12.478 95.531 -12.597 Q 95.825 -12.716 95.979 -13.08 Q 96.133 -13.444 96.273 -14.144 L 97.519 -20.192 Q 97.281 -20.584 97.043 -20.71 Q 96.805 -20.836 96.357 -20.836 L 96.441 -21.256 L 98.639 -21.256 L 102.419 -14.368 L 102.489 -14.368 L 103.455 -19.03 Q 103.581 -19.66 103.588 -19.982 Q 103.595 -20.304 103.497 -20.486 Q 103.371 -20.696 103.147 -20.766 Q 102.923 -20.836 102.475 -20.836 L 102.559 -21.256 Z " fill="black" /></g></g></g><g><g><g><path d="M 120.155 -1.554 L 120.155 -1.554 Q 118.867 -1.554 117.985 -2.17 Q 117.103 -2.786 116.697 -3.738 Q 115.689 -3.878 114.919 -4.487 Q 114.149 -5.096 113.715 -6.118 Q 113.281 -7.14 113.281 -8.498 Q 113.281 -9.968 113.792 -11.025 Q 114.303 -12.082 115.206 -12.649 Q 116.109 -13.216 117.285 -13.216 Q 118.475 -13.216 119.378 -12.649 Q 120.281 -12.082 120.792 -11.025 Q 121.303 -9.968 121.303 -8.498 Q 121.303 -7.168 120.89 -6.167 Q 120.477 -5.166 119.728 -4.543 Q 118.979 -3.92 117.985 -3.752 Q 118.307 -3.15 118.916 -2.849 Q 119.525 -2.548 120.309 -2.548 Q 120.603 -2.548 120.841 -2.583 Q 121.079 -2.618 121.261 -2.674 L 121.499 -1.75 Q 121.289 -1.68 120.939 -1.617 Q 120.589 -1.554 120.155 -1.554 Z M 117.285 -4.69 L 117.285 -4.69 Q 118.125 -4.69 118.748 -5.152 Q 119.371 -5.614 119.714 -6.468 Q 120.057 -7.322 120.057 -8.484 Q 120.057 -10.22 119.301 -11.2 Q 118.545 -12.18 117.285 -12.18 Q 116.025 -12.18 115.269 -11.193 Q 114.513 -10.206 114.513 -8.484 Q 114.513 -7.336 114.856 -6.482 Q 115.199 -5.628 115.822 -5.159 Q 116.445 -4.69 117.285 -4.69 Z " fill="black" /><path d="M 122.101 -3.864 L 122.101 -3.864 L 125.279 -13.062 L 126.623 -13.062 L 129.801 -3.864 L 128.527 -3.864 L 127.645 -6.65 L 124.215 -6.65 L 123.319 -3.864 Z M 124.523 -7.588 L 124.523 -7.588 L 127.351 -7.588 L 126.903 -8.988 Q 126.637 -9.758 126.413 -10.521 Q 126.189 -11.284 125.951 -12.082 L 125.895 -12.082 Q 125.671 -11.284 125.447 -10.521 Q 125.223 -9.758 124.971 -8.988 Z " fill="black" /><path d="M 131.117 -3.864 L 131.117 -3.864 L 131.117 -13.062 L 132.559 -13.062 L 134.365 -8.162 Q 134.533 -7.7 134.694 -7.217 Q 134.855 -6.734 135.037 -6.258 L 135.079 -6.258 Q 135.247 -6.734 135.408 -7.217 Q 135.569 -7.7 135.737 -8.162 L 137.515 -13.062 L 138.957 -13.062 L 138.957 -3.864 L 137.837 -3.864 L 137.837 -8.876 Q 137.837 -9.492 137.886 -10.248 Q 137.935 -11.004 137.991 -11.606 L 137.935 -11.606 L 137.193 -9.506 L 135.429 -4.788 L 134.631 -4.788 L 132.853 -9.506 L 132.111 -11.606 L 132.055 -11.606 Q 132.111 -11.004 132.16 -10.248 Q 132.209 -9.492 132.209 -8.876 L 132.209 -3.864 Z " fill="black" /></g><g><path d="M 115.556 10.136 L 115.556 10.136 L 115.556 0.938 L 116.998 0.938 L 118.804 5.838 Q 118.972 6.3 119.133 6.783 Q 119.294 7.266 119.476 7.742 L 119.518 7.742 Q 119.686 7.266 119.847 6.783 Q 120.008 6.3 120.176 5.838 L 121.954 0.938 L 123.396 0.938 L 123.396 10.136 L 122.276 10.136 L 122.276 5.124 Q 122.276 4.508 122.325 3.752 Q 122.374 2.996 122.43 2.394 L 122.374 2.394 L 121.632 4.494 L 119.868 9.212 L 119.07 9.212 L 117.292 4.494 L 116.55 2.394 L 116.494 2.394 Q 116.55 2.996 116.599 3.752 Q 116.648 4.508 116.648 5.124 L 116.648 10.136 Z " fill="black" /><path d="M 127.288 10.304 L 127.288 10.304 Q 126.476 10.304 125.923 9.807 Q 125.37 9.31 125.37 8.414 Q 125.37 7.322 126.336 6.741 Q 127.302 6.16 129.416 5.936 Q 129.416 5.502 129.304 5.124 Q 129.192 4.746 128.891 4.508 Q 128.59 4.27 128.044 4.27 Q 127.498 4.27 126.994 4.494 Q 126.49 4.718 126.098 4.97 L 125.65 4.2 Q 126.112 3.892 126.784 3.619 Q 127.456 3.346 128.24 3.346 Q 129.444 3.346 129.99 4.081 Q 130.536 4.816 130.536 6.062 L 130.536 10.136 L 129.612 10.136 L 129.514 9.338 L 129.486 9.338 Q 129.01 9.73 128.464 10.017 Q 127.918 10.304 127.288 10.304 Z M 127.624 9.394 L 127.624 9.394 Q 128.1 9.394 128.52 9.163 Q 128.94 8.932 129.416 8.526 L 129.416 6.678 Q 127.792 6.874 127.127 7.28 Q 126.462 7.686 126.462 8.344 Q 126.462 8.89 126.805 9.142 Q 127.148 9.394 127.624 9.394 Z " fill="black" /><path d="M 132.608 13.216 L 132.608 13.216 L 132.608 3.5 L 133.532 3.5 L 133.63 4.27 L 133.672 4.27 Q 134.12 3.906 134.645 3.626 Q 135.17 3.346 135.842 3.346 Q 136.626 3.346 137.193 3.759 Q 137.76 4.172 138.068 4.914 Q 138.376 5.656 138.376 6.65 Q 138.376 7.812 137.977 8.631 Q 137.578 9.45 136.941 9.877 Q 136.304 10.304 135.562 10.304 Q 135.1 10.304 134.645 10.115 Q 134.19 9.926 133.7 9.52 L 133.728 10.696 L 133.728 13.216 Z M 135.352 9.352 L 135.352 9.352 Q 136.15 9.352 136.682 8.659 Q 137.214 7.966 137.214 6.664 Q 137.214 5.614 136.808 4.949 Q 136.402 4.284 135.534 4.284 Q 135.1 4.284 134.687 4.487 Q 134.274 4.69 133.728 5.194 L 133.728 8.666 Q 134.176 9.044 134.589 9.198 Q 135.002 9.352 135.352 9.352 Z " fill="black" /></g></g></g><g><g><g><path d="M 187.115 4.599 L 187.115 4.599 L 187.115 -4.599 L 188.319 -4.599 L 188.319 4.599 Z " fill="black" /><path d="M 190.895 4.599 L 190.895 4.599 L 190.895 -4.599 L 196.313 -4.599 L 196.313 -3.591 L 192.099 -3.591 L 192.099 -0.511 L 195.669 -0.511 L 195.669 0.497 L 192.099 0.497 L 192.099 4.599 Z " fill="black" /><path d="M 197.979 4.599 L 197.979 4.599 L 197.979 -4.599 L 203.397 -4.599 L 203.397 -3.591 L 199.183 -3.591 L 199.183 -0.511 L 202.753 -0.511 L 202.753 0.497 L 199.183 0.497 L 199.183 4.599 Z " fill="black" /><path d="M 207.023 4.599 L 207.023 4.599 L 207.023 -3.591 L 204.195 -3.591 L 204.195 -4.599 L 211.055 -4.599 L 211.055 -3.591 L 208.213 -3.591 L 208.213 4.599 Z " fill="black" /></g></g></g><g><g><g><path d="M 261.348 4.34 L 261.348 4.34 L 261.348 -4.858 L 264.036 -4.858 Q 265.086 -4.858 265.877 -4.599 Q 266.668 -4.34 267.116 -3.752 Q 267.564 -3.164 267.564 -2.156 Q 267.564 -1.176 267.123 -0.539 Q 266.682 0.098 265.905 0.406 Q 265.128 0.714 264.092 0.714 L 262.552 0.714 L 262.552 4.34 Z M 262.552 -0.266 L 262.552 -0.266 L 263.952 -0.266 Q 265.17 -0.266 265.765 -0.714 Q 266.36 -1.162 266.36 -2.142 Q 266.36 -3.136 265.744 -3.514 Q 265.128 -3.892 263.896 -3.892 L 262.552 -3.892 Z " fill="black" /><path d="M 273.094 -5.586 L 273.094 -5.586 L 269.454 5.586 L 268.67 5.586 L 272.324 -5.586 Z " fill="black" /><path d="M 277.49 4.508 L 277.49 4.508 Q 276.482 4.508 275.649 4.137 Q 274.816 3.766 274.2 3.15 L 274.914 2.324 Q 275.418 2.842 276.097 3.15 Q 276.776 3.458 277.546 3.458 Q 278.442 3.458 278.953 3.052 Q 279.464 2.646 279.464 1.96 Q 279.464 1.512 279.261 1.232 Q 279.058 0.952 278.701 0.756 Q 278.344 0.56 277.896 0.378 L 276.552 -0.196 Q 276.146 -0.378 275.698 -0.665 Q 275.25 -0.952 274.949 -1.407 Q 274.648 -1.862 274.648 -2.534 Q 274.648 -3.262 275.033 -3.822 Q 275.418 -4.382 276.083 -4.697 Q 276.748 -5.012 277.588 -5.012 Q 278.442 -5.012 279.156 -4.697 Q 279.87 -4.382 280.374 -3.878 L 279.744 -3.108 Q 279.296 -3.514 278.771 -3.745 Q 278.246 -3.976 277.616 -3.976 Q 276.818 -3.976 276.342 -3.619 Q 275.866 -3.262 275.866 -2.646 Q 275.866 -2.212 276.097 -1.932 Q 276.328 -1.652 276.685 -1.47 Q 277.042 -1.288 277.42 -1.134 L 278.75 -0.574 Q 279.282 -0.35 279.723 -0.035 Q 280.164 0.28 280.423 0.742 Q 280.682 1.204 280.682 1.848 Q 280.682 2.604 280.297 3.206 Q 279.912 3.808 279.198 4.158 Q 278.484 4.508 277.49 4.508 Z " fill="black" /></g></g></g><g><g><g><path d="M 330.674 -2.142 L 330.674 -2.142 L 333.852 -11.34 L 335.196 -11.34 L 338.374 -2.142 L 337.1 -2.142 L 336.218 -4.928 L 332.788 -4.928 L 331.892 -2.142 Z M 333.096 -5.866 L 333.096 -5.866 L 335.924 -5.866 L 335.476 -7.266 Q 335.21 -8.036 334.986 -8.799 Q 334.762 -9.562 334.524 -10.36 L 334.468 -10.36 Q 334.244 -9.562 334.02 -8.799 Q 333.796 -8.036 333.544 -7.266 Z " fill="black" /><path d="M 341.706 -1.974 L 341.706 -1.974 Q 340.908 -1.974 340.313 -2.394 Q 339.718 -2.814 339.382 -3.577 Q 339.046 -4.34 339.046 -5.362 Q 339.046 -6.524 339.445 -7.315 Q 339.844 -8.106 340.502 -8.519 Q 341.16 -8.932 341.916 -8.932 Q 342.462 -8.932 342.882 -8.736 Q 343.302 -8.54 343.736 -8.176 L 343.694 -9.31 L 343.694 -12.026 L 344.814 -12.026 L 344.814 -2.142 L 343.89 -2.142 L 343.792 -2.926 L 343.75 -2.926 Q 343.358 -2.534 342.861 -2.254 Q 342.364 -1.974 341.706 -1.974 Z M 341.986 -2.926 L 341.986 -2.926 Q 342.462 -2.926 342.868 -3.157 Q 343.274 -3.388 343.694 -3.822 L 343.694 -7.308 Q 343.274 -7.686 342.889 -7.84 Q 342.504 -7.994 342.14 -7.994 Q 341.314 -7.994 340.754 -7.308 Q 340.194 -6.622 340.194 -5.376 Q 340.194 -4.27 340.663 -3.598 Q 341.132 -2.926 341.986 -2.926 Z " fill="black" /><path d="M 349.224 -1.974 L 349.224 -1.974 Q 348.426 -1.974 347.831 -2.394 Q 347.236 -2.814 346.9 -3.577 Q 346.564 -4.34 346.564 -5.362 Q 346.564 -6.524 346.963 -7.315 Q 347.362 -8.106 348.02 -8.519 Q 348.678 -8.932 349.434 -8.932 Q 349.98 -8.932 350.4 -8.736 Q 350.82 -8.54 351.254 -8.176 L 351.212 -9.31 L 351.212 -12.026 L 352.332 -12.026 L 352.332 -2.142 L 351.408 -2.142 L 351.31 -2.926 L 351.268 -2.926 Q 350.876 -2.534 350.379 -2.254 Q 349.882 -1.974 349.224 -1.974 Z M 349.504 -2.926 L 349.504 -2.926 Q 349.98 -2.926 350.386 -3.157 Q 350.792 -3.388 351.212 -3.822 L 351.212 -7.308 Q 350.792 -7.686 350.407 -7.84 Q 350.022 -7.994 349.658 -7.994 Q 348.832 -7.994 348.272 -7.308 Q 347.712 -6.622 347.712 -5.376 Q 347.712 -4.27 348.181 -3.598 Q 348.65 -2.926 349.504 -2.926 Z " fill="black" /></g><g><path d="M 339.074 12.026 L 339.074 12.026 Q 337.912 12.026 336.981 11.459 Q 336.05 10.892 335.518 9.828 Q 334.986 8.764 334.986 7.294 Q 334.986 5.796 335.532 4.725 Q 336.078 3.654 337.009 3.08 Q 337.94 2.506 339.088 2.506 Q 340.068 2.506 340.698 2.863 Q 341.328 3.22 341.72 3.64 L 341.062 4.41 Q 340.25 3.542 339.13 3.542 Q 338.276 3.542 337.618 3.99 Q 336.96 4.438 336.589 5.271 Q 336.218 6.104 336.218 7.266 Q 336.218 8.4 336.575 9.233 Q 336.932 10.066 337.583 10.521 Q 338.234 10.976 339.116 10.976 Q 339.788 10.976 340.32 10.703 Q 340.852 10.43 341.3 9.954 L 341.944 10.696 Q 341.384 11.326 340.684 11.676 Q 339.984 12.026 339.074 12.026 Z " fill="black" /><path d="M 343.694 11.858 L 343.694 11.858 L 343.694 2.66 L 346.382 2.66 Q 347.432 2.66 348.223 2.919 Q 349.014 3.178 349.462 3.766 Q 349.91 4.354 349.91 5.362 Q 349.91 6.342 349.469 6.979 Q 349.028 7.616 348.251 7.924 Q 347.474 8.232 346.438 8.232 L 344.898 8.232 L 344.898 11.858 Z M 344.898 7.252 L 344.898 7.252 L 346.298 7.252 Q 347.516 7.252 348.111 6.804 Q 348.706 6.356 348.706 5.376 Q 348.706 4.382 348.09 4.004 Q 347.474 3.626 346.242 3.626 L 344.898 3.626 Z " fill="black" /></g></g></g><g><g><g><path d="M 399.328 4.858 L 399.328 4.858 L 399.328 -4.34 L 402.282 -4.34 Q 403.234 -4.34 403.976 -4.088 Q 404.718 -3.836 405.138 -3.276 Q 405.558 -2.716 405.558 -1.764 Q 405.558 -0.658 404.984 -0.014 Q 404.41 0.63 403.458 0.854 L 405.838 4.858 L 404.48 4.858 L 402.226 0.98 L 400.532 0.98 L 400.532 4.858 Z M 400.532 0.014 L 400.532 0.014 L 402.1 0.014 Q 403.192 0.014 403.78 -0.42 Q 404.368 -0.854 404.368 -1.75 Q 404.368 -2.646 403.78 -3.01 Q 403.192 -3.374 402.1 -3.374 L 400.532 -3.374 Z " fill="black" /><path d="M 408.82 5.026 L 408.82 5.026 Q 408.008 5.026 407.455 4.529 Q 406.902 4.032 406.902 3.136 Q 406.902 2.044 407.868 1.463 Q 408.834 0.882 410.948 0.658 Q 410.948 0.224 410.836 -0.154 Q 410.724 -0.532 410.423 -0.77 Q 410.122 -1.008 409.576 -1.008 Q 409.03 -1.008 408.526 -0.784 Q 408.022 -0.56 407.63 -0.308 L 407.182 -1.078 Q 407.644 -1.386 408.316 -1.659 Q 408.988 -1.932 409.772 -1.932 Q 410.976 -1.932 411.522 -1.197 Q 412.068 -0.462 412.068 0.784 L 412.068 4.858 L 411.144 4.858 L 411.046 4.06 L 411.018 4.06 Q 410.542 4.452 409.996 4.739 Q 409.45 5.026 408.82 5.026 Z M 409.156 4.116 L 409.156 4.116 Q 409.632 4.116 410.052 3.885 Q 410.472 3.654 410.948 3.248 L 410.948 1.4 Q 409.324 1.596 408.659 2.002 Q 407.994 2.408 407.994 3.066 Q 407.994 3.612 408.337 3.864 Q 408.68 4.116 409.156 4.116 Z " fill="black" /><path d="M 416.338 5.026 L 416.338 5.026 Q 415.54 5.026 414.945 4.606 Q 414.35 4.186 414.014 3.423 Q 413.678 2.66 413.678 1.638 Q 413.678 0.476 414.077 -0.315 Q 414.476 -1.106 415.134 -1.519 Q 415.792 -1.932 416.548 -1.932 Q 417.094 -1.932 417.514 -1.736 Q 417.934 -1.54 418.368 -1.176 L 418.326 -2.31 L 418.326 -5.026 L 419.446 -5.026 L 419.446 4.858 L 418.522 4.858 L 418.424 4.074 L 418.382 4.074 Q 417.99 4.466 417.493 4.746 Q 416.996 5.026 416.338 5.026 Z M 416.618 4.074 L 416.618 4.074 Q 417.094 4.074 417.5 3.843 Q 417.906 3.612 418.326 3.178 L 418.326 -0.308 Q 417.906 -0.686 417.521 -0.84 Q 417.136 -0.994 416.772 -0.994 Q 415.946 -0.994 415.386 -0.308 Q 414.826 0.378 414.826 1.624 Q 414.826 2.73 415.295 3.402 Q 415.764 4.074 416.618 4.074 Z " fill="black" /><path d="M 421.658 4.858 L 421.658 4.858 L 421.658 -1.778 L 422.778 -1.778 L 422.778 4.858 Z M 422.232 -3.136 L 422.232 -3.136 Q 421.91 -3.136 421.686 -3.346 Q 421.462 -3.556 421.462 -3.864 Q 421.462 -4.186 421.686 -4.389 Q 421.91 -4.592 422.232 -4.592 Q 422.554 -4.592 422.778 -4.389 Q 423.002 -4.186 423.002 -3.864 Q 423.002 -3.556 422.778 -3.346 Q 422.554 -3.136 422.232 -3.136 Z " fill="black" /><path d="M 427.566 5.026 L 427.566 5.026 Q 426.768 5.026 426.068 4.613 Q 425.368 4.2 424.941 3.423 Q 424.514 2.646 424.514 1.54 Q 424.514 0.434 424.941 -0.336 Q 425.368 -1.106 426.068 -1.519 Q 426.768 -1.932 427.566 -1.932 Q 428.378 -1.932 429.078 -1.519 Q 429.778 -1.106 430.205 -0.336 Q 430.632 0.434 430.632 1.54 Q 430.632 2.646 430.205 3.423 Q 429.778 4.2 429.078 4.613 Q 428.378 5.026 427.566 5.026 Z M 427.566 4.088 L 427.566 4.088 Q 428.42 4.088 428.945 3.388 Q 429.47 2.688 429.47 1.54 Q 429.47 0.406 428.945 -0.294 Q 428.42 -0.994 427.566 -0.994 Q 426.726 -0.994 426.201 -0.294 Q 425.676 0.406 425.676 1.54 Q 425.676 2.688 426.201 3.388 Q 426.726 4.088 427.566 4.088 Z " fill="black" /></g></g></g><g><g><g><path d="M 3.328 112.858 L 3.328 112.858 L 3.328 103.66 L 6.282 103.66 Q 7.234 103.66 7.976 103.912 Q 8.718 104.164 9.138 104.724 Q 9.558 105.284 9.558 106.236 Q 9.558 107.342 8.984 107.986 Q 8.41 108.63 7.458 108.854 L 9.838 112.858 L 8.48 112.858 L 6.226 108.98 L 4.532 108.98 L 4.532 112.858 Z M 4.532 108.014 L 4.532 108.014 L 6.1 108.014 Q 7.192 108.014 7.78 107.58 Q 8.368 107.146 8.368 106.25 Q 8.368 105.354 7.78 104.99 Q 7.192 104.626 6.1 104.626 L 4.532 104.626 Z " fill="black" /><path d="M 12.82 113.026 L 12.82 113.026 Q 12.008 113.026 11.455 112.529 Q 10.902 112.032 10.902 111.136 Q 10.902 110.044 11.868 109.463 Q 12.834 108.882 14.948 108.658 Q 14.948 108.224 14.836 107.846 Q 14.724 107.468 14.423 107.23 Q 14.122 106.992 13.576 106.992 Q 13.03 106.992 12.526 107.216 Q 12.022 107.44 11.63 107.692 L 11.182 106.922 Q 11.644 106.614 12.316 106.341 Q 12.988 106.068 13.772 106.068 Q 14.976 106.068 15.522 106.803 Q 16.068 107.538 16.068 108.784 L 16.068 112.858 L 15.144 112.858 L 15.046 112.06 L 15.018 112.06 Q 14.542 112.452 13.996 112.739 Q 13.45 113.026 12.82 113.026 Z M 13.156 112.116 L 13.156 112.116 Q 13.632 112.116 14.052 111.885 Q 14.472 111.654 14.948 111.248 L 14.948 109.4 Q 13.324 109.596 12.659 110.002 Q 11.994 110.408 11.994 111.066 Q 11.994 111.612 12.337 111.864 Q 12.68 112.116 13.156 112.116 Z " fill="black" /><path d="M 20.338 113.026 L 20.338 113.026 Q 19.54 113.026 18.945 112.606 Q 18.35 112.186 18.014 111.423 Q 17.678 110.66 17.678 109.638 Q 17.678 108.476 18.077 107.685 Q 18.476 106.894 19.134 106.481 Q 19.792 106.068 20.548 106.068 Q 21.094 106.068 21.514 106.264 Q 21.934 106.46 22.368 106.824 L 22.326 105.69 L 22.326 102.974 L 23.446 102.974 L 23.446 112.858 L 22.522 112.858 L 22.424 112.074 L 22.382 112.074 Q 21.99 112.466 21.493 112.746 Q 20.996 113.026 20.338 113.026 Z M 20.618 112.074 L 20.618 112.074 Q 21.094 112.074 21.5 111.843 Q 21.906 111.612 22.326 111.178 L 22.326 107.692 Q 21.906 107.314 21.521 107.16 Q 21.136 107.006 20.772 107.006 Q 19.946 107.006 19.386 107.692 Q 18.826 108.378 18.826 109.624 Q 18.826 110.73 19.295 111.402 Q 19.764 112.074 20.618 112.074 Z " fill="black" /><path d="M 25.658 112.858 L 25.658 112.858 L 25.658 106.222 L 26.778 106.222 L 26.778 112.858 Z M 26.232 104.864 L 26.232 104.864 Q 25.91 104.864 25.686 104.654 Q 25.462 104.444 25.462 104.136 Q 25.462 103.814 25.686 103.611 Q 25.91 103.408 26.232 103.408 Q 26.554 103.408 26.778 103.611 Q 27.002 103.814 27.002 104.136 Q 27.002 104.444 26.778 104.654 Q 26.554 104.864 26.232 104.864 Z " fill="black" /><path d="M 31.566 113.026 L 31.566 113.026 Q 30.768 113.026 30.068 112.613 Q 29.368 112.2 28.941 111.423 Q 28.514 110.646 28.514 109.54 Q 28.514 108.434 28.941 107.664 Q 29.368 106.894 30.068 106.481 Q 30.768 106.068 31.566 106.068 Q 32.378 106.068 33.078 106.481 Q 33.778 106.894 34.205 107.664 Q 34.632 108.434 34.632 109.54 Q 34.632 110.646 34.205 111.423 Q 33.778 112.2 33.078 112.613 Q 32.378 113.026 31.566 113.026 Z M 31.566 112.088 L 31.566 112.088 Q 32.42 112.088 32.945 111.388 Q 33.47 110.688 33.47 109.54 Q 33.47 108.406 32.945 107.706 Q 32.42 107.006 31.566 107.006 Q 30.726 107.006 30.201 107.706 Q 29.676 108.406 29.676 109.54 Q 29.676 110.688 30.201 111.388 Q 30.726 112.088 31.566 112.088 Z " fill="black" /></g></g></g><g><g><g><path d="M 77.155 105.515 L 77.155 105.515 L 77.155 96.317 L 80.109 96.317 Q 81.061 96.317 81.803 96.569 Q 82.545 96.821 82.965 97.381 Q 83.385 97.941 83.385 98.893 Q 83.385 99.999 82.811 100.643 Q 82.237 101.287 81.285 101.511 L 83.665 105.515 L 82.307 105.515 L 80.053 101.637 L 78.359 101.637 L 78.359 105.515 Z M 78.359 100.671 L 78.359 100.671 L 79.927 100.671 Q 81.019 100.671 81.607 100.237 Q 82.195 99.803 82.195 98.907 Q 82.195 98.011 81.607 97.647 Q 81.019 97.283 79.927 97.283 L 78.359 97.283 Z " fill="black" /><path d="M 87.823 105.683 L 87.823 105.683 Q 86.941 105.683 86.22 105.27 Q 85.499 104.857 85.072 104.08 Q 84.645 103.303 84.645 102.225 Q 84.645 101.133 85.065 100.349 Q 85.485 99.565 86.178 99.145 Q 86.871 98.725 87.683 98.725 Q 88.859 98.725 89.552 99.565 Q 90.245 100.405 90.245 101.833 Q 90.245 102.015 90.231 102.176 Q 90.217 102.337 90.189 102.463 L 85.751 102.463 Q 85.821 103.527 86.409 104.157 Q 86.997 104.787 87.949 104.787 Q 88.411 104.787 88.817 104.64 Q 89.223 104.493 89.587 104.255 L 89.979 104.983 Q 89.545 105.277 89.013 105.48 Q 88.481 105.683 87.823 105.683 Z M 85.751 101.665 L 85.751 101.665 L 89.265 101.665 Q 89.265 100.671 88.838 100.146 Q 88.411 99.621 87.669 99.621 Q 86.941 99.621 86.402 100.139 Q 85.863 100.657 85.751 101.665 Z " fill="black" /><path d="M 91.855 105.515 L 91.855 105.515 L 91.855 98.879 L 92.779 98.879 L 92.877 99.845 L 92.919 99.845 Q 93.367 99.369 93.857 99.047 Q 94.347 98.725 95.033 98.725 Q 95.733 98.725 96.167 99.075 Q 96.601 99.425 96.783 99.985 Q 97.329 99.411 97.833 99.068 Q 98.337 98.725 99.023 98.725 Q 99.961 98.725 100.465 99.383 Q 100.969 100.041 100.969 101.315 L 100.969 105.515 L 99.849 105.515 L 99.849 101.455 Q 99.849 99.705 98.673 99.705 Q 98.253 99.705 97.861 99.936 Q 97.469 100.167 96.979 100.713 L 96.979 105.515 L 95.859 105.515 L 95.859 101.455 Q 95.859 99.705 94.683 99.705 Q 94.291 99.705 93.892 99.922 Q 93.493 100.139 92.975 100.713 L 92.975 105.515 Z " fill="black" /><path d="M 104.553 104.815 L 104.553 104.815 Q 104.553 105.137 104.329 105.382 Q 104.105 105.627 103.685 105.627 Q 103.265 105.627 103.062 105.389 Q 102.859 105.151 102.859 104.801 Q 102.859 104.437 103.083 104.178 Q 103.307 103.919 103.699 103.919 Q 104.105 103.919 104.329 104.185 Q 104.553 104.451 104.553 104.815 Z " fill="black" /></g><g><path d="M 87.074 119.683 L 87.074 119.683 Q 85.912 119.683 84.981 119.116 Q 84.05 118.549 83.518 117.485 Q 82.986 116.421 82.986 114.951 Q 82.986 113.453 83.532 112.382 Q 84.078 111.311 85.009 110.737 Q 85.94 110.163 87.088 110.163 Q 88.068 110.163 88.698 110.52 Q 89.328 110.877 89.72 111.297 L 89.062 112.067 Q 88.25 111.199 87.13 111.199 Q 86.276 111.199 85.618 111.647 Q 84.96 112.095 84.589 112.928 Q 84.218 113.761 84.218 114.923 Q 84.218 116.057 84.575 116.89 Q 84.932 117.723 85.583 118.178 Q 86.234 118.633 87.116 118.633 Q 87.788 118.633 88.32 118.36 Q 88.852 118.087 89.3 117.611 L 89.944 118.353 Q 89.384 118.983 88.684 119.333 Q 87.984 119.683 87.074 119.683 Z " fill="black" /><path d="M 91.694 119.515 L 91.694 119.515 L 91.694 110.317 L 94.382 110.317 Q 95.432 110.317 96.223 110.576 Q 97.014 110.835 97.462 111.423 Q 97.91 112.011 97.91 113.019 Q 97.91 113.999 97.469 114.636 Q 97.028 115.273 96.251 115.581 Q 95.474 115.889 94.438 115.889 L 92.898 115.889 L 92.898 119.515 Z M 92.898 114.909 L 92.898 114.909 L 94.298 114.909 Q 95.516 114.909 96.111 114.461 Q 96.706 114.013 96.706 113.033 Q 96.706 112.039 96.09 111.661 Q 95.474 111.283 94.242 111.283 L 92.898 111.283 Z " fill="black" /></g></g></g><g><g><g><path d="M 155.63 112.508 L 155.63 112.508 Q 154.622 112.508 153.789 112.137 Q 152.956 111.766 152.34 111.15 L 153.054 110.324 Q 153.558 110.842 154.237 111.15 Q 154.916 111.458 155.686 111.458 Q 156.582 111.458 157.093 111.052 Q 157.604 110.646 157.604 109.96 Q 157.604 109.512 157.401 109.232 Q 157.198 108.952 156.841 108.756 Q 156.484 108.56 156.036 108.378 L 154.692 107.804 Q 154.286 107.622 153.838 107.335 Q 153.39 107.048 153.089 106.593 Q 152.788 106.138 152.788 105.466 Q 152.788 104.738 153.173 104.178 Q 153.558 103.618 154.223 103.303 Q 154.888 102.988 155.728 102.988 Q 156.582 102.988 157.296 103.303 Q 158.01 103.618 158.514 104.122 L 157.884 104.892 Q 157.436 104.486 156.911 104.255 Q 156.386 104.024 155.756 104.024 Q 154.958 104.024 154.482 104.381 Q 154.006 104.738 154.006 105.354 Q 154.006 105.788 154.237 106.068 Q 154.468 106.348 154.825 106.53 Q 155.182 106.712 155.56 106.866 L 156.89 107.426 Q 157.422 107.65 157.863 107.965 Q 158.304 108.28 158.563 108.742 Q 158.822 109.204 158.822 109.848 Q 158.822 110.604 158.437 111.206 Q 158.052 111.808 157.338 112.158 Q 156.624 112.508 155.63 112.508 Z " fill="black" /><path d="M 164.282 102.414 L 164.282 102.414 L 160.642 113.586 L 159.858 113.586 L 163.512 102.414 Z " fill="black" /><path d="M 166.06 112.34 L 166.06 112.34 L 166.06 103.142 L 168.748 103.142 Q 169.798 103.142 170.589 103.401 Q 171.38 103.66 171.828 104.248 Q 172.276 104.836 172.276 105.844 Q 172.276 106.824 171.835 107.461 Q 171.394 108.098 170.617 108.406 Q 169.84 108.714 168.804 108.714 L 167.264 108.714 L 167.264 112.34 Z M 167.264 107.734 L 167.264 107.734 L 168.664 107.734 Q 169.882 107.734 170.477 107.286 Q 171.072 106.838 171.072 105.858 Q 171.072 104.864 170.456 104.486 Q 169.84 104.108 168.608 104.108 L 167.264 104.108 Z " fill="black" /></g></g></g><g><g><g><path d="M 225.005 112.599 L 225.005 112.599 L 225.005 103.401 L 230.423 103.401 L 230.423 104.409 L 226.209 104.409 L 226.209 107.489 L 229.779 107.489 L 229.779 108.497 L 226.209 108.497 L 226.209 112.599 Z " fill="black" /><path d="M 232.089 112.599 L 232.089 112.599 L 232.089 103.401 L 237.507 103.401 L 237.507 104.409 L 233.293 104.409 L 233.293 107.489 L 236.863 107.489 L 236.863 108.497 L 233.293 108.497 L 233.293 112.599 Z " fill="black" /><path d="M 241.133 112.599 L 241.133 112.599 L 241.133 104.409 L 238.305 104.409 L 238.305 103.401 L 245.165 103.401 L 245.165 104.409 L 242.323 104.409 L 242.323 112.599 Z " fill="black" /></g></g></g><g><g><g><path d="M 299.399 111.521 L 299.399 111.521 L 299.399 102.323 L 304.817 102.323 L 304.817 103.331 L 300.603 103.331 L 300.603 106.201 L 304.159 106.201 L 304.159 107.195 L 300.603 107.195 L 300.603 110.499 L 304.957 110.499 L 304.957 111.521 Z " fill="black" /><path d="M 313.287 113.831 L 313.287 113.831 Q 311.999 113.831 311.117 113.215 Q 310.235 112.599 309.829 111.647 Q 308.821 111.507 308.051 110.898 Q 307.281 110.289 306.847 109.267 Q 306.413 108.245 306.413 106.887 Q 306.413 105.417 306.924 104.36 Q 307.435 103.303 308.338 102.736 Q 309.241 102.169 310.417 102.169 Q 311.607 102.169 312.51 102.736 Q 313.413 103.303 313.924 104.36 Q 314.435 105.417 314.435 106.887 Q 314.435 108.217 314.022 109.218 Q 313.609 110.219 312.86 110.842 Q 312.111 111.465 311.117 111.633 Q 311.439 112.235 312.048 112.536 Q 312.657 112.837 313.441 112.837 Q 313.735 112.837 313.973 112.802 Q 314.211 112.767 314.393 112.711 L 314.631 113.635 Q 314.421 113.705 314.071 113.768 Q 313.721 113.831 313.287 113.831 Z M 310.417 110.695 L 310.417 110.695 Q 311.257 110.695 311.88 110.233 Q 312.503 109.771 312.846 108.917 Q 313.189 108.063 313.189 106.901 Q 313.189 105.165 312.433 104.185 Q 311.677 103.205 310.417 103.205 Q 309.157 103.205 308.401 104.192 Q 307.645 105.179 307.645 106.901 Q 307.645 108.049 307.988 108.903 Q 308.331 109.757 308.954 110.226 Q 309.577 110.695 310.417 110.695 Z " fill="black" /></g></g></g><g><g><g><path d="M 372.155 107.902 L 372.155 107.902 Q 370.867 107.902 369.985 107.286 Q 369.103 106.67 368.697 105.718 Q 367.689 105.578 366.919 104.969 Q 366.149 104.36 365.715 103.338 Q 365.281 102.316 365.281 100.958 Q 365.281 99.488 365.792 98.431 Q 366.303 97.374 367.206 96.807 Q 368.109 96.24 369.285 96.24 Q 370.475 96.24 371.378 96.807 Q 372.281 97.374 372.792 98.431 Q 373.303 99.488 373.303 100.958 Q 373.303 102.288 372.89 103.289 Q 372.477 104.29 371.728 104.913 Q 370.979 105.536 369.985 105.704 Q 370.307 106.306 370.916 106.607 Q 371.525 106.908 372.309 106.908 Q 372.603 106.908 372.841 106.873 Q 373.079 106.838 373.261 106.782 L 373.499 107.706 Q 373.289 107.776 372.939 107.839 Q 372.589 107.902 372.155 107.902 Z M 369.285 104.766 L 369.285 104.766 Q 370.125 104.766 370.748 104.304 Q 371.371 103.842 371.714 102.988 Q 372.057 102.134 372.057 100.972 Q 372.057 99.236 371.301 98.256 Q 370.545 97.276 369.285 97.276 Q 368.025 97.276 367.269 98.263 Q 366.513 99.25 366.513 100.972 Q 366.513 102.12 366.856 102.974 Q 367.199 103.828 367.822 104.297 Q 368.445 104.766 369.285 104.766 Z " fill="black" /><path d="M 374.101 105.592 L 374.101 105.592 L 377.279 96.394 L 378.623 96.394 L 381.801 105.592 L 380.527 105.592 L 379.645 102.806 L 376.215 102.806 L 375.319 105.592 Z M 376.523 101.868 L 376.523 101.868 L 379.351 101.868 L 378.903 100.468 Q 378.637 99.698 378.413 98.935 Q 378.189 98.172 377.951 97.374 L 377.895 97.374 Q 377.671 98.172 377.447 98.935 Q 377.223 99.698 376.971 100.468 Z " fill="black" /><path d="M 383.117 105.592 L 383.117 105.592 L 383.117 96.394 L 384.559 96.394 L 386.365 101.294 Q 386.533 101.756 386.694 102.239 Q 386.855 102.722 387.037 103.198 L 387.079 103.198 Q 387.247 102.722 387.408 102.239 Q 387.569 101.756 387.737 101.294 L 389.515 96.394 L 390.957 96.394 L 390.957 105.592 L 389.837 105.592 L 389.837 100.58 Q 389.837 99.964 389.886 99.208 Q 389.935 98.452 389.991 97.85 L 389.935 97.85 L 389.193 99.95 L 387.429 104.668 L 386.631 104.668 L 384.853 99.95 L 384.111 97.85 L 384.055 97.85 Q 384.111 98.452 384.16 99.208 Q 384.209 99.964 384.209 100.58 L 384.209 105.592 Z " fill="black" /></g><g><path d="M 364.826 119.592 L 364.826 119.592 L 364.826 110.394 L 367.178 110.394 Q 369.348 110.394 370.482 111.577 Q 371.616 112.76 371.616 114.958 Q 371.616 117.156 370.489 118.374 Q 369.362 119.592 367.234 119.592 Z M 366.03 118.612 L 366.03 118.612 L 367.094 118.612 Q 368.746 118.612 369.565 117.653 Q 370.384 116.694 370.384 114.958 Q 370.384 113.222 369.565 112.298 Q 368.746 111.374 367.094 111.374 L 366.03 111.374 Z " fill="black" /><path d="M 376.152 119.76 L 376.152 119.76 Q 375.27 119.76 374.549 119.347 Q 373.828 118.934 373.401 118.157 Q 372.974 117.38 372.974 116.302 Q 372.974 115.21 373.394 114.426 Q 373.814 113.642 374.507 113.222 Q 375.2 112.802 376.012 112.802 Q 377.188 112.802 377.881 113.642 Q 378.574 114.482 378.574 115.91 Q 378.574 116.092 378.56 116.253 Q 378.546 116.414 378.518 116.54 L 374.08 116.54 Q 374.15 117.604 374.738 118.234 Q 375.326 118.864 376.278 118.864 Q 376.74 118.864 377.146 118.717 Q 377.552 118.57 377.916 118.332 L 378.308 119.06 Q 377.874 119.354 377.342 119.557 Q 376.81 119.76 376.152 119.76 Z M 374.08 115.742 L 374.08 115.742 L 377.594 115.742 Q 377.594 114.748 377.167 114.223 Q 376.74 113.698 375.998 113.698 Q 375.27 113.698 374.731 114.216 Q 374.192 114.734 374.08 115.742 Z " fill="black" /><path d="M 380.184 119.592 L 380.184 119.592 L 380.184 112.956 L 381.108 112.956 L 381.206 113.922 L 381.248 113.922 Q 381.696 113.446 382.186 113.124 Q 382.676 112.802 383.362 112.802 Q 384.062 112.802 384.496 113.152 Q 384.93 113.502 385.112 114.062 Q 385.658 113.488 386.162 113.145 Q 386.666 112.802 387.352 112.802 Q 388.29 112.802 388.794 113.46 Q 389.298 114.118 389.298 115.392 L 389.298 119.592 L 388.178 119.592 L 388.178 115.532 Q 388.178 113.782 387.002 113.782 Q 386.582 113.782 386.19 114.013 Q 385.798 114.244 385.308 114.79 L 385.308 119.592 L 384.188 119.592 L 384.188 115.532 Q 384.188 113.782 383.012 113.782 Q 382.62 113.782 382.221 113.999 Q 381.822 114.216 381.304 114.79 L 381.304 119.592 Z " fill="black" /><path d="M 392.882 118.892 L 392.882 118.892 Q 392.882 119.214 392.658 119.459 Q 392.434 119.704 392.014 119.704 Q 391.594 119.704 391.391 119.466 Q 391.188 119.228 391.188 118.878 Q 391.188 118.514 391.412 118.255 Q 391.636 117.996 392.028 117.996 Q 392.434 117.996 392.658 118.262 Q 392.882 118.528 392.882 118.892 Z " fill="black" /></g></g></g><g><g><g><path d="M 408.049 89.166 L 408.049 89.166 L 407.615 89.166 Q 407.615 88.396 407.538 87.997 Q 407.461 87.598 407.125 87.444 Q 406.789 87.29 406.005 87.29 L 405.207 87.29 L 403.821 94.108 Q 403.695 94.738 403.73 95.039 Q 403.765 95.34 404.045 95.431 Q 404.325 95.522 404.913 95.522 L 404.829 95.942 L 400.839 95.942 L 400.923 95.522 Q 401.511 95.522 401.819 95.431 Q 402.127 95.34 402.281 95.039 Q 402.435 94.738 402.561 94.108 L 403.947 87.29 L 403.149 87.29 Q 402.561 87.29 402.211 87.374 Q 401.861 87.458 401.637 87.661 Q 401.413 87.864 401.238 88.228 Q 401.063 88.592 400.825 89.166 L 400.377 89.166 L 400.951 86.744 L 408.469 86.744 Z " fill="black" /><path d="M 409.117 91.562 L 409.117 91.562 L 409.117 94.6 L 409.166 94.6 Q 409.45 94.267 409.837 94.002 Q 410.224 93.737 410.773 93.737 Q 411.283 93.737 411.699 94.046 Q 412.116 94.355 412.365 94.899 Q 412.615 95.443 412.615 96.148 Q 412.615 97.089 412.272 97.726 Q 411.929 98.363 411.337 98.681 Q 410.744 99 409.989 99 Q 409.548 99 409.176 98.927 Q 408.803 98.853 408.543 98.755 Q 408.284 98.657 408.166 98.608 L 408.166 92.728 Q 408.166 92.365 408.088 92.263 Q 408.009 92.16 407.676 92.16 Q 407.568 92.16 407.475 92.174 Q 407.382 92.189 407.382 92.189 L 407.382 91.817 L 408.715 91.562 Z M 409.117 95.109 L 409.117 95.109 L 409.117 98.049 Q 409.234 98.265 409.489 98.392 Q 409.744 98.52 410.165 98.52 Q 410.685 98.52 410.998 98.24 Q 411.312 97.961 411.454 97.496 Q 411.596 97.03 411.596 96.481 Q 411.596 95.982 411.483 95.526 Q 411.371 95.07 411.087 94.786 Q 410.802 94.502 410.303 94.502 Q 410.038 94.502 409.798 94.605 Q 409.558 94.708 409.381 94.85 Q 409.205 94.992 409.117 95.109 Z " fill="black" /><path d="M 418.117 86.016 L 418.117 86.016 L 414.477 97.188 L 413.693 97.188 L 417.347 86.016 Z " fill="black" /><path d="M 429.863 86.744 L 429.863 86.744 L 429.779 87.164 Q 429.401 87.164 429.198 87.234 Q 428.995 87.304 428.841 87.444 Q 428.715 87.556 428.589 87.717 Q 428.463 87.878 428.351 88.186 Q 428.239 88.494 428.127 89.04 L 426.699 96.054 L 426.237 96.054 L 422.121 88.536 L 422.051 88.536 L 420.959 93.856 Q 420.819 94.556 420.847 94.913 Q 420.875 95.27 421.134 95.396 Q 421.393 95.522 421.911 95.522 L 421.827 95.942 L 418.607 95.942 L 418.691 95.522 Q 419.237 95.522 419.531 95.403 Q 419.825 95.284 419.979 94.92 Q 420.133 94.556 420.273 93.856 L 421.519 87.808 Q 421.281 87.416 421.043 87.29 Q 420.805 87.164 420.357 87.164 L 420.441 86.744 L 422.639 86.744 L 426.419 93.632 L 426.489 93.632 L 427.455 88.97 Q 427.581 88.34 427.588 88.018 Q 427.595 87.696 427.497 87.514 Q 427.371 87.304 427.147 87.234 Q 426.923 87.164 426.475 87.164 L 426.559 86.744 Z " fill="black" /></g></g></g><g><g><g><path d="M 441.348 112.34 L 441.348 112.34 L 441.348 103.142 L 444.036 103.142 Q 445.086 103.142 445.877 103.401 Q 446.668 103.66 447.116 104.248 Q 447.564 104.836 447.564 105.844 Q 447.564 106.824 447.123 107.461 Q 446.682 108.098 445.905 108.406 Q 445.128 108.714 444.092 108.714 L 442.552 108.714 L 442.552 112.34 Z M 442.552 107.734 L 442.552 107.734 L 443.952 107.734 Q 445.17 107.734 445.765 107.286 Q 446.36 106.838 446.36 105.858 Q 446.36 104.864 445.744 104.486 Q 445.128 104.108 443.896 104.108 L 442.552 104.108 Z " fill="black" /><path d="M 453.094 102.414 L 453.094 102.414 L 449.454 113.586 L 448.67 113.586 L 452.324 102.414 Z " fill="black" /><path d="M 457.49 112.508 L 457.49 112.508 Q 456.482 112.508 455.649 112.137 Q 454.816 111.766 454.2 111.15 L 454.914 110.324 Q 455.418 110.842 456.097 111.15 Q 456.776 111.458 457.546 111.458 Q 458.442 111.458 458.953 111.052 Q 459.464 110.646 459.464 109.96 Q 459.464 109.512 459.261 109.232 Q 459.058 108.952 458.701 108.756 Q 458.344 108.56 457.896 108.378 L 456.552 107.804 Q 456.146 107.622 455.698 107.335 Q 455.25 107.048 454.949 106.593 Q 454.648 106.138 454.648 105.466 Q 454.648 104.738 455.033 104.178 Q 455.418 103.618 456.083 103.303 Q 456.748 102.988 457.588 102.988 Q 458.442 102.988 459.156 103.303 Q 459.87 103.618 460.374 104.122 L 459.744 104.892 Q 459.296 104.486 458.771 104.255 Q 458.246 104.024 457.616 104.024 Q 456.818 104.024 456.342 104.381 Q 455.866 104.738 455.866 105.354 Q 455.866 105.788 456.097 106.068 Q 456.328 106.348 456.685 106.53 Q 457.042 106.712 457.42 106.866 L 458.75 107.426 Q 459.282 107.65 459.723 107.965 Q 460.164 108.28 460.423 108.742 Q 460.682 109.204 460.682 109.848 Q 460.682 110.604 460.297 111.206 Q 459.912 111.808 459.198 112.158 Q 458.484 112.508 457.49 112.508 Z " fill="black" /></g></g></g><circle cx="0.0" cy="-0.0" r="2.6999999999999997" style="stroke:black;fill:white;stroke-width:2.0;stroke-dasharray:-;" /><g><g><g><path d="M -59.013 3.07 L -59.013 3.07 L -59.013 -6.128 L -56.227 -6.128 Q -55.261 -6.128 -54.533 -5.904 Q -53.805 -5.68 -53.399 -5.19 Q -52.993 -4.7 -52.993 -3.916 Q -52.993 -3.188 -53.35 -2.635 Q -53.707 -2.082 -54.365 -1.872 L -54.365 -1.816 Q -53.525 -1.662 -52.986 -1.116 Q -52.447 -0.57 -52.447 0.41 Q -52.447 1.292 -52.902 1.88 Q -53.357 2.468 -54.155 2.769 Q -54.953 3.07 -56.003 3.07 Z M -57.809 2.118 L -57.809 2.118 L -56.185 2.118 Q -54.981 2.118 -54.302 1.691 Q -53.623 1.264 -53.623 0.368 Q -53.623 -0.5 -54.274 -0.899 Q -54.925 -1.298 -56.185 -1.298 L -57.809 -1.298 Z M -57.809 -2.208 L -57.809 -2.208 L -56.423 -2.208 Q -55.205 -2.208 -54.687 -2.621 Q -54.169 -3.034 -54.169 -3.734 Q -54.169 -4.518 -54.736 -4.847 Q -55.303 -5.176 -56.367 -5.176 L -57.809 -5.176 Z " fill="black" /><path d="M -50.781 3.07 L -50.781 3.07 L -50.781 -3.566 L -49.661 -3.566 L -49.661 3.07 Z M -50.207 -4.924 L -50.207 -4.924 Q -50.529 -4.924 -50.753 -5.134 Q -50.977 -5.344 -50.977 -5.652 Q -50.977 -5.974 -50.753 -6.177 Q -50.529 -6.38 -50.207 -6.38 Q -49.885 -6.38 -49.661 -6.177 Q -49.437 -5.974 -49.437 -5.652 Q -49.437 -5.344 -49.661 -5.134 Q -49.885 -4.924 -50.207 -4.924 Z " fill="black" /><path d="M -45.405 3.238 L -45.405 3.238 Q -46.385 3.238 -46.812 2.622 Q -47.239 2.006 -47.239 1.012 L -47.239 -2.572 L -48.205 -2.572 L -48.205 -3.412 L -47.183 -3.482 L -47.043 -5.428 L -46.119 -5.428 L -46.119 -3.482 L -44.341 -3.482 L -44.341 -2.572 L -46.119 -2.572 L -46.119 1.04 Q -46.119 1.628 -45.895 1.971 Q -45.671 2.314 -45.139 2.314 Q -44.915 2.314 -44.712 2.258 Q -44.509 2.202 -44.355 2.132 L -44.131 2.986 Q -44.411 3.084 -44.726 3.161 Q -45.041 3.238 -45.405 3.238 Z " fill="black" /><path d="M -42.857 3.07 L -42.857 3.07 L -42.857 -3.566 L -41.933 -3.566 L -41.835 -2.348 L -41.793 -2.348 Q -41.429 -3.006 -40.953 -3.363 Q -40.477 -3.72 -39.861 -3.72 Q -39.707 -3.72 -39.539 -3.692 Q -39.371 -3.664 -39.217 -3.594 L -39.427 -2.6 Q -39.609 -2.656 -39.735 -2.684 Q -39.861 -2.712 -40.015 -2.712 Q -40.477 -2.712 -40.939 -2.376 Q -41.401 -2.04 -41.737 -1.186 L -41.737 3.07 Z " fill="black" /><path d="M -36.641 3.238 L -36.641 3.238 Q -37.453 3.238 -38.006 2.741 Q -38.559 2.244 -38.559 1.348 Q -38.559 0.256 -37.593 -0.325 Q -36.627 -0.906 -34.513 -1.13 Q -34.513 -1.564 -34.625 -1.942 Q -34.737 -2.32 -35.038 -2.558 Q -35.339 -2.796 -35.885 -2.796 Q -36.431 -2.796 -36.935 -2.572 Q -37.439 -2.348 -37.831 -2.096 L -38.279 -2.866 Q -37.817 -3.174 -37.145 -3.447 Q -36.473 -3.72 -35.689 -3.72 Q -34.485 -3.72 -33.939 -2.985 Q -33.393 -2.25 -33.393 -1.004 L -33.393 3.07 L -34.317 3.07 L -34.415 2.272 L -34.443 2.272 Q -34.919 2.664 -35.465 2.951 Q -36.011 3.238 -36.641 3.238 Z M -36.305 2.328 L -36.305 2.328 Q -35.829 2.328 -35.409 2.097 Q -34.989 1.866 -34.513 1.46 L -34.513 -0.388 Q -36.137 -0.192 -36.802 0.214 Q -37.467 0.62 -37.467 1.278 Q -37.467 1.824 -37.124 2.076 Q -36.781 2.328 -36.305 2.328 Z " fill="black" /><path d="M -29.291 3.238 L -29.291 3.238 Q -30.271 3.238 -30.698 2.622 Q -31.125 2.006 -31.125 1.012 L -31.125 -2.572 L -32.091 -2.572 L -32.091 -3.412 L -31.069 -3.482 L -30.929 -5.428 L -30.005 -5.428 L -30.005 -3.482 L -28.227 -3.482 L -28.227 -2.572 L -30.005 -2.572 L -30.005 1.04 Q -30.005 1.628 -29.781 1.971 Q -29.557 2.314 -29.025 2.314 Q -28.801 2.314 -28.598 2.258 Q -28.395 2.202 -28.241 2.132 L -28.017 2.986 Q -28.297 3.084 -28.612 3.161 Q -28.927 3.238 -29.291 3.238 Z " fill="black" /><path d="M -24.055 3.238 L -24.055 3.238 Q -24.937 3.238 -25.658 2.825 Q -26.379 2.412 -26.806 1.635 Q -27.233 0.858 -27.233 -0.22 Q -27.233 -1.312 -26.813 -2.096 Q -26.393 -2.88 -25.7 -3.3 Q -25.007 -3.72 -24.195 -3.72 Q -23.019 -3.72 -22.326 -2.88 Q -21.633 -2.04 -21.633 -0.612 Q -21.633 -0.43 -21.647 -0.269 Q -21.661 -0.108 -21.689 0.018 L -26.127 0.018 Q -26.057 1.082 -25.469 1.712 Q -24.881 2.342 -23.929 2.342 Q -23.467 2.342 -23.061 2.195 Q -22.655 2.048 -22.291 1.81 L -21.899 2.538 Q -22.333 2.832 -22.865 3.035 Q -23.397 3.238 -24.055 3.238 Z M -26.127 -0.78 L -26.127 -0.78 L -22.613 -0.78 Q -22.613 -1.774 -23.04 -2.299 Q -23.467 -2.824 -24.209 -2.824 Q -24.937 -2.824 -25.476 -2.306 Q -26.015 -1.788 -26.127 -0.78 Z " fill="black" /></g><g><path d="M -10.335 -3.706 L -10.335 -3.706 L -10.769 -3.706 Q -10.769 -4.476 -10.846 -4.875 Q -10.923 -5.274 -11.259 -5.428 Q -11.595 -5.582 -12.379 -5.582 L -13.177 -5.582 L -14.563 1.236 Q -14.689 1.866 -14.654 2.167 Q -14.619 2.468 -14.339 2.559 Q -14.059 2.65 -13.471 2.65 L -13.555 3.07 L -17.545 3.07 L -17.461 2.65 Q -16.873 2.65 -16.565 2.559 Q -16.257 2.468 -16.103 2.167 Q -15.949 1.866 -15.823 1.236 L -14.437 -5.582 L -15.235 -5.582 Q -15.823 -5.582 -16.173 -5.498 Q -16.523 -5.414 -16.747 -5.211 Q -16.971 -5.008 -17.146 -4.644 Q -17.321 -4.28 -17.559 -3.706 L -18.007 -3.706 L -17.433 -6.128 L -9.915 -6.128 Z " fill="black" /><path d="M -9.267 -1.31 L -9.267 -1.31 L -9.267 1.728 L -9.218 1.728 Q -8.933 1.394 -8.546 1.13 Q -8.159 0.865 -7.61 0.865 Q -7.101 0.865 -6.684 1.174 Q -6.268 1.483 -6.018 2.027 Q -5.768 2.57 -5.768 3.276 Q -5.768 4.217 -6.111 4.854 Q -6.454 5.491 -7.047 5.809 Q -7.64 6.128 -8.394 6.128 Q -8.835 6.128 -9.208 6.054 Q -9.58 5.981 -9.84 5.883 Q -10.1 5.785 -10.217 5.736 L -10.217 -0.144 Q -10.217 -0.507 -10.296 -0.61 Q -10.374 -0.713 -10.707 -0.713 Q -10.815 -0.713 -10.908 -0.698 Q -11.001 -0.683 -11.001 -0.683 L -11.001 -1.056 L -9.668 -1.31 Z M -9.267 2.237 L -9.267 2.237 L -9.267 5.177 Q -9.149 5.393 -8.894 5.52 Q -8.639 5.648 -8.218 5.648 Q -7.699 5.648 -7.385 5.368 Q -7.071 5.089 -6.929 4.624 Q -6.787 4.158 -6.787 3.609 Q -6.787 3.109 -6.9 2.654 Q -7.013 2.198 -7.297 1.914 Q -7.581 1.63 -8.081 1.63 Q -8.345 1.63 -8.585 1.733 Q -8.826 1.835 -9.002 1.978 Q -9.178 2.12 -9.267 2.237 Z " fill="black" /></g></g></g><circle cx="504.0" cy="108.0" r="2.6999999999999997" style="stroke:black;fill:white;stroke-width:2.0;stroke-dasharray:-;" /><g><g><g><path d="M 511.588 111.07 L 511.588 111.07 L 511.588 101.872 L 514.374 101.872 Q 515.34 101.872 516.068 102.096 Q 516.796 102.32 517.202 102.81 Q 517.608 103.3 517.608 104.084 Q 517.608 104.812 517.251 105.365 Q 516.894 105.918 516.236 106.128 L 516.236 106.184 Q 517.076 106.338 517.615 106.884 Q 518.154 107.43 518.154 108.41 Q 518.154 109.292 517.699 109.88 Q 517.244 110.468 516.446 110.769 Q 515.648 111.07 514.598 111.07 Z M 512.792 110.118 L 512.792 110.118 L 514.416 110.118 Q 515.62 110.118 516.299 109.691 Q 516.978 109.264 516.978 108.368 Q 516.978 107.5 516.327 107.101 Q 515.676 106.702 514.416 106.702 L 512.792 106.702 Z M 512.792 105.792 L 512.792 105.792 L 514.178 105.792 Q 515.396 105.792 515.914 105.379 Q 516.432 104.966 516.432 104.266 Q 516.432 103.482 515.865 103.153 Q 515.298 102.824 514.234 102.824 L 512.792 102.824 Z " fill="black" /><path d="M 519.82 111.07 L 519.82 111.07 L 519.82 104.434 L 520.94 104.434 L 520.94 111.07 Z M 520.394 103.076 L 520.394 103.076 Q 520.072 103.076 519.848 102.866 Q 519.624 102.656 519.624 102.348 Q 519.624 102.026 519.848 101.823 Q 520.072 101.62 520.394 101.62 Q 520.716 101.62 520.94 101.823 Q 521.164 102.026 521.164 102.348 Q 521.164 102.656 520.94 102.866 Q 520.716 103.076 520.394 103.076 Z " fill="black" /><path d="M 525.196 111.238 L 525.196 111.238 Q 524.216 111.238 523.789 110.622 Q 523.362 110.006 523.362 109.012 L 523.362 105.428 L 522.396 105.428 L 522.396 104.588 L 523.418 104.518 L 523.558 102.572 L 524.482 102.572 L 524.482 104.518 L 526.26 104.518 L 526.26 105.428 L 524.482 105.428 L 524.482 109.04 Q 524.482 109.628 524.706 109.971 Q 524.93 110.314 525.462 110.314 Q 525.686 110.314 525.889 110.258 Q 526.092 110.202 526.246 110.132 L 526.47 110.986 Q 526.19 111.084 525.875 111.161 Q 525.56 111.238 525.196 111.238 Z " fill="black" /><path d="M 527.744 111.07 L 527.744 111.07 L 527.744 104.434 L 528.668 104.434 L 528.766 105.652 L 528.808 105.652 Q 529.172 104.994 529.648 104.637 Q 530.124 104.28 530.74 104.28 Q 530.894 104.28 531.062 104.308 Q 531.23 104.336 531.384 104.406 L 531.174 105.4 Q 530.992 105.344 530.866 105.316 Q 530.74 105.288 530.586 105.288 Q 530.124 105.288 529.662 105.624 Q 529.2 105.96 528.864 106.814 L 528.864 111.07 Z " fill="black" /><path d="M 533.96 111.238 L 533.96 111.238 Q 533.148 111.238 532.595 110.741 Q 532.042 110.244 532.042 109.348 Q 532.042 108.256 533.008 107.675 Q 533.974 107.094 536.088 106.87 Q 536.088 106.436 535.976 106.058 Q 535.864 105.68 535.563 105.442 Q 535.262 105.204 534.716 105.204 Q 534.17 105.204 533.666 105.428 Q 533.162 105.652 532.77 105.904 L 532.322 105.134 Q 532.784 104.826 533.456 104.553 Q 534.128 104.28 534.912 104.28 Q 536.116 104.28 536.662 105.015 Q 537.208 105.75 537.208 106.996 L 537.208 111.07 L 536.284 111.07 L 536.186 110.272 L 536.158 110.272 Q 535.682 110.664 535.136 110.951 Q 534.59 111.238 533.96 111.238 Z M 534.296 110.328 L 534.296 110.328 Q 534.772 110.328 535.192 110.097 Q 535.612 109.866 536.088 109.46 L 536.088 107.612 Q 534.464 107.808 533.799 108.214 Q 533.134 108.62 533.134 109.278 Q 533.134 109.824 533.477 110.076 Q 533.82 110.328 534.296 110.328 Z " fill="black" /><path d="M 541.31 111.238 L 541.31 111.238 Q 540.33 111.238 539.903 110.622 Q 539.476 110.006 539.476 109.012 L 539.476 105.428 L 538.51 105.428 L 538.51 104.588 L 539.532 104.518 L 539.672 102.572 L 540.596 102.572 L 540.596 104.518 L 542.374 104.518 L 542.374 105.428 L 540.596 105.428 L 540.596 109.04 Q 540.596 109.628 540.82 109.971 Q 541.044 110.314 541.576 110.314 Q 541.8 110.314 542.003 110.258 Q 542.206 110.202 542.36 110.132 L 542.584 110.986 Q 542.304 111.084 541.989 111.161 Q 541.674 111.238 541.31 111.238 Z " fill="black" /><path d="M 546.546 111.238 L 546.546 111.238 Q 545.664 111.238 544.943 110.825 Q 544.222 110.412 543.795 109.635 Q 543.368 108.858 543.368 107.78 Q 543.368 106.688 543.788 105.904 Q 544.208 105.12 544.901 104.7 Q 545.594 104.28 546.406 104.28 Q 547.582 104.28 548.275 105.12 Q 548.968 105.96 548.968 107.388 Q 548.968 107.57 548.954 107.731 Q 548.94 107.892 548.912 108.018 L 544.474 108.018 Q 544.544 109.082 545.132 109.712 Q 545.72 110.342 546.672 110.342 Q 547.134 110.342 547.54 110.195 Q 547.946 110.048 548.31 109.81 L 548.702 110.538 Q 548.268 110.832 547.736 111.035 Q 547.204 111.238 546.546 111.238 Z M 544.474 107.22 L 544.474 107.22 L 547.988 107.22 Q 547.988 106.226 547.561 105.701 Q 547.134 105.176 546.392 105.176 Q 545.664 105.176 545.125 105.694 Q 544.586 106.212 544.474 107.22 Z " fill="black" /></g><g><path d="M 560.266 104.294 L 560.266 104.294 L 559.832 104.294 Q 559.832 103.524 559.755 103.125 Q 559.678 102.726 559.342 102.572 Q 559.006 102.418 558.222 102.418 L 557.424 102.418 L 556.038 109.236 Q 555.912 109.866 555.947 110.167 Q 555.982 110.468 556.262 110.559 Q 556.542 110.65 557.13 110.65 L 557.046 111.07 L 553.056 111.07 L 553.14 110.65 Q 553.728 110.65 554.036 110.559 Q 554.344 110.468 554.498 110.167 Q 554.652 109.866 554.778 109.236 L 556.164 102.418 L 555.366 102.418 Q 554.778 102.418 554.428 102.502 Q 554.078 102.586 553.854 102.789 Q 553.63 102.992 553.455 103.356 Q 553.28 103.72 553.042 104.294 L 552.594 104.294 L 553.168 101.872 L 560.686 101.872 Z " fill="black" /><path d="M 561.334 106.69 L 561.334 106.69 L 561.334 109.728 L 561.383 109.728 Q 561.667 109.394 562.055 109.13 Q 562.442 108.865 562.99 108.865 Q 563.5 108.865 563.917 109.174 Q 564.333 109.483 564.583 110.026 Q 564.833 110.57 564.833 111.276 Q 564.833 112.217 564.49 112.854 Q 564.147 113.491 563.554 113.809 Q 562.961 114.128 562.206 114.128 Q 561.765 114.128 561.393 114.054 Q 561.021 113.981 560.761 113.883 Q 560.501 113.785 560.384 113.736 L 560.384 107.856 Q 560.384 107.493 560.305 107.39 Q 560.227 107.287 559.894 107.287 Q 559.786 107.287 559.693 107.302 Q 559.6 107.317 559.6 107.317 L 559.6 106.944 L 560.932 106.69 Z M 561.334 110.237 L 561.334 110.237 L 561.334 113.177 Q 561.452 113.393 561.707 113.52 Q 561.961 113.648 562.383 113.648 Q 562.902 113.648 563.216 113.368 Q 563.529 113.089 563.672 112.623 Q 563.814 112.158 563.814 111.609 Q 563.814 111.109 563.701 110.654 Q 563.588 110.198 563.304 109.914 Q 563.02 109.63 562.52 109.63 Q 562.255 109.63 562.015 109.733 Q 561.775 109.835 561.599 109.977 Q 561.422 110.12 561.334 110.237 Z " fill="black" /></g></g></g></svg>