<svg xmlns="http://www.w3.org/2000/svg" xmlns:xlink="http://www.w3.org/1999/xlink" xml:lang="en" height="175.20159999999998pt" width="239.98459999999994pt" viewBox="-35.9984 -75.5616 239.98459999999994 175.20159999999998"><path d="M 0.0,-0.0 L 18.0,-0.0 L 36.0,-0.0" style="stroke:black;fill:none;stroke-width:2.0;stroke-dasharray:-;stroke-linecap:round;stroke-linejoin:round;" /><path d="M 36.0,-0.0 L 54.0,-0.0 L 84.60000000000001,-16.2 M 90.0,-0.0 L 108.0,-0.0" style="stroke:black;fill:none;stroke-width:2.0;stroke-dasharray:-;stroke-linecap:round;stroke-linejoin:round;" /><path d="M 108.0,-0.0 L 117.0,-0.0 L 126.0,-0.0" style="stroke:black;fill:none;stroke-width:2.0;stroke-dasharray:-;stroke-linecap:round;stroke-linejoin:round;" /><path d="M 126.0,-0.0 L 126.0,18.0 L 135.0,21.0 L 117.0,27.0 L 135.0,33.0 L 117.0,39.0 L 135.0,45.0 L 116.99999999999999,50.99999999999999 L 125.99999999999999,54.0 L 125.99999999999999,72.0" style="stroke:black;fill:none;stroke-width:2.0;stroke-dasharray:-;stroke-linecap:round;stroke-linejoin:round;" /><path d="M 125.99999999999999,72.0 L 125.99999999999999,86.39999999999999 L 116.99999999999999,86.39999999999999 L 134.99999999999997,86.39999999999999 M 119.69999999999999,90.72 L 132.29999999999998,90.72 M 124.19999999999999,95.04 L 127.79999999999998,95.04" style="stroke:black;fill:none;stroke-width:2.0;stroke-dasharray:-;stroke-linecap:round;stroke-linejoin:round;" /><path d="M 126.0,-0.0 L 144.0,-0.0 L 153.0,-0.0" style="stroke:black;fill:none;stroke-width:2.0;stroke-dasharray:-;stroke-linecap:round;stroke-linejoin:round;" /><path d="M 160.0 0.0 L 153.0 2.6999999999999997 L 153.0 -2.6999999999999997 Z" style="stroke:black;fill:black;stroke-linecap:butt;stroke-linejoin:miter;" /><path d="M 72.0,-27.0 L 72.0,-36.0 L 72.0,-54.0" style="stroke:black;fill:none;stroke-width:2.0;stroke-dasharray:-;stroke-linecap:round;stroke-linejoin:round;" /><path d="M 72.0 -20.0 L 69.3 -27.0 L 74.7 -27.0 Z" style="stroke:black;fill:black;stroke-linecap:butt;stroke-linejoin:miter;" /><g><g><g><path d="M -28.132 -3.024 L -28.132 -3.024 L -28.454 -0.84 L -28.79 -0.84 Q -28.818 -1.652 -29.161 -2.128 Q -29.504 -2.604 -30.12 -2.604 Q -30.666 -2.604 -30.904 -2.31 Q -31.142 -2.016 -31.142 -1.708 Q -31.142 -1.414 -30.939 -1.141 Q -30.736 -0.868 -30.428 -0.581 Q -30.12 -0.294 -29.812 0.042 Q -29.364 0.518 -29.035 0.973 Q -28.706 1.428 -28.706 2.1 Q -28.706 2.506 -28.909 2.905 Q -29.112 3.304 -29.574 3.57 Q -30.036 3.836 -30.834 3.836 Q -31.492 3.836 -31.891 3.675 Q -32.29 3.514 -32.444 3.458 L -32.486 3.458 L -32.822 3.836 L -33.13 3.836 L -32.766 1.498 L -32.416 1.498 Q -32.304 2.408 -31.989 2.884 Q -31.674 3.36 -30.96 3.36 Q -30.47 3.36 -30.169 3.122 Q -29.868 2.884 -29.868 2.338 Q -29.868 1.764 -30.183 1.365 Q -30.498 0.966 -30.904 0.588 Q -31.184 0.308 -31.471 0.042 Q -31.758 -0.224 -31.947 -0.553 Q -32.136 -0.882 -32.136 -1.316 Q -32.136 -2.03 -31.66 -2.527 Q -31.184 -3.024 -30.232 -3.024 Q -29.672 -3.024 -29.301 -2.87 Q -28.93 -2.716 -28.804 -2.646 L -28.762 -2.646 L -28.398 -3.024 Z " fill="black" /><path d="M -25.031 6.259 L -25.031 6.259 L -25.031 6.622 L -27.52 6.622 L -27.52 6.259 Q -27.177 6.259 -27.026 6.186 Q -26.874 6.112 -26.834 5.951 Q -26.795 5.789 -26.795 5.524 L -26.795 2.565 Q -26.795 2.232 -26.903 2.163 Q -27.011 2.094 -27.266 2.094 Q -27.393 2.094 -27.471 2.104 Q -27.55 2.114 -27.55 2.114 L -27.55 1.722 L -26.237 1.506 L -25.835 1.506 L -25.835 5.524 Q -25.835 5.809 -25.791 5.97 Q -25.747 6.132 -25.575 6.196 Q -25.404 6.259 -25.031 6.259 Z M -26.325 -0.659 L -26.325 -0.659 Q -26.041 -0.659 -25.849 -0.463 Q -25.658 -0.267 -25.658 -0.013 Q -25.658 0.223 -25.849 0.419 Q -26.041 0.615 -26.325 0.615 Q -26.599 0.615 -26.78 0.419 Q -26.962 0.223 -26.962 -0.013 Q -26.962 -0.267 -26.78 -0.463 Q -26.599 -0.659 -26.325 -0.659 Z " fill="black" /><path d="M -19.21 3.339 L -19.21 3.339 L -19.21 5.534 Q -19.21 5.809 -19.161 5.97 Q -19.112 6.132 -18.945 6.201 Q -18.779 6.269 -18.426 6.269 L -18.426 6.622 L -20.945 6.622 L -20.945 6.269 Q -20.572 6.269 -20.406 6.201 Q -20.239 6.132 -20.2 5.97 Q -20.161 5.809 -20.161 5.534 L -20.161 3.662 Q -20.161 3.006 -20.312 2.697 Q -20.464 2.388 -20.695 2.29 Q -20.925 2.192 -21.16 2.192 Q -21.582 2.192 -21.9 2.408 Q -22.219 2.624 -22.454 2.82 L -22.454 5.534 Q -22.454 5.809 -22.41 5.97 Q -22.366 6.132 -22.199 6.201 Q -22.032 6.269 -21.67 6.269 L -21.67 6.622 L -24.139 6.622 L -24.139 6.269 Q -23.796 6.269 -23.645 6.201 Q -23.493 6.132 -23.453 5.97 Q -23.414 5.809 -23.414 5.534 L -23.414 2.555 Q -23.414 2.281 -23.517 2.188 Q -23.62 2.094 -23.845 2.094 Q -23.963 2.094 -24.041 2.104 Q -24.12 2.114 -24.12 2.114 L -24.12 1.742 L -22.807 1.506 L -22.483 1.506 L -22.483 2.31 L -22.415 2.31 Q -21.993 1.928 -21.606 1.702 Q -21.219 1.477 -20.729 1.477 Q -20.151 1.477 -19.822 1.737 Q -19.494 1.996 -19.352 2.418 Q -19.21 2.839 -19.21 3.339 Z " fill="black" /><path d="M -17.404 -0.098 L -17.404 -0.098 Q -17.404 -2.436 -16.389 -4.088 Q -15.374 -5.74 -13.68 -6.622 L -13.456 -6.258 Q -14.982 -5.222 -15.619 -3.731 Q -16.256 -2.24 -16.256 -0.098 Q -16.256 2.044 -15.619 3.535 Q -14.982 5.026 -13.456 6.062 L -13.68 6.426 Q -15.374 5.544 -16.389 3.892 Q -17.404 2.24 -17.404 -0.098 Z " fill="black" /><path d="M -8.598 -2.856 L -8.598 -2.856 L -8.71 -2.31 L -10.124 -2.31 L -10.95 1.862 Q -10.95 1.862 -10.999 2.121 Q -11.048 2.38 -11.048 2.562 Q -11.048 2.674 -10.999 2.765 Q -10.95 2.856 -10.81 2.856 Q -10.502 2.856 -10.243 2.674 Q -9.984 2.492 -9.62 2.016 L -9.34 2.226 Q -9.536 2.492 -9.816 2.87 Q -10.096 3.248 -10.488 3.528 Q -10.88 3.808 -11.44 3.808 Q -11.874 3.808 -12.084 3.598 Q -12.294 3.388 -12.294 3.066 Q -12.294 2.884 -12.252 2.625 Q -12.21 2.366 -12.196 2.268 L -11.244 -2.31 L -12.042 -2.31 L -11.986 -2.604 Q -11.538 -2.842 -11.237 -3.066 Q -10.936 -3.29 -10.663 -3.654 Q -10.39 -4.018 -10.04 -4.62 L -9.62 -4.62 L -10.012 -2.856 Z " fill="black" /><path d="M -3.936 -0.098 L -3.936 -0.098 Q -3.936 2.24 -4.951 3.892 Q -5.966 5.544 -7.66 6.426 L -7.884 6.062 Q -6.344 5.026 -5.714 3.535 Q -5.084 2.044 -5.084 -0.098 Q -5.084 -2.24 -5.714 -3.731 Q -6.344 -5.222 -7.884 -6.258 L -7.66 -6.622 Q -5.966 -5.74 -4.951 -4.088 Q -3.936 -2.436 -3.936 -0.098 Z " fill="black" /></g></g></g><circle cx="126.0" cy="-0.0" r="2.6999999999999997" style="stroke:black;fill:black;stroke-width:2.0;stroke-dasharray:-;" /><g><g><g><path d="M 170.892 -3.083 L 170.892 -3.083 L 170.57 -0.899 L 170.234 -0.899 Q 170.206 -1.711 169.863 -2.187 Q 169.52 -2.663 168.904 -2.663 Q 168.358 -2.663 168.12 -2.369 Q 167.882 -2.075 167.882 -1.767 Q 167.882 -1.473 168.085 -1.2 Q 168.288 -0.927 168.596 -0.64 Q 168.904 -0.353 169.212 -0.017 Q 169.66 0.459 169.989 0.914 Q 170.318 1.369 170.318 2.041 Q 170.318 2.447 170.115 2.846 Q 169.912 3.245 169.45 3.511 Q 168.988 3.777 168.19 3.777 Q 167.532 3.777 167.133 3.616 Q 166.734 3.455 166.58 3.399 L 166.538 3.399 L 166.202 3.777 L 165.894 3.777 L 166.258 1.439 L 166.608 1.439 Q 166.72 2.349 167.035 2.825 Q 167.35 3.301 168.064 3.301 Q 168.554 3.301 168.855 3.063 Q 169.156 2.825 169.156 2.279 Q 169.156 1.705 168.841 1.306 Q 168.526 0.907 168.12 0.529 Q 167.84 0.249 167.553 -0.017 Q 167.266 -0.283 167.077 -0.612 Q 166.888 -0.941 166.888 -1.375 Q 166.888 -2.089 167.364 -2.586 Q 167.84 -3.083 168.792 -3.083 Q 169.352 -3.083 169.723 -2.929 Q 170.094 -2.775 170.22 -2.705 L 170.262 -2.705 L 170.626 -3.083 Z " fill="black" /><path d="M 174.032 1.418 L 174.032 1.418 Q 174.767 1.418 175.316 1.737 Q 175.865 2.055 176.164 2.629 Q 176.463 3.202 176.463 3.976 Q 176.463 4.907 176.149 5.505 Q 175.835 6.103 175.287 6.392 Q 174.738 6.681 174.032 6.681 Q 173.317 6.681 172.763 6.382 Q 172.209 6.083 171.901 5.485 Q 171.592 4.887 171.592 3.986 Q 171.592 3.221 171.896 2.643 Q 172.2 2.065 172.748 1.742 Q 173.297 1.418 174.032 1.418 Z M 174.013 1.869 L 174.013 1.869 Q 173.366 1.869 172.998 2.393 Q 172.631 2.918 172.631 3.927 Q 172.631 5.172 173.008 5.686 Q 173.385 6.201 174.062 6.201 Q 174.493 6.191 174.797 5.985 Q 175.1 5.779 175.262 5.294 Q 175.424 4.809 175.424 3.976 Q 175.424 2.976 175.081 2.423 Q 174.738 1.869 174.013 1.869 Z " fill="black" /><path d="M 183.127 6.063 L 183.127 6.063 L 183.127 6.436 L 181.804 6.612 L 181.49 6.612 L 181.49 5.848 L 181.392 5.848 Q 181.02 6.181 180.637 6.421 Q 180.255 6.661 179.716 6.661 Q 178.991 6.661 178.609 6.22 Q 178.227 5.779 178.227 4.691 L 178.227 2.584 Q 178.227 2.183 178.084 2.09 Q 177.942 1.996 177.492 1.996 L 177.492 1.644 L 178.854 1.457 L 179.177 1.457 L 179.177 4.564 Q 179.177 5.113 179.305 5.417 Q 179.432 5.72 179.648 5.838 Q 179.863 5.956 180.118 5.956 Q 180.549 5.956 180.838 5.774 Q 181.127 5.593 181.441 5.338 L 181.441 2.584 Q 181.441 2.183 181.265 2.09 Q 181.088 1.996 180.588 1.996 L 180.588 1.644 L 182.049 1.457 L 182.392 1.457 L 182.392 5.426 Q 182.392 5.72 182.446 5.858 Q 182.499 5.995 182.637 6.029 Q 182.774 6.063 183.019 6.063 Z " fill="black" /><path d="M 186.949 5.583 L 186.949 5.583 L 187.174 5.769 Q 186.958 6.063 186.782 6.264 Q 186.606 6.465 186.38 6.573 Q 186.155 6.681 185.802 6.681 Q 185.234 6.681 184.974 6.357 Q 184.714 6.034 184.714 5.319 L 184.714 2.026 L 184.097 2.026 L 184.097 1.732 Q 184.45 1.477 184.744 1.11 Q 185.038 0.742 185.332 0.056 L 185.675 0.056 L 185.665 1.546 L 186.909 1.546 L 186.909 2.026 L 185.665 2.026 L 185.665 4.995 Q 185.665 5.544 185.768 5.774 Q 185.871 6.005 186.184 6.005 Q 186.468 6.005 186.615 5.902 Q 186.762 5.799 186.949 5.583 Z " fill="black" /><path d="M 188.059 -0.157 L 188.059 -0.157 Q 188.059 -2.495 189.074 -4.147 Q 190.089 -5.799 191.783 -6.681 L 192.007 -6.317 Q 190.481 -5.281 189.844 -3.79 Q 189.207 -2.299 189.207 -0.157 Q 189.207 1.985 189.844 3.476 Q 190.481 4.967 192.007 6.003 L 191.783 6.367 Q 190.089 5.485 189.074 3.833 Q 188.059 2.181 188.059 -0.157 Z " fill="black" /><path d="M 196.865 -2.915 L 196.865 -2.915 L 196.753 -2.369 L 195.339 -2.369 L 194.513 1.803 Q 194.513 1.803 194.464 2.062 Q 194.415 2.321 194.415 2.503 Q 194.415 2.615 194.464 2.706 Q 194.513 2.797 194.653 2.797 Q 194.961 2.797 195.22 2.615 Q 195.479 2.433 195.843 1.957 L 196.123 2.167 Q 195.927 2.433 195.647 2.811 Q 195.367 3.189 194.975 3.469 Q 194.583 3.749 194.023 3.749 Q 193.589 3.749 193.379 3.539 Q 193.169 3.329 193.169 3.007 Q 193.169 2.825 193.211 2.566 Q 193.253 2.307 193.267 2.209 L 194.219 -2.369 L 193.421 -2.369 L 193.477 -2.663 Q 193.925 -2.901 194.226 -3.125 Q 194.527 -3.349 194.8 -3.713 Q 195.073 -4.077 195.423 -4.679 L 195.843 -4.679 L 195.451 -2.915 Z " fill="black" /><path d="M 201.527 -0.157 L 201.527 -0.157 Q 201.527 2.181 200.512 3.833 Q 199.497 5.485 197.803 6.367 L 197.579 6.003 Q 199.119 4.967 199.749 3.476 Q 200.379 1.985 200.379 -0.157 Q 200.379 -2.299 199.749 -3.79 Q 199.119 -5.281 197.579 -6.317 L 197.803 -6.681 Q 199.497 -5.799 200.512 -4.147 Q 201.527 -2.495 201.527 -0.157 Z " fill="black" /></g></g></g><g><g><g><path d="M 60.047 -67.383 L 60.047 -67.383 L 59.725 -65.199 L 59.389 -65.199 Q 59.361 -66.011 59.018 -66.487 Q 58.675 -66.963 58.059 -66.963 Q 57.514 -66.963 57.276 -66.669 Q 57.038 -66.375 57.038 -66.067 Q 57.038 -65.773 57.24 -65.5 Q 57.444 -65.227 57.752 -64.94 Q 58.059 -64.653 58.367 -64.317 Q 58.816 -63.841 59.145 -63.386 Q 59.474 -62.931 59.474 -62.259 Q 59.474 -61.853 59.27 -61.454 Q 59.067 -61.055 58.605 -60.789 Q 58.143 -60.523 57.346 -60.523 Q 56.688 -60.523 56.288 -60.684 Q 55.889 -60.845 55.735 -60.901 L 55.694 -60.901 L 55.357 -60.523 L 55.049 -60.523 L 55.413 -62.861 L 55.764 -62.861 Q 55.875 -61.951 56.191 -61.475 Q 56.505 -60.999 57.219 -60.999 Q 57.709 -60.999 58.011 -61.237 Q 58.311 -61.475 58.311 -62.021 Q 58.311 -62.595 57.996 -62.994 Q 57.681 -63.393 57.276 -63.771 Q 56.995 -64.051 56.709 -64.317 Q 56.421 -64.583 56.233 -64.912 Q 56.043 -65.241 56.043 -65.675 Q 56.043 -66.389 56.52 -66.886 Q 56.995 -67.383 57.947 -67.383 Q 58.508 -67.383 58.878 -67.229 Q 59.249 -67.075 59.376 -67.005 L 59.417 -67.005 L 59.782 -67.383 Z " fill="black" /><path d="M 66.392 -59.825 L 66.392 -59.825 L 66.137 -57.737 L 60.747 -57.737 L 60.747 -58.11 Q 61.188 -58.11 61.394 -58.183 Q 61.6 -58.257 61.664 -58.467 Q 61.727 -58.678 61.727 -59.09 L 61.727 -63.176 Q 61.727 -63.607 61.664 -63.838 Q 61.6 -64.068 61.394 -64.161 Q 61.188 -64.254 60.747 -64.254 L 60.747 -64.627 L 63.805 -64.627 L 63.805 -64.254 Q 63.374 -64.254 63.148 -64.166 Q 62.923 -64.078 62.84 -63.843 Q 62.756 -63.607 62.756 -63.166 L 62.756 -58.815 Q 62.756 -58.433 62.913 -58.33 Q 63.07 -58.227 63.462 -58.227 L 64.089 -58.227 Q 64.609 -58.227 64.922 -58.296 Q 65.236 -58.364 65.417 -58.536 Q 65.598 -58.707 65.716 -59.021 Q 65.834 -59.335 65.981 -59.825 Z " fill="black" /><path d="M 74.173 -61.148 L 74.173 -61.148 Q 74.173 -60.05 73.752 -59.256 Q 73.331 -58.462 72.556 -58.031 Q 71.782 -57.6 70.714 -57.6 Q 69.656 -57.6 68.882 -58.031 Q 68.107 -58.462 67.686 -59.266 Q 67.264 -60.07 67.264 -61.187 Q 67.264 -62.255 67.686 -63.054 Q 68.107 -63.852 68.886 -64.298 Q 69.665 -64.744 70.714 -64.744 Q 71.782 -64.744 72.556 -64.279 Q 73.331 -63.813 73.752 -63.005 Q 74.173 -62.196 74.173 -61.148 Z M 72.929 -61.285 L 72.929 -61.285 Q 72.929 -62.716 72.326 -63.48 Q 71.724 -64.244 70.704 -64.244 Q 69.695 -64.244 69.102 -63.47 Q 68.509 -62.696 68.509 -61.255 Q 68.509 -59.756 69.048 -58.943 Q 69.587 -58.129 70.724 -58.129 Q 71.861 -58.129 72.395 -58.918 Q 72.929 -59.707 72.929 -61.285 Z " fill="black" /><path d="M 75.44 -64.457 L 75.44 -64.457 Q 75.44 -66.795 76.455 -68.447 Q 77.47 -70.099 79.164 -70.981 L 79.388 -70.617 Q 77.862 -69.581 77.225 -68.09 Q 76.588 -66.599 76.588 -64.457 Q 76.588 -62.315 77.225 -60.824 Q 77.862 -59.333 79.388 -58.297 L 79.164 -57.933 Q 77.47 -58.815 76.455 -60.467 Q 75.44 -62.119 75.44 -64.457 Z " fill="black" /><path d="M 84.246 -67.215 L 84.246 -67.215 L 84.135 -66.669 L 82.721 -66.669 L 81.894 -62.497 Q 81.894 -62.497 81.846 -62.238 Q 81.796 -61.979 81.796 -61.797 Q 81.796 -61.685 81.846 -61.594 Q 81.894 -61.503 82.034 -61.503 Q 82.343 -61.503 82.602 -61.685 Q 82.861 -61.867 83.224 -62.343 L 83.504 -62.133 Q 83.308 -61.867 83.028 -61.489 Q 82.748 -61.111 82.356 -60.831 Q 81.965 -60.551 81.404 -60.551 Q 80.971 -60.551 80.76 -60.761 Q 80.55 -60.971 80.55 -61.293 Q 80.55 -61.475 80.593 -61.734 Q 80.634 -61.993 80.648 -62.091 L 81.6 -66.669 L 80.802 -66.669 L 80.858 -66.963 Q 81.306 -67.201 81.608 -67.425 Q 81.908 -67.649 82.181 -68.013 Q 82.454 -68.377 82.804 -68.979 L 83.224 -68.979 L 82.832 -67.215 Z " fill="black" /><path d="M 88.908 -64.457 L 88.908 -64.457 Q 88.908 -62.119 87.893 -60.467 Q 86.878 -58.815 85.184 -57.933 L 84.96 -58.297 Q 86.5 -59.333 87.13 -60.824 Q 87.76 -62.315 87.76 -64.457 Q 87.76 -66.599 87.13 -68.09 Q 86.5 -69.581 84.96 -70.617 L 85.184 -70.981 Q 86.878 -70.099 87.893 -68.447 Q 88.908 -66.795 88.908 -64.457 Z " fill="black" /></g></g></g></svg>