<svg xmlns="http://www.w3.org/2000/svg" xmlns:xlink="http://www.w3.org/1999/xlink" xml:lang="en" height="129.09560000000002pt" width="239.3622pt" viewBox="-45.76219999999999 -101.4556 239.3622 129.09560000000002"><circle cx="2.204364238465236e-15" cy="-36.0" r="18.0" style="stroke:black;fill:none;stroke-width:2.0;stroke-dasharray:-;" /><path d="M 0.0,-0.0 L 0.0,14.4 L -9.0,14.4 L 9.0,14.4 M -6.3,18.72 L 6.3,18.72 M -1.8,23.04 L 1.8,23.04" style="stroke:black;fill:none;stroke-width:2.0;stroke-dasharray:-;stroke-linecap:round;stroke-linejoin:round;" /><path d="M 0.0,-0.0 L 1.102182119232618e-15,-18.0 L 1.102182119232618e-15,-18.0 M 3.3065463576978533e-15,-54.0 L 3.3065463576978533e-15,-54.0 L 4.408728476930472e-15,-72.0" style="stroke:black;fill:none;stroke-width:2.0;stroke-dasharray:-;stroke-linecap:round;stroke-linejoin:round;" /><path d="M 9.000000000000002,-36.0 L 8.250000000000002,-37.86349712473816 L 7.500000000000003,-39.6 L 6.750000000000003,-41.091168824543146 L 6.0000000000000036,-42.23538290724795 L 5.2500000000000036,-42.95466594928129 L 4.500000000000003,-43.199999999999996 L 3.750000000000003,-42.9546659492813 L 3.0000000000000027,-42.23538290724795 L 2.2500000000000027,-41.09116882454314 L 1.500000000000003,-39.6 L 0.7500000000000027,-37.863497124738146 L 2.204364238465236e-15,-36.0 L -0.7499999999999972,-34.136502875261854 L -1.4999999999999967,-32.400000000000006 L -2.2499999999999982,-30.908831175456857 L -2.9999999999999973,-29.764617092752044 L -3.7499999999999964,-29.04533405071871 L -4.499999999999998,-28.8 L -5.249999999999997,-29.045334050718708 L -5.9999999999999964,-29.76461709275204 L -6.749999999999998,-30.90883117545686 L -7.499999999999997,-32.4 L -8.249999999999996,-34.13650287526185 L -8.999999999999998,-36.0" style="stroke:black;fill:none;stroke-width:2.0;stroke-dasharray:-;stroke-linecap:round;stroke-linejoin:round;" /><path d="M 4.408728476930472e-15,-72.0 L 18.000000000000004,-72.0 L 36.00000000000001,-72.0" style="stroke:black;fill:none;stroke-width:2.0;stroke-dasharray:-;stroke-linecap:round;stroke-linejoin:round;" /><path d="M 36.00000000000001,-72.0 L 54.00000000000001,-72.0 L 57.00000000000001,-81.0 L 63.00000000000001,-63.0 L 69.00000000000001,-81.0 L 75.0,-63.0 L 81.0,-81.0 L 87.00000000000001,-63.0 L 90.0,-72.0 L 108.0,-72.0" style="stroke:black;fill:none;stroke-width:2.0;stroke-dasharray:-;stroke-linecap:round;stroke-linejoin:round;" /><path d="M 108.0,-72.0 L 126.0,-72.0 L 144.0,-72.0" style="stroke:black;fill:none;stroke-width:2.0;stroke-dasharray:-;stroke-linecap:round;stroke-linejoin:round;" /><path d="M 144.0,-72.0 L 162.0,-72.0 L 180.0,-72.0" style="stroke:black;fill:none;stroke-width:2.0;stroke-dasharray:-;stroke-linecap:round;stroke-linejoin:round;" /><path d="M 180.0,-72.0 L 180.0,-54.0 L 189.0,-50.99999999999999 L 171.0,-45.0 L 189.0,-39.00000000000001 L 171.0,-33.0 L 189.0,-27.0 L 171.0,-21.000000000000007 L 180.0,-18.0 L 180.0,-0.0" style="stroke:black;fill:none;stroke-width:2.0;stroke-dasharray:-;stroke-linecap:round;stroke-linejoin:round;" /><path d="M 180.0,-0.0 L 180.0,14.4 L 171.0,14.4 L 189.0,14.4 M 173.70000000000002,18.72 L 186.29999999999998,18.72 M 178.20000000000002,23.04 L 181.79999999999998,23.04" style="stroke:black;fill:none;stroke-width:2.0;stroke-dasharray:-;stroke-linecap:round;stroke-linejoin:round;" /><g><g><g><path d="M -38.484 -32.446 L -38.484 -32.446 L -34.662 -38.186 Q -34.466 -38.466 -34.347 -38.704 Q -34.228 -38.942 -34.228 -39.11 Q -34.228 -39.32 -34.41 -39.397 Q -34.592 -39.474 -35.068 -39.474 L -35.04 -39.894 L -32.016 -39.894 L -32.044 -39.474 Q -32.422 -39.474 -32.688 -39.362 Q -32.954 -39.25 -33.227 -38.935 Q -33.5 -38.62 -33.934 -37.976 L -39.072 -30.626 L -39.534 -30.626 L -40.318 -38.2 Q -40.402 -38.9 -40.626 -39.187 Q -40.85 -39.474 -41.41 -39.474 L -41.382 -39.894 L -37.952 -39.894 L -37.994 -39.474 Q -38.526 -39.474 -38.834 -39.264 Q -39.142 -39.054 -39.114 -38.578 Q -39.114 -38.508 -39.093 -38.326 Q -39.072 -38.144 -39.072 -38.074 L -38.652 -34.084 L -38.554 -32.446 Z " fill="black" /><path d="M -29.695 -31.039 L -29.695 -31.039 L -29.695 -28.844 Q -29.695 -28.57 -29.646 -28.408 Q -29.597 -28.246 -29.43 -28.177 Q -29.264 -28.109 -28.911 -28.109 L -28.911 -27.756 L -31.429 -27.756 L -31.429 -28.109 Q -31.057 -28.109 -30.89 -28.177 Q -30.724 -28.246 -30.685 -28.408 Q -30.645 -28.57 -30.645 -28.844 L -30.645 -30.716 Q -30.645 -31.372 -30.797 -31.681 Q -30.949 -31.99 -31.179 -32.088 Q -31.41 -32.186 -31.645 -32.186 Q -32.066 -32.186 -32.385 -31.97 Q -32.703 -31.755 -32.939 -31.558 L -32.939 -28.844 Q -32.939 -28.57 -32.894 -28.408 Q -32.85 -28.246 -32.684 -28.177 Q -32.517 -28.109 -32.155 -28.109 L -32.155 -27.756 L -34.624 -27.756 L -34.624 -28.109 Q -34.281 -28.109 -34.129 -28.177 Q -33.977 -28.246 -33.938 -28.408 Q -33.899 -28.57 -33.899 -28.844 L -33.899 -31.823 Q -33.899 -32.097 -34.002 -32.191 Q -34.105 -32.284 -34.33 -32.284 Q -34.448 -32.284 -34.526 -32.274 Q -34.605 -32.264 -34.605 -32.264 L -34.605 -32.636 L -33.291 -32.872 L -32.968 -32.872 L -32.968 -32.068 L -32.899 -32.068 Q -32.478 -32.45 -32.091 -32.676 Q -31.704 -32.901 -31.214 -32.901 Q -30.636 -32.901 -30.307 -32.641 Q -29.979 -32.382 -29.837 -31.96 Q -29.695 -31.539 -29.695 -31.039 Z " fill="black" /><path d="M -27.686 -26.286 L -27.686 -26.286 L -27.852 -26.61 Q -27.647 -26.698 -27.431 -26.84 Q -27.215 -26.982 -27.073 -27.242 Q -26.931 -27.501 -26.931 -27.923 Q -27.098 -27.854 -27.274 -27.854 Q -27.598 -27.854 -27.735 -28.045 Q -27.872 -28.236 -27.872 -28.481 Q -27.872 -28.746 -27.696 -28.942 Q -27.519 -29.138 -27.186 -29.138 Q -26.765 -29.138 -26.544 -28.878 Q -26.324 -28.619 -26.324 -28.158 Q -26.324 -27.688 -26.471 -27.359 Q -26.618 -27.031 -26.838 -26.82 Q -27.059 -26.61 -27.289 -26.487 Q -27.519 -26.364 -27.686 -26.286 Z " fill="black" /><path d="M -25.736 -29.54 L -25.736 -29.54 L -25.422 -29.54 Q -25.295 -28.971 -25.118 -28.658 Q -24.942 -28.344 -24.662 -28.222 Q -24.383 -28.099 -23.981 -28.099 Q -23.521 -28.099 -23.271 -28.251 Q -23.021 -28.403 -23.021 -28.785 Q -23.021 -29.04 -23.143 -29.211 Q -23.266 -29.383 -23.535 -29.54 Q -23.805 -29.697 -24.256 -29.902 Q -24.716 -30.128 -25.045 -30.324 Q -25.373 -30.52 -25.544 -30.784 Q -25.716 -31.049 -25.716 -31.451 Q -25.716 -32.156 -25.241 -32.529 Q -24.765 -32.901 -24.05 -32.901 Q -23.619 -32.901 -23.32 -32.793 Q -23.021 -32.685 -22.845 -32.607 L -22.825 -32.607 L -22.668 -32.852 L -22.394 -32.852 L -22.374 -31.225 L -22.717 -31.225 Q -22.903 -31.98 -23.237 -32.24 Q -23.57 -32.499 -24.001 -32.499 Q -24.452 -32.499 -24.682 -32.303 Q -24.912 -32.107 -24.912 -31.794 Q -24.912 -31.539 -24.756 -31.372 Q -24.599 -31.206 -24.31 -31.064 Q -24.021 -30.921 -23.619 -30.726 Q -23.168 -30.51 -22.825 -30.28 Q -22.482 -30.049 -22.286 -29.76 Q -22.09 -29.471 -22.09 -29.04 Q -22.09 -28.52 -22.364 -28.207 Q -22.639 -27.893 -23.07 -27.761 Q -23.501 -27.629 -23.972 -27.629 Q -24.452 -27.629 -24.716 -27.727 Q -24.981 -27.825 -25.206 -27.913 L -25.246 -27.913 L -25.491 -27.658 L -25.716 -27.658 Z " fill="black" /><path d="M -25.824 -37.441 L -25.824 -37.441 L -26.157 -35.736 L -30.175 -35.736 L -30.175 -36.216 L -28.783 -37.627 Q -28.235 -38.176 -27.877 -38.598 Q -27.519 -39.019 -27.343 -39.445 Q -27.166 -39.872 -27.166 -40.42 Q -27.166 -40.94 -27.485 -41.278 Q -27.803 -41.616 -28.382 -41.616 Q -28.911 -41.616 -29.268 -41.405 Q -29.626 -41.195 -29.901 -40.715 L -30.165 -40.842 Q -29.92 -41.528 -29.406 -41.92 Q -28.891 -42.312 -28.137 -42.312 Q -27.549 -42.312 -27.098 -42.101 Q -26.647 -41.891 -26.392 -41.498 Q -26.137 -41.106 -26.137 -40.548 Q -26.137 -40.068 -26.353 -39.646 Q -26.569 -39.225 -26.965 -38.784 Q -27.362 -38.343 -27.911 -37.804 L -29.136 -36.618 L -29.136 -36.55 L -28.372 -36.589 L -27.098 -36.589 Q -26.814 -36.589 -26.662 -36.667 Q -26.51 -36.745 -26.402 -36.937 Q -26.294 -37.128 -26.167 -37.441 Z " fill="black" /><rect x="-42.362" y="-45.238" width="19.81" height="0.952" fill="black" /></g></g></g><g><g><g><path d="M 73.229 -94.933 L 73.229 -94.933 Q 73.229 -94.191 72.949 -93.687 Q 72.669 -93.183 72.221 -92.861 Q 71.773 -92.539 71.262 -92.364 Q 70.751 -92.189 70.289 -92.105 L 70.289 -92.035 Q 70.541 -91.867 70.765 -91.524 Q 70.989 -91.181 71.318 -90.537 Q 71.647 -89.893 72.221 -88.801 Q 72.459 -88.381 72.746 -88.234 Q 73.033 -88.087 73.509 -88.087 L 73.425 -87.667 L 71.297 -87.667 Q 70.905 -88.535 70.639 -89.116 Q 70.373 -89.697 70.177 -90.089 Q 69.981 -90.481 69.834 -90.789 Q 69.687 -91.097 69.519 -91.419 Q 69.365 -91.713 69.183 -91.804 Q 69.001 -91.895 68.623 -91.895 L 68.329 -91.895 L 67.811 -89.403 Q 67.699 -88.829 67.734 -88.542 Q 67.769 -88.255 68.049 -88.171 Q 68.329 -88.087 68.931 -88.087 L 68.861 -87.667 L 64.997 -87.667 L 65.081 -88.087 Q 65.599 -88.087 65.879 -88.171 Q 66.159 -88.255 66.306 -88.535 Q 66.453 -88.815 66.565 -89.403 L 67.797 -95.409 Q 67.881 -95.801 67.839 -96.025 Q 67.797 -96.249 67.552 -96.347 Q 67.307 -96.445 66.747 -96.445 L 66.831 -96.865 L 70.121 -96.865 Q 71.591 -96.865 72.41 -96.41 Q 73.229 -95.955 73.229 -94.933 Z M 69.211 -96.277 L 69.211 -96.277 L 68.427 -92.413 L 68.861 -92.399 Q 69.701 -92.427 70.38 -92.672 Q 71.059 -92.917 71.451 -93.449 Q 71.843 -93.981 71.843 -94.877 Q 71.843 -95.255 71.682 -95.584 Q 71.521 -95.913 71.129 -96.116 Q 70.737 -96.319 70.037 -96.319 Q 69.771 -96.319 69.61 -96.312 Q 69.449 -96.305 69.211 -96.277 Z " fill="black" /><path d="M 74.741 -86.511 L 74.741 -86.511 L 75.055 -86.511 Q 75.182 -85.943 75.359 -85.629 Q 75.535 -85.315 75.814 -85.193 Q 76.094 -85.07 76.495 -85.07 Q 76.956 -85.07 77.206 -85.222 Q 77.456 -85.374 77.456 -85.756 Q 77.456 -86.011 77.333 -86.183 Q 77.211 -86.354 76.941 -86.511 Q 76.672 -86.668 76.221 -86.874 Q 75.76 -87.099 75.432 -87.295 Q 75.104 -87.491 74.932 -87.756 Q 74.761 -88.02 74.761 -88.422 Q 74.761 -89.128 75.236 -89.5 Q 75.711 -89.872 76.427 -89.872 Q 76.858 -89.872 77.157 -89.765 Q 77.456 -89.657 77.632 -89.578 L 77.652 -89.578 L 77.809 -89.823 L 78.083 -89.823 L 78.103 -88.197 L 77.76 -88.197 Q 77.573 -88.951 77.24 -89.211 Q 76.907 -89.471 76.476 -89.471 Q 76.025 -89.471 75.795 -89.275 Q 75.564 -89.079 75.564 -88.765 Q 75.564 -88.51 75.721 -88.344 Q 75.878 -88.177 76.167 -88.035 Q 76.456 -87.893 76.858 -87.697 Q 77.309 -87.481 77.652 -87.251 Q 77.995 -87.021 78.191 -86.732 Q 78.387 -86.442 78.387 -86.011 Q 78.387 -85.492 78.112 -85.178 Q 77.838 -84.865 77.407 -84.732 Q 76.976 -84.6 76.505 -84.6 Q 76.025 -84.6 75.76 -84.698 Q 75.496 -84.796 75.27 -84.884 L 75.231 -84.884 L 74.986 -84.629 L 74.761 -84.629 Z " fill="black" /></g></g></g><g><g><g><path d="M 145.202 -40.196 L 145.202 -40.196 Q 145.202 -39.454 144.922 -38.95 Q 144.642 -38.446 144.194 -38.124 Q 143.746 -37.802 143.235 -37.627 Q 142.724 -37.452 142.262 -37.368 L 142.262 -37.298 Q 142.514 -37.13 142.738 -36.787 Q 142.962 -36.444 143.291 -35.8 Q 143.62 -35.156 144.194 -34.064 Q 144.432 -33.644 144.719 -33.497 Q 145.006 -33.35 145.482 -33.35 L 145.398 -32.93 L 143.27 -32.93 Q 142.878 -33.798 142.612 -34.379 Q 142.346 -34.96 142.15 -35.352 Q 141.954 -35.744 141.807 -36.052 Q 141.66 -36.36 141.492 -36.682 Q 141.338 -36.976 141.156 -37.067 Q 140.974 -37.158 140.596 -37.158 L 140.302 -37.158 L 139.784 -34.666 Q 139.672 -34.092 139.707 -33.805 Q 139.742 -33.518 140.022 -33.434 Q 140.302 -33.35 140.904 -33.35 L 140.834 -32.93 L 136.97 -32.93 L 137.054 -33.35 Q 137.572 -33.35 137.852 -33.434 Q 138.132 -33.518 138.279 -33.798 Q 138.426 -34.078 138.538 -34.666 L 139.77 -40.672 Q 139.854 -41.064 139.812 -41.288 Q 139.77 -41.512 139.525 -41.61 Q 139.28 -41.708 138.72 -41.708 L 138.804 -42.128 L 142.094 -42.128 Q 143.564 -42.128 144.383 -41.673 Q 145.202 -41.218 145.202 -40.196 Z M 141.184 -41.54 L 141.184 -41.54 L 140.4 -37.676 L 140.834 -37.662 Q 141.674 -37.69 142.353 -37.935 Q 143.032 -38.18 143.424 -38.712 Q 143.816 -39.244 143.816 -40.14 Q 143.816 -40.518 143.655 -40.847 Q 143.494 -41.176 143.102 -41.379 Q 142.71 -41.582 142.01 -41.582 Q 141.744 -41.582 141.583 -41.575 Q 141.422 -41.568 141.184 -41.54 Z " fill="black" /><path d="M 149.075 -30.352 L 149.075 -30.352 L 149.075 -29.99 L 146.596 -29.99 L 146.596 -30.352 Q 146.939 -30.352 147.091 -30.421 Q 147.243 -30.49 147.282 -30.651 Q 147.321 -30.813 147.321 -31.087 L 147.321 -36.262 Q 147.321 -36.575 147.208 -36.644 Q 147.096 -36.713 146.861 -36.713 Q 146.733 -36.713 146.65 -36.698 Q 146.567 -36.683 146.567 -36.683 L 146.567 -37.056 L 147.899 -37.31 L 148.282 -37.31 L 148.282 -31.087 Q 148.282 -30.803 148.326 -30.641 Q 148.37 -30.48 148.541 -30.416 Q 148.713 -30.352 149.075 -30.352 Z " fill="black" /><path d="M 152.505 -35.135 L 152.505 -35.135 Q 153.24 -35.135 153.789 -34.816 Q 154.338 -34.498 154.637 -33.924 Q 154.936 -33.351 154.936 -32.577 Q 154.936 -31.646 154.622 -31.048 Q 154.309 -30.45 153.76 -30.161 Q 153.211 -29.872 152.505 -29.872 Q 151.79 -29.872 151.236 -30.171 Q 150.683 -30.47 150.374 -31.068 Q 150.065 -31.666 150.065 -32.567 Q 150.065 -33.332 150.369 -33.91 Q 150.673 -34.488 151.222 -34.811 Q 151.77 -35.135 152.505 -35.135 Z M 152.486 -34.684 L 152.486 -34.684 Q 151.839 -34.684 151.471 -34.16 Q 151.104 -33.635 151.104 -32.626 Q 151.104 -31.381 151.481 -30.867 Q 151.859 -30.352 152.535 -30.352 Q 152.966 -30.362 153.27 -30.568 Q 153.574 -30.774 153.735 -31.259 Q 153.897 -31.744 153.897 -32.577 Q 153.897 -33.577 153.554 -34.13 Q 153.211 -34.684 152.486 -34.684 Z " fill="black" /><path d="M 159.052 -30.607 L 159.052 -30.607 L 158.983 -30.607 Q 158.65 -30.333 158.248 -30.127 Q 157.846 -29.921 157.376 -29.921 Q 156.759 -29.921 156.43 -30.294 Q 156.102 -30.666 156.102 -31.195 Q 156.102 -31.646 156.313 -31.95 Q 156.523 -32.254 156.862 -32.445 Q 157.2 -32.636 157.592 -32.753 Q 157.984 -32.871 158.346 -32.94 Q 158.709 -33.008 158.954 -33.067 L 158.954 -33.577 Q 158.954 -34.233 158.694 -34.483 Q 158.434 -34.733 157.935 -34.733 Q 157.631 -34.733 157.499 -34.655 Q 157.366 -34.576 157.332 -34.4 Q 157.298 -34.223 157.288 -33.939 Q 157.278 -33.724 157.16 -33.591 Q 157.043 -33.459 156.817 -33.459 Q 156.602 -33.459 156.45 -33.591 Q 156.298 -33.724 156.298 -33.978 Q 156.298 -34.282 156.533 -34.547 Q 156.768 -34.811 157.204 -34.973 Q 157.641 -35.135 158.229 -35.135 Q 159.111 -35.135 159.507 -34.728 Q 159.904 -34.321 159.904 -33.508 L 159.904 -31.107 Q 159.904 -30.784 159.978 -30.691 Q 160.051 -30.597 160.208 -30.597 Q 160.375 -30.597 160.497 -30.666 Q 160.62 -30.735 160.728 -30.862 L 160.943 -30.656 Q 160.434 -29.931 159.748 -29.931 Q 159.365 -29.931 159.223 -30.112 Q 159.081 -30.294 159.052 -30.607 Z M 158.954 -30.97 L 158.954 -30.97 L 158.954 -32.695 Q 158.503 -32.577 158.072 -32.435 Q 157.641 -32.293 157.361 -32.048 Q 157.082 -31.803 157.082 -31.362 Q 157.082 -30.98 157.302 -30.759 Q 157.523 -30.539 157.866 -30.539 Q 158.072 -30.539 158.361 -30.632 Q 158.65 -30.725 158.954 -30.97 Z " fill="black" /><path d="M 166.823 -30.117 L 166.823 -30.117 L 165.5 -29.941 L 165.147 -29.941 L 165.147 -30.627 L 165.079 -30.627 Q 164.755 -30.352 164.349 -30.127 Q 163.942 -29.902 163.432 -29.902 Q 162.854 -29.902 162.447 -30.215 Q 162.041 -30.529 161.825 -31.078 Q 161.61 -31.626 161.61 -32.322 Q 161.61 -33.194 161.948 -33.826 Q 162.286 -34.459 162.849 -34.797 Q 163.413 -35.135 164.079 -35.135 Q 164.657 -35.135 165.128 -34.87 L 165.128 -36.134 Q 165.128 -36.487 165.054 -36.6 Q 164.981 -36.713 164.667 -36.713 Q 164.599 -36.713 164.486 -36.698 Q 164.373 -36.683 164.373 -36.683 L 164.373 -37.056 L 165.677 -37.31 L 166.078 -37.31 L 166.078 -31.097 Q 166.078 -30.715 166.186 -30.602 Q 166.294 -30.49 166.559 -30.49 L 166.823 -30.49 Z M 165.128 -31.078 L 165.128 -31.078 L 165.128 -33.939 Q 165.02 -34.214 164.77 -34.429 Q 164.52 -34.645 164.06 -34.645 Q 163.403 -34.645 162.982 -34.199 Q 162.56 -33.753 162.56 -32.724 Q 162.56 -31.675 162.928 -31.19 Q 163.295 -30.705 163.962 -30.705 Q 164.275 -30.705 164.535 -30.793 Q 164.795 -30.882 165.128 -31.078 Z " fill="black" /></g></g></g><circle cx="144.0" cy="-72.0" r="2.6999999999999997" style="stroke:black;fill:white;stroke-width:2.0;stroke-dasharray:-;" /></svg>