<svg xmlns="http://www.w3.org/2000/svg" xmlns:xlink="http://www.w3.org/1999/xlink" xml:lang="en" height="288.20000000000005pt" width="410.16779999999994pt" viewBox="-36.64179999999999 -112.60000000000002 410.16779999999994 288.20000000000005"><path d="M 0.0,-0.0 L 18.0,-0.0 L 36.0,-0.0" style="stroke:black;fill:none;stroke-width:2.0;stroke-dasharray:-;stroke-linecap:round;stroke-linejoin:round;" /><path d="M 54.0,18.0 L 126.0,18.0 L 126.0,-90.0 L 54.0,-90.0 L 54.0,18.0" style="stroke:black;fill:none;stroke-width:2.0;stroke-dasharray:-;stroke-linecap:round;stroke-linejoin:round;" /><path d="M 54.0,-72.0 L 36.0,-72.0" style="stroke:black;fill:none;stroke-width:2.0;stroke-dasharray:-;stroke-linecap:round;stroke-linejoin:round;" /><path d="M 54.0,-0.0 L 36.0,-0.0" style="stroke:black;fill:none;stroke-width:2.0;stroke-dasharray:-;stroke-linecap:round;stroke-linejoin:round;" /><path d="M 54.0,-6.300000000000002 L 66.60000000000001,-0.0 L 54.0,6.300000000000002" style="stroke:black;fill:none;stroke-width:2.0;stroke-dasharray:-;stroke-linecap:round;stroke-linejoin:round;" /><path d="M 126.0,-72.0 L 144.0,-72.0" style="stroke:black;fill:none;stroke-width:2.0;stroke-dasharray:-;stroke-linecap:round;stroke-linejoin:round;" /><path d="M 126.0,-0.0 L 144.0,-0.0" style="stroke:black;fill:none;stroke-width:2.0;stroke-dasharray:-;stroke-linecap:round;stroke-linejoin:round;" /><path d="M 0.0,144.0 L 18.0,144.0 L 36.0,144.0" style="stroke:black;fill:none;stroke-width:2.0;stroke-dasharray:-;stroke-linecap:round;stroke-linejoin:round;" /><path d="M 54.0,162.0 L 126.0,162.0 L 126.0,54.0 L 54.0,54.0 L 54.0,162.0" style="stroke:black;fill:none;stroke-width:2.0;stroke-dasharray:-;stroke-linecap:round;stroke-linejoin:round;" /><path d="M 54.0,72.0 L 36.0,72.0" style="stroke:black;fill:none;stroke-width:2.0;stroke-dasharray:-;stroke-linecap:round;stroke-linejoin:round;" /><path d="M 54.0,144.0 L 36.0,144.0" style="stroke:black;fill:none;stroke-width:2.0;stroke-dasharray:-;stroke-linecap:round;stroke-linejoin:round;" /><path d="M 54.0,137.70000000000002 L 66.60000000000001,144.0 L 54.0,150.29999999999998" style="stroke:black;fill:none;stroke-width:2.0;stroke-dasharray:-;stroke-linecap:round;stroke-linejoin:round;" /><path d="M 126.0,72.0 L 144.0,72.0" style="stroke:black;fill:none;stroke-width:2.0;stroke-dasharray:-;stroke-linecap:round;stroke-linejoin:round;" /><path d="M 126.0,144.0 L 144.0,144.0" style="stroke:black;fill:none;stroke-width:2.0;stroke-dasharray:-;stroke-linecap:round;stroke-linejoin:round;" /><path d="M 144.0,-0.0 L 144.0,-54.0 L 144.0,-108.0" style="stroke:black;fill:none;stroke-width:2.0;stroke-dasharray:-;stroke-linecap:round;stroke-linejoin:round;" /><path d="M 144.0,-108.0 L 90.0,-108.0 L 36.0,-108.00000000000001" style="stroke:black;fill:none;stroke-width:2.0;stroke-dasharray:-;stroke-linecap:round;stroke-linejoin:round;" /><path d="M 36.0,-108.00000000000001 L 35.99999999999999,-90.0 L 35.99999999999999,-72.0" style="stroke:black;fill:none;stroke-width:2.0;stroke-dasharray:-;stroke-linecap:round;stroke-linejoin:round;" /><path d="M 144.0,144.0 L 144.0,90.0 L 144.0,36.0" style="stroke:black;fill:none;stroke-width:2.0;stroke-dasharray:-;stroke-linecap:round;stroke-linejoin:round;" /><path d="M 144.0,36.0 L 90.0,35.99999999999999 L 36.0,35.999999999999986" style="stroke:black;fill:none;stroke-width:2.0;stroke-dasharray:-;stroke-linecap:round;stroke-linejoin:round;" /><path d="M 36.0,35.999999999999986 L 35.99999999999999,54.0 L 35.99999999999999,72.0" style="stroke:black;fill:none;stroke-width:2.0;stroke-dasharray:-;stroke-linecap:round;stroke-linejoin:round;" /><path d="M 144.0,-72.0 L 189.0,-72.0 L 234.0,-72.0" style="stroke:black;fill:none;stroke-width:2.0;stroke-dasharray:-;stroke-linecap:round;stroke-linejoin:round;" /><path d="M 270.0,-45.0 L 271.15326395965286,-45.03698293049395 L 272.3017889103211,-45.147779751181574 L 273.4408553166247,-45.331935174160826 L 274.56578251037115,-45.58869246529747 L 275.6719479244252,-45.91699655380796 L 276.75480608782874,-46.31549836777161 L 277.80990730411605,-46.782560377756454 L 278.8329159360709,-47.31626332577899 L 279.81962822178986,-47.91441411194686 L 280.7659895488419,-48.574554806376774 L 281.6681111155402,-49.29397274935558 L 282.52228591086276,-50.0697116982409 L 283.3250039473557,-50.89858397529629 L 284.0729666844245,-51.7771835665428 L 284.7631005827452,-52.701900117800946 L 285.39256973409624,-53.66893377041055 L 285.958787514714,-54.674310775664964 L 286.45942721428463,-55.713899823796915 L 286.8924315968957,-56.78342902041646 L 287.25602135465994,-57.87850344064142 L 287.5487024192728,-58.99462318878634 L 287.7692721014601,-60.127201889399174 L 287.91682403308556,-61.27158553366172 L 287.9907518916124,-62.4230716037102 L 287.9907518916124,-63.57692839628979 L 287.91682403308556,-64.72841446633826 L 287.7692721014601,-65.87279811060083 L 287.5487024192728,-67.00537681121367 L 287.25602135465994,-68.12149655935858 L 286.8924315968957,-69.21657097958354 L 286.45942721428463,-70.28610017620309 L 285.958787514714,-71.32568922433504 L 285.39256973409624,-72.33106622958945 L 284.7631005827452,-73.29809988219905 L 284.0729666844245,-74.2228164334572 L 283.3250039473557,-75.10141602470371 L 282.52228591086276,-75.93028830175909 L 281.6681111155402,-76.70602725064442 L 280.7659895488419,-77.42544519362322 L 279.81962822178986,-78.08558588805312 L 278.8329159360709,-78.68373667422101 L 277.80990730411605,-79.21743962224355 L 276.75480608782874,-79.68450163222839 L 275.6719479244252,-80.08300344619204 L 274.56578251037115,-80.41130753470253 L 273.4408553166247,-80.66806482583918 L 272.3017889103211,-80.85222024881844 L 271.15326395965286,-80.96301706950607 L 270.0,-81.0 L 270.0,-81.0 L 246.6,-81.0 L 246.6,-63.0 L 246.6,-45.0 L 270.0,-45.0" style="stroke:black;fill:none;stroke-width:2.0;stroke-dasharray:-;stroke-linecap:round;stroke-linejoin:round;" /><path d="M 234.0,-54.0 L 246.6,-54.0" style="stroke:black;fill:none;stroke-width:2.0;stroke-dasharray:-;stroke-linecap:round;stroke-linejoin:round;" /><path d="M 234.0,-72.0 L 246.6,-72.0" style="stroke:black;fill:none;stroke-width:2.0;stroke-dasharray:-;stroke-linecap:round;stroke-linejoin:round;" /><path d="M 288.0,-63.0 L 300.59999999999997,-63.0" style="stroke:black;fill:none;stroke-width:2.0;stroke-dasharray:-;stroke-linecap:round;stroke-linejoin:round;" /><path d="M 300.59999999999997,-63.0 L 318.59999999999997,-63.0 L 336.59999999999997,-63.0" style="stroke:black;fill:none;stroke-width:2.0;stroke-dasharray:-;stroke-linecap:round;stroke-linejoin:round;" /><path d="M 234.0,-54.0 L 198.0,-54.00000000000001 L 162.0,-54.00000000000001" style="stroke:black;fill:none;stroke-width:2.0;stroke-dasharray:-;stroke-linecap:round;stroke-linejoin:round;" /><path d="M 162.0,-54.00000000000001 L 161.99999999999997,44.99999999999999 L 161.99999999999997,144.0" style="stroke:black;fill:none;stroke-width:2.0;stroke-dasharray:-;stroke-linecap:round;stroke-linejoin:round;" /><path d="M 144.0,72.0 L 189.0,72.0 L 234.0,72.0" style="stroke:black;fill:none;stroke-width:2.0;stroke-dasharray:-;stroke-linecap:round;stroke-linejoin:round;" /><path d="M 270.0,99.0 L 271.15326395965286,98.96301706950607 L 272.3017889103211,98.85222024881844 L 273.4408553166247,98.66806482583918 L 274.56578251037115,98.41130753470253 L 275.6719479244252,98.08300344619204 L 276.75480608782874,97.68450163222839 L 277.80990730411605,97.21743962224355 L 278.8329159360709,96.68373667422101 L 279.81962822178986,96.08558588805313 L 280.7659895488419,95.42544519362322 L 281.6681111155402,94.70602725064442 L 282.52228591086276,93.93028830175909 L 283.3250039473557,93.10141602470371 L 284.0729666844245,92.2228164334572 L 284.7631005827452,91.29809988219905 L 285.39256973409624,90.33106622958945 L 285.958787514714,89.32568922433504 L 286.45942721428463,88.28610017620309 L 286.8924315968957,87.21657097958354 L 287.25602135465994,86.12149655935858 L 287.5487024192728,85.00537681121367 L 287.7692721014601,83.87279811060083 L 287.91682403308556,82.72841446633828 L 287.9907518916124,81.5769283962898 L 287.9907518916124,80.4230716037102 L 287.91682403308556,79.27158553366172 L 287.7692721014601,78.12720188939917 L 287.5487024192728,76.99462318878633 L 287.25602135465994,75.87850344064142 L 286.8924315968957,74.78342902041646 L 286.45942721428463,73.71389982379691 L 285.958787514714,72.67431077566496 L 285.39256973409624,71.66893377041055 L 284.7631005827452,70.70190011780095 L 284.0729666844245,69.7771835665428 L 283.3250039473557,68.8985839752963 L 282.52228591086276,68.06971169824091 L 281.6681111155402,67.29397274935558 L 280.7659895488419,66.57455480637678 L 279.81962822178986,65.91441411194687 L 278.8329159360709,65.31626332577899 L 277.80990730411605,64.78256037775645 L 276.75480608782874,64.31549836777161 L 275.6719479244252,63.91699655380796 L 274.56578251037115,63.58869246529747 L 273.4408553166247,63.331935174160826 L 272.3017889103211,63.147779751181574 L 271.15326395965286,63.03698293049395 L 270.0,63.0 L 270.0,63.0 L 246.6,63.0 L 246.6,81.0 L 246.6,99.0 L 270.0,99.0" style="stroke:black;fill:none;stroke-width:2.0;stroke-dasharray:-;stroke-linecap:round;stroke-linejoin:round;" /><path d="M 234.0,90.0 L 246.6,90.0" style="stroke:black;fill:none;stroke-width:2.0;stroke-dasharray:-;stroke-linecap:round;stroke-linejoin:round;" /><path d="M 234.0,72.0 L 246.6,72.0" style="stroke:black;fill:none;stroke-width:2.0;stroke-dasharray:-;stroke-linecap:round;stroke-linejoin:round;" /><path d="M 288.0,81.0 L 300.59999999999997,81.0" style="stroke:black;fill:none;stroke-width:2.0;stroke-dasharray:-;stroke-linecap:round;stroke-linejoin:round;" /><path d="M 300.59999999999997,81.0 L 318.59999999999997,81.0 L 336.59999999999997,81.0" style="stroke:black;fill:none;stroke-width:2.0;stroke-dasharray:-;stroke-linecap:round;stroke-linejoin:round;" /><path d="M 234.0,90.0 L 216.0,90.0 L 198.0,90.0" style="stroke:black;fill:none;stroke-width:2.0;stroke-dasharray:-;stroke-linecap:round;stroke-linejoin:round;" /><path d="M 198.0,90.0 L 198.0,9.0 L 198.0,-72.0" style="stroke:black;fill:none;stroke-width:2.0;stroke-dasharray:-;stroke-linecap:round;stroke-linejoin:round;" /><path d="M 144.0,-0.0 L 189.0,-0.0 L 234.0,-0.0" style="stroke:black;fill:none;stroke-width:2.0;stroke-dasharray:-;stroke-linecap:round;stroke-linejoin:round;" /><path d="M 270.0,27.0 L 271.15326395965286,26.963017069506055 L 272.3017889103211,26.85222024881843 L 273.4408553166247,26.668064825839174 L 274.56578251037115,26.41130753470253 L 275.6719479244252,26.083003446192034 L 276.75480608782874,25.68450163222839 L 277.80990730411605,25.217439622243543 L 278.8329159360709,24.68373667422101 L 279.81962822178986,24.08558588805313 L 280.7659895488419,23.425445193623222 L 281.6681111155402,22.706027250644418 L 282.52228591086276,21.9302883017591 L 283.3250039473557,21.101416024703703 L 284.0729666844245,20.2228164334572 L 284.7631005827452,19.298099882199054 L 285.39256973409624,18.33106622958945 L 285.958787514714,17.325689224335036 L 286.45942721428463,16.286100176203092 L 286.8924315968957,15.21657097958354 L 287.25602135465994,14.121496559358587 L 287.5487024192728,13.005376811213658 L 287.7692721014601,11.872798110600826 L 287.91682403308556,10.728414466338274 L 287.9907518916124,9.576928396289794 L 287.9907518916124,8.42307160371021 L 287.91682403308556,7.271585533661731 L 287.7692721014601,6.127201889399178 L 287.5487024192728,4.994623188786341 L 287.25602135465994,3.878503440641417 L 286.8924315968957,2.783429020416464 L 286.45942721428463,1.713899823796913 L 285.958787514714,0.6743107756649673 L 285.39256973409624,-0.33106622958945087 L 284.7631005827452,-1.29809988219905 L 284.0729666844245,-2.2228164334572025 L 283.3250039473557,-3.101416024703698 L 282.52228591086276,-3.930288301759095 L 281.6681111155402,-4.706027250644416 L 280.7659895488419,-5.425445193623219 L 279.81962822178986,-6.085585888053127 L 278.8329159360709,-6.683736674221006 L 277.80990730411605,-7.217439622243544 L 276.75480608782874,-7.68450163222839 L 275.6719479244252,-8.083003446192036 L 274.56578251037115,-8.411307534702528 L 273.4408553166247,-8.668064825839176 L 272.3017889103211,-8.85222024881843 L 271.15326395965286,-8.963017069506055 L 270.0,-9.0 L 270.0,-9.0 L 246.6,-9.0 L 246.6,9.0 L 246.6,27.0 L 270.0,27.0" style="stroke:black;fill:none;stroke-width:2.0;stroke-dasharray:-;stroke-linecap:round;stroke-linejoin:round;" /><path d="M 234.0,18.0 L 246.6,18.0" style="stroke:black;fill:none;stroke-width:2.0;stroke-dasharray:-;stroke-linecap:round;stroke-linejoin:round;" /><path d="M 234.0,-0.0 L 246.6,-0.0" style="stroke:black;fill:none;stroke-width:2.0;stroke-dasharray:-;stroke-linecap:round;stroke-linejoin:round;" /><path d="M 288.0,9.0 L 300.59999999999997,9.0" style="stroke:black;fill:none;stroke-width:2.0;stroke-dasharray:-;stroke-linecap:round;stroke-linejoin:round;" /><path d="M 300.59999999999997,9.0 L 318.59999999999997,9.0 L 336.59999999999997,9.0" style="stroke:black;fill:none;stroke-width:2.0;stroke-dasharray:-;stroke-linecap:round;stroke-linejoin:round;" /><path d="M 234.0,18.0 L 207.0,17.999999999999996 L 180.0,17.999999999999993" style="stroke:black;fill:none;stroke-width:2.0;stroke-dasharray:-;stroke-linecap:round;stroke-linejoin:round;" /><path d="M 180.0,17.999999999999993 L 180.0,45.0 L 180.0,72.0" style="stroke:black;fill:none;stroke-width:2.0;stroke-dasharray:-;stroke-linecap:round;stroke-linejoin:round;" /><path d="M 144.0,144.0 L 189.0,144.0 L 234.0,144.0" style="stroke:black;fill:none;stroke-width:2.0;stroke-dasharray:-;stroke-linecap:round;stroke-linejoin:round;" /><path d="M 270.0,171.0 L 271.15326395965286,170.96301706950607 L 272.3017889103211,170.85222024881844 L 273.4408553166247,170.66806482583917 L 274.56578251037115,170.41130753470253 L 275.6719479244252,170.08300344619204 L 276.75480608782874,169.68450163222838 L 277.80990730411605,169.21743962224355 L 278.8329159360709,168.683736674221 L 279.81962822178986,168.08558588805312 L 280.7659895488419,167.4254451936232 L 281.6681111155402,166.7060272506444 L 282.52228591086276,165.9302883017591 L 283.3250039473557,165.1014160247037 L 284.0729666844245,164.2228164334572 L 284.7631005827452,163.29809988219904 L 285.39256973409624,162.33106622958945 L 285.958787514714,161.32568922433506 L 286.45942721428463,160.2861001762031 L 286.8924315968957,159.21657097958354 L 287.25602135465994,158.12149655935858 L 287.5487024192728,157.00537681121367 L 287.7692721014601,155.87279811060083 L 287.91682403308556,154.72841446633828 L 287.9907518916124,153.5769283962898 L 287.9907518916124,152.4230716037102 L 287.91682403308556,151.27158553366172 L 287.7692721014601,150.12720188939917 L 287.5487024192728,148.99462318878633 L 287.25602135465994,147.87850344064142 L 286.8924315968957,146.78342902041646 L 286.45942721428463,145.71389982379694 L 285.958787514714,144.674310775665 L 285.39256973409624,143.66893377041055 L 284.7631005827452,142.70190011780096 L 284.0729666844245,141.7771835665428 L 283.3250039473557,140.8985839752963 L 282.52228591086276,140.0697116982409 L 281.6681111155402,139.2939727493556 L 280.7659895488419,138.5745548063768 L 279.81962822178986,137.91441411194688 L 278.8329159360709,137.316263325779 L 277.80990730411605,136.78256037775645 L 276.75480608782874,136.3154983677716 L 275.6719479244252,135.91699655380796 L 274.56578251037115,135.58869246529747 L 273.4408553166247,135.33193517416083 L 272.3017889103211,135.14777975118156 L 271.15326395965286,135.03698293049393 L 270.0,135.0 L 270.0,135.0 L 246.6,135.0 L 246.6,153.0 L 246.6,171.0 L 270.0,171.0" style="stroke:black;fill:none;stroke-width:2.0;stroke-dasharray:-;stroke-linecap:round;stroke-linejoin:round;" /><path d="M 234.0,162.0 L 246.6,162.0" style="stroke:black;fill:none;stroke-width:2.0;stroke-dasharray:-;stroke-linecap:round;stroke-linejoin:round;" /><path d="M 234.0,144.0 L 246.6,144.0" style="stroke:black;fill:none;stroke-width:2.0;stroke-dasharray:-;stroke-linecap:round;stroke-linejoin:round;" /><path d="M 288.0,153.0 L 300.59999999999997,153.0" style="stroke:black;fill:none;stroke-width:2.0;stroke-dasharray:-;stroke-linecap:round;stroke-linejoin:round;" /><path d="M 300.59999999999997,153.0 L 318.59999999999997,153.0 L 336.59999999999997,153.0" style="stroke:black;fill:none;stroke-width:2.0;stroke-dasharray:-;stroke-linecap:round;stroke-linejoin:round;" /><path d="M 234.0,162.0 L 225.0,162.0 L 216.0,162.0" style="stroke:black;fill:none;stroke-width:2.0;stroke-dasharray:-;stroke-linecap:round;stroke-linejoin:round;" /><path d="M 216.0,162.0 L 216.0,81.0 L 216.0,-0.0" style="stroke:black;fill:none;stroke-width:2.0;stroke-dasharray:-;stroke-linecap:round;stroke-linejoin:round;" /><circle cx="0.0" cy="-0.0" r="2.6999999999999997" style="stroke:black;fill:white;stroke-width:2.0;stroke-dasharray:-;" /><g><g><g><path d="M -33.141 -5.913 L -33.141 -5.913 L -32.833 -5.913 L -33.491 -3.225 Q -33.589 -2.861 -33.694 -2.35 Q -33.799 -1.839 -33.799 -1.363 Q -33.799 -0.817 -33.575 -0.418 Q -33.351 -0.019 -32.707 -0.019 Q -31.993 -0.019 -31.475 -0.362 Q -30.957 -0.705 -30.628 -1.237 Q -30.299 -1.769 -30.138 -2.357 Q -29.977 -2.945 -29.977 -3.435 Q -29.977 -3.799 -30.103 -4.065 Q -30.229 -4.331 -30.404 -4.541 Q -30.579 -4.751 -30.705 -4.947 Q -30.831 -5.143 -30.831 -5.367 Q -30.831 -5.647 -30.677 -5.801 Q -30.523 -5.955 -30.299 -5.955 Q -29.823 -5.955 -29.529 -5.479 Q -29.235 -5.003 -29.235 -4.261 Q -29.235 -3.617 -29.396 -2.91 Q -29.557 -2.203 -29.879 -1.531 Q -30.201 -0.859 -30.677 -0.313 Q -31.153 0.233 -31.769 0.555 Q -32.385 0.877 -33.141 0.877 Q -33.841 0.877 -34.233 0.597 Q -34.625 0.317 -34.786 -0.145 Q -34.947 -0.607 -34.947 -1.139 Q -34.947 -1.643 -34.849 -2.175 Q -34.751 -2.707 -34.639 -3.141 L -34.359 -4.205 Q -34.331 -4.317 -34.275 -4.541 Q -34.219 -4.765 -34.219 -4.975 Q -34.219 -5.157 -34.289 -5.283 Q -34.359 -5.409 -34.555 -5.409 Q -34.723 -5.409 -34.961 -5.388 Q -35.199 -5.367 -35.199 -5.367 L -35.199 -5.759 Z " fill="black" /><path d="M -25.501 3.329 L -25.501 3.329 L -25.501 3.691 L -27.98 3.691 L -27.98 3.329 Q -27.637 3.329 -27.485 3.26 Q -27.334 3.191 -27.294 3.03 Q -27.255 2.868 -27.255 2.594 L -27.255 -2.581 Q -27.255 -2.894 -27.368 -2.963 Q -27.481 -3.032 -27.716 -3.032 Q -27.843 -3.032 -27.926 -3.017 Q -28.01 -3.002 -28.01 -3.002 L -28.01 -3.375 L -26.677 -3.629 L -26.295 -3.629 L -26.295 2.594 Q -26.295 2.878 -26.251 3.039 Q -26.207 3.201 -26.035 3.265 Q -25.864 3.329 -25.501 3.329 Z " fill="black" /><path d="M -22.071 -1.454 L -22.071 -1.454 Q -21.336 -1.454 -20.787 -1.135 Q -20.238 -0.817 -19.939 -0.244 Q -19.641 0.33 -19.641 1.104 Q -19.641 2.035 -19.954 2.633 Q -20.268 3.231 -20.817 3.52 Q -21.365 3.809 -22.071 3.809 Q -22.786 3.809 -23.34 3.51 Q -23.894 3.211 -24.202 2.613 Q -24.511 2.015 -24.511 1.114 Q -24.511 0.349 -24.207 -0.229 Q -23.904 -0.807 -23.355 -1.13 Q -22.806 -1.454 -22.071 -1.454 Z M -22.091 -1.003 L -22.091 -1.003 Q -22.737 -1.003 -23.105 -0.479 Q -23.472 0.046 -23.472 1.055 Q -23.472 2.3 -23.095 2.814 Q -22.718 3.329 -22.042 3.329 Q -21.61 3.319 -21.307 3.113 Q -21.003 2.907 -20.841 2.422 Q -20.679 1.937 -20.679 1.104 Q -20.679 0.104 -21.022 -0.449 Q -21.365 -1.003 -22.091 -1.003 Z " fill="black" /><path d="M -14.26 1.986 L -14.26 1.986 L -14.594 3.691 L -18.612 3.691 L -18.612 3.211 L -17.22 1.8 Q -16.671 1.251 -16.313 0.83 Q -15.956 0.408 -15.779 -0.018 Q -15.603 -0.444 -15.603 -0.993 Q -15.603 -1.513 -15.921 -1.851 Q -16.24 -2.189 -16.818 -2.189 Q -17.347 -2.189 -17.705 -1.978 Q -18.063 -1.767 -18.337 -1.287 L -18.602 -1.415 Q -18.357 -2.101 -17.842 -2.493 Q -17.328 -2.885 -16.573 -2.885 Q -15.985 -2.885 -15.534 -2.674 Q -15.084 -2.463 -14.829 -2.071 Q -14.574 -1.679 -14.574 -1.121 Q -14.574 -0.64 -14.79 -0.219 Q -15.005 0.202 -15.402 0.643 Q -15.799 1.084 -16.348 1.623 L -17.573 2.809 L -17.573 2.878 L -16.808 2.839 L -15.534 2.839 Q -15.25 2.839 -15.098 2.76 Q -14.946 2.682 -14.839 2.491 Q -14.731 2.3 -14.603 1.986 Z " fill="black" /><path d="M -13.084 5.161 L -13.084 5.161 L -13.251 4.838 Q -13.045 4.75 -12.83 4.607 Q -12.614 4.465 -12.472 4.206 Q -12.33 3.946 -12.33 3.525 Q -12.496 3.593 -12.673 3.593 Q -12.996 3.593 -13.133 3.402 Q -13.271 3.211 -13.271 2.966 Q -13.271 2.701 -13.094 2.505 Q -12.918 2.309 -12.585 2.309 Q -12.163 2.309 -11.943 2.569 Q -11.722 2.829 -11.722 3.289 Q -11.722 3.76 -11.869 4.088 Q -12.016 4.416 -12.237 4.627 Q -12.457 4.838 -12.687 4.96 Q -12.918 5.083 -13.084 5.161 Z " fill="black" /><path d="M -9.664 -1.424 L -9.664 -1.424 L -9.664 -0.582 L -9.615 -0.582 Q -9.233 -1.023 -8.851 -1.238 Q -8.469 -1.454 -8.008 -1.454 Q -7.489 -1.454 -7.067 -1.145 Q -6.646 -0.836 -6.396 -0.293 Q -6.146 0.251 -6.146 0.957 Q -6.146 1.878 -6.474 2.515 Q -6.803 3.152 -7.346 3.48 Q -7.89 3.809 -8.527 3.809 Q -8.831 3.809 -9.101 3.73 Q -9.37 3.652 -9.596 3.525 L -9.645 3.525 L -9.645 4.779 Q -9.645 5.122 -9.556 5.303 Q -9.468 5.485 -9.243 5.548 Q -9.017 5.612 -8.596 5.612 L -8.596 5.955 L -11.369 5.955 L -11.369 5.622 Q -11.026 5.612 -10.865 5.548 Q -10.703 5.485 -10.649 5.318 Q -10.595 5.151 -10.595 4.848 L -10.595 -0.307 Q -10.595 -0.591 -10.654 -0.714 Q -10.713 -0.836 -10.997 -0.836 Q -11.085 -0.836 -11.222 -0.827 Q -11.36 -0.817 -11.36 -0.817 L -11.36 -1.209 L -10.037 -1.424 Z M -9.645 -0.082 L -9.645 -0.082 L -9.645 2.682 Q -9.537 2.79 -9.375 2.951 Q -9.213 3.113 -8.988 3.235 Q -8.763 3.358 -8.498 3.358 Q -8.135 3.358 -7.836 3.137 Q -7.538 2.917 -7.351 2.447 Q -7.165 1.976 -7.165 1.251 Q -7.165 0.33 -7.498 -0.18 Q -7.832 -0.689 -8.439 -0.689 Q -8.831 -0.689 -9.155 -0.484 Q -9.478 -0.278 -9.645 -0.082 Z " fill="black" /></g></g></g><g><g><g><path d="M 60.688 -67.401 L 60.688 -67.401 L 60.688 -76.599 L 63.04 -76.599 Q 65.21 -76.599 66.344 -75.416 Q 67.478 -74.233 67.478 -72.035 Q 67.478 -69.837 66.351 -68.619 Q 65.224 -67.401 63.096 -67.401 Z M 61.892 -68.381 L 61.892 -68.381 L 62.956 -68.381 Q 64.608 -68.381 65.427 -69.34 Q 66.246 -70.299 66.246 -72.035 Q 66.246 -73.771 65.427 -74.695 Q 64.608 -75.619 62.956 -75.619 L 61.892 -75.619 Z " fill="black" /></g></g></g><g><g><g><path d="M 119.466 -66.169 L 119.466 -66.169 Q 118.178 -66.169 117.296 -66.785 Q 116.414 -67.401 116.008 -68.353 Q 115 -68.493 114.23 -69.102 Q 113.46 -69.711 113.026 -70.733 Q 112.592 -71.755 112.592 -73.113 Q 112.592 -74.583 113.103 -75.64 Q 113.614 -76.697 114.517 -77.264 Q 115.42 -77.831 116.596 -77.831 Q 117.786 -77.831 118.689 -77.264 Q 119.592 -76.697 120.103 -75.64 Q 120.614 -74.583 120.614 -73.113 Q 120.614 -71.783 120.201 -70.782 Q 119.788 -69.781 119.039 -69.158 Q 118.29 -68.535 117.296 -68.367 Q 117.618 -67.765 118.227 -67.464 Q 118.836 -67.163 119.62 -67.163 Q 119.914 -67.163 120.152 -67.198 Q 120.39 -67.233 120.572 -67.289 L 120.81 -66.365 Q 120.6 -66.295 120.25 -66.232 Q 119.9 -66.169 119.466 -66.169 Z M 116.596 -69.305 L 116.596 -69.305 Q 117.436 -69.305 118.059 -69.767 Q 118.682 -70.229 119.025 -71.083 Q 119.368 -71.937 119.368 -73.099 Q 119.368 -74.835 118.612 -75.815 Q 117.856 -76.795 116.596 -76.795 Q 115.336 -76.795 114.58 -75.808 Q 113.824 -74.821 113.824 -73.099 Q 113.824 -71.951 114.167 -71.097 Q 114.51 -70.243 115.133 -69.774 Q 115.756 -69.305 116.596 -69.305 Z " fill="black" /></g></g></g><g><g><g><path d="M 120.292 -0.553 L 120.292 -0.553 Q 120.292 1.071 119.746 2.254 Q 119.2 3.437 118.283 4.158 Q 117.366 4.879 116.246 5.131 L 116.246 5.173 Q 116.456 5.481 116.694 5.838 Q 116.932 6.195 117.268 6.503 Q 117.604 6.811 118.108 7.007 Q 118.612 7.203 119.368 7.203 L 119.298 7.595 L 118.598 7.595 Q 117.52 7.595 116.834 7.413 Q 116.148 7.231 115.749 6.853 Q 115.35 6.475 115.126 5.887 L 114.916 5.285 Q 113.278 5.187 112.417 4.305 Q 111.556 3.423 111.542 1.645 Q 111.542 0.385 111.934 -0.679 Q 112.326 -1.743 113.026 -2.534 Q 113.726 -3.325 114.678 -3.759 Q 115.63 -4.193 116.75 -4.193 Q 117.996 -4.193 118.78 -3.682 Q 119.564 -3.171 119.928 -2.338 Q 120.292 -1.505 120.292 -0.553 Z M 118.864 -0.637 L 118.864 -0.637 Q 118.864 -1.939 118.311 -2.765 Q 117.758 -3.591 116.54 -3.591 Q 115.602 -3.591 114.79 -2.954 Q 113.978 -2.317 113.481 -1.12 Q 112.984 0.077 112.984 1.771 Q 112.984 3.115 113.495 3.927 Q 114.006 4.739 115.238 4.739 Q 116.372 4.739 117.184 4.06 Q 117.996 3.381 118.43 2.17 Q 118.864 0.959 118.864 -0.637 Z " fill="black" /><rect x="110.702" y="-7.119" width="9.058" height="0.952" fill="black" /></g></g></g><circle cx="0.0" cy="144.0" r="2.6999999999999997" style="stroke:black;fill:white;stroke-width:2.0;stroke-dasharray:-;" /><g><g><g><path d="M -33.582 138.484 L -33.582 138.484 L -33.274 138.484 L -33.932 141.172 Q -34.03 141.536 -34.135 142.047 Q -34.24 142.558 -34.24 143.034 Q -34.24 143.58 -34.016 143.979 Q -33.792 144.378 -33.148 144.378 Q -32.434 144.378 -31.916 144.035 Q -31.398 143.692 -31.069 143.16 Q -30.74 142.628 -30.579 142.04 Q -30.418 141.452 -30.418 140.962 Q -30.418 140.598 -30.544 140.332 Q -30.67 140.066 -30.845 139.856 Q -31.02 139.646 -31.146 139.45 Q -31.272 139.254 -31.272 139.03 Q -31.272 138.75 -31.118 138.596 Q -30.964 138.442 -30.74 138.442 Q -30.264 138.442 -29.97 138.918 Q -29.676 139.394 -29.676 140.136 Q -29.676 140.78 -29.837 141.487 Q -29.998 142.194 -30.32 142.866 Q -30.642 143.538 -31.118 144.084 Q -31.594 144.63 -32.21 144.952 Q -32.826 145.274 -33.582 145.274 Q -34.282 145.274 -34.674 144.994 Q -35.066 144.714 -35.227 144.252 Q -35.388 143.79 -35.388 143.258 Q -35.388 142.754 -35.29 142.222 Q -35.192 141.69 -35.08 141.256 L -34.8 140.192 Q -34.772 140.08 -34.716 139.856 Q -34.66 139.632 -34.66 139.422 Q -34.66 139.24 -34.73 139.114 Q -34.8 138.988 -34.996 138.988 Q -35.164 138.988 -35.402 139.009 Q -35.64 139.03 -35.64 139.03 L -35.64 138.638 Z " fill="black" /><path d="M -25.942 147.725 L -25.942 147.725 L -25.942 148.088 L -28.421 148.088 L -28.421 147.725 Q -28.078 147.725 -27.926 147.657 Q -27.775 147.588 -27.735 147.427 Q -27.696 147.265 -27.696 146.99 L -27.696 141.816 Q -27.696 141.502 -27.809 141.434 Q -27.922 141.365 -28.157 141.365 Q -28.284 141.365 -28.367 141.38 Q -28.451 141.395 -28.451 141.395 L -28.451 141.022 L -27.118 140.767 L -26.736 140.767 L -26.736 146.99 Q -26.736 147.275 -26.692 147.436 Q -26.648 147.598 -26.476 147.662 Q -26.305 147.725 -25.942 147.725 Z " fill="black" /><path d="M -22.512 142.943 L -22.512 142.943 Q -21.777 142.943 -21.228 143.261 Q -20.679 143.58 -20.38 144.153 Q -20.082 144.727 -20.082 145.501 Q -20.082 146.432 -20.395 147.03 Q -20.709 147.627 -21.258 147.916 Q -21.806 148.206 -22.512 148.206 Q -23.227 148.206 -23.781 147.907 Q -24.335 147.608 -24.643 147.01 Q -24.952 146.412 -24.952 145.511 Q -24.952 144.746 -24.648 144.168 Q -24.345 143.59 -23.796 143.266 Q -23.247 142.943 -22.512 142.943 Z M -22.532 143.394 L -22.532 143.394 Q -23.178 143.394 -23.546 143.918 Q -23.913 144.442 -23.913 145.452 Q -23.913 146.696 -23.536 147.211 Q -23.159 147.725 -22.483 147.725 Q -22.051 147.716 -21.748 147.51 Q -21.444 147.304 -21.282 146.819 Q -21.12 146.334 -21.12 145.501 Q -21.12 144.501 -21.463 143.947 Q -21.806 143.394 -22.532 143.394 Z " fill="black" /><path d="M -14.701 146.383 L -14.701 146.383 L -15.035 148.088 L -19.053 148.088 L -19.053 147.608 L -17.661 146.197 Q -17.112 145.648 -16.754 145.226 Q -16.397 144.805 -16.22 144.379 Q -16.044 143.952 -16.044 143.404 Q -16.044 142.884 -16.362 142.546 Q -16.681 142.208 -17.259 142.208 Q -17.788 142.208 -18.146 142.419 Q -18.504 142.629 -18.778 143.11 L -19.043 142.982 Q -18.798 142.296 -18.283 141.904 Q -17.769 141.512 -17.014 141.512 Q -16.426 141.512 -15.975 141.723 Q -15.525 141.934 -15.27 142.326 Q -15.015 142.718 -15.015 143.276 Q -15.015 143.756 -15.231 144.178 Q -15.446 144.599 -15.843 145.04 Q -16.24 145.481 -16.789 146.02 L -18.014 147.206 L -18.014 147.275 L -17.249 147.235 L -15.975 147.235 Q -15.691 147.235 -15.539 147.157 Q -15.387 147.079 -15.28 146.887 Q -15.172 146.696 -15.044 146.383 Z " fill="black" /><path d="M -13.525 149.558 L -13.525 149.558 L -13.692 149.235 Q -13.486 149.146 -13.271 149.004 Q -13.055 148.862 -12.913 148.602 Q -12.771 148.343 -12.771 147.921 Q -12.937 147.99 -13.114 147.99 Q -13.437 147.99 -13.574 147.799 Q -13.712 147.608 -13.712 147.363 Q -13.712 147.098 -13.535 146.902 Q -13.359 146.706 -13.026 146.706 Q -12.604 146.706 -12.384 146.966 Q -12.163 147.226 -12.163 147.686 Q -12.163 148.157 -12.31 148.485 Q -12.457 148.813 -12.678 149.024 Q -12.898 149.235 -13.128 149.357 Q -13.359 149.48 -13.525 149.558 Z " fill="black" /><path d="M -6.734 144.805 L -6.734 144.805 L -6.734 147 Q -6.734 147.275 -6.685 147.436 Q -6.636 147.598 -6.469 147.667 Q -6.303 147.735 -5.95 147.735 L -5.95 148.088 L -8.469 148.088 L -8.469 147.735 Q -8.096 147.735 -7.93 147.667 Q -7.763 147.598 -7.724 147.436 Q -7.685 147.275 -7.685 147 L -7.685 145.128 Q -7.685 144.472 -7.836 144.163 Q -7.988 143.854 -8.219 143.756 Q -8.449 143.658 -8.684 143.658 Q -9.106 143.658 -9.424 143.874 Q -9.743 144.09 -9.978 144.286 L -9.978 147 Q -9.978 147.275 -9.934 147.436 Q -9.89 147.598 -9.723 147.667 Q -9.556 147.735 -9.194 147.735 L -9.194 148.088 L -11.663 148.088 L -11.663 147.735 Q -11.32 147.735 -11.168 147.667 Q -11.017 147.598 -10.977 147.436 Q -10.938 147.275 -10.938 147 L -10.938 144.021 Q -10.938 143.747 -11.041 143.654 Q -11.144 143.56 -11.369 143.56 Q -11.487 143.56 -11.565 143.57 Q -11.644 143.58 -11.644 143.58 L -11.644 143.208 L -10.331 142.972 L -10.007 142.972 L -10.007 143.776 L -9.939 143.776 Q -9.517 143.394 -9.13 143.168 Q -8.743 142.943 -8.253 142.943 Q -7.675 142.943 -7.346 143.203 Q -7.018 143.462 -6.876 143.884 Q -6.734 144.305 -6.734 144.805 Z " fill="black" /></g></g></g><g><g><g><path d="M 60.688 76.599 L 60.688 76.599 L 60.688 67.401 L 63.04 67.401 Q 65.21 67.401 66.344 68.584 Q 67.478 69.767 67.478 71.965 Q 67.478 74.163 66.351 75.381 Q 65.224 76.599 63.096 76.599 Z M 61.892 75.619 L 61.892 75.619 L 62.956 75.619 Q 64.608 75.619 65.427 74.66 Q 66.246 73.701 66.246 71.965 Q 66.246 70.229 65.427 69.305 Q 64.608 68.381 62.956 68.381 L 61.892 68.381 Z " fill="black" /></g></g></g><g><g><g><path d="M 119.466 77.831 L 119.466 77.831 Q 118.178 77.831 117.296 77.215 Q 116.414 76.599 116.008 75.647 Q 115 75.507 114.23 74.898 Q 113.46 74.289 113.026 73.267 Q 112.592 72.245 112.592 70.887 Q 112.592 69.417 113.103 68.36 Q 113.614 67.303 114.517 66.736 Q 115.42 66.169 116.596 66.169 Q 117.786 66.169 118.689 66.736 Q 119.592 67.303 120.103 68.36 Q 120.614 69.417 120.614 70.887 Q 120.614 72.217 120.201 73.218 Q 119.788 74.219 119.039 74.842 Q 118.29 75.465 117.296 75.633 Q 117.618 76.235 118.227 76.536 Q 118.836 76.837 119.62 76.837 Q 119.914 76.837 120.152 76.802 Q 120.39 76.767 120.572 76.711 L 120.81 77.635 Q 120.6 77.705 120.25 77.768 Q 119.9 77.831 119.466 77.831 Z M 116.596 74.695 L 116.596 74.695 Q 117.436 74.695 118.059 74.233 Q 118.682 73.771 119.025 72.917 Q 119.368 72.063 119.368 70.901 Q 119.368 69.165 118.612 68.185 Q 117.856 67.205 116.596 67.205 Q 115.336 67.205 114.58 68.192 Q 113.824 69.179 113.824 70.901 Q 113.824 72.049 114.167 72.903 Q 114.51 73.757 115.133 74.226 Q 115.756 74.695 116.596 74.695 Z " fill="black" /></g></g></g><g><g><g><path d="M 120.292 143.447 L 120.292 143.447 Q 120.292 145.071 119.746 146.254 Q 119.2 147.437 118.283 148.158 Q 117.366 148.879 116.246 149.131 L 116.246 149.173 Q 116.456 149.481 116.694 149.838 Q 116.932 150.195 117.268 150.503 Q 117.604 150.811 118.108 151.007 Q 118.612 151.203 119.368 151.203 L 119.298 151.595 L 118.598 151.595 Q 117.52 151.595 116.834 151.413 Q 116.148 151.231 115.749 150.853 Q 115.35 150.475 115.126 149.887 L 114.916 149.285 Q 113.278 149.187 112.417 148.305 Q 111.556 147.423 111.542 145.645 Q 111.542 144.385 111.934 143.321 Q 112.326 142.257 113.026 141.466 Q 113.726 140.675 114.678 140.241 Q 115.63 139.807 116.75 139.807 Q 117.996 139.807 118.78 140.318 Q 119.564 140.829 119.928 141.662 Q 120.292 142.495 120.292 143.447 Z M 118.864 143.363 L 118.864 143.363 Q 118.864 142.061 118.311 141.235 Q 117.758 140.409 116.54 140.409 Q 115.602 140.409 114.79 141.046 Q 113.978 141.683 113.481 142.88 Q 112.984 144.077 112.984 145.771 Q 112.984 147.115 113.495 147.927 Q 114.006 148.739 115.238 148.739 Q 116.372 148.739 117.184 148.06 Q 117.996 147.381 118.43 146.17 Q 118.864 144.959 118.864 143.363 Z " fill="black" /><rect x="110.702" y="136.881" width="9.058" height="0.952" fill="black" /></g></g></g><circle cx="144.0" cy="-0.0" r="2.6999999999999997" style="stroke:black;fill:black;stroke-width:2.0;stroke-dasharray:-;" /><circle cx="144.0" cy="144.0" r="2.6999999999999997" style="stroke:black;fill:black;stroke-width:2.0;stroke-dasharray:-;" /><circle cx="336.59999999999997" cy="-63.0" r="2.6999999999999997" style="stroke:black;fill:white;stroke-width:2.0;stroke-dasharray:-;" /><g><g><g><path d="M 345.7 -68.913 L 345.7 -68.913 L 346.008 -68.913 L 345.35 -66.225 Q 345.252 -65.861 345.147 -65.35 Q 345.042 -64.839 345.042 -64.363 Q 345.042 -63.817 345.266 -63.418 Q 345.49 -63.019 346.134 -63.019 Q 346.848 -63.019 347.366 -63.362 Q 347.884 -63.705 348.213 -64.237 Q 348.542 -64.769 348.703 -65.357 Q 348.864 -65.945 348.864 -66.435 Q 348.864 -66.799 348.738 -67.065 Q 348.612 -67.331 348.437 -67.541 Q 348.262 -67.751 348.136 -67.947 Q 348.01 -68.143 348.01 -68.367 Q 348.01 -68.647 348.164 -68.801 Q 348.318 -68.955 348.542 -68.955 Q 349.018 -68.955 349.312 -68.479 Q 349.606 -68.003 349.606 -67.261 Q 349.606 -66.617 349.445 -65.91 Q 349.284 -65.203 348.962 -64.531 Q 348.64 -63.859 348.164 -63.313 Q 347.688 -62.767 347.072 -62.445 Q 346.456 -62.123 345.7 -62.123 Q 345 -62.123 344.608 -62.403 Q 344.216 -62.683 344.055 -63.145 Q 343.894 -63.607 343.894 -64.139 Q 343.894 -64.643 343.992 -65.175 Q 344.09 -65.707 344.202 -66.141 L 344.482 -67.205 Q 344.51 -67.317 344.566 -67.541 Q 344.622 -67.765 344.622 -67.975 Q 344.622 -68.157 344.552 -68.283 Q 344.482 -68.409 344.286 -68.409 Q 344.118 -68.409 343.88 -68.388 Q 343.642 -68.367 343.642 -68.367 L 343.642 -68.759 Z " fill="black" /><path d="M 353.34 -59.672 L 353.34 -59.672 L 353.34 -59.309 L 350.86 -59.309 L 350.86 -59.672 Q 351.203 -59.672 351.355 -59.74 Q 351.507 -59.809 351.546 -59.97 Q 351.586 -60.132 351.586 -60.407 L 351.586 -65.581 Q 351.586 -65.894 351.473 -65.963 Q 351.36 -66.032 351.125 -66.032 Q 350.998 -66.032 350.914 -66.017 Q 350.831 -66.002 350.831 -66.002 L 350.831 -66.375 L 352.164 -66.63 L 352.546 -66.63 L 352.546 -60.407 Q 352.546 -60.122 352.59 -59.961 Q 352.634 -59.799 352.806 -59.735 Q 352.977 -59.672 353.34 -59.672 Z " fill="black" /><path d="M 356.77 -64.454 L 356.77 -64.454 Q 357.505 -64.454 358.054 -64.135 Q 358.602 -63.817 358.901 -63.244 Q 359.2 -62.67 359.2 -61.896 Q 359.2 -60.965 358.887 -60.367 Q 358.573 -59.77 358.024 -59.48 Q 357.475 -59.191 356.77 -59.191 Q 356.054 -59.191 355.501 -59.49 Q 354.947 -59.789 354.638 -60.387 Q 354.33 -60.985 354.33 -61.886 Q 354.33 -62.651 354.633 -63.229 Q 354.937 -63.807 355.486 -64.13 Q 356.035 -64.454 356.77 -64.454 Z M 356.75 -64.003 L 356.75 -64.003 Q 356.103 -64.003 355.736 -63.479 Q 355.368 -62.955 355.368 -61.945 Q 355.368 -60.7 355.746 -60.186 Q 356.123 -59.672 356.799 -59.672 Q 357.23 -59.681 357.534 -59.887 Q 357.838 -60.093 358 -60.578 Q 358.161 -61.063 358.161 -61.896 Q 358.161 -62.896 357.818 -63.449 Q 357.475 -64.003 356.75 -64.003 Z " fill="black" /><path d="M 360.621 -57.839 L 360.621 -57.839 L 360.455 -58.162 Q 360.66 -58.251 360.876 -58.393 Q 361.092 -58.535 361.234 -58.794 Q 361.376 -59.054 361.376 -59.476 Q 361.209 -59.407 361.033 -59.407 Q 360.709 -59.407 360.572 -59.598 Q 360.435 -59.789 360.435 -60.034 Q 360.435 -60.299 360.611 -60.495 Q 360.788 -60.691 361.121 -60.691 Q 361.542 -60.691 361.763 -60.431 Q 361.983 -60.171 361.983 -59.711 Q 361.983 -59.24 361.836 -58.912 Q 361.689 -58.584 361.469 -58.373 Q 361.248 -58.162 361.018 -58.04 Q 360.788 -57.917 360.621 -57.839 Z " fill="black" /><path d="M 364.972 -59.672 L 364.972 -59.672 L 364.972 -59.309 L 362.483 -59.309 L 362.483 -59.672 Q 362.826 -59.672 362.978 -59.745 Q 363.13 -59.819 363.169 -59.98 Q 363.208 -60.142 363.208 -60.407 L 363.208 -63.366 Q 363.208 -63.699 363.101 -63.768 Q 362.993 -63.837 362.738 -63.837 Q 362.611 -63.837 362.532 -63.827 Q 362.454 -63.817 362.454 -63.817 L 362.454 -64.209 L 363.767 -64.424 L 364.169 -64.424 L 364.169 -60.407 Q 364.169 -60.122 364.213 -59.961 Q 364.257 -59.799 364.428 -59.735 Q 364.6 -59.672 364.972 -59.672 Z M 363.679 -66.59 L 363.679 -66.59 Q 363.963 -66.59 364.154 -66.394 Q 364.345 -66.198 364.345 -65.944 Q 364.345 -65.708 364.154 -65.512 Q 363.963 -65.316 363.679 -65.316 Q 363.404 -65.316 363.223 -65.512 Q 363.042 -65.708 363.042 -65.944 Q 363.042 -66.198 363.223 -66.394 Q 363.404 -66.59 363.679 -66.59 Z " fill="black" /><path d="M 367.422 -64.424 L 367.422 -64.424 L 367.422 -63.582 L 367.471 -63.582 Q 367.854 -64.023 368.236 -64.238 Q 368.618 -64.454 369.079 -64.454 Q 369.598 -64.454 370.019 -64.145 Q 370.441 -63.837 370.691 -63.293 Q 370.941 -62.749 370.941 -62.043 Q 370.941 -61.122 370.612 -60.485 Q 370.284 -59.848 369.74 -59.52 Q 369.196 -59.191 368.559 -59.191 Q 368.255 -59.191 367.986 -59.27 Q 367.716 -59.348 367.491 -59.476 L 367.442 -59.476 L 367.442 -58.221 Q 367.442 -57.878 367.53 -57.697 Q 367.618 -57.516 367.844 -57.452 Q 368.069 -57.388 368.491 -57.388 L 368.491 -57.045 L 365.717 -57.045 L 365.717 -57.378 Q 366.06 -57.388 366.222 -57.452 Q 366.384 -57.516 366.438 -57.682 Q 366.491 -57.849 366.491 -58.153 L 366.491 -63.307 Q 366.491 -63.592 366.433 -63.714 Q 366.374 -63.837 366.09 -63.837 Q 366.001 -63.837 365.864 -63.827 Q 365.727 -63.817 365.727 -63.817 L 365.727 -64.209 L 367.05 -64.424 Z M 367.442 -63.082 L 367.442 -63.082 L 367.442 -60.318 Q 367.55 -60.211 367.712 -60.049 Q 367.873 -59.887 368.099 -59.765 Q 368.324 -59.642 368.589 -59.642 Q 368.951 -59.642 369.25 -59.863 Q 369.549 -60.083 369.735 -60.553 Q 369.921 -61.024 369.921 -61.749 Q 369.921 -62.67 369.588 -63.18 Q 369.255 -63.69 368.647 -63.69 Q 368.255 -63.69 367.932 -63.484 Q 367.609 -63.278 367.442 -63.082 Z " fill="black" /></g></g></g><circle cx="161.99999999999997" cy="144.0" r="2.6999999999999997" style="stroke:black;fill:black;stroke-width:2.0;stroke-dasharray:-;" /><circle cx="336.59999999999997" cy="81.0" r="2.6999999999999997" style="stroke:black;fill:white;stroke-width:2.0;stroke-dasharray:-;" /><g><g><g><path d="M 345.7 75.087 L 345.7 75.087 L 346.008 75.087 L 345.35 77.775 Q 345.252 78.139 345.147 78.65 Q 345.042 79.161 345.042 79.637 Q 345.042 80.183 345.266 80.582 Q 345.49 80.981 346.134 80.981 Q 346.848 80.981 347.366 80.638 Q 347.884 80.295 348.213 79.763 Q 348.542 79.231 348.703 78.643 Q 348.864 78.055 348.864 77.565 Q 348.864 77.201 348.738 76.935 Q 348.612 76.669 348.437 76.459 Q 348.262 76.249 348.136 76.053 Q 348.01 75.857 348.01 75.633 Q 348.01 75.353 348.164 75.199 Q 348.318 75.045 348.542 75.045 Q 349.018 75.045 349.312 75.521 Q 349.606 75.997 349.606 76.739 Q 349.606 77.383 349.445 78.09 Q 349.284 78.797 348.962 79.469 Q 348.64 80.141 348.164 80.687 Q 347.688 81.233 347.072 81.555 Q 346.456 81.877 345.7 81.877 Q 345 81.877 344.608 81.597 Q 344.216 81.317 344.055 80.855 Q 343.894 80.393 343.894 79.861 Q 343.894 79.357 343.992 78.825 Q 344.09 78.293 344.202 77.859 L 344.482 76.795 Q 344.51 76.683 344.566 76.459 Q 344.622 76.235 344.622 76.025 Q 344.622 75.843 344.552 75.717 Q 344.482 75.591 344.286 75.591 Q 344.118 75.591 343.88 75.612 Q 343.642 75.633 343.642 75.633 L 343.642 75.241 Z " fill="black" /><path d="M 353.34 84.329 L 353.34 84.329 L 353.34 84.691 L 350.86 84.691 L 350.86 84.329 Q 351.203 84.329 351.355 84.26 Q 351.507 84.191 351.546 84.03 Q 351.586 83.868 351.586 83.594 L 351.586 78.419 Q 351.586 78.106 351.473 78.037 Q 351.36 77.968 351.125 77.968 Q 350.998 77.968 350.914 77.983 Q 350.831 77.998 350.831 77.998 L 350.831 77.625 L 352.164 77.371 L 352.546 77.371 L 352.546 83.594 Q 352.546 83.878 352.59 84.039 Q 352.634 84.201 352.806 84.265 Q 352.977 84.329 353.34 84.329 Z " fill="black" /><path d="M 356.77 79.546 L 356.77 79.546 Q 357.505 79.546 358.054 79.865 Q 358.602 80.183 358.901 80.756 Q 359.2 81.33 359.2 82.104 Q 359.2 83.035 358.887 83.633 Q 358.573 84.231 358.024 84.52 Q 357.475 84.809 356.77 84.809 Q 356.054 84.809 355.501 84.51 Q 354.947 84.211 354.638 83.613 Q 354.33 83.015 354.33 82.114 Q 354.33 81.349 354.633 80.771 Q 354.937 80.193 355.486 79.87 Q 356.035 79.546 356.77 79.546 Z M 356.75 79.997 L 356.75 79.997 Q 356.103 79.997 355.736 80.521 Q 355.368 81.046 355.368 82.055 Q 355.368 83.3 355.746 83.814 Q 356.123 84.329 356.799 84.329 Q 357.23 84.319 357.534 84.113 Q 357.838 83.907 358 83.422 Q 358.161 82.937 358.161 82.104 Q 358.161 81.104 357.818 80.551 Q 357.475 79.997 356.75 79.997 Z " fill="black" /><path d="M 360.621 86.161 L 360.621 86.161 L 360.455 85.838 Q 360.66 85.75 360.876 85.607 Q 361.092 85.465 361.234 85.206 Q 361.376 84.946 361.376 84.525 Q 361.209 84.593 361.033 84.593 Q 360.709 84.593 360.572 84.402 Q 360.435 84.211 360.435 83.966 Q 360.435 83.701 360.611 83.505 Q 360.788 83.309 361.121 83.309 Q 361.542 83.309 361.763 83.569 Q 361.983 83.829 361.983 84.289 Q 361.983 84.76 361.836 85.088 Q 361.689 85.416 361.469 85.627 Q 361.248 85.838 361.018 85.96 Q 360.788 86.083 360.621 86.161 Z " fill="black" /><path d="M 367.736 86.955 L 367.736 86.955 L 365.07 86.955 L 365.07 86.612 Q 365.521 86.612 365.732 86.534 Q 365.943 86.455 366.011 86.269 Q 366.08 86.083 366.08 85.769 L 366.08 84.064 L 366.031 84.064 Q 365.668 84.329 365.296 84.554 Q 364.923 84.779 364.375 84.779 Q 363.806 84.779 363.399 84.461 Q 362.993 84.142 362.777 83.594 Q 362.562 83.045 362.562 82.359 Q 362.562 81.516 362.89 80.884 Q 363.218 80.252 363.777 79.899 Q 364.335 79.546 365.021 79.546 Q 365.364 79.546 365.653 79.625 Q 365.943 79.703 366.305 79.928 L 366.707 79.585 L 367.03 79.585 L 367.03 85.877 Q 367.03 86.269 367.158 86.44 Q 367.285 86.612 367.736 86.612 Z M 366.08 83.574 L 366.08 83.574 L 366.08 80.742 Q 365.923 80.418 365.678 80.227 Q 365.433 80.036 365.021 80.036 Q 364.355 80.036 363.934 80.477 Q 363.512 80.918 363.512 81.928 Q 363.512 82.467 363.64 82.927 Q 363.767 83.388 364.071 83.667 Q 364.375 83.946 364.904 83.946 Q 365.296 83.946 365.58 83.839 Q 365.864 83.731 366.08 83.574 Z " fill="black" /><path d="M 370.088 79.576 L 370.088 79.576 L 370.088 80.418 L 370.137 80.418 Q 370.519 79.977 370.901 79.762 Q 371.284 79.546 371.744 79.546 Q 372.264 79.546 372.685 79.855 Q 373.106 80.164 373.356 80.707 Q 373.606 81.251 373.606 81.957 Q 373.606 82.878 373.278 83.515 Q 372.95 84.152 372.406 84.48 Q 371.862 84.809 371.225 84.809 Q 370.921 84.809 370.651 84.73 Q 370.382 84.652 370.157 84.525 L 370.108 84.525 L 370.108 85.779 Q 370.108 86.122 370.196 86.303 Q 370.284 86.485 370.509 86.548 Q 370.735 86.612 371.156 86.612 L 371.156 86.955 L 368.383 86.955 L 368.383 86.622 Q 368.726 86.612 368.887 86.548 Q 369.049 86.485 369.103 86.318 Q 369.157 86.151 369.157 85.848 L 369.157 80.693 Q 369.157 80.409 369.098 80.286 Q 369.039 80.164 368.755 80.164 Q 368.667 80.164 368.53 80.173 Q 368.393 80.183 368.393 80.183 L 368.393 79.791 L 369.716 79.576 Z M 370.108 80.918 L 370.108 80.918 L 370.108 83.682 Q 370.215 83.79 370.377 83.951 Q 370.539 84.113 370.764 84.235 Q 370.99 84.358 371.254 84.358 Q 371.617 84.358 371.916 84.137 Q 372.215 83.917 372.401 83.447 Q 372.587 82.976 372.587 82.251 Q 372.587 81.33 372.254 80.82 Q 371.921 80.311 371.313 80.311 Q 370.921 80.311 370.598 80.516 Q 370.274 80.722 370.108 80.918 Z " fill="black" /></g></g></g><circle cx="198.0" cy="-72.0" r="2.6999999999999997" style="stroke:black;fill:black;stroke-width:2.0;stroke-dasharray:-;" /><circle cx="336.59999999999997" cy="9.0" r="2.6999999999999997" style="stroke:black;fill:white;stroke-width:2.0;stroke-dasharray:-;" /><g><g><g><path d="M 345.7 3.484 L 345.7 3.484 L 346.008 3.484 L 345.35 6.172 Q 345.252 6.536 345.147 7.047 Q 345.042 7.558 345.042 8.034 Q 345.042 8.58 345.266 8.979 Q 345.49 9.378 346.134 9.378 Q 346.848 9.378 347.366 9.035 Q 347.884 8.692 348.213 8.16 Q 348.542 7.628 348.703 7.04 Q 348.864 6.452 348.864 5.962 Q 348.864 5.598 348.738 5.332 Q 348.612 5.066 348.437 4.856 Q 348.262 4.646 348.136 4.45 Q 348.01 4.254 348.01 4.03 Q 348.01 3.75 348.164 3.596 Q 348.318 3.442 348.542 3.442 Q 349.018 3.442 349.312 3.918 Q 349.606 4.394 349.606 5.136 Q 349.606 5.78 349.445 6.487 Q 349.284 7.194 348.962 7.866 Q 348.64 8.538 348.164 9.084 Q 347.688 9.63 347.072 9.952 Q 346.456 10.274 345.7 10.274 Q 345 10.274 344.608 9.994 Q 344.216 9.714 344.055 9.252 Q 343.894 8.79 343.894 8.258 Q 343.894 7.754 343.992 7.222 Q 344.09 6.69 344.202 6.256 L 344.482 5.192 Q 344.51 5.08 344.566 4.856 Q 344.622 4.632 344.622 4.422 Q 344.622 4.24 344.552 4.114 Q 344.482 3.988 344.286 3.988 Q 344.118 3.988 343.88 4.009 Q 343.642 4.03 343.642 4.03 L 343.642 3.638 Z " fill="black" /><path d="M 353.34 12.725 L 353.34 12.725 L 353.34 13.088 L 350.86 13.088 L 350.86 12.725 Q 351.203 12.725 351.355 12.657 Q 351.507 12.588 351.546 12.426 Q 351.586 12.265 351.586 11.99 L 351.586 6.816 Q 351.586 6.502 351.473 6.434 Q 351.36 6.365 351.125 6.365 Q 350.998 6.365 350.914 6.38 Q 350.831 6.395 350.831 6.395 L 350.831 6.022 L 352.164 5.767 L 352.546 5.767 L 352.546 11.99 Q 352.546 12.275 352.59 12.436 Q 352.634 12.598 352.806 12.662 Q 352.977 12.725 353.34 12.725 Z " fill="black" /><path d="M 356.77 7.943 L 356.77 7.943 Q 357.505 7.943 358.054 8.261 Q 358.602 8.58 358.901 9.153 Q 359.2 9.727 359.2 10.501 Q 359.2 11.432 358.887 12.03 Q 358.573 12.627 358.024 12.916 Q 357.475 13.206 356.77 13.206 Q 356.054 13.206 355.501 12.907 Q 354.947 12.608 354.638 12.01 Q 354.33 11.412 354.33 10.511 Q 354.33 9.746 354.633 9.168 Q 354.937 8.59 355.486 8.266 Q 356.035 7.943 356.77 7.943 Z M 356.75 8.394 L 356.75 8.394 Q 356.103 8.394 355.736 8.918 Q 355.368 9.442 355.368 10.452 Q 355.368 11.696 355.746 12.211 Q 356.123 12.725 356.799 12.725 Q 357.23 12.716 357.534 12.51 Q 357.838 12.304 358 11.819 Q 358.161 11.334 358.161 10.501 Q 358.161 9.501 357.818 8.947 Q 357.475 8.394 356.75 8.394 Z " fill="black" /><path d="M 360.621 14.558 L 360.621 14.558 L 360.455 14.235 Q 360.66 14.146 360.876 14.004 Q 361.092 13.862 361.234 13.602 Q 361.376 13.343 361.376 12.921 Q 361.209 12.99 361.033 12.99 Q 360.709 12.99 360.572 12.799 Q 360.435 12.608 360.435 12.363 Q 360.435 12.098 360.611 11.902 Q 360.788 11.706 361.121 11.706 Q 361.542 11.706 361.763 11.966 Q 361.983 12.226 361.983 12.686 Q 361.983 13.157 361.836 13.485 Q 361.689 13.813 361.469 14.024 Q 361.248 14.235 361.018 14.357 Q 360.788 14.48 360.621 14.558 Z " fill="black" /><path d="M 364.972 12.725 L 364.972 12.725 L 364.972 13.088 L 362.483 13.088 L 362.483 12.725 Q 362.826 12.725 362.978 12.652 Q 363.13 12.578 363.169 12.417 Q 363.208 12.255 363.208 11.99 L 363.208 9.031 Q 363.208 8.698 363.101 8.629 Q 362.993 8.56 362.738 8.56 Q 362.611 8.56 362.532 8.57 Q 362.454 8.58 362.454 8.58 L 362.454 8.188 L 363.767 7.972 L 364.169 7.972 L 364.169 11.99 Q 364.169 12.275 364.213 12.436 Q 364.257 12.598 364.428 12.662 Q 364.6 12.725 364.972 12.725 Z M 363.679 5.807 L 363.679 5.807 Q 363.963 5.807 364.154 6.003 Q 364.345 6.199 364.345 6.453 Q 364.345 6.689 364.154 6.885 Q 363.963 7.081 363.679 7.081 Q 363.404 7.081 363.223 6.885 Q 363.042 6.689 363.042 6.453 Q 363.042 6.199 363.223 6.003 Q 363.404 5.807 363.679 5.807 Z " fill="black" /><path d="M 370.794 9.805 L 370.794 9.805 L 370.794 12 Q 370.794 12.275 370.843 12.436 Q 370.892 12.598 371.058 12.667 Q 371.225 12.735 371.578 12.735 L 371.578 13.088 L 369.059 13.088 L 369.059 12.735 Q 369.431 12.735 369.598 12.667 Q 369.765 12.598 369.804 12.436 Q 369.843 12.275 369.843 12 L 369.843 10.128 Q 369.843 9.472 369.691 9.163 Q 369.539 8.854 369.309 8.756 Q 369.079 8.658 368.843 8.658 Q 368.422 8.658 368.103 8.874 Q 367.785 9.09 367.55 9.286 L 367.55 12 Q 367.55 12.275 367.594 12.436 Q 367.638 12.598 367.805 12.667 Q 367.971 12.735 368.334 12.735 L 368.334 13.088 L 365.864 13.088 L 365.864 12.735 Q 366.207 12.735 366.359 12.667 Q 366.511 12.598 366.55 12.436 Q 366.589 12.275 366.589 12 L 366.589 9.021 Q 366.589 8.747 366.486 8.654 Q 366.384 8.56 366.158 8.56 Q 366.041 8.56 365.962 8.57 Q 365.884 8.58 365.884 8.58 L 365.884 8.208 L 367.197 7.972 L 367.52 7.972 L 367.52 8.776 L 367.589 8.776 Q 368.01 8.394 368.397 8.168 Q 368.785 7.943 369.275 7.943 Q 369.853 7.943 370.181 8.203 Q 370.509 8.462 370.651 8.884 Q 370.794 9.305 370.794 9.805 Z " fill="black" /></g></g></g><circle cx="180.0" cy="72.0" r="2.6999999999999997" style="stroke:black;fill:black;stroke-width:2.0;stroke-dasharray:-;" /><circle cx="336.59999999999997" cy="153.0" r="2.6999999999999997" style="stroke:black;fill:white;stroke-width:2.0;stroke-dasharray:-;" /><g><g><g><path d="M 345.7 147.087 L 345.7 147.087 L 346.008 147.087 L 345.35 149.775 Q 345.252 150.139 345.147 150.65 Q 345.042 151.161 345.042 151.637 Q 345.042 152.183 345.266 152.582 Q 345.49 152.981 346.134 152.981 Q 346.848 152.981 347.366 152.638 Q 347.884 152.295 348.213 151.763 Q 348.542 151.231 348.703 150.643 Q 348.864 150.055 348.864 149.565 Q 348.864 149.201 348.738 148.935 Q 348.612 148.669 348.437 148.459 Q 348.262 148.249 348.136 148.053 Q 348.01 147.857 348.01 147.633 Q 348.01 147.353 348.164 147.199 Q 348.318 147.045 348.542 147.045 Q 349.018 147.045 349.312 147.521 Q 349.606 147.997 349.606 148.739 Q 349.606 149.383 349.445 150.09 Q 349.284 150.797 348.962 151.469 Q 348.64 152.141 348.164 152.687 Q 347.688 153.233 347.072 153.555 Q 346.456 153.877 345.7 153.877 Q 345 153.877 344.608 153.597 Q 344.216 153.317 344.055 152.855 Q 343.894 152.393 343.894 151.861 Q 343.894 151.357 343.992 150.825 Q 344.09 150.293 344.202 149.859 L 344.482 148.795 Q 344.51 148.683 344.566 148.459 Q 344.622 148.235 344.622 148.025 Q 344.622 147.843 344.552 147.717 Q 344.482 147.591 344.286 147.591 Q 344.118 147.591 343.88 147.612 Q 343.642 147.633 343.642 147.633 L 343.642 147.241 Z " fill="black" /><path d="M 353.34 156.329 L 353.34 156.329 L 353.34 156.691 L 350.86 156.691 L 350.86 156.329 Q 351.203 156.329 351.355 156.26 Q 351.507 156.191 351.546 156.03 Q 351.586 155.868 351.586 155.594 L 351.586 150.419 Q 351.586 150.106 351.473 150.037 Q 351.36 149.968 351.125 149.968 Q 350.998 149.968 350.914 149.983 Q 350.831 149.998 350.831 149.998 L 350.831 149.625 L 352.164 149.37 L 352.546 149.37 L 352.546 155.594 Q 352.546 155.878 352.59 156.039 Q 352.634 156.201 352.806 156.265 Q 352.977 156.329 353.34 156.329 Z " fill="black" /><path d="M 356.77 151.546 L 356.77 151.546 Q 357.505 151.546 358.054 151.865 Q 358.602 152.183 358.901 152.756 Q 359.2 153.33 359.2 154.104 Q 359.2 155.035 358.887 155.633 Q 358.573 156.231 358.024 156.52 Q 357.475 156.809 356.77 156.809 Q 356.054 156.809 355.501 156.51 Q 354.947 156.211 354.638 155.613 Q 354.33 155.015 354.33 154.114 Q 354.33 153.349 354.633 152.771 Q 354.937 152.193 355.486 151.87 Q 356.035 151.546 356.77 151.546 Z M 356.75 151.997 L 356.75 151.997 Q 356.103 151.997 355.736 152.521 Q 355.368 153.046 355.368 154.055 Q 355.368 155.299 355.746 155.814 Q 356.123 156.329 356.799 156.329 Q 357.23 156.319 357.534 156.113 Q 357.838 155.907 358 155.422 Q 358.161 154.937 358.161 154.104 Q 358.161 153.104 357.818 152.551 Q 357.475 151.997 356.75 151.997 Z " fill="black" /><path d="M 360.621 158.161 L 360.621 158.161 L 360.455 157.838 Q 360.66 157.75 360.876 157.607 Q 361.092 157.465 361.234 157.206 Q 361.376 156.946 361.376 156.525 Q 361.209 156.593 361.033 156.593 Q 360.709 156.593 360.572 156.402 Q 360.435 156.211 360.435 155.966 Q 360.435 155.701 360.611 155.505 Q 360.788 155.309 361.121 155.309 Q 361.542 155.309 361.763 155.569 Q 361.983 155.829 361.983 156.289 Q 361.983 156.76 361.836 157.088 Q 361.689 157.416 361.469 157.627 Q 361.248 157.838 361.018 157.96 Q 360.788 158.083 360.621 158.161 Z " fill="black" /><path d="M 367.736 158.955 L 367.736 158.955 L 365.07 158.955 L 365.07 158.612 Q 365.521 158.612 365.732 158.534 Q 365.943 158.455 366.011 158.269 Q 366.08 158.083 366.08 157.769 L 366.08 156.064 L 366.031 156.064 Q 365.668 156.329 365.296 156.554 Q 364.923 156.779 364.375 156.779 Q 363.806 156.779 363.399 156.461 Q 362.993 156.142 362.777 155.594 Q 362.562 155.045 362.562 154.359 Q 362.562 153.516 362.89 152.884 Q 363.218 152.252 363.777 151.899 Q 364.335 151.546 365.021 151.546 Q 365.364 151.546 365.653 151.625 Q 365.943 151.703 366.305 151.928 L 366.707 151.585 L 367.03 151.585 L 367.03 157.877 Q 367.03 158.269 367.158 158.44 Q 367.285 158.612 367.736 158.612 Z M 366.08 155.574 L 366.08 155.574 L 366.08 152.742 Q 365.923 152.418 365.678 152.227 Q 365.433 152.036 365.021 152.036 Q 364.355 152.036 363.934 152.477 Q 363.512 152.918 363.512 153.928 Q 363.512 154.466 363.64 154.927 Q 363.767 155.388 364.071 155.667 Q 364.375 155.946 364.904 155.946 Q 365.296 155.946 365.58 155.839 Q 365.864 155.731 366.08 155.574 Z " fill="black" /><path d="M 373.459 153.408 L 373.459 153.408 L 373.459 155.603 Q 373.459 155.878 373.508 156.039 Q 373.557 156.201 373.724 156.27 Q 373.89 156.338 374.243 156.338 L 374.243 156.691 L 371.725 156.691 L 371.725 156.338 Q 372.097 156.338 372.264 156.27 Q 372.43 156.201 372.469 156.039 Q 372.509 155.878 372.509 155.603 L 372.509 153.732 Q 372.509 153.075 372.357 152.766 Q 372.205 152.458 371.974 152.359 Q 371.744 152.262 371.509 152.262 Q 371.088 152.262 370.769 152.477 Q 370.451 152.693 370.215 152.889 L 370.215 155.603 Q 370.215 155.878 370.259 156.039 Q 370.304 156.201 370.47 156.27 Q 370.637 156.338 370.999 156.338 L 370.999 156.691 L 368.53 156.691 L 368.53 156.338 Q 368.873 156.338 369.025 156.27 Q 369.177 156.201 369.216 156.039 Q 369.255 155.878 369.255 155.603 L 369.255 152.624 Q 369.255 152.35 369.152 152.257 Q 369.049 152.163 368.824 152.163 Q 368.706 152.163 368.628 152.173 Q 368.549 152.183 368.549 152.183 L 368.549 151.811 L 369.863 151.576 L 370.186 151.576 L 370.186 152.379 L 370.255 152.379 Q 370.676 151.997 371.063 151.772 Q 371.45 151.546 371.94 151.546 Q 372.518 151.546 372.847 151.806 Q 373.175 152.066 373.317 152.487 Q 373.459 152.908 373.459 153.408 Z " fill="black" /></g></g></g><circle cx="216.0" cy="-0.0" r="2.6999999999999997" style="stroke:black;fill:black;stroke-width:2.0;stroke-dasharray:-;" /></svg>