<svg xmlns="http://www.w3.org/2000/svg" xmlns:xlink="http://www.w3.org/1999/xlink" xml:lang="en" height="157.216pt" width="183.9464pt" viewBox="-98.3464 -95.342 183.9464 157.216"><path d="M 0.0,-0.0 L 0.0,-14.999999999999995 L -14.999999999999998,-14.999999999999995 L -14.999999999999998,-45.0 L 0.0,-45.0 L 0.0,-59.99999999999999" style="stroke:black;fill:none;stroke-width:2.0;stroke-dasharray:-;stroke-linecap:round;stroke-linejoin:round;" /><path d="M -9.0,-14.999999999999996 L -14.999999999999998,-14.999999999999995" style="stroke:black;fill:none;stroke-width:2.0;stroke-dasharray:-;stroke-linecap:round;stroke-linejoin:round;" /><path d="M -2.0 -14.999999999999995 L -9.0 -10.499999999999995 L -9.0 -19.499999999999993 Z" style="stroke:black;fill:black;stroke-linecap:butt;stroke-linejoin:miter;" /><path d="M -17.999999999999996,-17.999999999999993 L -17.999999999999996,-41.99999999999999" style="stroke:black;fill:none;stroke-width:2.0;stroke-dasharray:-;stroke-linecap:round;stroke-linejoin:round;" /><path d="M -32.99999999999999,-29.999999999999996 L -17.999999999999996,-29.999999999999996" style="stroke:black;fill:none;stroke-width:2.0;stroke-dasharray:-;stroke-linecap:round;stroke-linejoin:round;" /><path d="M 0.0,-59.99999999999999 L 5.51091059616309e-16,-69.0 L 1.102182119232618e-15,-78.0" style="stroke:black;fill:none;stroke-width:2.0;stroke-dasharray:-;stroke-linecap:round;stroke-linejoin:round;" /><path d="M 1.102182119232618e-15,-78.0 L -17.999999999999996,-78.0 L -36.0,-78.0" style="stroke:black;fill:none;stroke-width:2.0;stroke-dasharray:-;stroke-linecap:round;stroke-linejoin:round;" /><path d="M -32.99999999999999,-29.999999999999996 L -50.99999999999999,-30.0 L -69.0,-30.0" style="stroke:black;fill:none;stroke-width:2.0;stroke-dasharray:-;stroke-linecap:round;stroke-linejoin:round;" /><path d="M -69.0,-30.0 L -69.0,-39.00000000000001 L -69.0,-48.00000000000001" style="stroke:black;fill:none;stroke-width:2.0;stroke-dasharray:-;stroke-linecap:round;stroke-linejoin:round;" /><path d="M -69.0,-30.0 L -69.0,2.76 M -60.0,2.76 L -78.0,2.76 M -60.0,9.240000000000002 L -78.00000000000001,9.240000000000002 M -69.0,9.240000000000002 L -69.00000000000001,41.99999999999999" style="stroke:black;fill:none;stroke-width:2.0;stroke-dasharray:-;stroke-linecap:round;stroke-linejoin:round;" /><path d="M -69.00000000000001,41.99999999999999 L -34.50000000000001,41.99999999999999 L 0.0,41.99999999999999" style="stroke:black;fill:none;stroke-width:2.0;stroke-dasharray:-;stroke-linecap:round;stroke-linejoin:round;" /><path d="M 0.0,41.99999999999999 L 1.2858791391047206e-15,20.999999999999996 L 2.5717582782094413e-15,-0.0" style="stroke:black;fill:none;stroke-width:2.0;stroke-dasharray:-;stroke-linecap:round;stroke-linejoin:round;" /><path d="M 0.0,41.99999999999999 L 36.0,41.99999999999999 L 72.0,41.99999999999999" style="stroke:black;fill:none;stroke-width:2.0;stroke-dasharray:-;stroke-linecap:round;stroke-linejoin:round;" /><path d="M 72.0,41.99999999999999 L 72.0,-14.759999999999998 M 63.0,-14.759999999999998 L 81.0,-14.759999999999998 M 63.0,-21.239999999999995 L 81.0,-21.239999999999995 M 72.0,-21.239999999999995 L 72.0,-78.0" style="stroke:black;fill:none;stroke-width:2.0;stroke-dasharray:-;stroke-linecap:round;stroke-linejoin:round;" /><path d="M 72.0,-78.0 L 36.0,-78.0 L 0.0,-78.00000000000001" style="stroke:black;fill:none;stroke-width:2.0;stroke-dasharray:-;stroke-linecap:round;stroke-linejoin:round;" /><g><g><g><path d="M 10.474 -34.76 L 10.474 -34.76 L 10.39 -34.046 L 9.172 -34.186 L 9.172 -34.144 Q 9.41 -33.878 9.543 -33.479 Q 9.676 -33.08 9.676 -32.716 Q 9.676 -32.086 9.424 -31.659 Q 9.172 -31.232 8.766 -30.973 Q 8.36 -30.714 7.87 -30.581 Q 7.38 -30.448 6.918 -30.406 Q 6.358 -30.35 6.127 -30.168 Q 5.896 -29.986 5.896 -29.79 Q 5.896 -29.538 6.176 -29.405 Q 6.456 -29.272 6.897 -29.188 Q 7.338 -29.104 7.842 -28.999 Q 8.346 -28.894 8.787 -28.712 Q 9.228 -28.53 9.508 -28.201 Q 9.788 -27.872 9.788 -27.326 Q 9.788 -26.724 9.396 -26.213 Q 9.004 -25.702 8.234 -25.387 Q 7.464 -25.072 6.344 -25.072 Q 5.336 -25.072 4.734 -25.317 Q 4.132 -25.562 3.866 -25.947 Q 3.6 -26.332 3.6 -26.752 Q 3.6 -27.424 4.118 -27.837 Q 4.636 -28.25 5.294 -28.46 L 5.294 -28.516 Q 5.112 -28.628 4.951 -28.831 Q 4.79 -29.034 4.79 -29.356 Q 4.79 -29.706 4.972 -29.916 Q 5.154 -30.126 5.441 -30.259 Q 5.728 -30.392 6.008 -30.49 L 6.008 -30.574 Q 5.462 -30.812 5.056 -31.246 Q 4.65 -31.68 4.65 -32.478 Q 4.65 -33.206 5 -33.759 Q 5.35 -34.312 5.959 -34.62 Q 6.568 -34.928 7.324 -34.928 Q 7.828 -34.928 8.087 -34.879 Q 8.346 -34.83 8.598 -34.76 Z M 8.78 -26.808 L 8.78 -26.808 Q 8.78 -27.228 8.43 -27.487 Q 8.08 -27.746 7.562 -27.9 Q 7.044 -28.054 6.519 -28.145 Q 5.994 -28.236 5.63 -28.306 Q 5.28 -28.082 4.986 -27.795 Q 4.692 -27.508 4.692 -26.962 Q 4.692 -26.402 5.126 -25.982 Q 5.56 -25.562 6.624 -25.562 Q 7.632 -25.562 8.206 -25.933 Q 8.78 -26.304 8.78 -26.808 Z M 8.43 -32.87 L 8.43 -32.87 Q 8.43 -33.57 8.164 -34.039 Q 7.898 -34.508 7.282 -34.508 Q 6.68 -34.508 6.288 -34.004 Q 5.896 -33.5 5.896 -32.478 Q 5.896 -31.75 6.148 -31.295 Q 6.4 -30.84 7.002 -30.84 Q 7.702 -30.84 8.066 -31.428 Q 8.43 -32.016 8.43 -32.87 Z " fill="black" /><path d="M 12.865 -29.075 L 12.865 -29.075 L 12.865 -26.36 Q 12.865 -26.066 12.924 -25.909 Q 12.983 -25.752 13.149 -25.698 Q 13.316 -25.645 13.639 -25.645 L 13.639 -25.282 L 11.17 -25.282 L 11.17 -25.645 Q 11.483 -25.645 11.64 -25.698 Q 11.797 -25.752 11.846 -25.914 Q 11.895 -26.076 11.895 -26.38 L 11.895 -29.349 Q 11.895 -29.623 11.792 -29.716 Q 11.689 -29.81 11.464 -29.81 Q 11.356 -29.81 11.273 -29.8 Q 11.189 -29.79 11.189 -29.79 L 11.189 -30.162 L 12.473 -30.398 L 12.836 -30.398 L 12.836 -29.594 L 12.904 -29.594 Q 13.316 -29.966 13.728 -30.197 Q 14.139 -30.427 14.698 -30.427 Q 15.158 -30.427 15.447 -30.192 Q 15.737 -29.957 15.893 -29.614 L 15.942 -29.614 Q 16.834 -30.427 17.657 -30.427 Q 18.324 -30.427 18.711 -30.015 Q 19.098 -29.604 19.098 -28.712 L 19.098 -26.556 Q 19.098 -26.223 19.137 -26.022 Q 19.176 -25.821 19.333 -25.733 Q 19.49 -25.645 19.843 -25.645 L 19.843 -25.282 L 17.383 -25.282 L 17.383 -25.645 Q 17.746 -25.645 17.907 -25.738 Q 18.069 -25.831 18.108 -26.032 Q 18.147 -26.233 18.147 -26.556 L 18.147 -28.594 Q 18.147 -29.212 17.897 -29.457 Q 17.648 -29.702 17.256 -29.702 Q 16.922 -29.702 16.589 -29.501 Q 16.256 -29.3 16.001 -29.104 L 16.001 -26.556 Q 16.001 -26.193 16.045 -25.992 Q 16.089 -25.792 16.261 -25.718 Q 16.432 -25.645 16.795 -25.645 L 16.795 -25.282 L 14.237 -25.282 L 14.237 -25.645 Q 14.61 -25.645 14.781 -25.718 Q 14.953 -25.792 15.002 -25.992 Q 15.051 -26.193 15.051 -26.556 L 15.051 -28.624 Q 15.051 -29.241 14.83 -29.471 Q 14.61 -29.702 14.227 -29.702 Q 13.826 -29.702 13.458 -29.486 Q 13.091 -29.271 12.865 -29.075 Z " fill="black" /></g></g></g><circle cx="1.102182119232618e-15" cy="-78.0" r="2.6999999999999997" style="stroke:black;fill:black;stroke-width:2.0;stroke-dasharray:-;" /><circle cx="-36.0" cy="-78.0" r="2.6999999999999997" style="stroke:black;fill:white;stroke-width:2.0;stroke-dasharray:-;" /><g><g><g><path d="M -67.848 -77.475 L -67.848 -77.475 L -68.66 -74.871 L -75.716 -74.871 L -75.646 -75.277 L -68.562 -83.425 L -68.562 -83.481 L -71.124 -83.481 Q -71.838 -83.481 -72.272 -83.376 Q -72.706 -83.271 -73 -82.907 Q -73.294 -82.543 -73.602 -81.759 L -74.05 -81.759 L -73.532 -84.069 L -66.728 -84.069 L -66.812 -83.677 L -73.868 -75.515 L -73.868 -75.445 L -70.998 -75.445 Q -70.2 -75.445 -69.745 -75.627 Q -69.29 -75.809 -68.975 -76.257 Q -68.66 -76.705 -68.268 -77.475 Z " fill="black" /><path d="M -63.739 -72.294 L -63.739 -72.294 L -63.739 -71.931 L -66.228 -71.931 L -66.228 -72.294 Q -65.885 -72.294 -65.734 -72.367 Q -65.582 -72.441 -65.542 -72.602 Q -65.503 -72.764 -65.503 -73.029 L -65.503 -75.988 Q -65.503 -76.321 -65.611 -76.39 Q -65.719 -76.459 -65.974 -76.459 Q -66.101 -76.459 -66.179 -76.449 Q -66.258 -76.439 -66.258 -76.439 L -66.258 -76.831 L -64.945 -77.047 L -64.543 -77.047 L -64.543 -73.029 Q -64.543 -72.744 -64.499 -72.583 Q -64.455 -72.421 -64.283 -72.357 Q -64.112 -72.294 -63.739 -72.294 Z M -65.033 -79.212 L -65.033 -79.212 Q -64.749 -79.212 -64.558 -79.016 Q -64.366 -78.82 -64.366 -78.566 Q -64.366 -78.33 -64.558 -78.134 Q -64.749 -77.938 -65.033 -77.938 Q -65.307 -77.938 -65.489 -78.134 Q -65.67 -78.33 -65.67 -78.566 Q -65.67 -78.82 -65.489 -79.016 Q -65.307 -79.212 -65.033 -79.212 Z " fill="black" /><path d="M -57.918 -75.214 L -57.918 -75.214 L -57.918 -73.019 Q -57.918 -72.744 -57.869 -72.583 Q -57.82 -72.421 -57.653 -72.352 Q -57.487 -72.284 -57.134 -72.284 L -57.134 -71.931 L -59.653 -71.931 L -59.653 -72.284 Q -59.28 -72.284 -59.114 -72.352 Q -58.947 -72.421 -58.908 -72.583 Q -58.869 -72.744 -58.869 -73.019 L -58.869 -74.891 Q -58.869 -75.547 -59.02 -75.856 Q -59.172 -76.165 -59.403 -76.263 Q -59.633 -76.361 -59.868 -76.361 Q -60.29 -76.361 -60.608 -76.145 Q -60.927 -75.929 -61.162 -75.733 L -61.162 -73.019 Q -61.162 -72.744 -61.118 -72.583 Q -61.074 -72.421 -60.907 -72.352 Q -60.74 -72.284 -60.378 -72.284 L -60.378 -71.931 L -62.847 -71.931 L -62.847 -72.284 Q -62.504 -72.284 -62.352 -72.352 Q -62.201 -72.421 -62.161 -72.583 Q -62.122 -72.744 -62.122 -73.019 L -62.122 -75.998 Q -62.122 -76.272 -62.225 -76.365 Q -62.328 -76.459 -62.553 -76.459 Q -62.671 -76.459 -62.749 -76.449 Q -62.828 -76.439 -62.828 -76.439 L -62.828 -76.811 L -61.515 -77.047 L -61.191 -77.047 L -61.191 -76.243 L -61.123 -76.243 Q -60.701 -76.625 -60.314 -76.851 Q -59.927 -77.076 -59.437 -77.076 Q -58.859 -77.076 -58.531 -76.816 Q -58.202 -76.557 -58.06 -76.135 Q -57.918 -75.714 -57.918 -75.214 Z " fill="black" /></g></g></g><circle cx="-69.0" cy="-30.0" r="2.6999999999999997" style="stroke:black;fill:black;stroke-width:2.0;stroke-dasharray:-;" /><g><g><g><path d="M -50.817 -36.3 L -50.817 -36.3 L -51.979 -36.3 L -51.979 -43.706 L -53.785 -43.706 L -53.785 -44.462 Q -53.043 -44.574 -52.567 -44.735 Q -52.091 -44.896 -51.699 -45.12 L -50.817 -45.12 Z " fill="blue" /></g></g></g><circle cx="-69.0" cy="-48.00000000000001" r="2.6999999999999997" style="stroke:black;fill:white;stroke-width:2.0;stroke-dasharray:-;" /><g><g><g><path d="M -86.798 7.19 L -86.798 7.19 L -86.546 7.456 Q -87.26 8.296 -88.198 8.835 Q -89.136 9.374 -90.466 9.374 Q -91.726 9.374 -92.482 8.905 Q -93.238 8.436 -93.567 7.652 Q -93.896 6.868 -93.896 5.944 Q -93.896 4.474 -93.448 3.333 Q -93 2.192 -92.223 1.415 Q -91.446 0.638 -90.466 0.239 Q -89.486 -0.16 -88.422 -0.16 Q -87.708 -0.16 -87.309 -0.034 Q -86.91 0.092 -86.686 0.225 Q -86.462 0.358 -86.294 0.358 Q -86.126 0.358 -86 0.218 Q -85.874 0.078 -85.706 -0.146 L -85.3 -0.146 L -85.958 3.06 L -86.42 3.06 Q -86.364 1.66 -86.938 1.051 Q -87.512 0.442 -88.548 0.442 Q -89.36 0.442 -90.074 0.813 Q -90.788 1.184 -91.341 1.863 Q -91.894 2.542 -92.209 3.487 Q -92.524 4.432 -92.524 5.594 Q -92.524 6.994 -91.859 7.729 Q -91.194 8.464 -89.808 8.464 Q -88.198 8.464 -86.798 7.19 Z " fill="black" /><path d="M -81.515 12.16 L -81.515 12.16 L -84.837 12.16 L -84.837 11.807 Q -84.131 11.807 -83.901 11.665 Q -83.671 11.523 -83.671 11.151 L -83.671 6.878 Q -83.671 6.613 -83.749 6.496 Q -83.827 6.378 -84.033 6.378 Q -84.19 6.378 -84.459 6.422 Q -84.729 6.466 -84.925 6.515 L -84.925 6.123 L -83.112 5.623 L -82.691 5.623 L -82.691 11.151 Q -82.691 11.523 -82.441 11.665 Q -82.191 11.807 -81.515 11.807 Z " fill="black" /></g></g></g><circle cx="0.0" cy="41.99999999999999" r="2.6999999999999997" style="stroke:black;fill:black;stroke-width:2.0;stroke-dasharray:-;" /><g><g><g><path d="M -35.873 57.274 L -35.873 57.274 L -35.873 56.574 Q -34.501 55.258 -33.549 54.264 Q -32.597 53.27 -32.093 52.472 Q -31.589 51.674 -31.589 50.96 Q -31.589 50.204 -32.016 49.728 Q -32.443 49.252 -33.311 49.252 Q -33.885 49.252 -34.368 49.553 Q -34.851 49.854 -35.257 50.302 L -35.929 49.644 Q -35.355 49.028 -34.704 48.664 Q -34.053 48.3 -33.171 48.3 Q -31.897 48.3 -31.162 49.014 Q -30.427 49.728 -30.427 50.904 Q -30.427 51.716 -30.91 52.556 Q -31.393 53.396 -32.233 54.327 Q -33.073 55.258 -34.151 56.336 Q -33.787 56.308 -33.381 56.287 Q -32.975 56.266 -32.625 56.266 L -29.979 56.266 L -29.979 57.274 Z " fill="blue" /></g></g></g><g><g><g><path d="M 54.055 -16.81 L 54.055 -16.81 L 54.307 -16.544 Q 53.593 -15.704 52.655 -15.165 Q 51.717 -14.626 50.387 -14.626 Q 49.127 -14.626 48.371 -15.095 Q 47.615 -15.564 47.286 -16.348 Q 46.957 -17.132 46.957 -18.056 Q 46.957 -19.526 47.405 -20.667 Q 47.853 -21.808 48.63 -22.585 Q 49.407 -23.362 50.387 -23.761 Q 51.367 -24.16 52.431 -24.16 Q 53.145 -24.16 53.544 -24.034 Q 53.943 -23.908 54.167 -23.775 Q 54.391 -23.642 54.559 -23.642 Q 54.727 -23.642 54.853 -23.782 Q 54.979 -23.922 55.147 -24.146 L 55.553 -24.146 L 54.895 -20.94 L 54.433 -20.94 Q 54.489 -22.34 53.915 -22.949 Q 53.341 -23.558 52.305 -23.558 Q 51.493 -23.558 50.779 -23.187 Q 50.065 -22.816 49.512 -22.137 Q 48.959 -21.458 48.644 -20.513 Q 48.329 -19.568 48.329 -18.406 Q 48.329 -17.006 48.994 -16.271 Q 49.659 -15.536 51.045 -15.536 Q 52.655 -15.536 54.055 -16.81 Z " fill="black" /><path d="M 59.897 -13.545 L 59.897 -13.545 L 59.564 -11.84 L 55.546 -11.84 L 55.546 -12.32 L 56.937 -13.731 Q 57.486 -14.28 57.844 -14.702 Q 58.202 -15.123 58.378 -15.549 Q 58.554 -15.976 58.554 -16.524 Q 58.554 -17.044 58.236 -17.382 Q 57.917 -17.72 57.339 -17.72 Q 56.81 -17.72 56.452 -17.509 Q 56.095 -17.299 55.82 -16.818 L 55.556 -16.946 Q 55.801 -17.632 56.315 -18.024 Q 56.83 -18.416 57.584 -18.416 Q 58.172 -18.416 58.623 -18.205 Q 59.074 -17.994 59.329 -17.602 Q 59.583 -17.21 59.583 -16.652 Q 59.583 -16.172 59.368 -15.75 Q 59.152 -15.329 58.755 -14.888 Q 58.358 -14.447 57.81 -13.908 L 56.585 -12.722 L 56.585 -12.653 L 57.349 -12.693 L 58.623 -12.693 Q 58.907 -12.693 59.059 -12.771 Q 59.211 -12.849 59.319 -13.04 Q 59.427 -13.232 59.554 -13.545 Z " fill="black" /></g></g></g><g><g><g><path d="M 36.007 -81.6 L 36.007 -81.6 Q 34.915 -81.6 34.187 -81.985 Q 33.459 -82.37 33.011 -82.846 L 33.599 -83.616 Q 34.005 -83.21 34.565 -82.895 Q 35.125 -82.58 35.937 -82.58 Q 36.763 -82.58 37.295 -83.014 Q 37.827 -83.448 37.827 -84.176 Q 37.827 -84.694 37.554 -85.079 Q 37.281 -85.464 36.644 -85.681 Q 36.007 -85.898 34.915 -85.898 L 34.915 -86.78 Q 35.881 -86.78 36.448 -86.997 Q 37.015 -87.214 37.26 -87.585 Q 37.505 -87.956 37.505 -88.404 Q 37.505 -89.048 37.078 -89.419 Q 36.651 -89.79 35.937 -89.79 Q 35.349 -89.79 34.866 -89.545 Q 34.383 -89.3 33.977 -88.894 L 33.347 -89.65 Q 33.879 -90.126 34.523 -90.434 Q 35.167 -90.742 35.979 -90.742 Q 37.169 -90.742 37.932 -90.161 Q 38.695 -89.58 38.695 -88.502 Q 38.695 -87.704 38.24 -87.186 Q 37.785 -86.668 37.043 -86.416 L 37.043 -86.36 Q 37.869 -86.178 38.443 -85.604 Q 39.017 -85.03 39.017 -84.12 Q 39.017 -83.336 38.618 -82.769 Q 38.219 -82.202 37.533 -81.901 Q 36.847 -81.6 36.007 -81.6 Z " fill="blue" /></g></g></g></svg>