<svg xmlns="http://www.w3.org/2000/svg" xmlns:xlink="http://www.w3.org/1999/xlink" xml:lang="en" height="45.2pt" width="154.3387985133333pt" viewBox="-4.6 -22.6 154.3387985133333 45.2"><circle cx="18.0" cy="-0.0" r="18.0" style="stroke:black;fill:none;stroke-width:2.0;stroke-dasharray:-;" /><path d="M 7.2,-4.4087284769304716e-16 L 8.336842105263157,-1.168918089136861 L 9.473684210526317,-2.2111657656828045 L 10.610526315789475,-3.013799321745103 L 11.747368421052633,-3.4898409573815896 L 12.88421052631579,-3.5877041748240117 L 14.021052631578947,-3.2967839759582067 L 15.157894736842104,-2.648606078423274 L 16.294736842105262,-1.7134106149334647 L 17.431578947368422,-0.5925405250106421 L 18.56842105263158,0.5925405250106421 L 19.705263157894738,1.7134106149334647 L 20.84210526315789,2.6486060784232732 L 21.978947368421053,3.2967839759582063 L 23.11578947368421,3.5877041748240117 L 24.25263157894737,3.48984095738159 L 25.389473684210525,3.013799321745103 L 26.52631578947368,2.2111657656828045 L 27.66315789473684,1.168918089136861 L 28.8,4.4087284769304716e-16" style="stroke:black;fill:none;stroke-width:2.0;stroke-dasharray:-;stroke-linecap:round;stroke-linejoin:round;" /><path d="M 36.0,-0.0 L 54.0,-0.0 L 63.0,-0.0" style="stroke:black;fill:none;stroke-width:2.0;stroke-dasharray:-;stroke-linecap:round;stroke-linejoin:round;" /><path d="M 70.0 0.0 L 63.0 2.6999999999999997 L 63.0 -2.6999999999999997 Z" style="stroke:black;fill:black;stroke-linecap:butt;stroke-linejoin:miter;" /><g><g><g><path d="M 80.08 1.653 L 80.08 1.653 Q 80.08 2.003 80.304 2.283 Q 80.528 2.563 81.144 2.563 Q 81.942 2.563 82.446 2.178 Q 82.95 1.793 83.181 1.135 Q 83.412 0.477 83.412 -0.363 Q 83.412 -1.035 83.251 -1.546 Q 83.09 -2.057 82.887 -2.386 Q 82.684 -2.715 82.558 -2.827 L 82.684 -3.009 Q 82.964 -2.981 83.342 -2.666 Q 83.72 -2.351 84.014 -1.735 Q 84.308 -1.119 84.308 -0.153 Q 84.308 0.533 84.126 1.233 Q 83.944 1.933 83.566 2.5 Q 83.188 3.067 82.593 3.417 Q 81.998 3.767 81.158 3.767 Q 80.556 3.767 80.192 3.382 Q 79.828 2.997 79.646 2.269 L 79.59 2.269 Q 79.24 2.857 78.75 3.312 Q 78.26 3.767 77.588 3.767 Q 76.734 3.767 76.384 3.046 Q 76.034 2.325 76.034 1.177 Q 76.034 0.491 76.202 -0.195 Q 76.37 -0.881 76.762 -1.469 Q 77.154 -2.057 77.826 -2.477 Q 78.498 -2.897 79.52 -3.065 Q 79.688 -2.869 79.688 -2.603 Q 79.688 -2.365 79.548 -2.162 Q 79.408 -1.959 79.17 -1.903 Q 78.022 -1.693 77.336 -0.93 Q 76.65 -0.167 76.65 0.953 Q 76.65 1.821 77.028 2.164 Q 77.406 2.507 77.952 2.507 Q 78.4 2.507 78.708 2.36 Q 79.016 2.213 79.212 2.031 Q 79.408 1.849 79.506 1.709 Q 79.492 1.611 79.492 1.513 Q 79.492 1.415 79.492 1.331 Q 79.492 1.037 79.569 0.575 Q 79.646 0.113 79.793 -0.37 Q 79.94 -0.853 80.164 -1.203 Q 80.22 -1.287 80.388 -1.336 Q 80.556 -1.385 80.724 -1.385 Q 80.948 -1.385 81.116 -1.294 Q 81.284 -1.203 81.284 -1.119 Q 81.228 -0.573 80.878 0.183 Q 80.528 0.939 80.08 1.653 Z " fill="black" /><path d="M 91.479 4.466 L 91.479 4.466 L 91.224 6.553 L 85.834 6.553 L 85.834 6.181 Q 86.275 6.181 86.481 6.107 Q 86.687 6.034 86.75 5.823 Q 86.814 5.613 86.814 5.201 L 86.814 1.114 Q 86.814 0.683 86.75 0.453 Q 86.687 0.223 86.481 0.13 Q 86.275 0.036 85.834 0.036 L 85.834 -0.336 L 88.892 -0.336 L 88.892 0.036 Q 88.46 0.036 88.235 0.125 Q 88.01 0.213 87.926 0.448 Q 87.843 0.683 87.843 1.124 L 87.843 5.475 Q 87.843 5.858 88 5.96 Q 88.157 6.063 88.549 6.063 L 89.176 6.063 Q 89.695 6.063 90.009 5.995 Q 90.322 5.926 90.504 5.755 Q 90.685 5.583 90.803 5.27 Q 90.92 4.956 91.067 4.466 Z " fill="black" /><path d="M 99.26 3.143 L 99.26 3.143 Q 99.26 4.241 98.839 5.034 Q 98.417 5.828 97.643 6.259 Q 96.869 6.691 95.801 6.691 Q 94.742 6.691 93.968 6.259 Q 93.194 5.828 92.772 5.025 Q 92.351 4.221 92.351 3.104 Q 92.351 2.036 92.772 1.237 Q 93.194 0.438 93.973 -0.008 Q 94.752 -0.454 95.801 -0.454 Q 96.869 -0.454 97.643 0.012 Q 98.417 0.477 98.839 1.286 Q 99.26 2.094 99.26 3.143 Z M 98.015 3.006 L 98.015 3.006 Q 98.015 1.575 97.413 0.811 Q 96.81 0.046 95.791 0.046 Q 94.781 0.046 94.189 0.82 Q 93.596 1.595 93.596 3.035 Q 93.596 4.535 94.135 5.348 Q 94.674 6.161 95.81 6.161 Q 96.947 6.161 97.481 5.373 Q 98.015 4.584 98.015 3.006 Z " fill="black" /><path d="M 100.527 -0.167 L 100.527 -0.167 Q 100.527 -2.505 101.542 -4.157 Q 102.557 -5.809 104.251 -6.691 L 104.475 -6.327 Q 102.949 -5.291 102.312 -3.8 Q 101.675 -2.309 101.675 -0.167 Q 101.675 1.975 102.312 3.466 Q 102.949 4.957 104.475 5.993 L 104.251 6.357 Q 102.557 5.475 101.542 3.823 Q 100.527 2.171 100.527 -0.167 Z " fill="black" /><path d="M 109.333 -2.925 L 109.333 -2.925 L 109.221 -2.379 L 107.807 -2.379 L 106.981 1.793 Q 106.981 1.793 106.932 2.052 Q 106.883 2.311 106.883 2.493 Q 106.883 2.605 106.932 2.696 Q 106.981 2.787 107.121 2.787 Q 107.429 2.787 107.688 2.605 Q 107.947 2.423 108.311 1.947 L 108.591 2.157 Q 108.395 2.423 108.115 2.801 Q 107.835 3.179 107.443 3.459 Q 107.051 3.739 106.491 3.739 Q 106.057 3.739 105.847 3.529 Q 105.637 3.319 105.637 2.997 Q 105.637 2.815 105.679 2.556 Q 105.721 2.297 105.735 2.199 L 106.687 -2.379 L 105.889 -2.379 L 105.945 -2.673 Q 106.393 -2.911 106.694 -3.135 Q 106.995 -3.359 107.268 -3.723 Q 107.541 -4.087 107.891 -4.689 L 108.311 -4.689 L 107.919 -2.925 Z " fill="black" /><path d="M 113.995 -0.167 L 113.995 -0.167 Q 113.995 2.171 112.98 3.823 Q 111.965 5.475 110.271 6.357 L 110.047 5.993 Q 111.587 4.957 112.217 3.466 Q 112.847 1.975 112.847 -0.167 Q 112.847 -2.309 112.217 -3.8 Q 111.587 -5.291 110.047 -6.327 L 110.271 -6.691 Q 111.965 -5.809 112.98 -4.157 Q 113.995 -2.505 113.995 -0.167 Z " fill="black" /><path d="M 129.021 -0.965 L 129.021 -0.965 L 120.677 -0.965 L 120.677 -1.917 L 129.021 -1.917 Z M 129.021 1.891 L 129.021 1.891 L 120.677 1.891 L 120.677 0.953 L 129.021 0.953 Z " fill="black" /><path d="M 139.553 1.653 L 139.553 1.653 Q 139.553 2.003 139.777 2.283 Q 140.001 2.563 140.617 2.563 Q 141.415 2.563 141.919 2.178 Q 142.423 1.793 142.654 1.135 Q 142.885 0.477 142.885 -0.363 Q 142.885 -1.035 142.724 -1.546 Q 142.563 -2.057 142.36 -2.386 Q 142.157 -2.715 142.031 -2.827 L 142.157 -3.009 Q 142.437 -2.981 142.815 -2.666 Q 143.193 -2.351 143.487 -1.735 Q 143.781 -1.119 143.781 -0.153 Q 143.781 0.533 143.599 1.233 Q 143.417 1.933 143.039 2.5 Q 142.661 3.067 142.066 3.417 Q 141.471 3.767 140.631 3.767 Q 140.029 3.767 139.665 3.382 Q 139.301 2.997 139.119 2.269 L 139.063 2.269 Q 138.713 2.857 138.223 3.312 Q 137.733 3.767 137.061 3.767 Q 136.207 3.767 135.857 3.046 Q 135.507 2.325 135.507 1.177 Q 135.507 0.491 135.675 -0.195 Q 135.843 -0.881 136.235 -1.469 Q 136.627 -2.057 137.299 -2.477 Q 137.971 -2.897 138.993 -3.065 Q 139.161 -2.869 139.161 -2.603 Q 139.161 -2.365 139.021 -2.162 Q 138.881 -1.959 138.643 -1.903 Q 137.495 -1.693 136.809 -0.93 Q 136.123 -0.167 136.123 0.953 Q 136.123 1.821 136.501 2.164 Q 136.879 2.507 137.425 2.507 Q 137.873 2.507 138.181 2.36 Q 138.489 2.213 138.685 2.031 Q 138.881 1.849 138.979 1.709 Q 138.965 1.611 138.965 1.513 Q 138.965 1.415 138.965 1.331 Q 138.965 1.037 139.042 0.575 Q 139.119 0.113 139.266 -0.37 Q 139.413 -0.853 139.637 -1.203 Q 139.693 -1.287 139.861 -1.336 Q 140.029 -1.385 140.197 -1.385 Q 140.421 -1.385 140.589 -1.294 Q 140.757 -1.203 140.757 -1.119 Q 140.701 -0.573 140.351 0.183 Q 140.001 0.939 139.553 1.653 Z " fill="black" /><path d="M 149.932 3.31 L 149.932 3.31 Q 149.932 3.956 149.795 4.564 Q 149.658 5.172 149.369 5.647 Q 149.08 6.122 148.629 6.401 Q 148.178 6.681 147.561 6.681 Q 146.934 6.681 146.483 6.411 Q 146.032 6.142 145.748 5.671 Q 145.464 5.201 145.331 4.588 Q 145.199 3.976 145.199 3.29 Q 145.199 2.271 145.493 1.536 Q 145.787 0.801 146.321 0.399 Q 146.855 -0.003 147.58 -0.003 Q 148.257 -0.003 148.791 0.384 Q 149.325 0.771 149.629 1.511 Q 149.932 2.251 149.932 3.31 Z M 148.884 3.378 L 148.884 3.378 Q 148.884 1.84 148.551 1.119 Q 148.217 0.399 147.561 0.399 Q 146.914 0.399 146.576 1.119 Q 146.238 1.84 146.238 3.339 Q 146.238 4.819 146.586 5.539 Q 146.934 6.259 147.561 6.259 Q 148.198 6.259 148.541 5.534 Q 148.884 4.809 148.884 3.378 Z " fill="black" /></g></g></g></svg>