<svg xmlns="http://www.w3.org/2000/svg" xmlns:xlink="http://www.w3.org/1999/xlink" xml:lang="en" height="382.64000000000004pt" width="261.62080000000003pt" viewBox="-130.81040000000002 -19.0 261.62080000000003 382.64000000000004"><path d="M 0.0,-0.0 L 0.0,-14.4" style="stroke:black;fill:none;stroke-width:2.0;stroke-dasharray:-;stroke-linecap:round;stroke-linejoin:round;" /><path d="M 0.0,-14.4 L -6.75,-14.4" style="stroke:black;fill:none;stroke-width:2.0;stroke-dasharray:-;stroke-linecap:round;stroke-linejoin:round;" /><path d="M 0.0,-14.4 L 6.75,-14.4" style="stroke:black;fill:none;stroke-width:2.0;stroke-dasharray:-;stroke-linecap:round;stroke-linejoin:round;" /><path d="M 0.0,-0.0 L -54.0,-6.613092715395707e-15 L -108.0,-1.3226185430791413e-14" style="stroke:black;fill:none;stroke-width:2.0;stroke-dasharray:-;stroke-linecap:round;stroke-linejoin:round;" /><path d="M -108.0,-1.3226185430791413e-14 L -108.0,8.999999999999988 L -108.0,17.999999999999986" style="stroke:black;fill:none;stroke-width:2.0;stroke-dasharray:-;stroke-linecap:round;stroke-linejoin:round;" /><path d="M -108.0,17.999999999999986 L -108.0,32.999999999999986 L -93.0,32.999999999999986 L -93.0,62.999999999999986 L -108.0,62.999999999999986 L -108.0,77.99999999999997" style="stroke:black;fill:none;stroke-width:2.0;stroke-dasharray:-;stroke-linecap:round;stroke-linejoin:round;" /><path d="M -108.0,32.999999999999986 L -102.0,32.999999999999986" style="stroke:black;fill:none;stroke-width:2.0;stroke-dasharray:-;stroke-linecap:round;stroke-linejoin:round;" /><path d="M -95.0 32.999999999999986 L -102.0 37.499999999999986 L -102.0 28.499999999999986 Z" style="stroke:black;fill:black;stroke-linecap:butt;stroke-linejoin:miter;" /><path d="M -90.0,35.999999999999986 L -90.0,59.999999999999986" style="stroke:black;fill:none;stroke-width:2.0;stroke-dasharray:-;stroke-linecap:round;stroke-linejoin:round;" /><path d="M -90.0,47.99999999999998 L -75.0,47.99999999999998" style="stroke:black;fill:none;stroke-width:2.0;stroke-dasharray:-;stroke-linecap:round;stroke-linejoin:round;" /><path d="M 0.0,-0.0 L 54.0,-0.0 L 108.0,-0.0" style="stroke:black;fill:none;stroke-width:2.0;stroke-dasharray:-;stroke-linecap:round;stroke-linejoin:round;" /><path d="M 108.0,-0.0 L 108.0,9.0 L 108.0,18.0" style="stroke:black;fill:none;stroke-width:2.0;stroke-dasharray:-;stroke-linecap:round;stroke-linejoin:round;" /><path d="M 108.0,78.0 L 108.0,63.0 L 93.0,63.0 L 93.0,33.0 L 108.0,33.0 L 108.0,18.0" style="stroke:black;fill:none;stroke-width:2.0;stroke-dasharray:-;stroke-linecap:round;stroke-linejoin:round;" /><path d="M 102.0,33.0 L 108.0,33.0" style="stroke:black;fill:none;stroke-width:2.0;stroke-dasharray:-;stroke-linecap:round;stroke-linejoin:round;" /><path d="M 95.0 33.0 L 102.0 28.5 L 102.0 37.5 Z" style="stroke:black;fill:black;stroke-linecap:butt;stroke-linejoin:miter;" /><path d="M 90.0,60.0 L 90.0,36.0" style="stroke:black;fill:none;stroke-width:2.0;stroke-dasharray:-;stroke-linecap:round;stroke-linejoin:round;" /><path d="M 75.0,48.0 L 90.0,48.0" style="stroke:black;fill:none;stroke-width:2.0;stroke-dasharray:-;stroke-linecap:round;stroke-linejoin:round;" /><path d="M -108.0,77.99999999999997 L -108.0,86.99999999999997 L -108.0,95.99999999999997" style="stroke:black;fill:none;stroke-width:2.0;stroke-dasharray:-;stroke-linecap:round;stroke-linejoin:round;" /><path d="M -108.0,95.99999999999997 L -108.0,113.99999999999997 L -108.0,131.99999999999997" style="stroke:black;fill:none;stroke-width:2.0;stroke-dasharray:-;stroke-linecap:round;stroke-linejoin:round;" /><path d="M -108.0,95.99999999999997 L -72.0,95.99999999999997 L 39.00000000000002,48.0 L 75.00000000000003,48.0" style="stroke:black;fill:none;stroke-width:2.0;stroke-dasharray:-;stroke-linecap:round;stroke-linejoin:round;" /><path d="M 108.0,78.0 L 108.0,87.0 L 108.0,96.0" style="stroke:black;fill:none;stroke-width:2.0;stroke-dasharray:-;stroke-linecap:round;stroke-linejoin:round;" /><path d="M 108.0,96.0 L 108.0,114.0 L 108.0,132.0" style="stroke:black;fill:none;stroke-width:2.0;stroke-dasharray:-;stroke-linecap:round;stroke-linejoin:round;" /><path d="M 108.0,96.0 L 72.0,96.0 L -39.00000000000002,47.99999999999998 L -75.00000000000003,47.99999999999998" style="stroke:black;fill:none;stroke-width:2.0;stroke-dasharray:-;stroke-linecap:round;stroke-linejoin:round;" /><path d="M -108.0,131.99999999999997 L -3.239999999999995,131.99999999999997 M -3.239999999999995,122.99999999999997 L -3.239999999999995,140.99999999999997 M 3.240000000000011,122.99999999999997 L 3.240000000000011,140.99999999999997 M 3.240000000000011,132.0 L 108.0,132.0" style="stroke:black;fill:none;stroke-width:2.0;stroke-dasharray:-;stroke-linecap:round;stroke-linejoin:round;" /><path d="M -15.24,140.99999999999997 L 8.861530172262912,124.12892887941595" style="stroke:black;fill:none;stroke-width:2.0;stroke-dasharray:-;stroke-linecap:round;stroke-linejoin:round;" /><path d="M 13.121536158961923 121.14692468872664 L 10.925994611970893 127.07816379328449 L 6.79706573255493 121.1796939655474 Z" style="stroke:black;fill:black;stroke-linecap:butt;stroke-linejoin:miter;" /><path d="M -108.0,131.99999999999997 L -108.0,167.99999999999997 L -108.00000000000001,203.99999999999997" style="stroke:black;fill:none;stroke-width:2.0;stroke-dasharray:-;stroke-linecap:round;stroke-linejoin:round;" /><path d="M 108.0,132.0 L 108.0,167.99999999999997 L 107.99999999999999,203.99999999999997" style="stroke:black;fill:none;stroke-width:2.0;stroke-dasharray:-;stroke-linecap:round;stroke-linejoin:round;" /><path d="M -108.00000000000001,203.99999999999997 L -18.000000000000014,203.99999999999997 L -17.932966166713037,202.33844372661014 L -17.728866741010762,200.63302063457496 L -17.38601960586254,198.930143609328 L -16.906518646552243,197.2761562453997 L -16.29617676584068,195.71607161103637 L -15.56436768651237,194.2923472229325 L -14.723770846631297,193.04372956999322 L -13.790026330150873,192.0041996322737 L -12.781309223900092,191.20204809267221 L -11.717834984769716,190.65910540937935 L -10.62130927847135,190.39014770256975 L -9.514337262441712,190.40249462405941 L -8.419808389187189,190.69581015385708 L -7.360273472572075,191.26211174490797 L -6.35733097011696,192.08598756715713 L -5.43103918356114,193.14501593866063 L -4.599370374580246,194.41037552897728 L -3.877721651834781,195.84762972822892 L -3.2784959404998073,197.41766383531876 L -2.810764438140076,199.07774955984212 L -2.480019743153404,200.78270786739867 L -2.288026374362479,202.48613852160898 L -2.232772749846026,204.1416828609964 L -2.3085259319002507,205.70428544441393 L -2.5059876482526455,207.13142022948466 L -2.8125473434294808,208.38424791375812 L -3.2126253735144648,209.42867294167988 L -3.6880970042942334,210.23627141105743 L -4.218785673731649,210.78506462615806 L -4.783012094688035,211.0601172452837 L -5.358184254129148,211.05394374430887 L -5.921412252057344,210.76671213432405 L -6.450131247401636,210.20623938923407 L -6.92271555746815,209.38777870774834 L -7.319067198307609,208.33360439940284 L -7.62116284894412,207.07240569189045 L -7.813544353899582,205.63850595716158 L -7.883739415045676,204.07092860496246 L -7.822601023705497,202.41233506540715 L -7.624556395400395,200.70786376326063 L -7.287758632512874,199.00390168110846 L -6.814136987384384,197.346821943175 L -6.209344357943621,195.78172177629511 L -5.482603444765619,194.3511951942808 L -4.64645575637889,193.09417380693066 L -3.716420293611142,192.0448673009266 L -2.7105712018382686,191.23183242730315 L -1.649045885280163,190.67719583288434 L -0.5534969699537431,190.39605188623727 L 0.5534969699537111,190.39605188623727 L 1.649045885280115,190.67719583288434 L 2.7105712018382206,191.23183242730315 L 3.716420293611078,192.04486730092657 L 4.646455756378826,193.09417380693063 L 5.482603444765571,194.35119519428076 L 6.209344357943589,195.7817217762951 L 6.814136987384352,197.34682194317497 L 7.287758632512826,199.00390168110843 L 7.624556395400347,200.7078637632606 L 7.822601023705465,202.41233506540712 L 7.883739415045644,204.07092860496243 L 7.81354435389955,205.63850595716156 L 7.621162848944088,207.07240569189042 L 7.319067198307577,208.33360439940282 L 6.922715557468134,209.38777870774834 L 6.450131247401604,210.20623938923404 L 5.921412252057328,210.76671213432405 L 5.358184254129132,211.05394374430884 L 4.783012094688019,211.0601172452837 L 4.218785673731633,210.78506462615806 L 3.6880970042942174,210.23627141105746 L 3.2126253735144488,209.42867294167988 L 2.812547343429449,208.38424791375812 L 2.5059876482526295,207.1314202294847 L 2.3085259319002187,205.70428544441398 L 2.232772749845994,204.14168286099644 L 2.288026374362447,202.48613852160898 L 2.480019743153372,200.7827078673987 L 2.810764438140028,199.07774955984215 L 3.2784959404997753,197.4176638353188 L 3.877721651834749,195.84762972822898 L 4.599370374580198,194.4103755289773 L 5.431039183561092,193.14501593866066 L 6.357330970116896,192.08598756715716 L 7.360273472572027,191.262111744908 L 8.419808389187141,190.69581015385708 L 9.514337262441648,190.40249462405941 L 10.621309278471285,190.39014770256975 L 11.717834984769668,190.65910540937932 L 12.781309223900044,191.20204809267221 L 13.790026330150825,192.00419963227367 L 14.723770846631233,193.0437295699932 L 15.564367686512321,194.2923472229325 L 16.296176765840634,195.71607161103634 L 16.906518646552215,197.27615624539965 L 17.386019605862508,198.93014360932796 L 17.728866741010716,200.6330206345749 L 17.932966166713005,202.33844372661014 L 17.999999999999986,203.99999999999994 L 107.99999999999999,203.99999999999994" style="stroke:black;fill:none;stroke-width:2.0;stroke-dasharray:-;stroke-linecap:round;stroke-linejoin:round;" /><path d="M 107.99999999999999,203.99999999999997 L 107.99999999999999,221.99999999999997 L 107.99999999999999,239.99999999999997" style="stroke:black;fill:none;stroke-width:2.0;stroke-dasharray:-;stroke-linecap:round;stroke-linejoin:round;" /><path d="M 107.99999999999999,239.99999999999997 L 107.99999999999999,248.99999999999997 L 107.99999999999999,258.0" style="stroke:black;fill:none;stroke-width:2.0;stroke-dasharray:-;stroke-linecap:round;stroke-linejoin:round;" /><path d="M 107.99999999999999,317.99999999999994 L 107.99999999999999,303.0 L 92.99999999999999,303.0 L 92.99999999999999,273.0 L 107.99999999999999,273.0 L 107.99999999999999,258.0" style="stroke:black;fill:none;stroke-width:2.0;stroke-dasharray:-;stroke-linecap:round;stroke-linejoin:round;" /><path d="M 98.99999999999999,303.0 L 92.99999999999999,303.0" style="stroke:black;fill:none;stroke-width:2.0;stroke-dasharray:-;stroke-linecap:round;stroke-linejoin:round;" /><path d="M 105.99999999999999 303.0 L 98.99999999999999 307.5 L 98.99999999999999 298.5 Z" style="stroke:black;fill:black;stroke-linecap:butt;stroke-linejoin:miter;" /><path d="M 89.99999999999999,299.99999999999994 L 89.99999999999999,276.0" style="stroke:black;fill:none;stroke-width:2.0;stroke-dasharray:-;stroke-linecap:round;stroke-linejoin:round;" /><path d="M 74.99999999999999,287.99999999999994 L 89.99999999999999,287.99999999999994" style="stroke:black;fill:none;stroke-width:2.0;stroke-dasharray:-;stroke-linecap:round;stroke-linejoin:round;" /><path d="M 107.99999999999999,317.99999999999994 L 107.99999999999999,326.99999999999994 L 107.99999999999999,335.99999999999994" style="stroke:black;fill:none;stroke-width:2.0;stroke-dasharray:-;stroke-linecap:round;stroke-linejoin:round;" /><path d="M 107.99999999999999,335.99999999999994 L 53.999999999999986,335.99999999999994 L -1.5987211554602254e-14,335.99999999999994" style="stroke:black;fill:none;stroke-width:2.0;stroke-dasharray:-;stroke-linecap:round;stroke-linejoin:round;" /><path d="M -1.5987211554602254e-14,335.99999999999994 L -1.5987211554602254e-14,350.4 L -9.000000000000016,350.4 L 8.999999999999984,350.4 M -6.300000000000016,354.7199999999999 L 6.299999999999984,354.7199999999999 M -1.800000000000016,359.03999999999996 L 1.799999999999984,359.03999999999996" style="stroke:black;fill:none;stroke-width:2.0;stroke-dasharray:-;stroke-linecap:round;stroke-linejoin:round;" /><path d="M -1.5987211554602254e-14,335.99999999999994 L -54.000000000000014,335.99999999999994 L -108.00000000000001,335.99999999999994" style="stroke:black;fill:none;stroke-width:2.0;stroke-dasharray:-;stroke-linecap:round;stroke-linejoin:round;" /><path d="M -108.00000000000001,335.99999999999994 L -108.00000000000001,326.99999999999994 L -108.00000000000001,317.99999999999994" style="stroke:black;fill:none;stroke-width:2.0;stroke-dasharray:-;stroke-linecap:round;stroke-linejoin:round;" /><path d="M -108.00000000000001,258.0 L -108.00000000000001,272.99999999999994 L -93.00000000000003,272.99999999999994 L -93.00000000000003,303.0 L -108.00000000000001,303.0 L -108.00000000000001,317.99999999999994" style="stroke:black;fill:none;stroke-width:2.0;stroke-dasharray:-;stroke-linecap:round;stroke-linejoin:round;" /><path d="M -93.00000000000003,303.0 L -99.00000000000001,303.0" style="stroke:black;fill:none;stroke-width:2.0;stroke-dasharray:-;stroke-linecap:round;stroke-linejoin:round;" /><path d="M -106.00000000000001 303.0 L -99.00000000000001 298.5 L -99.00000000000001 307.5 Z" style="stroke:black;fill:black;stroke-linecap:butt;stroke-linejoin:miter;" /><path d="M -90.00000000000001,276.0 L -90.00000000000001,299.99999999999994" style="stroke:black;fill:none;stroke-width:2.0;stroke-dasharray:-;stroke-linecap:round;stroke-linejoin:round;" /><path d="M -90.00000000000001,287.99999999999994 L -75.00000000000003,287.99999999999994" style="stroke:black;fill:none;stroke-width:2.0;stroke-dasharray:-;stroke-linecap:round;stroke-linejoin:round;" /><path d="M -108.00000000000001,258.0 L -108.00000000000001,248.99999999999997 L -108.00000000000001,239.99999999999997" style="stroke:black;fill:none;stroke-width:2.0;stroke-dasharray:-;stroke-linecap:round;stroke-linejoin:round;" /><path d="M -108.00000000000001,239.99999999999997 L -72.00000000000001,239.99999999999997 L 39.00000000000001,287.99999999999994 L 75.0,287.99999999999994" style="stroke:black;fill:none;stroke-width:2.0;stroke-dasharray:-;stroke-linecap:round;stroke-linejoin:round;" /><path d="M -108.00000000000001,239.99999999999997 L -108.00000000000001,221.99999999999997 L -108.00000000000001,203.99999999999997" style="stroke:black;fill:none;stroke-width:2.0;stroke-dasharray:-;stroke-linecap:round;stroke-linejoin:round;" /><path d="M 107.99999999999999,239.99999999999997 L 71.99999999999999,239.99999999999997 L -39.000000000000036,287.99999999999994 L -75.00000000000004,287.99999999999994" style="stroke:black;fill:none;stroke-width:2.0;stroke-dasharray:-;stroke-linecap:round;stroke-linejoin:round;" /><circle cx="0.0" cy="-0.0" r="2.6999999999999997" style="stroke:black;fill:black;stroke-width:2.0;stroke-dasharray:-;" /><g><g><g><path d="M -118.702 51.129 L -118.702 51.129 L -122.44 51.129 L -122.356 50.709 Q -121.838 50.709 -121.565 50.611 Q -121.292 50.513 -121.152 50.24 Q -121.012 49.967 -120.914 49.463 L -119.668 43.415 L -119.724 43.415 L -124.428 51.129 L -124.736 51.129 L -126.43 43.429 L -126.486 43.429 L -127.648 49.085 Q -127.788 49.799 -127.767 50.149 Q -127.746 50.499 -127.494 50.604 Q -127.242 50.709 -126.71 50.709 L -126.794 51.129 L -130.028 51.129 L -129.944 50.709 Q -129.398 50.709 -129.104 50.604 Q -128.81 50.499 -128.642 50.149 Q -128.474 49.799 -128.334 49.085 L -127.228 43.639 Q -127.116 43.107 -127.158 42.834 Q -127.2 42.561 -127.459 42.456 Q -127.718 42.351 -128.278 42.351 L -128.194 41.931 L -125.394 41.931 L -123.882 49.015 L -123.826 49.015 L -119.556 41.931 L -116.91 41.931 L -116.994 42.351 Q -117.484 42.351 -117.771 42.456 Q -118.058 42.561 -118.212 42.834 Q -118.366 43.107 -118.478 43.625 L -119.668 49.463 Q -119.822 50.233 -119.591 50.471 Q -119.36 50.709 -118.618 50.709 Z " fill="black" /><path d="M -112.677 54.069 L -112.677 54.069 L -115.999 54.069 L -115.999 53.716 Q -115.293 53.716 -115.063 53.574 Q -114.833 53.432 -114.833 53.06 L -114.833 48.787 Q -114.833 48.522 -114.911 48.405 Q -114.989 48.287 -115.195 48.287 Q -115.352 48.287 -115.621 48.331 Q -115.891 48.375 -116.087 48.424 L -116.087 48.032 L -114.274 47.532 L -113.853 47.532 L -113.853 53.06 Q -113.853 53.432 -113.603 53.574 Q -113.353 53.716 -112.677 53.716 Z " fill="black" /></g></g></g><g><g><g><path d="M 122.926 51.129 L 122.926 51.129 L 119.188 51.129 L 119.272 50.709 Q 119.79 50.709 120.063 50.611 Q 120.336 50.513 120.476 50.24 Q 120.616 49.967 120.714 49.463 L 121.96 43.415 L 121.904 43.415 L 117.2 51.129 L 116.892 51.129 L 115.198 43.429 L 115.142 43.429 L 113.98 49.085 Q 113.84 49.799 113.861 50.149 Q 113.882 50.499 114.134 50.604 Q 114.386 50.709 114.918 50.709 L 114.834 51.129 L 111.6 51.129 L 111.684 50.709 Q 112.23 50.709 112.524 50.604 Q 112.818 50.499 112.986 50.149 Q 113.154 49.799 113.294 49.085 L 114.4 43.639 Q 114.512 43.107 114.47 42.834 Q 114.428 42.561 114.169 42.456 Q 113.91 42.351 113.35 42.351 L 113.434 41.931 L 116.234 41.931 L 117.746 49.015 L 117.802 49.015 L 122.072 41.931 L 124.718 41.931 L 124.634 42.351 Q 124.144 42.351 123.857 42.456 Q 123.57 42.561 123.416 42.834 Q 123.262 43.107 123.15 43.625 L 121.96 49.463 Q 121.806 50.233 122.037 50.471 Q 122.268 50.709 123.01 50.709 Z " fill="black" /><path d="M 129.51 52.364 L 129.51 52.364 L 129.177 54.069 L 125.159 54.069 L 125.159 53.589 L 126.551 52.178 Q 127.099 51.629 127.457 51.207 Q 127.815 50.786 127.991 50.36 Q 128.168 49.933 128.168 49.385 Q 128.168 48.865 127.849 48.527 Q 127.531 48.189 126.952 48.189 Q 126.423 48.189 126.066 48.4 Q 125.708 48.61 125.433 49.091 L 125.169 48.963 Q 125.414 48.277 125.928 47.885 Q 126.443 47.493 127.197 47.493 Q 127.785 47.493 128.236 47.704 Q 128.687 47.915 128.942 48.307 Q 129.197 48.699 129.197 49.257 Q 129.197 49.737 128.981 50.159 Q 128.765 50.58 128.369 51.021 Q 127.972 51.462 127.423 52.001 L 126.198 53.187 L 126.198 53.256 L 126.962 53.216 L 128.236 53.216 Q 128.52 53.216 128.672 53.138 Q 128.824 53.06 128.932 52.868 Q 129.04 52.677 129.167 52.364 Z " fill="black" /></g></g></g><circle cx="-108.0" cy="95.99999999999997" r="2.6999999999999997" style="stroke:black;fill:black;stroke-width:2.0;stroke-dasharray:-;" /><circle cx="-108.0" cy="131.99999999999997" r="2.6999999999999997" style="stroke:black;fill:black;stroke-width:2.0;stroke-dasharray:-;" /><circle cx="108.0" cy="96.0" r="2.6999999999999997" style="stroke:black;fill:black;stroke-width:2.0;stroke-dasharray:-;" /><circle cx="108.0" cy="132.0" r="2.6999999999999997" style="stroke:black;fill:black;stroke-width:2.0;stroke-dasharray:-;" /><g><g><g><path d="M 3.64 159.15 L 3.64 159.15 L 3.892 159.416 Q 3.178 160.256 2.24 160.795 Q 1.302 161.334 -0.028 161.334 Q -1.288 161.334 -2.044 160.865 Q -2.8 160.396 -3.129 159.612 Q -3.458 158.828 -3.458 157.904 Q -3.458 156.434 -3.01 155.293 Q -2.562 154.152 -1.785 153.375 Q -1.008 152.598 -0.028 152.199 Q 0.952 151.8 2.016 151.8 Q 2.73 151.8 3.129 151.926 Q 3.528 152.052 3.752 152.185 Q 3.976 152.318 4.144 152.318 Q 4.312 152.318 4.438 152.178 Q 4.564 152.038 4.732 151.814 L 5.138 151.814 L 4.48 155.02 L 4.018 155.02 Q 4.074 153.62 3.5 153.011 Q 2.926 152.402 1.89 152.402 Q 1.078 152.402 0.364 152.773 Q -0.35 153.144 -0.903 153.823 Q -1.456 154.502 -1.771 155.447 Q -2.086 156.392 -2.086 157.554 Q -2.086 158.954 -1.421 159.689 Q -0.756 160.424 0.63 160.424 Q 2.24 160.424 3.64 159.15 Z " fill="black" /></g></g></g><circle cx="-108.00000000000001" cy="203.99999999999997" r="2.6999999999999997" style="stroke:black;fill:black;stroke-width:2.0;stroke-dasharray:-;" /><circle cx="107.99999999999999" cy="203.99999999999997" r="2.6999999999999997" style="stroke:black;fill:black;stroke-width:2.0;stroke-dasharray:-;" /><g><g><g><path d="M 3.591 184.06 L 3.591 184.06 L 2.751 186.79 L -4.165 186.79 L -4.081 186.37 Q -3.535 186.37 -3.248 186.272 Q -2.961 186.174 -2.807 185.894 Q -2.653 185.614 -2.541 185.054 L -1.337 179.216 Q -1.239 178.754 -1.267 178.488 Q -1.295 178.222 -1.554 178.117 Q -1.813 178.012 -2.415 178.012 L -2.331 177.592 L 1.645 177.592 L 1.575 178.012 Q 0.819 178.012 0.441 178.243 Q 0.063 178.474 -0.091 179.23 L -1.365 185.502 Q -1.463 185.964 -1.267 186.111 Q -1.071 186.258 -0.455 186.258 L 0.203 186.258 Q 0.875 186.258 1.295 186.139 Q 1.715 186.02 2.009 185.768 Q 2.303 185.516 2.562 185.089 Q 2.821 184.662 3.143 184.06 Z " fill="black" /></g></g></g><circle cx="107.99999999999999" cy="239.99999999999997" r="2.6999999999999997" style="stroke:black;fill:black;stroke-width:2.0;stroke-dasharray:-;" /><g><g><g><path d="M 122.926 291.129 L 122.926 291.129 L 119.188 291.129 L 119.272 290.709 Q 119.79 290.709 120.063 290.611 Q 120.336 290.513 120.476 290.24 Q 120.616 289.967 120.714 289.463 L 121.96 283.415 L 121.904 283.415 L 117.2 291.129 L 116.892 291.129 L 115.198 283.429 L 115.142 283.429 L 113.98 289.085 Q 113.84 289.799 113.861 290.149 Q 113.882 290.499 114.134 290.604 Q 114.386 290.709 114.918 290.709 L 114.834 291.129 L 111.6 291.129 L 111.684 290.709 Q 112.23 290.709 112.524 290.604 Q 112.818 290.499 112.986 290.149 Q 113.154 289.799 113.294 289.085 L 114.4 283.639 Q 114.512 283.107 114.47 282.834 Q 114.428 282.561 114.169 282.456 Q 113.91 282.351 113.35 282.351 L 113.434 281.931 L 116.234 281.931 L 117.746 289.015 L 117.802 289.015 L 122.072 281.931 L 124.718 281.931 L 124.634 282.351 Q 124.144 282.351 123.857 282.456 Q 123.57 282.561 123.416 282.834 Q 123.262 283.107 123.15 283.625 L 121.96 289.463 Q 121.806 290.233 122.037 290.471 Q 122.268 290.709 123.01 290.709 Z " fill="black" /><path d="M 129.981 292.521 L 129.981 292.521 L 128.912 292.521 L 128.912 294.069 L 127.942 294.069 L 127.942 292.521 L 125.061 292.521 L 125.061 291.776 L 128.207 287.503 L 128.912 287.503 L 128.912 291.717 L 129.981 291.717 Z M 127.942 291.717 L 127.942 291.717 L 127.942 288.689 L 127.883 288.689 L 125.727 291.658 L 125.727 291.717 Z " fill="black" /></g></g></g><circle cx="-1.5987211554602254e-14" cy="335.99999999999994" r="2.6999999999999997" style="stroke:black;fill:black;stroke-width:2.0;stroke-dasharray:-;" /><g><g><g><path d="M -118.849 291.065 L -118.849 291.065 L -122.587 291.065 L -122.503 290.645 Q -121.985 290.645 -121.712 290.547 Q -121.439 290.449 -121.299 290.176 Q -121.159 289.903 -121.061 289.399 L -119.815 283.351 L -119.871 283.351 L -124.575 291.065 L -124.883 291.065 L -126.577 283.365 L -126.633 283.365 L -127.795 289.021 Q -127.935 289.735 -127.914 290.085 Q -127.893 290.435 -127.641 290.54 Q -127.389 290.645 -126.857 290.645 L -126.941 291.065 L -130.175 291.065 L -130.091 290.645 Q -129.545 290.645 -129.251 290.54 Q -128.957 290.435 -128.789 290.085 Q -128.621 289.735 -128.481 289.021 L -127.375 283.575 Q -127.263 283.043 -127.305 282.77 Q -127.347 282.497 -127.606 282.392 Q -127.865 282.287 -128.425 282.287 L -128.341 281.867 L -125.541 281.867 L -124.029 288.951 L -123.973 288.951 L -119.703 281.867 L -117.057 281.867 L -117.141 282.287 Q -117.631 282.287 -117.918 282.392 Q -118.205 282.497 -118.359 282.77 Q -118.513 283.043 -118.625 283.561 L -119.815 289.399 Q -119.969 290.169 -119.738 290.407 Q -119.507 290.645 -118.765 290.645 Z " fill="black" /><path d="M -116.234 288.909 L -116.234 288.909 L -116.518 288.772 Q -116.224 288.106 -115.739 287.768 Q -115.254 287.429 -114.646 287.429 Q -113.862 287.429 -113.382 287.812 Q -112.902 288.194 -112.902 288.801 Q -112.902 289.331 -113.225 289.654 Q -113.549 289.977 -114.029 290.291 L -114.029 290.34 Q -113.617 290.448 -113.27 290.663 Q -112.922 290.879 -112.716 291.217 Q -112.51 291.555 -112.51 292.035 Q -112.51 292.574 -112.745 292.971 Q -112.98 293.368 -113.382 293.628 Q -113.784 293.888 -114.299 294.01 Q -114.813 294.133 -115.372 294.133 Q -115.852 294.133 -116.102 294.049 Q -116.352 293.966 -116.445 293.829 Q -116.538 293.692 -116.538 293.554 Q -116.538 293.388 -116.44 293.226 Q -116.342 293.064 -116.107 293.064 Q -116.009 293.064 -115.906 293.118 Q -115.803 293.172 -115.528 293.329 Q -115.303 293.437 -115.171 293.496 Q -115.038 293.554 -114.936 293.574 Q -114.833 293.594 -114.695 293.594 Q -114.401 293.594 -114.112 293.486 Q -113.823 293.378 -113.627 293.099 Q -113.431 292.819 -113.431 292.31 Q -113.431 291.859 -113.681 291.536 Q -113.931 291.212 -114.352 291.031 Q -114.774 290.85 -115.283 290.85 L -115.499 290.85 L -115.499 290.389 L -115.293 290.389 Q -114.94 290.389 -114.607 290.227 Q -114.274 290.066 -114.058 289.767 Q -113.843 289.468 -113.843 289.056 Q -113.843 288.596 -114.142 288.36 Q -114.441 288.125 -114.901 288.125 Q -115.754 288.125 -116.234 288.909 Z " fill="black" /></g></g></g><circle cx="-108.00000000000001" cy="239.99999999999997" r="2.6999999999999997" style="stroke:black;fill:black;stroke-width:2.0;stroke-dasharray:-;" /></svg>