<svg xmlns="http://www.w3.org/2000/svg" xmlns:xlink="http://www.w3.org/1999/xlink" xml:lang="en" height="261.20000000000005pt" width="309.2604pt" viewBox="-80.78439999999999 -94.6 309.2604 261.20000000000005"><path d="M 0.0,-0.0 L 90.0,-0.0 L 90.0,-90.0 L 0.0,-90.0 L 0.0,-0.0" style="stroke:black;fill:none;stroke-width:2.0;stroke-dasharray:-;stroke-linecap:round;stroke-linejoin:round;" /><path d="M 0.0,-27.0 L -18.0,-27.0" style="stroke:black;fill:none;stroke-width:2.0;stroke-dasharray:-;stroke-linecap:round;stroke-linejoin:round;" /><path d="M 0.0,-33.300000000000004 L 12.600000000000001,-27.0 L 0.0,-20.7" style="stroke:black;fill:none;stroke-width:2.0;stroke-dasharray:-;stroke-linecap:round;stroke-linejoin:round;" /><path d="M 0.0,-63.0 L -18.0,-63.0" style="stroke:black;fill:none;stroke-width:2.0;stroke-dasharray:-;stroke-linecap:round;stroke-linejoin:round;" /><path d="M 90.0,-45.0 L 108.0,-45.0" style="stroke:black;fill:none;stroke-width:2.0;stroke-dasharray:-;stroke-linecap:round;stroke-linejoin:round;" /><path d="M 45.0,-0.0 L 45.0,18.0" style="stroke:black;fill:none;stroke-width:2.0;stroke-dasharray:-;stroke-linecap:round;stroke-linejoin:round;" /><path d="M 0.0,72.0 L 90.0,72.0 L 90.0,162.0 L 0.0,162.0 L 0.0,72.0" style="stroke:black;fill:none;stroke-width:2.0;stroke-dasharray:-;stroke-linecap:round;stroke-linejoin:round;" /><path d="M 0.0,99.0 L -18.0,99.0" style="stroke:black;fill:none;stroke-width:2.0;stroke-dasharray:-;stroke-linecap:round;stroke-linejoin:round;" /><path d="M 0.0,105.3 L 12.600000000000001,99.0 L 0.0,92.7" style="stroke:black;fill:none;stroke-width:2.0;stroke-dasharray:-;stroke-linecap:round;stroke-linejoin:round;" /><path d="M 0.0,135.0 L -18.0,135.0" style="stroke:black;fill:none;stroke-width:2.0;stroke-dasharray:-;stroke-linecap:round;stroke-linejoin:round;" /><path d="M 90.0,117.0 L 108.0,117.0" style="stroke:black;fill:none;stroke-width:2.0;stroke-dasharray:-;stroke-linecap:round;stroke-linejoin:round;" /><path d="M 45.0,72.0 L 45.0,54.0" style="stroke:black;fill:none;stroke-width:2.0;stroke-dasharray:-;stroke-linecap:round;stroke-linejoin:round;" /><path d="M -18.0,-63.0 L -27.0,-63.0 L -36.0,-63.0" style="stroke:black;fill:none;stroke-width:2.0;stroke-dasharray:-;stroke-linecap:round;stroke-linejoin:round;" /><path d="M -18.0,135.0 L -27.0,135.0 L -36.0,135.0" style="stroke:black;fill:none;stroke-width:2.0;stroke-dasharray:-;stroke-linecap:round;stroke-linejoin:round;" /><path d="M -18.0,-27.0 L -36.0,-27.000000000000004 L -54.0,-27.000000000000004" style="stroke:black;fill:none;stroke-width:2.0;stroke-dasharray:-;stroke-linecap:round;stroke-linejoin:round;" /><path d="M -18.0,99.0 L -36.0,99.0 L -54.0,99.0" style="stroke:black;fill:none;stroke-width:2.0;stroke-dasharray:-;stroke-linecap:round;stroke-linejoin:round;" /><path d="M 45.0,18.0 L 45.0,36.0 L 45.0,54.0" style="stroke:black;fill:none;stroke-width:2.0;stroke-dasharray:-;stroke-linecap:round;stroke-linejoin:round;" /><path d="M 108.0,-45.0 L 126.0,-45.0 L 144.0,-45.0" style="stroke:black;fill:none;stroke-width:2.0;stroke-dasharray:-;stroke-linecap:round;stroke-linejoin:round;" /><path d="M 144.0,-45.0 L 162.0,-45.0 L 180.0,-45.0" style="stroke:black;fill:none;stroke-width:2.0;stroke-dasharray:-;stroke-linecap:round;stroke-linejoin:round;" /><path d="M 108.0,117.0 L 126.0,117.0 L 144.0,117.0" style="stroke:black;fill:none;stroke-width:2.0;stroke-dasharray:-;stroke-linecap:round;stroke-linejoin:round;" /><path d="M 144.0,117.0 L 162.0,117.0 L 180.0,117.0" style="stroke:black;fill:none;stroke-width:2.0;stroke-dasharray:-;stroke-linecap:round;stroke-linejoin:round;" /><path d="M 102.60000000000001,54.0 L 126.0,54.0 L 126.0,36.0 L 126.0,18.0 L 102.60000000000001,18.0 L 102.60000000000001,18.0 L 101.44673604034718,18.036982930493945 L 100.29821108967889,18.14777975118157 L 99.1591446833753,18.331935174160826 L 98.03421748962887,18.58869246529747 L 96.92805207557483,18.916996553807966 L 95.84519391217127,19.31549836777161 L 94.79009269588396,19.782560377756457 L 93.76708406392912,20.316263325778994 L 92.78037177821012,20.914414111946872 L 91.83401045115811,21.57455480637678 L 90.93188888445981,22.293972749355586 L 90.07771408913723,23.0697116982409 L 89.27499605264433,23.8985839752963 L 88.52703331557547,24.7771835665428 L 87.83689941725478,25.70190011780095 L 87.20743026590378,26.66893377041055 L 86.641212485286,27.674310775664964 L 86.14057278571538,28.713899823796915 L 85.7075684031043,29.783429020416463 L 85.3439786453401,30.878503440641417 L 85.05129758072718,31.994623188786342 L 84.83072789853989,33.127201889399174 L 84.68317596691443,34.271585533661735 L 84.60924810838762,35.42307160371021 L 84.60924810838762,36.5769283962898 L 84.68317596691443,37.72841446633828 L 84.83072789853989,38.872798110600826 L 85.05129758072718,40.00537681121366 L 85.3439786453401,41.12149655935858 L 85.7075684031043,42.21657097958354 L 86.14057278571538,43.286100176203085 L 86.641212485286,44.325689224335036 L 87.20743026590378,45.33106622958945 L 87.83689941725478,46.298099882199054 L 88.52703331557547,47.2228164334572 L 89.27499605264433,48.10141602470371 L 90.07771408913726,48.9302883017591 L 90.93188888445981,49.70602725064442 L 91.83401045115812,50.425445193623226 L 92.78037177821012,51.08558588805314 L 93.76708406392912,51.68373667422101 L 94.79009269588396,52.217439622243546 L 95.84519391217127,52.68450163222839 L 96.92805207557483,53.08300344619204 L 98.03421748962887,53.41130753470253 L 99.1591446833753,53.668064825839174 L 100.29821108967889,53.852220248818426 L 101.44673604034718,53.96301706950605 L 102.60000000000001,54.0" style="stroke:black;fill:none;stroke-width:2.0;stroke-dasharray:-;stroke-linecap:round;stroke-linejoin:round;" /><path d="M 126.0,45.0 L 138.6,45.0" style="stroke:black;fill:none;stroke-width:2.0;stroke-dasharray:-;stroke-linecap:round;stroke-linejoin:round;" /><path d="M 126.0,27.0 L 138.6,27.0" style="stroke:black;fill:none;stroke-width:2.0;stroke-dasharray:-;stroke-linecap:round;stroke-linejoin:round;" /><path d="M 72.0,36.0 L 84.60000000000001,36.0" style="stroke:black;fill:none;stroke-width:2.0;stroke-dasharray:-;stroke-linecap:round;stroke-linejoin:round;" /><path d="M 144.0,-45.0 L 144.0,27.0 L 138.6,27.0" style="stroke:black;fill:none;stroke-width:2.0;stroke-dasharray:-;stroke-linecap:round;stroke-linejoin:round;" /><path d="M 144.0,117.0 L 144.0,45.0 L 138.6,45.0" style="stroke:black;fill:none;stroke-width:2.0;stroke-dasharray:-;stroke-linecap:round;stroke-linejoin:round;" /><path d="M 72.0,36.0 L 58.5,36.0 L 45.0,35.99999999999999" style="stroke:black;fill:none;stroke-width:2.0;stroke-dasharray:-;stroke-linecap:round;stroke-linejoin:round;" /><g><g><g><path d="M 6.688 -58.401 L 6.688 -58.401 L 6.688 -67.599 L 9.04 -67.599 Q 11.21 -67.599 12.344 -66.416 Q 13.478 -65.233 13.478 -63.035 Q 13.478 -60.837 12.351 -59.619 Q 11.224 -58.401 9.096 -58.401 Z M 7.892 -59.381 L 7.892 -59.381 L 8.956 -59.381 Q 10.608 -59.381 11.427 -60.34 Q 12.246 -61.299 12.246 -63.035 Q 12.246 -64.771 11.427 -65.695 Q 10.608 -66.619 8.956 -66.619 L 7.892 -66.619 Z " fill="black" /></g></g></g><g><g><g><path d="M 83.466 -39.169 L 83.466 -39.169 Q 82.178 -39.169 81.296 -39.785 Q 80.414 -40.401 80.008 -41.353 Q 79 -41.493 78.23 -42.102 Q 77.46 -42.711 77.026 -43.733 Q 76.592 -44.755 76.592 -46.113 Q 76.592 -47.583 77.103 -48.64 Q 77.614 -49.697 78.517 -50.264 Q 79.42 -50.831 80.596 -50.831 Q 81.786 -50.831 82.689 -50.264 Q 83.592 -49.697 84.103 -48.64 Q 84.614 -47.583 84.614 -46.113 Q 84.614 -44.783 84.201 -43.782 Q 83.788 -42.781 83.039 -42.158 Q 82.29 -41.535 81.296 -41.367 Q 81.618 -40.765 82.227 -40.464 Q 82.836 -40.163 83.62 -40.163 Q 83.914 -40.163 84.152 -40.198 Q 84.39 -40.233 84.572 -40.289 L 84.81 -39.365 Q 84.6 -39.295 84.25 -39.232 Q 83.9 -39.169 83.466 -39.169 Z M 80.596 -42.305 L 80.596 -42.305 Q 81.436 -42.305 82.059 -42.767 Q 82.682 -43.229 83.025 -44.083 Q 83.368 -44.937 83.368 -46.099 Q 83.368 -47.835 82.612 -48.815 Q 81.856 -49.795 80.596 -49.795 Q 79.336 -49.795 78.58 -48.808 Q 77.824 -47.821 77.824 -46.099 Q 77.824 -44.951 78.167 -44.097 Q 78.51 -43.243 79.133 -42.774 Q 79.756 -42.305 80.596 -42.305 Z " fill="black" /></g></g></g><g><g><g><path d="M 42.851 -5.4 L 42.851 -5.4 L 42.851 -14.598 L 45.805 -14.598 Q 46.757 -14.598 47.499 -14.346 Q 48.241 -14.094 48.661 -13.534 Q 49.081 -12.974 49.081 -12.022 Q 49.081 -10.916 48.507 -10.272 Q 47.933 -9.628 46.981 -9.404 L 49.361 -5.4 L 48.003 -5.4 L 45.749 -9.278 L 44.055 -9.278 L 44.055 -5.4 Z M 44.055 -10.244 L 44.055 -10.244 L 45.623 -10.244 Q 46.715 -10.244 47.303 -10.678 Q 47.891 -11.112 47.891 -12.008 Q 47.891 -12.904 47.303 -13.268 Q 46.715 -13.632 45.623 -13.632 L 44.055 -13.632 Z " fill="black" /></g></g></g><g><g><g><path d="M 6.688 139.599 L 6.688 139.599 L 6.688 130.401 L 9.04 130.401 Q 11.21 130.401 12.344 131.584 Q 13.478 132.767 13.478 134.965 Q 13.478 137.163 12.351 138.381 Q 11.224 139.599 9.096 139.599 Z M 7.892 138.619 L 7.892 138.619 L 8.956 138.619 Q 10.608 138.619 11.427 137.66 Q 12.246 136.701 12.246 134.965 Q 12.246 133.229 11.427 132.305 Q 10.608 131.381 8.956 131.381 L 7.892 131.381 Z " fill="black" /></g></g></g><g><g><g><path d="M 83.466 122.831 L 83.466 122.831 Q 82.178 122.831 81.296 122.215 Q 80.414 121.599 80.008 120.647 Q 79 120.507 78.23 119.898 Q 77.46 119.289 77.026 118.267 Q 76.592 117.245 76.592 115.887 Q 76.592 114.417 77.103 113.36 Q 77.614 112.303 78.517 111.736 Q 79.42 111.169 80.596 111.169 Q 81.786 111.169 82.689 111.736 Q 83.592 112.303 84.103 113.36 Q 84.614 114.417 84.614 115.887 Q 84.614 117.217 84.201 118.218 Q 83.788 119.219 83.039 119.842 Q 82.29 120.465 81.296 120.633 Q 81.618 121.235 82.227 121.536 Q 82.836 121.837 83.62 121.837 Q 83.914 121.837 84.152 121.802 Q 84.39 121.767 84.572 121.711 L 84.81 122.635 Q 84.6 122.705 84.25 122.768 Q 83.9 122.831 83.466 122.831 Z M 80.596 119.695 L 80.596 119.695 Q 81.436 119.695 82.059 119.233 Q 82.682 118.771 83.025 117.917 Q 83.368 117.063 83.368 115.901 Q 83.368 114.165 82.612 113.185 Q 81.856 112.205 80.596 112.205 Q 79.336 112.205 78.58 113.192 Q 77.824 114.179 77.824 115.901 Q 77.824 117.049 78.167 117.903 Q 78.51 118.757 79.133 119.226 Q 79.756 119.695 80.596 119.695 Z " fill="black" /></g></g></g><g><g><g><path d="M 42.851 77.4 L 42.851 77.4 L 42.851 68.202 L 45.805 68.202 Q 46.757 68.202 47.499 68.454 Q 48.241 68.706 48.661 69.266 Q 49.081 69.826 49.081 70.778 Q 49.081 71.884 48.507 72.528 Q 47.933 73.172 46.981 73.396 L 49.361 77.4 L 48.003 77.4 L 45.749 73.522 L 44.055 73.522 L 44.055 77.4 Z M 44.055 72.556 L 44.055 72.556 L 45.623 72.556 Q 46.715 72.556 47.303 72.122 Q 47.891 71.688 47.891 70.792 Q 47.891 69.896 47.303 69.532 Q 46.715 69.168 45.623 69.168 L 44.055 69.168 Z " fill="black" /></g></g></g><g><g><g><path d="M -40.916 -58.59 L -40.916 -58.59 L -42.078 -58.59 L -42.078 -65.996 L -43.884 -65.996 L -43.884 -66.752 Q -43.142 -66.864 -42.666 -67.025 Q -42.19 -67.186 -41.798 -67.41 L -40.916 -67.41 Z " fill="black" /></g></g></g><g><g><g><path d="M -40.916 139.41 L -40.916 139.41 L -42.078 139.41 L -42.078 132.004 L -43.884 132.004 L -43.884 131.248 Q -43.142 131.136 -42.666 130.975 Q -42.19 130.814 -41.798 130.59 L -40.916 130.59 Z " fill="black" /></g></g></g><circle cx="-54.0" cy="-27.000000000000004" r="2.6999999999999997" style="stroke:black;fill:white;stroke-width:2.0;stroke-dasharray:-;" /><g><g><g><path d="M -76.894 -30.136 L -76.894 -30.136 L -75.69 -30.136 Q -75.564 -30.724 -75.417 -31.27 Q -75.27 -31.816 -75.032 -32.25 Q -74.85 -32.586 -74.584 -32.88 Q -74.318 -33.174 -73.905 -33.363 Q -73.492 -33.552 -72.89 -33.552 Q -72.246 -33.552 -71.903 -33.265 Q -71.56 -32.978 -71.56 -32.53 Q -71.56 -32.222 -71.728 -32.068 Q -71.896 -31.914 -72.12 -31.914 Q -72.4 -31.914 -72.526 -32.075 Q -72.652 -32.236 -72.68 -32.46 Q -72.722 -32.726 -72.785 -32.936 Q -72.848 -33.146 -73.1 -33.146 Q -73.632 -33.146 -73.926 -32.586 Q -74.22 -32.026 -74.374 -31.13 L -74.542 -30.136 L -73.212 -30.136 L -73.296 -29.562 L -74.612 -29.562 L -75.41 -24.788 Q -75.466 -24.424 -75.585 -23.878 Q -75.704 -23.332 -75.914 -22.737 Q -76.124 -22.142 -76.425 -21.624 Q -76.726 -21.106 -77.16 -20.777 Q -77.594 -20.448 -78.168 -20.448 Q -78.84 -20.448 -79.127 -20.77 Q -79.414 -21.092 -79.414 -21.456 Q -79.414 -21.75 -79.267 -21.946 Q -79.12 -22.142 -78.854 -22.142 Q -78.532 -22.142 -78.42 -21.953 Q -78.308 -21.764 -78.28 -21.519 Q -78.252 -21.274 -78.196 -21.085 Q -78.14 -20.896 -77.944 -20.896 Q -77.664 -20.896 -77.454 -21.26 Q -77.244 -21.624 -77.09 -22.163 Q -76.936 -22.702 -76.838 -23.234 Q -76.74 -23.766 -76.684 -24.116 L -75.774 -29.562 L -76.95 -29.562 Z " fill="black" /><path d="M -72.096 -25.774 L -72.096 -25.774 L -72.096 -24.715 L -72.038 -24.715 Q -71.646 -25.264 -71.337 -25.553 Q -71.028 -25.842 -70.666 -25.842 Q -70.038 -25.842 -70.038 -25.225 Q -70.038 -24.882 -70.19 -24.745 Q -70.342 -24.607 -70.519 -24.607 Q -70.695 -24.607 -70.837 -24.705 Q -70.979 -24.803 -71.077 -24.901 Q -71.175 -24.999 -71.224 -24.999 Q -71.381 -24.999 -71.631 -24.735 Q -71.881 -24.47 -72.077 -24.137 L -72.077 -21.785 Q -72.077 -21.305 -71.866 -21.163 Q -71.655 -21.021 -71.116 -21.021 L -71.116 -20.658 L -73.782 -20.658 L -73.782 -21.021 Q -73.449 -21.021 -73.292 -21.079 Q -73.135 -21.138 -73.086 -21.29 Q -73.037 -21.442 -73.037 -21.716 L -73.037 -24.558 Q -73.037 -24.872 -73.091 -25.029 Q -73.145 -25.186 -73.449 -25.186 Q -73.586 -25.186 -73.684 -25.176 Q -73.782 -25.166 -73.782 -25.166 L -73.782 -25.529 L -72.459 -25.774 Z " fill="black" /><path d="M -65.129 -22.118 L -65.129 -22.118 L -64.893 -21.932 Q -65.099 -21.56 -65.354 -21.246 Q -65.609 -20.932 -65.981 -20.746 Q -66.354 -20.56 -66.922 -20.56 Q -67.539 -20.56 -68.073 -20.839 Q -68.608 -21.119 -68.931 -21.697 Q -69.254 -22.275 -69.254 -23.157 Q -69.254 -24.029 -68.951 -24.617 Q -68.647 -25.205 -68.127 -25.504 Q -67.608 -25.803 -66.971 -25.803 Q -66.089 -25.803 -65.506 -25.191 Q -64.923 -24.578 -64.903 -23.363 L -68.353 -23.363 Q -68.353 -22.696 -68.103 -22.26 Q -67.853 -21.824 -67.461 -21.614 Q -67.069 -21.403 -66.638 -21.403 Q -66.197 -21.403 -65.932 -21.496 Q -65.668 -21.589 -65.486 -21.756 Q -65.305 -21.922 -65.129 -22.118 Z M -68.353 -23.814 L -68.353 -23.814 L -65.952 -23.814 Q -65.952 -24.206 -66.079 -24.553 Q -66.207 -24.901 -66.452 -25.122 Q -66.697 -25.342 -67.079 -25.342 Q -67.637 -25.342 -67.966 -24.95 Q -68.294 -24.558 -68.353 -23.814 Z " fill="black" /><path d="M -63.933 -25.676 L -63.933 -25.676 L -63.149 -25.676 Q -63.149 -26.195 -63.075 -26.558 Q -63.002 -26.92 -62.816 -27.283 Q -62.59 -27.636 -62.272 -27.856 Q -61.953 -28.077 -61.365 -28.077 Q -60.866 -28.077 -60.513 -27.886 Q -60.16 -27.694 -60.16 -27.322 Q -60.16 -27.087 -60.292 -26.964 Q -60.425 -26.842 -60.601 -26.842 Q -60.817 -26.842 -60.939 -26.964 Q -61.062 -27.087 -61.258 -27.293 Q -61.395 -27.489 -61.503 -27.562 Q -61.61 -27.636 -61.757 -27.636 Q -62.032 -27.636 -62.12 -27.371 Q -62.208 -27.106 -62.208 -26.46 L -62.208 -25.676 L -60.934 -25.676 L -60.934 -25.195 L -62.208 -25.195 L -62.208 -21.961 Q -62.208 -21.56 -62.12 -21.359 Q -62.032 -21.158 -61.797 -21.089 Q -61.561 -21.021 -61.13 -21.021 L -61.13 -20.658 L -64.021 -20.658 L -64.021 -21.021 Q -63.649 -21.021 -63.463 -21.089 Q -63.276 -21.158 -63.213 -21.359 Q -63.149 -21.56 -63.149 -21.961 L -63.149 -25.195 L -63.933 -25.195 Z " fill="black" /></g></g></g><circle cx="-54.0" cy="99.0" r="2.6999999999999997" style="stroke:black;fill:white;stroke-width:2.0;stroke-dasharray:-;" /><g><g><g><path d="M -73.141 95.864 L -73.141 95.864 L -71.937 95.864 Q -71.811 95.276 -71.664 94.73 Q -71.517 94.184 -71.279 93.75 Q -71.097 93.414 -70.831 93.12 Q -70.565 92.826 -70.152 92.637 Q -69.739 92.448 -69.137 92.448 Q -68.493 92.448 -68.15 92.735 Q -67.807 93.022 -67.807 93.47 Q -67.807 93.778 -67.975 93.932 Q -68.143 94.086 -68.367 94.086 Q -68.647 94.086 -68.773 93.925 Q -68.899 93.764 -68.927 93.54 Q -68.969 93.274 -69.032 93.064 Q -69.095 92.854 -69.347 92.854 Q -69.879 92.854 -70.173 93.414 Q -70.467 93.974 -70.621 94.87 L -70.789 95.864 L -69.459 95.864 L -69.543 96.438 L -70.859 96.438 L -71.657 101.212 Q -71.713 101.576 -71.832 102.122 Q -71.951 102.668 -72.161 103.263 Q -72.371 103.858 -72.672 104.376 Q -72.973 104.894 -73.407 105.223 Q -73.841 105.552 -74.415 105.552 Q -75.087 105.552 -75.374 105.23 Q -75.661 104.908 -75.661 104.544 Q -75.661 104.25 -75.514 104.054 Q -75.367 103.858 -75.101 103.858 Q -74.779 103.858 -74.667 104.047 Q -74.555 104.236 -74.527 104.481 Q -74.499 104.726 -74.443 104.915 Q -74.387 105.104 -74.191 105.104 Q -73.911 105.104 -73.701 104.74 Q -73.491 104.376 -73.337 103.837 Q -73.183 103.298 -73.085 102.766 Q -72.987 102.234 -72.931 101.884 L -72.021 96.438 L -73.197 96.438 Z " fill="black" /><path d="M -70.068 100.324 L -70.068 100.324 L -69.284 100.324 Q -69.284 99.805 -69.21 99.442 Q -69.137 99.08 -68.951 98.717 Q -68.725 98.364 -68.407 98.144 Q -68.088 97.923 -67.5 97.923 Q -67 97.923 -66.648 98.115 Q -66.295 98.306 -66.295 98.678 Q -66.295 98.913 -66.427 99.036 Q -66.559 99.158 -66.736 99.158 Q -66.951 99.158 -67.074 99.036 Q -67.196 98.913 -67.392 98.707 Q -67.53 98.511 -67.637 98.438 Q -67.745 98.364 -67.892 98.364 Q -68.167 98.364 -68.255 98.629 Q -68.343 98.894 -68.343 99.54 L -68.343 100.324 L -67.069 100.324 L -67.069 100.805 L -68.343 100.805 L -68.343 104.039 Q -68.343 104.44 -68.255 104.641 Q -68.167 104.842 -67.931 104.911 Q -67.696 104.979 -67.265 104.979 L -67.265 105.342 L -70.156 105.342 L -70.156 104.979 Q -69.784 104.979 -69.597 104.911 Q -69.411 104.842 -69.347 104.641 Q -69.284 104.44 -69.284 104.039 L -69.284 100.805 L -70.068 100.805 Z " fill="black" /><path d="M -64.247 98.021 L -64.247 98.021 L -64.247 101.059 L -64.198 101.059 Q -63.913 100.726 -63.526 100.462 Q -63.139 100.197 -62.59 100.197 Q -62.081 100.197 -61.664 100.506 Q -61.248 100.814 -60.998 101.358 Q -60.748 101.902 -60.748 102.608 Q -60.748 103.549 -61.091 104.186 Q -61.434 104.823 -62.027 105.141 Q -62.62 105.46 -63.374 105.46 Q -63.815 105.46 -64.188 105.386 Q -64.56 105.313 -64.82 105.215 Q -65.08 105.117 -65.197 105.068 L -65.197 99.188 Q -65.197 98.825 -65.276 98.722 Q -65.354 98.619 -65.687 98.619 Q -65.795 98.619 -65.888 98.634 Q -65.981 98.649 -65.981 98.649 L -65.981 98.276 L -64.648 98.021 Z M -64.247 101.569 L -64.247 101.569 L -64.247 104.509 Q -64.129 104.725 -63.874 104.852 Q -63.619 104.979 -63.198 104.979 Q -62.679 104.979 -62.365 104.7 Q -62.051 104.421 -61.909 103.955 Q -61.767 103.49 -61.767 102.941 Q -61.767 102.441 -61.88 101.986 Q -61.993 101.53 -62.277 101.246 Q -62.561 100.961 -63.061 100.961 Q -63.325 100.961 -63.565 101.064 Q -63.806 101.167 -63.982 101.309 Q -64.158 101.451 -64.247 101.569 Z " fill="black" /></g></g></g><circle cx="144.0" cy="-45.0" r="2.6999999999999997" style="stroke:black;fill:black;stroke-width:2.0;stroke-dasharray:-;" /><circle cx="180.0" cy="-45.0" r="2.6999999999999997" style="stroke:black;fill:white;stroke-width:2.0;stroke-dasharray:-;" /><g><g><g><path d="M 190.934 -40.317 L 190.934 -40.317 Q 189.982 -40.317 189.212 -40.695 Q 188.442 -41.073 188.001 -41.948 Q 187.56 -42.823 187.56 -44.293 L 187.56 -49.683 L 188.764 -49.683 L 188.764 -44.251 Q 188.764 -43.159 189.051 -42.529 Q 189.338 -41.899 189.828 -41.633 Q 190.318 -41.367 190.934 -41.367 Q 191.564 -41.367 192.068 -41.633 Q 192.572 -41.899 192.866 -42.529 Q 193.16 -43.159 193.16 -44.251 L 193.16 -49.683 L 194.308 -49.683 L 194.308 -44.293 Q 194.308 -42.823 193.867 -41.948 Q 193.426 -41.073 192.663 -40.695 Q 191.9 -40.317 190.934 -40.317 Z " fill="black" /><path d="M 196.828 -40.485 L 196.828 -40.485 L 196.828 -49.683 L 199.516 -49.683 Q 200.566 -49.683 201.357 -49.424 Q 202.148 -49.165 202.596 -48.577 Q 203.044 -47.989 203.044 -46.981 Q 203.044 -46.001 202.603 -45.364 Q 202.162 -44.727 201.385 -44.419 Q 200.608 -44.111 199.572 -44.111 L 198.032 -44.111 L 198.032 -40.485 Z M 198.032 -45.091 L 198.032 -45.091 L 199.432 -45.091 Q 200.65 -45.091 201.245 -45.539 Q 201.84 -45.987 201.84 -46.967 Q 201.84 -47.961 201.224 -48.339 Q 200.608 -48.717 199.376 -48.717 L 198.032 -48.717 Z " fill="black" /></g></g></g><circle cx="144.0" cy="117.0" r="2.6999999999999997" style="stroke:black;fill:black;stroke-width:2.0;stroke-dasharray:-;" /><circle cx="180.0" cy="117.0" r="2.6999999999999997" style="stroke:black;fill:white;stroke-width:2.0;stroke-dasharray:-;" /><g><g><g><path d="M 187.588 121.592 L 187.588 121.592 L 187.588 112.394 L 189.94 112.394 Q 192.11 112.394 193.244 113.577 Q 194.378 114.76 194.378 116.958 Q 194.378 119.156 193.251 120.374 Q 192.124 121.592 189.996 121.592 Z M 188.792 120.612 L 188.792 120.612 L 189.856 120.612 Q 191.508 120.612 192.327 119.653 Q 193.146 118.694 193.146 116.958 Q 193.146 115.222 192.327 114.298 Q 191.508 113.374 189.856 113.374 L 188.792 113.374 Z " fill="black" /><path d="M 199.88 121.76 L 199.88 121.76 Q 198.704 121.76 197.801 121.179 Q 196.898 120.598 196.387 119.52 Q 195.876 118.442 195.876 116.958 Q 195.876 115.488 196.387 114.431 Q 196.898 113.374 197.801 112.807 Q 198.704 112.24 199.88 112.24 Q 201.07 112.24 201.973 112.807 Q 202.876 113.374 203.387 114.431 Q 203.898 115.488 203.898 116.958 Q 203.898 118.428 203.387 119.506 Q 202.876 120.584 201.973 121.172 Q 201.07 121.76 199.88 121.76 Z M 199.88 120.71 L 199.88 120.71 Q 200.72 120.71 201.343 120.248 Q 201.966 119.786 202.309 118.939 Q 202.652 118.092 202.652 116.958 Q 202.652 115.25 201.896 114.263 Q 201.14 113.276 199.88 113.276 Q 198.62 113.276 197.864 114.263 Q 197.108 115.25 197.108 116.958 Q 197.108 118.092 197.451 118.939 Q 197.794 119.786 198.417 120.248 Q 199.04 120.71 199.88 120.71 Z " fill="black" /><path d="M 206.964 121.592 L 206.964 121.592 L 204.976 112.394 L 206.208 112.394 L 207.188 117.392 Q 207.328 118.12 207.468 118.862 Q 207.608 119.604 207.748 120.346 L 207.804 120.346 Q 207.958 119.604 208.126 118.862 Q 208.294 118.12 208.462 117.392 L 209.764 112.394 L 210.842 112.394 L 212.144 117.392 Q 212.326 118.12 212.494 118.862 Q 212.662 119.604 212.816 120.346 L 212.886 120.346 Q 213.026 119.604 213.152 118.862 Q 213.278 118.12 213.418 117.392 L 214.398 112.394 L 215.56 112.394 L 213.614 121.592 L 212.172 121.592 L 210.758 116.104 Q 210.632 115.558 210.52 115.047 Q 210.408 114.536 210.296 114.004 L 210.24 114.004 Q 210.142 114.536 210.016 115.047 Q 209.89 115.558 209.778 116.104 L 208.392 121.592 Z " fill="black" /><path d="M 217.184 121.592 L 217.184 121.592 L 217.184 112.394 L 218.43 112.394 L 221.818 118.148 L 222.826 120.052 L 222.896 120.052 Q 222.854 119.352 222.798 118.596 Q 222.742 117.84 222.742 117.112 L 222.742 112.394 L 223.876 112.394 L 223.876 121.592 L 222.644 121.592 L 219.242 115.838 L 218.234 113.934 L 218.178 113.934 Q 218.22 114.634 218.276 115.369 Q 218.332 116.104 218.332 116.818 L 218.332 121.592 Z " fill="black" /></g></g></g><circle cx="45.0" cy="35.99999999999999" r="2.6999999999999997" style="stroke:black;fill:black;stroke-width:2.0;stroke-dasharray:-;" /></svg>