<svg xmlns="http://www.w3.org/2000/svg" xmlns:xlink="http://www.w3.org/1999/xlink" xml:lang="en" height="193.58399999999995pt" width="660.366pt" viewBox="-32.672 -75.584 660.366 193.58399999999995"><circle cx="72.0" cy="-0.0" r="18.0" style="stroke:black;fill:none;stroke-width:2.0;stroke-dasharray:-;" /><circle cx="180.0" cy="-0.0" r="18.0" style="stroke:black;fill:none;stroke-width:2.0;stroke-dasharray:-;" /><circle cx="468.0" cy="-0.0" r="18.0" style="stroke:red;fill:none;stroke-width:2.0;stroke-dasharray:-;" /><path d="M 0.0,-0.0 L 9.0,-0.0 L 18.0,-0.0" style="stroke:black;fill:none;stroke-width:2.0;stroke-dasharray:-;stroke-linecap:round;stroke-linejoin:round;" /><path d="M 18.0,-0.0 L 36.0,-0.0 M 31.5,-9.0 L 40.5,9.0 M 36.0,-0.0 L 54.0,-0.0" style="stroke:black;fill:none;stroke-width:2.0;stroke-dasharray:-;stroke-linecap:round;stroke-linejoin:round;" /><path d="M 72.0,-7.2 L 72.0,7.2" style="stroke:black;fill:none;stroke-width:2.0;stroke-dasharray:-;stroke-linecap:round;stroke-linejoin:round;" /><path d="M 64.8,-0.0 L 79.2,-0.0" style="stroke:black;fill:none;stroke-width:2.0;stroke-dasharray:-;stroke-linecap:round;stroke-linejoin:round;" /><path d="M 90.0,-0.0 L 126.0,-0.0 M 121.5,-9.0 L 130.5,9.0 M 126.0,-0.0 L 162.0,-0.0" style="stroke:black;fill:none;stroke-width:2.0;stroke-dasharray:-;stroke-linecap:round;stroke-linejoin:round;" /><path d="M 180.0,-7.2 L 180.0,7.2" style="stroke:black;fill:none;stroke-width:2.0;stroke-dasharray:-;stroke-linecap:round;stroke-linejoin:round;" /><path d="M 172.79999999999998,-0.0 L 187.20000000000002,-0.0" style="stroke:black;fill:none;stroke-width:2.0;stroke-dasharray:-;stroke-linecap:round;stroke-linejoin:round;" /><path d="M 198.0,-0.0 L 234.0,-0.0 M 229.5,-9.0 L 238.5,9.0 M 234.0,-0.0 L 270.0,-0.0" style="stroke:black;fill:none;stroke-width:2.0;stroke-dasharray:-;stroke-linecap:round;stroke-linejoin:round;" /><path d="M 270.0,-0.0 L 270.0,-18.0 L 306.0,-18.0 L 306.0,18.0 L 270.0,18.0 L 270.0,-0.0" style="stroke:black;fill:none;stroke-width:2.0;stroke-dasharray:-;stroke-linecap:round;stroke-linejoin:round;" /><path d="M 306.0,-0.0 L 342.0,-0.0 M 337.5,-9.0 L 346.5,9.0 M 342.0,-0.0 L 378.0,-0.0" style="stroke:black;fill:none;stroke-width:2.0;stroke-dasharray:-;stroke-linecap:round;stroke-linejoin:round;" /><path d="M 378.0,-0.0 L 414.0,-0.0 M 409.5,-9.0 L 418.5,9.0 M 414.0,-0.0 L 450.0,-0.0" style="stroke:black;fill:none;stroke-width:2.0;stroke-dasharray:-;stroke-linecap:round;stroke-linejoin:round;" /><path d="M 468.0,-7.2 L 468.0,7.2" style="stroke:red;fill:none;stroke-width:2.0;stroke-dasharray:-;stroke-linecap:round;stroke-linejoin:round;" /><path d="M 460.8,-0.0 L 475.2,-0.0" style="stroke:red;fill:none;stroke-width:2.0;stroke-dasharray:-;stroke-linecap:round;stroke-linejoin:round;" /><path d="M 486.0,-0.0 L 522.0,-0.0 M 517.5,-9.0 L 526.5,9.0 M 522.0,-0.0 L 558.0,-0.0" style="stroke:black;fill:none;stroke-width:2.0;stroke-dasharray:-;stroke-linecap:round;stroke-linejoin:round;" /><path d="M 558.0,-0.0 L 576.0,-0.0 L 585.0,-0.0" style="stroke:black;fill:none;stroke-width:2.0;stroke-dasharray:-;stroke-linecap:round;stroke-linejoin:round;" /><path d="M 592.0 0.0 L 585.0 2.6999999999999997 L 585.0 -2.6999999999999997 Z" style="stroke:black;fill:black;stroke-linecap:butt;stroke-linejoin:miter;" /><path d="M 378.0,-0.0 L 378.0,36.0 L 378.0,72.0" style="stroke:black;fill:none;stroke-width:2.0;stroke-dasharray:-;stroke-linecap:round;stroke-linejoin:round;" /><path d="M 378.0,72.0 L 279.0,71.99999999999999 M 283.5,80.99999999999999 L 274.5,62.999999999999986 M 279.0,71.99999999999999 L 180.0,71.99999999999997" style="stroke:black;fill:none;stroke-width:2.0;stroke-dasharray:-;stroke-linecap:round;stroke-linejoin:round;" /><path d="M 180.0,71.99999999999997 L 180.0,44.999999999999986 L 180.0,27.0" style="stroke:black;fill:none;stroke-width:2.0;stroke-dasharray:-;stroke-linecap:round;stroke-linejoin:round;" /><path d="M 180.0 20.0 L 182.7 27.0 L 177.3 27.0 Z" style="stroke:black;fill:black;stroke-linecap:butt;stroke-linejoin:miter;" /><path d="M 558.0,-0.0 L 558.0,54.0 L 558.0,108.0" style="stroke:black;fill:none;stroke-width:2.0;stroke-dasharray:-;stroke-linecap:round;stroke-linejoin:round;" /><path d="M 558.0,108.0 L 315.0,107.99999999999997 L 72.0,107.99999999999994" style="stroke:black;fill:none;stroke-width:2.0;stroke-dasharray:-;stroke-linecap:round;stroke-linejoin:round;" /><path d="M 72.0,107.99999999999994 L 72.0,62.99999999999997 L 72.0,27.0" style="stroke:black;fill:none;stroke-width:2.0;stroke-dasharray:-;stroke-linecap:round;stroke-linejoin:round;" /><path d="M 72.0 20.0 L 74.7 27.0 L 69.3 27.0 Z" style="stroke:black;fill:black;stroke-linecap:butt;stroke-linejoin:miter;" /><path d="M 468.0,-27.0 L 468.0,-36.0 L 468.0,-54.0" style="stroke:red;fill:none;stroke-width:2.0;stroke-dasharray:-;stroke-linecap:round;stroke-linejoin:round;" /><path d="M 468.0 -20.0 L 465.3 -27.0 L 470.7 -27.0 Z" style="stroke:red;fill:red;stroke-linecap:butt;stroke-linejoin:miter;" /><g><g><g><path d="M -24.376 -0.392 L -24.376 -0.392 L -23.69 -1.568 Q -23.41 -2.072 -22.976 -2.499 Q -22.542 -2.926 -21.926 -2.926 Q -21.52 -2.926 -21.373 -2.765 Q -21.226 -2.604 -21.226 -2.31 Q -21.226 -2.058 -21.408 -1.855 Q -21.59 -1.652 -21.87 -1.652 Q -22.038 -1.652 -22.248 -1.722 Q -22.458 -1.792 -22.598 -1.792 Q -22.836 -1.792 -23.004 -1.645 Q -23.172 -1.498 -23.354 -1.204 L -24.208 0.154 L -23.914 1.106 Q -23.62 2.072 -23.375 2.492 Q -23.13 2.912 -22.808 2.912 Q -22.528 2.912 -22.304 2.709 Q -22.08 2.506 -21.8 2.128 L -21.506 2.352 Q -21.702 2.66 -21.975 3.024 Q -22.248 3.388 -22.612 3.654 Q -22.976 3.92 -23.452 3.92 Q -23.928 3.92 -24.187 3.542 Q -24.446 3.164 -24.6 2.478 L -24.95 1.064 L -25.006 1.064 L -25.902 2.52 Q -26.238 3.066 -26.63 3.486 Q -27.022 3.906 -27.652 3.906 Q -28.1 3.906 -28.282 3.696 Q -28.464 3.486 -28.464 3.22 Q -28.464 3.01 -28.317 2.821 Q -28.17 2.632 -27.918 2.632 Q -27.68 2.632 -27.449 2.723 Q -27.218 2.814 -27.036 2.814 Q -27.008 2.814 -26.91 2.779 Q -26.812 2.744 -26.63 2.576 Q -26.448 2.408 -26.182 2.016 L -25.174 0.546 L -25.566 -0.728 Q -25.748 -1.316 -25.93 -1.652 Q -26.112 -1.988 -26.378 -2.135 Q -26.644 -2.282 -27.106 -2.268 Q -27.274 -2.268 -27.407 -2.247 Q -27.54 -2.226 -27.54 -2.226 L -27.54 -2.646 L -25.594 -2.87 L -25.384 -2.87 Q -25.132 -2.576 -24.929 -2.128 Q -24.726 -1.68 -24.586 -1.106 L -24.418 -0.392 Z " fill="black" /><path d="M -16.774 6.524 L -16.774 6.524 L -19.7 6.524 L -19.7 -6.524 L -16.774 -6.524 L -16.774 -6.076 L -18.594 -6.076 L -18.594 6.076 L -16.774 6.076 Z " fill="black" /><path d="M -8.78 2.212 L -8.78 2.212 L -8.486 2.422 Q -8.668 2.674 -8.927 3.031 Q -9.186 3.388 -9.55 3.654 Q -9.914 3.92 -10.418 3.92 Q -10.936 3.92 -11.132 3.661 Q -11.328 3.402 -11.328 3.094 Q -11.328 2.926 -11.3 2.765 Q -11.272 2.604 -11.258 2.548 L -10.432 -0.686 Q -10.432 -0.686 -10.383 -0.917 Q -10.334 -1.148 -10.334 -1.358 Q -10.334 -1.596 -10.425 -1.757 Q -10.516 -1.918 -10.754 -1.918 Q -11.062 -1.918 -11.412 -1.652 Q -11.762 -1.386 -12.119 -0.966 Q -12.476 -0.546 -12.805 -0.07 Q -13.134 0.406 -13.379 0.84 Q -13.624 1.274 -13.764 1.568 L -14.268 3.78 L -15.416 3.78 L -14.282 -1.54 Q -14.282 -1.54 -14.261 -1.694 Q -14.24 -1.848 -14.24 -2.002 Q -14.24 -2.38 -14.688 -2.38 Q -14.828 -2.38 -14.989 -2.366 Q -15.15 -2.352 -15.15 -2.352 L -15.15 -2.73 L -13.204 -2.884 L -12.896 -2.884 L -13.596 0.154 L -13.484 0.154 Q -13.26 -0.238 -12.931 -0.763 Q -12.602 -1.288 -12.168 -1.778 Q -11.734 -2.268 -11.202 -2.597 Q -10.67 -2.926 -10.054 -2.926 Q -9.522 -2.926 -9.326 -2.618 Q -9.13 -2.31 -9.13 -1.932 Q -9.13 -1.666 -9.179 -1.358 Q -9.228 -1.05 -9.256 -0.896 L -10.054 2.338 Q -10.054 2.338 -10.068 2.443 Q -10.082 2.548 -10.082 2.674 Q -10.082 2.94 -9.816 2.94 Q -9.452 2.94 -9.193 2.674 Q -8.934 2.408 -8.78 2.212 Z " fill="black" /><path d="M -4.538 6.524 L -4.538 6.524 L -7.464 6.524 L -7.464 6.076 L -5.644 6.076 L -5.644 -6.076 L -7.464 -6.076 L -7.464 -6.524 L -4.538 -6.524 Z " fill="black" /></g></g></g><g><g><g><path d="M 41.481 -21.91 L 41.481 -21.91 L 41.397 -21.49 Q 41.019 -21.49 40.816 -21.42 Q 40.613 -21.35 40.459 -21.21 Q 40.333 -21.098 40.207 -20.937 Q 40.081 -20.776 39.969 -20.468 Q 39.857 -20.16 39.745 -19.614 L 38.317 -12.6 L 37.855 -12.6 L 33.739 -20.118 L 33.669 -20.118 L 32.577 -14.798 Q 32.437 -14.098 32.465 -13.741 Q 32.493 -13.384 32.752 -13.258 Q 33.011 -13.132 33.529 -13.132 L 33.445 -12.712 L 30.225 -12.712 L 30.309 -13.132 Q 30.855 -13.132 31.149 -13.251 Q 31.443 -13.37 31.597 -13.734 Q 31.751 -14.098 31.891 -14.798 L 33.137 -20.846 Q 32.899 -21.238 32.661 -21.364 Q 32.423 -21.49 31.975 -21.49 L 32.059 -21.91 L 34.257 -21.91 L 38.037 -15.022 L 38.107 -15.022 L 39.073 -19.684 Q 39.199 -20.314 39.206 -20.636 Q 39.213 -20.958 39.115 -21.14 Q 38.989 -21.35 38.765 -21.42 Q 38.541 -21.49 38.093 -21.49 L 38.177 -21.91 Z " fill="black" /></g></g></g><g><g><g><path d="M 118.829 -22.358 L 118.829 -22.358 L 118.745 -21.938 Q 118.367 -21.938 118.164 -21.868 Q 117.961 -21.798 117.807 -21.658 Q 117.681 -21.546 117.555 -21.385 Q 117.429 -21.224 117.317 -20.916 Q 117.205 -20.608 117.093 -20.062 L 115.665 -13.048 L 115.203 -13.048 L 111.087 -20.566 L 111.017 -20.566 L 109.925 -15.246 Q 109.785 -14.546 109.813 -14.189 Q 109.841 -13.832 110.1 -13.706 Q 110.359 -13.58 110.877 -13.58 L 110.793 -13.16 L 107.573 -13.16 L 107.657 -13.58 Q 108.203 -13.58 108.497 -13.699 Q 108.791 -13.818 108.945 -14.182 Q 109.099 -14.546 109.239 -15.246 L 110.485 -21.294 Q 110.247 -21.686 110.009 -21.812 Q 109.771 -21.938 109.323 -21.938 L 109.407 -22.358 L 111.605 -22.358 L 115.385 -15.47 L 115.455 -15.47 L 116.421 -20.132 Q 116.547 -20.762 116.554 -21.084 Q 116.561 -21.406 116.463 -21.588 Q 116.337 -21.798 116.113 -21.868 Q 115.889 -21.938 115.441 -21.938 L 115.525 -22.358 Z " fill="black" /><path d="M 132.188 -16.31 L 132.188 -16.31 L 128.52 -16.31 L 128.52 -12.6 L 127.512 -12.6 L 127.512 -16.31 L 123.844 -16.31 L 123.844 -17.262 L 127.512 -17.262 L 127.512 -20.972 L 128.52 -20.972 L 128.52 -17.262 L 132.188 -17.262 Z " fill="black" /><path d="M 143.167 -13.16 L 143.167 -13.16 L 138.323 -13.16 L 138.323 -13.552 Q 139.317 -13.552 139.723 -13.762 Q 140.129 -13.972 140.129 -14.49 L 140.129 -20.412 Q 140.129 -20.776 140.031 -20.937 Q 139.933 -21.098 139.667 -21.098 Q 139.457 -21.098 139.009 -21.042 Q 138.561 -20.986 138.239 -20.874 L 138.239 -21.336 L 140.955 -22.106 L 141.361 -22.106 L 141.361 -14.49 Q 141.361 -13.972 141.781 -13.762 Q 142.201 -13.552 143.167 -13.552 Z " fill="black" /></g></g></g><g><g><g><path d="M 226.829 -22.358 L 226.829 -22.358 L 226.745 -21.938 Q 226.367 -21.938 226.164 -21.868 Q 225.961 -21.798 225.807 -21.658 Q 225.681 -21.546 225.555 -21.385 Q 225.429 -21.224 225.317 -20.916 Q 225.205 -20.608 225.093 -20.062 L 223.665 -13.048 L 223.203 -13.048 L 219.087 -20.566 L 219.017 -20.566 L 217.925 -15.246 Q 217.785 -14.546 217.813 -14.189 Q 217.841 -13.832 218.1 -13.706 Q 218.359 -13.58 218.877 -13.58 L 218.793 -13.16 L 215.573 -13.16 L 215.657 -13.58 Q 216.203 -13.58 216.497 -13.699 Q 216.791 -13.818 216.945 -14.182 Q 217.099 -14.546 217.239 -15.246 L 218.485 -21.294 Q 218.247 -21.686 218.009 -21.812 Q 217.771 -21.938 217.323 -21.938 L 217.407 -22.358 L 219.605 -22.358 L 223.385 -15.47 L 223.455 -15.47 L 224.421 -20.132 Q 224.547 -20.762 224.554 -21.084 Q 224.561 -21.406 224.463 -21.588 Q 224.337 -21.798 224.113 -21.868 Q 223.889 -21.938 223.441 -21.938 L 223.525 -22.358 Z " fill="black" /><path d="M 240.188 -16.31 L 240.188 -16.31 L 236.52 -16.31 L 236.52 -12.6 L 235.512 -12.6 L 235.512 -16.31 L 231.844 -16.31 L 231.844 -17.262 L 235.512 -17.262 L 235.512 -20.972 L 236.52 -20.972 L 236.52 -17.262 L 240.188 -17.262 Z " fill="black" /><path d="M 251.699 -15.4 L 251.699 -15.4 L 251.251 -13.16 L 245.735 -13.16 L 245.735 -13.636 L 247.863 -15.764 Q 248.563 -16.478 249.025 -17.059 Q 249.487 -17.64 249.718 -18.228 Q 249.949 -18.816 249.949 -19.544 Q 249.949 -20.328 249.48 -20.797 Q 249.011 -21.266 248.199 -21.266 Q 247.513 -21.266 247.03 -20.972 Q 246.547 -20.678 246.155 -19.894 L 245.819 -20.034 Q 246.141 -21.056 246.841 -21.616 Q 247.541 -22.176 248.563 -22.176 Q 249.361 -22.176 249.963 -21.875 Q 250.565 -21.574 250.908 -21.035 Q 251.251 -20.496 251.251 -19.754 Q 251.251 -19.138 250.992 -18.571 Q 250.733 -18.004 250.222 -17.402 Q 249.711 -16.8 248.969 -16.044 L 247.121 -14.294 L 247.121 -14.224 L 248.101 -14.266 L 250.047 -14.266 Q 250.607 -14.266 250.831 -14.518 Q 251.055 -14.77 251.293 -15.4 Z " fill="black" /></g></g></g><g><g><g><path d="M 284.788 3.38 L 284.788 3.38 L 284.158 5.788 L 278.838 5.788 L 278.894 5.382 L 283.808 0.258 L 283.808 0.216 L 281.526 0.216 Q 281.078 0.216 280.84 0.321 Q 280.602 0.426 280.469 0.678 Q 280.336 0.93 280.196 1.406 L 279.762 1.406 L 280.266 -0.75 L 285.39 -0.75 L 285.334 -0.372 L 280.42 4.738 L 280.42 4.78 L 282.576 4.78 Q 283.08 4.78 283.381 4.675 Q 283.682 4.57 283.892 4.269 Q 284.102 3.968 284.326 3.38 Z " fill="black" /><path d="M 292.538 -1.476 L 292.538 -1.476 L 286.423 -1.476 L 286.423 -2.241 L 292.538 -2.241 Z " fill="black" /><path d="M 296.772 0.748 L 296.772 0.748 L 293.45 0.748 L 293.45 0.395 Q 294.155 0.395 294.385 0.253 Q 294.616 0.111 294.616 -0.261 L 294.616 -4.534 Q 294.616 -4.798 294.537 -4.916 Q 294.459 -5.034 294.253 -5.034 Q 294.096 -5.034 293.827 -4.99 Q 293.557 -4.945 293.361 -4.896 L 293.361 -5.288 L 295.174 -5.788 L 295.596 -5.788 L 295.596 -0.261 Q 295.596 0.111 295.846 0.253 Q 296.095 0.395 296.772 0.395 Z " fill="black" /></g></g></g><circle cx="378.0" cy="-0.0" r="2.6999999999999997" style="stroke:black;fill:black;stroke-width:2.0;stroke-dasharray:-;" /><g><g><g><path d="M 336.179 -22.358 L 336.179 -22.358 L 336.095 -21.938 Q 335.717 -21.938 335.514 -21.868 Q 335.311 -21.798 335.157 -21.658 Q 335.031 -21.546 334.905 -21.385 Q 334.779 -21.224 334.667 -20.916 Q 334.555 -20.608 334.443 -20.062 L 333.015 -13.048 L 332.553 -13.048 L 328.437 -20.566 L 328.367 -20.566 L 327.275 -15.246 Q 327.135 -14.546 327.163 -14.189 Q 327.191 -13.832 327.45 -13.706 Q 327.709 -13.58 328.227 -13.58 L 328.143 -13.16 L 324.923 -13.16 L 325.007 -13.58 Q 325.553 -13.58 325.847 -13.699 Q 326.141 -13.818 326.295 -14.182 Q 326.449 -14.546 326.589 -15.246 L 327.835 -21.294 Q 327.597 -21.686 327.359 -21.812 Q 327.121 -21.938 326.673 -21.938 L 326.757 -22.358 L 328.955 -22.358 L 332.735 -15.47 L 332.805 -15.47 L 333.771 -20.132 Q 333.897 -20.762 333.904 -21.084 Q 333.911 -21.406 333.813 -21.588 Q 333.687 -21.798 333.463 -21.868 Q 333.239 -21.938 332.791 -21.938 L 332.875 -22.358 Z " fill="black" /><path d="M 349.538 -16.31 L 349.538 -16.31 L 345.87 -16.31 L 345.87 -12.6 L 344.862 -12.6 L 344.862 -16.31 L 341.194 -16.31 L 341.194 -17.262 L 344.862 -17.262 L 344.862 -20.972 L 345.87 -20.972 L 345.87 -17.262 L 349.538 -17.262 Z " fill="black" /><path d="M 361.049 -15.4 L 361.049 -15.4 L 360.601 -13.16 L 355.085 -13.16 L 355.085 -13.636 L 357.213 -15.764 Q 357.913 -16.478 358.375 -17.059 Q 358.837 -17.64 359.068 -18.228 Q 359.299 -18.816 359.299 -19.544 Q 359.299 -20.328 358.83 -20.797 Q 358.361 -21.266 357.549 -21.266 Q 356.863 -21.266 356.38 -20.972 Q 355.897 -20.678 355.505 -19.894 L 355.169 -20.034 Q 355.491 -21.056 356.191 -21.616 Q 356.891 -22.176 357.913 -22.176 Q 358.711 -22.176 359.313 -21.875 Q 359.915 -21.574 360.258 -21.035 Q 360.601 -20.496 360.601 -19.754 Q 360.601 -19.138 360.342 -18.571 Q 360.083 -18.004 359.572 -17.402 Q 359.061 -16.8 358.319 -16.044 L 356.471 -14.294 L 356.471 -14.224 L 357.451 -14.266 L 359.397 -14.266 Q 359.957 -14.266 360.181 -14.518 Q 360.405 -14.77 360.643 -15.4 Z " fill="black" /></g></g></g><g><g><g><path d="M 406.829 -22.358 L 406.829 -22.358 L 406.745 -21.938 Q 406.367 -21.938 406.164 -21.868 Q 405.961 -21.798 405.807 -21.658 Q 405.681 -21.546 405.555 -21.385 Q 405.429 -21.224 405.317 -20.916 Q 405.205 -20.608 405.093 -20.062 L 403.665 -13.048 L 403.203 -13.048 L 399.087 -20.566 L 399.017 -20.566 L 397.925 -15.246 Q 397.785 -14.546 397.813 -14.189 Q 397.841 -13.832 398.1 -13.706 Q 398.359 -13.58 398.877 -13.58 L 398.793 -13.16 L 395.573 -13.16 L 395.657 -13.58 Q 396.203 -13.58 396.497 -13.699 Q 396.791 -13.818 396.945 -14.182 Q 397.099 -14.546 397.239 -15.246 L 398.485 -21.294 Q 398.247 -21.686 398.009 -21.812 Q 397.771 -21.938 397.323 -21.938 L 397.407 -22.358 L 399.605 -22.358 L 403.385 -15.47 L 403.455 -15.47 L 404.421 -20.132 Q 404.547 -20.762 404.554 -21.084 Q 404.561 -21.406 404.463 -21.588 Q 404.337 -21.798 404.113 -21.868 Q 403.889 -21.938 403.441 -21.938 L 403.525 -22.358 Z " fill="black" /><path d="M 420.188 -16.31 L 420.188 -16.31 L 416.52 -16.31 L 416.52 -12.6 L 415.512 -12.6 L 415.512 -16.31 L 411.844 -16.31 L 411.844 -17.262 L 415.512 -17.262 L 415.512 -20.972 L 416.52 -20.972 L 416.52 -17.262 L 420.188 -17.262 Z " fill="black" /><path d="M 431.699 -15.4 L 431.699 -15.4 L 431.251 -13.16 L 425.735 -13.16 L 425.735 -13.636 L 427.863 -15.764 Q 428.563 -16.478 429.025 -17.059 Q 429.487 -17.64 429.718 -18.228 Q 429.949 -18.816 429.949 -19.544 Q 429.949 -20.328 429.48 -20.797 Q 429.011 -21.266 428.199 -21.266 Q 427.513 -21.266 427.03 -20.972 Q 426.547 -20.678 426.155 -19.894 L 425.819 -20.034 Q 426.141 -21.056 426.841 -21.616 Q 427.541 -22.176 428.563 -22.176 Q 429.361 -22.176 429.963 -21.875 Q 430.565 -21.574 430.908 -21.035 Q 431.251 -20.496 431.251 -19.754 Q 431.251 -19.138 430.992 -18.571 Q 430.733 -18.004 430.222 -17.402 Q 429.711 -16.8 428.969 -16.044 L 427.121 -14.294 L 427.121 -14.224 L 428.101 -14.266 L 430.047 -14.266 Q 430.607 -14.266 430.831 -14.518 Q 431.055 -14.77 431.293 -15.4 Z " fill="black" /></g></g></g><circle cx="558.0" cy="-0.0" r="2.6999999999999997" style="stroke:black;fill:black;stroke-width:2.0;stroke-dasharray:-;" /><g><g><g><path d="M 512.052 -12.768 L 512.052 -12.768 L 512.052 -21.966 L 513.494 -21.966 L 515.3 -17.066 Q 515.468 -16.604 515.629 -16.121 Q 515.79 -15.638 515.972 -15.162 L 516.014 -15.162 Q 516.182 -15.638 516.343 -16.121 Q 516.504 -16.604 516.672 -17.066 L 518.45 -21.966 L 519.892 -21.966 L 519.892 -12.768 L 518.772 -12.768 L 518.772 -17.78 Q 518.772 -18.396 518.821 -19.152 Q 518.87 -19.908 518.926 -20.51 L 518.87 -20.51 L 518.128 -18.41 L 516.364 -13.692 L 515.566 -13.692 L 513.788 -18.41 L 513.046 -20.51 L 512.99 -20.51 Q 513.046 -19.908 513.095 -19.152 Q 513.144 -18.396 513.144 -17.78 L 513.144 -12.768 Z " fill="black" /><path d="M 525.072 -12.6 L 525.072 -12.6 Q 524.064 -12.6 523.231 -12.971 Q 522.398 -13.342 521.782 -13.958 L 522.496 -14.784 Q 523 -14.266 523.679 -13.958 Q 524.358 -13.65 525.128 -13.65 Q 526.024 -13.65 526.535 -14.056 Q 527.046 -14.462 527.046 -15.148 Q 527.046 -15.596 526.843 -15.876 Q 526.64 -16.156 526.283 -16.352 Q 525.926 -16.548 525.478 -16.73 L 524.134 -17.304 Q 523.728 -17.486 523.28 -17.773 Q 522.832 -18.06 522.531 -18.515 Q 522.23 -18.97 522.23 -19.642 Q 522.23 -20.37 522.615 -20.93 Q 523 -21.49 523.665 -21.805 Q 524.33 -22.12 525.17 -22.12 Q 526.024 -22.12 526.738 -21.805 Q 527.452 -21.49 527.956 -20.986 L 527.326 -20.216 Q 526.878 -20.622 526.353 -20.853 Q 525.828 -21.084 525.198 -21.084 Q 524.4 -21.084 523.924 -20.727 Q 523.448 -20.37 523.448 -19.754 Q 523.448 -19.32 523.679 -19.04 Q 523.91 -18.76 524.267 -18.578 Q 524.624 -18.396 525.002 -18.242 L 526.332 -17.682 Q 526.864 -17.458 527.305 -17.143 Q 527.746 -16.828 528.005 -16.366 Q 528.264 -15.904 528.264 -15.26 Q 528.264 -14.504 527.879 -13.902 Q 527.494 -13.3 526.78 -12.95 Q 526.066 -12.6 525.072 -12.6 Z " fill="black" /><path d="M 530.098 -12.768 L 530.098 -12.768 L 530.098 -21.966 L 532.884 -21.966 Q 533.85 -21.966 534.578 -21.742 Q 535.306 -21.518 535.712 -21.028 Q 536.118 -20.538 536.118 -19.754 Q 536.118 -19.026 535.761 -18.473 Q 535.404 -17.92 534.746 -17.71 L 534.746 -17.654 Q 535.586 -17.5 536.125 -16.954 Q 536.664 -16.408 536.664 -15.428 Q 536.664 -14.546 536.209 -13.958 Q 535.754 -13.37 534.956 -13.069 Q 534.158 -12.768 533.108 -12.768 Z M 531.302 -13.72 L 531.302 -13.72 L 532.926 -13.72 Q 534.13 -13.72 534.809 -14.147 Q 535.488 -14.574 535.488 -15.47 Q 535.488 -16.338 534.837 -16.737 Q 534.186 -17.136 532.926 -17.136 L 531.302 -17.136 Z M 531.302 -18.046 L 531.302 -18.046 L 532.688 -18.046 Q 533.906 -18.046 534.424 -18.459 Q 534.942 -18.872 534.942 -19.572 Q 534.942 -20.356 534.375 -20.685 Q 533.808 -21.014 532.744 -21.014 L 531.302 -21.014 Z " fill="black" /></g></g></g><g><g><g><path d="M 601.352 -0.938 L 601.352 -0.938 L 601.688 1.106 L 601.814 2.506 L 601.898 2.506 L 603.508 -0.084 Q 603.76 -0.49 603.865 -0.77 Q 603.97 -1.05 603.97 -1.302 Q 603.97 -1.484 603.802 -1.68 Q 603.634 -1.876 603.459 -2.1 Q 603.284 -2.324 603.284 -2.59 Q 603.284 -2.814 603.438 -2.975 Q 603.592 -3.136 603.9 -3.136 Q 604.292 -3.136 604.537 -2.828 Q 604.782 -2.52 604.782 -2.072 Q 604.782 -1.666 604.642 -1.19 Q 604.502 -0.714 604.166 -0.14 Q 603.606 0.854 603.018 1.75 Q 602.43 2.646 601.884 3.402 Q 601.24 4.284 600.715 5.033 Q 600.19 5.782 599.7 6.237 Q 599.21 6.692 598.678 6.692 Q 598.244 6.692 597.922 6.433 Q 597.6 6.174 597.6 5.782 Q 597.6 5.46 597.754 5.32 Q 597.908 5.18 598.146 5.18 Q 598.412 5.18 598.573 5.362 Q 598.734 5.544 598.86 5.733 Q 598.986 5.922 599.14 5.922 Q 599.238 5.922 599.469 5.67 Q 599.7 5.418 599.98 5.054 Q 600.26 4.69 600.519 4.326 Q 600.778 3.962 600.918 3.738 L 600.092 -1.19 Q 600.05 -1.512 599.973 -1.813 Q 599.896 -2.114 599.7 -2.31 Q 599.504 -2.506 599.07 -2.506 Q 598.93 -2.506 598.755 -2.492 Q 598.58 -2.478 598.58 -2.478 L 598.58 -2.884 L 600.568 -3.038 L 600.778 -3.038 Q 600.932 -2.772 601.03 -2.506 Q 601.128 -2.24 601.198 -1.869 Q 601.268 -1.498 601.352 -0.938 Z " fill="black" /><path d="M 609.164 6.356 L 609.164 6.356 L 606.238 6.356 L 606.238 -6.692 L 609.164 -6.692 L 609.164 -6.244 L 607.344 -6.244 L 607.344 5.908 L 609.164 5.908 Z " fill="black" /><path d="M 617.158 2.044 L 617.158 2.044 L 617.452 2.254 Q 617.27 2.506 617.011 2.863 Q 616.752 3.22 616.388 3.486 Q 616.024 3.752 615.52 3.752 Q 615.002 3.752 614.806 3.493 Q 614.61 3.234 614.61 2.926 Q 614.61 2.758 614.638 2.597 Q 614.666 2.436 614.68 2.38 L 615.506 -0.854 Q 615.506 -0.854 615.555 -1.085 Q 615.604 -1.316 615.604 -1.526 Q 615.604 -1.764 615.513 -1.925 Q 615.422 -2.086 615.184 -2.086 Q 614.876 -2.086 614.526 -1.82 Q 614.176 -1.554 613.819 -1.134 Q 613.462 -0.714 613.133 -0.238 Q 612.804 0.238 612.559 0.672 Q 612.314 1.106 612.174 1.4 L 611.67 3.612 L 610.522 3.612 L 611.656 -1.708 Q 611.656 -1.708 611.677 -1.862 Q 611.698 -2.016 611.698 -2.17 Q 611.698 -2.548 611.25 -2.548 Q 611.11 -2.548 610.949 -2.534 Q 610.788 -2.52 610.788 -2.52 L 610.788 -2.898 L 612.734 -3.052 L 613.042 -3.052 L 612.342 -0.014 L 612.454 -0.014 Q 612.678 -0.406 613.007 -0.931 Q 613.336 -1.456 613.77 -1.946 Q 614.204 -2.436 614.736 -2.765 Q 615.268 -3.094 615.884 -3.094 Q 616.416 -3.094 616.612 -2.786 Q 616.808 -2.478 616.808 -2.1 Q 616.808 -1.834 616.759 -1.526 Q 616.71 -1.218 616.682 -1.064 L 615.884 2.17 Q 615.884 2.17 615.87 2.275 Q 615.856 2.38 615.856 2.506 Q 615.856 2.772 616.122 2.772 Q 616.486 2.772 616.745 2.506 Q 617.004 2.24 617.158 2.044 Z " fill="black" /><path d="M 621.4 6.356 L 621.4 6.356 L 618.474 6.356 L 618.474 5.908 L 620.294 5.908 L 620.294 -6.244 L 618.474 -6.244 L 618.474 -6.692 L 621.4 -6.692 Z " fill="black" /></g></g></g><g><g><g><path d="M 271.829 49.642 L 271.829 49.642 L 271.745 50.062 Q 271.367 50.062 271.164 50.132 Q 270.961 50.202 270.807 50.342 Q 270.681 50.454 270.555 50.615 Q 270.429 50.776 270.317 51.084 Q 270.205 51.392 270.093 51.938 L 268.665 58.952 L 268.203 58.952 L 264.087 51.434 L 264.017 51.434 L 262.925 56.754 Q 262.785 57.454 262.813 57.811 Q 262.841 58.168 263.1 58.294 Q 263.359 58.42 263.877 58.42 L 263.793 58.84 L 260.573 58.84 L 260.657 58.42 Q 261.203 58.42 261.497 58.301 Q 261.791 58.182 261.945 57.818 Q 262.099 57.454 262.239 56.754 L 263.485 50.706 Q 263.247 50.314 263.009 50.188 Q 262.771 50.062 262.323 50.062 L 262.407 49.642 L 264.605 49.642 L 268.385 56.53 L 268.455 56.53 L 269.421 51.868 Q 269.547 51.238 269.554 50.916 Q 269.561 50.594 269.463 50.412 Q 269.337 50.202 269.113 50.132 Q 268.889 50.062 268.441 50.062 L 268.525 49.642 Z " fill="black" /><path d="M 285.188 55.69 L 285.188 55.69 L 281.52 55.69 L 281.52 59.4 L 280.512 59.4 L 280.512 55.69 L 276.844 55.69 L 276.844 54.738 L 280.512 54.738 L 280.512 51.028 L 281.52 51.028 L 281.52 54.738 L 285.188 54.738 Z " fill="black" /><path d="M 296.167 58.84 L 296.167 58.84 L 291.323 58.84 L 291.323 58.448 Q 292.317 58.448 292.723 58.238 Q 293.129 58.028 293.129 57.51 L 293.129 51.588 Q 293.129 51.224 293.031 51.063 Q 292.933 50.902 292.667 50.902 Q 292.457 50.902 292.009 50.958 Q 291.561 51.014 291.239 51.126 L 291.239 50.664 L 293.955 49.894 L 294.361 49.894 L 294.361 57.51 Q 294.361 58.028 294.781 58.238 Q 295.201 58.448 296.167 58.448 Z " fill="black" /></g></g></g><g><g><g><rect x="81" y="58.912" width="7.56" height="0.952" fill="black" /></g></g></g><g><g><g><path d="M 462.771 -67.288 L 462.771 -67.288 L 461.133 -59.154 Q 461.133 -59.154 461.112 -59.028 Q 461.091 -58.902 461.091 -58.72 Q 461.091 -58.356 461.287 -58.174 Q 461.483 -57.992 462.099 -57.992 L 462.029 -57.6 L 459.565 -57.6 L 460.559 -61.87 L 460.461 -61.87 Q 460.083 -61.366 459.684 -61.086 Q 459.285 -60.806 458.928 -60.687 Q 458.571 -60.568 458.326 -60.54 Q 458.081 -60.512 458.039 -60.512 Q 457.479 -60.512 457.122 -60.841 Q 456.765 -61.17 456.583 -61.73 Q 456.401 -62.29 456.401 -62.976 Q 456.401 -63.928 456.702 -64.733 Q 457.003 -65.538 457.521 -66.133 Q 458.039 -66.728 458.683 -67.057 Q 459.327 -67.386 460.013 -67.386 Q 460.587 -67.386 460.951 -67.19 Q 461.315 -66.994 461.497 -66.756 L 461.553 -66.756 L 462.099 -67.288 Z M 461.161 -65.496 L 461.161 -65.496 Q 461.161 -66.154 460.804 -66.504 Q 460.447 -66.854 459.915 -66.854 Q 459.243 -66.854 458.732 -66.315 Q 458.221 -65.776 457.934 -64.901 Q 457.647 -64.026 457.647 -63.018 Q 457.647 -62.206 457.885 -61.821 Q 458.123 -61.436 458.753 -61.436 Q 459.495 -61.436 459.964 -61.905 Q 460.433 -62.374 460.699 -63.102 Q 460.853 -63.494 460.951 -63.956 Q 461.049 -64.418 461.105 -64.838 Q 461.161 -65.258 461.161 -65.496 Z " fill="red" /><path d="M 467.251 -57.936 L 467.251 -57.936 L 464.325 -57.936 L 464.325 -70.984 L 467.251 -70.984 L 467.251 -70.536 L 465.431 -70.536 L 465.431 -58.384 L 467.251 -58.384 Z " fill="red" /><path d="M 475.245 -62.248 L 475.245 -62.248 L 475.539 -62.038 Q 475.357 -61.786 475.098 -61.429 Q 474.839 -61.072 474.475 -60.806 Q 474.111 -60.54 473.607 -60.54 Q 473.089 -60.54 472.893 -60.799 Q 472.697 -61.058 472.697 -61.366 Q 472.697 -61.534 472.725 -61.695 Q 472.753 -61.856 472.767 -61.912 L 473.593 -65.146 Q 473.593 -65.146 473.642 -65.377 Q 473.691 -65.608 473.691 -65.818 Q 473.691 -66.056 473.6 -66.217 Q 473.509 -66.378 473.271 -66.378 Q 472.963 -66.378 472.613 -66.112 Q 472.263 -65.846 471.906 -65.426 Q 471.549 -65.006 471.22 -64.53 Q 470.891 -64.054 470.646 -63.62 Q 470.401 -63.186 470.261 -62.892 L 469.757 -60.68 L 468.609 -60.68 L 469.743 -66 Q 469.743 -66 469.764 -66.154 Q 469.785 -66.308 469.785 -66.462 Q 469.785 -66.84 469.337 -66.84 Q 469.197 -66.84 469.036 -66.826 Q 468.875 -66.812 468.875 -66.812 L 468.875 -67.19 L 470.821 -67.344 L 471.129 -67.344 L 470.429 -64.306 L 470.541 -64.306 Q 470.765 -64.698 471.094 -65.223 Q 471.423 -65.748 471.857 -66.238 Q 472.291 -66.728 472.823 -67.057 Q 473.355 -67.386 473.971 -67.386 Q 474.503 -67.386 474.699 -67.078 Q 474.895 -66.77 474.895 -66.392 Q 474.895 -66.126 474.846 -65.818 Q 474.797 -65.51 474.769 -65.356 L 473.971 -62.122 Q 473.971 -62.122 473.957 -62.017 Q 473.943 -61.912 473.943 -61.786 Q 473.943 -61.52 474.209 -61.52 Q 474.573 -61.52 474.832 -61.786 Q 475.091 -62.052 475.245 -62.248 Z " fill="red" /><path d="M 479.487 -57.936 L 479.487 -57.936 L 476.561 -57.936 L 476.561 -58.384 L 478.381 -58.384 L 478.381 -70.536 L 476.561 -70.536 L 476.561 -70.984 L 479.487 -70.984 Z " fill="red" /></g></g></g></svg>