<svg xmlns="http://www.w3.org/2000/svg" xmlns:xlink="http://www.w3.org/1999/xlink" xml:lang="en" height="212.37799999999996pt" width="339.18059999999997pt" viewBox="-24.096399999999996 -154.73799999999997 339.18059999999997 212.37799999999996"><path d="M 0.0,-0.0 L 18.0,-0.0 L 36.0,-0.0" style="stroke:black;fill:none;stroke-width:2.0;stroke-dasharray:-;stroke-linecap:round;stroke-linejoin:round;" /><path d="M 36.0,-0.0 L 36.0,-18.0 L 72.0,-18.0 L 72.0,18.0 L 36.0,18.0 L 36.0,-0.0" style="stroke:black;fill:none;stroke-width:2.0;stroke-dasharray:-;stroke-linecap:round;stroke-linejoin:round;" /><path d="M 72.0,-0.0 L 108.0,-0.0 L 144.0,-0.0" style="stroke:black;fill:none;stroke-width:2.0;stroke-dasharray:-;stroke-linecap:round;stroke-linejoin:round;" /><path d="M 176.99999999999997,29.999999999999996 L 176.99999999999997,15.000000000000004 L 162.0,15.000000000000004 L 162.0,-14.999999999999998 L 176.99999999999997,-14.999999999999998 L 176.99999999999997,-29.999999999999996" style="stroke:black;fill:none;stroke-width:2.0;stroke-dasharray:-;stroke-linecap:round;stroke-linejoin:round;" /><path d="M 167.99999999999997,15.0 L 162.0,15.000000000000004" style="stroke:black;fill:none;stroke-width:2.0;stroke-dasharray:-;stroke-linecap:round;stroke-linejoin:round;" /><path d="M 174.99999999999997 15.000000000000004 L 167.99999999999997 19.500000000000004 L 167.99999999999997 10.500000000000004 Z" style="stroke:black;fill:black;stroke-linecap:butt;stroke-linejoin:miter;" /><path d="M 159.0,12.000000000000005 L 159.0,-12.0" style="stroke:black;fill:none;stroke-width:2.0;stroke-dasharray:-;stroke-linecap:round;stroke-linejoin:round;" /><path d="M 144.0,-0.0 L 159.0,-0.0" style="stroke:black;fill:none;stroke-width:2.0;stroke-dasharray:-;stroke-linecap:round;stroke-linejoin:round;" /><path d="M 176.99999999999997,29.999999999999996 L 176.99999999999997,44.400000000000006 L 167.99999999999997,44.400000000000006 L 185.99999999999997,44.400000000000006 M 170.7,48.72 L 183.29999999999998,48.72 M 175.2,53.03999999999999 L 178.79999999999998,53.03999999999999" style="stroke:black;fill:none;stroke-width:2.0;stroke-dasharray:-;stroke-linecap:round;stroke-linejoin:round;" /><path d="M 176.99999999999997,-29.999999999999996 L 176.99999999999997,-39.0 L 176.99999999999997,-48.0" style="stroke:black;fill:none;stroke-width:2.0;stroke-dasharray:-;stroke-linecap:round;stroke-linejoin:round;" /><path d="M 176.99999999999997,-48.0 L 194.99999999999997,-48.0 L 212.99999999999997,-48.0" style="stroke:black;fill:none;stroke-width:2.0;stroke-dasharray:-;stroke-linecap:round;stroke-linejoin:round;" /><path d="M 212.99999999999997,-48.0 L 212.99999999999997,-66.0 L 248.99999999999997,-66.0 L 248.99999999999997,-29.999999999999996 L 212.99999999999997,-29.999999999999996 L 212.99999999999997,-48.0" style="stroke:black;fill:none;stroke-width:2.0;stroke-dasharray:-;stroke-linecap:round;stroke-linejoin:round;" /><path d="M 248.99999999999997,-48.0 L 267.0,-48.0 L 285.0,-48.0" style="stroke:black;fill:none;stroke-width:2.0;stroke-dasharray:-;stroke-linecap:round;stroke-linejoin:round;" /><path d="M 176.99999999999997,-48.0 L 176.99999999999997,-66.0 L 175.53708821011784,-66.03316618981962 L 174.0358134389613,-66.13406964594296 L 172.52781984193305,-66.30374057288421 L 171.0448931951264,-66.54175968131739 L 169.61829090868633,-66.84626702593654 L 168.27808317716827,-67.21400120973702 L 167.0525191542534,-67.64036812836228 L 165.96743151170972,-68.11953780551008 L 165.0456919334195,-68.64456727828272 L 164.30672902167228,-69.20754694228067 L 163.76611877738767,-69.7997672717497 L 163.43525628620296,-70.41190240062267 L 163.3211155306889,-71.03420669489968 L 163.42610239141752,-71.65672017297669 L 163.7480039353536,-72.26947844403375 L 164.28003506047824,-72.86272273936139 L 165.0109815134609,-73.42710560954515 L 165.92543626582577,-73.95388795178374 L 167.00412426623078,-74.43512321436131 L 168.22430872366908,-74.86382489557732 L 169.56027035787764,-75.23411380655921 L 170.98384951522274,-75.54134199392458 L 172.4650397232394,-75.78219071022743 L 173.97262017277006,-75.95474036714852 L 175.474813796123,-76.05851099694338 L 176.93995707015398,-76.09447236929375 L 178.33716742603468,-76.06502355031773 L 179.63699419791686,-75.97394233459733 L 180.81203938967332,-75.82630561610526 L 181.83753517507571,-75.62838237646729 L 182.69186595875027,-75.38750154617425 L 183.35702399381205,-75.11189752399002 L 183.81898895258132,-74.81053661072691 L 184.0680234497195,-74.49292801585037 L 184.09887828869083,-74.16892342055168 L 183.91090310532599,-73.84850932213665 L 183.50806007632215,-73.5415965367342 L 182.89884040372806,-73.25781129722758 L 182.0960853357712,-73.00629234968515 L 181.1167154965829,-72.79549832513119 L 179.98137423006222,-72.63302944691101 L 178.7139924755436,-72.52546733173654 L 177.34128434690206,-72.47823626111638 L 175.89218404737602,-72.49548884731769 L 174.39723598892328,-72.58001850381432 L 172.88795097129193,-72.73320056518583 L 171.39614199138455,-72.95496329755349 L 169.95325368285398,-73.24378941060051 L 168.58969952012944,-73.59674803930636 L 167.33422075741322,-74.00955652127739 L 166.2132806150533,-74.47667066752007 L 165.25050648274777,-74.99140162391198 L 164.46619189692683,-75.54605686014222 L 163.8768687897293,-76.13210231432966 L 163.49495902578957,-76.74034227560374 L 163.32851257181073,-77.36111321304872 L 163.3810378178338,-77.98448746544776 L 163.65142762672457,-78.60048249841584 L 164.13398267062104,-79.19927131815982 L 164.81853156245083,-79.77138960672417 L 165.69064525036418,-80.30793521268647 L 166.73194115603542,-80.80075579239966 L 167.9204706461482,-81.24262064664323 L 169.23118166986657,-81.62737313067788 L 170.6364468107313,-81.95006042517515 L 172.10664562260288,-82.20703793268626 L 173.61078897506408,-82.39604609916061 L 175.1171722482094,-82.51625804125639 L 176.5940436086589,-82.56829697554502 L 178.01027328074605,-82.55422308223356 L 179.33600970585522,-82.47749008029417 L 180.5433087592565,-82.34287242931822 L 181.606722761686,-82.15636469254815 L 182.5038368703736,-81.92505518233231 L 183.21574154336557,-81.65697655132803 L 183.72743111844952,-81.36093647871982 L 184.02812010535877,-81.04633202028096 L 184.11147052438938,-80.7229515354431 L 183.97572549954282,-80.40076836639287 L 183.6237462902926,-80.08973061806684 L 183.0629519814126,-79.79955147010193 L 182.30516310209575,-79.53950444058616 L 181.36635247058973,-79.31822791707896 L 180.26630851609343,-79.14354307503402 L 179.02821817447932,-79.02228902157412 L 177.67817814964548,-78.96017863948938 L 176.24464484222324,-78.96167817000642 L 174.75783454014766,-79.0299130725054 L 173.24908651398871,-79.16660214549252 L 171.75020244184057,-79.37202129743768 L 170.2927760874971,-79.64499773112342 L 168.9075273610846,-79.98293466408781 L 167.62365479894834,-80.38186606409948 L 166.46822011134554,-80.83654024594006 L 165.46557777056506,-81.34053056742479 L 164.63686166272456,-81.88637089138992 L 163.99953962369597,-82.46571295835298 L 163.56704524873578,-83.06950235271539 L 163.34849473660722,-83.68816935345792 L 163.34849473660722,-84.31183064654203 L 163.56704524873578,-84.93049764728457 L 163.99953962369594,-85.53428704164696 L 164.63686166272453,-86.11362910861004 L 165.46557777056503,-86.65946943257518 L 166.4682201113455,-87.16345975405991 L 167.62365479894828,-87.61813393590049 L 168.90752736108453,-88.01706533591218 L 170.29277608749703,-88.35500226887656 L 171.75020244184046,-88.6279787025623 L 173.24908651398866,-88.83339785450747 L 174.75783454014763,-88.97008692749458 L 176.24464484222318,-89.03832182999359 L 177.67817814964542,-89.0398213605106 L 179.0282181744792,-88.97771097842589 L 180.2663085160934,-88.85645692496598 L 181.3663524705897,-88.68177208292104 L 182.3051631020957,-88.46049555941387 L 183.06295198141257,-88.20044852989807 L 183.62374629029256,-87.91026938193318 L 183.97572549954276,-87.59923163360716 L 184.11147052438938,-87.27704846455693 L 184.02812010535877,-86.95366797971903 L 183.72743111844952,-86.6390635212802 L 183.2157415433656,-86.34302344867197 L 182.50383687037362,-86.0749448176677 L 181.60672276168603,-85.84363530745185 L 180.54330875925655,-85.65712757068175 L 179.3360097058553,-85.52250991970584 L 178.01027328074608,-85.44577691776644 L 176.59404360865895,-85.43170302445495 L 175.11717224820953,-85.4837419587436 L 173.61078897506422,-85.60395390083937 L 172.10664562260294,-85.79296206731372 L 170.63644681073134,-86.04993957482482 L 169.23118166986666,-86.3726268693221 L 167.9204706461483,-86.75737935335673 L 166.73194115603548,-87.19924420760032 L 165.6906452503642,-87.6920647873135 L 164.81853156245086,-88.2286103932758 L 164.1339826706211,-88.80072868184016 L 163.65142762672457,-89.39951750158413 L 163.3810378178338,-90.01551253455222 L 163.32851257181073,-90.63888678695122 L 163.49495902578957,-91.25965772439625 L 163.87686878972926,-91.86789768567031 L 164.4661918969268,-92.45394313985773 L 165.2505064827477,-93.00859837608799 L 166.21328061505326,-93.5233293324799 L 167.33422075741314,-93.9904434787226 L 168.5896995201294,-94.40325196069361 L 169.9532536828539,-94.75621058939946 L 171.39614199138452,-95.04503670244651 L 172.88795097129187,-95.26679943481415 L 174.3972359889232,-95.41998149618567 L 175.89218404737593,-95.50451115268228 L 177.341284346902,-95.5217637388836 L 178.7139924755435,-95.47453266826346 L 179.98137423006216,-95.36697055308898 L 181.11671549658286,-95.20450167486881 L 182.09608533577116,-94.99370765031485 L 182.89884040372803,-94.74218870277244 L 183.50806007632212,-94.4584034632658 L 183.91090310532599,-94.15149067786336 L 184.09887828869083,-93.83107657944834 L 184.06802344971953,-93.50707198414965 L 183.81898895258135,-93.18946338927312 L 183.35702399381205,-92.88810247600998 L 182.6918659587503,-92.61249845382575 L 181.83753517507577,-92.37161762353271 L 180.81203938967337,-92.17369438389476 L 179.63699419791692,-92.02605766540266 L 178.3371674260348,-91.93497644968227 L 176.93995707015412,-91.90552763070622 L 175.47481379612304,-91.94148900305662 L 173.97262017277012,-92.04525963285145 L 172.4650397232395,-92.21780928977256 L 170.98384951522283,-92.45865800607541 L 169.56027035787773,-92.76588619344078 L 168.22430872366914,-93.13617510442266 L 167.00412426623086,-93.56487678563866 L 165.92543626582577,-94.04611204821624 L 165.01098151346093,-94.5728943904548 L 164.28003506047827,-95.13727726063857 L 163.74800393535364,-95.73052155596619 L 163.42610239141754,-96.34327982702328 L 163.3211155306889,-96.96579330510028 L 163.43525628620293,-97.58809759937729 L 163.76611877738765,-98.20023272825024 L 164.30672902167225,-98.7924530577193 L 165.04569193341948,-99.35543272171725 L 165.96743151170966,-99.8804621944899 L 167.05251915425336,-100.3596318716377 L 168.27808317716824,-100.78599879026295 L 169.61829090868625,-101.15373297406344 L 171.04489319512632,-101.45824031868261 L 172.52781984193302,-101.69625942711576 L 174.0358134389612,-101.86593035405704 L 175.53708821011773,-101.96683381018038 L 176.9999999999999,-101.99999999999999 L 176.9999999999999,-119.99999999999999" style="stroke:black;fill:none;stroke-width:2.0;stroke-dasharray:-;stroke-linecap:round;stroke-linejoin:round;" /><path d="M 176.9999999999999,-119.99999999999999 L 176.9999999999999,-134.39999999999998" style="stroke:black;fill:none;stroke-width:2.0;stroke-dasharray:-;stroke-linecap:round;stroke-linejoin:round;" /><path d="M 176.9999999999999,-134.39999999999998 L 170.2499999999999,-134.39999999999998" style="stroke:black;fill:none;stroke-width:2.0;stroke-dasharray:-;stroke-linecap:round;stroke-linejoin:round;" /><path d="M 176.9999999999999,-134.39999999999998 L 183.7499999999999,-134.39999999999998" style="stroke:black;fill:none;stroke-width:2.0;stroke-dasharray:-;stroke-linecap:round;stroke-linejoin:round;" /><path d="M 176.99999999999997,-48.0 L 144.23999999999998,-48.00000000000001 M 144.23999999999998,-39.00000000000001 L 144.23999999999998,-57.00000000000001 M 137.76,-39.00000000000001 L 137.76,-57.00000000000001 M 137.76,-48.00000000000001 L 104.99999999999997,-48.00000000000001" style="stroke:blue;fill:none;stroke-width:2.0;stroke-dasharray:-;stroke-linecap:round;stroke-linejoin:round;" /><path d="M 104.99999999999997,-48.00000000000001 L 104.99999999999997,-24.000000000000004 L 104.99999999999996,-0.0" style="stroke:blue;fill:none;stroke-width:2.0;stroke-dasharray:-;stroke-linecap:round;stroke-linejoin:round;" /><circle cx="0.0" cy="-0.0" r="2.6999999999999997" style="stroke:black;fill:white;stroke-width:2.0;stroke-dasharray:-;" /><g><g><g><path d="M -16.104 -4.823 L -16.104 -4.823 L -16.426 -2.639 L -16.762 -2.639 Q -16.79 -3.451 -17.133 -3.927 Q -17.476 -4.403 -18.092 -4.403 Q -18.638 -4.403 -18.876 -4.109 Q -19.114 -3.815 -19.114 -3.507 Q -19.114 -3.213 -18.911 -2.94 Q -18.708 -2.667 -18.4 -2.38 Q -18.092 -2.093 -17.784 -1.757 Q -17.336 -1.281 -17.007 -0.826 Q -16.678 -0.371 -16.678 0.301 Q -16.678 0.707 -16.881 1.106 Q -17.084 1.505 -17.546 1.771 Q -18.008 2.037 -18.806 2.037 Q -19.464 2.037 -19.863 1.876 Q -20.262 1.715 -20.416 1.659 L -20.458 1.659 L -20.794 2.037 L -21.102 2.037 L -20.738 -0.301 L -20.388 -0.301 Q -20.276 0.609 -19.961 1.085 Q -19.646 1.561 -18.932 1.561 Q -18.442 1.561 -18.141 1.323 Q -17.84 1.085 -17.84 0.539 Q -17.84 -0.035 -18.155 -0.434 Q -18.47 -0.833 -18.876 -1.211 Q -19.156 -1.491 -19.443 -1.757 Q -19.73 -2.023 -19.919 -2.352 Q -20.108 -2.681 -20.108 -3.115 Q -20.108 -3.829 -19.632 -4.326 Q -19.156 -4.823 -18.204 -4.823 Q -17.644 -4.823 -17.273 -4.669 Q -16.902 -4.515 -16.776 -4.445 L -16.734 -4.445 L -16.37 -4.823 Z " fill="black" /><path d="M -13.003 4.46 L -13.003 4.46 L -13.003 4.823 L -15.492 4.823 L -15.492 4.46 Q -15.149 4.46 -14.997 4.387 Q -14.846 4.313 -14.806 4.152 Q -14.767 3.99 -14.767 3.725 L -14.767 0.766 Q -14.767 0.433 -14.875 0.364 Q -14.983 0.295 -15.238 0.295 Q -15.365 0.295 -15.443 0.305 Q -15.522 0.315 -15.522 0.315 L -15.522 -0.077 L -14.209 -0.293 L -13.807 -0.293 L -13.807 3.725 Q -13.807 4.01 -13.763 4.171 Q -13.719 4.333 -13.547 4.397 Q -13.376 4.46 -13.003 4.46 Z M -14.297 -2.458 L -14.297 -2.458 Q -14.013 -2.458 -13.821 -2.262 Q -13.63 -2.066 -13.63 -1.812 Q -13.63 -1.576 -13.821 -1.38 Q -14.013 -1.184 -14.297 -1.184 Q -14.571 -1.184 -14.752 -1.38 Q -14.934 -1.576 -14.934 -1.812 Q -14.934 -2.066 -14.752 -2.262 Q -14.571 -2.458 -14.297 -2.458 Z " fill="black" /><path d="M -7.182 1.54 L -7.182 1.54 L -7.182 3.735 Q -7.182 4.01 -7.133 4.171 Q -7.084 4.333 -6.917 4.402 Q -6.751 4.47 -6.398 4.47 L -6.398 4.823 L -8.917 4.823 L -8.917 4.47 Q -8.544 4.47 -8.378 4.402 Q -8.211 4.333 -8.172 4.171 Q -8.133 4.01 -8.133 3.735 L -8.133 1.863 Q -8.133 1.207 -8.284 0.898 Q -8.436 0.589 -8.667 0.491 Q -8.897 0.393 -9.132 0.393 Q -9.554 0.393 -9.872 0.609 Q -10.191 0.825 -10.426 1.021 L -10.426 3.735 Q -10.426 4.01 -10.382 4.171 Q -10.338 4.333 -10.171 4.402 Q -10.004 4.47 -9.642 4.47 L -9.642 4.823 L -12.111 4.823 L -12.111 4.47 Q -11.768 4.47 -11.616 4.402 Q -11.465 4.333 -11.425 4.171 Q -11.386 4.01 -11.386 3.735 L -11.386 0.756 Q -11.386 0.482 -11.489 0.389 Q -11.592 0.295 -11.817 0.295 Q -11.935 0.295 -12.013 0.305 Q -12.092 0.315 -12.092 0.315 L -12.092 -0.057 L -10.779 -0.293 L -10.455 -0.293 L -10.455 0.511 L -10.387 0.511 Q -9.965 0.129 -9.578 -0.097 Q -9.191 -0.322 -8.701 -0.322 Q -8.123 -0.322 -7.794 -0.062 Q -7.466 0.197 -7.324 0.619 Q -7.182 1.04 -7.182 1.54 Z " fill="black" /></g></g></g><g><g><g><path d="M 40.602 -39.368 L 40.602 -39.368 L 40.602 -48.566 L 41.806 -48.566 L 41.806 -39.368 Z " fill="black" /><path d="M 44.2 -39.368 L 44.2 -39.368 L 44.2 -46.004 L 45.124 -46.004 L 45.222 -45.052 L 45.264 -45.052 Q 45.74 -45.514 46.258 -45.836 Q 46.776 -46.158 47.504 -46.158 Q 48.498 -46.158 48.995 -45.5 Q 49.492 -44.842 49.492 -43.568 L 49.492 -39.368 L 48.358 -39.368 L 48.358 -43.428 Q 48.358 -44.352 48.071 -44.765 Q 47.784 -45.178 47.14 -45.178 Q 46.622 -45.178 46.216 -44.926 Q 45.81 -44.674 45.32 -44.17 L 45.32 -39.368 Z " fill="black" /><path d="M 51.606 -36.288 L 51.606 -36.288 L 51.606 -46.004 L 52.53 -46.004 L 52.628 -45.234 L 52.67 -45.234 Q 53.118 -45.598 53.643 -45.878 Q 54.168 -46.158 54.84 -46.158 Q 55.624 -46.158 56.191 -45.745 Q 56.758 -45.332 57.066 -44.59 Q 57.374 -43.848 57.374 -42.854 Q 57.374 -41.692 56.975 -40.873 Q 56.576 -40.054 55.939 -39.627 Q 55.302 -39.2 54.56 -39.2 Q 54.098 -39.2 53.643 -39.389 Q 53.188 -39.578 52.698 -39.984 L 52.726 -38.808 L 52.726 -36.288 Z M 54.35 -40.152 L 54.35 -40.152 Q 55.148 -40.152 55.68 -40.845 Q 56.212 -41.538 56.212 -42.84 Q 56.212 -43.89 55.806 -44.555 Q 55.4 -45.22 54.532 -45.22 Q 54.098 -45.22 53.685 -45.017 Q 53.272 -44.814 52.726 -44.31 L 52.726 -40.838 Q 53.174 -40.46 53.587 -40.306 Q 54 -40.152 54.35 -40.152 Z " fill="black" /><path d="M 61.028 -39.2 L 61.028 -39.2 Q 60.02 -39.2 59.53 -39.872 Q 59.04 -40.544 59.04 -41.79 L 59.04 -46.004 L 60.16 -46.004 L 60.16 -41.944 Q 60.16 -41.034 60.454 -40.607 Q 60.748 -40.18 61.392 -40.18 Q 61.91 -40.18 62.302 -40.446 Q 62.694 -40.712 63.17 -41.3 L 63.17 -46.004 L 64.29 -46.004 L 64.29 -39.368 L 63.352 -39.368 L 63.268 -40.404 L 63.226 -40.404 Q 62.736 -39.83 62.225 -39.515 Q 61.714 -39.2 61.028 -39.2 Z " fill="black" /><path d="M 68.532 -39.2 L 68.532 -39.2 Q 67.552 -39.2 67.125 -39.816 Q 66.698 -40.432 66.698 -41.426 L 66.698 -45.01 L 65.732 -45.01 L 65.732 -45.85 L 66.754 -45.92 L 66.894 -47.866 L 67.818 -47.866 L 67.818 -45.92 L 69.596 -45.92 L 69.596 -45.01 L 67.818 -45.01 L 67.818 -41.398 Q 67.818 -40.81 68.042 -40.467 Q 68.266 -40.124 68.798 -40.124 Q 69.022 -40.124 69.225 -40.18 Q 69.428 -40.236 69.582 -40.306 L 69.806 -39.452 Q 69.526 -39.354 69.211 -39.277 Q 68.896 -39.2 68.532 -39.2 Z " fill="black" /></g><g><path d="M 37.557 -25.368 L 37.557 -25.368 L 37.557 -32.004 L 38.481 -32.004 L 38.579 -31.038 L 38.621 -31.038 Q 39.069 -31.514 39.559 -31.836 Q 40.049 -32.158 40.735 -32.158 Q 41.435 -32.158 41.869 -31.808 Q 42.303 -31.458 42.485 -30.898 Q 43.031 -31.472 43.535 -31.815 Q 44.039 -32.158 44.725 -32.158 Q 45.663 -32.158 46.167 -31.5 Q 46.671 -30.842 46.671 -29.568 L 46.671 -25.368 L 45.551 -25.368 L 45.551 -29.428 Q 45.551 -31.178 44.375 -31.178 Q 43.955 -31.178 43.563 -30.947 Q 43.171 -30.716 42.681 -30.17 L 42.681 -25.368 L 41.561 -25.368 L 41.561 -29.428 Q 41.561 -31.178 40.385 -31.178 Q 39.993 -31.178 39.594 -30.961 Q 39.195 -30.744 38.677 -30.17 L 38.677 -25.368 Z " fill="black" /><path d="M 50.311 -25.2 L 50.311 -25.2 Q 49.499 -25.2 48.946 -25.697 Q 48.393 -26.194 48.393 -27.09 Q 48.393 -28.182 49.359 -28.763 Q 50.325 -29.344 52.439 -29.568 Q 52.439 -30.002 52.327 -30.38 Q 52.215 -30.758 51.914 -30.996 Q 51.613 -31.234 51.067 -31.234 Q 50.521 -31.234 50.017 -31.01 Q 49.513 -30.786 49.121 -30.534 L 48.673 -31.304 Q 49.135 -31.612 49.807 -31.885 Q 50.479 -32.158 51.263 -32.158 Q 52.467 -32.158 53.013 -31.423 Q 53.559 -30.688 53.559 -29.442 L 53.559 -25.368 L 52.635 -25.368 L 52.537 -26.166 L 52.509 -26.166 Q 52.033 -25.774 51.487 -25.487 Q 50.941 -25.2 50.311 -25.2 Z M 50.647 -26.11 L 50.647 -26.11 Q 51.123 -26.11 51.543 -26.341 Q 51.963 -26.572 52.439 -26.978 L 52.439 -28.826 Q 50.815 -28.63 50.15 -28.224 Q 49.485 -27.818 49.485 -27.16 Q 49.485 -26.614 49.828 -26.362 Q 50.171 -26.11 50.647 -26.11 Z " fill="black" /><path d="M 57.661 -25.2 L 57.661 -25.2 Q 56.681 -25.2 56.254 -25.816 Q 55.827 -26.432 55.827 -27.426 L 55.827 -31.01 L 54.861 -31.01 L 54.861 -31.85 L 55.883 -31.92 L 56.023 -33.866 L 56.947 -33.866 L 56.947 -31.92 L 58.725 -31.92 L 58.725 -31.01 L 56.947 -31.01 L 56.947 -27.398 Q 56.947 -26.81 57.171 -26.467 Q 57.395 -26.124 57.927 -26.124 Q 58.151 -26.124 58.354 -26.18 Q 58.557 -26.236 58.711 -26.306 L 58.935 -25.452 Q 58.655 -25.354 58.34 -25.277 Q 58.025 -25.2 57.661 -25.2 Z " fill="black" /><path d="M 62.771 -25.2 L 62.771 -25.2 Q 61.917 -25.2 61.224 -25.62 Q 60.531 -26.04 60.125 -26.817 Q 59.719 -27.594 59.719 -28.658 Q 59.719 -29.778 60.16 -30.562 Q 60.601 -31.346 61.322 -31.752 Q 62.043 -32.158 62.883 -32.158 Q 63.583 -32.158 64.038 -31.92 Q 64.493 -31.682 64.829 -31.388 L 64.255 -30.646 Q 63.961 -30.912 63.646 -31.066 Q 63.331 -31.22 62.925 -31.22 Q 62.337 -31.22 61.875 -30.898 Q 61.413 -30.576 61.147 -30.009 Q 60.881 -29.442 60.881 -28.672 Q 60.881 -27.538 61.448 -26.838 Q 62.015 -26.138 62.897 -26.138 Q 63.387 -26.138 63.772 -26.334 Q 64.157 -26.53 64.465 -26.796 L 64.955 -26.04 Q 64.507 -25.648 63.961 -25.424 Q 63.415 -25.2 62.771 -25.2 Z " fill="black" /><path d="M 66.383 -25.368 L 66.383 -25.368 L 66.383 -35.084 L 67.503 -35.084 L 67.503 -32.438 L 67.475 -31.066 Q 67.937 -31.514 68.448 -31.836 Q 68.959 -32.158 69.687 -32.158 Q 70.681 -32.158 71.178 -31.5 Q 71.675 -30.842 71.675 -29.568 L 71.675 -25.368 L 70.541 -25.368 L 70.541 -29.428 Q 70.541 -30.352 70.254 -30.765 Q 69.967 -31.178 69.323 -31.178 Q 68.805 -31.178 68.399 -30.926 Q 67.993 -30.674 67.503 -30.17 L 67.503 -25.368 Z " fill="black" /></g></g></g><g><g><g><path d="M 191.926 3.129 L 191.926 3.129 L 188.188 3.129 L 188.272 2.709 Q 188.79 2.709 189.063 2.611 Q 189.336 2.513 189.476 2.24 Q 189.616 1.967 189.714 1.463 L 190.96 -4.585 L 190.904 -4.585 L 186.2 3.129 L 185.892 3.129 L 184.198 -4.571 L 184.142 -4.571 L 182.98 1.085 Q 182.84 1.799 182.861 2.149 Q 182.882 2.499 183.134 2.604 Q 183.386 2.709 183.918 2.709 L 183.834 3.129 L 180.6 3.129 L 180.684 2.709 Q 181.23 2.709 181.524 2.604 Q 181.818 2.499 181.986 2.149 Q 182.154 1.799 182.294 1.085 L 183.4 -4.361 Q 183.512 -4.893 183.47 -5.166 Q 183.428 -5.439 183.169 -5.544 Q 182.91 -5.649 182.35 -5.649 L 182.434 -6.069 L 185.234 -6.069 L 186.746 1.015 L 186.802 1.015 L 191.072 -6.069 L 193.718 -6.069 L 193.634 -5.649 Q 193.144 -5.649 192.857 -5.544 Q 192.57 -5.439 192.416 -5.166 Q 192.262 -4.893 192.15 -4.375 L 190.96 1.463 Q 190.806 2.233 191.037 2.471 Q 191.268 2.709 192.01 2.709 Z " fill="black" /><path d="M 197.952 6.069 L 197.952 6.069 L 194.629 6.069 L 194.629 5.716 Q 195.335 5.716 195.565 5.574 Q 195.796 5.432 195.796 5.06 L 195.796 0.787 Q 195.796 0.522 195.717 0.405 Q 195.639 0.287 195.433 0.287 Q 195.276 0.287 195.007 0.331 Q 194.737 0.375 194.541 0.424 L 194.541 0.032 L 196.354 -0.468 L 196.776 -0.468 L 196.776 5.06 Q 196.776 5.432 197.025 5.574 Q 197.275 5.716 197.952 5.716 Z " fill="black" /></g></g></g><circle cx="176.99999999999997" cy="-48.0" r="2.6999999999999997" style="stroke:black;fill:black;stroke-width:2.0;stroke-dasharray:-;" /><g><g><g><path d="M 215.663 -87.2 L 215.663 -87.2 Q 214.487 -87.2 213.584 -87.781 Q 212.681 -88.362 212.17 -89.44 Q 211.659 -90.518 211.659 -92.002 Q 211.659 -93.472 212.17 -94.529 Q 212.681 -95.586 213.584 -96.153 Q 214.487 -96.72 215.663 -96.72 Q 216.853 -96.72 217.756 -96.153 Q 218.659 -95.586 219.17 -94.529 Q 219.681 -93.472 219.681 -92.002 Q 219.681 -90.532 219.17 -89.454 Q 218.659 -88.376 217.756 -87.788 Q 216.853 -87.2 215.663 -87.2 Z M 215.663 -88.25 L 215.663 -88.25 Q 216.503 -88.25 217.126 -88.712 Q 217.749 -89.174 218.092 -90.021 Q 218.435 -90.868 218.435 -92.002 Q 218.435 -93.71 217.679 -94.697 Q 216.923 -95.684 215.663 -95.684 Q 214.403 -95.684 213.647 -94.697 Q 212.891 -93.71 212.891 -92.002 Q 212.891 -90.868 213.234 -90.021 Q 213.577 -89.174 214.2 -88.712 Q 214.823 -88.25 215.663 -88.25 Z " fill="black" /><path d="M 223.433 -87.2 L 223.433 -87.2 Q 222.425 -87.2 221.935 -87.872 Q 221.445 -88.544 221.445 -89.79 L 221.445 -94.004 L 222.565 -94.004 L 222.565 -89.944 Q 222.565 -89.034 222.859 -88.607 Q 223.153 -88.18 223.797 -88.18 Q 224.315 -88.18 224.707 -88.446 Q 225.099 -88.712 225.575 -89.3 L 225.575 -94.004 L 226.695 -94.004 L 226.695 -87.368 L 225.757 -87.368 L 225.673 -88.404 L 225.631 -88.404 Q 225.141 -87.83 224.63 -87.515 Q 224.119 -87.2 223.433 -87.2 Z " fill="black" /><path d="M 230.937 -87.2 L 230.937 -87.2 Q 229.957 -87.2 229.53 -87.816 Q 229.103 -88.432 229.103 -89.426 L 229.103 -93.01 L 228.137 -93.01 L 228.137 -93.85 L 229.159 -93.92 L 229.299 -95.866 L 230.223 -95.866 L 230.223 -93.92 L 232.001 -93.92 L 232.001 -93.01 L 230.223 -93.01 L 230.223 -89.398 Q 230.223 -88.81 230.447 -88.467 Q 230.671 -88.124 231.203 -88.124 Q 231.427 -88.124 231.63 -88.18 Q 231.833 -88.236 231.987 -88.306 L 232.211 -87.452 Q 231.931 -87.354 231.616 -87.277 Q 231.301 -87.2 230.937 -87.2 Z " fill="black" /><path d="M 233.485 -84.288 L 233.485 -84.288 L 233.485 -94.004 L 234.409 -94.004 L 234.507 -93.234 L 234.549 -93.234 Q 234.997 -93.598 235.522 -93.878 Q 236.047 -94.158 236.719 -94.158 Q 237.503 -94.158 238.07 -93.745 Q 238.637 -93.332 238.945 -92.59 Q 239.253 -91.848 239.253 -90.854 Q 239.253 -89.692 238.854 -88.873 Q 238.455 -88.054 237.818 -87.627 Q 237.181 -87.2 236.439 -87.2 Q 235.977 -87.2 235.522 -87.389 Q 235.067 -87.578 234.577 -87.984 L 234.605 -86.808 L 234.605 -84.288 Z M 236.229 -88.152 L 236.229 -88.152 Q 237.027 -88.152 237.559 -88.845 Q 238.091 -89.538 238.091 -90.84 Q 238.091 -91.89 237.685 -92.555 Q 237.279 -93.22 236.411 -93.22 Q 235.977 -93.22 235.564 -93.017 Q 235.151 -92.814 234.605 -92.31 L 234.605 -88.838 Q 235.053 -88.46 235.466 -88.306 Q 235.879 -88.152 236.229 -88.152 Z " fill="black" /><path d="M 242.907 -87.2 L 242.907 -87.2 Q 241.899 -87.2 241.409 -87.872 Q 240.919 -88.544 240.919 -89.79 L 240.919 -94.004 L 242.039 -94.004 L 242.039 -89.944 Q 242.039 -89.034 242.333 -88.607 Q 242.627 -88.18 243.271 -88.18 Q 243.789 -88.18 244.181 -88.446 Q 244.573 -88.712 245.049 -89.3 L 245.049 -94.004 L 246.169 -94.004 L 246.169 -87.368 L 245.231 -87.368 L 245.147 -88.404 L 245.105 -88.404 Q 244.615 -87.83 244.104 -87.515 Q 243.593 -87.2 242.907 -87.2 Z " fill="black" /><path d="M 250.411 -87.2 L 250.411 -87.2 Q 249.431 -87.2 249.004 -87.816 Q 248.577 -88.432 248.577 -89.426 L 248.577 -93.01 L 247.611 -93.01 L 247.611 -93.85 L 248.633 -93.92 L 248.773 -95.866 L 249.697 -95.866 L 249.697 -93.92 L 251.475 -93.92 L 251.475 -93.01 L 249.697 -93.01 L 249.697 -89.398 Q 249.697 -88.81 249.921 -88.467 Q 250.145 -88.124 250.677 -88.124 Q 250.901 -88.124 251.104 -88.18 Q 251.307 -88.236 251.461 -88.306 L 251.685 -87.452 Q 251.405 -87.354 251.09 -87.277 Q 250.775 -87.2 250.411 -87.2 Z " fill="black" /></g><g><path d="M 214.557 -73.368 L 214.557 -73.368 L 214.557 -80.004 L 215.481 -80.004 L 215.579 -79.038 L 215.621 -79.038 Q 216.069 -79.514 216.559 -79.836 Q 217.049 -80.158 217.735 -80.158 Q 218.435 -80.158 218.869 -79.808 Q 219.303 -79.458 219.485 -78.898 Q 220.031 -79.472 220.535 -79.815 Q 221.039 -80.158 221.725 -80.158 Q 222.663 -80.158 223.167 -79.5 Q 223.671 -78.842 223.671 -77.568 L 223.671 -73.368 L 222.551 -73.368 L 222.551 -77.428 Q 222.551 -79.178 221.375 -79.178 Q 220.955 -79.178 220.563 -78.947 Q 220.171 -78.716 219.681 -78.17 L 219.681 -73.368 L 218.561 -73.368 L 218.561 -77.428 Q 218.561 -79.178 217.385 -79.178 Q 216.993 -79.178 216.594 -78.961 Q 216.195 -78.744 215.677 -78.17 L 215.677 -73.368 Z " fill="black" /><path d="M 227.311 -73.2 L 227.311 -73.2 Q 226.499 -73.2 225.946 -73.697 Q 225.393 -74.194 225.393 -75.09 Q 225.393 -76.182 226.359 -76.763 Q 227.325 -77.344 229.439 -77.568 Q 229.439 -78.002 229.327 -78.38 Q 229.215 -78.758 228.914 -78.996 Q 228.613 -79.234 228.067 -79.234 Q 227.521 -79.234 227.017 -79.01 Q 226.513 -78.786 226.121 -78.534 L 225.673 -79.304 Q 226.135 -79.612 226.807 -79.885 Q 227.479 -80.158 228.263 -80.158 Q 229.467 -80.158 230.013 -79.423 Q 230.559 -78.688 230.559 -77.442 L 230.559 -73.368 L 229.635 -73.368 L 229.537 -74.166 L 229.509 -74.166 Q 229.033 -73.774 228.487 -73.487 Q 227.941 -73.2 227.311 -73.2 Z M 227.647 -74.11 L 227.647 -74.11 Q 228.123 -74.11 228.543 -74.341 Q 228.963 -74.572 229.439 -74.978 L 229.439 -76.826 Q 227.815 -76.63 227.15 -76.224 Q 226.485 -75.818 226.485 -75.16 Q 226.485 -74.614 226.828 -74.362 Q 227.171 -74.11 227.647 -74.11 Z " fill="black" /><path d="M 234.661 -73.2 L 234.661 -73.2 Q 233.681 -73.2 233.254 -73.816 Q 232.827 -74.432 232.827 -75.426 L 232.827 -79.01 L 231.861 -79.01 L 231.861 -79.85 L 232.883 -79.92 L 233.023 -81.866 L 233.947 -81.866 L 233.947 -79.92 L 235.725 -79.92 L 235.725 -79.01 L 233.947 -79.01 L 233.947 -75.398 Q 233.947 -74.81 234.171 -74.467 Q 234.395 -74.124 234.927 -74.124 Q 235.151 -74.124 235.354 -74.18 Q 235.557 -74.236 235.711 -74.306 L 235.935 -73.452 Q 235.655 -73.354 235.34 -73.277 Q 235.025 -73.2 234.661 -73.2 Z " fill="black" /><path d="M 239.771 -73.2 L 239.771 -73.2 Q 238.917 -73.2 238.224 -73.62 Q 237.531 -74.04 237.125 -74.817 Q 236.719 -75.594 236.719 -76.658 Q 236.719 -77.778 237.16 -78.562 Q 237.601 -79.346 238.322 -79.752 Q 239.043 -80.158 239.883 -80.158 Q 240.583 -80.158 241.038 -79.92 Q 241.493 -79.682 241.829 -79.388 L 241.255 -78.646 Q 240.961 -78.912 240.646 -79.066 Q 240.331 -79.22 239.925 -79.22 Q 239.337 -79.22 238.875 -78.898 Q 238.413 -78.576 238.147 -78.009 Q 237.881 -77.442 237.881 -76.672 Q 237.881 -75.538 238.448 -74.838 Q 239.015 -74.138 239.897 -74.138 Q 240.387 -74.138 240.772 -74.334 Q 241.157 -74.53 241.465 -74.796 L 241.955 -74.04 Q 241.507 -73.648 240.961 -73.424 Q 240.415 -73.2 239.771 -73.2 Z " fill="black" /><path d="M 243.383 -73.368 L 243.383 -73.368 L 243.383 -83.084 L 244.503 -83.084 L 244.503 -80.438 L 244.475 -79.066 Q 244.937 -79.514 245.448 -79.836 Q 245.959 -80.158 246.687 -80.158 Q 247.681 -80.158 248.178 -79.5 Q 248.675 -78.842 248.675 -77.568 L 248.675 -73.368 L 247.541 -73.368 L 247.541 -77.428 Q 247.541 -78.352 247.254 -78.765 Q 246.967 -79.178 246.323 -79.178 Q 245.805 -79.178 245.399 -78.926 Q 244.993 -78.674 244.503 -78.17 L 244.503 -73.368 Z " fill="black" /></g></g></g><circle cx="285.0" cy="-48.0" r="2.6999999999999997" style="stroke:black;fill:white;stroke-width:2.0;stroke-dasharray:-;" /><g><g><g><path d="M 296.592 -52.882 L 296.592 -52.882 L 296.27 -50.698 L 295.934 -50.698 Q 295.906 -51.51 295.563 -51.986 Q 295.22 -52.462 294.604 -52.462 Q 294.058 -52.462 293.82 -52.168 Q 293.582 -51.874 293.582 -51.566 Q 293.582 -51.272 293.785 -50.999 Q 293.988 -50.726 294.296 -50.439 Q 294.604 -50.152 294.912 -49.816 Q 295.36 -49.34 295.689 -48.885 Q 296.018 -48.43 296.018 -47.758 Q 296.018 -47.352 295.815 -46.953 Q 295.612 -46.554 295.15 -46.288 Q 294.688 -46.022 293.89 -46.022 Q 293.232 -46.022 292.833 -46.183 Q 292.434 -46.344 292.28 -46.4 L 292.238 -46.4 L 291.902 -46.022 L 291.594 -46.022 L 291.958 -48.36 L 292.308 -48.36 Q 292.42 -47.45 292.735 -46.974 Q 293.05 -46.498 293.764 -46.498 Q 294.254 -46.498 294.555 -46.736 Q 294.856 -46.974 294.856 -47.52 Q 294.856 -48.094 294.541 -48.493 Q 294.226 -48.892 293.82 -49.27 Q 293.54 -49.55 293.253 -49.816 Q 292.966 -50.082 292.777 -50.411 Q 292.588 -50.74 292.588 -51.174 Q 292.588 -51.888 293.064 -52.385 Q 293.54 -52.882 294.492 -52.882 Q 295.052 -52.882 295.423 -52.728 Q 295.794 -52.574 295.92 -52.504 L 295.962 -52.504 L 296.326 -52.882 Z " fill="black" /><path d="M 299.732 -48.381 L 299.732 -48.381 Q 300.467 -48.381 301.016 -48.062 Q 301.565 -47.744 301.864 -47.171 Q 302.163 -46.597 302.163 -45.823 Q 302.163 -44.892 301.849 -44.294 Q 301.535 -43.696 300.987 -43.407 Q 300.438 -43.118 299.732 -43.118 Q 299.017 -43.118 298.463 -43.417 Q 297.909 -43.716 297.601 -44.314 Q 297.292 -44.912 297.292 -45.813 Q 297.292 -46.578 297.596 -47.156 Q 297.9 -47.734 298.448 -48.057 Q 298.997 -48.381 299.732 -48.381 Z M 299.713 -47.93 L 299.713 -47.93 Q 299.066 -47.93 298.698 -47.406 Q 298.331 -46.881 298.331 -45.872 Q 298.331 -44.627 298.708 -44.113 Q 299.085 -43.598 299.762 -43.598 Q 300.193 -43.608 300.497 -43.814 Q 300.8 -44.02 300.962 -44.505 Q 301.124 -44.99 301.124 -45.823 Q 301.124 -46.823 300.781 -47.376 Q 300.438 -47.93 299.713 -47.93 Z " fill="black" /><path d="M 308.827 -43.736 L 308.827 -43.736 L 308.827 -43.363 L 307.504 -43.187 L 307.19 -43.187 L 307.19 -43.951 L 307.092 -43.951 Q 306.72 -43.618 306.337 -43.378 Q 305.955 -43.138 305.416 -43.138 Q 304.691 -43.138 304.309 -43.579 Q 303.927 -44.02 303.927 -45.108 L 303.927 -47.215 Q 303.927 -47.616 303.784 -47.71 Q 303.642 -47.803 303.192 -47.803 L 303.192 -48.155 L 304.554 -48.342 L 304.877 -48.342 L 304.877 -45.235 Q 304.877 -44.686 305.005 -44.382 Q 305.132 -44.079 305.348 -43.961 Q 305.563 -43.843 305.818 -43.843 Q 306.249 -43.843 306.538 -44.025 Q 306.827 -44.206 307.141 -44.461 L 307.141 -47.215 Q 307.141 -47.616 306.965 -47.71 Q 306.788 -47.803 306.288 -47.803 L 306.288 -48.155 L 307.749 -48.342 L 308.092 -48.342 L 308.092 -44.373 Q 308.092 -44.079 308.145 -43.941 Q 308.199 -43.804 308.337 -43.77 Q 308.474 -43.736 308.719 -43.736 Z " fill="black" /><path d="M 312.649 -44.216 L 312.649 -44.216 L 312.874 -44.03 Q 312.658 -43.736 312.482 -43.535 Q 312.306 -43.334 312.08 -43.226 Q 311.855 -43.118 311.502 -43.118 Q 310.934 -43.118 310.674 -43.442 Q 310.414 -43.765 310.414 -44.48 L 310.414 -47.773 L 309.797 -47.773 L 309.797 -48.067 Q 310.15 -48.322 310.444 -48.69 Q 310.738 -49.057 311.032 -49.743 L 311.375 -49.743 L 311.365 -48.253 L 312.609 -48.253 L 312.609 -47.773 L 311.365 -47.773 L 311.365 -44.804 Q 311.365 -44.255 311.468 -44.025 Q 311.571 -43.794 311.884 -43.794 Q 312.168 -43.794 312.315 -43.897 Q 312.462 -44 312.649 -44.216 Z " fill="black" /></g></g></g><g><g><g><path d="M 109.433 -79.142 L 109.433 -79.142 L 109.433 -88.34 L 112.387 -88.34 Q 113.339 -88.34 114.081 -88.088 Q 114.823 -87.836 115.243 -87.276 Q 115.663 -86.716 115.663 -85.764 Q 115.663 -84.658 115.089 -84.014 Q 114.515 -83.37 113.563 -83.146 L 115.943 -79.142 L 114.585 -79.142 L 112.331 -83.02 L 110.637 -83.02 L 110.637 -79.142 Z M 110.637 -83.986 L 110.637 -83.986 L 112.205 -83.986 Q 113.297 -83.986 113.885 -84.42 Q 114.473 -84.854 114.473 -85.75 Q 114.473 -86.646 113.885 -87.01 Q 113.297 -87.374 112.205 -87.374 L 110.637 -87.374 Z " fill="black" /><path d="M 117.595 -79.142 L 117.595 -79.142 L 117.595 -88.34 L 123.013 -88.34 L 123.013 -87.332 L 118.799 -87.332 L 118.799 -84.252 L 122.369 -84.252 L 122.369 -83.244 L 118.799 -83.244 L 118.799 -79.142 Z " fill="black" /><path d="M 130.349 -78.974 L 130.349 -78.974 Q 129.495 -78.974 128.802 -79.394 Q 128.109 -79.814 127.703 -80.591 Q 127.297 -81.368 127.297 -82.432 Q 127.297 -83.552 127.738 -84.336 Q 128.179 -85.12 128.9 -85.526 Q 129.621 -85.932 130.461 -85.932 Q 131.161 -85.932 131.616 -85.694 Q 132.071 -85.456 132.407 -85.162 L 131.833 -84.42 Q 131.539 -84.686 131.224 -84.84 Q 130.909 -84.994 130.503 -84.994 Q 129.915 -84.994 129.453 -84.672 Q 128.991 -84.35 128.725 -83.783 Q 128.459 -83.216 128.459 -82.446 Q 128.459 -81.312 129.026 -80.612 Q 129.593 -79.912 130.475 -79.912 Q 130.965 -79.912 131.35 -80.108 Q 131.735 -80.304 132.043 -80.57 L 132.533 -79.814 Q 132.085 -79.422 131.539 -79.198 Q 130.993 -78.974 130.349 -78.974 Z " fill="black" /><path d="M 133.961 -79.142 L 133.961 -79.142 L 133.961 -88.858 L 135.081 -88.858 L 135.081 -86.212 L 135.053 -84.84 Q 135.515 -85.288 136.026 -85.61 Q 136.537 -85.932 137.265 -85.932 Q 138.259 -85.932 138.756 -85.274 Q 139.253 -84.616 139.253 -83.342 L 139.253 -79.142 L 138.119 -79.142 L 138.119 -83.202 Q 138.119 -84.126 137.832 -84.539 Q 137.545 -84.952 136.901 -84.952 Q 136.383 -84.952 135.977 -84.7 Q 135.571 -84.448 135.081 -83.944 L 135.081 -79.142 Z " fill="black" /><path d="M 143.901 -78.974 L 143.901 -78.974 Q 143.103 -78.974 142.403 -79.387 Q 141.703 -79.8 141.276 -80.577 Q 140.849 -81.354 140.849 -82.46 Q 140.849 -83.566 141.276 -84.336 Q 141.703 -85.106 142.403 -85.519 Q 143.103 -85.932 143.901 -85.932 Q 144.713 -85.932 145.413 -85.519 Q 146.113 -85.106 146.54 -84.336 Q 146.967 -83.566 146.967 -82.46 Q 146.967 -81.354 146.54 -80.577 Q 146.113 -79.8 145.413 -79.387 Q 144.713 -78.974 143.901 -78.974 Z M 143.901 -79.912 L 143.901 -79.912 Q 144.755 -79.912 145.28 -80.612 Q 145.805 -81.312 145.805 -82.46 Q 145.805 -83.594 145.28 -84.294 Q 144.755 -84.994 143.901 -84.994 Q 143.061 -84.994 142.536 -84.294 Q 142.011 -83.594 142.011 -82.46 Q 142.011 -81.312 142.536 -80.612 Q 143.061 -79.912 143.901 -79.912 Z " fill="black" /><path d="M 148.689 -79.142 L 148.689 -79.142 L 148.689 -89.026 L 149.795 -89.026 L 149.795 -82.278 L 149.837 -82.278 L 152.637 -85.778 L 153.883 -85.778 L 151.671 -83.104 L 154.163 -79.142 L 152.945 -79.142 L 151.027 -82.32 L 149.795 -80.892 L 149.795 -79.142 Z " fill="black" /><path d="M 158.083 -78.974 L 158.083 -78.974 Q 157.201 -78.974 156.48 -79.387 Q 155.759 -79.8 155.332 -80.577 Q 154.905 -81.354 154.905 -82.432 Q 154.905 -83.524 155.325 -84.308 Q 155.745 -85.092 156.438 -85.512 Q 157.131 -85.932 157.943 -85.932 Q 159.119 -85.932 159.812 -85.092 Q 160.505 -84.252 160.505 -82.824 Q 160.505 -82.642 160.491 -82.481 Q 160.477 -82.32 160.449 -82.194 L 156.011 -82.194 Q 156.081 -81.13 156.669 -80.5 Q 157.257 -79.87 158.209 -79.87 Q 158.671 -79.87 159.077 -80.017 Q 159.483 -80.164 159.847 -80.402 L 160.239 -79.674 Q 159.805 -79.38 159.273 -79.177 Q 158.741 -78.974 158.083 -78.974 Z M 156.011 -82.992 L 156.011 -82.992 L 159.525 -82.992 Q 159.525 -83.986 159.098 -84.511 Q 158.671 -85.036 157.929 -85.036 Q 157.201 -85.036 156.662 -84.518 Q 156.123 -84 156.011 -82.992 Z " fill="black" /></g></g></g><g><g><g><path d="M 168.853 -142.69 L 168.853 -142.69 L 172.675 -148.43 Q 172.871 -148.71 172.99 -148.948 Q 173.109 -149.186 173.109 -149.354 Q 173.109 -149.564 172.927 -149.641 Q 172.745 -149.718 172.269 -149.718 L 172.297 -150.138 L 175.321 -150.138 L 175.293 -149.718 Q 174.915 -149.718 174.649 -149.606 Q 174.383 -149.494 174.11 -149.179 Q 173.837 -148.864 173.403 -148.22 L 168.265 -140.87 L 167.803 -140.87 L 167.019 -148.444 Q 166.935 -149.144 166.711 -149.431 Q 166.487 -149.718 165.927 -149.718 L 165.955 -150.138 L 169.385 -150.138 L 169.343 -149.718 Q 168.811 -149.718 168.503 -149.508 Q 168.195 -149.298 168.223 -148.822 Q 168.223 -148.752 168.244 -148.57 Q 168.265 -148.388 168.265 -148.318 L 168.685 -144.328 L 168.783 -142.69 Z " fill="black" /><path d="M 174.218 -144.889 L 174.218 -144.889 L 177.188 -144.889 Q 177.972 -144.889 178.687 -144.718 Q 179.402 -144.546 179.966 -144.154 Q 180.529 -143.762 180.858 -143.106 Q 181.186 -142.449 181.186 -141.469 Q 181.186 -140.548 180.887 -139.887 Q 180.588 -139.225 180.049 -138.809 Q 179.51 -138.392 178.795 -138.196 Q 178.079 -138 177.246 -138 L 174.218 -138 L 174.218 -138.372 Q 174.679 -138.372 174.894 -138.441 Q 175.11 -138.51 175.174 -138.72 Q 175.237 -138.931 175.237 -139.362 L 175.237 -143.615 Q 175.237 -144.017 175.144 -144.208 Q 175.051 -144.399 174.831 -144.458 Q 174.61 -144.517 174.218 -144.517 Z M 176.286 -144.399 L 176.286 -144.399 L 176.286 -138.47 Q 176.443 -138.461 176.595 -138.456 Q 176.747 -138.451 176.894 -138.451 Q 177.864 -138.451 178.545 -138.706 Q 179.226 -138.96 179.584 -139.597 Q 179.941 -140.234 179.941 -141.381 Q 179.941 -142.851 179.192 -143.63 Q 178.442 -144.409 176.815 -144.409 Q 176.678 -144.409 176.551 -144.409 Q 176.423 -144.409 176.286 -144.399 Z " fill="black" /><path d="M 182.372 -144.889 L 182.372 -144.889 L 185.341 -144.889 Q 186.125 -144.889 186.841 -144.718 Q 187.556 -144.546 188.119 -144.154 Q 188.683 -143.762 189.011 -143.106 Q 189.34 -142.449 189.34 -141.469 Q 189.34 -140.548 189.041 -139.887 Q 188.742 -139.225 188.203 -138.809 Q 187.664 -138.392 186.948 -138.196 Q 186.233 -138 185.4 -138 L 182.372 -138 L 182.372 -138.372 Q 182.832 -138.372 183.048 -138.441 Q 183.264 -138.51 183.327 -138.72 Q 183.391 -138.931 183.391 -139.362 L 183.391 -143.615 Q 183.391 -144.017 183.298 -144.208 Q 183.205 -144.399 182.984 -144.458 Q 182.764 -144.517 182.372 -144.517 Z M 184.44 -144.399 L 184.44 -144.399 L 184.44 -138.47 Q 184.596 -138.461 184.748 -138.456 Q 184.9 -138.451 185.047 -138.451 Q 186.017 -138.451 186.698 -138.706 Q 187.38 -138.96 187.737 -139.597 Q 188.095 -140.234 188.095 -141.381 Q 188.095 -142.851 187.345 -143.63 Q 186.596 -144.409 184.969 -144.409 Q 184.832 -144.409 184.704 -144.409 Q 184.577 -144.409 184.44 -144.399 Z " fill="black" /></g></g></g><g><g><g><path d="M 140.062 -28.05 L 140.062 -28.05 L 140.314 -27.784 Q 139.6 -26.944 138.662 -26.405 Q 137.724 -25.866 136.394 -25.866 Q 135.134 -25.866 134.378 -26.335 Q 133.622 -26.804 133.293 -27.588 Q 132.964 -28.372 132.964 -29.296 Q 132.964 -30.766 133.412 -31.907 Q 133.86 -33.048 134.637 -33.825 Q 135.414 -34.602 136.394 -35.001 Q 137.374 -35.4 138.438 -35.4 Q 139.152 -35.4 139.551 -35.274 Q 139.95 -35.148 140.174 -35.015 Q 140.398 -34.882 140.566 -34.882 Q 140.734 -34.882 140.86 -35.022 Q 140.986 -35.162 141.154 -35.386 L 141.56 -35.386 L 140.902 -32.18 L 140.44 -32.18 Q 140.496 -33.58 139.922 -34.189 Q 139.348 -34.798 138.312 -34.798 Q 137.5 -34.798 136.786 -34.427 Q 136.072 -34.056 135.519 -33.377 Q 134.966 -32.698 134.651 -31.753 Q 134.336 -30.808 134.336 -29.646 Q 134.336 -28.246 135.001 -27.511 Q 135.666 -26.776 137.052 -26.776 Q 138.662 -26.776 140.062 -28.05 Z " fill="blue" /><path d="M 143.307 -26.873 L 143.307 -26.873 L 143.307 -24.158 Q 143.307 -23.864 143.366 -23.707 Q 143.425 -23.55 143.591 -23.497 Q 143.758 -23.443 144.081 -23.443 L 144.081 -23.08 L 141.612 -23.08 L 141.612 -23.443 Q 141.925 -23.443 142.082 -23.497 Q 142.239 -23.55 142.288 -23.712 Q 142.337 -23.874 142.337 -24.178 L 142.337 -27.147 Q 142.337 -27.421 142.234 -27.515 Q 142.131 -27.608 141.906 -27.608 Q 141.798 -27.608 141.715 -27.598 Q 141.631 -27.588 141.631 -27.588 L 141.631 -27.96 L 142.915 -28.196 L 143.278 -28.196 L 143.278 -27.392 L 143.346 -27.392 Q 143.758 -27.764 144.17 -27.995 Q 144.581 -28.225 145.14 -28.225 Q 145.6 -28.225 145.889 -27.99 Q 146.179 -27.755 146.335 -27.412 L 146.384 -27.412 Q 147.276 -28.225 148.099 -28.225 Q 148.766 -28.225 149.153 -27.813 Q 149.54 -27.402 149.54 -26.51 L 149.54 -24.354 Q 149.54 -24.021 149.579 -23.82 Q 149.618 -23.619 149.775 -23.531 Q 149.932 -23.443 150.285 -23.443 L 150.285 -23.08 L 147.825 -23.08 L 147.825 -23.443 Q 148.188 -23.443 148.349 -23.536 Q 148.511 -23.629 148.55 -23.83 Q 148.589 -24.031 148.589 -24.354 L 148.589 -26.392 Q 148.589 -27.01 148.339 -27.255 Q 148.09 -27.5 147.698 -27.5 Q 147.364 -27.5 147.031 -27.299 Q 146.698 -27.098 146.443 -26.902 L 146.443 -24.354 Q 146.443 -23.991 146.487 -23.791 Q 146.531 -23.59 146.703 -23.516 Q 146.874 -23.443 147.237 -23.443 L 147.237 -23.08 L 144.679 -23.08 L 144.679 -23.443 Q 145.052 -23.443 145.223 -23.516 Q 145.395 -23.59 145.444 -23.791 Q 145.493 -23.991 145.493 -24.354 L 145.493 -26.422 Q 145.493 -27.039 145.272 -27.27 Q 145.052 -27.5 144.669 -27.5 Q 144.268 -27.5 143.9 -27.284 Q 143.533 -27.069 143.307 -26.873 Z " fill="blue" /></g></g></g><circle cx="104.99999999999996" cy="-0.0" r="2.6999999999999997" style="stroke:black;fill:black;stroke-width:2.0;stroke-dasharray:-;" /></svg>