<svg xmlns="http://www.w3.org/2000/svg" xmlns:xlink="http://www.w3.org/1999/xlink" xml:lang="en" height="241.59560000000002pt" width="344.79279999999994pt" viewBox="-54.4066 -91.5556 344.79279999999994 241.59560000000002"><polygon points="135,65.7 126,78.3 117,65.7 " style="stroke:black;fill:none;stroke-width:2.0;stroke-dasharray:-;stroke-linecap:round;stroke-linejoin:round;" /><path d="M 0.0,-0.0 L 18,-0 L 27,-0" style="stroke:black;fill:none;stroke-width:2.0;stroke-dasharray:-;stroke-linecap:round;stroke-linejoin:round;" /><path d="M 34 0 L 27 2.7 L 27 -2.7 Z" style="stroke:black;fill:black;stroke-linecap:butt;stroke-linejoin:miter;" /><path d="M 36.0,-0.0 L 36,-18 L 72,-18 L 72,18 L 36,18 L 36,-0" style="stroke:black;fill:none;stroke-width:2.0;stroke-dasharray:-;stroke-linecap:round;stroke-linejoin:round;" /><path d="M 43.199999999999996,-4.4087284769304716e-16 L 44.337,-1.169 L 45.474,-2.211 L 46.611,-3.014 L 47.747,-3.49 L 48.884,-3.588 L 50.021,-3.297 L 51.158,-2.649 L 52.295,-1.713 L 53.432,-0.593 L 54.568,0.593 L 55.705,1.713 L 56.842,2.649 L 57.979,3.297 L 59.116,3.588 L 60.253,3.49 L 61.389,3.014 L 62.526,2.211 L 63.663,1.169 L 64.8,0" style="stroke:black;fill:none;stroke-width:2.0;stroke-dasharray:-;stroke-linecap:round;stroke-linejoin:round;" /><path d="M 43.199999999999996,-9.0 L 44.337,-10.169 L 45.474,-11.211 L 46.611,-12.014 L 47.747,-12.49 L 48.884,-12.588 L 50.021,-12.297 L 51.158,-11.649 L 52.295,-10.713 L 53.432,-9.593 L 54.568,-8.407 L 55.705,-7.287 L 56.842,-6.351 L 57.979,-5.703 L 59.116,-5.412 L 60.253,-5.51 L 61.389,-5.986 L 62.526,-6.789 L 63.663,-7.831 L 64.8,-9" style="stroke:black;fill:none;stroke-width:2.0;stroke-dasharray:-;stroke-linecap:round;stroke-linejoin:round;" /><path d="M 43.199999999999996,9.0 L 44.337,7.831 L 45.474,6.789 L 46.611,5.986 L 47.747,5.51 L 48.884,5.412 L 50.021,5.703 L 51.158,6.351 L 52.295,7.287 L 53.432,8.407 L 54.568,9.593 L 55.705,10.713 L 56.842,11.649 L 57.979,12.297 L 59.116,12.588 L 60.253,12.49 L 61.389,12.014 L 62.526,11.211 L 63.663,10.169 L 64.8,9" style="stroke:black;fill:none;stroke-width:2.0;stroke-dasharray:-;stroke-linecap:round;stroke-linejoin:round;" /><path d="M 52.199999999999996,-6.12 L 55.8,-11.88" style="stroke:black;fill:none;stroke-width:2.0;stroke-dasharray:-;stroke-linecap:round;stroke-linejoin:round;" /><path d="M 52.199999999999996,11.88 L 55.8,6.12" style="stroke:black;fill:none;stroke-width:2.0;stroke-dasharray:-;stroke-linecap:round;stroke-linejoin:round;" /><path d="M 72.0,-0.0 L 81,-0 L 90,-0" style="stroke:black;fill:none;stroke-width:2.0;stroke-dasharray:-;stroke-linecap:round;stroke-linejoin:round;" /><path d="M 90.0,-0.0 L 90,18 L 90,36" style="stroke:black;fill:none;stroke-width:2.0;stroke-dasharray:-;stroke-linecap:round;stroke-linejoin:round;" /><path d="M 90.0,36.0 L 90,54 L 90,72" style="stroke:black;fill:none;stroke-width:2.0;stroke-dasharray:-;stroke-linecap:round;stroke-linejoin:round;" /><path d="M 90.0,72.0 L 81,72 L 72,72" style="stroke:black;fill:none;stroke-width:2.0;stroke-dasharray:-;stroke-linecap:round;stroke-linejoin:round;" /><path d="M 72.0,72.0 L 72,90 L 36,90 L 36,54 L 72,54 L 72,72" style="stroke:black;fill:none;stroke-width:2.0;stroke-dasharray:-;stroke-linecap:round;stroke-linejoin:round;" /><path d="M 64.8,72.0 L 63.663,73.169 L 62.526,74.211 L 61.389,75.014 L 60.253,75.49 L 59.116,75.588 L 57.979,75.297 L 56.842,74.649 L 55.705,73.713 L 54.568,72.593 L 53.432,71.407 L 52.295,70.287 L 51.158,69.351 L 50.021,68.703 L 48.884,68.412 L 47.747,68.51 L 46.611,68.986 L 45.474,69.789 L 44.337,70.831 L 43.2,72" style="stroke:black;fill:none;stroke-width:2.0;stroke-dasharray:-;stroke-linecap:round;stroke-linejoin:round;" /><path d="M 64.8,81.0 L 63.663,82.169 L 62.526,83.211 L 61.389,84.014 L 60.253,84.49 L 59.116,84.588 L 57.979,84.297 L 56.842,83.649 L 55.705,82.713 L 54.568,81.593 L 53.432,80.407 L 52.295,79.287 L 51.158,78.351 L 50.021,77.703 L 48.884,77.412 L 47.747,77.51 L 46.611,77.986 L 45.474,78.789 L 44.337,79.831 L 43.2,81" style="stroke:black;fill:none;stroke-width:2.0;stroke-dasharray:-;stroke-linecap:round;stroke-linejoin:round;" /><path d="M 64.8,63.0 L 63.663,64.169 L 62.526,65.211 L 61.389,66.014 L 60.253,66.49 L 59.116,66.588 L 57.979,66.297 L 56.842,65.649 L 55.705,64.713 L 54.568,63.593 L 53.432,62.407 L 52.295,61.287 L 51.158,60.351 L 50.021,59.703 L 48.884,59.412 L 47.747,59.51 L 46.611,59.986 L 45.474,60.789 L 44.337,61.831 L 43.2,63" style="stroke:black;fill:none;stroke-width:2.0;stroke-dasharray:-;stroke-linecap:round;stroke-linejoin:round;" /><path d="M 55.800000000000004,78.12 L 52.2,83.88" style="stroke:black;fill:none;stroke-width:2.0;stroke-dasharray:-;stroke-linecap:round;stroke-linejoin:round;" /><path d="M 55.800000000000004,60.12 L 52.2,65.88" style="stroke:black;fill:none;stroke-width:2.0;stroke-dasharray:-;stroke-linecap:round;stroke-linejoin:round;" /><path d="M 27.0,71.99999999999999 L 18,72 L 0,72" style="stroke:black;fill:none;stroke-width:2.0;stroke-dasharray:-;stroke-linecap:round;stroke-linejoin:round;" /><path d="M 34 72 L 27 74.7 L 27 69.3 Z" style="stroke:black;fill:black;stroke-linecap:butt;stroke-linejoin:miter;" /><path d="M 90.0,36.0 L 108,36 L 126,36" style="stroke:black;fill:none;stroke-width:2.0;stroke-dasharray:-;stroke-linecap:round;stroke-linejoin:round;" /><path d="M 126.0,36.0 L 144,36 L 162,36" style="stroke:black;fill:none;stroke-width:2.0;stroke-dasharray:-;stroke-linecap:round;stroke-linejoin:round;" /><path d="M 162.0,36.0 L 162,18 L 198,18 L 198,54 L 162,54 L 162,36" style="stroke:black;fill:none;stroke-width:2.0;stroke-dasharray:-;stroke-linecap:round;stroke-linejoin:round;" /><path d="M 169.20000000000002,36.0 L 170.337,34.831 L 171.474,33.789 L 172.611,32.986 L 173.747,32.51 L 174.884,32.412 L 176.021,32.703 L 177.158,33.351 L 178.295,34.287 L 179.432,35.407 L 180.568,36.593 L 181.705,37.713 L 182.842,38.649 L 183.979,39.297 L 185.116,39.588 L 186.253,39.49 L 187.389,39.014 L 188.526,38.211 L 189.663,37.169 L 190.8,36" style="stroke:black;fill:none;stroke-width:2.0;stroke-dasharray:-;stroke-linecap:round;stroke-linejoin:round;" /><path d="M 169.20000000000002,27.0 L 170.337,25.831 L 171.474,24.789 L 172.611,23.986 L 173.747,23.51 L 174.884,23.412 L 176.021,23.703 L 177.158,24.351 L 178.295,25.287 L 179.432,26.407 L 180.568,27.593 L 181.705,28.713 L 182.842,29.649 L 183.979,30.297 L 185.116,30.588 L 186.253,30.49 L 187.389,30.014 L 188.526,29.211 L 189.663,28.169 L 190.8,27" style="stroke:black;fill:none;stroke-width:2.0;stroke-dasharray:-;stroke-linecap:round;stroke-linejoin:round;" /><path d="M 169.20000000000002,45.0 L 170.337,43.831 L 171.474,42.789 L 172.611,41.986 L 173.747,41.51 L 174.884,41.412 L 176.021,41.703 L 177.158,42.351 L 178.295,43.287 L 179.432,44.407 L 180.568,45.593 L 181.705,46.713 L 182.842,47.649 L 183.979,48.297 L 185.116,48.588 L 186.253,48.49 L 187.389,48.014 L 188.526,47.211 L 189.663,46.169 L 190.8,45" style="stroke:black;fill:none;stroke-width:2.0;stroke-dasharray:-;stroke-linecap:round;stroke-linejoin:round;" /><path d="M 178.20000000000002,29.88 L 181.8,24.12" style="stroke:black;fill:none;stroke-width:2.0;stroke-dasharray:-;stroke-linecap:round;stroke-linejoin:round;" /><path d="M 178.20000000000002,47.88 L 181.8,42.12" style="stroke:black;fill:none;stroke-width:2.0;stroke-dasharray:-;stroke-linecap:round;stroke-linejoin:round;" /><path d="M 198.0,36.0 L 216,36 L 225,36" style="stroke:black;fill:none;stroke-width:2.0;stroke-dasharray:-;stroke-linecap:round;stroke-linejoin:round;" /><path d="M 232 36 L 225 38.7 L 225 33.3 Z" style="stroke:black;fill:black;stroke-linecap:butt;stroke-linejoin:miter;" /><path d="M 126.0,36.0 L 126,65.7 M 135,78.3 L 117,78.3 M 126,78.3 L 126,108" style="stroke:black;fill:none;stroke-width:2.0;stroke-dasharray:-;stroke-linecap:round;stroke-linejoin:round;" /><path d="M 125.99999999999999,108.0 L 126,122.4 L 117,122.4 L 135,122.4 M 119.7,126.72 L 132.3,126.72 M 124.2,131.04 L 127.8,131.04" style="stroke:black;fill:none;stroke-width:2.0;stroke-dasharray:-;stroke-linecap:round;stroke-linejoin:round;" /><path d="M 126.0,36.0 L 126,27 L 126,18" style="stroke:black;fill:none;stroke-width:2.0;stroke-dasharray:-;stroke-linecap:round;stroke-linejoin:round;" /><path d="M 126.0,18.0 L 126,-0 L 124.537,-0.033 L 123.036,-0.134 L 121.528,-0.304 L 120.045,-0.542 L 118.618,-0.846 L 117.278,-1.214 L 116.053,-1.64 L 114.967,-2.12 L 114.046,-2.645 L 113.307,-3.208 L 112.766,-3.8 L 112.435,-4.412 L 112.321,-5.034 L 112.426,-5.657 L 112.748,-6.269 L 113.28,-6.863 L 114.011,-7.427 L 114.925,-7.954 L 116.004,-8.435 L 117.224,-8.864 L 118.56,-9.234 L 119.984,-9.541 L 121.465,-9.782 L 122.973,-9.955 L 124.475,-10.059 L 125.94,-10.094 L 127.337,-10.065 L 128.637,-9.974 L 129.812,-9.826 L 130.838,-9.628 L 131.692,-9.388 L 132.357,-9.112 L 132.819,-8.811 L 133.068,-8.493 L 133.099,-8.169 L 132.911,-7.849 L 132.508,-7.542 L 131.899,-7.258 L 131.096,-7.006 L 130.117,-6.795 L 128.981,-6.633 L 127.714,-6.525 L 126.341,-6.478 L 124.892,-6.495 L 123.397,-6.58 L 121.888,-6.733 L 120.396,-6.955 L 118.953,-7.244 L 117.59,-7.597 L 116.334,-8.01 L 115.213,-8.477 L 114.251,-8.991 L 113.466,-9.546 L 112.877,-10.132 L 112.495,-10.74 L 112.329,-11.361 L 112.381,-11.984 L 112.651,-12.6 L 113.134,-13.199 L 113.819,-13.771 L 114.691,-14.308 L 115.732,-14.801 L 116.92,-15.243 L 118.231,-15.627 L 119.636,-15.95 L 121.107,-16.207 L 122.611,-16.396 L 124.117,-16.516 L 125.594,-16.568 L 127.01,-16.554 L 128.336,-16.477 L 129.543,-16.343 L 130.607,-16.156 L 131.504,-15.925 L 132.216,-15.657 L 132.727,-15.361 L 133.028,-15.046 L 133.111,-14.723 L 132.976,-14.401 L 132.624,-14.09 L 132.063,-13.8 L 131.305,-13.54 L 130.366,-13.318 L 129.266,-13.144 L 128.028,-13.022 L 126.678,-12.96 L 125.245,-12.962 L 123.758,-13.03 L 122.249,-13.167 L 120.75,-13.372 L 119.293,-13.645 L 117.908,-13.983 L 116.624,-14.382 L 115.468,-14.837 L 114.466,-15.341 L 113.637,-15.886 L 113,-16.466 L 112.567,-17.07 L 112.348,-17.688 L 112.348,-18.312 L 112.567,-18.93 L 113,-19.534 L 113.637,-20.114 L 114.466,-20.659 L 115.468,-21.163 L 116.624,-21.618 L 117.908,-22.017 L 119.293,-22.355 L 120.75,-22.628 L 122.249,-22.833 L 123.758,-22.97 L 125.245,-23.038 L 126.678,-23.04 L 128.028,-22.978 L 129.266,-22.856 L 130.366,-22.682 L 131.305,-22.46 L 132.063,-22.2 L 132.624,-21.91 L 132.976,-21.599 L 133.111,-21.277 L 133.028,-20.954 L 132.727,-20.639 L 132.216,-20.343 L 131.504,-20.075 L 130.607,-19.844 L 129.543,-19.657 L 128.336,-19.523 L 127.01,-19.446 L 125.594,-19.432 L 124.117,-19.484 L 122.611,-19.604 L 121.107,-19.793 L 119.636,-20.05 L 118.231,-20.373 L 116.92,-20.757 L 115.732,-21.199 L 114.691,-21.692 L 113.819,-22.229 L 113.134,-22.801 L 112.651,-23.4 L 112.381,-24.016 L 112.329,-24.639 L 112.495,-25.26 L 112.877,-25.868 L 113.466,-26.454 L 114.251,-27.009 L 115.213,-27.523 L 116.334,-27.99 L 117.59,-28.403 L 118.953,-28.756 L 120.396,-29.045 L 121.888,-29.267 L 123.397,-29.42 L 124.892,-29.505 L 126.341,-29.522 L 127.714,-29.475 L 128.981,-29.367 L 130.117,-29.205 L 131.096,-28.994 L 131.899,-28.742 L 132.508,-28.458 L 132.911,-28.151 L 133.099,-27.831 L 133.068,-27.507 L 132.819,-27.189 L 132.357,-26.888 L 131.692,-26.612 L 130.838,-26.372 L 129.812,-26.174 L 128.637,-26.026 L 127.337,-25.935 L 125.94,-25.906 L 124.475,-25.941 L 122.973,-26.045 L 121.465,-26.218 L 119.984,-26.459 L 118.56,-26.766 L 117.224,-27.136 L 116.004,-27.565 L 114.925,-28.046 L 114.011,-28.573 L 113.28,-29.137 L 112.748,-29.731 L 112.426,-30.343 L 112.321,-30.966 L 112.435,-31.588 L 112.766,-32.2 L 113.307,-32.792 L 114.046,-33.355 L 114.967,-33.88 L 116.053,-34.36 L 117.278,-34.786 L 118.618,-35.154 L 120.045,-35.458 L 121.528,-35.696 L 123.036,-35.866 L 124.537,-35.967 L 126,-36 L 126,-54" style="stroke:black;fill:none;stroke-width:2.0;stroke-dasharray:-;stroke-linecap:round;stroke-linejoin:round;" /><g><g><g><path d="M -28.132 -3.024 L -28.132 -3.024 L -28.454 -0.84 L -28.79 -0.84 Q -28.818 -1.652 -29.161 -2.128 Q -29.504 -2.604 -30.12 -2.604 Q -30.666 -2.604 -30.904 -2.31 Q -31.142 -2.016 -31.142 -1.708 Q -31.142 -1.414 -30.939 -1.141 Q -30.736 -0.868 -30.428 -0.581 Q -30.12 -0.294 -29.812 0.042 Q -29.364 0.518 -29.035 0.973 Q -28.706 1.428 -28.706 2.1 Q -28.706 2.506 -28.909 2.905 Q -29.112 3.304 -29.574 3.57 Q -30.036 3.836 -30.834 3.836 Q -31.492 3.836 -31.891 3.675 Q -32.29 3.514 -32.444 3.458 L -32.486 3.458 L -32.822 3.836 L -33.13 3.836 L -32.766 1.498 L -32.416 1.498 Q -32.304 2.408 -31.989 2.884 Q -31.674 3.36 -30.96 3.36 Q -30.47 3.36 -30.169 3.122 Q -29.868 2.884 -29.868 2.338 Q -29.868 1.764 -30.183 1.365 Q -30.498 0.966 -30.904 0.588 Q -31.184 0.308 -31.471 0.042 Q -31.758 -0.224 -31.947 -0.553 Q -32.136 -0.882 -32.136 -1.316 Q -32.136 -2.03 -31.66 -2.527 Q -31.184 -3.024 -30.232 -3.024 Q -29.672 -3.024 -29.301 -2.87 Q -28.93 -2.716 -28.804 -2.646 L -28.762 -2.646 L -28.398 -3.024 Z " fill="black" /><path d="M -25.031 6.259 L -25.031 6.259 L -25.031 6.622 L -27.52 6.622 L -27.52 6.259 Q -27.177 6.259 -27.026 6.186 Q -26.874 6.112 -26.834 5.951 Q -26.795 5.789 -26.795 5.524 L -26.795 2.565 Q -26.795 2.232 -26.903 2.163 Q -27.011 2.094 -27.266 2.094 Q -27.393 2.094 -27.471 2.104 Q -27.55 2.114 -27.55 2.114 L -27.55 1.722 L -26.237 1.506 L -25.835 1.506 L -25.835 5.524 Q -25.835 5.809 -25.791 5.97 Q -25.747 6.132 -25.575 6.196 Q -25.404 6.259 -25.031 6.259 Z M -26.325 -0.659 L -26.325 -0.659 Q -26.041 -0.659 -25.849 -0.463 Q -25.658 -0.267 -25.658 -0.013 Q -25.658 0.223 -25.849 0.419 Q -26.041 0.615 -26.325 0.615 Q -26.599 0.615 -26.78 0.419 Q -26.962 0.223 -26.962 -0.013 Q -26.962 -0.267 -26.78 -0.463 Q -26.599 -0.659 -26.325 -0.659 Z " fill="black" /><path d="M -19.21 3.339 L -19.21 3.339 L -19.21 5.534 Q -19.21 5.809 -19.161 5.97 Q -19.112 6.132 -18.945 6.201 Q -18.779 6.269 -18.426 6.269 L -18.426 6.622 L -20.945 6.622 L -20.945 6.269 Q -20.572 6.269 -20.406 6.201 Q -20.239 6.132 -20.2 5.97 Q -20.161 5.809 -20.161 5.534 L -20.161 3.662 Q -20.161 3.006 -20.312 2.697 Q -20.464 2.388 -20.695 2.29 Q -20.925 2.192 -21.16 2.192 Q -21.582 2.192 -21.9 2.408 Q -22.219 2.624 -22.454 2.82 L -22.454 5.534 Q -22.454 5.809 -22.41 5.97 Q -22.366 6.132 -22.199 6.201 Q -22.032 6.269 -21.67 6.269 L -21.67 6.622 L -24.139 6.622 L -24.139 6.269 Q -23.796 6.269 -23.645 6.201 Q -23.493 6.132 -23.453 5.97 Q -23.414 5.809 -23.414 5.534 L -23.414 2.555 Q -23.414 2.281 -23.517 2.188 Q -23.62 2.094 -23.845 2.094 Q -23.963 2.094 -24.041 2.104 Q -24.12 2.114 -24.12 2.114 L -24.12 1.742 L -22.807 1.506 L -22.483 1.506 L -22.483 2.31 L -22.415 2.31 Q -21.993 1.928 -21.606 1.702 Q -21.219 1.477 -20.729 1.477 Q -20.151 1.477 -19.822 1.737 Q -19.494 1.996 -19.352 2.418 Q -19.21 2.839 -19.21 3.339 Z " fill="black" /><path d="M -17.404 -0.098 L -17.404 -0.098 Q -17.404 -2.436 -16.389 -4.088 Q -15.374 -5.74 -13.68 -6.622 L -13.456 -6.258 Q -14.982 -5.222 -15.619 -3.731 Q -16.256 -2.24 -16.256 -0.098 Q -16.256 2.044 -15.619 3.535 Q -14.982 5.026 -13.456 6.062 L -13.68 6.426 Q -15.374 5.544 -16.389 3.892 Q -17.404 2.24 -17.404 -0.098 Z " fill="black" /><path d="M -8.598 -2.856 L -8.598 -2.856 L -8.71 -2.31 L -10.124 -2.31 L -10.95 1.862 Q -10.95 1.862 -10.999 2.121 Q -11.048 2.38 -11.048 2.562 Q -11.048 2.674 -10.999 2.765 Q -10.95 2.856 -10.81 2.856 Q -10.502 2.856 -10.243 2.674 Q -9.984 2.492 -9.62 2.016 L -9.34 2.226 Q -9.536 2.492 -9.816 2.87 Q -10.096 3.248 -10.488 3.528 Q -10.88 3.808 -11.44 3.808 Q -11.874 3.808 -12.084 3.598 Q -12.294 3.388 -12.294 3.066 Q -12.294 2.884 -12.252 2.625 Q -12.21 2.366 -12.196 2.268 L -11.244 -2.31 L -12.042 -2.31 L -11.986 -2.604 Q -11.538 -2.842 -11.237 -3.066 Q -10.936 -3.29 -10.663 -3.654 Q -10.39 -4.018 -10.04 -4.62 L -9.62 -4.62 L -10.012 -2.856 Z " fill="black" /><path d="M -3.936 -0.098 L -3.936 -0.098 Q -3.936 2.24 -4.951 3.892 Q -5.966 5.544 -7.66 6.426 L -7.884 6.062 Q -6.344 5.026 -5.714 3.535 Q -5.084 2.044 -5.084 -0.098 Q -5.084 -2.24 -5.714 -3.731 Q -6.344 -5.222 -7.884 -6.258 L -7.66 -6.622 Q -5.966 -5.74 -4.951 -4.088 Q -3.936 -2.436 -3.936 -0.098 Z " fill="black" /></g></g></g><circle cx="90" cy="36" r="2.7" style="stroke:black;fill:black;stroke-width:2.0;stroke-dasharray:-;" /><g><g><g><path d="M -32.797 68.907 L -32.797 68.907 L -33.119 71.091 L -33.455 71.091 Q -33.483 70.279 -33.826 69.803 Q -34.169 69.327 -34.785 69.327 Q -35.331 69.327 -35.569 69.621 Q -35.807 69.915 -35.807 70.223 Q -35.807 70.517 -35.604 70.79 Q -35.401 71.063 -35.093 71.35 Q -34.785 71.637 -34.477 71.973 Q -34.029 72.449 -33.7 72.904 Q -33.371 73.359 -33.371 74.031 Q -33.371 74.437 -33.574 74.836 Q -33.777 75.235 -34.239 75.501 Q -34.701 75.767 -35.499 75.767 Q -36.157 75.767 -36.556 75.606 Q -36.955 75.445 -37.109 75.389 L -37.151 75.389 L -37.487 75.767 L -37.795 75.767 L -37.431 73.429 L -37.081 73.429 Q -36.969 74.339 -36.654 74.815 Q -36.339 75.291 -35.625 75.291 Q -35.135 75.291 -34.834 75.053 Q -34.533 74.815 -34.533 74.269 Q -34.533 73.695 -34.848 73.296 Q -35.163 72.897 -35.569 72.519 Q -35.849 72.239 -36.136 71.973 Q -36.423 71.707 -36.612 71.378 Q -36.801 71.049 -36.801 70.615 Q -36.801 69.901 -36.325 69.404 Q -35.849 68.907 -34.897 68.907 Q -34.337 68.907 -33.966 69.061 Q -33.595 69.215 -33.469 69.285 L -33.427 69.285 L -33.063 68.907 Z " fill="black" /><path d="M -26.452 76.466 L -26.452 76.466 L -26.707 78.553 L -32.097 78.553 L -32.097 78.181 Q -31.656 78.181 -31.45 78.107 Q -31.244 78.034 -31.181 77.823 Q -31.117 77.613 -31.117 77.201 L -31.117 73.114 Q -31.117 72.683 -31.181 72.453 Q -31.244 72.223 -31.45 72.129 Q -31.656 72.036 -32.097 72.036 L -32.097 71.664 L -29.039 71.664 L -29.039 72.036 Q -29.471 72.036 -29.696 72.125 Q -29.921 72.213 -30.005 72.448 Q -30.088 72.683 -30.088 73.124 L -30.088 77.475 Q -30.088 77.858 -29.931 77.96 Q -29.774 78.063 -29.382 78.063 L -28.755 78.063 Q -28.236 78.063 -27.922 77.995 Q -27.609 77.926 -27.427 77.755 Q -27.246 77.583 -27.128 77.27 Q -27.011 76.956 -26.864 76.466 Z " fill="black" /><path d="M -18.671 75.143 L -18.671 75.143 Q -18.671 76.241 -19.092 77.034 Q -19.514 77.828 -20.288 78.259 Q -21.062 78.691 -22.13 78.691 Q -23.189 78.691 -23.963 78.259 Q -24.737 77.828 -25.159 77.025 Q -25.58 76.221 -25.58 75.104 Q -25.58 74.036 -25.159 73.237 Q -24.737 72.438 -23.958 71.992 Q -23.179 71.546 -22.13 71.546 Q -21.062 71.546 -20.288 72.012 Q -19.514 72.477 -19.092 73.286 Q -18.671 74.094 -18.671 75.143 Z M -19.916 75.006 L -19.916 75.006 Q -19.916 73.575 -20.518 72.811 Q -21.121 72.046 -22.14 72.046 Q -23.15 72.046 -23.743 72.82 Q -24.335 73.595 -24.335 75.035 Q -24.335 76.535 -23.796 77.348 Q -23.257 78.161 -22.121 78.161 Q -20.984 78.161 -20.45 77.372 Q -19.916 76.584 -19.916 75.006 Z " fill="black" /><path d="M -17.404 71.833 L -17.404 71.833 Q -17.404 69.495 -16.389 67.843 Q -15.374 66.191 -13.68 65.309 L -13.456 65.673 Q -14.982 66.709 -15.619 68.2 Q -16.256 69.691 -16.256 71.833 Q -16.256 73.975 -15.619 75.466 Q -14.982 76.957 -13.456 77.993 L -13.68 78.357 Q -15.374 77.475 -16.389 75.823 Q -17.404 74.171 -17.404 71.833 Z " fill="black" /><path d="M -8.598 69.075 L -8.598 69.075 L -8.71 69.621 L -10.124 69.621 L -10.95 73.793 Q -10.95 73.793 -10.999 74.052 Q -11.048 74.311 -11.048 74.493 Q -11.048 74.605 -10.999 74.696 Q -10.95 74.787 -10.81 74.787 Q -10.502 74.787 -10.243 74.605 Q -9.984 74.423 -9.62 73.947 L -9.34 74.157 Q -9.536 74.423 -9.816 74.801 Q -10.096 75.179 -10.488 75.459 Q -10.88 75.739 -11.44 75.739 Q -11.874 75.739 -12.084 75.529 Q -12.294 75.319 -12.294 74.997 Q -12.294 74.815 -12.252 74.556 Q -12.21 74.297 -12.196 74.199 L -11.244 69.621 L -12.042 69.621 L -11.986 69.327 Q -11.538 69.089 -11.237 68.865 Q -10.936 68.641 -10.663 68.277 Q -10.39 67.913 -10.04 67.311 L -9.62 67.311 L -10.012 69.075 Z " fill="black" /><path d="M -3.936 71.833 L -3.936 71.833 Q -3.936 74.171 -4.951 75.823 Q -5.966 77.475 -7.66 78.357 L -7.884 77.993 Q -6.344 76.957 -5.714 75.466 Q -5.084 73.975 -5.084 71.833 Q -5.084 69.691 -5.714 68.2 Q -6.344 66.709 -7.884 65.673 L -7.66 65.309 Q -5.966 66.191 -4.951 67.843 Q -3.936 69.495 -3.936 71.833 Z " fill="black" /></g></g></g><circle cx="126" cy="36" r="2.7" style="stroke:black;fill:black;stroke-width:2.0;stroke-dasharray:-;" /><g><g><g><path d="M 242.892 32.917 L 242.892 32.917 L 242.57 35.101 L 242.234 35.101 Q 242.206 34.289 241.863 33.813 Q 241.52 33.337 240.904 33.337 Q 240.358 33.337 240.12 33.631 Q 239.882 33.925 239.882 34.233 Q 239.882 34.527 240.085 34.8 Q 240.288 35.073 240.596 35.36 Q 240.904 35.647 241.212 35.983 Q 241.66 36.459 241.989 36.914 Q 242.318 37.369 242.318 38.041 Q 242.318 38.447 242.115 38.846 Q 241.912 39.245 241.45 39.511 Q 240.988 39.777 240.19 39.777 Q 239.532 39.777 239.133 39.616 Q 238.734 39.455 238.58 39.399 L 238.538 39.399 L 238.202 39.777 L 237.894 39.777 L 238.258 37.439 L 238.608 37.439 Q 238.72 38.349 239.035 38.825 Q 239.35 39.301 240.064 39.301 Q 240.554 39.301 240.855 39.063 Q 241.156 38.825 241.156 38.279 Q 241.156 37.705 240.841 37.306 Q 240.526 36.907 240.12 36.529 Q 239.84 36.249 239.553 35.983 Q 239.266 35.717 239.077 35.388 Q 238.888 35.059 238.888 34.625 Q 238.888 33.911 239.364 33.414 Q 239.84 32.917 240.792 32.917 Q 241.352 32.917 241.723 33.071 Q 242.094 33.225 242.22 33.295 L 242.262 33.295 L 242.626 32.917 Z " fill="black" /><path d="M 246.032 37.418 L 246.032 37.418 Q 246.767 37.418 247.316 37.737 Q 247.865 38.055 248.164 38.628 Q 248.463 39.202 248.463 39.976 Q 248.463 40.907 248.149 41.505 Q 247.835 42.103 247.287 42.392 Q 246.738 42.681 246.032 42.681 Q 245.317 42.681 244.763 42.382 Q 244.209 42.083 243.901 41.485 Q 243.592 40.887 243.592 39.986 Q 243.592 39.221 243.896 38.643 Q 244.2 38.065 244.748 37.742 Q 245.297 37.418 246.032 37.418 Z M 246.013 37.869 L 246.013 37.869 Q 245.366 37.869 244.998 38.393 Q 244.631 38.918 244.631 39.927 Q 244.631 41.172 245.008 41.686 Q 245.385 42.201 246.062 42.201 Q 246.493 42.191 246.797 41.985 Q 247.1 41.779 247.262 41.294 Q 247.424 40.809 247.424 39.976 Q 247.424 38.976 247.081 38.423 Q 246.738 37.869 246.013 37.869 Z " fill="black" /><path d="M 255.127 42.063 L 255.127 42.063 L 255.127 42.436 L 253.804 42.612 L 253.49 42.612 L 253.49 41.848 L 253.392 41.848 Q 253.02 42.181 252.637 42.421 Q 252.255 42.661 251.716 42.661 Q 250.991 42.661 250.609 42.22 Q 250.227 41.779 250.227 40.691 L 250.227 38.584 Q 250.227 38.183 250.084 38.089 Q 249.942 37.996 249.492 37.996 L 249.492 37.644 L 250.854 37.457 L 251.177 37.457 L 251.177 40.564 Q 251.177 41.113 251.305 41.417 Q 251.432 41.72 251.648 41.838 Q 251.863 41.956 252.118 41.956 Q 252.549 41.956 252.838 41.774 Q 253.127 41.593 253.441 41.338 L 253.441 38.584 Q 253.441 38.183 253.265 38.089 Q 253.088 37.996 252.588 37.996 L 252.588 37.644 L 254.049 37.457 L 254.392 37.457 L 254.392 41.426 Q 254.392 41.72 254.446 41.858 Q 254.499 41.995 254.637 42.029 Q 254.774 42.063 255.019 42.063 Z " fill="black" /><path d="M 258.949 41.583 L 258.949 41.583 L 259.174 41.769 Q 258.958 42.063 258.782 42.264 Q 258.606 42.465 258.38 42.573 Q 258.155 42.681 257.802 42.681 Q 257.234 42.681 256.974 42.357 Q 256.714 42.034 256.714 41.319 L 256.714 38.026 L 256.097 38.026 L 256.097 37.732 Q 256.45 37.477 256.744 37.109 Q 257.038 36.742 257.332 36.056 L 257.675 36.056 L 257.665 37.546 L 258.909 37.546 L 258.909 38.026 L 257.665 38.026 L 257.665 40.995 Q 257.665 41.544 257.768 41.774 Q 257.871 42.005 258.184 42.005 Q 258.468 42.005 258.615 41.902 Q 258.762 41.799 258.949 41.583 Z " fill="black" /><path d="M 260.059 35.843 L 260.059 35.843 Q 260.059 33.505 261.074 31.853 Q 262.089 30.201 263.783 29.319 L 264.007 29.683 Q 262.481 30.719 261.844 32.21 Q 261.207 33.701 261.207 35.843 Q 261.207 37.985 261.844 39.476 Q 262.481 40.967 264.007 42.003 L 263.783 42.367 Q 262.089 41.485 261.074 39.833 Q 260.059 38.181 260.059 35.843 Z " fill="black" /><path d="M 268.865 33.085 L 268.865 33.085 L 268.753 33.631 L 267.339 33.631 L 266.513 37.803 Q 266.513 37.803 266.464 38.062 Q 266.415 38.321 266.415 38.503 Q 266.415 38.615 266.464 38.706 Q 266.513 38.797 266.653 38.797 Q 266.961 38.797 267.22 38.615 Q 267.479 38.433 267.843 37.957 L 268.123 38.167 Q 267.927 38.433 267.647 38.811 Q 267.367 39.189 266.975 39.469 Q 266.583 39.749 266.023 39.749 Q 265.589 39.749 265.379 39.539 Q 265.169 39.329 265.169 39.007 Q 265.169 38.825 265.211 38.566 Q 265.253 38.307 265.267 38.209 L 266.219 33.631 L 265.421 33.631 L 265.477 33.337 Q 265.925 33.099 266.226 32.875 Q 266.527 32.651 266.8 32.287 Q 267.073 31.923 267.423 31.321 L 267.843 31.321 L 267.451 33.085 Z " fill="black" /><path d="M 273.527 35.843 L 273.527 35.843 Q 273.527 38.181 272.512 39.833 Q 271.497 41.485 269.803 42.367 L 269.579 42.003 Q 271.119 40.967 271.749 39.476 Q 272.379 37.985 272.379 35.843 Q 272.379 33.701 271.749 32.21 Q 271.119 30.719 269.579 29.683 L 269.803 29.319 Q 271.497 30.201 272.512 31.853 Q 273.527 33.505 273.527 35.843 Z " fill="black" /></g></g></g><g><g><g><path d="M 137.999 -13.142 L 137.999 -13.142 L 137.999 -22.34 L 140.953 -22.34 Q 141.905 -22.34 142.647 -22.088 Q 143.389 -21.836 143.809 -21.276 Q 144.229 -20.716 144.229 -19.764 Q 144.229 -18.658 143.655 -18.014 Q 143.081 -17.37 142.129 -17.146 L 144.509 -13.142 L 143.151 -13.142 L 140.897 -17.02 L 139.203 -17.02 L 139.203 -13.142 Z M 139.203 -17.986 L 139.203 -17.986 L 140.771 -17.986 Q 141.863 -17.986 142.451 -18.42 Q 143.039 -18.854 143.039 -19.75 Q 143.039 -20.646 142.451 -21.01 Q 141.863 -21.374 140.771 -21.374 L 139.203 -21.374 Z " fill="black" /><path d="M 146.161 -13.142 L 146.161 -13.142 L 146.161 -22.34 L 151.579 -22.34 L 151.579 -21.332 L 147.365 -21.332 L 147.365 -18.252 L 150.935 -18.252 L 150.935 -17.244 L 147.365 -17.244 L 147.365 -13.142 Z " fill="black" /><path d="M 158.915 -12.974 L 158.915 -12.974 Q 158.061 -12.974 157.368 -13.394 Q 156.675 -13.814 156.269 -14.591 Q 155.863 -15.368 155.863 -16.432 Q 155.863 -17.552 156.304 -18.336 Q 156.745 -19.12 157.466 -19.526 Q 158.187 -19.932 159.027 -19.932 Q 159.727 -19.932 160.182 -19.694 Q 160.637 -19.456 160.973 -19.162 L 160.399 -18.42 Q 160.105 -18.686 159.79 -18.84 Q 159.475 -18.994 159.069 -18.994 Q 158.481 -18.994 158.019 -18.672 Q 157.557 -18.35 157.291 -17.783 Q 157.025 -17.216 157.025 -16.446 Q 157.025 -15.312 157.592 -14.612 Q 158.159 -13.912 159.041 -13.912 Q 159.531 -13.912 159.916 -14.108 Q 160.301 -14.304 160.609 -14.57 L 161.099 -13.814 Q 160.651 -13.422 160.105 -13.198 Q 159.559 -12.974 158.915 -12.974 Z " fill="black" /><path d="M 162.527 -13.142 L 162.527 -13.142 L 162.527 -22.858 L 163.647 -22.858 L 163.647 -20.212 L 163.619 -18.84 Q 164.081 -19.288 164.592 -19.61 Q 165.103 -19.932 165.831 -19.932 Q 166.825 -19.932 167.322 -19.274 Q 167.819 -18.616 167.819 -17.342 L 167.819 -13.142 L 166.685 -13.142 L 166.685 -17.202 Q 166.685 -18.126 166.398 -18.539 Q 166.111 -18.952 165.467 -18.952 Q 164.949 -18.952 164.543 -18.7 Q 164.137 -18.448 163.647 -17.944 L 163.647 -13.142 Z " fill="black" /><path d="M 172.467 -12.974 L 172.467 -12.974 Q 171.669 -12.974 170.969 -13.387 Q 170.269 -13.8 169.842 -14.577 Q 169.415 -15.354 169.415 -16.46 Q 169.415 -17.566 169.842 -18.336 Q 170.269 -19.106 170.969 -19.519 Q 171.669 -19.932 172.467 -19.932 Q 173.279 -19.932 173.979 -19.519 Q 174.679 -19.106 175.106 -18.336 Q 175.533 -17.566 175.533 -16.46 Q 175.533 -15.354 175.106 -14.577 Q 174.679 -13.8 173.979 -13.387 Q 173.279 -12.974 172.467 -12.974 Z M 172.467 -13.912 L 172.467 -13.912 Q 173.321 -13.912 173.846 -14.612 Q 174.371 -15.312 174.371 -16.46 Q 174.371 -17.594 173.846 -18.294 Q 173.321 -18.994 172.467 -18.994 Q 171.627 -18.994 171.102 -18.294 Q 170.577 -17.594 170.577 -16.46 Q 170.577 -15.312 171.102 -14.612 Q 171.627 -13.912 172.467 -13.912 Z " fill="black" /><path d="M 177.255 -13.142 L 177.255 -13.142 L 177.255 -23.026 L 178.361 -23.026 L 178.361 -16.278 L 178.403 -16.278 L 181.203 -19.778 L 182.449 -19.778 L 180.237 -17.104 L 182.729 -13.142 L 181.511 -13.142 L 179.593 -16.32 L 178.361 -14.892 L 178.361 -13.142 Z " fill="black" /><path d="M 186.649 -12.974 L 186.649 -12.974 Q 185.767 -12.974 185.046 -13.387 Q 184.325 -13.8 183.898 -14.577 Q 183.471 -15.354 183.471 -16.432 Q 183.471 -17.524 183.891 -18.308 Q 184.311 -19.092 185.004 -19.512 Q 185.697 -19.932 186.509 -19.932 Q 187.685 -19.932 188.378 -19.092 Q 189.071 -18.252 189.071 -16.824 Q 189.071 -16.642 189.057 -16.481 Q 189.043 -16.32 189.015 -16.194 L 184.577 -16.194 Q 184.647 -15.13 185.235 -14.5 Q 185.823 -13.87 186.775 -13.87 Q 187.237 -13.87 187.643 -14.017 Q 188.049 -14.164 188.413 -14.402 L 188.805 -13.674 Q 188.371 -13.38 187.839 -13.177 Q 187.307 -12.974 186.649 -12.974 Z M 184.577 -16.992 L 184.577 -16.992 L 188.091 -16.992 Q 188.091 -17.986 187.664 -18.511 Q 187.237 -19.036 186.495 -19.036 Q 185.767 -19.036 185.228 -18.518 Q 184.689 -18 184.577 -16.992 Z " fill="black" /></g></g></g><circle cx="126" cy="-54" r="2.7" style="stroke:black;fill:white;stroke-width:2.0;stroke-dasharray:-;" /><g><g><g><path d="M 116.133 -65.117 L 116.133 -65.117 L 119.955 -70.857 Q 120.151 -71.137 120.27 -71.375 Q 120.389 -71.613 120.389 -71.781 Q 120.389 -71.991 120.207 -72.068 Q 120.025 -72.145 119.549 -72.145 L 119.577 -72.565 L 122.601 -72.565 L 122.573 -72.145 Q 122.195 -72.145 121.929 -72.033 Q 121.663 -71.921 121.39 -71.606 Q 121.117 -71.291 120.683 -70.647 L 115.545 -63.297 L 115.083 -63.297 L 114.299 -70.871 Q 114.215 -71.571 113.991 -71.858 Q 113.767 -72.145 113.207 -72.145 L 113.235 -72.565 L 116.665 -72.565 L 116.623 -72.145 Q 116.091 -72.145 115.783 -71.935 Q 115.475 -71.725 115.503 -71.249 Q 115.503 -71.179 115.524 -70.997 Q 115.545 -70.815 115.545 -70.745 L 115.965 -66.755 L 116.063 -65.117 Z " fill="black" /><path d="M 122.998 -67.748 L 122.998 -67.748 L 122.998 -64.71 L 123.047 -64.71 Q 123.331 -65.043 123.718 -65.308 Q 124.105 -65.572 124.654 -65.572 Q 125.163 -65.572 125.58 -65.264 Q 125.996 -64.955 126.246 -64.411 Q 126.496 -63.867 126.496 -63.162 Q 126.496 -62.221 126.153 -61.584 Q 125.81 -60.947 125.217 -60.628 Q 124.624 -60.31 123.87 -60.31 Q 123.429 -60.31 123.056 -60.383 Q 122.684 -60.457 122.424 -60.555 Q 122.165 -60.653 122.047 -60.702 L 122.047 -66.582 Q 122.047 -66.944 121.969 -67.047 Q 121.89 -67.15 121.557 -67.15 Q 121.449 -67.15 121.356 -67.136 Q 121.263 -67.121 121.263 -67.121 L 121.263 -67.493 L 122.596 -67.748 Z M 122.998 -64.2 L 122.998 -64.2 L 122.998 -61.26 Q 123.115 -61.045 123.37 -60.917 Q 123.625 -60.79 124.046 -60.79 Q 124.566 -60.79 124.879 -61.069 Q 125.193 -61.349 125.335 -61.814 Q 125.477 -62.28 125.477 -62.828 Q 125.477 -63.328 125.364 -63.784 Q 125.252 -64.24 124.967 -64.524 Q 124.683 -64.808 124.183 -64.808 Q 123.919 -64.808 123.679 -64.705 Q 123.439 -64.602 123.262 -64.46 Q 123.086 -64.318 122.998 -64.2 Z " fill="black" /><path d="M 130.073 -60.79 L 130.073 -60.79 L 130.073 -60.427 L 127.584 -60.427 L 127.584 -60.79 Q 127.927 -60.79 128.079 -60.864 Q 128.231 -60.937 128.27 -61.099 Q 128.309 -61.26 128.309 -61.525 L 128.309 -64.485 Q 128.309 -64.818 128.201 -64.886 Q 128.094 -64.955 127.839 -64.955 Q 127.711 -64.955 127.633 -64.945 Q 127.555 -64.935 127.555 -64.935 L 127.555 -65.327 L 128.868 -65.543 L 129.27 -65.543 L 129.27 -61.525 Q 129.27 -61.241 129.314 -61.079 Q 129.358 -60.917 129.529 -60.854 Q 129.701 -60.79 130.073 -60.79 Z M 128.78 -67.709 L 128.78 -67.709 Q 129.064 -67.709 129.255 -67.513 Q 129.446 -67.317 129.446 -67.062 Q 129.446 -66.827 129.255 -66.631 Q 129.064 -66.435 128.78 -66.435 Q 128.505 -66.435 128.324 -66.631 Q 128.143 -66.827 128.143 -67.062 Q 128.143 -67.317 128.324 -67.513 Q 128.505 -67.709 128.78 -67.709 Z " fill="black" /><path d="M 133.993 -61.045 L 133.993 -61.045 L 133.925 -61.045 Q 133.591 -60.77 133.19 -60.565 Q 132.788 -60.359 132.317 -60.359 Q 131.7 -60.359 131.372 -60.731 Q 131.043 -61.104 131.043 -61.633 Q 131.043 -62.084 131.254 -62.387 Q 131.465 -62.691 131.803 -62.882 Q 132.141 -63.073 132.533 -63.191 Q 132.925 -63.309 133.288 -63.377 Q 133.65 -63.446 133.895 -63.505 L 133.895 -64.014 Q 133.895 -64.671 133.636 -64.921 Q 133.376 -65.171 132.876 -65.171 Q 132.572 -65.171 132.44 -65.092 Q 132.308 -65.014 132.273 -64.837 Q 132.239 -64.661 132.229 -64.377 Q 132.219 -64.161 132.102 -64.029 Q 131.984 -63.897 131.759 -63.897 Q 131.543 -63.897 131.391 -64.029 Q 131.239 -64.161 131.239 -64.416 Q 131.239 -64.72 131.475 -64.984 Q 131.71 -65.249 132.146 -65.411 Q 132.582 -65.572 133.17 -65.572 Q 134.052 -65.572 134.449 -65.166 Q 134.846 -64.759 134.846 -63.946 L 134.846 -61.545 Q 134.846 -61.221 134.919 -61.128 Q 134.993 -61.035 135.15 -61.035 Q 135.316 -61.035 135.439 -61.104 Q 135.561 -61.172 135.669 -61.3 L 135.885 -61.094 Q 135.375 -60.369 134.689 -60.369 Q 134.307 -60.369 134.165 -60.55 Q 134.023 -60.731 133.993 -61.045 Z M 133.895 -61.407 L 133.895 -61.407 L 133.895 -63.132 Q 133.444 -63.015 133.013 -62.873 Q 132.582 -62.73 132.303 -62.485 Q 132.023 -62.24 132.023 -61.799 Q 132.023 -61.417 132.244 -61.197 Q 132.464 -60.976 132.807 -60.976 Q 133.013 -60.976 133.302 -61.069 Q 133.591 -61.162 133.895 -61.407 Z " fill="black" /><path d="M 136.561 -62.211 L 136.561 -62.211 L 136.874 -62.211 Q 137.002 -61.643 137.178 -61.329 Q 137.355 -61.015 137.634 -60.893 Q 137.913 -60.77 138.315 -60.77 Q 138.776 -60.77 139.026 -60.922 Q 139.275 -61.074 139.275 -61.456 Q 139.275 -61.711 139.153 -61.883 Q 139.03 -62.054 138.761 -62.211 Q 138.491 -62.368 138.041 -62.574 Q 137.58 -62.799 137.252 -62.995 Q 136.923 -63.191 136.752 -63.456 Q 136.58 -63.72 136.58 -64.122 Q 136.58 -64.828 137.056 -65.2 Q 137.531 -65.572 138.246 -65.572 Q 138.678 -65.572 138.977 -65.465 Q 139.275 -65.357 139.452 -65.278 L 139.471 -65.278 L 139.628 -65.523 L 139.903 -65.523 L 139.922 -63.897 L 139.579 -63.897 Q 139.393 -64.651 139.06 -64.911 Q 138.727 -65.171 138.295 -65.171 Q 137.845 -65.171 137.614 -64.975 Q 137.384 -64.779 137.384 -64.465 Q 137.384 -64.21 137.541 -64.044 Q 137.698 -63.877 137.987 -63.735 Q 138.276 -63.593 138.678 -63.397 Q 139.128 -63.181 139.471 -62.951 Q 139.814 -62.721 140.01 -62.432 Q 140.206 -62.142 140.206 -61.711 Q 140.206 -61.192 139.932 -60.878 Q 139.658 -60.565 139.226 -60.432 Q 138.795 -60.3 138.325 -60.3 Q 137.845 -60.3 137.58 -60.398 Q 137.315 -60.496 137.09 -60.584 L 137.051 -60.584 L 136.806 -60.329 L 136.58 -60.329 Z " fill="black" /></g></g></g></svg>