<svg xmlns="http://www.w3.org/2000/svg" xmlns:xlink="http://www.w3.org/1999/xlink" xml:lang="en" height="70.39999999999999pt" width="432.20000000000005pt" viewBox="-4.6 -47.8 432.20000000000005 70.39999999999999"><circle cx="18.0" cy="-0.0" r="18.0" style="stroke:black;fill:none;stroke-width:2.0;stroke-dasharray:-;" /><path d="M 7.2,-4.4087284769304716e-16 L 8.336842105263157,-1.168918089136861 L 9.473684210526317,-2.2111657656828045 L 10.610526315789475,-3.013799321745103 L 11.747368421052633,-3.4898409573815896 L 12.88421052631579,-3.5877041748240117 L 14.021052631578947,-3.2967839759582067 L 15.157894736842104,-2.648606078423274 L 16.294736842105262,-1.7134106149334647 L 17.431578947368422,-0.5925405250106421 L 18.56842105263158,0.5925405250106421 L 19.705263157894738,1.7134106149334647 L 20.84210526315789,2.6486060784232732 L 21.978947368421053,3.2967839759582063 L 23.11578947368421,3.5877041748240117 L 24.25263157894737,3.48984095738159 L 25.389473684210525,3.013799321745103 L 26.52631578947368,2.2111657656828045 L 27.66315789473684,1.168918089136861 L 28.8,4.4087284769304716e-16" style="stroke:black;fill:none;stroke-width:2.0;stroke-dasharray:-;stroke-linecap:round;stroke-linejoin:round;" /><path d="M 36.0,-0.0 L 54.0,-0.0 L 63.0,-0.0" style="stroke:black;fill:none;stroke-width:2.0;stroke-dasharray:-;stroke-linecap:round;stroke-linejoin:round;" /><path d="M 70.0 0.0 L 63.0 2.6999999999999997 L 63.0 -2.6999999999999997 Z" style="stroke:black;fill:black;stroke-linecap:butt;stroke-linejoin:miter;" /><path d="M 72.0,-0.0 L 72.0,18.0 L 99.0,-0.0 L 72.0,-18.0 L 72.0,-0.0" style="stroke:black;fill:none;stroke-width:2.0;stroke-dasharray:-;stroke-linecap:round;stroke-linejoin:round;" /><path d="M 99.0,-0.0 L 117.0,-0.0 L 135.0,-0.0" style="stroke:black;fill:none;stroke-width:2.0;stroke-dasharray:-;stroke-linecap:round;stroke-linejoin:round;" /><path d="M 135.0,-0.0 L 135.0,-21.599999999999998 L 121.32000000000001,-43.199999999999996 L 148.68,-43.199999999999996 L 135.0,-21.599999999999998" style="stroke:black;fill:none;stroke-width:2.0;stroke-dasharray:-;stroke-linecap:round;stroke-linejoin:round;" /><path d="M 279.0,-0.0 L 279.0,-21.599999999999998 L 265.32,-43.199999999999996 L 292.68,-43.199999999999996 L 279.0,-21.599999999999998" style="stroke:black;fill:none;stroke-width:2.0;stroke-dasharray:-;stroke-linecap:round;stroke-linejoin:round;" /><path d="M 279.0,-0.0 L 297.0,-0.0 L 306.0,-0.0" style="stroke:black;fill:none;stroke-width:2.0;stroke-dasharray:-;stroke-linecap:round;stroke-linejoin:round;" /><path d="M 313.0 0.0 L 306.0 2.6999999999999997 L 306.0 -2.6999999999999997 Z" style="stroke:black;fill:black;stroke-linecap:butt;stroke-linejoin:miter;" /><path d="M 315.0,-0.0 L 315.0,-18.0 L 351.0,-18.0 L 351.0,18.0 L 315.0,18.0 L 315.0,-0.0" style="stroke:black;fill:none;stroke-width:2.0;stroke-dasharray:-;stroke-linecap:round;stroke-linejoin:round;" /><path d="M 322.2,-4.4087284769304716e-16 L 323.33684210526314,-1.168918089136861 L 324.47368421052636,-2.2111657656828045 L 325.61052631578946,-3.013799321745103 L 326.7473684210526,-3.4898409573815896 L 327.88421052631577,-3.5877041748240117 L 329.021052631579,-3.2967839759582067 L 330.1578947368421,-2.648606078423274 L 331.2947368421053,-1.7134106149334647 L 332.43157894736845,-0.5925405250106421 L 333.56842105263155,0.5925405250106421 L 334.7052631578947,1.7134106149334647 L 335.8421052631579,2.6486060784232732 L 336.978947368421,3.2967839759582063 L 338.11578947368423,3.5877041748240117 L 339.2526315789474,3.48984095738159 L 340.38947368421054,3.013799321745103 L 341.52631578947364,2.2111657656828045 L 342.66315789473686,1.168918089136861 L 343.8,4.4087284769304716e-16" style="stroke:black;fill:none;stroke-width:2.0;stroke-dasharray:-;stroke-linecap:round;stroke-linejoin:round;" /><path d="M 322.2,-9.0 L 323.33684210526314,-10.16891808913686 L 324.47368421052636,-11.211165765682804 L 325.61052631578946,-12.013799321745104 L 326.7473684210526,-12.489840957381588 L 327.88421052631577,-12.587704174824012 L 329.021052631579,-12.296783975958206 L 330.1578947368421,-11.648606078423274 L 331.2947368421053,-10.713410614933464 L 332.43157894736845,-9.592540525010643 L 333.56842105263155,-8.407459474989357 L 334.7052631578947,-7.286589385066535 L 335.8421052631579,-6.351393921576727 L 336.978947368421,-5.703216024041794 L 338.11578947368423,-5.412295825175989 L 339.2526315789474,-5.51015904261841 L 340.38947368421054,-5.986200678254896 L 341.52631578947364,-6.7888342343171955 L 342.66315789473686,-7.831081910863139 L 343.8,-9.0" style="stroke:black;fill:none;stroke-width:2.0;stroke-dasharray:-;stroke-linecap:round;stroke-linejoin:round;" /><path d="M 322.2,9.0 L 323.33684210526314,7.831081910863139 L 324.47368421052636,6.7888342343171955 L 325.61052631578946,5.986200678254896 L 326.7473684210526,5.510159042618411 L 327.88421052631577,5.412295825175989 L 329.021052631579,5.703216024041793 L 330.1578947368421,6.351393921576726 L 331.2947368421053,7.286589385066535 L 332.43157894736845,8.407459474989357 L 333.56842105263155,9.592540525010643 L 334.7052631578947,10.713410614933464 L 335.8421052631579,11.648606078423274 L 336.978947368421,12.296783975958206 L 338.11578947368423,12.587704174824012 L 339.2526315789474,12.489840957381592 L 340.38947368421054,12.013799321745104 L 341.52631578947364,11.211165765682804 L 342.66315789473686,10.16891808913686 L 343.8,9.0" style="stroke:black;fill:none;stroke-width:2.0;stroke-dasharray:-;stroke-linecap:round;stroke-linejoin:round;" /><path d="M 331.2,-6.12 L 334.8,-11.88" style="stroke:black;fill:none;stroke-width:2.0;stroke-dasharray:-;stroke-linecap:round;stroke-linejoin:round;" /><path d="M 331.2,11.88 L 334.8,6.12" style="stroke:black;fill:none;stroke-width:2.0;stroke-dasharray:-;stroke-linecap:round;stroke-linejoin:round;" /><path d="M 351.0,-0.0 L 369.0,-0.0 L 378.0,-0.0" style="stroke:black;fill:none;stroke-width:2.0;stroke-dasharray:-;stroke-linecap:round;stroke-linejoin:round;" /><path d="M 385.0 0.0 L 378.0 2.6999999999999997 L 378.0 -2.6999999999999997 Z" style="stroke:black;fill:black;stroke-linecap:butt;stroke-linejoin:miter;" /><path d="M 387.0,-0.0 L 387.0,-18.0 L 423.0,-18.0 L 423.0,18.0 L 387.0,18.0 L 387.0,-0.0" style="stroke:black;fill:none;stroke-width:2.0;stroke-dasharray:-;stroke-linecap:round;stroke-linejoin:round;" /><path d="M 392.40000000000003,-0.0 L 397.8,-0.0" style="stroke:black;fill:none;stroke-width:2.0;stroke-dasharray:-;stroke-linecap:round;stroke-linejoin:round;" /><path d="M 397.8,-9.0 L 412.2,-0.0 L 397.8,9.0 L 397.8,-9.0" style="stroke:black;fill:none;stroke-width:2.0;stroke-dasharray:-;stroke-linecap:round;stroke-linejoin:round;" /><path d="M 412.2,-9.0 L 412.2,9.0" style="stroke:black;fill:none;stroke-width:2.0;stroke-dasharray:-;stroke-linecap:round;stroke-linejoin:round;" /><path d="M 412.2,-0.0 L 417.59999999999997,-0.0" style="stroke:black;fill:none;stroke-width:2.0;stroke-dasharray:-;stroke-linecap:round;stroke-linejoin:round;" /></svg>