<svg xmlns="http://www.w3.org/2000/svg" xmlns:xlink="http://www.w3.org/1999/xlink" xml:lang="en" height="212.37799999999996pt" width="303.18059999999997pt" viewBox="-24.096399999999996 -154.73799999999997 303.18059999999997 212.37799999999996"><path d="M 0.0,-0.0 L 18.0,-0.0 L 36.0,-0.0" style="stroke:black;fill:none;stroke-width:2.0;stroke-dasharray:-;stroke-linecap:round;stroke-linejoin:round;" /><path d="M 36.0,-0.0 L 36.0,-18.0 L 72.0,-18.0 L 72.0,18.0 L 36.0,18.0 L 36.0,-0.0" style="stroke:black;fill:none;stroke-width:2.0;stroke-dasharray:-;stroke-linecap:round;stroke-linejoin:round;" /><path d="M 72.0,-0.0 L 90.0,-0.0 L 108.0,-0.0" style="stroke:black;fill:none;stroke-width:2.0;stroke-dasharray:-;stroke-linecap:round;stroke-linejoin:round;" /><path d="M 141.0,29.999999999999996 L 141.0,15.000000000000004 L 126.0,15.000000000000004 L 126.0,-14.999999999999998 L 141.0,-14.999999999999998 L 141.0,-29.999999999999996" style="stroke:black;fill:none;stroke-width:2.0;stroke-dasharray:-;stroke-linecap:round;stroke-linejoin:round;" /><path d="M 132.0,15.0 L 126.0,15.000000000000004" style="stroke:black;fill:none;stroke-width:2.0;stroke-dasharray:-;stroke-linecap:round;stroke-linejoin:round;" /><path d="M 139.0 15.000000000000004 L 132.0 19.500000000000004 L 132.0 10.500000000000004 Z" style="stroke:black;fill:black;stroke-linecap:butt;stroke-linejoin:miter;" /><path d="M 123.0,12.000000000000005 L 123.0,-12.0" style="stroke:black;fill:none;stroke-width:2.0;stroke-dasharray:-;stroke-linecap:round;stroke-linejoin:round;" /><path d="M 108.0,-0.0 L 123.0,-0.0" style="stroke:black;fill:none;stroke-width:2.0;stroke-dasharray:-;stroke-linecap:round;stroke-linejoin:round;" /><path d="M 141.0,29.999999999999996 L 141.0,44.400000000000006 L 132.0,44.400000000000006 L 149.99999999999997,44.400000000000006 M 134.7,48.72 L 147.3,48.72 M 139.2,53.03999999999999 L 142.79999999999998,53.03999999999999" style="stroke:black;fill:none;stroke-width:2.0;stroke-dasharray:-;stroke-linecap:round;stroke-linejoin:round;" /><path d="M 141.0,-29.999999999999996 L 141.0,-39.0 L 141.0,-48.0" style="stroke:black;fill:none;stroke-width:2.0;stroke-dasharray:-;stroke-linecap:round;stroke-linejoin:round;" /><path d="M 141.0,-48.0 L 158.99999999999997,-48.0 L 176.99999999999997,-48.0" style="stroke:black;fill:none;stroke-width:2.0;stroke-dasharray:-;stroke-linecap:round;stroke-linejoin:round;" /><path d="M 176.99999999999997,-48.0 L 176.99999999999997,-66.0 L 212.99999999999997,-66.0 L 212.99999999999997,-29.999999999999996 L 176.99999999999997,-29.999999999999996 L 176.99999999999997,-48.0" style="stroke:black;fill:none;stroke-width:2.0;stroke-dasharray:-;stroke-linecap:round;stroke-linejoin:round;" /><path d="M 212.99999999999997,-48.0 L 230.99999999999997,-48.0 L 248.99999999999997,-48.0" style="stroke:black;fill:none;stroke-width:2.0;stroke-dasharray:-;stroke-linecap:round;stroke-linejoin:round;" /><path d="M 141.0,-48.0 L 141.0,-66.0 L 139.53708821011784,-66.03316618981962 L 138.03581343896133,-66.13406964594296 L 136.52781984193305,-66.30374057288421 L 135.04489319512643,-66.54175968131739 L 133.61829090868633,-66.84626702593654 L 132.2780831771683,-67.21400120973702 L 131.0525191542534,-67.64036812836228 L 129.96743151170975,-68.11953780551008 L 129.0456919334195,-68.64456727828272 L 128.30672902167228,-69.20754694228067 L 127.7661187773877,-69.7997672717497 L 127.43525628620299,-70.41190240062267 L 127.32111553068891,-71.03420669489968 L 127.42610239141756,-71.65672017297669 L 127.74800393535364,-72.26947844403375 L 128.28003506047824,-72.86272273936139 L 129.0109815134609,-73.42710560954515 L 129.92543626582577,-73.95388795178374 L 131.0041242662308,-74.43512321436131 L 132.2243087236691,-74.86382489557732 L 133.56027035787767,-75.23411380655921 L 134.98384951522277,-75.54134199392458 L 136.4650397232394,-75.78219071022743 L 137.9726201727701,-75.95474036714852 L 139.47481379612302,-76.05851099694338 L 140.939957070154,-76.09447236929375 L 142.3371674260347,-76.06502355031773 L 143.6369941979169,-75.97394233459733 L 144.81203938967337,-75.82630561610526 L 145.83753517507571,-75.62838237646729 L 146.69186595875027,-75.38750154617425 L 147.35702399381205,-75.11189752399002 L 147.81898895258132,-74.81053661072691 L 148.06802344971953,-74.49292801585037 L 148.09887828869083,-74.16892342055168 L 147.91090310532599,-73.84850932213665 L 147.50806007632215,-73.5415965367342 L 146.89884040372812,-73.25781129722758 L 146.09608533577122,-73.00629234968515 L 145.11671549658294,-72.79549832513119 L 143.98137423006224,-72.63302944691101 L 142.7139924755436,-72.52546733173654 L 141.34128434690209,-72.47823626111638 L 139.89218404737602,-72.49548884731769 L 138.3972359889233,-72.58001850381432 L 136.88795097129196,-72.73320056518583 L 135.39614199138455,-72.95496329755349 L 133.953253682854,-73.24378941060051 L 132.5896995201295,-73.59674803930636 L 131.33422075741322,-74.00955652127739 L 130.21328061505332,-74.47667066752007 L 129.25050648274777,-74.99140162391198 L 128.46619189692686,-75.54605686014222 L 127.87686878972929,-76.13210231432966 L 127.49495902578958,-76.74034227560374 L 127.32851257181076,-77.36111321304872 L 127.3810378178338,-77.98448746544776 L 127.65142762672458,-78.60048249841584 L 128.13398267062104,-79.19927131815982 L 128.81853156245086,-79.77138960672417 L 129.69064525036418,-80.30793521268647 L 130.73194115603545,-80.80075579239966 L 131.92047064614823,-81.24262064664323 L 133.2311816698666,-81.62737313067788 L 134.6364468107313,-81.95006042517515 L 136.1066456226029,-82.20703793268626 L 137.6107889750641,-82.39604609916061 L 139.11717224820944,-82.51625804125639 L 140.59404360865892,-82.56829697554502 L 142.01027328074605,-82.55422308223356 L 143.33600970585525,-82.47749008029417 L 144.5433087592565,-82.34287242931822 L 145.606722761686,-82.15636469254815 L 146.5038368703736,-81.92505518233231 L 147.21574154336557,-81.65697655132803 L 147.72743111844952,-81.36093647871982 L 148.02812010535877,-81.04633202028096 L 148.1114705243894,-80.7229515354431 L 147.97572549954282,-80.40076836639287 L 147.6237462902926,-80.08973061806684 L 147.0629519814126,-79.79955147010193 L 146.30516310209575,-79.53950444058616 L 145.36635247058976,-79.31822791707896 L 144.26630851609343,-79.14354307503402 L 143.02821817447932,-79.02228902157412 L 141.6781781496455,-78.96017863948938 L 140.24464484222327,-78.96167817000642 L 138.75783454014768,-79.0299130725054 L 137.24908651398871,-79.16660214549252 L 135.75020244184057,-79.37202129743768 L 134.29277608749712,-79.64499773112342 L 132.9075273610846,-79.98293466408781 L 131.62365479894837,-80.38186606409948 L 130.46822011134557,-80.83654024594006 L 129.4655777705651,-81.34053056742479 L 128.63686166272458,-81.88637089138992 L 127.99953962369598,-82.46571295835298 L 127.5670452487358,-83.06950235271539 L 127.34849473660722,-83.68816935345792 L 127.34849473660721,-84.31183064654203 L 127.56704524873578,-84.93049764728457 L 127.99953962369595,-85.53428704164696 L 128.63686166272456,-86.11362910861004 L 129.46557777056506,-86.65946943257518 L 130.4682201113455,-87.16345975405991 L 131.62365479894828,-87.61813393590049 L 132.90752736108453,-88.01706533591218 L 134.29277608749706,-88.35500226887656 L 135.7502024418405,-88.6279787025623 L 137.24908651398866,-88.83339785450747 L 138.75783454014763,-88.97008692749458 L 140.2446448422232,-89.03832182999359 L 141.67817814964542,-89.0398213605106 L 143.02821817447924,-88.97771097842589 L 144.2663085160934,-88.85645692496598 L 145.3663524705897,-88.68177208292104 L 146.3051631020957,-88.46049555941387 L 147.0629519814126,-88.20044852989807 L 147.6237462902926,-87.91026938193318 L 147.97572549954282,-87.59923163360716 L 148.1114705243894,-87.27704846455693 L 148.0281201053588,-86.95366797971903 L 147.72743111844954,-86.6390635212802 L 147.2157415433656,-86.34302344867197 L 146.50383687037365,-86.0749448176677 L 145.60672276168603,-85.84363530745185 L 144.54330875925655,-85.65712757068175 L 143.3360097058553,-85.52250991970584 L 142.0102732807461,-85.44577691776644 L 140.59404360865898,-85.43170302445495 L 139.11717224820953,-85.4837419587436 L 137.61078897506422,-85.60395390083937 L 136.10664562260297,-85.79296206731372 L 134.63644681073134,-86.04993957482482 L 133.23118166986666,-86.3726268693221 L 131.92047064614832,-86.75737935335673 L 130.73194115603548,-87.19924420760032 L 129.69064525036424,-87.6920647873135 L 128.8185315624509,-88.2286103932758 L 128.1339826706211,-88.80072868184016 L 127.6514276267246,-89.39951750158413 L 127.3810378178338,-90.01551253455222 L 127.32851257181076,-90.63888678695122 L 127.49495902578957,-91.25965772439625 L 127.87686878972927,-91.86789768567031 L 128.46619189692683,-92.45394313985773 L 129.2505064827477,-93.00859837608799 L 130.2132806150533,-93.5233293324799 L 131.33422075741316,-93.9904434787226 L 132.58969952012941,-94.40325196069361 L 133.9532536828539,-94.75621058939946 L 135.39614199138452,-95.04503670244651 L 136.88795097129187,-95.26679943481415 L 138.39723598892323,-95.41998149618567 L 139.89218404737596,-95.50451115268228 L 141.34128434690203,-95.5217637388836 L 142.71399247554353,-95.47453266826346 L 143.9813742300622,-95.36697055308898 L 145.1167154965829,-95.20450167486881 L 146.0960853357712,-94.99370765031485 L 146.89884040372806,-94.74218870277244 L 147.50806007632212,-94.4584034632658 L 147.91090310532599,-94.15149067786336 L 148.09887828869083,-93.83107657944834 L 148.06802344971953,-93.50707198414965 L 147.81898895258135,-93.18946338927312 L 147.35702399381208,-92.88810247600998 L 146.69186595875033,-92.61249845382575 L 145.83753517507577,-92.37161762353271 L 144.8120393896734,-92.17369438389476 L 143.63699419791692,-92.02605766540266 L 142.3371674260348,-91.93497644968227 L 140.93995707015412,-91.90552763070622 L 139.47481379612304,-91.94148900305662 L 137.97262017277015,-92.04525963285145 L 136.46503972323953,-92.21780928977256 L 134.98384951522286,-92.45865800607541 L 133.56027035787773,-92.76588619344078 L 132.22430872366917,-93.13617510442266 L 131.0041242662309,-93.56487678563866 L 129.9254362658258,-94.04611204821624 L 129.01098151346093,-94.5728943904548 L 128.2800350604783,-95.13727726063857 L 127.74800393535367,-95.73052155596619 L 127.42610239141756,-96.34327982702328 L 127.32111553068891,-96.96579330510028 L 127.43525628620296,-97.58809759937729 L 127.76611877738766,-98.20023272825024 L 128.30672902167228,-98.7924530577193 L 129.04569193341948,-99.35543272171725 L 129.9674315117097,-99.8804621944899 L 131.05251915425336,-100.3596318716377 L 132.27808317716824,-100.78599879026295 L 133.61829090868628,-101.15373297406344 L 135.04489319512632,-101.45824031868261 L 136.52781984193302,-101.69625942711576 L 138.03581343896127,-101.86593035405704 L 139.53708821011776,-101.96683381018038 L 140.9999999999999,-101.99999999999999 L 140.9999999999999,-119.99999999999999" style="stroke:black;fill:none;stroke-width:2.0;stroke-dasharray:-;stroke-linecap:round;stroke-linejoin:round;" /><path d="M 140.9999999999999,-119.99999999999999 L 140.9999999999999,-134.39999999999998" style="stroke:black;fill:none;stroke-width:2.0;stroke-dasharray:-;stroke-linecap:round;stroke-linejoin:round;" /><path d="M 140.9999999999999,-134.39999999999998 L 134.2499999999999,-134.39999999999998" style="stroke:black;fill:none;stroke-width:2.0;stroke-dasharray:-;stroke-linecap:round;stroke-linejoin:round;" /><path d="M 140.9999999999999,-134.39999999999998 L 147.74999999999991,-134.39999999999998" style="stroke:black;fill:none;stroke-width:2.0;stroke-dasharray:-;stroke-linecap:round;stroke-linejoin:round;" /><circle cx="0.0" cy="-0.0" r="2.6999999999999997" style="stroke:black;fill:white;stroke-width:2.0;stroke-dasharray:-;" /><g><g><g><path d="M -16.104 -4.823 L -16.104 -4.823 L -16.426 -2.639 L -16.762 -2.639 Q -16.79 -3.451 -17.133 -3.927 Q -17.476 -4.403 -18.092 -4.403 Q -18.638 -4.403 -18.876 -4.109 Q -19.114 -3.815 -19.114 -3.507 Q -19.114 -3.213 -18.911 -2.94 Q -18.708 -2.667 -18.4 -2.38 Q -18.092 -2.093 -17.784 -1.757 Q -17.336 -1.281 -17.007 -0.826 Q -16.678 -0.371 -16.678 0.301 Q -16.678 0.707 -16.881 1.106 Q -17.084 1.505 -17.546 1.771 Q -18.008 2.037 -18.806 2.037 Q -19.464 2.037 -19.863 1.876 Q -20.262 1.715 -20.416 1.659 L -20.458 1.659 L -20.794 2.037 L -21.102 2.037 L -20.738 -0.301 L -20.388 -0.301 Q -20.276 0.609 -19.961 1.085 Q -19.646 1.561 -18.932 1.561 Q -18.442 1.561 -18.141 1.323 Q -17.84 1.085 -17.84 0.539 Q -17.84 -0.035 -18.155 -0.434 Q -18.47 -0.833 -18.876 -1.211 Q -19.156 -1.491 -19.443 -1.757 Q -19.73 -2.023 -19.919 -2.352 Q -20.108 -2.681 -20.108 -3.115 Q -20.108 -3.829 -19.632 -4.326 Q -19.156 -4.823 -18.204 -4.823 Q -17.644 -4.823 -17.273 -4.669 Q -16.902 -4.515 -16.776 -4.445 L -16.734 -4.445 L -16.37 -4.823 Z " fill="black" /><path d="M -13.003 4.46 L -13.003 4.46 L -13.003 4.823 L -15.492 4.823 L -15.492 4.46 Q -15.149 4.46 -14.997 4.387 Q -14.846 4.313 -14.806 4.152 Q -14.767 3.99 -14.767 3.725 L -14.767 0.766 Q -14.767 0.433 -14.875 0.364 Q -14.983 0.295 -15.238 0.295 Q -15.365 0.295 -15.443 0.305 Q -15.522 0.315 -15.522 0.315 L -15.522 -0.077 L -14.209 -0.293 L -13.807 -0.293 L -13.807 3.725 Q -13.807 4.01 -13.763 4.171 Q -13.719 4.333 -13.547 4.397 Q -13.376 4.46 -13.003 4.46 Z M -14.297 -2.458 L -14.297 -2.458 Q -14.013 -2.458 -13.821 -2.262 Q -13.63 -2.066 -13.63 -1.812 Q -13.63 -1.576 -13.821 -1.38 Q -14.013 -1.184 -14.297 -1.184 Q -14.571 -1.184 -14.752 -1.38 Q -14.934 -1.576 -14.934 -1.812 Q -14.934 -2.066 -14.752 -2.262 Q -14.571 -2.458 -14.297 -2.458 Z " fill="black" /><path d="M -7.182 1.54 L -7.182 1.54 L -7.182 3.735 Q -7.182 4.01 -7.133 4.171 Q -7.084 4.333 -6.917 4.402 Q -6.751 4.47 -6.398 4.47 L -6.398 4.823 L -8.917 4.823 L -8.917 4.47 Q -8.544 4.47 -8.378 4.402 Q -8.211 4.333 -8.172 4.171 Q -8.133 4.01 -8.133 3.735 L -8.133 1.863 Q -8.133 1.207 -8.284 0.898 Q -8.436 0.589 -8.667 0.491 Q -8.897 0.393 -9.132 0.393 Q -9.554 0.393 -9.872 0.609 Q -10.191 0.825 -10.426 1.021 L -10.426 3.735 Q -10.426 4.01 -10.382 4.171 Q -10.338 4.333 -10.171 4.402 Q -10.004 4.47 -9.642 4.47 L -9.642 4.823 L -12.111 4.823 L -12.111 4.47 Q -11.768 4.47 -11.616 4.402 Q -11.465 4.333 -11.425 4.171 Q -11.386 4.01 -11.386 3.735 L -11.386 0.756 Q -11.386 0.482 -11.489 0.389 Q -11.592 0.295 -11.817 0.295 Q -11.935 0.295 -12.013 0.305 Q -12.092 0.315 -12.092 0.315 L -12.092 -0.057 L -10.779 -0.293 L -10.455 -0.293 L -10.455 0.511 L -10.387 0.511 Q -9.965 0.129 -9.578 -0.097 Q -9.191 -0.322 -8.701 -0.322 Q -8.123 -0.322 -7.794 -0.062 Q -7.466 0.197 -7.324 0.619 Q -7.182 1.04 -7.182 1.54 Z " fill="black" /></g></g></g><g><g><g><path d="M 40.602 -39.368 L 40.602 -39.368 L 40.602 -48.566 L 41.806 -48.566 L 41.806 -39.368 Z " fill="black" /><path d="M 44.2 -39.368 L 44.2 -39.368 L 44.2 -46.004 L 45.124 -46.004 L 45.222 -45.052 L 45.264 -45.052 Q 45.74 -45.514 46.258 -45.836 Q 46.776 -46.158 47.504 -46.158 Q 48.498 -46.158 48.995 -45.5 Q 49.492 -44.842 49.492 -43.568 L 49.492 -39.368 L 48.358 -39.368 L 48.358 -43.428 Q 48.358 -44.352 48.071 -44.765 Q 47.784 -45.178 47.14 -45.178 Q 46.622 -45.178 46.216 -44.926 Q 45.81 -44.674 45.32 -44.17 L 45.32 -39.368 Z " fill="black" /><path d="M 51.606 -36.288 L 51.606 -36.288 L 51.606 -46.004 L 52.53 -46.004 L 52.628 -45.234 L 52.67 -45.234 Q 53.118 -45.598 53.643 -45.878 Q 54.168 -46.158 54.84 -46.158 Q 55.624 -46.158 56.191 -45.745 Q 56.758 -45.332 57.066 -44.59 Q 57.374 -43.848 57.374 -42.854 Q 57.374 -41.692 56.975 -40.873 Q 56.576 -40.054 55.939 -39.627 Q 55.302 -39.2 54.56 -39.2 Q 54.098 -39.2 53.643 -39.389 Q 53.188 -39.578 52.698 -39.984 L 52.726 -38.808 L 52.726 -36.288 Z M 54.35 -40.152 L 54.35 -40.152 Q 55.148 -40.152 55.68 -40.845 Q 56.212 -41.538 56.212 -42.84 Q 56.212 -43.89 55.806 -44.555 Q 55.4 -45.22 54.532 -45.22 Q 54.098 -45.22 53.685 -45.017 Q 53.272 -44.814 52.726 -44.31 L 52.726 -40.838 Q 53.174 -40.46 53.587 -40.306 Q 54 -40.152 54.35 -40.152 Z " fill="black" /><path d="M 61.028 -39.2 L 61.028 -39.2 Q 60.02 -39.2 59.53 -39.872 Q 59.04 -40.544 59.04 -41.79 L 59.04 -46.004 L 60.16 -46.004 L 60.16 -41.944 Q 60.16 -41.034 60.454 -40.607 Q 60.748 -40.18 61.392 -40.18 Q 61.91 -40.18 62.302 -40.446 Q 62.694 -40.712 63.17 -41.3 L 63.17 -46.004 L 64.29 -46.004 L 64.29 -39.368 L 63.352 -39.368 L 63.268 -40.404 L 63.226 -40.404 Q 62.736 -39.83 62.225 -39.515 Q 61.714 -39.2 61.028 -39.2 Z " fill="black" /><path d="M 68.532 -39.2 L 68.532 -39.2 Q 67.552 -39.2 67.125 -39.816 Q 66.698 -40.432 66.698 -41.426 L 66.698 -45.01 L 65.732 -45.01 L 65.732 -45.85 L 66.754 -45.92 L 66.894 -47.866 L 67.818 -47.866 L 67.818 -45.92 L 69.596 -45.92 L 69.596 -45.01 L 67.818 -45.01 L 67.818 -41.398 Q 67.818 -40.81 68.042 -40.467 Q 68.266 -40.124 68.798 -40.124 Q 69.022 -40.124 69.225 -40.18 Q 69.428 -40.236 69.582 -40.306 L 69.806 -39.452 Q 69.526 -39.354 69.211 -39.277 Q 68.896 -39.2 68.532 -39.2 Z " fill="black" /></g><g><path d="M 37.557 -25.368 L 37.557 -25.368 L 37.557 -32.004 L 38.481 -32.004 L 38.579 -31.038 L 38.621 -31.038 Q 39.069 -31.514 39.559 -31.836 Q 40.049 -32.158 40.735 -32.158 Q 41.435 -32.158 41.869 -31.808 Q 42.303 -31.458 42.485 -30.898 Q 43.031 -31.472 43.535 -31.815 Q 44.039 -32.158 44.725 -32.158 Q 45.663 -32.158 46.167 -31.5 Q 46.671 -30.842 46.671 -29.568 L 46.671 -25.368 L 45.551 -25.368 L 45.551 -29.428 Q 45.551 -31.178 44.375 -31.178 Q 43.955 -31.178 43.563 -30.947 Q 43.171 -30.716 42.681 -30.17 L 42.681 -25.368 L 41.561 -25.368 L 41.561 -29.428 Q 41.561 -31.178 40.385 -31.178 Q 39.993 -31.178 39.594 -30.961 Q 39.195 -30.744 38.677 -30.17 L 38.677 -25.368 Z " fill="black" /><path d="M 50.311 -25.2 L 50.311 -25.2 Q 49.499 -25.2 48.946 -25.697 Q 48.393 -26.194 48.393 -27.09 Q 48.393 -28.182 49.359 -28.763 Q 50.325 -29.344 52.439 -29.568 Q 52.439 -30.002 52.327 -30.38 Q 52.215 -30.758 51.914 -30.996 Q 51.613 -31.234 51.067 -31.234 Q 50.521 -31.234 50.017 -31.01 Q 49.513 -30.786 49.121 -30.534 L 48.673 -31.304 Q 49.135 -31.612 49.807 -31.885 Q 50.479 -32.158 51.263 -32.158 Q 52.467 -32.158 53.013 -31.423 Q 53.559 -30.688 53.559 -29.442 L 53.559 -25.368 L 52.635 -25.368 L 52.537 -26.166 L 52.509 -26.166 Q 52.033 -25.774 51.487 -25.487 Q 50.941 -25.2 50.311 -25.2 Z M 50.647 -26.11 L 50.647 -26.11 Q 51.123 -26.11 51.543 -26.341 Q 51.963 -26.572 52.439 -26.978 L 52.439 -28.826 Q 50.815 -28.63 50.15 -28.224 Q 49.485 -27.818 49.485 -27.16 Q 49.485 -26.614 49.828 -26.362 Q 50.171 -26.11 50.647 -26.11 Z " fill="black" /><path d="M 57.661 -25.2 L 57.661 -25.2 Q 56.681 -25.2 56.254 -25.816 Q 55.827 -26.432 55.827 -27.426 L 55.827 -31.01 L 54.861 -31.01 L 54.861 -31.85 L 55.883 -31.92 L 56.023 -33.866 L 56.947 -33.866 L 56.947 -31.92 L 58.725 -31.92 L 58.725 -31.01 L 56.947 -31.01 L 56.947 -27.398 Q 56.947 -26.81 57.171 -26.467 Q 57.395 -26.124 57.927 -26.124 Q 58.151 -26.124 58.354 -26.18 Q 58.557 -26.236 58.711 -26.306 L 58.935 -25.452 Q 58.655 -25.354 58.34 -25.277 Q 58.025 -25.2 57.661 -25.2 Z " fill="black" /><path d="M 62.771 -25.2 L 62.771 -25.2 Q 61.917 -25.2 61.224 -25.62 Q 60.531 -26.04 60.125 -26.817 Q 59.719 -27.594 59.719 -28.658 Q 59.719 -29.778 60.16 -30.562 Q 60.601 -31.346 61.322 -31.752 Q 62.043 -32.158 62.883 -32.158 Q 63.583 -32.158 64.038 -31.92 Q 64.493 -31.682 64.829 -31.388 L 64.255 -30.646 Q 63.961 -30.912 63.646 -31.066 Q 63.331 -31.22 62.925 -31.22 Q 62.337 -31.22 61.875 -30.898 Q 61.413 -30.576 61.147 -30.009 Q 60.881 -29.442 60.881 -28.672 Q 60.881 -27.538 61.448 -26.838 Q 62.015 -26.138 62.897 -26.138 Q 63.387 -26.138 63.772 -26.334 Q 64.157 -26.53 64.465 -26.796 L 64.955 -26.04 Q 64.507 -25.648 63.961 -25.424 Q 63.415 -25.2 62.771 -25.2 Z " fill="black" /><path d="M 66.383 -25.368 L 66.383 -25.368 L 66.383 -35.084 L 67.503 -35.084 L 67.503 -32.438 L 67.475 -31.066 Q 67.937 -31.514 68.448 -31.836 Q 68.959 -32.158 69.687 -32.158 Q 70.681 -32.158 71.178 -31.5 Q 71.675 -30.842 71.675 -29.568 L 71.675 -25.368 L 70.541 -25.368 L 70.541 -29.428 Q 70.541 -30.352 70.254 -30.765 Q 69.967 -31.178 69.323 -31.178 Q 68.805 -31.178 68.399 -30.926 Q 67.993 -30.674 67.503 -30.17 L 67.503 -25.368 Z " fill="black" /></g></g></g><g><g><g><path d="M 155.926 3.129 L 155.926 3.129 L 152.188 3.129 L 152.272 2.709 Q 152.79 2.709 153.063 2.611 Q 153.336 2.513 153.476 2.24 Q 153.616 1.967 153.714 1.463 L 154.96 -4.585 L 154.904 -4.585 L 150.2 3.129 L 149.892 3.129 L 148.198 -4.571 L 148.142 -4.571 L 146.98 1.085 Q 146.84 1.799 146.861 2.149 Q 146.882 2.499 147.134 2.604 Q 147.386 2.709 147.918 2.709 L 147.834 3.129 L 144.6 3.129 L 144.684 2.709 Q 145.23 2.709 145.524 2.604 Q 145.818 2.499 145.986 2.149 Q 146.154 1.799 146.294 1.085 L 147.4 -4.361 Q 147.512 -4.893 147.47 -5.166 Q 147.428 -5.439 147.169 -5.544 Q 146.91 -5.649 146.35 -5.649 L 146.434 -6.069 L 149.234 -6.069 L 150.746 1.015 L 150.802 1.015 L 155.072 -6.069 L 157.718 -6.069 L 157.634 -5.649 Q 157.144 -5.649 156.857 -5.544 Q 156.57 -5.439 156.416 -5.166 Q 156.262 -4.893 156.15 -4.375 L 154.96 1.463 Q 154.806 2.233 155.037 2.471 Q 155.268 2.709 156.01 2.709 Z " fill="black" /><path d="M 161.952 6.069 L 161.952 6.069 L 158.629 6.069 L 158.629 5.716 Q 159.335 5.716 159.565 5.574 Q 159.796 5.432 159.796 5.06 L 159.796 0.787 Q 159.796 0.522 159.717 0.405 Q 159.639 0.287 159.433 0.287 Q 159.276 0.287 159.007 0.331 Q 158.737 0.375 158.541 0.424 L 158.541 0.032 L 160.354 -0.468 L 160.776 -0.468 L 160.776 5.06 Q 160.776 5.432 161.025 5.574 Q 161.275 5.716 161.952 5.716 Z " fill="black" /></g></g></g><circle cx="141.0" cy="-48.0" r="2.6999999999999997" style="stroke:black;fill:black;stroke-width:2.0;stroke-dasharray:-;" /><g><g><g><path d="M 179.663 -87.2 L 179.663 -87.2 Q 178.487 -87.2 177.584 -87.781 Q 176.681 -88.362 176.17 -89.44 Q 175.659 -90.518 175.659 -92.002 Q 175.659 -93.472 176.17 -94.529 Q 176.681 -95.586 177.584 -96.153 Q 178.487 -96.72 179.663 -96.72 Q 180.853 -96.72 181.756 -96.153 Q 182.659 -95.586 183.17 -94.529 Q 183.681 -93.472 183.681 -92.002 Q 183.681 -90.532 183.17 -89.454 Q 182.659 -88.376 181.756 -87.788 Q 180.853 -87.2 179.663 -87.2 Z M 179.663 -88.25 L 179.663 -88.25 Q 180.503 -88.25 181.126 -88.712 Q 181.749 -89.174 182.092 -90.021 Q 182.435 -90.868 182.435 -92.002 Q 182.435 -93.71 181.679 -94.697 Q 180.923 -95.684 179.663 -95.684 Q 178.403 -95.684 177.647 -94.697 Q 176.891 -93.71 176.891 -92.002 Q 176.891 -90.868 177.234 -90.021 Q 177.577 -89.174 178.2 -88.712 Q 178.823 -88.25 179.663 -88.25 Z " fill="black" /><path d="M 187.433 -87.2 L 187.433 -87.2 Q 186.425 -87.2 185.935 -87.872 Q 185.445 -88.544 185.445 -89.79 L 185.445 -94.004 L 186.565 -94.004 L 186.565 -89.944 Q 186.565 -89.034 186.859 -88.607 Q 187.153 -88.18 187.797 -88.18 Q 188.315 -88.18 188.707 -88.446 Q 189.099 -88.712 189.575 -89.3 L 189.575 -94.004 L 190.695 -94.004 L 190.695 -87.368 L 189.757 -87.368 L 189.673 -88.404 L 189.631 -88.404 Q 189.141 -87.83 188.63 -87.515 Q 188.119 -87.2 187.433 -87.2 Z " fill="black" /><path d="M 194.937 -87.2 L 194.937 -87.2 Q 193.957 -87.2 193.53 -87.816 Q 193.103 -88.432 193.103 -89.426 L 193.103 -93.01 L 192.137 -93.01 L 192.137 -93.85 L 193.159 -93.92 L 193.299 -95.866 L 194.223 -95.866 L 194.223 -93.92 L 196.001 -93.92 L 196.001 -93.01 L 194.223 -93.01 L 194.223 -89.398 Q 194.223 -88.81 194.447 -88.467 Q 194.671 -88.124 195.203 -88.124 Q 195.427 -88.124 195.63 -88.18 Q 195.833 -88.236 195.987 -88.306 L 196.211 -87.452 Q 195.931 -87.354 195.616 -87.277 Q 195.301 -87.2 194.937 -87.2 Z " fill="black" /><path d="M 197.485 -84.288 L 197.485 -84.288 L 197.485 -94.004 L 198.409 -94.004 L 198.507 -93.234 L 198.549 -93.234 Q 198.997 -93.598 199.522 -93.878 Q 200.047 -94.158 200.719 -94.158 Q 201.503 -94.158 202.07 -93.745 Q 202.637 -93.332 202.945 -92.59 Q 203.253 -91.848 203.253 -90.854 Q 203.253 -89.692 202.854 -88.873 Q 202.455 -88.054 201.818 -87.627 Q 201.181 -87.2 200.439 -87.2 Q 199.977 -87.2 199.522 -87.389 Q 199.067 -87.578 198.577 -87.984 L 198.605 -86.808 L 198.605 -84.288 Z M 200.229 -88.152 L 200.229 -88.152 Q 201.027 -88.152 201.559 -88.845 Q 202.091 -89.538 202.091 -90.84 Q 202.091 -91.89 201.685 -92.555 Q 201.279 -93.22 200.411 -93.22 Q 199.977 -93.22 199.564 -93.017 Q 199.151 -92.814 198.605 -92.31 L 198.605 -88.838 Q 199.053 -88.46 199.466 -88.306 Q 199.879 -88.152 200.229 -88.152 Z " fill="black" /><path d="M 206.907 -87.2 L 206.907 -87.2 Q 205.899 -87.2 205.409 -87.872 Q 204.919 -88.544 204.919 -89.79 L 204.919 -94.004 L 206.039 -94.004 L 206.039 -89.944 Q 206.039 -89.034 206.333 -88.607 Q 206.627 -88.18 207.271 -88.18 Q 207.789 -88.18 208.181 -88.446 Q 208.573 -88.712 209.049 -89.3 L 209.049 -94.004 L 210.169 -94.004 L 210.169 -87.368 L 209.231 -87.368 L 209.147 -88.404 L 209.105 -88.404 Q 208.615 -87.83 208.104 -87.515 Q 207.593 -87.2 206.907 -87.2 Z " fill="black" /><path d="M 214.411 -87.2 L 214.411 -87.2 Q 213.431 -87.2 213.004 -87.816 Q 212.577 -88.432 212.577 -89.426 L 212.577 -93.01 L 211.611 -93.01 L 211.611 -93.85 L 212.633 -93.92 L 212.773 -95.866 L 213.697 -95.866 L 213.697 -93.92 L 215.475 -93.92 L 215.475 -93.01 L 213.697 -93.01 L 213.697 -89.398 Q 213.697 -88.81 213.921 -88.467 Q 214.145 -88.124 214.677 -88.124 Q 214.901 -88.124 215.104 -88.18 Q 215.307 -88.236 215.461 -88.306 L 215.685 -87.452 Q 215.405 -87.354 215.09 -87.277 Q 214.775 -87.2 214.411 -87.2 Z " fill="black" /></g><g><path d="M 178.557 -73.368 L 178.557 -73.368 L 178.557 -80.004 L 179.481 -80.004 L 179.579 -79.038 L 179.621 -79.038 Q 180.069 -79.514 180.559 -79.836 Q 181.049 -80.158 181.735 -80.158 Q 182.435 -80.158 182.869 -79.808 Q 183.303 -79.458 183.485 -78.898 Q 184.031 -79.472 184.535 -79.815 Q 185.039 -80.158 185.725 -80.158 Q 186.663 -80.158 187.167 -79.5 Q 187.671 -78.842 187.671 -77.568 L 187.671 -73.368 L 186.551 -73.368 L 186.551 -77.428 Q 186.551 -79.178 185.375 -79.178 Q 184.955 -79.178 184.563 -78.947 Q 184.171 -78.716 183.681 -78.17 L 183.681 -73.368 L 182.561 -73.368 L 182.561 -77.428 Q 182.561 -79.178 181.385 -79.178 Q 180.993 -79.178 180.594 -78.961 Q 180.195 -78.744 179.677 -78.17 L 179.677 -73.368 Z " fill="black" /><path d="M 191.311 -73.2 L 191.311 -73.2 Q 190.499 -73.2 189.946 -73.697 Q 189.393 -74.194 189.393 -75.09 Q 189.393 -76.182 190.359 -76.763 Q 191.325 -77.344 193.439 -77.568 Q 193.439 -78.002 193.327 -78.38 Q 193.215 -78.758 192.914 -78.996 Q 192.613 -79.234 192.067 -79.234 Q 191.521 -79.234 191.017 -79.01 Q 190.513 -78.786 190.121 -78.534 L 189.673 -79.304 Q 190.135 -79.612 190.807 -79.885 Q 191.479 -80.158 192.263 -80.158 Q 193.467 -80.158 194.013 -79.423 Q 194.559 -78.688 194.559 -77.442 L 194.559 -73.368 L 193.635 -73.368 L 193.537 -74.166 L 193.509 -74.166 Q 193.033 -73.774 192.487 -73.487 Q 191.941 -73.2 191.311 -73.2 Z M 191.647 -74.11 L 191.647 -74.11 Q 192.123 -74.11 192.543 -74.341 Q 192.963 -74.572 193.439 -74.978 L 193.439 -76.826 Q 191.815 -76.63 191.15 -76.224 Q 190.485 -75.818 190.485 -75.16 Q 190.485 -74.614 190.828 -74.362 Q 191.171 -74.11 191.647 -74.11 Z " fill="black" /><path d="M 198.661 -73.2 L 198.661 -73.2 Q 197.681 -73.2 197.254 -73.816 Q 196.827 -74.432 196.827 -75.426 L 196.827 -79.01 L 195.861 -79.01 L 195.861 -79.85 L 196.883 -79.92 L 197.023 -81.866 L 197.947 -81.866 L 197.947 -79.92 L 199.725 -79.92 L 199.725 -79.01 L 197.947 -79.01 L 197.947 -75.398 Q 197.947 -74.81 198.171 -74.467 Q 198.395 -74.124 198.927 -74.124 Q 199.151 -74.124 199.354 -74.18 Q 199.557 -74.236 199.711 -74.306 L 199.935 -73.452 Q 199.655 -73.354 199.34 -73.277 Q 199.025 -73.2 198.661 -73.2 Z " fill="black" /><path d="M 203.771 -73.2 L 203.771 -73.2 Q 202.917 -73.2 202.224 -73.62 Q 201.531 -74.04 201.125 -74.817 Q 200.719 -75.594 200.719 -76.658 Q 200.719 -77.778 201.16 -78.562 Q 201.601 -79.346 202.322 -79.752 Q 203.043 -80.158 203.883 -80.158 Q 204.583 -80.158 205.038 -79.92 Q 205.493 -79.682 205.829 -79.388 L 205.255 -78.646 Q 204.961 -78.912 204.646 -79.066 Q 204.331 -79.22 203.925 -79.22 Q 203.337 -79.22 202.875 -78.898 Q 202.413 -78.576 202.147 -78.009 Q 201.881 -77.442 201.881 -76.672 Q 201.881 -75.538 202.448 -74.838 Q 203.015 -74.138 203.897 -74.138 Q 204.387 -74.138 204.772 -74.334 Q 205.157 -74.53 205.465 -74.796 L 205.955 -74.04 Q 205.507 -73.648 204.961 -73.424 Q 204.415 -73.2 203.771 -73.2 Z " fill="black" /><path d="M 207.383 -73.368 L 207.383 -73.368 L 207.383 -83.084 L 208.503 -83.084 L 208.503 -80.438 L 208.475 -79.066 Q 208.937 -79.514 209.448 -79.836 Q 209.959 -80.158 210.687 -80.158 Q 211.681 -80.158 212.178 -79.5 Q 212.675 -78.842 212.675 -77.568 L 212.675 -73.368 L 211.541 -73.368 L 211.541 -77.428 Q 211.541 -78.352 211.254 -78.765 Q 210.967 -79.178 210.323 -79.178 Q 209.805 -79.178 209.399 -78.926 Q 208.993 -78.674 208.503 -78.17 L 208.503 -73.368 Z " fill="black" /></g></g></g><circle cx="248.99999999999997" cy="-48.0" r="2.6999999999999997" style="stroke:black;fill:white;stroke-width:2.0;stroke-dasharray:-;" /><g><g><g><path d="M 260.592 -52.882 L 260.592 -52.882 L 260.27 -50.698 L 259.934 -50.698 Q 259.906 -51.51 259.563 -51.986 Q 259.22 -52.462 258.604 -52.462 Q 258.058 -52.462 257.82 -52.168 Q 257.582 -51.874 257.582 -51.566 Q 257.582 -51.272 257.785 -50.999 Q 257.988 -50.726 258.296 -50.439 Q 258.604 -50.152 258.912 -49.816 Q 259.36 -49.34 259.689 -48.885 Q 260.018 -48.43 260.018 -47.758 Q 260.018 -47.352 259.815 -46.953 Q 259.612 -46.554 259.15 -46.288 Q 258.688 -46.022 257.89 -46.022 Q 257.232 -46.022 256.833 -46.183 Q 256.434 -46.344 256.28 -46.4 L 256.238 -46.4 L 255.902 -46.022 L 255.594 -46.022 L 255.958 -48.36 L 256.308 -48.36 Q 256.42 -47.45 256.735 -46.974 Q 257.05 -46.498 257.764 -46.498 Q 258.254 -46.498 258.555 -46.736 Q 258.856 -46.974 258.856 -47.52 Q 258.856 -48.094 258.541 -48.493 Q 258.226 -48.892 257.82 -49.27 Q 257.54 -49.55 257.253 -49.816 Q 256.966 -50.082 256.777 -50.411 Q 256.588 -50.74 256.588 -51.174 Q 256.588 -51.888 257.064 -52.385 Q 257.54 -52.882 258.492 -52.882 Q 259.052 -52.882 259.423 -52.728 Q 259.794 -52.574 259.92 -52.504 L 259.962 -52.504 L 260.326 -52.882 Z " fill="black" /><path d="M 263.732 -48.381 L 263.732 -48.381 Q 264.467 -48.381 265.016 -48.062 Q 265.565 -47.744 265.864 -47.171 Q 266.163 -46.597 266.163 -45.823 Q 266.163 -44.892 265.849 -44.294 Q 265.535 -43.696 264.987 -43.407 Q 264.438 -43.118 263.732 -43.118 Q 263.017 -43.118 262.463 -43.417 Q 261.909 -43.716 261.601 -44.314 Q 261.292 -44.912 261.292 -45.813 Q 261.292 -46.578 261.596 -47.156 Q 261.9 -47.734 262.448 -48.057 Q 262.997 -48.381 263.732 -48.381 Z M 263.713 -47.93 L 263.713 -47.93 Q 263.066 -47.93 262.698 -47.406 Q 262.331 -46.881 262.331 -45.872 Q 262.331 -44.627 262.708 -44.113 Q 263.085 -43.598 263.762 -43.598 Q 264.193 -43.608 264.497 -43.814 Q 264.8 -44.02 264.962 -44.505 Q 265.124 -44.99 265.124 -45.823 Q 265.124 -46.823 264.781 -47.376 Q 264.438 -47.93 263.713 -47.93 Z " fill="black" /><path d="M 272.827 -43.736 L 272.827 -43.736 L 272.827 -43.363 L 271.504 -43.187 L 271.19 -43.187 L 271.19 -43.951 L 271.092 -43.951 Q 270.72 -43.618 270.337 -43.378 Q 269.955 -43.138 269.416 -43.138 Q 268.691 -43.138 268.309 -43.579 Q 267.927 -44.02 267.927 -45.108 L 267.927 -47.215 Q 267.927 -47.616 267.785 -47.71 Q 267.642 -47.803 267.192 -47.803 L 267.192 -48.155 L 268.554 -48.342 L 268.877 -48.342 L 268.877 -45.235 Q 268.877 -44.686 269.005 -44.382 Q 269.132 -44.079 269.348 -43.961 Q 269.563 -43.843 269.818 -43.843 Q 270.249 -43.843 270.538 -44.025 Q 270.827 -44.206 271.141 -44.461 L 271.141 -47.215 Q 271.141 -47.616 270.965 -47.71 Q 270.788 -47.803 270.288 -47.803 L 270.288 -48.155 L 271.749 -48.342 L 272.092 -48.342 L 272.092 -44.373 Q 272.092 -44.079 272.146 -43.941 Q 272.199 -43.804 272.337 -43.77 Q 272.474 -43.736 272.719 -43.736 Z " fill="black" /><path d="M 276.649 -44.216 L 276.649 -44.216 L 276.874 -44.03 Q 276.658 -43.736 276.482 -43.535 Q 276.306 -43.334 276.08 -43.226 Q 275.855 -43.118 275.502 -43.118 Q 274.934 -43.118 274.674 -43.442 Q 274.414 -43.765 274.414 -44.48 L 274.414 -47.773 L 273.797 -47.773 L 273.797 -48.067 Q 274.15 -48.322 274.444 -48.69 Q 274.738 -49.057 275.032 -49.743 L 275.375 -49.743 L 275.365 -48.253 L 276.609 -48.253 L 276.609 -47.773 L 275.365 -47.773 L 275.365 -44.804 Q 275.365 -44.255 275.468 -44.025 Q 275.571 -43.794 275.884 -43.794 Q 276.168 -43.794 276.315 -43.897 Q 276.462 -44 276.649 -44.216 Z " fill="black" /></g></g></g><g><g><g><path d="M 73.433 -79.142 L 73.433 -79.142 L 73.433 -88.34 L 76.387 -88.34 Q 77.339 -88.34 78.081 -88.088 Q 78.823 -87.836 79.243 -87.276 Q 79.663 -86.716 79.663 -85.764 Q 79.663 -84.658 79.089 -84.014 Q 78.515 -83.37 77.563 -83.146 L 79.943 -79.142 L 78.585 -79.142 L 76.331 -83.02 L 74.637 -83.02 L 74.637 -79.142 Z M 74.637 -83.986 L 74.637 -83.986 L 76.205 -83.986 Q 77.297 -83.986 77.885 -84.42 Q 78.473 -84.854 78.473 -85.75 Q 78.473 -86.646 77.885 -87.01 Q 77.297 -87.374 76.205 -87.374 L 74.637 -87.374 Z " fill="black" /><path d="M 81.595 -79.142 L 81.595 -79.142 L 81.595 -88.34 L 87.013 -88.34 L 87.013 -87.332 L 82.799 -87.332 L 82.799 -84.252 L 86.369 -84.252 L 86.369 -83.244 L 82.799 -83.244 L 82.799 -79.142 Z " fill="black" /><path d="M 94.349 -78.974 L 94.349 -78.974 Q 93.495 -78.974 92.802 -79.394 Q 92.109 -79.814 91.703 -80.591 Q 91.297 -81.368 91.297 -82.432 Q 91.297 -83.552 91.738 -84.336 Q 92.179 -85.12 92.9 -85.526 Q 93.621 -85.932 94.461 -85.932 Q 95.161 -85.932 95.616 -85.694 Q 96.071 -85.456 96.407 -85.162 L 95.833 -84.42 Q 95.539 -84.686 95.224 -84.84 Q 94.909 -84.994 94.503 -84.994 Q 93.915 -84.994 93.453 -84.672 Q 92.991 -84.35 92.725 -83.783 Q 92.459 -83.216 92.459 -82.446 Q 92.459 -81.312 93.026 -80.612 Q 93.593 -79.912 94.475 -79.912 Q 94.965 -79.912 95.35 -80.108 Q 95.735 -80.304 96.043 -80.57 L 96.533 -79.814 Q 96.085 -79.422 95.539 -79.198 Q 94.993 -78.974 94.349 -78.974 Z " fill="black" /><path d="M 97.961 -79.142 L 97.961 -79.142 L 97.961 -88.858 L 99.081 -88.858 L 99.081 -86.212 L 99.053 -84.84 Q 99.515 -85.288 100.026 -85.61 Q 100.537 -85.932 101.265 -85.932 Q 102.259 -85.932 102.756 -85.274 Q 103.253 -84.616 103.253 -83.342 L 103.253 -79.142 L 102.119 -79.142 L 102.119 -83.202 Q 102.119 -84.126 101.832 -84.539 Q 101.545 -84.952 100.901 -84.952 Q 100.383 -84.952 99.977 -84.7 Q 99.571 -84.448 99.081 -83.944 L 99.081 -79.142 Z " fill="black" /><path d="M 107.901 -78.974 L 107.901 -78.974 Q 107.103 -78.974 106.403 -79.387 Q 105.703 -79.8 105.276 -80.577 Q 104.849 -81.354 104.849 -82.46 Q 104.849 -83.566 105.276 -84.336 Q 105.703 -85.106 106.403 -85.519 Q 107.103 -85.932 107.901 -85.932 Q 108.713 -85.932 109.413 -85.519 Q 110.113 -85.106 110.54 -84.336 Q 110.967 -83.566 110.967 -82.46 Q 110.967 -81.354 110.54 -80.577 Q 110.113 -79.8 109.413 -79.387 Q 108.713 -78.974 107.901 -78.974 Z M 107.901 -79.912 L 107.901 -79.912 Q 108.755 -79.912 109.28 -80.612 Q 109.805 -81.312 109.805 -82.46 Q 109.805 -83.594 109.28 -84.294 Q 108.755 -84.994 107.901 -84.994 Q 107.061 -84.994 106.536 -84.294 Q 106.011 -83.594 106.011 -82.46 Q 106.011 -81.312 106.536 -80.612 Q 107.061 -79.912 107.901 -79.912 Z " fill="black" /><path d="M 112.689 -79.142 L 112.689 -79.142 L 112.689 -89.026 L 113.795 -89.026 L 113.795 -82.278 L 113.837 -82.278 L 116.637 -85.778 L 117.883 -85.778 L 115.671 -83.104 L 118.163 -79.142 L 116.945 -79.142 L 115.027 -82.32 L 113.795 -80.892 L 113.795 -79.142 Z " fill="black" /><path d="M 122.083 -78.974 L 122.083 -78.974 Q 121.201 -78.974 120.48 -79.387 Q 119.759 -79.8 119.332 -80.577 Q 118.905 -81.354 118.905 -82.432 Q 118.905 -83.524 119.325 -84.308 Q 119.745 -85.092 120.438 -85.512 Q 121.131 -85.932 121.943 -85.932 Q 123.119 -85.932 123.812 -85.092 Q 124.505 -84.252 124.505 -82.824 Q 124.505 -82.642 124.491 -82.481 Q 124.477 -82.32 124.449 -82.194 L 120.011 -82.194 Q 120.081 -81.13 120.669 -80.5 Q 121.257 -79.87 122.209 -79.87 Q 122.671 -79.87 123.077 -80.017 Q 123.483 -80.164 123.847 -80.402 L 124.239 -79.674 Q 123.805 -79.38 123.273 -79.177 Q 122.741 -78.974 122.083 -78.974 Z M 120.011 -82.992 L 120.011 -82.992 L 123.525 -82.992 Q 123.525 -83.986 123.098 -84.511 Q 122.671 -85.036 121.929 -85.036 Q 121.201 -85.036 120.662 -84.518 Q 120.123 -84 120.011 -82.992 Z " fill="black" /></g></g></g><g><g><g><path d="M 132.853 -142.69 L 132.853 -142.69 L 136.675 -148.43 Q 136.871 -148.71 136.99 -148.948 Q 137.109 -149.186 137.109 -149.354 Q 137.109 -149.564 136.927 -149.641 Q 136.745 -149.718 136.269 -149.718 L 136.297 -150.138 L 139.321 -150.138 L 139.293 -149.718 Q 138.915 -149.718 138.649 -149.606 Q 138.383 -149.494 138.11 -149.179 Q 137.837 -148.864 137.403 -148.22 L 132.265 -140.87 L 131.803 -140.87 L 131.019 -148.444 Q 130.935 -149.144 130.711 -149.431 Q 130.487 -149.718 129.927 -149.718 L 129.955 -150.138 L 133.385 -150.138 L 133.343 -149.718 Q 132.811 -149.718 132.503 -149.508 Q 132.195 -149.298 132.223 -148.822 Q 132.223 -148.752 132.244 -148.57 Q 132.265 -148.388 132.265 -148.318 L 132.685 -144.328 L 132.783 -142.69 Z " fill="black" /><path d="M 138.218 -144.889 L 138.218 -144.889 L 141.188 -144.889 Q 141.972 -144.889 142.687 -144.718 Q 143.402 -144.546 143.966 -144.154 Q 144.529 -143.762 144.858 -143.106 Q 145.186 -142.449 145.186 -141.469 Q 145.186 -140.548 144.887 -139.887 Q 144.588 -139.225 144.049 -138.809 Q 143.51 -138.392 142.795 -138.196 Q 142.079 -138 141.246 -138 L 138.218 -138 L 138.218 -138.372 Q 138.679 -138.372 138.894 -138.441 Q 139.11 -138.51 139.174 -138.72 Q 139.237 -138.931 139.237 -139.362 L 139.237 -143.615 Q 139.237 -144.017 139.144 -144.208 Q 139.051 -144.399 138.831 -144.458 Q 138.61 -144.517 138.218 -144.517 Z M 140.286 -144.399 L 140.286 -144.399 L 140.286 -138.47 Q 140.443 -138.461 140.595 -138.456 Q 140.747 -138.451 140.894 -138.451 Q 141.864 -138.451 142.545 -138.706 Q 143.226 -138.96 143.584 -139.597 Q 143.941 -140.234 143.941 -141.381 Q 143.941 -142.851 143.192 -143.63 Q 142.442 -144.409 140.815 -144.409 Q 140.678 -144.409 140.551 -144.409 Q 140.423 -144.409 140.286 -144.399 Z " fill="black" /><path d="M 146.372 -144.889 L 146.372 -144.889 L 149.341 -144.889 Q 150.125 -144.889 150.841 -144.718 Q 151.556 -144.546 152.119 -144.154 Q 152.683 -143.762 153.011 -143.106 Q 153.34 -142.449 153.34 -141.469 Q 153.34 -140.548 153.041 -139.887 Q 152.742 -139.225 152.203 -138.809 Q 151.664 -138.392 150.948 -138.196 Q 150.233 -138 149.4 -138 L 146.372 -138 L 146.372 -138.372 Q 146.832 -138.372 147.048 -138.441 Q 147.264 -138.51 147.327 -138.72 Q 147.391 -138.931 147.391 -139.362 L 147.391 -143.615 Q 147.391 -144.017 147.298 -144.208 Q 147.205 -144.399 146.984 -144.458 Q 146.764 -144.517 146.372 -144.517 Z M 148.44 -144.399 L 148.44 -144.399 L 148.44 -138.47 Q 148.596 -138.461 148.748 -138.456 Q 148.9 -138.451 149.047 -138.451 Q 150.017 -138.451 150.698 -138.706 Q 151.38 -138.96 151.737 -139.597 Q 152.095 -140.234 152.095 -141.381 Q 152.095 -142.851 151.345 -143.63 Q 150.596 -144.409 148.969 -144.409 Q 148.832 -144.409 148.704 -144.409 Q 148.577 -144.409 148.44 -144.399 Z " fill="black" /></g></g></g></svg>