<svg xmlns="http://www.w3.org/2000/svg" xmlns:xlink="http://www.w3.org/1999/xlink" xml:lang="en" height="270.36pt" width="209.86779999999996pt" viewBox="-25.510399999999994 -98.72 209.86779999999996 270.36"><path d="M 0.0,-0.0 L 18.0,-0.0 L 36.0,-0.0" style="stroke:black;fill:none;stroke-width:2.0;stroke-dasharray:-;stroke-linecap:round;stroke-linejoin:round;" /><path d="M 36.0,-0.0 L 36.0,-36.0 L 36.00000000000001,-72.0" style="stroke:black;fill:none;stroke-width:2.0;stroke-dasharray:-;stroke-linecap:round;stroke-linejoin:round;" /><path d="M 36.00000000000001,-72.0 L 68.76,-72.0 M 68.76,-81.0 L 68.76,-63.0 M 75.24000000000001,-81.0 L 75.24000000000001,-63.0 M 75.24000000000001,-72.0 L 108.0,-72.0" style="stroke:black;fill:none;stroke-width:2.0;stroke-dasharray:-;stroke-linecap:round;stroke-linejoin:round;" /><path d="M 108.0,-72.0 L 108.0,-54.0 L 117.0,-50.99999999999999 L 99.0,-45.0 L 117.0,-39.00000000000001 L 99.0,-33.0 L 117.0,-27.0 L 98.99999999999999,-21.000000000000007 L 107.99999999999999,-18.0 L 107.99999999999999,-0.0" style="stroke:black;fill:none;stroke-width:2.0;stroke-dasharray:-;stroke-linecap:round;stroke-linejoin:round;" /><path d="M 107.99999999999999,-0.0 L 107.99999999999999,14.4 L 98.99999999999999,14.4 L 116.99999999999999,14.4 M 101.69999999999999,18.72 L 114.29999999999998,18.72 M 106.19999999999999,23.04 L 109.79999999999998,23.04" style="stroke:black;fill:none;stroke-width:2.0;stroke-dasharray:-;stroke-linecap:round;stroke-linejoin:round;" /><path d="M 108.0,-72.0 L 126.0,-72.0 L 144.0,-72.0" style="stroke:black;fill:none;stroke-width:2.0;stroke-dasharray:-;stroke-linecap:round;stroke-linejoin:round;" /><path d="M 36.0,-0.0 L 35.99999999999999,36.0 L 35.999999999999986,72.0" style="stroke:black;fill:none;stroke-width:2.0;stroke-dasharray:-;stroke-linecap:round;stroke-linejoin:round;" /><path d="M 35.999999999999986,72.0 L 53.999999999999986,72.0 L 56.999999999999986,63.0 L 62.999999999999986,81.0 L 68.99999999999999,63.0 L 74.99999999999999,81.0 L 80.99999999999999,63.0 L 86.99999999999997,81.0 L 89.99999999999999,72.0 L 107.99999999999999,72.0" style="stroke:black;fill:none;stroke-width:2.0;stroke-dasharray:-;stroke-linecap:round;stroke-linejoin:round;" /><path d="M 107.99999999999999,72.0 L 107.99999999999999,104.76 M 116.99999999999999,104.76 L 98.99999999999999,104.76 M 116.99999999999999,111.24 L 98.99999999999997,111.24 M 107.99999999999999,111.24 L 107.99999999999997,144.0" style="stroke:black;fill:none;stroke-width:2.0;stroke-dasharray:-;stroke-linecap:round;stroke-linejoin:round;" /><path d="M 107.99999999999997,144.0 L 107.99999999999997,158.4 L 98.99999999999997,158.4 L 116.99999999999997,158.4 M 101.69999999999997,162.71999999999997 L 114.29999999999995,162.71999999999997 M 106.19999999999997,167.04 L 109.79999999999995,167.04" style="stroke:black;fill:none;stroke-width:2.0;stroke-dasharray:-;stroke-linecap:round;stroke-linejoin:round;" /><path d="M 107.99999999999999,72.0 L 125.99999999999999,72.0 L 143.99999999999997,72.0" style="stroke:black;fill:none;stroke-width:2.0;stroke-dasharray:-;stroke-linecap:round;stroke-linejoin:round;" /><circle cx="36.0" cy="-0.0" r="2.6999999999999997" style="stroke:black;fill:black;stroke-width:2.0;stroke-dasharray:-;" /><circle cx="0.0" cy="-0.0" r="2.6999999999999997" style="stroke:black;fill:white;stroke-width:2.0;stroke-dasharray:-;" /><g><g><g><path d="M -20.15 1.379 L -20.15 1.379 L -16.328 -4.361 Q -16.132 -4.641 -16.013 -4.879 Q -15.894 -5.117 -15.894 -5.285 Q -15.894 -5.495 -16.076 -5.572 Q -16.258 -5.649 -16.734 -5.649 L -16.706 -6.069 L -13.682 -6.069 L -13.71 -5.649 Q -14.088 -5.649 -14.354 -5.537 Q -14.62 -5.425 -14.893 -5.11 Q -15.166 -4.795 -15.6 -4.151 L -20.738 3.199 L -21.2 3.199 L -21.984 -4.375 Q -22.068 -5.075 -22.292 -5.362 Q -22.516 -5.649 -23.076 -5.649 L -23.048 -6.069 L -19.618 -6.069 L -19.66 -5.649 Q -20.192 -5.649 -20.5 -5.439 Q -20.808 -5.229 -20.78 -4.753 Q -20.78 -4.683 -20.759 -4.501 Q -20.738 -4.319 -20.738 -4.249 L -20.318 -0.259 L -20.22 1.379 Z " fill="black" /><path d="M -12.345 5.706 L -12.345 5.706 L -12.345 6.069 L -14.834 6.069 L -14.834 5.706 Q -14.491 5.706 -14.339 5.633 Q -14.188 5.559 -14.148 5.398 Q -14.109 5.236 -14.109 4.971 L -14.109 2.012 Q -14.109 1.679 -14.217 1.61 Q -14.325 1.541 -14.58 1.541 Q -14.707 1.541 -14.785 1.551 Q -14.864 1.561 -14.864 1.561 L -14.864 1.169 L -13.551 0.953 L -13.149 0.953 L -13.149 4.971 Q -13.149 5.256 -13.105 5.417 Q -13.061 5.579 -12.889 5.643 Q -12.718 5.706 -12.345 5.706 Z M -13.639 -1.212 L -13.639 -1.212 Q -13.355 -1.212 -13.163 -1.016 Q -12.972 -0.82 -12.972 -0.566 Q -12.972 -0.33 -13.163 -0.134 Q -13.355 0.062 -13.639 0.062 Q -13.913 0.062 -14.094 -0.134 Q -14.276 -0.33 -14.276 -0.566 Q -14.276 -0.82 -14.094 -1.016 Q -13.913 -1.212 -13.639 -1.212 Z " fill="black" /><path d="M -6.524 2.786 L -6.524 2.786 L -6.524 4.981 Q -6.524 5.256 -6.475 5.417 Q -6.426 5.579 -6.259 5.648 Q -6.093 5.716 -5.74 5.716 L -5.74 6.069 L -8.259 6.069 L -8.259 5.716 Q -7.886 5.716 -7.72 5.648 Q -7.553 5.579 -7.514 5.417 Q -7.475 5.256 -7.475 4.981 L -7.475 3.109 Q -7.475 2.453 -7.626 2.144 Q -7.778 1.835 -8.009 1.737 Q -8.239 1.639 -8.474 1.639 Q -8.896 1.639 -9.214 1.855 Q -9.533 2.071 -9.768 2.267 L -9.768 4.981 Q -9.768 5.256 -9.724 5.417 Q -9.68 5.579 -9.513 5.648 Q -9.346 5.716 -8.984 5.716 L -8.984 6.069 L -11.453 6.069 L -11.453 5.716 Q -11.11 5.716 -10.958 5.648 Q -10.807 5.579 -10.767 5.417 Q -10.728 5.256 -10.728 4.981 L -10.728 2.002 Q -10.728 1.728 -10.831 1.635 Q -10.934 1.541 -11.159 1.541 Q -11.277 1.541 -11.355 1.551 Q -11.434 1.561 -11.434 1.561 L -11.434 1.189 L -10.121 0.953 L -9.797 0.953 L -9.797 1.757 L -9.729 1.757 Q -9.307 1.375 -8.92 1.149 Q -8.533 0.924 -8.043 0.924 Q -7.465 0.924 -7.136 1.184 Q -6.808 1.443 -6.666 1.865 Q -6.524 2.286 -6.524 2.786 Z " fill="black" /></g></g></g><circle cx="108.0" cy="-72.0" r="2.6999999999999997" style="stroke:black;fill:black;stroke-width:2.0;stroke-dasharray:-;" /><g><g><g><path d="M 76.99 -86.784 L 76.99 -86.784 L 77.242 -86.518 Q 76.528 -85.678 75.59 -85.139 Q 74.652 -84.6 73.322 -84.6 Q 72.062 -84.6 71.306 -85.069 Q 70.55 -85.538 70.221 -86.322 Q 69.892 -87.106 69.892 -88.03 Q 69.892 -89.5 70.34 -90.641 Q 70.788 -91.782 71.565 -92.559 Q 72.342 -93.336 73.322 -93.735 Q 74.302 -94.134 75.366 -94.134 Q 76.08 -94.134 76.479 -94.008 Q 76.878 -93.882 77.102 -93.749 Q 77.326 -93.616 77.494 -93.616 Q 77.662 -93.616 77.788 -93.756 Q 77.914 -93.896 78.082 -94.12 L 78.488 -94.12 L 77.83 -90.914 L 77.368 -90.914 Q 77.424 -92.314 76.85 -92.923 Q 76.276 -93.532 75.24 -93.532 Q 74.428 -93.532 73.714 -93.161 Q 73 -92.79 72.447 -92.111 Q 71.894 -91.432 71.579 -90.487 Q 71.264 -89.542 71.264 -88.38 Q 71.264 -86.98 71.929 -86.245 Q 72.594 -85.51 73.98 -85.51 Q 75.59 -85.51 76.99 -86.784 Z " fill="black" /></g></g></g><g><g><g><path d="M 94.7 -38.667 L 94.7 -38.667 Q 94.7 -37.925 94.42 -37.421 Q 94.14 -36.917 93.692 -36.595 Q 93.244 -36.273 92.733 -36.098 Q 92.222 -35.923 91.76 -35.839 L 91.76 -35.769 Q 92.012 -35.601 92.236 -35.258 Q 92.46 -34.915 92.789 -34.271 Q 93.118 -33.627 93.692 -32.535 Q 93.93 -32.115 94.217 -31.968 Q 94.504 -31.821 94.98 -31.821 L 94.896 -31.401 L 92.768 -31.401 Q 92.376 -32.269 92.11 -32.85 Q 91.844 -33.431 91.648 -33.823 Q 91.452 -34.215 91.305 -34.523 Q 91.158 -34.831 90.99 -35.153 Q 90.836 -35.447 90.654 -35.538 Q 90.472 -35.629 90.094 -35.629 L 89.8 -35.629 L 89.282 -33.137 Q 89.17 -32.563 89.205 -32.276 Q 89.24 -31.989 89.52 -31.905 Q 89.8 -31.821 90.402 -31.821 L 90.332 -31.401 L 86.468 -31.401 L 86.552 -31.821 Q 87.07 -31.821 87.35 -31.905 Q 87.63 -31.989 87.777 -32.269 Q 87.924 -32.549 88.036 -33.137 L 89.268 -39.143 Q 89.352 -39.535 89.31 -39.759 Q 89.268 -39.983 89.023 -40.081 Q 88.778 -40.179 88.218 -40.179 L 88.302 -40.599 L 91.592 -40.599 Q 93.062 -40.599 93.881 -40.144 Q 94.7 -39.689 94.7 -38.667 Z M 90.682 -40.011 L 90.682 -40.011 L 89.898 -36.147 L 90.332 -36.133 Q 91.172 -36.161 91.851 -36.406 Q 92.53 -36.651 92.922 -37.183 Q 93.314 -37.715 93.314 -38.611 Q 93.314 -38.989 93.153 -39.318 Q 92.992 -39.647 92.6 -39.85 Q 92.208 -40.053 91.508 -40.053 Q 91.242 -40.053 91.081 -40.046 Q 90.92 -40.039 90.682 -40.011 Z " fill="black" /></g></g></g><circle cx="144.0" cy="-72.0" r="2.6999999999999997" style="stroke:black;fill:white;stroke-width:2.0;stroke-dasharray:-;" /><g><g><g><path d="M 154.178 -71.523 L 154.178 -71.523 L 158 -77.263 Q 158.196 -77.543 158.315 -77.781 Q 158.434 -78.019 158.434 -78.187 Q 158.434 -78.397 158.252 -78.474 Q 158.07 -78.551 157.594 -78.551 L 157.622 -78.971 L 160.646 -78.971 L 160.618 -78.551 Q 160.24 -78.551 159.974 -78.439 Q 159.708 -78.327 159.435 -78.012 Q 159.162 -77.697 158.728 -77.053 L 153.59 -69.703 L 153.128 -69.703 L 152.344 -77.277 Q 152.26 -77.977 152.036 -78.264 Q 151.812 -78.551 151.252 -78.551 L 151.28 -78.971 L 154.71 -78.971 L 154.668 -78.551 Q 154.136 -78.551 153.828 -78.341 Q 153.52 -78.131 153.548 -77.655 Q 153.548 -77.585 153.569 -77.403 Q 153.59 -77.221 153.59 -77.151 L 154.01 -73.161 L 154.108 -71.523 Z " fill="black" /><path d="M 160.566 -71.978 L 160.566 -71.978 Q 161.301 -71.978 161.85 -71.659 Q 162.399 -71.341 162.698 -70.767 Q 162.997 -70.194 162.997 -69.42 Q 162.997 -68.489 162.683 -67.891 Q 162.369 -67.293 161.821 -67.004 Q 161.272 -66.715 160.566 -66.715 Q 159.851 -66.715 159.297 -67.014 Q 158.743 -67.313 158.435 -67.911 Q 158.126 -68.508 158.126 -69.41 Q 158.126 -70.174 158.43 -70.753 Q 158.734 -71.331 159.282 -71.654 Q 159.831 -71.978 160.566 -71.978 Z M 160.547 -71.527 L 160.547 -71.527 Q 159.9 -71.527 159.532 -71.002 Q 159.165 -70.478 159.165 -69.469 Q 159.165 -68.224 159.542 -67.71 Q 159.919 -67.195 160.596 -67.195 Q 161.027 -67.205 161.331 -67.411 Q 161.634 -67.617 161.796 -68.102 Q 161.958 -68.587 161.958 -69.42 Q 161.958 -70.419 161.615 -70.973 Q 161.272 -71.527 160.547 -71.527 Z " fill="black" /><path d="M 169.661 -67.332 L 169.661 -67.332 L 169.661 -66.96 L 168.338 -66.784 L 168.024 -66.784 L 168.024 -67.548 L 167.926 -67.548 Q 167.554 -67.215 167.171 -66.975 Q 166.789 -66.735 166.25 -66.735 Q 165.525 -66.735 165.143 -67.176 Q 164.761 -67.617 164.761 -68.704 L 164.761 -70.811 Q 164.761 -71.213 164.618 -71.306 Q 164.476 -71.399 164.026 -71.399 L 164.026 -71.752 L 165.388 -71.938 L 165.711 -71.938 L 165.711 -68.832 Q 165.711 -68.283 165.839 -67.979 Q 165.966 -67.675 166.182 -67.558 Q 166.397 -67.44 166.652 -67.44 Q 167.083 -67.44 167.372 -67.621 Q 167.661 -67.803 167.975 -68.058 L 167.975 -70.811 Q 167.975 -71.213 167.799 -71.306 Q 167.622 -71.399 167.122 -71.399 L 167.122 -71.752 L 168.583 -71.938 L 168.926 -71.938 L 168.926 -67.969 Q 168.926 -67.675 168.98 -67.538 Q 169.033 -67.401 169.171 -67.367 Q 169.308 -67.332 169.553 -67.332 Z " fill="black" /><path d="M 173.483 -67.813 L 173.483 -67.813 L 173.708 -67.626 Q 173.492 -67.332 173.316 -67.132 Q 173.14 -66.931 172.914 -66.823 Q 172.689 -66.715 172.336 -66.715 Q 171.768 -66.715 171.508 -67.038 Q 171.248 -67.362 171.248 -68.077 L 171.248 -71.37 L 170.631 -71.37 L 170.631 -71.664 Q 170.984 -71.919 171.278 -72.286 Q 171.572 -72.654 171.866 -73.34 L 172.209 -73.34 L 172.199 -71.85 L 173.443 -71.85 L 173.443 -71.37 L 172.199 -71.37 L 172.199 -68.401 Q 172.199 -67.852 172.302 -67.621 Q 172.405 -67.391 172.718 -67.391 Q 173.002 -67.391 173.149 -67.494 Q 173.296 -67.597 173.483 -67.813 Z " fill="black" /><path d="M 174.796 -65.363 L 174.796 -65.363 L 174.629 -65.686 Q 174.835 -65.774 175.051 -65.916 Q 175.266 -66.058 175.408 -66.318 Q 175.55 -66.578 175.55 -66.999 Q 175.384 -66.931 175.207 -66.931 Q 174.884 -66.931 174.747 -67.122 Q 174.61 -67.313 174.61 -67.558 Q 174.61 -67.822 174.786 -68.018 Q 174.962 -68.214 175.296 -68.214 Q 175.717 -68.214 175.938 -67.955 Q 176.158 -67.695 176.158 -67.234 Q 176.158 -66.764 176.011 -66.436 Q 175.864 -66.107 175.643 -65.897 Q 175.423 -65.686 175.193 -65.564 Q 174.962 -65.441 174.796 -65.363 Z " fill="black" /><path d="M 183.704 -70.243 L 183.704 -70.243 Q 183.704 -68.9 183.052 -68.033 Q 182.401 -67.166 181.293 -66.872 L 181.293 -66.823 Q 181.656 -66.313 182.009 -66.014 Q 182.361 -65.715 182.793 -65.588 Q 183.224 -65.461 183.831 -65.461 L 183.831 -65.029 L 183.283 -65.029 Q 182.459 -65.029 181.881 -65.147 Q 181.303 -65.265 180.901 -65.544 Q 180.499 -65.823 180.205 -66.303 L 179.941 -66.715 Q 178.99 -66.784 178.28 -67.22 Q 177.569 -67.656 177.182 -68.435 Q 176.795 -69.214 176.795 -70.282 Q 176.795 -71.35 177.216 -72.149 Q 177.638 -72.948 178.417 -73.394 Q 179.196 -73.84 180.245 -73.84 Q 181.313 -73.84 182.087 -73.374 Q 182.861 -72.909 183.283 -72.1 Q 183.704 -71.292 183.704 -70.243 Z M 182.459 -70.38 L 182.459 -70.38 Q 182.459 -71.811 181.857 -72.575 Q 181.254 -73.34 180.235 -73.34 Q 179.225 -73.34 178.632 -72.566 Q 178.04 -71.791 178.04 -70.351 Q 178.04 -68.851 178.579 -68.038 Q 179.118 -67.225 180.254 -67.225 Q 181.391 -67.225 181.925 -68.013 Q 182.459 -68.802 182.459 -70.38 Z " fill="black" /></g></g></g><circle cx="107.99999999999999" cy="72.0" r="2.6999999999999997" style="stroke:black;fill:black;stroke-width:2.0;stroke-dasharray:-;" /><g><g><g><path d="M 77.116 52.134 L 77.116 52.134 Q 77.116 52.876 76.836 53.38 Q 76.556 53.884 76.108 54.206 Q 75.66 54.528 75.149 54.703 Q 74.638 54.878 74.176 54.962 L 74.176 55.032 Q 74.428 55.2 74.652 55.543 Q 74.876 55.886 75.205 56.53 Q 75.534 57.174 76.108 58.266 Q 76.346 58.686 76.633 58.833 Q 76.92 58.98 77.396 58.98 L 77.312 59.4 L 75.184 59.4 Q 74.792 58.532 74.526 57.951 Q 74.26 57.37 74.064 56.978 Q 73.868 56.586 73.721 56.278 Q 73.574 55.97 73.406 55.648 Q 73.252 55.354 73.07 55.263 Q 72.888 55.172 72.51 55.172 L 72.216 55.172 L 71.698 57.664 Q 71.586 58.238 71.621 58.525 Q 71.656 58.812 71.936 58.896 Q 72.216 58.98 72.818 58.98 L 72.748 59.4 L 68.884 59.4 L 68.968 58.98 Q 69.486 58.98 69.766 58.896 Q 70.046 58.812 70.193 58.532 Q 70.34 58.252 70.452 57.664 L 71.684 51.658 Q 71.768 51.266 71.726 51.042 Q 71.684 50.818 71.439 50.72 Q 71.194 50.622 70.634 50.622 L 70.718 50.202 L 74.008 50.202 Q 75.478 50.202 76.297 50.657 Q 77.116 51.112 77.116 52.134 Z M 73.098 50.79 L 73.098 50.79 L 72.314 54.654 L 72.748 54.668 Q 73.588 54.64 74.267 54.395 Q 74.946 54.15 75.338 53.618 Q 75.73 53.086 75.73 52.19 Q 75.73 51.812 75.569 51.483 Q 75.408 51.154 75.016 50.951 Q 74.624 50.748 73.924 50.748 Q 73.658 50.748 73.497 50.755 Q 73.336 50.762 73.098 50.79 Z " fill="black" /></g></g></g><g><g><g><path d="M 94.742 110.583 L 94.742 110.583 L 94.994 110.849 Q 94.28 111.689 93.342 112.228 Q 92.404 112.767 91.074 112.767 Q 89.814 112.767 89.058 112.298 Q 88.302 111.829 87.973 111.045 Q 87.644 110.261 87.644 109.337 Q 87.644 107.867 88.092 106.726 Q 88.54 105.585 89.317 104.808 Q 90.094 104.031 91.074 103.632 Q 92.054 103.233 93.118 103.233 Q 93.832 103.233 94.231 103.359 Q 94.63 103.485 94.854 103.618 Q 95.078 103.751 95.246 103.751 Q 95.414 103.751 95.54 103.611 Q 95.666 103.471 95.834 103.247 L 96.24 103.247 L 95.582 106.453 L 95.12 106.453 Q 95.176 105.053 94.602 104.444 Q 94.028 103.835 92.992 103.835 Q 92.18 103.835 91.466 104.206 Q 90.752 104.577 90.199 105.256 Q 89.646 105.935 89.331 106.88 Q 89.016 107.825 89.016 108.987 Q 89.016 110.387 89.681 111.122 Q 90.346 111.857 91.732 111.857 Q 93.342 111.857 94.742 110.583 Z " fill="black" /></g></g></g><circle cx="143.99999999999997" cy="72.0" r="2.6999999999999997" style="stroke:black;fill:white;stroke-width:2.0;stroke-dasharray:-;" /><g><g><g><path d="M 154.178 72.644 L 154.178 72.644 L 158 66.904 Q 158.196 66.624 158.315 66.386 Q 158.434 66.148 158.434 65.98 Q 158.434 65.77 158.252 65.693 Q 158.07 65.616 157.594 65.616 L 157.622 65.196 L 160.646 65.196 L 160.618 65.616 Q 160.24 65.616 159.974 65.728 Q 159.708 65.84 159.435 66.155 Q 159.162 66.47 158.728 67.114 L 153.59 74.464 L 153.128 74.464 L 152.344 66.89 Q 152.26 66.19 152.036 65.903 Q 151.812 65.616 151.252 65.616 L 151.28 65.196 L 154.71 65.196 L 154.668 65.616 Q 154.136 65.616 153.828 65.826 Q 153.52 66.036 153.548 66.512 Q 153.548 66.582 153.569 66.764 Q 153.59 66.946 153.59 67.016 L 154.01 71.006 L 154.108 72.644 Z " fill="black" /><path d="M 160.566 72.189 L 160.566 72.189 Q 161.301 72.189 161.85 72.508 Q 162.399 72.826 162.698 73.399 Q 162.997 73.973 162.997 74.747 Q 162.997 75.678 162.683 76.276 Q 162.369 76.873 161.821 77.163 Q 161.272 77.452 160.566 77.452 Q 159.851 77.452 159.297 77.153 Q 158.743 76.854 158.435 76.256 Q 158.126 75.658 158.126 74.757 Q 158.126 73.992 158.43 73.414 Q 158.734 72.836 159.282 72.512 Q 159.831 72.189 160.566 72.189 Z M 160.547 72.64 L 160.547 72.64 Q 159.9 72.64 159.532 73.164 Q 159.165 73.688 159.165 74.698 Q 159.165 75.942 159.542 76.457 Q 159.919 76.971 160.596 76.971 Q 161.027 76.962 161.331 76.756 Q 161.634 76.55 161.796 76.065 Q 161.958 75.58 161.958 74.747 Q 161.958 73.747 161.615 73.194 Q 161.272 72.64 160.547 72.64 Z " fill="black" /><path d="M 169.661 76.834 L 169.661 76.834 L 169.661 77.207 L 168.338 77.383 L 168.024 77.383 L 168.024 76.619 L 167.926 76.619 Q 167.554 76.952 167.171 77.192 Q 166.789 77.432 166.25 77.432 Q 165.525 77.432 165.143 76.991 Q 164.761 76.55 164.761 75.462 L 164.761 73.355 Q 164.761 72.953 164.618 72.86 Q 164.476 72.767 164.026 72.767 L 164.026 72.414 L 165.388 72.228 L 165.711 72.228 L 165.711 75.335 Q 165.711 75.884 165.839 76.187 Q 165.966 76.491 166.182 76.609 Q 166.397 76.726 166.652 76.726 Q 167.083 76.726 167.372 76.545 Q 167.661 76.364 167.975 76.109 L 167.975 73.355 Q 167.975 72.953 167.799 72.86 Q 167.622 72.767 167.122 72.767 L 167.122 72.414 L 168.583 72.228 L 168.926 72.228 L 168.926 76.197 Q 168.926 76.491 168.979 76.628 Q 169.033 76.766 169.171 76.8 Q 169.308 76.834 169.553 76.834 Z " fill="black" /><path d="M 173.483 76.354 L 173.483 76.354 L 173.708 76.54 Q 173.492 76.834 173.316 77.035 Q 173.14 77.236 172.914 77.344 Q 172.689 77.452 172.336 77.452 Q 171.768 77.452 171.508 77.128 Q 171.248 76.805 171.248 76.089 L 171.248 72.797 L 170.631 72.797 L 170.631 72.503 Q 170.984 72.248 171.278 71.88 Q 171.572 71.513 171.866 70.827 L 172.209 70.827 L 172.199 72.316 L 173.443 72.316 L 173.443 72.797 L 172.199 72.797 L 172.199 75.766 Q 172.199 76.315 172.302 76.545 Q 172.405 76.775 172.718 76.775 Q 173.002 76.775 173.149 76.672 Q 173.296 76.57 173.483 76.354 Z " fill="black" /><path d="M 174.796 78.804 L 174.796 78.804 L 174.629 78.481 Q 174.835 78.392 175.051 78.25 Q 175.266 78.108 175.408 77.849 Q 175.55 77.589 175.55 77.167 Q 175.384 77.236 175.207 77.236 Q 174.884 77.236 174.747 77.045 Q 174.61 76.854 174.61 76.609 Q 174.61 76.344 174.786 76.148 Q 174.962 75.952 175.296 75.952 Q 175.717 75.952 175.937 76.212 Q 176.158 76.472 176.158 76.932 Q 176.158 77.403 176.011 77.731 Q 175.864 78.059 175.643 78.27 Q 175.423 78.481 175.193 78.603 Q 174.962 78.726 174.796 78.804 Z " fill="black" /><path d="M 177.726 75.903 L 177.726 75.903 L 177.726 71.905 Q 177.726 71.493 177.677 71.253 Q 177.628 71.013 177.412 70.915 Q 177.197 70.817 176.697 70.817 L 176.697 70.445 L 179.784 70.445 L 179.784 70.817 Q 179.294 70.817 179.078 70.915 Q 178.863 71.013 178.814 71.253 Q 178.765 71.493 178.765 71.905 L 178.765 75.903 Q 178.765 76.334 178.828 76.565 Q 178.892 76.795 179.108 76.878 Q 179.323 76.962 179.784 76.962 L 179.784 77.334 L 176.697 77.334 L 176.697 76.962 Q 177.177 76.962 177.393 76.893 Q 177.608 76.824 177.667 76.594 Q 177.726 76.364 177.726 75.903 Z " fill="black" /></g></g></g></svg>