<svg xmlns="http://www.w3.org/2000/svg" xmlns:xlink="http://www.w3.org/1999/xlink" xml:lang="en" height="321.938pt" width="448.5814pt" viewBox="-113.29679999999999 -29.338 448.5814 321.938"><path d="M 0.0,-0.0 L 18.0,-0.0 L 21.0,-9.0 L 27.0,9.0 L 33.0,-9.0 L 39.0,9.0 L 45.0,-9.0 L 50.99999999999999,9.0 L 54.0,-0.0 L 72.0,-0.0" style="stroke:black;fill:none;stroke-width:2.0;stroke-dasharray:-;stroke-linecap:round;stroke-linejoin:round;" /><path d="M 0.0,72.0 L 18.0,72.0 L 21.0,63.0 L 27.0,81.0 L 33.0,63.0 L 39.0,81.0 L 45.0,63.0 L 50.99999999999999,81.0 L 54.0,72.0 L 72.0,72.0" style="stroke:black;fill:none;stroke-width:2.0;stroke-dasharray:-;stroke-linecap:round;stroke-linejoin:round;" /><path d="M 0.0,144.0 L 18.0,144.0 L 21.0,135.0 L 27.0,153.0 L 33.0,135.0 L 39.0,153.0 L 45.0,135.0 L 50.99999999999999,153.0 L 54.0,144.0 L 72.0,144.0" style="stroke:black;fill:none;stroke-width:2.0;stroke-dasharray:-;stroke-linecap:round;stroke-linejoin:round;" /><path d="M 0.0,216.0 L 18.0,216.0 L 21.0,207.0 L 27.0,225.0 L 33.0,207.0 L 39.0,225.0 L 45.0,207.0 L 50.99999999999999,225.0 L 54.0,216.0 L 72.0,216.0" style="stroke:black;fill:none;stroke-width:2.0;stroke-dasharray:-;stroke-linecap:round;stroke-linejoin:round;" /><path d="M 0.0,-0.0 L 33.70897402895559,33.70897402895558 M 40.07293505963452,27.34501299827666 L 27.345012998276662,40.07293505963452 M 44.65498700172335,31.92706494036548 L 31.92706494036549,44.65498700172334 M 38.29102597104442,38.291025971044405 L 72.0,71.99999999999999" style="stroke:black;fill:none;stroke-width:2.0;stroke-dasharray:-;stroke-linecap:round;stroke-linejoin:round;" /><path d="M 0.0,72.0 L 33.70897402895559,105.70897402895558 M 40.07293505963452,99.34501299827666 L 27.345012998276662,112.07293505963452 M 44.65498700172335,103.92706494036548 L 31.92706494036549,116.65498700172333 M 38.29102597104442,110.29102597104442 L 72.0,143.99999999999997" style="stroke:black;fill:none;stroke-width:2.0;stroke-dasharray:-;stroke-linecap:round;stroke-linejoin:round;" /><path d="M 0.0,144.0 L 33.70897402895559,177.7089740289556 M 40.07293505963452,171.34501299827667 L 27.345012998276662,184.07293505963452 M 44.65498700172335,175.92706494036548 L 31.92706494036549,188.65498700172333 M 38.29102597104442,182.2910259710444 L 72.0,216.0" style="stroke:black;fill:none;stroke-width:2.0;stroke-dasharray:-;stroke-linecap:round;stroke-linejoin:round;" /><path d="M 0.0,216.0 L 33.70897402895559,249.7089740289556 M 40.07293505963452,243.34501299827667 L 27.345012998276662,256.0729350596345 M 44.65498700172335,247.92706494036548 L 31.92706494036549,260.6549870017233 M 38.29102597104442,254.2910259710444 L 72.0,288.0" style="stroke:black;fill:none;stroke-width:2.0;stroke-dasharray:-;stroke-linecap:round;stroke-linejoin:round;" /><path d="M 72.0,288.0 L 90.0,288.0 L 108.0,288.0" style="stroke:black;fill:none;stroke-width:2.0;stroke-dasharray:-;stroke-linecap:round;stroke-linejoin:round;" /><path d="M 108.0,288.0 L 108.00000000000001,144.0 L 108.00000000000001,-0.0" style="stroke:black;fill:none;stroke-width:2.0;stroke-dasharray:-;stroke-linecap:round;stroke-linejoin:round;" /><path d="M 144.0,-0.0 L 162.0,-0.0 L 165.0,-9.0 L 171.0,9.0 L 177.0,-9.0 L 183.0,9.0 L 189.0,-9.0 L 194.99999999999997,9.0 L 198.0,-0.0 L 216.0,-0.0" style="stroke:black;fill:none;stroke-width:2.0;stroke-dasharray:-;stroke-linecap:round;stroke-linejoin:round;" /><path d="M 144.0,72.0 L 162.0,72.0 L 165.0,63.0 L 171.0,81.0 L 177.0,63.0 L 183.0,81.0 L 189.0,63.0 L 194.99999999999997,81.0 L 198.0,72.0 L 216.0,72.0" style="stroke:black;fill:none;stroke-width:2.0;stroke-dasharray:-;stroke-linecap:round;stroke-linejoin:round;" /><path d="M 144.0,144.0 L 162.0,144.0 L 165.0,135.0 L 171.0,153.0 L 177.0,135.0 L 183.0,153.0 L 189.0,135.0 L 194.99999999999997,153.0 L 198.0,144.0 L 216.0,144.0" style="stroke:black;fill:none;stroke-width:2.0;stroke-dasharray:-;stroke-linecap:round;stroke-linejoin:round;" /><path d="M 144.0,216.0 L 162.0,216.0 L 165.0,207.0 L 171.0,225.0 L 177.0,207.0 L 183.0,225.0 L 189.0,207.0 L 194.99999999999997,225.0 L 198.0,216.0 L 216.0,216.0" style="stroke:black;fill:none;stroke-width:2.0;stroke-dasharray:-;stroke-linecap:round;stroke-linejoin:round;" /><path d="M 144.0,-0.0 L 177.7089740289556,33.70897402895558 M 184.07293505963452,27.34501299827666 L 171.34501299827667,40.07293505963452 M 188.65498700172336,31.92706494036548 L 175.9270649403655,44.65498700172334 M 182.2910259710444,38.291025971044405 L 216.0,71.99999999999999" style="stroke:black;fill:none;stroke-width:2.0;stroke-dasharray:-;stroke-linecap:round;stroke-linejoin:round;" /><path d="M 144.0,72.0 L 177.7089740289556,105.70897402895558 M 184.07293505963452,99.34501299827666 L 171.34501299827667,112.07293505963452 M 188.65498700172336,103.92706494036548 L 175.9270649403655,116.65498700172333 M 182.2910259710444,110.29102597104442 L 216.0,143.99999999999997" style="stroke:black;fill:none;stroke-width:2.0;stroke-dasharray:-;stroke-linecap:round;stroke-linejoin:round;" /><path d="M 144.0,144.0 L 177.7089740289556,177.7089740289556 M 184.07293505963452,171.34501299827667 L 171.34501299827667,184.07293505963452 M 188.65498700172336,175.92706494036548 L 175.9270649403655,188.65498700172333 M 182.2910259710444,182.2910259710444 L 216.0,216.0" style="stroke:black;fill:none;stroke-width:2.0;stroke-dasharray:-;stroke-linecap:round;stroke-linejoin:round;" /><path d="M 144.0,216.0 L 177.7089740289556,249.7089740289556 M 184.07293505963452,243.34501299827667 L 171.34501299827667,256.0729350596345 M 188.65498700172336,247.92706494036548 L 175.9270649403655,260.6549870017233 M 182.2910259710444,254.2910259710444 L 216.0,288.0" style="stroke:black;fill:none;stroke-width:2.0;stroke-dasharray:-;stroke-linecap:round;stroke-linejoin:round;" /><path d="M 216.0,288.0 L 234.0,288.0 L 252.0,288.0" style="stroke:black;fill:none;stroke-width:2.0;stroke-dasharray:-;stroke-linecap:round;stroke-linejoin:round;" /><path d="M 252.0,288.0 L 252.0,144.0 L 252.00000000000003,-0.0" style="stroke:black;fill:none;stroke-width:2.0;stroke-dasharray:-;stroke-linecap:round;stroke-linejoin:round;" /><path d="M 0.0,-0.0 L -18.0,-2.204364238465236e-15 L -36.0,-4.408728476930472e-15" style="stroke:black;fill:none;stroke-width:2.0;stroke-dasharray:-;stroke-linecap:round;stroke-linejoin:round;" /><path d="M -36.0,-4.408728476930472e-15 L -54.0,-6.613092715395707e-15 L -72.0,-8.817456953860943e-15" style="stroke:black;fill:none;stroke-width:2.0;stroke-dasharray:-;stroke-linecap:round;stroke-linejoin:round;" /><path d="M 0.0,72.0 L -18.0,72.0 L -36.0,71.99999999999999" style="stroke:black;fill:none;stroke-width:2.0;stroke-dasharray:-;stroke-linecap:round;stroke-linejoin:round;" /><path d="M -36.0,71.99999999999999 L -35.99999999999999,35.99999999999999 L -35.99999999999999,-7.993605777301127e-15" style="stroke:black;fill:none;stroke-width:2.0;stroke-dasharray:-;stroke-linecap:round;stroke-linejoin:round;" /><path d="M 0.0,144.0 L -18.0,144.0 L -36.0,144.0" style="stroke:black;fill:none;stroke-width:2.0;stroke-dasharray:-;stroke-linecap:round;stroke-linejoin:round;" /><path d="M -36.0,144.0 L -54.0,144.0 L -72.0,144.0" style="stroke:black;fill:none;stroke-width:2.0;stroke-dasharray:-;stroke-linecap:round;stroke-linejoin:round;" /><path d="M 0.0,216.0 L -18.0,216.0 L -36.0,216.0" style="stroke:black;fill:none;stroke-width:2.0;stroke-dasharray:-;stroke-linecap:round;stroke-linejoin:round;" /><path d="M -36.0,216.0 L -35.99999999999999,180.0 L -35.99999999999999,144.0" style="stroke:black;fill:none;stroke-width:2.0;stroke-dasharray:-;stroke-linecap:round;stroke-linejoin:round;" /><path d="M 72.0,-0.0 L 108.0,-0.0 L 144.0,-0.0" style="stroke:black;fill:none;stroke-width:2.0;stroke-dasharray:-;stroke-linecap:round;stroke-linejoin:round;" /><path d="M 72.0,72.0 L 108.0,72.0 L 144.0,72.0" style="stroke:black;fill:none;stroke-width:2.0;stroke-dasharray:-;stroke-linecap:round;stroke-linejoin:round;" /><path d="M 72.0,144.0 L 108.0,144.0 L 144.0,144.0" style="stroke:black;fill:none;stroke-width:2.0;stroke-dasharray:-;stroke-linecap:round;stroke-linejoin:round;" /><path d="M 72.0,216.0 L 108.0,216.0 L 144.0,216.0" style="stroke:black;fill:none;stroke-width:2.0;stroke-dasharray:-;stroke-linecap:round;stroke-linejoin:round;" /><path d="M 216.0,-0.0 L 252.0,-0.0 L 288.0,-0.0" style="stroke:black;fill:none;stroke-width:2.0;stroke-dasharray:-;stroke-linecap:round;stroke-linejoin:round;" /><path d="M 216.0,72.0 L 252.0,72.0 L 288.0,72.0" style="stroke:black;fill:none;stroke-width:2.0;stroke-dasharray:-;stroke-linecap:round;stroke-linejoin:round;" /><path d="M 216.0,144.0 L 252.0,144.0 L 288.0,144.0" style="stroke:black;fill:none;stroke-width:2.0;stroke-dasharray:-;stroke-linecap:round;stroke-linejoin:round;" /><path d="M 216.0,216.0 L 252.0,216.0 L 288.0,216.0" style="stroke:black;fill:none;stroke-width:2.0;stroke-dasharray:-;stroke-linecap:round;stroke-linejoin:round;" /><circle cx="0.0" cy="-0.0" r="2.6999999999999997" style="stroke:black;fill:black;stroke-width:2.0;stroke-dasharray:-;" /><g><g><g><path d="M 35.747 -22.806 L 35.747 -22.806 Q 35.747 -22.064 35.467 -21.56 Q 35.187 -21.056 34.739 -20.734 Q 34.291 -20.412 33.78 -20.237 Q 33.269 -20.062 32.807 -19.978 L 32.807 -19.908 Q 33.059 -19.74 33.283 -19.397 Q 33.507 -19.054 33.836 -18.41 Q 34.165 -17.766 34.739 -16.674 Q 34.977 -16.254 35.264 -16.107 Q 35.551 -15.96 36.027 -15.96 L 35.943 -15.54 L 33.815 -15.54 Q 33.423 -16.408 33.157 -16.989 Q 32.891 -17.57 32.695 -17.962 Q 32.499 -18.354 32.352 -18.662 Q 32.205 -18.97 32.037 -19.292 Q 31.883 -19.586 31.701 -19.677 Q 31.519 -19.768 31.141 -19.768 L 30.847 -19.768 L 30.329 -17.276 Q 30.217 -16.702 30.252 -16.415 Q 30.287 -16.128 30.567 -16.044 Q 30.847 -15.96 31.449 -15.96 L 31.379 -15.54 L 27.515 -15.54 L 27.599 -15.96 Q 28.117 -15.96 28.397 -16.044 Q 28.677 -16.128 28.824 -16.408 Q 28.971 -16.688 29.083 -17.276 L 30.315 -23.282 Q 30.399 -23.674 30.357 -23.898 Q 30.315 -24.122 30.07 -24.22 Q 29.825 -24.318 29.265 -24.318 L 29.349 -24.738 L 32.639 -24.738 Q 34.109 -24.738 34.928 -24.283 Q 35.747 -23.828 35.747 -22.806 Z M 31.729 -24.15 L 31.729 -24.15 L 30.945 -20.286 L 31.379 -20.272 Q 32.219 -20.3 32.898 -20.545 Q 33.577 -20.79 33.969 -21.322 Q 34.361 -21.854 34.361 -22.75 Q 34.361 -23.128 34.2 -23.457 Q 34.039 -23.786 33.647 -23.989 Q 33.255 -24.192 32.555 -24.192 Q 32.289 -24.192 32.128 -24.185 Q 31.967 -24.178 31.729 -24.15 Z " fill="black" /><path d="M 40.904 -12.6 L 40.904 -12.6 L 37.582 -12.6 L 37.582 -12.953 Q 38.288 -12.953 38.518 -13.095 Q 38.748 -13.237 38.748 -13.609 L 38.748 -17.882 Q 38.748 -18.147 38.67 -18.264 Q 38.592 -18.382 38.386 -18.382 Q 38.229 -18.382 37.96 -18.338 Q 37.69 -18.294 37.494 -18.245 L 37.494 -18.637 L 39.307 -19.137 L 39.729 -19.137 L 39.729 -13.609 Q 39.729 -13.237 39.978 -13.095 Q 40.228 -12.953 40.904 -12.953 Z " fill="black" /></g></g></g><circle cx="72.0" cy="72.0" r="2.6999999999999997" style="stroke:black;fill:black;stroke-width:2.0;stroke-dasharray:-;" /><circle cx="0.0" cy="72.0" r="2.6999999999999997" style="stroke:black;fill:black;stroke-width:2.0;stroke-dasharray:-;" /><g><g><g><path d="M 37.097 49.194 L 37.097 49.194 Q 37.097 49.936 36.817 50.44 Q 36.537 50.944 36.089 51.266 Q 35.641 51.588 35.13 51.763 Q 34.619 51.938 34.157 52.022 L 34.157 52.092 Q 34.409 52.26 34.633 52.603 Q 34.857 52.946 35.186 53.59 Q 35.515 54.234 36.089 55.326 Q 36.327 55.746 36.614 55.893 Q 36.901 56.04 37.377 56.04 L 37.293 56.46 L 35.165 56.46 Q 34.773 55.592 34.507 55.011 Q 34.241 54.43 34.045 54.038 Q 33.849 53.646 33.702 53.338 Q 33.555 53.03 33.387 52.708 Q 33.233 52.414 33.051 52.323 Q 32.869 52.232 32.491 52.232 L 32.197 52.232 L 31.679 54.724 Q 31.567 55.298 31.602 55.585 Q 31.637 55.872 31.917 55.956 Q 32.197 56.04 32.799 56.04 L 32.729 56.46 L 28.865 56.46 L 28.949 56.04 Q 29.467 56.04 29.747 55.956 Q 30.027 55.872 30.174 55.592 Q 30.321 55.312 30.433 54.724 L 31.665 48.718 Q 31.749 48.326 31.707 48.102 Q 31.665 47.878 31.42 47.78 Q 31.175 47.682 30.615 47.682 L 30.699 47.262 L 33.989 47.262 Q 35.459 47.262 36.278 47.717 Q 37.097 48.172 37.097 49.194 Z M 33.079 47.85 L 33.079 47.85 L 32.295 51.714 L 32.729 51.728 Q 33.569 51.7 34.248 51.455 Q 34.927 51.21 35.319 50.678 Q 35.711 50.146 35.711 49.25 Q 35.711 48.872 35.55 48.543 Q 35.389 48.214 34.997 48.011 Q 34.605 47.808 33.905 47.808 Q 33.639 47.808 33.478 47.815 Q 33.317 47.822 33.079 47.85 Z " fill="black" /><path d="M 42.254 59.4 L 42.254 59.4 L 38.932 59.4 L 38.932 59.047 Q 39.638 59.047 39.868 58.905 Q 40.098 58.763 40.098 58.391 L 40.098 54.118 Q 40.098 53.853 40.02 53.736 Q 39.942 53.618 39.736 53.618 Q 39.579 53.618 39.31 53.662 Q 39.04 53.706 38.844 53.755 L 38.844 53.363 L 40.657 52.863 L 41.078 52.863 L 41.078 58.391 Q 41.078 58.763 41.328 58.905 Q 41.578 59.047 42.254 59.047 Z " fill="black" /></g></g></g><circle cx="72.0" cy="144.0" r="2.6999999999999997" style="stroke:black;fill:black;stroke-width:2.0;stroke-dasharray:-;" /><circle cx="0.0" cy="144.0" r="2.6999999999999997" style="stroke:black;fill:black;stroke-width:2.0;stroke-dasharray:-;" /><g><g><g><path d="M 37.097 121.194 L 37.097 121.194 Q 37.097 121.936 36.817 122.44 Q 36.537 122.944 36.089 123.266 Q 35.641 123.588 35.13 123.763 Q 34.619 123.938 34.157 124.022 L 34.157 124.092 Q 34.409 124.26 34.633 124.603 Q 34.857 124.946 35.186 125.59 Q 35.515 126.234 36.089 127.326 Q 36.327 127.746 36.614 127.893 Q 36.901 128.04 37.377 128.04 L 37.293 128.46 L 35.165 128.46 Q 34.773 127.592 34.507 127.011 Q 34.241 126.43 34.045 126.038 Q 33.849 125.646 33.702 125.338 Q 33.555 125.03 33.387 124.708 Q 33.233 124.414 33.051 124.323 Q 32.869 124.232 32.491 124.232 L 32.197 124.232 L 31.679 126.724 Q 31.567 127.298 31.602 127.585 Q 31.637 127.872 31.917 127.956 Q 32.197 128.04 32.799 128.04 L 32.729 128.46 L 28.865 128.46 L 28.949 128.04 Q 29.467 128.04 29.747 127.956 Q 30.027 127.872 30.174 127.592 Q 30.321 127.312 30.433 126.724 L 31.665 120.718 Q 31.749 120.326 31.707 120.102 Q 31.665 119.878 31.42 119.78 Q 31.175 119.682 30.615 119.682 L 30.699 119.262 L 33.989 119.262 Q 35.459 119.262 36.278 119.717 Q 37.097 120.172 37.097 121.194 Z M 33.079 119.85 L 33.079 119.85 L 32.295 123.714 L 32.729 123.728 Q 33.569 123.7 34.248 123.455 Q 34.927 123.21 35.319 122.678 Q 35.711 122.146 35.711 121.25 Q 35.711 120.872 35.55 120.543 Q 35.389 120.214 34.997 120.011 Q 34.605 119.808 33.905 119.808 Q 33.639 119.808 33.478 119.815 Q 33.317 119.822 33.079 119.85 Z " fill="black" /><path d="M 42.254 131.4 L 42.254 131.4 L 38.932 131.4 L 38.932 131.047 Q 39.638 131.047 39.868 130.905 Q 40.098 130.763 40.098 130.391 L 40.098 126.118 Q 40.098 125.853 40.02 125.736 Q 39.942 125.618 39.736 125.618 Q 39.579 125.618 39.31 125.662 Q 39.04 125.706 38.844 125.755 L 38.844 125.363 L 40.657 124.863 L 41.078 124.863 L 41.078 130.391 Q 41.078 130.763 41.328 130.905 Q 41.578 131.047 42.254 131.047 Z " fill="black" /></g></g></g><circle cx="72.0" cy="216.0" r="2.6999999999999997" style="stroke:black;fill:black;stroke-width:2.0;stroke-dasharray:-;" /><circle cx="0.0" cy="216.0" r="2.6999999999999997" style="stroke:black;fill:black;stroke-width:2.0;stroke-dasharray:-;" /><g><g><g><path d="M 37.097 193.194 L 37.097 193.194 Q 37.097 193.936 36.817 194.44 Q 36.537 194.944 36.089 195.266 Q 35.641 195.588 35.13 195.763 Q 34.619 195.938 34.157 196.022 L 34.157 196.092 Q 34.409 196.26 34.633 196.603 Q 34.857 196.946 35.186 197.59 Q 35.515 198.234 36.089 199.326 Q 36.327 199.746 36.614 199.893 Q 36.901 200.04 37.377 200.04 L 37.293 200.46 L 35.165 200.46 Q 34.773 199.592 34.507 199.011 Q 34.241 198.43 34.045 198.038 Q 33.849 197.646 33.702 197.338 Q 33.555 197.03 33.387 196.708 Q 33.233 196.414 33.051 196.323 Q 32.869 196.232 32.491 196.232 L 32.197 196.232 L 31.679 198.724 Q 31.567 199.298 31.602 199.585 Q 31.637 199.872 31.917 199.956 Q 32.197 200.04 32.799 200.04 L 32.729 200.46 L 28.865 200.46 L 28.949 200.04 Q 29.467 200.04 29.747 199.956 Q 30.027 199.872 30.174 199.592 Q 30.321 199.312 30.433 198.724 L 31.665 192.718 Q 31.749 192.326 31.707 192.102 Q 31.665 191.878 31.42 191.78 Q 31.175 191.682 30.615 191.682 L 30.699 191.262 L 33.989 191.262 Q 35.459 191.262 36.278 191.717 Q 37.097 192.172 37.097 193.194 Z M 33.079 191.85 L 33.079 191.85 L 32.295 195.714 L 32.729 195.728 Q 33.569 195.7 34.248 195.455 Q 34.927 195.21 35.319 194.678 Q 35.711 194.146 35.711 193.25 Q 35.711 192.872 35.55 192.543 Q 35.389 192.214 34.997 192.011 Q 34.605 191.808 33.905 191.808 Q 33.639 191.808 33.478 191.815 Q 33.317 191.822 33.079 191.85 Z " fill="black" /><path d="M 42.254 203.4 L 42.254 203.4 L 38.932 203.4 L 38.932 203.047 Q 39.638 203.047 39.868 202.905 Q 40.098 202.763 40.098 202.391 L 40.098 198.118 Q 40.098 197.853 40.02 197.736 Q 39.942 197.618 39.736 197.618 Q 39.579 197.618 39.31 197.662 Q 39.04 197.706 38.844 197.755 L 38.844 197.363 L 40.657 196.863 L 41.078 196.863 L 41.078 202.391 Q 41.078 202.763 41.328 202.905 Q 41.578 203.047 42.254 203.047 Z " fill="black" /></g></g></g><g><g><g><path d="M 52.848 22.12 L 52.848 22.12 L 53.1 22.386 Q 52.386 23.226 51.448 23.765 Q 50.51 24.304 49.18 24.304 Q 47.92 24.304 47.164 23.835 Q 46.408 23.366 46.079 22.582 Q 45.75 21.798 45.75 20.874 Q 45.75 19.404 46.198 18.263 Q 46.646 17.122 47.423 16.345 Q 48.2 15.568 49.18 15.169 Q 50.16 14.77 51.224 14.77 Q 51.938 14.77 52.337 14.896 Q 52.736 15.022 52.96 15.155 Q 53.184 15.288 53.352 15.288 Q 53.52 15.288 53.646 15.148 Q 53.772 15.008 53.94 14.784 L 54.346 14.784 L 53.688 17.99 L 53.226 17.99 Q 53.282 16.59 52.708 15.981 Q 52.134 15.372 51.098 15.372 Q 50.286 15.372 49.572 15.743 Q 48.858 16.114 48.305 16.793 Q 47.752 17.472 47.437 18.417 Q 47.122 19.362 47.122 20.524 Q 47.122 21.924 47.787 22.659 Q 48.452 23.394 49.838 23.394 Q 51.448 23.394 52.848 22.12 Z " fill="black" /><path d="M 58.131 27.09 L 58.131 27.09 L 54.809 27.09 L 54.809 26.738 Q 55.515 26.738 55.745 26.596 Q 55.975 26.453 55.975 26.081 L 55.975 21.808 Q 55.975 21.544 55.897 21.426 Q 55.818 21.308 55.613 21.308 Q 55.456 21.308 55.186 21.353 Q 54.917 21.397 54.721 21.446 L 54.721 21.054 L 56.534 20.554 L 56.955 20.554 L 56.955 26.081 Q 56.955 26.453 57.205 26.596 Q 57.455 26.738 58.131 26.738 Z " fill="black" /></g></g></g><g><g><g><path d="M 52.848 94.12 L 52.848 94.12 L 53.1 94.386 Q 52.386 95.226 51.448 95.765 Q 50.51 96.304 49.18 96.304 Q 47.92 96.304 47.164 95.835 Q 46.408 95.366 46.079 94.582 Q 45.75 93.798 45.75 92.874 Q 45.75 91.404 46.198 90.263 Q 46.646 89.122 47.423 88.345 Q 48.2 87.568 49.18 87.169 Q 50.16 86.77 51.224 86.77 Q 51.938 86.77 52.337 86.896 Q 52.736 87.022 52.96 87.155 Q 53.184 87.288 53.352 87.288 Q 53.52 87.288 53.646 87.148 Q 53.772 87.008 53.94 86.784 L 54.346 86.784 L 53.688 89.99 L 53.226 89.99 Q 53.282 88.59 52.708 87.981 Q 52.134 87.372 51.098 87.372 Q 50.286 87.372 49.572 87.743 Q 48.858 88.114 48.305 88.793 Q 47.752 89.472 47.437 90.417 Q 47.122 91.362 47.122 92.524 Q 47.122 93.924 47.787 94.659 Q 48.452 95.394 49.838 95.394 Q 51.448 95.394 52.848 94.12 Z " fill="black" /><path d="M 58.131 99.09 L 58.131 99.09 L 54.809 99.09 L 54.809 98.738 Q 55.515 98.738 55.745 98.596 Q 55.975 98.453 55.975 98.081 L 55.975 93.808 Q 55.975 93.544 55.897 93.426 Q 55.818 93.308 55.613 93.308 Q 55.456 93.308 55.186 93.353 Q 54.917 93.397 54.721 93.446 L 54.721 93.054 L 56.534 92.554 L 56.955 92.554 L 56.955 98.081 Q 56.955 98.453 57.205 98.596 Q 57.455 98.738 58.131 98.738 Z " fill="black" /></g></g></g><g><g><g><path d="M 52.848 166.12 L 52.848 166.12 L 53.1 166.386 Q 52.386 167.226 51.448 167.765 Q 50.51 168.304 49.18 168.304 Q 47.92 168.304 47.164 167.835 Q 46.408 167.366 46.079 166.582 Q 45.75 165.798 45.75 164.874 Q 45.75 163.404 46.198 162.263 Q 46.646 161.122 47.423 160.345 Q 48.2 159.568 49.18 159.169 Q 50.16 158.77 51.224 158.77 Q 51.938 158.77 52.337 158.896 Q 52.736 159.022 52.96 159.155 Q 53.184 159.288 53.352 159.288 Q 53.52 159.288 53.646 159.148 Q 53.772 159.008 53.94 158.784 L 54.346 158.784 L 53.688 161.99 L 53.226 161.99 Q 53.282 160.59 52.708 159.981 Q 52.134 159.372 51.098 159.372 Q 50.286 159.372 49.572 159.743 Q 48.858 160.114 48.305 160.793 Q 47.752 161.472 47.437 162.417 Q 47.122 163.362 47.122 164.524 Q 47.122 165.924 47.787 166.659 Q 48.452 167.394 49.838 167.394 Q 51.448 167.394 52.848 166.12 Z " fill="black" /><path d="M 58.131 171.09 L 58.131 171.09 L 54.809 171.09 L 54.809 170.738 Q 55.515 170.738 55.745 170.596 Q 55.975 170.453 55.975 170.081 L 55.975 165.808 Q 55.975 165.544 55.897 165.426 Q 55.818 165.308 55.613 165.308 Q 55.456 165.308 55.186 165.353 Q 54.917 165.397 54.721 165.446 L 54.721 165.054 L 56.534 164.554 L 56.955 164.554 L 56.955 170.081 Q 56.955 170.453 57.205 170.596 Q 57.455 170.738 58.131 170.738 Z " fill="black" /></g></g></g><g><g><g><path d="M 52.848 238.12 L 52.848 238.12 L 53.1 238.386 Q 52.386 239.226 51.448 239.765 Q 50.51 240.304 49.18 240.304 Q 47.92 240.304 47.164 239.835 Q 46.408 239.366 46.079 238.582 Q 45.75 237.798 45.75 236.874 Q 45.75 235.404 46.198 234.263 Q 46.646 233.122 47.423 232.345 Q 48.2 231.568 49.18 231.169 Q 50.16 230.77 51.224 230.77 Q 51.938 230.77 52.337 230.896 Q 52.736 231.022 52.96 231.155 Q 53.184 231.288 53.352 231.288 Q 53.52 231.288 53.646 231.148 Q 53.772 231.008 53.94 230.784 L 54.346 230.784 L 53.688 233.99 L 53.226 233.99 Q 53.282 232.59 52.708 231.981 Q 52.134 231.372 51.098 231.372 Q 50.286 231.372 49.572 231.743 Q 48.858 232.114 48.305 232.793 Q 47.752 233.472 47.437 234.417 Q 47.122 235.362 47.122 236.524 Q 47.122 237.924 47.787 238.659 Q 48.452 239.394 49.838 239.394 Q 51.448 239.394 52.848 238.12 Z " fill="black" /><path d="M 58.131 243.09 L 58.131 243.09 L 54.809 243.09 L 54.809 242.738 Q 55.515 242.738 55.745 242.596 Q 55.975 242.453 55.975 242.081 L 55.975 237.808 Q 55.975 237.544 55.897 237.426 Q 55.818 237.308 55.613 237.308 Q 55.456 237.308 55.186 237.353 Q 54.917 237.397 54.721 237.446 L 54.721 237.054 L 56.534 236.554 L 56.955 236.554 L 56.955 242.081 Q 56.955 242.453 57.205 242.596 Q 57.455 242.738 58.131 242.738 Z " fill="black" /></g></g></g><circle cx="108.00000000000001" cy="-0.0" r="2.6999999999999997" style="stroke:black;fill:black;stroke-width:2.0;stroke-dasharray:-;" /><circle cx="144.0" cy="-0.0" r="2.6999999999999997" style="stroke:black;fill:black;stroke-width:2.0;stroke-dasharray:-;" /><g><g><g><path d="M 179.673 -22.806 L 179.673 -22.806 Q 179.673 -22.064 179.393 -21.56 Q 179.113 -21.056 178.665 -20.734 Q 178.217 -20.412 177.706 -20.237 Q 177.195 -20.062 176.733 -19.978 L 176.733 -19.908 Q 176.985 -19.74 177.209 -19.397 Q 177.433 -19.054 177.762 -18.41 Q 178.091 -17.766 178.665 -16.674 Q 178.903 -16.254 179.19 -16.107 Q 179.477 -15.96 179.953 -15.96 L 179.869 -15.54 L 177.741 -15.54 Q 177.349 -16.408 177.083 -16.989 Q 176.817 -17.57 176.621 -17.962 Q 176.425 -18.354 176.278 -18.662 Q 176.131 -18.97 175.963 -19.292 Q 175.809 -19.586 175.627 -19.677 Q 175.445 -19.768 175.067 -19.768 L 174.773 -19.768 L 174.255 -17.276 Q 174.143 -16.702 174.178 -16.415 Q 174.213 -16.128 174.493 -16.044 Q 174.773 -15.96 175.375 -15.96 L 175.305 -15.54 L 171.441 -15.54 L 171.525 -15.96 Q 172.043 -15.96 172.323 -16.044 Q 172.603 -16.128 172.75 -16.408 Q 172.897 -16.688 173.009 -17.276 L 174.241 -23.282 Q 174.325 -23.674 174.283 -23.898 Q 174.241 -24.122 173.996 -24.22 Q 173.751 -24.318 173.191 -24.318 L 173.275 -24.738 L 176.565 -24.738 Q 178.035 -24.738 178.854 -24.283 Q 179.673 -23.828 179.673 -22.806 Z M 175.655 -24.15 L 175.655 -24.15 L 174.871 -20.286 L 175.305 -20.272 Q 176.145 -20.3 176.824 -20.545 Q 177.503 -20.79 177.895 -21.322 Q 178.287 -21.854 178.287 -22.75 Q 178.287 -23.128 178.126 -23.457 Q 177.965 -23.786 177.573 -23.989 Q 177.181 -24.192 176.481 -24.192 Q 176.215 -24.192 176.054 -24.185 Q 175.893 -24.178 175.655 -24.15 Z " fill="black" /><path d="M 185.39 -14.305 L 185.39 -14.305 L 185.056 -12.6 L 181.038 -12.6 L 181.038 -13.08 L 182.43 -14.491 Q 182.979 -15.04 183.337 -15.462 Q 183.694 -15.883 183.871 -16.309 Q 184.047 -16.736 184.047 -17.284 Q 184.047 -17.804 183.729 -18.142 Q 183.41 -18.48 182.832 -18.48 Q 182.303 -18.48 181.945 -18.269 Q 181.587 -18.059 181.313 -17.578 L 181.048 -17.706 Q 181.293 -18.392 181.808 -18.784 Q 182.322 -19.176 183.077 -19.176 Q 183.665 -19.176 184.116 -18.965 Q 184.566 -18.754 184.821 -18.362 Q 185.076 -17.97 185.076 -17.412 Q 185.076 -16.932 184.86 -16.51 Q 184.645 -16.089 184.248 -15.648 Q 183.851 -15.207 183.302 -14.668 L 182.077 -13.482 L 182.077 -13.413 L 182.842 -13.453 L 184.116 -13.453 Q 184.4 -13.453 184.552 -13.531 Q 184.704 -13.609 184.811 -13.8 Q 184.919 -13.992 185.047 -14.305 Z " fill="black" /></g></g></g><circle cx="216.0" cy="72.0" r="2.6999999999999997" style="stroke:black;fill:black;stroke-width:2.0;stroke-dasharray:-;" /><circle cx="144.0" cy="72.0" r="2.6999999999999997" style="stroke:black;fill:black;stroke-width:2.0;stroke-dasharray:-;" /><g><g><g><path d="M 181.023 49.194 L 181.023 49.194 Q 181.023 49.936 180.743 50.44 Q 180.463 50.944 180.015 51.266 Q 179.567 51.588 179.056 51.763 Q 178.545 51.938 178.083 52.022 L 178.083 52.092 Q 178.335 52.26 178.559 52.603 Q 178.783 52.946 179.112 53.59 Q 179.441 54.234 180.015 55.326 Q 180.253 55.746 180.54 55.893 Q 180.827 56.04 181.303 56.04 L 181.219 56.46 L 179.091 56.46 Q 178.699 55.592 178.433 55.011 Q 178.167 54.43 177.971 54.038 Q 177.775 53.646 177.628 53.338 Q 177.481 53.03 177.313 52.708 Q 177.159 52.414 176.977 52.323 Q 176.795 52.232 176.417 52.232 L 176.123 52.232 L 175.605 54.724 Q 175.493 55.298 175.528 55.585 Q 175.563 55.872 175.843 55.956 Q 176.123 56.04 176.725 56.04 L 176.655 56.46 L 172.791 56.46 L 172.875 56.04 Q 173.393 56.04 173.673 55.956 Q 173.953 55.872 174.1 55.592 Q 174.247 55.312 174.359 54.724 L 175.591 48.718 Q 175.675 48.326 175.633 48.102 Q 175.591 47.878 175.346 47.78 Q 175.101 47.682 174.541 47.682 L 174.625 47.262 L 177.915 47.262 Q 179.385 47.262 180.204 47.717 Q 181.023 48.172 181.023 49.194 Z M 177.005 47.85 L 177.005 47.85 L 176.221 51.714 L 176.655 51.728 Q 177.495 51.7 178.174 51.455 Q 178.853 51.21 179.245 50.678 Q 179.637 50.146 179.637 49.25 Q 179.637 48.872 179.476 48.543 Q 179.315 48.214 178.923 48.011 Q 178.531 47.808 177.831 47.808 Q 177.565 47.808 177.404 47.815 Q 177.243 47.822 177.005 47.85 Z " fill="black" /><path d="M 186.74 57.695 L 186.74 57.695 L 186.406 59.4 L 182.388 59.4 L 182.388 58.92 L 183.78 57.509 Q 184.329 56.96 184.687 56.538 Q 185.044 56.117 185.221 55.691 Q 185.397 55.264 185.397 54.716 Q 185.397 54.196 185.079 53.858 Q 184.76 53.52 184.182 53.52 Q 183.653 53.52 183.295 53.731 Q 182.937 53.941 182.663 54.422 L 182.398 54.294 Q 182.643 53.608 183.158 53.216 Q 183.672 52.824 184.427 52.824 Q 185.015 52.824 185.466 53.035 Q 185.916 53.246 186.171 53.638 Q 186.426 54.03 186.426 54.588 Q 186.426 55.068 186.21 55.49 Q 185.995 55.911 185.598 56.352 Q 185.201 56.793 184.652 57.332 L 183.427 58.518 L 183.427 58.587 L 184.192 58.547 L 185.466 58.547 Q 185.75 58.547 185.902 58.469 Q 186.054 58.391 186.161 58.2 Q 186.269 58.008 186.397 57.695 Z " fill="black" /></g></g></g><circle cx="216.0" cy="144.0" r="2.6999999999999997" style="stroke:black;fill:black;stroke-width:2.0;stroke-dasharray:-;" /><circle cx="144.0" cy="144.0" r="2.6999999999999997" style="stroke:black;fill:black;stroke-width:2.0;stroke-dasharray:-;" /><g><g><g><path d="M 181.023 121.194 L 181.023 121.194 Q 181.023 121.936 180.743 122.44 Q 180.463 122.944 180.015 123.266 Q 179.567 123.588 179.056 123.763 Q 178.545 123.938 178.083 124.022 L 178.083 124.092 Q 178.335 124.26 178.559 124.603 Q 178.783 124.946 179.112 125.59 Q 179.441 126.234 180.015 127.326 Q 180.253 127.746 180.54 127.893 Q 180.827 128.04 181.303 128.04 L 181.219 128.46 L 179.091 128.46 Q 178.699 127.592 178.433 127.011 Q 178.167 126.43 177.971 126.038 Q 177.775 125.646 177.628 125.338 Q 177.481 125.03 177.313 124.708 Q 177.159 124.414 176.977 124.323 Q 176.795 124.232 176.417 124.232 L 176.123 124.232 L 175.605 126.724 Q 175.493 127.298 175.528 127.585 Q 175.563 127.872 175.843 127.956 Q 176.123 128.04 176.725 128.04 L 176.655 128.46 L 172.791 128.46 L 172.875 128.04 Q 173.393 128.04 173.673 127.956 Q 173.953 127.872 174.1 127.592 Q 174.247 127.312 174.359 126.724 L 175.591 120.718 Q 175.675 120.326 175.633 120.102 Q 175.591 119.878 175.346 119.78 Q 175.101 119.682 174.541 119.682 L 174.625 119.262 L 177.915 119.262 Q 179.385 119.262 180.204 119.717 Q 181.023 120.172 181.023 121.194 Z M 177.005 119.85 L 177.005 119.85 L 176.221 123.714 L 176.655 123.728 Q 177.495 123.7 178.174 123.455 Q 178.853 123.21 179.245 122.678 Q 179.637 122.146 179.637 121.25 Q 179.637 120.872 179.476 120.543 Q 179.315 120.214 178.923 120.011 Q 178.531 119.808 177.831 119.808 Q 177.565 119.808 177.404 119.815 Q 177.243 119.822 177.005 119.85 Z " fill="black" /><path d="M 186.74 129.695 L 186.74 129.695 L 186.406 131.4 L 182.388 131.4 L 182.388 130.92 L 183.78 129.509 Q 184.329 128.96 184.687 128.538 Q 185.044 128.117 185.221 127.691 Q 185.397 127.264 185.397 126.716 Q 185.397 126.196 185.079 125.858 Q 184.76 125.52 184.182 125.52 Q 183.653 125.52 183.295 125.731 Q 182.937 125.941 182.663 126.422 L 182.398 126.294 Q 182.643 125.608 183.158 125.216 Q 183.672 124.824 184.427 124.824 Q 185.015 124.824 185.466 125.035 Q 185.916 125.246 186.171 125.638 Q 186.426 126.03 186.426 126.588 Q 186.426 127.068 186.21 127.49 Q 185.995 127.911 185.598 128.352 Q 185.201 128.793 184.652 129.332 L 183.427 130.518 L 183.427 130.587 L 184.192 130.547 L 185.466 130.547 Q 185.75 130.547 185.902 130.469 Q 186.054 130.391 186.161 130.2 Q 186.269 130.008 186.397 129.695 Z " fill="black" /></g></g></g><circle cx="216.0" cy="216.0" r="2.6999999999999997" style="stroke:black;fill:black;stroke-width:2.0;stroke-dasharray:-;" /><circle cx="144.0" cy="216.0" r="2.6999999999999997" style="stroke:black;fill:black;stroke-width:2.0;stroke-dasharray:-;" /><g><g><g><path d="M 181.023 193.194 L 181.023 193.194 Q 181.023 193.936 180.743 194.44 Q 180.463 194.944 180.015 195.266 Q 179.567 195.588 179.056 195.763 Q 178.545 195.938 178.083 196.022 L 178.083 196.092 Q 178.335 196.26 178.559 196.603 Q 178.783 196.946 179.112 197.59 Q 179.441 198.234 180.015 199.326 Q 180.253 199.746 180.54 199.893 Q 180.827 200.04 181.303 200.04 L 181.219 200.46 L 179.091 200.46 Q 178.699 199.592 178.433 199.011 Q 178.167 198.43 177.971 198.038 Q 177.775 197.646 177.628 197.338 Q 177.481 197.03 177.313 196.708 Q 177.159 196.414 176.977 196.323 Q 176.795 196.232 176.417 196.232 L 176.123 196.232 L 175.605 198.724 Q 175.493 199.298 175.528 199.585 Q 175.563 199.872 175.843 199.956 Q 176.123 200.04 176.725 200.04 L 176.655 200.46 L 172.791 200.46 L 172.875 200.04 Q 173.393 200.04 173.673 199.956 Q 173.953 199.872 174.1 199.592 Q 174.247 199.312 174.359 198.724 L 175.591 192.718 Q 175.675 192.326 175.633 192.102 Q 175.591 191.878 175.346 191.78 Q 175.101 191.682 174.541 191.682 L 174.625 191.262 L 177.915 191.262 Q 179.385 191.262 180.204 191.717 Q 181.023 192.172 181.023 193.194 Z M 177.005 191.85 L 177.005 191.85 L 176.221 195.714 L 176.655 195.728 Q 177.495 195.7 178.174 195.455 Q 178.853 195.21 179.245 194.678 Q 179.637 194.146 179.637 193.25 Q 179.637 192.872 179.476 192.543 Q 179.315 192.214 178.923 192.011 Q 178.531 191.808 177.831 191.808 Q 177.565 191.808 177.404 191.815 Q 177.243 191.822 177.005 191.85 Z " fill="black" /><path d="M 186.74 201.695 L 186.74 201.695 L 186.406 203.4 L 182.388 203.4 L 182.388 202.92 L 183.78 201.509 Q 184.329 200.96 184.687 200.538 Q 185.044 200.117 185.221 199.691 Q 185.397 199.264 185.397 198.716 Q 185.397 198.196 185.079 197.858 Q 184.76 197.52 184.182 197.52 Q 183.653 197.52 183.295 197.731 Q 182.937 197.941 182.663 198.422 L 182.398 198.294 Q 182.643 197.608 183.158 197.216 Q 183.672 196.824 184.427 196.824 Q 185.015 196.824 185.466 197.035 Q 185.916 197.246 186.171 197.638 Q 186.426 198.03 186.426 198.588 Q 186.426 199.068 186.21 199.49 Q 185.995 199.911 185.598 200.352 Q 185.201 200.793 184.652 201.332 L 183.427 202.518 L 183.427 202.587 L 184.192 202.547 L 185.466 202.547 Q 185.75 202.547 185.902 202.469 Q 186.054 202.391 186.161 202.2 Q 186.269 202.008 186.397 201.695 Z " fill="black" /></g></g></g><g><g><g><path d="M 196.848 22.12 L 196.848 22.12 L 197.1 22.386 Q 196.386 23.226 195.448 23.765 Q 194.51 24.304 193.18 24.304 Q 191.92 24.304 191.164 23.835 Q 190.408 23.366 190.079 22.582 Q 189.75 21.798 189.75 20.874 Q 189.75 19.404 190.198 18.263 Q 190.646 17.122 191.423 16.345 Q 192.2 15.568 193.18 15.169 Q 194.16 14.77 195.224 14.77 Q 195.938 14.77 196.337 14.896 Q 196.736 15.022 196.96 15.155 Q 197.184 15.288 197.352 15.288 Q 197.52 15.288 197.646 15.148 Q 197.772 15.008 197.94 14.784 L 198.346 14.784 L 197.688 17.99 L 197.226 17.99 Q 197.282 16.59 196.708 15.981 Q 196.134 15.372 195.098 15.372 Q 194.286 15.372 193.572 15.743 Q 192.858 16.114 192.305 16.793 Q 191.752 17.472 191.437 18.417 Q 191.122 19.362 191.122 20.524 Q 191.122 21.924 191.787 22.659 Q 192.452 23.394 193.838 23.394 Q 195.448 23.394 196.848 22.12 Z " fill="black" /><path d="M 202.69 25.385 L 202.69 25.385 L 202.357 27.09 L 198.339 27.09 L 198.339 26.61 L 199.73 25.199 Q 200.279 24.65 200.637 24.229 Q 200.994 23.807 201.171 23.381 Q 201.347 22.955 201.347 22.406 Q 201.347 21.887 201.029 21.549 Q 200.71 21.21 200.132 21.21 Q 199.603 21.21 199.245 21.421 Q 198.887 21.632 198.613 22.112 L 198.348 21.985 Q 198.593 21.299 199.108 20.907 Q 199.622 20.515 200.377 20.515 Q 200.965 20.515 201.416 20.725 Q 201.867 20.936 202.121 21.328 Q 202.376 21.72 202.376 22.279 Q 202.376 22.759 202.161 23.18 Q 201.945 23.602 201.548 24.043 Q 201.151 24.484 200.602 25.023 L 199.377 26.208 L 199.377 26.277 L 200.142 26.238 L 201.416 26.238 Q 201.7 26.238 201.852 26.159 Q 202.004 26.081 202.112 25.89 Q 202.219 25.699 202.347 25.385 Z " fill="black" /></g></g></g><g><g><g><path d="M 196.848 94.12 L 196.848 94.12 L 197.1 94.386 Q 196.386 95.226 195.448 95.765 Q 194.51 96.304 193.18 96.304 Q 191.92 96.304 191.164 95.835 Q 190.408 95.366 190.079 94.582 Q 189.75 93.798 189.75 92.874 Q 189.75 91.404 190.198 90.263 Q 190.646 89.122 191.423 88.345 Q 192.2 87.568 193.18 87.169 Q 194.16 86.77 195.224 86.77 Q 195.938 86.77 196.337 86.896 Q 196.736 87.022 196.96 87.155 Q 197.184 87.288 197.352 87.288 Q 197.52 87.288 197.646 87.148 Q 197.772 87.008 197.94 86.784 L 198.346 86.784 L 197.688 89.99 L 197.226 89.99 Q 197.282 88.59 196.708 87.981 Q 196.134 87.372 195.098 87.372 Q 194.286 87.372 193.572 87.743 Q 192.858 88.114 192.305 88.793 Q 191.752 89.472 191.437 90.417 Q 191.122 91.362 191.122 92.524 Q 191.122 93.924 191.787 94.659 Q 192.452 95.394 193.838 95.394 Q 195.448 95.394 196.848 94.12 Z " fill="black" /><path d="M 202.69 97.385 L 202.69 97.385 L 202.357 99.09 L 198.339 99.09 L 198.339 98.61 L 199.73 97.199 Q 200.279 96.65 200.637 96.229 Q 200.994 95.807 201.171 95.381 Q 201.347 94.955 201.347 94.406 Q 201.347 93.887 201.029 93.549 Q 200.71 93.21 200.132 93.21 Q 199.603 93.21 199.245 93.421 Q 198.887 93.632 198.613 94.112 L 198.348 93.985 Q 198.593 93.299 199.108 92.907 Q 199.622 92.515 200.377 92.515 Q 200.965 92.515 201.416 92.725 Q 201.867 92.936 202.121 93.328 Q 202.376 93.72 202.376 94.279 Q 202.376 94.759 202.161 95.18 Q 201.945 95.602 201.548 96.043 Q 201.151 96.484 200.602 97.023 L 199.377 98.208 L 199.377 98.277 L 200.142 98.238 L 201.416 98.238 Q 201.7 98.238 201.852 98.159 Q 202.004 98.081 202.112 97.89 Q 202.219 97.699 202.347 97.385 Z " fill="black" /></g></g></g><g><g><g><path d="M 196.848 166.12 L 196.848 166.12 L 197.1 166.386 Q 196.386 167.226 195.448 167.765 Q 194.51 168.304 193.18 168.304 Q 191.92 168.304 191.164 167.835 Q 190.408 167.366 190.079 166.582 Q 189.75 165.798 189.75 164.874 Q 189.75 163.404 190.198 162.263 Q 190.646 161.122 191.423 160.345 Q 192.2 159.568 193.18 159.169 Q 194.16 158.77 195.224 158.77 Q 195.938 158.77 196.337 158.896 Q 196.736 159.022 196.96 159.155 Q 197.184 159.288 197.352 159.288 Q 197.52 159.288 197.646 159.148 Q 197.772 159.008 197.94 158.784 L 198.346 158.784 L 197.688 161.99 L 197.226 161.99 Q 197.282 160.59 196.708 159.981 Q 196.134 159.372 195.098 159.372 Q 194.286 159.372 193.572 159.743 Q 192.858 160.114 192.305 160.793 Q 191.752 161.472 191.437 162.417 Q 191.122 163.362 191.122 164.524 Q 191.122 165.924 191.787 166.659 Q 192.452 167.394 193.838 167.394 Q 195.448 167.394 196.848 166.12 Z " fill="black" /><path d="M 202.69 169.385 L 202.69 169.385 L 202.357 171.09 L 198.339 171.09 L 198.339 170.61 L 199.73 169.199 Q 200.279 168.65 200.637 168.229 Q 200.994 167.807 201.171 167.381 Q 201.347 166.955 201.347 166.406 Q 201.347 165.887 201.029 165.549 Q 200.71 165.21 200.132 165.21 Q 199.603 165.21 199.245 165.421 Q 198.887 165.632 198.613 166.112 L 198.348 165.985 Q 198.593 165.299 199.108 164.907 Q 199.622 164.515 200.377 164.515 Q 200.965 164.515 201.416 164.725 Q 201.867 164.936 202.121 165.328 Q 202.376 165.72 202.376 166.279 Q 202.376 166.759 202.161 167.18 Q 201.945 167.602 201.548 168.043 Q 201.151 168.484 200.602 169.023 L 199.377 170.208 L 199.377 170.277 L 200.142 170.238 L 201.416 170.238 Q 201.7 170.238 201.852 170.159 Q 202.004 170.081 202.112 169.89 Q 202.219 169.699 202.347 169.385 Z " fill="black" /></g></g></g><g><g><g><path d="M 196.848 238.12 L 196.848 238.12 L 197.1 238.386 Q 196.386 239.226 195.448 239.765 Q 194.51 240.304 193.18 240.304 Q 191.92 240.304 191.164 239.835 Q 190.408 239.366 190.079 238.582 Q 189.75 237.798 189.75 236.874 Q 189.75 235.404 190.198 234.263 Q 190.646 233.122 191.423 232.345 Q 192.2 231.568 193.18 231.169 Q 194.16 230.77 195.224 230.77 Q 195.938 230.77 196.337 230.896 Q 196.736 231.022 196.96 231.155 Q 197.184 231.288 197.352 231.288 Q 197.52 231.288 197.646 231.148 Q 197.772 231.008 197.94 230.784 L 198.346 230.784 L 197.688 233.99 L 197.226 233.99 Q 197.282 232.59 196.708 231.981 Q 196.134 231.372 195.098 231.372 Q 194.286 231.372 193.572 231.743 Q 192.858 232.114 192.305 232.793 Q 191.752 233.472 191.437 234.417 Q 191.122 235.362 191.122 236.524 Q 191.122 237.924 191.787 238.659 Q 192.452 239.394 193.838 239.394 Q 195.448 239.394 196.848 238.12 Z " fill="black" /><path d="M 202.69 241.385 L 202.69 241.385 L 202.357 243.09 L 198.339 243.09 L 198.339 242.61 L 199.73 241.199 Q 200.279 240.65 200.637 240.229 Q 200.994 239.807 201.171 239.381 Q 201.347 238.955 201.347 238.406 Q 201.347 237.887 201.029 237.549 Q 200.71 237.21 200.132 237.21 Q 199.603 237.21 199.245 237.421 Q 198.887 237.632 198.613 238.112 L 198.348 237.985 Q 198.593 237.299 199.108 236.907 Q 199.622 236.515 200.377 236.515 Q 200.965 236.515 201.416 236.725 Q 201.867 236.936 202.121 237.328 Q 202.376 237.72 202.376 238.279 Q 202.376 238.759 202.161 239.18 Q 201.945 239.602 201.548 240.043 Q 201.151 240.484 200.602 241.023 L 199.377 242.208 L 199.377 242.277 L 200.142 242.238 L 201.416 242.238 Q 201.7 242.238 201.852 242.159 Q 202.004 242.081 202.112 241.89 Q 202.219 241.699 202.347 241.385 Z " fill="black" /></g></g></g><circle cx="252.00000000000003" cy="-0.0" r="2.6999999999999997" style="stroke:black;fill:black;stroke-width:2.0;stroke-dasharray:-;" /><circle cx="-36.0" cy="-4.408728476930472e-15" r="2.6999999999999997" style="stroke:black;fill:black;stroke-width:2.0;stroke-dasharray:-;" /><circle cx="-72.0" cy="-8.817456953860943e-15" r="2.6999999999999997" style="stroke:black;fill:white;stroke-width:2.0;stroke-dasharray:-;" /><g><g><g><path d="M -100.113 -5.516 L -100.113 -5.516 L -99.805 -5.516 L -100.463 -2.828 Q -100.561 -2.464 -100.666 -1.953 Q -100.771 -1.442 -100.771 -0.966 Q -100.771 -0.42 -100.547 -0.021 Q -100.323 0.378 -99.679 0.378 Q -98.965 0.378 -98.447 0.035 Q -97.929 -0.308 -97.6 -0.84 Q -97.271 -1.372 -97.11 -1.96 Q -96.949 -2.548 -96.949 -3.038 Q -96.949 -3.402 -97.075 -3.668 Q -97.201 -3.934 -97.376 -4.144 Q -97.551 -4.354 -97.677 -4.55 Q -97.803 -4.746 -97.803 -4.97 Q -97.803 -5.25 -97.649 -5.404 Q -97.495 -5.558 -97.271 -5.558 Q -96.795 -5.558 -96.501 -5.082 Q -96.207 -4.606 -96.207 -3.864 Q -96.207 -3.22 -96.368 -2.513 Q -96.529 -1.806 -96.851 -1.134 Q -97.173 -0.462 -97.649 0.084 Q -98.125 0.63 -98.741 0.952 Q -99.357 1.274 -100.113 1.274 Q -100.813 1.274 -101.205 0.994 Q -101.597 0.714 -101.758 0.252 Q -101.919 -0.21 -101.919 -0.742 Q -101.919 -1.246 -101.821 -1.778 Q -101.723 -2.31 -101.611 -2.744 L -101.331 -3.808 Q -101.303 -3.92 -101.247 -4.144 Q -101.191 -4.368 -101.191 -4.578 Q -101.191 -4.76 -101.261 -4.886 Q -101.331 -5.012 -101.527 -5.012 Q -101.695 -5.012 -101.933 -4.991 Q -102.171 -4.97 -102.171 -4.97 L -102.171 -5.362 Z " fill="black" /><path d="M -92.434 3.725 L -92.434 3.725 L -92.434 4.088 L -94.924 4.088 L -94.924 3.725 Q -94.581 3.725 -94.429 3.652 Q -94.277 3.578 -94.238 3.417 Q -94.198 3.255 -94.198 2.99 L -94.198 0.031 Q -94.198 -0.302 -94.306 -0.371 Q -94.414 -0.44 -94.669 -0.44 Q -94.796 -0.44 -94.875 -0.43 Q -94.953 -0.42 -94.953 -0.42 L -94.953 -0.812 L -93.64 -1.028 L -93.238 -1.028 L -93.238 2.99 Q -93.238 3.275 -93.194 3.436 Q -93.15 3.598 -92.978 3.662 Q -92.807 3.725 -92.434 3.725 Z M -93.728 -3.193 L -93.728 -3.193 Q -93.444 -3.193 -93.253 -2.997 Q -93.062 -2.801 -93.062 -2.547 Q -93.062 -2.311 -93.253 -2.115 Q -93.444 -1.919 -93.728 -1.919 Q -94.002 -1.919 -94.184 -2.115 Q -94.365 -2.311 -94.365 -2.547 Q -94.365 -2.801 -94.184 -2.997 Q -94.002 -3.193 -93.728 -3.193 Z " fill="black" /><path d="M -86.613 0.805 L -86.613 0.805 L -86.613 3 Q -86.613 3.275 -86.564 3.436 Q -86.515 3.598 -86.349 3.667 Q -86.182 3.735 -85.829 3.735 L -85.829 4.088 L -88.348 4.088 L -88.348 3.735 Q -87.975 3.735 -87.809 3.667 Q -87.642 3.598 -87.603 3.436 Q -87.564 3.275 -87.564 3 L -87.564 1.128 Q -87.564 0.472 -87.716 0.163 Q -87.868 -0.146 -88.098 -0.244 Q -88.328 -0.342 -88.563 -0.342 Q -88.985 -0.342 -89.303 -0.126 Q -89.622 0.09 -89.857 0.286 L -89.857 3 Q -89.857 3.275 -89.813 3.436 Q -89.769 3.598 -89.602 3.667 Q -89.436 3.735 -89.073 3.735 L -89.073 4.088 L -91.543 4.088 L -91.543 3.735 Q -91.2 3.735 -91.048 3.667 Q -90.896 3.598 -90.857 3.436 Q -90.817 3.275 -90.817 3 L -90.817 0.021 Q -90.817 -0.253 -90.92 -0.347 Q -91.023 -0.44 -91.249 -0.44 Q -91.366 -0.44 -91.445 -0.43 Q -91.523 -0.42 -91.523 -0.42 L -91.523 -0.792 L -90.21 -1.028 L -89.886 -1.028 L -89.886 -0.224 L -89.818 -0.224 Q -89.396 -0.606 -89.009 -0.832 Q -88.622 -1.057 -88.132 -1.057 Q -87.554 -1.057 -87.226 -0.797 Q -86.897 -0.538 -86.755 -0.116 Q -86.613 0.305 -86.613 0.805 Z " fill="black" /><path d="M -84.604 5.558 L -84.604 5.558 L -84.771 5.235 Q -84.565 5.146 -84.349 5.004 Q -84.134 4.862 -83.992 4.602 Q -83.85 4.343 -83.85 3.921 Q -84.016 3.99 -84.193 3.99 Q -84.516 3.99 -84.653 3.799 Q -84.79 3.608 -84.79 3.363 Q -84.79 3.098 -84.614 2.902 Q -84.438 2.706 -84.104 2.706 Q -83.683 2.706 -83.463 2.966 Q -83.242 3.226 -83.242 3.686 Q -83.242 4.157 -83.389 4.485 Q -83.536 4.813 -83.757 5.024 Q -83.977 5.235 -84.207 5.357 Q -84.438 5.48 -84.604 5.558 Z " fill="black" /><path d="M -78.028 0.844 L -78.028 0.844 Q -78.028 1.491 -78.166 2.099 Q -78.303 2.706 -78.592 3.181 Q -78.881 3.657 -79.332 3.936 Q -79.783 4.215 -80.4 4.215 Q -81.027 4.215 -81.478 3.946 Q -81.929 3.676 -82.213 3.206 Q -82.497 2.736 -82.63 2.123 Q -82.762 1.511 -82.762 0.825 Q -82.762 -0.195 -82.468 -0.93 Q -82.174 -1.665 -81.64 -2.066 Q -81.106 -2.468 -80.38 -2.468 Q -79.704 -2.468 -79.17 -2.081 Q -78.636 -1.694 -78.332 -0.954 Q -78.028 -0.214 -78.028 0.844 Z M -79.077 0.913 L -79.077 0.913 Q -79.077 -0.626 -79.41 -1.346 Q -79.743 -2.066 -80.4 -2.066 Q -81.047 -2.066 -81.385 -1.346 Q -81.723 -0.626 -81.723 0.874 Q -81.723 2.353 -81.375 3.074 Q -81.027 3.794 -80.4 3.794 Q -79.763 3.794 -79.42 3.069 Q -79.077 2.344 -79.077 0.913 Z " fill="black" /></g></g></g><circle cx="-36.0" cy="144.0" r="2.6999999999999997" style="stroke:black;fill:black;stroke-width:2.0;stroke-dasharray:-;" /><circle cx="-72.0" cy="144.0" r="2.6999999999999997" style="stroke:black;fill:white;stroke-width:2.0;stroke-dasharray:-;" /><g><g><g><path d="M -110.247 138.484 L -110.247 138.484 L -109.939 138.484 L -110.597 141.172 Q -110.695 141.536 -110.8 142.047 Q -110.905 142.558 -110.905 143.034 Q -110.905 143.58 -110.681 143.979 Q -110.457 144.378 -109.813 144.378 Q -109.099 144.378 -108.581 144.035 Q -108.063 143.692 -107.734 143.16 Q -107.405 142.628 -107.244 142.04 Q -107.083 141.452 -107.083 140.962 Q -107.083 140.598 -107.209 140.332 Q -107.335 140.066 -107.51 139.856 Q -107.685 139.646 -107.811 139.45 Q -107.937 139.254 -107.937 139.03 Q -107.937 138.75 -107.783 138.596 Q -107.629 138.442 -107.405 138.442 Q -106.929 138.442 -106.635 138.918 Q -106.341 139.394 -106.341 140.136 Q -106.341 140.78 -106.502 141.487 Q -106.663 142.194 -106.985 142.866 Q -107.307 143.538 -107.783 144.084 Q -108.259 144.63 -108.875 144.952 Q -109.491 145.274 -110.247 145.274 Q -110.947 145.274 -111.339 144.994 Q -111.731 144.714 -111.892 144.252 Q -112.053 143.79 -112.053 143.258 Q -112.053 142.754 -111.955 142.222 Q -111.857 141.69 -111.745 141.256 L -111.465 140.192 Q -111.437 140.08 -111.381 139.856 Q -111.325 139.632 -111.325 139.422 Q -111.325 139.24 -111.395 139.114 Q -111.465 138.988 -111.661 138.988 Q -111.829 138.988 -112.067 139.009 Q -112.305 139.03 -112.305 139.03 L -112.305 138.638 Z " fill="black" /><path d="M -102.568 147.725 L -102.568 147.725 L -102.568 148.088 L -105.057 148.088 L -105.057 147.725 Q -104.714 147.725 -104.562 147.652 Q -104.41 147.578 -104.371 147.417 Q -104.332 147.255 -104.332 146.99 L -104.332 144.031 Q -104.332 143.698 -104.439 143.629 Q -104.547 143.56 -104.802 143.56 Q -104.929 143.56 -105.008 143.57 Q -105.086 143.58 -105.086 143.58 L -105.086 143.188 L -103.773 142.972 L -103.371 142.972 L -103.371 146.99 Q -103.371 147.275 -103.327 147.436 Q -103.283 147.598 -103.112 147.662 Q -102.94 147.725 -102.568 147.725 Z M -103.861 140.807 L -103.861 140.807 Q -103.577 140.807 -103.386 141.003 Q -103.195 141.199 -103.195 141.453 Q -103.195 141.689 -103.386 141.885 Q -103.577 142.081 -103.861 142.081 Q -104.136 142.081 -104.317 141.885 Q -104.498 141.689 -104.498 141.453 Q -104.498 141.199 -104.317 141.003 Q -104.136 140.807 -103.861 140.807 Z " fill="black" /><path d="M -96.746 144.805 L -96.746 144.805 L -96.746 147 Q -96.746 147.275 -96.697 147.436 Q -96.648 147.598 -96.482 147.667 Q -96.315 147.735 -95.962 147.735 L -95.962 148.088 L -98.481 148.088 L -98.481 147.735 Q -98.109 147.735 -97.942 147.667 Q -97.775 147.598 -97.736 147.436 Q -97.697 147.275 -97.697 147 L -97.697 145.128 Q -97.697 144.472 -97.849 144.163 Q -98.001 143.854 -98.231 143.756 Q -98.461 143.658 -98.697 143.658 Q -99.118 143.658 -99.437 143.874 Q -99.755 144.09 -99.99 144.286 L -99.99 147 Q -99.99 147.275 -99.946 147.436 Q -99.902 147.598 -99.735 147.667 Q -99.569 147.735 -99.206 147.735 L -99.206 148.088 L -101.676 148.088 L -101.676 147.735 Q -101.333 147.735 -101.181 147.667 Q -101.029 147.598 -100.99 147.436 Q -100.951 147.275 -100.951 147 L -100.951 144.021 Q -100.951 143.747 -101.053 143.654 Q -101.156 143.56 -101.382 143.56 Q -101.499 143.56 -101.578 143.57 Q -101.656 143.58 -101.656 143.58 L -101.656 143.208 L -100.343 142.972 L -100.02 142.972 L -100.02 143.776 L -99.951 143.776 Q -99.53 143.394 -99.142 143.168 Q -98.755 142.943 -98.265 142.943 Q -97.687 142.943 -97.359 143.203 Q -97.031 143.462 -96.889 143.884 Q -96.746 144.305 -96.746 144.805 Z " fill="black" /><path d="M -94.737 149.558 L -94.737 149.558 L -94.904 149.235 Q -94.698 149.146 -94.483 149.004 Q -94.267 148.862 -94.125 148.602 Q -93.983 148.343 -93.983 147.921 Q -94.149 147.99 -94.326 147.99 Q -94.649 147.99 -94.786 147.799 Q -94.924 147.608 -94.924 147.363 Q -94.924 147.098 -94.747 146.902 Q -94.571 146.706 -94.238 146.706 Q -93.816 146.706 -93.596 146.966 Q -93.375 147.226 -93.375 147.686 Q -93.375 148.157 -93.522 148.485 Q -93.669 148.813 -93.89 149.024 Q -94.11 149.235 -94.341 149.357 Q -94.571 149.48 -94.737 149.558 Z " fill="black" /><path d="M -89.142 148.088 L -89.142 148.088 L -92.464 148.088 L -92.464 147.735 Q -91.758 147.735 -91.528 147.593 Q -91.298 147.451 -91.298 147.079 L -91.298 142.806 Q -91.298 142.541 -91.376 142.424 Q -91.454 142.306 -91.66 142.306 Q -91.817 142.306 -92.087 142.35 Q -92.356 142.394 -92.552 142.443 L -92.552 142.051 L -90.739 141.551 L -90.318 141.551 L -90.318 147.079 Q -90.318 147.451 -90.068 147.593 Q -89.818 147.735 -89.142 147.735 Z " fill="black" /><path d="M -83.683 146.549 L -83.683 146.549 Q -83.683 147.373 -84.281 147.799 Q -84.879 148.225 -85.819 148.225 Q -86.417 148.225 -86.897 148.049 Q -87.378 147.872 -87.652 147.52 Q -87.926 147.167 -87.926 146.638 Q -87.926 146.216 -87.76 145.932 Q -87.593 145.648 -87.275 145.408 Q -86.956 145.168 -86.515 144.883 L -86.515 144.844 Q -87.054 144.491 -87.329 144.212 Q -87.603 143.933 -87.701 143.649 Q -87.799 143.364 -87.799 143.012 Q -87.799 142.541 -87.539 142.198 Q -87.28 141.855 -86.824 141.674 Q -86.368 141.493 -85.79 141.493 Q -85.271 141.493 -84.854 141.674 Q -84.438 141.855 -84.193 142.174 Q -83.948 142.492 -83.948 142.904 Q -83.948 143.276 -84.075 143.536 Q -84.202 143.796 -84.487 144.016 Q -84.771 144.237 -85.241 144.491 L -85.241 144.54 Q -84.643 144.883 -84.305 145.182 Q -83.967 145.481 -83.825 145.805 Q -83.683 146.128 -83.683 146.549 Z M -86.172 145.07 L -86.172 145.07 Q -86.623 145.422 -86.844 145.731 Q -87.064 146.04 -87.064 146.53 Q -87.064 147.245 -86.711 147.564 Q -86.358 147.882 -85.78 147.882 Q -85.3 147.882 -84.957 147.632 Q -84.614 147.382 -84.614 146.873 Q -84.614 146.54 -84.741 146.275 Q -84.869 146.01 -85.207 145.726 Q -85.545 145.442 -86.172 145.07 Z M -84.761 142.894 L -84.761 142.894 Q -84.761 142.375 -85.04 142.13 Q -85.32 141.885 -85.81 141.885 Q -86.339 141.885 -86.628 142.13 Q -86.917 142.375 -86.917 142.865 Q -86.917 143.149 -86.79 143.369 Q -86.662 143.59 -86.373 143.805 Q -86.084 144.021 -85.623 144.315 Q -85.094 144.001 -84.928 143.688 Q -84.761 143.374 -84.761 142.894 Z " fill="black" /><path d="M -78.028 144.844 L -78.028 144.844 Q -78.028 145.491 -78.166 146.099 Q -78.303 146.706 -78.592 147.181 Q -78.881 147.657 -79.332 147.936 Q -79.783 148.215 -80.4 148.215 Q -81.027 148.215 -81.478 147.946 Q -81.929 147.676 -82.213 147.206 Q -82.497 146.736 -82.63 146.123 Q -82.762 145.511 -82.762 144.825 Q -82.762 143.805 -82.468 143.07 Q -82.174 142.335 -81.64 141.934 Q -81.106 141.532 -80.38 141.532 Q -79.704 141.532 -79.17 141.919 Q -78.636 142.306 -78.332 143.046 Q -78.028 143.786 -78.028 144.844 Z M -79.077 144.913 L -79.077 144.913 Q -79.077 143.374 -79.41 142.654 Q -79.743 141.934 -80.4 141.934 Q -81.047 141.934 -81.385 142.654 Q -81.723 143.374 -81.723 144.874 Q -81.723 146.353 -81.375 147.074 Q -81.027 147.794 -80.4 147.794 Q -79.763 147.794 -79.42 147.069 Q -79.077 146.344 -79.077 144.913 Z " fill="black" /></g></g></g><circle cx="288.0" cy="-0.0" r="2.6999999999999997" style="stroke:black;fill:white;stroke-width:2.0;stroke-dasharray:-;" /><g><g><g><path d="M 297.1 -5.516 L 297.1 -5.516 L 297.408 -5.516 L 296.75 -2.828 Q 296.652 -2.464 296.547 -1.953 Q 296.442 -1.442 296.442 -0.966 Q 296.442 -0.42 296.666 -0.021 Q 296.89 0.378 297.534 0.378 Q 298.248 0.378 298.766 0.035 Q 299.284 -0.308 299.613 -0.84 Q 299.942 -1.372 300.103 -1.96 Q 300.264 -2.548 300.264 -3.038 Q 300.264 -3.402 300.138 -3.668 Q 300.012 -3.934 299.837 -4.144 Q 299.662 -4.354 299.536 -4.55 Q 299.41 -4.746 299.41 -4.97 Q 299.41 -5.25 299.564 -5.404 Q 299.718 -5.558 299.942 -5.558 Q 300.418 -5.558 300.712 -5.082 Q 301.006 -4.606 301.006 -3.864 Q 301.006 -3.22 300.845 -2.513 Q 300.684 -1.806 300.362 -1.134 Q 300.04 -0.462 299.564 0.084 Q 299.088 0.63 298.472 0.952 Q 297.856 1.274 297.1 1.274 Q 296.4 1.274 296.008 0.994 Q 295.616 0.714 295.455 0.252 Q 295.294 -0.21 295.294 -0.742 Q 295.294 -1.246 295.392 -1.778 Q 295.49 -2.31 295.602 -2.744 L 295.882 -3.808 Q 295.91 -3.92 295.966 -4.144 Q 296.022 -4.368 296.022 -4.578 Q 296.022 -4.76 295.952 -4.886 Q 295.882 -5.012 295.686 -5.012 Q 295.518 -5.012 295.28 -4.991 Q 295.042 -4.97 295.042 -4.97 L 295.042 -5.362 Z " fill="black" /><path d="M 304.034 -1.057 L 304.034 -1.057 Q 304.769 -1.057 305.318 -0.739 Q 305.867 -0.42 306.166 0.153 Q 306.465 0.727 306.465 1.501 Q 306.465 2.432 306.151 3.03 Q 305.837 3.627 305.289 3.916 Q 304.74 4.206 304.034 4.206 Q 303.319 4.206 302.765 3.907 Q 302.211 3.608 301.903 3.01 Q 301.594 2.412 301.594 1.511 Q 301.594 0.746 301.898 0.168 Q 302.202 -0.41 302.75 -0.734 Q 303.299 -1.057 304.034 -1.057 Z M 304.015 -0.606 L 304.015 -0.606 Q 303.368 -0.606 303 -0.082 Q 302.633 0.442 302.633 1.452 Q 302.633 2.696 303.01 3.211 Q 303.387 3.725 304.064 3.725 Q 304.495 3.716 304.799 3.51 Q 305.102 3.304 305.264 2.819 Q 305.426 2.334 305.426 1.501 Q 305.426 0.501 305.083 -0.053 Q 304.74 -0.606 304.015 -0.606 Z " fill="black" /><path d="M 313.129 3.588 L 313.129 3.588 L 313.129 3.961 L 311.806 4.137 L 311.492 4.137 L 311.492 3.373 L 311.394 3.373 Q 311.022 3.706 310.639 3.946 Q 310.257 4.186 309.718 4.186 Q 308.993 4.186 308.611 3.745 Q 308.229 3.304 308.229 2.216 L 308.229 0.109 Q 308.229 -0.293 308.087 -0.386 Q 307.944 -0.479 307.494 -0.479 L 307.494 -0.832 L 308.856 -1.018 L 309.179 -1.018 L 309.179 2.089 Q 309.179 2.638 309.307 2.941 Q 309.434 3.245 309.65 3.363 Q 309.865 3.48 310.12 3.48 Q 310.551 3.48 310.84 3.299 Q 311.129 3.118 311.443 2.863 L 311.443 0.109 Q 311.443 -0.293 311.267 -0.386 Q 311.09 -0.479 310.59 -0.479 L 310.59 -0.832 L 312.051 -1.018 L 312.394 -1.018 L 312.394 2.951 Q 312.394 3.245 312.448 3.382 Q 312.501 3.52 312.639 3.554 Q 312.776 3.588 313.021 3.588 Z " fill="black" /><path d="M 316.951 3.108 L 316.951 3.108 L 317.176 3.294 Q 316.96 3.588 316.784 3.789 Q 316.608 3.99 316.382 4.098 Q 316.157 4.206 315.804 4.206 Q 315.236 4.206 314.976 3.882 Q 314.716 3.559 314.716 2.843 L 314.716 -0.449 L 314.099 -0.449 L 314.099 -0.743 Q 314.452 -0.998 314.746 -1.366 Q 315.04 -1.733 315.334 -2.419 L 315.677 -2.419 L 315.667 -0.93 L 316.911 -0.93 L 316.911 -0.449 L 315.667 -0.449 L 315.667 2.52 Q 315.667 3.069 315.77 3.299 Q 315.873 3.529 316.186 3.529 Q 316.47 3.529 316.617 3.426 Q 316.764 3.324 316.951 3.108 Z " fill="black" /><path d="M 318.264 5.558 L 318.264 5.558 L 318.097 5.235 Q 318.303 5.146 318.519 5.004 Q 318.734 4.862 318.876 4.602 Q 319.018 4.343 319.018 3.921 Q 318.852 3.99 318.675 3.99 Q 318.352 3.99 318.215 3.799 Q 318.078 3.608 318.078 3.363 Q 318.078 3.098 318.254 2.902 Q 318.43 2.706 318.764 2.706 Q 319.185 2.706 319.406 2.966 Q 319.626 3.226 319.626 3.686 Q 319.626 4.157 319.479 4.485 Q 319.332 4.813 319.112 5.024 Q 318.891 5.235 318.661 5.357 Q 318.43 5.48 318.264 5.558 Z " fill="black" /><path d="M 324.84 0.844 L 324.84 0.844 Q 324.84 1.491 324.702 2.099 Q 324.565 2.706 324.276 3.181 Q 323.987 3.657 323.536 3.936 Q 323.085 4.215 322.468 4.215 Q 321.841 4.215 321.39 3.946 Q 320.939 3.676 320.655 3.206 Q 320.371 2.736 320.239 2.123 Q 320.106 1.511 320.106 0.825 Q 320.106 -0.195 320.4 -0.93 Q 320.694 -1.665 321.228 -2.066 Q 321.762 -2.468 322.488 -2.468 Q 323.164 -2.468 323.698 -2.081 Q 324.232 -1.694 324.536 -0.954 Q 324.84 -0.214 324.84 0.844 Z M 323.791 0.913 L 323.791 0.913 Q 323.791 -0.626 323.458 -1.346 Q 323.125 -2.066 322.468 -2.066 Q 321.821 -2.066 321.483 -1.346 Q 321.145 -0.626 321.145 0.874 Q 321.145 2.353 321.493 3.074 Q 321.841 3.794 322.468 3.794 Q 323.105 3.794 323.448 3.069 Q 323.791 2.344 323.791 0.913 Z " fill="black" /></g></g></g><circle cx="288.0" cy="72.0" r="2.6999999999999997" style="stroke:black;fill:white;stroke-width:2.0;stroke-dasharray:-;" /><g><g><g><path d="M 297.1 66.484 L 297.1 66.484 L 297.408 66.484 L 296.75 69.172 Q 296.652 69.536 296.547 70.047 Q 296.442 70.558 296.442 71.034 Q 296.442 71.58 296.666 71.979 Q 296.89 72.378 297.534 72.378 Q 298.248 72.378 298.766 72.035 Q 299.284 71.692 299.613 71.16 Q 299.942 70.628 300.103 70.04 Q 300.264 69.452 300.264 68.962 Q 300.264 68.598 300.138 68.332 Q 300.012 68.066 299.837 67.856 Q 299.662 67.646 299.536 67.45 Q 299.41 67.254 299.41 67.03 Q 299.41 66.75 299.564 66.596 Q 299.718 66.442 299.942 66.442 Q 300.418 66.442 300.712 66.918 Q 301.006 67.394 301.006 68.136 Q 301.006 68.78 300.845 69.487 Q 300.684 70.194 300.362 70.866 Q 300.04 71.538 299.564 72.084 Q 299.088 72.63 298.472 72.952 Q 297.856 73.274 297.1 73.274 Q 296.4 73.274 296.008 72.994 Q 295.616 72.714 295.455 72.252 Q 295.294 71.79 295.294 71.258 Q 295.294 70.754 295.392 70.222 Q 295.49 69.69 295.602 69.256 L 295.882 68.192 Q 295.91 68.08 295.966 67.856 Q 296.022 67.632 296.022 67.422 Q 296.022 67.24 295.952 67.114 Q 295.882 66.988 295.686 66.988 Q 295.518 66.988 295.28 67.009 Q 295.042 67.03 295.042 67.03 L 295.042 66.638 Z " fill="black" /><path d="M 304.034 70.943 L 304.034 70.943 Q 304.769 70.943 305.318 71.261 Q 305.867 71.58 306.166 72.153 Q 306.465 72.727 306.465 73.501 Q 306.465 74.432 306.151 75.03 Q 305.837 75.627 305.289 75.916 Q 304.74 76.206 304.034 76.206 Q 303.319 76.206 302.765 75.907 Q 302.211 75.608 301.903 75.01 Q 301.594 74.412 301.594 73.511 Q 301.594 72.746 301.898 72.168 Q 302.202 71.59 302.75 71.266 Q 303.299 70.943 304.034 70.943 Z M 304.015 71.394 L 304.015 71.394 Q 303.368 71.394 303 71.918 Q 302.633 72.442 302.633 73.452 Q 302.633 74.696 303.01 75.211 Q 303.387 75.725 304.064 75.725 Q 304.495 75.716 304.799 75.51 Q 305.102 75.304 305.264 74.819 Q 305.426 74.334 305.426 73.501 Q 305.426 72.501 305.083 71.947 Q 304.74 71.394 304.015 71.394 Z " fill="black" /><path d="M 313.129 75.588 L 313.129 75.588 L 313.129 75.961 L 311.806 76.137 L 311.492 76.137 L 311.492 75.373 L 311.394 75.373 Q 311.022 75.706 310.639 75.946 Q 310.257 76.186 309.718 76.186 Q 308.993 76.186 308.611 75.745 Q 308.229 75.304 308.229 74.216 L 308.229 72.109 Q 308.229 71.707 308.087 71.614 Q 307.944 71.521 307.494 71.521 L 307.494 71.168 L 308.856 70.982 L 309.179 70.982 L 309.179 74.089 Q 309.179 74.638 309.307 74.941 Q 309.434 75.245 309.65 75.363 Q 309.865 75.48 310.12 75.48 Q 310.551 75.48 310.84 75.299 Q 311.129 75.118 311.443 74.863 L 311.443 72.109 Q 311.443 71.707 311.267 71.614 Q 311.09 71.521 310.59 71.521 L 310.59 71.168 L 312.051 70.982 L 312.394 70.982 L 312.394 74.951 Q 312.394 75.245 312.448 75.382 Q 312.501 75.52 312.639 75.554 Q 312.776 75.588 313.021 75.588 Z " fill="black" /><path d="M 316.951 75.108 L 316.951 75.108 L 317.176 75.294 Q 316.96 75.588 316.784 75.789 Q 316.608 75.99 316.382 76.098 Q 316.157 76.206 315.804 76.206 Q 315.236 76.206 314.976 75.882 Q 314.716 75.559 314.716 74.843 L 314.716 71.551 L 314.099 71.551 L 314.099 71.257 Q 314.452 71.002 314.746 70.634 Q 315.04 70.267 315.334 69.581 L 315.677 69.581 L 315.667 71.07 L 316.911 71.07 L 316.911 71.551 L 315.667 71.551 L 315.667 74.52 Q 315.667 75.069 315.77 75.299 Q 315.873 75.529 316.186 75.529 Q 316.47 75.529 316.617 75.426 Q 316.764 75.324 316.951 75.108 Z " fill="black" /><path d="M 318.264 77.558 L 318.264 77.558 L 318.097 77.235 Q 318.303 77.146 318.519 77.004 Q 318.734 76.862 318.876 76.602 Q 319.018 76.343 319.018 75.921 Q 318.852 75.99 318.675 75.99 Q 318.352 75.99 318.215 75.799 Q 318.078 75.608 318.078 75.363 Q 318.078 75.098 318.254 74.902 Q 318.43 74.706 318.764 74.706 Q 319.185 74.706 319.406 74.966 Q 319.626 75.226 319.626 75.686 Q 319.626 76.157 319.479 76.485 Q 319.332 76.813 319.112 77.024 Q 318.891 77.235 318.661 77.357 Q 318.43 77.48 318.264 77.558 Z " fill="black" /><path d="M 320.518 76.225 L 320.518 76.225 L 320.508 75.912 Q 321.243 75.823 321.86 75.505 Q 322.478 75.186 322.889 74.628 Q 323.301 74.069 323.419 73.266 L 323.34 73.256 Q 322.978 73.579 322.669 73.746 Q 322.36 73.912 321.978 73.912 Q 321.125 73.912 320.601 73.329 Q 320.077 72.746 320.077 71.707 Q 320.077 70.659 320.655 70.081 Q 321.233 69.502 322.213 69.502 Q 322.978 69.502 323.473 69.865 Q 323.967 70.228 324.212 70.86 Q 324.457 71.492 324.457 72.315 Q 324.457 73.667 323.953 74.53 Q 323.448 75.392 322.561 75.804 Q 321.674 76.215 320.518 76.225 Z M 321.037 71.639 L 321.037 71.639 Q 321.037 72.374 321.356 72.805 Q 321.674 73.236 322.292 73.236 Q 322.605 73.236 322.875 73.119 Q 323.144 73.001 323.311 72.736 Q 323.477 72.472 323.477 72.031 Q 323.477 71.061 323.183 70.497 Q 322.889 69.934 322.203 69.934 Q 321.694 69.934 321.366 70.311 Q 321.037 70.688 321.037 71.639 Z " fill="black" /><path d="M 330.171 72.844 L 330.171 72.844 Q 330.171 73.491 330.034 74.099 Q 329.896 74.706 329.607 75.181 Q 329.318 75.657 328.867 75.936 Q 328.417 76.215 327.799 76.215 Q 327.172 76.215 326.721 75.946 Q 326.27 75.676 325.986 75.206 Q 325.702 74.736 325.57 74.123 Q 325.437 73.511 325.437 72.825 Q 325.437 71.805 325.731 71.07 Q 326.025 70.335 326.56 69.934 Q 327.094 69.532 327.819 69.532 Q 328.495 69.532 329.029 69.919 Q 329.563 70.306 329.867 71.046 Q 330.171 71.786 330.171 72.844 Z M 329.122 72.913 L 329.122 72.913 Q 329.122 71.374 328.789 70.654 Q 328.456 69.934 327.799 69.934 Q 327.152 69.934 326.814 70.654 Q 326.476 71.374 326.476 72.874 Q 326.476 74.353 326.824 75.074 Q 327.172 75.794 327.799 75.794 Q 328.436 75.794 328.779 75.069 Q 329.122 74.344 329.122 72.913 Z " fill="black" /></g></g></g><circle cx="288.0" cy="144.0" r="2.6999999999999997" style="stroke:black;fill:white;stroke-width:2.0;stroke-dasharray:-;" /><g><g><g><path d="M 297.1 138.484 L 297.1 138.484 L 297.408 138.484 L 296.75 141.172 Q 296.652 141.536 296.547 142.047 Q 296.442 142.558 296.442 143.034 Q 296.442 143.58 296.666 143.979 Q 296.89 144.378 297.534 144.378 Q 298.248 144.378 298.766 144.035 Q 299.284 143.692 299.613 143.16 Q 299.942 142.628 300.103 142.04 Q 300.264 141.452 300.264 140.962 Q 300.264 140.598 300.138 140.332 Q 300.012 140.066 299.837 139.856 Q 299.662 139.646 299.536 139.45 Q 299.41 139.254 299.41 139.03 Q 299.41 138.75 299.564 138.596 Q 299.718 138.442 299.942 138.442 Q 300.418 138.442 300.712 138.918 Q 301.006 139.394 301.006 140.136 Q 301.006 140.78 300.845 141.487 Q 300.684 142.194 300.362 142.866 Q 300.04 143.538 299.564 144.084 Q 299.088 144.63 298.472 144.952 Q 297.856 145.274 297.1 145.274 Q 296.4 145.274 296.008 144.994 Q 295.616 144.714 295.455 144.252 Q 295.294 143.79 295.294 143.258 Q 295.294 142.754 295.392 142.222 Q 295.49 141.69 295.602 141.256 L 295.882 140.192 Q 295.91 140.08 295.966 139.856 Q 296.022 139.632 296.022 139.422 Q 296.022 139.24 295.952 139.114 Q 295.882 138.988 295.686 138.988 Q 295.518 138.988 295.28 139.009 Q 295.042 139.03 295.042 139.03 L 295.042 138.638 Z " fill="black" /><path d="M 304.034 142.943 L 304.034 142.943 Q 304.769 142.943 305.318 143.261 Q 305.867 143.58 306.166 144.153 Q 306.465 144.727 306.465 145.501 Q 306.465 146.432 306.151 147.03 Q 305.837 147.627 305.289 147.916 Q 304.74 148.206 304.034 148.206 Q 303.319 148.206 302.765 147.907 Q 302.211 147.608 301.903 147.01 Q 301.594 146.412 301.594 145.511 Q 301.594 144.746 301.898 144.168 Q 302.202 143.59 302.75 143.266 Q 303.299 142.943 304.034 142.943 Z M 304.015 143.394 L 304.015 143.394 Q 303.368 143.394 303 143.918 Q 302.633 144.442 302.633 145.452 Q 302.633 146.696 303.01 147.211 Q 303.387 147.725 304.064 147.725 Q 304.495 147.716 304.799 147.51 Q 305.102 147.304 305.264 146.819 Q 305.426 146.334 305.426 145.501 Q 305.426 144.501 305.083 143.947 Q 304.74 143.394 304.015 143.394 Z " fill="black" /><path d="M 313.129 147.588 L 313.129 147.588 L 313.129 147.961 L 311.806 148.137 L 311.492 148.137 L 311.492 147.373 L 311.394 147.373 Q 311.022 147.706 310.639 147.946 Q 310.257 148.186 309.718 148.186 Q 308.993 148.186 308.611 147.745 Q 308.229 147.304 308.229 146.216 L 308.229 144.109 Q 308.229 143.707 308.087 143.614 Q 307.944 143.521 307.494 143.521 L 307.494 143.168 L 308.856 142.982 L 309.179 142.982 L 309.179 146.089 Q 309.179 146.638 309.307 146.941 Q 309.434 147.245 309.65 147.363 Q 309.865 147.48 310.12 147.48 Q 310.551 147.48 310.84 147.299 Q 311.129 147.118 311.443 146.863 L 311.443 144.109 Q 311.443 143.707 311.267 143.614 Q 311.09 143.521 310.59 143.521 L 310.59 143.168 L 312.051 142.982 L 312.394 142.982 L 312.394 146.951 Q 312.394 147.245 312.448 147.382 Q 312.501 147.52 312.639 147.554 Q 312.776 147.588 313.021 147.588 Z " fill="black" /><path d="M 316.951 147.108 L 316.951 147.108 L 317.176 147.294 Q 316.96 147.588 316.784 147.789 Q 316.608 147.99 316.382 148.098 Q 316.157 148.206 315.804 148.206 Q 315.236 148.206 314.976 147.882 Q 314.716 147.559 314.716 146.843 L 314.716 143.551 L 314.099 143.551 L 314.099 143.257 Q 314.452 143.002 314.746 142.634 Q 315.04 142.267 315.334 141.581 L 315.677 141.581 L 315.667 143.07 L 316.911 143.07 L 316.911 143.551 L 315.667 143.551 L 315.667 146.52 Q 315.667 147.069 315.77 147.299 Q 315.873 147.529 316.186 147.529 Q 316.47 147.529 316.617 147.427 Q 316.764 147.324 316.951 147.108 Z " fill="black" /><path d="M 318.264 149.558 L 318.264 149.558 L 318.097 149.235 Q 318.303 149.146 318.519 149.004 Q 318.734 148.862 318.876 148.602 Q 319.018 148.343 319.018 147.921 Q 318.852 147.99 318.675 147.99 Q 318.352 147.99 318.215 147.799 Q 318.078 147.608 318.078 147.363 Q 318.078 147.098 318.254 146.902 Q 318.43 146.706 318.764 146.706 Q 319.185 146.706 319.406 146.966 Q 319.626 147.226 319.626 147.686 Q 319.626 148.157 319.479 148.485 Q 319.332 148.813 319.112 149.024 Q 318.891 149.235 318.661 149.357 Q 318.43 149.48 318.264 149.558 Z " fill="black" /><path d="M 323.86 148.088 L 323.86 148.088 L 320.537 148.088 L 320.537 147.735 Q 321.243 147.735 321.473 147.593 Q 321.704 147.451 321.704 147.079 L 321.704 142.806 Q 321.704 142.541 321.625 142.424 Q 321.547 142.306 321.341 142.306 Q 321.184 142.306 320.915 142.35 Q 320.645 142.394 320.449 142.443 L 320.449 142.051 L 322.262 141.551 L 322.684 141.551 L 322.684 147.079 Q 322.684 147.451 322.934 147.593 Q 323.183 147.735 323.86 147.735 Z " fill="black" /><path d="M 329.318 146.549 L 329.318 146.549 Q 329.318 147.373 328.72 147.799 Q 328.123 148.225 327.182 148.225 Q 326.584 148.225 326.104 148.049 Q 325.624 147.872 325.349 147.52 Q 325.075 147.167 325.075 146.638 Q 325.075 146.216 325.241 145.932 Q 325.408 145.648 325.727 145.408 Q 326.045 145.168 326.486 144.883 L 326.486 144.844 Q 325.947 144.491 325.673 144.212 Q 325.398 143.933 325.3 143.649 Q 325.202 143.364 325.202 143.012 Q 325.202 142.541 325.462 142.198 Q 325.722 141.855 326.177 141.674 Q 326.633 141.493 327.211 141.493 Q 327.731 141.493 328.147 141.674 Q 328.564 141.855 328.809 142.174 Q 329.054 142.492 329.054 142.904 Q 329.054 143.276 328.926 143.536 Q 328.799 143.796 328.515 144.016 Q 328.23 144.237 327.76 144.491 L 327.76 144.54 Q 328.358 144.883 328.696 145.182 Q 329.034 145.481 329.176 145.805 Q 329.318 146.128 329.318 146.549 Z M 326.829 145.07 L 326.829 145.07 Q 326.378 145.422 326.158 145.731 Q 325.937 146.04 325.937 146.53 Q 325.937 147.245 326.29 147.564 Q 326.643 147.882 327.221 147.882 Q 327.701 147.882 328.044 147.632 Q 328.387 147.382 328.387 146.873 Q 328.387 146.54 328.26 146.275 Q 328.132 146.01 327.794 145.726 Q 327.456 145.442 326.829 145.07 Z M 328.24 142.894 L 328.24 142.894 Q 328.24 142.375 327.961 142.13 Q 327.682 141.885 327.192 141.885 Q 326.662 141.885 326.373 142.13 Q 326.084 142.375 326.084 142.865 Q 326.084 143.149 326.212 143.369 Q 326.339 143.59 326.628 143.805 Q 326.917 144.021 327.378 144.315 Q 327.907 144.001 328.074 143.688 Q 328.24 143.374 328.24 142.894 Z " fill="black" /><path d="M 334.973 144.844 L 334.973 144.844 Q 334.973 145.491 334.836 146.099 Q 334.698 146.706 334.409 147.181 Q 334.12 147.657 333.669 147.936 Q 333.219 148.215 332.601 148.215 Q 331.974 148.215 331.523 147.946 Q 331.072 147.676 330.788 147.206 Q 330.504 146.736 330.372 146.123 Q 330.239 145.511 330.239 144.825 Q 330.239 143.805 330.533 143.07 Q 330.827 142.335 331.362 141.934 Q 331.896 141.532 332.621 141.532 Q 333.297 141.532 333.831 141.919 Q 334.365 142.306 334.669 143.046 Q 334.973 143.786 334.973 144.844 Z M 333.924 144.913 L 333.924 144.913 Q 333.924 143.374 333.591 142.654 Q 333.258 141.934 332.601 141.934 Q 331.954 141.934 331.616 142.654 Q 331.278 143.374 331.278 144.874 Q 331.278 146.353 331.626 147.074 Q 331.974 147.794 332.601 147.794 Q 333.238 147.794 333.581 147.069 Q 333.924 146.344 333.924 144.913 Z " fill="black" /></g></g></g><circle cx="288.0" cy="216.0" r="2.6999999999999997" style="stroke:black;fill:white;stroke-width:2.0;stroke-dasharray:-;" /><g><g><g><path d="M 297.1 210.484 L 297.1 210.484 L 297.408 210.484 L 296.75 213.172 Q 296.652 213.536 296.547 214.047 Q 296.442 214.558 296.442 215.034 Q 296.442 215.58 296.666 215.979 Q 296.89 216.378 297.534 216.378 Q 298.248 216.378 298.766 216.035 Q 299.284 215.692 299.613 215.16 Q 299.942 214.628 300.103 214.04 Q 300.264 213.452 300.264 212.962 Q 300.264 212.598 300.138 212.332 Q 300.012 212.066 299.837 211.856 Q 299.662 211.646 299.536 211.45 Q 299.41 211.254 299.41 211.03 Q 299.41 210.75 299.564 210.596 Q 299.718 210.442 299.942 210.442 Q 300.418 210.442 300.712 210.918 Q 301.006 211.394 301.006 212.136 Q 301.006 212.78 300.845 213.487 Q 300.684 214.194 300.362 214.866 Q 300.04 215.538 299.564 216.084 Q 299.088 216.63 298.472 216.952 Q 297.856 217.274 297.1 217.274 Q 296.4 217.274 296.008 216.994 Q 295.616 216.714 295.455 216.252 Q 295.294 215.79 295.294 215.258 Q 295.294 214.754 295.392 214.222 Q 295.49 213.69 295.602 213.256 L 295.882 212.192 Q 295.91 212.08 295.966 211.856 Q 296.022 211.632 296.022 211.422 Q 296.022 211.24 295.952 211.114 Q 295.882 210.988 295.686 210.988 Q 295.518 210.988 295.28 211.009 Q 295.042 211.03 295.042 211.03 L 295.042 210.638 Z " fill="black" /><path d="M 304.034 214.943 L 304.034 214.943 Q 304.769 214.943 305.318 215.261 Q 305.867 215.58 306.166 216.153 Q 306.465 216.727 306.465 217.501 Q 306.465 218.432 306.151 219.03 Q 305.837 219.627 305.289 219.916 Q 304.74 220.206 304.034 220.206 Q 303.319 220.206 302.765 219.907 Q 302.211 219.608 301.903 219.01 Q 301.594 218.412 301.594 217.511 Q 301.594 216.746 301.898 216.168 Q 302.202 215.59 302.75 215.266 Q 303.299 214.943 304.034 214.943 Z M 304.015 215.394 L 304.015 215.394 Q 303.368 215.394 303 215.918 Q 302.633 216.442 302.633 217.452 Q 302.633 218.696 303.01 219.211 Q 303.387 219.725 304.064 219.725 Q 304.495 219.716 304.799 219.51 Q 305.102 219.304 305.264 218.819 Q 305.426 218.334 305.426 217.501 Q 305.426 216.501 305.083 215.947 Q 304.74 215.394 304.015 215.394 Z " fill="black" /><path d="M 313.129 219.588 L 313.129 219.588 L 313.129 219.961 L 311.806 220.137 L 311.492 220.137 L 311.492 219.373 L 311.394 219.373 Q 311.022 219.706 310.639 219.946 Q 310.257 220.186 309.718 220.186 Q 308.993 220.186 308.611 219.745 Q 308.229 219.304 308.229 218.216 L 308.229 216.109 Q 308.229 215.707 308.087 215.614 Q 307.944 215.521 307.494 215.521 L 307.494 215.168 L 308.856 214.982 L 309.179 214.982 L 309.179 218.089 Q 309.179 218.638 309.307 218.941 Q 309.434 219.245 309.65 219.363 Q 309.865 219.48 310.12 219.48 Q 310.551 219.48 310.84 219.299 Q 311.129 219.118 311.443 218.863 L 311.443 216.109 Q 311.443 215.707 311.267 215.614 Q 311.09 215.521 310.59 215.521 L 310.59 215.168 L 312.051 214.982 L 312.394 214.982 L 312.394 218.951 Q 312.394 219.245 312.448 219.382 Q 312.501 219.52 312.639 219.554 Q 312.776 219.588 313.021 219.588 Z " fill="black" /><path d="M 316.951 219.108 L 316.951 219.108 L 317.176 219.294 Q 316.96 219.588 316.784 219.789 Q 316.608 219.99 316.382 220.098 Q 316.157 220.206 315.804 220.206 Q 315.236 220.206 314.976 219.882 Q 314.716 219.559 314.716 218.843 L 314.716 215.551 L 314.099 215.551 L 314.099 215.257 Q 314.452 215.002 314.746 214.634 Q 315.04 214.267 315.334 213.581 L 315.677 213.581 L 315.667 215.07 L 316.911 215.07 L 316.911 215.551 L 315.667 215.551 L 315.667 218.52 Q 315.667 219.069 315.77 219.299 Q 315.873 219.529 316.186 219.529 Q 316.47 219.529 316.617 219.427 Q 316.764 219.324 316.951 219.108 Z " fill="black" /><path d="M 318.264 221.558 L 318.264 221.558 L 318.097 221.235 Q 318.303 221.146 318.519 221.004 Q 318.734 220.862 318.876 220.602 Q 319.018 220.343 319.018 219.921 Q 318.852 219.99 318.675 219.99 Q 318.352 219.99 318.215 219.799 Q 318.078 219.608 318.078 219.363 Q 318.078 219.098 318.254 218.902 Q 318.43 218.706 318.764 218.706 Q 319.185 218.706 319.406 218.966 Q 319.626 219.226 319.626 219.686 Q 319.626 220.157 319.479 220.485 Q 319.332 220.813 319.112 221.024 Q 318.891 221.235 318.661 221.357 Q 318.43 221.48 318.264 221.558 Z " fill="black" /><path d="M 324.418 218.383 L 324.418 218.383 L 324.085 220.088 L 320.067 220.088 L 320.067 219.608 L 321.459 218.197 Q 322.007 217.648 322.365 217.226 Q 322.723 216.805 322.899 216.379 Q 323.076 215.952 323.076 215.404 Q 323.076 214.884 322.757 214.546 Q 322.439 214.208 321.86 214.208 Q 321.331 214.208 320.974 214.419 Q 320.616 214.629 320.341 215.11 L 320.077 214.982 Q 320.322 214.296 320.836 213.904 Q 321.351 213.512 322.105 213.512 Q 322.693 213.512 323.144 213.723 Q 323.595 213.934 323.85 214.326 Q 324.105 214.718 324.105 215.276 Q 324.105 215.756 323.889 216.178 Q 323.673 216.599 323.277 217.04 Q 322.88 217.481 322.331 218.02 L 321.106 219.206 L 321.106 219.275 L 321.87 219.235 L 323.144 219.235 Q 323.428 219.235 323.58 219.157 Q 323.732 219.079 323.84 218.887 Q 323.948 218.696 324.075 218.383 Z " fill="black" /><path d="M 329.455 214.071 L 329.455 214.071 L 327.201 220.166 L 326.339 220.166 L 328.642 214.522 L 326.525 214.522 Q 326.221 214.522 326.065 214.585 Q 325.908 214.649 325.82 214.816 Q 325.731 214.982 325.614 215.306 L 325.222 215.286 L 325.555 213.659 L 329.455 213.659 Z " fill="black" /><path d="M 335.002 216.844 L 335.002 216.844 Q 335.002 217.491 334.865 218.099 Q 334.728 218.706 334.439 219.181 Q 334.15 219.657 333.699 219.936 Q 333.248 220.215 332.631 220.215 Q 332.003 220.215 331.553 219.946 Q 331.102 219.676 330.818 219.206 Q 330.533 218.736 330.401 218.123 Q 330.269 217.511 330.269 216.825 Q 330.269 215.805 330.563 215.07 Q 330.857 214.335 331.391 213.934 Q 331.925 213.532 332.65 213.532 Q 333.326 213.532 333.861 213.919 Q 334.395 214.306 334.698 215.046 Q 335.002 215.786 335.002 216.844 Z M 333.954 216.913 L 333.954 216.913 Q 333.954 215.374 333.62 214.654 Q 333.287 213.934 332.631 213.934 Q 331.984 213.934 331.646 214.654 Q 331.308 215.374 331.308 216.874 Q 331.308 218.353 331.656 219.074 Q 332.003 219.794 332.631 219.794 Q 333.268 219.794 333.611 219.069 Q 333.954 218.344 333.954 216.913 Z " fill="black" /></g></g></g></svg>