<svg xmlns="http://www.w3.org/2000/svg" xmlns:xlink="http://www.w3.org/1999/xlink" xml:lang="en" height="45.2pt" width="206.32520000000002pt" viewBox="-49.095400000000005 -22.6 206.32520000000002 45.2"><path d="M 0.0,-0.0 L 18.0,-0.0 L 27.0,-0.0" style="stroke:black;fill:none;stroke-width:2.0;stroke-dasharray:-;stroke-linecap:round;stroke-linejoin:round;" /><path d="M 34.0 0.0 L 27.0 2.6999999999999997 L 27.0 -2.6999999999999997 Z" style="stroke:black;fill:black;stroke-linecap:butt;stroke-linejoin:miter;" /><path d="M 36.0,-0.0 L 36.0,-18.0 L 72.0,-18.0 L 72.0,18.0 L 36.0,18.0 L 36.0,-0.0" style="stroke:black;fill:none;stroke-width:2.0;stroke-dasharray:-;stroke-linecap:round;stroke-linejoin:round;" /><path d="M 72.0,-0.0 L 90.0,-0.0 L 99.0,-0.0" style="stroke:black;fill:none;stroke-width:2.0;stroke-dasharray:-;stroke-linecap:round;stroke-linejoin:round;" /><path d="M 106.0 0.0 L 99.0 2.6999999999999997 L 99.0 -2.6999999999999997 Z" style="stroke:black;fill:black;stroke-linecap:butt;stroke-linejoin:miter;" /><g><g><g><path d="M -45.296 1.873 L -45.296 1.873 L -41.474 -3.867 Q -41.278 -4.147 -41.159 -4.385 Q -41.04 -4.623 -41.04 -4.791 Q -41.04 -5.001 -41.222 -5.078 Q -41.404 -5.155 -41.88 -5.155 L -41.852 -5.575 L -38.828 -5.575 L -38.856 -5.155 Q -39.234 -5.155 -39.5 -5.043 Q -39.766 -4.931 -40.039 -4.616 Q -40.312 -4.301 -40.746 -3.657 L -45.884 3.693 L -46.346 3.693 L -47.13 -3.881 Q -47.214 -4.581 -47.438 -4.868 Q -47.662 -5.155 -48.222 -5.155 L -48.194 -5.575 L -44.764 -5.575 L -44.806 -5.155 Q -45.338 -5.155 -45.646 -4.945 Q -45.954 -4.735 -45.926 -4.259 Q -45.926 -4.189 -45.905 -4.007 Q -45.884 -3.825 -45.884 -3.755 L -45.464 0.235 L -45.366 1.873 Z " fill="black" /><path d="M -37.119 5.583 L -37.119 5.583 L -36.893 5.769 Q -37.109 6.063 -37.285 6.264 Q -37.462 6.465 -37.687 6.573 Q -37.913 6.681 -38.265 6.681 Q -38.834 6.681 -39.093 6.357 Q -39.353 6.034 -39.353 5.319 L -39.353 2.026 L -39.971 2.026 L -39.971 1.732 Q -39.618 1.477 -39.324 1.11 Q -39.03 0.742 -38.736 0.056 L -38.393 0.056 L -38.403 1.546 L -37.158 1.546 L -37.158 2.026 L -38.403 2.026 L -38.403 4.995 Q -38.403 5.544 -38.3 5.774 Q -38.197 6.005 -37.883 6.005 Q -37.599 6.005 -37.452 5.902 Q -37.305 5.799 -37.119 5.583 Z " fill="black" /><path d="M -30.563 6.063 L -30.563 6.063 L -30.563 6.436 L -31.886 6.612 L -32.199 6.612 L -32.199 5.848 L -32.297 5.848 Q -32.67 6.181 -33.052 6.421 Q -33.434 6.661 -33.973 6.661 Q -34.698 6.661 -35.08 6.22 Q -35.463 5.779 -35.463 4.691 L -35.463 2.584 Q -35.463 2.183 -35.605 2.09 Q -35.747 1.996 -36.198 1.996 L -36.198 1.644 L -34.835 1.457 L -34.512 1.457 L -34.512 4.564 Q -34.512 5.113 -34.385 5.417 Q -34.257 5.72 -34.042 5.838 Q -33.826 5.956 -33.571 5.956 Q -33.14 5.956 -32.851 5.774 Q -32.562 5.593 -32.248 5.338 L -32.248 2.584 Q -32.248 2.183 -32.425 2.09 Q -32.601 1.996 -33.101 1.996 L -33.101 1.644 L -31.641 1.457 L -31.298 1.457 L -31.298 5.426 Q -31.298 5.72 -31.244 5.858 Q -31.19 5.995 -31.053 6.029 Q -30.915 6.063 -30.67 6.063 Z " fill="black" /><path d="M -24.673 3.28 L -24.673 3.28 L -24.673 5.475 Q -24.673 5.75 -24.624 5.911 Q -24.575 6.073 -24.408 6.142 Q -24.242 6.21 -23.889 6.21 L -23.889 6.563 L -26.407 6.563 L -26.407 6.21 Q -26.035 6.21 -25.868 6.142 Q -25.702 6.073 -25.663 5.911 Q -25.623 5.75 -25.623 5.475 L -25.623 3.604 Q -25.623 2.947 -25.775 2.638 Q -25.927 2.33 -26.157 2.232 Q -26.388 2.134 -26.623 2.134 Q -27.044 2.134 -27.363 2.349 Q -27.681 2.565 -27.917 2.761 L -27.917 5.475 Q -27.917 5.75 -27.872 5.911 Q -27.828 6.073 -27.662 6.142 Q -27.495 6.21 -27.133 6.21 L -27.133 6.563 L -29.602 6.563 L -29.602 6.21 Q -29.259 6.21 -29.107 6.142 Q -28.955 6.073 -28.916 5.911 Q -28.877 5.75 -28.877 5.475 L -28.877 2.496 Q -28.877 2.222 -28.98 2.129 Q -29.083 2.036 -29.308 2.036 Q -29.426 2.036 -29.504 2.045 Q -29.583 2.055 -29.583 2.055 L -29.583 1.683 L -28.269 1.448 L -27.946 1.448 L -27.946 2.251 L -27.877 2.251 Q -27.456 1.869 -27.069 1.644 Q -26.682 1.418 -26.192 1.418 Q -25.614 1.418 -25.285 1.678 Q -24.957 1.938 -24.815 2.359 Q -24.673 2.78 -24.673 3.28 Z " fill="black" /><path d="M -18.803 5.103 L -18.803 5.103 L -18.567 5.289 Q -18.773 5.662 -19.028 5.975 Q -19.283 6.289 -19.655 6.475 Q -20.028 6.661 -20.596 6.661 Q -21.213 6.661 -21.747 6.382 Q -22.282 6.103 -22.605 5.524 Q -22.928 4.946 -22.928 4.064 Q -22.928 3.192 -22.625 2.604 Q -22.321 2.016 -21.801 1.717 Q -21.282 1.418 -20.645 1.418 Q -19.763 1.418 -19.18 2.031 Q -18.597 2.643 -18.577 3.858 L -22.027 3.858 Q -22.027 4.525 -21.777 4.961 Q -21.527 5.397 -21.135 5.608 Q -20.743 5.818 -20.312 5.818 Q -19.871 5.818 -19.606 5.725 Q -19.342 5.632 -19.16 5.466 Q -18.979 5.299 -18.803 5.103 Z M -22.027 3.408 L -22.027 3.408 L -19.626 3.408 Q -19.626 3.016 -19.753 2.668 Q -19.881 2.32 -20.126 2.099 Q -20.371 1.879 -20.753 1.879 Q -21.311 1.879 -21.64 2.271 Q -21.968 2.663 -22.027 3.408 Z " fill="black" /><path d="M -17.418 -0.157 L -17.418 -0.157 Q -17.418 -2.495 -16.403 -4.147 Q -15.388 -5.799 -13.694 -6.681 L -13.47 -6.317 Q -14.996 -5.281 -15.633 -3.79 Q -16.27 -2.299 -16.27 -0.157 Q -16.27 1.985 -15.633 3.476 Q -14.996 4.967 -13.47 6.003 L -13.694 6.367 Q -15.388 5.485 -16.403 3.833 Q -17.418 2.181 -17.418 -0.157 Z " fill="black" /><path d="M -7.758 -3.083 L -7.758 -3.083 L -8.08 -0.899 L -8.416 -0.899 Q -8.444 -1.711 -8.787 -2.187 Q -9.13 -2.663 -9.746 -2.663 Q -10.292 -2.663 -10.53 -2.369 Q -10.768 -2.075 -10.768 -1.767 Q -10.768 -1.473 -10.565 -1.2 Q -10.362 -0.927 -10.054 -0.64 Q -9.746 -0.353 -9.438 -0.017 Q -8.99 0.459 -8.661 0.914 Q -8.332 1.369 -8.332 2.041 Q -8.332 2.447 -8.535 2.846 Q -8.738 3.245 -9.2 3.511 Q -9.662 3.777 -10.46 3.777 Q -11.118 3.777 -11.517 3.616 Q -11.916 3.455 -12.07 3.399 L -12.112 3.399 L -12.448 3.777 L -12.756 3.777 L -12.392 1.439 L -12.042 1.439 Q -11.93 2.349 -11.615 2.825 Q -11.3 3.301 -10.586 3.301 Q -10.096 3.301 -9.795 3.063 Q -9.494 2.825 -9.494 2.279 Q -9.494 1.705 -9.809 1.306 Q -10.124 0.907 -10.53 0.529 Q -10.81 0.249 -11.097 -0.017 Q -11.384 -0.283 -11.573 -0.612 Q -11.762 -0.941 -11.762 -1.375 Q -11.762 -2.089 -11.286 -2.586 Q -10.81 -3.083 -9.858 -3.083 Q -9.298 -3.083 -8.927 -2.929 Q -8.556 -2.775 -8.43 -2.705 L -8.388 -2.705 L -8.024 -3.083 Z " fill="black" /><path d="M -3.278 -0.157 L -3.278 -0.157 Q -3.278 2.181 -4.293 3.833 Q -5.308 5.485 -7.002 6.367 L -7.226 6.003 Q -5.686 4.967 -5.056 3.476 Q -4.426 1.985 -4.426 -0.157 Q -4.426 -2.299 -5.056 -3.79 Q -5.686 -5.281 -7.226 -6.317 L -7.002 -6.681 Q -5.308 -5.799 -4.293 -4.147 Q -3.278 -2.495 -3.278 -0.157 Z " fill="black" /></g></g></g><g><g><g><path d="M 41.738 -4.442 L 41.738 -4.442 L 42.541 -8.303 Q 42.62 -8.685 42.61 -8.905 Q 42.6 -9.126 42.424 -9.214 Q 42.247 -9.302 41.816 -9.302 L 41.875 -9.596 L 44.638 -9.596 L 44.589 -9.302 Q 44.129 -9.302 43.903 -9.214 Q 43.678 -9.126 43.585 -8.905 Q 43.492 -8.685 43.413 -8.303 L 43.041 -6.47 L 43.08 -6.47 L 44.952 -8.009 Q 45.383 -8.352 45.643 -8.607 Q 45.903 -8.861 45.903 -9.077 Q 45.903 -9.302 45.54 -9.302 L 45.373 -9.302 L 45.442 -9.596 L 47.745 -9.596 L 47.696 -9.302 Q 47.422 -9.283 47.23 -9.219 Q 47.039 -9.155 46.843 -9.028 Q 46.647 -8.901 46.344 -8.655 L 43.815 -6.617 L 45.981 -3.873 Q 46.177 -3.638 46.417 -3.545 Q 46.657 -3.452 47.02 -3.452 L 46.961 -3.158 L 44.139 -3.158 L 44.188 -3.452 L 44.315 -3.452 Q 44.54 -3.452 44.663 -3.511 Q 44.785 -3.569 44.785 -3.736 Q 44.785 -3.893 44.692 -4.094 Q 44.599 -4.295 44.369 -4.618 Q 44.139 -4.941 43.717 -5.441 L 43.1 -6.186 L 42.982 -6.186 L 42.629 -4.442 Q 42.551 -4.02 42.561 -3.809 Q 42.571 -3.599 42.762 -3.525 Q 42.953 -3.452 43.384 -3.452 L 43.325 -3.158 L 40.591 -3.158 L 40.65 -3.452 Q 41.061 -3.452 41.262 -3.525 Q 41.463 -3.599 41.556 -3.809 Q 41.649 -4.02 41.738 -4.442 Z " fill="black" /><path d="M 51.007 -2.101 L 51.007 -2.101 L 52.238 -5.225 Q 52.274 -5.312 52.303 -5.409 Q 52.332 -5.506 52.332 -5.614 Q 52.332 -5.78 52.213 -5.834 Q 52.094 -5.888 51.82 -5.888 L 51.82 -6.161 L 53.484 -6.161 L 53.484 -5.888 Q 53.275 -5.888 53.142 -5.83 Q 53.008 -5.773 52.9 -5.593 Q 52.792 -5.413 52.641 -5.038 L 51.007 -1.057 L 50.589 -1.057 L 48.847 -5.175 Q 48.688 -5.557 48.519 -5.722 Q 48.35 -5.888 48.055 -5.888 L 48.055 -6.161 L 50.15 -6.161 L 50.15 -5.888 Q 50.064 -5.888 49.941 -5.877 Q 49.819 -5.866 49.729 -5.809 Q 49.639 -5.751 49.639 -5.607 Q 49.639 -5.535 49.678 -5.405 Q 49.718 -5.276 49.783 -5.11 L 50.704 -2.871 L 50.964 -2.101 Z " fill="black" /><path d="M 58.437 -2.273 L 58.437 -2.273 L 58.653 -2.093 Q 58.459 -1.791 58.178 -1.546 Q 57.897 -1.301 57.501 -1.157 Q 57.105 -1.013 56.565 -1.013 Q 55.37 -1.013 54.711 -1.676 Q 54.052 -2.338 54.052 -3.598 Q 54.052 -4.441 54.387 -5.035 Q 54.722 -5.629 55.312 -5.945 Q 55.903 -6.262 56.666 -6.262 Q 57.084 -6.262 57.328 -6.194 Q 57.573 -6.125 57.714 -6.053 Q 57.854 -5.981 57.948 -5.981 Q 58.027 -5.981 58.081 -6.05 Q 58.135 -6.118 58.228 -6.248 L 58.488 -6.248 L 58.488 -4.455 L 58.185 -4.455 Q 58.048 -5.218 57.663 -5.549 Q 57.278 -5.881 56.63 -5.881 Q 56.083 -5.881 55.708 -5.611 Q 55.334 -5.341 55.143 -4.851 Q 54.952 -4.361 54.952 -3.706 Q 54.952 -2.965 55.194 -2.504 Q 55.435 -2.043 55.86 -1.831 Q 56.284 -1.618 56.832 -1.618 Q 57.364 -1.618 57.739 -1.78 Q 58.113 -1.942 58.437 -2.273 Z " fill="black" /><path d="M 64.636 -3.605 L 64.636 -3.605 Q 64.636 -2.799 64.327 -2.216 Q 64.017 -1.633 63.448 -1.316 Q 62.88 -0.999 62.095 -0.999 Q 61.317 -0.999 60.748 -1.316 Q 60.18 -1.633 59.87 -2.223 Q 59.56 -2.813 59.56 -3.634 Q 59.56 -4.419 59.87 -5.006 Q 60.18 -5.593 60.752 -5.92 Q 61.324 -6.248 62.095 -6.248 Q 62.88 -6.248 63.448 -5.906 Q 64.017 -5.564 64.327 -4.97 Q 64.636 -4.376 64.636 -3.605 Z M 63.722 -3.706 L 63.722 -3.706 Q 63.722 -4.757 63.279 -5.319 Q 62.836 -5.881 62.088 -5.881 Q 61.346 -5.881 60.91 -5.312 Q 60.475 -4.743 60.475 -3.685 Q 60.475 -2.583 60.871 -1.985 Q 61.267 -1.388 62.102 -1.388 Q 62.937 -1.388 63.33 -1.967 Q 63.722 -2.547 63.722 -3.706 Z " fill="black" /><path d="M 54.827 4.794 L 54.827 4.794 L 54.602 6.323 L 54.367 6.323 Q 54.347 5.755 54.107 5.421 Q 53.867 5.088 53.436 5.088 Q 53.053 5.088 52.887 5.294 Q 52.72 5.5 52.72 5.715 Q 52.72 5.921 52.862 6.112 Q 53.004 6.303 53.22 6.504 Q 53.436 6.705 53.651 6.94 Q 53.965 7.274 54.195 7.592 Q 54.425 7.911 54.425 8.381 Q 54.425 8.665 54.283 8.945 Q 54.141 9.224 53.818 9.41 Q 53.494 9.596 52.936 9.596 Q 52.475 9.596 52.196 9.484 Q 51.917 9.371 51.809 9.332 L 51.779 9.332 L 51.544 9.596 L 51.329 9.596 L 51.583 7.96 L 51.828 7.96 Q 51.907 8.597 52.127 8.93 Q 52.348 9.263 52.848 9.263 Q 53.191 9.263 53.401 9.096 Q 53.612 8.93 53.612 8.548 Q 53.612 8.146 53.392 7.867 Q 53.171 7.587 52.887 7.323 Q 52.691 7.127 52.49 6.94 Q 52.289 6.754 52.157 6.524 Q 52.024 6.294 52.024 5.99 Q 52.024 5.49 52.358 5.142 Q 52.691 4.794 53.357 4.794 Q 53.749 4.794 54.009 4.902 Q 54.269 5.01 54.357 5.059 L 54.386 5.059 L 54.641 4.794 Z " fill="black" /><rect x="40.655" y="-0.333" width="24.513" height="0.952" fill="black" /></g></g></g><g><g><g><path d="M 114.75 2.549 L 114.75 2.549 L 115.058 1.191 Q 115.31 -0.013 115.723 -0.951 Q 116.136 -1.889 116.717 -2.428 Q 117.298 -2.967 118.026 -2.967 Q 118.754 -2.967 119.181 -2.379 Q 119.608 -1.791 119.608 -0.643 Q 119.608 0.757 119.034 1.66 Q 118.46 2.563 117.494 3.053 Q 116.528 3.543 115.352 3.711 Q 115.296 4.285 115.247 4.817 Q 115.198 5.349 115.072 5.762 Q 114.946 6.175 114.666 6.413 Q 114.386 6.651 113.854 6.651 L 113.644 6.609 L 114.414 3.739 Q 113.294 3.585 112.699 2.927 Q 112.104 2.269 112.104 1.079 Q 112.104 0.337 112.293 -0.377 Q 112.482 -1.091 112.909 -1.693 Q 113.336 -2.295 114.043 -2.708 Q 114.75 -3.121 115.8 -3.247 Q 115.94 -3.149 115.94 -2.855 Q 115.94 -2.211 115.478 -2.085 Q 114.792 -1.931 114.155 -1.574 Q 113.518 -1.217 113.105 -0.65 Q 112.692 -0.083 112.692 0.715 Q 112.692 1.387 113.014 1.786 Q 113.336 2.185 113.812 2.36 Q 114.288 2.535 114.75 2.549 Z M 115.87 0.995 L 115.87 0.995 L 115.562 2.521 Q 116.052 2.493 116.633 2.353 Q 117.214 2.213 117.732 1.898 Q 118.25 1.583 118.586 1.023 Q 118.922 0.463 118.922 -0.405 Q 118.922 -1.133 118.628 -1.441 Q 118.334 -1.749 117.858 -1.749 Q 117.27 -1.749 116.871 -1.329 Q 116.472 -0.909 116.234 -0.279 Q 115.996 0.351 115.87 0.995 Z " fill="black" /><path d="M 123.826 5.191 L 123.826 5.191 L 125.502 0.938 Q 125.551 0.82 125.59 0.688 Q 125.629 0.556 125.629 0.409 Q 125.629 0.183 125.468 0.11 Q 125.306 0.036 124.934 0.036 L 124.934 -0.336 L 127.197 -0.336 L 127.197 0.036 Q 126.913 0.036 126.732 0.115 Q 126.551 0.193 126.404 0.438 Q 126.257 0.683 126.051 1.193 L 123.826 6.612 L 123.258 6.612 L 120.886 1.007 Q 120.671 0.487 120.44 0.262 Q 120.21 0.036 119.808 0.036 L 119.808 -0.336 L 122.66 -0.336 L 122.66 0.036 Q 122.542 0.036 122.376 0.051 Q 122.209 0.066 122.087 0.144 Q 121.964 0.223 121.964 0.419 Q 121.964 0.517 122.018 0.693 Q 122.072 0.869 122.16 1.095 L 123.415 4.143 L 123.767 5.191 Z " fill="black" /><path d="M 133.94 4.956 L 133.94 4.956 L 134.234 5.201 Q 133.969 5.613 133.587 5.946 Q 133.205 6.279 132.666 6.475 Q 132.127 6.671 131.392 6.671 Q 129.765 6.671 128.868 5.769 Q 127.972 4.868 127.972 3.153 Q 127.972 2.006 128.427 1.198 Q 128.883 0.389 129.687 -0.042 Q 130.49 -0.473 131.529 -0.473 Q 132.097 -0.473 132.431 -0.38 Q 132.764 -0.287 132.955 -0.189 Q 133.146 -0.091 133.273 -0.091 Q 133.381 -0.091 133.455 -0.184 Q 133.528 -0.277 133.656 -0.454 L 134.008 -0.454 L 134.008 1.987 L 133.597 1.987 Q 133.411 0.948 132.886 0.497 Q 132.362 0.046 131.48 0.046 Q 130.735 0.046 130.226 0.414 Q 129.716 0.781 129.456 1.448 Q 129.197 2.114 129.197 3.006 Q 129.197 4.015 129.525 4.642 Q 129.853 5.27 130.431 5.559 Q 131.01 5.848 131.754 5.848 Q 132.48 5.848 132.989 5.627 Q 133.499 5.407 133.94 4.956 Z " fill="black" /><path d="M 142.378 3.143 L 142.378 3.143 Q 142.378 4.241 141.956 5.034 Q 141.535 5.828 140.761 6.259 Q 139.986 6.691 138.918 6.691 Q 137.86 6.691 137.086 6.259 Q 136.311 5.828 135.89 5.025 Q 135.469 4.221 135.469 3.104 Q 135.469 2.036 135.89 1.237 Q 136.311 0.438 137.091 -0.008 Q 137.87 -0.454 138.918 -0.454 Q 139.986 -0.454 140.761 0.012 Q 141.535 0.477 141.956 1.286 Q 142.378 2.094 142.378 3.143 Z M 141.133 3.006 L 141.133 3.006 Q 141.133 1.575 140.53 0.811 Q 139.928 0.046 138.908 0.046 Q 137.899 0.046 137.306 0.82 Q 136.713 1.595 136.713 3.035 Q 136.713 4.535 137.252 5.348 Q 137.791 6.161 138.928 6.161 Q 140.065 6.161 140.599 5.373 Q 141.133 4.584 141.133 3.006 Z " fill="black" /><path d="M 143.645 -0.167 L 143.645 -0.167 Q 143.645 -2.505 144.66 -4.157 Q 145.675 -5.809 147.369 -6.691 L 147.593 -6.327 Q 146.067 -5.291 145.43 -3.8 Q 144.793 -2.309 144.793 -0.167 Q 144.793 1.975 145.43 3.466 Q 146.067 4.957 147.593 5.993 L 147.369 6.357 Q 145.675 5.475 144.66 3.823 Q 143.645 2.171 143.645 -0.167 Z " fill="black" /><path d="M 153.305 -3.093 L 153.305 -3.093 L 152.983 -0.909 L 152.647 -0.909 Q 152.619 -1.721 152.276 -2.197 Q 151.933 -2.673 151.317 -2.673 Q 150.771 -2.673 150.533 -2.379 Q 150.295 -2.085 150.295 -1.777 Q 150.295 -1.483 150.498 -1.21 Q 150.701 -0.937 151.009 -0.65 Q 151.317 -0.363 151.625 -0.027 Q 152.073 0.449 152.402 0.904 Q 152.731 1.359 152.731 2.031 Q 152.731 2.437 152.528 2.836 Q 152.325 3.235 151.863 3.501 Q 151.401 3.767 150.603 3.767 Q 149.945 3.767 149.546 3.606 Q 149.147 3.445 148.993 3.389 L 148.951 3.389 L 148.615 3.767 L 148.307 3.767 L 148.671 1.429 L 149.021 1.429 Q 149.133 2.339 149.448 2.815 Q 149.763 3.291 150.477 3.291 Q 150.967 3.291 151.268 3.053 Q 151.569 2.815 151.569 2.269 Q 151.569 1.695 151.254 1.296 Q 150.939 0.897 150.533 0.519 Q 150.253 0.239 149.966 -0.027 Q 149.679 -0.293 149.49 -0.622 Q 149.301 -0.951 149.301 -1.385 Q 149.301 -2.099 149.777 -2.596 Q 150.253 -3.093 151.205 -3.093 Q 151.765 -3.093 152.136 -2.939 Q 152.507 -2.785 152.633 -2.715 L 152.675 -2.715 L 153.039 -3.093 Z " fill="black" /><path d="M 157.785 -0.167 L 157.785 -0.167 Q 157.785 2.171 156.77 3.823 Q 155.755 5.475 154.061 6.357 L 153.837 5.993 Q 155.377 4.957 156.007 3.466 Q 156.637 1.975 156.637 -0.167 Q 156.637 -2.309 156.007 -3.8 Q 155.377 -5.291 153.837 -6.327 L 154.061 -6.691 Q 155.755 -5.809 156.77 -4.157 Q 157.785 -2.505 157.785 -0.167 Z " fill="black" /></g></g></g></svg>