<svg xmlns="http://www.w3.org/2000/svg" xmlns:xlink="http://www.w3.org/1999/xlink" xml:lang="en" height="146.19799999999998pt" width="261.56pt" viewBox="-18.28 -73.198 261.56 146.19799999999998"><path d="M 0.0,-0.0 L 0.0,-21.599999999999998 L -13.68,-43.199999999999996 L 13.68,-43.199999999999996 L 0.0,-21.599999999999998" style="stroke:black;fill:none;stroke-width:2.0;stroke-dasharray:-;stroke-linecap:round;stroke-linejoin:round;" /><path d="M 0.0,-0.0 L 18.0,-0.0 L 36.0,-0.0" style="stroke:black;fill:none;stroke-width:2.0;stroke-dasharray:-;stroke-linecap:round;stroke-linejoin:round;" /><path d="M 36.0,-0.0 L 36.0,-18.0 L 72.0,-18.0 L 72.0,18.0 L 36.0,18.0 L 36.0,-0.0" style="stroke:black;fill:none;stroke-width:2.0;stroke-dasharray:-;stroke-linecap:round;stroke-linejoin:round;" /><path d="M 43.199999999999996,-4.4087284769304716e-16 L 44.33684210526316,-1.168918089136861 L 45.473684210526315,-2.2111657656828045 L 46.61052631578947,-3.013799321745103 L 47.747368421052634,-3.4898409573815896 L 48.88421052631579,-3.5877041748240117 L 50.02105263157894,-3.2967839759582067 L 51.1578947368421,-2.648606078423274 L 52.294736842105266,-1.7134106149334647 L 53.43157894736842,-0.5925405250106421 L 54.56842105263158,0.5925405250106421 L 55.705263157894734,1.7134106149334647 L 56.8421052631579,2.6486060784232732 L 57.97894736842106,3.2967839759582063 L 59.11578947368421,3.5877041748240117 L 60.252631578947366,3.48984095738159 L 61.38947368421053,3.013799321745103 L 62.526315789473685,2.2111657656828045 L 63.66315789473684,1.168918089136861 L 64.8,4.4087284769304716e-16" style="stroke:black;fill:none;stroke-width:2.0;stroke-dasharray:-;stroke-linecap:round;stroke-linejoin:round;" /><path d="M 43.199999999999996,-9.0 L 44.33684210526316,-10.16891808913686 L 45.473684210526315,-11.211165765682804 L 46.61052631578947,-12.013799321745104 L 47.747368421052634,-12.489840957381588 L 48.88421052631579,-12.587704174824012 L 50.02105263157894,-12.296783975958206 L 51.1578947368421,-11.648606078423274 L 52.294736842105266,-10.713410614933464 L 53.43157894736842,-9.592540525010643 L 54.56842105263158,-8.407459474989357 L 55.705263157894734,-7.286589385066535 L 56.8421052631579,-6.351393921576727 L 57.97894736842106,-5.703216024041794 L 59.11578947368421,-5.412295825175989 L 60.252631578947366,-5.51015904261841 L 61.38947368421053,-5.986200678254896 L 62.526315789473685,-6.7888342343171955 L 63.66315789473684,-7.831081910863139 L 64.8,-9.0" style="stroke:black;fill:none;stroke-width:2.0;stroke-dasharray:-;stroke-linecap:round;stroke-linejoin:round;" /><path d="M 43.199999999999996,9.0 L 44.33684210526316,7.831081910863139 L 45.473684210526315,6.7888342343171955 L 46.61052631578947,5.986200678254896 L 47.747368421052634,5.510159042618411 L 48.88421052631579,5.412295825175989 L 50.02105263157894,5.703216024041793 L 51.1578947368421,6.351393921576726 L 52.294736842105266,7.286589385066535 L 53.43157894736842,8.407459474989357 L 54.56842105263158,9.592540525010643 L 55.705263157894734,10.713410614933464 L 56.8421052631579,11.648606078423274 L 57.97894736842106,12.296783975958206 L 59.11578947368421,12.587704174824012 L 60.252631578947366,12.489840957381592 L 61.38947368421053,12.013799321745104 L 62.526315789473685,11.211165765682804 L 63.66315789473684,10.16891808913686 L 64.8,9.0" style="stroke:black;fill:none;stroke-width:2.0;stroke-dasharray:-;stroke-linecap:round;stroke-linejoin:round;" /><path d="M 52.199999999999996,-6.12 L 55.800000000000004,-11.88" style="stroke:black;fill:none;stroke-width:2.0;stroke-dasharray:-;stroke-linecap:round;stroke-linejoin:round;" /><path d="M 52.199999999999996,11.88 L 55.800000000000004,6.12" style="stroke:black;fill:none;stroke-width:2.0;stroke-dasharray:-;stroke-linecap:round;stroke-linejoin:round;" /><path d="M 72.0,-0.0 L 90.0,-0.0 L 108.0,-0.0" style="stroke:black;fill:none;stroke-width:2.0;stroke-dasharray:-;stroke-linecap:round;stroke-linejoin:round;" /><path d="M 108.0,-0.0 M 116.64000000000001,-3.6 L 133.20000000000002,-9.0 M 144.0,-14.4" style="stroke:black;fill:none;stroke-width:2.0;stroke-dasharray:-;stroke-linecap:round;stroke-linejoin:round;" /><path d="M 139.68,-14.4 L 139.68,-32.4 L 139.68,-50.4" style="stroke:black;fill:none;stroke-width:2.0;stroke-dasharray:-;stroke-linecap:round;stroke-linejoin:round;" /><path d="M 139.68,-50.4 L 157.68,-50.4 L 166.68,-50.4" style="stroke:black;fill:none;stroke-width:2.0;stroke-dasharray:-;stroke-linecap:round;stroke-linejoin:round;" /><path d="M 173.68 -50.4 L 166.68 -47.699999999999996 L 166.68 -53.1 Z" style="stroke:black;fill:black;stroke-linecap:butt;stroke-linejoin:miter;" /><path d="M 175.68,-50.4 L 175.68,-32.4 L 202.68,-50.4 L 175.68,-68.39999999999999 L 175.68,-50.4" style="stroke:black;fill:none;stroke-width:2.0;stroke-dasharray:-;stroke-linecap:round;stroke-linejoin:round;" /><path d="M 202.68,-50.4 L 220.68,-50.4 L 229.68,-50.4" style="stroke:black;fill:none;stroke-width:2.0;stroke-dasharray:7.4,3.2;stroke-linecap:round;stroke-linejoin:round;" /><path d="M 236.68 -50.4 L 229.68 -47.699999999999996 L 229.68 -53.1 Z" style="stroke:black;fill:black;stroke-linecap:butt;stroke-linejoin:miter;" /><path d="M 139.68,23.400000000000002 L 139.68,32.4 L 139.68,50.4" style="stroke:black;fill:none;stroke-width:2.0;stroke-dasharray:-;stroke-linecap:round;stroke-linejoin:round;" /><path d="M 139.68 16.4 L 142.38 23.4 L 136.98000000000002 23.4 Z" style="stroke:black;fill:black;stroke-linecap:butt;stroke-linejoin:miter;" /><path d="M 139.68,50.4 L 157.68,50.4 L 175.68,50.4" style="stroke:black;fill:none;stroke-width:2.0;stroke-dasharray:-;stroke-linecap:round;stroke-linejoin:round;" /><path d="M 202.68,50.4 L 202.68,32.4 L 175.68,50.4 L 202.68,68.39999999999999 L 202.68,50.4" style="stroke:black;fill:none;stroke-width:2.0;stroke-dasharray:-;stroke-linecap:round;stroke-linejoin:round;" /><path d="M 211.68,50.4 L 220.68,50.4 L 238.68,50.4" style="stroke:black;fill:none;stroke-width:2.0;stroke-dasharray:7.4,3.2;stroke-linecap:round;stroke-linejoin:round;" /><path d="M 204.68 50.4 L 211.68 47.7 L 211.68 53.1 Z" style="stroke:black;fill:black;stroke-linecap:butt;stroke-linejoin:miter;" /><circle cx="112.32000000000001" cy="-0.0" r="4.32" style="stroke:black;fill:white;stroke-width:2.0;stroke-dasharray:-;" /><circle cx="139.68" cy="14.4" r="4.32" style="stroke:black;fill:white;stroke-width:2.0;stroke-dasharray:-;" /><circle cx="139.68" cy="-14.4" r="4.32" style="stroke:black;fill:white;stroke-width:2.0;stroke-dasharray:-;" /><g><g><g><path d="M 151.856 -59.4 L 151.856 -59.4 L 151.856 -68.598 L 154.81 -68.598 Q 155.762 -68.598 156.504 -68.346 Q 157.246 -68.094 157.666 -67.534 Q 158.086 -66.974 158.086 -66.022 Q 158.086 -64.916 157.512 -64.272 Q 156.938 -63.628 155.986 -63.404 L 158.366 -59.4 L 157.008 -59.4 L 154.754 -63.278 L 153.06 -63.278 L 153.06 -59.4 Z M 153.06 -64.244 L 153.06 -64.244 L 154.628 -64.244 Q 155.72 -64.244 156.308 -64.678 Q 156.896 -65.112 156.896 -66.008 Q 156.896 -66.904 156.308 -67.268 Q 155.72 -67.632 154.628 -67.632 L 153.06 -67.632 Z " fill="black" /><path d="M 158.968 -59.4 L 158.968 -59.4 L 161.698 -64.16 L 159.136 -68.598 L 160.452 -68.598 L 161.726 -66.26 Q 161.922 -65.952 162.083 -65.637 Q 162.244 -65.322 162.468 -64.916 L 162.524 -64.916 Q 162.72 -65.322 162.867 -65.637 Q 163.014 -65.952 163.182 -66.26 L 164.428 -68.598 L 165.688 -68.598 L 163.14 -64.09 L 165.87 -59.4 L 164.554 -59.4 L 163.182 -61.864 Q 162.972 -62.256 162.853 -62.473 Q 162.734 -62.69 162.664 -62.809 Q 162.594 -62.928 162.531 -63.04 Q 162.468 -63.152 162.37 -63.334 L 162.314 -63.334 Q 162.118 -62.914 161.936 -62.564 Q 161.754 -62.214 161.572 -61.864 L 160.228 -59.4 Z " fill="black" /></g></g></g><g><g><g><path d="M 153.62 46.8 L 153.62 46.8 L 153.62 38.61 L 150.792 38.61 L 150.792 37.602 L 157.652 37.602 L 157.652 38.61 L 154.81 38.61 L 154.81 46.8 Z " fill="black" /><path d="M 158.296 46.8 L 158.296 46.8 L 161.026 42.04 L 158.464 37.602 L 159.78 37.602 L 161.054 39.94 Q 161.25 40.248 161.411 40.563 Q 161.572 40.878 161.796 41.284 L 161.852 41.284 Q 162.048 40.878 162.195 40.563 Q 162.342 40.248 162.51 39.94 L 163.756 37.602 L 165.016 37.602 L 162.468 42.11 L 165.198 46.8 L 163.882 46.8 L 162.51 44.336 Q 162.3 43.944 162.181 43.727 Q 162.062 43.51 161.992 43.391 Q 161.922 43.272 161.859 43.16 Q 161.796 43.048 161.698 42.866 L 161.642 42.866 Q 161.446 43.286 161.264 43.636 Q 161.082 43.986 160.9 44.336 L 159.556 46.8 Z " fill="black" /></g></g></g></svg>