<svg xmlns="http://www.w3.org/2000/svg" xmlns:xlink="http://www.w3.org/1999/xlink" xml:lang="en" height="47.419999999999995pt" width="361.9462pt" viewBox="-64.704 -23.709999999999997 361.9462 47.419999999999995"><circle cx="212.4" cy="-0.0" r="18.0" style="stroke:black;fill:none;stroke-width:2.0;stroke-dasharray:-;" /><path d="M 0.0,-0.0 L 18.0,-0.0 M 13.5,-9.0 L 22.5,9.0 M 18.0,-0.0 L 36.0,-0.0" style="stroke:black;fill:none;stroke-width:2.0;stroke-dasharray:-;stroke-linecap:round;stroke-linejoin:round;" /><path d="M 36.0,-0.0 L 36.0,-18.0 L 78.47999999999999,-18.0 L 86.39999999999999,-0.0 L 78.47999999999999,18.0 L 36.0,18.0 L 36.0,-0.0" style="stroke:black;fill:none;stroke-width:2.0;stroke-dasharray:-;stroke-linecap:round;stroke-linejoin:round;" /><path d="M 86.39999999999999,-0.0 L 104.39999999999999,-0.0 L 122.39999999999999,-0.0" style="stroke:black;fill:none;stroke-width:2.0;stroke-dasharray:-;stroke-linecap:round;stroke-linejoin:round;" /><path d="M 122.39999999999999,-0.0 L 122.39999999999999,-18.0 L 158.4,-18.0 L 158.4,18.0 L 122.39999999999999,18.0 L 122.39999999999999,-0.0" style="stroke:black;fill:none;stroke-width:2.0;stroke-dasharray:-;stroke-linecap:round;stroke-linejoin:round;" /><path d="M 129.6,-4.4087284769304716e-16 L 130.73684210526315,-1.168918089136861 L 131.8736842105263,-2.2111657656828045 L 133.01052631578946,-3.013799321745103 L 134.14736842105265,-3.4898409573815896 L 135.28421052631577,-3.5877041748240117 L 136.42105263157893,-3.2967839759582067 L 137.55789473684212,-2.648606078423274 L 138.69473684210527,-1.7134106149334647 L 139.83157894736843,-0.5925405250106421 L 140.96842105263158,0.5925405250106421 L 142.10526315789474,1.7134106149334647 L 143.2421052631579,2.6486060784232732 L 144.37894736842105,3.2967839759582063 L 145.5157894736842,3.5877041748240117 L 146.65263157894736,3.48984095738159 L 147.78947368421052,3.013799321745103 L 148.92631578947368,2.2111657656828045 L 150.06315789473683,1.168918089136861 L 151.20000000000002,4.4087284769304716e-16" style="stroke:black;fill:none;stroke-width:2.0;stroke-dasharray:-;stroke-linecap:round;stroke-linejoin:round;" /><path d="M 129.6,-9.0 L 130.73684210526315,-10.16891808913686 L 131.8736842105263,-11.211165765682804 L 133.01052631578946,-12.013799321745104 L 134.14736842105265,-12.489840957381588 L 135.28421052631577,-12.587704174824012 L 136.42105263157893,-12.296783975958206 L 137.55789473684212,-11.648606078423274 L 138.69473684210527,-10.713410614933464 L 139.83157894736843,-9.592540525010643 L 140.96842105263158,-8.407459474989357 L 142.10526315789474,-7.286589385066535 L 143.2421052631579,-6.351393921576727 L 144.37894736842105,-5.703216024041794 L 145.5157894736842,-5.412295825175989 L 146.65263157894736,-5.51015904261841 L 147.78947368421052,-5.986200678254896 L 148.92631578947368,-6.7888342343171955 L 150.06315789473683,-7.831081910863139 L 151.20000000000002,-9.0" style="stroke:black;fill:none;stroke-width:2.0;stroke-dasharray:-;stroke-linecap:round;stroke-linejoin:round;" /><path d="M 129.6,9.0 L 130.73684210526315,7.831081910863139 L 131.8736842105263,6.7888342343171955 L 133.01052631578946,5.986200678254896 L 134.14736842105265,5.510159042618411 L 135.28421052631577,5.412295825175989 L 136.42105263157893,5.703216024041793 L 137.55789473684212,6.351393921576726 L 138.69473684210527,7.286589385066535 L 139.83157894736843,8.407459474989357 L 140.96842105263158,9.592540525010643 L 142.10526315789474,10.713410614933464 L 143.2421052631579,11.648606078423274 L 144.37894736842105,12.296783975958206 L 145.5157894736842,12.587704174824012 L 146.65263157894736,12.489840957381592 L 147.78947368421052,12.013799321745104 L 148.92631578947368,11.211165765682804 L 150.06315789473683,10.16891808913686 L 151.20000000000002,9.0" style="stroke:black;fill:none;stroke-width:2.0;stroke-dasharray:-;stroke-linecap:round;stroke-linejoin:round;" /><path d="M 138.6,-6.12 L 142.20000000000002,-11.88" style="stroke:black;fill:none;stroke-width:2.0;stroke-dasharray:-;stroke-linecap:round;stroke-linejoin:round;" /><path d="M 138.6,2.88 L 142.20000000000002,-2.88" style="stroke:black;fill:none;stroke-width:2.0;stroke-dasharray:-;stroke-linecap:round;stroke-linejoin:round;" /><path d="M 158.4,-0.0 L 176.4,-0.0 L 194.4,-0.0" style="stroke:black;fill:none;stroke-width:2.0;stroke-dasharray:-;stroke-linecap:round;stroke-linejoin:round;" /><path d="M 201.60000000000002,-4.4087284769304716e-16 L 202.73684210526318,-1.168918089136861 L 203.87368421052633,-2.2111657656828045 L 205.0105263157895,-3.013799321745103 L 206.14736842105265,-3.4898409573815896 L 207.2842105263158,-3.5877041748240117 L 208.42105263157896,-3.2967839759582067 L 209.55789473684212,-2.648606078423274 L 210.69473684210527,-1.7134106149334647 L 211.83157894736843,-0.5925405250106421 L 212.9684210526316,0.5925405250106421 L 214.10526315789474,1.7134106149334647 L 215.2421052631579,2.6486060784232732 L 216.37894736842108,3.2967839759582063 L 217.5157894736842,3.5877041748240117 L 218.6526315789474,3.48984095738159 L 219.78947368421055,3.013799321745103 L 220.92631578947368,2.2111657656828045 L 222.06315789473686,1.168918089136861 L 223.20000000000002,4.4087284769304716e-16" style="stroke:black;fill:none;stroke-width:2.0;stroke-dasharray:-;stroke-linecap:round;stroke-linejoin:round;" /><path d="M 230.4,-0.0 L 248.4,-0.0 L 257.40000000000003,-0.0" style="stroke:black;fill:none;stroke-width:2.0;stroke-dasharray:-;stroke-linecap:round;stroke-linejoin:round;" /><path d="M 264.40000000000003 0.0 L 257.40000000000003 2.6999999999999997 L 257.40000000000003 -2.6999999999999997 Z" style="stroke:black;fill:black;stroke-linecap:butt;stroke-linejoin:miter;" /><g><g><g><path d="M -58.816 -9.058 L -58.816 -9.058 L -58.816 -14.7 L -59.698 -14.7 L -59.698 -15.54 L -58.816 -15.61 L -58.816 -16.898 Q -58.816 -17.92 -58.34 -18.515 Q -57.864 -19.11 -56.898 -19.11 Q -56.576 -19.11 -56.289 -19.047 Q -56.002 -18.984 -55.778 -18.886 L -56.016 -18.018 Q -56.38 -18.2 -56.744 -18.2 Q -57.696 -18.2 -57.696 -16.898 L -57.696 -15.61 L -56.296 -15.61 L -56.296 -14.7 L -57.696 -14.7 L -57.696 -9.058 Z " fill="black" /><path d="M -55.05 -9.058 L -55.05 -9.058 L -55.05 -15.694 L -54.126 -15.694 L -54.028 -14.476 L -53.986 -14.476 Q -53.622 -15.134 -53.146 -15.491 Q -52.67 -15.848 -52.054 -15.848 Q -51.9 -15.848 -51.732 -15.82 Q -51.564 -15.792 -51.41 -15.722 L -51.62 -14.728 Q -51.802 -14.784 -51.928 -14.812 Q -52.054 -14.84 -52.208 -14.84 Q -52.67 -14.84 -53.132 -14.504 Q -53.594 -14.168 -53.93 -13.314 L -53.93 -9.058 Z " fill="black" /><path d="M -47.658 -8.89 L -47.658 -8.89 Q -48.54 -8.89 -49.261 -9.303 Q -49.982 -9.716 -50.409 -10.493 Q -50.836 -11.27 -50.836 -12.348 Q -50.836 -13.44 -50.416 -14.224 Q -49.996 -15.008 -49.303 -15.428 Q -48.61 -15.848 -47.798 -15.848 Q -46.622 -15.848 -45.929 -15.008 Q -45.236 -14.168 -45.236 -12.74 Q -45.236 -12.558 -45.25 -12.397 Q -45.264 -12.236 -45.292 -12.11 L -49.73 -12.11 Q -49.66 -11.046 -49.072 -10.416 Q -48.484 -9.786 -47.532 -9.786 Q -47.07 -9.786 -46.664 -9.933 Q -46.258 -10.08 -45.894 -10.318 L -45.502 -9.59 Q -45.936 -9.296 -46.468 -9.093 Q -47 -8.89 -47.658 -8.89 Z M -49.73 -12.908 L -49.73 -12.908 L -46.216 -12.908 Q -46.216 -13.902 -46.643 -14.427 Q -47.07 -14.952 -47.812 -14.952 Q -48.54 -14.952 -49.079 -14.434 Q -49.618 -13.916 -49.73 -12.908 Z " fill="black" /><path d="M -39.44 -5.978 L -39.44 -5.978 L -39.44 -8.61 L -39.398 -9.814 Q -39.79 -9.436 -40.287 -9.163 Q -40.784 -8.89 -41.442 -8.89 Q -42.226 -8.89 -42.821 -9.31 Q -43.416 -9.73 -43.752 -10.493 Q -44.088 -11.256 -44.088 -12.278 Q -44.088 -13.44 -43.689 -14.231 Q -43.29 -15.022 -42.632 -15.435 Q -41.974 -15.848 -41.218 -15.848 Q -40.672 -15.848 -40.231 -15.645 Q -39.79 -15.442 -39.356 -15.064 L -39.314 -15.064 L -39.216 -15.694 L -38.32 -15.694 L -38.32 -5.978 Z M -41.148 -9.842 L -41.148 -9.842 Q -40.672 -9.842 -40.266 -10.073 Q -39.86 -10.304 -39.44 -10.738 L -39.44 -14.224 Q -39.86 -14.602 -40.245 -14.756 Q -40.63 -14.91 -40.994 -14.91 Q -41.82 -14.91 -42.38 -14.224 Q -42.94 -13.538 -42.94 -12.292 Q -42.94 -11.186 -42.471 -10.514 Q -42.002 -9.842 -41.148 -9.842 Z " fill="black" /><path d="M -34.204 -8.89 L -34.204 -8.89 Q -35.212 -8.89 -35.702 -9.562 Q -36.192 -10.234 -36.192 -11.48 L -36.192 -15.694 L -35.072 -15.694 L -35.072 -11.634 Q -35.072 -10.724 -34.778 -10.297 Q -34.484 -9.87 -33.84 -9.87 Q -33.322 -9.87 -32.93 -10.136 Q -32.538 -10.402 -32.062 -10.99 L -32.062 -15.694 L -30.942 -15.694 L -30.942 -9.058 L -31.88 -9.058 L -31.964 -10.094 L -32.006 -10.094 Q -32.496 -9.52 -33.007 -9.205 Q -33.518 -8.89 -34.204 -8.89 Z " fill="black" /><path d="M -26.042 -8.89 L -26.042 -8.89 Q -26.924 -8.89 -27.645 -9.303 Q -28.366 -9.716 -28.793 -10.493 Q -29.22 -11.27 -29.22 -12.348 Q -29.22 -13.44 -28.8 -14.224 Q -28.38 -15.008 -27.687 -15.428 Q -26.994 -15.848 -26.182 -15.848 Q -25.006 -15.848 -24.313 -15.008 Q -23.62 -14.168 -23.62 -12.74 Q -23.62 -12.558 -23.634 -12.397 Q -23.648 -12.236 -23.676 -12.11 L -28.114 -12.11 Q -28.044 -11.046 -27.456 -10.416 Q -26.868 -9.786 -25.916 -9.786 Q -25.454 -9.786 -25.048 -9.933 Q -24.642 -10.08 -24.278 -10.318 L -23.886 -9.59 Q -24.32 -9.296 -24.852 -9.093 Q -25.384 -8.89 -26.042 -8.89 Z M -28.114 -12.908 L -28.114 -12.908 L -24.6 -12.908 Q -24.6 -13.902 -25.027 -14.427 Q -25.454 -14.952 -26.196 -14.952 Q -26.924 -14.952 -27.463 -14.434 Q -28.002 -13.916 -28.114 -12.908 Z " fill="black" /><path d="M -22.01 -9.058 L -22.01 -9.058 L -22.01 -15.694 L -21.086 -15.694 L -20.988 -14.742 L -20.946 -14.742 Q -20.47 -15.204 -19.952 -15.526 Q -19.434 -15.848 -18.706 -15.848 Q -17.712 -15.848 -17.215 -15.19 Q -16.718 -14.532 -16.718 -13.258 L -16.718 -9.058 L -17.852 -9.058 L -17.852 -13.118 Q -17.852 -14.042 -18.139 -14.455 Q -18.426 -14.868 -19.07 -14.868 Q -19.588 -14.868 -19.994 -14.616 Q -20.4 -14.364 -20.89 -13.86 L -20.89 -9.058 Z " fill="black" /><path d="M -12.042 -8.89 L -12.042 -8.89 Q -12.896 -8.89 -13.589 -9.31 Q -14.282 -9.73 -14.688 -10.507 Q -15.094 -11.284 -15.094 -12.348 Q -15.094 -13.468 -14.653 -14.252 Q -14.212 -15.036 -13.491 -15.442 Q -12.77 -15.848 -11.93 -15.848 Q -11.23 -15.848 -10.775 -15.61 Q -10.32 -15.372 -9.984 -15.078 L -10.558 -14.336 Q -10.852 -14.602 -11.167 -14.756 Q -11.482 -14.91 -11.888 -14.91 Q -12.476 -14.91 -12.938 -14.588 Q -13.4 -14.266 -13.666 -13.699 Q -13.932 -13.132 -13.932 -12.362 Q -13.932 -11.228 -13.365 -10.528 Q -12.798 -9.828 -11.916 -9.828 Q -11.426 -9.828 -11.041 -10.024 Q -10.656 -10.22 -10.348 -10.486 L -9.858 -9.73 Q -10.306 -9.338 -10.852 -9.114 Q -11.398 -8.89 -12.042 -8.89 Z " fill="black" /><path d="M -8.402 -5.922 L -8.402 -5.922 Q -8.626 -5.922 -8.822 -5.964 Q -9.018 -6.006 -9.186 -6.062 L -8.962 -6.958 Q -8.738 -6.86 -8.458 -6.86 Q -7.884 -6.86 -7.52 -7.287 Q -7.156 -7.714 -6.974 -8.274 L -6.722 -9.044 L -9.368 -15.694 L -8.22 -15.694 L -6.876 -12.012 Q -6.722 -11.592 -6.561 -11.102 Q -6.4 -10.612 -6.232 -10.15 L -6.176 -10.15 Q -6.036 -10.598 -5.903 -11.088 Q -5.77 -11.578 -5.63 -12.012 L -4.454 -15.694 L -3.362 -15.694 L -5.938 -8.232 Q -6.162 -7.574 -6.491 -7.049 Q -6.82 -6.524 -7.282 -6.223 Q -7.744 -5.922 -8.402 -5.922 Z " fill="black" /></g><g><path d="M -40.336 5.11 L -40.336 5.11 Q -41.19 5.11 -41.883 4.69 Q -42.576 4.27 -42.982 3.493 Q -43.388 2.716 -43.388 1.652 Q -43.388 0.532 -42.947 -0.252 Q -42.506 -1.036 -41.785 -1.442 Q -41.064 -1.848 -40.224 -1.848 Q -39.524 -1.848 -39.069 -1.61 Q -38.614 -1.372 -38.278 -1.078 L -38.852 -0.336 Q -39.146 -0.602 -39.461 -0.756 Q -39.776 -0.91 -40.182 -0.91 Q -40.77 -0.91 -41.232 -0.588 Q -41.694 -0.266 -41.96 0.301 Q -42.226 0.868 -42.226 1.638 Q -42.226 2.772 -41.659 3.472 Q -41.092 4.172 -40.21 4.172 Q -39.72 4.172 -39.335 3.976 Q -38.95 3.78 -38.642 3.514 L -38.152 4.27 Q -38.6 4.662 -39.146 4.886 Q -39.692 5.11 -40.336 5.11 Z " fill="black" /><path d="M -34.162 5.11 L -34.162 5.11 Q -34.96 5.11 -35.66 4.697 Q -36.36 4.284 -36.787 3.507 Q -37.214 2.73 -37.214 1.624 Q -37.214 0.518 -36.787 -0.252 Q -36.36 -1.022 -35.66 -1.435 Q -34.96 -1.848 -34.162 -1.848 Q -33.35 -1.848 -32.65 -1.435 Q -31.95 -1.022 -31.523 -0.252 Q -31.096 0.518 -31.096 1.624 Q -31.096 2.73 -31.523 3.507 Q -31.95 4.284 -32.65 4.697 Q -33.35 5.11 -34.162 5.11 Z M -34.162 4.172 L -34.162 4.172 Q -33.308 4.172 -32.783 3.472 Q -32.258 2.772 -32.258 1.624 Q -32.258 0.49 -32.783 -0.21 Q -33.308 -0.91 -34.162 -0.91 Q -35.002 -0.91 -35.527 -0.21 Q -36.052 0.49 -36.052 1.624 Q -36.052 2.772 -35.527 3.472 Q -35.002 4.172 -34.162 4.172 Z " fill="black" /><path d="M -29.374 4.942 L -29.374 4.942 L -29.374 -1.694 L -28.45 -1.694 L -28.352 -0.742 L -28.31 -0.742 Q -27.834 -1.204 -27.316 -1.526 Q -26.798 -1.848 -26.07 -1.848 Q -25.076 -1.848 -24.579 -1.19 Q -24.082 -0.532 -24.082 0.742 L -24.082 4.942 L -25.216 4.942 L -25.216 0.882 Q -25.216 -0.042 -25.503 -0.455 Q -25.79 -0.868 -26.434 -0.868 Q -26.952 -0.868 -27.358 -0.616 Q -27.764 -0.364 -28.254 0.14 L -28.254 4.942 Z " fill="black" /><path d="M -19.938 5.11 L -19.938 5.11 Q -20.918 5.11 -21.345 4.494 Q -21.772 3.878 -21.772 2.884 L -21.772 -0.7 L -22.738 -0.7 L -22.738 -1.54 L -21.716 -1.61 L -21.576 -3.556 L -20.652 -3.556 L -20.652 -1.61 L -18.874 -1.61 L -18.874 -0.7 L -20.652 -0.7 L -20.652 2.912 Q -20.652 3.5 -20.428 3.843 Q -20.204 4.186 -19.672 4.186 Q -19.448 4.186 -19.245 4.13 Q -19.042 4.074 -18.888 4.004 L -18.664 4.858 Q -18.944 4.956 -19.259 5.033 Q -19.574 5.11 -19.938 5.11 Z " fill="black" /><path d="M -17.39 4.942 L -17.39 4.942 L -17.39 -1.694 L -16.466 -1.694 L -16.368 -0.476 L -16.326 -0.476 Q -15.962 -1.134 -15.486 -1.491 Q -15.01 -1.848 -14.394 -1.848 Q -14.24 -1.848 -14.072 -1.82 Q -13.904 -1.792 -13.75 -1.722 L -13.96 -0.728 Q -14.142 -0.784 -14.268 -0.812 Q -14.394 -0.84 -14.548 -0.84 Q -15.01 -0.84 -15.472 -0.504 Q -15.934 -0.168 -16.27 0.686 L -16.27 4.942 Z " fill="black" /><path d="M -10.124 5.11 L -10.124 5.11 Q -10.922 5.11 -11.622 4.697 Q -12.322 4.284 -12.749 3.507 Q -13.176 2.73 -13.176 1.624 Q -13.176 0.518 -12.749 -0.252 Q -12.322 -1.022 -11.622 -1.435 Q -10.922 -1.848 -10.124 -1.848 Q -9.312 -1.848 -8.612 -1.435 Q -7.912 -1.022 -7.485 -0.252 Q -7.058 0.518 -7.058 1.624 Q -7.058 2.73 -7.485 3.507 Q -7.912 4.284 -8.612 4.697 Q -9.312 5.11 -10.124 5.11 Z M -10.124 4.172 L -10.124 4.172 Q -9.27 4.172 -8.745 3.472 Q -8.22 2.772 -8.22 1.624 Q -8.22 0.49 -8.745 -0.21 Q -9.27 -0.91 -10.124 -0.91 Q -10.964 -0.91 -11.489 -0.21 Q -12.014 0.49 -12.014 1.624 Q -12.014 2.772 -11.489 3.472 Q -10.964 4.172 -10.124 4.172 Z " fill="black" /><path d="M -4.132 5.11 L -4.132 5.11 Q -4.776 5.11 -5.056 4.725 Q -5.336 4.34 -5.336 3.612 L -5.336 -4.942 L -4.216 -4.942 L -4.216 3.682 Q -4.216 3.948 -4.118 4.06 Q -4.02 4.172 -3.894 4.172 Q -3.852 4.172 -3.803 4.165 Q -3.754 4.158 -3.656 4.144 L -3.516 4.998 Q -3.628 5.04 -3.775 5.075 Q -3.922 5.11 -4.132 5.11 Z " fill="black" /></g><g><path d="M -30.438 18.942 L -30.438 18.942 L -32.272 12.306 L -31.124 12.306 L -30.144 16.142 Q -30.032 16.618 -29.941 17.073 Q -29.85 17.528 -29.766 17.99 L -29.71 17.99 Q -29.598 17.528 -29.486 17.066 Q -29.374 16.604 -29.262 16.142 L -28.24 12.306 L -27.162 12.306 L -26.112 16.142 Q -26 16.618 -25.888 17.073 Q -25.776 17.528 -25.664 17.99 L -25.608 17.99 Q -25.496 17.528 -25.398 17.073 Q -25.3 16.618 -25.202 16.142 L -24.236 12.306 L -23.172 12.306 L -24.95 18.942 L -26.308 18.942 L -27.26 15.386 Q -27.372 14.91 -27.477 14.441 Q -27.582 13.972 -27.694 13.468 L -27.75 13.468 Q -27.862 13.972 -27.967 14.448 Q -28.072 14.924 -28.212 15.4 L -29.122 18.942 Z " fill="black" /><path d="M -19.182 19.11 L -19.182 19.11 Q -19.98 19.11 -20.68 18.697 Q -21.38 18.284 -21.807 17.507 Q -22.234 16.73 -22.234 15.624 Q -22.234 14.518 -21.807 13.748 Q -21.38 12.978 -20.68 12.565 Q -19.98 12.152 -19.182 12.152 Q -18.37 12.152 -17.67 12.565 Q -16.97 12.978 -16.543 13.748 Q -16.116 14.518 -16.116 15.624 Q -16.116 16.73 -16.543 17.507 Q -16.97 18.284 -17.67 18.697 Q -18.37 19.11 -19.182 19.11 Z M -19.182 18.172 L -19.182 18.172 Q -18.328 18.172 -17.803 17.472 Q -17.278 16.772 -17.278 15.624 Q -17.278 14.49 -17.803 13.79 Q -18.328 13.09 -19.182 13.09 Q -20.022 13.09 -20.547 13.79 Q -21.072 14.49 -21.072 15.624 Q -21.072 16.772 -20.547 17.472 Q -20.022 18.172 -19.182 18.172 Z " fill="black" /><path d="M -14.394 18.942 L -14.394 18.942 L -14.394 12.306 L -13.47 12.306 L -13.372 13.524 L -13.33 13.524 Q -12.966 12.866 -12.49 12.509 Q -12.014 12.152 -11.398 12.152 Q -11.244 12.152 -11.076 12.18 Q -10.908 12.208 -10.754 12.278 L -10.964 13.272 Q -11.146 13.216 -11.272 13.188 Q -11.398 13.16 -11.552 13.16 Q -12.014 13.16 -12.476 13.496 Q -12.938 13.832 -13.274 14.686 L -13.274 18.942 Z " fill="black" /><path d="M -7.492 19.11 L -7.492 19.11 Q -8.29 19.11 -8.885 18.69 Q -9.48 18.27 -9.816 17.507 Q -10.152 16.744 -10.152 15.722 Q -10.152 14.56 -9.753 13.769 Q -9.354 12.978 -8.696 12.565 Q -8.038 12.152 -7.282 12.152 Q -6.736 12.152 -6.316 12.348 Q -5.896 12.544 -5.462 12.908 L -5.504 11.774 L -5.504 9.058 L -4.384 9.058 L -4.384 18.942 L -5.308 18.942 L -5.406 18.158 L -5.448 18.158 Q -5.84 18.55 -6.337 18.83 Q -6.834 19.11 -7.492 19.11 Z M -7.212 18.158 L -7.212 18.158 Q -6.736 18.158 -6.33 17.927 Q -5.924 17.696 -5.504 17.262 L -5.504 13.776 Q -5.924 13.398 -6.309 13.244 Q -6.694 13.09 -7.058 13.09 Q -7.884 13.09 -8.444 13.776 Q -9.004 14.462 -9.004 15.708 Q -9.004 16.814 -8.535 17.486 Q -8.066 18.158 -7.212 18.158 Z " fill="black" /></g></g></g><g><g><g><path d="M 50.742 4.592 L 50.742 4.592 L 50.742 -4.606 L 53.094 -4.606 Q 55.264 -4.606 56.398 -3.423 Q 57.532 -2.24 57.532 -0.042 Q 57.532 2.156 56.405 3.374 Q 55.278 4.592 53.15 4.592 Z M 51.946 3.612 L 51.946 3.612 L 53.01 3.612 Q 54.662 3.612 55.481 2.653 Q 56.3 1.694 56.3 -0.042 Q 56.3 -1.778 55.481 -2.702 Q 54.662 -3.626 53.01 -3.626 L 51.946 -3.626 Z " fill="black" /><path d="M 58.33 4.592 L 58.33 4.592 L 61.508 -4.606 L 62.852 -4.606 L 66.03 4.592 L 64.756 4.592 L 63.874 1.806 L 60.444 1.806 L 59.548 4.592 Z M 60.752 0.868 L 60.752 0.868 L 63.58 0.868 L 63.132 -0.532 Q 62.866 -1.302 62.642 -2.065 Q 62.418 -2.828 62.18 -3.626 L 62.124 -3.626 Q 61.9 -2.828 61.676 -2.065 Q 61.452 -1.302 61.2 -0.532 Z " fill="black" /><path d="M 70.902 4.76 L 70.902 4.76 Q 69.74 4.76 68.809 4.193 Q 67.878 3.626 67.346 2.562 Q 66.814 1.498 66.814 0.028 Q 66.814 -1.47 67.36 -2.541 Q 67.906 -3.612 68.837 -4.186 Q 69.768 -4.76 70.916 -4.76 Q 71.896 -4.76 72.526 -4.403 Q 73.156 -4.046 73.548 -3.626 L 72.89 -2.856 Q 72.078 -3.724 70.958 -3.724 Q 70.104 -3.724 69.446 -3.276 Q 68.788 -2.828 68.417 -1.995 Q 68.046 -1.162 68.046 0 Q 68.046 1.134 68.403 1.967 Q 68.76 2.8 69.411 3.255 Q 70.062 3.71 70.944 3.71 Q 71.616 3.71 72.148 3.437 Q 72.68 3.164 73.128 2.688 L 73.772 3.43 Q 73.212 4.06 72.512 4.41 Q 71.812 4.76 70.902 4.76 Z " fill="black" /></g></g></g><g><g><g><path d="M 274.48 -0.15 L 274.48 -0.15 Q 274.48 0.2 274.704 0.48 Q 274.928 0.76 275.544 0.76 Q 276.342 0.76 276.846 0.375 Q 277.35 -0.01 277.581 -0.668 Q 277.812 -1.326 277.812 -2.166 Q 277.812 -2.838 277.651 -3.349 Q 277.49 -3.86 277.287 -4.189 Q 277.084 -4.518 276.958 -4.63 L 277.084 -4.812 Q 277.364 -4.784 277.742 -4.469 Q 278.12 -4.154 278.414 -3.538 Q 278.708 -2.922 278.708 -1.956 Q 278.708 -1.27 278.526 -0.57 Q 278.344 0.13 277.966 0.697 Q 277.588 1.264 276.993 1.614 Q 276.398 1.964 275.558 1.964 Q 274.956 1.964 274.592 1.579 Q 274.228 1.194 274.046 0.466 L 273.99 0.466 Q 273.64 1.054 273.15 1.509 Q 272.66 1.964 271.988 1.964 Q 271.134 1.964 270.784 1.243 Q 270.434 0.522 270.434 -0.626 Q 270.434 -1.312 270.602 -1.998 Q 270.77 -2.684 271.162 -3.272 Q 271.554 -3.86 272.226 -4.28 Q 272.898 -4.7 273.92 -4.868 Q 274.088 -4.672 274.088 -4.406 Q 274.088 -4.168 273.948 -3.965 Q 273.808 -3.762 273.57 -3.706 Q 272.422 -3.496 271.736 -2.733 Q 271.05 -1.97 271.05 -0.85 Q 271.05 0.018 271.428 0.361 Q 271.806 0.704 272.352 0.704 Q 272.8 0.704 273.108 0.557 Q 273.416 0.41 273.612 0.228 Q 273.808 0.046 273.906 -0.094 Q 273.892 -0.192 273.892 -0.29 Q 273.892 -0.388 273.892 -0.472 Q 273.892 -0.766 273.969 -1.228 Q 274.046 -1.69 274.193 -2.173 Q 274.34 -2.656 274.564 -3.006 Q 274.62 -3.09 274.788 -3.139 Q 274.956 -3.188 275.124 -3.188 Q 275.348 -3.188 275.516 -3.097 Q 275.684 -3.006 275.684 -2.922 Q 275.628 -2.376 275.278 -1.62 Q 274.928 -0.864 274.48 -0.15 Z " fill="black" /><path d="M 284.665 -0.267 L 284.665 -0.267 L 284.665 0.095 Q 284.361 0.095 284.185 0.237 Q 284.008 0.379 283.861 0.771 L 282.205 4.809 L 281.568 4.809 L 279.99 0.82 Q 279.863 0.507 279.755 0.355 Q 279.647 0.203 279.505 0.149 Q 279.363 0.095 279.118 0.095 L 279.118 -0.267 L 281.411 -0.267 L 281.411 0.095 Q 281.108 0.095 280.995 0.159 Q 280.882 0.223 280.882 0.34 Q 280.882 0.438 280.912 0.541 Q 280.941 0.644 280.99 0.771 L 281.911 3.114 L 282.097 3.721 L 282.176 3.721 L 282.382 3.104 L 283.303 0.713 Q 283.322 0.654 283.352 0.566 Q 283.381 0.477 283.381 0.379 Q 283.381 0.203 283.195 0.149 Q 283.009 0.095 282.725 0.095 L 282.725 -0.267 Z " fill="black" /><path d="M 289.398 3.251 L 289.398 3.251 L 289.634 3.427 Q 289.408 3.849 289.129 4.172 Q 288.85 4.495 288.467 4.672 Q 288.085 4.848 287.527 4.848 Q 286.841 4.848 286.355 4.53 Q 285.87 4.211 285.616 3.653 Q 285.361 3.094 285.361 2.359 Q 285.361 1.085 286.008 0.345 Q 286.654 -0.395 287.801 -0.395 Q 288.595 -0.395 289.026 -0.062 Q 289.457 0.272 289.457 0.742 Q 289.457 1.232 288.977 1.232 Q 288.732 1.232 288.605 1.11 Q 288.477 0.987 288.409 0.811 Q 288.34 0.634 288.262 0.458 Q 288.183 0.281 288.041 0.159 Q 287.899 0.036 287.625 0.036 Q 286.968 0.036 286.605 0.502 Q 286.243 0.967 286.243 1.849 Q 286.243 2.829 286.645 3.417 Q 287.046 4.005 287.899 4.005 Q 288.409 4.005 288.727 3.824 Q 289.046 3.643 289.398 3.251 Z " fill="black" /><path d="M 292.966 -0.395 L 292.966 -0.395 Q 293.701 -0.395 294.249 -0.076 Q 294.798 0.242 295.097 0.816 Q 295.396 1.389 295.396 2.163 Q 295.396 3.094 295.082 3.692 Q 294.769 4.29 294.22 4.579 Q 293.671 4.868 292.966 4.868 Q 292.25 4.868 291.696 4.569 Q 291.143 4.27 290.834 3.672 Q 290.525 3.074 290.525 2.173 Q 290.525 1.408 290.829 0.83 Q 291.133 0.252 291.682 -0.071 Q 292.231 -0.395 292.966 -0.395 Z M 292.946 0.056 L 292.946 0.056 Q 292.299 0.056 291.932 0.58 Q 291.564 1.105 291.564 2.114 Q 291.564 3.359 291.941 3.873 Q 292.319 4.388 292.995 4.388 Q 293.426 4.378 293.73 4.172 Q 294.034 3.966 294.195 3.481 Q 294.357 2.996 294.357 2.163 Q 294.357 1.163 294.014 0.61 Q 293.671 0.056 292.946 0.056 Z " fill="black" /></g></g></g></svg>