<svg xmlns="http://www.w3.org/2000/svg" xmlns:xlink="http://www.w3.org/1999/xlink" xml:lang="en" height="70.39999999999999pt" width="551.513pt" viewBox="-26.118 -47.8 551.513 70.39999999999999"><path d="M 0.0,-0.0 L 18.0,-0.0 L 36.0,-0.0" style="stroke:black;fill:none;stroke-width:2.0;stroke-dasharray:-;stroke-linecap:round;stroke-linejoin:round;" /><path d="M 36.0,-0.0 L 36.0,-18.0 L 72.0,-18.0 L 72.0,18.0 L 36.0,18.0 L 36.0,-0.0" style="stroke:black;fill:none;stroke-width:2.0;stroke-dasharray:-;stroke-linecap:round;stroke-linejoin:round;" /><path d="M 72.0,-0.0 L 90.0,-0.0 L 108.0,-0.0" style="stroke:black;fill:none;stroke-width:2.0;stroke-dasharray:-;stroke-linecap:round;stroke-linejoin:round;" /><path d="M 108.0,-0.0 L 108.0,18.0 L 135.0,-0.0 L 108.0,-18.0 L 108.0,-0.0" style="stroke:black;fill:none;stroke-width:2.0;stroke-dasharray:-;stroke-linecap:round;stroke-linejoin:round;" /><path d="M 135.0,-0.0 L 153.0,-0.0 L 171.0,-0.0" style="stroke:black;fill:none;stroke-width:2.0;stroke-dasharray:-;stroke-linecap:round;stroke-linejoin:round;" /><path d="M 171.0,-0.0 L 171.0,-21.599999999999998 L 157.32,-43.199999999999996 L 184.68,-43.199999999999996 L 171.0,-21.599999999999998" style="stroke:black;fill:none;stroke-width:2.0;stroke-dasharray:-;stroke-linecap:round;stroke-linejoin:round;" /><path d="M 207.0,-0.0 L 243.0,-0.0 L 270.0,-0.0" style="stroke:blue;fill:none;stroke-width:2.0;stroke-dasharray:-;stroke-linecap:round;stroke-linejoin:round;" /><path d="M 277.0 0.0 L 270.0 2.6999999999999997 L 270.0 -2.6999999999999997 Z" style="stroke:blue;fill:blue;stroke-linecap:butt;stroke-linejoin:miter;" /><path d="M 315.0,-0.0 L 315.0,-21.599999999999998 L 301.32,-43.199999999999996 L 328.68,-43.199999999999996 L 315.0,-21.599999999999998" style="stroke:black;fill:none;stroke-width:2.0;stroke-dasharray:-;stroke-linecap:round;stroke-linejoin:round;" /><path d="M 315.0,-0.0 L 333.0,-0.0 L 351.0,-0.0" style="stroke:black;fill:none;stroke-width:2.0;stroke-dasharray:-;stroke-linecap:round;stroke-linejoin:round;" /><path d="M 351.0,-0.0 L 351.0,-18.0 L 387.0,-18.0 L 387.0,18.0 L 351.0,18.0 L 351.0,-0.0" style="stroke:black;fill:none;stroke-width:2.0;stroke-dasharray:-;stroke-linecap:round;stroke-linejoin:round;" /><path d="M 358.2,-4.4087284769304716e-16 L 359.33684210526314,-1.168918089136861 L 360.47368421052636,-2.2111657656828045 L 361.61052631578946,-3.013799321745103 L 362.7473684210526,-3.4898409573815896 L 363.88421052631577,-3.5877041748240117 L 365.021052631579,-3.2967839759582067 L 366.1578947368421,-2.648606078423274 L 367.2947368421053,-1.7134106149334647 L 368.43157894736845,-0.5925405250106421 L 369.56842105263155,0.5925405250106421 L 370.7052631578947,1.7134106149334647 L 371.8421052631579,2.6486060784232732 L 372.978947368421,3.2967839759582063 L 374.11578947368423,3.5877041748240117 L 375.2526315789474,3.48984095738159 L 376.38947368421054,3.013799321745103 L 377.52631578947364,2.2111657656828045 L 378.66315789473686,1.168918089136861 L 379.8,4.4087284769304716e-16" style="stroke:black;fill:none;stroke-width:2.0;stroke-dasharray:-;stroke-linecap:round;stroke-linejoin:round;" /><path d="M 358.2,-9.0 L 359.33684210526314,-10.16891808913686 L 360.47368421052636,-11.211165765682804 L 361.61052631578946,-12.013799321745104 L 362.7473684210526,-12.489840957381588 L 363.88421052631577,-12.587704174824012 L 365.021052631579,-12.296783975958206 L 366.1578947368421,-11.648606078423274 L 367.2947368421053,-10.713410614933464 L 368.43157894736845,-9.592540525010643 L 369.56842105263155,-8.407459474989357 L 370.7052631578947,-7.286589385066535 L 371.8421052631579,-6.351393921576727 L 372.978947368421,-5.703216024041794 L 374.11578947368423,-5.412295825175989 L 375.2526315789474,-5.51015904261841 L 376.38947368421054,-5.986200678254896 L 377.52631578947364,-6.7888342343171955 L 378.66315789473686,-7.831081910863139 L 379.8,-9.0" style="stroke:black;fill:none;stroke-width:2.0;stroke-dasharray:-;stroke-linecap:round;stroke-linejoin:round;" /><path d="M 358.2,9.0 L 359.33684210526314,7.831081910863139 L 360.47368421052636,6.7888342343171955 L 361.61052631578946,5.986200678254896 L 362.7473684210526,5.510159042618411 L 363.88421052631577,5.412295825175989 L 365.021052631579,5.703216024041793 L 366.1578947368421,6.351393921576726 L 367.2947368421053,7.286589385066535 L 368.43157894736845,8.407459474989357 L 369.56842105263155,9.592540525010643 L 370.7052631578947,10.713410614933464 L 371.8421052631579,11.648606078423274 L 372.978947368421,12.296783975958206 L 374.11578947368423,12.587704174824012 L 375.2526315789474,12.489840957381592 L 376.38947368421054,12.013799321745104 L 377.52631578947364,11.211165765682804 L 378.66315789473686,10.16891808913686 L 379.8,9.0" style="stroke:black;fill:none;stroke-width:2.0;stroke-dasharray:-;stroke-linecap:round;stroke-linejoin:round;" /><path d="M 367.2,-6.12 L 370.8,-11.88" style="stroke:black;fill:none;stroke-width:2.0;stroke-dasharray:-;stroke-linecap:round;stroke-linejoin:round;" /><path d="M 367.2,11.88 L 370.8,6.12" style="stroke:black;fill:none;stroke-width:2.0;stroke-dasharray:-;stroke-linecap:round;stroke-linejoin:round;" /><path d="M 387.0,-0.0 L 405.0,-0.0 L 423.0,-0.0" style="stroke:black;fill:none;stroke-width:2.0;stroke-dasharray:-;stroke-linecap:round;stroke-linejoin:round;" /><path d="M 423.0,-0.0 L 423.0,-18.0 L 459.0,-18.0 L 459.0,18.0 L 423.0,18.0 L 423.0,-0.0" style="stroke:black;fill:none;stroke-width:2.0;stroke-dasharray:-;stroke-linecap:round;stroke-linejoin:round;" /><path d="M 459.0,-0.0 L 477.0,-0.0 L 495.0,-0.0" style="stroke:black;fill:none;stroke-width:2.0;stroke-dasharray:-;stroke-linecap:round;stroke-linejoin:round;" /><g><g><g><path d="M 49.94 4.599 L 49.94 4.599 L 49.94 -3.591 L 47.112 -3.591 L 47.112 -4.599 L 53.972 -4.599 L 53.972 -3.591 L 51.13 -3.591 L 51.13 4.599 Z " fill="black" /><path d="M 54.616 4.599 L 54.616 4.599 L 57.346 -0.161 L 54.784 -4.599 L 56.1 -4.599 L 57.374 -2.261 Q 57.57 -1.953 57.731 -1.638 Q 57.892 -1.323 58.116 -0.917 L 58.172 -0.917 Q 58.368 -1.323 58.515 -1.638 Q 58.662 -1.953 58.83 -2.261 L 60.076 -4.599 L 61.336 -4.599 L 58.788 -0.091 L 61.518 4.599 L 60.202 4.599 L 58.83 2.135 Q 58.62 1.743 58.501 1.526 Q 58.382 1.309 58.312 1.19 Q 58.242 1.071 58.179 0.959 Q 58.116 0.847 58.018 0.665 L 57.962 0.665 Q 57.766 1.085 57.584 1.435 Q 57.402 1.785 57.22 2.135 L 55.876 4.599 Z " fill="black" /></g></g></g><g><g><g><path d="M 219.494 -9.168 L 219.494 -9.168 L 219.494 -18.366 L 224.912 -18.366 L 224.912 -17.358 L 220.698 -17.358 L 220.698 -14.488 L 224.254 -14.488 L 224.254 -13.494 L 220.698 -13.494 L 220.698 -10.19 L 225.052 -10.19 L 225.052 -9.168 Z " fill="blue" /><path d="M 227.04 -9.168 L 227.04 -9.168 L 227.04 -18.366 L 228.482 -18.366 L 230.288 -13.466 Q 230.456 -13.004 230.617 -12.521 Q 230.778 -12.038 230.96 -11.562 L 231.002 -11.562 Q 231.17 -12.038 231.331 -12.521 Q 231.492 -13.004 231.66 -13.466 L 233.438 -18.366 L 234.88 -18.366 L 234.88 -9.168 L 233.76 -9.168 L 233.76 -14.18 Q 233.76 -14.796 233.809 -15.552 Q 233.858 -16.308 233.914 -16.91 L 233.858 -16.91 L 233.116 -14.81 L 231.352 -10.092 L 230.554 -10.092 L 228.776 -14.81 L 228.034 -16.91 L 227.978 -16.91 Q 228.034 -16.308 228.083 -15.552 Q 228.132 -14.796 228.132 -14.18 L 228.132 -9.168 Z " fill="blue" /><path d="M 241.6 -9.168 L 241.6 -9.168 L 239.766 -15.804 L 240.914 -15.804 L 241.894 -11.968 Q 242.006 -11.492 242.097 -11.037 Q 242.188 -10.582 242.272 -10.12 L 242.328 -10.12 Q 242.44 -10.582 242.552 -11.044 Q 242.664 -11.506 242.776 -11.968 L 243.798 -15.804 L 244.876 -15.804 L 245.926 -11.968 Q 246.038 -11.492 246.15 -11.037 Q 246.262 -10.582 246.374 -10.12 L 246.43 -10.12 Q 246.542 -10.582 246.64 -11.037 Q 246.738 -11.492 246.836 -11.968 L 247.802 -15.804 L 248.866 -15.804 L 247.088 -9.168 L 245.73 -9.168 L 244.778 -12.724 Q 244.666 -13.2 244.561 -13.669 Q 244.456 -14.138 244.344 -14.642 L 244.288 -14.642 Q 244.176 -14.138 244.071 -13.662 Q 243.966 -13.186 243.826 -12.71 L 242.916 -9.168 Z " fill="blue" /><path d="M 251.806 -9 L 251.806 -9 Q 250.994 -9 250.441 -9.497 Q 249.888 -9.994 249.888 -10.89 Q 249.888 -11.982 250.854 -12.563 Q 251.82 -13.144 253.934 -13.368 Q 253.934 -13.802 253.822 -14.18 Q 253.71 -14.558 253.409 -14.796 Q 253.108 -15.034 252.562 -15.034 Q 252.016 -15.034 251.512 -14.81 Q 251.008 -14.586 250.616 -14.334 L 250.168 -15.104 Q 250.63 -15.412 251.302 -15.685 Q 251.974 -15.958 252.758 -15.958 Q 253.962 -15.958 254.508 -15.223 Q 255.054 -14.488 255.054 -13.242 L 255.054 -9.168 L 254.13 -9.168 L 254.032 -9.966 L 254.004 -9.966 Q 253.528 -9.574 252.982 -9.287 Q 252.436 -9 251.806 -9 Z M 252.142 -9.91 L 252.142 -9.91 Q 252.618 -9.91 253.038 -10.141 Q 253.458 -10.372 253.934 -10.778 L 253.934 -12.626 Q 252.31 -12.43 251.645 -12.024 Q 250.98 -11.618 250.98 -10.96 Q 250.98 -10.414 251.323 -10.162 Q 251.666 -9.91 252.142 -9.91 Z " fill="blue" /><path d="M 258.554 -9.168 L 258.554 -9.168 L 256.188 -15.804 L 257.336 -15.804 L 258.582 -12.038 Q 258.736 -11.562 258.89 -11.058 Q 259.044 -10.554 259.184 -10.078 L 259.24 -10.078 Q 259.394 -10.554 259.548 -11.058 Q 259.702 -11.562 259.842 -12.038 L 261.088 -15.804 L 262.194 -15.804 L 259.856 -9.168 Z " fill="blue" /><path d="M 266.156 -9 L 266.156 -9 Q 265.274 -9 264.553 -9.413 Q 263.832 -9.826 263.405 -10.603 Q 262.978 -11.38 262.978 -12.458 Q 262.978 -13.55 263.398 -14.334 Q 263.818 -15.118 264.511 -15.538 Q 265.204 -15.958 266.016 -15.958 Q 267.192 -15.958 267.885 -15.118 Q 268.578 -14.278 268.578 -12.85 Q 268.578 -12.668 268.564 -12.507 Q 268.55 -12.346 268.522 -12.22 L 264.084 -12.22 Q 264.154 -11.156 264.742 -10.526 Q 265.33 -9.896 266.282 -9.896 Q 266.744 -9.896 267.15 -10.043 Q 267.556 -10.19 267.92 -10.428 L 268.312 -9.7 Q 267.878 -9.406 267.346 -9.203 Q 266.814 -9 266.156 -9 Z M 264.084 -13.018 L 264.084 -13.018 L 267.598 -13.018 Q 267.598 -14.012 267.171 -14.537 Q 266.744 -15.062 266.002 -15.062 Q 265.274 -15.062 264.735 -14.544 Q 264.196 -14.026 264.084 -13.018 Z " fill="blue" /></g></g></g><g><g><g><path d="M 435.176 4.599 L 435.176 4.599 L 435.176 -4.599 L 438.13 -4.599 Q 439.082 -4.599 439.824 -4.347 Q 440.566 -4.095 440.986 -3.535 Q 441.406 -2.975 441.406 -2.023 Q 441.406 -0.917 440.832 -0.273 Q 440.258 0.371 439.306 0.595 L 441.686 4.599 L 440.328 4.599 L 438.074 0.721 L 436.38 0.721 L 436.38 4.599 Z M 436.38 -0.245 L 436.38 -0.245 L 437.948 -0.245 Q 439.04 -0.245 439.628 -0.679 Q 440.216 -1.113 440.216 -2.009 Q 440.216 -2.905 439.628 -3.269 Q 439.04 -3.633 437.948 -3.633 L 436.38 -3.633 Z " fill="black" /><path d="M 442.288 4.599 L 442.288 4.599 L 445.018 -0.161 L 442.456 -4.599 L 443.772 -4.599 L 445.046 -2.261 Q 445.242 -1.953 445.403 -1.638 Q 445.564 -1.323 445.788 -0.917 L 445.844 -0.917 Q 446.04 -1.323 446.187 -1.638 Q 446.334 -1.953 446.502 -2.261 L 447.748 -4.599 L 449.008 -4.599 L 446.46 -0.091 L 449.19 4.599 L 447.874 4.599 L 446.502 2.135 Q 446.292 1.743 446.173 1.526 Q 446.054 1.309 445.984 1.19 Q 445.914 1.071 445.851 0.959 Q 445.788 0.847 445.69 0.665 L 445.634 0.665 Q 445.438 1.085 445.256 1.435 Q 445.074 1.785 444.892 2.135 L 443.548 4.599 Z " fill="black" /></g></g></g><circle cx="0.0" cy="-0.0" r="2.6999999999999997" style="stroke:black;fill:white;stroke-width:2.0;stroke-dasharray:-;" /><g><g><g><path d="M -18.214 -7.924 L -18.214 -7.924 Q -19.012 -7.924 -19.607 -8.344 Q -20.202 -8.764 -20.538 -9.527 Q -20.874 -10.29 -20.874 -11.312 Q -20.874 -12.474 -20.475 -13.265 Q -20.076 -14.056 -19.418 -14.469 Q -18.76 -14.882 -18.004 -14.882 Q -17.458 -14.882 -17.038 -14.686 Q -16.618 -14.49 -16.184 -14.126 L -16.226 -15.26 L -16.226 -17.976 L -15.106 -17.976 L -15.106 -8.092 L -16.03 -8.092 L -16.128 -8.876 L -16.17 -8.876 Q -16.562 -8.484 -17.059 -8.204 Q -17.556 -7.924 -18.214 -7.924 Z M -17.934 -8.876 L -17.934 -8.876 Q -17.458 -8.876 -17.052 -9.107 Q -16.646 -9.338 -16.226 -9.772 L -16.226 -13.258 Q -16.646 -13.636 -17.031 -13.79 Q -17.416 -13.944 -17.78 -13.944 Q -18.606 -13.944 -19.166 -13.258 Q -19.726 -12.572 -19.726 -11.326 Q -19.726 -10.22 -19.257 -9.548 Q -18.788 -8.876 -17.934 -8.876 Z " fill="black" /><path d="M -11.382 -7.924 L -11.382 -7.924 Q -12.194 -7.924 -12.747 -8.421 Q -13.3 -8.918 -13.3 -9.814 Q -13.3 -10.906 -12.334 -11.487 Q -11.368 -12.068 -9.254 -12.292 Q -9.254 -12.726 -9.366 -13.104 Q -9.478 -13.482 -9.779 -13.72 Q -10.08 -13.958 -10.626 -13.958 Q -11.172 -13.958 -11.676 -13.734 Q -12.18 -13.51 -12.572 -13.258 L -13.02 -14.028 Q -12.558 -14.336 -11.886 -14.609 Q -11.214 -14.882 -10.43 -14.882 Q -9.226 -14.882 -8.68 -14.147 Q -8.134 -13.412 -8.134 -12.166 L -8.134 -8.092 L -9.058 -8.092 L -9.156 -8.89 L -9.184 -8.89 Q -9.66 -8.498 -10.206 -8.211 Q -10.752 -7.924 -11.382 -7.924 Z M -11.046 -8.834 L -11.046 -8.834 Q -10.57 -8.834 -10.15 -9.065 Q -9.73 -9.296 -9.254 -9.702 L -9.254 -11.55 Q -10.878 -11.354 -11.543 -10.948 Q -12.208 -10.542 -12.208 -9.884 Q -12.208 -9.338 -11.865 -9.086 Q -11.522 -8.834 -11.046 -8.834 Z " fill="black" /><path d="M -4.032 -7.924 L -4.032 -7.924 Q -5.012 -7.924 -5.439 -8.54 Q -5.866 -9.156 -5.866 -10.15 L -5.866 -13.734 L -6.832 -13.734 L -6.832 -14.574 L -5.81 -14.644 L -5.67 -16.59 L -4.746 -16.59 L -4.746 -14.644 L -2.968 -14.644 L -2.968 -13.734 L -4.746 -13.734 L -4.746 -10.122 Q -4.746 -9.534 -4.522 -9.191 Q -4.298 -8.848 -3.766 -8.848 Q -3.542 -8.848 -3.339 -8.904 Q -3.136 -8.96 -2.982 -9.03 L -2.758 -8.176 Q -3.038 -8.078 -3.353 -8.001 Q -3.668 -7.924 -4.032 -7.924 Z " fill="black" /><path d="M 0.028 -7.924 L 0.028 -7.924 Q -0.784 -7.924 -1.337 -8.421 Q -1.89 -8.918 -1.89 -9.814 Q -1.89 -10.906 -0.924 -11.487 Q 0.042 -12.068 2.156 -12.292 Q 2.156 -12.726 2.044 -13.104 Q 1.932 -13.482 1.631 -13.72 Q 1.33 -13.958 0.784 -13.958 Q 0.238 -13.958 -0.266 -13.734 Q -0.77 -13.51 -1.162 -13.258 L -1.61 -14.028 Q -1.148 -14.336 -0.476 -14.609 Q 0.196 -14.882 0.98 -14.882 Q 2.184 -14.882 2.73 -14.147 Q 3.276 -13.412 3.276 -12.166 L 3.276 -8.092 L 2.352 -8.092 L 2.254 -8.89 L 2.226 -8.89 Q 1.75 -8.498 1.204 -8.211 Q 0.658 -7.924 0.028 -7.924 Z M 0.364 -8.834 L 0.364 -8.834 Q 0.84 -8.834 1.26 -9.065 Q 1.68 -9.296 2.156 -9.702 L 2.156 -11.55 Q 0.532 -11.354 -0.133 -10.948 Q -0.798 -10.542 -0.798 -9.884 Q -0.798 -9.338 -0.455 -9.086 Q -0.112 -8.834 0.364 -8.834 Z " fill="black" /><path d="M 11.41 -6.3 L 11.41 -6.3 L 4.242 -6.3 L 4.242 -7.014 L 11.41 -7.014 Z " fill="black" /><path d="M 12.516 -8.092 L 12.516 -8.092 L 12.516 -14.728 L 13.636 -14.728 L 13.636 -8.092 Z M 13.09 -16.086 L 13.09 -16.086 Q 12.768 -16.086 12.544 -16.296 Q 12.32 -16.506 12.32 -16.814 Q 12.32 -17.136 12.544 -17.339 Q 12.768 -17.542 13.09 -17.542 Q 13.412 -17.542 13.636 -17.339 Q 13.86 -17.136 13.86 -16.814 Q 13.86 -16.506 13.636 -16.296 Q 13.412 -16.086 13.09 -16.086 Z " fill="black" /><path d="M 15.862 -8.092 L 15.862 -8.092 L 15.862 -14.728 L 16.786 -14.728 L 16.884 -13.776 L 16.926 -13.776 Q 17.402 -14.238 17.92 -14.56 Q 18.438 -14.882 19.166 -14.882 Q 20.16 -14.882 20.657 -14.224 Q 21.154 -13.566 21.154 -12.292 L 21.154 -8.092 L 20.02 -8.092 L 20.02 -12.152 Q 20.02 -13.076 19.733 -13.489 Q 19.446 -13.902 18.802 -13.902 Q 18.284 -13.902 17.878 -13.65 Q 17.472 -13.398 16.982 -12.894 L 16.982 -8.092 Z " fill="black" /></g></g></g><circle cx="495.0" cy="-0.0" r="2.6999999999999997" style="stroke:black;fill:white;stroke-width:2.0;stroke-dasharray:-;" /><g><g><g><path d="M 472.509 -7.924 L 472.509 -7.924 Q 471.711 -7.924 471.116 -8.344 Q 470.521 -8.764 470.185 -9.527 Q 469.849 -10.29 469.849 -11.312 Q 469.849 -12.474 470.248 -13.265 Q 470.647 -14.056 471.305 -14.469 Q 471.963 -14.882 472.719 -14.882 Q 473.265 -14.882 473.685 -14.686 Q 474.105 -14.49 474.539 -14.126 L 474.497 -15.26 L 474.497 -17.976 L 475.617 -17.976 L 475.617 -8.092 L 474.693 -8.092 L 474.595 -8.876 L 474.553 -8.876 Q 474.161 -8.484 473.664 -8.204 Q 473.167 -7.924 472.509 -7.924 Z M 472.789 -8.876 L 472.789 -8.876 Q 473.265 -8.876 473.671 -9.107 Q 474.077 -9.338 474.497 -9.772 L 474.497 -13.258 Q 474.077 -13.636 473.692 -13.79 Q 473.307 -13.944 472.943 -13.944 Q 472.117 -13.944 471.557 -13.258 Q 470.997 -12.572 470.997 -11.326 Q 470.997 -10.22 471.466 -9.548 Q 471.935 -8.876 472.789 -8.876 Z " fill="black" /><path d="M 479.341 -7.924 L 479.341 -7.924 Q 478.529 -7.924 477.976 -8.421 Q 477.423 -8.918 477.423 -9.814 Q 477.423 -10.906 478.389 -11.487 Q 479.355 -12.068 481.469 -12.292 Q 481.469 -12.726 481.357 -13.104 Q 481.245 -13.482 480.944 -13.72 Q 480.643 -13.958 480.097 -13.958 Q 479.551 -13.958 479.047 -13.734 Q 478.543 -13.51 478.151 -13.258 L 477.703 -14.028 Q 478.165 -14.336 478.837 -14.609 Q 479.509 -14.882 480.293 -14.882 Q 481.497 -14.882 482.043 -14.147 Q 482.589 -13.412 482.589 -12.166 L 482.589 -8.092 L 481.665 -8.092 L 481.567 -8.89 L 481.539 -8.89 Q 481.063 -8.498 480.517 -8.211 Q 479.971 -7.924 479.341 -7.924 Z M 479.677 -8.834 L 479.677 -8.834 Q 480.153 -8.834 480.573 -9.065 Q 480.993 -9.296 481.469 -9.702 L 481.469 -11.55 Q 479.845 -11.354 479.18 -10.948 Q 478.515 -10.542 478.515 -9.884 Q 478.515 -9.338 478.858 -9.086 Q 479.201 -8.834 479.677 -8.834 Z " fill="black" /><path d="M 486.691 -7.924 L 486.691 -7.924 Q 485.711 -7.924 485.284 -8.54 Q 484.857 -9.156 484.857 -10.15 L 484.857 -13.734 L 483.891 -13.734 L 483.891 -14.574 L 484.913 -14.644 L 485.053 -16.59 L 485.977 -16.59 L 485.977 -14.644 L 487.755 -14.644 L 487.755 -13.734 L 485.977 -13.734 L 485.977 -10.122 Q 485.977 -9.534 486.201 -9.191 Q 486.425 -8.848 486.957 -8.848 Q 487.181 -8.848 487.384 -8.904 Q 487.587 -8.96 487.741 -9.03 L 487.965 -8.176 Q 487.685 -8.078 487.37 -8.001 Q 487.055 -7.924 486.691 -7.924 Z " fill="black" /><path d="M 490.751 -7.924 L 490.751 -7.924 Q 489.939 -7.924 489.386 -8.421 Q 488.833 -8.918 488.833 -9.814 Q 488.833 -10.906 489.799 -11.487 Q 490.765 -12.068 492.879 -12.292 Q 492.879 -12.726 492.767 -13.104 Q 492.655 -13.482 492.354 -13.72 Q 492.053 -13.958 491.507 -13.958 Q 490.961 -13.958 490.457 -13.734 Q 489.953 -13.51 489.561 -13.258 L 489.113 -14.028 Q 489.575 -14.336 490.247 -14.609 Q 490.919 -14.882 491.703 -14.882 Q 492.907 -14.882 493.453 -14.147 Q 493.999 -13.412 493.999 -12.166 L 493.999 -8.092 L 493.075 -8.092 L 492.977 -8.89 L 492.949 -8.89 Q 492.473 -8.498 491.927 -8.211 Q 491.381 -7.924 490.751 -7.924 Z M 491.087 -8.834 L 491.087 -8.834 Q 491.563 -8.834 491.983 -9.065 Q 492.403 -9.296 492.879 -9.702 L 492.879 -11.55 Q 491.255 -11.354 490.59 -10.948 Q 489.925 -10.542 489.925 -9.884 Q 489.925 -9.338 490.268 -9.086 Q 490.611 -8.834 491.087 -8.834 Z " fill="black" /><path d="M 502.133 -6.3 L 502.133 -6.3 L 494.965 -6.3 L 494.965 -7.014 L 502.133 -7.014 Z " fill="black" /><path d="M 505.801 -7.924 L 505.801 -7.924 Q 505.003 -7.924 504.303 -8.337 Q 503.603 -8.75 503.176 -9.527 Q 502.749 -10.304 502.749 -11.41 Q 502.749 -12.516 503.176 -13.286 Q 503.603 -14.056 504.303 -14.469 Q 505.003 -14.882 505.801 -14.882 Q 506.613 -14.882 507.313 -14.469 Q 508.013 -14.056 508.44 -13.286 Q 508.867 -12.516 508.867 -11.41 Q 508.867 -10.304 508.44 -9.527 Q 508.013 -8.75 507.313 -8.337 Q 506.613 -7.924 505.801 -7.924 Z M 505.801 -8.862 L 505.801 -8.862 Q 506.655 -8.862 507.18 -9.562 Q 507.705 -10.262 507.705 -11.41 Q 507.705 -12.544 507.18 -13.244 Q 506.655 -13.944 505.801 -13.944 Q 504.961 -13.944 504.436 -13.244 Q 503.911 -12.544 503.911 -11.41 Q 503.911 -10.262 504.436 -9.562 Q 504.961 -8.862 505.801 -8.862 Z " fill="black" /><path d="M 512.493 -7.924 L 512.493 -7.924 Q 511.485 -7.924 510.995 -8.596 Q 510.505 -9.268 510.505 -10.514 L 510.505 -14.728 L 511.625 -14.728 L 511.625 -10.668 Q 511.625 -9.758 511.919 -9.331 Q 512.213 -8.904 512.857 -8.904 Q 513.375 -8.904 513.767 -9.17 Q 514.159 -9.436 514.635 -10.024 L 514.635 -14.728 L 515.755 -14.728 L 515.755 -8.092 L 514.817 -8.092 L 514.733 -9.128 L 514.691 -9.128 Q 514.201 -8.554 513.69 -8.239 Q 513.179 -7.924 512.493 -7.924 Z " fill="black" /><path d="M 519.997 -7.924 L 519.997 -7.924 Q 519.017 -7.924 518.59 -8.54 Q 518.163 -9.156 518.163 -10.15 L 518.163 -13.734 L 517.197 -13.734 L 517.197 -14.574 L 518.219 -14.644 L 518.359 -16.59 L 519.283 -16.59 L 519.283 -14.644 L 521.061 -14.644 L 521.061 -13.734 L 519.283 -13.734 L 519.283 -10.122 Q 519.283 -9.534 519.507 -9.191 Q 519.731 -8.848 520.263 -8.848 Q 520.487 -8.848 520.69 -8.904 Q 520.893 -8.96 521.047 -9.03 L 521.271 -8.176 Q 520.991 -8.078 520.676 -8.001 Q 520.361 -7.924 519.997 -7.924 Z " fill="black" /></g></g></g></svg>