<svg xmlns="http://www.w3.org/2000/svg" xmlns:xlink="http://www.w3.org/1999/xlink" xml:lang="en" height="245.978pt" width="318.62059999999997pt" viewBox="-39.46639999999999 -218.338 318.62059999999997 245.978"><circle cx="2.204364238465236e-15" cy="-36.0" r="18.0" style="stroke:black;fill:none;stroke-width:2.0;stroke-dasharray:-;" /><path d="M 0.0,-0.0 L 0.0,14.4 L -9.0,14.4 L 9.0,14.4 M -6.3,18.72 L 6.3,18.72 M -1.8,23.04 L 1.8,23.04" style="stroke:black;fill:none;stroke-width:2.0;stroke-dasharray:-;stroke-linecap:round;stroke-linejoin:round;" /><path d="M 0.0,-0.0 L 1.102182119232618e-15,-18.0 L 1.102182119232618e-15,-18.0 M 3.3065463576978533e-15,-54.0 L 3.3065463576978533e-15,-54.0 L 4.408728476930472e-15,-72.0" style="stroke:black;fill:none;stroke-width:2.0;stroke-dasharray:-;stroke-linecap:round;stroke-linejoin:round;" /><path d="M 9.000000000000002,-36.0 L 8.250000000000002,-37.86349712473816 L 7.500000000000003,-39.6 L 6.750000000000003,-41.091168824543146 L 6.0000000000000036,-42.23538290724795 L 5.2500000000000036,-42.95466594928129 L 4.500000000000003,-43.199999999999996 L 3.750000000000003,-42.9546659492813 L 3.0000000000000027,-42.23538290724795 L 2.2500000000000027,-41.09116882454314 L 1.500000000000003,-39.6 L 0.7500000000000027,-37.863497124738146 L 2.204364238465236e-15,-36.0 L -0.7499999999999972,-34.136502875261854 L -1.4999999999999967,-32.400000000000006 L -2.2499999999999982,-30.908831175456857 L -2.9999999999999973,-29.764617092752044 L -3.7499999999999964,-29.04533405071871 L -4.499999999999998,-28.8 L -5.249999999999997,-29.045334050718708 L -5.9999999999999964,-29.76461709275204 L -6.749999999999998,-30.90883117545686 L -7.499999999999997,-32.4 L -8.249999999999996,-34.13650287526185 L -8.999999999999998,-36.0" style="stroke:black;fill:none;stroke-width:2.0;stroke-dasharray:-;stroke-linecap:round;stroke-linejoin:round;" /><path d="M 4.408728476930472e-15,-72.0 L 18.000000000000004,-72.0 L 21.000000000000007,-81.0 L 27.000000000000004,-63.0 L 33.0,-81.0 L 39.00000000000001,-63.0 L 45.00000000000001,-81.0 L 51.0,-63.0 L 54.00000000000001,-72.0 L 72.0,-72.0" style="stroke:black;fill:none;stroke-width:2.0;stroke-dasharray:-;stroke-linecap:round;stroke-linejoin:round;" /><path d="M 72.0,-72.0 L 81.0,-72.0 L 90.0,-72.0" style="stroke:black;fill:none;stroke-width:2.0;stroke-dasharray:-;stroke-linecap:round;stroke-linejoin:round;" /><path d="M 90.0,-72.0 L 108.0,-72.0 L 126.0,-72.0" style="stroke:black;fill:none;stroke-width:2.0;stroke-dasharray:-;stroke-linecap:round;stroke-linejoin:round;" /><path d="M 126.0,-72.0 L 126.0,-99.0 L 126.0,-126.0" style="stroke:black;fill:none;stroke-width:2.0;stroke-dasharray:-;stroke-linecap:round;stroke-linejoin:round;" /><path d="M 126.0,-126.0 L 144.0,-126.0 L 144.0,-135.0 L 180.0,-135.0 L 180.0,-117.0 L 144.0,-117.0 L 144.0,-126.0 M 180.0,-126.0 L 198.0,-126.0" style="stroke:black;fill:none;stroke-width:2.0;stroke-dasharray:-;stroke-linecap:round;stroke-linejoin:round;" /><path d="M 126.0,-72.0 L 153.0,-72.0 L 180.0,-72.0" style="stroke:black;fill:none;stroke-width:2.0;stroke-dasharray:-;stroke-linecap:round;stroke-linejoin:round;" /><path d="M 212.99999999999997,-42.0 L 212.99999999999997,-57.0 L 198.0,-57.0 L 198.0,-87.0 L 212.99999999999997,-87.0 L 212.99999999999997,-101.99999999999999" style="stroke:black;fill:none;stroke-width:2.0;stroke-dasharray:-;stroke-linecap:round;stroke-linejoin:round;" /><path d="M 203.99999999999997,-57.0 L 198.0,-57.0" style="stroke:black;fill:none;stroke-width:2.0;stroke-dasharray:-;stroke-linecap:round;stroke-linejoin:round;" /><path d="M 210.99999999999997 -57.0 L 203.99999999999997 -52.5 L 203.99999999999997 -61.5 Z" style="stroke:black;fill:black;stroke-linecap:butt;stroke-linejoin:miter;" /><path d="M 195.0,-59.99999999999999 L 195.0,-84.0" style="stroke:black;fill:none;stroke-width:2.0;stroke-dasharray:-;stroke-linecap:round;stroke-linejoin:round;" /><path d="M 180.0,-72.0 L 195.0,-72.0" style="stroke:black;fill:none;stroke-width:2.0;stroke-dasharray:-;stroke-linecap:round;stroke-linejoin:round;" /><path d="M 212.99999999999997,-42.0 L 212.99999999999997,-21.0 L 212.99999999999997,-0.0" style="stroke:black;fill:none;stroke-width:2.0;stroke-dasharray:-;stroke-linecap:round;stroke-linejoin:round;" /><path d="M 212.99999999999997,-0.0 L 212.99999999999997,14.4 L 203.99999999999997,14.4 L 221.99999999999997,14.4 M 206.7,18.72 L 219.29999999999998,18.72 M 211.2,23.04 L 214.79999999999998,23.04" style="stroke:black;fill:none;stroke-width:2.0;stroke-dasharray:-;stroke-linecap:round;stroke-linejoin:round;" /><path d="M 212.99999999999997,-101.99999999999999 L 212.99999999999997,-114.0 L 212.99999999999997,-126.0" style="stroke:black;fill:none;stroke-width:2.0;stroke-dasharray:-;stroke-linecap:round;stroke-linejoin:round;" /><path d="M 212.99999999999997,-126.0 L 205.5,-126.0 L 198.0,-126.0" style="stroke:black;fill:none;stroke-width:2.0;stroke-dasharray:-;stroke-linecap:round;stroke-linejoin:round;" /><path d="M 212.99999999999997,-126.0 L 230.99999999999997,-126.0 L 248.99999999999997,-126.0" style="stroke:black;fill:none;stroke-width:2.0;stroke-dasharray:-;stroke-linecap:round;stroke-linejoin:round;" /><path d="M 212.99999999999997,-126.0 L 212.99999999999997,-144.0 L 203.99999999999997,-144.0 L 203.99999999999997,-180.0 L 221.99999999999997,-180.0 L 221.99999999999997,-144.0 L 212.99999999999997,-144.0 M 212.99999999999997,-180.0 L 212.99999999999997,-198.0" style="stroke:black;fill:none;stroke-width:2.0;stroke-dasharray:-;stroke-linecap:round;stroke-linejoin:round;" /><path d="M 194.99999999999997,-198.0 L 212.99999999999997,-198.0 L 230.99999999999997,-198.0" style="stroke:black;fill:none;stroke-width:3;stroke-dasharray:-;stroke-linecap:round;stroke-linejoin:round;" /><g><g><g><path d="M -35.534 -40.781 L -35.534 -40.781 L -35.226 -40.781 L -35.884 -38.093 Q -35.982 -37.729 -36.087 -37.218 Q -36.192 -36.707 -36.192 -36.231 Q -36.192 -35.685 -35.968 -35.286 Q -35.744 -34.887 -35.1 -34.887 Q -34.386 -34.887 -33.868 -35.23 Q -33.35 -35.573 -33.021 -36.105 Q -32.692 -36.637 -32.531 -37.225 Q -32.37 -37.813 -32.37 -38.303 Q -32.37 -38.667 -32.496 -38.933 Q -32.622 -39.199 -32.797 -39.409 Q -32.972 -39.619 -33.098 -39.815 Q -33.224 -40.011 -33.224 -40.235 Q -33.224 -40.515 -33.07 -40.669 Q -32.916 -40.823 -32.692 -40.823 Q -32.216 -40.823 -31.922 -40.347 Q -31.628 -39.871 -31.628 -39.129 Q -31.628 -38.485 -31.789 -37.778 Q -31.95 -37.071 -32.272 -36.399 Q -32.594 -35.727 -33.07 -35.181 Q -33.546 -34.635 -34.162 -34.313 Q -34.778 -33.991 -35.534 -33.991 Q -36.234 -33.991 -36.626 -34.271 Q -37.018 -34.551 -37.179 -35.013 Q -37.34 -35.475 -37.34 -36.007 Q -37.34 -36.511 -37.242 -37.043 Q -37.144 -37.575 -37.032 -38.009 L -36.752 -39.073 Q -36.724 -39.185 -36.668 -39.409 Q -36.612 -39.633 -36.612 -39.843 Q -36.612 -40.025 -36.682 -40.151 Q -36.752 -40.277 -36.948 -40.277 Q -37.116 -40.277 -37.354 -40.256 Q -37.592 -40.235 -37.592 -40.235 L -37.592 -40.627 Z " fill="black" /><path d="M -27.855 -31.54 L -27.855 -31.54 L -27.855 -31.177 L -30.344 -31.177 L -30.344 -31.54 Q -30.001 -31.54 -29.849 -31.613 Q -29.698 -31.687 -29.658 -31.848 Q -29.619 -32.01 -29.619 -32.275 L -29.619 -35.234 Q -29.619 -35.567 -29.727 -35.636 Q -29.835 -35.705 -30.09 -35.705 Q -30.217 -35.705 -30.295 -35.695 Q -30.374 -35.685 -30.374 -35.685 L -30.374 -36.077 L -29.061 -36.293 L -28.659 -36.293 L -28.659 -32.275 Q -28.659 -31.99 -28.615 -31.829 Q -28.571 -31.667 -28.399 -31.603 Q -28.228 -31.54 -27.855 -31.54 Z M -29.149 -38.458 L -29.149 -38.458 Q -28.865 -38.458 -28.673 -38.262 Q -28.482 -38.066 -28.482 -37.812 Q -28.482 -37.576 -28.673 -37.38 Q -28.865 -37.184 -29.149 -37.184 Q -29.423 -37.184 -29.604 -37.38 Q -29.786 -37.576 -29.786 -37.812 Q -29.786 -38.066 -29.604 -38.262 Q -29.423 -38.458 -29.149 -38.458 Z " fill="black" /><path d="M -22.034 -34.46 L -22.034 -34.46 L -22.034 -32.265 Q -22.034 -31.99 -21.985 -31.829 Q -21.936 -31.667 -21.769 -31.598 Q -21.603 -31.53 -21.25 -31.53 L -21.25 -31.177 L -23.769 -31.177 L -23.769 -31.53 Q -23.396 -31.53 -23.23 -31.598 Q -23.063 -31.667 -23.024 -31.829 Q -22.985 -31.99 -22.985 -32.265 L -22.985 -34.137 Q -22.985 -34.793 -23.136 -35.102 Q -23.288 -35.411 -23.519 -35.509 Q -23.749 -35.607 -23.984 -35.607 Q -24.406 -35.607 -24.724 -35.391 Q -25.043 -35.175 -25.278 -34.979 L -25.278 -32.265 Q -25.278 -31.99 -25.234 -31.829 Q -25.19 -31.667 -25.023 -31.598 Q -24.856 -31.53 -24.494 -31.53 L -24.494 -31.177 L -26.963 -31.177 L -26.963 -31.53 Q -26.62 -31.53 -26.468 -31.598 Q -26.317 -31.667 -26.277 -31.829 Q -26.238 -31.99 -26.238 -32.265 L -26.238 -35.244 Q -26.238 -35.518 -26.341 -35.611 Q -26.444 -35.705 -26.669 -35.705 Q -26.787 -35.705 -26.865 -35.695 Q -26.944 -35.685 -26.944 -35.685 L -26.944 -36.057 L -25.631 -36.293 L -25.307 -36.293 L -25.307 -35.489 L -25.239 -35.489 Q -24.817 -35.871 -24.43 -36.097 Q -24.043 -36.322 -23.553 -36.322 Q -22.975 -36.322 -22.646 -36.062 Q -22.318 -35.803 -22.176 -35.381 Q -22.034 -34.96 -22.034 -34.46 Z " fill="black" /></g></g></g><g><g><g><path d="M 13.078 -94.933 L 13.078 -94.933 Q 13.078 -94.191 12.798 -93.687 Q 12.518 -93.183 12.07 -92.861 Q 11.622 -92.539 11.111 -92.364 Q 10.6 -92.189 10.138 -92.105 L 10.138 -92.035 Q 10.39 -91.867 10.614 -91.524 Q 10.838 -91.181 11.167 -90.537 Q 11.496 -89.893 12.07 -88.801 Q 12.308 -88.381 12.595 -88.234 Q 12.882 -88.087 13.358 -88.087 L 13.274 -87.667 L 11.146 -87.667 Q 10.754 -88.535 10.488 -89.116 Q 10.222 -89.697 10.026 -90.089 Q 9.83 -90.481 9.683 -90.789 Q 9.536 -91.097 9.368 -91.419 Q 9.214 -91.713 9.032 -91.804 Q 8.85 -91.895 8.472 -91.895 L 8.178 -91.895 L 7.66 -89.403 Q 7.548 -88.829 7.583 -88.542 Q 7.618 -88.255 7.898 -88.171 Q 8.178 -88.087 8.78 -88.087 L 8.71 -87.667 L 4.846 -87.667 L 4.93 -88.087 Q 5.448 -88.087 5.728 -88.171 Q 6.008 -88.255 6.155 -88.535 Q 6.302 -88.815 6.414 -89.403 L 7.646 -95.409 Q 7.73 -95.801 7.688 -96.025 Q 7.646 -96.249 7.401 -96.347 Q 7.156 -96.445 6.596 -96.445 L 6.68 -96.865 L 9.97 -96.865 Q 11.44 -96.865 12.259 -96.41 Q 13.078 -95.955 13.078 -94.933 Z M 9.06 -96.277 L 9.06 -96.277 L 8.276 -92.413 L 8.71 -92.399 Q 9.55 -92.427 10.229 -92.672 Q 10.908 -92.917 11.3 -93.449 Q 11.692 -93.981 11.692 -94.877 Q 11.692 -95.255 11.531 -95.584 Q 11.37 -95.913 10.978 -96.116 Q 10.586 -96.319 9.886 -96.319 Q 9.62 -96.319 9.459 -96.312 Q 9.298 -96.305 9.06 -96.277 Z " fill="black" /><path d="M 14.59 -86.511 L 14.59 -86.511 L 14.904 -86.511 Q 15.031 -85.943 15.207 -85.629 Q 15.384 -85.315 15.663 -85.193 Q 15.942 -85.07 16.344 -85.07 Q 16.805 -85.07 17.055 -85.222 Q 17.305 -85.374 17.305 -85.756 Q 17.305 -86.011 17.182 -86.183 Q 17.06 -86.354 16.79 -86.511 Q 16.521 -86.668 16.07 -86.874 Q 15.609 -87.099 15.281 -87.295 Q 14.953 -87.491 14.781 -87.756 Q 14.61 -88.02 14.61 -88.422 Q 14.61 -89.128 15.085 -89.5 Q 15.56 -89.872 16.276 -89.872 Q 16.707 -89.872 17.006 -89.765 Q 17.305 -89.657 17.481 -89.578 L 17.501 -89.578 L 17.657 -89.823 L 17.932 -89.823 L 17.951 -88.197 L 17.608 -88.197 Q 17.422 -88.951 17.089 -89.211 Q 16.756 -89.471 16.325 -89.471 Q 15.874 -89.471 15.644 -89.275 Q 15.413 -89.079 15.413 -88.765 Q 15.413 -88.51 15.57 -88.344 Q 15.727 -88.177 16.016 -88.035 Q 16.305 -87.893 16.707 -87.697 Q 17.158 -87.481 17.501 -87.251 Q 17.844 -87.021 18.04 -86.732 Q 18.236 -86.442 18.236 -86.011 Q 18.236 -85.492 17.961 -85.178 Q 17.687 -84.865 17.256 -84.732 Q 16.824 -84.6 16.354 -84.6 Q 15.874 -84.6 15.609 -84.698 Q 15.345 -84.796 15.119 -84.884 L 15.08 -84.884 L 14.835 -84.629 L 14.61 -84.629 Z " fill="black" /><path d="M 33.122 -92.245 L 33.122 -92.245 L 24.778 -92.245 L 24.778 -93.197 L 33.122 -93.197 Z M 33.122 -89.389 L 33.122 -89.389 L 24.778 -89.389 L 24.778 -90.327 L 33.122 -90.327 Z " fill="black" /><path d="M 45.011 -95.353 L 45.011 -95.353 L 41.721 -95.353 L 41.343 -93.757 L 42.001 -93.715 Q 42.617 -93.673 43.219 -93.505 Q 43.821 -93.337 44.311 -93.001 Q 44.801 -92.665 45.088 -92.112 Q 45.375 -91.559 45.375 -90.733 Q 45.375 -89.655 44.899 -88.934 Q 44.423 -88.213 43.576 -87.849 Q 42.729 -87.485 41.609 -87.485 Q 39.999 -87.485 39.999 -88.269 Q 39.999 -88.507 40.146 -88.689 Q 40.293 -88.871 40.559 -88.871 Q 40.839 -88.871 41.112 -88.703 Q 41.385 -88.535 41.707 -88.36 Q 42.029 -88.185 42.477 -88.185 Q 42.981 -88.185 43.408 -88.381 Q 43.835 -88.577 44.094 -89.011 Q 44.353 -89.445 44.353 -90.173 Q 44.353 -91.489 43.569 -92.007 Q 42.785 -92.525 41.329 -92.595 Q 41.063 -92.623 40.958 -92.623 Q 40.853 -92.623 40.699 -92.623 L 40.531 -92.833 L 41.399 -96.487 L 45.235 -96.487 Z " fill="black" /><path d="M 52.655 -92.105 L 52.655 -92.105 Q 52.655 -91.209 52.48 -90.383 Q 52.305 -89.557 51.934 -88.913 Q 51.563 -88.269 50.975 -87.891 Q 50.387 -87.513 49.561 -87.513 Q 48.721 -87.513 48.133 -87.884 Q 47.545 -88.255 47.181 -88.899 Q 46.817 -89.543 46.649 -90.383 Q 46.481 -91.223 46.481 -92.147 Q 46.481 -93.477 46.838 -94.492 Q 47.195 -95.507 47.888 -96.081 Q 48.581 -96.655 49.589 -96.655 Q 50.499 -96.655 51.185 -96.116 Q 51.871 -95.577 52.263 -94.562 Q 52.655 -93.547 52.655 -92.105 Z M 51.297 -92.021 L 51.297 -92.021 Q 51.297 -94.149 50.856 -95.164 Q 50.415 -96.179 49.547 -96.179 Q 48.721 -96.179 48.273 -95.171 Q 47.825 -94.163 47.825 -92.077 Q 47.825 -90.047 48.273 -89.032 Q 48.721 -88.017 49.561 -88.017 Q 50.387 -88.017 50.842 -89.011 Q 51.297 -90.005 51.297 -92.021 Z " fill="black" /><path d="M 66.062 -87.667 L 66.062 -87.667 L 62.408 -87.667 L 62.408 -88.675 Q 63.066 -89.207 63.521 -89.942 Q 63.976 -90.677 64.207 -91.496 Q 64.438 -92.315 64.438 -93.085 Q 64.438 -94.667 63.682 -95.556 Q 62.926 -96.445 61.638 -96.445 Q 60.308 -96.445 59.538 -95.542 Q 58.768 -94.639 58.768 -93.085 Q 58.768 -92.329 58.992 -91.496 Q 59.216 -90.663 59.671 -89.921 Q 60.126 -89.179 60.798 -88.661 L 60.798 -87.667 L 57.102 -87.667 L 56.808 -90.145 L 57.214 -90.145 Q 57.34 -89.669 57.459 -89.375 Q 57.578 -89.081 57.795 -88.941 Q 58.012 -88.801 58.404 -88.801 L 59.678 -88.801 L 59.678 -88.885 Q 59.286 -89.179 58.859 -89.564 Q 58.432 -89.949 58.068 -90.453 Q 57.704 -90.957 57.48 -91.622 Q 57.256 -92.287 57.256 -93.141 Q 57.256 -94.303 57.816 -95.178 Q 58.376 -96.053 59.37 -96.543 Q 60.364 -97.033 61.652 -97.033 Q 62.954 -97.033 63.92 -96.543 Q 64.886 -96.053 65.418 -95.178 Q 65.95 -94.303 65.95 -93.155 Q 65.95 -92.301 65.712 -91.636 Q 65.474 -90.971 65.103 -90.46 Q 64.732 -89.949 64.319 -89.564 Q 63.906 -89.179 63.542 -88.885 L 63.542 -88.801 L 64.718 -88.801 Q 65.138 -88.801 65.355 -88.941 Q 65.572 -89.081 65.705 -89.382 Q 65.838 -89.683 65.978 -90.145 L 66.384 -90.145 Z " fill="black" /></g></g></g><circle cx="90.0" cy="-72.0" r="2.6999999999999997" style="stroke:black;fill:white;stroke-width:2.0;stroke-dasharray:-;" /><circle cx="126.0" cy="-72.0" r="2.6999999999999997" style="stroke:black;fill:black;stroke-width:2.0;stroke-dasharray:-;" /><g><g><g><path d="M 162.041 -144.144 L 162.041 -144.144 L 161.229 -141.54 L 154.173 -141.54 L 154.243 -141.946 L 161.327 -150.094 L 161.327 -150.15 L 158.765 -150.15 Q 158.051 -150.15 157.617 -150.045 Q 157.183 -149.94 156.889 -149.576 Q 156.595 -149.212 156.287 -148.428 L 155.839 -148.428 L 156.357 -150.738 L 163.161 -150.738 L 163.077 -150.346 L 156.021 -142.184 L 156.021 -142.114 L 158.891 -142.114 Q 159.689 -142.114 160.144 -142.296 Q 160.599 -142.478 160.914 -142.926 Q 161.229 -143.374 161.621 -144.144 Z " fill="black" /><path d="M 169.501 -143.706 L 169.501 -143.706 L 169.099 -143.706 Q 169.031 -144.059 168.957 -144.308 Q 168.884 -144.558 168.737 -144.705 Q 168.59 -144.852 168.306 -144.921 Q 168.021 -144.99 167.531 -144.99 L 165.767 -144.99 L 165.767 -142.324 L 166.963 -142.324 Q 167.394 -142.324 167.629 -142.402 Q 167.865 -142.481 167.958 -142.701 Q 168.051 -142.922 168.051 -143.353 L 168.462 -143.353 L 168.462 -140.942 L 168.051 -140.942 Q 168.051 -141.354 167.958 -141.55 Q 167.865 -141.746 167.629 -141.805 Q 167.394 -141.863 166.963 -141.863 L 165.767 -141.863 L 165.767 -139.747 Q 165.767 -139.266 166.003 -139.119 Q 166.238 -138.972 166.845 -138.972 L 166.845 -138.6 L 163.719 -138.6 L 163.719 -138.972 Q 164.15 -138.972 164.366 -139.041 Q 164.582 -139.11 164.655 -139.301 Q 164.729 -139.492 164.729 -139.874 L 164.729 -144.186 Q 164.729 -144.558 164.645 -144.759 Q 164.562 -144.96 164.346 -145.039 Q 164.131 -145.117 163.719 -145.117 L 163.719 -145.489 L 169.442 -145.489 Z " fill="black" /></g></g></g><g><g><g><path d="M 227.926 -68.871 L 227.926 -68.871 L 224.188 -68.871 L 224.272 -69.291 Q 224.79 -69.291 225.063 -69.389 Q 225.336 -69.487 225.476 -69.76 Q 225.616 -70.033 225.714 -70.537 L 226.96 -76.585 L 226.904 -76.585 L 222.2 -68.871 L 221.892 -68.871 L 220.198 -76.571 L 220.142 -76.571 L 218.98 -70.915 Q 218.84 -70.201 218.861 -69.851 Q 218.882 -69.501 219.134 -69.396 Q 219.386 -69.291 219.918 -69.291 L 219.834 -68.871 L 216.6 -68.871 L 216.684 -69.291 Q 217.23 -69.291 217.524 -69.396 Q 217.818 -69.501 217.986 -69.851 Q 218.154 -70.201 218.294 -70.915 L 219.4 -76.361 Q 219.512 -76.893 219.47 -77.166 Q 219.428 -77.439 219.169 -77.544 Q 218.91 -77.649 218.35 -77.649 L 218.434 -78.069 L 221.234 -78.069 L 222.746 -70.985 L 222.802 -70.985 L 227.072 -78.069 L 229.718 -78.069 L 229.634 -77.649 Q 229.144 -77.649 228.857 -77.544 Q 228.57 -77.439 228.416 -77.166 Q 228.262 -76.893 228.15 -76.375 L 226.96 -70.537 Q 226.806 -69.767 227.037 -69.529 Q 227.268 -69.291 228.01 -69.291 Z " fill="black" /><path d="M 233.952 -65.931 L 233.952 -65.931 L 230.629 -65.931 L 230.629 -66.284 Q 231.335 -66.284 231.565 -66.426 Q 231.796 -66.568 231.796 -66.94 L 231.796 -71.213 Q 231.796 -71.478 231.717 -71.595 Q 231.639 -71.713 231.433 -71.713 Q 231.276 -71.713 231.007 -71.669 Q 230.737 -71.625 230.541 -71.576 L 230.541 -71.968 L 232.354 -72.468 L 232.776 -72.468 L 232.776 -66.94 Q 232.776 -66.568 233.025 -66.426 Q 233.275 -66.284 233.952 -66.284 Z " fill="black" /></g></g></g><circle cx="212.99999999999997" cy="-126.0" r="2.6999999999999997" style="stroke:black;fill:black;stroke-width:2.0;stroke-dasharray:-;" /><circle cx="248.99999999999997" cy="-126.0" r="2.6999999999999997" style="stroke:black;fill:white;stroke-width:2.0;stroke-dasharray:-;" /><g><g><g><path d="M 258.1 -130.84 L 258.1 -130.84 L 258.408 -130.84 L 257.75 -128.152 Q 257.652 -127.788 257.547 -127.277 Q 257.442 -126.766 257.442 -126.29 Q 257.442 -125.744 257.666 -125.345 Q 257.89 -124.946 258.534 -124.946 Q 259.248 -124.946 259.766 -125.289 Q 260.284 -125.632 260.613 -126.164 Q 260.942 -126.696 261.103 -127.284 Q 261.264 -127.872 261.264 -128.362 Q 261.264 -128.726 261.138 -128.992 Q 261.012 -129.258 260.837 -129.468 Q 260.662 -129.678 260.536 -129.874 Q 260.41 -130.07 260.41 -130.294 Q 260.41 -130.574 260.564 -130.728 Q 260.718 -130.882 260.942 -130.882 Q 261.418 -130.882 261.712 -130.406 Q 262.006 -129.93 262.006 -129.188 Q 262.006 -128.544 261.845 -127.837 Q 261.684 -127.13 261.362 -126.458 Q 261.04 -125.786 260.564 -125.24 Q 260.088 -124.694 259.472 -124.372 Q 258.856 -124.05 258.1 -124.05 Q 257.4 -124.05 257.008 -124.33 Q 256.616 -124.61 256.455 -125.072 Q 256.294 -125.534 256.294 -126.066 Q 256.294 -126.57 256.392 -127.102 Q 256.49 -127.634 256.602 -128.068 L 256.882 -129.132 Q 256.91 -129.244 256.966 -129.468 Q 257.022 -129.692 257.022 -129.902 Q 257.022 -130.084 256.952 -130.21 Q 256.882 -130.336 256.686 -130.336 Q 256.518 -130.336 256.28 -130.315 Q 256.042 -130.294 256.042 -130.294 L 256.042 -130.686 Z " fill="black" /><path d="M 265.034 -126.381 L 265.034 -126.381 Q 265.769 -126.381 266.318 -126.062 Q 266.867 -125.744 267.166 -125.17 Q 267.465 -124.597 267.465 -123.823 Q 267.465 -122.892 267.151 -122.294 Q 266.837 -121.696 266.289 -121.407 Q 265.74 -121.118 265.034 -121.118 Q 264.319 -121.118 263.765 -121.417 Q 263.211 -121.716 262.903 -122.314 Q 262.594 -122.912 262.594 -123.813 Q 262.594 -124.578 262.898 -125.156 Q 263.202 -125.734 263.75 -126.057 Q 264.299 -126.381 265.034 -126.381 Z M 265.015 -125.93 L 265.015 -125.93 Q 264.368 -125.93 264 -125.406 Q 263.633 -124.881 263.633 -123.872 Q 263.633 -122.627 264.01 -122.113 Q 264.387 -121.598 265.064 -121.598 Q 265.495 -121.608 265.799 -121.814 Q 266.102 -122.02 266.264 -122.505 Q 266.426 -122.99 266.426 -123.823 Q 266.426 -124.823 266.083 -125.376 Q 265.74 -125.93 265.015 -125.93 Z " fill="black" /><path d="M 274.129 -121.736 L 274.129 -121.736 L 274.129 -121.363 L 272.806 -121.187 L 272.492 -121.187 L 272.492 -121.951 L 272.394 -121.951 Q 272.022 -121.618 271.639 -121.378 Q 271.257 -121.138 270.718 -121.138 Q 269.993 -121.138 269.611 -121.579 Q 269.229 -122.02 269.229 -123.108 L 269.229 -125.215 Q 269.229 -125.616 269.087 -125.709 Q 268.944 -125.803 268.494 -125.803 L 268.494 -126.155 L 269.856 -126.342 L 270.179 -126.342 L 270.179 -123.235 Q 270.179 -122.686 270.307 -122.382 Q 270.434 -122.079 270.65 -121.961 Q 270.865 -121.843 271.12 -121.843 Q 271.551 -121.843 271.84 -122.025 Q 272.129 -122.206 272.443 -122.461 L 272.443 -125.215 Q 272.443 -125.616 272.267 -125.709 Q 272.09 -125.803 271.59 -125.803 L 271.59 -126.155 L 273.051 -126.342 L 273.394 -126.342 L 273.394 -122.373 Q 273.394 -122.079 273.447 -121.941 Q 273.501 -121.804 273.639 -121.77 Q 273.776 -121.736 274.021 -121.736 Z " fill="black" /><path d="M 277.951 -122.216 L 277.951 -122.216 L 278.176 -122.03 Q 277.96 -121.736 277.784 -121.535 Q 277.608 -121.334 277.382 -121.226 Q 277.157 -121.118 276.804 -121.118 Q 276.236 -121.118 275.976 -121.442 Q 275.716 -121.765 275.716 -122.48 L 275.716 -125.773 L 275.099 -125.773 L 275.099 -126.067 Q 275.452 -126.322 275.746 -126.689 Q 276.04 -127.057 276.334 -127.743 L 276.677 -127.743 L 276.667 -126.253 L 277.911 -126.253 L 277.911 -125.773 L 276.667 -125.773 L 276.667 -122.804 Q 276.667 -122.255 276.77 -122.025 Q 276.873 -121.794 277.186 -121.794 Q 277.47 -121.794 277.617 -121.897 Q 277.764 -122 277.951 -122.216 Z " fill="black" /></g></g></g><g><g><g><path d="M 192.77 -161.475 L 192.77 -161.475 L 191.958 -158.871 L 184.902 -158.871 L 184.972 -159.277 L 192.056 -167.425 L 192.056 -167.481 L 189.494 -167.481 Q 188.78 -167.481 188.346 -167.376 Q 187.912 -167.271 187.618 -166.907 Q 187.324 -166.543 187.016 -165.759 L 186.568 -165.759 L 187.086 -168.069 L 193.89 -168.069 L 193.806 -167.677 L 186.75 -159.515 L 186.75 -159.445 L 189.62 -159.445 Q 190.418 -159.445 190.873 -159.627 Q 191.328 -159.809 191.643 -160.257 Q 191.958 -160.705 192.35 -161.475 Z " fill="black" /><path d="M 200.123 -158.018 L 200.123 -158.018 L 199.868 -155.931 L 194.478 -155.931 L 194.478 -156.303 Q 194.919 -156.303 195.125 -156.377 Q 195.331 -156.45 195.394 -156.661 Q 195.458 -156.872 195.458 -157.283 L 195.458 -161.37 Q 195.458 -161.801 195.394 -162.032 Q 195.331 -162.262 195.125 -162.355 Q 194.919 -162.448 194.478 -162.448 L 194.478 -162.82 L 197.536 -162.82 L 197.536 -162.448 Q 197.104 -162.448 196.879 -162.36 Q 196.654 -162.272 196.57 -162.036 Q 196.487 -161.801 196.487 -161.36 L 196.487 -157.009 Q 196.487 -156.627 196.644 -156.524 Q 196.801 -156.421 197.193 -156.421 L 197.82 -156.421 Q 198.339 -156.421 198.653 -156.49 Q 198.966 -156.558 199.148 -156.73 Q 199.329 -156.901 199.447 -157.215 Q 199.564 -157.528 199.711 -158.018 Z " fill="black" /></g></g></g><g><g><g><path d="M 204.853 -206.29 L 204.853 -206.29 L 208.675 -212.03 Q 208.871 -212.31 208.99 -212.548 Q 209.109 -212.786 209.109 -212.954 Q 209.109 -213.164 208.927 -213.241 Q 208.745 -213.318 208.269 -213.318 L 208.297 -213.738 L 211.321 -213.738 L 211.293 -213.318 Q 210.915 -213.318 210.649 -213.206 Q 210.383 -213.094 210.11 -212.779 Q 209.837 -212.464 209.403 -211.82 L 204.265 -204.47 L 203.803 -204.47 L 203.019 -212.044 Q 202.935 -212.744 202.711 -213.031 Q 202.487 -213.318 201.927 -213.318 L 201.955 -213.738 L 205.385 -213.738 L 205.343 -213.318 Q 204.811 -213.318 204.503 -213.108 Q 204.195 -212.898 204.223 -212.422 Q 204.223 -212.352 204.244 -212.17 Q 204.265 -211.988 204.265 -211.918 L 204.685 -207.928 L 204.783 -206.29 Z " fill="black" /><path d="M 210.218 -208.489 L 210.218 -208.489 L 213.188 -208.489 Q 213.972 -208.489 214.687 -208.318 Q 215.402 -208.146 215.966 -207.754 Q 216.529 -207.362 216.858 -206.706 Q 217.186 -206.049 217.186 -205.069 Q 217.186 -204.148 216.887 -203.487 Q 216.588 -202.825 216.049 -202.409 Q 215.51 -201.992 214.795 -201.796 Q 214.079 -201.6 213.246 -201.6 L 210.218 -201.6 L 210.218 -201.972 Q 210.679 -201.972 210.894 -202.041 Q 211.11 -202.11 211.174 -202.32 Q 211.237 -202.531 211.237 -202.962 L 211.237 -207.215 Q 211.237 -207.617 211.144 -207.808 Q 211.051 -207.999 210.831 -208.058 Q 210.61 -208.117 210.218 -208.117 Z M 212.286 -207.999 L 212.286 -207.999 L 212.286 -202.07 Q 212.443 -202.061 212.595 -202.056 Q 212.747 -202.051 212.894 -202.051 Q 213.864 -202.051 214.545 -202.306 Q 215.226 -202.56 215.584 -203.197 Q 215.941 -203.834 215.941 -204.981 Q 215.941 -206.451 215.192 -207.23 Q 214.442 -208.009 212.815 -208.009 Q 212.678 -208.009 212.551 -208.009 Q 212.423 -208.009 212.286 -207.999 Z " fill="black" /><path d="M 218.372 -208.489 L 218.372 -208.489 L 221.341 -208.489 Q 222.125 -208.489 222.841 -208.318 Q 223.556 -208.146 224.119 -207.754 Q 224.683 -207.362 225.011 -206.706 Q 225.34 -206.049 225.34 -205.069 Q 225.34 -204.148 225.041 -203.487 Q 224.742 -202.825 224.203 -202.409 Q 223.664 -201.992 222.948 -201.796 Q 222.233 -201.6 221.4 -201.6 L 218.372 -201.6 L 218.372 -201.972 Q 218.832 -201.972 219.048 -202.041 Q 219.264 -202.11 219.327 -202.32 Q 219.391 -202.531 219.391 -202.962 L 219.391 -207.215 Q 219.391 -207.617 219.298 -207.808 Q 219.205 -207.999 218.984 -208.058 Q 218.764 -208.117 218.372 -208.117 Z M 220.44 -207.999 L 220.44 -207.999 L 220.44 -202.07 Q 220.596 -202.061 220.748 -202.056 Q 220.9 -202.051 221.047 -202.051 Q 222.017 -202.051 222.698 -202.306 Q 223.38 -202.56 223.737 -203.197 Q 224.095 -203.834 224.095 -204.981 Q 224.095 -206.451 223.345 -207.23 Q 222.596 -208.009 220.969 -208.009 Q 220.832 -208.009 220.704 -208.009 Q 220.577 -208.009 220.44 -207.999 Z " fill="black" /></g></g></g></svg>