<svg xmlns="http://www.w3.org/2000/svg" xmlns:xlink="http://www.w3.org/1999/xlink" xml:lang="en" height="216.2pt" width="367.74800000000005pt" viewBox="-39.147999999999996 -28.0 367.74800000000005 216.2"><path d="M 0.0,-23.400000000000002 L 0.0,183.60000000000002" style="stroke:#DDDDDD;fill:none;stroke-width:1;stroke-dasharray:2,3.3;stroke-linecap:round;stroke-linejoin:round;" /><path d="M 36.0,-23.400000000000002 L 36.0,183.60000000000002" style="stroke:#DDDDDD;fill:none;stroke-width:1;stroke-dasharray:2,3.3;stroke-linecap:round;stroke-linejoin:round;" /><path d="M 72.0,-23.400000000000002 L 72.0,183.60000000000002" style="stroke:#DDDDDD;fill:none;stroke-width:1;stroke-dasharray:2,3.3;stroke-linecap:round;stroke-linejoin:round;" /><path d="M 108.0,-23.400000000000002 L 108.0,183.60000000000002" style="stroke:#DDDDDD;fill:none;stroke-width:1;stroke-dasharray:2,3.3;stroke-linecap:round;stroke-linejoin:round;" /><path d="M 144.0,-23.400000000000002 L 144.0,183.60000000000002" style="stroke:#DDDDDD;fill:none;stroke-width:1;stroke-dasharray:2,3.3;stroke-linecap:round;stroke-linejoin:round;" /><path d="M 180.0,-23.400000000000002 L 180.0,183.60000000000002" style="stroke:#DDDDDD;fill:none;stroke-width:1;stroke-dasharray:2,3.3;stroke-linecap:round;stroke-linejoin:round;" /><path d="M 216.0,-23.400000000000002 L 216.0,183.60000000000002" style="stroke:#DDDDDD;fill:none;stroke-width:1;stroke-dasharray:2,3.3;stroke-linecap:round;stroke-linejoin:round;" /><path d="M 252.0,-23.400000000000002 L 252.0,183.60000000000002" style="stroke:#DDDDDD;fill:none;stroke-width:1;stroke-dasharray:2,3.3;stroke-linecap:round;stroke-linejoin:round;" /><path d="M 288.0,-23.400000000000002 L 288.0,183.60000000000002" style="stroke:#DDDDDD;fill:none;stroke-width:1;stroke-dasharray:2,3.3;stroke-linecap:round;stroke-linejoin:round;" /><path d="M 324.0,-23.400000000000002 L 324.0,183.60000000000002" style="stroke:#DDDDDD;fill:none;stroke-width:1;stroke-dasharray:2,3.3;stroke-linecap:round;stroke-linejoin:round;" /><defs><clipPath id="clip0"><rect x="-1.0" y="-20.8" width="326.0" height="223.40000000000003" /></clipPath></defs><path d="M 0.0,-0.0 L 36.0,-0.0" style="stroke:black;fill:none;stroke-width:1;stroke-dasharray:-;stroke-linecap:round;stroke-linejoin:round;" clip-path="url(#clip0)" /><path d="M 36.0,-0.0 L 41.4,-18.0 L 72.0,-18.0" style="stroke:black;fill:none;stroke-width:1;stroke-dasharray:-;stroke-linecap:round;stroke-linejoin:round;" clip-path="url(#clip0)" /><path d="M 72.0,-18.0 L 77.39999999999999,-0.0 L 108.0,-0.0" style="stroke:black;fill:none;stroke-width:1;stroke-dasharray:-;stroke-linecap:round;stroke-linejoin:round;" clip-path="url(#clip0)" /><path d="M 108.0,-0.0 L 113.39999999999999,-18.0 L 144.0,-18.0" style="stroke:black;fill:none;stroke-width:1;stroke-dasharray:-;stroke-linecap:round;stroke-linejoin:round;" clip-path="url(#clip0)" /><path d="M 144.0,-18.0 L 149.4,-0.0 L 180.0,-0.0" style="stroke:black;fill:none;stroke-width:1;stroke-dasharray:-;stroke-linecap:round;stroke-linejoin:round;" clip-path="url(#clip0)" /><path d="M 180.0,-0.0 L 185.4,-18.0 L 216.0,-18.0" style="stroke:black;fill:none;stroke-width:1;stroke-dasharray:-;stroke-linecap:round;stroke-linejoin:round;" clip-path="url(#clip0)" /><path d="M 216.0,-18.0 L 221.4,-0.0 L 252.0,-0.0" style="stroke:black;fill:none;stroke-width:1;stroke-dasharray:-;stroke-linecap:round;stroke-linejoin:round;" clip-path="url(#clip0)" /><path d="M 252.0,-0.0 L 257.40000000000003,-18.0 L 288.0,-18.0" style="stroke:black;fill:none;stroke-width:1;stroke-dasharray:-;stroke-linecap:round;stroke-linejoin:round;" clip-path="url(#clip0)" /><path d="M 288.0,-18.0 L 293.40000000000003,-0.0 L 324.0,-0.0" style="stroke:black;fill:none;stroke-width:1;stroke-dasharray:-;stroke-linecap:round;stroke-linejoin:round;" clip-path="url(#clip0)" /><path d="M 0.0,10.8 L 36.0,10.8" style="stroke:black;fill:none;stroke-width:1;stroke-dasharray:-;stroke-linecap:round;stroke-linejoin:round;" clip-path="url(#clip0)" /><path d="M 36.0,10.8 L 41.4,28.8 L 72.0,28.8" style="stroke:black;fill:none;stroke-width:1;stroke-dasharray:-;stroke-linecap:round;stroke-linejoin:round;" clip-path="url(#clip0)" /><path d="M 72.0,28.8 L 77.39999999999999,10.8 L 108.0,10.8" style="stroke:black;fill:none;stroke-width:1;stroke-dasharray:-;stroke-linecap:round;stroke-linejoin:round;" clip-path="url(#clip0)" /><path d="M 108.0,10.8 L 113.39999999999999,28.8 L 144.0,28.8" style="stroke:black;fill:none;stroke-width:1;stroke-dasharray:-;stroke-linecap:round;stroke-linejoin:round;" clip-path="url(#clip0)" /><path d="M 144.0,28.8 L 149.4,10.8 L 180.0,10.8" style="stroke:black;fill:none;stroke-width:1;stroke-dasharray:-;stroke-linecap:round;stroke-linejoin:round;" clip-path="url(#clip0)" /><path d="M 180.0,10.8 L 185.4,28.8 L 216.0,28.8" style="stroke:black;fill:none;stroke-width:1;stroke-dasharray:-;stroke-linecap:round;stroke-linejoin:round;" clip-path="url(#clip0)" /><path d="M 216.0,28.8 L 221.4,10.8 L 252.0,10.8" style="stroke:black;fill:none;stroke-width:1;stroke-dasharray:-;stroke-linecap:round;stroke-linejoin:round;" clip-path="url(#clip0)" /><path d="M 252.0,10.8 L 257.40000000000003,28.8 L 288.0,28.8" style="stroke:black;fill:none;stroke-width:1;stroke-dasharray:-;stroke-linecap:round;stroke-linejoin:round;" clip-path="url(#clip0)" /><path d="M 288.0,28.8 L 293.40000000000003,10.8 L 324.0,10.8" style="stroke:black;fill:none;stroke-width:1;stroke-dasharray:-;stroke-linecap:round;stroke-linejoin:round;" clip-path="url(#clip0)" /><path d="M 0.0,86.4 L 36.0,86.4" style="stroke:black;fill:none;stroke-width:1;stroke-dasharray:-;stroke-linecap:round;stroke-linejoin:round;" clip-path="url(#clip0)" /><path d="M 36.0,86.4 L 41.4,68.4 L 108.0,68.4" style="stroke:black;fill:none;stroke-width:1;stroke-dasharray:-;stroke-linecap:round;stroke-linejoin:round;" clip-path="url(#clip0)" /><path d="M 108.0,68.4 L 113.39999999999999,86.4 L 180.0,86.4" style="stroke:black;fill:none;stroke-width:1;stroke-dasharray:-;stroke-linecap:round;stroke-linejoin:round;" clip-path="url(#clip0)" /><path d="M 180.0,86.4 L 185.4,68.4 L 252.0,68.4" style="stroke:black;fill:none;stroke-width:1;stroke-dasharray:-;stroke-linecap:round;stroke-linejoin:round;" clip-path="url(#clip0)" /><path d="M 252.0,68.4 L 257.40000000000003,86.4 L 324.0,86.4" style="stroke:black;fill:none;stroke-width:1;stroke-dasharray:-;stroke-linecap:round;stroke-linejoin:round;" clip-path="url(#clip0)" /><path d="M 0.0,115.2 L 72.0,115.2" style="stroke:black;fill:none;stroke-width:1;stroke-dasharray:-;stroke-linecap:round;stroke-linejoin:round;" clip-path="url(#clip0)" /><path d="M 72.0,115.2 L 77.39999999999999,97.2 L 144.0,97.2" style="stroke:black;fill:none;stroke-width:1;stroke-dasharray:-;stroke-linecap:round;stroke-linejoin:round;" clip-path="url(#clip0)" /><path d="M 144.0,97.2 L 149.4,115.2 L 216.0,115.2" style="stroke:black;fill:none;stroke-width:1;stroke-dasharray:-;stroke-linecap:round;stroke-linejoin:round;" clip-path="url(#clip0)" /><path d="M 216.0,115.2 L 221.4,97.2 L 288.0,97.2" style="stroke:black;fill:none;stroke-width:1;stroke-dasharray:-;stroke-linecap:round;stroke-linejoin:round;" clip-path="url(#clip0)" /><path d="M 288.0,97.2 L 293.40000000000003,115.2 L 324.0,115.2" style="stroke:black;fill:none;stroke-width:1;stroke-dasharray:-;stroke-linecap:round;stroke-linejoin:round;" clip-path="url(#clip0)" /><path d="M 0.0,126.0 L 36.0,126.0" style="stroke:black;fill:none;stroke-width:1;stroke-dasharray:-;stroke-linecap:round;stroke-linejoin:round;" clip-path="url(#clip0)" /><path d="M 36.0,126.0 L 41.4,144.0 L 108.0,144.0" style="stroke:black;fill:none;stroke-width:1;stroke-dasharray:-;stroke-linecap:round;stroke-linejoin:round;" clip-path="url(#clip0)" /><path d="M 108.0,144.0 L 113.39999999999999,126.0 L 180.0,126.0" style="stroke:black;fill:none;stroke-width:1;stroke-dasharray:-;stroke-linecap:round;stroke-linejoin:round;" clip-path="url(#clip0)" /><path d="M 180.0,126.0 L 185.4,144.0 L 252.0,144.0" style="stroke:black;fill:none;stroke-width:1;stroke-dasharray:-;stroke-linecap:round;stroke-linejoin:round;" clip-path="url(#clip0)" /><path d="M 252.0,144.0 L 257.40000000000003,126.0 L 324.0,126.0" style="stroke:black;fill:none;stroke-width:1;stroke-dasharray:-;stroke-linecap:round;stroke-linejoin:round;" clip-path="url(#clip0)" /><path d="M 0.0,154.79999999999998 L 72.0,154.79999999999998" style="stroke:black;fill:none;stroke-width:1;stroke-dasharray:-;stroke-linecap:round;stroke-linejoin:round;" clip-path="url(#clip0)" /><path d="M 72.0,154.79999999999998 L 77.39999999999999,172.79999999999998 L 144.0,172.79999999999998" style="stroke:black;fill:none;stroke-width:1;stroke-dasharray:-;stroke-linecap:round;stroke-linejoin:round;" clip-path="url(#clip0)" /><path d="M 144.0,172.79999999999998 L 149.4,154.79999999999998 L 216.0,154.79999999999998" style="stroke:black;fill:none;stroke-width:1;stroke-dasharray:-;stroke-linecap:round;stroke-linejoin:round;" clip-path="url(#clip0)" /><path d="M 216.0,154.79999999999998 L 221.4,172.79999999999998 L 288.0,172.79999999999998" style="stroke:black;fill:none;stroke-width:1;stroke-dasharray:-;stroke-linecap:round;stroke-linejoin:round;" clip-path="url(#clip0)" /><path d="M 288.0,172.79999999999998 L 293.40000000000003,154.79999999999998 L 324.0,154.79999999999998" style="stroke:black;fill:none;stroke-width:1;stroke-dasharray:-;stroke-linecap:round;stroke-linejoin:round;" clip-path="url(#clip0)" /><g><g><g><path d="M -32.22 -2.496 L -32.22 -2.496 Q -32.772 -2.496 -33.012 -2.826 Q -33.252 -3.156 -33.252 -3.78 L -33.252 -11.112 L -32.292 -11.112 L -32.292 -3.72 Q -32.292 -3.492 -32.208 -3.396 Q -32.124 -3.3 -32.016 -3.3 Q -31.98 -3.3 -31.938 -3.306 Q -31.896 -3.312 -31.812 -3.324 L -31.692 -2.592 Q -31.788 -2.556 -31.914 -2.526 Q -32.04 -2.496 -32.22 -2.496 Z " fill="blue" /><path d="M -28.092 -2.496 L -28.092 -2.496 Q -28.776 -2.496 -29.376 -2.85 Q -29.976 -3.204 -30.342 -3.87 Q -30.708 -4.536 -30.708 -5.484 Q -30.708 -6.432 -30.342 -7.092 Q -29.976 -7.752 -29.376 -8.106 Q -28.776 -8.46 -28.092 -8.46 Q -27.396 -8.46 -26.796 -8.106 Q -26.196 -7.752 -25.83 -7.092 Q -25.464 -6.432 -25.464 -5.484 Q -25.464 -4.536 -25.83 -3.87 Q -26.196 -3.204 -26.796 -2.85 Q -27.396 -2.496 -28.092 -2.496 Z M -28.092 -3.3 L -28.092 -3.3 Q -27.36 -3.3 -26.91 -3.9 Q -26.46 -4.5 -26.46 -5.484 Q -26.46 -6.456 -26.91 -7.056 Q -27.36 -7.656 -28.092 -7.656 Q -28.812 -7.656 -29.262 -7.056 Q -29.712 -6.456 -29.712 -5.484 Q -29.712 -4.5 -29.262 -3.9 Q -28.812 -3.3 -28.092 -3.3 Z " fill="blue" /><path d="M -24.444 -2.64 L -24.444 -2.64 L -24.444 -3.24 Q -23.268 -4.368 -22.452 -5.22 Q -21.636 -6.072 -21.204 -6.756 Q -20.772 -7.44 -20.772 -8.052 Q -20.772 -8.7 -21.138 -9.108 Q -21.504 -9.516 -22.248 -9.516 Q -22.74 -9.516 -23.154 -9.258 Q -23.568 -9 -23.916 -8.616 L -24.492 -9.18 Q -24 -9.708 -23.442 -10.02 Q -22.884 -10.332 -22.128 -10.332 Q -21.036 -10.332 -20.406 -9.72 Q -19.776 -9.108 -19.776 -8.1 Q -19.776 -7.404 -20.19 -6.684 Q -20.604 -5.964 -21.324 -5.166 Q -22.044 -4.368 -22.968 -3.444 Q -22.656 -3.468 -22.308 -3.486 Q -21.96 -3.504 -21.66 -3.504 L -19.392 -3.504 L -19.392 -2.64 Z " fill="blue" /><path d="M -12.696 -1.104 L -12.696 -1.104 L -18.84 -1.104 L -18.84 -1.716 L -12.696 -1.716 Z " fill="blue" /><path d="M -11.748 0 L -11.748 0 L -11.748 -8.328 L -10.956 -8.328 L -10.872 -7.668 L -10.836 -7.668 Q -10.452 -7.98 -10.002 -8.22 Q -9.552 -8.46 -8.976 -8.46 Q -8.304 -8.46 -7.818 -8.106 Q -7.332 -7.752 -7.068 -7.116 Q -6.804 -6.48 -6.804 -5.628 Q -6.804 -4.632 -7.146 -3.93 Q -7.488 -3.228 -8.034 -2.862 Q -8.58 -2.496 -9.216 -2.496 Q -9.612 -2.496 -10.002 -2.658 Q -10.392 -2.82 -10.812 -3.168 L -10.788 -2.16 L -10.788 0 Z M -9.396 -3.312 L -9.396 -3.312 Q -8.712 -3.312 -8.256 -3.906 Q -7.8 -4.5 -7.8 -5.616 Q -7.8 -6.516 -8.148 -7.086 Q -8.496 -7.656 -9.24 -7.656 Q -9.612 -7.656 -9.966 -7.482 Q -10.32 -7.308 -10.788 -6.876 L -10.788 -3.9 Q -10.404 -3.576 -10.05 -3.444 Q -9.696 -3.312 -9.396 -3.312 Z " fill="blue" /></g></g></g><g><g><g><path d="M -32.124 27.408 L -32.124 27.408 Q -32.676 27.408 -32.916 27.078 Q -33.156 26.748 -33.156 26.124 L -33.156 18.792 L -32.196 18.792 L -32.196 26.184 Q -32.196 26.412 -32.112 26.508 Q -32.028 26.604 -31.92 26.604 Q -31.884 26.604 -31.842 26.598 Q -31.8 26.592 -31.716 26.58 L -31.596 27.312 Q -31.692 27.348 -31.818 27.378 Q -31.944 27.408 -32.124 27.408 Z " fill="blue" /><path d="M -27.996 27.408 L -27.996 27.408 Q -28.68 27.408 -29.28 27.054 Q -29.88 26.7 -30.246 26.034 Q -30.612 25.368 -30.612 24.42 Q -30.612 23.472 -30.246 22.812 Q -29.88 22.152 -29.28 21.798 Q -28.68 21.444 -27.996 21.444 Q -27.3 21.444 -26.7 21.798 Q -26.1 22.152 -25.734 22.812 Q -25.368 23.472 -25.368 24.42 Q -25.368 25.368 -25.734 26.034 Q -26.1 26.7 -26.7 27.054 Q -27.3 27.408 -27.996 27.408 Z M -27.996 26.604 L -27.996 26.604 Q -27.264 26.604 -26.814 26.004 Q -26.364 25.404 -26.364 24.42 Q -26.364 23.448 -26.814 22.848 Q -27.264 22.248 -27.996 22.248 Q -28.716 22.248 -29.166 22.848 Q -29.616 23.448 -29.616 24.42 Q -29.616 25.404 -29.166 26.004 Q -28.716 26.604 -27.996 26.604 Z " fill="blue" /><path d="M -24.348 27.264 L -24.348 27.264 L -24.348 26.664 Q -23.172 25.536 -22.356 24.684 Q -21.54 23.832 -21.108 23.148 Q -20.676 22.464 -20.676 21.852 Q -20.676 21.204 -21.042 20.796 Q -21.408 20.388 -22.152 20.388 Q -22.644 20.388 -23.058 20.646 Q -23.472 20.904 -23.82 21.288 L -24.396 20.724 Q -23.904 20.196 -23.346 19.884 Q -22.788 19.572 -22.032 19.572 Q -20.94 19.572 -20.31 20.184 Q -19.68 20.796 -19.68 21.804 Q -19.68 22.5 -20.094 23.22 Q -20.508 23.94 -21.228 24.738 Q -21.948 25.536 -22.872 26.46 Q -22.56 26.436 -22.212 26.418 Q -21.864 26.4 -21.564 26.4 L -19.296 26.4 L -19.296 27.264 Z " fill="blue" /><path d="M -12.6 28.8 L -12.6 28.8 L -18.744 28.8 L -18.744 28.188 L -12.6 28.188 Z " fill="blue" /><path d="M -11.652 27.264 L -11.652 27.264 L -11.652 21.576 L -10.86 21.576 L -10.776 22.392 L -10.74 22.392 Q -10.332 21.996 -9.888 21.72 Q -9.444 21.444 -8.82 21.444 Q -7.968 21.444 -7.542 22.008 Q -7.116 22.572 -7.116 23.664 L -7.116 27.264 L -8.088 27.264 L -8.088 23.784 Q -8.088 22.992 -8.334 22.638 Q -8.58 22.284 -9.132 22.284 Q -9.576 22.284 -9.924 22.5 Q -10.272 22.716 -10.692 23.148 L -10.692 27.264 Z " fill="blue" /></g></g></g><g><g><g><path d="M -28.992 83.904 L -28.992 83.904 Q -29.544 83.904 -29.784 83.574 Q -30.024 83.244 -30.024 82.62 L -30.024 75.288 L -29.064 75.288 L -29.064 82.68 Q -29.064 82.908 -28.98 83.004 Q -28.896 83.1 -28.788 83.1 Q -28.752 83.1 -28.71 83.094 Q -28.668 83.088 -28.584 83.076 L -28.464 83.808 Q -28.56 83.844 -28.686 83.874 Q -28.812 83.904 -28.992 83.904 Z " fill="blue" /><path d="M -24.864 83.904 L -24.864 83.904 Q -25.548 83.904 -26.148 83.55 Q -26.748 83.196 -27.114 82.53 Q -27.48 81.864 -27.48 80.916 Q -27.48 79.968 -27.114 79.308 Q -26.748 78.648 -26.148 78.294 Q -25.548 77.94 -24.864 77.94 Q -24.168 77.94 -23.568 78.294 Q -22.968 78.648 -22.602 79.308 Q -22.236 79.968 -22.236 80.916 Q -22.236 81.864 -22.602 82.53 Q -22.968 83.196 -23.568 83.55 Q -24.168 83.904 -24.864 83.904 Z M -24.864 83.1 L -24.864 83.1 Q -24.132 83.1 -23.682 82.5 Q -23.232 81.9 -23.232 80.916 Q -23.232 79.944 -23.682 79.344 Q -24.132 78.744 -24.864 78.744 Q -25.584 78.744 -26.034 79.344 Q -26.484 79.944 -26.484 80.916 Q -26.484 81.9 -26.034 82.5 Q -25.584 83.1 -24.864 83.1 Z " fill="blue" /><path d="M -15.564 85.296 L -15.564 85.296 L -21.708 85.296 L -21.708 84.684 L -15.564 84.684 Z " fill="blue" /><path d="M -14.616 83.76 L -14.616 83.76 L -14.616 78.072 L -13.656 78.072 L -13.656 83.76 Z M -14.124 76.908 L -14.124 76.908 Q -14.4 76.908 -14.592 76.728 Q -14.784 76.548 -14.784 76.284 Q -14.784 76.008 -14.592 75.834 Q -14.4 75.66 -14.124 75.66 Q -13.848 75.66 -13.656 75.834 Q -13.464 76.008 -13.464 76.284 Q -13.464 76.548 -13.656 76.728 Q -13.848 76.908 -14.124 76.908 Z " fill="blue" /><path d="M -11.748 86.4 L -11.748 86.4 L -11.748 78.072 L -10.956 78.072 L -10.872 78.732 L -10.836 78.732 Q -10.452 78.42 -10.002 78.18 Q -9.552 77.94 -8.976 77.94 Q -8.304 77.94 -7.818 78.294 Q -7.332 78.648 -7.068 79.284 Q -6.804 79.92 -6.804 80.772 Q -6.804 81.768 -7.146 82.47 Q -7.488 83.172 -8.034 83.538 Q -8.58 83.904 -9.216 83.904 Q -9.612 83.904 -10.002 83.742 Q -10.392 83.58 -10.812 83.232 L -10.788 84.24 L -10.788 86.4 Z M -9.396 83.088 L -9.396 83.088 Q -8.712 83.088 -8.256 82.494 Q -7.8 81.9 -7.8 80.784 Q -7.8 79.884 -8.148 79.314 Q -8.496 78.744 -9.24 78.744 Q -9.612 78.744 -9.966 78.918 Q -10.32 79.092 -10.788 79.524 L -10.788 82.5 Q -10.404 82.824 -10.05 82.956 Q -9.696 83.088 -9.396 83.088 Z " fill="blue" /></g></g></g><g><g><g><path d="M -32.568 112.704 L -32.568 112.704 Q -33.12 112.704 -33.36 112.374 Q -33.6 112.044 -33.6 111.42 L -33.6 104.088 L -32.64 104.088 L -32.64 111.48 Q -32.64 111.708 -32.556 111.804 Q -32.472 111.9 -32.364 111.9 Q -32.328 111.9 -32.286 111.894 Q -32.244 111.888 -32.16 111.876 L -32.04 112.608 Q -32.136 112.644 -32.262 112.674 Q -32.388 112.704 -32.568 112.704 Z " fill="blue" /><path d="M -28.44 112.704 L -28.44 112.704 Q -29.124 112.704 -29.724 112.35 Q -30.324 111.996 -30.69 111.33 Q -31.056 110.664 -31.056 109.716 Q -31.056 108.768 -30.69 108.108 Q -30.324 107.448 -29.724 107.094 Q -29.124 106.74 -28.44 106.74 Q -27.744 106.74 -27.144 107.094 Q -26.544 107.448 -26.178 108.108 Q -25.812 108.768 -25.812 109.716 Q -25.812 110.664 -26.178 111.33 Q -26.544 111.996 -27.144 112.35 Q -27.744 112.704 -28.44 112.704 Z M -28.44 111.9 L -28.44 111.9 Q -27.708 111.9 -27.258 111.3 Q -26.808 110.7 -26.808 109.716 Q -26.808 108.744 -27.258 108.144 Q -27.708 107.544 -28.44 107.544 Q -29.16 107.544 -29.61 108.144 Q -30.06 108.744 -30.06 109.716 Q -30.06 110.7 -29.61 111.3 Q -29.16 111.9 -28.44 111.9 Z " fill="blue" /><path d="M -19.14 114.096 L -19.14 114.096 L -25.284 114.096 L -25.284 113.484 L -19.14 113.484 Z " fill="blue" /><path d="M -14.604 115.2 L -14.604 115.2 L -14.604 112.944 L -14.568 111.912 Q -14.904 112.236 -15.33 112.47 Q -15.756 112.704 -16.32 112.704 Q -16.992 112.704 -17.502 112.344 Q -18.012 111.984 -18.3 111.33 Q -18.588 110.676 -18.588 109.8 Q -18.588 108.804 -18.246 108.126 Q -17.904 107.448 -17.34 107.094 Q -16.776 106.74 -16.128 106.74 Q -15.66 106.74 -15.282 106.914 Q -14.904 107.088 -14.532 107.412 L -14.496 107.412 L -14.412 106.872 L -13.644 106.872 L -13.644 115.2 Z M -16.068 111.888 L -16.068 111.888 Q -15.66 111.888 -15.312 111.69 Q -14.964 111.492 -14.604 111.12 L -14.604 108.132 Q -14.964 107.808 -15.294 107.676 Q -15.624 107.544 -15.936 107.544 Q -16.644 107.544 -17.124 108.132 Q -17.604 108.72 -17.604 109.788 Q -17.604 110.736 -17.202 111.312 Q -16.8 111.888 -16.068 111.888 Z " fill="blue" /><path d="M -11.748 115.2 L -11.748 115.2 L -11.748 106.872 L -10.956 106.872 L -10.872 107.532 L -10.836 107.532 Q -10.452 107.22 -10.002 106.98 Q -9.552 106.74 -8.976 106.74 Q -8.304 106.74 -7.818 107.094 Q -7.332 107.448 -7.068 108.084 Q -6.804 108.72 -6.804 109.572 Q -6.804 110.568 -7.146 111.27 Q -7.488 111.972 -8.034 112.338 Q -8.58 112.704 -9.216 112.704 Q -9.612 112.704 -10.002 112.542 Q -10.392 112.38 -10.812 112.032 L -10.788 113.04 L -10.788 115.2 Z M -9.396 111.888 L -9.396 111.888 Q -8.712 111.888 -8.256 111.294 Q -7.8 110.7 -7.8 109.584 Q -7.8 108.684 -8.148 108.114 Q -8.496 107.544 -9.24 107.544 Q -9.612 107.544 -9.966 107.718 Q -10.32 107.892 -10.788 108.324 L -10.788 111.3 Q -10.404 111.624 -10.05 111.756 Q -9.696 111.888 -9.396 111.888 Z " fill="blue" /></g></g></g><g><g><g><path d="M -28.896 142.608 L -28.896 142.608 Q -29.448 142.608 -29.688 142.278 Q -29.928 141.948 -29.928 141.324 L -29.928 133.992 L -28.968 133.992 L -28.968 141.384 Q -28.968 141.612 -28.884 141.708 Q -28.8 141.804 -28.692 141.804 Q -28.656 141.804 -28.614 141.798 Q -28.572 141.792 -28.488 141.78 L -28.368 142.512 Q -28.464 142.548 -28.59 142.578 Q -28.716 142.608 -28.896 142.608 Z " fill="blue" /><path d="M -24.768 142.608 L -24.768 142.608 Q -25.452 142.608 -26.052 142.254 Q -26.652 141.9 -27.018 141.234 Q -27.384 140.568 -27.384 139.62 Q -27.384 138.672 -27.018 138.012 Q -26.652 137.352 -26.052 136.998 Q -25.452 136.644 -24.768 136.644 Q -24.072 136.644 -23.472 136.998 Q -22.872 137.352 -22.506 138.012 Q -22.14 138.672 -22.14 139.62 Q -22.14 140.568 -22.506 141.234 Q -22.872 141.9 -23.472 142.254 Q -24.072 142.608 -24.768 142.608 Z M -24.768 141.804 L -24.768 141.804 Q -24.036 141.804 -23.586 141.204 Q -23.136 140.604 -23.136 139.62 Q -23.136 138.648 -23.586 138.048 Q -24.036 137.448 -24.768 137.448 Q -25.488 137.448 -25.938 138.048 Q -26.388 138.648 -26.388 139.62 Q -26.388 140.604 -25.938 141.204 Q -25.488 141.804 -24.768 141.804 Z " fill="blue" /><path d="M -15.468 144 L -15.468 144 L -21.612 144 L -21.612 143.388 L -15.468 143.388 Z " fill="blue" /><path d="M -14.52 142.464 L -14.52 142.464 L -14.52 136.776 L -13.56 136.776 L -13.56 142.464 Z M -14.028 135.612 L -14.028 135.612 Q -14.304 135.612 -14.496 135.432 Q -14.688 135.252 -14.688 134.988 Q -14.688 134.712 -14.496 134.538 Q -14.304 134.364 -14.028 134.364 Q -13.752 134.364 -13.56 134.538 Q -13.368 134.712 -13.368 134.988 Q -13.368 135.252 -13.56 135.432 Q -13.752 135.612 -14.028 135.612 Z " fill="blue" /><path d="M -11.652 142.464 L -11.652 142.464 L -11.652 136.776 L -10.86 136.776 L -10.776 137.592 L -10.74 137.592 Q -10.332 137.196 -9.888 136.92 Q -9.444 136.644 -8.82 136.644 Q -7.968 136.644 -7.542 137.208 Q -7.116 137.772 -7.116 138.864 L -7.116 142.464 L -8.088 142.464 L -8.088 138.984 Q -8.088 138.192 -8.334 137.838 Q -8.58 137.484 -9.132 137.484 Q -9.576 137.484 -9.924 137.7 Q -10.272 137.916 -10.692 138.348 L -10.692 142.464 Z " fill="blue" /></g></g></g><g><g><g><path d="M -32.472 170.304 L -32.472 170.304 Q -33.024 170.304 -33.264 169.974 Q -33.504 169.644 -33.504 169.02 L -33.504 161.688 L -32.544 161.688 L -32.544 169.08 Q -32.544 169.308 -32.46 169.404 Q -32.376 169.5 -32.268 169.5 Q -32.232 169.5 -32.19 169.494 Q -32.148 169.488 -32.064 169.476 L -31.944 170.208 Q -32.04 170.244 -32.166 170.274 Q -32.292 170.304 -32.472 170.304 Z " fill="blue" /><path d="M -28.344 170.304 L -28.344 170.304 Q -29.028 170.304 -29.628 169.95 Q -30.228 169.596 -30.594 168.93 Q -30.96 168.264 -30.96 167.316 Q -30.96 166.368 -30.594 165.708 Q -30.228 165.048 -29.628 164.694 Q -29.028 164.34 -28.344 164.34 Q -27.648 164.34 -27.048 164.694 Q -26.448 165.048 -26.082 165.708 Q -25.716 166.368 -25.716 167.316 Q -25.716 168.264 -26.082 168.93 Q -26.448 169.596 -27.048 169.95 Q -27.648 170.304 -28.344 170.304 Z M -28.344 169.5 L -28.344 169.5 Q -27.612 169.5 -27.162 168.9 Q -26.712 168.3 -26.712 167.316 Q -26.712 166.344 -27.162 165.744 Q -27.612 165.144 -28.344 165.144 Q -29.064 165.144 -29.514 165.744 Q -29.964 166.344 -29.964 167.316 Q -29.964 168.3 -29.514 168.9 Q -29.064 169.5 -28.344 169.5 Z " fill="blue" /><path d="M -19.044 171.696 L -19.044 171.696 L -25.188 171.696 L -25.188 171.084 L -19.044 171.084 Z " fill="blue" /><path d="M -14.508 172.8 L -14.508 172.8 L -14.508 170.544 L -14.472 169.512 Q -14.808 169.836 -15.234 170.07 Q -15.66 170.304 -16.224 170.304 Q -16.896 170.304 -17.406 169.944 Q -17.916 169.584 -18.204 168.93 Q -18.492 168.276 -18.492 167.4 Q -18.492 166.404 -18.15 165.726 Q -17.808 165.048 -17.244 164.694 Q -16.68 164.34 -16.032 164.34 Q -15.564 164.34 -15.186 164.514 Q -14.808 164.688 -14.436 165.012 L -14.4 165.012 L -14.316 164.472 L -13.548 164.472 L -13.548 172.8 Z M -15.972 169.488 L -15.972 169.488 Q -15.564 169.488 -15.216 169.29 Q -14.868 169.092 -14.508 168.72 L -14.508 165.732 Q -14.868 165.408 -15.198 165.276 Q -15.528 165.144 -15.84 165.144 Q -16.548 165.144 -17.028 165.732 Q -17.508 166.32 -17.508 167.388 Q -17.508 168.336 -17.106 168.912 Q -16.704 169.488 -15.972 169.488 Z " fill="blue" /><path d="M -11.652 170.16 L -11.652 170.16 L -11.652 164.472 L -10.86 164.472 L -10.776 165.288 L -10.74 165.288 Q -10.332 164.892 -9.888 164.616 Q -9.444 164.34 -8.82 164.34 Q -7.968 164.34 -7.542 164.904 Q -7.116 165.468 -7.116 166.56 L -7.116 170.16 L -8.088 170.16 L -8.088 166.68 Q -8.088 165.888 -8.334 165.534 Q -8.58 165.18 -9.132 165.18 Q -9.576 165.18 -9.924 165.396 Q -10.272 165.612 -10.692 166.044 L -10.692 170.16 Z " fill="blue" /></g></g></g></svg>