<svg xmlns="http://www.w3.org/2000/svg" xmlns:xlink="http://www.w3.org/1999/xlink" xml:lang="en" height="436.29800000000006pt" width="378.2634pt" viewBox="-121.66339999999998 -293.5780000000001 378.2634 436.29800000000006"><circle cx="99.05999999999999" cy="79.08" r="18.0" style="stroke:black;fill:none;stroke-width:2.0;stroke-dasharray:-;" /><path d="M 0.0,-0.0 L 13.2,-0.0" style="stroke:black;fill:none;stroke-width:2.0;stroke-dasharray:-;stroke-linecap:round;stroke-linejoin:round;" /><path d="M 13.2,-13.2 L 13.2,13.2" style="stroke:black;fill:none;stroke-width:2.0;stroke-dasharray:-;stroke-linecap:round;stroke-linejoin:round;" /><path d="M 13.2,-6.6 L 27.06,-18.48 L 27.06,-25.08" style="stroke:black;fill:none;stroke-width:2.0;stroke-dasharray:-;stroke-linecap:round;stroke-linejoin:round;" /><path d="M 13.2,6.6 L 27.06,18.48 L 27.06,25.08" style="stroke:black;fill:none;stroke-width:2.0;stroke-dasharray:-;stroke-linecap:round;stroke-linejoin:round;" /><path d="M 13.2,6.6 L 20.22669057871233,12.622877638896282" style="stroke:black;fill:none;stroke-width:2.0;stroke-dasharray:-;stroke-linecap:round;stroke-linejoin:round;" /><path d="M 25.541486795269407 17.178417253088064 L 17.88384163427084 15.356201407411351 L 22.569539523153814 9.889553870381217 Z" style="stroke:black;fill:black;stroke-linecap:butt;stroke-linejoin:miter;" /><path d="M 27.06,25.08 L 27.06,34.08 L 27.059999999999995,43.080000000000005" style="stroke:black;fill:none;stroke-width:2.0;stroke-dasharray:-;stroke-linecap:round;stroke-linejoin:round;" /><path d="M 27.059999999999995,43.080000000000005 L 63.059999999999995,43.080000000000005 L 99.05999999999999,43.080000000000005" style="stroke:black;fill:none;stroke-width:2.0;stroke-dasharray:-;stroke-linecap:round;stroke-linejoin:round;" /><path d="M 99.05999999999999,43.080000000000005 L 135.06,43.080000000000005 L 171.06,43.080000000000005" style="stroke:black;fill:none;stroke-width:2.0;stroke-dasharray:-;stroke-linecap:round;stroke-linejoin:round;" /><path d="M 171.06,43.080000000000005 L 171.06,34.080000000000005 L 171.06,25.080000000000005" style="stroke:black;fill:none;stroke-width:2.0;stroke-dasharray:-;stroke-linecap:round;stroke-linejoin:round;" /><path d="M 184.92000000000002,3.9968028886505635e-15 L 198.12,3.9968028886505635e-15" style="stroke:black;fill:none;stroke-width:2.0;stroke-dasharray:-;stroke-linecap:round;stroke-linejoin:round;" /><path d="M 184.92000000000002,13.200000000000003 L 184.92000000000002,-13.199999999999992" style="stroke:black;fill:none;stroke-width:2.0;stroke-dasharray:-;stroke-linecap:round;stroke-linejoin:round;" /><path d="M 171.06,-25.079999999999995 L 171.06,-18.479999999999997 L 184.92000000000002,-6.599999999999996" style="stroke:black;fill:none;stroke-width:2.0;stroke-dasharray:-;stroke-linecap:round;stroke-linejoin:round;" /><path d="M 171.06,25.080000000000005 L 171.06,18.480000000000004 L 184.92000000000002,6.600000000000005" style="stroke:black;fill:none;stroke-width:2.0;stroke-dasharray:-;stroke-linecap:round;stroke-linejoin:round;" /><path d="M 177.89330942128768,12.622877638896284 L 184.92000000000002,6.600000000000005" style="stroke:black;fill:none;stroke-width:2.0;stroke-dasharray:-;stroke-linecap:round;stroke-linejoin:round;" /><path d="M 172.5785132047306 17.178417253088067 L 175.55046047684618 9.889553870381217 L 180.23615836572915 15.356201407411353 Z" style="stroke:black;fill:black;stroke-linecap:butt;stroke-linejoin:miter;" /><path d="M 99.05999999999999,43.080000000000005 L 99.05999999999999,61.080000000000005 L 99.05999999999999,61.080000000000005 M 99.05999999999997,97.08 L 99.05999999999997,97.08 L 99.05999999999997,115.08" style="stroke:black;fill:none;stroke-width:2.0;stroke-dasharray:-;stroke-linecap:round;stroke-linejoin:round;" /><path d="M 99.05999999999999,70.08 L 99.05999999999997,79.08" style="stroke:black;fill:none;stroke-width:2.0;stroke-dasharray:-;stroke-linecap:round;stroke-linejoin:round;" /><path d="M 99.05999999999997 86.08 L 96.35999999999999 79.08 L 101.75999999999998 79.08 Z" style="stroke:black;fill:black;stroke-linecap:butt;stroke-linejoin:miter;" /><path d="M 99.05999999999997,115.08 L 99.05999999999997,129.48 L 90.05999999999997,129.48 L 108.05999999999997,129.48 M 92.75999999999999,133.8 L 105.35999999999997,133.8 M 97.25999999999999,138.12 L 100.85999999999997,138.12" style="stroke:black;fill:none;stroke-width:2.0;stroke-dasharray:-;stroke-linecap:round;stroke-linejoin:round;" /><path d="M 0.0,-0.0 L -9.0,-1.102182119232618e-15 L -18.0,-2.204364238465236e-15" style="stroke:black;fill:none;stroke-width:2.0;stroke-dasharray:-;stroke-linecap:round;stroke-linejoin:round;" /><path d="M 198.12,3.9968028886505635e-15 L 207.12,3.9968028886505635e-15 L 216.12,3.9968028886505635e-15" style="stroke:black;fill:none;stroke-width:2.0;stroke-dasharray:-;stroke-linecap:round;stroke-linejoin:round;" /><path d="M 27.06,-25.08 L 27.06,-43.080000000000005 L 27.060000000000002,-61.080000000000005" style="stroke:black;fill:none;stroke-width:2.0;stroke-dasharray:-;stroke-linecap:round;stroke-linejoin:round;" /><path d="M 27.060000000000002,-61.080000000000005 L 45.06,-61.080000000000005 L 63.06,-61.080000000000005" style="stroke:black;fill:none;stroke-width:2.0;stroke-dasharray:-;stroke-linecap:round;stroke-linejoin:round;" /><path d="M 63.06,-61.080000000000005 L 63.06,-70.08 L 63.06,-79.08" style="stroke:black;fill:none;stroke-width:2.0;stroke-dasharray:-;stroke-linecap:round;stroke-linejoin:round;" /><path d="M 76.92,-104.16000000000001 L 90.12,-104.16000000000001" style="stroke:black;fill:none;stroke-width:2.0;stroke-dasharray:-;stroke-linecap:round;stroke-linejoin:round;" /><path d="M 76.92,-90.96000000000001 L 76.92,-117.35999999999999" style="stroke:black;fill:none;stroke-width:2.0;stroke-dasharray:-;stroke-linecap:round;stroke-linejoin:round;" /><path d="M 63.06,-129.24 L 63.06,-122.64 L 76.92,-110.76" style="stroke:black;fill:none;stroke-width:2.0;stroke-dasharray:-;stroke-linecap:round;stroke-linejoin:round;" /><path d="M 63.06,-79.08 L 63.06,-85.67999999999999 L 76.92,-97.56" style="stroke:black;fill:none;stroke-width:2.0;stroke-dasharray:-;stroke-linecap:round;stroke-linejoin:round;" /><path d="M 69.89330942128767,-91.53712236110371 L 76.92,-97.56" style="stroke:black;fill:none;stroke-width:2.0;stroke-dasharray:-;stroke-linecap:round;stroke-linejoin:round;" /><path d="M 64.5785132047306 -86.98158274691193 L 67.55046047684618 -94.27044612961878 L 72.23615836572917 -88.80379859258863 Z" style="stroke:black;fill:black;stroke-linecap:butt;stroke-linejoin:miter;" /><path d="M 27.060000000000002,-61.080000000000005 L 9.060000000000002,-61.080000000000005 L -8.939999999999998,-61.08000000000001" style="stroke:black;fill:none;stroke-width:2.0;stroke-dasharray:-;stroke-linecap:round;stroke-linejoin:round;" /><path d="M -8.939999999999998,-61.08000000000001 L -8.939999999999998,-70.08000000000001 L -8.939999999999998,-79.08000000000001" style="stroke:black;fill:none;stroke-width:2.0;stroke-dasharray:-;stroke-linecap:round;stroke-linejoin:round;" /><path d="M -35.99999999999999,-104.16000000000003 L -22.799999999999994,-104.16000000000003" style="stroke:black;fill:none;stroke-width:2.0;stroke-dasharray:-;stroke-linecap:round;stroke-linejoin:round;" /><path d="M -22.799999999999994,-117.36000000000003 L -22.799999999999994,-90.96000000000002" style="stroke:black;fill:none;stroke-width:2.0;stroke-dasharray:-;stroke-linecap:round;stroke-linejoin:round;" /><path d="M -22.799999999999994,-110.76000000000002 L -8.939999999999998,-122.64000000000001 L -8.939999999999998,-129.24000000000004" style="stroke:black;fill:none;stroke-width:2.0;stroke-dasharray:-;stroke-linecap:round;stroke-linejoin:round;" /><path d="M -22.799999999999994,-97.56000000000002 L -8.939999999999998,-85.68000000000004 L -8.939999999999998,-79.08000000000001" style="stroke:black;fill:none;stroke-width:2.0;stroke-dasharray:-;stroke-linecap:round;stroke-linejoin:round;" /><path d="M -22.799999999999994,-97.56000000000002 L -15.77330942128767,-91.53712236110374" style="stroke:black;fill:none;stroke-width:2.0;stroke-dasharray:-;stroke-linecap:round;stroke-linejoin:round;" /><path d="M -10.458513204730592 -86.98158274691197 L -18.116158365729156 -88.80379859258868 L -13.430460476846186 -94.27044612961882 Z" style="stroke:black;fill:black;stroke-linecap:butt;stroke-linejoin:miter;" /><path d="M 171.06,-25.079999999999995 L 171.06,-43.08 L 171.06,-61.08" style="stroke:black;fill:none;stroke-width:2.0;stroke-dasharray:-;stroke-linecap:round;stroke-linejoin:round;" /><path d="M 171.06,-61.08 L 189.06,-61.08 L 207.06,-61.08" style="stroke:black;fill:none;stroke-width:2.0;stroke-dasharray:-;stroke-linecap:round;stroke-linejoin:round;" /><path d="M 207.06,-61.08 L 207.06,-70.08 L 207.06,-79.07999999999998" style="stroke:black;fill:none;stroke-width:2.0;stroke-dasharray:-;stroke-linecap:round;stroke-linejoin:round;" /><path d="M 220.92000000000002,-104.16 L 234.12,-104.16" style="stroke:black;fill:none;stroke-width:2.0;stroke-dasharray:-;stroke-linecap:round;stroke-linejoin:round;" /><path d="M 220.92000000000002,-90.96 L 220.92000000000002,-117.35999999999999" style="stroke:black;fill:none;stroke-width:2.0;stroke-dasharray:-;stroke-linecap:round;stroke-linejoin:round;" /><path d="M 207.06,-129.24 L 207.06,-122.63999999999999 L 220.92000000000002,-110.75999999999999" style="stroke:black;fill:none;stroke-width:2.0;stroke-dasharray:-;stroke-linecap:round;stroke-linejoin:round;" /><path d="M 207.06,-79.07999999999998 L 207.06,-85.67999999999999 L 220.92000000000002,-97.55999999999999" style="stroke:black;fill:none;stroke-width:2.0;stroke-dasharray:-;stroke-linecap:round;stroke-linejoin:round;" /><path d="M 213.89330942128768,-91.53712236110371 L 220.92000000000002,-97.55999999999999" style="stroke:black;fill:none;stroke-width:2.0;stroke-dasharray:-;stroke-linecap:round;stroke-linejoin:round;" /><path d="M 208.5785132047306 -86.98158274691193 L 211.55046047684618 -94.27044612961878 L 216.23615836572915 -88.80379859258863 Z" style="stroke:black;fill:black;stroke-linecap:butt;stroke-linejoin:miter;" /><path d="M 171.06,-61.08 L 153.06,-61.08 L 135.06,-61.080000000000005" style="stroke:black;fill:none;stroke-width:2.0;stroke-dasharray:-;stroke-linecap:round;stroke-linejoin:round;" /><path d="M 135.06,-61.080000000000005 L 135.06,-70.08 L 135.06,-79.08" style="stroke:black;fill:none;stroke-width:2.0;stroke-dasharray:-;stroke-linecap:round;stroke-linejoin:round;" /><path d="M 108.00000000000001,-104.16000000000001 L 121.20000000000002,-104.16000000000001" style="stroke:black;fill:none;stroke-width:2.0;stroke-dasharray:-;stroke-linecap:round;stroke-linejoin:round;" /><path d="M 121.20000000000002,-117.35999999999999 L 121.20000000000002,-90.96000000000001" style="stroke:black;fill:none;stroke-width:2.0;stroke-dasharray:-;stroke-linecap:round;stroke-linejoin:round;" /><path d="M 121.20000000000002,-110.76 L 135.06,-122.64 L 135.06,-129.24" style="stroke:black;fill:none;stroke-width:2.0;stroke-dasharray:-;stroke-linecap:round;stroke-linejoin:round;" /><path d="M 121.20000000000002,-97.56 L 135.06,-85.67999999999999 L 135.06,-79.08" style="stroke:black;fill:none;stroke-width:2.0;stroke-dasharray:-;stroke-linecap:round;stroke-linejoin:round;" /><path d="M 121.20000000000002,-97.56 L 128.22669057871235,-91.53712236110371" style="stroke:black;fill:none;stroke-width:2.0;stroke-dasharray:-;stroke-linecap:round;stroke-linejoin:round;" /><path d="M 133.5414867952694 -86.98158274691193 L 125.88384163427085 -88.80379859258863 L 130.56953952315382 -94.27044612961878 Z" style="stroke:black;fill:black;stroke-linecap:butt;stroke-linejoin:miter;" /><path d="M -8.939999999999998,-129.24000000000004 L -8.939999999999996,-138.24000000000004 L -8.939999999999996,-147.24000000000004" style="stroke:black;fill:none;stroke-width:2.0;stroke-dasharray:-;stroke-linecap:round;stroke-linejoin:round;" /><path d="M -8.939999999999996,-147.24000000000004 L 63.06,-147.24000000000004 L 135.06,-147.24000000000004" style="stroke:black;fill:none;stroke-width:2.0;stroke-dasharray:-;stroke-linecap:round;stroke-linejoin:round;" /><path d="M 135.06,-147.24000000000004 L 135.06,-138.24 L 135.06,-129.24" style="stroke:black;fill:none;stroke-width:2.0;stroke-dasharray:-;stroke-linecap:round;stroke-linejoin:round;" /><path d="M -8.939999999999996,-147.24000000000004 L -8.939999999999996,-165.24000000000004 L -8.939999999999994,-183.24000000000004" style="stroke:black;fill:none;stroke-width:2.0;stroke-dasharray:-;stroke-linecap:round;stroke-linejoin:round;" /><path d="M -8.939999999999994,-183.24000000000004 L 9.060000000000006,-183.24000000000004 L 27.060000000000006,-183.24000000000004" style="stroke:black;fill:none;stroke-width:2.0;stroke-dasharray:-;stroke-linecap:round;stroke-linejoin:round;" /><path d="M -8.939999999999994,-183.24000000000004 L -8.939999999999994,-192.24000000000004 L -8.939999999999994,-201.24000000000004" style="stroke:black;fill:none;stroke-width:2.0;stroke-dasharray:-;stroke-linecap:round;stroke-linejoin:round;" /><path d="M -8.939999999999994,-201.24000000000004 L -8.939999999999992,-219.24000000000004 L -17.939999999999994,-219.24000000000004 L -17.93999999999999,-255.24000000000004 L 0.06000000000001038,-255.24000000000004 L 0.06000000000000838,-219.24000000000004 L -8.939999999999992,-219.24000000000004 M -8.93999999999999,-255.24000000000004 L -8.939999999999989,-273.24" style="stroke:black;fill:none;stroke-width:2.0;stroke-dasharray:-;stroke-linecap:round;stroke-linejoin:round;" /><path d="M 207.06,-129.24 L 207.06,-147.24 L 207.06,-165.24" style="stroke:black;fill:none;stroke-width:2.0;stroke-dasharray:-;stroke-linecap:round;stroke-linejoin:round;" /><path d="M 207.06,-165.24 L 135.06,-165.24 L 63.06000000000001,-165.24000000000004" style="stroke:black;fill:none;stroke-width:2.0;stroke-dasharray:-;stroke-linecap:round;stroke-linejoin:round;" /><path d="M 63.06000000000001,-165.24000000000004 L 63.06000000000001,-147.24 L 63.06,-129.24" style="stroke:black;fill:none;stroke-width:2.0;stroke-dasharray:-;stroke-linecap:round;stroke-linejoin:round;" /><path d="M 207.06,-165.24 L 207.06,-174.24 L 207.06,-183.24" style="stroke:black;fill:none;stroke-width:2.0;stroke-dasharray:-;stroke-linecap:round;stroke-linejoin:round;" /><path d="M 207.06,-183.24 L 189.06,-183.24 L 171.06,-183.24" style="stroke:black;fill:none;stroke-width:2.0;stroke-dasharray:-;stroke-linecap:round;stroke-linejoin:round;" /><path d="M 207.06,-183.24 L 207.06,-192.24 L 207.06,-201.24" style="stroke:black;fill:none;stroke-width:2.0;stroke-dasharray:-;stroke-linecap:round;stroke-linejoin:round;" /><path d="M 207.06,-201.24 L 207.06,-219.24 L 198.06,-219.24 L 198.06,-255.24 L 216.06,-255.24 L 216.06,-219.24 L 207.06,-219.24 M 207.06,-255.24 L 207.06,-273.24" style="stroke:black;fill:none;stroke-width:2.0;stroke-dasharray:-;stroke-linecap:round;stroke-linejoin:round;" /><path d="M 90.12,-104.16000000000001 L 94.59,-104.16000000000001 L 99.05999999999999,-104.16000000000001" style="stroke:black;fill:none;stroke-width:2.0;stroke-dasharray:-;stroke-linecap:round;stroke-linejoin:round;" /><path d="M 99.05999999999999,-104.16000000000001 L 103.53,-104.16000000000001 L 108.00000000000001,-104.16000000000001" style="stroke:black;fill:none;stroke-width:2.0;stroke-dasharray:-;stroke-linecap:round;stroke-linejoin:round;" /><path d="M 99.05999999999999,-104.16000000000001 L 99.05999999999999,-95.16000000000001 L 99.05999999999999,-86.16000000000001" style="stroke:black;fill:none;stroke-width:2.0;stroke-dasharray:-;stroke-linecap:round;stroke-linejoin:round;" /><path d="M -35.99999999999999,-104.16000000000003 L -45.0,-104.16000000000003 L -54.0,-104.16000000000003" style="stroke:black;fill:none;stroke-width:2.0;stroke-dasharray:-;stroke-linecap:round;stroke-linejoin:round;" /><path d="M -54.0,-104.16000000000003 L -72.0,-104.16000000000003 L -90.0,-104.16000000000003" style="stroke:black;fill:none;stroke-width:2.0;stroke-dasharray:-;stroke-linecap:round;stroke-linejoin:round;" /><path d="M -54.0,-104.16000000000003 L -54.00000000000001,-68.16000000000003 L -54.000000000000014,-32.160000000000025" style="stroke:black;fill:none;stroke-width:2.0;stroke-dasharray:-;stroke-linecap:round;stroke-linejoin:round;" /><path d="M -54.000000000000014,-32.160000000000025 L 98.99999999999999,-32.160000000000025 L 252.0,-32.160000000000025" style="stroke:black;fill:none;stroke-width:2.0;stroke-dasharray:-;stroke-linecap:round;stroke-linejoin:round;" /><path d="M 252.0,-32.160000000000025 L 252.0,-68.16000000000003 L 252.0,-104.16000000000003" style="stroke:black;fill:none;stroke-width:2.0;stroke-dasharray:-;stroke-linecap:round;stroke-linejoin:round;" /><path d="M 252.0,-104.16000000000003 L 243.06,-104.16000000000003 L 234.12,-104.16000000000003" style="stroke:black;fill:none;stroke-width:2.0;stroke-dasharray:-;stroke-linecap:round;stroke-linejoin:round;" /><path d="M -26.93999999999999,-273.24 L 99.06,-273.24 L 225.06,-273.24" style="stroke:black;fill:none;stroke-width:3;stroke-dasharray:-;stroke-linecap:round;stroke-linejoin:round;" /><circle cx="99.05999999999999" cy="43.080000000000005" r="2.6999999999999997" style="stroke:black;fill:black;stroke-width:2.0;stroke-dasharray:-;" /><circle cx="-18.0" cy="-2.204364238465236e-15" r="2.6999999999999997" style="stroke:black;fill:white;stroke-width:2.0;stroke-dasharray:-;" /><g><g><g><path d="M -45.261 -5.913 L -45.261 -5.913 L -44.953 -5.913 L -45.611 -3.225 Q -45.709 -2.861 -45.814 -2.35 Q -45.919 -1.839 -45.919 -1.363 Q -45.919 -0.817 -45.695 -0.418 Q -45.471 -0.019 -44.827 -0.019 Q -44.113 -0.019 -43.595 -0.362 Q -43.077 -0.705 -42.748 -1.237 Q -42.419 -1.769 -42.258 -2.357 Q -42.097 -2.945 -42.097 -3.435 Q -42.097 -3.799 -42.223 -4.065 Q -42.349 -4.331 -42.524 -4.541 Q -42.699 -4.751 -42.825 -4.947 Q -42.951 -5.143 -42.951 -5.367 Q -42.951 -5.647 -42.797 -5.801 Q -42.643 -5.955 -42.419 -5.955 Q -41.943 -5.955 -41.649 -5.479 Q -41.355 -5.003 -41.355 -4.261 Q -41.355 -3.617 -41.516 -2.91 Q -41.677 -2.203 -41.999 -1.531 Q -42.321 -0.859 -42.797 -0.313 Q -43.273 0.233 -43.889 0.555 Q -44.505 0.877 -45.261 0.877 Q -45.961 0.877 -46.353 0.597 Q -46.745 0.317 -46.906 -0.145 Q -47.067 -0.607 -47.067 -1.139 Q -47.067 -1.643 -46.969 -2.175 Q -46.871 -2.707 -46.759 -3.141 L -46.479 -4.205 Q -46.451 -4.317 -46.395 -4.541 Q -46.339 -4.765 -46.339 -4.975 Q -46.339 -5.157 -46.409 -5.283 Q -46.479 -5.409 -46.675 -5.409 Q -46.843 -5.409 -47.081 -5.388 Q -47.319 -5.367 -47.319 -5.367 L -47.319 -5.759 Z " fill="black" /><path d="M -38.405 -1.425 L -38.405 -1.425 L -38.405 -0.366 L -38.346 -0.366 Q -37.954 -0.915 -37.645 -1.204 Q -37.337 -1.493 -36.974 -1.493 Q -36.347 -1.493 -36.347 -0.876 Q -36.347 -0.533 -36.499 -0.396 Q -36.651 -0.258 -36.827 -0.258 Q -37.004 -0.258 -37.146 -0.356 Q -37.288 -0.454 -37.386 -0.552 Q -37.484 -0.65 -37.533 -0.65 Q -37.69 -0.65 -37.939 -0.386 Q -38.189 -0.121 -38.385 0.212 L -38.385 2.564 Q -38.385 3.044 -38.175 3.186 Q -37.964 3.328 -37.425 3.328 L -37.425 3.691 L -40.091 3.691 L -40.091 3.328 Q -39.757 3.328 -39.601 3.27 Q -39.444 3.211 -39.395 3.059 Q -39.346 2.907 -39.346 2.633 L -39.346 -0.209 Q -39.346 -0.523 -39.4 -0.68 Q -39.454 -0.837 -39.757 -0.837 Q -39.895 -0.837 -39.993 -0.827 Q -40.091 -0.817 -40.091 -0.817 L -40.091 -1.18 L -38.768 -1.425 Z " fill="black" /><path d="M -35.69 -1.327 L -35.69 -1.327 L -34.906 -1.327 Q -34.906 -1.846 -34.833 -2.209 Q -34.759 -2.571 -34.573 -2.934 Q -34.348 -3.287 -34.029 -3.507 Q -33.711 -3.728 -33.123 -3.728 Q -32.623 -3.728 -32.27 -3.536 Q -31.917 -3.345 -31.917 -2.973 Q -31.917 -2.738 -32.05 -2.615 Q -32.182 -2.493 -32.358 -2.493 Q -32.574 -2.493 -32.697 -2.615 Q -32.819 -2.738 -33.015 -2.944 Q -33.152 -3.14 -33.26 -3.213 Q -33.368 -3.287 -33.515 -3.287 Q -33.789 -3.287 -33.877 -3.022 Q -33.966 -2.757 -33.966 -2.111 L -33.966 -1.327 L -32.692 -1.327 L -32.692 -0.846 L -33.966 -0.846 L -33.966 2.388 Q -33.966 2.789 -33.877 2.99 Q -33.789 3.191 -33.554 3.26 Q -33.319 3.328 -32.888 3.328 L -32.888 3.691 L -35.779 3.691 L -35.779 3.328 Q -35.406 3.328 -35.22 3.26 Q -35.034 3.191 -34.97 2.99 Q -34.906 2.789 -34.906 2.388 L -34.906 -0.846 L -35.69 -0.846 Z " fill="black" /><path d="M -31.084 5.161 L -31.084 5.161 L -31.251 4.838 Q -31.045 4.749 -30.83 4.607 Q -30.614 4.465 -30.472 4.206 Q -30.33 3.946 -30.33 3.524 Q -30.496 3.593 -30.673 3.593 Q -30.996 3.593 -31.133 3.402 Q -31.271 3.211 -31.271 2.966 Q -31.271 2.701 -31.094 2.505 Q -30.918 2.309 -30.585 2.309 Q -30.163 2.309 -29.943 2.569 Q -29.722 2.829 -29.722 3.289 Q -29.722 3.76 -29.869 4.088 Q -30.016 4.416 -30.237 4.627 Q -30.457 4.838 -30.688 4.96 Q -30.918 5.083 -31.084 5.161 Z " fill="black" /><path d="M -27.664 -1.425 L -27.664 -1.425 L -27.664 -0.582 L -27.615 -0.582 Q -27.233 -1.023 -26.851 -1.238 Q -26.469 -1.454 -26.008 -1.454 Q -25.489 -1.454 -25.067 -1.145 Q -24.646 -0.837 -24.396 -0.293 Q -24.146 0.251 -24.146 0.957 Q -24.146 1.878 -24.474 2.515 Q -24.803 3.152 -25.347 3.48 Q -25.89 3.809 -26.527 3.809 Q -26.831 3.809 -27.101 3.73 Q -27.37 3.652 -27.596 3.524 L -27.645 3.524 L -27.645 4.779 Q -27.645 5.122 -27.556 5.303 Q -27.468 5.484 -27.243 5.548 Q -27.017 5.612 -26.596 5.612 L -26.596 5.955 L -29.369 5.955 L -29.369 5.622 Q -29.026 5.612 -28.865 5.548 Q -28.703 5.484 -28.649 5.318 Q -28.595 5.151 -28.595 4.847 L -28.595 -0.307 Q -28.595 -0.592 -28.654 -0.714 Q -28.713 -0.837 -28.997 -0.837 Q -29.085 -0.837 -29.222 -0.827 Q -29.36 -0.817 -29.36 -0.817 L -29.36 -1.209 L -28.037 -1.425 Z M -27.645 -0.082 L -27.645 -0.082 L -27.645 2.682 Q -27.537 2.789 -27.375 2.951 Q -27.213 3.113 -26.988 3.235 Q -26.763 3.358 -26.498 3.358 Q -26.135 3.358 -25.837 3.137 Q -25.538 2.917 -25.351 2.446 Q -25.165 1.976 -25.165 1.251 Q -25.165 0.33 -25.498 -0.18 Q -25.832 -0.69 -26.439 -0.69 Q -26.831 -0.69 -27.155 -0.484 Q -27.478 -0.278 -27.645 -0.082 Z " fill="black" /></g></g></g><circle cx="216.12" cy="3.9968028886505635e-15" r="2.6999999999999997" style="stroke:black;fill:white;stroke-width:2.0;stroke-dasharray:-;" /><g><g><g><path d="M 225.22 -5.516 L 225.22 -5.516 L 225.528 -5.516 L 224.87 -2.828 Q 224.772 -2.464 224.667 -1.953 Q 224.562 -1.442 224.562 -0.966 Q 224.562 -0.42 224.786 -0.021 Q 225.01 0.378 225.654 0.378 Q 226.368 0.378 226.886 0.035 Q 227.404 -0.308 227.733 -0.84 Q 228.062 -1.372 228.223 -1.96 Q 228.384 -2.548 228.384 -3.038 Q 228.384 -3.402 228.258 -3.668 Q 228.132 -3.934 227.957 -4.144 Q 227.782 -4.354 227.656 -4.55 Q 227.53 -4.746 227.53 -4.97 Q 227.53 -5.25 227.684 -5.404 Q 227.838 -5.558 228.062 -5.558 Q 228.538 -5.558 228.832 -5.082 Q 229.126 -4.606 229.126 -3.864 Q 229.126 -3.22 228.965 -2.513 Q 228.804 -1.806 228.482 -1.134 Q 228.16 -0.462 227.684 0.084 Q 227.208 0.63 226.592 0.952 Q 225.976 1.274 225.22 1.274 Q 224.52 1.274 224.128 0.994 Q 223.736 0.714 223.575 0.252 Q 223.414 -0.21 223.414 -0.742 Q 223.414 -1.246 223.512 -1.778 Q 223.61 -2.31 223.722 -2.744 L 224.002 -3.808 Q 224.03 -3.92 224.086 -4.144 Q 224.142 -4.368 224.142 -4.578 Q 224.142 -4.76 224.072 -4.886 Q 224.002 -5.012 223.806 -5.012 Q 223.638 -5.012 223.4 -4.991 Q 223.162 -4.97 223.162 -4.97 L 223.162 -5.362 Z " fill="black" /><path d="M 232.076 -1.028 L 232.076 -1.028 L 232.076 0.031 L 232.135 0.031 Q 232.527 -0.518 232.835 -0.807 Q 233.144 -1.096 233.507 -1.096 Q 234.134 -1.096 234.134 -0.479 Q 234.134 -0.136 233.982 0.001 Q 233.83 0.139 233.654 0.139 Q 233.477 0.139 233.335 0.041 Q 233.193 -0.057 233.095 -0.155 Q 232.997 -0.253 232.948 -0.253 Q 232.791 -0.253 232.541 0.011 Q 232.291 0.276 232.095 0.609 L 232.095 2.961 Q 232.095 3.441 232.306 3.583 Q 232.517 3.725 233.056 3.725 L 233.056 4.088 L 230.39 4.088 L 230.39 3.725 Q 230.723 3.725 230.88 3.667 Q 231.037 3.608 231.086 3.456 Q 231.135 3.304 231.135 3.03 L 231.135 0.188 Q 231.135 -0.126 231.081 -0.283 Q 231.027 -0.44 230.723 -0.44 Q 230.586 -0.44 230.488 -0.43 Q 230.39 -0.42 230.39 -0.42 L 230.39 -0.783 L 231.713 -1.028 Z " fill="black" /><path d="M 234.79 -0.93 L 234.79 -0.93 L 235.574 -0.93 Q 235.574 -1.449 235.648 -1.812 Q 235.721 -2.174 235.908 -2.537 Q 236.133 -2.89 236.452 -3.11 Q 236.77 -3.331 237.358 -3.331 Q 237.858 -3.331 238.211 -3.139 Q 238.563 -2.948 238.563 -2.576 Q 238.563 -2.341 238.431 -2.218 Q 238.299 -2.096 238.122 -2.096 Q 237.907 -2.096 237.784 -2.218 Q 237.662 -2.341 237.466 -2.547 Q 237.329 -2.743 237.221 -2.816 Q 237.113 -2.89 236.966 -2.89 Q 236.692 -2.89 236.603 -2.625 Q 236.515 -2.36 236.515 -1.714 L 236.515 -0.93 L 237.789 -0.93 L 237.789 -0.449 L 236.515 -0.449 L 236.515 2.785 Q 236.515 3.186 236.603 3.387 Q 236.692 3.588 236.927 3.657 Q 237.162 3.725 237.593 3.725 L 237.593 4.088 L 234.702 4.088 L 234.702 3.725 Q 235.075 3.725 235.261 3.657 Q 235.447 3.588 235.511 3.387 Q 235.574 3.186 235.574 2.785 L 235.574 -0.449 L 234.79 -0.449 Z " fill="black" /><path d="M 239.396 5.558 L 239.396 5.558 L 239.23 5.235 Q 239.436 5.146 239.651 5.004 Q 239.867 4.862 240.009 4.603 Q 240.151 4.343 240.151 3.921 Q 239.984 3.99 239.808 3.99 Q 239.485 3.99 239.347 3.799 Q 239.21 3.608 239.21 3.363 Q 239.21 3.098 239.387 2.902 Q 239.563 2.706 239.896 2.706 Q 240.318 2.706 240.538 2.966 Q 240.759 3.226 240.759 3.686 Q 240.759 4.157 240.612 4.485 Q 240.465 4.813 240.244 5.024 Q 240.024 5.235 239.793 5.357 Q 239.563 5.48 239.396 5.558 Z " fill="black" /><path d="M 246.188 0.805 L 246.188 0.805 L 246.188 3 Q 246.188 3.275 246.237 3.436 Q 246.286 3.598 246.452 3.667 Q 246.619 3.735 246.972 3.735 L 246.972 4.088 L 244.453 4.088 L 244.453 3.735 Q 244.826 3.735 244.992 3.667 Q 245.159 3.598 245.198 3.436 Q 245.237 3.275 245.237 3 L 245.237 1.128 Q 245.237 0.472 245.085 0.163 Q 244.933 -0.146 244.703 -0.244 Q 244.473 -0.342 244.238 -0.342 Q 243.816 -0.342 243.498 -0.126 Q 243.179 0.09 242.944 0.286 L 242.944 3 Q 242.944 3.275 242.988 3.436 Q 243.032 3.598 243.199 3.667 Q 243.365 3.735 243.728 3.735 L 243.728 4.088 L 241.258 4.088 L 241.258 3.735 Q 241.601 3.735 241.753 3.667 Q 241.905 3.598 241.944 3.436 Q 241.984 3.275 241.984 3 L 241.984 0.021 Q 241.984 -0.253 241.881 -0.346 Q 241.778 -0.44 241.552 -0.44 Q 241.435 -0.44 241.356 -0.43 Q 241.278 -0.42 241.278 -0.42 L 241.278 -0.792 L 242.591 -1.028 L 242.915 -1.028 L 242.915 -0.224 L 242.983 -0.224 Q 243.405 -0.606 243.792 -0.832 Q 244.179 -1.057 244.669 -1.057 Q 245.247 -1.057 245.575 -0.797 Q 245.904 -0.538 246.046 -0.116 Q 246.188 0.305 246.188 0.805 Z " fill="black" /></g></g></g><circle cx="27.060000000000002" cy="-61.080000000000005" r="2.6999999999999997" style="stroke:black;fill:black;stroke-width:2.0;stroke-dasharray:-;" /><circle cx="171.06" cy="-61.08" r="2.6999999999999997" style="stroke:black;fill:black;stroke-width:2.0;stroke-dasharray:-;" /><circle cx="-8.939999999999996" cy="-147.24000000000004" r="2.6999999999999997" style="stroke:black;fill:black;stroke-width:2.0;stroke-dasharray:-;" /><circle cx="-8.939999999999994" cy="-183.24000000000004" r="2.6999999999999997" style="stroke:black;fill:black;stroke-width:2.0;stroke-dasharray:-;" /><circle cx="27.060000000000006" cy="-183.24000000000004" r="2.6999999999999997" style="stroke:black;fill:white;stroke-width:2.0;stroke-dasharray:-;" /><g><g><g><path d="M 36.16 -189.153 L 36.16 -189.153 L 36.468 -189.153 L 35.81 -186.465 Q 35.712 -186.101 35.607 -185.59 Q 35.502 -185.079 35.502 -184.603 Q 35.502 -184.057 35.726 -183.658 Q 35.95 -183.259 36.594 -183.259 Q 37.308 -183.259 37.826 -183.602 Q 38.344 -183.945 38.673 -184.477 Q 39.002 -185.009 39.163 -185.597 Q 39.324 -186.185 39.324 -186.675 Q 39.324 -187.039 39.198 -187.305 Q 39.072 -187.571 38.897 -187.781 Q 38.722 -187.991 38.596 -188.187 Q 38.47 -188.383 38.47 -188.607 Q 38.47 -188.887 38.624 -189.041 Q 38.778 -189.195 39.002 -189.195 Q 39.478 -189.195 39.772 -188.719 Q 40.066 -188.243 40.066 -187.501 Q 40.066 -186.857 39.905 -186.15 Q 39.744 -185.443 39.422 -184.771 Q 39.1 -184.099 38.624 -183.553 Q 38.148 -183.007 37.532 -182.685 Q 36.916 -182.363 36.16 -182.363 Q 35.46 -182.363 35.068 -182.643 Q 34.676 -182.923 34.515 -183.385 Q 34.354 -183.847 34.354 -184.379 Q 34.354 -184.883 34.452 -185.415 Q 34.55 -185.947 34.662 -186.381 L 34.942 -187.445 Q 34.97 -187.557 35.026 -187.781 Q 35.082 -188.005 35.082 -188.215 Q 35.082 -188.397 35.012 -188.523 Q 34.942 -188.649 34.746 -188.649 Q 34.578 -188.649 34.34 -188.628 Q 34.102 -188.607 34.102 -188.607 L 34.102 -188.999 Z " fill="black" /><path d="M 43.094 -184.694 L 43.094 -184.694 Q 43.829 -184.694 44.378 -184.375 Q 44.927 -184.057 45.226 -183.484 Q 45.525 -182.91 45.525 -182.136 Q 45.525 -181.205 45.211 -180.607 Q 44.897 -180.01 44.349 -179.72 Q 43.8 -179.431 43.094 -179.431 Q 42.379 -179.431 41.825 -179.73 Q 41.271 -180.029 40.963 -180.627 Q 40.654 -181.225 40.654 -182.126 Q 40.654 -182.891 40.958 -183.469 Q 41.262 -184.047 41.81 -184.371 Q 42.359 -184.694 43.094 -184.694 Z M 43.075 -184.243 L 43.075 -184.243 Q 42.428 -184.243 42.06 -183.719 Q 41.693 -183.195 41.693 -182.185 Q 41.693 -180.941 42.07 -180.426 Q 42.447 -179.912 43.124 -179.912 Q 43.555 -179.921 43.859 -180.127 Q 44.162 -180.333 44.324 -180.818 Q 44.486 -181.303 44.486 -182.136 Q 44.486 -183.136 44.143 -183.689 Q 43.8 -184.243 43.075 -184.243 Z " fill="black" /><path d="M 52.189 -180.049 L 52.189 -180.049 L 52.189 -179.676 L 50.866 -179.5 L 50.552 -179.5 L 50.552 -180.264 L 50.454 -180.264 Q 50.082 -179.931 49.699 -179.691 Q 49.317 -179.451 48.778 -179.451 Q 48.053 -179.451 47.671 -179.892 Q 47.289 -180.333 47.289 -181.421 L 47.289 -183.528 Q 47.289 -183.93 47.147 -184.023 Q 47.004 -184.116 46.554 -184.116 L 46.554 -184.469 L 47.916 -184.655 L 48.239 -184.655 L 48.239 -181.548 Q 48.239 -180.999 48.367 -180.696 Q 48.494 -180.392 48.71 -180.274 Q 48.925 -180.157 49.18 -180.157 Q 49.611 -180.157 49.9 -180.338 Q 50.189 -180.519 50.503 -180.774 L 50.503 -183.528 Q 50.503 -183.93 50.327 -184.023 Q 50.15 -184.116 49.65 -184.116 L 49.65 -184.469 L 51.111 -184.655 L 51.454 -184.655 L 51.454 -180.686 Q 51.454 -180.392 51.508 -180.255 Q 51.561 -180.117 51.699 -180.083 Q 51.836 -180.049 52.081 -180.049 Z " fill="black" /><path d="M 56.011 -180.529 L 56.011 -180.529 L 56.236 -180.343 Q 56.02 -180.049 55.844 -179.848 Q 55.668 -179.647 55.442 -179.539 Q 55.217 -179.431 54.864 -179.431 Q 54.296 -179.431 54.036 -179.755 Q 53.776 -180.078 53.776 -180.794 L 53.776 -184.086 L 53.159 -184.086 L 53.159 -184.38 Q 53.512 -184.635 53.806 -185.003 Q 54.1 -185.37 54.394 -186.056 L 54.737 -186.056 L 54.727 -184.567 L 55.971 -184.567 L 55.971 -184.086 L 54.727 -184.086 L 54.727 -181.117 Q 54.727 -180.568 54.83 -180.338 Q 54.933 -180.108 55.246 -180.108 Q 55.53 -180.108 55.677 -180.21 Q 55.824 -180.313 56.011 -180.529 Z " fill="black" /><path d="M 57.324 -178.079 L 57.324 -178.079 L 57.157 -178.402 Q 57.363 -178.491 57.579 -178.633 Q 57.794 -178.775 57.936 -179.034 Q 58.078 -179.294 58.078 -179.716 Q 57.912 -179.647 57.735 -179.647 Q 57.412 -179.647 57.275 -179.838 Q 57.138 -180.029 57.138 -180.274 Q 57.138 -180.539 57.314 -180.735 Q 57.49 -180.931 57.824 -180.931 Q 58.245 -180.931 58.465 -180.671 Q 58.686 -180.411 58.686 -179.951 Q 58.686 -179.48 58.539 -179.152 Q 58.392 -178.824 58.172 -178.613 Q 57.951 -178.402 57.721 -178.28 Q 57.49 -178.157 57.324 -178.079 Z " fill="black" /><path d="M 60.744 -184.665 L 60.744 -184.665 L 60.744 -183.822 L 60.793 -183.822 Q 61.175 -184.263 61.557 -184.478 Q 61.94 -184.694 62.4 -184.694 Q 62.92 -184.694 63.341 -184.385 Q 63.762 -184.077 64.012 -183.533 Q 64.262 -182.989 64.262 -182.283 Q 64.262 -181.362 63.934 -180.725 Q 63.606 -180.088 63.062 -179.76 Q 62.518 -179.431 61.881 -179.431 Q 61.577 -179.431 61.307 -179.51 Q 61.038 -179.588 60.813 -179.716 L 60.764 -179.716 L 60.764 -178.461 Q 60.764 -178.118 60.852 -177.937 Q 60.94 -177.756 61.165 -177.692 Q 61.391 -177.628 61.812 -177.628 L 61.812 -177.285 L 59.039 -177.285 L 59.039 -177.618 Q 59.382 -177.628 59.544 -177.692 Q 59.705 -177.756 59.759 -177.922 Q 59.813 -178.089 59.813 -178.393 L 59.813 -183.547 Q 59.813 -183.832 59.754 -183.954 Q 59.695 -184.077 59.411 -184.077 Q 59.323 -184.077 59.186 -184.067 Q 59.049 -184.057 59.049 -184.057 L 59.049 -184.449 L 60.372 -184.665 Z M 60.764 -183.322 L 60.764 -183.322 L 60.764 -180.558 Q 60.871 -180.451 61.033 -180.289 Q 61.195 -180.127 61.42 -180.005 Q 61.646 -179.882 61.91 -179.882 Q 62.273 -179.882 62.572 -180.103 Q 62.871 -180.323 63.057 -180.794 Q 63.243 -181.264 63.243 -181.989 Q 63.243 -182.91 62.91 -183.42 Q 62.577 -183.93 61.969 -183.93 Q 61.577 -183.93 61.254 -183.724 Q 60.93 -183.518 60.764 -183.322 Z " fill="black" /></g></g></g><circle cx="207.06" cy="-165.24" r="2.6999999999999997" style="stroke:black;fill:black;stroke-width:2.0;stroke-dasharray:-;" /><circle cx="207.06" cy="-183.24" r="2.6999999999999997" style="stroke:black;fill:black;stroke-width:2.0;stroke-dasharray:-;" /><circle cx="171.06" cy="-183.24" r="2.6999999999999997" style="stroke:black;fill:white;stroke-width:2.0;stroke-dasharray:-;" /><g><g><g><path d="M 136.371 -188.756 L 136.371 -188.756 L 136.679 -188.756 L 136.021 -186.068 Q 135.923 -185.704 135.818 -185.193 Q 135.713 -184.682 135.713 -184.206 Q 135.713 -183.66 135.937 -183.261 Q 136.161 -182.862 136.805 -182.862 Q 137.519 -182.862 138.037 -183.205 Q 138.555 -183.548 138.884 -184.08 Q 139.213 -184.612 139.374 -185.2 Q 139.535 -185.788 139.535 -186.278 Q 139.535 -186.642 139.409 -186.908 Q 139.283 -187.174 139.108 -187.384 Q 138.933 -187.594 138.807 -187.79 Q 138.681 -187.986 138.681 -188.21 Q 138.681 -188.49 138.835 -188.644 Q 138.989 -188.798 139.213 -188.798 Q 139.689 -188.798 139.983 -188.322 Q 140.277 -187.846 140.277 -187.104 Q 140.277 -186.46 140.116 -185.753 Q 139.955 -185.046 139.633 -184.374 Q 139.311 -183.702 138.835 -183.156 Q 138.359 -182.61 137.743 -182.288 Q 137.127 -181.966 136.371 -181.966 Q 135.671 -181.966 135.279 -182.246 Q 134.887 -182.526 134.726 -182.988 Q 134.565 -183.45 134.565 -183.982 Q 134.565 -184.486 134.663 -185.018 Q 134.761 -185.55 134.873 -185.984 L 135.153 -187.048 Q 135.181 -187.16 135.237 -187.384 Q 135.293 -187.608 135.293 -187.818 Q 135.293 -188 135.223 -188.126 Q 135.153 -188.252 134.957 -188.252 Q 134.789 -188.252 134.551 -188.231 Q 134.313 -188.21 134.313 -188.21 L 134.313 -188.602 Z " fill="black" /><path d="M 143.305 -184.297 L 143.305 -184.297 Q 144.04 -184.297 144.589 -183.979 Q 145.138 -183.66 145.436 -183.087 Q 145.735 -182.513 145.735 -181.739 Q 145.735 -180.808 145.422 -180.21 Q 145.108 -179.613 144.559 -179.324 Q 144.011 -179.034 143.305 -179.034 Q 142.59 -179.034 142.036 -179.333 Q 141.482 -179.632 141.174 -180.23 Q 140.865 -180.828 140.865 -181.729 Q 140.865 -182.494 141.169 -183.072 Q 141.472 -183.65 142.021 -183.974 Q 142.57 -184.297 143.305 -184.297 Z M 143.285 -183.846 L 143.285 -183.846 Q 142.639 -183.846 142.271 -183.322 Q 141.904 -182.798 141.904 -181.788 Q 141.904 -180.544 142.281 -180.029 Q 142.658 -179.515 143.334 -179.515 Q 143.766 -179.524 144.069 -179.73 Q 144.373 -179.936 144.535 -180.421 Q 144.697 -180.906 144.697 -181.739 Q 144.697 -182.739 144.354 -183.293 Q 144.011 -183.846 143.285 -183.846 Z " fill="black" /><path d="M 152.399 -179.652 L 152.399 -179.652 L 152.399 -179.279 L 151.076 -179.103 L 150.763 -179.103 L 150.763 -179.867 L 150.665 -179.867 Q 150.292 -179.534 149.91 -179.294 Q 149.528 -179.054 148.989 -179.054 Q 148.264 -179.054 147.882 -179.495 Q 147.499 -179.936 147.499 -181.024 L 147.499 -183.131 Q 147.499 -183.533 147.357 -183.626 Q 147.215 -183.719 146.764 -183.719 L 146.764 -184.072 L 148.127 -184.258 L 148.45 -184.258 L 148.45 -181.151 Q 148.45 -180.602 148.577 -180.299 Q 148.705 -179.995 148.92 -179.877 Q 149.136 -179.76 149.391 -179.76 Q 149.822 -179.76 150.111 -179.941 Q 150.4 -180.122 150.714 -180.377 L 150.714 -183.131 Q 150.714 -183.533 150.537 -183.626 Q 150.361 -183.719 149.861 -183.719 L 149.861 -184.072 L 151.321 -184.258 L 151.664 -184.258 L 151.664 -180.289 Q 151.664 -179.995 151.718 -179.858 Q 151.772 -179.72 151.909 -179.686 Q 152.047 -179.652 152.292 -179.652 Z " fill="black" /><path d="M 156.221 -180.132 L 156.221 -180.132 L 156.447 -179.946 Q 156.231 -179.652 156.055 -179.451 Q 155.878 -179.25 155.653 -179.142 Q 155.428 -179.034 155.075 -179.034 Q 154.506 -179.034 154.247 -179.358 Q 153.987 -179.681 153.987 -180.397 L 153.987 -183.689 L 153.37 -183.689 L 153.37 -183.983 Q 153.722 -184.238 154.016 -184.606 Q 154.31 -184.973 154.604 -185.659 L 154.947 -185.659 L 154.938 -184.17 L 156.182 -184.17 L 156.182 -183.689 L 154.938 -183.689 L 154.938 -180.72 Q 154.938 -180.171 155.041 -179.941 Q 155.143 -179.711 155.457 -179.711 Q 155.741 -179.711 155.888 -179.814 Q 156.035 -179.916 156.221 -180.132 Z " fill="black" /><path d="M 157.535 -177.682 L 157.535 -177.682 L 157.368 -178.005 Q 157.574 -178.094 157.789 -178.236 Q 158.005 -178.378 158.147 -178.638 Q 158.289 -178.897 158.289 -179.319 Q 158.123 -179.25 157.946 -179.25 Q 157.623 -179.25 157.486 -179.441 Q 157.348 -179.632 157.348 -179.877 Q 157.348 -180.142 157.525 -180.338 Q 157.701 -180.534 158.034 -180.534 Q 158.456 -180.534 158.676 -180.274 Q 158.897 -180.014 158.897 -179.554 Q 158.897 -179.083 158.75 -178.755 Q 158.603 -178.427 158.382 -178.216 Q 158.162 -178.005 157.931 -177.883 Q 157.701 -177.76 157.535 -177.682 Z " fill="black" /><path d="M 164.326 -182.435 L 164.326 -182.435 L 164.326 -180.24 Q 164.326 -179.965 164.375 -179.804 Q 164.424 -179.642 164.591 -179.573 Q 164.757 -179.505 165.11 -179.505 L 165.11 -179.152 L 162.591 -179.152 L 162.591 -179.505 Q 162.964 -179.505 163.13 -179.573 Q 163.297 -179.642 163.336 -179.804 Q 163.375 -179.965 163.375 -180.24 L 163.375 -182.112 Q 163.375 -182.768 163.224 -183.077 Q 163.072 -183.386 162.841 -183.484 Q 162.611 -183.582 162.376 -183.582 Q 161.954 -183.582 161.636 -183.366 Q 161.317 -183.15 161.082 -182.954 L 161.082 -180.24 Q 161.082 -179.965 161.126 -179.804 Q 161.17 -179.642 161.337 -179.573 Q 161.504 -179.505 161.866 -179.505 L 161.866 -179.152 L 159.397 -179.152 L 159.397 -179.505 Q 159.74 -179.505 159.892 -179.573 Q 160.043 -179.642 160.083 -179.804 Q 160.122 -179.965 160.122 -180.24 L 160.122 -183.219 Q 160.122 -183.493 160.019 -183.587 Q 159.916 -183.68 159.691 -183.68 Q 159.573 -183.68 159.495 -183.67 Q 159.416 -183.66 159.416 -183.66 L 159.416 -184.032 L 160.729 -184.268 L 161.053 -184.268 L 161.053 -183.464 L 161.121 -183.464 Q 161.543 -183.846 161.93 -184.072 Q 162.317 -184.297 162.807 -184.297 Q 163.385 -184.297 163.714 -184.037 Q 164.042 -183.778 164.184 -183.356 Q 164.326 -182.935 164.326 -182.435 Z " fill="black" /></g></g></g><circle cx="99.05999999999999" cy="-104.16000000000001" r="2.6999999999999997" style="stroke:black;fill:black;stroke-width:2.0;stroke-dasharray:-;" /><circle cx="99.05999999999999" cy="-86.16000000000001" r="2.6999999999999997" style="stroke:black;fill:white;stroke-width:2.0;stroke-dasharray:-;" /><g><g><g><path d="M 89.387 -79.818 L 89.387 -79.818 L 89.695 -79.818 L 89.037 -77.13 Q 88.939 -76.766 88.834 -76.255 Q 88.729 -75.744 88.729 -75.268 Q 88.729 -74.722 88.953 -74.323 Q 89.177 -73.924 89.821 -73.924 Q 90.535 -73.924 91.053 -74.267 Q 91.571 -74.61 91.9 -75.142 Q 92.229 -75.674 92.39 -76.262 Q 92.551 -76.85 92.551 -77.34 Q 92.551 -77.704 92.425 -77.97 Q 92.299 -78.236 92.124 -78.446 Q 91.949 -78.656 91.823 -78.852 Q 91.697 -79.048 91.697 -79.272 Q 91.697 -79.552 91.851 -79.706 Q 92.005 -79.86 92.229 -79.86 Q 92.705 -79.86 92.999 -79.384 Q 93.293 -78.908 93.293 -78.166 Q 93.293 -77.522 93.132 -76.815 Q 92.971 -76.108 92.649 -75.436 Q 92.327 -74.764 91.851 -74.218 Q 91.375 -73.672 90.759 -73.35 Q 90.143 -73.028 89.387 -73.028 Q 88.687 -73.028 88.295 -73.308 Q 87.903 -73.588 87.742 -74.05 Q 87.581 -74.512 87.581 -75.044 Q 87.581 -75.548 87.679 -76.08 Q 87.777 -76.612 87.889 -77.046 L 88.169 -78.11 Q 88.197 -78.222 88.253 -78.446 Q 88.309 -78.67 88.309 -78.88 Q 88.309 -79.062 88.239 -79.188 Q 88.169 -79.314 87.973 -79.314 Q 87.805 -79.314 87.567 -79.293 Q 87.329 -79.272 87.329 -79.272 L 87.329 -79.664 Z " fill="black" /><path d="M 97.026 -70.577 L 97.026 -70.577 L 97.026 -70.214 L 94.547 -70.214 L 94.547 -70.577 Q 94.89 -70.577 95.042 -70.645 Q 95.194 -70.714 95.233 -70.876 Q 95.272 -71.037 95.272 -71.312 L 95.272 -76.486 Q 95.272 -76.8 95.16 -76.868 Q 95.047 -76.937 94.812 -76.937 Q 94.684 -76.937 94.601 -76.922 Q 94.518 -76.907 94.518 -76.907 L 94.518 -77.28 L 95.85 -77.535 L 96.233 -77.535 L 96.233 -71.312 Q 96.233 -71.027 96.277 -70.866 Q 96.321 -70.704 96.492 -70.64 Q 96.664 -70.577 97.026 -70.577 Z " fill="black" /><path d="M 100.456 -75.359 L 100.456 -75.359 Q 101.191 -75.359 101.74 -75.041 Q 102.289 -74.722 102.588 -74.149 Q 102.887 -73.575 102.887 -72.801 Q 102.887 -71.87 102.573 -71.272 Q 102.26 -70.675 101.711 -70.386 Q 101.162 -70.096 100.456 -70.096 Q 99.741 -70.096 99.187 -70.395 Q 98.634 -70.694 98.325 -71.292 Q 98.016 -71.89 98.016 -72.791 Q 98.016 -73.556 98.32 -74.134 Q 98.624 -74.712 99.173 -75.036 Q 99.721 -75.359 100.456 -75.359 Z M 100.437 -74.908 L 100.437 -74.908 Q 99.79 -74.908 99.423 -74.384 Q 99.055 -73.86 99.055 -72.85 Q 99.055 -71.606 99.432 -71.091 Q 99.81 -70.577 100.486 -70.577 Q 100.917 -70.586 101.221 -70.792 Q 101.525 -70.998 101.686 -71.483 Q 101.848 -71.968 101.848 -72.801 Q 101.848 -73.801 101.505 -74.355 Q 101.162 -74.908 100.437 -74.908 Z " fill="black" /><path d="M 104.308 -68.744 L 104.308 -68.744 L 104.141 -69.067 Q 104.347 -69.156 104.563 -69.298 Q 104.778 -69.44 104.92 -69.7 Q 105.062 -69.959 105.062 -70.381 Q 104.896 -70.312 104.719 -70.312 Q 104.396 -70.312 104.259 -70.503 Q 104.122 -70.694 104.122 -70.939 Q 104.122 -71.204 104.298 -71.4 Q 104.474 -71.596 104.808 -71.596 Q 105.229 -71.596 105.45 -71.336 Q 105.67 -71.076 105.67 -70.616 Q 105.67 -70.145 105.523 -69.817 Q 105.376 -69.489 105.156 -69.278 Q 104.935 -69.067 104.705 -68.945 Q 104.474 -68.822 104.308 -68.744 Z " fill="black" /><path d="M 111.099 -73.497 L 111.099 -73.497 L 111.099 -71.302 Q 111.099 -71.027 111.148 -70.866 Q 111.197 -70.704 111.364 -70.635 Q 111.53 -70.567 111.883 -70.567 L 111.883 -70.214 L 109.365 -70.214 L 109.365 -70.567 Q 109.737 -70.567 109.904 -70.635 Q 110.07 -70.704 110.109 -70.866 Q 110.149 -71.027 110.149 -71.302 L 110.149 -73.174 Q 110.149 -73.83 109.997 -74.139 Q 109.845 -74.448 109.615 -74.546 Q 109.384 -74.644 109.149 -74.644 Q 108.728 -74.644 108.409 -74.428 Q 108.091 -74.212 107.855 -74.016 L 107.855 -71.302 Q 107.855 -71.027 107.9 -70.866 Q 107.944 -70.704 108.11 -70.635 Q 108.277 -70.567 108.639 -70.567 L 108.639 -70.214 L 106.17 -70.214 L 106.17 -70.567 Q 106.513 -70.567 106.665 -70.635 Q 106.817 -70.704 106.856 -70.866 Q 106.895 -71.027 106.895 -71.302 L 106.895 -74.281 Q 106.895 -74.555 106.792 -74.649 Q 106.689 -74.742 106.464 -74.742 Q 106.346 -74.742 106.268 -74.732 Q 106.189 -74.722 106.189 -74.722 L 106.189 -75.094 L 107.503 -75.33 L 107.826 -75.33 L 107.826 -74.526 L 107.895 -74.526 Q 108.316 -74.908 108.703 -75.134 Q 109.09 -75.359 109.58 -75.359 Q 110.158 -75.359 110.487 -75.099 Q 110.815 -74.84 110.957 -74.418 Q 111.099 -73.997 111.099 -73.497 Z " fill="black" /></g></g></g><circle cx="-54.0" cy="-104.16000000000003" r="2.6999999999999997" style="stroke:black;fill:black;stroke-width:2.0;stroke-dasharray:-;" /><circle cx="-90.0" cy="-104.16000000000003" r="2.6999999999999997" style="stroke:black;fill:white;stroke-width:2.0;stroke-dasharray:-;" /><g><g><g><path d="M -118.006 -110.073 L -118.006 -110.073 L -117.698 -110.073 L -118.356 -107.385 Q -118.454 -107.021 -118.559 -106.51 Q -118.664 -105.999 -118.664 -105.523 Q -118.664 -104.977 -118.44 -104.578 Q -118.216 -104.179 -117.572 -104.179 Q -116.858 -104.179 -116.34 -104.522 Q -115.822 -104.865 -115.493 -105.397 Q -115.164 -105.929 -115.003 -106.517 Q -114.842 -107.105 -114.842 -107.595 Q -114.842 -107.959 -114.968 -108.225 Q -115.094 -108.491 -115.269 -108.701 Q -115.444 -108.911 -115.57 -109.107 Q -115.696 -109.303 -115.696 -109.527 Q -115.696 -109.807 -115.542 -109.961 Q -115.388 -110.115 -115.164 -110.115 Q -114.688 -110.115 -114.394 -109.639 Q -114.1 -109.163 -114.1 -108.421 Q -114.1 -107.777 -114.261 -107.07 Q -114.422 -106.363 -114.744 -105.691 Q -115.066 -105.019 -115.542 -104.473 Q -116.018 -103.927 -116.634 -103.605 Q -117.25 -103.283 -118.006 -103.283 Q -118.706 -103.283 -119.098 -103.563 Q -119.49 -103.843 -119.651 -104.305 Q -119.812 -104.767 -119.812 -105.299 Q -119.812 -105.803 -119.714 -106.335 Q -119.616 -106.867 -119.504 -107.301 L -119.224 -108.365 Q -119.196 -108.477 -119.14 -108.701 Q -119.084 -108.925 -119.084 -109.135 Q -119.084 -109.317 -119.154 -109.443 Q -119.224 -109.569 -119.42 -109.569 Q -119.588 -109.569 -119.826 -109.548 Q -120.064 -109.527 -120.064 -109.527 L -120.064 -109.919 Z " fill="black" /><path d="M -110.366 -100.832 L -110.366 -100.832 L -110.366 -100.469 L -112.845 -100.469 L -112.845 -100.832 Q -112.502 -100.832 -112.35 -100.9 Q -112.198 -100.969 -112.159 -101.13 Q -112.12 -101.292 -112.12 -101.567 L -112.12 -106.741 Q -112.12 -107.055 -112.233 -107.123 Q -112.345 -107.192 -112.581 -107.192 Q -112.708 -107.192 -112.791 -107.177 Q -112.875 -107.162 -112.875 -107.162 L -112.875 -107.535 L -111.542 -107.79 L -111.16 -107.79 L -111.16 -101.567 Q -111.16 -101.282 -111.115 -101.121 Q -111.071 -100.959 -110.9 -100.895 Q -110.728 -100.832 -110.366 -100.832 Z " fill="black" /><path d="M -106.936 -105.614 L -106.936 -105.614 Q -106.201 -105.614 -105.652 -105.295 Q -105.103 -104.977 -104.804 -104.404 Q -104.505 -103.83 -104.505 -103.056 Q -104.505 -102.125 -104.819 -101.527 Q -105.133 -100.93 -105.681 -100.64 Q -106.23 -100.351 -106.936 -100.351 Q -107.651 -100.351 -108.205 -100.65 Q -108.759 -100.949 -109.067 -101.547 Q -109.376 -102.145 -109.376 -103.046 Q -109.376 -103.811 -109.072 -104.389 Q -108.768 -104.967 -108.22 -105.291 Q -107.671 -105.614 -106.936 -105.614 Z M -106.955 -105.163 L -106.955 -105.163 Q -107.602 -105.163 -107.97 -104.639 Q -108.337 -104.115 -108.337 -103.105 Q -108.337 -101.861 -107.96 -101.346 Q -107.583 -100.832 -106.906 -100.832 Q -106.475 -100.841 -106.171 -101.047 Q -105.868 -101.253 -105.706 -101.738 Q -105.544 -102.223 -105.544 -103.056 Q -105.544 -104.056 -105.887 -104.609 Q -106.23 -105.163 -106.955 -105.163 Z " fill="black" /><path d="M -103.084 -98.999 L -103.084 -98.999 L -103.251 -99.322 Q -103.045 -99.411 -102.83 -99.553 Q -102.614 -99.695 -102.472 -99.954 Q -102.33 -100.214 -102.33 -100.636 Q -102.496 -100.567 -102.673 -100.567 Q -102.996 -100.567 -103.133 -100.758 Q -103.271 -100.949 -103.271 -101.194 Q -103.271 -101.459 -103.094 -101.655 Q -102.918 -101.851 -102.585 -101.851 Q -102.163 -101.851 -101.943 -101.591 Q -101.722 -101.331 -101.722 -100.871 Q -101.722 -100.4 -101.869 -100.072 Q -102.016 -99.744 -102.237 -99.533 Q -102.457 -99.322 -102.688 -99.2 Q -102.918 -99.077 -103.084 -98.999 Z " fill="black" /><path d="M -99.664 -105.585 L -99.664 -105.585 L -99.664 -104.742 L -99.615 -104.742 Q -99.233 -105.183 -98.851 -105.398 Q -98.469 -105.614 -98.008 -105.614 Q -97.489 -105.614 -97.067 -105.305 Q -96.646 -104.997 -96.396 -104.453 Q -96.146 -103.909 -96.146 -103.203 Q -96.146 -102.282 -96.474 -101.645 Q -96.803 -101.008 -97.347 -100.68 Q -97.89 -100.351 -98.527 -100.351 Q -98.831 -100.351 -99.101 -100.43 Q -99.37 -100.508 -99.596 -100.636 L -99.645 -100.636 L -99.645 -99.381 Q -99.645 -99.038 -99.556 -98.857 Q -99.468 -98.676 -99.243 -98.612 Q -99.017 -98.548 -98.596 -98.548 L -98.596 -98.205 L -101.369 -98.205 L -101.369 -98.538 Q -101.026 -98.548 -100.865 -98.612 Q -100.703 -98.676 -100.649 -98.842 Q -100.595 -99.009 -100.595 -99.313 L -100.595 -104.467 Q -100.595 -104.752 -100.654 -104.874 Q -100.713 -104.997 -100.997 -104.997 Q -101.085 -104.997 -101.222 -104.987 Q -101.36 -104.977 -101.36 -104.977 L -101.36 -105.369 L -100.037 -105.585 Z M -99.645 -104.242 L -99.645 -104.242 L -99.645 -101.478 Q -99.537 -101.371 -99.375 -101.209 Q -99.213 -101.047 -98.988 -100.925 Q -98.763 -100.802 -98.498 -100.802 Q -98.135 -100.802 -97.837 -101.023 Q -97.538 -101.243 -97.351 -101.714 Q -97.165 -102.184 -97.165 -102.909 Q -97.165 -103.83 -97.498 -104.34 Q -97.832 -104.85 -98.439 -104.85 Q -98.831 -104.85 -99.155 -104.644 Q -99.478 -104.438 -99.645 -104.242 Z " fill="black" /></g></g></g><g><g><g><path d="M 90.913 -281.53 L 90.913 -281.53 L 94.735 -287.27 Q 94.931 -287.55 95.05 -287.788 Q 95.169 -288.026 95.169 -288.194 Q 95.169 -288.404 94.987 -288.481 Q 94.805 -288.558 94.329 -288.558 L 94.357 -288.978 L 97.381 -288.978 L 97.353 -288.558 Q 96.975 -288.558 96.709 -288.446 Q 96.443 -288.334 96.17 -288.019 Q 95.897 -287.704 95.463 -287.06 L 90.325 -279.71 L 89.863 -279.71 L 89.079 -287.284 Q 88.995 -287.984 88.771 -288.271 Q 88.547 -288.558 87.987 -288.558 L 88.015 -288.978 L 91.445 -288.978 L 91.403 -288.558 Q 90.871 -288.558 90.563 -288.348 Q 90.255 -288.138 90.283 -287.662 Q 90.283 -287.592 90.304 -287.41 Q 90.325 -287.228 90.325 -287.158 L 90.745 -283.168 L 90.843 -281.53 Z " fill="black" /><path d="M 96.278 -283.729 L 96.278 -283.729 L 99.248 -283.729 Q 100.032 -283.729 100.747 -283.558 Q 101.462 -283.386 102.026 -282.994 Q 102.589 -282.602 102.918 -281.946 Q 103.246 -281.289 103.246 -280.309 Q 103.246 -279.388 102.947 -278.727 Q 102.648 -278.065 102.109 -277.649 Q 101.57 -277.232 100.855 -277.036 Q 100.139 -276.84 99.306 -276.84 L 96.278 -276.84 L 96.278 -277.212 Q 96.739 -277.212 96.954 -277.281 Q 97.17 -277.35 97.234 -277.56 Q 97.297 -277.771 97.297 -278.202 L 97.297 -282.455 Q 97.297 -282.857 97.204 -283.048 Q 97.111 -283.239 96.891 -283.298 Q 96.67 -283.357 96.278 -283.357 Z M 98.346 -283.239 L 98.346 -283.239 L 98.346 -277.31 Q 98.503 -277.301 98.655 -277.296 Q 98.807 -277.291 98.954 -277.291 Q 99.924 -277.291 100.605 -277.546 Q 101.286 -277.8 101.644 -278.437 Q 102.001 -279.074 102.001 -280.221 Q 102.001 -281.691 101.252 -282.47 Q 100.502 -283.249 98.875 -283.249 Q 98.738 -283.249 98.611 -283.249 Q 98.483 -283.249 98.346 -283.239 Z " fill="black" /><path d="M 104.432 -283.729 L 104.432 -283.729 L 107.401 -283.729 Q 108.185 -283.729 108.901 -283.558 Q 109.616 -283.386 110.18 -282.994 Q 110.743 -282.602 111.071 -281.946 Q 111.4 -281.289 111.4 -280.309 Q 111.4 -279.388 111.101 -278.727 Q 110.802 -278.065 110.263 -277.649 Q 109.724 -277.232 109.008 -277.036 Q 108.293 -276.84 107.46 -276.84 L 104.432 -276.84 L 104.432 -277.212 Q 104.892 -277.212 105.108 -277.281 Q 105.324 -277.35 105.387 -277.56 Q 105.451 -277.771 105.451 -278.202 L 105.451 -282.455 Q 105.451 -282.857 105.358 -283.048 Q 105.265 -283.239 105.044 -283.298 Q 104.824 -283.357 104.432 -283.357 Z M 106.5 -283.239 L 106.5 -283.239 L 106.5 -277.31 Q 106.656 -277.301 106.808 -277.296 Q 106.96 -277.291 107.107 -277.291 Q 108.077 -277.291 108.759 -277.546 Q 109.44 -277.8 109.797 -278.437 Q 110.155 -279.074 110.155 -280.221 Q 110.155 -281.691 109.405 -282.47 Q 108.656 -283.249 107.029 -283.249 Q 106.892 -283.249 106.764 -283.249 Q 106.637 -283.249 106.5 -283.239 Z " fill="black" /></g></g></g></svg>