<svg xmlns="http://www.w3.org/2000/svg" xmlns:xlink="http://www.w3.org/1999/xlink" xml:lang="en" height="146.19799999999998pt" width="286.0084pt" viewBox="-18.28 -73.198 286.0084 146.19799999999998"><path d="M 0.0,-0.0 L 0.0,-21.599999999999998 L -13.68,-43.199999999999996 L 13.68,-43.199999999999996 L 0.0,-21.599999999999998" style="stroke:black;fill:none;stroke-width:2.0;stroke-dasharray:-;stroke-linecap:round;stroke-linejoin:round;" /><path d="M 0.0,-0.0 L 18.0,-0.0 L 36.0,-0.0" style="stroke:black;fill:none;stroke-width:2.0;stroke-dasharray:-;stroke-linecap:round;stroke-linejoin:round;" /><path d="M 36.0,-0.0 L 36.0,-18.0 L 72.0,-18.0 L 72.0,18.0 L 36.0,18.0 L 36.0,-0.0" style="stroke:black;fill:none;stroke-width:2.0;stroke-dasharray:-;stroke-linecap:round;stroke-linejoin:round;" /><path d="M 43.199999999999996,-4.4087284769304716e-16 L 44.33684210526316,-1.168918089136861 L 45.473684210526315,-2.2111657656828045 L 46.61052631578947,-3.013799321745103 L 47.747368421052634,-3.4898409573815896 L 48.88421052631579,-3.5877041748240117 L 50.02105263157894,-3.2967839759582067 L 51.1578947368421,-2.648606078423274 L 52.294736842105266,-1.7134106149334647 L 53.43157894736842,-0.5925405250106421 L 54.56842105263158,0.5925405250106421 L 55.705263157894734,1.7134106149334647 L 56.8421052631579,2.6486060784232732 L 57.97894736842106,3.2967839759582063 L 59.11578947368421,3.5877041748240117 L 60.252631578947366,3.48984095738159 L 61.38947368421053,3.013799321745103 L 62.526315789473685,2.2111657656828045 L 63.66315789473684,1.168918089136861 L 64.8,4.4087284769304716e-16" style="stroke:black;fill:none;stroke-width:2.0;stroke-dasharray:-;stroke-linecap:round;stroke-linejoin:round;" /><path d="M 43.199999999999996,-9.0 L 44.33684210526316,-10.16891808913686 L 45.473684210526315,-11.211165765682804 L 46.61052631578947,-12.013799321745104 L 47.747368421052634,-12.489840957381588 L 48.88421052631579,-12.587704174824012 L 50.02105263157894,-12.296783975958206 L 51.1578947368421,-11.648606078423274 L 52.294736842105266,-10.713410614933464 L 53.43157894736842,-9.592540525010643 L 54.56842105263158,-8.407459474989357 L 55.705263157894734,-7.286589385066535 L 56.8421052631579,-6.351393921576727 L 57.97894736842106,-5.703216024041794 L 59.11578947368421,-5.412295825175989 L 60.252631578947366,-5.51015904261841 L 61.38947368421053,-5.986200678254896 L 62.526315789473685,-6.7888342343171955 L 63.66315789473684,-7.831081910863139 L 64.8,-9.0" style="stroke:black;fill:none;stroke-width:2.0;stroke-dasharray:-;stroke-linecap:round;stroke-linejoin:round;" /><path d="M 43.199999999999996,9.0 L 44.33684210526316,7.831081910863139 L 45.473684210526315,6.7888342343171955 L 46.61052631578947,5.986200678254896 L 47.747368421052634,5.510159042618411 L 48.88421052631579,5.412295825175989 L 50.02105263157894,5.703216024041793 L 51.1578947368421,6.351393921576726 L 52.294736842105266,7.286589385066535 L 53.43157894736842,8.407459474989357 L 54.56842105263158,9.592540525010643 L 55.705263157894734,10.713410614933464 L 56.8421052631579,11.648606078423274 L 57.97894736842106,12.296783975958206 L 59.11578947368421,12.587704174824012 L 60.252631578947366,12.489840957381592 L 61.38947368421053,12.013799321745104 L 62.526315789473685,11.211165765682804 L 63.66315789473684,10.16891808913686 L 64.8,9.0" style="stroke:black;fill:none;stroke-width:2.0;stroke-dasharray:-;stroke-linecap:round;stroke-linejoin:round;" /><path d="M 52.199999999999996,-6.12 L 55.800000000000004,-11.88" style="stroke:black;fill:none;stroke-width:2.0;stroke-dasharray:-;stroke-linecap:round;stroke-linejoin:round;" /><path d="M 52.199999999999996,11.88 L 55.800000000000004,6.12" style="stroke:black;fill:none;stroke-width:2.0;stroke-dasharray:-;stroke-linecap:round;stroke-linejoin:round;" /><path d="M 72.0,-0.0 L 90.0,-0.0 L 108.0,-0.0" style="stroke:black;fill:none;stroke-width:2.0;stroke-dasharray:-;stroke-linecap:round;stroke-linejoin:round;" /><path d="M 108.0,-0.0 L 138.6,-9.0 M 144.0,-14.4" style="stroke:black;fill:none;stroke-width:2.0;stroke-dasharray:-;stroke-linecap:round;stroke-linejoin:round;" /><path d="M 144.0,-14.4 L 144.0,-32.4 L 144.0,-50.4" style="stroke:black;fill:none;stroke-width:2.0;stroke-dasharray:-;stroke-linecap:round;stroke-linejoin:round;" /><path d="M 144.0,-50.4 L 162.0,-50.4 L 171.0,-50.4" style="stroke:black;fill:none;stroke-width:2.0;stroke-dasharray:-;stroke-linecap:round;stroke-linejoin:round;" /><path d="M 178.0 -50.4 L 171.0 -47.699999999999996 L 171.0 -53.1 Z" style="stroke:black;fill:black;stroke-linecap:butt;stroke-linejoin:miter;" /><path d="M 180.0,-50.4 L 180.0,-32.4 L 207.0,-50.4 L 180.0,-68.39999999999999 L 180.0,-50.4" style="stroke:black;fill:none;stroke-width:2.0;stroke-dasharray:-;stroke-linecap:round;stroke-linejoin:round;" /><path d="M 207.0,-50.4 L 225.0,-50.4 L 234.0,-50.4" style="stroke:black;fill:none;stroke-width:2.0;stroke-dasharray:7.4,3.2;stroke-linecap:round;stroke-linejoin:round;" /><path d="M 241.0 -50.4 L 234.0 -47.699999999999996 L 234.0 -53.1 Z" style="stroke:black;fill:black;stroke-linecap:butt;stroke-linejoin:miter;" /><path d="M 144.0,14.4 L 144.0,32.4 L 144.0,50.4" style="stroke:black;fill:none;stroke-width:2.0;stroke-dasharray:-;stroke-linecap:round;stroke-linejoin:round;" /><path d="M 144.0,50.4 L 162.0,50.4 L 180.0,50.4" style="stroke:black;fill:none;stroke-width:2.0;stroke-dasharray:-;stroke-linecap:round;stroke-linejoin:round;" /><path d="M 207.0,50.4 L 207.0,32.4 L 180.0,50.4 L 207.0,68.39999999999999 L 207.0,50.4" style="stroke:black;fill:none;stroke-width:2.0;stroke-dasharray:-;stroke-linecap:round;stroke-linejoin:round;" /><path d="M 216.0,50.4 L 225.0,50.4 L 243.0,50.4" style="stroke:black;fill:none;stroke-width:2.0;stroke-dasharray:7.4,3.2;stroke-linecap:round;stroke-linejoin:round;" /><path d="M 209.0 50.4 L 216.0 47.7 L 216.0 53.1 Z" style="stroke:black;fill:black;stroke-linecap:butt;stroke-linejoin:miter;" /><g><g><g><path d="M 26.798 -33.088 L 26.798 -33.088 L 28.002 -33.088 Q 28.128 -33.676 28.275 -34.222 Q 28.422 -34.768 28.66 -35.202 Q 28.842 -35.538 29.108 -35.832 Q 29.374 -36.126 29.787 -36.315 Q 30.2 -36.504 30.802 -36.504 Q 31.446 -36.504 31.789 -36.217 Q 32.132 -35.93 32.132 -35.482 Q 32.132 -35.174 31.964 -35.02 Q 31.796 -34.866 31.572 -34.866 Q 31.292 -34.866 31.166 -35.027 Q 31.04 -35.188 31.012 -35.412 Q 30.97 -35.678 30.907 -35.888 Q 30.844 -36.098 30.592 -36.098 Q 30.06 -36.098 29.766 -35.538 Q 29.472 -34.978 29.318 -34.082 L 29.15 -33.088 L 30.48 -33.088 L 30.396 -32.514 L 29.08 -32.514 L 28.282 -27.74 Q 28.226 -27.376 28.107 -26.83 Q 27.988 -26.284 27.778 -25.689 Q 27.568 -25.094 27.267 -24.576 Q 26.966 -24.058 26.532 -23.729 Q 26.098 -23.4 25.524 -23.4 Q 24.852 -23.4 24.565 -23.722 Q 24.278 -24.044 24.278 -24.408 Q 24.278 -24.702 24.425 -24.898 Q 24.572 -25.094 24.838 -25.094 Q 25.16 -25.094 25.272 -24.905 Q 25.384 -24.716 25.412 -24.471 Q 25.44 -24.226 25.496 -24.037 Q 25.552 -23.848 25.748 -23.848 Q 26.028 -23.848 26.238 -24.212 Q 26.448 -24.576 26.602 -25.115 Q 26.756 -25.654 26.854 -26.186 Q 26.952 -26.718 27.008 -27.068 L 27.918 -32.514 L 26.742 -32.514 Z " fill="black" /><path d="M 35.555 -28.686 L 35.555 -28.686 Q 35.555 -28.108 35.291 -27.746 Q 35.026 -27.383 34.619 -27.187 Q 34.213 -26.991 33.782 -26.893 L 33.782 -26.815 Q 33.929 -26.687 34.129 -26.452 Q 34.33 -26.217 34.673 -25.761 Q 35.016 -25.305 35.585 -24.521 Q 35.84 -24.178 36.06 -24.08 Q 36.281 -23.982 36.673 -23.982 L 36.673 -23.61 L 34.899 -23.61 Q 34.458 -24.247 34.159 -24.683 Q 33.86 -25.119 33.659 -25.418 Q 33.458 -25.717 33.306 -25.942 Q 33.154 -26.168 32.998 -26.403 Q 32.841 -26.599 32.743 -26.658 Q 32.645 -26.717 32.449 -26.717 L 32.037 -26.717 L 32.037 -24.972 Q 32.037 -24.541 32.116 -24.33 Q 32.194 -24.12 32.424 -24.051 Q 32.655 -23.982 33.105 -23.982 L 33.105 -23.61 L 30.028 -23.61 L 30.028 -23.982 Q 30.42 -23.982 30.631 -24.046 Q 30.842 -24.11 30.92 -24.325 Q 30.998 -24.541 30.998 -24.972 L 30.998 -29.304 Q 30.998 -29.617 30.935 -29.794 Q 30.871 -29.97 30.665 -30.049 Q 30.459 -30.127 30.028 -30.127 L 30.028 -30.499 L 32.753 -30.499 Q 33.517 -30.499 34.154 -30.347 Q 34.791 -30.196 35.173 -29.804 Q 35.555 -29.412 35.555 -28.686 Z M 32.037 -30.009 L 32.037 -30.009 L 32.037 -27.177 L 32.41 -27.177 Q 33.321 -27.177 33.875 -27.545 Q 34.428 -27.912 34.428 -28.726 Q 34.428 -30.029 32.821 -30.029 Q 32.625 -30.029 32.429 -30.024 Q 32.233 -30.019 32.037 -30.009 Z " fill="black" /><path d="M 43.915 -23.61 L 43.915 -23.61 L 40.906 -23.61 L 40.906 -23.973 L 41.043 -23.973 Q 41.563 -23.973 41.563 -24.237 Q 41.563 -24.404 41.47 -24.59 Q 41.377 -24.776 41.151 -25.1 L 40.504 -26.099 L 40.22 -26.589 L 40.181 -26.589 L 38.976 -24.943 Q 38.878 -24.786 38.735 -24.585 Q 38.593 -24.384 38.593 -24.247 Q 38.593 -24.139 38.706 -24.056 Q 38.819 -23.973 39.25 -23.973 L 39.25 -23.61 L 36.869 -23.61 L 36.869 -23.973 Q 37.153 -23.982 37.344 -24.051 Q 37.535 -24.12 37.726 -24.316 Q 37.917 -24.512 38.201 -24.894 L 39.858 -27.05 L 38.407 -29.137 Q 38.113 -29.568 37.927 -29.779 Q 37.741 -29.99 37.545 -30.058 Q 37.349 -30.127 37.006 -30.127 L 37.006 -30.499 L 39.946 -30.499 L 39.946 -30.127 L 39.838 -30.127 Q 39.564 -30.127 39.466 -30.053 Q 39.368 -29.98 39.368 -29.823 Q 39.368 -29.735 39.421 -29.622 Q 39.475 -29.51 39.564 -29.372 L 40.132 -28.5 L 40.544 -27.785 L 40.593 -27.785 L 41.622 -29.265 Q 41.749 -29.48 41.827 -29.627 Q 41.906 -29.774 41.906 -29.882 Q 41.906 -30.009 41.778 -30.068 Q 41.651 -30.127 41.279 -30.127 L 41.279 -30.499 L 43.787 -30.499 L 43.787 -30.127 Q 43.444 -30.127 43.224 -30.058 Q 43.003 -29.99 42.802 -29.804 Q 42.602 -29.617 42.317 -29.235 L 40.867 -27.354 L 42.817 -24.59 Q 43.003 -24.335 43.15 -24.203 Q 43.297 -24.071 43.474 -24.026 Q 43.65 -23.982 43.915 -23.973 Z " fill="black" /><path d="M 58.497 -31.128 L 58.497 -31.128 L 50.153 -31.128 L 50.153 -32.08 L 58.497 -32.08 Z M 58.497 -28.272 L 58.497 -28.272 L 50.153 -28.272 L 50.153 -29.21 L 58.497 -29.21 Z " fill="black" /><path d="M 67.209 -33.088 L 67.209 -33.088 L 68.413 -33.088 Q 68.539 -33.676 68.686 -34.222 Q 68.833 -34.768 69.071 -35.202 Q 69.253 -35.538 69.519 -35.832 Q 69.785 -36.126 70.198 -36.315 Q 70.611 -36.504 71.213 -36.504 Q 71.857 -36.504 72.2 -36.217 Q 72.543 -35.93 72.543 -35.482 Q 72.543 -35.174 72.375 -35.02 Q 72.207 -34.866 71.983 -34.866 Q 71.703 -34.866 71.577 -35.027 Q 71.451 -35.188 71.423 -35.412 Q 71.381 -35.678 71.318 -35.888 Q 71.255 -36.098 71.003 -36.098 Q 70.471 -36.098 70.177 -35.538 Q 69.883 -34.978 69.729 -34.082 L 69.561 -33.088 L 70.891 -33.088 L 70.807 -32.514 L 69.491 -32.514 L 68.693 -27.74 Q 68.637 -27.376 68.518 -26.83 Q 68.399 -26.284 68.189 -25.689 Q 67.979 -25.094 67.678 -24.576 Q 67.377 -24.058 66.943 -23.729 Q 66.509 -23.4 65.935 -23.4 Q 65.263 -23.4 64.976 -23.722 Q 64.689 -24.044 64.689 -24.408 Q 64.689 -24.702 64.836 -24.898 Q 64.983 -25.094 65.249 -25.094 Q 65.571 -25.094 65.683 -24.905 Q 65.795 -24.716 65.823 -24.471 Q 65.851 -24.226 65.907 -24.037 Q 65.963 -23.848 66.159 -23.848 Q 66.439 -23.848 66.649 -24.212 Q 66.859 -24.576 67.013 -25.115 Q 67.167 -25.654 67.265 -26.186 Q 67.363 -26.718 67.419 -27.068 L 68.329 -32.514 L 67.153 -32.514 Z " fill="black" /><path d="M 76.279 -28.559 L 76.279 -28.559 L 75.897 -28.559 Q 75.809 -28.99 75.721 -29.269 Q 75.632 -29.549 75.495 -29.706 Q 75.358 -29.862 75.108 -29.931 Q 74.858 -30 74.437 -30 L 73.751 -30 L 73.751 -25.051 Q 73.751 -24.58 73.824 -24.355 Q 73.898 -24.129 74.118 -24.056 Q 74.339 -23.982 74.78 -23.982 L 74.78 -23.61 L 71.673 -23.61 L 71.673 -23.982 Q 72.124 -23.982 72.335 -24.056 Q 72.545 -24.129 72.614 -24.355 Q 72.683 -24.58 72.683 -25.051 L 72.683 -30 L 71.997 -30 Q 71.438 -30 71.169 -29.877 Q 70.899 -29.755 70.777 -29.441 Q 70.654 -29.127 70.536 -28.559 L 70.144 -28.559 L 70.262 -30.499 L 76.181 -30.499 Z " fill="black" /><path d="M 83.815 -23.61 L 83.815 -23.61 L 80.807 -23.61 L 80.807 -23.973 L 80.944 -23.973 Q 81.463 -23.973 81.463 -24.237 Q 81.463 -24.404 81.37 -24.59 Q 81.277 -24.776 81.052 -25.1 L 80.405 -26.099 L 80.121 -26.589 L 80.082 -26.589 L 78.876 -24.943 Q 78.778 -24.786 78.636 -24.585 Q 78.494 -24.384 78.494 -24.247 Q 78.494 -24.139 78.607 -24.056 Q 78.719 -23.973 79.151 -23.973 L 79.151 -23.61 L 76.769 -23.61 L 76.769 -23.973 Q 77.053 -23.982 77.245 -24.051 Q 77.436 -24.12 77.627 -24.316 Q 77.818 -24.512 78.102 -24.894 L 79.758 -27.05 L 78.308 -29.137 Q 78.014 -29.568 77.828 -29.779 Q 77.641 -29.99 77.445 -30.058 Q 77.249 -30.127 76.906 -30.127 L 76.906 -30.499 L 79.846 -30.499 L 79.846 -30.127 L 79.739 -30.127 Q 79.464 -30.127 79.366 -30.053 Q 79.268 -29.98 79.268 -29.823 Q 79.268 -29.735 79.322 -29.622 Q 79.376 -29.51 79.464 -29.372 L 80.033 -28.5 L 80.444 -27.785 L 80.493 -27.785 L 81.522 -29.265 Q 81.65 -29.48 81.728 -29.627 Q 81.806 -29.774 81.806 -29.882 Q 81.806 -30.009 81.679 -30.068 Q 81.552 -30.127 81.179 -30.127 L 81.179 -30.499 L 83.688 -30.499 L 83.688 -30.127 Q 83.345 -30.127 83.125 -30.058 Q 82.904 -29.99 82.703 -29.804 Q 82.502 -29.617 82.218 -29.235 L 80.768 -27.354 L 82.718 -24.59 Q 82.904 -24.335 83.051 -24.203 Q 83.198 -24.071 83.374 -24.026 Q 83.551 -23.982 83.815 -23.973 Z " fill="black" /></g></g></g><g><g><g><path d="M 156.176 -59.4 L 156.176 -59.4 L 156.176 -68.598 L 159.13 -68.598 Q 160.082 -68.598 160.824 -68.346 Q 161.566 -68.094 161.986 -67.534 Q 162.406 -66.974 162.406 -66.022 Q 162.406 -64.916 161.832 -64.272 Q 161.258 -63.628 160.306 -63.404 L 162.686 -59.4 L 161.328 -59.4 L 159.074 -63.278 L 157.38 -63.278 L 157.38 -59.4 Z M 157.38 -64.244 L 157.38 -64.244 L 158.948 -64.244 Q 160.04 -64.244 160.628 -64.678 Q 161.216 -65.112 161.216 -66.008 Q 161.216 -66.904 160.628 -67.268 Q 160.04 -67.632 158.948 -67.632 L 157.38 -67.632 Z " fill="black" /><path d="M 163.288 -59.4 L 163.288 -59.4 L 166.018 -64.16 L 163.456 -68.598 L 164.772 -68.598 L 166.046 -66.26 Q 166.242 -65.952 166.403 -65.637 Q 166.564 -65.322 166.788 -64.916 L 166.844 -64.916 Q 167.04 -65.322 167.187 -65.637 Q 167.334 -65.952 167.502 -66.26 L 168.748 -68.598 L 170.008 -68.598 L 167.46 -64.09 L 170.19 -59.4 L 168.874 -59.4 L 167.502 -61.864 Q 167.292 -62.256 167.173 -62.473 Q 167.054 -62.69 166.984 -62.809 Q 166.914 -62.928 166.851 -63.04 Q 166.788 -63.152 166.69 -63.334 L 166.634 -63.334 Q 166.438 -62.914 166.256 -62.564 Q 166.074 -62.214 165.892 -61.864 L 164.548 -59.4 Z " fill="black" /></g></g></g><g><g><g><path d="M 251.892 -55.223 L 251.892 -55.223 L 251.57 -53.039 L 251.234 -53.039 Q 251.206 -53.851 250.863 -54.327 Q 250.52 -54.803 249.904 -54.803 Q 249.358 -54.803 249.12 -54.509 Q 248.882 -54.215 248.882 -53.907 Q 248.882 -53.613 249.085 -53.34 Q 249.288 -53.067 249.596 -52.78 Q 249.904 -52.493 250.212 -52.157 Q 250.66 -51.681 250.989 -51.226 Q 251.318 -50.771 251.318 -50.099 Q 251.318 -49.693 251.115 -49.294 Q 250.912 -48.895 250.45 -48.629 Q 249.988 -48.363 249.19 -48.363 Q 248.532 -48.363 248.133 -48.524 Q 247.734 -48.685 247.58 -48.741 L 247.538 -48.741 L 247.202 -48.363 L 246.894 -48.363 L 247.258 -50.701 L 247.608 -50.701 Q 247.72 -49.791 248.035 -49.315 Q 248.35 -48.839 249.064 -48.839 Q 249.554 -48.839 249.855 -49.077 Q 250.156 -49.315 250.156 -49.861 Q 250.156 -50.435 249.841 -50.834 Q 249.526 -51.233 249.12 -51.611 Q 248.84 -51.891 248.553 -52.157 Q 248.266 -52.423 248.077 -52.752 Q 247.888 -53.081 247.888 -53.515 Q 247.888 -54.229 248.364 -54.726 Q 248.84 -55.223 249.792 -55.223 Q 250.352 -55.223 250.723 -55.069 Q 251.094 -54.915 251.22 -54.845 L 251.262 -54.845 L 251.626 -55.223 Z " fill="black" /><path d="M 258.129 -50.653 L 258.129 -50.653 Q 258.129 -50.075 257.864 -49.713 Q 257.6 -49.35 257.193 -49.154 Q 256.786 -48.958 256.355 -48.86 L 256.355 -48.782 Q 256.502 -48.654 256.703 -48.419 Q 256.904 -48.184 257.247 -47.728 Q 257.59 -47.272 258.158 -46.488 Q 258.413 -46.145 258.634 -46.047 Q 258.854 -45.949 259.246 -45.949 L 259.246 -45.577 L 257.472 -45.577 Q 257.031 -46.214 256.733 -46.65 Q 256.434 -47.086 256.233 -47.385 Q 256.032 -47.684 255.88 -47.909 Q 255.728 -48.135 255.571 -48.37 Q 255.414 -48.566 255.316 -48.625 Q 255.218 -48.684 255.022 -48.684 L 254.611 -48.684 L 254.611 -46.939 Q 254.611 -46.508 254.689 -46.297 Q 254.768 -46.087 254.998 -46.018 Q 255.228 -45.949 255.679 -45.949 L 255.679 -45.577 L 252.602 -45.577 L 252.602 -45.949 Q 252.994 -45.949 253.204 -46.013 Q 253.415 -46.077 253.494 -46.292 Q 253.572 -46.508 253.572 -46.939 L 253.572 -51.271 Q 253.572 -51.584 253.508 -51.761 Q 253.445 -51.937 253.239 -52.016 Q 253.033 -52.094 252.602 -52.094 L 252.602 -52.466 L 255.326 -52.466 Q 256.091 -52.466 256.728 -52.314 Q 257.365 -52.163 257.747 -51.771 Q 258.129 -51.379 258.129 -50.653 Z M 254.611 -51.976 L 254.611 -51.976 L 254.611 -49.144 L 254.983 -49.144 Q 255.895 -49.144 256.448 -49.512 Q 257.002 -49.879 257.002 -50.693 Q 257.002 -51.996 255.395 -51.996 Q 255.199 -51.996 255.003 -51.991 Q 254.807 -51.986 254.611 -51.976 Z " fill="black" /><path d="M 266.488 -45.577 L 266.488 -45.577 L 263.48 -45.577 L 263.48 -45.94 L 263.617 -45.94 Q 264.136 -45.94 264.136 -46.204 Q 264.136 -46.371 264.043 -46.557 Q 263.95 -46.743 263.725 -47.067 L 263.078 -48.066 L 262.794 -48.556 L 262.755 -48.556 L 261.549 -46.91 Q 261.451 -46.753 261.309 -46.552 Q 261.167 -46.351 261.167 -46.214 Q 261.167 -46.106 261.28 -46.023 Q 261.392 -45.94 261.824 -45.94 L 261.824 -45.577 L 259.442 -45.577 L 259.442 -45.94 Q 259.726 -45.949 259.918 -46.018 Q 260.109 -46.087 260.3 -46.283 Q 260.491 -46.479 260.775 -46.861 L 262.431 -49.017 L 260.981 -51.104 Q 260.687 -51.535 260.501 -51.746 Q 260.314 -51.957 260.118 -52.025 Q 259.922 -52.094 259.579 -52.094 L 259.579 -52.466 L 262.519 -52.466 L 262.519 -52.094 L 262.412 -52.094 Q 262.137 -52.094 262.039 -52.02 Q 261.941 -51.947 261.941 -51.79 Q 261.941 -51.702 261.995 -51.589 Q 262.049 -51.477 262.137 -51.339 L 262.706 -50.467 L 263.117 -49.752 L 263.166 -49.752 L 264.195 -51.232 Q 264.323 -51.447 264.401 -51.594 Q 264.479 -51.741 264.479 -51.849 Q 264.479 -51.976 264.352 -52.035 Q 264.225 -52.094 263.852 -52.094 L 263.852 -52.466 L 266.361 -52.466 L 266.361 -52.094 Q 266.018 -52.094 265.798 -52.025 Q 265.577 -51.957 265.376 -51.771 Q 265.175 -51.584 264.891 -51.202 L 263.441 -49.321 L 265.391 -46.557 Q 265.577 -46.302 265.724 -46.17 Q 265.871 -46.038 266.047 -45.993 Q 266.224 -45.949 266.488 -45.94 Z " fill="black" /></g></g></g><g><g><g><path d="M 157.94 46.8 L 157.94 46.8 L 157.94 38.61 L 155.112 38.61 L 155.112 37.602 L 161.972 37.602 L 161.972 38.61 L 159.13 38.61 L 159.13 46.8 Z " fill="black" /><path d="M 162.616 46.8 L 162.616 46.8 L 165.346 42.04 L 162.784 37.602 L 164.1 37.602 L 165.374 39.94 Q 165.57 40.248 165.731 40.563 Q 165.892 40.878 166.116 41.284 L 166.172 41.284 Q 166.368 40.878 166.515 40.563 Q 166.662 40.248 166.83 39.94 L 168.076 37.602 L 169.336 37.602 L 166.788 42.11 L 169.518 46.8 L 168.202 46.8 L 166.83 44.336 Q 166.62 43.944 166.501 43.727 Q 166.382 43.51 166.312 43.391 Q 166.242 43.272 166.179 43.16 Q 166.116 43.048 166.018 42.866 L 165.962 42.866 Q 165.766 43.286 165.584 43.636 Q 165.402 43.986 165.22 44.336 L 163.876 46.8 Z " fill="black" /></g></g></g><g><g><g><path d="M 251.892 45.577 L 251.892 45.577 L 251.57 47.761 L 251.234 47.761 Q 251.206 46.949 250.863 46.473 Q 250.52 45.997 249.904 45.997 Q 249.358 45.997 249.12 46.291 Q 248.882 46.585 248.882 46.893 Q 248.882 47.187 249.085 47.46 Q 249.288 47.733 249.596 48.02 Q 249.904 48.307 250.212 48.643 Q 250.66 49.119 250.989 49.574 Q 251.318 50.029 251.318 50.701 Q 251.318 51.107 251.115 51.506 Q 250.912 51.905 250.45 52.171 Q 249.988 52.437 249.19 52.437 Q 248.532 52.437 248.133 52.276 Q 247.734 52.115 247.58 52.059 L 247.538 52.059 L 247.202 52.437 L 246.894 52.437 L 247.258 50.099 L 247.608 50.099 Q 247.72 51.009 248.035 51.485 Q 248.35 51.961 249.064 51.961 Q 249.554 51.961 249.855 51.723 Q 250.156 51.485 250.156 50.939 Q 250.156 50.365 249.841 49.966 Q 249.526 49.567 249.12 49.189 Q 248.84 48.909 248.553 48.643 Q 248.266 48.377 248.077 48.048 Q 247.888 47.719 247.888 47.285 Q 247.888 46.571 248.364 46.074 Q 248.84 45.577 249.792 45.577 Q 250.352 45.577 250.723 45.731 Q 251.094 45.885 251.22 45.955 L 251.262 45.955 L 251.626 45.577 Z " fill="black" /><path d="M 258.443 50.274 L 258.443 50.274 L 258.06 50.274 Q 257.972 49.843 257.884 49.563 Q 257.796 49.284 257.659 49.127 Q 257.521 48.971 257.272 48.902 Q 257.022 48.833 256.6 48.833 L 255.914 48.833 L 255.914 53.782 Q 255.914 54.253 255.988 54.478 Q 256.061 54.704 256.282 54.777 Q 256.502 54.851 256.943 54.851 L 256.943 55.223 L 253.837 55.223 L 253.837 54.851 Q 254.287 54.851 254.498 54.777 Q 254.709 54.704 254.777 54.478 Q 254.846 54.253 254.846 53.782 L 254.846 48.833 L 254.16 48.833 Q 253.601 48.833 253.332 48.956 Q 253.062 49.078 252.94 49.392 Q 252.817 49.706 252.7 50.274 L 252.308 50.274 L 252.425 48.334 L 258.345 48.334 Z " fill="black" /><path d="M 265.979 55.223 L 265.979 55.223 L 262.97 55.223 L 262.97 54.86 L 263.107 54.86 Q 263.627 54.86 263.627 54.596 Q 263.627 54.429 263.534 54.243 Q 263.441 54.057 263.215 53.733 L 262.568 52.734 L 262.284 52.244 L 262.245 52.244 L 261.04 53.89 Q 260.942 54.047 260.799 54.248 Q 260.657 54.449 260.657 54.586 Q 260.657 54.694 260.77 54.777 Q 260.883 54.86 261.314 54.86 L 261.314 55.223 L 258.933 55.223 L 258.933 54.86 Q 259.217 54.851 259.408 54.782 Q 259.599 54.713 259.79 54.517 Q 259.981 54.321 260.265 53.939 L 261.922 51.783 L 260.471 49.696 Q 260.177 49.265 259.991 49.054 Q 259.805 48.843 259.609 48.775 Q 259.413 48.706 259.07 48.706 L 259.07 48.334 L 262.01 48.334 L 262.01 48.706 L 261.902 48.706 Q 261.628 48.706 261.53 48.779 Q 261.432 48.853 261.432 49.01 Q 261.432 49.098 261.486 49.211 Q 261.539 49.323 261.628 49.461 L 262.196 50.333 L 262.608 51.048 L 262.657 51.048 L 263.686 49.568 Q 263.813 49.353 263.891 49.206 Q 263.97 49.059 263.97 48.951 Q 263.97 48.824 263.842 48.765 Q 263.715 48.706 263.343 48.706 L 263.343 48.334 L 265.851 48.334 L 265.851 48.706 Q 265.508 48.706 265.288 48.775 Q 265.067 48.843 264.866 49.029 Q 264.666 49.216 264.381 49.598 L 262.931 51.479 L 264.881 54.243 Q 265.067 54.498 265.214 54.63 Q 265.361 54.762 265.538 54.806 Q 265.714 54.851 265.979 54.86 Z " fill="black" /></g></g></g></svg>