<svg xmlns="http://www.w3.org/2000/svg" xmlns:xlink="http://www.w3.org/1999/xlink" xml:lang="en" height="334.64000000000004pt" width="310.2894pt" viewBox="-102.47600000000003 -19.0 310.2894 334.64000000000004"><circle cx="-6.613092715395707e-15" cy="36.0" r="18.0" style="stroke:black;fill:none;stroke-width:2.0;stroke-dasharray:-;" /><circle cx="-4.629164900776995e-14" cy="252.0" r="18.0" style="stroke:black;fill:none;stroke-width:2.0;stroke-dasharray:-;" /><circle cx="71.99999999999996" cy="216.0" r="18.0" style="stroke:black;fill:none;stroke-width:2.0;stroke-dasharray:-;" /><path d="M 0.0,-0.0 L 0.0,-14.4" style="stroke:black;fill:none;stroke-width:2.0;stroke-dasharray:-;stroke-linecap:round;stroke-linejoin:round;" /><path d="M 0.0,-14.4 L -6.75,-14.4" style="stroke:black;fill:none;stroke-width:2.0;stroke-dasharray:-;stroke-linecap:round;stroke-linejoin:round;" /><path d="M 0.0,-14.4 L 6.75,-14.4" style="stroke:black;fill:none;stroke-width:2.0;stroke-dasharray:-;stroke-linecap:round;stroke-linejoin:round;" /><path d="M 0.0,-0.0 L -3.3065463576978533e-15,18.0 L -3.3065463576978533e-15,18.0 M -9.919639073093561e-15,54.0 L -9.919639073093561e-15,54.0 L -1.3226185430791413e-14,72.0" style="stroke:black;fill:none;stroke-width:2.0;stroke-dasharray:-;stroke-linecap:round;stroke-linejoin:round;" /><path d="M -4.9598195365467806e-15,27.0 L -6.819055509535661e-15,36.0" style="stroke:black;fill:none;stroke-width:2.0;stroke-dasharray:-;stroke-linecap:round;stroke-linejoin:round;" /><path d="M -7.944741364309306e-15 43.0 L -2.7000000000000064 36.0 L 2.699999999999993 36.0 Z" style="stroke:black;fill:black;stroke-linecap:butt;stroke-linejoin:miter;" /><path d="M -1.3226185430791413e-14,72.0 L -1.6532731788489267e-14,90.0 M -3.6000000000000183,98.64000000000001 L -16.200000000000024,118.8 M -2.3145824503884975e-14,126.0 L -2.6452370861582827e-14,144.0" style="stroke:black;fill:none;stroke-width:2.0;stroke-dasharray:-;stroke-linecap:round;stroke-linejoin:round;" /><path d="M -2.6452370861582827e-14,144.0 L -2.975891721928068e-14,162.0 M -16.20000000000003,169.20000000000002 L -3.600000000000035,189.35999999999999 M -3.637200993467639e-14,198.0 L -3.9678556292374245e-14,216.0" style="stroke:black;fill:none;stroke-width:2.0;stroke-dasharray:-;stroke-linecap:round;stroke-linejoin:round;" /><path d="M -3.9678556292374245e-14,216.0 L -4.29851026500721e-14,234.0 L -4.29851026500721e-14,234.0 M -4.9598195365467804e-14,270.0 L -4.9598195365467804e-14,270.0 L -5.2904741723165653e-14,288.0" style="stroke:black;fill:none;stroke-width:2.0;stroke-dasharray:-;stroke-linecap:round;stroke-linejoin:round;" /><path d="M -4.4638375828921025e-14,243.0 L -4.6497611801909906e-14,252.0" style="stroke:black;fill:none;stroke-width:2.0;stroke-dasharray:-;stroke-linecap:round;stroke-linejoin:round;" /><path d="M -4.762329765668355e-14 259.0 L -2.700000000000046 252.0 L 2.6999999999999535 252.0 Z" style="stroke:black;fill:black;stroke-linecap:butt;stroke-linejoin:miter;" /><path d="M -5.2904741723165653e-14,288.0 L -5.2904741723165653e-14,302.40000000000003 L -9.000000000000052,302.40000000000003 L 8.999999999999947,302.40000000000003 M -6.300000000000052,306.71999999999997 L 6.2999999999999465,306.71999999999997 M -1.8000000000000531,311.04 L 1.7999999999999472,311.04" style="stroke:black;fill:none;stroke-width:2.0;stroke-dasharray:-;stroke-linecap:round;stroke-linejoin:round;" /><path d="M -2.6452370861582827e-14,144.0 L 35.99999999999997,144.0 L 71.99999999999997,144.0" style="stroke:black;fill:none;stroke-width:2.0;stroke-dasharray:-;stroke-linecap:round;stroke-linejoin:round;" /><path d="M 71.99999999999997,144.0 L 71.99999999999997,198.0 L 71.99999999999997,198.0 M 71.99999999999996,234.0 L 71.99999999999996,234.0 L 71.99999999999996,288.0" style="stroke:black;fill:none;stroke-width:2.0;stroke-dasharray:-;stroke-linecap:round;stroke-linejoin:round;" /><path d="M 71.99999999999997,207.0 L 71.99999999999996,216.0" style="stroke:black;fill:none;stroke-width:2.0;stroke-dasharray:-;stroke-linecap:round;stroke-linejoin:round;" /><path d="M 71.99999999999996 223.0 L 69.29999999999995 216.0 L 74.69999999999996 216.0 Z" style="stroke:black;fill:black;stroke-linecap:butt;stroke-linejoin:miter;" /><path d="M 71.99999999999996,288.0 L 71.99999999999996,302.40000000000003 L 62.99999999999995,302.40000000000003 L 80.99999999999996,302.40000000000003 M 65.69999999999995,306.71999999999997 L 78.29999999999994,306.71999999999997 M 70.19999999999995,311.04 L 73.79999999999994,311.04" style="stroke:black;fill:none;stroke-width:2.0;stroke-dasharray:-;stroke-linecap:round;stroke-linejoin:round;" /><path d="M 71.99999999999997,144.0 L 107.99999999999997,144.0 L 143.99999999999997,144.0" style="stroke:black;fill:none;stroke-width:2.0;stroke-dasharray:-;stroke-linecap:round;stroke-linejoin:round;" /><path d="M 143.99999999999997,144.0 L 161.99999999999997,144.0 L 179.99999999999997,144.0" style="stroke:black;fill:none;stroke-width:2.0;stroke-dasharray:-;stroke-linecap:round;stroke-linejoin:round;" /><path d="M 143.99999999999997,144.0 L 143.99999999999997,162.0 L 152.99999999999997,165.0 L 134.99999999999997,171.0 L 152.99999999999997,177.0 L 134.99999999999997,183.0 L 152.99999999999997,189.0 L 134.99999999999994,194.99999999999997 L 143.99999999999994,198.0 L 143.99999999999994,216.0" style="stroke:black;fill:none;stroke-width:2.0;stroke-dasharray:-;stroke-linecap:round;stroke-linejoin:round;" /><path d="M 143.99999999999994,216.0 L 143.99999999999994,248.76 M 152.99999999999994,248.76 L 134.99999999999994,248.76 M 152.99999999999994,255.24 L 134.99999999999994,255.24 M 143.99999999999994,255.24 L 143.99999999999994,288.0" style="stroke:black;fill:none;stroke-width:2.0;stroke-dasharray:-;stroke-linecap:round;stroke-linejoin:round;" /><path d="M 143.99999999999994,288.0 L 143.99999999999994,302.40000000000003 L 134.99999999999994,302.40000000000003 L 152.99999999999994,302.40000000000003 M 137.69999999999993,306.71999999999997 L 150.29999999999993,306.71999999999997 M 142.19999999999993,311.04 L 145.79999999999993,311.04" style="stroke:black;fill:none;stroke-width:2.0;stroke-dasharray:-;stroke-linecap:round;stroke-linejoin:round;" /><path d="M -27.00000000000003,108.0 L -36.00000000000003,108.0 L -54.00000000000003,108.0" style="stroke:black;fill:none;stroke-width:2.0;stroke-dasharray:-;stroke-linecap:round;stroke-linejoin:round;" /><path d="M -20.00000000000003 108.0 L -27.00000000000003 110.7 L -27.00000000000003 105.3 Z" style="stroke:black;fill:black;stroke-linecap:butt;stroke-linejoin:miter;" /><path d="M -27.00000000000003,180.0 L -36.00000000000003,180.0 L -54.00000000000003,180.0" style="stroke:black;fill:none;stroke-width:2.0;stroke-dasharray:-;stroke-linecap:round;stroke-linejoin:round;" /><path d="M -20.00000000000003 180.0 L -27.00000000000003 182.7 L -27.00000000000003 177.3 Z" style="stroke:black;fill:black;stroke-linecap:butt;stroke-linejoin:miter;" /><g><g><g><path d="M -39.664 37.236 L -39.664 37.236 L -38.516 31.72 Q -38.39 31.174 -38.397 30.859 Q -38.404 30.544 -38.656 30.418 Q -38.908 30.292 -39.552 30.292 L -39.468 29.872 L -35.59 29.872 L -35.674 30.292 Q -36.29 30.292 -36.598 30.418 Q -36.906 30.544 -37.032 30.859 Q -37.158 31.174 -37.27 31.72 L -38.418 37.292 Q -38.46 37.516 -38.488 37.698 Q -38.516 37.88 -38.516 38.034 Q -38.516 38.426 -38.285 38.538 Q -38.054 38.65 -37.396 38.65 L -37.48 39.07 L -41.302 39.07 L -41.218 38.65 Q -40.644 38.65 -40.357 38.552 Q -40.07 38.454 -39.93 38.153 Q -39.79 37.852 -39.664 37.236 Z " fill="black" /><path d="M -28.985 40.413 L -28.985 40.413 L -28.691 40.658 Q -28.956 41.069 -29.338 41.403 Q -29.72 41.736 -30.259 41.932 Q -30.798 42.128 -31.533 42.128 Q -33.16 42.128 -34.056 41.226 Q -34.953 40.325 -34.953 38.61 Q -34.953 37.463 -34.498 36.654 Q -34.042 35.846 -33.238 35.415 Q -32.435 34.984 -31.396 34.984 Q -30.827 34.984 -30.494 35.077 Q -30.161 35.17 -29.97 35.268 Q -29.779 35.366 -29.651 35.366 Q -29.544 35.366 -29.47 35.273 Q -29.397 35.18 -29.269 35.003 L -28.916 35.003 L -28.916 37.443 L -29.328 37.443 Q -29.514 36.405 -30.039 35.954 Q -30.563 35.503 -31.445 35.503 Q -32.19 35.503 -32.699 35.87 Q -33.209 36.238 -33.469 36.904 Q -33.728 37.571 -33.728 38.463 Q -33.728 39.472 -33.4 40.099 Q -33.072 40.726 -32.493 41.015 Q -31.915 41.305 -31.17 41.305 Q -30.445 41.305 -29.936 41.084 Q -29.426 40.864 -28.985 40.413 Z " fill="black" /><path d="M -27.427 35.121 L -27.427 35.121 L -24.742 35.121 Q -24.203 35.121 -23.708 35.204 Q -23.213 35.287 -22.826 35.483 Q -22.439 35.679 -22.213 36.032 Q -21.988 36.385 -21.988 36.934 Q -21.988 37.561 -22.248 37.973 Q -22.507 38.384 -22.938 38.624 Q -23.37 38.864 -23.899 38.962 Q -24.428 39.06 -24.977 39.06 Q -25.104 39.06 -25.256 39.046 Q -25.408 39.031 -25.486 39.021 L -25.486 40.658 Q -25.486 41.089 -25.388 41.3 Q -25.29 41.51 -25.05 41.574 Q -24.81 41.638 -24.379 41.638 L -24.379 42.01 L -27.495 42.01 L -27.495 41.638 Q -27.074 41.638 -26.868 41.564 Q -26.662 41.491 -26.594 41.265 Q -26.525 41.04 -26.525 40.599 L -26.525 36.248 Q -26.525 35.748 -26.741 35.621 Q -26.956 35.493 -27.427 35.493 Z M -25.486 35.611 L -25.486 35.611 L -25.486 38.551 Q -25.408 38.561 -25.266 38.565 Q -25.124 38.57 -25.016 38.57 Q -24.114 38.57 -23.615 38.237 Q -23.115 37.904 -23.115 37.042 Q -23.115 35.591 -24.869 35.591 Q -25.026 35.591 -25.173 35.596 Q -25.32 35.601 -25.486 35.611 Z " fill="black" /></g></g></g><circle cx="-1.7326302914336752e-14" cy="94.32000000000001" r="4.32" style="stroke:black;fill:white;stroke-width:2.0;stroke-dasharray:-;" /><circle cx="-2.2352253378037487e-14" cy="121.67999999999999" r="4.32" style="stroke:black;fill:white;stroke-width:2.0;stroke-dasharray:-;" /><circle cx="-2.6452370861582827e-14" cy="144.0" r="2.6999999999999997" style="stroke:black;fill:black;stroke-width:2.0;stroke-dasharray:-;" /><circle cx="-3.55784388088289e-14" cy="193.68" r="4.32" style="stroke:black;fill:white;stroke-width:2.0;stroke-dasharray:-;" /><circle cx="-3.055248834512817e-14" cy="166.32" r="4.32" style="stroke:black;fill:white;stroke-width:2.0;stroke-dasharray:-;" /><g><g><g><path d="M -39.664 253.236 L -39.664 253.236 L -38.516 247.72 Q -38.39 247.174 -38.397 246.859 Q -38.404 246.544 -38.656 246.418 Q -38.908 246.292 -39.552 246.292 L -39.468 245.872 L -35.59 245.872 L -35.674 246.292 Q -36.29 246.292 -36.598 246.418 Q -36.906 246.544 -37.032 246.859 Q -37.158 247.174 -37.27 247.72 L -38.418 253.292 Q -38.46 253.516 -38.488 253.698 Q -38.516 253.88 -38.516 254.034 Q -38.516 254.426 -38.285 254.538 Q -38.054 254.65 -37.396 254.65 L -37.48 255.07 L -41.302 255.07 L -41.218 254.65 Q -40.644 254.65 -40.357 254.552 Q -40.07 254.454 -39.93 254.153 Q -39.79 253.852 -39.664 253.236 Z " fill="black" /><path d="M -28.985 256.413 L -28.985 256.413 L -28.691 256.658 Q -28.956 257.069 -29.338 257.403 Q -29.72 257.736 -30.259 257.932 Q -30.798 258.128 -31.533 258.128 Q -33.16 258.128 -34.057 257.226 Q -34.953 256.325 -34.953 254.61 Q -34.953 253.463 -34.498 252.654 Q -34.042 251.846 -33.238 251.415 Q -32.435 250.984 -31.396 250.984 Q -30.827 250.984 -30.494 251.077 Q -30.161 251.17 -29.97 251.268 Q -29.779 251.366 -29.651 251.366 Q -29.544 251.366 -29.47 251.273 Q -29.397 251.18 -29.269 251.003 L -28.916 251.003 L -28.916 253.443 L -29.328 253.443 Q -29.514 252.405 -30.039 251.954 Q -30.563 251.503 -31.445 251.503 Q -32.19 251.503 -32.699 251.87 Q -33.209 252.238 -33.469 252.904 Q -33.728 253.571 -33.728 254.463 Q -33.728 255.472 -33.4 256.099 Q -33.072 256.726 -32.493 257.015 Q -31.915 257.305 -31.17 257.305 Q -30.445 257.305 -29.936 257.084 Q -29.426 256.864 -28.985 256.413 Z " fill="black" /><path d="M -27.427 251.121 L -27.427 251.121 L -24.742 251.121 Q -24.203 251.121 -23.708 251.204 Q -23.213 251.287 -22.826 251.483 Q -22.439 251.679 -22.213 252.032 Q -21.988 252.385 -21.988 252.934 Q -21.988 253.561 -22.248 253.973 Q -22.507 254.384 -22.938 254.624 Q -23.37 254.864 -23.899 254.962 Q -24.428 255.06 -24.977 255.06 Q -25.104 255.06 -25.256 255.046 Q -25.408 255.031 -25.486 255.021 L -25.486 256.658 Q -25.486 257.089 -25.388 257.3 Q -25.29 257.51 -25.05 257.574 Q -24.81 257.638 -24.379 257.638 L -24.379 258.01 L -27.495 258.01 L -27.495 257.638 Q -27.074 257.638 -26.868 257.564 Q -26.662 257.491 -26.594 257.265 Q -26.525 257.04 -26.525 256.599 L -26.525 252.248 Q -26.525 251.748 -26.741 251.621 Q -26.956 251.493 -27.427 251.493 Z M -25.486 251.611 L -25.486 251.611 L -25.486 254.551 Q -25.408 254.561 -25.266 254.565 Q -25.124 254.57 -25.016 254.57 Q -24.114 254.57 -23.615 254.237 Q -23.115 253.904 -23.115 253.042 Q -23.115 251.591 -24.869 251.591 Q -25.026 251.591 -25.173 251.596 Q -25.32 251.601 -25.486 251.611 Z " fill="black" /></g></g></g><circle cx="71.99999999999997" cy="144.0" r="2.6999999999999997" style="stroke:black;fill:black;stroke-width:2.0;stroke-dasharray:-;" /><g><g><g><path d="M 17.655 217.231 L 17.655 217.231 L 18.803 211.715 Q 18.929 211.169 18.922 210.854 Q 18.915 210.539 18.663 210.413 Q 18.411 210.287 17.767 210.287 L 17.851 209.867 L 21.729 209.867 L 21.645 210.287 Q 21.029 210.287 20.721 210.413 Q 20.413 210.539 20.287 210.854 Q 20.161 211.169 20.049 211.715 L 18.901 217.287 Q 18.859 217.511 18.831 217.693 Q 18.803 217.875 18.803 218.029 Q 18.803 218.421 19.034 218.533 Q 19.265 218.645 19.923 218.645 L 19.839 219.065 L 16.017 219.065 L 16.101 218.645 Q 16.675 218.645 16.962 218.547 Q 17.249 218.449 17.389 218.148 Q 17.529 217.847 17.655 217.231 Z " fill="black" /><path d="M 24.758 216.86 L 24.758 216.86 Q 25.493 216.86 26.041 217.179 Q 26.59 217.497 26.889 218.071 Q 27.188 218.644 27.188 219.418 Q 27.188 220.349 26.874 220.947 Q 26.561 221.545 26.012 221.834 Q 25.463 222.123 24.758 222.123 Q 24.042 222.123 23.488 221.824 Q 22.935 221.525 22.626 220.927 Q 22.317 220.329 22.317 219.428 Q 22.317 218.663 22.621 218.085 Q 22.925 217.507 23.474 217.184 Q 24.023 216.86 24.758 216.86 Z M 24.738 217.311 L 24.738 217.311 Q 24.091 217.311 23.724 217.835 Q 23.356 218.36 23.356 219.369 Q 23.356 220.614 23.733 221.128 Q 24.111 221.643 24.787 221.643 Q 25.218 221.633 25.522 221.427 Q 25.826 221.221 25.987 220.736 Q 26.149 220.251 26.149 219.418 Q 26.149 218.418 25.806 217.865 Q 25.463 217.311 24.738 217.311 Z " fill="black" /><path d="M 28.217 216.988 L 28.217 216.988 L 29.001 216.988 Q 29.001 216.468 29.074 216.106 Q 29.148 215.743 29.334 215.381 Q 29.56 215.028 29.878 214.807 Q 30.197 214.587 30.785 214.587 Q 31.284 214.587 31.637 214.778 Q 31.99 214.969 31.99 215.341 Q 31.99 215.577 31.858 215.699 Q 31.725 215.822 31.549 215.822 Q 31.333 215.822 31.211 215.699 Q 31.088 215.577 30.892 215.371 Q 30.755 215.175 30.647 215.101 Q 30.54 215.028 30.393 215.028 Q 30.118 215.028 30.03 215.292 Q 29.942 215.557 29.942 216.204 L 29.942 216.988 L 31.216 216.988 L 31.216 217.468 L 29.942 217.468 L 29.942 220.702 Q 29.942 221.104 30.03 221.305 Q 30.118 221.506 30.353 221.574 Q 30.589 221.643 31.02 221.643 L 31.02 222.005 L 28.129 222.005 L 28.129 221.643 Q 28.501 221.643 28.687 221.574 Q 28.874 221.506 28.937 221.305 Q 29.001 221.104 29.001 220.702 L 29.001 217.468 L 28.217 217.468 Z " fill="black" /><path d="M 32.431 216.988 L 32.431 216.988 L 33.215 216.988 Q 33.215 216.468 33.288 216.106 Q 33.362 215.743 33.548 215.381 Q 33.774 215.028 34.092 214.807 Q 34.411 214.587 34.999 214.587 Q 35.498 214.587 35.851 214.778 Q 36.204 214.969 36.204 215.341 Q 36.204 215.577 36.072 215.699 Q 35.939 215.822 35.763 215.822 Q 35.547 215.822 35.425 215.699 Q 35.302 215.577 35.106 215.371 Q 34.969 215.175 34.861 215.101 Q 34.754 215.028 34.607 215.028 Q 34.332 215.028 34.244 215.292 Q 34.156 215.557 34.156 216.204 L 34.156 216.988 L 35.43 216.988 L 35.43 217.468 L 34.156 217.468 L 34.156 220.702 Q 34.156 221.104 34.244 221.305 Q 34.332 221.506 34.567 221.574 Q 34.803 221.643 35.234 221.643 L 35.234 222.005 L 32.343 222.005 L 32.343 221.643 Q 32.715 221.643 32.901 221.574 Q 33.088 221.506 33.151 221.305 Q 33.215 221.104 33.215 220.702 L 33.215 217.468 L 32.431 217.468 Z " fill="black" /><path d="M 36.792 220.222 L 36.792 220.222 L 37.106 220.222 Q 37.233 220.79 37.409 221.104 Q 37.586 221.417 37.865 221.54 Q 38.144 221.662 38.546 221.662 Q 39.007 221.662 39.257 221.51 Q 39.507 221.358 39.507 220.976 Q 39.507 220.721 39.384 220.55 Q 39.262 220.379 38.992 220.222 Q 38.723 220.065 38.272 219.859 Q 37.811 219.634 37.483 219.438 Q 37.155 219.242 36.983 218.977 Q 36.812 218.713 36.812 218.311 Q 36.812 217.605 37.287 217.233 Q 37.762 216.86 38.478 216.86 Q 38.909 216.86 39.208 216.968 Q 39.507 217.076 39.683 217.154 L 39.703 217.154 L 39.859 216.909 L 40.134 216.909 L 40.153 218.536 L 39.81 218.536 Q 39.624 217.781 39.291 217.522 Q 38.958 217.262 38.527 217.262 Q 38.076 217.262 37.845 217.458 Q 37.615 217.654 37.615 217.968 Q 37.615 218.222 37.772 218.389 Q 37.929 218.556 38.218 218.698 Q 38.507 218.84 38.909 219.036 Q 39.36 219.251 39.703 219.482 Q 40.046 219.712 40.242 220.001 Q 40.438 220.29 40.438 220.721 Q 40.438 221.241 40.163 221.555 Q 39.889 221.868 39.458 222 Q 39.026 222.133 38.556 222.133 Q 38.076 222.133 37.811 222.035 Q 37.547 221.937 37.321 221.849 L 37.282 221.849 L 37.037 222.103 L 36.812 222.103 Z " fill="black" /><path d="M 45.622 220.545 L 45.622 220.545 L 45.857 220.731 Q 45.651 221.104 45.396 221.417 Q 45.142 221.731 44.769 221.917 Q 44.397 222.103 43.828 222.103 Q 43.211 222.103 42.677 221.824 Q 42.143 221.545 41.819 220.966 Q 41.496 220.388 41.496 219.506 Q 41.496 218.634 41.8 218.046 Q 42.104 217.458 42.623 217.159 Q 43.142 216.86 43.779 216.86 Q 44.661 216.86 45.244 217.473 Q 45.828 218.085 45.847 219.3 L 42.398 219.3 Q 42.398 219.967 42.647 220.403 Q 42.897 220.839 43.289 221.05 Q 43.681 221.261 44.113 221.261 Q 44.554 221.261 44.818 221.167 Q 45.083 221.074 45.264 220.908 Q 45.445 220.741 45.622 220.545 Z M 42.398 218.85 L 42.398 218.85 L 44.799 218.85 Q 44.799 218.458 44.671 218.11 Q 44.544 217.762 44.299 217.541 Q 44.054 217.321 43.672 217.321 Q 43.113 217.321 42.785 217.713 Q 42.456 218.105 42.398 218.85 Z " fill="black" /><path d="M 49.738 221.025 L 49.738 221.025 L 49.963 221.212 Q 49.748 221.506 49.571 221.706 Q 49.395 221.907 49.169 222.015 Q 48.944 222.123 48.591 222.123 Q 48.023 222.123 47.763 221.799 Q 47.503 221.476 47.503 220.761 L 47.503 217.468 L 46.886 217.468 L 46.886 217.174 Q 47.239 216.919 47.533 216.552 Q 47.827 216.184 48.121 215.498 L 48.464 215.498 L 48.454 216.988 L 49.699 216.988 L 49.699 217.468 L 48.454 217.468 L 48.454 220.437 Q 48.454 220.986 48.557 221.216 Q 48.66 221.447 48.973 221.447 Q 49.258 221.447 49.405 221.344 Q 49.552 221.241 49.738 221.025 Z " fill="black" /></g></g></g><circle cx="179.99999999999997" cy="144.0" r="2.6999999999999997" style="stroke:black;fill:white;stroke-width:2.0;stroke-dasharray:-;" /><g><g><g><path d="M 190.178 145.379 L 190.178 145.379 L 194 139.639 Q 194.196 139.359 194.315 139.121 Q 194.434 138.883 194.434 138.715 Q 194.434 138.505 194.252 138.428 Q 194.07 138.351 193.594 138.351 L 193.622 137.931 L 196.646 137.931 L 196.618 138.351 Q 196.24 138.351 195.974 138.463 Q 195.708 138.575 195.435 138.89 Q 195.162 139.205 194.728 139.849 L 189.59 147.199 L 189.128 147.199 L 188.344 139.625 Q 188.26 138.925 188.036 138.638 Q 187.812 138.351 187.252 138.351 L 187.28 137.931 L 190.71 137.931 L 190.668 138.351 Q 190.136 138.351 189.828 138.561 Q 189.52 138.771 189.548 139.247 Q 189.548 139.317 189.569 139.499 Q 189.59 139.681 189.59 139.751 L 190.01 143.741 L 190.108 145.379 Z " fill="black" /><path d="M 201.227 147.982 L 201.227 147.982 L 200.972 150.069 L 195.582 150.069 L 195.582 149.697 Q 196.023 149.697 196.229 149.623 Q 196.435 149.55 196.498 149.339 Q 196.562 149.128 196.562 148.717 L 196.562 144.63 Q 196.562 144.199 196.498 143.968 Q 196.435 143.738 196.229 143.645 Q 196.023 143.552 195.582 143.552 L 195.582 143.18 L 198.64 143.18 L 198.64 143.552 Q 198.208 143.552 197.983 143.64 Q 197.758 143.728 197.674 143.964 Q 197.591 144.199 197.591 144.64 L 197.591 148.991 Q 197.591 149.373 197.748 149.476 Q 197.905 149.579 198.297 149.579 L 198.924 149.579 Q 199.443 149.579 199.757 149.51 Q 200.07 149.442 200.252 149.27 Q 200.433 149.099 200.551 148.785 Q 200.668 148.472 200.815 147.982 Z " fill="black" /><path d="M 207.803 144.963 L 207.803 144.963 L 207.401 144.963 Q 207.332 144.61 207.259 144.361 Q 207.185 144.111 207.038 143.964 Q 206.891 143.817 206.607 143.748 Q 206.323 143.679 205.833 143.679 L 204.069 143.679 L 204.069 146.345 L 205.264 146.345 Q 205.696 146.345 205.931 146.267 Q 206.166 146.188 206.259 145.968 Q 206.352 145.747 206.352 145.316 L 206.764 145.316 L 206.764 147.727 L 206.352 147.727 Q 206.352 147.315 206.259 147.119 Q 206.166 146.923 205.931 146.864 Q 205.696 146.806 205.264 146.806 L 204.069 146.806 L 204.069 148.922 Q 204.069 149.403 204.304 149.55 Q 204.539 149.697 205.147 149.697 L 205.147 150.069 L 202.021 150.069 L 202.021 149.697 Q 202.452 149.697 202.667 149.628 Q 202.883 149.559 202.956 149.368 Q 203.03 149.177 203.03 148.795 L 203.03 144.483 Q 203.03 144.111 202.947 143.91 Q 202.863 143.709 202.648 143.63 Q 202.432 143.552 202.021 143.552 L 202.021 143.18 L 207.744 143.18 Z " fill="black" /></g></g></g><g><g><g><path d="M 116.522 175.804 L 116.522 175.804 Q 116.522 176.546 116.242 177.05 Q 115.962 177.554 115.514 177.876 Q 115.066 178.198 114.555 178.373 Q 114.044 178.548 113.582 178.632 L 113.582 178.702 Q 113.834 178.87 114.058 179.213 Q 114.282 179.556 114.611 180.2 Q 114.94 180.844 115.514 181.936 Q 115.752 182.356 116.039 182.503 Q 116.326 182.65 116.802 182.65 L 116.718 183.07 L 114.59 183.07 Q 114.198 182.202 113.932 181.621 Q 113.666 181.04 113.47 180.648 Q 113.274 180.256 113.127 179.948 Q 112.98 179.64 112.812 179.318 Q 112.658 179.024 112.476 178.933 Q 112.294 178.842 111.916 178.842 L 111.622 178.842 L 111.104 181.334 Q 110.992 181.908 111.027 182.195 Q 111.062 182.482 111.342 182.566 Q 111.622 182.65 112.224 182.65 L 112.154 183.07 L 108.29 183.07 L 108.374 182.65 Q 108.892 182.65 109.172 182.566 Q 109.452 182.482 109.599 182.202 Q 109.746 181.922 109.858 181.334 L 111.09 175.328 Q 111.174 174.936 111.132 174.712 Q 111.09 174.488 110.845 174.39 Q 110.6 174.292 110.04 174.292 L 110.124 173.872 L 113.414 173.872 Q 114.884 173.872 115.703 174.327 Q 116.522 174.782 116.522 175.804 Z M 112.504 174.46 L 112.504 174.46 L 111.72 178.324 L 112.154 178.338 Q 112.994 178.31 113.673 178.065 Q 114.352 177.82 114.744 177.288 Q 115.136 176.756 115.136 175.86 Q 115.136 175.482 114.975 175.153 Q 114.814 174.824 114.422 174.621 Q 114.03 174.418 113.33 174.418 Q 113.064 174.418 112.903 174.425 Q 112.742 174.432 112.504 174.46 Z " fill="black" /><path d="M 120.435 185.648 L 120.435 185.648 L 120.435 186.01 L 117.946 186.01 L 117.946 185.648 Q 118.289 185.648 118.441 185.574 Q 118.593 185.501 118.632 185.339 Q 118.671 185.177 118.671 184.913 L 118.671 181.953 Q 118.671 181.62 118.563 181.551 Q 118.456 181.483 118.201 181.483 Q 118.073 181.483 117.995 181.492 Q 117.917 181.502 117.917 181.502 L 117.917 181.11 L 119.23 180.895 L 119.632 180.895 L 119.632 184.913 Q 119.632 185.197 119.676 185.358 Q 119.72 185.52 119.891 185.584 Q 120.063 185.648 120.435 185.648 Z M 119.142 178.729 L 119.142 178.729 Q 119.426 178.729 119.617 178.925 Q 119.808 179.121 119.808 179.376 Q 119.808 179.611 119.617 179.807 Q 119.426 180.003 119.142 180.003 Q 118.867 180.003 118.686 179.807 Q 118.505 179.611 118.505 179.376 Q 118.505 179.121 118.686 178.925 Q 118.867 178.729 119.142 178.729 Z " fill="black" /><path d="M 126.256 182.727 L 126.256 182.727 L 126.256 184.922 Q 126.256 185.197 126.305 185.358 Q 126.354 185.52 126.521 185.589 Q 126.688 185.657 127.04 185.657 L 127.04 186.01 L 124.522 186.01 L 124.522 185.657 Q 124.894 185.657 125.061 185.589 Q 125.227 185.52 125.267 185.358 Q 125.306 185.197 125.306 184.922 L 125.306 183.051 Q 125.306 182.394 125.154 182.085 Q 125.002 181.777 124.772 181.679 Q 124.541 181.581 124.306 181.581 Q 123.885 181.581 123.566 181.796 Q 123.248 182.012 123.013 182.208 L 123.013 184.922 Q 123.013 185.197 123.057 185.358 Q 123.101 185.52 123.267 185.589 Q 123.434 185.657 123.797 185.657 L 123.797 186.01 L 121.327 186.01 L 121.327 185.657 Q 121.67 185.657 121.822 185.589 Q 121.974 185.52 122.013 185.358 Q 122.052 185.197 122.052 184.922 L 122.052 181.943 Q 122.052 181.669 121.949 181.576 Q 121.846 181.483 121.621 181.483 Q 121.503 181.483 121.425 181.492 Q 121.347 181.502 121.347 181.502 L 121.347 181.13 L 122.66 180.895 L 122.983 180.895 L 122.983 181.698 L 123.052 181.698 Q 123.473 181.316 123.86 181.091 Q 124.247 180.865 124.737 180.865 Q 125.316 180.865 125.644 181.125 Q 125.972 181.385 126.114 181.806 Q 126.256 182.227 126.256 182.727 Z " fill="black" /><path d="M 130.794 185.03 L 130.794 185.03 L 131.019 185.216 Q 130.804 185.51 130.627 185.711 Q 130.451 185.912 130.225 186.02 Q 130 186.128 129.647 186.128 Q 129.079 186.128 128.819 185.804 Q 128.559 185.481 128.559 184.766 L 128.559 181.473 L 127.942 181.473 L 127.942 181.179 Q 128.295 180.924 128.589 180.556 Q 128.883 180.189 129.177 179.503 L 129.52 179.503 L 129.51 180.993 L 130.755 180.993 L 130.755 181.473 L 129.51 181.473 L 129.51 184.442 Q 129.51 184.991 129.613 185.221 Q 129.716 185.452 130.029 185.452 Q 130.314 185.452 130.461 185.349 Q 130.608 185.246 130.794 185.03 Z " fill="black" /></g></g></g><g><g><g><path d="M 117.362 253.131 L 117.362 253.131 L 117.614 253.397 Q 116.9 254.237 115.962 254.776 Q 115.024 255.315 113.694 255.315 Q 112.434 255.315 111.678 254.846 Q 110.922 254.377 110.593 253.593 Q 110.264 252.809 110.264 251.885 Q 110.264 250.415 110.712 249.274 Q 111.16 248.133 111.937 247.356 Q 112.714 246.579 113.694 246.18 Q 114.674 245.781 115.738 245.781 Q 116.452 245.781 116.851 245.907 Q 117.25 246.033 117.474 246.166 Q 117.698 246.299 117.866 246.299 Q 118.034 246.299 118.16 246.159 Q 118.286 246.019 118.454 245.795 L 118.86 245.795 L 118.202 249.001 L 117.74 249.001 Q 117.796 247.601 117.222 246.992 Q 116.648 246.383 115.612 246.383 Q 114.8 246.383 114.086 246.754 Q 113.372 247.125 112.819 247.804 Q 112.266 248.483 111.951 249.428 Q 111.636 250.373 111.636 251.535 Q 111.636 252.935 112.301 253.67 Q 112.966 254.405 114.352 254.405 Q 115.962 254.405 117.362 253.131 Z " fill="black" /><path d="M 121.401 257.739 L 121.401 257.739 L 121.401 258.101 L 118.912 258.101 L 118.912 257.739 Q 119.255 257.739 119.407 257.665 Q 119.559 257.592 119.598 257.43 Q 119.637 257.268 119.637 257.004 L 119.637 254.044 Q 119.637 253.711 119.529 253.642 Q 119.422 253.574 119.167 253.574 Q 119.039 253.574 118.961 253.583 Q 118.883 253.593 118.883 253.593 L 118.883 253.201 L 120.196 252.986 L 120.598 252.986 L 120.598 257.004 Q 120.598 257.288 120.642 257.45 Q 120.686 257.611 120.857 257.675 Q 121.029 257.739 121.401 257.739 Z M 120.108 250.82 L 120.108 250.82 Q 120.392 250.82 120.583 251.016 Q 120.774 251.212 120.774 251.467 Q 120.774 251.702 120.583 251.898 Q 120.392 252.094 120.108 252.094 Q 119.833 252.094 119.652 251.898 Q 119.471 251.702 119.471 251.467 Q 119.471 251.212 119.652 251.016 Q 119.833 250.82 120.108 250.82 Z " fill="black" /><path d="M 127.222 254.818 L 127.222 254.818 L 127.222 257.013 Q 127.222 257.288 127.271 257.45 Q 127.32 257.611 127.487 257.68 Q 127.654 257.748 128.006 257.748 L 128.006 258.101 L 125.488 258.101 L 125.488 257.748 Q 125.86 257.748 126.027 257.68 Q 126.193 257.611 126.233 257.45 Q 126.272 257.288 126.272 257.013 L 126.272 255.142 Q 126.272 254.485 126.12 254.176 Q 125.968 253.868 125.738 253.77 Q 125.507 253.672 125.272 253.672 Q 124.851 253.672 124.532 253.887 Q 124.214 254.103 123.979 254.299 L 123.979 257.013 Q 123.979 257.288 124.023 257.45 Q 124.067 257.611 124.233 257.68 Q 124.4 257.748 124.763 257.748 L 124.763 258.101 L 122.293 258.101 L 122.293 257.748 Q 122.636 257.748 122.788 257.68 Q 122.94 257.611 122.979 257.45 Q 123.018 257.288 123.018 257.013 L 123.018 254.034 Q 123.018 253.76 122.915 253.667 Q 122.812 253.574 122.587 253.574 Q 122.469 253.574 122.391 253.583 Q 122.313 253.593 122.313 253.593 L 122.313 253.221 L 123.626 252.986 L 123.949 252.986 L 123.949 253.789 L 124.018 253.789 Q 124.439 253.407 124.826 253.182 Q 125.213 252.956 125.703 252.956 Q 126.282 252.956 126.61 253.216 Q 126.938 253.476 127.08 253.897 Q 127.222 254.318 127.222 254.818 Z " fill="black" /><path d="M 131.76 257.121 L 131.76 257.121 L 131.985 257.307 Q 131.77 257.601 131.593 257.802 Q 131.417 258.003 131.191 258.111 Q 130.966 258.219 130.613 258.219 Q 130.045 258.219 129.785 257.895 Q 129.525 257.572 129.525 256.857 L 129.525 253.564 L 128.908 253.564 L 128.908 253.27 Q 129.261 253.015 129.555 252.648 Q 129.849 252.28 130.143 251.594 L 130.486 251.594 L 130.476 253.084 L 131.721 253.084 L 131.721 253.564 L 130.476 253.564 L 130.476 256.533 Q 130.476 257.082 130.579 257.312 Q 130.682 257.543 130.995 257.543 Q 131.28 257.543 131.427 257.44 Q 131.574 257.337 131.76 257.121 Z " fill="black" /></g></g></g><circle cx="-54.00000000000003" cy="108.0" r="2.6999999999999997" style="stroke:black;fill:white;stroke-width:2.0;stroke-dasharray:-;" /><g><g><g><path d="M -71.766 112.683 L -71.766 112.683 Q -72.718 112.683 -73.488 112.305 Q -74.258 111.927 -74.699 111.052 Q -75.14 110.177 -75.14 108.707 L -75.14 103.317 L -73.936 103.317 L -73.936 108.749 Q -73.936 109.841 -73.649 110.471 Q -73.362 111.101 -72.872 111.367 Q -72.382 111.633 -71.766 111.633 Q -71.136 111.633 -70.632 111.367 Q -70.128 111.101 -69.834 110.471 Q -69.54 109.841 -69.54 108.749 L -69.54 103.317 L -68.392 103.317 L -68.392 108.707 Q -68.392 110.177 -68.833 111.052 Q -69.274 111.927 -70.037 112.305 Q -70.8 112.683 -71.766 112.683 Z " fill="black" /><path d="M -65.872 112.515 L -65.872 112.515 L -65.872 103.317 L -63.184 103.317 Q -62.134 103.317 -61.343 103.576 Q -60.552 103.835 -60.104 104.423 Q -59.656 105.011 -59.656 106.019 Q -59.656 106.999 -60.097 107.636 Q -60.538 108.273 -61.315 108.581 Q -62.092 108.889 -63.128 108.889 L -64.668 108.889 L -64.668 112.515 Z M -64.668 107.909 L -64.668 107.909 L -63.268 107.909 Q -62.05 107.909 -61.455 107.461 Q -60.86 107.013 -60.86 106.033 Q -60.86 105.039 -61.476 104.661 Q -62.092 104.283 -63.324 104.283 L -64.668 104.283 Z " fill="black" /></g></g></g><circle cx="-54.00000000000003" cy="180.0" r="2.6999999999999997" style="stroke:black;fill:white;stroke-width:2.0;stroke-dasharray:-;" /><g><g><g><path d="M -96.588 184.592 L -96.588 184.592 L -96.588 175.394 L -94.236 175.394 Q -92.066 175.394 -90.932 176.577 Q -89.798 177.76 -89.798 179.958 Q -89.798 182.156 -90.925 183.374 Q -92.052 184.592 -94.18 184.592 Z M -95.384 183.612 L -95.384 183.612 L -94.32 183.612 Q -92.668 183.612 -91.849 182.653 Q -91.03 181.694 -91.03 179.958 Q -91.03 178.222 -91.849 177.298 Q -92.668 176.374 -94.32 176.374 L -95.384 176.374 Z " fill="black" /><path d="M -84.296 184.76 L -84.296 184.76 Q -85.472 184.76 -86.375 184.179 Q -87.278 183.598 -87.789 182.52 Q -88.3 181.442 -88.3 179.958 Q -88.3 178.488 -87.789 177.431 Q -87.278 176.374 -86.375 175.807 Q -85.472 175.24 -84.296 175.24 Q -83.106 175.24 -82.203 175.807 Q -81.3 176.374 -80.789 177.431 Q -80.278 178.488 -80.278 179.958 Q -80.278 181.428 -80.789 182.506 Q -81.3 183.584 -82.203 184.172 Q -83.106 184.76 -84.296 184.76 Z M -84.296 183.71 L -84.296 183.71 Q -83.456 183.71 -82.833 183.248 Q -82.21 182.786 -81.867 181.939 Q -81.524 181.092 -81.524 179.958 Q -81.524 178.25 -82.28 177.263 Q -83.036 176.276 -84.296 176.276 Q -85.556 176.276 -86.312 177.263 Q -87.068 178.25 -87.068 179.958 Q -87.068 181.092 -86.725 181.939 Q -86.382 182.786 -85.759 183.248 Q -85.136 183.71 -84.296 183.71 Z " fill="black" /><path d="M -77.212 184.592 L -77.212 184.592 L -79.2 175.394 L -77.968 175.394 L -76.988 180.392 Q -76.848 181.12 -76.708 181.862 Q -76.568 182.604 -76.428 183.346 L -76.372 183.346 Q -76.218 182.604 -76.05 181.862 Q -75.882 181.12 -75.714 180.392 L -74.412 175.394 L -73.334 175.394 L -72.032 180.392 Q -71.85 181.12 -71.682 181.862 Q -71.514 182.604 -71.36 183.346 L -71.29 183.346 Q -71.15 182.604 -71.024 181.862 Q -70.898 181.12 -70.758 180.392 L -69.778 175.394 L -68.616 175.394 L -70.562 184.592 L -72.004 184.592 L -73.418 179.104 Q -73.544 178.558 -73.656 178.047 Q -73.768 177.536 -73.88 177.004 L -73.936 177.004 Q -74.034 177.536 -74.16 178.047 Q -74.286 178.558 -74.398 179.104 L -75.784 184.592 Z " fill="black" /><path d="M -66.992 184.592 L -66.992 184.592 L -66.992 175.394 L -65.746 175.394 L -62.358 181.148 L -61.35 183.052 L -61.28 183.052 Q -61.322 182.352 -61.378 181.596 Q -61.434 180.84 -61.434 180.112 L -61.434 175.394 L -60.3 175.394 L -60.3 184.592 L -61.532 184.592 L -64.934 178.838 L -65.942 176.934 L -65.998 176.934 Q -65.956 177.634 -65.9 178.369 Q -65.844 179.104 -65.844 179.818 L -65.844 184.592 Z " fill="black" /></g></g></g></svg>