<svg xmlns="http://www.w3.org/2000/svg" xmlns:xlink="http://www.w3.org/1999/xlink" xml:lang="en" height="130.8464pt" width="242.1568pt" viewBox="-48.556799999999996 -103.2064 242.1568 130.8464"><circle cx="2.204364238465236e-15" cy="-36.0" r="18.0" style="stroke:black;fill:none;stroke-width:2.0;stroke-dasharray:-;" /><path d="M 0.0,-0.0 L 0.0,14.4 L -9.0,14.4 L 9.0,14.4 M -6.3,18.72 L 6.3,18.72 M -1.8,23.04 L 1.8,23.04" style="stroke:black;fill:none;stroke-width:2.0;stroke-dasharray:-;stroke-linecap:round;stroke-linejoin:round;" /><path d="M 0.0,-0.0 L 1.102182119232618e-15,-18.0 L 1.102182119232618e-15,-18.0 M 3.3065463576978533e-15,-54.0 L 3.3065463576978533e-15,-54.0 L 4.408728476930472e-15,-72.0" style="stroke:black;fill:none;stroke-width:2.0;stroke-dasharray:-;stroke-linecap:round;stroke-linejoin:round;" /><path d="M 9.000000000000002,-36.0 L 8.250000000000002,-37.86349712473816 L 7.500000000000003,-39.6 L 6.750000000000003,-41.091168824543146 L 6.0000000000000036,-42.23538290724795 L 5.2500000000000036,-42.95466594928129 L 4.500000000000003,-43.199999999999996 L 3.750000000000003,-42.9546659492813 L 3.0000000000000027,-42.23538290724795 L 2.2500000000000027,-41.09116882454314 L 1.500000000000003,-39.6 L 0.7500000000000027,-37.863497124738146 L 2.204364238465236e-15,-36.0 L -0.7499999999999972,-34.136502875261854 L -1.4999999999999967,-32.400000000000006 L -2.2499999999999982,-30.908831175456857 L -2.9999999999999973,-29.764617092752044 L -3.7499999999999964,-29.04533405071871 L -4.499999999999998,-28.8 L -5.249999999999997,-29.045334050718708 L -5.9999999999999964,-29.76461709275204 L -6.749999999999998,-30.90883117545686 L -7.499999999999997,-32.4 L -8.249999999999996,-34.13650287526185 L -8.999999999999998,-36.0" style="stroke:black;fill:none;stroke-width:2.0;stroke-dasharray:-;stroke-linecap:round;stroke-linejoin:round;" /><path d="M 4.408728476930472e-15,-72.0 L 18.000000000000004,-72.0 L 36.00000000000001,-72.0" style="stroke:black;fill:none;stroke-width:2.0;stroke-dasharray:-;stroke-linecap:round;stroke-linejoin:round;" /><path d="M 36.00000000000001,-72.0 L 54.00000000000001,-72.0 L 57.00000000000001,-81.0 L 63.00000000000001,-63.0 L 69.00000000000001,-81.0 L 75.0,-63.0 L 81.0,-81.0 L 87.00000000000001,-63.0 L 90.0,-72.0 L 108.0,-72.0" style="stroke:black;fill:none;stroke-width:2.0;stroke-dasharray:-;stroke-linecap:round;stroke-linejoin:round;" /><path d="M 108.0,-72.0 L 126.0,-72.0 L 144.0,-72.0" style="stroke:black;fill:none;stroke-width:2.0;stroke-dasharray:-;stroke-linecap:round;stroke-linejoin:round;" /><path d="M 144.0,-72.0 L 162.0,-72.0 L 180.0,-72.0" style="stroke:black;fill:none;stroke-width:2.0;stroke-dasharray:-;stroke-linecap:round;stroke-linejoin:round;" /><path d="M 180.0,-72.0 L 180.0,-54.0 L 189.0,-50.99999999999999 L 171.0,-45.0 L 189.0,-39.00000000000001 L 171.0,-33.0 L 189.0,-27.0 L 171.0,-21.000000000000007 L 180.0,-18.0 L 180.0,-0.0" style="stroke:black;fill:none;stroke-width:2.0;stroke-dasharray:-;stroke-linecap:round;stroke-linejoin:round;" /><path d="M 180.0,-0.0 L 180.0,14.4 L 171.0,14.4 L 189.0,14.4 M 173.70000000000002,18.72 L 186.29999999999998,18.72 M 178.20000000000002,23.04 L 181.79999999999998,23.04" style="stroke:black;fill:none;stroke-width:2.0;stroke-dasharray:-;stroke-linecap:round;stroke-linejoin:round;" /><g><g><g><path d="M -40.896 -31.938 L -40.896 -31.938 L -36.528 -38.498 Q -36.304 -38.818 -36.168 -39.09 Q -36.032 -39.362 -36.032 -39.554 Q -36.032 -39.794 -36.24 -39.882 Q -36.448 -39.97 -36.992 -39.97 L -36.96 -40.45 L -33.504 -40.45 L -33.536 -39.97 Q -33.968 -39.97 -34.272 -39.842 Q -34.576 -39.714 -34.888 -39.354 Q -35.2 -38.994 -35.696 -38.258 L -41.568 -29.858 L -42.096 -29.858 L -42.992 -38.514 Q -43.088 -39.314 -43.344 -39.642 Q -43.6 -39.97 -44.24 -39.97 L -44.208 -40.45 L -40.288 -40.45 L -40.336 -39.97 Q -40.944 -39.97 -41.296 -39.73 Q -41.648 -39.49 -41.616 -38.946 Q -41.616 -38.866 -41.592 -38.658 Q -41.568 -38.45 -41.568 -38.37 L -41.088 -33.81 L -40.976 -31.938 Z " fill="black" /><path d="M -30.851 -30.33 L -30.851 -30.33 L -30.851 -27.822 Q -30.851 -27.508 -30.795 -27.323 Q -30.739 -27.138 -30.549 -27.06 Q -30.358 -26.982 -29.955 -26.982 L -29.955 -26.578 L -32.834 -26.578 L -32.834 -26.982 Q -32.408 -26.982 -32.218 -27.06 Q -32.027 -27.138 -31.982 -27.323 Q -31.938 -27.508 -31.938 -27.822 L -31.938 -29.961 Q -31.938 -30.711 -32.111 -31.064 Q -32.285 -31.417 -32.548 -31.529 Q -32.811 -31.641 -33.08 -31.641 Q -33.562 -31.641 -33.926 -31.394 Q -34.29 -31.148 -34.558 -30.924 L -34.558 -27.822 Q -34.558 -27.508 -34.508 -27.323 Q -34.458 -27.138 -34.267 -27.06 Q -34.077 -26.982 -33.662 -26.982 L -33.662 -26.578 L -36.485 -26.578 L -36.485 -26.982 Q -36.093 -26.982 -35.919 -27.06 Q -35.746 -27.138 -35.701 -27.323 Q -35.656 -27.508 -35.656 -27.822 L -35.656 -31.226 Q -35.656 -31.54 -35.774 -31.646 Q -35.891 -31.753 -36.149 -31.753 Q -36.283 -31.753 -36.373 -31.742 Q -36.462 -31.73 -36.462 -31.73 L -36.462 -32.156 L -34.962 -32.425 L -34.592 -32.425 L -34.592 -31.506 L -34.514 -31.506 Q -34.032 -31.943 -33.59 -32.201 Q -33.147 -32.458 -32.587 -32.458 Q -31.926 -32.458 -31.551 -32.162 Q -31.176 -31.865 -31.014 -31.383 Q -30.851 -30.902 -30.851 -30.33 Z " fill="black" /><path d="M -28.555 -24.898 L -28.555 -24.898 L -28.746 -25.268 Q -28.51 -25.369 -28.264 -25.531 Q -28.018 -25.694 -27.855 -25.99 Q -27.693 -26.287 -27.693 -26.769 Q -27.883 -26.69 -28.085 -26.69 Q -28.454 -26.69 -28.611 -26.909 Q -28.768 -27.127 -28.768 -27.407 Q -28.768 -27.71 -28.566 -27.934 Q -28.365 -28.158 -27.984 -28.158 Q -27.502 -28.158 -27.25 -27.861 Q -26.998 -27.564 -26.998 -27.038 Q -26.998 -26.5 -27.166 -26.125 Q -27.334 -25.75 -27.586 -25.509 Q -27.838 -25.268 -28.102 -25.128 Q -28.365 -24.988 -28.555 -24.898 Z " fill="black" /><path d="M -26.326 -28.617 L -26.326 -28.617 L -25.968 -28.617 Q -25.822 -27.967 -25.621 -27.609 Q -25.419 -27.25 -25.1 -27.11 Q -24.781 -26.97 -24.322 -26.97 Q -23.795 -26.97 -23.51 -27.144 Q -23.224 -27.318 -23.224 -27.754 Q -23.224 -28.046 -23.364 -28.242 Q -23.504 -28.438 -23.812 -28.617 Q -24.12 -28.796 -24.635 -29.031 Q -25.162 -29.289 -25.537 -29.513 Q -25.912 -29.737 -26.108 -30.039 Q -26.304 -30.342 -26.304 -30.801 Q -26.304 -31.607 -25.761 -32.033 Q -25.218 -32.458 -24.4 -32.458 Q -23.907 -32.458 -23.566 -32.335 Q -23.224 -32.212 -23.022 -32.122 L -23 -32.122 L -22.821 -32.402 L -22.507 -32.402 L -22.485 -30.543 L -22.877 -30.543 Q -23.09 -31.406 -23.47 -31.702 Q -23.851 -31.999 -24.344 -31.999 Q -24.859 -31.999 -25.122 -31.775 Q -25.386 -31.551 -25.386 -31.193 Q -25.386 -30.902 -25.206 -30.711 Q -25.027 -30.521 -24.697 -30.358 Q -24.366 -30.196 -23.907 -29.972 Q -23.392 -29.726 -23 -29.462 Q -22.608 -29.199 -22.384 -28.869 Q -22.16 -28.538 -22.16 -28.046 Q -22.16 -27.452 -22.474 -27.094 Q -22.787 -26.735 -23.28 -26.584 Q -23.773 -26.433 -24.31 -26.433 Q -24.859 -26.433 -25.162 -26.545 Q -25.464 -26.657 -25.722 -26.758 L -25.766 -26.758 L -26.046 -26.466 L -26.304 -26.466 Z " fill="black" /><path d="M -26.427 -37.647 L -26.427 -37.647 L -26.808 -35.698 L -31.4 -35.698 L -31.4 -36.247 L -29.81 -37.86 Q -29.182 -38.487 -28.774 -38.969 Q -28.365 -39.45 -28.163 -39.938 Q -27.962 -40.425 -27.962 -41.052 Q -27.962 -41.646 -28.326 -42.032 Q -28.69 -42.418 -29.35 -42.418 Q -29.955 -42.418 -30.364 -42.178 Q -30.773 -41.937 -31.086 -41.388 L -31.389 -41.534 Q -31.109 -42.318 -30.521 -42.766 Q -29.933 -43.214 -29.07 -43.214 Q -28.398 -43.214 -27.883 -42.973 Q -27.368 -42.732 -27.077 -42.284 Q -26.786 -41.836 -26.786 -41.198 Q -26.786 -40.649 -27.032 -40.167 Q -27.278 -39.686 -27.732 -39.182 Q -28.186 -38.678 -28.813 -38.062 L -30.213 -36.706 L -30.213 -36.628 L -29.339 -36.673 L -27.883 -36.673 Q -27.558 -36.673 -27.385 -36.762 Q -27.211 -36.852 -27.088 -37.07 Q -26.965 -37.289 -26.819 -37.647 Z " fill="black" /><rect x="-45.328" y="-46.558" width="22.64" height="1.088" fill="black" /></g></g></g><g><g><g><path d="M 73.405 -96.41 L 73.405 -96.41 Q 73.405 -95.562 73.085 -94.986 Q 72.765 -94.41 72.253 -94.042 Q 71.741 -93.674 71.157 -93.474 Q 70.573 -93.274 70.045 -93.178 L 70.045 -93.098 Q 70.333 -92.906 70.589 -92.514 Q 70.845 -92.122 71.221 -91.386 Q 71.597 -90.65 72.253 -89.402 Q 72.525 -88.922 72.853 -88.754 Q 73.181 -88.586 73.725 -88.586 L 73.629 -88.106 L 71.197 -88.106 Q 70.749 -89.098 70.445 -89.762 Q 70.141 -90.426 69.917 -90.874 Q 69.693 -91.322 69.525 -91.674 Q 69.357 -92.026 69.165 -92.394 Q 68.989 -92.73 68.781 -92.834 Q 68.573 -92.938 68.141 -92.938 L 67.805 -92.938 L 67.213 -90.09 Q 67.085 -89.434 67.125 -89.106 Q 67.165 -88.778 67.485 -88.682 Q 67.805 -88.586 68.493 -88.586 L 68.413 -88.106 L 63.997 -88.106 L 64.093 -88.586 Q 64.685 -88.586 65.005 -88.682 Q 65.325 -88.778 65.493 -89.098 Q 65.661 -89.418 65.789 -90.09 L 67.197 -96.954 Q 67.293 -97.402 67.245 -97.658 Q 67.197 -97.914 66.917 -98.026 Q 66.637 -98.138 65.997 -98.138 L 66.093 -98.618 L 69.853 -98.618 Q 71.533 -98.618 72.469 -98.098 Q 73.405 -97.578 73.405 -96.41 Z M 68.813 -97.946 L 68.813 -97.946 L 67.917 -93.53 L 68.413 -93.514 Q 69.373 -93.546 70.149 -93.826 Q 70.925 -94.106 71.373 -94.714 Q 71.821 -95.322 71.821 -96.346 Q 71.821 -96.778 71.637 -97.154 Q 71.453 -97.53 71.005 -97.762 Q 70.557 -97.994 69.757 -97.994 Q 69.453 -97.994 69.269 -97.986 Q 69.085 -97.978 68.813 -97.946 Z " fill="black" /><path d="M 75.133 -86.784 L 75.133 -86.784 L 75.491 -86.784 Q 75.637 -86.134 75.838 -85.776 Q 76.04 -85.418 76.359 -85.278 Q 76.678 -85.138 77.138 -85.138 Q 77.664 -85.138 77.95 -85.311 Q 78.235 -85.485 78.235 -85.922 Q 78.235 -86.213 78.095 -86.409 Q 77.955 -86.605 77.647 -86.784 Q 77.339 -86.963 76.824 -87.198 Q 76.298 -87.456 75.922 -87.68 Q 75.547 -87.904 75.351 -88.206 Q 75.155 -88.509 75.155 -88.968 Q 75.155 -89.774 75.698 -90.2 Q 76.242 -90.626 77.059 -90.626 Q 77.552 -90.626 77.894 -90.502 Q 78.235 -90.379 78.437 -90.29 L 78.459 -90.29 L 78.638 -90.57 L 78.952 -90.57 L 78.974 -88.71 L 78.582 -88.71 Q 78.37 -89.573 77.989 -89.87 Q 77.608 -90.166 77.115 -90.166 Q 76.6 -90.166 76.337 -89.942 Q 76.074 -89.718 76.074 -89.36 Q 76.074 -89.069 76.253 -88.878 Q 76.432 -88.688 76.762 -88.526 Q 77.093 -88.363 77.552 -88.139 Q 78.067 -87.893 78.459 -87.63 Q 78.851 -87.366 79.075 -87.036 Q 79.299 -86.706 79.299 -86.213 Q 79.299 -85.619 78.986 -85.261 Q 78.672 -84.902 78.179 -84.751 Q 77.686 -84.6 77.149 -84.6 Q 76.6 -84.6 76.298 -84.712 Q 75.995 -84.824 75.738 -84.925 L 75.693 -84.925 L 75.413 -84.634 L 75.155 -84.634 Z " fill="black" /></g></g></g><g><g><g><path d="M 142.03 -40.795 L 142.03 -40.795 Q 142.03 -39.947 141.71 -39.371 Q 141.39 -38.795 140.878 -38.427 Q 140.366 -38.059 139.782 -37.859 Q 139.198 -37.659 138.67 -37.563 L 138.67 -37.483 Q 138.958 -37.291 139.214 -36.899 Q 139.47 -36.507 139.846 -35.771 Q 140.222 -35.035 140.878 -33.787 Q 141.15 -33.307 141.478 -33.139 Q 141.806 -32.971 142.35 -32.971 L 142.254 -32.491 L 139.822 -32.491 Q 139.374 -33.483 139.07 -34.147 Q 138.766 -34.811 138.542 -35.259 Q 138.318 -35.707 138.15 -36.059 Q 137.982 -36.411 137.79 -36.779 Q 137.614 -37.115 137.406 -37.219 Q 137.198 -37.323 136.766 -37.323 L 136.43 -37.323 L 135.838 -34.475 Q 135.71 -33.819 135.75 -33.491 Q 135.79 -33.163 136.11 -33.067 Q 136.43 -32.971 137.118 -32.971 L 137.038 -32.491 L 132.622 -32.491 L 132.718 -32.971 Q 133.31 -32.971 133.63 -33.067 Q 133.95 -33.163 134.118 -33.483 Q 134.286 -33.803 134.414 -34.475 L 135.822 -41.339 Q 135.918 -41.787 135.87 -42.043 Q 135.822 -42.299 135.542 -42.411 Q 135.262 -42.523 134.622 -42.523 L 134.718 -43.003 L 138.478 -43.003 Q 140.158 -43.003 141.094 -42.483 Q 142.03 -41.963 142.03 -40.795 Z M 137.438 -42.331 L 137.438 -42.331 L 136.542 -37.915 L 137.038 -37.899 Q 137.998 -37.931 138.774 -38.211 Q 139.55 -38.491 139.998 -39.099 Q 140.446 -39.707 140.446 -40.731 Q 140.446 -41.163 140.262 -41.539 Q 140.078 -41.915 139.63 -42.147 Q 139.182 -42.379 138.382 -42.379 Q 138.078 -42.379 137.894 -42.371 Q 137.71 -42.363 137.438 -42.331 Z " fill="black" /><path d="M 146.458 -29.546 L 146.458 -29.546 L 146.458 -29.131 L 143.624 -29.131 L 143.624 -29.546 Q 144.016 -29.546 144.19 -29.624 Q 144.363 -29.702 144.408 -29.887 Q 144.453 -30.072 144.453 -30.386 L 144.453 -36.299 Q 144.453 -36.658 144.324 -36.736 Q 144.195 -36.814 143.926 -36.814 Q 143.781 -36.814 143.686 -36.798 Q 143.59 -36.781 143.59 -36.781 L 143.59 -37.206 L 145.114 -37.498 L 145.55 -37.498 L 145.55 -30.386 Q 145.55 -30.061 145.601 -29.876 Q 145.651 -29.691 145.847 -29.618 Q 146.043 -29.546 146.458 -29.546 Z " fill="black" /><path d="M 150.378 -35.011 L 150.378 -35.011 Q 151.218 -35.011 151.845 -34.647 Q 152.472 -34.283 152.814 -33.628 Q 153.155 -32.973 153.155 -32.088 Q 153.155 -31.024 152.797 -30.341 Q 152.438 -29.658 151.811 -29.327 Q 151.184 -28.997 150.378 -28.997 Q 149.56 -28.997 148.927 -29.338 Q 148.294 -29.68 147.942 -30.363 Q 147.589 -31.046 147.589 -32.077 Q 147.589 -32.95 147.936 -33.611 Q 148.283 -34.272 148.91 -34.642 Q 149.538 -35.011 150.378 -35.011 Z M 150.355 -34.496 L 150.355 -34.496 Q 149.616 -34.496 149.196 -33.897 Q 148.776 -33.298 148.776 -32.144 Q 148.776 -30.722 149.207 -30.134 Q 149.638 -29.546 150.411 -29.546 Q 150.904 -29.557 151.251 -29.792 Q 151.598 -30.027 151.783 -30.582 Q 151.968 -31.136 151.968 -32.088 Q 151.968 -33.23 151.576 -33.863 Q 151.184 -34.496 150.355 -34.496 Z " fill="black" /><path d="M 157.859 -29.837 L 157.859 -29.837 L 157.781 -29.837 Q 157.4 -29.523 156.941 -29.288 Q 156.482 -29.053 155.944 -29.053 Q 155.238 -29.053 154.863 -29.478 Q 154.488 -29.904 154.488 -30.509 Q 154.488 -31.024 154.729 -31.371 Q 154.97 -31.718 155.356 -31.937 Q 155.742 -32.155 156.19 -32.29 Q 156.638 -32.424 157.053 -32.502 Q 157.467 -32.581 157.747 -32.648 L 157.747 -33.23 Q 157.747 -33.981 157.45 -34.266 Q 157.154 -34.552 156.582 -34.552 Q 156.235 -34.552 156.084 -34.462 Q 155.933 -34.373 155.894 -34.171 Q 155.854 -33.97 155.843 -33.645 Q 155.832 -33.398 155.698 -33.247 Q 155.563 -33.096 155.306 -33.096 Q 155.059 -33.096 154.886 -33.247 Q 154.712 -33.398 154.712 -33.69 Q 154.712 -34.037 154.981 -34.339 Q 155.25 -34.642 155.748 -34.826 Q 156.246 -35.011 156.918 -35.011 Q 157.926 -35.011 158.38 -34.546 Q 158.834 -34.082 158.834 -33.152 L 158.834 -30.408 Q 158.834 -30.038 158.918 -29.932 Q 159.002 -29.826 159.181 -29.826 Q 159.371 -29.826 159.511 -29.904 Q 159.651 -29.982 159.774 -30.128 L 160.021 -29.893 Q 159.438 -29.064 158.654 -29.064 Q 158.218 -29.064 158.055 -29.271 Q 157.893 -29.478 157.859 -29.837 Z M 157.747 -30.251 L 157.747 -30.251 L 157.747 -32.222 Q 157.232 -32.088 156.739 -31.926 Q 156.246 -31.763 155.927 -31.483 Q 155.608 -31.203 155.608 -30.699 Q 155.608 -30.262 155.86 -30.01 Q 156.112 -29.758 156.504 -29.758 Q 156.739 -29.758 157.07 -29.865 Q 157.4 -29.971 157.747 -30.251 Z " fill="black" /><path d="M 166.741 -29.277 L 166.741 -29.277 L 165.229 -29.075 L 164.826 -29.075 L 164.826 -29.859 L 164.747 -29.859 Q 164.378 -29.546 163.913 -29.288 Q 163.448 -29.03 162.866 -29.03 Q 162.205 -29.03 161.74 -29.389 Q 161.275 -29.747 161.029 -30.374 Q 160.782 -31.002 160.782 -31.797 Q 160.782 -32.794 161.169 -33.516 Q 161.555 -34.238 162.199 -34.625 Q 162.843 -35.011 163.605 -35.011 Q 164.266 -35.011 164.803 -34.709 L 164.803 -36.154 Q 164.803 -36.557 164.719 -36.686 Q 164.635 -36.814 164.277 -36.814 Q 164.198 -36.814 164.07 -36.798 Q 163.941 -36.781 163.941 -36.781 L 163.941 -37.206 L 165.43 -37.498 L 165.89 -37.498 L 165.89 -30.397 Q 165.89 -29.96 166.013 -29.831 Q 166.136 -29.702 166.438 -29.702 L 166.741 -29.702 Z M 164.803 -30.374 L 164.803 -30.374 L 164.803 -33.645 Q 164.68 -33.958 164.394 -34.205 Q 164.109 -34.451 163.582 -34.451 Q 162.832 -34.451 162.35 -33.942 Q 161.869 -33.432 161.869 -32.256 Q 161.869 -31.058 162.289 -30.503 Q 162.709 -29.949 163.47 -29.949 Q 163.829 -29.949 164.126 -30.05 Q 164.422 -30.15 164.803 -30.374 Z " fill="black" /></g></g></g><circle cx="144.0" cy="-72.0" r="2.6999999999999997" style="stroke:black;fill:white;stroke-width:2.0;stroke-dasharray:-;" /></svg>