<svg xmlns="http://www.w3.org/2000/svg" xmlns:xlink="http://www.w3.org/1999/xlink" xml:lang="en" height="140.24pt" width="720.4523999999999pt" viewBox="-40.85239999999999 -112.6 720.4523999999999 140.24"><circle cx="2.204364238465236e-15" cy="-36.0" r="18.0" style="stroke:black;fill:none;stroke-width:2.0;stroke-dasharray:-;" /><path d="M 0.0,-0.0 L 0.0,14.4 L -9.0,14.4 L 9.0,14.4 M -6.3,18.72 L 6.3,18.72 M -1.8,23.04 L 1.8,23.04" style="stroke:black;fill:none;stroke-width:2.0;stroke-dasharray:-;stroke-linecap:round;stroke-linejoin:round;" /><path d="M 0.0,-0.0 L 1.102182119232618e-15,-18.0 L 1.102182119232618e-15,-18.0 M 3.3065463576978533e-15,-54.0 L 3.3065463576978533e-15,-54.0 L 4.408728476930472e-15,-72.0" style="stroke:black;fill:none;stroke-width:2.0;stroke-dasharray:-;stroke-linecap:round;stroke-linejoin:round;" /><path d="M 9.000000000000002,-36.0 L 8.250000000000002,-37.86349712473816 L 7.500000000000003,-39.6 L 6.750000000000003,-41.091168824543146 L 6.0000000000000036,-42.23538290724795 L 5.2500000000000036,-42.95466594928129 L 4.500000000000003,-43.199999999999996 L 3.750000000000003,-42.9546659492813 L 3.0000000000000027,-42.23538290724795 L 2.2500000000000027,-41.09116882454314 L 1.500000000000003,-39.6 L 0.7500000000000027,-37.863497124738146 L 2.204364238465236e-15,-36.0 L -0.7499999999999972,-34.136502875261854 L -1.4999999999999967,-32.400000000000006 L -2.2499999999999982,-30.908831175456857 L -2.9999999999999973,-29.764617092752044 L -3.7499999999999964,-29.04533405071871 L -4.499999999999998,-28.8 L -5.249999999999997,-29.045334050718708 L -5.9999999999999964,-29.76461709275204 L -6.749999999999998,-30.90883117545686 L -7.499999999999997,-32.4 L -8.249999999999996,-34.13650287526185 L -8.999999999999998,-36.0" style="stroke:black;fill:none;stroke-width:2.0;stroke-dasharray:-;stroke-linecap:round;stroke-linejoin:round;" /><path d="M 4.408728476930472e-15,-72.0 L 18.000000000000004,-72.0 L 21.000000000000007,-81.0 L 27.000000000000004,-63.0 L 33.0,-81.0 L 39.00000000000001,-63.0 L 45.00000000000001,-81.0 L 51.0,-63.0 L 54.00000000000001,-72.0 L 72.0,-72.0" style="stroke:black;fill:none;stroke-width:2.0;stroke-dasharray:-;stroke-linecap:round;stroke-linejoin:round;" /><path d="M 72.0,-72.0 L 81.0,-72.0 L 90.0,-72.0" style="stroke:black;fill:none;stroke-width:2.0;stroke-dasharray:-;stroke-linecap:round;stroke-linejoin:round;" /><path d="M 90.0,-72.0 L 108.0,-72.0 L 126.0,-72.0" style="stroke:black;fill:none;stroke-width:2.0;stroke-dasharray:-;stroke-linecap:round;stroke-linejoin:round;" /><path d="M 126.0,-72.0 L 126.0,-108.0 L 234.0,-108.0 L 234.0,-36.0 L 126.0,-36.0 L 126.0,-72.0" style="stroke:black;fill:none;stroke-width:2.0;stroke-dasharray:-;stroke-linecap:round;stroke-linejoin:round;" /><path d="M 234.0,-72.0 L 252.0,-72.0 L 270.0,-72.0" style="stroke:black;fill:none;stroke-width:2.0;stroke-dasharray:-;stroke-linecap:round;stroke-linejoin:round;" /><path d="M 270.0,-72.0 L 288.0,-72.0 L 306.0,-72.0" style="stroke:black;fill:none;stroke-width:2.0;stroke-dasharray:-;stroke-linecap:round;stroke-linejoin:round;" /><path d="M 306.0,-72.0 L 306.0,-108.0 L 414.0,-108.0 L 414.0,-36.0 L 306.0,-36.0 L 306.0,-72.0" style="stroke:black;fill:none;stroke-width:2.0;stroke-dasharray:-;stroke-linecap:round;stroke-linejoin:round;" /><path d="M 414.0,-72.0 L 432.0,-72.0 L 450.0,-72.0" style="stroke:black;fill:none;stroke-width:2.0;stroke-dasharray:-;stroke-linecap:round;stroke-linejoin:round;" /><path d="M 450.0,-72.0 L 468.0,-72.0 L 486.0,-72.0" style="stroke:black;fill:none;stroke-width:2.0;stroke-dasharray:-;stroke-linecap:round;stroke-linejoin:round;" /><path d="M 486.0,-72.0 L 486.0,-108.0 L 594.0,-108.0 L 594.0,-36.0 L 486.0,-36.0 L 486.0,-72.0" style="stroke:black;fill:none;stroke-width:2.0;stroke-dasharray:-;stroke-linecap:round;stroke-linejoin:round;" /><path d="M 594.0,-72.0 L 612.0,-72.0 L 630.0,-72.0" style="stroke:black;fill:none;stroke-width:2.0;stroke-dasharray:-;stroke-linecap:round;stroke-linejoin:round;" /><path d="M 630.0,-72.0 L 648.0,-72.0 L 666.0,-72.0" style="stroke:black;fill:none;stroke-width:2.0;stroke-dasharray:-;stroke-linecap:round;stroke-linejoin:round;" /><path d="M 666.0,-72.0 L 666.0,-54.0 L 675.0,-50.99999999999999 L 657.0,-45.0 L 675.0,-39.00000000000001 L 657.0,-33.0 L 675.0,-27.0 L 657.0,-21.000000000000007 L 666.0,-18.0 L 666.0,-0.0" style="stroke:black;fill:none;stroke-width:2.0;stroke-dasharray:-;stroke-linecap:round;stroke-linejoin:round;" /><path d="M 666.0,-0.0 L 666.0,14.4 L 657.0,14.4 L 675.0,14.4 M 659.6999999999999,18.72 L 672.3000000000001,18.72 M 664.1999999999999,23.04 L 667.8000000000001,23.04" style="stroke:black;fill:none;stroke-width:2.0;stroke-dasharray:-;stroke-linecap:round;stroke-linejoin:round;" /><g><g><g><path d="M -32.216 -39.423 L -32.216 -39.423 L -32.622 -39.423 Q -32.664 -40.585 -33.042 -41.11 Q -33.42 -41.635 -34.484 -41.635 Q -35.352 -41.635 -35.842 -41.215 Q -36.332 -40.795 -36.332 -40.039 Q -36.332 -39.395 -35.828 -38.933 Q -35.324 -38.471 -34.638 -38.051 Q -34.12 -37.715 -33.665 -37.379 Q -33.21 -37.043 -32.916 -36.595 Q -32.622 -36.147 -32.622 -35.475 Q -32.622 -34.579 -33.07 -33.949 Q -33.518 -33.319 -34.26 -32.976 Q -35.002 -32.633 -35.87 -32.633 Q -36.598 -32.633 -37.018 -32.738 Q -37.438 -32.843 -37.669 -32.948 Q -37.9 -33.053 -38.068 -33.053 Q -38.208 -33.053 -38.348 -32.927 Q -38.488 -32.801 -38.53 -32.591 L -38.95 -32.591 L -38.362 -35.615 L -37.97 -35.615 Q -37.9 -34.649 -37.697 -34.131 Q -37.494 -33.613 -37.074 -33.417 Q -36.654 -33.221 -35.954 -33.221 Q -35.086 -33.221 -34.512 -33.613 Q -33.938 -34.005 -33.924 -34.817 Q -33.924 -35.419 -34.183 -35.832 Q -34.442 -36.245 -34.876 -36.567 Q -35.31 -36.889 -35.8 -37.211 Q -35.814 -37.225 -35.828 -37.225 Q -36.29 -37.519 -36.675 -37.827 Q -37.06 -38.135 -37.291 -38.562 Q -37.522 -38.989 -37.522 -39.633 Q -37.522 -40.445 -37.088 -41.005 Q -36.654 -41.565 -35.954 -41.852 Q -35.254 -42.139 -34.47 -42.139 Q -33.854 -42.139 -33.511 -42.041 Q -33.168 -41.943 -32.972 -41.838 Q -32.776 -41.733 -32.622 -41.733 Q -32.272 -41.733 -32.076 -42.139 L -31.74 -42.139 Z " fill="black" /><path d="M -28.261 -30.224 L -28.261 -30.224 L -28.261 -29.861 L -30.75 -29.861 L -30.75 -30.224 Q -30.407 -30.224 -30.255 -30.297 Q -30.104 -30.371 -30.064 -30.532 Q -30.025 -30.694 -30.025 -30.959 L -30.025 -33.918 Q -30.025 -34.251 -30.133 -34.32 Q -30.241 -34.389 -30.496 -34.389 Q -30.623 -34.389 -30.701 -34.379 Q -30.78 -34.369 -30.78 -34.369 L -30.78 -34.761 L -29.467 -34.977 L -29.065 -34.977 L -29.065 -30.959 Q -29.065 -30.674 -29.021 -30.513 Q -28.977 -30.351 -28.805 -30.287 Q -28.634 -30.224 -28.261 -30.224 Z M -29.555 -37.142 L -29.555 -37.142 Q -29.271 -37.142 -29.079 -36.946 Q -28.888 -36.75 -28.888 -36.496 Q -28.888 -36.26 -29.079 -36.064 Q -29.271 -35.868 -29.555 -35.868 Q -29.829 -35.868 -30.01 -36.064 Q -30.192 -36.26 -30.192 -36.496 Q -30.192 -36.75 -30.01 -36.946 Q -29.829 -37.142 -29.555 -37.142 Z " fill="black" /><path d="M -22.44 -33.144 L -22.44 -33.144 L -22.44 -30.949 Q -22.44 -30.674 -22.391 -30.513 Q -22.342 -30.351 -22.175 -30.282 Q -22.009 -30.214 -21.656 -30.214 L -21.656 -29.861 L -24.175 -29.861 L -24.175 -30.214 Q -23.802 -30.214 -23.636 -30.282 Q -23.469 -30.351 -23.43 -30.513 Q -23.391 -30.674 -23.391 -30.949 L -23.391 -32.821 Q -23.391 -33.477 -23.542 -33.786 Q -23.694 -34.095 -23.925 -34.193 Q -24.155 -34.291 -24.39 -34.291 Q -24.812 -34.291 -25.13 -34.075 Q -25.449 -33.859 -25.684 -33.663 L -25.684 -30.949 Q -25.684 -30.674 -25.64 -30.513 Q -25.596 -30.351 -25.429 -30.282 Q -25.262 -30.214 -24.9 -30.214 L -24.9 -29.861 L -27.369 -29.861 L -27.369 -30.214 Q -27.026 -30.214 -26.874 -30.282 Q -26.723 -30.351 -26.683 -30.513 Q -26.644 -30.674 -26.644 -30.949 L -26.644 -33.928 Q -26.644 -34.202 -26.747 -34.295 Q -26.85 -34.389 -27.075 -34.389 Q -27.193 -34.389 -27.271 -34.379 Q -27.35 -34.369 -27.35 -34.369 L -27.35 -34.741 L -26.037 -34.977 L -25.713 -34.977 L -25.713 -34.173 L -25.645 -34.173 Q -25.223 -34.555 -24.836 -34.781 Q -24.449 -35.006 -23.959 -35.006 Q -23.381 -35.006 -23.052 -34.746 Q -22.724 -34.487 -22.582 -34.065 Q -22.44 -33.644 -22.44 -33.144 Z " fill="black" /></g></g></g><g><g><g><path d="M 37.229 -94.933 L 37.229 -94.933 Q 37.229 -94.191 36.949 -93.687 Q 36.669 -93.183 36.221 -92.861 Q 35.773 -92.539 35.262 -92.364 Q 34.751 -92.189 34.289 -92.105 L 34.289 -92.035 Q 34.541 -91.867 34.765 -91.524 Q 34.989 -91.181 35.318 -90.537 Q 35.647 -89.893 36.221 -88.801 Q 36.459 -88.381 36.746 -88.234 Q 37.033 -88.087 37.509 -88.087 L 37.425 -87.667 L 35.297 -87.667 Q 34.905 -88.535 34.639 -89.116 Q 34.373 -89.697 34.177 -90.089 Q 33.981 -90.481 33.834 -90.789 Q 33.687 -91.097 33.519 -91.419 Q 33.365 -91.713 33.183 -91.804 Q 33.001 -91.895 32.623 -91.895 L 32.329 -91.895 L 31.811 -89.403 Q 31.699 -88.829 31.734 -88.542 Q 31.769 -88.255 32.049 -88.171 Q 32.329 -88.087 32.931 -88.087 L 32.861 -87.667 L 28.997 -87.667 L 29.081 -88.087 Q 29.599 -88.087 29.879 -88.171 Q 30.159 -88.255 30.306 -88.535 Q 30.453 -88.815 30.565 -89.403 L 31.797 -95.409 Q 31.881 -95.801 31.839 -96.025 Q 31.797 -96.249 31.552 -96.347 Q 31.307 -96.445 30.747 -96.445 L 30.831 -96.865 L 34.121 -96.865 Q 35.591 -96.865 36.41 -96.41 Q 37.229 -95.955 37.229 -94.933 Z M 33.211 -96.277 L 33.211 -96.277 L 32.427 -92.413 L 32.861 -92.399 Q 33.701 -92.427 34.38 -92.672 Q 35.059 -92.917 35.451 -93.449 Q 35.843 -93.981 35.843 -94.877 Q 35.843 -95.255 35.682 -95.584 Q 35.521 -95.913 35.129 -96.116 Q 34.737 -96.319 34.037 -96.319 Q 33.771 -96.319 33.61 -96.312 Q 33.449 -96.305 33.211 -96.277 Z " fill="black" /><path d="M 38.741 -86.511 L 38.741 -86.511 L 39.055 -86.511 Q 39.182 -85.943 39.359 -85.629 Q 39.535 -85.315 39.814 -85.193 Q 40.094 -85.07 40.495 -85.07 Q 40.956 -85.07 41.206 -85.222 Q 41.456 -85.374 41.456 -85.756 Q 41.456 -86.011 41.333 -86.183 Q 41.211 -86.354 40.941 -86.511 Q 40.672 -86.668 40.221 -86.874 Q 39.76 -87.099 39.432 -87.295 Q 39.104 -87.491 38.932 -87.756 Q 38.761 -88.02 38.761 -88.422 Q 38.761 -89.128 39.236 -89.5 Q 39.711 -89.872 40.427 -89.872 Q 40.858 -89.872 41.157 -89.765 Q 41.456 -89.657 41.632 -89.578 L 41.652 -89.578 L 41.809 -89.823 L 42.083 -89.823 L 42.103 -88.197 L 41.76 -88.197 Q 41.573 -88.951 41.24 -89.211 Q 40.907 -89.471 40.476 -89.471 Q 40.025 -89.471 39.795 -89.275 Q 39.564 -89.079 39.564 -88.765 Q 39.564 -88.51 39.721 -88.344 Q 39.878 -88.177 40.167 -88.035 Q 40.456 -87.893 40.858 -87.697 Q 41.309 -87.481 41.652 -87.251 Q 41.995 -87.021 42.191 -86.732 Q 42.387 -86.442 42.387 -86.011 Q 42.387 -85.492 42.112 -85.178 Q 41.838 -84.865 41.407 -84.732 Q 40.976 -84.6 40.505 -84.6 Q 40.025 -84.6 39.76 -84.698 Q 39.496 -84.796 39.27 -84.884 L 39.231 -84.884 L 38.986 -84.629 L 38.761 -84.629 Z " fill="black" /></g></g></g><g><g><g><path d="M 172.688 -73.106 L 172.688 -73.106 L 172.618 -72.672 Q 172.226 -72.672 172.002 -72.588 Q 171.778 -72.504 171.666 -72.273 Q 171.554 -72.042 171.47 -71.608 L 171.05 -69.578 Q 170.196 -69.144 169.405 -68.885 Q 168.614 -68.626 167.494 -68.626 Q 166.486 -68.626 165.807 -68.906 Q 165.128 -69.186 164.729 -69.669 Q 164.33 -70.152 164.155 -70.768 Q 163.98 -71.384 163.98 -72.056 Q 163.98 -73.568 164.449 -74.716 Q 164.918 -75.864 165.709 -76.627 Q 166.5 -77.39 167.494 -77.775 Q 168.488 -78.16 169.538 -78.16 Q 170.28 -78.16 170.693 -78.034 Q 171.106 -77.908 171.33 -77.775 Q 171.554 -77.642 171.736 -77.642 Q 171.89 -77.642 172.016 -77.782 Q 172.142 -77.922 172.31 -78.146 L 172.702 -78.146 L 172.058 -74.94 L 171.596 -74.94 Q 171.638 -76.34 171.064 -76.949 Q 170.49 -77.558 169.412 -77.558 Q 168.348 -77.558 167.431 -76.935 Q 166.514 -76.312 165.961 -75.157 Q 165.408 -74.002 165.394 -72.392 Q 165.394 -70.838 165.975 -70.04 Q 166.556 -69.242 167.83 -69.242 Q 168.474 -69.242 168.964 -69.438 Q 169.454 -69.634 169.916 -69.942 L 170.21 -71.468 Q 170.322 -71.972 170.287 -72.231 Q 170.252 -72.49 170.014 -72.581 Q 169.776 -72.672 169.244 -72.672 L 169.328 -73.106 Z " fill="black" /><path d="M 177.607 -65.84 L 177.607 -65.84 L 174.285 -65.84 L 174.285 -66.193 Q 174.991 -66.193 175.221 -66.335 Q 175.451 -66.477 175.451 -66.849 L 175.451 -71.122 Q 175.451 -71.387 175.373 -71.504 Q 175.295 -71.622 175.089 -71.622 Q 174.932 -71.622 174.662 -71.578 Q 174.393 -71.534 174.197 -71.485 L 174.197 -71.877 L 176.01 -72.377 L 176.431 -72.377 L 176.431 -66.849 Q 176.431 -66.477 176.681 -66.335 Q 176.931 -66.193 177.607 -66.193 Z " fill="black" /></g><g><path d="M 178.474 -66.932 L 178.474 -66.932 L 178.306 -67.282 Q 178.572 -67.394 178.838 -67.569 Q 179.104 -67.744 179.286 -68.08 Q 179.468 -68.416 179.468 -68.976 Q 179.244 -68.892 179.034 -68.892 Q 178.628 -68.892 178.446 -69.116 Q 178.264 -69.34 178.264 -69.648 Q 178.264 -69.984 178.488 -70.229 Q 178.712 -70.474 179.132 -70.474 Q 179.664 -70.474 179.937 -70.145 Q 180.21 -69.816 180.21 -69.242 Q 180.21 -68.654 180.021 -68.248 Q 179.832 -67.842 179.552 -67.59 Q 179.272 -67.338 178.978 -67.184 Q 178.684 -67.03 178.474 -66.932 Z " fill="black" /></g><g><path d="M 192.124 -75.696 L 192.124 -75.696 L 191.704 -75.696 Q 191.718 -76.368 191.627 -76.746 Q 191.536 -77.124 191.144 -77.278 Q 190.752 -77.432 189.842 -77.432 L 187.742 -77.432 L 186.986 -73.792 L 188.54 -73.792 Q 189.142 -73.792 189.471 -73.904 Q 189.8 -74.016 189.975 -74.317 Q 190.15 -74.618 190.262 -75.178 L 190.71 -75.178 L 190.066 -71.916 L 189.604 -71.916 Q 189.716 -72.518 189.66 -72.798 Q 189.604 -73.078 189.303 -73.169 Q 189.002 -73.26 188.4 -73.26 L 186.888 -73.26 L 186.286 -70.264 Q 186.258 -70.124 186.244 -70.005 Q 186.23 -69.886 186.23 -69.788 Q 186.23 -69.424 186.566 -69.312 Q 186.902 -69.2 187.546 -69.2 L 187.476 -68.78 L 183.444 -68.78 L 183.528 -69.2 Q 184.018 -69.2 184.305 -69.284 Q 184.592 -69.368 184.767 -69.627 Q 184.942 -69.886 185.04 -70.404 L 186.286 -76.396 Q 186.384 -76.886 186.342 -77.131 Q 186.3 -77.376 186.034 -77.467 Q 185.768 -77.558 185.194 -77.558 L 185.278 -77.978 L 192.502 -77.978 Z " fill="black" /><path d="M 195.952 -65.84 L 195.952 -65.84 L 192.629 -65.84 L 192.629 -66.193 Q 193.335 -66.193 193.565 -66.335 Q 193.796 -66.477 193.796 -66.849 L 193.796 -71.122 Q 193.796 -71.387 193.717 -71.504 Q 193.639 -71.622 193.433 -71.622 Q 193.276 -71.622 193.007 -71.578 Q 192.737 -71.534 192.541 -71.485 L 192.541 -71.877 L 194.354 -72.377 L 194.776 -72.377 L 194.776 -66.849 Q 194.776 -66.477 195.025 -66.335 Q 195.275 -66.193 195.952 -66.193 Z " fill="black" /></g></g></g><g><g><g><path d="M 352.541 -73.106 L 352.541 -73.106 L 352.471 -72.672 Q 352.079 -72.672 351.855 -72.588 Q 351.631 -72.504 351.519 -72.273 Q 351.407 -72.042 351.323 -71.608 L 350.903 -69.578 Q 350.049 -69.144 349.258 -68.885 Q 348.467 -68.626 347.347 -68.626 Q 346.339 -68.626 345.66 -68.906 Q 344.981 -69.186 344.582 -69.669 Q 344.183 -70.152 344.008 -70.768 Q 343.833 -71.384 343.833 -72.056 Q 343.833 -73.568 344.302 -74.716 Q 344.771 -75.864 345.562 -76.627 Q 346.353 -77.39 347.347 -77.775 Q 348.341 -78.16 349.391 -78.16 Q 350.133 -78.16 350.546 -78.034 Q 350.959 -77.908 351.183 -77.775 Q 351.407 -77.642 351.589 -77.642 Q 351.743 -77.642 351.869 -77.782 Q 351.995 -77.922 352.163 -78.146 L 352.555 -78.146 L 351.911 -74.94 L 351.449 -74.94 Q 351.491 -76.34 350.917 -76.949 Q 350.343 -77.558 349.265 -77.558 Q 348.201 -77.558 347.284 -76.935 Q 346.367 -76.312 345.814 -75.157 Q 345.261 -74.002 345.247 -72.392 Q 345.247 -70.838 345.828 -70.04 Q 346.409 -69.242 347.683 -69.242 Q 348.327 -69.242 348.817 -69.438 Q 349.307 -69.634 349.769 -69.942 L 350.063 -71.468 Q 350.175 -71.972 350.14 -72.231 Q 350.105 -72.49 349.867 -72.581 Q 349.629 -72.672 349.097 -72.672 L 349.181 -73.106 Z " fill="black" /><path d="M 358.019 -67.545 L 358.019 -67.545 L 357.686 -65.84 L 353.668 -65.84 L 353.668 -66.32 L 355.059 -67.731 Q 355.608 -68.28 355.966 -68.702 Q 356.324 -69.123 356.5 -69.549 Q 356.676 -69.976 356.676 -70.524 Q 356.676 -71.044 356.358 -71.382 Q 356.039 -71.72 355.461 -71.72 Q 354.932 -71.72 354.574 -71.509 Q 354.217 -71.299 353.942 -70.818 L 353.678 -70.946 Q 353.923 -71.632 354.437 -72.024 Q 354.952 -72.416 355.706 -72.416 Q 356.294 -72.416 356.745 -72.205 Q 357.196 -71.994 357.451 -71.602 Q 357.705 -71.21 357.705 -70.652 Q 357.705 -70.172 357.49 -69.75 Q 357.274 -69.329 356.877 -68.888 Q 356.48 -68.447 355.932 -67.908 L 354.707 -66.722 L 354.707 -66.653 L 355.471 -66.693 L 356.745 -66.693 Q 357.029 -66.693 357.181 -66.771 Q 357.333 -66.849 357.441 -67.041 Q 357.549 -67.232 357.676 -67.545 Z " fill="black" /></g><g><path d="M 358.474 -66.932 L 358.474 -66.932 L 358.306 -67.282 Q 358.572 -67.394 358.838 -67.569 Q 359.104 -67.744 359.286 -68.08 Q 359.468 -68.416 359.468 -68.976 Q 359.244 -68.892 359.034 -68.892 Q 358.628 -68.892 358.446 -69.116 Q 358.264 -69.34 358.264 -69.648 Q 358.264 -69.984 358.488 -70.229 Q 358.712 -70.474 359.132 -70.474 Q 359.664 -70.474 359.937 -70.145 Q 360.21 -69.816 360.21 -69.242 Q 360.21 -68.654 360.021 -68.248 Q 359.832 -67.842 359.552 -67.59 Q 359.272 -67.338 358.978 -67.184 Q 358.684 -67.03 358.474 -66.932 Z " fill="black" /></g><g><path d="M 372.124 -75.696 L 372.124 -75.696 L 371.704 -75.696 Q 371.718 -76.368 371.627 -76.746 Q 371.536 -77.124 371.144 -77.278 Q 370.752 -77.432 369.842 -77.432 L 367.742 -77.432 L 366.986 -73.792 L 368.54 -73.792 Q 369.142 -73.792 369.471 -73.904 Q 369.8 -74.016 369.975 -74.317 Q 370.15 -74.618 370.262 -75.178 L 370.71 -75.178 L 370.066 -71.916 L 369.604 -71.916 Q 369.716 -72.518 369.66 -72.798 Q 369.604 -73.078 369.303 -73.169 Q 369.002 -73.26 368.4 -73.26 L 366.888 -73.26 L 366.286 -70.264 Q 366.258 -70.124 366.244 -70.005 Q 366.23 -69.886 366.23 -69.788 Q 366.23 -69.424 366.566 -69.312 Q 366.902 -69.2 367.546 -69.2 L 367.476 -68.78 L 363.444 -68.78 L 363.528 -69.2 Q 364.018 -69.2 364.305 -69.284 Q 364.592 -69.368 364.767 -69.627 Q 364.942 -69.886 365.04 -70.404 L 366.286 -76.396 Q 366.384 -76.886 366.342 -77.131 Q 366.3 -77.376 366.034 -77.467 Q 365.768 -77.558 365.194 -77.558 L 365.278 -77.978 L 372.502 -77.978 Z " fill="black" /><path d="M 376.51 -67.545 L 376.51 -67.545 L 376.177 -65.84 L 372.159 -65.84 L 372.159 -66.32 L 373.551 -67.731 Q 374.099 -68.28 374.457 -68.702 Q 374.815 -69.123 374.991 -69.549 Q 375.168 -69.976 375.168 -70.524 Q 375.168 -71.044 374.849 -71.382 Q 374.531 -71.72 373.952 -71.72 Q 373.423 -71.72 373.065 -71.509 Q 372.708 -71.299 372.433 -70.818 L 372.169 -70.946 Q 372.414 -71.632 372.928 -72.024 Q 373.443 -72.416 374.197 -72.416 Q 374.785 -72.416 375.236 -72.205 Q 375.687 -71.994 375.942 -71.602 Q 376.197 -71.21 376.197 -70.652 Q 376.197 -70.172 375.981 -69.75 Q 375.765 -69.329 375.368 -68.888 Q 374.972 -68.447 374.423 -67.908 L 373.198 -66.722 L 373.198 -66.653 L 373.962 -66.693 L 375.236 -66.693 Q 375.52 -66.693 375.672 -66.771 Q 375.824 -66.849 375.932 -67.041 Q 376.04 -67.232 376.167 -67.545 Z " fill="black" /></g></g></g><g><g><g><path d="M 532.541 -73.17 L 532.541 -73.17 L 532.471 -72.736 Q 532.079 -72.736 531.855 -72.652 Q 531.631 -72.568 531.519 -72.337 Q 531.407 -72.106 531.323 -71.672 L 530.903 -69.642 Q 530.049 -69.208 529.258 -68.949 Q 528.467 -68.69 527.347 -68.69 Q 526.339 -68.69 525.66 -68.97 Q 524.981 -69.25 524.582 -69.733 Q 524.183 -70.216 524.008 -70.832 Q 523.833 -71.448 523.833 -72.12 Q 523.833 -73.632 524.302 -74.78 Q 524.771 -75.928 525.562 -76.691 Q 526.353 -77.454 527.347 -77.839 Q 528.341 -78.224 529.391 -78.224 Q 530.133 -78.224 530.546 -78.098 Q 530.959 -77.972 531.183 -77.839 Q 531.407 -77.706 531.589 -77.706 Q 531.743 -77.706 531.869 -77.846 Q 531.995 -77.986 532.163 -78.21 L 532.555 -78.21 L 531.911 -75.004 L 531.449 -75.004 Q 531.491 -76.404 530.917 -77.013 Q 530.343 -77.622 529.265 -77.622 Q 528.201 -77.622 527.284 -76.999 Q 526.367 -76.376 525.814 -75.221 Q 525.261 -74.066 525.247 -72.456 Q 525.247 -70.902 525.828 -70.104 Q 526.409 -69.306 527.683 -69.306 Q 528.327 -69.306 528.817 -69.502 Q 529.307 -69.698 529.769 -70.006 L 530.063 -71.532 Q 530.175 -72.036 530.14 -72.295 Q 530.105 -72.554 529.867 -72.645 Q 529.629 -72.736 529.097 -72.736 L 529.181 -73.17 Z " fill="black" /><path d="M 534.05 -71 L 534.05 -71 L 533.766 -71.137 Q 534.06 -71.803 534.545 -72.141 Q 535.03 -72.48 535.638 -72.48 Q 536.422 -72.48 536.902 -72.097 Q 537.382 -71.715 537.382 -71.108 Q 537.382 -70.578 537.059 -70.255 Q 536.735 -69.931 536.255 -69.618 L 536.255 -69.569 Q 536.667 -69.461 537.014 -69.245 Q 537.362 -69.03 537.568 -68.692 Q 537.774 -68.354 537.774 -67.874 Q 537.774 -67.335 537.539 -66.938 Q 537.304 -66.541 536.902 -66.281 Q 536.5 -66.021 535.985 -65.899 Q 535.471 -65.776 534.912 -65.776 Q 534.432 -65.776 534.182 -65.86 Q 533.932 -65.943 533.839 -66.08 Q 533.746 -66.217 533.746 -66.355 Q 533.746 -66.521 533.844 -66.683 Q 533.942 -66.844 534.177 -66.844 Q 534.275 -66.844 534.378 -66.791 Q 534.481 -66.737 534.756 -66.58 Q 534.981 -66.472 535.113 -66.413 Q 535.246 -66.355 535.348 -66.335 Q 535.451 -66.315 535.589 -66.315 Q 535.883 -66.315 536.172 -66.423 Q 536.461 -66.531 536.657 -66.81 Q 536.853 -67.09 536.853 -67.599 Q 536.853 -68.05 536.603 -68.373 Q 536.353 -68.697 535.932 -68.878 Q 535.51 -69.059 535.001 -69.059 L 534.785 -69.059 L 534.785 -69.52 L 534.991 -69.52 Q 535.344 -69.52 535.677 -69.682 Q 536.01 -69.843 536.226 -70.142 Q 536.441 -70.441 536.441 -70.853 Q 536.441 -71.313 536.142 -71.549 Q 535.843 -71.784 535.383 -71.784 Q 534.53 -71.784 534.05 -71 Z " fill="black" /></g><g><path d="M 538.474 -66.996 L 538.474 -66.996 L 538.306 -67.346 Q 538.572 -67.458 538.838 -67.633 Q 539.104 -67.808 539.286 -68.144 Q 539.468 -68.48 539.468 -69.04 Q 539.244 -68.956 539.034 -68.956 Q 538.628 -68.956 538.446 -69.18 Q 538.264 -69.404 538.264 -69.712 Q 538.264 -70.048 538.488 -70.293 Q 538.712 -70.538 539.132 -70.538 Q 539.664 -70.538 539.937 -70.209 Q 540.21 -69.88 540.21 -69.306 Q 540.21 -68.718 540.021 -68.312 Q 539.832 -67.906 539.552 -67.654 Q 539.272 -67.402 538.978 -67.248 Q 538.684 -67.094 538.474 -66.996 Z " fill="black" /></g><g><path d="M 552.124 -75.76 L 552.124 -75.76 L 551.704 -75.76 Q 551.718 -76.432 551.627 -76.81 Q 551.536 -77.188 551.144 -77.342 Q 550.752 -77.496 549.842 -77.496 L 547.742 -77.496 L 546.986 -73.856 L 548.54 -73.856 Q 549.142 -73.856 549.471 -73.968 Q 549.8 -74.08 549.975 -74.381 Q 550.15 -74.682 550.262 -75.242 L 550.71 -75.242 L 550.066 -71.98 L 549.604 -71.98 Q 549.716 -72.582 549.66 -72.862 Q 549.604 -73.142 549.303 -73.233 Q 549.002 -73.324 548.4 -73.324 L 546.888 -73.324 L 546.286 -70.328 Q 546.258 -70.188 546.244 -70.069 Q 546.23 -69.95 546.23 -69.852 Q 546.23 -69.488 546.566 -69.376 Q 546.902 -69.264 547.546 -69.264 L 547.476 -68.844 L 543.444 -68.844 L 543.528 -69.264 Q 544.018 -69.264 544.305 -69.348 Q 544.592 -69.432 544.767 -69.691 Q 544.942 -69.95 545.04 -70.468 L 546.286 -76.46 Q 546.384 -76.95 546.342 -77.195 Q 546.3 -77.44 546.034 -77.531 Q 545.768 -77.622 545.194 -77.622 L 545.278 -78.042 L 552.502 -78.042 Z " fill="black" /><path d="M 552.541 -71 L 552.541 -71 L 552.257 -71.137 Q 552.551 -71.803 553.036 -72.141 Q 553.521 -72.48 554.129 -72.48 Q 554.913 -72.48 555.393 -72.097 Q 555.873 -71.715 555.873 -71.108 Q 555.873 -70.578 555.55 -70.255 Q 555.226 -69.931 554.746 -69.618 L 554.746 -69.569 Q 555.158 -69.461 555.506 -69.245 Q 555.854 -69.03 556.059 -68.692 Q 556.265 -68.354 556.265 -67.874 Q 556.265 -67.335 556.03 -66.938 Q 555.795 -66.541 555.393 -66.281 Q 554.991 -66.021 554.477 -65.899 Q 553.962 -65.776 553.404 -65.776 Q 552.923 -65.776 552.673 -65.86 Q 552.424 -65.943 552.33 -66.08 Q 552.237 -66.217 552.237 -66.355 Q 552.237 -66.521 552.335 -66.683 Q 552.433 -66.844 552.669 -66.844 Q 552.767 -66.844 552.87 -66.791 Q 552.972 -66.737 553.247 -66.58 Q 553.472 -66.472 553.604 -66.413 Q 553.737 -66.355 553.84 -66.335 Q 553.943 -66.315 554.08 -66.315 Q 554.374 -66.315 554.663 -66.423 Q 554.952 -66.531 555.148 -66.81 Q 555.344 -67.09 555.344 -67.599 Q 555.344 -68.05 555.094 -68.373 Q 554.844 -68.697 554.423 -68.878 Q 554.001 -69.059 553.492 -69.059 L 553.276 -69.059 L 553.276 -69.52 L 553.482 -69.52 Q 553.835 -69.52 554.168 -69.682 Q 554.501 -69.843 554.717 -70.142 Q 554.932 -70.441 554.932 -70.853 Q 554.932 -71.313 554.633 -71.549 Q 554.335 -71.784 553.874 -71.784 Q 553.021 -71.784 552.541 -71 Z " fill="black" /></g></g></g><g><g><g><path d="M 631.202 -40.196 L 631.202 -40.196 Q 631.202 -39.454 630.922 -38.95 Q 630.642 -38.446 630.194 -38.124 Q 629.746 -37.802 629.235 -37.627 Q 628.724 -37.452 628.262 -37.368 L 628.262 -37.298 Q 628.514 -37.13 628.738 -36.787 Q 628.962 -36.444 629.291 -35.8 Q 629.62 -35.156 630.194 -34.064 Q 630.432 -33.644 630.719 -33.497 Q 631.006 -33.35 631.482 -33.35 L 631.398 -32.93 L 629.27 -32.93 Q 628.878 -33.798 628.612 -34.379 Q 628.346 -34.96 628.15 -35.352 Q 627.954 -35.744 627.807 -36.052 Q 627.66 -36.36 627.492 -36.682 Q 627.338 -36.976 627.156 -37.067 Q 626.974 -37.158 626.596 -37.158 L 626.302 -37.158 L 625.784 -34.666 Q 625.672 -34.092 625.707 -33.805 Q 625.742 -33.518 626.022 -33.434 Q 626.302 -33.35 626.904 -33.35 L 626.834 -32.93 L 622.97 -32.93 L 623.054 -33.35 Q 623.572 -33.35 623.852 -33.434 Q 624.132 -33.518 624.279 -33.798 Q 624.426 -34.078 624.538 -34.666 L 625.77 -40.672 Q 625.854 -41.064 625.812 -41.288 Q 625.77 -41.512 625.525 -41.61 Q 625.28 -41.708 624.72 -41.708 L 624.804 -42.128 L 628.094 -42.128 Q 629.564 -42.128 630.383 -41.673 Q 631.202 -41.218 631.202 -40.196 Z M 627.184 -41.54 L 627.184 -41.54 L 626.4 -37.676 L 626.834 -37.662 Q 627.674 -37.69 628.353 -37.935 Q 629.032 -38.18 629.424 -38.712 Q 629.816 -39.244 629.816 -40.14 Q 629.816 -40.518 629.655 -40.847 Q 629.494 -41.176 629.102 -41.379 Q 628.71 -41.582 628.01 -41.582 Q 627.744 -41.582 627.583 -41.575 Q 627.422 -41.568 627.184 -41.54 Z " fill="black" /><path d="M 635.075 -30.352 L 635.075 -30.352 L 635.075 -29.99 L 632.596 -29.99 L 632.596 -30.352 Q 632.939 -30.352 633.091 -30.421 Q 633.243 -30.49 633.282 -30.651 Q 633.321 -30.813 633.321 -31.087 L 633.321 -36.262 Q 633.321 -36.575 633.208 -36.644 Q 633.096 -36.713 632.861 -36.713 Q 632.733 -36.713 632.65 -36.698 Q 632.567 -36.683 632.567 -36.683 L 632.567 -37.056 L 633.899 -37.31 L 634.282 -37.31 L 634.282 -31.087 Q 634.282 -30.803 634.326 -30.641 Q 634.37 -30.48 634.541 -30.416 Q 634.713 -30.352 635.075 -30.352 Z " fill="black" /><path d="M 638.505 -35.135 L 638.505 -35.135 Q 639.24 -35.135 639.789 -34.816 Q 640.338 -34.498 640.637 -33.924 Q 640.936 -33.351 640.936 -32.577 Q 640.936 -31.646 640.622 -31.048 Q 640.309 -30.45 639.76 -30.161 Q 639.211 -29.872 638.505 -29.872 Q 637.79 -29.872 637.236 -30.171 Q 636.683 -30.47 636.374 -31.068 Q 636.065 -31.666 636.065 -32.567 Q 636.065 -33.332 636.369 -33.91 Q 636.673 -34.488 637.222 -34.811 Q 637.77 -35.135 638.505 -35.135 Z M 638.486 -34.684 L 638.486 -34.684 Q 637.839 -34.684 637.471 -34.16 Q 637.104 -33.635 637.104 -32.626 Q 637.104 -31.381 637.481 -30.867 Q 637.859 -30.352 638.535 -30.352 Q 638.966 -30.362 639.27 -30.568 Q 639.574 -30.774 639.735 -31.259 Q 639.897 -31.744 639.897 -32.577 Q 639.897 -33.577 639.554 -34.13 Q 639.211 -34.684 638.486 -34.684 Z " fill="black" /><path d="M 645.052 -30.607 L 645.052 -30.607 L 644.983 -30.607 Q 644.65 -30.333 644.248 -30.127 Q 643.846 -29.921 643.376 -29.921 Q 642.759 -29.921 642.43 -30.294 Q 642.102 -30.666 642.102 -31.195 Q 642.102 -31.646 642.313 -31.95 Q 642.523 -32.254 642.861 -32.445 Q 643.2 -32.636 643.592 -32.753 Q 643.984 -32.871 644.346 -32.94 Q 644.709 -33.008 644.954 -33.067 L 644.954 -33.577 Q 644.954 -34.233 644.694 -34.483 Q 644.434 -34.733 643.935 -34.733 Q 643.631 -34.733 643.498 -34.655 Q 643.366 -34.576 643.332 -34.4 Q 643.298 -34.223 643.288 -33.939 Q 643.278 -33.724 643.16 -33.591 Q 643.043 -33.459 642.817 -33.459 Q 642.602 -33.459 642.45 -33.591 Q 642.298 -33.724 642.298 -33.978 Q 642.298 -34.282 642.533 -34.547 Q 642.768 -34.811 643.204 -34.973 Q 643.641 -35.135 644.229 -35.135 Q 645.111 -35.135 645.507 -34.728 Q 645.904 -34.321 645.904 -33.508 L 645.904 -31.107 Q 645.904 -30.784 645.978 -30.691 Q 646.051 -30.597 646.208 -30.597 Q 646.375 -30.597 646.497 -30.666 Q 646.62 -30.735 646.728 -30.862 L 646.943 -30.656 Q 646.434 -29.931 645.748 -29.931 Q 645.365 -29.931 645.223 -30.112 Q 645.081 -30.294 645.052 -30.607 Z M 644.954 -30.97 L 644.954 -30.97 L 644.954 -32.695 Q 644.503 -32.577 644.072 -32.435 Q 643.641 -32.293 643.361 -32.048 Q 643.082 -31.803 643.082 -31.362 Q 643.082 -30.98 643.302 -30.759 Q 643.523 -30.539 643.866 -30.539 Q 644.072 -30.539 644.361 -30.632 Q 644.65 -30.725 644.954 -30.97 Z " fill="black" /><path d="M 652.823 -30.117 L 652.823 -30.117 L 651.5 -29.941 L 651.147 -29.941 L 651.147 -30.627 L 651.079 -30.627 Q 650.755 -30.352 650.349 -30.127 Q 649.942 -29.902 649.432 -29.902 Q 648.854 -29.902 648.447 -30.215 Q 648.041 -30.529 647.825 -31.078 Q 647.61 -31.626 647.61 -32.322 Q 647.61 -33.194 647.948 -33.826 Q 648.286 -34.459 648.849 -34.797 Q 649.413 -35.135 650.079 -35.135 Q 650.657 -35.135 651.128 -34.87 L 651.128 -36.134 Q 651.128 -36.487 651.054 -36.6 Q 650.981 -36.713 650.667 -36.713 Q 650.599 -36.713 650.486 -36.698 Q 650.373 -36.683 650.373 -36.683 L 650.373 -37.056 L 651.677 -37.31 L 652.078 -37.31 L 652.078 -31.097 Q 652.078 -30.715 652.186 -30.602 Q 652.294 -30.49 652.559 -30.49 L 652.823 -30.49 Z M 651.128 -31.078 L 651.128 -31.078 L 651.128 -33.939 Q 651.02 -34.214 650.77 -34.429 Q 650.52 -34.645 650.06 -34.645 Q 649.403 -34.645 648.982 -34.199 Q 648.56 -33.753 648.56 -32.724 Q 648.56 -31.675 648.928 -31.19 Q 649.295 -30.705 649.962 -30.705 Q 650.275 -30.705 650.535 -30.793 Q 650.795 -30.882 651.128 -31.078 Z " fill="black" /></g></g></g><circle cx="90.0" cy="-72.0" r="2.6999999999999997" style="stroke:black;fill:white;stroke-width:2.0;stroke-dasharray:-;" /><circle cx="270.0" cy="-72.0" r="2.6999999999999997" style="stroke:black;fill:white;stroke-width:2.0;stroke-dasharray:-;" /><circle cx="450.0" cy="-72.0" r="2.6999999999999997" style="stroke:black;fill:white;stroke-width:2.0;stroke-dasharray:-;" /><circle cx="630.0" cy="-72.0" r="2.6999999999999997" style="stroke:black;fill:white;stroke-width:2.0;stroke-dasharray:-;" /></svg>