<svg xmlns="http://www.w3.org/2000/svg" xmlns:xlink="http://www.w3.org/1999/xlink" xml:lang="en" height="255.68400000000003pt" width="463.1442pt" viewBox="-4.6 -39.32 463.1442 255.68400000000003"><circle cx="18.0" cy="-0.0" r="18.0" style="stroke:black;fill:none;stroke-width:2.0;stroke-dasharray:-;" /><circle cx="342.0" cy="-0.0" r="18.0" style="stroke:black;fill:none;stroke-width:2.0;stroke-dasharray:-;" /><path d="M 7.2,-4.4087284769304716e-16 L 8.336842105263157,-1.168918089136861 L 9.473684210526317,-2.2111657656828045 L 10.610526315789475,-3.013799321745103 L 11.747368421052633,-3.4898409573815896 L 12.88421052631579,-3.5877041748240117 L 14.021052631578947,-3.2967839759582067 L 15.157894736842104,-2.648606078423274 L 16.294736842105262,-1.7134106149334647 L 17.431578947368422,-0.5925405250106421 L 18.56842105263158,0.5925405250106421 L 19.705263157894738,1.7134106149334647 L 20.84210526315789,2.6486060784232732 L 21.978947368421053,3.2967839759582063 L 23.11578947368421,3.5877041748240117 L 24.25263157894737,3.48984095738159 L 25.389473684210525,3.013799321745103 L 26.52631578947368,2.2111657656828045 L 27.66315789473684,1.168918089136861 L 28.8,4.4087284769304716e-16" style="stroke:black;fill:none;stroke-width:2.0;stroke-dasharray:-;stroke-linecap:round;stroke-linejoin:round;" /><path d="M 36.0,-0.0 L 72.0,-0.0 L 99.0,-0.0" style="stroke:black;fill:none;stroke-width:2.0;stroke-dasharray:-;stroke-linecap:round;stroke-linejoin:round;" /><path d="M 106.0 0.0 L 99.0 2.6999999999999997 L 99.0 -2.6999999999999997 Z" style="stroke:black;fill:black;stroke-linecap:butt;stroke-linejoin:miter;" /><path d="M 108.0,-0.0 L 108.0,-18.0 L 144.0,-18.0 L 144.0,18.0 L 108.0,18.0 L 108.0,-0.0" style="stroke:black;fill:none;stroke-width:2.0;stroke-dasharray:-;stroke-linecap:round;stroke-linejoin:round;" /><path d="M 144.0,-0.0 L 162.0,-0.0 L 180.0,-0.0" style="stroke:black;fill:none;stroke-width:2.0;stroke-dasharray:-;stroke-linecap:round;stroke-linejoin:round;" /><path d="M 180.0,-0.0 L 198.0,-0.0 L 207.0,-0.0" style="stroke:black;fill:none;stroke-width:2.0;stroke-dasharray:-;stroke-linecap:round;stroke-linejoin:round;" /><path d="M 214.0 0.0 L 207.0 2.6999999999999997 L 207.0 -2.6999999999999997 Z" style="stroke:black;fill:black;stroke-linecap:butt;stroke-linejoin:miter;" /><path d="M 216.0,-0.0 L 216.0,-18.0 L 252.0,-18.0 L 252.0,18.0 L 216.0,18.0 L 216.0,-0.0" style="stroke:black;fill:none;stroke-width:2.0;stroke-dasharray:-;stroke-linecap:round;stroke-linejoin:round;" /><path d="M 223.20000000000002,-4.4087284769304716e-16 L 224.33684210526314,-1.168918089136861 L 225.47368421052633,-2.2111657656828045 L 226.61052631578949,-3.013799321745103 L 227.7473684210526,-3.4898409573815896 L 228.8842105263158,-3.5877041748240117 L 230.02105263157895,-3.2967839759582067 L 231.15789473684208,-2.648606078423274 L 232.29473684210527,-1.7134106149334647 L 233.43157894736842,-0.5925405250106421 L 234.56842105263158,0.5925405250106421 L 235.70526315789473,1.7134106149334647 L 236.8421052631579,2.6486060784232732 L 237.97894736842105,3.2967839759582063 L 239.1157894736842,3.5877041748240117 L 240.2526315789474,3.48984095738159 L 241.38947368421051,3.013799321745103 L 242.52631578947367,2.2111657656828045 L 243.66315789473686,1.168918089136861 L 244.79999999999998,4.4087284769304716e-16" style="stroke:black;fill:none;stroke-width:2.0;stroke-dasharray:-;stroke-linecap:round;stroke-linejoin:round;" /><path d="M 223.20000000000002,-9.0 L 224.33684210526314,-10.16891808913686 L 225.47368421052633,-11.211165765682804 L 226.61052631578949,-12.013799321745104 L 227.7473684210526,-12.489840957381588 L 228.8842105263158,-12.587704174824012 L 230.02105263157895,-12.296783975958206 L 231.15789473684208,-11.648606078423274 L 232.29473684210527,-10.713410614933464 L 233.43157894736842,-9.592540525010643 L 234.56842105263158,-8.407459474989357 L 235.70526315789473,-7.286589385066535 L 236.8421052631579,-6.351393921576727 L 237.97894736842105,-5.703216024041794 L 239.1157894736842,-5.412295825175989 L 240.2526315789474,-5.51015904261841 L 241.38947368421051,-5.986200678254896 L 242.52631578947367,-6.7888342343171955 L 243.66315789473686,-7.831081910863139 L 244.79999999999998,-9.0" style="stroke:black;fill:none;stroke-width:2.0;stroke-dasharray:-;stroke-linecap:round;stroke-linejoin:round;" /><path d="M 223.20000000000002,9.0 L 224.33684210526314,7.831081910863139 L 225.47368421052633,6.7888342343171955 L 226.61052631578949,5.986200678254896 L 227.7473684210526,5.510159042618411 L 228.8842105263158,5.412295825175989 L 230.02105263157895,5.703216024041793 L 231.15789473684208,6.351393921576726 L 232.29473684210527,7.286589385066535 L 233.43157894736842,8.407459474989357 L 234.56842105263158,9.592540525010643 L 235.70526315789473,10.713410614933464 L 236.8421052631579,11.648606078423274 L 237.97894736842105,12.296783975958206 L 239.1157894736842,12.587704174824012 L 240.2526315789474,12.489840957381592 L 241.38947368421051,12.013799321745104 L 242.52631578947367,11.211165765682804 L 243.66315789473686,10.16891808913686 L 244.79999999999998,9.0" style="stroke:black;fill:none;stroke-width:2.0;stroke-dasharray:-;stroke-linecap:round;stroke-linejoin:round;" /><path d="M 232.20000000000002,-6.12 L 235.79999999999998,-11.88" style="stroke:black;fill:none;stroke-width:2.0;stroke-dasharray:-;stroke-linecap:round;stroke-linejoin:round;" /><path d="M 232.20000000000002,2.88 L 235.79999999999998,-2.88" style="stroke:black;fill:none;stroke-width:2.0;stroke-dasharray:-;stroke-linecap:round;stroke-linejoin:round;" /><path d="M 252.0,-0.0 L 288.0,-0.0 L 315.0,-0.0" style="stroke:black;fill:none;stroke-width:2.0;stroke-dasharray:-;stroke-linecap:round;stroke-linejoin:round;" /><path d="M 322.0 0.0 L 315.0 2.6999999999999997 L 315.0 -2.6999999999999997 Z" style="stroke:black;fill:black;stroke-linecap:butt;stroke-linejoin:miter;" /><path d="M 331.2,-4.4087284769304716e-16 L 332.33684210526314,-1.168918089136861 L 333.47368421052636,-2.2111657656828045 L 334.61052631578946,-3.013799321745103 L 335.7473684210526,-3.4898409573815896 L 336.88421052631577,-3.5877041748240117 L 338.021052631579,-3.2967839759582067 L 339.1578947368421,-2.648606078423274 L 340.2947368421053,-1.7134106149334647 L 341.43157894736845,-0.5925405250106421 L 342.56842105263155,0.5925405250106421 L 343.7052631578947,1.7134106149334647 L 344.8421052631579,2.6486060784232732 L 345.978947368421,3.2967839759582063 L 347.11578947368423,3.5877041748240117 L 348.2526315789474,3.48984095738159 L 349.38947368421054,3.013799321745103 L 350.52631578947364,2.2111657656828045 L 351.66315789473686,1.168918089136861 L 352.8,4.4087284769304716e-16" style="stroke:black;fill:none;stroke-width:2.0;stroke-dasharray:-;stroke-linecap:round;stroke-linejoin:round;" /><path d="M 360.0,-0.0 L 378.0,-0.0 L 396.0,-0.0" style="stroke:black;fill:none;stroke-width:2.0;stroke-dasharray:-;stroke-linecap:round;stroke-linejoin:round;" /><path d="M 396.0,-0.0 L 414.0,-0.0 L 423.0,-0.0" style="stroke:black;fill:none;stroke-width:2.0;stroke-dasharray:-;stroke-linecap:round;stroke-linejoin:round;" /><path d="M 430.0 0.0 L 423.0 2.6999999999999997 L 423.0 -2.6999999999999997 Z" style="stroke:black;fill:black;stroke-linecap:butt;stroke-linejoin:miter;" /><path d="M 396.0,-0.0 L 396.0,36.0 L 396.0,72.0" style="stroke:black;fill:none;stroke-width:2.0;stroke-dasharray:-;stroke-linecap:round;stroke-linejoin:round;" /><path d="M 396.0,72.0 L 396.0,90.0 L 396.0,108.0" style="stroke:black;fill:none;stroke-width:2.0;stroke-dasharray:-;stroke-linecap:round;stroke-linejoin:round;" /><path d="M 396.0,108.0 L 378.0,108.0 L 369.0,108.0" style="stroke:black;fill:none;stroke-width:2.0;stroke-dasharray:-;stroke-linecap:round;stroke-linejoin:round;" /><path d="M 362.0 108.0 L 369.0 105.3 L 369.0 110.7 Z" style="stroke:black;fill:black;stroke-linecap:butt;stroke-linejoin:miter;" /><path d="M 360.0,108.0 L 360.0,126.0 L 324.0,126.0 L 324.0,90.0 L 360.0,90.0 L 360.0,108.0" style="stroke:black;fill:none;stroke-width:2.0;stroke-dasharray:-;stroke-linecap:round;stroke-linejoin:round;" /><path d="M 324.0,108.0 L 306.0,108.0 L 297.0,108.0" style="stroke:black;fill:none;stroke-width:2.0;stroke-dasharray:-;stroke-linecap:round;stroke-linejoin:round;" /><path d="M 290.0 108.0 L 297.0 105.3 L 297.0 110.7 Z" style="stroke:black;fill:black;stroke-linecap:butt;stroke-linejoin:miter;" /><path d="M 288.0,108.0 L 288.0,126.0 L 252.0,126.0 L 252.0,90.0 L 288.0,90.0 L 288.0,108.0" style="stroke:black;fill:none;stroke-width:2.0;stroke-dasharray:-;stroke-linecap:round;stroke-linejoin:round;" /><path d="M 252.0,108.0 L 189.0,108.0 L 126.0,107.99999999999999" style="stroke:black;fill:none;stroke-width:2.0;stroke-dasharray:-;stroke-linecap:round;stroke-linejoin:round;" /><path d="M 126.0,107.99999999999999 L 126.0,62.99999999999999 L 126.0,27.0" style="stroke:black;fill:none;stroke-width:2.0;stroke-dasharray:-;stroke-linecap:round;stroke-linejoin:round;" /><path d="M 126.0 20.0 L 128.7 27.0 L 123.3 27.0 Z" style="stroke:black;fill:black;stroke-linecap:butt;stroke-linejoin:miter;" /><path d="M 126.0,107.99999999999999 L 126.0,134.99999999999997 L 125.99999999999999,162.0" style="stroke:black;fill:none;stroke-width:2.0;stroke-dasharray:-;stroke-linecap:round;stroke-linejoin:round;" /><path d="M 125.99999999999999,162.0 L 143.99999999999997,162.0 L 153.0,162.0" style="stroke:black;fill:none;stroke-width:2.0;stroke-dasharray:-;stroke-linecap:round;stroke-linejoin:round;" /><path d="M 160.0 162.0 L 153.0 164.7 L 153.0 159.3 Z" style="stroke:black;fill:black;stroke-linecap:butt;stroke-linejoin:miter;" /><path d="M 162.0,162.0 L 162.0,144.0 L 198.0,144.0 L 198.0,180.0 L 162.0,180.0 L 162.0,162.0" style="stroke:black;fill:none;stroke-width:2.0;stroke-dasharray:-;stroke-linecap:round;stroke-linejoin:round;" /><path d="M 198.0,162.0 L 270.0,162.0 L 342.0,162.0" style="stroke:black;fill:none;stroke-width:2.0;stroke-dasharray:-;stroke-linecap:round;stroke-linejoin:round;" /><path d="M 342.0,162.0 L 342.0,144.0 L 342.0,135.0" style="stroke:black;fill:none;stroke-width:2.0;stroke-dasharray:-;stroke-linecap:round;stroke-linejoin:round;" /><path d="M 342.0 128.0 L 344.7 135.0 L 339.3 135.0 Z" style="stroke:black;fill:black;stroke-linecap:butt;stroke-linejoin:miter;" /><path d="M 180.0,189.0 L 180.0,189.0 L 180.0,198.0" style="stroke:black;fill:none;stroke-width:2.0;stroke-dasharray:-;stroke-linecap:round;stroke-linejoin:round;" /><path d="M 180.0 182.0 L 182.7 189.0 L 177.3 189.0 Z" style="stroke:black;fill:black;stroke-linecap:butt;stroke-linejoin:miter;" /><path d="M 396.0,72.0 L 333.0,71.99999999999999 L 270.0,71.99999999999999" style="stroke:black;fill:none;stroke-width:2.0;stroke-dasharray:-;stroke-linecap:round;stroke-linejoin:round;" /><path d="M 270.0,71.99999999999999 L 270.0,81.0 L 270.0,81.0" style="stroke:black;fill:none;stroke-width:2.0;stroke-dasharray:-;stroke-linecap:round;stroke-linejoin:round;" /><path d="M 270.0 88.0 L 267.3 81.0 L 272.7 81.0 Z" style="stroke:black;fill:black;stroke-linecap:butt;stroke-linejoin:miter;" /><path d="M 180.0,-0.0 L 180.0,18.0 L 180.0,36.0" style="stroke:black;fill:none;stroke-width:2.0;stroke-dasharray:-;stroke-linecap:round;stroke-linejoin:round;" /><path d="M 180.0,36.0 L 198.0,36.0 L 198.0,72.0 L 162.0,72.0 L 162.0,35.99999999999999 L 180.0,36.0" style="stroke:black;fill:none;stroke-width:2.0;stroke-dasharray:-;stroke-linecap:round;stroke-linejoin:round;" /><g><g><g><path d="M 65.033 -18.688 L 65.033 -18.688 L 66.237 -18.688 Q 66.363 -19.276 66.51 -19.822 Q 66.657 -20.368 66.895 -20.802 Q 67.077 -21.138 67.343 -21.432 Q 67.609 -21.726 68.022 -21.915 Q 68.435 -22.104 69.037 -22.104 Q 69.681 -22.104 70.024 -21.817 Q 70.367 -21.53 70.367 -21.082 Q 70.367 -20.774 70.199 -20.62 Q 70.031 -20.466 69.807 -20.466 Q 69.527 -20.466 69.401 -20.627 Q 69.275 -20.788 69.247 -21.012 Q 69.205 -21.278 69.142 -21.488 Q 69.079 -21.698 68.827 -21.698 Q 68.295 -21.698 68.001 -21.138 Q 67.707 -20.578 67.553 -19.682 L 67.385 -18.688 L 68.715 -18.688 L 68.631 -18.114 L 67.315 -18.114 L 66.517 -13.34 Q 66.461 -12.976 66.342 -12.43 Q 66.223 -11.884 66.013 -11.289 Q 65.803 -10.694 65.502 -10.176 Q 65.201 -9.658 64.767 -9.329 Q 64.333 -9 63.759 -9 Q 63.087 -9 62.8 -9.322 Q 62.513 -9.644 62.513 -10.008 Q 62.513 -10.302 62.66 -10.498 Q 62.807 -10.694 63.073 -10.694 Q 63.395 -10.694 63.507 -10.505 Q 63.619 -10.316 63.647 -10.071 Q 63.675 -9.826 63.731 -9.637 Q 63.787 -9.448 63.983 -9.448 Q 64.263 -9.448 64.473 -9.812 Q 64.683 -10.176 64.837 -10.715 Q 64.991 -11.254 65.089 -11.786 Q 65.187 -12.318 65.243 -12.668 L 66.153 -18.114 L 64.977 -18.114 Z " fill="black" /><path d="M 69.831 -14.326 L 69.831 -14.326 L 69.831 -13.267 L 69.889 -13.267 Q 70.282 -13.816 70.59 -14.105 Q 70.899 -14.394 71.261 -14.394 Q 71.889 -14.394 71.889 -13.777 Q 71.889 -13.434 71.737 -13.297 Q 71.585 -13.159 71.409 -13.159 Q 71.232 -13.159 71.09 -13.257 Q 70.948 -13.355 70.85 -13.453 Q 70.752 -13.551 70.703 -13.551 Q 70.546 -13.551 70.296 -13.287 Q 70.046 -13.022 69.85 -12.689 L 69.85 -10.337 Q 69.85 -9.857 70.061 -9.715 Q 70.272 -9.573 70.811 -9.573 L 70.811 -9.21 L 68.145 -9.21 L 68.145 -9.573 Q 68.478 -9.573 68.635 -9.631 Q 68.792 -9.69 68.841 -9.842 Q 68.89 -9.994 68.89 -10.268 L 68.89 -13.11 Q 68.89 -13.424 68.836 -13.581 Q 68.782 -13.738 68.478 -13.738 Q 68.341 -13.738 68.243 -13.728 Q 68.145 -13.718 68.145 -13.718 L 68.145 -14.081 L 69.468 -14.326 Z " fill="black" /><path d="M 76.799 -10.67 L 76.799 -10.67 L 77.034 -10.484 Q 76.828 -10.112 76.573 -9.798 Q 76.318 -9.484 75.946 -9.298 Q 75.574 -9.112 75.005 -9.112 Q 74.388 -9.112 73.854 -9.391 Q 73.32 -9.671 72.996 -10.249 Q 72.673 -10.827 72.673 -11.709 Q 72.673 -12.581 72.977 -13.169 Q 73.28 -13.757 73.8 -14.056 Q 74.319 -14.355 74.956 -14.355 Q 75.838 -14.355 76.421 -13.742 Q 77.004 -13.13 77.024 -11.915 L 73.574 -11.915 Q 73.574 -11.248 73.824 -10.812 Q 74.074 -10.376 74.466 -10.166 Q 74.858 -9.955 75.289 -9.955 Q 75.73 -9.955 75.995 -10.048 Q 76.26 -10.141 76.441 -10.308 Q 76.622 -10.474 76.799 -10.67 Z M 73.574 -12.366 L 73.574 -12.366 L 75.975 -12.366 Q 75.975 -12.758 75.848 -13.105 Q 75.721 -13.453 75.476 -13.674 Q 75.231 -13.894 74.848 -13.894 Q 74.29 -13.894 73.961 -13.502 Q 73.633 -13.11 73.574 -12.366 Z " fill="black" /><path d="M 77.994 -14.228 L 77.994 -14.228 L 78.778 -14.228 Q 78.778 -14.747 78.852 -15.11 Q 78.925 -15.472 79.111 -15.835 Q 79.337 -16.188 79.655 -16.408 Q 79.974 -16.629 80.562 -16.629 Q 81.061 -16.629 81.414 -16.438 Q 81.767 -16.246 81.767 -15.874 Q 81.767 -15.639 81.635 -15.516 Q 81.502 -15.394 81.326 -15.394 Q 81.111 -15.394 80.988 -15.516 Q 80.865 -15.639 80.669 -15.845 Q 80.532 -16.041 80.424 -16.114 Q 80.317 -16.188 80.17 -16.188 Q 79.895 -16.188 79.807 -15.923 Q 79.719 -15.658 79.719 -15.012 L 79.719 -14.228 L 80.993 -14.228 L 80.993 -13.747 L 79.719 -13.747 L 79.719 -10.513 Q 79.719 -10.112 79.807 -9.911 Q 79.895 -9.71 80.13 -9.641 Q 80.366 -9.573 80.797 -9.573 L 80.797 -9.21 L 77.906 -9.21 L 77.906 -9.573 Q 78.278 -9.573 78.465 -9.641 Q 78.651 -9.71 78.714 -9.911 Q 78.778 -10.112 78.778 -10.513 L 78.778 -13.747 L 77.994 -13.747 Z " fill="black" /></g></g></g><g><g><g><path d="M 115.92 -2.485 L 115.92 -2.485 L 115.92 -11.683 L 118.608 -11.683 Q 119.658 -11.683 120.449 -11.424 Q 121.24 -11.165 121.688 -10.577 Q 122.136 -9.989 122.136 -8.981 Q 122.136 -8.001 121.695 -7.364 Q 121.254 -6.727 120.477 -6.419 Q 119.7 -6.111 118.664 -6.111 L 117.124 -6.111 L 117.124 -2.485 Z M 117.124 -7.091 L 117.124 -7.091 L 118.524 -7.091 Q 119.742 -7.091 120.337 -7.539 Q 120.932 -7.987 120.932 -8.967 Q 120.932 -9.961 120.316 -10.339 Q 119.7 -10.717 118.468 -10.717 L 117.124 -10.717 Z " fill="black" /><path d="M 124.04 -2.485 L 124.04 -2.485 L 124.04 -11.683 L 129.458 -11.683 L 129.458 -10.675 L 125.244 -10.675 L 125.244 -7.595 L 128.814 -7.595 L 128.814 -6.587 L 125.244 -6.587 L 125.244 -2.485 Z " fill="black" /><path d="M 131.124 -2.485 L 131.124 -2.485 L 131.124 -11.683 L 133.476 -11.683 Q 135.646 -11.683 136.78 -10.5 Q 137.914 -9.317 137.914 -7.119 Q 137.914 -4.921 136.787 -3.703 Q 135.66 -2.485 133.532 -2.485 Z M 132.328 -3.465 L 132.328 -3.465 L 133.392 -3.465 Q 135.044 -3.465 135.863 -4.424 Q 136.682 -5.383 136.682 -7.119 Q 136.682 -8.855 135.863 -9.779 Q 135.044 -10.703 133.392 -10.703 L 132.328 -10.703 Z " fill="black" /></g><g><path d="M 123.074 11.683 L 123.074 11.683 Q 121.912 11.683 120.981 11.116 Q 120.05 10.549 119.518 9.485 Q 118.986 8.421 118.986 6.951 Q 118.986 5.453 119.532 4.382 Q 120.078 3.311 121.009 2.737 Q 121.94 2.163 123.088 2.163 Q 124.068 2.163 124.698 2.52 Q 125.328 2.877 125.72 3.297 L 125.062 4.067 Q 124.25 3.199 123.13 3.199 Q 122.276 3.199 121.618 3.647 Q 120.96 4.095 120.589 4.928 Q 120.218 5.761 120.218 6.923 Q 120.218 8.057 120.575 8.89 Q 120.932 9.723 121.583 10.178 Q 122.234 10.633 123.116 10.633 Q 123.788 10.633 124.32 10.36 Q 124.852 10.087 125.3 9.611 L 125.944 10.353 Q 125.384 10.983 124.684 11.333 Q 123.984 11.683 123.074 11.683 Z " fill="black" /><path d="M 127.694 11.515 L 127.694 11.515 L 127.694 2.317 L 130.382 2.317 Q 131.432 2.317 132.223 2.576 Q 133.014 2.835 133.462 3.423 Q 133.91 4.011 133.91 5.019 Q 133.91 5.999 133.469 6.636 Q 133.028 7.273 132.251 7.581 Q 131.474 7.889 130.438 7.889 L 128.898 7.889 L 128.898 11.515 Z M 128.898 6.909 L 128.898 6.909 L 130.298 6.909 Q 131.516 6.909 132.111 6.461 Q 132.706 6.013 132.706 5.033 Q 132.706 4.039 132.09 3.661 Q 131.474 3.283 130.242 3.283 L 128.898 3.283 Z " fill="black" /></g></g></g><circle cx="180.0" cy="-0.0" r="2.6999999999999997" style="stroke:black;fill:black;stroke-width:2.0;stroke-dasharray:-;" /><g><g><g><path d="M 332.48 -25.368 L 332.48 -25.368 L 329.484 -34.566 L 330.758 -34.566 L 332.27 -29.61 Q 332.508 -28.798 332.704 -28.091 Q 332.9 -27.384 333.166 -26.572 L 333.236 -26.572 Q 333.488 -27.384 333.691 -28.091 Q 333.894 -28.798 334.132 -29.61 L 335.63 -34.566 L 336.848 -34.566 L 333.866 -25.368 Z " fill="black" /><path d="M 341.692 -25.2 L 341.692 -25.2 Q 340.53 -25.2 339.599 -25.767 Q 338.668 -26.334 338.136 -27.398 Q 337.604 -28.462 337.604 -29.932 Q 337.604 -31.43 338.15 -32.501 Q 338.696 -33.572 339.627 -34.146 Q 340.558 -34.72 341.706 -34.72 Q 342.686 -34.72 343.316 -34.363 Q 343.946 -34.006 344.338 -33.586 L 343.68 -32.816 Q 342.868 -33.684 341.748 -33.684 Q 340.894 -33.684 340.236 -33.236 Q 339.578 -32.788 339.207 -31.955 Q 338.836 -31.122 338.836 -29.96 Q 338.836 -28.826 339.193 -27.993 Q 339.55 -27.16 340.201 -26.705 Q 340.852 -26.25 341.734 -26.25 Q 342.406 -26.25 342.938 -26.523 Q 343.47 -26.796 343.918 -27.272 L 344.562 -26.53 Q 344.002 -25.9 343.302 -25.55 Q 342.602 -25.2 341.692 -25.2 Z " fill="black" /><path d="M 349.784 -25.2 L 349.784 -25.2 Q 348.608 -25.2 347.705 -25.781 Q 346.802 -26.362 346.291 -27.44 Q 345.78 -28.518 345.78 -30.002 Q 345.78 -31.472 346.291 -32.529 Q 346.802 -33.586 347.705 -34.153 Q 348.608 -34.72 349.784 -34.72 Q 350.974 -34.72 351.877 -34.153 Q 352.78 -33.586 353.291 -32.529 Q 353.802 -31.472 353.802 -30.002 Q 353.802 -28.532 353.291 -27.454 Q 352.78 -26.376 351.877 -25.788 Q 350.974 -25.2 349.784 -25.2 Z M 349.784 -26.25 L 349.784 -26.25 Q 350.624 -26.25 351.247 -26.712 Q 351.87 -27.174 352.213 -28.021 Q 352.556 -28.868 352.556 -30.002 Q 352.556 -31.71 351.8 -32.697 Q 351.044 -33.684 349.784 -33.684 Q 348.524 -33.684 347.768 -32.697 Q 347.012 -31.71 347.012 -30.002 Q 347.012 -28.868 347.355 -28.021 Q 347.698 -27.174 348.321 -26.712 Q 348.944 -26.25 349.784 -26.25 Z " fill="black" /></g></g></g><circle cx="396.0" cy="-0.0" r="2.6999999999999997" style="stroke:black;fill:black;stroke-width:2.0;stroke-dasharray:-;" /><g><g><g><path d="M 438.26 -3.136 L 438.26 -3.136 L 439.464 -3.136 Q 439.59 -3.724 439.737 -4.27 Q 439.884 -4.816 440.122 -5.25 Q 440.304 -5.586 440.57 -5.88 Q 440.836 -6.174 441.249 -6.363 Q 441.662 -6.552 442.264 -6.552 Q 442.908 -6.552 443.251 -6.265 Q 443.594 -5.978 443.594 -5.53 Q 443.594 -5.222 443.426 -5.068 Q 443.258 -4.914 443.034 -4.914 Q 442.754 -4.914 442.628 -5.075 Q 442.502 -5.236 442.474 -5.46 Q 442.432 -5.726 442.369 -5.936 Q 442.306 -6.146 442.054 -6.146 Q 441.522 -6.146 441.228 -5.586 Q 440.934 -5.026 440.78 -4.13 L 440.612 -3.136 L 441.942 -3.136 L 441.858 -2.562 L 440.542 -2.562 L 439.744 2.212 Q 439.688 2.576 439.569 3.122 Q 439.45 3.668 439.24 4.263 Q 439.03 4.858 438.729 5.376 Q 438.428 5.894 437.994 6.223 Q 437.56 6.552 436.986 6.552 Q 436.314 6.552 436.027 6.23 Q 435.74 5.908 435.74 5.544 Q 435.74 5.25 435.887 5.054 Q 436.034 4.858 436.3 4.858 Q 436.622 4.858 436.734 5.047 Q 436.846 5.236 436.874 5.481 Q 436.902 5.726 436.958 5.915 Q 437.014 6.104 437.21 6.104 Q 437.49 6.104 437.7 5.74 Q 437.91 5.376 438.064 4.837 Q 438.218 4.298 438.316 3.766 Q 438.414 3.234 438.47 2.884 L 439.38 -2.562 L 438.204 -2.562 Z " fill="black" /><path d="M 443.92 1.197 L 443.92 1.197 Q 444.655 1.197 445.204 1.516 Q 445.753 1.834 446.052 2.407 Q 446.351 2.981 446.351 3.755 Q 446.351 4.686 446.037 5.284 Q 445.723 5.881 445.175 6.171 Q 444.626 6.46 443.92 6.46 Q 443.205 6.46 442.651 6.161 Q 442.097 5.862 441.789 5.264 Q 441.48 4.666 441.48 3.765 Q 441.48 3 441.784 2.422 Q 442.088 1.844 442.636 1.52 Q 443.185 1.197 443.92 1.197 Z M 443.901 1.648 L 443.901 1.648 Q 443.254 1.648 442.886 2.172 Q 442.519 2.696 442.519 3.706 Q 442.519 4.95 442.896 5.465 Q 443.273 5.979 443.95 5.979 Q 444.381 5.97 444.685 5.764 Q 444.988 5.558 445.15 5.073 Q 445.312 4.588 445.312 3.755 Q 445.312 2.755 444.969 2.202 Q 444.626 1.648 443.901 1.648 Z " fill="black" /><path d="M 453.015 5.842 L 453.015 5.842 L 453.015 6.215 L 451.692 6.391 L 451.378 6.391 L 451.378 5.627 L 451.28 5.627 Q 450.908 5.96 450.525 6.2 Q 450.143 6.44 449.604 6.44 Q 448.879 6.44 448.497 5.999 Q 448.115 5.558 448.115 4.47 L 448.115 2.363 Q 448.115 1.961 447.972 1.868 Q 447.83 1.775 447.38 1.775 L 447.38 1.422 L 448.742 1.236 L 449.065 1.236 L 449.065 4.343 Q 449.065 4.892 449.193 5.195 Q 449.32 5.499 449.536 5.617 Q 449.751 5.734 450.006 5.734 Q 450.437 5.734 450.726 5.553 Q 451.015 5.372 451.329 5.117 L 451.329 2.363 Q 451.329 1.961 451.153 1.868 Q 450.976 1.775 450.476 1.775 L 450.476 1.422 L 451.937 1.236 L 452.28 1.236 L 452.28 5.205 Q 452.28 5.499 452.333 5.636 Q 452.387 5.774 452.525 5.808 Q 452.662 5.842 452.907 5.842 Z " fill="black" /><path d="M 456.837 5.362 L 456.837 5.362 L 457.062 5.548 Q 456.846 5.842 456.67 6.043 Q 456.494 6.244 456.268 6.352 Q 456.043 6.46 455.69 6.46 Q 455.122 6.46 454.862 6.136 Q 454.602 5.813 454.602 5.097 L 454.602 1.805 L 453.985 1.805 L 453.985 1.511 Q 454.338 1.256 454.632 0.888 Q 454.926 0.521 455.22 -0.165 L 455.563 -0.165 L 455.553 1.324 L 456.797 1.324 L 456.797 1.805 L 455.553 1.805 L 455.553 4.774 Q 455.553 5.323 455.656 5.553 Q 455.759 5.783 456.072 5.783 Q 456.356 5.783 456.503 5.681 Q 456.65 5.578 456.837 5.362 Z " fill="black" /></g></g></g><circle cx="396.0" cy="72.0" r="2.6999999999999997" style="stroke:black;fill:black;stroke-width:2.0;stroke-dasharray:-;" /><g><g><g><path d="M 329.12 112.599 L 329.12 112.599 L 329.12 103.401 L 330.562 103.401 L 332.368 108.301 Q 332.536 108.763 332.697 109.246 Q 332.858 109.729 333.04 110.205 L 333.082 110.205 Q 333.25 109.729 333.411 109.246 Q 333.572 108.763 333.74 108.301 L 335.518 103.401 L 336.96 103.401 L 336.96 112.599 L 335.84 112.599 L 335.84 107.587 Q 335.84 106.971 335.889 106.215 Q 335.938 105.459 335.994 104.857 L 335.938 104.857 L 335.196 106.957 L 333.432 111.675 L 332.634 111.675 L 330.856 106.957 L 330.114 104.857 L 330.058 104.857 Q 330.114 105.459 330.163 106.215 Q 330.212 106.971 330.212 107.587 L 330.212 112.599 Z " fill="black" /><path d="M 339.522 112.599 L 339.522 112.599 L 339.522 103.401 L 340.964 103.401 L 342.77 108.301 Q 342.938 108.763 343.099 109.246 Q 343.26 109.729 343.442 110.205 L 343.484 110.205 Q 343.652 109.729 343.813 109.246 Q 343.974 108.763 344.142 108.301 L 345.92 103.401 L 347.362 103.401 L 347.362 112.599 L 346.242 112.599 L 346.242 107.587 Q 346.242 106.971 346.291 106.215 Q 346.34 105.459 346.396 104.857 L 346.34 104.857 L 345.598 106.957 L 343.834 111.675 L 343.036 111.675 L 341.258 106.957 L 340.516 104.857 L 340.46 104.857 Q 340.516 105.459 340.565 106.215 Q 340.614 106.971 340.614 107.587 L 340.614 112.599 Z " fill="black" /><path d="M 349.924 112.599 L 349.924 112.599 L 349.924 103.401 L 352.276 103.401 Q 354.446 103.401 355.58 104.584 Q 356.714 105.767 356.714 107.965 Q 356.714 110.163 355.587 111.381 Q 354.46 112.599 352.332 112.599 Z M 351.128 111.619 L 351.128 111.619 L 352.192 111.619 Q 353.844 111.619 354.663 110.66 Q 355.482 109.701 355.482 107.965 Q 355.482 106.229 354.663 105.305 Q 353.844 104.381 352.192 104.381 L 351.128 104.381 Z " fill="black" /></g></g></g><g><g><g><path d="M 264.848 112.599 L 264.848 112.599 L 264.848 103.401 L 270.266 103.401 L 270.266 104.409 L 266.052 104.409 L 266.052 107.489 L 269.622 107.489 L 269.622 108.497 L 266.052 108.497 L 266.052 112.599 Z " fill="black" /><path d="M 271.932 112.599 L 271.932 112.599 L 271.932 103.401 L 277.35 103.401 L 277.35 104.409 L 273.136 104.409 L 273.136 107.489 L 276.706 107.489 L 276.706 108.497 L 273.136 108.497 L 273.136 112.599 Z " fill="black" /></g></g></g><circle cx="126.0" cy="107.99999999999999" r="2.6999999999999997" style="stroke:black;fill:black;stroke-width:2.0;stroke-dasharray:-;" /><g><g><g><path d="M 146.415 92.012 L 146.415 92.012 L 147.619 92.012 Q 147.745 91.424 147.892 90.878 Q 148.039 90.332 148.277 89.898 Q 148.459 89.562 148.725 89.268 Q 148.991 88.974 149.404 88.785 Q 149.817 88.596 150.419 88.596 Q 151.063 88.596 151.406 88.883 Q 151.749 89.17 151.749 89.618 Q 151.749 89.926 151.581 90.08 Q 151.413 90.234 151.189 90.234 Q 150.909 90.234 150.783 90.073 Q 150.657 89.912 150.629 89.688 Q 150.587 89.422 150.524 89.212 Q 150.461 89.002 150.209 89.002 Q 149.677 89.002 149.383 89.562 Q 149.089 90.122 148.935 91.018 L 148.767 92.012 L 150.097 92.012 L 150.013 92.586 L 148.697 92.586 L 147.899 97.36 Q 147.843 97.724 147.724 98.27 Q 147.605 98.816 147.395 99.411 Q 147.185 100.006 146.884 100.524 Q 146.583 101.042 146.149 101.371 Q 145.715 101.7 145.141 101.7 Q 144.469 101.7 144.182 101.378 Q 143.895 101.056 143.895 100.692 Q 143.895 100.398 144.042 100.202 Q 144.189 100.006 144.455 100.006 Q 144.777 100.006 144.889 100.195 Q 145.001 100.384 145.029 100.629 Q 145.057 100.874 145.113 101.063 Q 145.169 101.252 145.365 101.252 Q 145.645 101.252 145.855 100.888 Q 146.065 100.524 146.219 99.985 Q 146.373 99.446 146.471 98.914 Q 146.569 98.382 146.625 98.032 L 147.535 92.586 L 146.359 92.586 Z " fill="black" /><path d="M 152.076 96.345 L 152.076 96.345 Q 152.811 96.345 153.359 96.663 Q 153.908 96.982 154.207 97.555 Q 154.506 98.129 154.506 98.903 Q 154.506 99.834 154.192 100.432 Q 153.879 101.029 153.33 101.318 Q 152.781 101.608 152.076 101.608 Q 151.36 101.608 150.807 101.309 Q 150.253 101.01 149.944 100.412 Q 149.635 99.814 149.635 98.913 Q 149.635 98.148 149.939 97.57 Q 150.243 96.992 150.792 96.668 Q 151.341 96.345 152.076 96.345 Z M 152.056 96.796 L 152.056 96.796 Q 151.409 96.796 151.042 97.32 Q 150.674 97.844 150.674 98.854 Q 150.674 100.098 151.052 100.613 Q 151.429 101.127 152.105 101.127 Q 152.536 101.118 152.84 100.912 Q 153.144 100.706 153.306 100.221 Q 153.467 99.736 153.467 98.903 Q 153.467 97.903 153.124 97.349 Q 152.781 96.796 152.056 96.796 Z " fill="black" /><path d="M 161.17 100.99 L 161.17 100.99 L 161.17 101.363 L 159.847 101.539 L 159.533 101.539 L 159.533 100.775 L 159.435 100.775 Q 159.063 101.108 158.681 101.348 Q 158.299 101.588 157.76 101.588 Q 157.034 101.588 156.652 101.147 Q 156.27 100.706 156.27 99.618 L 156.27 97.511 Q 156.27 97.109 156.128 97.016 Q 155.986 96.923 155.535 96.923 L 155.535 96.57 L 156.897 96.384 L 157.221 96.384 L 157.221 99.491 Q 157.221 100.04 157.348 100.343 Q 157.475 100.647 157.691 100.765 Q 157.907 100.882 158.161 100.882 Q 158.593 100.882 158.882 100.701 Q 159.171 100.52 159.484 100.265 L 159.484 97.511 Q 159.484 97.109 159.308 97.016 Q 159.132 96.923 158.632 96.923 L 158.632 96.57 L 160.092 96.384 L 160.435 96.384 L 160.435 100.353 Q 160.435 100.647 160.489 100.784 Q 160.543 100.922 160.68 100.956 Q 160.817 100.99 161.062 100.99 Z " fill="black" /><path d="M 164.992 100.51 L 164.992 100.51 L 165.217 100.696 Q 165.002 100.99 164.825 101.191 Q 164.649 101.392 164.424 101.5 Q 164.198 101.608 163.845 101.608 Q 163.277 101.608 163.017 101.284 Q 162.758 100.961 162.758 100.245 L 162.758 96.953 L 162.14 96.953 L 162.14 96.659 Q 162.493 96.404 162.787 96.036 Q 163.081 95.669 163.375 94.983 L 163.718 94.983 L 163.708 96.472 L 164.953 96.472 L 164.953 96.953 L 163.708 96.953 L 163.708 99.922 Q 163.708 100.471 163.811 100.701 Q 163.914 100.931 164.228 100.931 Q 164.512 100.931 164.659 100.828 Q 164.806 100.726 164.992 100.51 Z " fill="black" /><path d="M 170.386 88.624 L 170.386 88.624 L 166.746 99.796 L 165.962 99.796 L 169.616 88.624 Z " fill="black" /><path d="M 178.072 98.298 L 178.072 98.298 L 176.28 98.62 L 175.958 98.62 L 175.958 97.654 L 175.902 97.654 Q 175.51 98.004 174.971 98.333 Q 174.432 98.662 173.732 98.662 Q 172.948 98.662 172.409 98.242 Q 171.87 97.822 171.604 97.101 Q 171.338 96.38 171.338 95.484 Q 171.338 94.322 171.772 93.489 Q 172.206 92.656 172.941 92.208 Q 173.676 91.76 174.558 91.76 Q 174.908 91.76 175.251 91.837 Q 175.594 91.914 175.916 92.096 L 175.916 90.262 Q 175.916 89.8 175.811 89.66 Q 175.706 89.52 175.3 89.52 Q 175.202 89.52 175.069 89.534 Q 174.936 89.548 174.936 89.548 L 174.936 89.156 L 176.7 88.666 L 177.078 88.666 L 177.078 97.052 Q 177.078 97.598 177.232 97.759 Q 177.386 97.92 177.778 97.92 L 178.072 97.92 Z M 175.916 97.136 L 175.916 97.136 L 175.916 93.44 Q 175.832 93.006 175.51 92.663 Q 175.188 92.32 174.53 92.32 Q 173.648 92.32 173.102 92.964 Q 172.556 93.608 172.556 94.938 Q 172.556 96.38 173.025 97.017 Q 173.494 97.654 174.39 97.654 Q 174.88 97.654 175.216 97.521 Q 175.552 97.388 175.916 97.136 Z " fill="black" /><path d="M 182.02 98.158 L 182.02 98.158 L 182.02 98.55 L 178.87 98.55 L 178.87 98.158 Q 179.346 98.158 179.549 98.067 Q 179.752 97.976 179.801 97.752 Q 179.85 97.528 179.85 97.136 L 179.85 93.23 Q 179.85 92.782 179.696 92.677 Q 179.542 92.572 179.234 92.572 Q 179.094 92.572 178.989 92.586 Q 178.884 92.6 178.884 92.6 L 178.884 92.194 L 180.648 91.802 L 181.012 91.802 L 181.012 97.136 Q 181.012 97.542 181.068 97.766 Q 181.124 97.99 181.341 98.074 Q 181.558 98.158 182.02 98.158 Z M 180.452 89.128 L 180.452 89.128 Q 180.816 89.128 181.033 89.359 Q 181.25 89.59 181.25 89.912 Q 181.25 90.234 181.033 90.472 Q 180.816 90.71 180.452 90.71 Q 180.102 90.71 179.878 90.472 Q 179.654 90.234 179.654 89.912 Q 179.654 89.59 179.871 89.359 Q 180.088 89.128 180.452 89.128 Z " fill="black" /><path d="M 189.384 91.928 L 189.384 91.928 L 189.384 92.334 Q 188.978 92.334 188.761 92.523 Q 188.544 92.712 188.334 93.258 L 186.122 98.634 L 185.45 98.634 L 183.364 93.356 Q 183.182 92.922 183.042 92.705 Q 182.902 92.488 182.72 92.411 Q 182.538 92.334 182.23 92.334 L 182.23 91.928 L 185.184 91.928 L 185.184 92.334 Q 184.778 92.334 184.617 92.425 Q 184.456 92.516 184.456 92.684 Q 184.456 92.824 184.498 92.95 Q 184.54 93.076 184.596 93.23 L 185.786 96.352 L 186.052 97.192 L 186.136 97.192 L 186.43 96.338 L 187.634 93.174 Q 187.648 93.118 187.69 92.999 Q 187.732 92.88 187.732 92.712 Q 187.732 92.474 187.522 92.404 Q 187.312 92.334 186.934 92.334 L 186.934 91.928 Z " fill="black" /><path d="M 193.332 101.294 L 193.332 101.294 L 190.406 101.294 L 190.406 88.246 L 193.332 88.246 L 193.332 88.694 L 191.512 88.694 L 191.512 100.846 L 193.332 100.846 Z " fill="black" /><path d="M 197.616 88.68 L 197.616 88.68 L 196.37 95.218 L 196.44 95.218 L 198.624 93.244 Q 198.778 93.118 198.869 92.992 Q 198.96 92.866 198.96 92.726 Q 198.96 92.502 198.771 92.432 Q 198.582 92.362 198.33 92.362 L 198.372 92.012 L 201.382 92.012 L 201.34 92.362 Q 200.626 92.376 200.234 92.628 Q 199.842 92.88 199.492 93.202 L 197.938 94.574 L 198.974 96.982 Q 199.128 97.332 199.275 97.535 Q 199.422 97.738 199.73 97.738 Q 200.094 97.738 200.353 97.493 Q 200.612 97.248 200.836 96.926 L 201.13 97.122 Q 201.074 97.22 200.92 97.472 Q 200.766 97.724 200.514 98.004 Q 200.262 98.284 199.933 98.487 Q 199.604 98.69 199.198 98.69 Q 198.848 98.69 198.624 98.522 Q 198.4 98.354 198.267 98.102 Q 198.134 97.85 198.022 97.598 L 197.056 95.26 L 196.244 95.974 L 195.754 98.55 L 194.606 98.55 L 196.258 90.038 Q 196.258 90.038 196.279 89.898 Q 196.3 89.758 196.3 89.618 Q 196.3 89.17 195.81 89.17 Q 195.684 89.17 195.53 89.184 Q 195.376 89.198 195.376 89.198 L 195.376 88.834 L 197.308 88.68 Z " fill="black" /><path d="M 214.853 95.4 L 214.853 95.4 L 206.509 95.4 L 206.509 94.448 L 214.853 94.448 Z " fill="black" /><path d="M 225.833 98.55 L 225.833 98.55 L 220.989 98.55 L 220.989 98.158 Q 221.983 98.158 222.389 97.948 Q 222.795 97.738 222.795 97.22 L 222.795 91.298 Q 222.795 90.934 222.697 90.773 Q 222.599 90.612 222.333 90.612 Q 222.123 90.612 221.675 90.668 Q 221.227 90.724 220.905 90.836 L 220.905 90.374 L 223.621 89.604 L 224.027 89.604 L 224.027 97.22 Q 224.027 97.738 224.447 97.948 Q 224.867 98.158 225.833 98.158 Z " fill="black" /><path d="M 230.425 101.294 L 230.425 101.294 L 227.499 101.294 L 227.499 100.846 L 229.319 100.846 L 229.319 88.694 L 227.499 88.694 L 227.499 88.246 L 230.425 88.246 Z " fill="black" /></g></g></g><g><g><g><path d="M 168.499 166.592 L 168.499 166.592 L 168.499 157.394 L 170.851 157.394 Q 173.021 157.394 174.155 158.577 Q 175.289 159.76 175.289 161.958 Q 175.289 164.156 174.162 165.374 Q 173.035 166.592 170.907 166.592 Z M 169.703 165.612 L 169.703 165.612 L 170.767 165.612 Q 172.419 165.612 173.238 164.653 Q 174.057 163.694 174.057 161.958 Q 174.057 160.222 173.238 159.298 Q 172.419 158.374 170.767 158.374 L 169.703 158.374 Z " fill="black" /><path d="M 179.937 166.76 L 179.937 166.76 Q 178.929 166.76 178.096 166.389 Q 177.263 166.018 176.647 165.402 L 177.361 164.576 Q 177.865 165.094 178.544 165.402 Q 179.223 165.71 179.993 165.71 Q 180.889 165.71 181.4 165.304 Q 181.911 164.898 181.911 164.212 Q 181.911 163.764 181.708 163.484 Q 181.505 163.204 181.148 163.008 Q 180.791 162.812 180.343 162.63 L 178.999 162.056 Q 178.593 161.874 178.145 161.587 Q 177.697 161.3 177.396 160.845 Q 177.095 160.39 177.095 159.718 Q 177.095 158.99 177.48 158.43 Q 177.865 157.87 178.53 157.555 Q 179.195 157.24 180.035 157.24 Q 180.889 157.24 181.603 157.555 Q 182.317 157.87 182.821 158.374 L 182.191 159.144 Q 181.743 158.738 181.218 158.507 Q 180.693 158.276 180.063 158.276 Q 179.265 158.276 178.789 158.633 Q 178.313 158.99 178.313 159.606 Q 178.313 160.04 178.544 160.32 Q 178.775 160.6 179.132 160.782 Q 179.489 160.964 179.867 161.118 L 181.197 161.678 Q 181.729 161.902 182.17 162.217 Q 182.611 162.532 182.87 162.994 Q 183.129 163.456 183.129 164.1 Q 183.129 164.856 182.744 165.458 Q 182.359 166.06 181.645 166.41 Q 180.931 166.76 179.937 166.76 Z " fill="black" /><path d="M 184.963 166.592 L 184.963 166.592 L 184.963 157.394 L 186.405 157.394 L 188.211 162.294 Q 188.379 162.756 188.54 163.239 Q 188.701 163.722 188.883 164.198 L 188.925 164.198 Q 189.093 163.722 189.254 163.239 Q 189.415 162.756 189.583 162.294 L 191.361 157.394 L 192.803 157.394 L 192.803 166.592 L 191.683 166.592 L 191.683 161.58 Q 191.683 160.964 191.732 160.208 Q 191.781 159.452 191.837 158.85 L 191.781 158.85 L 191.039 160.95 L 189.275 165.668 L 188.477 165.668 L 186.699 160.95 L 185.957 158.85 L 185.901 158.85 Q 185.957 159.452 186.006 160.208 Q 186.055 160.964 186.055 161.58 L 186.055 166.592 Z " fill="black" /></g></g></g><g><g><g><path d="M 259.675 155.404 L 259.675 155.404 L 257.883 155.726 L 257.561 155.726 L 257.561 154.76 L 257.505 154.76 Q 257.113 155.11 256.574 155.439 Q 256.035 155.768 255.335 155.768 Q 254.551 155.768 254.012 155.348 Q 253.473 154.928 253.207 154.207 Q 252.941 153.486 252.941 152.59 Q 252.941 151.428 253.375 150.595 Q 253.809 149.762 254.544 149.314 Q 255.279 148.866 256.161 148.866 Q 256.511 148.866 256.854 148.943 Q 257.197 149.02 257.519 149.202 L 257.519 147.368 Q 257.519 146.906 257.414 146.766 Q 257.309 146.626 256.903 146.626 Q 256.805 146.626 256.672 146.64 Q 256.539 146.654 256.539 146.654 L 256.539 146.262 L 258.303 145.772 L 258.681 145.772 L 258.681 154.158 Q 258.681 154.704 258.835 154.865 Q 258.989 155.026 259.381 155.026 L 259.675 155.026 Z M 257.519 154.242 L 257.519 154.242 L 257.519 150.546 Q 257.435 150.112 257.113 149.769 Q 256.791 149.426 256.133 149.426 Q 255.251 149.426 254.705 150.07 Q 254.159 150.714 254.159 152.044 Q 254.159 153.486 254.628 154.123 Q 255.097 154.76 255.993 154.76 Q 256.483 154.76 256.819 154.627 Q 257.155 154.494 257.519 154.242 Z " fill="black" /><path d="M 263.623 155.264 L 263.623 155.264 L 263.623 155.656 L 260.473 155.656 L 260.473 155.264 Q 260.949 155.264 261.152 155.173 Q 261.355 155.082 261.404 154.858 Q 261.453 154.634 261.453 154.242 L 261.453 150.336 Q 261.453 149.888 261.299 149.783 Q 261.145 149.678 260.837 149.678 Q 260.697 149.678 260.592 149.692 Q 260.487 149.706 260.487 149.706 L 260.487 149.3 L 262.251 148.908 L 262.615 148.908 L 262.615 154.242 Q 262.615 154.648 262.671 154.872 Q 262.727 155.096 262.944 155.18 Q 263.161 155.264 263.623 155.264 Z M 262.055 146.234 L 262.055 146.234 Q 262.419 146.234 262.636 146.465 Q 262.853 146.696 262.853 147.018 Q 262.853 147.34 262.636 147.578 Q 262.419 147.816 262.055 147.816 Q 261.705 147.816 261.481 147.578 Q 261.257 147.34 261.257 147.018 Q 261.257 146.696 261.474 146.465 Q 261.691 146.234 262.055 146.234 Z " fill="black" /><path d="M 270.987 149.034 L 270.987 149.034 L 270.987 149.44 Q 270.581 149.44 270.364 149.629 Q 270.147 149.818 269.937 150.364 L 267.725 155.74 L 267.053 155.74 L 264.967 150.462 Q 264.785 150.028 264.645 149.811 Q 264.505 149.594 264.323 149.517 Q 264.141 149.44 263.833 149.44 L 263.833 149.034 L 266.787 149.034 L 266.787 149.44 Q 266.381 149.44 266.22 149.531 Q 266.059 149.622 266.059 149.79 Q 266.059 149.93 266.101 150.056 Q 266.143 150.182 266.199 150.336 L 267.389 153.458 L 267.655 154.298 L 267.739 154.298 L 268.033 153.444 L 269.237 150.28 Q 269.251 150.224 269.293 150.105 Q 269.335 149.986 269.335 149.818 Q 269.335 149.58 269.125 149.51 Q 268.915 149.44 268.537 149.44 L 268.537 149.034 Z " fill="black" /><path d="M 274.935 158.4 L 274.935 158.4 L 272.009 158.4 L 272.009 145.352 L 274.935 145.352 L 274.935 145.8 L 273.115 145.8 L 273.115 157.952 L 274.935 157.952 Z " fill="black" /><path d="M 279.219 145.786 L 279.219 145.786 L 277.973 152.324 L 278.043 152.324 L 280.227 150.35 Q 280.381 150.224 280.472 150.098 Q 280.563 149.972 280.563 149.832 Q 280.563 149.608 280.374 149.538 Q 280.185 149.468 279.933 149.468 L 279.975 149.118 L 282.985 149.118 L 282.943 149.468 Q 282.229 149.482 281.837 149.734 Q 281.445 149.986 281.095 150.308 L 279.541 151.68 L 280.577 154.088 Q 280.731 154.438 280.878 154.641 Q 281.025 154.844 281.333 154.844 Q 281.697 154.844 281.956 154.599 Q 282.215 154.354 282.439 154.032 L 282.733 154.228 Q 282.677 154.326 282.523 154.578 Q 282.369 154.83 282.117 155.11 Q 281.865 155.39 281.536 155.593 Q 281.207 155.796 280.801 155.796 Q 280.451 155.796 280.227 155.628 Q 280.003 155.46 279.87 155.208 Q 279.737 154.956 279.625 154.704 L 278.659 152.366 L 277.847 153.08 L 277.357 155.656 L 276.209 155.656 L 277.861 147.144 Q 277.861 147.144 277.882 147.004 Q 277.903 146.864 277.903 146.724 Q 277.903 146.276 277.413 146.276 Q 277.287 146.276 277.133 146.29 Q 276.979 146.304 276.979 146.304 L 276.979 145.94 L 278.911 145.786 Z " fill="black" /><path d="M 286.723 158.4 L 286.723 158.4 L 283.797 158.4 L 283.797 157.952 L 285.617 157.952 L 285.617 145.8 L 283.797 145.8 L 283.797 145.352 L 286.723 145.352 Z " fill="black" /></g></g></g><g><g><g><path d="M 179.727 202.356 L 179.727 202.356 L 179.643 202.776 Q 179.265 202.776 179.062 202.846 Q 178.859 202.916 178.705 203.056 Q 178.579 203.168 178.453 203.329 Q 178.327 203.49 178.215 203.798 Q 178.103 204.106 177.991 204.652 L 176.563 211.666 L 176.101 211.666 L 171.985 204.148 L 171.915 204.148 L 170.823 209.468 Q 170.683 210.168 170.711 210.525 Q 170.739 210.882 170.998 211.008 Q 171.257 211.134 171.775 211.134 L 171.691 211.554 L 168.471 211.554 L 168.555 211.134 Q 169.101 211.134 169.395 211.015 Q 169.689 210.896 169.843 210.532 Q 169.997 210.168 170.137 209.468 L 171.383 203.42 Q 171.145 203.028 170.907 202.902 Q 170.669 202.776 170.221 202.776 L 170.305 202.356 L 172.503 202.356 L 176.283 209.244 L 176.353 209.244 L 177.319 204.582 Q 177.445 203.952 177.452 203.63 Q 177.459 203.308 177.361 203.126 Q 177.235 202.916 177.011 202.846 Q 176.787 202.776 176.339 202.776 L 176.423 202.356 Z " fill="black" /><path d="M 182.289 210.854 L 182.289 210.854 Q 182.289 211.176 182.065 211.421 Q 181.841 211.666 181.421 211.666 Q 181.001 211.666 180.798 211.428 Q 180.595 211.19 180.595 210.84 Q 180.595 210.476 180.819 210.217 Q 181.043 209.958 181.435 209.958 Q 181.841 209.958 182.065 210.224 Q 182.289 210.49 182.289 210.854 Z " fill="black" /><path d="M 185.817 205.016 L 185.817 205.016 L 187.021 205.016 Q 187.147 204.428 187.294 203.882 Q 187.441 203.336 187.679 202.902 Q 187.861 202.566 188.127 202.272 Q 188.393 201.978 188.806 201.789 Q 189.219 201.6 189.821 201.6 Q 190.465 201.6 190.808 201.887 Q 191.151 202.174 191.151 202.622 Q 191.151 202.93 190.983 203.084 Q 190.815 203.238 190.591 203.238 Q 190.311 203.238 190.185 203.077 Q 190.059 202.916 190.031 202.692 Q 189.989 202.426 189.926 202.216 Q 189.863 202.006 189.611 202.006 Q 189.079 202.006 188.785 202.566 Q 188.491 203.126 188.337 204.022 L 188.169 205.016 L 189.499 205.016 L 189.415 205.59 L 188.099 205.59 L 187.301 210.364 Q 187.245 210.728 187.126 211.274 Q 187.007 211.82 186.797 212.415 Q 186.587 213.01 186.286 213.528 Q 185.985 214.046 185.551 214.375 Q 185.117 214.704 184.543 214.704 Q 183.871 214.704 183.584 214.382 Q 183.297 214.06 183.297 213.696 Q 183.297 213.402 183.444 213.206 Q 183.591 213.01 183.857 213.01 Q 184.179 213.01 184.291 213.199 Q 184.403 213.388 184.431 213.633 Q 184.459 213.878 184.515 214.067 Q 184.571 214.256 184.767 214.256 Q 185.047 214.256 185.257 213.892 Q 185.467 213.528 185.621 212.989 Q 185.775 212.45 185.873 211.918 Q 185.971 211.386 186.027 211.036 L 186.937 205.59 L 185.761 205.59 Z " fill="black" /></g></g></g><g><g><g><path d="M 167.862 59.11 L 167.862 59.11 Q 167.064 59.11 166.364 58.697 Q 165.664 58.284 165.237 57.507 Q 164.81 56.73 164.81 55.624 Q 164.81 54.518 165.237 53.748 Q 165.664 52.978 166.364 52.565 Q 167.064 52.152 167.862 52.152 Q 168.674 52.152 169.374 52.565 Q 170.074 52.978 170.501 53.748 Q 170.928 54.518 170.928 55.624 Q 170.928 56.73 170.501 57.507 Q 170.074 58.284 169.374 58.697 Q 168.674 59.11 167.862 59.11 Z M 167.862 58.172 L 167.862 58.172 Q 168.716 58.172 169.241 57.472 Q 169.766 56.772 169.766 55.624 Q 169.766 54.49 169.241 53.79 Q 168.716 53.09 167.862 53.09 Q 167.022 53.09 166.497 53.79 Q 165.972 54.49 165.972 55.624 Q 165.972 56.772 166.497 57.472 Q 167.022 58.172 167.862 58.172 Z " fill="black" /><path d="M 172.832 58.942 L 172.832 58.942 L 172.832 53.3 L 171.95 53.3 L 171.95 52.46 L 172.832 52.39 L 172.832 51.102 Q 172.832 50.08 173.308 49.485 Q 173.784 48.89 174.75 48.89 Q 175.072 48.89 175.359 48.953 Q 175.646 49.016 175.87 49.114 L 175.632 49.982 Q 175.268 49.8 174.904 49.8 Q 173.952 49.8 173.952 51.102 L 173.952 52.39 L 175.352 52.39 L 175.352 53.3 L 173.952 53.3 L 173.952 58.942 Z " fill="black" /><path d="M 176.78 58.942 L 176.78 58.942 L 176.78 53.3 L 175.898 53.3 L 175.898 52.46 L 176.78 52.39 L 176.78 51.102 Q 176.78 50.08 177.256 49.485 Q 177.732 48.89 178.698 48.89 Q 179.02 48.89 179.307 48.953 Q 179.594 49.016 179.818 49.114 L 179.58 49.982 Q 179.216 49.8 178.852 49.8 Q 177.9 49.8 177.9 51.102 L 177.9 52.39 L 179.3 52.39 L 179.3 53.3 L 177.9 53.3 L 177.9 58.942 Z " fill="black" /><path d="M 182.324 59.11 L 182.324 59.11 Q 181.568 59.11 180.924 58.844 Q 180.28 58.578 179.818 58.186 L 180.364 57.444 Q 180.812 57.794 181.267 58.011 Q 181.722 58.228 182.282 58.228 Q 182.954 58.228 183.283 57.927 Q 183.612 57.626 183.612 57.22 Q 183.612 56.87 183.402 56.639 Q 183.192 56.408 182.849 56.247 Q 182.506 56.086 182.1 55.946 Q 181.638 55.764 181.183 55.533 Q 180.728 55.302 180.434 54.938 Q 180.14 54.574 180.14 54.014 Q 180.14 53.23 180.749 52.691 Q 181.358 52.152 182.38 52.152 Q 183.08 52.152 183.591 52.376 Q 184.102 52.6 184.466 52.88 L 183.934 53.608 Q 183.584 53.356 183.22 53.188 Q 182.856 53.02 182.408 53.02 Q 181.806 53.02 181.512 53.307 Q 181.218 53.594 181.218 53.958 Q 181.218 54.28 181.421 54.483 Q 181.624 54.686 181.96 54.826 Q 182.296 54.966 182.674 55.12 Q 183.122 55.288 183.584 55.505 Q 184.046 55.722 184.361 56.1 Q 184.676 56.478 184.676 57.108 Q 184.676 57.934 184.06 58.522 Q 183.444 59.11 182.324 59.11 Z " fill="black" /><path d="M 188.918 59.11 L 188.918 59.11 Q 188.036 59.11 187.315 58.697 Q 186.594 58.284 186.167 57.507 Q 185.74 56.73 185.74 55.652 Q 185.74 54.56 186.16 53.776 Q 186.58 52.992 187.273 52.572 Q 187.966 52.152 188.778 52.152 Q 189.954 52.152 190.647 52.992 Q 191.34 53.832 191.34 55.26 Q 191.34 55.442 191.326 55.603 Q 191.312 55.764 191.284 55.89 L 186.846 55.89 Q 186.916 56.954 187.504 57.584 Q 188.092 58.214 189.044 58.214 Q 189.506 58.214 189.912 58.067 Q 190.318 57.92 190.682 57.682 L 191.074 58.41 Q 190.64 58.704 190.108 58.907 Q 189.576 59.11 188.918 59.11 Z M 186.846 55.092 L 186.846 55.092 L 190.36 55.092 Q 190.36 54.098 189.933 53.573 Q 189.506 53.048 188.764 53.048 Q 188.036 53.048 187.497 53.566 Q 186.958 54.084 186.846 55.092 Z " fill="black" /><path d="M 194.98 59.11 L 194.98 59.11 Q 194 59.11 193.573 58.494 Q 193.146 57.878 193.146 56.884 L 193.146 53.3 L 192.18 53.3 L 192.18 52.46 L 193.202 52.39 L 193.342 50.444 L 194.266 50.444 L 194.266 52.39 L 196.044 52.39 L 196.044 53.3 L 194.266 53.3 L 194.266 56.912 Q 194.266 57.5 194.49 57.843 Q 194.714 58.186 195.246 58.186 Q 195.47 58.186 195.673 58.13 Q 195.876 58.074 196.03 58.004 L 196.254 58.858 Q 195.974 58.956 195.659 59.033 Q 195.344 59.11 194.98 59.11 Z " fill="black" /></g></g></g></svg>