<svg xmlns="http://www.w3.org/2000/svg" xmlns:xlink="http://www.w3.org/1999/xlink" xml:lang="en" height="121.56159999999998pt" width="447.9246pt" viewBox="-42.7324 -26.961599999999997 447.9246 121.56159999999998"><path d="M 0.0,-0.0 L 18.0,-0.0 L 27.0,-0.0" style="stroke:black;fill:none;stroke-width:2.0;stroke-dasharray:-;stroke-linecap:round;stroke-linejoin:round;" /><path d="M 34.0 0.0 L 27.0 2.6999999999999997 L 27.0 -2.6999999999999997 Z" style="stroke:black;fill:black;stroke-linecap:butt;stroke-linejoin:miter;" /><path d="M 36.0,-0.0 L 36.0,-18.0 L 72.0,-18.0 L 72.0,18.0 L 36.0,18.0 L 36.0,-0.0" style="stroke:black;fill:none;stroke-width:2.0;stroke-dasharray:-;stroke-linecap:round;stroke-linejoin:round;" /><path d="M 72.0,-0.0 L 108.0,-0.0 L 135.0,-0.0" style="stroke:black;fill:none;stroke-width:2.0;stroke-dasharray:-;stroke-linecap:round;stroke-linejoin:round;" /><path d="M 142.0 0.0 L 135.0 2.6999999999999997 L 135.0 -2.6999999999999997 Z" style="stroke:black;fill:black;stroke-linecap:butt;stroke-linejoin:miter;" /><path d="M 144.0,-0.0 L 144.0,-18.0 L 180.0,-18.0 L 180.0,18.0 L 144.0,18.0 L 144.0,-0.0" style="stroke:black;fill:none;stroke-width:2.0;stroke-dasharray:-;stroke-linecap:round;stroke-linejoin:round;" /><path d="M 180.0,-0.0 L 216.0,-0.0 L 243.0,-0.0" style="stroke:black;fill:none;stroke-width:2.0;stroke-dasharray:-;stroke-linecap:round;stroke-linejoin:round;" /><path d="M 250.0 0.0 L 243.0 2.6999999999999997 L 243.0 -2.6999999999999997 Z" style="stroke:black;fill:black;stroke-linecap:butt;stroke-linejoin:miter;" /><path d="M 252.0,-0.0 L 252.0,-18.0 L 288.0,-18.0 L 288.0,18.0 L 252.0,18.0 L 252.0,-0.0" style="stroke:black;fill:none;stroke-width:2.0;stroke-dasharray:-;stroke-linecap:round;stroke-linejoin:round;" /><path d="M 288.0,-0.0 L 306.0,-0.0 L 324.0,-0.0" style="stroke:black;fill:none;stroke-width:2.0;stroke-dasharray:-;stroke-linecap:round;stroke-linejoin:round;" /><path d="M 324.0,-0.0 L 342.0,-0.0 L 351.0,-0.0" style="stroke:black;fill:none;stroke-width:2.0;stroke-dasharray:-;stroke-linecap:round;stroke-linejoin:round;" /><path d="M 358.0 0.0 L 351.0 2.6999999999999997 L 351.0 -2.6999999999999997 Z" style="stroke:black;fill:black;stroke-linecap:butt;stroke-linejoin:miter;" /><path d="M 324.0,-0.0 L 324.0,36.0 L 324.0,72.0" style="stroke:black;fill:none;stroke-width:2.0;stroke-dasharray:-;stroke-linecap:round;stroke-linejoin:round;" /><path d="M 324.0,72.0 L 270.0,71.99999999999999 L 225.0,71.99999999999999" style="stroke:black;fill:none;stroke-width:2.0;stroke-dasharray:-;stroke-linecap:round;stroke-linejoin:round;" /><path d="M 218.0 71.99999999999999 L 225.0 69.29999999999998 L 225.0 74.69999999999999 Z" style="stroke:black;fill:black;stroke-linecap:butt;stroke-linejoin:miter;" /><path d="M 216.0,71.99999999999999 L 216.0,89.99999999999999 L 180.0,89.99999999999999 L 180.0,53.999999999999986 L 216.0,53.999999999999986 L 216.0,71.99999999999999" style="stroke:black;fill:none;stroke-width:2.0;stroke-dasharray:-;stroke-linecap:round;stroke-linejoin:round;" /><path d="M 180.0,71.99999999999997 L 117.0,71.99999999999997 L 54.0,71.99999999999996" style="stroke:black;fill:none;stroke-width:2.0;stroke-dasharray:-;stroke-linecap:round;stroke-linejoin:round;" /><path d="M 54.0,71.99999999999996 L 54.0,44.999999999999986 L 54.0,27.0" style="stroke:black;fill:none;stroke-width:2.0;stroke-dasharray:-;stroke-linecap:round;stroke-linejoin:round;" /><path d="M 54.0 20.0 L 56.7 27.0 L 51.3 27.0 Z" style="stroke:black;fill:black;stroke-linecap:butt;stroke-linejoin:miter;" /><g><g><g><path d="M -37.568 2.569 L -37.568 2.569 L -37.26 1.211 Q -37.008 0.007 -36.595 -0.931 Q -36.182 -1.869 -35.601 -2.408 Q -35.02 -2.947 -34.292 -2.947 Q -33.564 -2.947 -33.137 -2.359 Q -32.71 -1.771 -32.71 -0.623 Q -32.71 0.777 -33.284 1.68 Q -33.858 2.583 -34.824 3.073 Q -35.79 3.563 -36.966 3.731 Q -37.022 4.305 -37.071 4.837 Q -37.12 5.369 -37.246 5.782 Q -37.372 6.195 -37.652 6.433 Q -37.932 6.671 -38.464 6.671 L -38.674 6.629 L -37.904 3.759 Q -39.024 3.605 -39.619 2.947 Q -40.214 2.289 -40.214 1.099 Q -40.214 0.357 -40.025 -0.357 Q -39.836 -1.071 -39.409 -1.673 Q -38.982 -2.275 -38.275 -2.688 Q -37.568 -3.101 -36.518 -3.227 Q -36.378 -3.129 -36.378 -2.835 Q -36.378 -2.191 -36.84 -2.065 Q -37.526 -1.911 -38.163 -1.554 Q -38.8 -1.197 -39.213 -0.63 Q -39.626 -0.063 -39.626 0.735 Q -39.626 1.407 -39.304 1.806 Q -38.982 2.205 -38.506 2.38 Q -38.03 2.555 -37.568 2.569 Z M -36.448 1.015 L -36.448 1.015 L -36.756 2.541 Q -36.266 2.513 -35.685 2.373 Q -35.104 2.233 -34.586 1.918 Q -34.068 1.603 -33.732 1.043 Q -33.396 0.483 -33.396 -0.385 Q -33.396 -1.113 -33.69 -1.421 Q -33.984 -1.729 -34.46 -1.729 Q -35.048 -1.729 -35.447 -1.309 Q -35.846 -0.889 -36.084 -0.259 Q -36.322 0.371 -36.448 1.015 Z " fill="black" /><path d="M -30.432 1.457 L -30.432 1.457 L -30.432 2.516 L -30.374 2.516 Q -29.982 1.967 -29.673 1.678 Q -29.364 1.389 -29.002 1.389 Q -28.374 1.389 -28.374 2.006 Q -28.374 2.349 -28.526 2.486 Q -28.678 2.624 -28.855 2.624 Q -29.031 2.624 -29.173 2.526 Q -29.315 2.428 -29.413 2.33 Q -29.511 2.232 -29.56 2.232 Q -29.717 2.232 -29.967 2.496 Q -30.217 2.761 -30.413 3.094 L -30.413 5.446 Q -30.413 5.926 -30.202 6.068 Q -29.991 6.21 -29.452 6.21 L -29.452 6.573 L -32.118 6.573 L -32.118 6.21 Q -31.785 6.21 -31.628 6.152 Q -31.471 6.093 -31.422 5.941 Q -31.373 5.789 -31.373 5.515 L -31.373 2.673 Q -31.373 2.359 -31.427 2.202 Q -31.481 2.045 -31.785 2.045 Q -31.922 2.045 -32.02 2.055 Q -32.118 2.065 -32.118 2.065 L -32.118 1.702 L -30.795 1.457 Z " fill="black" /><path d="M -23.465 5.113 L -23.465 5.113 L -23.229 5.299 Q -23.435 5.671 -23.69 5.985 Q -23.945 6.299 -24.317 6.485 Q -24.69 6.671 -25.258 6.671 Q -25.875 6.671 -26.41 6.392 Q -26.944 6.112 -27.267 5.534 Q -27.59 4.956 -27.59 4.074 Q -27.59 3.202 -27.287 2.614 Q -26.983 2.026 -26.463 1.727 Q -25.944 1.428 -25.307 1.428 Q -24.425 1.428 -23.842 2.041 Q -23.259 2.653 -23.239 3.868 L -26.689 3.868 Q -26.689 4.535 -26.439 4.971 Q -26.189 5.407 -25.797 5.618 Q -25.405 5.828 -24.974 5.828 Q -24.533 5.828 -24.268 5.735 Q -24.004 5.642 -23.822 5.475 Q -23.641 5.309 -23.465 5.113 Z M -26.689 3.417 L -26.689 3.417 L -24.288 3.417 Q -24.288 3.025 -24.415 2.678 Q -24.543 2.33 -24.788 2.109 Q -25.033 1.889 -25.415 1.889 Q -25.973 1.889 -26.302 2.281 Q -26.63 2.673 -26.689 3.417 Z " fill="black" /><path d="M -22.269 1.555 L -22.269 1.555 L -21.485 1.555 Q -21.485 1.036 -21.412 0.673 Q -21.338 0.311 -21.152 -0.052 Q -20.926 -0.405 -20.608 -0.625 Q -20.289 -0.846 -19.701 -0.846 Q -19.202 -0.846 -18.849 -0.654 Q -18.496 -0.463 -18.496 -0.091 Q -18.496 0.144 -18.628 0.267 Q -18.761 0.389 -18.937 0.389 Q -19.153 0.389 -19.275 0.267 Q -19.398 0.144 -19.594 -0.062 Q -19.731 -0.258 -19.839 -0.331 Q -19.946 -0.405 -20.093 -0.405 Q -20.368 -0.405 -20.456 -0.14 Q -20.544 0.125 -20.544 0.771 L -20.544 1.555 L -19.27 1.555 L -19.27 2.036 L -20.544 2.036 L -20.544 5.27 Q -20.544 5.671 -20.456 5.872 Q -20.368 6.073 -20.133 6.142 Q -19.897 6.21 -19.466 6.21 L -19.466 6.573 L -22.357 6.573 L -22.357 6.21 Q -21.985 6.21 -21.799 6.142 Q -21.612 6.073 -21.549 5.872 Q -21.485 5.671 -21.485 5.27 L -21.485 2.036 L -22.269 2.036 Z " fill="black" /><path d="M -17.866 -0.147 L -17.866 -0.147 Q -17.866 -2.485 -16.851 -4.137 Q -15.836 -5.789 -14.142 -6.671 L -13.918 -6.307 Q -15.444 -5.271 -16.081 -3.78 Q -16.718 -2.289 -16.718 -0.147 Q -16.718 1.995 -16.081 3.486 Q -15.444 4.977 -13.918 6.013 L -14.142 6.377 Q -15.836 5.495 -16.851 3.843 Q -17.866 2.191 -17.866 -0.147 Z " fill="black" /><path d="M -8.206 -3.073 L -8.206 -3.073 L -8.528 -0.889 L -8.864 -0.889 Q -8.892 -1.701 -9.235 -2.177 Q -9.578 -2.653 -10.194 -2.653 Q -10.74 -2.653 -10.978 -2.359 Q -11.216 -2.065 -11.216 -1.757 Q -11.216 -1.463 -11.013 -1.19 Q -10.81 -0.917 -10.502 -0.63 Q -10.194 -0.343 -9.886 -0.007 Q -9.438 0.469 -9.109 0.924 Q -8.78 1.379 -8.78 2.051 Q -8.78 2.457 -8.983 2.856 Q -9.186 3.255 -9.648 3.521 Q -10.11 3.787 -10.908 3.787 Q -11.566 3.787 -11.965 3.626 Q -12.364 3.465 -12.518 3.409 L -12.56 3.409 L -12.896 3.787 L -13.204 3.787 L -12.84 1.449 L -12.49 1.449 Q -12.378 2.359 -12.063 2.835 Q -11.748 3.311 -11.034 3.311 Q -10.544 3.311 -10.243 3.073 Q -9.942 2.835 -9.942 2.289 Q -9.942 1.715 -10.257 1.316 Q -10.572 0.917 -10.978 0.539 Q -11.258 0.259 -11.545 -0.007 Q -11.832 -0.273 -12.021 -0.602 Q -12.21 -0.931 -12.21 -1.365 Q -12.21 -2.079 -11.734 -2.576 Q -11.258 -3.073 -10.306 -3.073 Q -9.746 -3.073 -9.375 -2.919 Q -9.004 -2.765 -8.878 -2.695 L -8.836 -2.695 L -8.472 -3.073 Z " fill="black" /><path d="M -3.726 -0.147 L -3.726 -0.147 Q -3.726 2.191 -4.741 3.843 Q -5.756 5.495 -7.45 6.377 L -7.674 6.013 Q -6.134 4.977 -5.504 3.486 Q -4.874 1.995 -4.874 -0.147 Q -4.874 -2.289 -5.504 -3.78 Q -6.134 -5.271 -7.674 -6.307 L -7.45 -6.671 Q -5.756 -5.789 -4.741 -4.137 Q -3.726 -2.485 -3.726 -0.147 Z " fill="black" /></g></g></g><g><g><g><path d="M 43.03 1.295 L 43.03 1.295 L 44.178 -4.221 Q 44.29 -4.767 44.276 -5.082 Q 44.262 -5.397 44.01 -5.523 Q 43.758 -5.649 43.142 -5.649 L 43.226 -6.069 L 47.174 -6.069 L 47.104 -5.649 Q 46.446 -5.649 46.124 -5.523 Q 45.802 -5.397 45.669 -5.082 Q 45.536 -4.767 45.424 -4.221 L 44.892 -1.603 L 44.948 -1.603 L 47.622 -3.801 Q 48.238 -4.291 48.609 -4.655 Q 48.98 -5.019 48.98 -5.327 Q 48.98 -5.649 48.462 -5.649 L 48.224 -5.649 L 48.322 -6.069 L 51.612 -6.069 L 51.542 -5.649 Q 51.15 -5.621 50.877 -5.53 Q 50.604 -5.439 50.324 -5.257 Q 50.044 -5.075 49.61 -4.725 L 45.998 -1.813 L 49.092 2.107 Q 49.372 2.443 49.715 2.576 Q 50.058 2.709 50.576 2.709 L 50.492 3.129 L 46.46 3.129 L 46.53 2.709 L 46.712 2.709 Q 47.034 2.709 47.209 2.625 Q 47.384 2.541 47.384 2.303 Q 47.384 2.079 47.251 1.792 Q 47.118 1.505 46.789 1.043 Q 46.46 0.581 45.858 -0.133 L 44.976 -1.197 L 44.808 -1.197 L 44.304 1.295 Q 44.192 1.897 44.206 2.198 Q 44.22 2.499 44.493 2.604 Q 44.766 2.709 45.382 2.709 L 45.298 3.129 L 41.392 3.129 L 41.476 2.709 Q 42.064 2.709 42.351 2.604 Q 42.638 2.499 42.771 2.198 Q 42.904 1.897 43.03 1.295 Z " fill="black" /><path d="M 52.628 -0.82 L 52.628 -0.82 L 55.313 -0.82 Q 55.852 -0.82 56.347 -0.737 Q 56.842 -0.654 57.229 -0.458 Q 57.616 -0.262 57.842 0.091 Q 58.067 0.444 58.067 0.993 Q 58.067 1.62 57.807 2.031 Q 57.548 2.443 57.116 2.683 Q 56.685 2.923 56.156 3.021 Q 55.627 3.119 55.078 3.119 Q 54.951 3.119 54.799 3.105 Q 54.647 3.09 54.568 3.08 L 54.568 4.717 Q 54.568 5.148 54.666 5.359 Q 54.764 5.569 55.005 5.633 Q 55.245 5.697 55.676 5.697 L 55.676 6.069 L 52.559 6.069 L 52.559 5.697 Q 52.981 5.697 53.187 5.623 Q 53.392 5.55 53.461 5.324 Q 53.53 5.099 53.53 4.658 L 53.53 0.307 Q 53.53 -0.193 53.314 -0.321 Q 53.098 -0.448 52.628 -0.448 Z M 54.568 -0.33 L 54.568 -0.33 L 54.568 2.61 Q 54.647 2.619 54.789 2.624 Q 54.931 2.629 55.039 2.629 Q 55.94 2.629 56.44 2.296 Q 56.94 1.963 56.94 1.1 Q 56.94 -0.35 55.186 -0.35 Q 55.029 -0.35 54.882 -0.345 Q 54.735 -0.34 54.568 -0.33 Z " fill="black" /><path d="M 58.822 -0.82 L 58.822 -0.82 L 61.791 -0.82 Q 62.575 -0.82 63.29 -0.649 Q 64.006 -0.477 64.569 -0.085 Q 65.133 0.307 65.461 0.963 Q 65.789 1.62 65.789 2.6 Q 65.789 3.521 65.49 4.183 Q 65.192 4.844 64.653 5.261 Q 64.114 5.677 63.398 5.873 Q 62.683 6.069 61.85 6.069 L 58.822 6.069 L 58.822 5.697 Q 59.282 5.697 59.498 5.628 Q 59.713 5.559 59.777 5.349 Q 59.841 5.138 59.841 4.707 L 59.841 0.454 Q 59.841 0.052 59.748 -0.139 Q 59.655 -0.33 59.434 -0.389 Q 59.214 -0.448 58.822 -0.448 Z M 60.889 -0.33 L 60.889 -0.33 L 60.889 5.599 Q 61.046 5.608 61.198 5.613 Q 61.35 5.618 61.497 5.618 Q 62.467 5.618 63.148 5.363 Q 63.829 5.109 64.187 4.472 Q 64.545 3.835 64.545 2.688 Q 64.545 1.218 63.795 0.439 Q 63.045 -0.34 61.419 -0.34 Q 61.281 -0.34 61.154 -0.34 Q 61.027 -0.34 60.889 -0.33 Z " fill="black" /></g></g></g><g><g><g><path d="M 93.075 -13.69 L 93.075 -13.69 L 96.897 -19.43 Q 97.093 -19.71 97.212 -19.948 Q 97.331 -20.186 97.331 -20.354 Q 97.331 -20.564 97.149 -20.641 Q 96.967 -20.718 96.491 -20.718 L 96.519 -21.138 L 99.543 -21.138 L 99.515 -20.718 Q 99.137 -20.718 98.871 -20.606 Q 98.605 -20.494 98.332 -20.179 Q 98.059 -19.864 97.625 -19.22 L 92.487 -11.87 L 92.025 -11.87 L 91.241 -19.444 Q 91.157 -20.144 90.933 -20.431 Q 90.709 -20.718 90.149 -20.718 L 90.177 -21.138 L 93.607 -21.138 L 93.565 -20.718 Q 93.033 -20.718 92.725 -20.508 Q 92.417 -20.298 92.445 -19.822 Q 92.445 -19.752 92.466 -19.57 Q 92.487 -19.388 92.487 -19.318 L 92.907 -15.328 L 93.005 -13.69 Z " fill="black" /><path d="M 98.557 -15.889 L 98.557 -15.889 L 101.242 -15.889 Q 101.781 -15.889 102.276 -15.806 Q 102.771 -15.723 103.158 -15.527 Q 103.545 -15.331 103.771 -14.978 Q 103.996 -14.625 103.996 -14.076 Q 103.996 -13.449 103.736 -13.038 Q 103.477 -12.626 103.045 -12.386 Q 102.614 -12.146 102.085 -12.048 Q 101.556 -11.95 101.007 -11.95 Q 100.88 -11.95 100.728 -11.964 Q 100.576 -11.979 100.497 -11.989 L 100.497 -10.352 Q 100.497 -9.921 100.595 -9.71 Q 100.693 -9.5 100.934 -9.436 Q 101.174 -9.372 101.605 -9.372 L 101.605 -9 L 98.488 -9 L 98.488 -9.372 Q 98.91 -9.372 99.116 -9.446 Q 99.321 -9.519 99.39 -9.745 Q 99.459 -9.97 99.459 -10.411 L 99.459 -14.762 Q 99.459 -15.262 99.243 -15.39 Q 99.027 -15.517 98.557 -15.517 Z M 100.497 -15.399 L 100.497 -15.399 L 100.497 -12.459 Q 100.576 -12.45 100.718 -12.445 Q 100.86 -12.44 100.968 -12.44 Q 101.869 -12.44 102.369 -12.773 Q 102.869 -13.106 102.869 -13.969 Q 102.869 -15.419 101.115 -15.419 Q 100.958 -15.419 100.811 -15.414 Q 100.664 -15.409 100.497 -15.399 Z " fill="black" /><path d="M 104.751 -15.889 L 104.751 -15.889 L 107.72 -15.889 Q 108.504 -15.889 109.219 -15.718 Q 109.935 -15.546 110.498 -15.154 Q 111.062 -14.762 111.39 -14.106 Q 111.718 -13.449 111.718 -12.469 Q 111.718 -11.548 111.419 -10.886 Q 111.121 -10.225 110.582 -9.809 Q 110.043 -9.392 109.327 -9.196 Q 108.612 -9 107.779 -9 L 104.751 -9 L 104.751 -9.372 Q 105.211 -9.372 105.427 -9.441 Q 105.642 -9.51 105.706 -9.72 Q 105.77 -9.931 105.77 -10.362 L 105.77 -14.615 Q 105.77 -15.017 105.677 -15.208 Q 105.584 -15.399 105.363 -15.458 Q 105.143 -15.517 104.751 -15.517 Z M 106.818 -15.399 L 106.818 -15.399 L 106.818 -9.47 Q 106.975 -9.461 107.127 -9.456 Q 107.279 -9.451 107.426 -9.451 Q 108.396 -9.451 109.077 -9.706 Q 109.758 -9.96 110.116 -10.597 Q 110.474 -11.234 110.474 -12.381 Q 110.474 -13.851 109.724 -14.63 Q 108.974 -15.409 107.348 -15.409 Q 107.21 -15.409 107.083 -15.409 Q 106.956 -15.409 106.818 -15.399 Z " fill="black" /><path d="M 112.985 -15.72 L 112.985 -15.72 Q 112.985 -18.058 114 -19.71 Q 115.015 -21.362 116.709 -22.244 L 116.933 -21.88 Q 115.407 -20.844 114.77 -19.353 Q 114.133 -17.862 114.133 -15.72 Q 114.133 -13.578 114.77 -12.087 Q 115.407 -10.596 116.933 -9.56 L 116.709 -9.196 Q 115.015 -10.078 114 -11.73 Q 112.985 -13.382 112.985 -15.72 Z " fill="black" /><path d="M 122.645 -18.646 L 122.645 -18.646 L 122.323 -16.462 L 121.987 -16.462 Q 121.959 -17.274 121.616 -17.75 Q 121.273 -18.226 120.657 -18.226 Q 120.111 -18.226 119.873 -17.932 Q 119.635 -17.638 119.635 -17.33 Q 119.635 -17.036 119.838 -16.763 Q 120.041 -16.49 120.349 -16.203 Q 120.657 -15.916 120.965 -15.58 Q 121.413 -15.104 121.742 -14.649 Q 122.071 -14.194 122.071 -13.522 Q 122.071 -13.116 121.868 -12.717 Q 121.665 -12.318 121.203 -12.052 Q 120.741 -11.786 119.943 -11.786 Q 119.285 -11.786 118.886 -11.947 Q 118.487 -12.108 118.333 -12.164 L 118.291 -12.164 L 117.955 -11.786 L 117.647 -11.786 L 118.011 -14.124 L 118.361 -14.124 Q 118.473 -13.214 118.788 -12.738 Q 119.103 -12.262 119.817 -12.262 Q 120.307 -12.262 120.608 -12.5 Q 120.909 -12.738 120.909 -13.284 Q 120.909 -13.858 120.594 -14.257 Q 120.279 -14.656 119.873 -15.034 Q 119.593 -15.314 119.306 -15.58 Q 119.019 -15.846 118.83 -16.175 Q 118.641 -16.504 118.641 -16.938 Q 118.641 -17.652 119.117 -18.149 Q 119.593 -18.646 120.545 -18.646 Q 121.105 -18.646 121.476 -18.492 Q 121.847 -18.338 121.973 -18.268 L 122.015 -18.268 L 122.379 -18.646 Z " fill="black" /><path d="M 127.125 -15.72 L 127.125 -15.72 Q 127.125 -13.382 126.11 -11.73 Q 125.095 -10.078 123.401 -9.196 L 123.177 -9.56 Q 124.717 -10.596 125.347 -12.087 Q 125.977 -13.578 125.977 -15.72 Q 125.977 -17.862 125.347 -19.353 Q 124.717 -20.844 123.177 -21.88 L 123.401 -22.244 Q 125.095 -21.362 126.11 -19.71 Q 127.125 -18.058 127.125 -15.72 Z " fill="black" /></g></g></g><g><g><g><path d="M 153.825 -4.221 L 153.825 -4.221 L 153.335 -1.869 L 157.871 -1.869 L 158.361 -4.221 Q 158.487 -4.767 158.494 -5.082 Q 158.501 -5.397 158.27 -5.523 Q 158.039 -5.649 157.409 -5.649 L 157.493 -6.069 L 161.245 -6.069 L 161.161 -5.649 Q 160.545 -5.649 160.258 -5.523 Q 159.971 -5.397 159.859 -5.089 Q 159.747 -4.781 159.621 -4.221 L 158.487 1.295 Q 158.361 1.897 158.375 2.198 Q 158.389 2.499 158.648 2.604 Q 158.907 2.709 159.495 2.709 L 159.411 3.129 L 155.715 3.129 L 155.785 2.709 Q 156.331 2.709 156.59 2.611 Q 156.849 2.513 156.968 2.205 Q 157.087 1.897 157.213 1.295 L 157.759 -1.323 L 153.237 -1.323 L 152.705 1.295 Q 152.579 1.911 152.6 2.212 Q 152.621 2.513 152.88 2.611 Q 153.139 2.709 153.713 2.709 L 153.629 3.129 L 149.793 3.129 L 149.877 2.709 Q 150.437 2.709 150.724 2.618 Q 151.011 2.527 151.158 2.219 Q 151.305 1.911 151.431 1.295 L 152.579 -4.221 Q 152.705 -4.781 152.684 -5.089 Q 152.663 -5.397 152.411 -5.523 Q 152.159 -5.649 151.543 -5.649 L 151.627 -6.069 L 155.477 -6.069 L 155.407 -5.649 Q 154.763 -5.649 154.476 -5.523 Q 154.189 -5.397 154.07 -5.082 Q 153.951 -4.767 153.825 -4.221 Z " fill="black" /><path d="M 167.478 3.982 L 167.478 3.982 L 167.223 6.069 L 161.833 6.069 L 161.833 5.697 Q 162.274 5.697 162.48 5.623 Q 162.686 5.55 162.75 5.339 Q 162.813 5.128 162.813 4.717 L 162.813 0.63 Q 162.813 0.199 162.75 -0.031 Q 162.686 -0.262 162.48 -0.355 Q 162.274 -0.448 161.833 -0.448 L 161.833 -0.82 L 164.891 -0.82 L 164.891 -0.448 Q 164.46 -0.448 164.234 -0.36 Q 164.009 -0.272 163.926 -0.036 Q 163.842 0.199 163.842 0.64 L 163.842 4.991 Q 163.842 5.373 163.999 5.476 Q 164.156 5.579 164.548 5.579 L 165.175 5.579 Q 165.695 5.579 166.008 5.51 Q 166.322 5.442 166.503 5.27 Q 166.684 5.099 166.802 4.785 Q 166.92 4.472 167.067 3.982 Z " fill="black" /><path d="M 168.38 -0.82 L 168.38 -0.82 L 171.065 -0.82 Q 171.604 -0.82 172.099 -0.737 Q 172.594 -0.654 172.981 -0.458 Q 173.368 -0.262 173.593 0.091 Q 173.819 0.444 173.819 0.993 Q 173.819 1.62 173.559 2.031 Q 173.299 2.443 172.868 2.683 Q 172.437 2.923 171.908 3.021 Q 171.379 3.119 170.83 3.119 Q 170.702 3.119 170.55 3.105 Q 170.399 3.09 170.32 3.08 L 170.32 4.717 Q 170.32 5.148 170.418 5.359 Q 170.516 5.569 170.756 5.633 Q 170.996 5.697 171.428 5.697 L 171.428 6.069 L 168.311 6.069 L 168.311 5.697 Q 168.733 5.697 168.938 5.623 Q 169.144 5.55 169.213 5.324 Q 169.281 5.099 169.281 4.658 L 169.281 0.307 Q 169.281 -0.193 169.066 -0.321 Q 168.85 -0.448 168.38 -0.448 Z M 170.32 -0.33 L 170.32 -0.33 L 170.32 2.61 Q 170.399 2.619 170.541 2.624 Q 170.683 2.629 170.791 2.629 Q 171.692 2.629 172.192 2.296 Q 172.692 1.963 172.692 1.1 Q 172.692 -0.35 170.938 -0.35 Q 170.781 -0.35 170.634 -0.345 Q 170.487 -0.34 170.32 -0.33 Z " fill="black" /></g></g></g><g><g><g><path d="M 197.091 -13.808 L 197.091 -13.808 L 200.913 -19.548 Q 201.109 -19.828 201.228 -20.066 Q 201.347 -20.304 201.347 -20.472 Q 201.347 -20.682 201.165 -20.759 Q 200.983 -20.836 200.507 -20.836 L 200.535 -21.256 L 203.559 -21.256 L 203.531 -20.836 Q 203.153 -20.836 202.887 -20.724 Q 202.621 -20.612 202.348 -20.297 Q 202.075 -19.982 201.641 -19.338 L 196.503 -11.988 L 196.041 -11.988 L 195.257 -19.562 Q 195.173 -20.262 194.949 -20.549 Q 194.725 -20.836 194.165 -20.836 L 194.193 -21.256 L 197.623 -21.256 L 197.581 -20.836 Q 197.049 -20.836 196.741 -20.626 Q 196.433 -20.416 196.461 -19.94 Q 196.461 -19.87 196.482 -19.688 Q 196.503 -19.506 196.503 -19.436 L 196.923 -15.446 L 197.021 -13.808 Z " fill="black" /><path d="M 205.268 -10.098 L 205.268 -10.098 L 205.494 -9.911 Q 205.278 -9.617 205.102 -9.417 Q 204.925 -9.216 204.7 -9.108 Q 204.474 -9 204.122 -9 Q 203.553 -9 203.294 -9.323 Q 203.034 -9.647 203.034 -10.362 L 203.034 -13.655 L 202.416 -13.655 L 202.416 -13.949 Q 202.769 -14.204 203.063 -14.571 Q 203.357 -14.939 203.651 -15.625 L 203.994 -15.625 L 203.984 -14.135 L 205.229 -14.135 L 205.229 -13.655 L 203.984 -13.655 L 203.984 -10.686 Q 203.984 -10.137 204.087 -9.907 Q 204.19 -9.676 204.504 -9.676 Q 204.788 -9.676 204.935 -9.779 Q 205.082 -9.882 205.268 -10.098 Z " fill="black" /><path d="M 211.824 -9.617 L 211.824 -9.617 L 211.824 -9.245 L 210.501 -9.069 L 210.188 -9.069 L 210.188 -9.833 L 210.09 -9.833 Q 209.717 -9.5 209.335 -9.26 Q 208.953 -9.02 208.414 -9.02 Q 207.689 -9.02 207.307 -9.461 Q 206.924 -9.902 206.924 -10.989 L 206.924 -13.096 Q 206.924 -13.498 206.782 -13.591 Q 206.64 -13.684 206.189 -13.684 L 206.189 -14.037 L 207.552 -14.223 L 207.875 -14.223 L 207.875 -11.117 Q 207.875 -10.568 208.002 -10.264 Q 208.13 -9.96 208.345 -9.843 Q 208.561 -9.725 208.816 -9.725 Q 209.247 -9.725 209.536 -9.907 Q 209.825 -10.088 210.139 -10.343 L 210.139 -13.096 Q 210.139 -13.498 209.962 -13.591 Q 209.786 -13.684 209.286 -13.684 L 209.286 -14.037 L 210.746 -14.223 L 211.089 -14.223 L 211.089 -10.254 Q 211.089 -9.96 211.143 -9.823 Q 211.197 -9.686 211.334 -9.652 Q 211.472 -9.617 211.717 -9.617 Z " fill="black" /><path d="M 217.714 -12.401 L 217.714 -12.401 L 217.714 -10.205 Q 217.714 -9.931 217.763 -9.769 Q 217.812 -9.608 217.979 -9.539 Q 218.145 -9.47 218.498 -9.47 L 218.498 -9.118 L 215.98 -9.118 L 215.98 -9.47 Q 216.352 -9.47 216.519 -9.539 Q 216.685 -9.608 216.724 -9.769 Q 216.764 -9.931 216.764 -10.205 L 216.764 -12.077 Q 216.764 -12.734 216.612 -13.043 Q 216.46 -13.351 216.23 -13.449 Q 215.999 -13.547 215.764 -13.547 Q 215.343 -13.547 215.024 -13.332 Q 214.706 -13.116 214.47 -12.92 L 214.47 -10.205 Q 214.47 -9.931 214.515 -9.769 Q 214.559 -9.608 214.725 -9.539 Q 214.892 -9.47 215.254 -9.47 L 215.254 -9.118 L 212.785 -9.118 L 212.785 -9.47 Q 213.128 -9.47 213.28 -9.539 Q 213.432 -9.608 213.471 -9.769 Q 213.51 -9.931 213.51 -10.205 L 213.51 -13.185 Q 213.51 -13.459 213.407 -13.552 Q 213.304 -13.645 213.079 -13.645 Q 212.961 -13.645 212.883 -13.635 Q 212.804 -13.626 212.804 -13.626 L 212.804 -13.998 L 214.118 -14.233 L 214.441 -14.233 L 214.441 -13.43 L 214.51 -13.43 Q 214.931 -13.812 215.318 -14.037 Q 215.705 -14.263 216.195 -14.263 Q 216.773 -14.263 217.102 -14.003 Q 217.43 -13.743 217.572 -13.322 Q 217.714 -12.9 217.714 -12.401 Z " fill="black" /><path d="M 223.584 -10.578 L 223.584 -10.578 L 223.82 -10.392 Q 223.614 -10.019 223.359 -9.706 Q 223.104 -9.392 222.732 -9.206 Q 222.359 -9.02 221.791 -9.02 Q 221.174 -9.02 220.64 -9.299 Q 220.105 -9.578 219.782 -10.156 Q 219.459 -10.735 219.459 -11.617 Q 219.459 -12.489 219.762 -13.077 Q 220.066 -13.665 220.586 -13.964 Q 221.105 -14.263 221.742 -14.263 Q 222.624 -14.263 223.207 -13.65 Q 223.79 -13.038 223.81 -11.822 L 220.36 -11.822 Q 220.36 -11.156 220.61 -10.72 Q 220.86 -10.284 221.252 -10.073 Q 221.644 -9.862 222.075 -9.862 Q 222.516 -9.862 222.781 -9.956 Q 223.045 -10.049 223.227 -10.215 Q 223.408 -10.382 223.584 -10.578 Z M 220.36 -12.273 L 220.36 -12.273 L 222.761 -12.273 Q 222.761 -12.665 222.634 -13.013 Q 222.506 -13.361 222.261 -13.582 Q 222.016 -13.802 221.634 -13.802 Q 221.076 -13.802 220.747 -13.41 Q 220.419 -13.018 220.36 -12.273 Z " fill="black" /><path d="M 224.969 -15.838 L 224.969 -15.838 Q 224.969 -18.176 225.984 -19.828 Q 226.999 -21.48 228.693 -22.362 L 228.917 -21.998 Q 227.391 -20.962 226.754 -19.471 Q 226.117 -17.98 226.117 -15.838 Q 226.117 -13.696 226.754 -12.205 Q 227.391 -10.714 228.917 -9.678 L 228.693 -9.314 Q 226.999 -10.196 225.984 -11.848 Q 224.969 -13.5 224.969 -15.838 Z " fill="black" /><path d="M 234.629 -18.764 L 234.629 -18.764 L 234.307 -16.58 L 233.971 -16.58 Q 233.943 -17.392 233.6 -17.868 Q 233.257 -18.344 232.641 -18.344 Q 232.095 -18.344 231.857 -18.05 Q 231.619 -17.756 231.619 -17.448 Q 231.619 -17.154 231.822 -16.881 Q 232.025 -16.608 232.333 -16.321 Q 232.641 -16.034 232.949 -15.698 Q 233.397 -15.222 233.726 -14.767 Q 234.055 -14.312 234.055 -13.64 Q 234.055 -13.234 233.852 -12.835 Q 233.649 -12.436 233.187 -12.17 Q 232.725 -11.904 231.927 -11.904 Q 231.269 -11.904 230.87 -12.065 Q 230.471 -12.226 230.317 -12.282 L 230.275 -12.282 L 229.939 -11.904 L 229.631 -11.904 L 229.995 -14.242 L 230.345 -14.242 Q 230.457 -13.332 230.772 -12.856 Q 231.087 -12.38 231.801 -12.38 Q 232.291 -12.38 232.592 -12.618 Q 232.893 -12.856 232.893 -13.402 Q 232.893 -13.976 232.578 -14.375 Q 232.263 -14.774 231.857 -15.152 Q 231.577 -15.432 231.29 -15.698 Q 231.003 -15.964 230.814 -16.293 Q 230.625 -16.622 230.625 -17.056 Q 230.625 -17.77 231.101 -18.267 Q 231.577 -18.764 232.529 -18.764 Q 233.089 -18.764 233.46 -18.61 Q 233.831 -18.456 233.957 -18.386 L 233.999 -18.386 L 234.363 -18.764 Z " fill="black" /><path d="M 239.109 -15.838 L 239.109 -15.838 Q 239.109 -13.5 238.094 -11.848 Q 237.079 -10.196 235.385 -9.314 L 235.161 -9.678 Q 236.701 -10.714 237.331 -12.205 Q 237.961 -13.696 237.961 -15.838 Q 237.961 -17.98 237.331 -19.471 Q 236.701 -20.962 235.161 -21.998 L 235.385 -22.362 Q 237.079 -21.48 238.094 -19.828 Q 239.109 -18.176 239.109 -15.838 Z " fill="black" /></g></g></g><g><g><g><path d="M 257.738 -4.442 L 257.738 -4.442 L 258.541 -8.303 Q 258.62 -8.685 258.61 -8.905 Q 258.6 -9.126 258.424 -9.214 Q 258.247 -9.302 257.816 -9.302 L 257.875 -9.596 L 260.638 -9.596 L 260.589 -9.302 Q 260.129 -9.302 259.903 -9.214 Q 259.678 -9.126 259.585 -8.905 Q 259.492 -8.685 259.413 -8.303 L 259.041 -6.47 L 259.08 -6.47 L 260.952 -8.009 Q 261.383 -8.352 261.643 -8.607 Q 261.903 -8.861 261.903 -9.077 Q 261.903 -9.302 261.54 -9.302 L 261.373 -9.302 L 261.442 -9.596 L 263.745 -9.596 L 263.696 -9.302 Q 263.422 -9.283 263.23 -9.219 Q 263.039 -9.155 262.843 -9.028 Q 262.647 -8.901 262.344 -8.655 L 259.815 -6.617 L 261.981 -3.873 Q 262.177 -3.638 262.417 -3.545 Q 262.657 -3.452 263.02 -3.452 L 262.961 -3.158 L 260.139 -3.158 L 260.188 -3.452 L 260.315 -3.452 Q 260.54 -3.452 260.663 -3.511 Q 260.785 -3.569 260.785 -3.736 Q 260.785 -3.893 260.692 -4.094 Q 260.599 -4.295 260.369 -4.618 Q 260.139 -4.941 259.717 -5.441 L 259.1 -6.186 L 258.982 -6.186 L 258.629 -4.442 Q 258.551 -4.02 258.561 -3.809 Q 258.571 -3.599 258.762 -3.525 Q 258.953 -3.452 259.384 -3.452 L 259.325 -3.158 L 256.591 -3.158 L 256.65 -3.452 Q 257.061 -3.452 257.262 -3.525 Q 257.463 -3.599 257.556 -3.809 Q 257.649 -4.02 257.738 -4.442 Z " fill="black" /><path d="M 267.007 -2.101 L 267.007 -2.101 L 268.238 -5.225 Q 268.274 -5.312 268.303 -5.409 Q 268.332 -5.506 268.332 -5.614 Q 268.332 -5.78 268.213 -5.834 Q 268.094 -5.888 267.82 -5.888 L 267.82 -6.161 L 269.484 -6.161 L 269.484 -5.888 Q 269.275 -5.888 269.142 -5.83 Q 269.008 -5.773 268.9 -5.593 Q 268.792 -5.413 268.641 -5.038 L 267.007 -1.057 L 266.589 -1.057 L 264.847 -5.175 Q 264.688 -5.557 264.519 -5.722 Q 264.35 -5.888 264.055 -5.888 L 264.055 -6.161 L 266.15 -6.161 L 266.15 -5.888 Q 266.064 -5.888 265.941 -5.877 Q 265.819 -5.866 265.729 -5.809 Q 265.639 -5.751 265.639 -5.607 Q 265.639 -5.535 265.678 -5.405 Q 265.718 -5.276 265.783 -5.11 L 266.704 -2.871 L 266.964 -2.101 Z " fill="black" /><path d="M 274.437 -2.273 L 274.437 -2.273 L 274.653 -2.093 Q 274.459 -1.791 274.178 -1.546 Q 273.897 -1.301 273.501 -1.157 Q 273.105 -1.013 272.565 -1.013 Q 271.37 -1.013 270.711 -1.676 Q 270.052 -2.338 270.052 -3.598 Q 270.052 -4.441 270.387 -5.035 Q 270.722 -5.629 271.312 -5.945 Q 271.903 -6.262 272.666 -6.262 Q 273.084 -6.262 273.328 -6.194 Q 273.573 -6.125 273.714 -6.053 Q 273.854 -5.981 273.948 -5.981 Q 274.027 -5.981 274.081 -6.05 Q 274.135 -6.118 274.228 -6.248 L 274.488 -6.248 L 274.488 -4.455 L 274.185 -4.455 Q 274.048 -5.218 273.663 -5.549 Q 273.278 -5.881 272.63 -5.881 Q 272.083 -5.881 271.708 -5.611 Q 271.334 -5.341 271.143 -4.851 Q 270.952 -4.361 270.952 -3.706 Q 270.952 -2.965 271.194 -2.504 Q 271.435 -2.043 271.86 -1.831 Q 272.284 -1.618 272.832 -1.618 Q 273.364 -1.618 273.739 -1.78 Q 274.113 -1.942 274.437 -2.273 Z " fill="black" /><path d="M 280.636 -3.605 L 280.636 -3.605 Q 280.636 -2.799 280.327 -2.216 Q 280.017 -1.633 279.448 -1.316 Q 278.88 -0.999 278.095 -0.999 Q 277.317 -0.999 276.748 -1.316 Q 276.18 -1.633 275.87 -2.223 Q 275.56 -2.813 275.56 -3.634 Q 275.56 -4.419 275.87 -5.006 Q 276.18 -5.593 276.752 -5.92 Q 277.324 -6.248 278.095 -6.248 Q 278.88 -6.248 279.448 -5.906 Q 280.017 -5.564 280.327 -4.97 Q 280.636 -4.376 280.636 -3.605 Z M 279.722 -3.706 L 279.722 -3.706 Q 279.722 -4.757 279.279 -5.319 Q 278.836 -5.881 278.088 -5.881 Q 277.346 -5.881 276.91 -5.312 Q 276.475 -4.743 276.475 -3.685 Q 276.475 -2.583 276.871 -1.985 Q 277.267 -1.388 278.102 -1.388 Q 278.937 -1.388 279.33 -1.967 Q 279.722 -2.547 279.722 -3.706 Z " fill="black" /><path d="M 270.827 4.794 L 270.827 4.794 L 270.602 6.323 L 270.367 6.323 Q 270.347 5.755 270.107 5.421 Q 269.867 5.088 269.436 5.088 Q 269.053 5.088 268.887 5.294 Q 268.72 5.5 268.72 5.715 Q 268.72 5.921 268.862 6.112 Q 269.004 6.303 269.22 6.504 Q 269.436 6.705 269.651 6.94 Q 269.965 7.274 270.195 7.592 Q 270.425 7.911 270.425 8.381 Q 270.425 8.665 270.283 8.945 Q 270.141 9.224 269.818 9.41 Q 269.494 9.596 268.936 9.596 Q 268.475 9.596 268.196 9.484 Q 267.917 9.371 267.809 9.332 L 267.779 9.332 L 267.544 9.596 L 267.329 9.596 L 267.583 7.96 L 267.828 7.96 Q 267.907 8.597 268.127 8.93 Q 268.348 9.263 268.848 9.263 Q 269.191 9.263 269.401 9.096 Q 269.612 8.93 269.612 8.548 Q 269.612 8.146 269.392 7.867 Q 269.171 7.587 268.887 7.323 Q 268.691 7.127 268.49 6.94 Q 268.289 6.754 268.157 6.524 Q 268.024 6.294 268.024 5.99 Q 268.024 5.49 268.358 5.142 Q 268.691 4.794 269.357 4.794 Q 269.749 4.794 270.009 4.902 Q 270.269 5.01 270.357 5.059 L 270.386 5.059 L 270.641 4.794 Z " fill="black" /><rect x="256.655" y="-0.333" width="24.513" height="0.952" fill="black" /></g></g></g><circle cx="324.0" cy="-0.0" r="2.6999999999999997" style="stroke:black;fill:black;stroke-width:2.0;stroke-dasharray:-;" /><g><g><g><path d="M 366.75 2.559 L 366.75 2.559 L 367.058 1.201 Q 367.31 -0.003 367.723 -0.941 Q 368.136 -1.879 368.717 -2.418 Q 369.298 -2.957 370.026 -2.957 Q 370.754 -2.957 371.181 -2.369 Q 371.608 -1.781 371.608 -0.633 Q 371.608 0.767 371.034 1.67 Q 370.46 2.573 369.494 3.063 Q 368.528 3.553 367.352 3.721 Q 367.296 4.295 367.247 4.827 Q 367.198 5.359 367.072 5.772 Q 366.946 6.185 366.666 6.423 Q 366.386 6.661 365.854 6.661 L 365.644 6.619 L 366.414 3.749 Q 365.294 3.595 364.699 2.937 Q 364.104 2.279 364.104 1.089 Q 364.104 0.347 364.293 -0.367 Q 364.482 -1.081 364.909 -1.683 Q 365.336 -2.285 366.043 -2.698 Q 366.75 -3.111 367.8 -3.237 Q 367.94 -3.139 367.94 -2.845 Q 367.94 -2.201 367.478 -2.075 Q 366.792 -1.921 366.155 -1.564 Q 365.518 -1.207 365.105 -0.64 Q 364.692 -0.073 364.692 0.725 Q 364.692 1.397 365.014 1.796 Q 365.336 2.195 365.812 2.37 Q 366.288 2.545 366.75 2.559 Z M 367.87 1.005 L 367.87 1.005 L 367.562 2.531 Q 368.052 2.503 368.633 2.363 Q 369.214 2.223 369.732 1.908 Q 370.25 1.593 370.586 1.033 Q 370.922 0.473 370.922 -0.395 Q 370.922 -1.123 370.628 -1.431 Q 370.334 -1.739 369.858 -1.739 Q 369.27 -1.739 368.871 -1.319 Q 368.472 -0.899 368.234 -0.269 Q 367.996 0.361 367.87 1.005 Z " fill="black" /><path d="M 374.748 1.418 L 374.748 1.418 Q 375.483 1.418 376.032 1.737 Q 376.581 2.055 376.88 2.629 Q 377.179 3.202 377.179 3.976 Q 377.179 4.907 376.865 5.505 Q 376.551 6.103 376.003 6.392 Q 375.454 6.681 374.748 6.681 Q 374.033 6.681 373.479 6.382 Q 372.925 6.083 372.617 5.485 Q 372.308 4.887 372.308 3.986 Q 372.308 3.221 372.612 2.643 Q 372.916 2.065 373.464 1.742 Q 374.013 1.418 374.748 1.418 Z M 374.729 1.869 L 374.729 1.869 Q 374.082 1.869 373.714 2.393 Q 373.347 2.918 373.347 3.927 Q 373.347 5.172 373.724 5.686 Q 374.101 6.201 374.778 6.201 Q 375.209 6.191 375.513 5.985 Q 375.816 5.779 375.978 5.294 Q 376.14 4.809 376.14 3.976 Q 376.14 2.976 375.797 2.423 Q 375.454 1.869 374.729 1.869 Z " fill="black" /><path d="M 383.843 6.063 L 383.843 6.063 L 383.843 6.436 L 382.52 6.612 L 382.206 6.612 L 382.206 5.848 L 382.108 5.848 Q 381.736 6.181 381.353 6.421 Q 380.971 6.661 380.432 6.661 Q 379.707 6.661 379.325 6.22 Q 378.943 5.779 378.943 4.691 L 378.943 2.584 Q 378.943 2.183 378.8 2.09 Q 378.658 1.996 378.208 1.996 L 378.208 1.644 L 379.57 1.457 L 379.893 1.457 L 379.893 4.564 Q 379.893 5.113 380.021 5.417 Q 380.148 5.72 380.364 5.838 Q 380.579 5.956 380.834 5.956 Q 381.265 5.956 381.554 5.774 Q 381.843 5.593 382.157 5.338 L 382.157 2.584 Q 382.157 2.183 381.981 2.09 Q 381.804 1.996 381.304 1.996 L 381.304 1.644 L 382.765 1.457 L 383.108 1.457 L 383.108 5.426 Q 383.108 5.72 383.161 5.858 Q 383.215 5.995 383.353 6.029 Q 383.49 6.063 383.735 6.063 Z " fill="black" /><path d="M 387.665 5.583 L 387.665 5.583 L 387.89 5.769 Q 387.674 6.063 387.498 6.264 Q 387.322 6.465 387.096 6.573 Q 386.871 6.681 386.518 6.681 Q 385.95 6.681 385.69 6.357 Q 385.43 6.034 385.43 5.319 L 385.43 2.026 L 384.813 2.026 L 384.813 1.732 Q 385.166 1.477 385.46 1.11 Q 385.754 0.742 386.048 0.056 L 386.391 0.056 L 386.381 1.546 L 387.625 1.546 L 387.625 2.026 L 386.381 2.026 L 386.381 4.995 Q 386.381 5.544 386.484 5.774 Q 386.587 6.005 386.9 6.005 Q 387.184 6.005 387.331 5.902 Q 387.478 5.799 387.665 5.583 Z " fill="black" /><path d="M 388.775 -0.157 L 388.775 -0.157 Q 388.775 -2.495 389.79 -4.147 Q 390.805 -5.799 392.499 -6.681 L 392.723 -6.317 Q 391.197 -5.281 390.56 -3.79 Q 389.923 -2.299 389.923 -0.157 Q 389.923 1.985 390.56 3.476 Q 391.197 4.967 392.723 6.003 L 392.499 6.367 Q 390.805 5.485 389.79 3.833 Q 388.775 2.181 388.775 -0.157 Z " fill="black" /><path d="M 398.435 -3.083 L 398.435 -3.083 L 398.113 -0.899 L 397.777 -0.899 Q 397.749 -1.711 397.406 -2.187 Q 397.063 -2.663 396.447 -2.663 Q 395.901 -2.663 395.663 -2.369 Q 395.425 -2.075 395.425 -1.767 Q 395.425 -1.473 395.628 -1.2 Q 395.831 -0.927 396.139 -0.64 Q 396.447 -0.353 396.755 -0.017 Q 397.203 0.459 397.532 0.914 Q 397.861 1.369 397.861 2.041 Q 397.861 2.447 397.658 2.846 Q 397.455 3.245 396.993 3.511 Q 396.531 3.777 395.733 3.777 Q 395.075 3.777 394.676 3.616 Q 394.277 3.455 394.123 3.399 L 394.081 3.399 L 393.745 3.777 L 393.437 3.777 L 393.801 1.439 L 394.151 1.439 Q 394.263 2.349 394.578 2.825 Q 394.893 3.301 395.607 3.301 Q 396.097 3.301 396.398 3.063 Q 396.699 2.825 396.699 2.279 Q 396.699 1.705 396.384 1.306 Q 396.069 0.907 395.663 0.529 Q 395.383 0.249 395.096 -0.017 Q 394.809 -0.283 394.62 -0.612 Q 394.431 -0.941 394.431 -1.375 Q 394.431 -2.089 394.907 -2.586 Q 395.383 -3.083 396.335 -3.083 Q 396.895 -3.083 397.266 -2.929 Q 397.637 -2.775 397.763 -2.705 L 397.805 -2.705 L 398.169 -3.083 Z " fill="black" /><path d="M 402.915 -0.157 L 402.915 -0.157 Q 402.915 2.181 401.9 3.833 Q 400.885 5.485 399.191 6.367 L 398.967 6.003 Q 400.507 4.967 401.137 3.476 Q 401.767 1.985 401.767 -0.157 Q 401.767 -2.299 401.137 -3.79 Q 400.507 -5.281 398.967 -6.317 L 399.191 -6.681 Q 400.885 -5.799 401.9 -4.147 Q 402.915 -2.495 402.915 -0.157 Z " fill="black" /></g></g></g><g><g><g><path d="M 194.647 75.843 L 194.647 75.843 Q 194.647 76.165 194.423 76.41 Q 194.199 76.655 193.779 76.655 Q 193.359 76.655 193.156 76.417 Q 192.953 76.179 192.953 75.829 Q 192.953 75.465 193.177 75.206 Q 193.401 74.947 193.793 74.947 Q 194.199 74.947 194.423 75.213 Q 194.647 75.479 194.647 75.843 Z M 194.647 70.747 L 194.647 70.747 Q 194.647 71.069 194.423 71.314 Q 194.199 71.559 193.779 71.559 Q 193.359 71.559 193.156 71.321 Q 192.953 71.083 192.953 70.733 Q 192.953 70.369 193.177 70.11 Q 193.401 69.851 193.793 69.851 Q 194.199 69.851 194.423 70.117 Q 194.647 70.383 194.647 70.747 Z " fill="black" /><path d="M 196.803 76.543 L 196.803 76.543 L 196.803 67.345 L 198.049 67.345 L 201.437 73.099 L 202.445 75.003 L 202.515 75.003 Q 202.473 74.303 202.417 73.547 Q 202.361 72.791 202.361 72.063 L 202.361 67.345 L 203.495 67.345 L 203.495 76.543 L 202.263 76.543 L 198.861 70.789 L 197.853 68.885 L 197.797 68.885 Q 197.839 69.585 197.895 70.32 Q 197.951 71.055 197.951 71.769 L 197.951 76.543 Z " fill="black" /></g></g></g><g><g><g><path d="M 92.1 64.278 L 92.1 64.278 L 92.408 62.92 Q 92.66 61.716 93.073 60.778 Q 93.486 59.84 94.067 59.301 Q 94.648 58.762 95.376 58.762 Q 96.104 58.762 96.531 59.35 Q 96.958 59.938 96.958 61.086 Q 96.958 62.486 96.384 63.389 Q 95.81 64.292 94.844 64.782 Q 93.878 65.272 92.702 65.44 Q 92.646 66.014 92.597 66.546 Q 92.548 67.078 92.422 67.491 Q 92.296 67.904 92.016 68.142 Q 91.736 68.38 91.204 68.38 L 90.994 68.338 L 91.764 65.468 Q 90.644 65.314 90.049 64.656 Q 89.454 63.998 89.454 62.808 Q 89.454 62.066 89.643 61.352 Q 89.832 60.638 90.259 60.036 Q 90.686 59.434 91.393 59.021 Q 92.1 58.608 93.15 58.482 Q 93.29 58.58 93.29 58.874 Q 93.29 59.518 92.828 59.644 Q 92.142 59.798 91.505 60.155 Q 90.868 60.512 90.455 61.079 Q 90.042 61.646 90.042 62.444 Q 90.042 63.116 90.364 63.515 Q 90.686 63.914 91.162 64.089 Q 91.638 64.264 92.1 64.278 Z M 93.22 62.724 L 93.22 62.724 L 92.912 64.25 Q 93.402 64.222 93.983 64.082 Q 94.564 63.942 95.082 63.627 Q 95.6 63.312 95.936 62.752 Q 96.272 62.192 96.272 61.324 Q 96.272 60.596 95.978 60.288 Q 95.684 59.98 95.208 59.98 Q 94.62 59.98 94.221 60.4 Q 93.822 60.82 93.584 61.45 Q 93.346 62.08 93.22 62.724 Z " fill="black" /><path d="M 100.098 63.137 L 100.098 63.137 Q 100.833 63.137 101.382 63.456 Q 101.93 63.774 102.229 64.348 Q 102.528 64.921 102.528 65.695 Q 102.528 66.626 102.215 67.224 Q 101.901 67.822 101.352 68.111 Q 100.803 68.4 100.098 68.4 Q 99.382 68.4 98.829 68.101 Q 98.275 67.802 97.966 67.204 Q 97.658 66.607 97.658 65.705 Q 97.658 64.941 97.961 64.362 Q 98.265 63.784 98.814 63.461 Q 99.363 63.137 100.098 63.137 Z M 100.078 63.588 L 100.078 63.588 Q 99.431 63.588 99.064 64.112 Q 98.696 64.637 98.696 65.646 Q 98.696 66.891 99.074 67.405 Q 99.451 67.92 100.127 67.92 Q 100.558 67.91 100.862 67.704 Q 101.166 67.498 101.328 67.013 Q 101.489 66.528 101.489 65.695 Q 101.489 64.696 101.146 64.142 Q 100.803 63.588 100.078 63.588 Z " fill="black" /><path d="M 109.192 67.783 L 109.192 67.783 L 109.192 68.155 L 107.869 68.331 L 107.556 68.331 L 107.556 67.567 L 107.458 67.567 Q 107.085 67.9 106.703 68.14 Q 106.321 68.38 105.782 68.38 Q 105.057 68.38 104.674 67.939 Q 104.292 67.498 104.292 66.411 L 104.292 64.304 Q 104.292 63.902 104.15 63.809 Q 104.008 63.716 103.557 63.716 L 103.557 63.363 L 104.919 63.177 L 105.243 63.177 L 105.243 66.283 Q 105.243 66.832 105.37 67.136 Q 105.498 67.44 105.713 67.557 Q 105.929 67.675 106.184 67.675 Q 106.615 67.675 106.904 67.493 Q 107.193 67.312 107.507 67.057 L 107.507 64.304 Q 107.507 63.902 107.33 63.809 Q 107.154 63.716 106.654 63.716 L 106.654 63.363 L 108.114 63.177 L 108.457 63.177 L 108.457 67.146 Q 108.457 67.44 108.511 67.577 Q 108.565 67.714 108.702 67.748 Q 108.839 67.783 109.084 67.783 Z " fill="black" /><path d="M 113.014 67.302 L 113.014 67.302 L 113.24 67.489 Q 113.024 67.783 112.848 67.983 Q 112.671 68.184 112.446 68.292 Q 112.22 68.4 111.868 68.4 Q 111.299 68.4 111.04 68.077 Q 110.78 67.753 110.78 67.038 L 110.78 63.745 L 110.162 63.745 L 110.162 63.451 Q 110.515 63.196 110.809 62.829 Q 111.103 62.461 111.397 61.775 L 111.74 61.775 L 111.73 63.265 L 112.975 63.265 L 112.975 63.745 L 111.73 63.745 L 111.73 66.714 Q 111.73 67.263 111.833 67.493 Q 111.936 67.724 112.25 67.724 Q 112.534 67.724 112.681 67.621 Q 112.828 67.518 113.014 67.302 Z " fill="black" /><path d="M 114.124 61.562 L 114.124 61.562 Q 114.124 59.224 115.139 57.572 Q 116.154 55.92 117.848 55.038 L 118.072 55.402 Q 116.546 56.438 115.909 57.929 Q 115.272 59.42 115.272 61.562 Q 115.272 63.704 115.909 65.195 Q 116.546 66.686 118.072 67.722 L 117.848 68.086 Q 116.154 67.204 115.139 65.552 Q 114.124 63.9 114.124 61.562 Z " fill="black" /><path d="M 123.784 58.636 L 123.784 58.636 L 123.462 60.82 L 123.126 60.82 Q 123.098 60.008 122.755 59.532 Q 122.412 59.056 121.796 59.056 Q 121.25 59.056 121.012 59.35 Q 120.774 59.644 120.774 59.952 Q 120.774 60.246 120.977 60.519 Q 121.18 60.792 121.488 61.079 Q 121.796 61.366 122.104 61.702 Q 122.552 62.178 122.881 62.633 Q 123.21 63.088 123.21 63.76 Q 123.21 64.166 123.007 64.565 Q 122.804 64.964 122.342 65.23 Q 121.88 65.496 121.082 65.496 Q 120.424 65.496 120.025 65.335 Q 119.626 65.174 119.472 65.118 L 119.43 65.118 L 119.094 65.496 L 118.786 65.496 L 119.15 63.158 L 119.5 63.158 Q 119.612 64.068 119.927 64.544 Q 120.242 65.02 120.956 65.02 Q 121.446 65.02 121.747 64.782 Q 122.048 64.544 122.048 63.998 Q 122.048 63.424 121.733 63.025 Q 121.418 62.626 121.012 62.248 Q 120.732 61.968 120.445 61.702 Q 120.158 61.436 119.969 61.107 Q 119.78 60.778 119.78 60.344 Q 119.78 59.63 120.256 59.133 Q 120.732 58.636 121.684 58.636 Q 122.244 58.636 122.615 58.79 Q 122.986 58.944 123.112 59.014 L 123.154 59.014 L 123.518 58.636 Z " fill="black" /><path d="M 128.264 61.562 L 128.264 61.562 Q 128.264 63.9 127.249 65.552 Q 126.234 67.204 124.54 68.086 L 124.316 67.722 Q 125.856 66.686 126.486 65.195 Q 127.116 63.704 127.116 61.562 Q 127.116 59.42 126.486 57.929 Q 125.856 56.438 124.316 55.402 L 124.54 55.038 Q 126.234 55.92 127.249 57.572 Q 128.264 59.224 128.264 61.562 Z " fill="black" /><path d="M 133.808 55.416 L 133.808 55.416 L 130.168 66.588 L 129.384 66.588 L 133.038 55.416 Z " fill="black" /><path d="M 145.554 56.144 L 145.554 56.144 L 145.47 56.564 Q 145.092 56.564 144.889 56.634 Q 144.686 56.704 144.532 56.844 Q 144.406 56.956 144.28 57.117 Q 144.154 57.278 144.042 57.586 Q 143.93 57.894 143.818 58.44 L 142.39 65.454 L 141.928 65.454 L 137.812 57.936 L 137.742 57.936 L 136.65 63.256 Q 136.51 63.956 136.538 64.313 Q 136.566 64.67 136.825 64.796 Q 137.084 64.922 137.602 64.922 L 137.518 65.342 L 134.298 65.342 L 134.382 64.922 Q 134.928 64.922 135.222 64.803 Q 135.516 64.684 135.67 64.32 Q 135.824 63.956 135.964 63.256 L 137.21 57.208 Q 136.972 56.816 136.734 56.69 Q 136.496 56.564 136.048 56.564 L 136.132 56.144 L 138.33 56.144 L 142.11 63.032 L 142.18 63.032 L 143.146 58.37 Q 143.272 57.74 143.279 57.418 Q 143.286 57.096 143.188 56.914 Q 143.062 56.704 142.838 56.634 Q 142.614 56.564 142.166 56.564 L 142.25 56.144 Z " fill="black" /></g></g></g></svg>