<svg xmlns="http://www.w3.org/2000/svg" xmlns:xlink="http://www.w3.org/1999/xlink" xml:lang="en" height="81.2pt" width="314.5144pt" viewBox="-22.60000000000003 -22.6 314.5144 81.2"><circle cx="47.699999999999996" cy="-0.0" r="4.32" style="stroke:black;fill:none;stroke-width:2.0;stroke-dasharray:-;" /><circle cx="119.69999999999999" cy="-0.0" r="4.32" style="stroke:black;fill:none;stroke-width:2.0;stroke-dasharray:-;" /><circle cx="191.7" cy="-0.0" r="4.32" style="stroke:black;fill:none;stroke-width:2.0;stroke-dasharray:-;" /><path d="M 0.0,-0.0 L 19.979999999999997,-0.0 M 52.019999999999996,-0.0 L 71.99999999999999,-0.0" style="stroke:black;fill:none;stroke-width:2.0;stroke-dasharray:-;stroke-linecap:round;stroke-linejoin:round;" /><path d="M 19.979999999999997,-18.0 L 43.38,-0.0 L 19.979999999999997,18.0 L 19.979999999999997,-18.0" style="stroke:black;fill:none;stroke-width:2.0;stroke-dasharray:-;stroke-linecap:round;stroke-linejoin:round;" /><path d="M 71.99999999999999,-0.0 L 91.97999999999999,-0.0 M 124.01999999999998,-0.0 L 143.99999999999997,-0.0" style="stroke:black;fill:none;stroke-width:2.0;stroke-dasharray:-;stroke-linecap:round;stroke-linejoin:round;" /><path d="M 91.97999999999999,-18.0 L 115.38,-0.0 L 91.97999999999999,18.0 L 91.97999999999999,-18.0" style="stroke:black;fill:none;stroke-width:2.0;stroke-dasharray:-;stroke-linecap:round;stroke-linejoin:round;" /><path d="M 143.99999999999997,-0.0 L 163.98,-0.0 M 196.01999999999998,-0.0 L 215.99999999999997,-0.0" style="stroke:black;fill:none;stroke-width:2.0;stroke-dasharray:-;stroke-linecap:round;stroke-linejoin:round;" /><path d="M 163.98,-18.0 L 187.38,-0.0 L 163.98,18.0 L 163.98,-18.0" style="stroke:black;fill:none;stroke-width:2.0;stroke-dasharray:-;stroke-linecap:round;stroke-linejoin:round;" /><path d="M 215.99999999999997,-0.0 L 224.99999999999997,-0.0 L 233.99999999999997,-0.0" style="stroke:black;fill:none;stroke-width:2.0;stroke-dasharray:-;stroke-linecap:round;stroke-linejoin:round;" /><path d="M 233.99999999999997,-0.0 L 251.99999999999997,-0.0 L 260.99999999999994,-0.0" style="stroke:black;fill:none;stroke-width:2.0;stroke-dasharray:-;stroke-linecap:round;stroke-linejoin:round;" /><path d="M 267.99999999999994 0.0 L 260.99999999999994 2.6999999999999997 L 260.99999999999994 -2.6999999999999997 Z" style="stroke:black;fill:black;stroke-linecap:butt;stroke-linejoin:miter;" /><path d="M 233.99999999999997,-0.0 L 233.99999999999997,27.0 L 233.99999999999997,54.0" style="stroke:black;fill:none;stroke-width:2.0;stroke-dasharray:-;stroke-linecap:round;stroke-linejoin:round;" /><path d="M 233.99999999999997,54.0 L 107.99999999999997,53.999999999999986 L -18.000000000000032,53.99999999999997" style="stroke:black;fill:none;stroke-width:2.0;stroke-dasharray:-;stroke-linecap:round;stroke-linejoin:round;" /><path d="M -18.000000000000032,53.99999999999997 L -18.000000000000032,26.999999999999968 L -18.00000000000003,-3.197442310920451e-14" style="stroke:black;fill:none;stroke-width:2.0;stroke-dasharray:-;stroke-linecap:round;stroke-linejoin:round;" /><path d="M -18.00000000000003,-3.197442310920451e-14 L 0.9899999999999829,-3.197442310920451e-14 L 19.979999999999993,-3.197442310920451e-14" style="stroke:black;fill:none;stroke-width:2.0;stroke-dasharray:-;stroke-linecap:round;stroke-linejoin:round;" /><circle cx="233.99999999999997" cy="-0.0" r="2.6999999999999997" style="stroke:black;fill:black;stroke-width:2.0;stroke-dasharray:-;" /><g><g><g><path d="M 278.08 -0.155 L 278.08 -0.155 Q 278.08 0.195 278.304 0.475 Q 278.528 0.755 279.144 0.755 Q 279.942 0.755 280.446 0.37 Q 280.95 -0.015 281.181 -0.673 Q 281.412 -1.331 281.412 -2.171 Q 281.412 -2.843 281.251 -3.354 Q 281.09 -3.865 280.887 -4.194 Q 280.684 -4.523 280.558 -4.635 L 280.684 -4.817 Q 280.964 -4.789 281.342 -4.474 Q 281.72 -4.159 282.014 -3.543 Q 282.308 -2.927 282.308 -1.961 Q 282.308 -1.275 282.126 -0.575 Q 281.944 0.125 281.566 0.692 Q 281.188 1.259 280.593 1.609 Q 279.998 1.959 279.158 1.959 Q 278.556 1.959 278.192 1.574 Q 277.828 1.189 277.646 0.461 L 277.59 0.461 Q 277.24 1.049 276.75 1.504 Q 276.26 1.959 275.588 1.959 Q 274.734 1.959 274.384 1.238 Q 274.034 0.517 274.034 -0.631 Q 274.034 -1.317 274.202 -2.003 Q 274.37 -2.689 274.762 -3.277 Q 275.154 -3.865 275.826 -4.285 Q 276.498 -4.705 277.52 -4.873 Q 277.688 -4.677 277.688 -4.411 Q 277.688 -4.173 277.548 -3.97 Q 277.408 -3.767 277.17 -3.711 Q 276.022 -3.501 275.336 -2.738 Q 274.65 -1.975 274.65 -0.855 Q 274.65 0.013 275.028 0.356 Q 275.406 0.699 275.952 0.699 Q 276.4 0.699 276.708 0.552 Q 277.016 0.405 277.212 0.223 Q 277.408 0.041 277.506 -0.099 Q 277.492 -0.197 277.492 -0.295 Q 277.492 -0.393 277.492 -0.477 Q 277.492 -0.771 277.569 -1.233 Q 277.646 -1.695 277.793 -2.178 Q 277.94 -2.661 278.164 -3.011 Q 278.22 -3.095 278.388 -3.144 Q 278.556 -3.193 278.724 -3.193 Q 278.948 -3.193 279.116 -3.102 Q 279.284 -3.011 279.284 -2.927 Q 279.228 -2.381 278.878 -1.625 Q 278.528 -0.869 278.08 -0.155 Z " fill="black" /><path d="M 288.46 1.502 L 288.46 1.502 Q 288.46 2.148 288.322 2.756 Q 288.185 3.364 287.896 3.839 Q 287.607 4.314 287.156 4.593 Q 286.705 4.873 286.088 4.873 Q 285.461 4.873 285.01 4.603 Q 284.559 4.334 284.275 3.863 Q 283.991 3.393 283.858 2.78 Q 283.726 2.168 283.726 1.482 Q 283.726 0.463 284.02 -0.272 Q 284.314 -1.007 284.848 -1.409 Q 285.382 -1.811 286.108 -1.811 Q 286.784 -1.811 287.318 -1.424 Q 287.852 -1.037 288.156 -0.297 Q 288.46 0.443 288.46 1.502 Z M 287.411 1.57 L 287.411 1.57 Q 287.411 0.032 287.078 -0.689 Q 286.745 -1.409 286.088 -1.409 Q 285.441 -1.409 285.103 -0.689 Q 284.765 0.032 284.765 1.531 Q 284.765 3.011 285.113 3.731 Q 285.461 4.451 286.088 4.451 Q 286.725 4.451 287.068 3.726 Q 287.411 3.001 287.411 1.57 Z " fill="black" /></g></g></g></svg>