<svg xmlns="http://www.w3.org/2000/svg" xmlns:xlink="http://www.w3.org/1999/xlink" xml:lang="en" height="326.378pt" width="400.63840000000005pt" viewBox="-31.554199999999994 -268.738 400.63840000000005 326.378"><path d="M 0.0,-0.0 L 9.0,-0.0 L 18.0,-0.0" style="stroke:black;fill:none;stroke-width:2.0;stroke-dasharray:-;stroke-linecap:round;stroke-linejoin:round;" /><path d="M 50.99999999999999,29.999999999999996 L 50.99999999999999,15.000000000000004 L 35.99999999999999,15.000000000000004 L 35.99999999999999,-14.999999999999998 L 50.99999999999999,-14.999999999999998 L 50.99999999999999,-29.999999999999996" style="stroke:black;fill:none;stroke-width:2.0;stroke-dasharray:-;stroke-linecap:round;stroke-linejoin:round;" /><path d="M 41.99999999999999,15.0 L 35.99999999999999,15.000000000000004" style="stroke:black;fill:none;stroke-width:2.0;stroke-dasharray:-;stroke-linecap:round;stroke-linejoin:round;" /><path d="M 48.99999999999999 15.000000000000004 L 41.99999999999999 19.500000000000004 L 41.99999999999999 10.500000000000004 Z" style="stroke:black;fill:black;stroke-linecap:butt;stroke-linejoin:miter;" /><path d="M 32.99999999999999,12.000000000000005 L 32.99999999999999,-12.0" style="stroke:black;fill:none;stroke-width:2.0;stroke-dasharray:-;stroke-linecap:round;stroke-linejoin:round;" /><path d="M 18.0,-0.0 L 32.99999999999999,-0.0" style="stroke:black;fill:none;stroke-width:2.0;stroke-dasharray:-;stroke-linecap:round;stroke-linejoin:round;" /><path d="M 50.99999999999999,29.999999999999996 L 50.99999999999999,44.400000000000006 L 41.99999999999999,44.400000000000006 L 59.99999999999999,44.400000000000006 M 44.699999999999996,48.72 L 57.3,48.72 M 49.199999999999996,53.03999999999999 L 52.8,53.03999999999999" style="stroke:black;fill:none;stroke-width:2.0;stroke-dasharray:-;stroke-linecap:round;stroke-linejoin:round;" /><path d="M 50.99999999999999,-90.0 L 50.99999999999999,-74.99999999999999 L 65.99999999999999,-74.99999999999999 L 65.99999999999999,-44.99999999999999 L 50.99999999999999,-44.99999999999999 L 50.99999999999999,-29.999999999999996" style="stroke:black;fill:none;stroke-width:2.0;stroke-dasharray:-;stroke-linecap:round;stroke-linejoin:round;" /><path d="M 65.99999999999999,-44.99999999999999 L 59.99999999999999,-44.99999999999999" style="stroke:black;fill:none;stroke-width:2.0;stroke-dasharray:-;stroke-linecap:round;stroke-linejoin:round;" /><path d="M 52.99999999999999 -44.99999999999999 L 59.99999999999999 -49.49999999999999 L 59.99999999999999 -40.49999999999999 Z" style="stroke:black;fill:black;stroke-linecap:butt;stroke-linejoin:miter;" /><path d="M 69.0,-71.99999999999999 L 69.0,-47.999999999999986" style="stroke:black;fill:none;stroke-width:2.0;stroke-dasharray:-;stroke-linecap:round;stroke-linejoin:round;" /><path d="M 69.0,-59.99999999999999 L 83.99999999999999,-59.99999999999999" style="stroke:black;fill:none;stroke-width:2.0;stroke-dasharray:-;stroke-linecap:round;stroke-linejoin:round;" /><path d="M 83.99999999999999,-59.99999999999999 L 156.0,-59.99999999999999 L 228.0,-59.99999999999999" style="stroke:black;fill:none;stroke-width:2.0;stroke-dasharray:-;stroke-linecap:round;stroke-linejoin:round;" /><path d="M 261.0,-29.999999999999996 L 261.0,-44.99999999999999 L 246.0,-44.99999999999999 L 246.0,-74.99999999999999 L 261.0,-74.99999999999999 L 261.0,-90.0" style="stroke:black;fill:none;stroke-width:2.0;stroke-dasharray:-;stroke-linecap:round;stroke-linejoin:round;" /><path d="M 252.0,-44.99999999999999 L 246.0,-44.99999999999999" style="stroke:black;fill:none;stroke-width:2.0;stroke-dasharray:-;stroke-linecap:round;stroke-linejoin:round;" /><path d="M 259.0 -44.99999999999999 L 252.0 -40.49999999999999 L 252.0 -49.49999999999999 Z" style="stroke:black;fill:black;stroke-linecap:butt;stroke-linejoin:miter;" /><path d="M 243.0,-47.999999999999986 L 243.0,-71.99999999999999" style="stroke:black;fill:none;stroke-width:2.0;stroke-dasharray:-;stroke-linecap:round;stroke-linejoin:round;" /><path d="M 228.0,-59.99999999999999 L 243.0,-59.99999999999999" style="stroke:black;fill:none;stroke-width:2.0;stroke-dasharray:-;stroke-linecap:round;stroke-linejoin:round;" /><path d="M 261.0,-29.999999999999996 L 261.0,-14.999999999999998 L 276.0,-14.999999999999998 L 276.0,15.000000000000004 L 261.0,15.000000000000004 L 261.0,29.999999999999996" style="stroke:black;fill:none;stroke-width:2.0;stroke-dasharray:-;stroke-linecap:round;stroke-linejoin:round;" /><path d="M 276.0,15.000000000000004 L 270.0,15.000000000000005" style="stroke:black;fill:none;stroke-width:2.0;stroke-dasharray:-;stroke-linecap:round;stroke-linejoin:round;" /><path d="M 263.0 15.000000000000004 L 270.0 10.500000000000004 L 270.0 19.500000000000004 Z" style="stroke:black;fill:black;stroke-linecap:butt;stroke-linejoin:miter;" /><path d="M 279.0,-12.0 L 279.0,12.000000000000005" style="stroke:black;fill:none;stroke-width:2.0;stroke-dasharray:-;stroke-linecap:round;stroke-linejoin:round;" /><path d="M 279.0,-0.0 L 294.0,-0.0" style="stroke:black;fill:none;stroke-width:2.0;stroke-dasharray:-;stroke-linecap:round;stroke-linejoin:round;" /><path d="M 261.0,29.999999999999996 L 261.0,44.400000000000006 L 252.0,44.400000000000006 L 270.0,44.400000000000006 M 254.70000000000002,48.72 L 267.3,48.72 M 259.2,53.03999999999999 L 262.8,53.03999999999999" style="stroke:black;fill:none;stroke-width:2.0;stroke-dasharray:-;stroke-linecap:round;stroke-linejoin:round;" /><path d="M 294.0,-0.0 L 303.0,-0.0 L 312.0,-0.0" style="stroke:black;fill:none;stroke-width:2.0;stroke-dasharray:-;stroke-linecap:round;stroke-linejoin:round;" /><path d="M 50.99999999999999,-90.0 L 50.99999999999999,-108.0 L 50.99999999999999,-126.0" style="stroke:black;fill:none;stroke-width:2.0;stroke-dasharray:-;stroke-linecap:round;stroke-linejoin:round;" /><path d="M 261.0,-90.0 L 261.0,-108.0 L 261.0,-126.0" style="stroke:black;fill:none;stroke-width:2.0;stroke-dasharray:-;stroke-linecap:round;stroke-linejoin:round;" /><path d="M 50.99999999999999,-126.0 L 152.76000000000002,-126.0 M 152.76000000000002,-135.0 L 152.76000000000002,-117.0 M 159.24,-135.0 L 159.24,-117.0 M 159.24,-126.0 L 261.0,-126.0" style="stroke:black;fill:none;stroke-width:2.0;stroke-dasharray:-;stroke-linecap:round;stroke-linejoin:round;" /><path d="M 50.99999999999999,-126.0 L 50.99999999999999,-162.0 L 51.0,-198.0" style="stroke:black;fill:none;stroke-width:2.0;stroke-dasharray:-;stroke-linecap:round;stroke-linejoin:round;" /><path d="M 261.0,-126.0 L 261.0,-162.0 L 261.0,-198.0" style="stroke:black;fill:none;stroke-width:2.0;stroke-dasharray:-;stroke-linecap:round;stroke-linejoin:round;" /><path d="M 51.0,-198.0 L 51.0,-216.0 L 51.0,-234.0" style="stroke:black;fill:none;stroke-width:2.0;stroke-dasharray:-;stroke-linecap:round;stroke-linejoin:round;" /><path d="M 261.0,-198.0 L 261.0,-216.0 L 261.0,-234.0" style="stroke:black;fill:none;stroke-width:2.0;stroke-dasharray:-;stroke-linecap:round;stroke-linejoin:round;" /><path d="M 51.0,-234.0 L 87.00000000000001,-234.0 L 87.06703383328697,-235.66155627338983 L 87.27113325898927,-237.366979365425 L 87.61398039413747,-239.069856390672 L 88.09348135344777,-240.72384375460027 L 88.70382323415933,-242.2839283889636 L 89.43563231348766,-243.7076527770675 L 90.27622915336872,-244.95627043000675 L 91.20997366984913,-245.99580036772628 L 92.21869077609993,-246.79795190732776 L 93.2821650152303,-247.34089459062062 L 94.37869072152867,-247.60985229743022 L 95.4856627375583,-247.59750537594056 L 96.58019161081282,-247.3041898461429 L 97.63972652742795,-246.737888255092 L 98.64266902988307,-245.91401243284287 L 99.56896081643887,-244.85498406133937 L 100.40062962541977,-243.58962447102272 L 101.12227834816522,-242.15237027177105 L 101.7215040595002,-240.58233616468124 L 102.18923556185993,-238.92225044015788 L 102.51998025684661,-237.2172921326013 L 102.71197362563754,-235.513861478391 L 102.76722725015401,-233.85831713900356 L 102.69147406809978,-232.29571455558607 L 102.49401235174736,-230.8685797705153 L 102.18745265657054,-229.61575208624186 L 101.78737462648556,-228.57132705832012 L 101.3119029957058,-227.76372858894254 L 100.78121432626835,-227.2149353738419 L 100.216987905312,-226.93988275471628 L 99.64181574587086,-226.9460562556911 L 99.07858774794266,-227.23328786567595 L 98.54986875259839,-227.7937606107659 L 98.07728444253186,-228.61222129225163 L 97.68093280169242,-229.66639560059716 L 97.37883715105589,-230.92759430810955 L 97.18645564610044,-232.36149404283842 L 97.11626058495435,-233.92907139503754 L 97.17739897629451,-235.58766493459282 L 97.37544360459964,-237.29213623673934 L 97.71224136748715,-238.9960983188915 L 98.18586301261563,-240.65317805682497 L 98.7906556420564,-242.21827822370486 L 99.5173965552344,-243.64880480571918 L 100.35354424362114,-244.90582619306932 L 101.28357970638888,-245.9551326990734 L 102.28942879816177,-246.76816757269683 L 103.35095411471985,-247.32280416711563 L 104.44650303004627,-247.60394811376273 L 105.55349696995373,-247.60394811376273 L 106.64904588528013,-247.32280416711563 L 107.71057120183823,-246.76816757269683 L 108.71642029361111,-245.95513269907343 L 109.64645575637886,-244.90582619306934 L 110.4826034447656,-243.6488048057192 L 111.20934435794359,-242.21827822370489 L 111.81413698738436,-240.65317805682503 L 112.28775863251283,-238.99609831889154 L 112.62455639540036,-237.29213623673937 L 112.82260102370549,-235.58766493459285 L 112.88373941504567,-233.92907139503757 L 112.81354435389957,-232.36149404283844 L 112.6211628489441,-230.92759430810958 L 112.31906719830761,-229.66639560059718 L 111.92271555746814,-228.61222129225163 L 111.45013124740161,-227.79376061076596 L 110.92141225205734,-227.23328786567595 L 110.35818425412914,-226.94605625569113 L 109.78301209468803,-226.93988275471628 L 109.21878567373166,-227.2149353738419 L 108.68809700429424,-227.7637285889425 L 108.21262537351446,-228.57132705832012 L 107.81254734342947,-229.61575208624186 L 107.50598764825264,-230.86857977051528 L 107.30852593190025,-232.29571455558602 L 107.232772749846,-233.85831713900353 L 107.28802637436247,-235.513861478391 L 107.4800197431534,-237.21729213260127 L 107.81076443814005,-238.92225044015785 L 108.2784959404998,-240.5823361646812 L 108.87772165183478,-242.15237027177102 L 109.59937037458022,-243.58962447102266 L 110.4310391835611,-244.85498406133934 L 111.35733097011692,-245.9140124328428 L 112.36027347257206,-246.73788825509197 L 113.41980838918717,-247.3041898461429 L 114.51433726244167,-247.59750537594056 L 115.62130927847132,-247.60985229743022 L 116.71783498476968,-247.34089459062065 L 117.78130922390005,-246.79795190732776 L 118.79002633015085,-245.9958003677263 L 119.72377084663124,-244.95627043000678 L 120.56436768651236,-243.7076527770675 L 121.29617676584066,-242.28392838896366 L 121.90651864655223,-240.72384375460032 L 122.38601960586251,-239.06985639067202 L 122.72886674101073,-237.36697936542507 L 122.93296616671302,-235.66155627338983 L 123.00000000000001,-234.00000000000003 L 159.0,-234.00000000000003" style="stroke:black;fill:none;stroke-width:2.0;stroke-dasharray:-;stroke-linecap:round;stroke-linejoin:round;" /><path d="M 159.0,-234.00000000000003 L 159.0,-248.40000000000003" style="stroke:black;fill:none;stroke-width:2.0;stroke-dasharray:-;stroke-linecap:round;stroke-linejoin:round;" /><path d="M 159.0,-248.40000000000003 L 152.25,-248.40000000000003" style="stroke:black;fill:none;stroke-width:2.0;stroke-dasharray:-;stroke-linecap:round;stroke-linejoin:round;" /><path d="M 159.0,-248.40000000000003 L 165.75,-248.40000000000003" style="stroke:black;fill:none;stroke-width:2.0;stroke-dasharray:-;stroke-linecap:round;stroke-linejoin:round;" /><path d="M 159.0,-234.00000000000003 L 192.00000000000003,-234.00000000000003 L 192.06703383328698,-235.66155627338986 L 192.27113325898927,-237.36697936542504 L 192.61398039413749,-239.06985639067202 L 193.09348135344777,-240.7238437546003 L 193.70382323415933,-242.28392838896366 L 194.43563231348764,-243.70765277706752 L 195.27622915336872,-244.95627043000678 L 196.20997366984915,-245.9958003677263 L 197.21869077609995,-246.79795190732776 L 198.2821650152303,-247.34089459062065 L 199.3786907215287,-247.60985229743025 L 200.4856627375583,-247.59750537594056 L 201.58019161081285,-247.30418984614292 L 202.63972652742794,-246.737888255092 L 203.64266902988305,-245.91401243284287 L 204.56896081643887,-244.8549840613394 L 205.40062962541978,-243.58962447102274 L 206.12227834816522,-242.15237027177105 L 206.7215040595002,-240.58233616468127 L 207.18923556185996,-238.9222504401579 L 207.5199802568466,-237.2172921326013 L 207.71197362563754,-235.51386147839105 L 207.767227250154,-233.8583171390036 L 207.69147406809978,-232.29571455558607 L 207.4940123517474,-230.8685797705153 L 207.18745265657054,-229.61575208624188 L 206.7873746264856,-228.57132705832015 L 206.31190299570576,-227.76372858894254 L 205.78121432626838,-227.21493537384197 L 205.216987905312,-226.93988275471628 L 204.64181574587087,-226.94605625569113 L 204.07858774794266,-227.23328786567598 L 203.5498687525984,-227.79376061076596 L 203.07728444253186,-228.61222129225163 L 202.68093280169242,-229.66639560059718 L 202.3788371510559,-230.92759430810958 L 202.18645564610046,-232.36149404283844 L 202.11626058495438,-233.92907139503757 L 202.1773989762945,-235.58766493459285 L 202.37544360459964,-237.29213623673937 L 202.71224136748717,-238.9960983188915 L 203.18586301261564,-240.65317805682497 L 203.7906556420564,-242.21827822370489 L 204.5173965552344,-243.6488048057192 L 205.35354424362112,-244.90582619306934 L 206.2835797063889,-245.95513269907343 L 207.28942879816177,-246.76816757269688 L 208.35095411471985,-247.32280416711563 L 209.4465030300463,-247.60394811376273 L 210.55349696995376,-247.60394811376273 L 211.64904588528015,-247.32280416711566 L 212.71057120183823,-246.76816757269688 L 213.71642029361112,-245.95513269907343 L 214.64645575637886,-244.90582619306937 L 215.4826034447656,-243.64880480571924 L 216.20934435794362,-242.21827822370489 L 216.81413698738436,-240.65317805682503 L 217.28775863251286,-238.99609831889157 L 217.62455639540036,-237.2921362367394 L 217.8226010237055,-235.58766493459288 L 217.88373941504568,-233.9290713950376 L 217.8135443538996,-232.36149404283847 L 217.6211628489441,-230.9275943081096 L 217.3190671983076,-229.66639560059718 L 216.92271555746817,-228.61222129225166 L 216.45013124740163,-227.79376061076596 L 215.92141225205734,-227.23328786567598 L 215.35818425412916,-226.94605625569113 L 214.78301209468805,-226.93988275471628 L 214.21878567373165,-227.21493537384197 L 213.68809700429424,-227.76372858894254 L 213.21262537351447,-228.57132705832012 L 212.8125473434295,-229.61575208624186 L 212.50598764825264,-230.86857977051528 L 212.30852593190025,-232.29571455558604 L 212.232772749846,-233.85831713900356 L 212.28802637436246,-235.513861478391 L 212.48001974315338,-237.21729213260127 L 212.81076443814004,-238.92225044015785 L 213.2784959404998,-240.5823361646812 L 213.87772165183475,-242.15237027177102 L 214.5993703745802,-243.58962447102272 L 215.4310391835611,-244.85498406133937 L 216.35733097011695,-245.9140124328428 L 217.36027347257203,-246.737888255092 L 218.41980838918718,-247.3041898461429 L 219.5143372624417,-247.59750537594056 L 220.62130927847133,-247.60985229743025 L 221.71783498476967,-247.34089459062065 L 222.78130922390008,-246.79795190732776 L 223.79002633015082,-245.9958003677263 L 224.72377084663125,-244.95627043000684 L 225.56436768651236,-243.70765277706752 L 226.29617676584067,-242.2839283889637 L 226.90651864655223,-240.72384375460035 L 227.38601960586254,-239.06985639067202 L 227.72886674101073,-237.36697936542507 L 227.93296616671302,-235.66155627338983 L 228.00000000000003,-234.00000000000003 L 261.0,-234.00000000000003" style="stroke:black;fill:none;stroke-width:2.0;stroke-dasharray:-;stroke-linecap:round;stroke-linejoin:round;" /><path d="M 123.00000000000001,-198.0 L 141.0,-198.0 L 141.06703383328698,-199.66155627338983 L 141.27113325898927,-201.366979365425 L 141.61398039413749,-203.069856390672 L 142.09348135344777,-204.72384375460027 L 142.70382323415933,-206.2839283889636 L 143.43563231348764,-207.7076527770675 L 144.27622915336875,-208.95627043000675 L 145.20997366984918,-209.99580036772628 L 146.21869077609995,-210.79795190732776 L 147.28216501523033,-211.34089459062062 L 148.37869072152867,-211.60985229743022 L 149.4856627375583,-211.59750537594056 L 150.58019161081282,-211.3041898461429 L 151.63972652742797,-210.737888255092 L 152.64266902988305,-209.91401243284287 L 153.5689608164389,-208.85498406133937 L 154.4006296254198,-207.58962447102272 L 155.12227834816525,-206.15237027177105 L 155.7215040595002,-204.58233616468124 L 156.18923556185996,-202.92225044015788 L 156.51998025684662,-201.2172921326013 L 156.71197362563754,-199.513861478391 L 156.767227250154,-197.85831713900356 L 156.69147406809978,-196.29571455558607 L 156.49401235174736,-194.8685797705153 L 156.18745265657054,-193.61575208624186 L 155.78737462648556,-192.57132705832012 L 155.3119029957058,-191.76372858894254 L 154.78121432626835,-191.2149353738419 L 154.21698790531198,-190.93988275471628 L 153.64181574587087,-190.9460562556911 L 153.0785877479427,-191.23328786567595 L 152.5498687525984,-191.7937606107659 L 152.0772844425319,-192.61222129225163 L 151.68093280169242,-193.66639560059716 L 151.3788371510559,-194.92759430810955 L 151.18645564610046,-196.36149404283842 L 151.11626058495435,-197.92907139503754 L 151.17739897629454,-199.58766493459282 L 151.37544360459964,-201.29213623673934 L 151.71224136748714,-202.9960983188915 L 152.18586301261564,-204.65317805682497 L 152.79065564205638,-206.21827822370486 L 153.5173965552344,-207.64880480571918 L 154.35354424362114,-208.90582619306932 L 155.28357970638888,-209.9551326990734 L 156.28942879816177,-210.76816757269683 L 157.35095411471985,-211.32280416711563 L 158.44650303004627,-211.60394811376273 L 159.55349696995373,-211.60394811376273 L 160.64904588528015,-211.32280416711563 L 161.71057120183826,-210.76816757269683 L 162.7164202936111,-209.95513269907343 L 163.64645575637886,-208.90582619306934 L 164.4826034447656,-207.6488048057192 L 165.2093443579436,-206.21827822370489 L 165.8141369873844,-204.65317805682503 L 166.28775863251286,-202.99609831889154 L 166.6245563954004,-201.29213623673937 L 166.8226010237055,-199.58766493459285 L 166.88373941504568,-197.92907139503757 L 166.81354435389957,-196.36149404283844 L 166.62116284894412,-194.92759430810958 L 166.3190671983076,-193.66639560059718 L 165.92271555746814,-192.61222129225163 L 165.4501312474016,-191.79376061076596 L 164.92141225205737,-191.23328786567595 L 164.35818425412913,-190.94605625569113 L 163.78301209468805,-190.93988275471628 L 163.21878567373165,-191.2149353738419 L 162.68809700429424,-191.7637285889425 L 162.2126253735145,-192.57132705832012 L 161.8125473434295,-193.61575208624186 L 161.50598764825264,-194.86857977051528 L 161.30852593190025,-196.29571455558602 L 161.23277274984602,-197.85831713900353 L 161.28802637436246,-199.513861478391 L 161.4800197431534,-201.21729213260127 L 161.81076443814004,-202.92225044015785 L 162.2784959404998,-204.5823361646812 L 162.87772165183478,-206.15237027177102 L 163.59937037458022,-207.58962447102266 L 164.43103918356113,-208.85498406133934 L 165.35733097011692,-209.9140124328428 L 166.36027347257206,-210.73788825509197 L 167.41980838918715,-211.3041898461429 L 168.51433726244167,-211.59750537594056 L 169.6213092784713,-211.60985229743022 L 170.7178349847697,-211.34089459062065 L 171.78130922390008,-210.79795190732776 L 172.79002633015085,-209.9958003677263 L 173.72377084663128,-208.95627043000678 L 174.56436768651236,-207.7076527770675 L 175.29617676584067,-206.28392838896366 L 175.90651864655223,-204.72384375460032 L 176.38601960586254,-203.06985639067202 L 176.72886674101073,-201.36697936542507 L 176.93296616671302,-199.66155627338983 L 177.0,-198.00000000000003 L 195.0,-198.00000000000003" style="stroke:black;fill:none;stroke-width:2.0;stroke-dasharray:-;stroke-linecap:round;stroke-linejoin:round;" /><path d="M 123.00000000000001,-198.0 L 123.00000000000001,-183.6 L 114.00000000000001,-183.6 L 132.0,-183.6 M 116.70000000000002,-179.28000000000003 L 129.3,-179.28000000000003 M 121.20000000000002,-174.96 L 124.80000000000001,-174.96" style="stroke:black;fill:none;stroke-width:2.0;stroke-dasharray:-;stroke-linecap:round;stroke-linejoin:round;" /><path d="M 195.0,-198.00000000000003 L 249.0,-198.00000000000003 L 303.00000000000006,-198.00000000000003" style="stroke:black;fill:none;stroke-width:2.0;stroke-dasharray:-;stroke-linecap:round;stroke-linejoin:round;" /><path d="M 303.00000000000006,-198.00000000000003 L 321.00000000000006,-198.00000000000003 L 339.00000000000006,-198.00000000000003" style="stroke:black;fill:none;stroke-width:2.0;stroke-dasharray:-;stroke-linecap:round;stroke-linejoin:round;" /><path d="M 303.00000000000006,-198.00000000000003 L 303.00000000000006,-165.24000000000004 M 312.00000000000006,-165.24000000000004 L 294.00000000000006,-165.24000000000004 M 312.00000000000006,-158.76000000000005 L 294.00000000000006,-158.76000000000005 M 303.00000000000006,-158.76000000000005 L 303.00000000000006,-126.00000000000003" style="stroke:black;fill:none;stroke-width:2.0;stroke-dasharray:-;stroke-linecap:round;stroke-linejoin:round;" /><path d="M 303.00000000000006,-126.00000000000003 L 303.00000000000006,-111.60000000000004 L 294.00000000000006,-111.60000000000004 L 312.00000000000006,-111.60000000000004 M 296.70000000000005,-107.28000000000003 L 309.30000000000007,-107.28000000000003 M 301.20000000000005,-102.96000000000002 L 304.80000000000007,-102.96000000000002" style="stroke:black;fill:none;stroke-width:2.0;stroke-dasharray:-;stroke-linecap:round;stroke-linejoin:round;" /><circle cx="0.0" cy="-0.0" r="2.6999999999999997" style="stroke:black;fill:white;stroke-width:2.0;stroke-dasharray:-;" /><g><g><g><path d="M -24.464 -5.955 L -24.464 -5.955 L -24.786 -3.771 L -25.122 -3.771 Q -25.15 -4.583 -25.493 -5.059 Q -25.836 -5.535 -26.452 -5.535 Q -26.998 -5.535 -27.236 -5.241 Q -27.474 -4.947 -27.474 -4.639 Q -27.474 -4.345 -27.271 -4.072 Q -27.068 -3.799 -26.76 -3.512 Q -26.452 -3.225 -26.144 -2.889 Q -25.696 -2.413 -25.367 -1.958 Q -25.038 -1.503 -25.038 -0.831 Q -25.038 -0.425 -25.241 -0.026 Q -25.444 0.373 -25.906 0.639 Q -26.368 0.905 -27.166 0.905 Q -27.824 0.905 -28.223 0.744 Q -28.622 0.583 -28.776 0.527 L -28.818 0.527 L -29.154 0.905 L -29.462 0.905 L -29.098 -1.433 L -28.748 -1.433 Q -28.636 -0.523 -28.321 -0.047 Q -28.006 0.429 -27.292 0.429 Q -26.802 0.429 -26.501 0.191 Q -26.2 -0.047 -26.2 -0.593 Q -26.2 -1.167 -26.515 -1.566 Q -26.83 -1.965 -27.236 -2.343 Q -27.516 -2.623 -27.803 -2.889 Q -28.09 -3.155 -28.279 -3.484 Q -28.468 -3.813 -28.468 -4.247 Q -28.468 -4.961 -27.992 -5.458 Q -27.516 -5.955 -26.564 -5.955 Q -26.004 -5.955 -25.633 -5.801 Q -25.262 -5.647 -25.136 -5.577 L -25.094 -5.577 L -24.73 -5.955 Z " fill="black" /><path d="M -21.363 3.329 L -21.363 3.329 L -21.363 3.691 L -23.852 3.691 L -23.852 3.329 Q -23.509 3.329 -23.357 3.255 Q -23.205 3.182 -23.166 3.02 Q -23.127 2.858 -23.127 2.594 L -23.127 -0.366 Q -23.127 -0.699 -23.234 -0.768 Q -23.342 -0.836 -23.597 -0.836 Q -23.724 -0.836 -23.803 -0.827 Q -23.881 -0.817 -23.881 -0.817 L -23.881 -1.209 L -22.568 -1.424 L -22.166 -1.424 L -22.166 2.594 Q -22.166 2.878 -22.122 3.039 Q -22.078 3.201 -21.907 3.265 Q -21.735 3.329 -21.363 3.329 Z M -22.656 -3.59 L -22.656 -3.59 Q -22.372 -3.59 -22.181 -3.394 Q -21.99 -3.198 -21.99 -2.943 Q -21.99 -2.708 -22.181 -2.512 Q -22.372 -2.316 -22.656 -2.316 Q -22.931 -2.316 -23.112 -2.512 Q -23.293 -2.708 -23.293 -2.943 Q -23.293 -3.198 -23.112 -3.394 Q -22.931 -3.59 -22.656 -3.59 Z " fill="black" /><path d="M -15.541 0.408 L -15.541 0.408 L -15.541 2.603 Q -15.541 2.878 -15.492 3.039 Q -15.443 3.201 -15.277 3.27 Q -15.11 3.338 -14.757 3.338 L -14.757 3.691 L -17.276 3.691 L -17.276 3.338 Q -16.904 3.338 -16.737 3.27 Q -16.57 3.201 -16.531 3.039 Q -16.492 2.878 -16.492 2.603 L -16.492 0.732 Q -16.492 0.075 -16.644 -0.234 Q -16.796 -0.542 -17.026 -0.64 Q -17.256 -0.738 -17.492 -0.738 Q -17.913 -0.738 -18.232 -0.523 Q -18.55 -0.307 -18.785 -0.111 L -18.785 2.603 Q -18.785 2.878 -18.741 3.039 Q -18.697 3.201 -18.53 3.27 Q -18.364 3.338 -18.001 3.338 L -18.001 3.691 L -20.471 3.691 L -20.471 3.338 Q -20.128 3.338 -19.976 3.27 Q -19.824 3.201 -19.785 3.039 Q -19.746 2.878 -19.746 2.603 L -19.746 -0.376 Q -19.746 -0.65 -19.849 -0.743 Q -19.951 -0.836 -20.177 -0.836 Q -20.294 -0.836 -20.373 -0.827 Q -20.451 -0.817 -20.451 -0.817 L -20.451 -1.189 L -19.138 -1.424 L -18.815 -1.424 L -18.815 -0.621 L -18.746 -0.621 Q -18.325 -1.003 -17.938 -1.228 Q -17.55 -1.454 -17.06 -1.454 Q -16.482 -1.454 -16.154 -1.194 Q -15.826 -0.934 -15.684 -0.513 Q -15.541 -0.092 -15.541 0.408 Z " fill="black" /><path d="M -13.532 5.161 L -13.532 5.161 L -13.699 4.838 Q -13.493 4.75 -13.278 4.607 Q -13.062 4.465 -12.92 4.206 Q -12.778 3.946 -12.778 3.525 Q -12.944 3.593 -13.121 3.593 Q -13.444 3.593 -13.581 3.402 Q -13.719 3.211 -13.719 2.966 Q -13.719 2.701 -13.542 2.505 Q -13.366 2.309 -13.033 2.309 Q -12.611 2.309 -12.391 2.569 Q -12.17 2.829 -12.17 3.289 Q -12.17 3.76 -12.317 4.088 Q -12.464 4.416 -12.685 4.627 Q -12.905 4.838 -13.136 4.96 Q -13.366 5.083 -13.532 5.161 Z " fill="black" /><path d="M -10.112 -1.424 L -10.112 -1.424 L -10.112 -0.582 L -10.063 -0.582 Q -9.681 -1.023 -9.299 -1.238 Q -8.917 -1.454 -8.456 -1.454 Q -7.937 -1.454 -7.515 -1.145 Q -7.094 -0.836 -6.844 -0.293 Q -6.594 0.251 -6.594 0.957 Q -6.594 1.878 -6.922 2.515 Q -7.251 3.152 -7.795 3.48 Q -8.338 3.809 -8.975 3.809 Q -9.279 3.809 -9.549 3.73 Q -9.818 3.652 -10.044 3.525 L -10.093 3.525 L -10.093 4.779 Q -10.093 5.122 -10.004 5.303 Q -9.916 5.485 -9.691 5.548 Q -9.465 5.612 -9.044 5.612 L -9.044 5.955 L -11.817 5.955 L -11.817 5.622 Q -11.474 5.612 -11.313 5.548 Q -11.151 5.485 -11.097 5.318 Q -11.043 5.151 -11.043 4.848 L -11.043 -0.307 Q -11.043 -0.591 -11.102 -0.714 Q -11.161 -0.836 -11.445 -0.836 Q -11.533 -0.836 -11.67 -0.827 Q -11.808 -0.817 -11.808 -0.817 L -11.808 -1.209 L -10.485 -1.424 Z M -10.093 -0.082 L -10.093 -0.082 L -10.093 2.682 Q -9.985 2.79 -9.823 2.951 Q -9.661 3.113 -9.436 3.235 Q -9.211 3.358 -8.946 3.358 Q -8.583 3.358 -8.285 3.137 Q -7.986 2.917 -7.799 2.447 Q -7.613 1.976 -7.613 1.251 Q -7.613 0.33 -7.946 -0.18 Q -8.28 -0.689 -8.887 -0.689 Q -9.279 -0.689 -9.603 -0.484 Q -9.926 -0.278 -10.093 -0.082 Z " fill="black" /></g></g></g><g><g><g><path d="M 65.926 3.129 L 65.926 3.129 L 62.188 3.129 L 62.272 2.709 Q 62.79 2.709 63.063 2.611 Q 63.336 2.513 63.476 2.24 Q 63.616 1.967 63.714 1.463 L 64.96 -4.585 L 64.904 -4.585 L 60.2 3.129 L 59.892 3.129 L 58.198 -4.571 L 58.142 -4.571 L 56.98 1.085 Q 56.84 1.799 56.861 2.149 Q 56.882 2.499 57.134 2.604 Q 57.386 2.709 57.918 2.709 L 57.834 3.129 L 54.6 3.129 L 54.684 2.709 Q 55.23 2.709 55.524 2.604 Q 55.818 2.499 55.986 2.149 Q 56.154 1.799 56.294 1.085 L 57.4 -4.361 Q 57.512 -4.893 57.47 -5.166 Q 57.428 -5.439 57.169 -5.544 Q 56.91 -5.649 56.35 -5.649 L 56.434 -6.069 L 59.234 -6.069 L 60.746 1.015 L 60.802 1.015 L 65.072 -6.069 L 67.718 -6.069 L 67.634 -5.649 Q 67.144 -5.649 66.857 -5.544 Q 66.57 -5.439 66.416 -5.166 Q 66.262 -4.893 66.15 -4.375 L 64.96 1.463 Q 64.806 2.233 65.037 2.471 Q 65.268 2.709 66.01 2.709 Z " fill="black" /><path d="M 71.952 6.069 L 71.952 6.069 L 68.629 6.069 L 68.629 5.716 Q 69.335 5.716 69.565 5.574 Q 69.796 5.432 69.796 5.06 L 69.796 0.787 Q 69.796 0.522 69.717 0.405 Q 69.639 0.287 69.433 0.287 Q 69.276 0.287 69.007 0.331 Q 68.737 0.375 68.541 0.424 L 68.541 0.032 L 70.354 -0.468 L 70.776 -0.468 L 70.776 5.06 Q 70.776 5.432 71.025 5.574 Q 71.275 5.716 71.952 5.716 Z " fill="black" /></g></g></g><g><g><g><path d="M 40.151 -56.871 L 40.151 -56.871 L 36.413 -56.871 L 36.497 -57.291 Q 37.015 -57.291 37.288 -57.389 Q 37.561 -57.487 37.701 -57.76 Q 37.841 -58.033 37.939 -58.537 L 39.185 -64.585 L 39.129 -64.585 L 34.425 -56.871 L 34.117 -56.871 L 32.423 -64.571 L 32.367 -64.571 L 31.205 -58.915 Q 31.065 -58.201 31.086 -57.851 Q 31.107 -57.501 31.359 -57.396 Q 31.611 -57.291 32.143 -57.291 L 32.059 -56.871 L 28.825 -56.871 L 28.909 -57.291 Q 29.455 -57.291 29.749 -57.396 Q 30.043 -57.501 30.211 -57.851 Q 30.379 -58.201 30.519 -58.915 L 31.625 -64.361 Q 31.737 -64.893 31.695 -65.166 Q 31.653 -65.439 31.394 -65.544 Q 31.135 -65.649 30.575 -65.649 L 30.659 -66.069 L 33.459 -66.069 L 34.971 -58.985 L 35.027 -58.985 L 39.297 -66.069 L 41.943 -66.069 L 41.859 -65.649 Q 41.369 -65.649 41.082 -65.544 Q 40.795 -65.439 40.641 -65.166 Q 40.487 -64.893 40.375 -64.375 L 39.185 -58.537 Q 39.031 -57.767 39.262 -57.529 Q 39.493 -57.291 40.235 -57.291 Z " fill="black" /><path d="M 46.735 -55.636 L 46.735 -55.636 L 46.402 -53.931 L 42.384 -53.931 L 42.384 -54.411 L 43.775 -55.822 Q 44.324 -56.371 44.682 -56.793 Q 45.04 -57.214 45.216 -57.64 Q 45.392 -58.067 45.392 -58.615 Q 45.392 -59.135 45.074 -59.473 Q 44.755 -59.811 44.177 -59.811 Q 43.648 -59.811 43.29 -59.6 Q 42.933 -59.39 42.658 -58.909 L 42.394 -59.037 Q 42.639 -59.723 43.153 -60.115 Q 43.668 -60.507 44.422 -60.507 Q 45.01 -60.507 45.461 -60.296 Q 45.912 -60.085 46.167 -59.693 Q 46.421 -59.301 46.421 -58.743 Q 46.421 -58.263 46.206 -57.841 Q 45.99 -57.42 45.593 -56.979 Q 45.196 -56.538 44.648 -55.999 L 43.423 -54.813 L 43.423 -54.744 L 44.187 -54.784 L 45.461 -54.784 Q 45.745 -54.784 45.897 -54.862 Q 46.049 -54.94 46.157 -55.131 Q 46.265 -55.323 46.392 -55.636 Z " fill="black" /></g></g></g><g><g><g><path d="M 146.134 -68.417 L 146.134 -68.417 L 149.956 -74.157 Q 150.151 -74.437 150.271 -74.675 Q 150.389 -74.913 150.389 -75.081 Q 150.389 -75.291 150.208 -75.368 Q 150.026 -75.445 149.55 -75.445 L 149.578 -75.865 L 152.602 -75.865 L 152.574 -75.445 Q 152.196 -75.445 151.93 -75.333 Q 151.663 -75.221 151.391 -74.906 Q 151.118 -74.591 150.684 -73.947 L 145.546 -66.597 L 145.084 -66.597 L 144.3 -74.171 Q 144.216 -74.871 143.992 -75.158 Q 143.768 -75.445 143.208 -75.445 L 143.236 -75.865 L 146.666 -75.865 L 146.624 -75.445 Q 146.092 -75.445 145.784 -75.235 Q 145.476 -75.025 145.504 -74.549 Q 145.504 -74.479 145.525 -74.297 Q 145.546 -74.115 145.546 -74.045 L 145.966 -70.055 L 146.064 -68.417 Z " fill="black" /><path d="M 152.998 -71.048 L 152.998 -71.048 L 152.998 -68.01 L 153.047 -68.01 Q 153.331 -68.343 153.718 -68.608 Q 154.105 -68.872 154.654 -68.872 Q 155.163 -68.872 155.58 -68.564 Q 155.996 -68.255 156.246 -67.711 Q 156.496 -67.167 156.496 -66.462 Q 156.496 -65.521 156.153 -64.884 Q 155.81 -64.247 155.217 -63.928 Q 154.625 -63.61 153.87 -63.61 Q 153.429 -63.61 153.056 -63.683 Q 152.684 -63.757 152.424 -63.855 Q 152.165 -63.953 152.047 -64.002 L 152.047 -69.882 Q 152.047 -70.244 151.969 -70.347 Q 151.89 -70.45 151.557 -70.45 Q 151.449 -70.45 151.356 -70.436 Q 151.263 -70.421 151.263 -70.421 L 151.263 -70.793 L 152.596 -71.048 Z M 152.998 -67.5 L 152.998 -67.5 L 152.998 -64.56 Q 153.115 -64.345 153.37 -64.217 Q 153.625 -64.09 154.046 -64.09 Q 154.566 -64.09 154.879 -64.369 Q 155.193 -64.649 155.335 -65.114 Q 155.477 -65.58 155.477 -66.128 Q 155.477 -66.628 155.364 -67.084 Q 155.252 -67.54 154.968 -67.824 Q 154.683 -68.108 154.184 -68.108 Q 153.919 -68.108 153.679 -68.005 Q 153.439 -67.902 153.262 -67.76 Q 153.086 -67.618 152.998 -67.5 Z " fill="black" /><path d="M 160.073 -64.09 L 160.073 -64.09 L 160.073 -63.727 L 157.584 -63.727 L 157.584 -64.09 Q 157.927 -64.09 158.079 -64.163 Q 158.231 -64.237 158.27 -64.399 Q 158.309 -64.56 158.309 -64.825 L 158.309 -67.785 Q 158.309 -68.118 158.202 -68.186 Q 158.094 -68.255 157.839 -68.255 Q 157.712 -68.255 157.633 -68.245 Q 157.555 -68.235 157.555 -68.235 L 157.555 -68.627 L 158.868 -68.843 L 159.27 -68.843 L 159.27 -64.825 Q 159.27 -64.541 159.314 -64.379 Q 159.358 -64.217 159.529 -64.154 Q 159.701 -64.09 160.073 -64.09 Z M 158.78 -71.009 L 158.78 -71.009 Q 159.064 -71.009 159.255 -70.813 Q 159.446 -70.617 159.446 -70.362 Q 159.446 -70.127 159.255 -69.931 Q 159.064 -69.735 158.78 -69.735 Q 158.505 -69.735 158.324 -69.931 Q 158.143 -70.127 158.143 -70.362 Q 158.143 -70.617 158.324 -70.813 Q 158.505 -71.009 158.78 -71.009 Z " fill="black" /><path d="M 163.993 -64.345 L 163.993 -64.345 L 163.925 -64.345 Q 163.592 -64.07 163.19 -63.865 Q 162.788 -63.659 162.318 -63.659 Q 161.7 -63.659 161.372 -64.031 Q 161.044 -64.404 161.044 -64.933 Q 161.044 -65.384 161.254 -65.687 Q 161.465 -65.991 161.803 -66.182 Q 162.141 -66.373 162.533 -66.491 Q 162.925 -66.609 163.288 -66.677 Q 163.65 -66.746 163.895 -66.805 L 163.895 -67.314 Q 163.895 -67.971 163.636 -68.221 Q 163.376 -68.471 162.876 -68.471 Q 162.572 -68.471 162.44 -68.392 Q 162.308 -68.314 162.273 -68.137 Q 162.239 -67.961 162.229 -67.677 Q 162.22 -67.461 162.102 -67.329 Q 161.984 -67.197 161.759 -67.197 Q 161.543 -67.197 161.391 -67.329 Q 161.24 -67.461 161.24 -67.716 Q 161.24 -68.02 161.475 -68.284 Q 161.71 -68.549 162.146 -68.711 Q 162.582 -68.872 163.17 -68.872 Q 164.052 -68.872 164.449 -68.466 Q 164.846 -68.059 164.846 -67.246 L 164.846 -64.845 Q 164.846 -64.521 164.919 -64.428 Q 164.993 -64.335 165.15 -64.335 Q 165.316 -64.335 165.439 -64.404 Q 165.561 -64.472 165.669 -64.6 L 165.885 -64.394 Q 165.375 -63.669 164.689 -63.669 Q 164.307 -63.669 164.165 -63.85 Q 164.023 -64.031 163.993 -64.345 Z M 163.895 -64.707 L 163.895 -64.707 L 163.895 -66.432 Q 163.445 -66.315 163.013 -66.172 Q 162.582 -66.03 162.303 -65.785 Q 162.024 -65.54 162.024 -65.099 Q 162.024 -64.717 162.244 -64.497 Q 162.465 -64.276 162.808 -64.276 Q 163.013 -64.276 163.302 -64.369 Q 163.592 -64.462 163.895 -64.707 Z " fill="black" /><path d="M 166.561 -65.511 L 166.561 -65.511 L 166.875 -65.511 Q 167.002 -64.943 167.178 -64.629 Q 167.355 -64.315 167.634 -64.193 Q 167.913 -64.07 168.315 -64.07 Q 168.776 -64.07 169.026 -64.222 Q 169.276 -64.374 169.276 -64.756 Q 169.276 -65.011 169.153 -65.183 Q 169.031 -65.354 168.761 -65.511 Q 168.492 -65.668 168.041 -65.874 Q 167.58 -66.099 167.252 -66.295 Q 166.924 -66.491 166.752 -66.756 Q 166.581 -67.02 166.581 -67.422 Q 166.581 -68.128 167.056 -68.5 Q 167.531 -68.872 168.246 -68.872 Q 168.678 -68.872 168.977 -68.765 Q 169.276 -68.657 169.452 -68.578 L 169.472 -68.578 L 169.628 -68.823 L 169.903 -68.823 L 169.922 -67.197 L 169.579 -67.197 Q 169.393 -67.951 169.06 -68.211 Q 168.727 -68.471 168.296 -68.471 Q 167.845 -68.471 167.614 -68.275 Q 167.384 -68.079 167.384 -67.765 Q 167.384 -67.51 167.541 -67.344 Q 167.698 -67.177 167.987 -67.035 Q 168.276 -66.893 168.678 -66.697 Q 169.129 -66.481 169.472 -66.251 Q 169.815 -66.021 170.011 -65.731 Q 170.207 -65.442 170.207 -65.011 Q 170.207 -64.492 169.932 -64.178 Q 169.658 -63.865 169.227 -63.732 Q 168.795 -63.6 168.325 -63.6 Q 167.845 -63.6 167.58 -63.698 Q 167.316 -63.796 167.09 -63.884 L 167.051 -63.884 L 166.806 -63.629 L 166.581 -63.629 Z " fill="black" /></g></g></g><g><g><g><path d="M 275.926 -56.871 L 275.926 -56.871 L 272.188 -56.871 L 272.272 -57.291 Q 272.79 -57.291 273.063 -57.389 Q 273.336 -57.487 273.476 -57.76 Q 273.616 -58.033 273.714 -58.537 L 274.96 -64.585 L 274.904 -64.585 L 270.2 -56.871 L 269.892 -56.871 L 268.198 -64.571 L 268.142 -64.571 L 266.98 -58.915 Q 266.84 -58.201 266.861 -57.851 Q 266.882 -57.501 267.134 -57.396 Q 267.386 -57.291 267.918 -57.291 L 267.834 -56.871 L 264.6 -56.871 L 264.684 -57.291 Q 265.23 -57.291 265.524 -57.396 Q 265.818 -57.501 265.986 -57.851 Q 266.154 -58.201 266.294 -58.915 L 267.4 -64.361 Q 267.512 -64.893 267.47 -65.166 Q 267.428 -65.439 267.169 -65.544 Q 266.91 -65.649 266.35 -65.649 L 266.434 -66.069 L 269.234 -66.069 L 270.746 -58.985 L 270.802 -58.985 L 275.072 -66.069 L 277.718 -66.069 L 277.634 -65.649 Q 277.144 -65.649 276.857 -65.544 Q 276.57 -65.439 276.416 -65.166 Q 276.262 -64.893 276.15 -64.375 L 274.96 -58.537 Q 274.806 -57.767 275.037 -57.529 Q 275.268 -57.291 276.01 -57.291 Z " fill="black" /><path d="M 282.981 -55.479 L 282.981 -55.479 L 281.912 -55.479 L 281.912 -53.931 L 280.942 -53.931 L 280.942 -55.479 L 278.061 -55.479 L 278.061 -56.224 L 281.207 -60.497 L 281.912 -60.497 L 281.912 -56.283 L 282.981 -56.283 Z M 280.942 -56.283 L 280.942 -56.283 L 280.942 -59.311 L 280.883 -59.311 L 278.727 -56.342 L 278.727 -56.283 Z " fill="black" /></g></g></g><g><g><g><path d="M 250.151 3.065 L 250.151 3.065 L 246.413 3.065 L 246.497 2.645 Q 247.015 2.645 247.288 2.547 Q 247.561 2.449 247.701 2.176 Q 247.841 1.903 247.939 1.399 L 249.185 -4.649 L 249.129 -4.649 L 244.425 3.065 L 244.117 3.065 L 242.423 -4.635 L 242.367 -4.635 L 241.205 1.021 Q 241.065 1.735 241.086 2.085 Q 241.107 2.435 241.359 2.54 Q 241.611 2.645 242.143 2.645 L 242.059 3.065 L 238.825 3.065 L 238.909 2.645 Q 239.455 2.645 239.749 2.54 Q 240.043 2.435 240.211 2.085 Q 240.379 1.735 240.519 1.021 L 241.625 -4.425 Q 241.737 -4.957 241.695 -5.23 Q 241.653 -5.503 241.394 -5.608 Q 241.135 -5.713 240.575 -5.713 L 240.659 -6.133 L 243.459 -6.133 L 244.971 0.951 L 245.027 0.951 L 249.297 -6.133 L 251.943 -6.133 L 251.859 -5.713 Q 251.369 -5.713 251.082 -5.608 Q 250.795 -5.503 250.641 -5.23 Q 250.487 -4.957 250.375 -4.439 L 249.185 1.399 Q 249.031 2.169 249.262 2.407 Q 249.493 2.645 250.235 2.645 Z " fill="black" /><path d="M 252.766 0.909 L 252.766 0.909 L 252.482 0.772 Q 252.776 0.106 253.261 -0.232 Q 253.746 -0.57 254.354 -0.57 Q 255.138 -0.57 255.618 -0.188 Q 256.098 0.194 256.098 0.802 Q 256.098 1.331 255.775 1.654 Q 255.451 1.978 254.971 2.291 L 254.971 2.34 Q 255.383 2.448 255.731 2.664 Q 256.078 2.879 256.284 3.217 Q 256.49 3.555 256.49 4.036 Q 256.49 4.575 256.255 4.971 Q 256.02 5.368 255.618 5.628 Q 255.216 5.888 254.702 6.01 Q 254.187 6.133 253.628 6.133 Q 253.148 6.133 252.898 6.049 Q 252.648 5.966 252.555 5.829 Q 252.462 5.692 252.462 5.554 Q 252.462 5.388 252.56 5.226 Q 252.658 5.065 252.893 5.065 Q 252.991 5.065 253.094 5.118 Q 253.197 5.172 253.472 5.329 Q 253.697 5.437 253.829 5.496 Q 253.962 5.554 254.065 5.574 Q 254.167 5.594 254.305 5.594 Q 254.599 5.594 254.888 5.486 Q 255.177 5.378 255.373 5.099 Q 255.569 4.82 255.569 4.31 Q 255.569 3.859 255.319 3.536 Q 255.069 3.212 254.648 3.031 Q 254.226 2.85 253.717 2.85 L 253.501 2.85 L 253.501 2.389 L 253.707 2.389 Q 254.06 2.389 254.393 2.227 Q 254.726 2.066 254.942 1.767 Q 255.157 1.468 255.157 1.056 Q 255.157 0.596 254.858 0.361 Q 254.559 0.125 254.099 0.125 Q 253.246 0.125 252.766 0.909 Z " fill="black" /></g></g></g><circle cx="312.0" cy="-0.0" r="2.6999999999999997" style="stroke:black;fill:white;stroke-width:2.0;stroke-dasharray:-;" /><g><g><g><path d="M 323.592 -5.558 L 323.592 -5.558 L 323.27 -3.374 L 322.934 -3.374 Q 322.906 -4.186 322.563 -4.662 Q 322.22 -5.138 321.604 -5.138 Q 321.058 -5.138 320.82 -4.844 Q 320.582 -4.55 320.582 -4.242 Q 320.582 -3.948 320.785 -3.675 Q 320.988 -3.402 321.296 -3.115 Q 321.604 -2.828 321.912 -2.492 Q 322.36 -2.016 322.689 -1.561 Q 323.018 -1.106 323.018 -0.434 Q 323.018 -0.028 322.815 0.371 Q 322.612 0.77 322.15 1.036 Q 321.688 1.302 320.89 1.302 Q 320.232 1.302 319.833 1.141 Q 319.434 0.98 319.28 0.924 L 319.238 0.924 L 318.902 1.302 L 318.594 1.302 L 318.958 -1.036 L 319.308 -1.036 Q 319.42 -0.126 319.735 0.35 Q 320.05 0.826 320.764 0.826 Q 321.254 0.826 321.555 0.588 Q 321.856 0.35 321.856 -0.196 Q 321.856 -0.77 321.541 -1.169 Q 321.226 -1.568 320.82 -1.946 Q 320.54 -2.226 320.253 -2.492 Q 319.966 -2.758 319.777 -3.087 Q 319.588 -3.416 319.588 -3.85 Q 319.588 -4.564 320.064 -5.061 Q 320.54 -5.558 321.492 -5.558 Q 322.052 -5.558 322.423 -5.404 Q 322.794 -5.25 322.92 -5.18 L 322.962 -5.18 L 323.326 -5.558 Z " fill="black" /><path d="M 326.693 3.725 L 326.693 3.725 L 326.693 4.088 L 324.204 4.088 L 324.204 3.725 Q 324.547 3.725 324.699 3.652 Q 324.851 3.578 324.89 3.417 Q 324.929 3.255 324.929 2.99 L 324.929 0.031 Q 324.929 -0.302 324.821 -0.371 Q 324.713 -0.44 324.459 -0.44 Q 324.331 -0.44 324.253 -0.43 Q 324.174 -0.42 324.174 -0.42 L 324.174 -0.812 L 325.488 -1.028 L 325.889 -1.028 L 325.889 2.99 Q 325.889 3.275 325.933 3.436 Q 325.978 3.598 326.149 3.662 Q 326.321 3.725 326.693 3.725 Z M 325.399 -3.193 L 325.399 -3.193 Q 325.684 -3.193 325.875 -2.997 Q 326.066 -2.801 326.066 -2.547 Q 326.066 -2.311 325.875 -2.115 Q 325.684 -1.919 325.399 -1.919 Q 325.125 -1.919 324.944 -2.115 Q 324.762 -2.311 324.762 -2.547 Q 324.762 -2.801 324.944 -2.997 Q 325.125 -3.193 325.399 -3.193 Z " fill="black" /><path d="M 332.514 0.805 L 332.514 0.805 L 332.514 3 Q 332.514 3.275 332.563 3.436 Q 332.612 3.598 332.779 3.667 Q 332.945 3.735 333.298 3.735 L 333.298 4.088 L 330.78 4.088 L 330.78 3.735 Q 331.152 3.735 331.319 3.667 Q 331.485 3.598 331.524 3.436 Q 331.564 3.275 331.564 3 L 331.564 1.128 Q 331.564 0.472 331.412 0.163 Q 331.26 -0.146 331.029 -0.244 Q 330.799 -0.342 330.564 -0.342 Q 330.143 -0.342 329.824 -0.126 Q 329.506 0.09 329.27 0.286 L 329.27 3 Q 329.27 3.275 329.314 3.436 Q 329.359 3.598 329.525 3.667 Q 329.692 3.735 330.054 3.735 L 330.054 4.088 L 327.585 4.088 L 327.585 3.735 Q 327.928 3.735 328.08 3.667 Q 328.232 3.598 328.271 3.436 Q 328.31 3.275 328.31 3 L 328.31 0.021 Q 328.31 -0.253 328.207 -0.346 Q 328.104 -0.44 327.879 -0.44 Q 327.761 -0.44 327.683 -0.43 Q 327.604 -0.42 327.604 -0.42 L 327.604 -0.792 L 328.918 -1.028 L 329.241 -1.028 L 329.241 -0.224 L 329.31 -0.224 Q 329.731 -0.606 330.118 -0.832 Q 330.505 -1.057 330.995 -1.057 Q 331.573 -1.057 331.902 -0.797 Q 332.23 -0.538 332.372 -0.116 Q 332.514 0.305 332.514 0.805 Z " fill="black" /><path d="M 334.523 5.558 L 334.523 5.558 L 334.357 5.235 Q 334.562 5.146 334.778 5.004 Q 334.994 4.862 335.136 4.602 Q 335.278 4.343 335.278 3.921 Q 335.111 3.99 334.935 3.99 Q 334.611 3.99 334.474 3.799 Q 334.337 3.608 334.337 3.363 Q 334.337 3.098 334.513 2.902 Q 334.69 2.706 335.023 2.706 Q 335.444 2.706 335.665 2.966 Q 335.885 3.226 335.885 3.686 Q 335.885 4.157 335.738 4.485 Q 335.591 4.813 335.371 5.024 Q 335.15 5.235 334.92 5.357 Q 334.69 5.48 334.523 5.558 Z " fill="black" /><path d="M 341.315 0.805 L 341.315 0.805 L 341.315 3 Q 341.315 3.275 341.364 3.436 Q 341.413 3.598 341.579 3.667 Q 341.746 3.735 342.099 3.735 L 342.099 4.088 L 339.58 4.088 L 339.58 3.735 Q 339.952 3.735 340.119 3.667 Q 340.286 3.598 340.325 3.436 Q 340.364 3.275 340.364 3 L 340.364 1.128 Q 340.364 0.472 340.212 0.163 Q 340.06 -0.146 339.83 -0.244 Q 339.6 -0.342 339.364 -0.342 Q 338.943 -0.342 338.625 -0.126 Q 338.306 0.09 338.071 0.286 L 338.071 3 Q 338.071 3.275 338.115 3.436 Q 338.159 3.598 338.326 3.667 Q 338.492 3.735 338.855 3.735 L 338.855 4.088 L 336.385 4.088 L 336.385 3.735 Q 336.728 3.735 336.88 3.667 Q 337.032 3.598 337.071 3.436 Q 337.11 3.275 337.11 3 L 337.11 0.021 Q 337.11 -0.253 337.007 -0.346 Q 336.905 -0.44 336.679 -0.44 Q 336.562 -0.44 336.483 -0.43 Q 336.405 -0.42 336.405 -0.42 L 336.405 -0.792 L 337.718 -1.028 L 338.041 -1.028 L 338.041 -0.224 L 338.11 -0.224 Q 338.531 -0.606 338.918 -0.832 Q 339.306 -1.057 339.796 -1.057 Q 340.374 -1.057 340.702 -0.797 Q 341.03 -0.538 341.173 -0.116 Q 341.315 0.305 341.315 0.805 Z " fill="black" /></g></g></g><circle cx="50.99999999999999" cy="-126.0" r="2.6999999999999997" style="stroke:black;fill:black;stroke-width:2.0;stroke-dasharray:-;" /><circle cx="261.0" cy="-126.0" r="2.6999999999999997" style="stroke:black;fill:black;stroke-width:2.0;stroke-dasharray:-;" /><g><g><g><path d="M 157.37 -143.57 L 157.37 -143.57 L 157.622 -143.304 Q 156.908 -142.464 155.97 -141.925 Q 155.032 -141.386 153.702 -141.386 Q 152.442 -141.386 151.686 -141.855 Q 150.93 -142.324 150.601 -143.108 Q 150.272 -143.892 150.272 -144.816 Q 150.272 -146.286 150.72 -147.427 Q 151.168 -148.568 151.945 -149.345 Q 152.722 -150.122 153.702 -150.521 Q 154.682 -150.92 155.746 -150.92 Q 156.46 -150.92 156.859 -150.794 Q 157.258 -150.668 157.482 -150.535 Q 157.706 -150.402 157.874 -150.402 Q 158.042 -150.402 158.168 -150.542 Q 158.294 -150.682 158.462 -150.906 L 158.868 -150.906 L 158.21 -147.7 L 157.748 -147.7 Q 157.804 -149.1 157.23 -149.709 Q 156.656 -150.318 155.62 -150.318 Q 154.808 -150.318 154.094 -149.947 Q 153.38 -149.576 152.827 -148.897 Q 152.274 -148.218 151.959 -147.273 Q 151.644 -146.328 151.644 -145.166 Q 151.644 -143.766 152.309 -143.031 Q 152.974 -142.296 154.36 -142.296 Q 155.97 -142.296 157.37 -143.57 Z " fill="black" /><path d="M 162.654 -138.6 L 162.654 -138.6 L 159.331 -138.6 L 159.331 -138.953 Q 160.037 -138.953 160.267 -139.095 Q 160.498 -139.237 160.498 -139.609 L 160.498 -143.882 Q 160.498 -144.147 160.419 -144.264 Q 160.341 -144.382 160.135 -144.382 Q 159.978 -144.382 159.709 -144.338 Q 159.439 -144.294 159.243 -144.245 L 159.243 -144.637 L 161.056 -145.137 L 161.478 -145.137 L 161.478 -139.609 Q 161.478 -139.237 161.727 -139.095 Q 161.977 -138.953 162.654 -138.953 Z " fill="black" /></g></g></g><circle cx="159.0" cy="-234.00000000000003" r="2.6999999999999997" style="stroke:black;fill:black;stroke-width:2.0;stroke-dasharray:-;" /><g><g><g><path d="M 107.447 -216.872 L 107.447 -216.872 L 106.607 -214.142 L 99.691 -214.142 L 99.775 -214.562 Q 100.321 -214.562 100.608 -214.66 Q 100.895 -214.758 101.049 -215.038 Q 101.203 -215.318 101.315 -215.878 L 102.519 -221.716 Q 102.617 -222.178 102.589 -222.444 Q 102.561 -222.71 102.302 -222.815 Q 102.043 -222.92 101.441 -222.92 L 101.525 -223.34 L 105.501 -223.34 L 105.431 -222.92 Q 104.675 -222.92 104.297 -222.689 Q 103.919 -222.458 103.765 -221.702 L 102.491 -215.43 Q 102.393 -214.968 102.589 -214.821 Q 102.785 -214.674 103.401 -214.674 L 104.059 -214.674 Q 104.731 -214.674 105.151 -214.793 Q 105.571 -214.912 105.865 -215.164 Q 106.159 -215.416 106.418 -215.843 Q 106.677 -216.27 106.999 -216.872 Z " fill="black" /><path d="M 112.072 -211.202 L 112.072 -211.202 L 108.75 -211.202 L 108.75 -211.555 Q 109.456 -211.555 109.686 -211.697 Q 109.916 -211.839 109.916 -212.211 L 109.916 -216.484 Q 109.916 -216.749 109.838 -216.866 Q 109.76 -216.984 109.554 -216.984 Q 109.397 -216.984 109.128 -216.94 Q 108.858 -216.896 108.662 -216.847 L 108.662 -217.239 L 110.475 -217.738 L 110.896 -217.738 L 110.896 -212.211 Q 110.896 -211.839 111.146 -211.697 Q 111.396 -211.555 112.072 -211.555 Z " fill="black" /></g></g></g><g><g><g><path d="M 150.853 -256.69 L 150.853 -256.69 L 154.675 -262.43 Q 154.871 -262.71 154.99 -262.948 Q 155.109 -263.186 155.109 -263.354 Q 155.109 -263.564 154.927 -263.641 Q 154.745 -263.718 154.269 -263.718 L 154.297 -264.138 L 157.321 -264.138 L 157.293 -263.718 Q 156.915 -263.718 156.649 -263.606 Q 156.383 -263.494 156.11 -263.179 Q 155.837 -262.864 155.403 -262.22 L 150.265 -254.87 L 149.803 -254.87 L 149.019 -262.444 Q 148.935 -263.144 148.711 -263.431 Q 148.487 -263.718 147.927 -263.718 L 147.955 -264.138 L 151.385 -264.138 L 151.343 -263.718 Q 150.811 -263.718 150.503 -263.508 Q 150.195 -263.298 150.223 -262.822 Q 150.223 -262.752 150.244 -262.57 Q 150.265 -262.388 150.265 -262.318 L 150.685 -258.328 L 150.783 -256.69 Z " fill="black" /><path d="M 156.218 -258.889 L 156.218 -258.889 L 159.188 -258.889 Q 159.972 -258.889 160.687 -258.718 Q 161.402 -258.546 161.966 -258.154 Q 162.529 -257.762 162.858 -257.106 Q 163.186 -256.449 163.186 -255.469 Q 163.186 -254.548 162.887 -253.887 Q 162.588 -253.225 162.049 -252.809 Q 161.51 -252.392 160.795 -252.196 Q 160.079 -252 159.246 -252 L 156.218 -252 L 156.218 -252.372 Q 156.679 -252.372 156.894 -252.441 Q 157.11 -252.51 157.174 -252.72 Q 157.237 -252.931 157.237 -253.362 L 157.237 -257.615 Q 157.237 -258.017 157.144 -258.208 Q 157.051 -258.399 156.831 -258.458 Q 156.61 -258.517 156.218 -258.517 Z M 158.286 -258.399 L 158.286 -258.399 L 158.286 -252.47 Q 158.443 -252.461 158.595 -252.456 Q 158.747 -252.451 158.894 -252.451 Q 159.864 -252.451 160.545 -252.706 Q 161.226 -252.96 161.584 -253.597 Q 161.941 -254.234 161.941 -255.381 Q 161.941 -256.851 161.192 -257.63 Q 160.442 -258.409 158.815 -258.409 Q 158.678 -258.409 158.551 -258.409 Q 158.423 -258.409 158.286 -258.399 Z " fill="black" /><path d="M 164.372 -258.889 L 164.372 -258.889 L 167.341 -258.889 Q 168.125 -258.889 168.841 -258.718 Q 169.556 -258.546 170.12 -258.154 Q 170.683 -257.762 171.011 -257.106 Q 171.34 -256.449 171.34 -255.469 Q 171.34 -254.548 171.041 -253.887 Q 170.742 -253.225 170.203 -252.809 Q 169.664 -252.392 168.948 -252.196 Q 168.233 -252 167.4 -252 L 164.372 -252 L 164.372 -252.372 Q 164.832 -252.372 165.048 -252.441 Q 165.264 -252.51 165.327 -252.72 Q 165.391 -252.931 165.391 -253.362 L 165.391 -257.615 Q 165.391 -258.017 165.298 -258.208 Q 165.205 -258.399 164.984 -258.458 Q 164.764 -258.517 164.372 -258.517 Z M 166.44 -258.399 L 166.44 -258.399 L 166.44 -252.47 Q 166.596 -252.461 166.748 -252.456 Q 166.9 -252.451 167.047 -252.451 Q 168.017 -252.451 168.698 -252.706 Q 169.38 -252.96 169.737 -253.597 Q 170.095 -254.234 170.095 -255.381 Q 170.095 -256.851 169.345 -257.63 Q 168.596 -258.409 166.969 -258.409 Q 166.832 -258.409 166.704 -258.409 Q 166.577 -258.409 166.44 -258.399 Z " fill="black" /></g></g></g><g><g><g><path d="M 211.023 -216.872 L 211.023 -216.872 L 210.183 -214.142 L 203.267 -214.142 L 203.351 -214.562 Q 203.897 -214.562 204.184 -214.66 Q 204.471 -214.758 204.625 -215.038 Q 204.779 -215.318 204.891 -215.878 L 206.095 -221.716 Q 206.193 -222.178 206.165 -222.444 Q 206.137 -222.71 205.878 -222.815 Q 205.619 -222.92 205.017 -222.92 L 205.101 -223.34 L 209.077 -223.34 L 209.007 -222.92 Q 208.251 -222.92 207.873 -222.689 Q 207.495 -222.458 207.341 -221.702 L 206.067 -215.43 Q 205.969 -214.968 206.165 -214.821 Q 206.361 -214.674 206.977 -214.674 L 207.635 -214.674 Q 208.307 -214.674 208.727 -214.793 Q 209.147 -214.912 209.441 -215.164 Q 209.735 -215.416 209.994 -215.843 Q 210.253 -216.27 210.575 -216.872 Z " fill="black" /><path d="M 216.208 -212.907 L 216.208 -212.907 L 215.874 -211.202 L 211.856 -211.202 L 211.856 -211.682 L 213.248 -213.093 Q 213.797 -213.642 214.155 -214.063 Q 214.512 -214.485 214.689 -214.911 Q 214.865 -215.337 214.865 -215.886 Q 214.865 -216.406 214.547 -216.744 Q 214.228 -217.082 213.65 -217.082 Q 213.121 -217.082 212.763 -216.871 Q 212.405 -216.66 212.131 -216.18 L 211.866 -216.308 Q 212.111 -216.994 212.626 -217.386 Q 213.14 -217.778 213.895 -217.778 Q 214.483 -217.778 214.934 -217.567 Q 215.384 -217.356 215.639 -216.964 Q 215.894 -216.572 215.894 -216.014 Q 215.894 -215.533 215.678 -215.112 Q 215.463 -214.691 215.066 -214.25 Q 214.669 -213.809 214.12 -213.27 L 212.895 -212.084 L 212.895 -212.015 L 213.66 -212.054 L 214.934 -212.054 Q 215.218 -212.054 215.37 -212.133 Q 215.522 -212.211 215.629 -212.402 Q 215.737 -212.593 215.865 -212.907 Z " fill="black" /></g></g></g><g><g><g><path d="M 160.023 -180.872 L 160.023 -180.872 L 159.183 -178.142 L 152.267 -178.142 L 152.351 -178.562 Q 152.897 -178.562 153.184 -178.66 Q 153.471 -178.758 153.625 -179.038 Q 153.779 -179.318 153.891 -179.878 L 155.095 -185.716 Q 155.193 -186.178 155.165 -186.444 Q 155.137 -186.71 154.878 -186.815 Q 154.619 -186.92 154.017 -186.92 L 154.101 -187.34 L 158.077 -187.34 L 158.007 -186.92 Q 157.251 -186.92 156.873 -186.689 Q 156.495 -186.458 156.341 -185.702 L 155.067 -179.43 Q 154.969 -178.968 155.165 -178.821 Q 155.361 -178.674 155.977 -178.674 L 156.635 -178.674 Q 157.307 -178.674 157.727 -178.793 Q 158.147 -178.912 158.441 -179.164 Q 158.735 -179.416 158.994 -179.843 Q 159.253 -180.27 159.575 -180.872 Z " fill="black" /><path d="M 161.239 -180.298 L 161.239 -180.298 L 160.954 -180.435 Q 161.248 -181.101 161.733 -181.44 Q 162.219 -181.778 162.826 -181.778 Q 163.61 -181.778 164.09 -181.395 Q 164.571 -181.013 164.571 -180.406 Q 164.571 -179.876 164.247 -179.553 Q 163.924 -179.23 163.444 -178.916 L 163.444 -178.867 Q 163.855 -178.759 164.203 -178.544 Q 164.551 -178.328 164.757 -177.99 Q 164.963 -177.652 164.963 -177.172 Q 164.963 -176.633 164.727 -176.236 Q 164.492 -175.839 164.09 -175.579 Q 163.689 -175.319 163.174 -175.197 Q 162.66 -175.074 162.101 -175.074 Q 161.621 -175.074 161.371 -175.158 Q 161.121 -175.241 161.028 -175.378 Q 160.935 -175.515 160.935 -175.653 Q 160.935 -175.819 161.033 -175.981 Q 161.131 -176.143 161.366 -176.143 Q 161.464 -176.143 161.567 -176.089 Q 161.67 -176.035 161.944 -175.878 Q 162.17 -175.77 162.302 -175.711 Q 162.434 -175.653 162.537 -175.633 Q 162.64 -175.613 162.777 -175.613 Q 163.071 -175.613 163.36 -175.721 Q 163.649 -175.829 163.845 -176.108 Q 164.041 -176.388 164.041 -176.897 Q 164.041 -177.348 163.792 -177.671 Q 163.542 -177.995 163.12 -178.176 Q 162.699 -178.357 162.189 -178.357 L 161.974 -178.357 L 161.974 -178.818 L 162.179 -178.818 Q 162.532 -178.818 162.865 -178.98 Q 163.199 -179.141 163.414 -179.44 Q 163.63 -179.739 163.63 -180.151 Q 163.63 -180.611 163.331 -180.847 Q 163.032 -181.082 162.571 -181.082 Q 161.719 -181.082 161.239 -180.298 Z " fill="black" /></g></g></g><circle cx="303.00000000000006" cy="-198.00000000000003" r="2.6999999999999997" style="stroke:black;fill:black;stroke-width:2.0;stroke-dasharray:-;" /><circle cx="339.00000000000006" cy="-198.00000000000003" r="2.6999999999999997" style="stroke:black;fill:white;stroke-width:2.0;stroke-dasharray:-;" /><g><g><g><path d="M 350.592 -202.882 L 350.592 -202.882 L 350.27 -200.698 L 349.934 -200.698 Q 349.906 -201.51 349.563 -201.986 Q 349.22 -202.462 348.604 -202.462 Q 348.058 -202.462 347.82 -202.168 Q 347.582 -201.874 347.582 -201.566 Q 347.582 -201.272 347.785 -200.999 Q 347.988 -200.726 348.296 -200.439 Q 348.604 -200.152 348.912 -199.816 Q 349.36 -199.34 349.689 -198.885 Q 350.018 -198.43 350.018 -197.758 Q 350.018 -197.352 349.815 -196.953 Q 349.612 -196.554 349.15 -196.288 Q 348.688 -196.022 347.89 -196.022 Q 347.232 -196.022 346.833 -196.183 Q 346.434 -196.344 346.28 -196.4 L 346.238 -196.4 L 345.902 -196.022 L 345.594 -196.022 L 345.958 -198.36 L 346.308 -198.36 Q 346.42 -197.45 346.735 -196.974 Q 347.05 -196.498 347.764 -196.498 Q 348.254 -196.498 348.555 -196.736 Q 348.856 -196.974 348.856 -197.52 Q 348.856 -198.094 348.541 -198.493 Q 348.226 -198.892 347.82 -199.27 Q 347.54 -199.55 347.253 -199.816 Q 346.966 -200.082 346.777 -200.411 Q 346.588 -200.74 346.588 -201.174 Q 346.588 -201.888 347.064 -202.385 Q 347.54 -202.882 348.492 -202.882 Q 349.052 -202.882 349.423 -202.728 Q 349.794 -202.574 349.92 -202.504 L 349.962 -202.504 L 350.326 -202.882 Z " fill="black" /><path d="M 353.732 -198.381 L 353.732 -198.381 Q 354.467 -198.381 355.016 -198.062 Q 355.565 -197.744 355.864 -197.171 Q 356.163 -196.597 356.163 -195.823 Q 356.163 -194.892 355.849 -194.294 Q 355.535 -193.696 354.987 -193.407 Q 354.438 -193.118 353.732 -193.118 Q 353.017 -193.118 352.463 -193.417 Q 351.909 -193.716 351.601 -194.314 Q 351.292 -194.912 351.292 -195.813 Q 351.292 -196.578 351.596 -197.156 Q 351.9 -197.734 352.448 -198.057 Q 352.997 -198.381 353.732 -198.381 Z M 353.713 -197.93 L 353.713 -197.93 Q 353.066 -197.93 352.698 -197.406 Q 352.331 -196.881 352.331 -195.872 Q 352.331 -194.627 352.708 -194.113 Q 353.085 -193.598 353.762 -193.598 Q 354.193 -193.608 354.497 -193.814 Q 354.8 -194.02 354.962 -194.505 Q 355.124 -194.99 355.124 -195.823 Q 355.124 -196.823 354.781 -197.376 Q 354.438 -197.93 353.713 -197.93 Z " fill="black" /><path d="M 362.827 -193.736 L 362.827 -193.736 L 362.827 -193.363 L 361.504 -193.187 L 361.19 -193.187 L 361.19 -193.951 L 361.092 -193.951 Q 360.72 -193.618 360.337 -193.378 Q 359.955 -193.138 359.416 -193.138 Q 358.691 -193.138 358.309 -193.579 Q 357.927 -194.02 357.927 -195.108 L 357.927 -197.215 Q 357.927 -197.616 357.785 -197.71 Q 357.642 -197.803 357.192 -197.803 L 357.192 -198.155 L 358.554 -198.342 L 358.877 -198.342 L 358.877 -195.235 Q 358.877 -194.686 359.005 -194.382 Q 359.132 -194.079 359.348 -193.961 Q 359.563 -193.843 359.818 -193.843 Q 360.249 -193.843 360.538 -194.025 Q 360.827 -194.206 361.141 -194.461 L 361.141 -197.215 Q 361.141 -197.616 360.965 -197.71 Q 360.788 -197.803 360.288 -197.803 L 360.288 -198.155 L 361.749 -198.342 L 362.092 -198.342 L 362.092 -194.373 Q 362.092 -194.079 362.146 -193.941 Q 362.199 -193.804 362.337 -193.77 Q 362.474 -193.736 362.719 -193.736 Z " fill="black" /><path d="M 366.649 -194.216 L 366.649 -194.216 L 366.874 -194.03 Q 366.658 -193.736 366.482 -193.535 Q 366.306 -193.334 366.08 -193.226 Q 365.855 -193.118 365.502 -193.118 Q 364.934 -193.118 364.674 -193.442 Q 364.414 -193.765 364.414 -194.48 L 364.414 -197.773 L 363.797 -197.773 L 363.797 -198.067 Q 364.15 -198.322 364.444 -198.69 Q 364.738 -199.057 365.032 -199.743 L 365.375 -199.743 L 365.365 -198.253 L 366.609 -198.253 L 366.609 -197.773 L 365.365 -197.773 L 365.365 -194.804 Q 365.365 -194.255 365.468 -194.025 Q 365.571 -193.794 365.884 -193.794 Q 366.168 -193.794 366.315 -193.897 Q 366.462 -194 366.649 -194.216 Z " fill="black" /></g></g></g><g><g><g><path d="M 285.055 -160.81 L 285.055 -160.81 L 285.307 -160.544 Q 284.593 -159.704 283.655 -159.165 Q 282.717 -158.626 281.387 -158.626 Q 280.127 -158.626 279.371 -159.095 Q 278.615 -159.564 278.286 -160.348 Q 277.957 -161.132 277.957 -162.056 Q 277.957 -163.526 278.405 -164.667 Q 278.853 -165.808 279.63 -166.585 Q 280.407 -167.362 281.387 -167.761 Q 282.367 -168.16 283.431 -168.16 Q 284.145 -168.16 284.544 -168.034 Q 284.943 -167.908 285.167 -167.775 Q 285.391 -167.642 285.559 -167.642 Q 285.727 -167.642 285.853 -167.782 Q 285.979 -167.922 286.147 -168.146 L 286.553 -168.146 L 285.895 -164.94 L 285.433 -164.94 Q 285.489 -166.34 284.915 -166.949 Q 284.341 -167.558 283.305 -167.558 Q 282.493 -167.558 281.779 -167.187 Q 281.065 -166.816 280.512 -166.137 Q 279.959 -165.458 279.644 -164.513 Q 279.329 -163.568 279.329 -162.406 Q 279.329 -161.006 279.994 -160.271 Q 280.659 -159.536 282.045 -159.536 Q 283.655 -159.536 285.055 -160.81 Z " fill="black" /><path d="M 290.897 -157.545 L 290.897 -157.545 L 290.564 -155.84 L 286.546 -155.84 L 286.546 -156.32 L 287.937 -157.731 Q 288.486 -158.28 288.844 -158.702 Q 289.202 -159.123 289.378 -159.549 Q 289.554 -159.976 289.554 -160.524 Q 289.554 -161.044 289.236 -161.382 Q 288.917 -161.72 288.339 -161.72 Q 287.81 -161.72 287.452 -161.509 Q 287.095 -161.299 286.82 -160.818 L 286.556 -160.946 Q 286.801 -161.632 287.315 -162.024 Q 287.83 -162.416 288.584 -162.416 Q 289.172 -162.416 289.623 -162.205 Q 290.074 -161.994 290.329 -161.602 Q 290.583 -161.21 290.583 -160.652 Q 290.583 -160.172 290.368 -159.75 Q 290.152 -159.329 289.755 -158.888 Q 289.358 -158.447 288.81 -157.908 L 287.585 -156.722 L 287.585 -156.653 L 288.349 -156.693 L 289.623 -156.693 Q 289.907 -156.693 290.059 -156.771 Q 290.211 -156.849 290.319 -157.041 Q 290.427 -157.232 290.554 -157.545 Z " fill="black" /></g></g></g></svg>