<svg xmlns="http://www.w3.org/2000/svg" xmlns:xlink="http://www.w3.org/1999/xlink" xml:lang="en" height="239.97799999999995pt" width="336.6206pt" viewBox="-39.46639999999999 -212.33799999999997 336.6206 239.97799999999995"><circle cx="2.204364238465236e-15" cy="-36.0" r="18.0" style="stroke:black;fill:none;stroke-width:2.0;stroke-dasharray:-;" /><path d="M 0.0,-0.0 L 0.0,14.4 L -9.0,14.4 L 9.0,14.4 M -6.3,18.72 L 6.3,18.72 M -1.8,23.04 L 1.8,23.04" style="stroke:black;fill:none;stroke-width:2.0;stroke-dasharray:-;stroke-linecap:round;stroke-linejoin:round;" /><path d="M 0.0,-0.0 L 1.102182119232618e-15,-18.0 L 1.102182119232618e-15,-18.0 M 3.3065463576978533e-15,-54.0 L 3.3065463576978533e-15,-54.0 L 4.408728476930472e-15,-72.0" style="stroke:black;fill:none;stroke-width:2.0;stroke-dasharray:-;stroke-linecap:round;stroke-linejoin:round;" /><path d="M 9.000000000000002,-36.0 L 8.250000000000002,-37.86349712473816 L 7.500000000000003,-39.6 L 6.750000000000003,-41.091168824543146 L 6.0000000000000036,-42.23538290724795 L 5.2500000000000036,-42.95466594928129 L 4.500000000000003,-43.199999999999996 L 3.750000000000003,-42.9546659492813 L 3.0000000000000027,-42.23538290724795 L 2.2500000000000027,-41.09116882454314 L 1.500000000000003,-39.6 L 0.7500000000000027,-37.863497124738146 L 2.204364238465236e-15,-36.0 L -0.7499999999999972,-34.136502875261854 L -1.4999999999999967,-32.400000000000006 L -2.2499999999999982,-30.908831175456857 L -2.9999999999999973,-29.764617092752044 L -3.7499999999999964,-29.04533405071871 L -4.499999999999998,-28.8 L -5.249999999999997,-29.045334050718708 L -5.9999999999999964,-29.76461709275204 L -6.749999999999998,-30.90883117545686 L -7.499999999999997,-32.4 L -8.249999999999996,-34.13650287526185 L -8.999999999999998,-36.0" style="stroke:black;fill:none;stroke-width:2.0;stroke-dasharray:-;stroke-linecap:round;stroke-linejoin:round;" /><path d="M 4.408728476930472e-15,-72.0 L 18.000000000000004,-72.0 L 21.000000000000007,-81.0 L 27.000000000000004,-63.0 L 33.0,-81.0 L 39.00000000000001,-63.0 L 45.00000000000001,-81.0 L 51.0,-63.0 L 54.00000000000001,-72.0 L 72.0,-72.0" style="stroke:black;fill:none;stroke-width:2.0;stroke-dasharray:-;stroke-linecap:round;stroke-linejoin:round;" /><path d="M 72.0,-72.0 L 81.0,-72.0 L 90.0,-72.0" style="stroke:black;fill:none;stroke-width:2.0;stroke-dasharray:-;stroke-linecap:round;stroke-linejoin:round;" /><path d="M 90.0,-72.0 L 108.0,-72.0 L 126.0,-72.0" style="stroke:black;fill:none;stroke-width:2.0;stroke-dasharray:-;stroke-linecap:round;stroke-linejoin:round;" /><path d="M 126.0,-72.0 L 126.0,-54.0 L 135.0,-50.99999999999999 L 117.0,-45.0 L 135.0,-39.00000000000001 L 117.0,-33.0 L 135.0,-27.0 L 116.99999999999999,-21.000000000000007 L 125.99999999999999,-18.0 L 125.99999999999999,-0.0" style="stroke:black;fill:none;stroke-width:2.0;stroke-dasharray:-;stroke-linecap:round;stroke-linejoin:round;" /><path d="M 125.99999999999999,-0.0 L 125.99999999999999,14.4 L 116.99999999999999,14.4 L 134.99999999999997,14.4 M 119.69999999999999,18.72 L 132.29999999999998,18.72 M 124.19999999999999,23.04 L 127.79999999999998,23.04" style="stroke:black;fill:none;stroke-width:2.0;stroke-dasharray:-;stroke-linecap:round;stroke-linejoin:round;" /><path d="M 126.0,-72.0 L 144.0,-72.0 L 162.0,-72.0" style="stroke:black;fill:none;stroke-width:2.0;stroke-dasharray:-;stroke-linecap:round;stroke-linejoin:round;" /><path d="M 194.99999999999997,-42.0 L 194.99999999999997,-57.0 L 180.0,-57.0 L 180.0,-87.0 L 194.99999999999997,-87.0 L 194.99999999999997,-101.99999999999999" style="stroke:black;fill:none;stroke-width:2.0;stroke-dasharray:-;stroke-linecap:round;stroke-linejoin:round;" /><path d="M 185.99999999999997,-57.0 L 180.0,-57.0" style="stroke:black;fill:none;stroke-width:2.0;stroke-dasharray:-;stroke-linecap:round;stroke-linejoin:round;" /><path d="M 192.99999999999997 -57.0 L 185.99999999999997 -52.5 L 185.99999999999997 -61.5 Z" style="stroke:black;fill:black;stroke-linecap:butt;stroke-linejoin:miter;" /><path d="M 177.0,-59.99999999999999 L 177.0,-84.0" style="stroke:black;fill:none;stroke-width:2.0;stroke-dasharray:-;stroke-linecap:round;stroke-linejoin:round;" /><path d="M 162.0,-72.0 L 177.0,-72.0" style="stroke:black;fill:none;stroke-width:2.0;stroke-dasharray:-;stroke-linecap:round;stroke-linejoin:round;" /><path d="M 194.99999999999997,-42.0 L 194.99999999999997,-21.0 L 194.99999999999997,-0.0" style="stroke:black;fill:none;stroke-width:2.0;stroke-dasharray:-;stroke-linecap:round;stroke-linejoin:round;" /><path d="M 194.99999999999997,-0.0 L 194.99999999999997,14.4 L 185.99999999999997,14.4 L 203.99999999999997,14.4 M 188.7,18.72 L 201.29999999999998,18.72 M 193.2,23.04 L 196.79999999999998,23.04" style="stroke:black;fill:none;stroke-width:2.0;stroke-dasharray:-;stroke-linecap:round;stroke-linejoin:round;" /><path d="M 194.99999999999997,-101.99999999999999 L 194.99999999999997,-110.99999999999999 L 194.99999999999997,-119.99999999999999" style="stroke:black;fill:none;stroke-width:2.0;stroke-dasharray:-;stroke-linecap:round;stroke-linejoin:round;" /><path d="M 194.99999999999997,-119.99999999999999 L 194.99999999999997,-138.0 L 185.99999999999997,-141.0 L 203.99999999999997,-147.0 L 185.99999999999997,-153.0 L 203.99999999999997,-158.99999999999997 L 185.99999999999997,-165.0 L 203.99999999999997,-171.0 L 194.99999999999997,-174.0 L 194.99999999999997,-192.0" style="stroke:black;fill:none;stroke-width:2.0;stroke-dasharray:-;stroke-linecap:round;stroke-linejoin:round;" /><path d="M 194.99999999999997,-119.99999999999999 L 176.99999999999997,-119.99999999999999 L 158.99999999999997,-119.99999999999999" style="stroke:black;fill:none;stroke-width:2.0;stroke-dasharray:-;stroke-linecap:round;stroke-linejoin:round;" /><path d="M 158.99999999999997,-119.99999999999999 L 158.99999999999997,-138.0 L 157.33844372661014,-138.06703383328696 L 155.63302063457496,-138.27113325898924 L 153.930143609328,-138.61398039413746 L 152.2761562453997,-139.09348135344777 L 150.71607161103637,-139.7038232341593 L 149.2923472229325,-140.43563231348764 L 148.04372956999322,-141.27622915336872 L 147.0041996322737,-142.20997366984912 L 146.20204809267221,-143.21869077609992 L 145.65910540937935,-144.2821650152303 L 145.39014770256975,-145.37869072152864 L 145.40249462405941,-146.4856627375583 L 145.69581015385708,-147.5801916108128 L 146.26211174490797,-148.63972652742794 L 147.08598756715716,-149.64266902988305 L 148.14501593866063,-150.56896081643887 L 149.41037552897728,-151.40062962541978 L 150.84762972822898,-152.12227834816522 L 152.41766383531876,-152.7215040595002 L 154.07774955984212,-153.18923556185996 L 155.78270786739867,-153.5199802568466 L 157.48613852160898,-153.71197362563754 L 159.1416828609964,-153.76722725015398 L 160.70428544441393,-153.69147406809975 L 162.13142022948466,-153.49401235174736 L 163.38424791375812,-153.1874526565705 L 164.42867294167988,-152.78737462648553 L 165.23627141105743,-152.31190299570576 L 165.78506462615806,-151.78121432626835 L 166.0601172452837,-151.21698790531198 L 166.05394374430887,-150.64181574587087 L 165.76671213432405,-150.07858774794266 L 165.20623938923407,-149.5498687525984 L 164.38777870774834,-149.07728444253186 L 163.33360439940284,-148.6809328016924 L 162.07240569189045,-148.37883715105588 L 160.63850595716158,-148.18645564610043 L 159.07092860496246,-148.11626058495432 L 157.41233506540715,-148.1773989762945 L 155.70786376326063,-148.3754436045996 L 154.00390168110846,-148.71224136748714 L 152.346821943175,-149.1858630126156 L 150.78172177629511,-149.79065564205638 L 149.3511951942808,-150.51739655523437 L 148.09417380693066,-151.35354424362112 L 147.0448673009266,-152.28357970638888 L 146.23183242730315,-153.28942879816174 L 145.67719583288434,-154.35095411471983 L 145.39605188623727,-155.44650303004627 L 145.39605188623727,-156.55349696995373 L 145.67719583288434,-157.64904588528012 L 146.23183242730315,-158.71057120183823 L 147.04486730092657,-159.7164202936111 L 148.09417380693063,-160.64645575637883 L 149.35119519428076,-161.48260344476557 L 150.7817217762951,-162.20934435794356 L 152.34682194317497,-162.81413698738436 L 154.00390168110843,-163.28775863251286 L 155.7078637632606,-163.62455639540036 L 157.41233506540712,-163.82260102370546 L 159.07092860496243,-163.88373941504565 L 160.63850595716156,-163.81354435389954 L 162.07240569189042,-163.6211628489441 L 163.33360439940282,-163.31906719830758 L 164.38777870774834,-162.9227155574681 L 165.20623938923404,-162.4501312474016 L 165.76671213432405,-161.92141225205734 L 166.05394374430887,-161.35818425412913 L 166.06011724528372,-160.78301209468805 L 165.78506462615806,-160.21878567373165 L 165.23627141105746,-159.6880970042942 L 164.42867294167988,-159.21262537351447 L 163.38424791375812,-158.81254734342946 L 162.1314202294847,-158.50598764825264 L 160.70428544441398,-158.30852593190022 L 159.14168286099644,-158.232772749846 L 157.48613852160898,-158.28802637436246 L 155.7827078673987,-158.48001974315338 L 154.07774955984215,-158.81076443814004 L 152.4176638353188,-159.2784959404998 L 150.84762972822898,-159.87772165183475 L 149.4103755289773,-160.5993703745802 L 148.14501593866066,-161.4310391835611 L 147.08598756715716,-162.3573309701169 L 146.262111744908,-163.36027347257203 L 145.69581015385708,-164.41980838918715 L 145.40249462405944,-165.51433726244164 L 145.39014770256975,-166.6213092784713 L 145.65910540937935,-167.71783498476967 L 146.20204809267221,-168.78130922390005 L 147.0041996322737,-169.79002633015082 L 148.0437295699932,-170.72377084663125 L 149.2923472229325,-171.56436768651233 L 150.71607161103634,-172.29617676584064 L 152.27615624539965,-172.90651864655223 L 153.93014360932796,-173.38601960586254 L 155.6330206345749,-173.7288667410107 L 157.33844372661014,-173.932966166713 L 158.99999999999994,-174.0 L 158.99999999999994,-192.0" style="stroke:black;fill:none;stroke-width:2.0;stroke-dasharray:-;stroke-linecap:round;stroke-linejoin:round;" /><path d="M 194.99999999999997,-119.99999999999999 L 212.99999999999997,-119.99999999999999 L 230.99999999999997,-119.99999999999999" style="stroke:black;fill:none;stroke-width:2.0;stroke-dasharray:-;stroke-linecap:round;stroke-linejoin:round;" /><path d="M 230.99999999999997,-119.99999999999999 L 248.99999999999997,-119.99999999999999 L 267.0,-119.99999999999999" style="stroke:black;fill:none;stroke-width:2.0;stroke-dasharray:-;stroke-linecap:round;stroke-linejoin:round;" /><path d="M 230.99999999999997,-119.99999999999999 L 230.99999999999997,-152.76 M 221.99999999999997,-152.76 L 239.99999999999997,-152.76 M 221.99999999999997,-159.23999999999998 L 239.99999999999997,-159.23999999999998 M 230.99999999999997,-159.23999999999998 L 230.99999999999997,-192.0" style="stroke:black;fill:none;stroke-width:2.0;stroke-dasharray:-;stroke-linecap:round;stroke-linejoin:round;" /><path d="M 140.99999999999994,-192.0 L 194.99999999999997,-192.0 L 248.99999999999997,-192.0" style="stroke:black;fill:none;stroke-width:3;stroke-dasharray:-;stroke-linecap:round;stroke-linejoin:round;" /><g><g><g><path d="M -35.534 -40.781 L -35.534 -40.781 L -35.226 -40.781 L -35.884 -38.093 Q -35.982 -37.729 -36.087 -37.218 Q -36.192 -36.707 -36.192 -36.231 Q -36.192 -35.685 -35.968 -35.286 Q -35.744 -34.887 -35.1 -34.887 Q -34.386 -34.887 -33.868 -35.23 Q -33.35 -35.573 -33.021 -36.105 Q -32.692 -36.637 -32.531 -37.225 Q -32.37 -37.813 -32.37 -38.303 Q -32.37 -38.667 -32.496 -38.933 Q -32.622 -39.199 -32.797 -39.409 Q -32.972 -39.619 -33.098 -39.815 Q -33.224 -40.011 -33.224 -40.235 Q -33.224 -40.515 -33.07 -40.669 Q -32.916 -40.823 -32.692 -40.823 Q -32.216 -40.823 -31.922 -40.347 Q -31.628 -39.871 -31.628 -39.129 Q -31.628 -38.485 -31.789 -37.778 Q -31.95 -37.071 -32.272 -36.399 Q -32.594 -35.727 -33.07 -35.181 Q -33.546 -34.635 -34.162 -34.313 Q -34.778 -33.991 -35.534 -33.991 Q -36.234 -33.991 -36.626 -34.271 Q -37.018 -34.551 -37.179 -35.013 Q -37.34 -35.475 -37.34 -36.007 Q -37.34 -36.511 -37.242 -37.043 Q -37.144 -37.575 -37.032 -38.009 L -36.752 -39.073 Q -36.724 -39.185 -36.668 -39.409 Q -36.612 -39.633 -36.612 -39.843 Q -36.612 -40.025 -36.682 -40.151 Q -36.752 -40.277 -36.948 -40.277 Q -37.116 -40.277 -37.354 -40.256 Q -37.592 -40.235 -37.592 -40.235 L -37.592 -40.627 Z " fill="black" /><path d="M -27.855 -31.54 L -27.855 -31.54 L -27.855 -31.177 L -30.344 -31.177 L -30.344 -31.54 Q -30.001 -31.54 -29.849 -31.613 Q -29.698 -31.687 -29.658 -31.848 Q -29.619 -32.01 -29.619 -32.275 L -29.619 -35.234 Q -29.619 -35.567 -29.727 -35.636 Q -29.835 -35.705 -30.09 -35.705 Q -30.217 -35.705 -30.295 -35.695 Q -30.374 -35.685 -30.374 -35.685 L -30.374 -36.077 L -29.061 -36.293 L -28.659 -36.293 L -28.659 -32.275 Q -28.659 -31.99 -28.615 -31.829 Q -28.571 -31.667 -28.399 -31.603 Q -28.228 -31.54 -27.855 -31.54 Z M -29.149 -38.458 L -29.149 -38.458 Q -28.865 -38.458 -28.673 -38.262 Q -28.482 -38.066 -28.482 -37.812 Q -28.482 -37.576 -28.673 -37.38 Q -28.865 -37.184 -29.149 -37.184 Q -29.423 -37.184 -29.604 -37.38 Q -29.786 -37.576 -29.786 -37.812 Q -29.786 -38.066 -29.604 -38.262 Q -29.423 -38.458 -29.149 -38.458 Z " fill="black" /><path d="M -22.034 -34.46 L -22.034 -34.46 L -22.034 -32.265 Q -22.034 -31.99 -21.985 -31.829 Q -21.936 -31.667 -21.769 -31.598 Q -21.603 -31.53 -21.25 -31.53 L -21.25 -31.177 L -23.769 -31.177 L -23.769 -31.53 Q -23.396 -31.53 -23.23 -31.598 Q -23.063 -31.667 -23.024 -31.829 Q -22.985 -31.99 -22.985 -32.265 L -22.985 -34.137 Q -22.985 -34.793 -23.136 -35.102 Q -23.288 -35.411 -23.519 -35.509 Q -23.749 -35.607 -23.984 -35.607 Q -24.406 -35.607 -24.724 -35.391 Q -25.043 -35.175 -25.278 -34.979 L -25.278 -32.265 Q -25.278 -31.99 -25.234 -31.829 Q -25.19 -31.667 -25.023 -31.598 Q -24.856 -31.53 -24.494 -31.53 L -24.494 -31.177 L -26.963 -31.177 L -26.963 -31.53 Q -26.62 -31.53 -26.468 -31.598 Q -26.317 -31.667 -26.277 -31.829 Q -26.238 -31.99 -26.238 -32.265 L -26.238 -35.244 Q -26.238 -35.518 -26.341 -35.611 Q -26.444 -35.705 -26.669 -35.705 Q -26.787 -35.705 -26.865 -35.695 Q -26.944 -35.685 -26.944 -35.685 L -26.944 -36.057 L -25.631 -36.293 L -25.307 -36.293 L -25.307 -35.489 L -25.239 -35.489 Q -24.817 -35.871 -24.43 -36.097 Q -24.043 -36.322 -23.553 -36.322 Q -22.975 -36.322 -22.646 -36.062 Q -22.318 -35.803 -22.176 -35.381 Q -22.034 -34.96 -22.034 -34.46 Z " fill="black" /></g></g></g><g><g><g><path d="M 13.078 -94.933 L 13.078 -94.933 Q 13.078 -94.191 12.798 -93.687 Q 12.518 -93.183 12.07 -92.861 Q 11.622 -92.539 11.111 -92.364 Q 10.6 -92.189 10.138 -92.105 L 10.138 -92.035 Q 10.39 -91.867 10.614 -91.524 Q 10.838 -91.181 11.167 -90.537 Q 11.496 -89.893 12.07 -88.801 Q 12.308 -88.381 12.595 -88.234 Q 12.882 -88.087 13.358 -88.087 L 13.274 -87.667 L 11.146 -87.667 Q 10.754 -88.535 10.488 -89.116 Q 10.222 -89.697 10.026 -90.089 Q 9.83 -90.481 9.683 -90.789 Q 9.536 -91.097 9.368 -91.419 Q 9.214 -91.713 9.032 -91.804 Q 8.85 -91.895 8.472 -91.895 L 8.178 -91.895 L 7.66 -89.403 Q 7.548 -88.829 7.583 -88.542 Q 7.618 -88.255 7.898 -88.171 Q 8.178 -88.087 8.78 -88.087 L 8.71 -87.667 L 4.846 -87.667 L 4.93 -88.087 Q 5.448 -88.087 5.728 -88.171 Q 6.008 -88.255 6.155 -88.535 Q 6.302 -88.815 6.414 -89.403 L 7.646 -95.409 Q 7.73 -95.801 7.688 -96.025 Q 7.646 -96.249 7.401 -96.347 Q 7.156 -96.445 6.596 -96.445 L 6.68 -96.865 L 9.97 -96.865 Q 11.44 -96.865 12.259 -96.41 Q 13.078 -95.955 13.078 -94.933 Z M 9.06 -96.277 L 9.06 -96.277 L 8.276 -92.413 L 8.71 -92.399 Q 9.55 -92.427 10.229 -92.672 Q 10.908 -92.917 11.3 -93.449 Q 11.692 -93.981 11.692 -94.877 Q 11.692 -95.255 11.531 -95.584 Q 11.37 -95.913 10.978 -96.116 Q 10.586 -96.319 9.886 -96.319 Q 9.62 -96.319 9.459 -96.312 Q 9.298 -96.305 9.06 -96.277 Z " fill="black" /><path d="M 14.59 -86.511 L 14.59 -86.511 L 14.904 -86.511 Q 15.031 -85.943 15.207 -85.629 Q 15.384 -85.315 15.663 -85.193 Q 15.942 -85.07 16.344 -85.07 Q 16.805 -85.07 17.055 -85.222 Q 17.305 -85.374 17.305 -85.756 Q 17.305 -86.011 17.182 -86.183 Q 17.06 -86.354 16.79 -86.511 Q 16.521 -86.668 16.07 -86.874 Q 15.609 -87.099 15.281 -87.295 Q 14.953 -87.491 14.781 -87.756 Q 14.61 -88.02 14.61 -88.422 Q 14.61 -89.128 15.085 -89.5 Q 15.56 -89.872 16.276 -89.872 Q 16.707 -89.872 17.006 -89.765 Q 17.305 -89.657 17.481 -89.578 L 17.501 -89.578 L 17.657 -89.823 L 17.932 -89.823 L 17.951 -88.197 L 17.608 -88.197 Q 17.422 -88.951 17.089 -89.211 Q 16.756 -89.471 16.325 -89.471 Q 15.874 -89.471 15.644 -89.275 Q 15.413 -89.079 15.413 -88.765 Q 15.413 -88.51 15.57 -88.344 Q 15.727 -88.177 16.016 -88.035 Q 16.305 -87.893 16.707 -87.697 Q 17.158 -87.481 17.501 -87.251 Q 17.844 -87.021 18.04 -86.732 Q 18.236 -86.442 18.236 -86.011 Q 18.236 -85.492 17.961 -85.178 Q 17.687 -84.865 17.256 -84.732 Q 16.824 -84.6 16.354 -84.6 Q 15.874 -84.6 15.609 -84.698 Q 15.345 -84.796 15.119 -84.884 L 15.08 -84.884 L 14.835 -84.629 L 14.61 -84.629 Z " fill="black" /><path d="M 33.122 -92.245 L 33.122 -92.245 L 24.778 -92.245 L 24.778 -93.197 L 33.122 -93.197 Z M 33.122 -89.389 L 33.122 -89.389 L 24.778 -89.389 L 24.778 -90.327 L 33.122 -90.327 Z " fill="black" /><path d="M 45.011 -95.353 L 45.011 -95.353 L 41.721 -95.353 L 41.343 -93.757 L 42.001 -93.715 Q 42.617 -93.673 43.219 -93.505 Q 43.821 -93.337 44.311 -93.001 Q 44.801 -92.665 45.088 -92.112 Q 45.375 -91.559 45.375 -90.733 Q 45.375 -89.655 44.899 -88.934 Q 44.423 -88.213 43.576 -87.849 Q 42.729 -87.485 41.609 -87.485 Q 39.999 -87.485 39.999 -88.269 Q 39.999 -88.507 40.146 -88.689 Q 40.293 -88.871 40.559 -88.871 Q 40.839 -88.871 41.112 -88.703 Q 41.385 -88.535 41.707 -88.36 Q 42.029 -88.185 42.477 -88.185 Q 42.981 -88.185 43.408 -88.381 Q 43.835 -88.577 44.094 -89.011 Q 44.353 -89.445 44.353 -90.173 Q 44.353 -91.489 43.569 -92.007 Q 42.785 -92.525 41.329 -92.595 Q 41.063 -92.623 40.958 -92.623 Q 40.853 -92.623 40.699 -92.623 L 40.531 -92.833 L 41.399 -96.487 L 45.235 -96.487 Z " fill="black" /><path d="M 52.655 -92.105 L 52.655 -92.105 Q 52.655 -91.209 52.48 -90.383 Q 52.305 -89.557 51.934 -88.913 Q 51.563 -88.269 50.975 -87.891 Q 50.387 -87.513 49.561 -87.513 Q 48.721 -87.513 48.133 -87.884 Q 47.545 -88.255 47.181 -88.899 Q 46.817 -89.543 46.649 -90.383 Q 46.481 -91.223 46.481 -92.147 Q 46.481 -93.477 46.838 -94.492 Q 47.195 -95.507 47.888 -96.081 Q 48.581 -96.655 49.589 -96.655 Q 50.499 -96.655 51.185 -96.116 Q 51.871 -95.577 52.263 -94.562 Q 52.655 -93.547 52.655 -92.105 Z M 51.297 -92.021 L 51.297 -92.021 Q 51.297 -94.149 50.856 -95.164 Q 50.415 -96.179 49.547 -96.179 Q 48.721 -96.179 48.273 -95.171 Q 47.825 -94.163 47.825 -92.077 Q 47.825 -90.047 48.273 -89.032 Q 48.721 -88.017 49.561 -88.017 Q 50.387 -88.017 50.842 -89.011 Q 51.297 -90.005 51.297 -92.021 Z " fill="black" /><path d="M 66.062 -87.667 L 66.062 -87.667 L 62.408 -87.667 L 62.408 -88.675 Q 63.066 -89.207 63.521 -89.942 Q 63.976 -90.677 64.207 -91.496 Q 64.438 -92.315 64.438 -93.085 Q 64.438 -94.667 63.682 -95.556 Q 62.926 -96.445 61.638 -96.445 Q 60.308 -96.445 59.538 -95.542 Q 58.768 -94.639 58.768 -93.085 Q 58.768 -92.329 58.992 -91.496 Q 59.216 -90.663 59.671 -89.921 Q 60.126 -89.179 60.798 -88.661 L 60.798 -87.667 L 57.102 -87.667 L 56.808 -90.145 L 57.214 -90.145 Q 57.34 -89.669 57.459 -89.375 Q 57.578 -89.081 57.795 -88.941 Q 58.012 -88.801 58.404 -88.801 L 59.678 -88.801 L 59.678 -88.885 Q 59.286 -89.179 58.859 -89.564 Q 58.432 -89.949 58.068 -90.453 Q 57.704 -90.957 57.48 -91.622 Q 57.256 -92.287 57.256 -93.141 Q 57.256 -94.303 57.816 -95.178 Q 58.376 -96.053 59.37 -96.543 Q 60.364 -97.033 61.652 -97.033 Q 62.954 -97.033 63.92 -96.543 Q 64.886 -96.053 65.418 -95.178 Q 65.95 -94.303 65.95 -93.155 Q 65.95 -92.301 65.712 -91.636 Q 65.474 -90.971 65.103 -90.46 Q 64.732 -89.949 64.319 -89.564 Q 63.906 -89.179 63.542 -88.885 L 63.542 -88.801 L 64.718 -88.801 Q 65.138 -88.801 65.355 -88.941 Q 65.572 -89.081 65.705 -89.382 Q 65.838 -89.683 65.978 -90.145 L 66.384 -90.145 Z " fill="black" /></g></g></g><circle cx="90.0" cy="-72.0" r="2.6999999999999997" style="stroke:black;fill:white;stroke-width:2.0;stroke-dasharray:-;" /><circle cx="126.0" cy="-72.0" r="2.6999999999999997" style="stroke:black;fill:black;stroke-width:2.0;stroke-dasharray:-;" /><g><g><g><path d="M 106.186 -41.269 L 106.186 -41.269 Q 106.186 -40.527 105.906 -40.023 Q 105.626 -39.519 105.178 -39.197 Q 104.73 -38.875 104.219 -38.7 Q 103.708 -38.525 103.246 -38.441 L 103.246 -38.371 Q 103.498 -38.203 103.722 -37.86 Q 103.946 -37.517 104.275 -36.873 Q 104.604 -36.229 105.178 -35.137 Q 105.416 -34.717 105.703 -34.57 Q 105.99 -34.423 106.466 -34.423 L 106.382 -34.003 L 104.254 -34.003 Q 103.862 -34.871 103.596 -35.452 Q 103.33 -36.033 103.134 -36.425 Q 102.938 -36.817 102.791 -37.125 Q 102.644 -37.433 102.476 -37.755 Q 102.322 -38.049 102.14 -38.14 Q 101.958 -38.231 101.58 -38.231 L 101.286 -38.231 L 100.768 -35.739 Q 100.656 -35.165 100.691 -34.878 Q 100.726 -34.591 101.006 -34.507 Q 101.286 -34.423 101.888 -34.423 L 101.818 -34.003 L 97.954 -34.003 L 98.038 -34.423 Q 98.556 -34.423 98.836 -34.507 Q 99.116 -34.591 99.263 -34.871 Q 99.41 -35.151 99.522 -35.739 L 100.754 -41.745 Q 100.838 -42.137 100.796 -42.361 Q 100.754 -42.585 100.509 -42.683 Q 100.264 -42.781 99.704 -42.781 L 99.788 -43.201 L 103.078 -43.201 Q 104.548 -43.201 105.367 -42.746 Q 106.186 -42.291 106.186 -41.269 Z M 102.168 -42.613 L 102.168 -42.613 L 101.384 -38.749 L 101.818 -38.735 Q 102.658 -38.763 103.337 -39.008 Q 104.016 -39.253 104.408 -39.785 Q 104.8 -40.317 104.8 -41.213 Q 104.8 -41.591 104.639 -41.92 Q 104.478 -42.249 104.086 -42.452 Q 103.694 -42.655 102.994 -42.655 Q 102.728 -42.655 102.567 -42.648 Q 102.406 -42.641 102.168 -42.613 Z " fill="black" /><path d="M 109.168 -36.178 L 109.168 -36.178 L 109.168 -35.336 L 109.217 -35.336 Q 109.599 -35.777 109.981 -35.992 Q 110.363 -36.208 110.824 -36.208 Q 111.343 -36.208 111.765 -35.899 Q 112.186 -35.59 112.436 -35.047 Q 112.686 -34.503 112.686 -33.797 Q 112.686 -32.876 112.358 -32.239 Q 112.029 -31.602 111.485 -31.274 Q 110.942 -30.945 110.305 -30.945 Q 110.001 -30.945 109.731 -31.024 Q 109.462 -31.102 109.236 -31.229 L 109.187 -31.229 L 109.187 -29.975 Q 109.187 -29.632 109.276 -29.451 Q 109.364 -29.269 109.589 -29.206 Q 109.815 -29.142 110.236 -29.142 L 110.236 -28.799 L 107.463 -28.799 L 107.463 -29.132 Q 107.806 -29.142 107.967 -29.206 Q 108.129 -29.269 108.183 -29.436 Q 108.237 -29.603 108.237 -29.906 L 108.237 -35.061 Q 108.237 -35.345 108.178 -35.468 Q 108.119 -35.59 107.835 -35.59 Q 107.747 -35.59 107.61 -35.581 Q 107.472 -35.571 107.472 -35.571 L 107.472 -35.963 L 108.795 -36.178 Z M 109.187 -34.836 L 109.187 -34.836 L 109.187 -32.072 Q 109.295 -31.964 109.457 -31.803 Q 109.619 -31.641 109.844 -31.519 Q 110.069 -31.396 110.334 -31.396 Q 110.697 -31.396 110.995 -31.617 Q 111.294 -31.837 111.481 -32.307 Q 111.667 -32.778 111.667 -33.503 Q 111.667 -34.424 111.334 -34.934 Q 111 -35.443 110.393 -35.443 Q 110.001 -35.443 109.677 -35.238 Q 109.354 -35.032 109.187 -34.836 Z " fill="black" /></g></g></g><g><g><g><path d="M 209.926 -68.871 L 209.926 -68.871 L 206.188 -68.871 L 206.272 -69.291 Q 206.79 -69.291 207.063 -69.389 Q 207.336 -69.487 207.476 -69.76 Q 207.616 -70.033 207.714 -70.537 L 208.96 -76.585 L 208.904 -76.585 L 204.2 -68.871 L 203.892 -68.871 L 202.198 -76.571 L 202.142 -76.571 L 200.98 -70.915 Q 200.84 -70.201 200.861 -69.851 Q 200.882 -69.501 201.134 -69.396 Q 201.386 -69.291 201.918 -69.291 L 201.834 -68.871 L 198.6 -68.871 L 198.684 -69.291 Q 199.23 -69.291 199.524 -69.396 Q 199.818 -69.501 199.986 -69.851 Q 200.154 -70.201 200.294 -70.915 L 201.4 -76.361 Q 201.512 -76.893 201.47 -77.166 Q 201.428 -77.439 201.169 -77.544 Q 200.91 -77.649 200.35 -77.649 L 200.434 -78.069 L 203.234 -78.069 L 204.746 -70.985 L 204.802 -70.985 L 209.072 -78.069 L 211.718 -78.069 L 211.634 -77.649 Q 211.144 -77.649 210.857 -77.544 Q 210.57 -77.439 210.416 -77.166 Q 210.262 -76.893 210.15 -76.375 L 208.96 -70.537 Q 208.806 -69.767 209.037 -69.529 Q 209.268 -69.291 210.01 -69.291 Z " fill="black" /><path d="M 215.952 -65.931 L 215.952 -65.931 L 212.629 -65.931 L 212.629 -66.284 Q 213.335 -66.284 213.565 -66.426 Q 213.796 -66.568 213.796 -66.94 L 213.796 -71.213 Q 213.796 -71.478 213.717 -71.595 Q 213.639 -71.713 213.433 -71.713 Q 213.276 -71.713 213.007 -71.669 Q 212.737 -71.625 212.541 -71.576 L 212.541 -71.968 L 214.354 -72.468 L 214.776 -72.468 L 214.776 -66.94 Q 214.776 -66.568 215.025 -66.426 Q 215.275 -66.284 215.952 -66.284 Z " fill="black" /></g></g></g><circle cx="194.99999999999997" cy="-119.99999999999999" r="2.6999999999999997" style="stroke:black;fill:black;stroke-width:2.0;stroke-dasharray:-;" /><g><g><g><path d="M 173.196 -160.137 L 173.196 -160.137 Q 173.196 -159.395 172.916 -158.891 Q 172.636 -158.387 172.188 -158.065 Q 171.74 -157.743 171.229 -157.568 Q 170.718 -157.393 170.256 -157.309 L 170.256 -157.239 Q 170.508 -157.071 170.732 -156.728 Q 170.956 -156.385 171.285 -155.741 Q 171.614 -155.097 172.188 -154.005 Q 172.426 -153.585 172.713 -153.438 Q 173 -153.291 173.476 -153.291 L 173.392 -152.871 L 171.264 -152.871 Q 170.872 -153.739 170.606 -154.32 Q 170.34 -154.901 170.144 -155.293 Q 169.948 -155.685 169.801 -155.993 Q 169.654 -156.301 169.486 -156.623 Q 169.332 -156.917 169.15 -157.008 Q 168.968 -157.099 168.59 -157.099 L 168.296 -157.099 L 167.778 -154.607 Q 167.666 -154.033 167.701 -153.746 Q 167.736 -153.459 168.016 -153.375 Q 168.296 -153.291 168.898 -153.291 L 168.828 -152.871 L 164.964 -152.871 L 165.048 -153.291 Q 165.566 -153.291 165.846 -153.375 Q 166.126 -153.459 166.273 -153.739 Q 166.42 -154.019 166.532 -154.607 L 167.764 -160.613 Q 167.848 -161.005 167.806 -161.229 Q 167.764 -161.453 167.519 -161.551 Q 167.274 -161.649 166.714 -161.649 L 166.798 -162.069 L 170.088 -162.069 Q 171.558 -162.069 172.377 -161.614 Q 173.196 -161.159 173.196 -160.137 Z M 169.178 -161.481 L 169.178 -161.481 L 168.394 -157.617 L 168.828 -157.603 Q 169.668 -157.631 170.347 -157.876 Q 171.026 -158.121 171.418 -158.653 Q 171.81 -159.185 171.81 -160.081 Q 171.81 -160.459 171.649 -160.788 Q 171.488 -161.117 171.096 -161.32 Q 170.704 -161.523 170.004 -161.523 Q 169.738 -161.523 169.577 -161.516 Q 169.416 -161.509 169.178 -161.481 Z " fill="black" /><path d="M 174.669 -156.82 L 174.669 -156.82 L 177.639 -156.82 Q 178.423 -156.82 179.138 -156.649 Q 179.853 -156.477 180.417 -156.085 Q 180.98 -155.693 181.309 -155.037 Q 181.637 -154.38 181.637 -153.4 Q 181.637 -152.479 181.338 -151.818 Q 181.039 -151.156 180.5 -150.74 Q 179.961 -150.323 179.246 -150.127 Q 178.53 -149.931 177.697 -149.931 L 174.669 -149.931 L 174.669 -150.303 Q 175.13 -150.303 175.345 -150.372 Q 175.561 -150.441 175.625 -150.651 Q 175.688 -150.862 175.688 -151.293 L 175.688 -155.546 Q 175.688 -155.948 175.595 -156.139 Q 175.502 -156.33 175.282 -156.389 Q 175.061 -156.448 174.669 -156.448 Z M 176.737 -156.33 L 176.737 -156.33 L 176.737 -150.401 Q 176.894 -150.392 177.046 -150.387 Q 177.198 -150.382 177.345 -150.382 Q 178.315 -150.382 178.996 -150.637 Q 179.677 -150.891 180.035 -151.528 Q 180.392 -152.165 180.392 -153.312 Q 180.392 -154.782 179.643 -155.561 Q 178.893 -156.34 177.266 -156.34 Q 177.129 -156.34 177.002 -156.34 Q 176.874 -156.34 176.737 -156.33 Z " fill="black" /></g></g></g><g><g><g><path d="M 141.216 -154.131 L 141.216 -154.131 L 140.376 -151.401 L 133.46 -151.401 L 133.544 -151.821 Q 134.09 -151.821 134.377 -151.919 Q 134.664 -152.017 134.818 -152.297 Q 134.972 -152.577 135.084 -153.137 L 136.288 -158.975 Q 136.386 -159.437 136.358 -159.703 Q 136.33 -159.969 136.071 -160.074 Q 135.812 -160.179 135.21 -160.179 L 135.294 -160.599 L 139.27 -160.599 L 139.2 -160.179 Q 138.444 -160.179 138.066 -159.948 Q 137.688 -159.717 137.534 -158.961 L 136.26 -152.689 Q 136.162 -152.227 136.358 -152.08 Q 136.554 -151.933 137.17 -151.933 L 137.828 -151.933 Q 138.5 -151.933 138.92 -152.052 Q 139.34 -152.171 139.634 -152.423 Q 139.928 -152.675 140.187 -153.102 Q 140.446 -153.529 140.768 -154.131 Z " fill="black" /></g></g></g><circle cx="230.99999999999997" cy="-119.99999999999999" r="2.6999999999999997" style="stroke:black;fill:black;stroke-width:2.0;stroke-dasharray:-;" /><circle cx="267.0" cy="-119.99999999999999" r="2.6999999999999997" style="stroke:black;fill:white;stroke-width:2.0;stroke-dasharray:-;" /><g><g><g><path d="M 276.1 -124.84 L 276.1 -124.84 L 276.408 -124.84 L 275.75 -122.152 Q 275.652 -121.788 275.547 -121.277 Q 275.442 -120.766 275.442 -120.29 Q 275.442 -119.744 275.666 -119.345 Q 275.89 -118.946 276.534 -118.946 Q 277.248 -118.946 277.766 -119.289 Q 278.284 -119.632 278.613 -120.164 Q 278.942 -120.696 279.103 -121.284 Q 279.264 -121.872 279.264 -122.362 Q 279.264 -122.726 279.138 -122.992 Q 279.012 -123.258 278.837 -123.468 Q 278.662 -123.678 278.536 -123.874 Q 278.41 -124.07 278.41 -124.294 Q 278.41 -124.574 278.564 -124.728 Q 278.718 -124.882 278.942 -124.882 Q 279.418 -124.882 279.712 -124.406 Q 280.006 -123.93 280.006 -123.188 Q 280.006 -122.544 279.845 -121.837 Q 279.684 -121.13 279.362 -120.458 Q 279.04 -119.786 278.564 -119.24 Q 278.088 -118.694 277.472 -118.372 Q 276.856 -118.05 276.1 -118.05 Q 275.4 -118.05 275.008 -118.33 Q 274.616 -118.61 274.455 -119.072 Q 274.294 -119.534 274.294 -120.066 Q 274.294 -120.57 274.392 -121.102 Q 274.49 -121.634 274.602 -122.068 L 274.882 -123.132 Q 274.91 -123.244 274.966 -123.468 Q 275.022 -123.692 275.022 -123.902 Q 275.022 -124.084 274.952 -124.21 Q 274.882 -124.336 274.686 -124.336 Q 274.518 -124.336 274.28 -124.315 Q 274.042 -124.294 274.042 -124.294 L 274.042 -124.686 Z " fill="black" /><path d="M 283.034 -120.381 L 283.034 -120.381 Q 283.769 -120.381 284.318 -120.062 Q 284.867 -119.744 285.166 -119.17 Q 285.465 -118.597 285.465 -117.823 Q 285.465 -116.892 285.151 -116.294 Q 284.837 -115.696 284.289 -115.407 Q 283.74 -115.118 283.034 -115.118 Q 282.319 -115.118 281.765 -115.417 Q 281.211 -115.716 280.903 -116.314 Q 280.594 -116.912 280.594 -117.813 Q 280.594 -118.578 280.898 -119.156 Q 281.202 -119.734 281.75 -120.057 Q 282.299 -120.381 283.034 -120.381 Z M 283.015 -119.93 L 283.015 -119.93 Q 282.368 -119.93 282 -119.406 Q 281.633 -118.881 281.633 -117.872 Q 281.633 -116.627 282.01 -116.113 Q 282.387 -115.598 283.064 -115.598 Q 283.495 -115.608 283.799 -115.814 Q 284.102 -116.02 284.264 -116.505 Q 284.426 -116.99 284.426 -117.823 Q 284.426 -118.823 284.083 -119.376 Q 283.74 -119.93 283.015 -119.93 Z " fill="black" /><path d="M 292.129 -115.736 L 292.129 -115.736 L 292.129 -115.363 L 290.806 -115.187 L 290.492 -115.187 L 290.492 -115.951 L 290.394 -115.951 Q 290.022 -115.618 289.639 -115.378 Q 289.257 -115.138 288.718 -115.138 Q 287.993 -115.138 287.611 -115.579 Q 287.229 -116.02 287.229 -117.108 L 287.229 -119.215 Q 287.229 -119.616 287.087 -119.709 Q 286.944 -119.803 286.494 -119.803 L 286.494 -120.155 L 287.856 -120.342 L 288.179 -120.342 L 288.179 -117.235 Q 288.179 -116.686 288.307 -116.382 Q 288.434 -116.079 288.65 -115.961 Q 288.865 -115.843 289.12 -115.843 Q 289.551 -115.843 289.84 -116.025 Q 290.129 -116.206 290.443 -116.461 L 290.443 -119.215 Q 290.443 -119.616 290.267 -119.709 Q 290.09 -119.803 289.59 -119.803 L 289.59 -120.155 L 291.051 -120.342 L 291.394 -120.342 L 291.394 -116.373 Q 291.394 -116.079 291.447 -115.941 Q 291.501 -115.804 291.639 -115.77 Q 291.776 -115.736 292.021 -115.736 Z " fill="black" /><path d="M 295.951 -116.216 L 295.951 -116.216 L 296.176 -116.03 Q 295.96 -115.736 295.784 -115.535 Q 295.608 -115.334 295.382 -115.226 Q 295.157 -115.118 294.804 -115.118 Q 294.236 -115.118 293.976 -115.442 Q 293.716 -115.765 293.716 -116.48 L 293.716 -119.773 L 293.099 -119.773 L 293.099 -120.067 Q 293.452 -120.322 293.746 -120.689 Q 294.04 -121.057 294.334 -121.743 L 294.677 -121.743 L 294.667 -120.253 L 295.911 -120.253 L 295.911 -119.773 L 294.667 -119.773 L 294.667 -116.804 Q 294.667 -116.255 294.77 -116.025 Q 294.873 -115.794 295.186 -115.794 Q 295.47 -115.794 295.617 -115.897 Q 295.764 -116 295.951 -116.216 Z " fill="black" /></g></g></g><g><g><g><path d="M 217.742 -153.417 L 217.742 -153.417 L 217.994 -153.151 Q 217.28 -152.311 216.342 -151.772 Q 215.404 -151.233 214.074 -151.233 Q 212.814 -151.233 212.058 -151.702 Q 211.302 -152.171 210.973 -152.955 Q 210.644 -153.739 210.644 -154.663 Q 210.644 -156.133 211.092 -157.274 Q 211.54 -158.415 212.317 -159.192 Q 213.094 -159.969 214.074 -160.368 Q 215.054 -160.767 216.118 -160.767 Q 216.832 -160.767 217.231 -160.641 Q 217.63 -160.515 217.854 -160.382 Q 218.078 -160.249 218.246 -160.249 Q 218.414 -160.249 218.54 -160.389 Q 218.666 -160.529 218.834 -160.753 L 219.24 -160.753 L 218.582 -157.547 L 218.12 -157.547 Q 218.176 -158.947 217.602 -159.556 Q 217.028 -160.165 215.992 -160.165 Q 215.18 -160.165 214.466 -159.794 Q 213.752 -159.423 213.199 -158.744 Q 212.646 -158.065 212.331 -157.12 Q 212.016 -156.175 212.016 -155.013 Q 212.016 -153.613 212.681 -152.878 Q 213.346 -152.143 214.732 -152.143 Q 216.342 -152.143 217.742 -153.417 Z " fill="black" /></g></g></g><g><g><g><path d="M 186.853 -200.29 L 186.853 -200.29 L 190.675 -206.03 Q 190.871 -206.31 190.99 -206.548 Q 191.109 -206.786 191.109 -206.954 Q 191.109 -207.164 190.927 -207.241 Q 190.745 -207.318 190.269 -207.318 L 190.297 -207.738 L 193.321 -207.738 L 193.293 -207.318 Q 192.915 -207.318 192.649 -207.206 Q 192.383 -207.094 192.11 -206.779 Q 191.837 -206.464 191.403 -205.82 L 186.265 -198.47 L 185.803 -198.47 L 185.019 -206.044 Q 184.935 -206.744 184.711 -207.031 Q 184.487 -207.318 183.927 -207.318 L 183.955 -207.738 L 187.385 -207.738 L 187.343 -207.318 Q 186.811 -207.318 186.503 -207.108 Q 186.195 -206.898 186.223 -206.422 Q 186.223 -206.352 186.244 -206.17 Q 186.265 -205.988 186.265 -205.918 L 186.685 -201.928 L 186.783 -200.29 Z " fill="black" /><path d="M 192.218 -202.489 L 192.218 -202.489 L 195.188 -202.489 Q 195.972 -202.489 196.687 -202.318 Q 197.402 -202.146 197.966 -201.754 Q 198.529 -201.362 198.858 -200.706 Q 199.186 -200.049 199.186 -199.069 Q 199.186 -198.148 198.887 -197.486 Q 198.588 -196.825 198.049 -196.408 Q 197.51 -195.992 196.795 -195.796 Q 196.079 -195.6 195.246 -195.6 L 192.218 -195.6 L 192.218 -195.972 Q 192.679 -195.972 192.894 -196.041 Q 193.11 -196.11 193.174 -196.32 Q 193.237 -196.531 193.237 -196.962 L 193.237 -201.215 Q 193.237 -201.617 193.144 -201.808 Q 193.051 -201.999 192.831 -202.058 Q 192.61 -202.117 192.218 -202.117 Z M 194.286 -201.999 L 194.286 -201.999 L 194.286 -196.07 Q 194.443 -196.061 194.595 -196.056 Q 194.747 -196.051 194.894 -196.051 Q 195.864 -196.051 196.545 -196.306 Q 197.226 -196.56 197.584 -197.197 Q 197.941 -197.834 197.941 -198.981 Q 197.941 -200.451 197.192 -201.23 Q 196.442 -202.009 194.815 -202.009 Q 194.678 -202.009 194.551 -202.009 Q 194.423 -202.009 194.286 -201.999 Z " fill="black" /><path d="M 200.372 -202.489 L 200.372 -202.489 L 203.341 -202.489 Q 204.125 -202.489 204.841 -202.318 Q 205.556 -202.146 206.119 -201.754 Q 206.683 -201.362 207.011 -200.706 Q 207.34 -200.049 207.34 -199.069 Q 207.34 -198.148 207.041 -197.486 Q 206.742 -196.825 206.203 -196.408 Q 205.664 -195.992 204.948 -195.796 Q 204.233 -195.6 203.4 -195.6 L 200.372 -195.6 L 200.372 -195.972 Q 200.832 -195.972 201.048 -196.041 Q 201.264 -196.11 201.327 -196.32 Q 201.391 -196.531 201.391 -196.962 L 201.391 -201.215 Q 201.391 -201.617 201.298 -201.808 Q 201.205 -201.999 200.984 -202.058 Q 200.764 -202.117 200.372 -202.117 Z M 202.44 -201.999 L 202.44 -201.999 L 202.44 -196.07 Q 202.596 -196.061 202.748 -196.056 Q 202.9 -196.051 203.047 -196.051 Q 204.017 -196.051 204.698 -196.306 Q 205.38 -196.56 205.737 -197.197 Q 206.095 -197.834 206.095 -198.981 Q 206.095 -200.451 205.345 -201.23 Q 204.596 -202.009 202.969 -202.009 Q 202.832 -202.009 202.704 -202.009 Q 202.577 -202.009 202.44 -201.999 Z " fill="black" /></g></g></g></svg>