<svg xmlns="http://www.w3.org/2000/svg" xmlns:xlink="http://www.w3.org/1999/xlink" xml:lang="en" height="81.2pt" width="571.887pt" viewBox="-15.688000000000002 -40.6 571.887 81.2"><path d="M 0.0,-0.0 L 18.0,-0.0 L 36.0,-0.0" style="stroke:black;fill:none;stroke-width:2.0;stroke-dasharray:-;stroke-linecap:round;stroke-linejoin:round;" /><path d="M 36.0,-0.0 L 36.0,-36.0 L 144.0,-36.0 L 144.0,36.0 L 36.0,36.0 L 36.0,-0.0" style="stroke:black;fill:none;stroke-width:2.0;stroke-dasharray:-;stroke-linecap:round;stroke-linejoin:round;" /><path d="M 144.0,-0.0 L 162.0,-0.0 L 180.0,-0.0" style="stroke:black;fill:none;stroke-width:2.0;stroke-dasharray:-;stroke-linecap:round;stroke-linejoin:round;" /><path d="M 180.0,-0.0 L 198.0,-0.0 L 216.0,-0.0" style="stroke:black;fill:none;stroke-width:2.0;stroke-dasharray:-;stroke-linecap:round;stroke-linejoin:round;" /><path d="M 216.0,-0.0 L 216.0,-36.0 L 324.0,-36.0 L 324.0,36.0 L 216.0,36.0 L 216.0,-0.0" style="stroke:black;fill:none;stroke-width:2.0;stroke-dasharray:-;stroke-linecap:round;stroke-linejoin:round;" /><path d="M 324.0,-0.0 L 342.0,-0.0 L 360.0,-0.0" style="stroke:black;fill:none;stroke-width:2.0;stroke-dasharray:-;stroke-linecap:round;stroke-linejoin:round;" /><path d="M 360.0,-0.0 L 378.0,-0.0 L 396.0,-0.0" style="stroke:black;fill:none;stroke-width:2.0;stroke-dasharray:-;stroke-linecap:round;stroke-linejoin:round;" /><path d="M 396.0,-0.0 L 396.0,-36.0 L 504.0,-36.0 L 504.0,36.0 L 396.0,36.0 L 396.0,-0.0" style="stroke:black;fill:none;stroke-width:2.0;stroke-dasharray:-;stroke-linecap:round;stroke-linejoin:round;" /><path d="M 504.0,-0.0 L 522.0,-0.0 L 540.0,-0.0" style="stroke:black;fill:none;stroke-width:2.0;stroke-dasharray:-;stroke-linecap:round;stroke-linejoin:round;" /><g><g><g><path d="M 74.568 -1.82 L 74.568 -1.82 L 74.498 -1.386 Q 74.106 -1.386 73.882 -1.302 Q 73.658 -1.218 73.546 -0.987 Q 73.434 -0.756 73.35 -0.322 L 72.93 1.708 Q 72.076 2.142 71.285 2.401 Q 70.494 2.66 69.374 2.66 Q 68.366 2.66 67.687 2.38 Q 67.008 2.1 66.609 1.617 Q 66.21 1.134 66.035 0.518 Q 65.86 -0.098 65.86 -0.77 Q 65.86 -2.282 66.329 -3.43 Q 66.798 -4.578 67.589 -5.341 Q 68.38 -6.104 69.374 -6.489 Q 70.368 -6.874 71.418 -6.874 Q 72.16 -6.874 72.573 -6.748 Q 72.986 -6.622 73.21 -6.489 Q 73.434 -6.356 73.616 -6.356 Q 73.77 -6.356 73.896 -6.496 Q 74.022 -6.636 74.19 -6.86 L 74.582 -6.86 L 73.938 -3.654 L 73.476 -3.654 Q 73.518 -5.054 72.944 -5.663 Q 72.37 -6.272 71.292 -6.272 Q 70.228 -6.272 69.311 -5.649 Q 68.394 -5.026 67.841 -3.871 Q 67.288 -2.716 67.274 -1.106 Q 67.274 0.448 67.855 1.246 Q 68.436 2.044 69.71 2.044 Q 70.354 2.044 70.844 1.848 Q 71.334 1.652 71.796 1.344 L 72.09 -0.182 Q 72.202 -0.686 72.167 -0.945 Q 72.132 -1.204 71.894 -1.295 Q 71.656 -1.386 71.124 -1.386 L 71.208 -1.82 Z " fill="black" /><path d="M 79.487 5.446 L 79.487 5.446 L 76.165 5.446 L 76.165 5.093 Q 76.871 5.093 77.101 4.951 Q 77.331 4.809 77.331 4.437 L 77.331 0.164 Q 77.331 -0.101 77.253 -0.218 Q 77.175 -0.336 76.969 -0.336 Q 76.812 -0.336 76.543 -0.292 Q 76.273 -0.248 76.077 -0.199 L 76.077 -0.591 L 77.89 -1.091 L 78.311 -1.091 L 78.311 4.437 Q 78.311 4.809 78.561 4.951 Q 78.811 5.093 79.487 5.093 Z " fill="black" /></g><g><path d="M 80.354 4.354 L 80.354 4.354 L 80.186 4.004 Q 80.452 3.892 80.718 3.717 Q 80.984 3.542 81.166 3.206 Q 81.348 2.87 81.348 2.31 Q 81.124 2.394 80.914 2.394 Q 80.508 2.394 80.326 2.17 Q 80.144 1.946 80.144 1.638 Q 80.144 1.302 80.368 1.057 Q 80.592 0.812 81.012 0.812 Q 81.544 0.812 81.817 1.141 Q 82.09 1.47 82.09 2.044 Q 82.09 2.632 81.901 3.038 Q 81.712 3.444 81.432 3.696 Q 81.152 3.948 80.858 4.102 Q 80.564 4.256 80.354 4.354 Z " fill="black" /></g><g><path d="M 87.186 0.672 L 87.186 0.672 L 87.186 -4.844 Q 87.186 -5.39 87.116 -5.705 Q 87.046 -6.02 86.759 -6.146 Q 86.472 -6.272 85.8 -6.272 L 85.8 -6.692 L 89.832 -6.692 L 89.832 -6.272 Q 89.174 -6.272 88.88 -6.146 Q 88.586 -6.02 88.523 -5.705 Q 88.46 -5.39 88.46 -4.844 L 88.46 0.672 Q 88.46 1.274 88.544 1.575 Q 88.628 1.876 88.922 1.981 Q 89.216 2.086 89.832 2.086 L 89.832 2.506 L 85.8 2.506 L 85.8 2.086 Q 86.43 2.086 86.724 1.981 Q 87.018 1.876 87.102 1.575 Q 87.186 1.274 87.186 0.672 Z " fill="black" /><path d="M 92.184 0.672 L 92.184 0.672 L 92.184 -4.844 Q 92.184 -5.39 92.114 -5.705 Q 92.044 -6.02 91.757 -6.146 Q 91.47 -6.272 90.798 -6.272 L 90.798 -6.692 L 94.83 -6.692 L 94.83 -6.272 Q 94.172 -6.272 93.878 -6.146 Q 93.584 -6.02 93.521 -5.705 Q 93.458 -5.39 93.458 -4.844 L 93.458 0.672 Q 93.458 1.274 93.542 1.575 Q 93.626 1.876 93.92 1.981 Q 94.214 2.086 94.83 2.086 L 94.83 2.506 L 90.798 2.506 L 90.798 2.086 Q 91.428 2.086 91.722 1.981 Q 92.016 1.876 92.1 1.575 Q 92.184 1.274 92.184 0.672 Z " fill="black" /><path d="M 95.992 -6.692 L 95.992 -6.692 L 99.478 -6.692 Q 100.15 -6.692 100.773 -6.587 Q 101.396 -6.482 101.879 -6.23 Q 102.362 -5.978 102.649 -5.523 Q 102.936 -5.068 102.936 -4.368 Q 102.936 -3.556 102.628 -3.003 Q 102.32 -2.45 101.795 -2.114 Q 101.27 -1.778 100.612 -1.638 Q 99.954 -1.498 99.268 -1.498 Q 99.058 -1.498 98.82 -1.526 Q 98.582 -1.554 98.47 -1.61 L 98.47 0.784 Q 98.47 1.358 98.589 1.638 Q 98.708 1.918 99.016 2.002 Q 99.324 2.086 99.884 2.086 L 99.884 2.506 L 95.936 2.506 L 95.936 2.086 Q 96.482 2.086 96.748 1.988 Q 97.014 1.89 97.098 1.603 Q 97.182 1.316 97.182 0.728 L 97.182 -5.292 Q 97.182 -5.908 96.923 -6.09 Q 96.664 -6.272 95.992 -6.272 Z M 98.47 -6.09 L 98.47 -6.09 L 98.47 -2.128 Q 98.582 -2.114 98.799 -2.093 Q 99.016 -2.072 99.226 -2.072 Q 100.36 -2.072 100.955 -2.513 Q 101.55 -2.954 101.55 -4.172 Q 101.55 -5.124 100.997 -5.635 Q 100.444 -6.146 99.31 -6.146 Q 99.1 -6.146 98.897 -6.132 Q 98.694 -6.118 98.47 -6.09 Z " fill="black" /><path d="M 104.49 -4.466 L 104.49 -4.466 L 104.168 -4.648 Q 104.966 -6.51 106.702 -6.51 Q 107.78 -6.51 108.368 -5.971 Q 108.956 -5.432 108.956 -4.634 Q 108.956 -3.906 108.529 -3.458 Q 108.102 -3.01 107.444 -2.59 L 107.444 -2.548 Q 108.004 -2.38 108.473 -2.065 Q 108.942 -1.75 109.222 -1.295 Q 109.502 -0.84 109.502 -0.21 Q 109.502 0.742 108.97 1.393 Q 108.438 2.044 107.57 2.366 Q 106.702 2.688 105.68 2.688 Q 105.05 2.688 104.714 2.569 Q 104.378 2.45 104.245 2.275 Q 104.112 2.1 104.112 1.918 Q 104.112 1.694 104.252 1.498 Q 104.392 1.302 104.658 1.302 Q 104.826 1.302 104.973 1.365 Q 105.12 1.428 105.484 1.624 Q 105.932 1.848 106.149 1.918 Q 106.366 1.988 106.618 1.988 Q 107.066 1.988 107.458 1.827 Q 107.85 1.666 108.102 1.281 Q 108.354 0.896 108.354 0.21 Q 108.354 -0.42 108.004 -0.882 Q 107.654 -1.344 107.073 -1.603 Q 106.492 -1.862 105.82 -1.862 L 105.54 -1.862 L 105.54 -2.394 L 105.806 -2.394 Q 106.282 -2.394 106.73 -2.632 Q 107.178 -2.87 107.465 -3.304 Q 107.752 -3.738 107.752 -4.298 Q 107.752 -4.914 107.367 -5.257 Q 106.982 -5.6 106.324 -5.6 Q 105.694 -5.6 105.274 -5.313 Q 104.854 -5.026 104.49 -4.466 Z " fill="black" /><path d="M 114.73 6.692 L 114.73 6.692 L 111.407 6.692 L 111.407 6.339 Q 112.113 6.339 112.343 6.197 Q 112.574 6.055 112.574 5.683 L 112.574 1.41 Q 112.574 1.145 112.495 1.028 Q 112.417 0.91 112.211 0.91 Q 112.054 0.91 111.785 0.954 Q 111.515 0.998 111.319 1.047 L 111.319 0.655 L 113.132 0.155 L 113.554 0.155 L 113.554 5.683 Q 113.554 6.055 113.803 6.197 Q 114.053 6.339 114.73 6.339 Z " fill="black" /></g></g></g><g><g><g><path d="M 254.421 -1.848 L 254.421 -1.848 L 254.351 -1.414 Q 253.959 -1.414 253.735 -1.33 Q 253.511 -1.246 253.399 -1.015 Q 253.287 -0.784 253.203 -0.35 L 252.783 1.68 Q 251.929 2.114 251.138 2.373 Q 250.347 2.632 249.227 2.632 Q 248.219 2.632 247.54 2.352 Q 246.861 2.072 246.462 1.589 Q 246.063 1.106 245.888 0.49 Q 245.713 -0.126 245.713 -0.798 Q 245.713 -2.31 246.182 -3.458 Q 246.651 -4.606 247.442 -5.369 Q 248.233 -6.132 249.227 -6.517 Q 250.221 -6.902 251.271 -6.902 Q 252.013 -6.902 252.426 -6.776 Q 252.839 -6.65 253.063 -6.517 Q 253.287 -6.384 253.469 -6.384 Q 253.623 -6.384 253.749 -6.524 Q 253.875 -6.664 254.043 -6.888 L 254.435 -6.888 L 253.791 -3.682 L 253.329 -3.682 Q 253.371 -5.082 252.797 -5.691 Q 252.223 -6.3 251.145 -6.3 Q 250.081 -6.3 249.164 -5.677 Q 248.247 -5.054 247.694 -3.899 Q 247.141 -2.744 247.127 -1.134 Q 247.127 0.42 247.708 1.218 Q 248.289 2.016 249.563 2.016 Q 250.207 2.016 250.697 1.82 Q 251.187 1.624 251.649 1.316 L 251.943 -0.21 Q 252.055 -0.714 252.02 -0.973 Q 251.985 -1.232 251.747 -1.323 Q 251.509 -1.414 250.977 -1.414 L 251.061 -1.848 Z " fill="black" /><path d="M 259.899 3.713 L 259.899 3.713 L 259.566 5.418 L 255.548 5.418 L 255.548 4.938 L 256.939 3.527 Q 257.488 2.978 257.846 2.556 Q 258.204 2.135 258.38 1.709 Q 258.556 1.282 258.556 0.734 Q 258.556 0.214 258.238 -0.124 Q 257.919 -0.462 257.341 -0.462 Q 256.812 -0.462 256.454 -0.251 Q 256.097 -0.041 255.822 0.44 L 255.558 0.312 Q 255.803 -0.374 256.317 -0.766 Q 256.832 -1.158 257.586 -1.158 Q 258.174 -1.158 258.625 -0.947 Q 259.076 -0.736 259.331 -0.344 Q 259.585 0.048 259.585 0.606 Q 259.585 1.086 259.37 1.508 Q 259.154 1.929 258.757 2.37 Q 258.36 2.811 257.812 3.35 L 256.587 4.536 L 256.587 4.605 L 257.351 4.565 L 258.625 4.565 Q 258.909 4.565 259.061 4.487 Q 259.213 4.409 259.321 4.218 Q 259.429 4.026 259.556 3.713 Z " fill="black" /></g><g><path d="M 260.354 4.326 L 260.354 4.326 L 260.186 3.976 Q 260.452 3.864 260.718 3.689 Q 260.984 3.514 261.166 3.178 Q 261.348 2.842 261.348 2.282 Q 261.124 2.366 260.914 2.366 Q 260.508 2.366 260.326 2.142 Q 260.144 1.918 260.144 1.61 Q 260.144 1.274 260.368 1.029 Q 260.592 0.784 261.012 0.784 Q 261.544 0.784 261.817 1.113 Q 262.09 1.442 262.09 2.016 Q 262.09 2.604 261.901 3.01 Q 261.712 3.416 261.432 3.668 Q 261.152 3.92 260.858 4.074 Q 260.564 4.228 260.354 4.326 Z " fill="black" /></g><g><path d="M 267.186 0.644 L 267.186 0.644 L 267.186 -4.872 Q 267.186 -5.418 267.116 -5.733 Q 267.046 -6.048 266.759 -6.174 Q 266.472 -6.3 265.8 -6.3 L 265.8 -6.72 L 269.832 -6.72 L 269.832 -6.3 Q 269.174 -6.3 268.88 -6.174 Q 268.586 -6.048 268.523 -5.733 Q 268.46 -5.418 268.46 -4.872 L 268.46 0.644 Q 268.46 1.246 268.544 1.547 Q 268.628 1.848 268.922 1.953 Q 269.216 2.058 269.832 2.058 L 269.832 2.478 L 265.8 2.478 L 265.8 2.058 Q 266.43 2.058 266.724 1.953 Q 267.018 1.848 267.102 1.547 Q 267.186 1.246 267.186 0.644 Z " fill="black" /><path d="M 272.184 0.644 L 272.184 0.644 L 272.184 -4.872 Q 272.184 -5.418 272.114 -5.733 Q 272.044 -6.048 271.757 -6.174 Q 271.47 -6.3 270.798 -6.3 L 270.798 -6.72 L 274.83 -6.72 L 274.83 -6.3 Q 274.172 -6.3 273.878 -6.174 Q 273.584 -6.048 273.521 -5.733 Q 273.458 -5.418 273.458 -4.872 L 273.458 0.644 Q 273.458 1.246 273.542 1.547 Q 273.626 1.848 273.92 1.953 Q 274.214 2.058 274.83 2.058 L 274.83 2.478 L 270.798 2.478 L 270.798 2.058 Q 271.428 2.058 271.722 1.953 Q 272.016 1.848 272.1 1.547 Q 272.184 1.246 272.184 0.644 Z " fill="black" /><path d="M 275.992 -6.72 L 275.992 -6.72 L 279.478 -6.72 Q 280.15 -6.72 280.773 -6.615 Q 281.396 -6.51 281.879 -6.258 Q 282.362 -6.006 282.649 -5.551 Q 282.936 -5.096 282.936 -4.396 Q 282.936 -3.584 282.628 -3.031 Q 282.32 -2.478 281.795 -2.142 Q 281.27 -1.806 280.612 -1.666 Q 279.954 -1.526 279.268 -1.526 Q 279.058 -1.526 278.82 -1.554 Q 278.582 -1.582 278.47 -1.638 L 278.47 0.756 Q 278.47 1.33 278.589 1.61 Q 278.708 1.89 279.016 1.974 Q 279.324 2.058 279.884 2.058 L 279.884 2.478 L 275.936 2.478 L 275.936 2.058 Q 276.482 2.058 276.748 1.96 Q 277.014 1.862 277.098 1.575 Q 277.182 1.288 277.182 0.7 L 277.182 -5.32 Q 277.182 -5.936 276.923 -6.118 Q 276.664 -6.3 275.992 -6.3 Z M 278.47 -6.118 L 278.47 -6.118 L 278.47 -2.156 Q 278.582 -2.142 278.799 -2.121 Q 279.016 -2.1 279.226 -2.1 Q 280.36 -2.1 280.955 -2.541 Q 281.55 -2.982 281.55 -4.2 Q 281.55 -5.152 280.997 -5.663 Q 280.444 -6.174 279.31 -6.174 Q 279.1 -6.174 278.897 -6.16 Q 278.694 -6.146 278.47 -6.118 Z " fill="black" /><path d="M 284.49 -4.494 L 284.49 -4.494 L 284.168 -4.676 Q 284.966 -6.538 286.702 -6.538 Q 287.78 -6.538 288.368 -5.999 Q 288.956 -5.46 288.956 -4.662 Q 288.956 -3.934 288.529 -3.486 Q 288.102 -3.038 287.444 -2.618 L 287.444 -2.576 Q 288.004 -2.408 288.473 -2.093 Q 288.942 -1.778 289.222 -1.323 Q 289.502 -0.868 289.502 -0.238 Q 289.502 0.714 288.97 1.365 Q 288.438 2.016 287.57 2.338 Q 286.702 2.66 285.68 2.66 Q 285.05 2.66 284.714 2.541 Q 284.378 2.422 284.245 2.247 Q 284.112 2.072 284.112 1.89 Q 284.112 1.666 284.252 1.47 Q 284.392 1.274 284.658 1.274 Q 284.826 1.274 284.973 1.337 Q 285.12 1.4 285.484 1.596 Q 285.932 1.82 286.149 1.89 Q 286.366 1.96 286.618 1.96 Q 287.066 1.96 287.458 1.799 Q 287.85 1.638 288.102 1.253 Q 288.354 0.868 288.354 0.182 Q 288.354 -0.448 288.004 -0.91 Q 287.654 -1.372 287.073 -1.631 Q 286.492 -1.89 285.82 -1.89 L 285.54 -1.89 L 285.54 -2.422 L 285.806 -2.422 Q 286.282 -2.422 286.73 -2.66 Q 287.178 -2.898 287.465 -3.332 Q 287.752 -3.766 287.752 -4.326 Q 287.752 -4.942 287.367 -5.285 Q 286.982 -5.628 286.324 -5.628 Q 285.694 -5.628 285.274 -5.341 Q 284.854 -5.054 284.49 -4.494 Z " fill="black" /><path d="M 295.288 5.015 L 295.288 5.015 L 294.955 6.72 L 290.937 6.72 L 290.937 6.24 L 292.329 4.829 Q 292.877 4.28 293.235 3.858 Q 293.593 3.437 293.769 3.011 Q 293.946 2.584 293.946 2.036 Q 293.946 1.516 293.627 1.178 Q 293.309 0.84 292.73 0.84 Q 292.201 0.84 291.844 1.051 Q 291.486 1.261 291.211 1.742 L 290.947 1.614 Q 291.192 0.928 291.706 0.536 Q 292.221 0.144 292.975 0.144 Q 293.563 0.144 294.014 0.355 Q 294.465 0.566 294.72 0.958 Q 294.975 1.35 294.975 1.908 Q 294.975 2.388 294.759 2.81 Q 294.543 3.231 294.147 3.672 Q 293.75 4.113 293.201 4.652 L 291.976 5.838 L 291.976 5.907 L 292.74 5.867 L 294.014 5.867 Q 294.298 5.867 294.45 5.789 Q 294.602 5.711 294.71 5.52 Q 294.818 5.328 294.945 5.015 Z " fill="black" /></g></g></g><g><g><g><path d="M 434.421 -1.912 L 434.421 -1.912 L 434.351 -1.478 Q 433.959 -1.478 433.735 -1.394 Q 433.511 -1.31 433.399 -1.079 Q 433.287 -0.848 433.203 -0.414 L 432.783 1.616 Q 431.929 2.05 431.138 2.309 Q 430.347 2.568 429.227 2.568 Q 428.219 2.568 427.54 2.288 Q 426.861 2.008 426.462 1.525 Q 426.063 1.042 425.888 0.426 Q 425.713 -0.19 425.713 -0.862 Q 425.713 -2.374 426.182 -3.522 Q 426.651 -4.67 427.442 -5.433 Q 428.233 -6.196 429.227 -6.581 Q 430.221 -6.966 431.271 -6.966 Q 432.013 -6.966 432.426 -6.84 Q 432.839 -6.714 433.063 -6.581 Q 433.287 -6.448 433.469 -6.448 Q 433.623 -6.448 433.749 -6.588 Q 433.875 -6.728 434.043 -6.952 L 434.435 -6.952 L 433.791 -3.746 L 433.329 -3.746 Q 433.371 -5.146 432.797 -5.755 Q 432.223 -6.364 431.145 -6.364 Q 430.081 -6.364 429.164 -5.741 Q 428.247 -5.118 427.694 -3.963 Q 427.141 -2.808 427.127 -1.198 Q 427.127 0.356 427.708 1.154 Q 428.289 1.952 429.563 1.952 Q 430.207 1.952 430.697 1.756 Q 431.187 1.56 431.649 1.252 L 431.943 -0.274 Q 432.055 -0.778 432.02 -1.037 Q 431.985 -1.296 431.747 -1.387 Q 431.509 -1.478 430.977 -1.478 L 431.061 -1.912 Z " fill="black" /><path d="M 435.93 0.258 L 435.93 0.258 L 435.646 0.121 Q 435.94 -0.545 436.425 -0.883 Q 436.91 -1.221 437.518 -1.221 Q 438.302 -1.221 438.782 -0.839 Q 439.262 -0.457 439.262 0.151 Q 439.262 0.68 438.939 1.003 Q 438.615 1.327 438.135 1.64 L 438.135 1.689 Q 438.547 1.797 438.894 2.013 Q 439.242 2.228 439.448 2.566 Q 439.654 2.904 439.654 3.385 Q 439.654 3.924 439.419 4.32 Q 439.184 4.717 438.782 4.977 Q 438.38 5.237 437.865 5.359 Q 437.351 5.482 436.792 5.482 Q 436.312 5.482 436.062 5.398 Q 435.812 5.315 435.719 5.178 Q 435.626 5.041 435.626 4.904 Q 435.626 4.737 435.724 4.575 Q 435.822 4.414 436.057 4.414 Q 436.155 4.414 436.258 4.467 Q 436.361 4.521 436.636 4.678 Q 436.861 4.786 436.993 4.845 Q 437.126 4.904 437.228 4.923 Q 437.331 4.943 437.469 4.943 Q 437.763 4.943 438.052 4.835 Q 438.341 4.727 438.537 4.448 Q 438.733 4.169 438.733 3.659 Q 438.733 3.208 438.483 2.885 Q 438.233 2.561 437.812 2.38 Q 437.39 2.199 436.881 2.199 L 436.665 2.199 L 436.665 1.738 L 436.871 1.738 Q 437.224 1.738 437.557 1.576 Q 437.89 1.415 438.106 1.116 Q 438.321 0.817 438.321 0.405 Q 438.321 -0.055 438.022 -0.29 Q 437.723 -0.526 437.263 -0.526 Q 436.41 -0.526 435.93 0.258 Z " fill="black" /></g><g><path d="M 440.354 4.262 L 440.354 4.262 L 440.186 3.912 Q 440.452 3.8 440.718 3.625 Q 440.984 3.45 441.166 3.114 Q 441.348 2.778 441.348 2.218 Q 441.124 2.302 440.914 2.302 Q 440.508 2.302 440.326 2.078 Q 440.144 1.854 440.144 1.546 Q 440.144 1.21 440.368 0.965 Q 440.592 0.72 441.012 0.72 Q 441.544 0.72 441.817 1.049 Q 442.09 1.378 442.09 1.952 Q 442.09 2.54 441.901 2.946 Q 441.712 3.352 441.432 3.604 Q 441.152 3.856 440.858 4.01 Q 440.564 4.164 440.354 4.262 Z " fill="black" /></g><g><path d="M 447.186 0.58 L 447.186 0.58 L 447.186 -4.936 Q 447.186 -5.482 447.116 -5.797 Q 447.046 -6.112 446.759 -6.238 Q 446.472 -6.364 445.8 -6.364 L 445.8 -6.784 L 449.832 -6.784 L 449.832 -6.364 Q 449.174 -6.364 448.88 -6.238 Q 448.586 -6.112 448.523 -5.797 Q 448.46 -5.482 448.46 -4.936 L 448.46 0.58 Q 448.46 1.182 448.544 1.483 Q 448.628 1.784 448.922 1.889 Q 449.216 1.994 449.832 1.994 L 449.832 2.414 L 445.8 2.414 L 445.8 1.994 Q 446.43 1.994 446.724 1.889 Q 447.018 1.784 447.102 1.483 Q 447.186 1.182 447.186 0.58 Z " fill="black" /><path d="M 452.184 0.58 L 452.184 0.58 L 452.184 -4.936 Q 452.184 -5.482 452.114 -5.797 Q 452.044 -6.112 451.757 -6.238 Q 451.47 -6.364 450.798 -6.364 L 450.798 -6.784 L 454.83 -6.784 L 454.83 -6.364 Q 454.172 -6.364 453.878 -6.238 Q 453.584 -6.112 453.521 -5.797 Q 453.458 -5.482 453.458 -4.936 L 453.458 0.58 Q 453.458 1.182 453.542 1.483 Q 453.626 1.784 453.92 1.889 Q 454.214 1.994 454.83 1.994 L 454.83 2.414 L 450.798 2.414 L 450.798 1.994 Q 451.428 1.994 451.722 1.889 Q 452.016 1.784 452.1 1.483 Q 452.184 1.182 452.184 0.58 Z " fill="black" /><path d="M 455.992 -6.784 L 455.992 -6.784 L 459.478 -6.784 Q 460.15 -6.784 460.773 -6.679 Q 461.396 -6.574 461.879 -6.322 Q 462.362 -6.07 462.649 -5.615 Q 462.936 -5.16 462.936 -4.46 Q 462.936 -3.648 462.628 -3.095 Q 462.32 -2.542 461.795 -2.206 Q 461.27 -1.87 460.612 -1.73 Q 459.954 -1.59 459.268 -1.59 Q 459.058 -1.59 458.82 -1.618 Q 458.582 -1.646 458.47 -1.702 L 458.47 0.692 Q 458.47 1.266 458.589 1.546 Q 458.708 1.826 459.016 1.91 Q 459.324 1.994 459.884 1.994 L 459.884 2.414 L 455.936 2.414 L 455.936 1.994 Q 456.482 1.994 456.748 1.896 Q 457.014 1.798 457.098 1.511 Q 457.182 1.224 457.182 0.636 L 457.182 -5.384 Q 457.182 -6 456.923 -6.182 Q 456.664 -6.364 455.992 -6.364 Z M 458.47 -6.182 L 458.47 -6.182 L 458.47 -2.22 Q 458.582 -2.206 458.799 -2.185 Q 459.016 -2.164 459.226 -2.164 Q 460.36 -2.164 460.955 -2.605 Q 461.55 -3.046 461.55 -4.264 Q 461.55 -5.216 460.997 -5.727 Q 460.444 -6.238 459.31 -6.238 Q 459.1 -6.238 458.897 -6.224 Q 458.694 -6.21 458.47 -6.182 Z " fill="black" /><path d="M 464.49 -4.558 L 464.49 -4.558 L 464.168 -4.74 Q 464.966 -6.602 466.702 -6.602 Q 467.78 -6.602 468.368 -6.063 Q 468.956 -5.524 468.956 -4.726 Q 468.956 -3.998 468.529 -3.55 Q 468.102 -3.102 467.444 -2.682 L 467.444 -2.64 Q 468.004 -2.472 468.473 -2.157 Q 468.942 -1.842 469.222 -1.387 Q 469.502 -0.932 469.502 -0.302 Q 469.502 0.65 468.97 1.301 Q 468.438 1.952 467.57 2.274 Q 466.702 2.596 465.68 2.596 Q 465.05 2.596 464.714 2.477 Q 464.378 2.358 464.245 2.183 Q 464.112 2.008 464.112 1.826 Q 464.112 1.602 464.252 1.406 Q 464.392 1.21 464.658 1.21 Q 464.826 1.21 464.973 1.273 Q 465.12 1.336 465.484 1.532 Q 465.932 1.756 466.149 1.826 Q 466.366 1.896 466.618 1.896 Q 467.066 1.896 467.458 1.735 Q 467.85 1.574 468.102 1.189 Q 468.354 0.804 468.354 0.118 Q 468.354 -0.512 468.004 -0.974 Q 467.654 -1.436 467.073 -1.695 Q 466.492 -1.954 465.82 -1.954 L 465.54 -1.954 L 465.54 -2.486 L 465.806 -2.486 Q 466.282 -2.486 466.73 -2.724 Q 467.178 -2.962 467.465 -3.396 Q 467.752 -3.83 467.752 -4.39 Q 467.752 -5.006 467.367 -5.349 Q 466.982 -5.692 466.324 -5.692 Q 465.694 -5.692 465.274 -5.405 Q 464.854 -5.118 464.49 -4.558 Z " fill="black" /><path d="M 471.319 1.56 L 471.319 1.56 L 471.035 1.423 Q 471.329 0.757 471.814 0.419 Q 472.299 0.081 472.907 0.081 Q 473.691 0.081 474.171 0.463 Q 474.651 0.845 474.651 1.453 Q 474.651 1.982 474.328 2.305 Q 474.004 2.629 473.524 2.942 L 473.524 2.991 Q 473.936 3.099 474.284 3.315 Q 474.632 3.53 474.837 3.868 Q 475.043 4.206 475.043 4.687 Q 475.043 5.226 474.808 5.622 Q 474.573 6.019 474.171 6.279 Q 473.769 6.539 473.255 6.661 Q 472.74 6.784 472.182 6.784 Q 471.701 6.784 471.452 6.7 Q 471.202 6.617 471.109 6.48 Q 471.015 6.343 471.015 6.205 Q 471.015 6.039 471.113 5.877 Q 471.211 5.716 471.447 5.716 Q 471.545 5.716 471.648 5.769 Q 471.75 5.823 472.025 5.98 Q 472.25 6.088 472.383 6.147 Q 472.515 6.205 472.618 6.225 Q 472.721 6.245 472.858 6.245 Q 473.152 6.245 473.441 6.137 Q 473.73 6.029 473.926 5.75 Q 474.122 5.471 474.122 4.961 Q 474.122 4.51 473.872 4.187 Q 473.622 3.863 473.201 3.682 Q 472.779 3.501 472.27 3.501 L 472.054 3.501 L 472.054 3.04 L 472.26 3.04 Q 472.613 3.04 472.946 2.878 Q 473.279 2.717 473.495 2.418 Q 473.71 2.119 473.71 1.707 Q 473.71 1.247 473.412 1.012 Q 473.113 0.776 472.652 0.776 Q 471.799 0.776 471.319 1.56 Z " fill="black" /></g></g></g><circle cx="0.0" cy="-0.0" r="2.6999999999999997" style="stroke:black;fill:white;stroke-width:2.0;stroke-dasharray:-;" /><g><g><g><path d="M -6.706 -13.216 L -6.706 -13.216 L -6.02 -14.392 Q -5.74 -14.896 -5.306 -15.323 Q -4.872 -15.75 -4.256 -15.75 Q -3.85 -15.75 -3.703 -15.589 Q -3.556 -15.428 -3.556 -15.134 Q -3.556 -14.882 -3.738 -14.679 Q -3.92 -14.476 -4.2 -14.476 Q -4.368 -14.476 -4.578 -14.546 Q -4.788 -14.616 -4.928 -14.616 Q -5.166 -14.616 -5.334 -14.469 Q -5.502 -14.322 -5.684 -14.028 L -6.538 -12.67 L -6.244 -11.718 Q -5.95 -10.752 -5.705 -10.332 Q -5.46 -9.912 -5.138 -9.912 Q -4.858 -9.912 -4.634 -10.115 Q -4.41 -10.318 -4.13 -10.696 L -3.836 -10.472 Q -4.032 -10.164 -4.305 -9.8 Q -4.578 -9.436 -4.942 -9.17 Q -5.306 -8.904 -5.782 -8.904 Q -6.258 -8.904 -6.517 -9.282 Q -6.776 -9.66 -6.93 -10.346 L -7.28 -11.76 L -7.336 -11.76 L -8.232 -10.304 Q -8.568 -9.758 -8.96 -9.338 Q -9.352 -8.918 -9.982 -8.918 Q -10.43 -8.918 -10.612 -9.128 Q -10.794 -9.338 -10.794 -9.604 Q -10.794 -9.814 -10.647 -10.003 Q -10.5 -10.192 -10.248 -10.192 Q -10.01 -10.192 -9.779 -10.101 Q -9.548 -10.01 -9.366 -10.01 Q -9.338 -10.01 -9.24 -10.045 Q -9.142 -10.08 -8.96 -10.248 Q -8.778 -10.416 -8.512 -10.808 L -7.504 -12.278 L -7.896 -13.552 Q -8.078 -14.14 -8.26 -14.476 Q -8.442 -14.812 -8.708 -14.959 Q -8.974 -15.106 -9.436 -15.092 Q -9.604 -15.092 -9.737 -15.071 Q -9.87 -15.05 -9.87 -15.05 L -9.87 -15.47 L -7.924 -15.694 L -7.714 -15.694 Q -7.462 -15.4 -7.259 -14.952 Q -7.056 -14.504 -6.916 -13.93 L -6.748 -13.216 Z " fill="black" /><path d="M -2.66 -12.824 L -2.66 -12.824 Q -2.66 -15.162 -1.645 -16.814 Q -0.63 -18.466 1.064 -19.348 L 1.288 -18.984 Q -0.238 -17.948 -0.875 -16.457 Q -1.512 -14.966 -1.512 -12.824 Q -1.512 -10.682 -0.875 -9.191 Q -0.238 -7.7 1.288 -6.664 L 1.064 -6.3 Q -0.63 -7.182 -1.645 -8.834 Q -2.66 -10.486 -2.66 -12.824 Z " fill="black" /><path d="M 6.146 -15.582 L 6.146 -15.582 L 6.034 -15.036 L 4.62 -15.036 L 3.794 -10.864 Q 3.794 -10.864 3.745 -10.605 Q 3.696 -10.346 3.696 -10.164 Q 3.696 -10.052 3.745 -9.961 Q 3.794 -9.87 3.934 -9.87 Q 4.242 -9.87 4.501 -10.052 Q 4.76 -10.234 5.124 -10.71 L 5.404 -10.5 Q 5.208 -10.234 4.928 -9.856 Q 4.648 -9.478 4.256 -9.198 Q 3.864 -8.918 3.304 -8.918 Q 2.87 -8.918 2.66 -9.128 Q 2.45 -9.338 2.45 -9.66 Q 2.45 -9.842 2.492 -10.101 Q 2.534 -10.36 2.548 -10.458 L 3.5 -15.036 L 2.702 -15.036 L 2.758 -15.33 Q 3.206 -15.568 3.507 -15.792 Q 3.808 -16.016 4.081 -16.38 Q 4.354 -16.744 4.704 -17.346 L 5.124 -17.346 L 4.732 -15.582 Z " fill="black" /><path d="M 10.808 -12.824 L 10.808 -12.824 Q 10.808 -10.486 9.793 -8.834 Q 8.778 -7.182 7.084 -6.3 L 6.86 -6.664 Q 8.4 -7.7 9.03 -9.191 Q 9.66 -10.682 9.66 -12.824 Q 9.66 -14.966 9.03 -16.457 Q 8.4 -17.948 6.86 -18.984 L 7.084 -19.348 Q 8.778 -18.466 9.793 -16.814 Q 10.808 -15.162 10.808 -12.824 Z " fill="black" /></g></g></g><circle cx="180.0" cy="-0.0" r="2.6999999999999997" style="stroke:black;fill:white;stroke-width:2.0;stroke-dasharray:-;" /><circle cx="360.0" cy="-0.0" r="2.6999999999999997" style="stroke:black;fill:white;stroke-width:2.0;stroke-dasharray:-;" /><circle cx="540.0" cy="-0.0" r="2.6999999999999997" style="stroke:black;fill:white;stroke-width:2.0;stroke-dasharray:-;" /><g><g><g><path d="M 532.58 -13.93 L 532.58 -13.93 L 532.916 -11.886 L 533.042 -10.486 L 533.126 -10.486 L 534.736 -13.076 Q 534.988 -13.482 535.093 -13.762 Q 535.198 -14.042 535.198 -14.294 Q 535.198 -14.476 535.03 -14.672 Q 534.862 -14.868 534.687 -15.092 Q 534.512 -15.316 534.512 -15.582 Q 534.512 -15.806 534.666 -15.967 Q 534.82 -16.128 535.128 -16.128 Q 535.52 -16.128 535.765 -15.82 Q 536.01 -15.512 536.01 -15.064 Q 536.01 -14.658 535.87 -14.182 Q 535.73 -13.706 535.394 -13.132 Q 534.834 -12.138 534.246 -11.242 Q 533.658 -10.346 533.112 -9.59 Q 532.468 -8.708 531.943 -7.959 Q 531.418 -7.21 530.928 -6.755 Q 530.438 -6.3 529.906 -6.3 Q 529.472 -6.3 529.15 -6.559 Q 528.828 -6.818 528.828 -7.21 Q 528.828 -7.532 528.982 -7.672 Q 529.136 -7.812 529.374 -7.812 Q 529.64 -7.812 529.801 -7.63 Q 529.962 -7.448 530.088 -7.259 Q 530.214 -7.07 530.368 -7.07 Q 530.466 -7.07 530.697 -7.322 Q 530.928 -7.574 531.208 -7.938 Q 531.488 -8.302 531.747 -8.666 Q 532.006 -9.03 532.146 -9.254 L 531.32 -14.182 Q 531.278 -14.504 531.201 -14.805 Q 531.124 -15.106 530.928 -15.302 Q 530.732 -15.498 530.298 -15.498 Q 530.158 -15.498 529.983 -15.484 Q 529.808 -15.47 529.808 -15.47 L 529.808 -15.876 L 531.796 -16.03 L 532.006 -16.03 Q 532.16 -15.764 532.258 -15.498 Q 532.356 -15.232 532.426 -14.861 Q 532.496 -14.49 532.58 -13.93 Z " fill="black" /><path d="M 536.836 -13.16 L 536.836 -13.16 Q 536.836 -15.498 537.851 -17.15 Q 538.866 -18.802 540.56 -19.684 L 540.784 -19.32 Q 539.258 -18.284 538.621 -16.793 Q 537.984 -15.302 537.984 -13.16 Q 537.984 -11.018 538.621 -9.527 Q 539.258 -8.036 540.784 -7 L 540.56 -6.636 Q 538.866 -7.518 537.851 -9.17 Q 536.836 -10.822 536.836 -13.16 Z " fill="black" /><path d="M 545.642 -15.918 L 545.642 -15.918 L 545.53 -15.372 L 544.116 -15.372 L 543.29 -11.2 Q 543.29 -11.2 543.241 -10.941 Q 543.192 -10.682 543.192 -10.5 Q 543.192 -10.388 543.241 -10.297 Q 543.29 -10.206 543.43 -10.206 Q 543.738 -10.206 543.997 -10.388 Q 544.256 -10.57 544.62 -11.046 L 544.9 -10.836 Q 544.704 -10.57 544.424 -10.192 Q 544.144 -9.814 543.752 -9.534 Q 543.36 -9.254 542.8 -9.254 Q 542.366 -9.254 542.156 -9.464 Q 541.946 -9.674 541.946 -9.996 Q 541.946 -10.178 541.988 -10.437 Q 542.03 -10.696 542.044 -10.794 L 542.996 -15.372 L 542.198 -15.372 L 542.254 -15.666 Q 542.702 -15.904 543.003 -16.128 Q 543.304 -16.352 543.577 -16.716 Q 543.85 -17.08 544.2 -17.682 L 544.62 -17.682 L 544.228 -15.918 Z " fill="black" /><path d="M 550.304 -13.16 L 550.304 -13.16 Q 550.304 -10.822 549.289 -9.17 Q 548.274 -7.518 546.58 -6.636 L 546.356 -7 Q 547.896 -8.036 548.526 -9.527 Q 549.156 -11.018 549.156 -13.16 Q 549.156 -15.302 548.526 -16.793 Q 547.896 -18.284 546.356 -19.32 L 546.58 -19.684 Q 548.274 -18.802 549.289 -17.15 Q 550.304 -15.498 550.304 -13.16 Z " fill="black" /></g></g></g></svg>