<svg xmlns="http://www.w3.org/2000/svg" xmlns:xlink="http://www.w3.org/1999/xlink" xml:lang="en" height="212.7956pt" width="315.9928pt" viewBox="-40.0066 -77.15559999999999 315.9928 212.7956"><polygon points="135.0,65.7 126.0,78.3 117.0,65.7 " style="stroke:black;fill:none;stroke-width:2.0;stroke-dasharray:-;stroke-linecap:round;stroke-linejoin:round;" /><path d="M 126.0 -0.0 a 4.5 4.5 -90 1 1 0.0 -9.0" style="stroke:black;fill:none;stroke-width:2.0;stroke-dasharray:-;" /><path d="M 126.0 -9.0 a 4.5 4.5 -90 1 1 0.0 -9.0" style="stroke:black;fill:none;stroke-width:2.0;stroke-dasharray:-;" /><path d="M 126.0 -18.0 a 4.5 4.5 -90 1 1 0.0 -9.0" style="stroke:black;fill:none;stroke-width:2.0;stroke-dasharray:-;" /><path d="M 126.0 -27.0 a 4.5 4.5 -90 1 1 0.0 -9.0" style="stroke:black;fill:none;stroke-width:2.0;stroke-dasharray:-;" /><path d="M 0.0,-0.0 L 18.0,-0.0 L 27.0,-0.0" style="stroke:black;fill:none;stroke-width:2.0;stroke-dasharray:-;stroke-linecap:round;stroke-linejoin:round;" /><path d="M 34.0 0.0 L 27.0 2.6999999999999997 L 27.0 -2.6999999999999997 Z" style="stroke:black;fill:black;stroke-linecap:butt;stroke-linejoin:miter;" /><path d="M 36.0,-0.0 L 36.0,-18.0 L 72.0,-18.0 L 72.0,18.0 L 36.0,18.0 L 36.0,-0.0" style="stroke:black;fill:none;stroke-width:2.0;stroke-dasharray:-;stroke-linecap:round;stroke-linejoin:round;" /><path d="M 43.199999999999996,-4.4087284769304716e-16 L 44.33684210526316,-1.168918089136861 L 45.473684210526315,-2.2111657656828045 L 46.61052631578947,-3.013799321745103 L 47.747368421052634,-3.4898409573815896 L 48.88421052631579,-3.5877041748240117 L 50.02105263157894,-3.2967839759582067 L 51.1578947368421,-2.648606078423274 L 52.294736842105266,-1.7134106149334647 L 53.43157894736842,-0.5925405250106421 L 54.56842105263158,0.5925405250106421 L 55.705263157894734,1.7134106149334647 L 56.8421052631579,2.6486060784232732 L 57.97894736842106,3.2967839759582063 L 59.11578947368421,3.5877041748240117 L 60.252631578947366,3.48984095738159 L 61.38947368421053,3.013799321745103 L 62.526315789473685,2.2111657656828045 L 63.66315789473684,1.168918089136861 L 64.8,4.4087284769304716e-16" style="stroke:black;fill:none;stroke-width:2.0;stroke-dasharray:-;stroke-linecap:round;stroke-linejoin:round;" /><path d="M 43.199999999999996,-9.0 L 44.33684210526316,-10.16891808913686 L 45.473684210526315,-11.211165765682804 L 46.61052631578947,-12.013799321745104 L 47.747368421052634,-12.489840957381588 L 48.88421052631579,-12.587704174824012 L 50.02105263157894,-12.296783975958206 L 51.1578947368421,-11.648606078423274 L 52.294736842105266,-10.713410614933464 L 53.43157894736842,-9.592540525010643 L 54.56842105263158,-8.407459474989357 L 55.705263157894734,-7.286589385066535 L 56.8421052631579,-6.351393921576727 L 57.97894736842106,-5.703216024041794 L 59.11578947368421,-5.412295825175989 L 60.252631578947366,-5.51015904261841 L 61.38947368421053,-5.986200678254896 L 62.526315789473685,-6.7888342343171955 L 63.66315789473684,-7.831081910863139 L 64.8,-9.0" style="stroke:black;fill:none;stroke-width:2.0;stroke-dasharray:-;stroke-linecap:round;stroke-linejoin:round;" /><path d="M 43.199999999999996,9.0 L 44.33684210526316,7.831081910863139 L 45.473684210526315,6.7888342343171955 L 46.61052631578947,5.986200678254896 L 47.747368421052634,5.510159042618411 L 48.88421052631579,5.412295825175989 L 50.02105263157894,5.703216024041793 L 51.1578947368421,6.351393921576726 L 52.294736842105266,7.286589385066535 L 53.43157894736842,8.407459474989357 L 54.56842105263158,9.592540525010643 L 55.705263157894734,10.713410614933464 L 56.8421052631579,11.648606078423274 L 57.97894736842106,12.296783975958206 L 59.11578947368421,12.587704174824012 L 60.252631578947366,12.489840957381592 L 61.38947368421053,12.013799321745104 L 62.526315789473685,11.211165765682804 L 63.66315789473684,10.16891808913686 L 64.8,9.0" style="stroke:black;fill:none;stroke-width:2.0;stroke-dasharray:-;stroke-linecap:round;stroke-linejoin:round;" /><path d="M 52.199999999999996,-6.12 L 55.800000000000004,-11.88" style="stroke:black;fill:none;stroke-width:2.0;stroke-dasharray:-;stroke-linecap:round;stroke-linejoin:round;" /><path d="M 52.199999999999996,11.88 L 55.800000000000004,6.12" style="stroke:black;fill:none;stroke-width:2.0;stroke-dasharray:-;stroke-linecap:round;stroke-linejoin:round;" /><path d="M 72.0,-0.0 L 81.0,-0.0 L 90.0,-0.0" style="stroke:black;fill:none;stroke-width:2.0;stroke-dasharray:-;stroke-linecap:round;stroke-linejoin:round;" /><path d="M 90.0,-0.0 L 90.0,18.0 L 90.0,36.0" style="stroke:black;fill:none;stroke-width:2.0;stroke-dasharray:-;stroke-linecap:round;stroke-linejoin:round;" /><path d="M 90.0,36.0 L 90.0,54.0 L 90.0,72.0" style="stroke:black;fill:none;stroke-width:2.0;stroke-dasharray:-;stroke-linecap:round;stroke-linejoin:round;" /><path d="M 90.0,72.0 L 81.0,72.0 L 72.0,72.0" style="stroke:black;fill:none;stroke-width:2.0;stroke-dasharray:-;stroke-linecap:round;stroke-linejoin:round;" /><path d="M 72.0,72.0 L 72.0,90.0 L 36.0,90.0 L 36.0,54.0 L 72.0,54.0 L 72.0,72.0" style="stroke:black;fill:none;stroke-width:2.0;stroke-dasharray:-;stroke-linecap:round;stroke-linejoin:round;" /><path d="M 64.8,72.0 L 63.66315789473684,73.16891808913685 L 62.526315789473685,74.2111657656828 L 61.38947368421053,75.01379932174511 L 60.252631578947366,75.48984095738159 L 59.11578947368421,75.58770417482401 L 57.97894736842106,75.2967839759582 L 56.8421052631579,74.64860607842327 L 55.705263157894734,73.71341061493347 L 54.56842105263158,72.59254052501065 L 53.43157894736842,71.40745947498935 L 52.294736842105266,70.28658938506653 L 51.1578947368421,69.35139392157673 L 50.02105263157894,68.7032160240418 L 48.88421052631579,68.41229582517599 L 47.747368421052634,68.51015904261841 L 46.61052631578947,68.98620067825489 L 45.473684210526315,69.78883423431719 L 44.33684210526316,70.83108191086313 L 43.199999999999996,72.0" style="stroke:black;fill:none;stroke-width:2.0;stroke-dasharray:-;stroke-linecap:round;stroke-linejoin:round;" /><path d="M 64.8,81.0 L 63.66315789473684,82.16891808913685 L 62.52631578947368,83.2111657656828 L 61.38947368421053,84.01379932174511 L 60.252631578947366,84.48984095738159 L 59.11578947368421,84.587704174824 L 57.978947368421046,84.2967839759582 L 56.8421052631579,83.64860607842327 L 55.705263157894734,82.71341061493347 L 54.56842105263157,81.59254052501065 L 53.43157894736842,80.40745947498935 L 52.294736842105266,79.28658938506653 L 51.1578947368421,78.35139392157673 L 50.02105263157894,77.7032160240418 L 48.88421052631579,77.41229582517599 L 47.747368421052634,77.5101590426184 L 46.61052631578947,77.98620067825489 L 45.473684210526315,78.78883423431719 L 44.33684210526316,79.83108191086313 L 43.199999999999996,81.0" style="stroke:black;fill:none;stroke-width:2.0;stroke-dasharray:-;stroke-linecap:round;stroke-linejoin:round;" /><path d="M 64.8,63.0 L 63.66315789473684,64.16891808913687 L 62.526315789473685,65.21116576568281 L 61.38947368421053,66.0137993217451 L 60.252631578947366,66.48984095738159 L 59.11578947368421,66.58770417482401 L 57.97894736842106,66.2967839759582 L 56.8421052631579,65.64860607842327 L 55.705263157894734,64.71341061493347 L 54.56842105263158,63.59254052501064 L 53.43157894736842,62.40745947498935 L 52.294736842105266,61.286589385066534 L 51.1578947368421,60.35139392157673 L 50.02105263157894,59.703216024041794 L 48.88421052631579,59.41229582517598 L 47.747368421052634,59.51015904261841 L 46.61052631578947,59.98620067825489 L 45.473684210526315,60.788834234317186 L 44.33684210526316,61.83108191086313 L 43.199999999999996,63.0" style="stroke:black;fill:none;stroke-width:2.0;stroke-dasharray:-;stroke-linecap:round;stroke-linejoin:round;" /><path d="M 55.800000000000004,78.12 L 52.199999999999996,83.88" style="stroke:black;fill:none;stroke-width:2.0;stroke-dasharray:-;stroke-linecap:round;stroke-linejoin:round;" /><path d="M 55.800000000000004,60.12 L 52.199999999999996,65.88" style="stroke:black;fill:none;stroke-width:2.0;stroke-dasharray:-;stroke-linecap:round;stroke-linejoin:round;" /><path d="M 27.0,71.99999999999999 L 18.0,71.99999999999999 L 0.0,71.99999999999999" style="stroke:black;fill:none;stroke-width:2.0;stroke-dasharray:-;stroke-linecap:round;stroke-linejoin:round;" /><path d="M 34.0 71.99999999999999 L 27.0 74.69999999999999 L 27.0 69.29999999999998 Z" style="stroke:black;fill:black;stroke-linecap:butt;stroke-linejoin:miter;" /><path d="M 90.0,36.0 L 108.0,36.0 L 126.0,36.0" style="stroke:black;fill:none;stroke-width:2.0;stroke-dasharray:-;stroke-linecap:round;stroke-linejoin:round;" /><path d="M 126.0,36.0 L 144.0,36.0 L 162.0,36.0" style="stroke:black;fill:none;stroke-width:2.0;stroke-dasharray:-;stroke-linecap:round;stroke-linejoin:round;" /><path d="M 162.0,36.0 L 162.0,18.0 L 198.0,18.0 L 198.0,54.0 L 162.0,54.0 L 162.0,36.0" style="stroke:black;fill:none;stroke-width:2.0;stroke-dasharray:-;stroke-linecap:round;stroke-linejoin:round;" /><path d="M 169.20000000000002,36.0 L 170.33684210526314,34.83108191086314 L 171.47368421052633,33.78883423431719 L 172.61052631578949,32.986200678254896 L 173.7473684210526,32.51015904261841 L 174.8842105263158,32.41229582517599 L 176.02105263157895,32.703216024041794 L 177.15789473684208,33.35139392157673 L 178.29473684210527,34.286589385066534 L 179.43157894736842,35.40745947498936 L 180.56842105263158,36.59254052501064 L 181.70526315789473,37.713410614933466 L 182.8421052631579,38.64860607842327 L 183.97894736842105,39.296783975958206 L 185.1157894736842,39.58770417482401 L 186.2526315789474,39.48984095738159 L 187.38947368421051,39.0137993217451 L 188.52631578947367,38.21116576568281 L 189.66315789473686,37.16891808913686 L 190.79999999999998,36.0" style="stroke:black;fill:none;stroke-width:2.0;stroke-dasharray:-;stroke-linecap:round;stroke-linejoin:round;" /><path d="M 169.20000000000002,27.0 L 170.33684210526314,25.83108191086314 L 171.47368421052633,24.788834234317196 L 172.61052631578949,23.986200678254896 L 173.7473684210526,23.510159042618408 L 174.8842105263158,23.412295825175992 L 176.02105263157895,23.703216024041794 L 177.15789473684208,24.351393921576726 L 178.29473684210527,25.286589385066538 L 179.43157894736842,26.40745947498936 L 180.56842105263158,27.59254052501064 L 181.70526315789473,28.713410614933466 L 182.8421052631579,29.648606078423274 L 183.97894736842105,30.296783975958206 L 185.1157894736842,30.587704174824008 L 186.2526315789474,30.489840957381592 L 187.38947368421051,30.013799321745104 L 188.52631578947367,29.211165765682804 L 189.66315789473686,28.16891808913686 L 190.79999999999998,27.0" style="stroke:black;fill:none;stroke-width:2.0;stroke-dasharray:-;stroke-linecap:round;stroke-linejoin:round;" /><path d="M 169.20000000000002,45.0 L 170.33684210526314,43.83108191086314 L 171.47368421052633,42.78883423431719 L 172.61052631578949,41.98620067825489 L 173.7473684210526,41.51015904261841 L 174.8842105263158,41.41229582517599 L 176.02105263157895,41.703216024041794 L 177.15789473684208,42.35139392157673 L 178.29473684210527,43.286589385066534 L 179.43157894736842,44.40745947498936 L 180.56842105263158,45.59254052501064 L 181.70526315789473,46.713410614933466 L 182.8421052631579,47.64860607842327 L 183.97894736842105,48.296783975958206 L 185.1157894736842,48.58770417482401 L 186.2526315789474,48.48984095738159 L 187.38947368421051,48.01379932174511 L 188.52631578947367,47.21116576568281 L 189.66315789473686,46.16891808913686 L 190.79999999999998,45.0" style="stroke:black;fill:none;stroke-width:2.0;stroke-dasharray:-;stroke-linecap:round;stroke-linejoin:round;" /><path d="M 178.20000000000002,29.88 L 181.79999999999998,24.119999999999997" style="stroke:black;fill:none;stroke-width:2.0;stroke-dasharray:-;stroke-linecap:round;stroke-linejoin:round;" /><path d="M 178.20000000000002,47.88 L 181.79999999999998,42.12" style="stroke:black;fill:none;stroke-width:2.0;stroke-dasharray:-;stroke-linecap:round;stroke-linejoin:round;" /><path d="M 198.0,36.0 L 216.0,36.0 L 225.0,36.0" style="stroke:black;fill:none;stroke-width:2.0;stroke-dasharray:-;stroke-linecap:round;stroke-linejoin:round;" /><path d="M 232.0 36.0 L 225.0 38.7 L 225.0 33.3 Z" style="stroke:black;fill:black;stroke-linecap:butt;stroke-linejoin:miter;" /><path d="M 126.0,36.0 L 126.0,65.7 M 135.0,78.3 L 117.0,78.3 M 126.0,78.3 L 125.99999999999999,108.0" style="stroke:black;fill:none;stroke-width:2.0;stroke-dasharray:-;stroke-linecap:round;stroke-linejoin:round;" /><path d="M 125.99999999999999,108.0 L 125.99999999999999,122.39999999999999 L 116.99999999999999,122.39999999999999 L 134.99999999999997,122.39999999999999 M 119.69999999999999,126.72 L 132.29999999999998,126.72 M 124.19999999999999,131.04 L 127.79999999999998,131.04" style="stroke:black;fill:none;stroke-width:2.0;stroke-dasharray:-;stroke-linecap:round;stroke-linejoin:round;" /><path d="M 126.0,36.0 L 126.0,27.0 L 126.0,18.0" style="stroke:black;fill:none;stroke-width:2.0;stroke-dasharray:-;stroke-linecap:round;stroke-linejoin:round;" /><path d="M 126.0,18.0 L 126.0,-0.0 M 126.0,-36.0 L 126.0,-54.0" style="stroke:black;fill:none;stroke-width:2.0;stroke-dasharray:-;stroke-linecap:round;stroke-linejoin:round;" /><g><g><g><path d="M -28.132 -3.024 L -28.132 -3.024 L -28.454 -0.84 L -28.79 -0.84 Q -28.818 -1.652 -29.161 -2.128 Q -29.504 -2.604 -30.12 -2.604 Q -30.666 -2.604 -30.904 -2.31 Q -31.142 -2.016 -31.142 -1.708 Q -31.142 -1.414 -30.939 -1.141 Q -30.736 -0.868 -30.428 -0.581 Q -30.12 -0.294 -29.812 0.042 Q -29.364 0.518 -29.035 0.973 Q -28.706 1.428 -28.706 2.1 Q -28.706 2.506 -28.909 2.905 Q -29.112 3.304 -29.574 3.57 Q -30.036 3.836 -30.834 3.836 Q -31.492 3.836 -31.891 3.675 Q -32.29 3.514 -32.444 3.458 L -32.486 3.458 L -32.822 3.836 L -33.13 3.836 L -32.766 1.498 L -32.416 1.498 Q -32.304 2.408 -31.989 2.884 Q -31.674 3.36 -30.96 3.36 Q -30.47 3.36 -30.169 3.122 Q -29.868 2.884 -29.868 2.338 Q -29.868 1.764 -30.183 1.365 Q -30.498 0.966 -30.904 0.588 Q -31.184 0.308 -31.471 0.042 Q -31.758 -0.224 -31.947 -0.553 Q -32.136 -0.882 -32.136 -1.316 Q -32.136 -2.03 -31.66 -2.527 Q -31.184 -3.024 -30.232 -3.024 Q -29.672 -3.024 -29.301 -2.87 Q -28.93 -2.716 -28.804 -2.646 L -28.762 -2.646 L -28.398 -3.024 Z " fill="black" /><path d="M -25.031 6.259 L -25.031 6.259 L -25.031 6.622 L -27.52 6.622 L -27.52 6.259 Q -27.177 6.259 -27.026 6.186 Q -26.874 6.112 -26.834 5.951 Q -26.795 5.789 -26.795 5.524 L -26.795 2.565 Q -26.795 2.232 -26.903 2.163 Q -27.011 2.094 -27.266 2.094 Q -27.393 2.094 -27.471 2.104 Q -27.55 2.114 -27.55 2.114 L -27.55 1.722 L -26.237 1.506 L -25.835 1.506 L -25.835 5.524 Q -25.835 5.809 -25.791 5.97 Q -25.747 6.132 -25.575 6.196 Q -25.404 6.259 -25.031 6.259 Z M -26.325 -0.659 L -26.325 -0.659 Q -26.041 -0.659 -25.849 -0.463 Q -25.658 -0.267 -25.658 -0.013 Q -25.658 0.223 -25.849 0.419 Q -26.041 0.615 -26.325 0.615 Q -26.599 0.615 -26.78 0.419 Q -26.962 0.223 -26.962 -0.013 Q -26.962 -0.267 -26.78 -0.463 Q -26.599 -0.659 -26.325 -0.659 Z " fill="black" /><path d="M -19.21 3.339 L -19.21 3.339 L -19.21 5.534 Q -19.21 5.809 -19.161 5.97 Q -19.112 6.132 -18.945 6.201 Q -18.779 6.269 -18.426 6.269 L -18.426 6.622 L -20.945 6.622 L -20.945 6.269 Q -20.572 6.269 -20.406 6.201 Q -20.239 6.132 -20.2 5.97 Q -20.161 5.809 -20.161 5.534 L -20.161 3.662 Q -20.161 3.006 -20.312 2.697 Q -20.464 2.388 -20.695 2.29 Q -20.925 2.192 -21.16 2.192 Q -21.582 2.192 -21.9 2.408 Q -22.219 2.624 -22.454 2.82 L -22.454 5.534 Q -22.454 5.809 -22.41 5.97 Q -22.366 6.132 -22.199 6.201 Q -22.032 6.269 -21.67 6.269 L -21.67 6.622 L -24.139 6.622 L -24.139 6.269 Q -23.796 6.269 -23.645 6.201 Q -23.493 6.132 -23.453 5.97 Q -23.414 5.809 -23.414 5.534 L -23.414 2.555 Q -23.414 2.281 -23.517 2.188 Q -23.62 2.094 -23.845 2.094 Q -23.963 2.094 -24.041 2.104 Q -24.12 2.114 -24.12 2.114 L -24.12 1.742 L -22.807 1.506 L -22.483 1.506 L -22.483 2.31 L -22.415 2.31 Q -21.993 1.928 -21.606 1.702 Q -21.219 1.477 -20.729 1.477 Q -20.151 1.477 -19.822 1.737 Q -19.494 1.996 -19.352 2.418 Q -19.21 2.839 -19.21 3.339 Z " fill="black" /><path d="M -17.404 -0.098 L -17.404 -0.098 Q -17.404 -2.436 -16.389 -4.088 Q -15.374 -5.74 -13.68 -6.622 L -13.456 -6.258 Q -14.982 -5.222 -15.619 -3.731 Q -16.256 -2.24 -16.256 -0.098 Q -16.256 2.044 -15.619 3.535 Q -14.982 5.026 -13.456 6.062 L -13.68 6.426 Q -15.374 5.544 -16.389 3.892 Q -17.404 2.24 -17.404 -0.098 Z " fill="black" /><path d="M -8.598 -2.856 L -8.598 -2.856 L -8.71 -2.31 L -10.124 -2.31 L -10.95 1.862 Q -10.95 1.862 -10.999 2.121 Q -11.048 2.38 -11.048 2.562 Q -11.048 2.674 -10.999 2.765 Q -10.95 2.856 -10.81 2.856 Q -10.502 2.856 -10.243 2.674 Q -9.984 2.492 -9.62 2.016 L -9.34 2.226 Q -9.536 2.492 -9.816 2.87 Q -10.096 3.248 -10.488 3.528 Q -10.88 3.808 -11.44 3.808 Q -11.874 3.808 -12.084 3.598 Q -12.294 3.388 -12.294 3.066 Q -12.294 2.884 -12.252 2.625 Q -12.21 2.366 -12.196 2.268 L -11.244 -2.31 L -12.042 -2.31 L -11.986 -2.604 Q -11.538 -2.842 -11.237 -3.066 Q -10.936 -3.29 -10.663 -3.654 Q -10.39 -4.018 -10.04 -4.62 L -9.62 -4.62 L -10.012 -2.856 Z " fill="black" /><path d="M -3.936 -0.098 L -3.936 -0.098 Q -3.936 2.24 -4.951 3.892 Q -5.966 5.544 -7.66 6.426 L -7.884 6.062 Q -6.344 5.026 -5.714 3.535 Q -5.084 2.044 -5.084 -0.098 Q -5.084 -2.24 -5.714 -3.731 Q -6.344 -5.222 -7.884 -6.258 L -7.66 -6.622 Q -5.966 -5.74 -4.951 -4.088 Q -3.936 -2.436 -3.936 -0.098 Z " fill="black" /></g></g></g><circle cx="90.0" cy="36.0" r="2.6999999999999997" style="stroke:black;fill:black;stroke-width:2.0;stroke-dasharray:-;" /><g><g><g><path d="M -32.797 68.907 L -32.797 68.907 L -33.119 71.091 L -33.455 71.091 Q -33.483 70.279 -33.826 69.803 Q -34.169 69.327 -34.785 69.327 Q -35.331 69.327 -35.569 69.621 Q -35.807 69.915 -35.807 70.223 Q -35.807 70.517 -35.604 70.79 Q -35.401 71.063 -35.093 71.35 Q -34.785 71.637 -34.477 71.973 Q -34.029 72.449 -33.7 72.904 Q -33.371 73.359 -33.371 74.031 Q -33.371 74.437 -33.574 74.836 Q -33.777 75.235 -34.239 75.501 Q -34.701 75.767 -35.499 75.767 Q -36.157 75.767 -36.556 75.606 Q -36.955 75.445 -37.109 75.389 L -37.151 75.389 L -37.487 75.767 L -37.795 75.767 L -37.431 73.429 L -37.081 73.429 Q -36.969 74.339 -36.654 74.815 Q -36.339 75.291 -35.625 75.291 Q -35.135 75.291 -34.834 75.053 Q -34.533 74.815 -34.533 74.269 Q -34.533 73.695 -34.848 73.296 Q -35.163 72.897 -35.569 72.519 Q -35.849 72.239 -36.136 71.973 Q -36.423 71.707 -36.612 71.378 Q -36.801 71.049 -36.801 70.615 Q -36.801 69.901 -36.325 69.404 Q -35.849 68.907 -34.897 68.907 Q -34.337 68.907 -33.966 69.061 Q -33.595 69.215 -33.469 69.285 L -33.427 69.285 L -33.063 68.907 Z " fill="black" /><path d="M -26.452 76.466 L -26.452 76.466 L -26.707 78.553 L -32.097 78.553 L -32.097 78.181 Q -31.656 78.181 -31.45 78.107 Q -31.244 78.034 -31.181 77.823 Q -31.117 77.613 -31.117 77.201 L -31.117 73.114 Q -31.117 72.683 -31.181 72.453 Q -31.244 72.223 -31.45 72.129 Q -31.656 72.036 -32.097 72.036 L -32.097 71.664 L -29.039 71.664 L -29.039 72.036 Q -29.471 72.036 -29.696 72.125 Q -29.921 72.213 -30.005 72.448 Q -30.088 72.683 -30.088 73.124 L -30.088 77.475 Q -30.088 77.858 -29.931 77.96 Q -29.774 78.063 -29.382 78.063 L -28.755 78.063 Q -28.236 78.063 -27.922 77.995 Q -27.609 77.926 -27.427 77.755 Q -27.246 77.583 -27.128 77.27 Q -27.011 76.956 -26.864 76.466 Z " fill="black" /><path d="M -18.671 75.143 L -18.671 75.143 Q -18.671 76.241 -19.092 77.034 Q -19.514 77.828 -20.288 78.259 Q -21.062 78.691 -22.13 78.691 Q -23.189 78.691 -23.963 78.259 Q -24.737 77.828 -25.159 77.025 Q -25.58 76.221 -25.58 75.104 Q -25.58 74.036 -25.159 73.237 Q -24.737 72.438 -23.958 71.992 Q -23.179 71.546 -22.13 71.546 Q -21.062 71.546 -20.288 72.012 Q -19.514 72.477 -19.092 73.286 Q -18.671 74.094 -18.671 75.143 Z M -19.916 75.006 L -19.916 75.006 Q -19.916 73.575 -20.518 72.811 Q -21.121 72.046 -22.14 72.046 Q -23.15 72.046 -23.743 72.82 Q -24.335 73.595 -24.335 75.035 Q -24.335 76.535 -23.796 77.348 Q -23.257 78.161 -22.121 78.161 Q -20.984 78.161 -20.45 77.372 Q -19.916 76.584 -19.916 75.006 Z " fill="black" /><path d="M -17.404 71.833 L -17.404 71.833 Q -17.404 69.495 -16.389 67.843 Q -15.374 66.191 -13.68 65.309 L -13.456 65.673 Q -14.982 66.709 -15.619 68.2 Q -16.256 69.691 -16.256 71.833 Q -16.256 73.975 -15.619 75.466 Q -14.982 76.957 -13.456 77.993 L -13.68 78.357 Q -15.374 77.475 -16.389 75.823 Q -17.404 74.171 -17.404 71.833 Z " fill="black" /><path d="M -8.598 69.075 L -8.598 69.075 L -8.71 69.621 L -10.124 69.621 L -10.95 73.793 Q -10.95 73.793 -10.999 74.052 Q -11.048 74.311 -11.048 74.493 Q -11.048 74.605 -10.999 74.696 Q -10.95 74.787 -10.81 74.787 Q -10.502 74.787 -10.243 74.605 Q -9.984 74.423 -9.62 73.947 L -9.34 74.157 Q -9.536 74.423 -9.816 74.801 Q -10.096 75.179 -10.488 75.459 Q -10.88 75.739 -11.44 75.739 Q -11.874 75.739 -12.084 75.529 Q -12.294 75.319 -12.294 74.997 Q -12.294 74.815 -12.252 74.556 Q -12.21 74.297 -12.196 74.199 L -11.244 69.621 L -12.042 69.621 L -11.986 69.327 Q -11.538 69.089 -11.237 68.865 Q -10.936 68.641 -10.663 68.277 Q -10.39 67.913 -10.04 67.311 L -9.62 67.311 L -10.012 69.075 Z " fill="black" /><path d="M -3.936 71.833 L -3.936 71.833 Q -3.936 74.171 -4.951 75.823 Q -5.966 77.475 -7.66 78.357 L -7.884 77.993 Q -6.344 76.957 -5.714 75.466 Q -5.084 73.975 -5.084 71.833 Q -5.084 69.691 -5.714 68.2 Q -6.344 66.709 -7.884 65.673 L -7.66 65.309 Q -5.966 66.191 -4.951 67.843 Q -3.936 69.495 -3.936 71.833 Z " fill="black" /></g></g></g><circle cx="126.0" cy="36.0" r="2.6999999999999997" style="stroke:black;fill:black;stroke-width:2.0;stroke-dasharray:-;" /><g><g><g><path d="M 242.892 32.917 L 242.892 32.917 L 242.57 35.101 L 242.234 35.101 Q 242.206 34.289 241.863 33.813 Q 241.52 33.337 240.904 33.337 Q 240.358 33.337 240.12 33.631 Q 239.882 33.925 239.882 34.233 Q 239.882 34.527 240.085 34.8 Q 240.288 35.073 240.596 35.36 Q 240.904 35.647 241.212 35.983 Q 241.66 36.459 241.989 36.914 Q 242.318 37.369 242.318 38.041 Q 242.318 38.447 242.115 38.846 Q 241.912 39.245 241.45 39.511 Q 240.988 39.777 240.19 39.777 Q 239.532 39.777 239.133 39.616 Q 238.734 39.455 238.58 39.399 L 238.538 39.399 L 238.202 39.777 L 237.894 39.777 L 238.258 37.439 L 238.608 37.439 Q 238.72 38.349 239.035 38.825 Q 239.35 39.301 240.064 39.301 Q 240.554 39.301 240.855 39.063 Q 241.156 38.825 241.156 38.279 Q 241.156 37.705 240.841 37.306 Q 240.526 36.907 240.12 36.529 Q 239.84 36.249 239.553 35.983 Q 239.266 35.717 239.077 35.388 Q 238.888 35.059 238.888 34.625 Q 238.888 33.911 239.364 33.414 Q 239.84 32.917 240.792 32.917 Q 241.352 32.917 241.723 33.071 Q 242.094 33.225 242.22 33.295 L 242.262 33.295 L 242.626 32.917 Z " fill="black" /><path d="M 246.032 37.418 L 246.032 37.418 Q 246.767 37.418 247.316 37.737 Q 247.865 38.055 248.164 38.628 Q 248.463 39.202 248.463 39.976 Q 248.463 40.907 248.149 41.505 Q 247.835 42.103 247.287 42.392 Q 246.738 42.681 246.032 42.681 Q 245.317 42.681 244.763 42.382 Q 244.209 42.083 243.901 41.485 Q 243.592 40.887 243.592 39.986 Q 243.592 39.221 243.896 38.643 Q 244.2 38.065 244.748 37.742 Q 245.297 37.418 246.032 37.418 Z M 246.013 37.869 L 246.013 37.869 Q 245.366 37.869 244.998 38.393 Q 244.631 38.918 244.631 39.927 Q 244.631 41.172 245.008 41.686 Q 245.385 42.201 246.062 42.201 Q 246.493 42.191 246.797 41.985 Q 247.1 41.779 247.262 41.294 Q 247.424 40.809 247.424 39.976 Q 247.424 38.976 247.081 38.423 Q 246.738 37.869 246.013 37.869 Z " fill="black" /><path d="M 255.127 42.063 L 255.127 42.063 L 255.127 42.436 L 253.804 42.612 L 253.49 42.612 L 253.49 41.848 L 253.392 41.848 Q 253.02 42.181 252.637 42.421 Q 252.255 42.661 251.716 42.661 Q 250.991 42.661 250.609 42.22 Q 250.227 41.779 250.227 40.691 L 250.227 38.584 Q 250.227 38.183 250.084 38.089 Q 249.942 37.996 249.492 37.996 L 249.492 37.644 L 250.854 37.457 L 251.177 37.457 L 251.177 40.564 Q 251.177 41.113 251.305 41.417 Q 251.432 41.72 251.648 41.838 Q 251.863 41.956 252.118 41.956 Q 252.549 41.956 252.838 41.774 Q 253.127 41.593 253.441 41.338 L 253.441 38.584 Q 253.441 38.183 253.265 38.089 Q 253.088 37.996 252.588 37.996 L 252.588 37.644 L 254.049 37.457 L 254.392 37.457 L 254.392 41.426 Q 254.392 41.72 254.446 41.858 Q 254.499 41.995 254.637 42.029 Q 254.774 42.063 255.019 42.063 Z " fill="black" /><path d="M 258.949 41.583 L 258.949 41.583 L 259.174 41.769 Q 258.958 42.063 258.782 42.264 Q 258.606 42.465 258.38 42.573 Q 258.155 42.681 257.802 42.681 Q 257.234 42.681 256.974 42.357 Q 256.714 42.034 256.714 41.319 L 256.714 38.026 L 256.097 38.026 L 256.097 37.732 Q 256.45 37.477 256.744 37.109 Q 257.038 36.742 257.332 36.056 L 257.675 36.056 L 257.665 37.546 L 258.909 37.546 L 258.909 38.026 L 257.665 38.026 L 257.665 40.995 Q 257.665 41.544 257.768 41.774 Q 257.871 42.005 258.184 42.005 Q 258.468 42.005 258.615 41.902 Q 258.762 41.799 258.949 41.583 Z " fill="black" /><path d="M 260.059 35.843 L 260.059 35.843 Q 260.059 33.505 261.074 31.853 Q 262.089 30.201 263.783 29.319 L 264.007 29.683 Q 262.481 30.719 261.844 32.21 Q 261.207 33.701 261.207 35.843 Q 261.207 37.985 261.844 39.476 Q 262.481 40.967 264.007 42.003 L 263.783 42.367 Q 262.089 41.485 261.074 39.833 Q 260.059 38.181 260.059 35.843 Z " fill="black" /><path d="M 268.865 33.085 L 268.865 33.085 L 268.753 33.631 L 267.339 33.631 L 266.513 37.803 Q 266.513 37.803 266.464 38.062 Q 266.415 38.321 266.415 38.503 Q 266.415 38.615 266.464 38.706 Q 266.513 38.797 266.653 38.797 Q 266.961 38.797 267.22 38.615 Q 267.479 38.433 267.843 37.957 L 268.123 38.167 Q 267.927 38.433 267.647 38.811 Q 267.367 39.189 266.975 39.469 Q 266.583 39.749 266.023 39.749 Q 265.589 39.749 265.379 39.539 Q 265.169 39.329 265.169 39.007 Q 265.169 38.825 265.211 38.566 Q 265.253 38.307 265.267 38.209 L 266.219 33.631 L 265.421 33.631 L 265.477 33.337 Q 265.925 33.099 266.226 32.875 Q 266.527 32.651 266.8 32.287 Q 267.073 31.923 267.423 31.321 L 267.843 31.321 L 267.451 33.085 Z " fill="black" /><path d="M 273.527 35.843 L 273.527 35.843 Q 273.527 38.181 272.512 39.833 Q 271.497 41.485 269.803 42.367 L 269.579 42.003 Q 271.119 40.967 271.749 39.476 Q 272.379 37.985 272.379 35.843 Q 272.379 33.701 271.749 32.21 Q 271.119 30.719 269.579 29.683 L 269.803 29.319 Q 271.497 30.201 272.512 31.853 Q 273.527 33.505 273.527 35.843 Z " fill="black" /></g></g></g><g><g><g><path d="M 130.888 -13.142 L 130.888 -13.142 L 130.888 -22.34 L 133.842 -22.34 Q 134.794 -22.34 135.536 -22.088 Q 136.278 -21.836 136.698 -21.276 Q 137.118 -20.716 137.118 -19.764 Q 137.118 -18.658 136.544 -18.014 Q 135.97 -17.37 135.018 -17.146 L 137.398 -13.142 L 136.04 -13.142 L 133.786 -17.02 L 132.092 -17.02 L 132.092 -13.142 Z M 132.092 -17.986 L 132.092 -17.986 L 133.66 -17.986 Q 134.752 -17.986 135.34 -18.42 Q 135.928 -18.854 135.928 -19.75 Q 135.928 -20.646 135.34 -21.01 Q 134.752 -21.374 133.66 -21.374 L 132.092 -21.374 Z " fill="black" /><path d="M 139.05 -13.142 L 139.05 -13.142 L 139.05 -22.34 L 144.468 -22.34 L 144.468 -21.332 L 140.254 -21.332 L 140.254 -18.252 L 143.824 -18.252 L 143.824 -17.244 L 140.254 -17.244 L 140.254 -13.142 Z " fill="black" /><path d="M 151.804 -12.974 L 151.804 -12.974 Q 150.95 -12.974 150.257 -13.394 Q 149.564 -13.814 149.158 -14.591 Q 148.752 -15.368 148.752 -16.432 Q 148.752 -17.552 149.193 -18.336 Q 149.634 -19.12 150.355 -19.526 Q 151.076 -19.932 151.916 -19.932 Q 152.616 -19.932 153.071 -19.694 Q 153.526 -19.456 153.862 -19.162 L 153.288 -18.42 Q 152.994 -18.686 152.679 -18.84 Q 152.364 -18.994 151.958 -18.994 Q 151.37 -18.994 150.908 -18.672 Q 150.446 -18.35 150.18 -17.783 Q 149.914 -17.216 149.914 -16.446 Q 149.914 -15.312 150.481 -14.612 Q 151.048 -13.912 151.93 -13.912 Q 152.42 -13.912 152.805 -14.108 Q 153.19 -14.304 153.498 -14.57 L 153.988 -13.814 Q 153.54 -13.422 152.994 -13.198 Q 152.448 -12.974 151.804 -12.974 Z " fill="black" /><path d="M 155.416 -13.142 L 155.416 -13.142 L 155.416 -22.858 L 156.536 -22.858 L 156.536 -20.212 L 156.508 -18.84 Q 156.97 -19.288 157.481 -19.61 Q 157.992 -19.932 158.72 -19.932 Q 159.714 -19.932 160.211 -19.274 Q 160.708 -18.616 160.708 -17.342 L 160.708 -13.142 L 159.574 -13.142 L 159.574 -17.202 Q 159.574 -18.126 159.287 -18.539 Q 159 -18.952 158.356 -18.952 Q 157.838 -18.952 157.432 -18.7 Q 157.026 -18.448 156.536 -17.944 L 156.536 -13.142 Z " fill="black" /><path d="M 165.356 -12.974 L 165.356 -12.974 Q 164.558 -12.974 163.858 -13.387 Q 163.158 -13.8 162.731 -14.577 Q 162.304 -15.354 162.304 -16.46 Q 162.304 -17.566 162.731 -18.336 Q 163.158 -19.106 163.858 -19.519 Q 164.558 -19.932 165.356 -19.932 Q 166.168 -19.932 166.868 -19.519 Q 167.568 -19.106 167.995 -18.336 Q 168.422 -17.566 168.422 -16.46 Q 168.422 -15.354 167.995 -14.577 Q 167.568 -13.8 166.868 -13.387 Q 166.168 -12.974 165.356 -12.974 Z M 165.356 -13.912 L 165.356 -13.912 Q 166.21 -13.912 166.735 -14.612 Q 167.26 -15.312 167.26 -16.46 Q 167.26 -17.594 166.735 -18.294 Q 166.21 -18.994 165.356 -18.994 Q 164.516 -18.994 163.991 -18.294 Q 163.466 -17.594 163.466 -16.46 Q 163.466 -15.312 163.991 -14.612 Q 164.516 -13.912 165.356 -13.912 Z " fill="black" /><path d="M 170.144 -13.142 L 170.144 -13.142 L 170.144 -23.026 L 171.25 -23.026 L 171.25 -16.278 L 171.292 -16.278 L 174.092 -19.778 L 175.338 -19.778 L 173.126 -17.104 L 175.618 -13.142 L 174.4 -13.142 L 172.482 -16.32 L 171.25 -14.892 L 171.25 -13.142 Z " fill="black" /><path d="M 179.538 -12.974 L 179.538 -12.974 Q 178.656 -12.974 177.935 -13.387 Q 177.214 -13.8 176.787 -14.577 Q 176.36 -15.354 176.36 -16.432 Q 176.36 -17.524 176.78 -18.308 Q 177.2 -19.092 177.893 -19.512 Q 178.586 -19.932 179.398 -19.932 Q 180.574 -19.932 181.267 -19.092 Q 181.96 -18.252 181.96 -16.824 Q 181.96 -16.642 181.946 -16.481 Q 181.932 -16.32 181.904 -16.194 L 177.466 -16.194 Q 177.536 -15.13 178.124 -14.5 Q 178.712 -13.87 179.664 -13.87 Q 180.126 -13.87 180.532 -14.017 Q 180.938 -14.164 181.302 -14.402 L 181.694 -13.674 Q 181.26 -13.38 180.728 -13.177 Q 180.196 -12.974 179.538 -12.974 Z M 177.466 -16.992 L 177.466 -16.992 L 180.98 -16.992 Q 180.98 -17.986 180.553 -18.511 Q 180.126 -19.036 179.384 -19.036 Q 178.656 -19.036 178.117 -18.518 Q 177.578 -18 177.466 -16.992 Z " fill="black" /></g></g></g><circle cx="126.0" cy="-54.0" r="2.6999999999999997" style="stroke:black;fill:white;stroke-width:2.0;stroke-dasharray:-;" /><g><g><g><path d="M 116.133 -65.117 L 116.133 -65.117 L 119.956 -70.857 Q 120.151 -71.137 120.27 -71.375 Q 120.389 -71.613 120.389 -71.781 Q 120.389 -71.991 120.207 -72.068 Q 120.025 -72.145 119.549 -72.145 L 119.578 -72.565 L 122.602 -72.565 L 122.573 -72.145 Q 122.195 -72.145 121.93 -72.033 Q 121.663 -71.921 121.391 -71.606 Q 121.118 -71.291 120.683 -70.647 L 115.546 -63.297 L 115.084 -63.297 L 114.299 -70.871 Q 114.215 -71.571 113.992 -71.858 Q 113.767 -72.145 113.207 -72.145 L 113.236 -72.565 L 116.665 -72.565 L 116.623 -72.145 Q 116.091 -72.145 115.784 -71.935 Q 115.475 -71.725 115.504 -71.249 Q 115.504 -71.179 115.525 -70.997 Q 115.546 -70.815 115.546 -70.745 L 115.965 -66.755 L 116.064 -65.117 Z " fill="black" /><path d="M 122.998 -67.748 L 122.998 -67.748 L 122.998 -64.71 L 123.047 -64.71 Q 123.331 -65.043 123.718 -65.308 Q 124.105 -65.572 124.654 -65.572 Q 125.163 -65.572 125.58 -65.264 Q 125.996 -64.955 126.246 -64.411 Q 126.496 -63.867 126.496 -63.162 Q 126.496 -62.221 126.153 -61.584 Q 125.81 -60.947 125.217 -60.628 Q 124.624 -60.31 123.87 -60.31 Q 123.429 -60.31 123.056 -60.383 Q 122.684 -60.457 122.424 -60.555 Q 122.165 -60.653 122.047 -60.702 L 122.047 -66.582 Q 122.047 -66.944 121.969 -67.047 Q 121.89 -67.15 121.557 -67.15 Q 121.449 -67.15 121.356 -67.136 Q 121.263 -67.121 121.263 -67.121 L 121.263 -67.493 L 122.596 -67.748 Z M 122.998 -64.2 L 122.998 -64.2 L 122.998 -61.26 Q 123.115 -61.045 123.37 -60.917 Q 123.625 -60.79 124.046 -60.79 Q 124.566 -60.79 124.879 -61.069 Q 125.193 -61.349 125.335 -61.814 Q 125.477 -62.28 125.477 -62.828 Q 125.477 -63.328 125.364 -63.784 Q 125.252 -64.24 124.968 -64.524 Q 124.683 -64.808 124.183 -64.808 Q 123.919 -64.808 123.679 -64.705 Q 123.439 -64.602 123.262 -64.46 Q 123.086 -64.318 122.998 -64.2 Z " fill="black" /><path d="M 130.073 -60.79 L 130.073 -60.79 L 130.073 -60.427 L 127.584 -60.427 L 127.584 -60.79 Q 127.927 -60.79 128.079 -60.864 Q 128.231 -60.937 128.27 -61.099 Q 128.309 -61.26 128.309 -61.525 L 128.309 -64.485 Q 128.309 -64.818 128.202 -64.886 Q 128.094 -64.955 127.839 -64.955 Q 127.712 -64.955 127.633 -64.945 Q 127.555 -64.935 127.555 -64.935 L 127.555 -65.327 L 128.868 -65.543 L 129.27 -65.543 L 129.27 -61.525 Q 129.27 -61.241 129.314 -61.079 Q 129.358 -60.917 129.529 -60.854 Q 129.701 -60.79 130.073 -60.79 Z M 128.78 -67.709 L 128.78 -67.709 Q 129.064 -67.709 129.255 -67.513 Q 129.446 -67.317 129.446 -67.062 Q 129.446 -66.827 129.255 -66.631 Q 129.064 -66.435 128.78 -66.435 Q 128.505 -66.435 128.324 -66.631 Q 128.143 -66.827 128.143 -67.062 Q 128.143 -67.317 128.324 -67.513 Q 128.505 -67.709 128.78 -67.709 Z " fill="black" /><path d="M 133.993 -61.045 L 133.993 -61.045 L 133.925 -61.045 Q 133.592 -60.77 133.19 -60.565 Q 132.788 -60.359 132.318 -60.359 Q 131.7 -60.359 131.372 -60.731 Q 131.044 -61.104 131.044 -61.633 Q 131.044 -62.084 131.254 -62.387 Q 131.465 -62.691 131.803 -62.882 Q 132.141 -63.073 132.533 -63.191 Q 132.925 -63.309 133.288 -63.377 Q 133.65 -63.446 133.895 -63.505 L 133.895 -64.014 Q 133.895 -64.671 133.636 -64.921 Q 133.376 -65.171 132.876 -65.171 Q 132.572 -65.171 132.44 -65.092 Q 132.308 -65.014 132.273 -64.837 Q 132.239 -64.661 132.229 -64.377 Q 132.22 -64.161 132.102 -64.029 Q 131.984 -63.897 131.759 -63.897 Q 131.543 -63.897 131.391 -64.029 Q 131.24 -64.161 131.24 -64.416 Q 131.24 -64.72 131.475 -64.984 Q 131.71 -65.249 132.146 -65.411 Q 132.582 -65.572 133.17 -65.572 Q 134.052 -65.572 134.449 -65.166 Q 134.846 -64.759 134.846 -63.946 L 134.846 -61.545 Q 134.846 -61.221 134.919 -61.128 Q 134.993 -61.035 135.15 -61.035 Q 135.316 -61.035 135.439 -61.104 Q 135.561 -61.172 135.669 -61.3 L 135.885 -61.094 Q 135.375 -60.369 134.689 -60.369 Q 134.307 -60.369 134.165 -60.55 Q 134.023 -60.731 133.993 -61.045 Z M 133.895 -61.407 L 133.895 -61.407 L 133.895 -63.132 Q 133.445 -63.015 133.013 -62.873 Q 132.582 -62.73 132.303 -62.485 Q 132.024 -62.24 132.024 -61.799 Q 132.024 -61.417 132.244 -61.197 Q 132.465 -60.976 132.808 -60.976 Q 133.013 -60.976 133.302 -61.069 Q 133.592 -61.162 133.895 -61.407 Z " fill="black" /><path d="M 136.561 -62.211 L 136.561 -62.211 L 136.875 -62.211 Q 137.002 -61.643 137.178 -61.329 Q 137.355 -61.015 137.634 -60.893 Q 137.913 -60.77 138.315 -60.77 Q 138.776 -60.77 139.026 -60.922 Q 139.276 -61.074 139.276 -61.456 Q 139.276 -61.711 139.153 -61.883 Q 139.031 -62.054 138.761 -62.211 Q 138.492 -62.368 138.041 -62.574 Q 137.58 -62.799 137.252 -62.995 Q 136.924 -63.191 136.752 -63.456 Q 136.581 -63.72 136.581 -64.122 Q 136.581 -64.828 137.056 -65.2 Q 137.531 -65.572 138.246 -65.572 Q 138.678 -65.572 138.977 -65.465 Q 139.276 -65.357 139.452 -65.278 L 139.472 -65.278 L 139.628 -65.523 L 139.903 -65.523 L 139.922 -63.897 L 139.579 -63.897 Q 139.393 -64.651 139.06 -64.911 Q 138.727 -65.171 138.296 -65.171 Q 137.845 -65.171 137.614 -64.975 Q 137.384 -64.779 137.384 -64.465 Q 137.384 -64.21 137.541 -64.044 Q 137.698 -63.877 137.987 -63.735 Q 138.276 -63.593 138.678 -63.397 Q 139.129 -63.181 139.472 -62.951 Q 139.815 -62.721 140.011 -62.432 Q 140.207 -62.142 140.207 -61.711 Q 140.207 -61.192 139.932 -60.878 Q 139.658 -60.565 139.227 -60.432 Q 138.795 -60.3 138.325 -60.3 Q 137.845 -60.3 137.58 -60.398 Q 137.316 -60.496 137.09 -60.584 L 137.051 -60.584 L 136.806 -60.329 L 136.581 -60.329 Z " fill="black" /></g></g></g></svg>