<svg xmlns="http://www.w3.org/2000/svg" xmlns:xlink="http://www.w3.org/1999/xlink" xml:lang="en" height="157.248pt" width="350.964pt" viewBox="-32.644 -75.248 350.964 157.248"><circle cx="54.0" cy="-0.0" r="18.0" style="stroke:black;fill:none;stroke-width:2.0;stroke-dasharray:-;" /><circle cx="198.0" cy="-0.0" r="18.0" style="stroke:black;fill:none;stroke-width:2.0;stroke-dasharray:-;" /><path d="M 0.0,-0.0 L 18.0,-0.0 L 27.0,-0.0" style="stroke:black;fill:none;stroke-width:2.0;stroke-dasharray:-;stroke-linecap:round;stroke-linejoin:round;" /><path d="M 34.0 0.0 L 27.0 2.6999999999999997 L 27.0 -2.6999999999999997 Z" style="stroke:black;fill:black;stroke-linecap:butt;stroke-linejoin:miter;" /><path d="M 54.0,-7.2 L 54.0,7.2" style="stroke:black;fill:none;stroke-width:2.0;stroke-dasharray:-;stroke-linecap:round;stroke-linejoin:round;" /><path d="M 46.800000000000004,-0.0 L 61.199999999999996,-0.0" style="stroke:black;fill:none;stroke-width:2.0;stroke-dasharray:-;stroke-linecap:round;stroke-linejoin:round;" /><path d="M 72.0,-0.0 L 90.0,-0.0 L 99.0,-0.0" style="stroke:black;fill:none;stroke-width:2.0;stroke-dasharray:-;stroke-linecap:round;stroke-linejoin:round;" /><path d="M 106.0 0.0 L 99.0 2.6999999999999997 L 99.0 -2.6999999999999997 Z" style="stroke:black;fill:black;stroke-linecap:butt;stroke-linejoin:miter;" /><path d="M 108.0,-0.0 L 108.0,-18.0 L 144.0,-18.0 L 144.0,18.0 L 108.0,18.0 L 108.0,-0.0" style="stroke:black;fill:none;stroke-width:2.0;stroke-dasharray:-;stroke-linecap:round;stroke-linejoin:round;" /><path d="M 144.0,-0.0 L 162.0,-0.0 L 171.0,-0.0" style="stroke:black;fill:none;stroke-width:2.0;stroke-dasharray:-;stroke-linecap:round;stroke-linejoin:round;" /><path d="M 178.0 0.0 L 171.0 2.6999999999999997 L 171.0 -2.6999999999999997 Z" style="stroke:black;fill:black;stroke-linecap:butt;stroke-linejoin:miter;" /><path d="M 198.0,-7.2 L 198.0,7.2" style="stroke:black;fill:none;stroke-width:2.0;stroke-dasharray:-;stroke-linecap:round;stroke-linejoin:round;" /><path d="M 190.79999999999998,-0.0 L 205.20000000000002,-0.0" style="stroke:black;fill:none;stroke-width:2.0;stroke-dasharray:-;stroke-linecap:round;stroke-linejoin:round;" /><path d="M 216.0,-0.0 L 234.0,-0.0 L 252.0,-0.0" style="stroke:black;fill:none;stroke-width:2.0;stroke-dasharray:-;stroke-linecap:round;stroke-linejoin:round;" /><path d="M 252.0,-0.0 L 270.0,-0.0 L 279.0,-0.0" style="stroke:black;fill:none;stroke-width:2.0;stroke-dasharray:-;stroke-linecap:round;stroke-linejoin:round;" /><path d="M 286.0 0.0 L 279.0 2.6999999999999997 L 279.0 -2.6999999999999997 Z" style="stroke:black;fill:black;stroke-linecap:butt;stroke-linejoin:miter;" /><path d="M 252.0,-0.0 L 252.0,36.0 L 252.0,72.0" style="stroke:black;fill:none;stroke-width:2.0;stroke-dasharray:-;stroke-linecap:round;stroke-linejoin:round;" /><path d="M 252.0,72.0 L 153.0,71.99999999999999 L 54.0,71.99999999999997" style="stroke:black;fill:none;stroke-width:2.0;stroke-dasharray:-;stroke-linecap:round;stroke-linejoin:round;" /><path d="M 54.0,71.99999999999997 L 54.0,44.999999999999986 L 54.0,27.0" style="stroke:black;fill:none;stroke-width:2.0;stroke-dasharray:-;stroke-linecap:round;stroke-linejoin:round;" /><path d="M 54.0 20.0 L 56.7 27.0 L 51.3 27.0 Z" style="stroke:black;fill:black;stroke-linecap:butt;stroke-linejoin:miter;" /><path d="M 198.0,-27.0 L 198.0,-36.0 L 198.0,-54.0" style="stroke:black;fill:none;stroke-width:2.0;stroke-dasharray:-;stroke-linecap:round;stroke-linejoin:round;" /><path d="M 198.0 -20.0 L 195.3 -27.0 L 200.7 -27.0 Z" style="stroke:black;fill:black;stroke-linecap:butt;stroke-linejoin:miter;" /><g><g><g><path d="M -21.534 3.78 L -21.534 3.78 L -25.3 3.78 L -25.216 3.374 L -25.076 3.374 Q -24.642 3.374 -24.411 3.276 Q -24.18 3.178 -24.18 2.884 Q -24.18 2.702 -24.25 2.443 Q -24.32 2.184 -24.488 1.792 L -25.104 0.434 L -25.356 -0.294 L -25.398 -0.294 L -27.596 2.086 Q -27.708 2.198 -27.862 2.38 Q -28.016 2.562 -28.135 2.73 Q -28.254 2.898 -28.254 3.01 Q -28.254 3.192 -28.093 3.283 Q -27.932 3.374 -27.414 3.374 L -27.498 3.78 L -30.578 3.78 L -30.508 3.374 Q -30.144 3.36 -29.892 3.269 Q -29.64 3.178 -29.36 2.94 Q -29.08 2.702 -28.66 2.268 L -25.664 -0.84 L -27.022 -3.808 Q -27.246 -4.298 -27.421 -4.557 Q -27.596 -4.816 -27.848 -4.907 Q -28.1 -4.998 -28.576 -4.998 L -28.492 -5.418 L -24.754 -5.418 L -24.838 -4.998 L -24.992 -4.998 Q -25.384 -4.998 -25.608 -4.9 Q -25.832 -4.802 -25.832 -4.55 Q -25.832 -4.34 -25.664 -3.962 Q -25.496 -3.584 -25.286 -3.052 L -24.782 -1.736 L -24.74 -1.736 L -22.864 -3.808 Q -22.626 -4.088 -22.458 -4.319 Q -22.29 -4.55 -22.29 -4.69 Q -22.29 -4.844 -22.43 -4.921 Q -22.57 -4.998 -23.046 -4.998 L -22.976 -5.418 L -19.77 -5.418 L -19.84 -4.998 Q -20.288 -4.984 -20.596 -4.886 Q -20.904 -4.788 -21.226 -4.529 Q -21.548 -4.27 -22.052 -3.752 L -24.502 -1.232 L -22.696 2.534 Q -22.458 3.038 -22.213 3.199 Q -21.968 3.36 -21.45 3.374 Z " fill="black" /><path d="M -19.14 -0 L -19.14 -0 Q -19.14 -2.338 -18.125 -3.99 Q -17.11 -5.642 -15.416 -6.524 L -15.192 -6.16 Q -16.718 -5.124 -17.355 -3.633 Q -17.992 -2.142 -17.992 -0 Q -17.992 2.142 -17.355 3.633 Q -16.718 5.124 -15.192 6.16 L -15.416 6.524 Q -17.11 5.642 -18.125 3.99 Q -19.14 2.338 -19.14 -0 Z " fill="black" /><path d="M -9.48 -2.926 L -9.48 -2.926 L -9.802 -0.742 L -10.138 -0.742 Q -10.166 -1.554 -10.509 -2.03 Q -10.852 -2.506 -11.468 -2.506 Q -12.014 -2.506 -12.252 -2.212 Q -12.49 -1.918 -12.49 -1.61 Q -12.49 -1.316 -12.287 -1.043 Q -12.084 -0.77 -11.776 -0.483 Q -11.468 -0.196 -11.16 0.14 Q -10.712 0.616 -10.383 1.071 Q -10.054 1.526 -10.054 2.198 Q -10.054 2.604 -10.257 3.003 Q -10.46 3.402 -10.922 3.668 Q -11.384 3.934 -12.182 3.934 Q -12.84 3.934 -13.239 3.773 Q -13.638 3.612 -13.792 3.556 L -13.834 3.556 L -14.17 3.934 L -14.478 3.934 L -14.114 1.596 L -13.764 1.596 Q -13.652 2.506 -13.337 2.982 Q -13.022 3.458 -12.308 3.458 Q -11.818 3.458 -11.517 3.22 Q -11.216 2.982 -11.216 2.436 Q -11.216 1.862 -11.531 1.463 Q -11.846 1.064 -12.252 0.686 Q -12.532 0.406 -12.819 0.14 Q -13.106 -0.126 -13.295 -0.455 Q -13.484 -0.784 -13.484 -1.218 Q -13.484 -1.932 -13.008 -2.429 Q -12.532 -2.926 -11.58 -2.926 Q -11.02 -2.926 -10.649 -2.772 Q -10.278 -2.618 -10.152 -2.548 L -10.11 -2.548 L -9.746 -2.926 Z " fill="black" /><path d="M -5 -0 L -5 -0 Q -5 2.338 -6.015 3.99 Q -7.03 5.642 -8.724 6.524 L -8.948 6.16 Q -7.408 5.124 -6.778 3.633 Q -6.148 2.142 -6.148 -0 Q -6.148 -2.142 -6.778 -3.633 Q -7.408 -5.124 -8.948 -6.16 L -8.724 -6.524 Q -7.03 -5.642 -6.015 -3.99 Q -5 -2.338 -5 -0 Z " fill="black" /></g></g></g><g><g><g><path d="M 127.023 -2.656 L 127.023 -2.656 L 123.632 -2.656 L 123.632 -2.93 Q 124.328 -2.93 124.612 -3.077 Q 124.897 -3.224 124.897 -3.587 L 124.897 -7.732 Q 124.897 -7.987 124.828 -8.1 Q 124.759 -8.212 124.573 -8.212 Q 124.426 -8.212 124.113 -8.173 Q 123.799 -8.134 123.574 -8.056 L 123.574 -8.379 L 125.475 -8.918 L 125.759 -8.918 L 125.759 -3.587 Q 125.759 -3.224 126.053 -3.077 Q 126.347 -2.93 127.023 -2.93 Z " fill="black" /><path d="M 123.603 4.116 L 123.603 4.116 L 123.378 5.645 L 123.142 5.645 Q 123.123 5.076 122.883 4.743 Q 122.643 4.41 122.211 4.41 Q 121.829 4.41 121.663 4.616 Q 121.496 4.822 121.496 5.037 Q 121.496 5.243 121.638 5.434 Q 121.78 5.625 121.996 5.826 Q 122.211 6.027 122.427 6.262 Q 122.741 6.595 122.971 6.914 Q 123.201 7.232 123.201 7.703 Q 123.201 7.987 123.059 8.266 Q 122.917 8.546 122.594 8.732 Q 122.27 8.918 121.712 8.918 Q 121.251 8.918 120.972 8.805 Q 120.692 8.693 120.585 8.653 L 120.555 8.653 L 120.32 8.918 L 120.104 8.918 L 120.359 7.281 L 120.604 7.281 Q 120.683 7.918 120.903 8.252 Q 121.124 8.585 121.623 8.585 Q 121.966 8.585 122.177 8.418 Q 122.388 8.252 122.388 7.869 Q 122.388 7.468 122.167 7.188 Q 121.947 6.909 121.663 6.644 Q 121.467 6.448 121.266 6.262 Q 121.065 6.076 120.933 5.846 Q 120.8 5.615 120.8 5.312 Q 120.8 4.812 121.133 4.464 Q 121.467 4.116 122.133 4.116 Q 122.525 4.116 122.785 4.224 Q 123.044 4.332 123.133 4.381 L 123.162 4.381 L 123.417 4.116 Z " fill="black" /><path d="M 129.836 4.067 L 129.836 4.067 L 129.532 4.067 Q 129.532 3.528 129.478 3.249 Q 129.424 2.969 129.189 2.862 Q 128.954 2.754 128.405 2.754 L 127.846 2.754 L 126.876 7.526 Q 126.788 7.967 126.813 8.178 Q 126.837 8.389 127.033 8.452 Q 127.229 8.516 127.641 8.516 L 127.582 8.81 L 124.789 8.81 L 124.848 8.516 Q 125.259 8.516 125.475 8.452 Q 125.69 8.389 125.798 8.178 Q 125.906 7.967 125.994 7.526 L 126.964 2.754 L 126.406 2.754 Q 125.994 2.754 125.749 2.813 Q 125.504 2.871 125.347 3.013 Q 125.191 3.156 125.068 3.41 Q 124.946 3.665 124.779 4.067 L 124.465 4.067 L 124.867 2.372 L 130.13 2.372 Z " fill="black" /><rect x="119.796" y="-1.011" width="10.231" height="0.952" fill="black" /></g></g></g><circle cx="252.0" cy="-0.0" r="2.6999999999999997" style="stroke:black;fill:black;stroke-width:2.0;stroke-dasharray:-;" /><g><g><g><path d="M 301.61 -5.418 L 301.61 -5.418 L 301.526 -4.998 Q 301.106 -4.97 300.805 -4.858 Q 300.504 -4.746 300.182 -4.466 Q 299.86 -4.186 299.398 -3.612 L 296.626 -0.154 L 296.192 1.946 Q 296.066 2.562 296.122 2.863 Q 296.178 3.164 296.472 3.262 Q 296.766 3.36 297.34 3.36 L 297.27 3.78 L 293.154 3.78 L 293.224 3.36 Q 293.854 3.36 294.176 3.269 Q 294.498 3.178 294.652 2.87 Q 294.806 2.562 294.932 1.946 L 295.352 -0.084 L 294.148 -3.094 Q 293.798 -3.976 293.532 -4.375 Q 293.266 -4.774 293.007 -4.886 Q 292.748 -4.998 292.398 -4.998 L 292.482 -5.418 L 296.094 -5.418 L 296.01 -4.998 Q 295.422 -4.998 295.198 -4.886 Q 294.974 -4.774 294.974 -4.62 Q 294.974 -4.48 295.016 -4.333 Q 295.058 -4.186 295.114 -4.032 L 295.926 -1.988 L 296.304 -0.826 L 296.374 -0.826 L 298.992 -4.074 Q 299.104 -4.214 299.195 -4.375 Q 299.286 -4.536 299.286 -4.676 Q 299.286 -4.83 299.125 -4.914 Q 298.964 -4.998 298.46 -4.998 L 298.544 -5.418 Z " fill="black" /><path d="M 302.24 -0 L 302.24 -0 Q 302.24 -2.338 303.255 -3.99 Q 304.27 -5.642 305.964 -6.524 L 306.188 -6.16 Q 304.662 -5.124 304.025 -3.633 Q 303.388 -2.142 303.388 -0 Q 303.388 2.142 304.025 3.633 Q 304.662 5.124 306.188 6.16 L 305.964 6.524 Q 304.27 5.642 303.255 3.99 Q 302.24 2.338 302.24 -0 Z " fill="black" /><path d="M 311.9 -2.926 L 311.9 -2.926 L 311.578 -0.742 L 311.242 -0.742 Q 311.214 -1.554 310.871 -2.03 Q 310.528 -2.506 309.912 -2.506 Q 309.366 -2.506 309.128 -2.212 Q 308.89 -1.918 308.89 -1.61 Q 308.89 -1.316 309.093 -1.043 Q 309.296 -0.77 309.604 -0.483 Q 309.912 -0.196 310.22 0.14 Q 310.668 0.616 310.997 1.071 Q 311.326 1.526 311.326 2.198 Q 311.326 2.604 311.123 3.003 Q 310.92 3.402 310.458 3.668 Q 309.996 3.934 309.198 3.934 Q 308.54 3.934 308.141 3.773 Q 307.742 3.612 307.588 3.556 L 307.546 3.556 L 307.21 3.934 L 306.902 3.934 L 307.266 1.596 L 307.616 1.596 Q 307.728 2.506 308.043 2.982 Q 308.358 3.458 309.072 3.458 Q 309.562 3.458 309.863 3.22 Q 310.164 2.982 310.164 2.436 Q 310.164 1.862 309.849 1.463 Q 309.534 1.064 309.128 0.686 Q 308.848 0.406 308.561 0.14 Q 308.274 -0.126 308.085 -0.455 Q 307.896 -0.784 307.896 -1.218 Q 307.896 -1.932 308.372 -2.429 Q 308.848 -2.926 309.8 -2.926 Q 310.36 -2.926 310.731 -2.772 Q 311.102 -2.618 311.228 -2.548 L 311.27 -2.548 L 311.634 -2.926 Z " fill="black" /><path d="M 316.38 -0 L 316.38 -0 Q 316.38 2.338 315.365 3.99 Q 314.35 5.642 312.656 6.524 L 312.432 6.16 Q 313.972 5.124 314.602 3.633 Q 315.232 2.142 315.232 -0 Q 315.232 -2.142 314.602 -3.633 Q 313.972 -5.124 312.432 -6.16 L 312.656 -6.524 Q 314.35 -5.642 315.365 -3.99 Q 316.38 -2.338 316.38 -0 Z " fill="black" /></g></g></g><g><g><g><rect x="63" y="40.912" width="7.56" height="0.952" fill="black" /></g></g></g><g><g><g><path d="M 195.361 -66.07 L 195.361 -66.07 Q 195.361 -64.446 194.815 -63.263 Q 194.269 -62.08 193.352 -61.359 Q 192.435 -60.638 191.315 -60.386 L 191.315 -60.344 Q 191.525 -60.036 191.763 -59.679 Q 192.001 -59.322 192.337 -59.014 Q 192.673 -58.706 193.177 -58.51 Q 193.681 -58.314 194.437 -58.314 L 194.367 -57.922 L 193.667 -57.922 Q 192.589 -57.922 191.903 -58.104 Q 191.217 -58.286 190.818 -58.664 Q 190.419 -59.042 190.195 -59.63 L 189.985 -60.232 Q 188.347 -60.33 187.486 -61.212 Q 186.625 -62.094 186.611 -63.872 Q 186.611 -65.132 187.003 -66.196 Q 187.395 -67.26 188.095 -68.051 Q 188.795 -68.842 189.747 -69.276 Q 190.699 -69.71 191.819 -69.71 Q 193.065 -69.71 193.849 -69.199 Q 194.633 -68.688 194.997 -67.855 Q 195.361 -67.022 195.361 -66.07 Z M 193.933 -66.154 L 193.933 -66.154 Q 193.933 -67.456 193.38 -68.282 Q 192.827 -69.108 191.609 -69.108 Q 190.671 -69.108 189.859 -68.471 Q 189.047 -67.834 188.55 -66.637 Q 188.053 -65.44 188.053 -63.746 Q 188.053 -62.402 188.564 -61.59 Q 189.075 -60.778 190.307 -60.778 Q 191.441 -60.778 192.253 -61.457 Q 193.065 -62.136 193.499 -63.347 Q 193.933 -64.558 193.933 -66.154 Z " fill="black" /><path d="M 196.299 -64.124 L 196.299 -64.124 Q 196.299 -66.462 197.314 -68.114 Q 198.329 -69.766 200.023 -70.648 L 200.247 -70.284 Q 198.721 -69.248 198.084 -67.757 Q 197.447 -66.266 197.447 -64.124 Q 197.447 -61.982 198.084 -60.491 Q 198.721 -59 200.247 -57.964 L 200.023 -57.6 Q 198.329 -58.482 197.314 -60.134 Q 196.299 -61.786 196.299 -64.124 Z " fill="black" /><path d="M 205.959 -67.05 L 205.959 -67.05 L 205.637 -64.866 L 205.301 -64.866 Q 205.273 -65.678 204.93 -66.154 Q 204.587 -66.63 203.971 -66.63 Q 203.425 -66.63 203.187 -66.336 Q 202.949 -66.042 202.949 -65.734 Q 202.949 -65.44 203.152 -65.167 Q 203.355 -64.894 203.663 -64.607 Q 203.971 -64.32 204.279 -63.984 Q 204.727 -63.508 205.056 -63.053 Q 205.385 -62.598 205.385 -61.926 Q 205.385 -61.52 205.182 -61.121 Q 204.979 -60.722 204.517 -60.456 Q 204.055 -60.19 203.257 -60.19 Q 202.599 -60.19 202.2 -60.351 Q 201.801 -60.512 201.647 -60.568 L 201.605 -60.568 L 201.269 -60.19 L 200.961 -60.19 L 201.325 -62.528 L 201.675 -62.528 Q 201.787 -61.618 202.102 -61.142 Q 202.417 -60.666 203.131 -60.666 Q 203.621 -60.666 203.922 -60.904 Q 204.223 -61.142 204.223 -61.688 Q 204.223 -62.262 203.908 -62.661 Q 203.593 -63.06 203.187 -63.438 Q 202.907 -63.718 202.62 -63.984 Q 202.333 -64.25 202.144 -64.579 Q 201.955 -64.908 201.955 -65.342 Q 201.955 -66.056 202.431 -66.553 Q 202.907 -67.05 203.859 -67.05 Q 204.419 -67.05 204.79 -66.896 Q 205.161 -66.742 205.287 -66.672 L 205.329 -66.672 L 205.693 -67.05 Z " fill="black" /><path d="M 210.439 -64.124 L 210.439 -64.124 Q 210.439 -61.786 209.424 -60.134 Q 208.409 -58.482 206.715 -57.6 L 206.491 -57.964 Q 208.031 -59 208.661 -60.491 Q 209.291 -61.982 209.291 -64.124 Q 209.291 -66.266 208.661 -67.757 Q 208.031 -69.248 206.491 -70.284 L 206.715 -70.648 Q 208.409 -69.766 209.424 -68.114 Q 210.439 -66.462 210.439 -64.124 Z " fill="black" /></g></g></g></svg>