<svg xmlns="http://www.w3.org/2000/svg" xmlns:xlink="http://www.w3.org/1999/xlink" xml:lang="en" height="189.20000000000005pt" width="236.28019999999998pt" viewBox="-35.135999999999996 -22.6 236.28019999999998 189.20000000000005"><circle cx="54.0" cy="-0.0" r="18.0" style="stroke:black;fill:none;stroke-width:2.0;stroke-dasharray:-;" /><circle cx="107.99999999999999" cy="72.0" r="18.0" style="stroke:black;fill:none;stroke-width:2.0;stroke-dasharray:-;" /><circle cx="54.0" cy="144.0" r="18.0" style="stroke:black;fill:none;stroke-width:2.0;stroke-dasharray:-;" /><path d="M 0.0,-0.0 L 18.0,-0.0 L 27.0,-0.0" style="stroke:black;fill:none;stroke-width:2.0;stroke-dasharray:-;stroke-linecap:round;stroke-linejoin:round;" /><path d="M 34.0 0.0 L 27.0 2.6999999999999997 L 27.0 -2.6999999999999997 Z" style="stroke:black;fill:black;stroke-linecap:butt;stroke-linejoin:miter;" /><path d="M 66.72792206135786,-12.727922061357857 L 41.27207793864215,12.727922061357857" style="stroke:black;fill:none;stroke-width:1;stroke-dasharray:-;stroke-linecap:round;stroke-linejoin:round;" /><path d="M 66.72792206135786,12.727922061357857 L 41.27207793864215,-12.727922061357857" style="stroke:black;fill:none;stroke-width:1;stroke-dasharray:-;stroke-linecap:round;stroke-linejoin:round;" /><path d="M 72.0,-0.0 L 90.0,-0.0 L 108.0,-0.0" style="stroke:black;fill:none;stroke-width:2.0;stroke-dasharray:-;stroke-linecap:round;stroke-linejoin:round;" /><path d="M 108.0,-0.0 L 108.0,27.0 L 107.99999999999999,54.0" style="stroke:black;fill:none;stroke-width:2.0;stroke-dasharray:-;stroke-linecap:round;stroke-linejoin:round;" /><path d="M 115.19999999999997,72.0 L 100.79999999999998,72.0" style="stroke:black;fill:none;stroke-width:2.0;stroke-dasharray:-;stroke-linecap:round;stroke-linejoin:round;" /><path d="M 107.99999999999999,64.8 L 107.99999999999999,79.2" style="stroke:black;fill:none;stroke-width:2.0;stroke-dasharray:-;stroke-linecap:round;stroke-linejoin:round;" /><path d="M 125.99999999999999,72.0 L 143.99999999999997,72.0 L 153.0,72.0" style="stroke:black;fill:none;stroke-width:2.0;stroke-dasharray:-;stroke-linecap:round;stroke-linejoin:round;" /><path d="M 160.0 72.0 L 153.0 74.7 L 153.0 69.3 Z" style="stroke:black;fill:black;stroke-linecap:butt;stroke-linejoin:miter;" /><path d="M 54.0,27.0 L 54.0,27.0 L 54.0,36.0" style="stroke:black;fill:none;stroke-width:2.0;stroke-dasharray:-;stroke-linecap:round;stroke-linejoin:round;" /><path d="M 54.0 20.0 L 56.7 27.0 L 51.3 27.0 Z" style="stroke:black;fill:black;stroke-linecap:butt;stroke-linejoin:miter;" /><path d="M 0.0,144.0 L 18.0,144.0 L 27.0,144.0" style="stroke:black;fill:none;stroke-width:2.0;stroke-dasharray:-;stroke-linecap:round;stroke-linejoin:round;" /><path d="M 34.0 144.0 L 27.0 146.7 L 27.0 141.3 Z" style="stroke:black;fill:black;stroke-linecap:butt;stroke-linejoin:miter;" /><path d="M 66.72792206135786,131.27207793864213 L 41.27207793864215,156.72792206135787" style="stroke:black;fill:none;stroke-width:1;stroke-dasharray:-;stroke-linecap:round;stroke-linejoin:round;" /><path d="M 66.72792206135786,156.72792206135787 L 41.27207793864215,131.27207793864213" style="stroke:black;fill:none;stroke-width:1;stroke-dasharray:-;stroke-linecap:round;stroke-linejoin:round;" /><path d="M 72.0,144.0 L 90.0,144.0 L 108.0,144.0" style="stroke:black;fill:none;stroke-width:2.0;stroke-dasharray:-;stroke-linecap:round;stroke-linejoin:round;" /><path d="M 108.0,144.0 L 108.0,117.0 L 108.0,90.0" style="stroke:black;fill:none;stroke-width:2.0;stroke-dasharray:-;stroke-linecap:round;stroke-linejoin:round;" /><path d="M 54.0,117.0 L 54.0,117.0 L 54.0,108.0" style="stroke:black;fill:none;stroke-width:2.0;stroke-dasharray:-;stroke-linecap:round;stroke-linejoin:round;" /><path d="M 54.0 124.0 L 51.3 117.0 L 56.7 117.0 Z" style="stroke:black;fill:black;stroke-linecap:butt;stroke-linejoin:miter;" /><g><g><g><path d="M -22.321 -3.024 L -22.321 -3.024 L -22.643 -0.84 L -22.979 -0.84 Q -23.007 -1.652 -23.35 -2.128 Q -23.693 -2.604 -24.309 -2.604 Q -24.855 -2.604 -25.093 -2.31 Q -25.331 -2.016 -25.331 -1.708 Q -25.331 -1.414 -25.128 -1.141 Q -24.925 -0.868 -24.617 -0.581 Q -24.309 -0.294 -24.001 0.042 Q -23.553 0.518 -23.224 0.973 Q -22.895 1.428 -22.895 2.1 Q -22.895 2.506 -23.098 2.905 Q -23.301 3.304 -23.763 3.57 Q -24.225 3.836 -25.023 3.836 Q -25.681 3.836 -26.08 3.675 Q -26.479 3.514 -26.633 3.458 L -26.675 3.458 L -27.011 3.836 L -27.319 3.836 L -26.955 1.498 L -26.605 1.498 Q -26.493 2.408 -26.178 2.884 Q -25.863 3.36 -25.149 3.36 Q -24.659 3.36 -24.358 3.122 Q -24.057 2.884 -24.057 2.338 Q -24.057 1.764 -24.372 1.365 Q -24.687 0.966 -25.093 0.588 Q -25.373 0.308 -25.66 0.042 Q -25.947 -0.224 -26.136 -0.553 Q -26.325 -0.882 -26.325 -1.316 Q -26.325 -2.03 -25.849 -2.527 Q -25.373 -3.024 -24.421 -3.024 Q -23.861 -3.024 -23.49 -2.87 Q -23.119 -2.716 -22.993 -2.646 L -22.951 -2.646 L -22.587 -3.024 Z " fill="black" /><path d="M -20.641 5.191 L -20.641 5.191 L -20.641 1.193 Q -20.641 0.781 -20.69 0.541 Q -20.739 0.301 -20.954 0.203 Q -21.17 0.105 -21.67 0.105 L -21.67 -0.267 L -18.583 -0.267 L -18.583 0.105 Q -19.073 0.105 -19.288 0.203 Q -19.504 0.301 -19.553 0.541 Q -19.602 0.781 -19.602 1.193 L -19.602 5.191 Q -19.602 5.622 -19.538 5.853 Q -19.475 6.083 -19.259 6.166 Q -19.043 6.25 -18.583 6.25 L -18.583 6.622 L -21.67 6.622 L -21.67 6.25 Q -21.19 6.25 -20.974 6.181 Q -20.758 6.112 -20.7 5.882 Q -20.641 5.652 -20.641 5.191 Z " fill="black" /><path d="M -17.404 -0.098 L -17.404 -0.098 Q -17.404 -2.436 -16.389 -4.088 Q -15.374 -5.74 -13.68 -6.622 L -13.456 -6.258 Q -14.982 -5.222 -15.619 -3.731 Q -16.256 -2.24 -16.256 -0.098 Q -16.256 2.044 -15.619 3.535 Q -14.982 5.026 -13.456 6.062 L -13.68 6.426 Q -15.374 5.544 -16.389 3.892 Q -17.404 2.24 -17.404 -0.098 Z " fill="black" /><path d="M -8.598 -2.856 L -8.598 -2.856 L -8.71 -2.31 L -10.124 -2.31 L -10.95 1.862 Q -10.95 1.862 -10.999 2.121 Q -11.048 2.38 -11.048 2.562 Q -11.048 2.674 -10.999 2.765 Q -10.95 2.856 -10.81 2.856 Q -10.502 2.856 -10.243 2.674 Q -9.984 2.492 -9.62 2.016 L -9.34 2.226 Q -9.536 2.492 -9.816 2.87 Q -10.096 3.248 -10.488 3.528 Q -10.88 3.808 -11.44 3.808 Q -11.874 3.808 -12.084 3.598 Q -12.294 3.388 -12.294 3.066 Q -12.294 2.884 -12.252 2.625 Q -12.21 2.366 -12.196 2.268 L -11.244 -2.31 L -12.042 -2.31 L -11.986 -2.604 Q -11.538 -2.842 -11.237 -3.066 Q -10.936 -3.29 -10.663 -3.654 Q -10.39 -4.018 -10.04 -4.62 L -9.62 -4.62 L -10.012 -2.856 Z " fill="black" /><path d="M -3.936 -0.098 L -3.936 -0.098 Q -3.936 2.24 -4.951 3.892 Q -5.966 5.544 -7.66 6.426 L -7.884 6.062 Q -6.344 5.026 -5.714 3.535 Q -5.084 2.044 -5.084 -0.098 Q -5.084 -2.24 -5.714 -3.731 Q -6.344 -5.222 -7.884 -6.258 L -7.66 -6.622 Q -5.966 -5.74 -4.951 -4.088 Q -3.936 -2.436 -3.936 -0.098 Z " fill="black" /></g></g></g><g><g><g><path d="M 170.892 68.976 L 170.892 68.976 L 170.57 71.16 L 170.234 71.16 Q 170.206 70.348 169.863 69.872 Q 169.52 69.396 168.904 69.396 Q 168.358 69.396 168.12 69.69 Q 167.882 69.984 167.882 70.292 Q 167.882 70.586 168.085 70.859 Q 168.288 71.132 168.596 71.419 Q 168.904 71.706 169.212 72.042 Q 169.66 72.518 169.989 72.973 Q 170.318 73.428 170.318 74.1 Q 170.318 74.506 170.115 74.905 Q 169.912 75.304 169.45 75.57 Q 168.988 75.836 168.19 75.836 Q 167.532 75.836 167.133 75.675 Q 166.734 75.514 166.58 75.458 L 166.538 75.458 L 166.202 75.836 L 165.894 75.836 L 166.258 73.498 L 166.608 73.498 Q 166.72 74.408 167.035 74.884 Q 167.35 75.36 168.064 75.36 Q 168.554 75.36 168.855 75.122 Q 169.156 74.884 169.156 74.338 Q 169.156 73.764 168.841 73.365 Q 168.526 72.966 168.12 72.588 Q 167.84 72.308 167.553 72.042 Q 167.266 71.776 167.077 71.447 Q 166.888 71.118 166.888 70.684 Q 166.888 69.97 167.364 69.473 Q 167.84 68.976 168.792 68.976 Q 169.352 68.976 169.723 69.13 Q 170.094 69.284 170.22 69.354 L 170.262 69.354 L 170.626 68.976 Z " fill="black" /><path d="M 177.129 73.546 L 177.129 73.546 Q 177.129 74.124 176.864 74.486 Q 176.6 74.849 176.193 75.045 Q 175.786 75.241 175.355 75.339 L 175.355 75.417 Q 175.502 75.545 175.703 75.78 Q 175.904 76.015 176.247 76.471 Q 176.59 76.927 177.158 77.711 Q 177.413 78.054 177.634 78.152 Q 177.854 78.25 178.246 78.25 L 178.246 78.622 L 176.472 78.622 Q 176.031 77.985 175.732 77.549 Q 175.434 77.113 175.233 76.814 Q 175.032 76.515 174.88 76.29 Q 174.728 76.064 174.571 75.829 Q 174.414 75.633 174.316 75.574 Q 174.218 75.515 174.022 75.515 L 173.611 75.515 L 173.611 77.26 Q 173.611 77.691 173.689 77.902 Q 173.768 78.112 173.998 78.181 Q 174.228 78.25 174.679 78.25 L 174.679 78.622 L 171.602 78.622 L 171.602 78.25 Q 171.994 78.25 172.204 78.186 Q 172.415 78.122 172.494 77.907 Q 172.572 77.691 172.572 77.26 L 172.572 72.928 Q 172.572 72.615 172.508 72.438 Q 172.445 72.262 172.239 72.183 Q 172.033 72.105 171.602 72.105 L 171.602 71.733 L 174.326 71.733 Q 175.091 71.733 175.728 71.885 Q 176.365 72.036 176.747 72.428 Q 177.129 72.82 177.129 73.546 Z M 173.611 72.223 L 173.611 72.223 L 173.611 75.055 L 173.983 75.055 Q 174.895 75.055 175.448 74.687 Q 176.002 74.32 176.002 73.506 Q 176.002 72.203 174.395 72.203 Q 174.199 72.203 174.003 72.208 Q 173.807 72.213 173.611 72.223 Z " fill="black" /><path d="M 184.606 73.516 L 184.606 73.516 L 184.205 73.516 Q 184.136 73.163 184.062 72.913 Q 183.989 72.664 183.842 72.517 Q 183.695 72.37 183.411 72.301 Q 183.127 72.232 182.637 72.232 L 180.873 72.232 L 180.873 74.898 L 182.068 74.898 Q 182.499 74.898 182.735 74.82 Q 182.97 74.741 183.063 74.521 Q 183.156 74.3 183.156 73.869 L 183.568 73.869 L 183.568 76.28 L 183.156 76.28 Q 183.156 75.868 183.063 75.672 Q 182.97 75.476 182.735 75.417 Q 182.499 75.359 182.068 75.359 L 180.873 75.359 L 180.873 77.475 Q 180.873 77.956 181.108 78.103 Q 181.343 78.25 181.951 78.25 L 181.951 78.622 L 178.824 78.622 L 178.824 78.25 Q 179.256 78.25 179.471 78.181 Q 179.687 78.112 179.76 77.921 Q 179.834 77.73 179.834 77.348 L 179.834 73.036 Q 179.834 72.664 179.75 72.463 Q 179.667 72.262 179.452 72.183 Q 179.236 72.105 178.824 72.105 L 178.824 71.733 L 184.548 71.733 Z " fill="black" /><path d="M 185.521 71.902 L 185.521 71.902 Q 185.521 69.564 186.536 67.912 Q 187.551 66.26 189.245 65.378 L 189.469 65.742 Q 187.943 66.778 187.306 68.269 Q 186.669 69.76 186.669 71.902 Q 186.669 74.044 187.306 75.535 Q 187.943 77.026 189.469 78.062 L 189.245 78.426 Q 187.551 77.544 186.536 75.892 Q 185.521 74.24 185.521 71.902 Z " fill="black" /><path d="M 194.327 69.144 L 194.327 69.144 L 194.215 69.69 L 192.801 69.69 L 191.975 73.862 Q 191.975 73.862 191.926 74.121 Q 191.877 74.38 191.877 74.562 Q 191.877 74.674 191.926 74.765 Q 191.975 74.856 192.115 74.856 Q 192.423 74.856 192.682 74.674 Q 192.941 74.492 193.305 74.016 L 193.585 74.226 Q 193.389 74.492 193.109 74.87 Q 192.829 75.248 192.437 75.528 Q 192.045 75.808 191.485 75.808 Q 191.051 75.808 190.841 75.598 Q 190.631 75.388 190.631 75.066 Q 190.631 74.884 190.673 74.625 Q 190.715 74.366 190.729 74.268 L 191.681 69.69 L 190.883 69.69 L 190.939 69.396 Q 191.387 69.158 191.688 68.934 Q 191.989 68.71 192.262 68.346 Q 192.535 67.982 192.885 67.38 L 193.305 67.38 L 192.913 69.144 Z " fill="black" /><path d="M 198.989 71.902 L 198.989 71.902 Q 198.989 74.24 197.974 75.892 Q 196.959 77.544 195.265 78.426 L 195.041 78.062 Q 196.581 77.026 197.211 75.535 Q 197.841 74.044 197.841 71.902 Q 197.841 69.76 197.211 68.269 Q 196.581 66.778 195.041 65.742 L 195.265 65.378 Q 196.959 66.26 197.974 67.912 Q 198.989 69.564 198.989 71.902 Z " fill="black" /></g></g></g><g><g><g><path d="M 35.771 47.832 L 35.771 47.832 L 36.037 48.028 Q 35.771 48.588 35.428 49.05 Q 35.085 49.512 34.581 49.778 Q 34.077 50.044 33.321 50.044 Q 32.453 50.044 31.823 49.624 Q 31.193 49.204 30.857 48.455 Q 30.521 47.706 30.521 46.74 Q 30.521 45.088 31.347 44.101 Q 32.173 43.114 33.685 43.114 Q 34.679 43.114 35.246 43.548 Q 35.813 43.982 35.813 44.598 Q 35.813 45.228 35.225 45.228 Q 34.917 45.228 34.756 45.067 Q 34.595 44.906 34.497 44.668 Q 34.399 44.43 34.294 44.192 Q 34.189 43.954 34 43.793 Q 33.811 43.632 33.447 43.632 Q 32.593 43.632 32.11 44.255 Q 31.627 44.878 31.627 46.082 Q 31.627 47.356 32.152 48.175 Q 32.677 48.994 33.755 48.994 Q 34.441 48.994 34.868 48.714 Q 35.295 48.434 35.771 47.832 Z " fill="black" /><path d="M 39.915 43.114 L 39.915 43.114 Q 41.357 43.114 42.19 44.01 Q 43.023 44.906 43.023 46.46 Q 43.023 47.636 42.624 48.434 Q 42.225 49.232 41.525 49.638 Q 40.825 50.044 39.915 50.044 Q 38.445 50.044 37.612 49.127 Q 36.779 48.21 36.779 46.516 Q 36.779 45.494 37.171 44.731 Q 37.563 43.968 38.27 43.541 Q 38.977 43.114 39.915 43.114 Z M 39.859 43.646 L 39.859 43.646 Q 39.061 43.646 38.571 44.318 Q 38.081 44.99 38.081 46.334 Q 38.081 48 38.578 48.749 Q 39.075 49.498 39.971 49.484 Q 40.545 49.484 40.937 49.218 Q 41.329 48.952 41.532 48.308 Q 41.735 47.664 41.735 46.53 Q 41.735 45.242 41.266 44.444 Q 40.797 43.646 39.859 43.646 Z " fill="black" /><path d="M 44.045 47.608 L 44.045 47.608 L 44.409 47.608 Q 44.633 48.686 45.067 49.113 Q 45.501 49.54 46.271 49.54 Q 46.803 49.54 47.139 49.323 Q 47.475 49.106 47.475 48.616 Q 47.475 48.28 47.356 48.056 Q 47.237 47.832 46.901 47.601 Q 46.565 47.37 45.907 47.048 Q 44.955 46.558 44.507 46.103 Q 44.059 45.648 44.059 44.878 Q 44.059 44.01 44.682 43.562 Q 45.305 43.114 46.201 43.114 Q 46.733 43.114 47.069 43.233 Q 47.405 43.352 47.671 43.478 L 47.685 43.478 L 47.923 43.184 L 48.203 43.184 L 48.245 45.326 L 47.867 45.326 Q 47.643 44.332 47.237 43.961 Q 46.831 43.59 46.187 43.59 Q 45.711 43.59 45.382 43.814 Q 45.053 44.038 45.053 44.514 Q 45.053 44.92 45.431 45.242 Q 45.809 45.564 46.691 46.012 Q 47.643 46.516 48.147 46.985 Q 48.651 47.454 48.651 48.238 Q 48.651 48.896 48.329 49.295 Q 48.007 49.694 47.468 49.876 Q 46.929 50.058 46.299 50.058 Q 45.697 50.058 45.34 49.932 Q 44.983 49.806 44.703 49.694 L 44.675 49.694 L 44.381 50.016 L 44.087 50.016 Z " fill="black" /><path d="M 51.409 46.124 L 51.409 46.124 Q 51.409 43.786 52.424 42.134 Q 53.439 40.482 55.133 39.6 L 55.357 39.964 Q 53.831 41 53.194 42.491 Q 52.557 43.982 52.557 46.124 Q 52.557 48.266 53.194 49.757 Q 53.831 51.248 55.357 52.284 L 55.133 52.648 Q 53.439 51.766 52.424 50.114 Q 51.409 48.462 51.409 46.124 Z " fill="black" /><path d="M 60.257 47.944 L 60.257 47.944 Q 60.257 48.294 60.481 48.574 Q 60.705 48.854 61.321 48.854 Q 62.119 48.854 62.623 48.469 Q 63.127 48.084 63.358 47.426 Q 63.589 46.768 63.589 45.928 Q 63.589 45.256 63.428 44.745 Q 63.267 44.234 63.064 43.905 Q 62.861 43.576 62.735 43.464 L 62.861 43.282 Q 63.141 43.31 63.519 43.625 Q 63.897 43.94 64.191 44.556 Q 64.485 45.172 64.485 46.138 Q 64.485 46.824 64.303 47.524 Q 64.121 48.224 63.743 48.791 Q 63.365 49.358 62.77 49.708 Q 62.175 50.058 61.335 50.058 Q 60.733 50.058 60.369 49.673 Q 60.005 49.288 59.823 48.56 L 59.767 48.56 Q 59.417 49.148 58.927 49.603 Q 58.437 50.058 57.765 50.058 Q 56.911 50.058 56.561 49.337 Q 56.211 48.616 56.211 47.468 Q 56.211 46.782 56.379 46.096 Q 56.547 45.41 56.939 44.822 Q 57.331 44.234 58.003 43.814 Q 58.675 43.394 59.697 43.226 Q 59.865 43.422 59.865 43.688 Q 59.865 43.926 59.725 44.129 Q 59.585 44.332 59.347 44.388 Q 58.199 44.598 57.513 45.361 Q 56.827 46.124 56.827 47.244 Q 56.827 48.112 57.205 48.455 Q 57.583 48.798 58.129 48.798 Q 58.577 48.798 58.885 48.651 Q 59.193 48.504 59.389 48.322 Q 59.585 48.14 59.683 48 Q 59.669 47.902 59.669 47.804 Q 59.669 47.706 59.669 47.622 Q 59.669 47.328 59.746 46.866 Q 59.823 46.404 59.97 45.921 Q 60.117 45.438 60.341 45.088 Q 60.397 45.004 60.565 44.955 Q 60.733 44.906 60.901 44.906 Q 61.125 44.906 61.293 44.997 Q 61.461 45.088 61.461 45.172 Q 61.405 45.718 61.055 46.474 Q 60.705 47.23 60.257 47.944 Z " fill="black" /><path d="M 69.422 51.345 L 69.422 51.345 L 69.658 51.521 Q 69.432 51.942 69.153 52.266 Q 68.874 52.589 68.491 52.766 Q 68.109 52.942 67.551 52.942 Q 66.865 52.942 66.38 52.623 Q 65.894 52.305 65.64 51.746 Q 65.385 51.188 65.385 50.453 Q 65.385 49.179 66.032 48.439 Q 66.678 47.699 67.825 47.699 Q 68.619 47.699 69.05 48.032 Q 69.481 48.365 69.481 48.836 Q 69.481 49.326 69.001 49.326 Q 68.756 49.326 68.629 49.203 Q 68.501 49.081 68.433 48.904 Q 68.364 48.728 68.286 48.552 Q 68.207 48.375 68.065 48.253 Q 67.923 48.13 67.649 48.13 Q 66.992 48.13 66.629 48.596 Q 66.267 49.061 66.267 49.943 Q 66.267 50.923 66.669 51.511 Q 67.07 52.099 67.923 52.099 Q 68.433 52.099 68.751 51.918 Q 69.07 51.737 69.422 51.345 Z " fill="black" /><path d="M 74.399 43.366 L 74.399 43.366 L 74.287 43.912 L 72.873 43.912 L 72.047 48.084 Q 72.047 48.084 71.998 48.343 Q 71.949 48.602 71.949 48.784 Q 71.949 48.896 71.998 48.987 Q 72.047 49.078 72.187 49.078 Q 72.495 49.078 72.754 48.896 Q 73.013 48.714 73.377 48.238 L 73.657 48.448 Q 73.461 48.714 73.181 49.092 Q 72.901 49.47 72.509 49.75 Q 72.117 50.03 71.557 50.03 Q 71.123 50.03 70.913 49.82 Q 70.703 49.61 70.703 49.288 Q 70.703 49.106 70.745 48.847 Q 70.787 48.588 70.801 48.49 L 71.753 43.912 L 70.955 43.912 L 71.011 43.618 Q 71.459 43.38 71.76 43.156 Q 72.061 42.932 72.334 42.568 Q 72.607 42.204 72.957 41.602 L 73.377 41.602 L 72.985 43.366 Z " fill="black" /><path d="M 79.061 46.124 L 79.061 46.124 Q 79.061 48.462 78.046 50.114 Q 77.031 51.766 75.337 52.648 L 75.113 52.284 Q 76.653 51.248 77.283 49.757 Q 77.913 48.266 77.913 46.124 Q 77.913 43.982 77.283 42.491 Q 76.653 41 75.113 39.964 L 75.337 39.6 Q 77.031 40.482 78.046 42.134 Q 79.061 43.786 79.061 46.124 Z " fill="black" /></g></g></g><g><g><g><path d="M -26.329 140.074 L -26.329 140.074 L -26.651 142.258 L -26.987 142.258 Q -27.015 141.446 -27.358 140.97 Q -27.701 140.494 -28.317 140.494 Q -28.863 140.494 -29.101 140.788 Q -29.339 141.082 -29.339 141.39 Q -29.339 141.684 -29.136 141.957 Q -28.933 142.23 -28.625 142.517 Q -28.317 142.804 -28.009 143.14 Q -27.561 143.616 -27.232 144.071 Q -26.903 144.526 -26.903 145.198 Q -26.903 145.604 -27.106 146.003 Q -27.309 146.402 -27.771 146.668 Q -28.233 146.934 -29.031 146.934 Q -29.689 146.934 -30.088 146.773 Q -30.487 146.612 -30.641 146.556 L -30.683 146.556 L -31.019 146.934 L -31.327 146.934 L -30.963 144.596 L -30.613 144.596 Q -30.501 145.506 -30.186 145.982 Q -29.871 146.458 -29.157 146.458 Q -28.667 146.458 -28.366 146.22 Q -28.065 145.982 -28.065 145.436 Q -28.065 144.862 -28.38 144.463 Q -28.695 144.064 -29.101 143.686 Q -29.381 143.406 -29.668 143.14 Q -29.955 142.874 -30.144 142.545 Q -30.333 142.216 -30.333 141.782 Q -30.333 141.068 -29.857 140.571 Q -29.381 140.074 -28.429 140.074 Q -27.869 140.074 -27.498 140.228 Q -27.127 140.382 -27.001 140.452 L -26.959 140.452 L -26.595 140.074 Z " fill="black" /><path d="M -18.671 146.31 L -18.671 146.31 Q -18.671 147.653 -19.323 148.52 Q -19.974 149.387 -21.082 149.681 L -21.082 149.73 Q -20.719 150.24 -20.366 150.539 Q -20.014 150.838 -19.582 150.965 Q -19.151 151.092 -18.544 151.092 L -18.544 151.524 L -19.092 151.524 Q -19.916 151.524 -20.494 151.406 Q -21.072 151.288 -21.474 151.009 Q -21.876 150.73 -22.17 150.25 L -22.434 149.838 Q -23.385 149.769 -24.095 149.333 Q -24.806 148.897 -25.193 148.118 Q -25.58 147.339 -25.58 146.271 Q -25.58 145.203 -25.159 144.404 Q -24.737 143.605 -23.958 143.159 Q -23.179 142.713 -22.13 142.713 Q -21.062 142.713 -20.288 143.179 Q -19.514 143.644 -19.092 144.453 Q -18.671 145.261 -18.671 146.31 Z M -19.916 146.173 L -19.916 146.173 Q -19.916 144.742 -20.518 143.978 Q -21.121 143.213 -22.14 143.213 Q -23.15 143.213 -23.742 143.987 Q -24.335 144.762 -24.335 146.202 Q -24.335 147.702 -23.796 148.515 Q -23.257 149.328 -22.121 149.328 Q -20.984 149.328 -20.45 148.539 Q -19.916 147.751 -19.916 146.173 Z " fill="black" /><path d="M -17.404 143 L -17.404 143 Q -17.404 140.662 -16.389 139.01 Q -15.374 137.358 -13.68 136.476 L -13.456 136.84 Q -14.982 137.876 -15.619 139.367 Q -16.256 140.858 -16.256 143 Q -16.256 145.142 -15.619 146.633 Q -14.982 148.124 -13.456 149.16 L -13.68 149.524 Q -15.374 148.642 -16.389 146.99 Q -17.404 145.338 -17.404 143 Z " fill="black" /><path d="M -8.598 140.242 L -8.598 140.242 L -8.71 140.788 L -10.124 140.788 L -10.95 144.96 Q -10.95 144.96 -10.999 145.219 Q -11.048 145.478 -11.048 145.66 Q -11.048 145.772 -10.999 145.863 Q -10.95 145.954 -10.81 145.954 Q -10.502 145.954 -10.243 145.772 Q -9.984 145.59 -9.62 145.114 L -9.34 145.324 Q -9.536 145.59 -9.816 145.968 Q -10.096 146.346 -10.488 146.626 Q -10.88 146.906 -11.44 146.906 Q -11.874 146.906 -12.084 146.696 Q -12.294 146.486 -12.294 146.164 Q -12.294 145.982 -12.252 145.723 Q -12.21 145.464 -12.196 145.366 L -11.244 140.788 L -12.042 140.788 L -11.986 140.494 Q -11.538 140.256 -11.237 140.032 Q -10.936 139.808 -10.663 139.444 Q -10.39 139.08 -10.04 138.478 L -9.62 138.478 L -10.012 140.242 Z " fill="black" /><path d="M -3.936 143 L -3.936 143 Q -3.936 145.338 -4.951 146.99 Q -5.966 148.642 -7.66 149.524 L -7.884 149.16 Q -6.344 148.124 -5.714 146.633 Q -5.084 145.142 -5.084 143 Q -5.084 140.858 -5.714 139.367 Q -6.344 137.876 -7.884 136.84 L -7.66 136.476 Q -5.966 137.358 -4.951 139.01 Q -3.936 140.662 -3.936 143 Z " fill="black" /></g></g></g><g><g><g><path d="M 33.089 98.212 L 33.089 98.212 L 24.745 98.212 L 24.745 97.26 L 33.089 97.26 Z " fill="black" /><path d="M 37.29 99.066 L 37.29 99.066 L 37.654 99.066 Q 37.878 100.144 38.312 100.571 Q 38.746 100.998 39.516 100.998 Q 40.048 100.998 40.384 100.781 Q 40.72 100.564 40.72 100.074 Q 40.72 99.738 40.601 99.514 Q 40.482 99.29 40.146 99.059 Q 39.81 98.828 39.152 98.506 Q 38.2 98.016 37.752 97.561 Q 37.304 97.106 37.304 96.336 Q 37.304 95.468 37.927 95.02 Q 38.55 94.572 39.446 94.572 Q 39.978 94.572 40.314 94.691 Q 40.65 94.81 40.916 94.936 L 40.93 94.936 L 41.168 94.642 L 41.448 94.642 L 41.49 96.784 L 41.112 96.784 Q 40.888 95.79 40.482 95.419 Q 40.076 95.048 39.432 95.048 Q 38.956 95.048 38.627 95.272 Q 38.298 95.496 38.298 95.972 Q 38.298 96.378 38.676 96.7 Q 39.054 97.022 39.936 97.47 Q 40.888 97.974 41.392 98.443 Q 41.896 98.912 41.896 99.696 Q 41.896 100.354 41.574 100.753 Q 41.252 101.152 40.713 101.334 Q 40.174 101.516 39.544 101.516 Q 38.942 101.516 38.585 101.39 Q 38.228 101.264 37.948 101.152 L 37.92 101.152 L 37.626 101.474 L 37.332 101.474 Z " fill="black" /><path d="M 45.872 100.97 L 45.872 100.97 L 45.872 101.362 L 42.722 101.362 L 42.722 100.97 Q 43.198 100.97 43.401 100.879 Q 43.604 100.788 43.653 100.564 Q 43.702 100.34 43.702 99.948 L 43.702 96.042 Q 43.702 95.594 43.548 95.489 Q 43.394 95.384 43.086 95.384 Q 42.946 95.384 42.841 95.398 Q 42.736 95.412 42.736 95.412 L 42.736 95.006 L 44.5 94.614 L 44.864 94.614 L 44.864 99.948 Q 44.864 100.354 44.92 100.578 Q 44.976 100.802 45.193 100.886 Q 45.41 100.97 45.872 100.97 Z M 44.304 91.94 L 44.304 91.94 Q 44.668 91.94 44.885 92.171 Q 45.102 92.402 45.102 92.724 Q 45.102 93.046 44.885 93.284 Q 44.668 93.522 44.304 93.522 Q 43.954 93.522 43.73 93.284 Q 43.506 93.046 43.506 92.724 Q 43.506 92.402 43.723 92.171 Q 43.94 91.94 44.304 91.94 Z " fill="black" /><path d="M 52.998 97.064 L 52.998 97.064 L 52.998 99.948 Q 52.998 100.34 53.061 100.564 Q 53.124 100.788 53.348 100.879 Q 53.572 100.97 54.034 100.97 L 54.034 101.362 L 50.8 101.362 L 50.8 100.97 Q 51.304 100.97 51.521 100.879 Q 51.738 100.788 51.787 100.564 Q 51.836 100.34 51.836 99.948 L 51.836 97.414 Q 51.836 96.574 51.647 96.154 Q 51.458 95.734 51.164 95.601 Q 50.87 95.468 50.548 95.468 Q 49.988 95.468 49.582 95.769 Q 49.176 96.07 48.854 96.35 L 48.854 99.948 Q 48.854 100.34 48.91 100.564 Q 48.966 100.788 49.19 100.879 Q 49.414 100.97 49.918 100.97 L 49.918 101.362 L 46.712 101.362 L 46.712 100.97 Q 47.188 100.97 47.391 100.879 Q 47.594 100.788 47.643 100.564 Q 47.692 100.34 47.692 99.948 L 47.692 96.014 Q 47.692 95.636 47.538 95.517 Q 47.384 95.398 47.104 95.398 Q 46.922 95.398 46.824 95.412 Q 46.726 95.426 46.726 95.426 L 46.726 95.02 L 48.504 94.614 L 48.826 94.614 L 48.812 95.748 L 48.868 95.748 Q 49.442 95.244 49.953 94.908 Q 50.464 94.572 51.122 94.572 Q 52.074 94.572 52.536 95.216 Q 52.998 95.86 52.998 97.064 Z " fill="black" /><path d="M 56.708 97.582 L 56.708 97.582 Q 56.708 95.244 57.723 93.592 Q 58.738 91.94 60.432 91.058 L 60.656 91.422 Q 59.13 92.458 58.493 93.949 Q 57.856 95.44 57.856 97.582 Q 57.856 99.724 58.493 101.215 Q 59.13 102.706 60.656 103.742 L 60.432 104.106 Q 58.738 103.224 57.723 101.572 Q 56.708 99.92 56.708 97.582 Z " fill="black" /><path d="M 65.556 99.402 L 65.556 99.402 Q 65.556 99.752 65.78 100.032 Q 66.004 100.312 66.62 100.312 Q 67.418 100.312 67.922 99.927 Q 68.426 99.542 68.657 98.884 Q 68.888 98.226 68.888 97.386 Q 68.888 96.714 68.727 96.203 Q 68.566 95.692 68.363 95.363 Q 68.16 95.034 68.034 94.922 L 68.16 94.74 Q 68.44 94.768 68.818 95.083 Q 69.196 95.398 69.49 96.014 Q 69.784 96.63 69.784 97.596 Q 69.784 98.282 69.602 98.982 Q 69.42 99.682 69.042 100.249 Q 68.664 100.816 68.069 101.166 Q 67.474 101.516 66.634 101.516 Q 66.032 101.516 65.668 101.131 Q 65.304 100.746 65.122 100.018 L 65.066 100.018 Q 64.716 100.606 64.226 101.061 Q 63.736 101.516 63.064 101.516 Q 62.21 101.516 61.86 100.795 Q 61.51 100.074 61.51 98.926 Q 61.51 98.24 61.678 97.554 Q 61.846 96.868 62.238 96.28 Q 62.63 95.692 63.302 95.272 Q 63.974 94.852 64.996 94.684 Q 65.164 94.88 65.164 95.146 Q 65.164 95.384 65.024 95.587 Q 64.884 95.79 64.646 95.846 Q 63.498 96.056 62.812 96.819 Q 62.126 97.582 62.126 98.702 Q 62.126 99.57 62.504 99.913 Q 62.882 100.256 63.428 100.256 Q 63.876 100.256 64.184 100.109 Q 64.492 99.962 64.688 99.78 Q 64.884 99.598 64.982 99.458 Q 64.968 99.36 64.968 99.262 Q 64.968 99.164 64.968 99.08 Q 64.968 98.786 65.045 98.324 Q 65.122 97.862 65.269 97.379 Q 65.416 96.896 65.64 96.546 Q 65.696 96.462 65.864 96.413 Q 66.032 96.364 66.2 96.364 Q 66.424 96.364 66.592 96.455 Q 66.76 96.546 66.76 96.63 Q 66.704 97.176 66.354 97.932 Q 66.004 98.688 65.556 99.402 Z " fill="black" /><path d="M 74.722 102.803 L 74.722 102.803 L 74.957 102.979 Q 74.732 103.4 74.452 103.724 Q 74.173 104.047 73.791 104.224 Q 73.409 104.4 72.85 104.4 Q 72.164 104.4 71.679 104.081 Q 71.194 103.763 70.939 103.204 Q 70.684 102.646 70.684 101.911 Q 70.684 100.637 71.331 99.897 Q 71.978 99.157 73.124 99.157 Q 73.918 99.157 74.349 99.49 Q 74.781 99.823 74.781 100.294 Q 74.781 100.784 74.3 100.784 Q 74.055 100.784 73.928 100.661 Q 73.801 100.539 73.732 100.362 Q 73.663 100.186 73.585 100.01 Q 73.507 99.833 73.364 99.711 Q 73.222 99.588 72.948 99.588 Q 72.291 99.588 71.929 100.054 Q 71.566 100.519 71.566 101.401 Q 71.566 102.381 71.968 102.969 Q 72.37 103.557 73.222 103.557 Q 73.732 103.557 74.05 103.376 Q 74.369 103.195 74.722 102.803 Z " fill="black" /><path d="M 79.699 94.824 L 79.699 94.824 L 79.587 95.37 L 78.173 95.37 L 77.347 99.542 Q 77.347 99.542 77.298 99.801 Q 77.249 100.06 77.249 100.242 Q 77.249 100.354 77.298 100.445 Q 77.347 100.536 77.487 100.536 Q 77.795 100.536 78.054 100.354 Q 78.313 100.172 78.677 99.696 L 78.957 99.906 Q 78.761 100.172 78.481 100.55 Q 78.201 100.928 77.809 101.208 Q 77.417 101.488 76.857 101.488 Q 76.423 101.488 76.213 101.278 Q 76.003 101.068 76.003 100.746 Q 76.003 100.564 76.045 100.305 Q 76.087 100.046 76.101 99.948 L 77.053 95.37 L 76.255 95.37 L 76.311 95.076 Q 76.759 94.838 77.06 94.614 Q 77.361 94.39 77.634 94.026 Q 77.907 93.662 78.257 93.06 L 78.677 93.06 L 78.285 94.824 Z " fill="black" /><path d="M 84.361 97.582 L 84.361 97.582 Q 84.361 99.92 83.346 101.572 Q 82.331 103.224 80.637 104.106 L 80.413 103.742 Q 81.953 102.706 82.583 101.215 Q 83.213 99.724 83.213 97.582 Q 83.213 95.44 82.583 93.949 Q 81.953 92.458 80.413 91.422 L 80.637 91.058 Q 82.331 91.94 83.346 93.592 Q 84.361 95.244 84.361 97.582 Z " fill="black" /></g></g></g></svg>