<svg xmlns="http://www.w3.org/2000/svg" xmlns:xlink="http://www.w3.org/1999/xlink" xml:lang="en" height="134.856pt" width="463.1442pt" viewBox="-4.6 -40.256 463.1442 134.856"><circle cx="18.0" cy="-0.0" r="18.0" style="stroke:black;fill:none;stroke-width:2.0;stroke-dasharray:-;" /><circle cx="342.0" cy="-0.0" r="18.0" style="stroke:black;fill:none;stroke-width:2.0;stroke-dasharray:-;" /><path d="M 7.2,-4.4087284769304716e-16 L 8.336842105263157,-1.168918089136861 L 9.473684210526317,-2.2111657656828045 L 10.610526315789475,-3.013799321745103 L 11.747368421052633,-3.4898409573815896 L 12.88421052631579,-3.5877041748240117 L 14.021052631578947,-3.2967839759582067 L 15.157894736842104,-2.648606078423274 L 16.294736842105262,-1.7134106149334647 L 17.431578947368422,-0.5925405250106421 L 18.56842105263158,0.5925405250106421 L 19.705263157894738,1.7134106149334647 L 20.84210526315789,2.6486060784232732 L 21.978947368421053,3.2967839759582063 L 23.11578947368421,3.5877041748240117 L 24.25263157894737,3.48984095738159 L 25.389473684210525,3.013799321745103 L 26.52631578947368,2.2111657656828045 L 27.66315789473684,1.168918089136861 L 28.8,4.4087284769304716e-16" style="stroke:black;fill:none;stroke-width:2.0;stroke-dasharray:-;stroke-linecap:round;stroke-linejoin:round;" /><path d="M 36.0,-0.0 L 72.0,-0.0 L 99.0,-0.0" style="stroke:black;fill:none;stroke-width:2.0;stroke-dasharray:-;stroke-linecap:round;stroke-linejoin:round;" /><path d="M 106.0 0.0 L 99.0 2.6999999999999997 L 99.0 -2.6999999999999997 Z" style="stroke:black;fill:black;stroke-linecap:butt;stroke-linejoin:miter;" /><path d="M 108.0,-0.0 L 108.0,-18.0 L 144.0,-18.0 L 144.0,18.0 L 108.0,18.0 L 108.0,-0.0" style="stroke:black;fill:none;stroke-width:2.0;stroke-dasharray:-;stroke-linecap:round;stroke-linejoin:round;" /><path d="M 144.0,-0.0 L 180.0,-0.0 L 207.0,-0.0" style="stroke:black;fill:none;stroke-width:2.0;stroke-dasharray:-;stroke-linecap:round;stroke-linejoin:round;" /><path d="M 214.0 0.0 L 207.0 2.6999999999999997 L 207.0 -2.6999999999999997 Z" style="stroke:black;fill:black;stroke-linecap:butt;stroke-linejoin:miter;" /><path d="M 216.0,-0.0 L 216.0,-18.0 L 252.0,-18.0 L 252.0,18.0 L 216.0,18.0 L 216.0,-0.0" style="stroke:black;fill:none;stroke-width:2.0;stroke-dasharray:-;stroke-linecap:round;stroke-linejoin:round;" /><path d="M 223.20000000000002,-4.4087284769304716e-16 L 224.33684210526314,-1.168918089136861 L 225.47368421052633,-2.2111657656828045 L 226.61052631578949,-3.013799321745103 L 227.7473684210526,-3.4898409573815896 L 228.8842105263158,-3.5877041748240117 L 230.02105263157895,-3.2967839759582067 L 231.15789473684208,-2.648606078423274 L 232.29473684210527,-1.7134106149334647 L 233.43157894736842,-0.5925405250106421 L 234.56842105263158,0.5925405250106421 L 235.70526315789473,1.7134106149334647 L 236.8421052631579,2.6486060784232732 L 237.97894736842105,3.2967839759582063 L 239.1157894736842,3.5877041748240117 L 240.2526315789474,3.48984095738159 L 241.38947368421051,3.013799321745103 L 242.52631578947367,2.2111657656828045 L 243.66315789473686,1.168918089136861 L 244.79999999999998,4.4087284769304716e-16" style="stroke:black;fill:none;stroke-width:2.0;stroke-dasharray:-;stroke-linecap:round;stroke-linejoin:round;" /><path d="M 223.20000000000002,-9.0 L 224.33684210526314,-10.16891808913686 L 225.47368421052633,-11.211165765682804 L 226.61052631578949,-12.013799321745104 L 227.7473684210526,-12.489840957381588 L 228.8842105263158,-12.587704174824012 L 230.02105263157895,-12.296783975958206 L 231.15789473684208,-11.648606078423274 L 232.29473684210527,-10.713410614933464 L 233.43157894736842,-9.592540525010643 L 234.56842105263158,-8.407459474989357 L 235.70526315789473,-7.286589385066535 L 236.8421052631579,-6.351393921576727 L 237.97894736842105,-5.703216024041794 L 239.1157894736842,-5.412295825175989 L 240.2526315789474,-5.51015904261841 L 241.38947368421051,-5.986200678254896 L 242.52631578947367,-6.7888342343171955 L 243.66315789473686,-7.831081910863139 L 244.79999999999998,-9.0" style="stroke:black;fill:none;stroke-width:2.0;stroke-dasharray:-;stroke-linecap:round;stroke-linejoin:round;" /><path d="M 223.20000000000002,9.0 L 224.33684210526314,7.831081910863139 L 225.47368421052633,6.7888342343171955 L 226.61052631578949,5.986200678254896 L 227.7473684210526,5.510159042618411 L 228.8842105263158,5.412295825175989 L 230.02105263157895,5.703216024041793 L 231.15789473684208,6.351393921576726 L 232.29473684210527,7.286589385066535 L 233.43157894736842,8.407459474989357 L 234.56842105263158,9.592540525010643 L 235.70526315789473,10.713410614933464 L 236.8421052631579,11.648606078423274 L 237.97894736842105,12.296783975958206 L 239.1157894736842,12.587704174824012 L 240.2526315789474,12.489840957381592 L 241.38947368421051,12.013799321745104 L 242.52631578947367,11.211165765682804 L 243.66315789473686,10.16891808913686 L 244.79999999999998,9.0" style="stroke:black;fill:none;stroke-width:2.0;stroke-dasharray:-;stroke-linecap:round;stroke-linejoin:round;" /><path d="M 232.20000000000002,-6.12 L 235.79999999999998,-11.88" style="stroke:black;fill:none;stroke-width:2.0;stroke-dasharray:-;stroke-linecap:round;stroke-linejoin:round;" /><path d="M 232.20000000000002,2.88 L 235.79999999999998,-2.88" style="stroke:black;fill:none;stroke-width:2.0;stroke-dasharray:-;stroke-linecap:round;stroke-linejoin:round;" /><path d="M 252.0,-0.0 L 288.0,-0.0 L 315.0,-0.0" style="stroke:black;fill:none;stroke-width:2.0;stroke-dasharray:-;stroke-linecap:round;stroke-linejoin:round;" /><path d="M 322.0 0.0 L 315.0 2.6999999999999997 L 315.0 -2.6999999999999997 Z" style="stroke:black;fill:black;stroke-linecap:butt;stroke-linejoin:miter;" /><path d="M 331.2,-4.4087284769304716e-16 L 332.33684210526314,-1.168918089136861 L 333.47368421052636,-2.2111657656828045 L 334.61052631578946,-3.013799321745103 L 335.7473684210526,-3.4898409573815896 L 336.88421052631577,-3.5877041748240117 L 338.021052631579,-3.2967839759582067 L 339.1578947368421,-2.648606078423274 L 340.2947368421053,-1.7134106149334647 L 341.43157894736845,-0.5925405250106421 L 342.56842105263155,0.5925405250106421 L 343.7052631578947,1.7134106149334647 L 344.8421052631579,2.6486060784232732 L 345.978947368421,3.2967839759582063 L 347.11578947368423,3.5877041748240117 L 348.2526315789474,3.48984095738159 L 349.38947368421054,3.013799321745103 L 350.52631578947364,2.2111657656828045 L 351.66315789473686,1.168918089136861 L 352.8,4.4087284769304716e-16" style="stroke:black;fill:none;stroke-width:2.0;stroke-dasharray:-;stroke-linecap:round;stroke-linejoin:round;" /><path d="M 360.0,-0.0 L 378.0,-0.0 L 396.0,-0.0" style="stroke:black;fill:none;stroke-width:2.0;stroke-dasharray:-;stroke-linecap:round;stroke-linejoin:round;" /><path d="M 396.0,-0.0 L 414.0,-0.0 L 423.0,-0.0" style="stroke:black;fill:none;stroke-width:2.0;stroke-dasharray:-;stroke-linecap:round;stroke-linejoin:round;" /><path d="M 430.0 0.0 L 423.0 2.6999999999999997 L 423.0 -2.6999999999999997 Z" style="stroke:black;fill:black;stroke-linecap:butt;stroke-linejoin:miter;" /><path d="M 396.0,-0.0 L 396.0,36.0 L 396.0,72.0" style="stroke:black;fill:none;stroke-width:2.0;stroke-dasharray:-;stroke-linecap:round;stroke-linejoin:round;" /><path d="M 396.0,72.0 L 342.0,71.99999999999999 L 297.0,71.99999999999999" style="stroke:black;fill:none;stroke-width:2.0;stroke-dasharray:-;stroke-linecap:round;stroke-linejoin:round;" /><path d="M 290.0 71.99999999999999 L 297.0 69.29999999999998 L 297.0 74.69999999999999 Z" style="stroke:black;fill:black;stroke-linecap:butt;stroke-linejoin:miter;" /><path d="M 288.0,71.99999999999999 L 288.0,89.99999999999999 L 252.0,89.99999999999999 L 252.0,53.999999999999986 L 288.0,53.999999999999986 L 288.0,71.99999999999999" style="stroke:black;fill:none;stroke-width:2.0;stroke-dasharray:-;stroke-linecap:round;stroke-linejoin:round;" /><path d="M 252.0,71.99999999999997 L 189.0,71.99999999999997 L 126.0,71.99999999999996" style="stroke:black;fill:none;stroke-width:2.0;stroke-dasharray:-;stroke-linecap:round;stroke-linejoin:round;" /><path d="M 126.0,71.99999999999996 L 126.0,44.999999999999986 L 126.0,27.0" style="stroke:black;fill:none;stroke-width:2.0;stroke-dasharray:-;stroke-linecap:round;stroke-linejoin:round;" /><path d="M 126.0 20.0 L 128.7 27.0 L 123.3 27.0 Z" style="stroke:black;fill:black;stroke-linecap:butt;stroke-linejoin:miter;" /><g><g><g><path d="M 65.033 -18.688 L 65.033 -18.688 L 66.237 -18.688 Q 66.363 -19.276 66.51 -19.822 Q 66.657 -20.368 66.895 -20.802 Q 67.077 -21.138 67.343 -21.432 Q 67.609 -21.726 68.022 -21.915 Q 68.435 -22.104 69.037 -22.104 Q 69.681 -22.104 70.024 -21.817 Q 70.367 -21.53 70.367 -21.082 Q 70.367 -20.774 70.199 -20.62 Q 70.031 -20.466 69.807 -20.466 Q 69.527 -20.466 69.401 -20.627 Q 69.275 -20.788 69.247 -21.012 Q 69.205 -21.278 69.142 -21.488 Q 69.079 -21.698 68.827 -21.698 Q 68.295 -21.698 68.001 -21.138 Q 67.707 -20.578 67.553 -19.682 L 67.385 -18.688 L 68.715 -18.688 L 68.631 -18.114 L 67.315 -18.114 L 66.517 -13.34 Q 66.461 -12.976 66.342 -12.43 Q 66.223 -11.884 66.013 -11.289 Q 65.803 -10.694 65.502 -10.176 Q 65.201 -9.658 64.767 -9.329 Q 64.333 -9 63.759 -9 Q 63.087 -9 62.8 -9.322 Q 62.513 -9.644 62.513 -10.008 Q 62.513 -10.302 62.66 -10.498 Q 62.807 -10.694 63.073 -10.694 Q 63.395 -10.694 63.507 -10.505 Q 63.619 -10.316 63.647 -10.071 Q 63.675 -9.826 63.731 -9.637 Q 63.787 -9.448 63.983 -9.448 Q 64.263 -9.448 64.473 -9.812 Q 64.683 -10.176 64.837 -10.715 Q 64.991 -11.254 65.089 -11.786 Q 65.187 -12.318 65.243 -12.668 L 66.153 -18.114 L 64.977 -18.114 Z " fill="black" /><path d="M 69.831 -14.326 L 69.831 -14.326 L 69.831 -13.267 L 69.889 -13.267 Q 70.282 -13.816 70.59 -14.105 Q 70.899 -14.394 71.261 -14.394 Q 71.889 -14.394 71.889 -13.777 Q 71.889 -13.434 71.737 -13.297 Q 71.585 -13.159 71.409 -13.159 Q 71.232 -13.159 71.09 -13.257 Q 70.948 -13.355 70.85 -13.453 Q 70.752 -13.551 70.703 -13.551 Q 70.546 -13.551 70.296 -13.287 Q 70.046 -13.022 69.85 -12.689 L 69.85 -10.337 Q 69.85 -9.857 70.061 -9.715 Q 70.272 -9.573 70.811 -9.573 L 70.811 -9.21 L 68.145 -9.21 L 68.145 -9.573 Q 68.478 -9.573 68.635 -9.631 Q 68.792 -9.69 68.841 -9.842 Q 68.89 -9.994 68.89 -10.268 L 68.89 -13.11 Q 68.89 -13.424 68.836 -13.581 Q 68.782 -13.738 68.478 -13.738 Q 68.341 -13.738 68.243 -13.728 Q 68.145 -13.718 68.145 -13.718 L 68.145 -14.081 L 69.468 -14.326 Z " fill="black" /><path d="M 76.799 -10.67 L 76.799 -10.67 L 77.034 -10.484 Q 76.828 -10.112 76.573 -9.798 Q 76.318 -9.484 75.946 -9.298 Q 75.574 -9.112 75.005 -9.112 Q 74.388 -9.112 73.854 -9.391 Q 73.32 -9.671 72.996 -10.249 Q 72.673 -10.827 72.673 -11.709 Q 72.673 -12.581 72.977 -13.169 Q 73.28 -13.757 73.8 -14.056 Q 74.319 -14.355 74.956 -14.355 Q 75.838 -14.355 76.421 -13.742 Q 77.004 -13.13 77.024 -11.915 L 73.574 -11.915 Q 73.574 -11.248 73.824 -10.812 Q 74.074 -10.376 74.466 -10.166 Q 74.858 -9.955 75.289 -9.955 Q 75.73 -9.955 75.995 -10.048 Q 76.26 -10.141 76.441 -10.308 Q 76.622 -10.474 76.799 -10.67 Z M 73.574 -12.366 L 73.574 -12.366 L 75.975 -12.366 Q 75.975 -12.758 75.848 -13.105 Q 75.721 -13.453 75.476 -13.674 Q 75.231 -13.894 74.848 -13.894 Q 74.29 -13.894 73.961 -13.502 Q 73.633 -13.11 73.574 -12.366 Z " fill="black" /><path d="M 77.994 -14.228 L 77.994 -14.228 L 78.778 -14.228 Q 78.778 -14.747 78.852 -15.11 Q 78.925 -15.472 79.111 -15.835 Q 79.337 -16.188 79.655 -16.408 Q 79.974 -16.629 80.562 -16.629 Q 81.061 -16.629 81.414 -16.438 Q 81.767 -16.246 81.767 -15.874 Q 81.767 -15.639 81.635 -15.516 Q 81.502 -15.394 81.326 -15.394 Q 81.111 -15.394 80.988 -15.516 Q 80.865 -15.639 80.669 -15.845 Q 80.532 -16.041 80.424 -16.114 Q 80.317 -16.188 80.17 -16.188 Q 79.895 -16.188 79.807 -15.923 Q 79.719 -15.658 79.719 -15.012 L 79.719 -14.228 L 80.993 -14.228 L 80.993 -13.747 L 79.719 -13.747 L 79.719 -10.513 Q 79.719 -10.112 79.807 -9.911 Q 79.895 -9.71 80.13 -9.641 Q 80.366 -9.573 80.797 -9.573 L 80.797 -9.21 L 77.906 -9.21 L 77.906 -9.573 Q 78.278 -9.573 78.465 -9.641 Q 78.651 -9.71 78.714 -9.911 Q 78.778 -10.112 78.778 -10.513 L 78.778 -13.747 L 77.994 -13.747 Z " fill="black" /></g></g></g><g><g><g><path d="M 119.462 4.599 L 119.462 4.599 L 119.462 -4.599 L 122.15 -4.599 Q 123.2 -4.599 123.991 -4.34 Q 124.782 -4.081 125.23 -3.493 Q 125.678 -2.905 125.678 -1.897 Q 125.678 -0.917 125.237 -0.28 Q 124.796 0.357 124.019 0.665 Q 123.242 0.973 122.206 0.973 L 120.666 0.973 L 120.666 4.599 Z M 120.666 -0.007 L 120.666 -0.007 L 122.066 -0.007 Q 123.284 -0.007 123.879 -0.455 Q 124.474 -0.903 124.474 -1.883 Q 124.474 -2.877 123.858 -3.255 Q 123.242 -3.633 122.01 -3.633 L 120.666 -3.633 Z " fill="black" /><path d="M 127.582 4.599 L 127.582 4.599 L 127.582 -4.599 L 129.934 -4.599 Q 132.104 -4.599 133.238 -3.416 Q 134.372 -2.233 134.372 -0.035 Q 134.372 2.163 133.245 3.381 Q 132.118 4.599 129.99 4.599 Z M 128.786 3.619 L 128.786 3.619 L 129.85 3.619 Q 131.502 3.619 132.321 2.66 Q 133.14 1.701 133.14 -0.035 Q 133.14 -1.771 132.321 -2.695 Q 131.502 -3.619 129.85 -3.619 L 128.786 -3.619 Z " fill="black" /></g></g></g><g><g><g><path d="M 164.593 -20.088 L 164.593 -20.088 L 164.593 -29.804 L 165.517 -29.804 L 165.615 -29.034 L 165.657 -29.034 Q 166.105 -29.398 166.63 -29.678 Q 167.155 -29.958 167.827 -29.958 Q 168.611 -29.958 169.178 -29.545 Q 169.745 -29.132 170.053 -28.39 Q 170.361 -27.648 170.361 -26.654 Q 170.361 -25.492 169.962 -24.673 Q 169.563 -23.854 168.926 -23.427 Q 168.289 -23 167.547 -23 Q 167.085 -23 166.63 -23.189 Q 166.175 -23.378 165.685 -23.784 L 165.713 -22.608 L 165.713 -20.088 Z M 167.337 -23.952 L 167.337 -23.952 Q 168.135 -23.952 168.667 -24.645 Q 169.199 -25.338 169.199 -26.64 Q 169.199 -27.69 168.793 -28.355 Q 168.387 -29.02 167.519 -29.02 Q 167.085 -29.02 166.672 -28.817 Q 166.259 -28.614 165.713 -28.11 L 165.713 -24.638 Q 166.161 -24.26 166.574 -24.106 Q 166.987 -23.952 167.337 -23.952 Z " fill="black" /><path d="M 172.111 -23.168 L 172.111 -23.168 L 172.111 -32.884 L 173.231 -32.884 L 173.231 -30.238 L 173.203 -28.866 Q 173.665 -29.314 174.176 -29.636 Q 174.687 -29.958 175.415 -29.958 Q 176.409 -29.958 176.906 -29.3 Q 177.403 -28.642 177.403 -27.368 L 177.403 -23.168 L 176.269 -23.168 L 176.269 -27.228 Q 176.269 -28.152 175.982 -28.565 Q 175.695 -28.978 175.051 -28.978 Q 174.533 -28.978 174.127 -28.726 Q 173.721 -28.474 173.231 -27.97 L 173.231 -23.168 Z " fill="black" /><path d="M 181.001 -23 L 181.001 -23 Q 180.189 -23 179.636 -23.497 Q 179.083 -23.994 179.083 -24.89 Q 179.083 -25.982 180.049 -26.563 Q 181.015 -27.144 183.129 -27.368 Q 183.129 -27.802 183.017 -28.18 Q 182.905 -28.558 182.604 -28.796 Q 182.303 -29.034 181.757 -29.034 Q 181.211 -29.034 180.707 -28.81 Q 180.203 -28.586 179.811 -28.334 L 179.363 -29.104 Q 179.825 -29.412 180.497 -29.685 Q 181.169 -29.958 181.953 -29.958 Q 183.157 -29.958 183.703 -29.223 Q 184.249 -28.488 184.249 -27.242 L 184.249 -23.168 L 183.325 -23.168 L 183.227 -23.966 L 183.199 -23.966 Q 182.723 -23.574 182.177 -23.287 Q 181.631 -23 181.001 -23 Z M 181.337 -23.91 L 181.337 -23.91 Q 181.813 -23.91 182.233 -24.141 Q 182.653 -24.372 183.129 -24.778 L 183.129 -26.626 Q 181.505 -26.43 180.84 -26.024 Q 180.175 -25.618 180.175 -24.96 Q 180.175 -24.414 180.518 -24.162 Q 180.861 -23.91 181.337 -23.91 Z " fill="black" /><path d="M 188.099 -23 L 188.099 -23 Q 187.343 -23 186.699 -23.266 Q 186.055 -23.532 185.593 -23.924 L 186.139 -24.666 Q 186.587 -24.316 187.042 -24.099 Q 187.497 -23.882 188.057 -23.882 Q 188.729 -23.882 189.058 -24.183 Q 189.387 -24.484 189.387 -24.89 Q 189.387 -25.24 189.177 -25.471 Q 188.967 -25.702 188.624 -25.863 Q 188.281 -26.024 187.875 -26.164 Q 187.413 -26.346 186.958 -26.577 Q 186.503 -26.808 186.209 -27.172 Q 185.915 -27.536 185.915 -28.096 Q 185.915 -28.88 186.524 -29.419 Q 187.133 -29.958 188.155 -29.958 Q 188.855 -29.958 189.366 -29.734 Q 189.877 -29.51 190.241 -29.23 L 189.709 -28.502 Q 189.359 -28.754 188.995 -28.922 Q 188.631 -29.09 188.183 -29.09 Q 187.581 -29.09 187.287 -28.803 Q 186.993 -28.516 186.993 -28.152 Q 186.993 -27.83 187.196 -27.627 Q 187.399 -27.424 187.735 -27.284 Q 188.071 -27.144 188.449 -26.99 Q 188.897 -26.822 189.359 -26.605 Q 189.821 -26.388 190.136 -26.01 Q 190.451 -25.632 190.451 -25.002 Q 190.451 -24.176 189.835 -23.588 Q 189.219 -23 188.099 -23 Z " fill="black" /><path d="M 194.693 -23 L 194.693 -23 Q 193.811 -23 193.09 -23.413 Q 192.369 -23.826 191.942 -24.603 Q 191.515 -25.38 191.515 -26.458 Q 191.515 -27.55 191.935 -28.334 Q 192.355 -29.118 193.048 -29.538 Q 193.741 -29.958 194.553 -29.958 Q 195.729 -29.958 196.422 -29.118 Q 197.115 -28.278 197.115 -26.85 Q 197.115 -26.668 197.101 -26.507 Q 197.087 -26.346 197.059 -26.22 L 192.621 -26.22 Q 192.691 -25.156 193.279 -24.526 Q 193.867 -23.896 194.819 -23.896 Q 195.281 -23.896 195.687 -24.043 Q 196.093 -24.19 196.457 -24.428 L 196.849 -23.7 Q 196.415 -23.406 195.883 -23.203 Q 195.351 -23 194.693 -23 Z M 192.621 -27.018 L 192.621 -27.018 L 196.135 -27.018 Q 196.135 -28.012 195.708 -28.537 Q 195.281 -29.062 194.539 -29.062 Q 193.811 -29.062 193.272 -28.544 Q 192.733 -28.026 192.621 -27.018 Z " fill="black" /></g><g><path d="M 170.011 -9 L 170.011 -9 Q 169.129 -9 168.408 -9.413 Q 167.687 -9.826 167.26 -10.603 Q 166.833 -11.38 166.833 -12.458 Q 166.833 -13.55 167.253 -14.334 Q 167.673 -15.118 168.366 -15.538 Q 169.059 -15.958 169.871 -15.958 Q 171.047 -15.958 171.74 -15.118 Q 172.433 -14.278 172.433 -12.85 Q 172.433 -12.668 172.419 -12.507 Q 172.405 -12.346 172.377 -12.22 L 167.939 -12.22 Q 168.009 -11.156 168.597 -10.526 Q 169.185 -9.896 170.137 -9.896 Q 170.599 -9.896 171.005 -10.043 Q 171.411 -10.19 171.775 -10.428 L 172.167 -9.7 Q 171.733 -9.406 171.201 -9.203 Q 170.669 -9 170.011 -9 Z M 167.939 -13.018 L 167.939 -13.018 L 171.453 -13.018 Q 171.453 -14.012 171.026 -14.537 Q 170.599 -15.062 169.857 -15.062 Q 169.129 -15.062 168.59 -14.544 Q 168.051 -14.026 167.939 -13.018 Z " fill="black" /><path d="M 174.043 -9.168 L 174.043 -9.168 L 174.043 -15.804 L 174.967 -15.804 L 175.065 -14.586 L 175.107 -14.586 Q 175.471 -15.244 175.947 -15.601 Q 176.423 -15.958 177.039 -15.958 Q 177.193 -15.958 177.361 -15.93 Q 177.529 -15.902 177.683 -15.832 L 177.473 -14.838 Q 177.291 -14.894 177.165 -14.922 Q 177.039 -14.95 176.885 -14.95 Q 176.423 -14.95 175.961 -14.614 Q 175.499 -14.278 175.163 -13.424 L 175.163 -9.168 Z " fill="black" /><path d="M 178.747 -9.168 L 178.747 -9.168 L 178.747 -15.804 L 179.671 -15.804 L 179.769 -14.586 L 179.811 -14.586 Q 180.175 -15.244 180.651 -15.601 Q 181.127 -15.958 181.743 -15.958 Q 181.897 -15.958 182.065 -15.93 Q 182.233 -15.902 182.387 -15.832 L 182.177 -14.838 Q 181.995 -14.894 181.869 -14.922 Q 181.743 -14.95 181.589 -14.95 Q 181.127 -14.95 180.665 -14.614 Q 180.203 -14.278 179.867 -13.424 L 179.867 -9.168 Z " fill="black" /><path d="M 186.013 -9 L 186.013 -9 Q 185.215 -9 184.515 -9.413 Q 183.815 -9.826 183.388 -10.603 Q 182.961 -11.38 182.961 -12.486 Q 182.961 -13.592 183.388 -14.362 Q 183.815 -15.132 184.515 -15.545 Q 185.215 -15.958 186.013 -15.958 Q 186.825 -15.958 187.525 -15.545 Q 188.225 -15.132 188.652 -14.362 Q 189.079 -13.592 189.079 -12.486 Q 189.079 -11.38 188.652 -10.603 Q 188.225 -9.826 187.525 -9.413 Q 186.825 -9 186.013 -9 Z M 186.013 -9.938 L 186.013 -9.938 Q 186.867 -9.938 187.392 -10.638 Q 187.917 -11.338 187.917 -12.486 Q 187.917 -13.62 187.392 -14.32 Q 186.867 -15.02 186.013 -15.02 Q 185.173 -15.02 184.648 -14.32 Q 184.123 -13.62 184.123 -12.486 Q 184.123 -11.338 184.648 -10.638 Q 185.173 -9.938 186.013 -9.938 Z " fill="black" /><path d="M 190.801 -9.168 L 190.801 -9.168 L 190.801 -15.804 L 191.725 -15.804 L 191.823 -14.586 L 191.865 -14.586 Q 192.229 -15.244 192.705 -15.601 Q 193.181 -15.958 193.797 -15.958 Q 193.951 -15.958 194.119 -15.93 Q 194.287 -15.902 194.441 -15.832 L 194.231 -14.838 Q 194.049 -14.894 193.923 -14.922 Q 193.797 -14.95 193.643 -14.95 Q 193.181 -14.95 192.719 -14.614 Q 192.257 -14.278 191.921 -13.424 L 191.921 -9.168 Z " fill="black" /></g></g></g><g><g><g><path d="M 272.831 -26.038 L 272.831 -26.038 Q 271.851 -26.038 271.424 -26.654 Q 270.997 -27.27 270.997 -28.264 L 270.997 -31.848 L 270.031 -31.848 L 270.031 -32.688 L 271.053 -32.758 L 271.193 -34.704 L 272.117 -34.704 L 272.117 -32.758 L 273.895 -32.758 L 273.895 -31.848 L 272.117 -31.848 L 272.117 -28.236 Q 272.117 -27.648 272.341 -27.305 Q 272.565 -26.962 273.097 -26.962 Q 273.321 -26.962 273.524 -27.018 Q 273.727 -27.074 273.881 -27.144 L 274.105 -26.29 Q 273.825 -26.192 273.51 -26.115 Q 273.195 -26.038 272.831 -26.038 Z " fill="black" /><path d="M 277.283 -26.038 L 277.283 -26.038 Q 276.275 -26.038 275.785 -26.71 Q 275.295 -27.382 275.295 -28.628 L 275.295 -32.842 L 276.415 -32.842 L 276.415 -28.782 Q 276.415 -27.872 276.709 -27.445 Q 277.003 -27.018 277.647 -27.018 Q 278.165 -27.018 278.557 -27.284 Q 278.949 -27.55 279.425 -28.138 L 279.425 -32.842 L 280.545 -32.842 L 280.545 -26.206 L 279.607 -26.206 L 279.523 -27.242 L 279.481 -27.242 Q 278.991 -26.668 278.48 -26.353 Q 277.969 -26.038 277.283 -26.038 Z " fill="black" /><path d="M 282.757 -26.206 L 282.757 -26.206 L 282.757 -32.842 L 283.681 -32.842 L 283.779 -31.89 L 283.821 -31.89 Q 284.297 -32.352 284.815 -32.674 Q 285.333 -32.996 286.061 -32.996 Q 287.055 -32.996 287.552 -32.338 Q 288.049 -31.68 288.049 -30.406 L 288.049 -26.206 L 286.915 -26.206 L 286.915 -30.266 Q 286.915 -31.19 286.628 -31.603 Q 286.341 -32.016 285.697 -32.016 Q 285.179 -32.016 284.773 -31.764 Q 284.367 -31.512 283.877 -31.008 L 283.877 -26.206 Z " fill="black" /><path d="M 290.163 -26.206 L 290.163 -26.206 L 290.163 -32.842 L 291.283 -32.842 L 291.283 -26.206 Z M 290.737 -34.2 L 290.737 -34.2 Q 290.415 -34.2 290.191 -34.41 Q 289.967 -34.62 289.967 -34.928 Q 289.967 -35.25 290.191 -35.453 Q 290.415 -35.656 290.737 -35.656 Q 291.059 -35.656 291.283 -35.453 Q 291.507 -35.25 291.507 -34.928 Q 291.507 -34.62 291.283 -34.41 Q 291.059 -34.2 290.737 -34.2 Z " fill="black" /><path d="M 293.509 -26.206 L 293.509 -26.206 L 293.509 -32.842 L 294.433 -32.842 L 294.531 -31.89 L 294.573 -31.89 Q 295.049 -32.352 295.567 -32.674 Q 296.085 -32.996 296.813 -32.996 Q 297.807 -32.996 298.304 -32.338 Q 298.801 -31.68 298.801 -30.406 L 298.801 -26.206 L 297.667 -26.206 L 297.667 -30.266 Q 297.667 -31.19 297.38 -31.603 Q 297.093 -32.016 296.449 -32.016 Q 295.931 -32.016 295.525 -31.764 Q 295.119 -31.512 294.629 -31.008 L 294.629 -26.206 Z " fill="black" /><path d="M 303.155 -23 L 303.155 -23 Q 301.937 -23 301.181 -23.49 Q 300.425 -23.98 300.425 -24.834 Q 300.425 -25.324 300.677 -25.723 Q 300.929 -26.122 301.391 -26.43 L 301.391 -26.486 Q 301.139 -26.64 300.964 -26.913 Q 300.789 -27.186 300.789 -27.55 Q 300.789 -27.998 301.027 -28.313 Q 301.265 -28.628 301.531 -28.81 L 301.531 -28.852 Q 301.195 -29.118 300.929 -29.58 Q 300.663 -30.042 300.663 -30.672 Q 300.663 -31.372 301.006 -31.897 Q 301.349 -32.422 301.916 -32.709 Q 302.483 -32.996 303.141 -32.996 Q 303.421 -32.996 303.666 -32.947 Q 303.911 -32.898 304.093 -32.828 L 306.389 -32.828 L 306.389 -31.96 L 305.045 -31.96 Q 305.269 -31.736 305.409 -31.386 Q 305.549 -31.036 305.549 -30.574 Q 305.549 -29.888 305.22 -29.377 Q 304.891 -28.866 304.359 -28.586 Q 303.827 -28.306 303.197 -28.306 Q 302.637 -28.306 302.161 -28.53 Q 301.979 -28.39 301.86 -28.215 Q 301.741 -28.04 301.741 -27.76 Q 301.741 -27.438 301.993 -27.235 Q 302.245 -27.032 302.889 -27.032 L 304.177 -27.032 Q 306.473 -27.032 306.473 -25.45 Q 306.473 -24.764 306.067 -24.211 Q 305.661 -23.658 304.919 -23.329 Q 304.177 -23 303.155 -23 Z M 303.253 -23.77 L 303.253 -23.77 Q 304.247 -23.77 304.814 -24.211 Q 305.381 -24.652 305.381 -25.254 Q 305.381 -25.716 305.031 -25.912 Q 304.681 -26.108 304.065 -26.108 L 302.917 -26.108 Q 302.735 -26.108 302.511 -26.129 Q 302.287 -26.15 302.063 -26.206 Q 301.713 -25.94 301.552 -25.639 Q 301.391 -25.338 301.391 -25.03 Q 301.391 -24.456 301.902 -24.113 Q 302.413 -23.77 303.253 -23.77 Z M 303.141 -29.062 L 303.141 -29.062 Q 303.715 -29.062 304.128 -29.489 Q 304.541 -29.916 304.541 -30.644 Q 304.541 -31.358 304.135 -31.771 Q 303.729 -32.184 303.141 -32.184 Q 302.567 -32.184 302.154 -31.778 Q 301.741 -31.372 301.741 -30.644 Q 301.741 -29.916 302.161 -29.489 Q 302.581 -29.062 303.141 -29.062 Z " fill="black" /></g><g><path d="M 269.562 -12.206 L 269.562 -12.206 L 267.196 -18.842 L 268.344 -18.842 L 269.59 -15.076 Q 269.744 -14.6 269.898 -14.096 Q 270.052 -13.592 270.192 -13.116 L 270.248 -13.116 Q 270.402 -13.592 270.556 -14.096 Q 270.71 -14.6 270.85 -15.076 L 272.096 -18.842 L 273.202 -18.842 L 270.864 -12.206 Z " fill="black" /><path d="M 277.038 -12.038 L 277.038 -12.038 Q 276.24 -12.038 275.54 -12.451 Q 274.84 -12.864 274.413 -13.641 Q 273.986 -14.418 273.986 -15.524 Q 273.986 -16.63 274.413 -17.4 Q 274.84 -18.17 275.54 -18.583 Q 276.24 -18.996 277.038 -18.996 Q 277.85 -18.996 278.55 -18.583 Q 279.25 -18.17 279.677 -17.4 Q 280.104 -16.63 280.104 -15.524 Q 280.104 -14.418 279.677 -13.641 Q 279.25 -12.864 278.55 -12.451 Q 277.85 -12.038 277.038 -12.038 Z M 277.038 -12.976 L 277.038 -12.976 Q 277.892 -12.976 278.417 -13.676 Q 278.942 -14.376 278.942 -15.524 Q 278.942 -16.658 278.417 -17.358 Q 277.892 -18.058 277.038 -18.058 Q 276.198 -18.058 275.673 -17.358 Q 275.148 -16.658 275.148 -15.524 Q 275.148 -14.376 275.673 -13.676 Q 276.198 -12.976 277.038 -12.976 Z " fill="black" /><path d="M 283.03 -12.038 L 283.03 -12.038 Q 282.386 -12.038 282.106 -12.423 Q 281.826 -12.808 281.826 -13.536 L 281.826 -22.09 L 282.946 -22.09 L 282.946 -13.466 Q 282.946 -13.2 283.044 -13.088 Q 283.142 -12.976 283.268 -12.976 Q 283.31 -12.976 283.359 -12.983 Q 283.408 -12.99 283.506 -13.004 L 283.646 -12.15 Q 283.534 -12.108 283.387 -12.073 Q 283.24 -12.038 283.03 -12.038 Z " fill="black" /><path d="M 287.314 -12.038 L 287.314 -12.038 Q 286.334 -12.038 285.907 -12.654 Q 285.48 -13.27 285.48 -14.264 L 285.48 -17.848 L 284.514 -17.848 L 284.514 -18.688 L 285.536 -18.758 L 285.676 -20.704 L 286.6 -20.704 L 286.6 -18.758 L 288.378 -18.758 L 288.378 -17.848 L 286.6 -17.848 L 286.6 -14.236 Q 286.6 -13.648 286.824 -13.305 Q 287.048 -12.962 287.58 -12.962 Q 287.804 -12.962 288.007 -13.018 Q 288.21 -13.074 288.364 -13.144 L 288.588 -12.29 Q 288.308 -12.192 287.993 -12.115 Q 287.678 -12.038 287.314 -12.038 Z " fill="black" /><path d="M 291.374 -12.038 L 291.374 -12.038 Q 290.562 -12.038 290.009 -12.535 Q 289.456 -13.032 289.456 -13.928 Q 289.456 -15.02 290.422 -15.601 Q 291.388 -16.182 293.502 -16.406 Q 293.502 -16.84 293.39 -17.218 Q 293.278 -17.596 292.977 -17.834 Q 292.676 -18.072 292.13 -18.072 Q 291.584 -18.072 291.08 -17.848 Q 290.576 -17.624 290.184 -17.372 L 289.736 -18.142 Q 290.198 -18.45 290.87 -18.723 Q 291.542 -18.996 292.326 -18.996 Q 293.53 -18.996 294.076 -18.261 Q 294.622 -17.526 294.622 -16.28 L 294.622 -12.206 L 293.698 -12.206 L 293.6 -13.004 L 293.572 -13.004 Q 293.096 -12.612 292.55 -12.325 Q 292.004 -12.038 291.374 -12.038 Z M 291.71 -12.948 L 291.71 -12.948 Q 292.186 -12.948 292.606 -13.179 Q 293.026 -13.41 293.502 -13.816 L 293.502 -15.664 Q 291.878 -15.468 291.213 -15.062 Q 290.548 -14.656 290.548 -13.998 Q 290.548 -13.452 290.891 -13.2 Q 291.234 -12.948 291.71 -12.948 Z " fill="black" /><path d="M 298.934 -9 L 298.934 -9 Q 297.716 -9 296.96 -9.49 Q 296.204 -9.98 296.204 -10.834 Q 296.204 -11.324 296.456 -11.723 Q 296.708 -12.122 297.17 -12.43 L 297.17 -12.486 Q 296.918 -12.64 296.743 -12.913 Q 296.568 -13.186 296.568 -13.55 Q 296.568 -13.998 296.806 -14.313 Q 297.044 -14.628 297.31 -14.81 L 297.31 -14.852 Q 296.974 -15.118 296.708 -15.58 Q 296.442 -16.042 296.442 -16.672 Q 296.442 -17.372 296.785 -17.897 Q 297.128 -18.422 297.695 -18.709 Q 298.262 -18.996 298.92 -18.996 Q 299.2 -18.996 299.445 -18.947 Q 299.69 -18.898 299.872 -18.828 L 302.168 -18.828 L 302.168 -17.96 L 300.824 -17.96 Q 301.048 -17.736 301.188 -17.386 Q 301.328 -17.036 301.328 -16.574 Q 301.328 -15.888 300.999 -15.377 Q 300.67 -14.866 300.138 -14.586 Q 299.606 -14.306 298.976 -14.306 Q 298.416 -14.306 297.94 -14.53 Q 297.758 -14.39 297.639 -14.215 Q 297.52 -14.04 297.52 -13.76 Q 297.52 -13.438 297.772 -13.235 Q 298.024 -13.032 298.668 -13.032 L 299.956 -13.032 Q 302.252 -13.032 302.252 -11.45 Q 302.252 -10.764 301.846 -10.211 Q 301.44 -9.658 300.698 -9.329 Q 299.956 -9 298.934 -9 Z M 299.032 -9.77 L 299.032 -9.77 Q 300.026 -9.77 300.593 -10.211 Q 301.16 -10.652 301.16 -11.254 Q 301.16 -11.716 300.81 -11.912 Q 300.46 -12.108 299.844 -12.108 L 298.696 -12.108 Q 298.514 -12.108 298.29 -12.129 Q 298.066 -12.15 297.842 -12.206 Q 297.492 -11.94 297.331 -11.639 Q 297.17 -11.338 297.17 -11.03 Q 297.17 -10.456 297.681 -10.113 Q 298.192 -9.77 299.032 -9.77 Z M 298.92 -15.062 L 298.92 -15.062 Q 299.494 -15.062 299.907 -15.489 Q 300.32 -15.916 300.32 -16.644 Q 300.32 -17.358 299.914 -17.771 Q 299.508 -18.184 298.92 -18.184 Q 298.346 -18.184 297.933 -17.778 Q 297.52 -17.372 297.52 -16.644 Q 297.52 -15.916 297.94 -15.489 Q 298.36 -15.062 298.92 -15.062 Z " fill="black" /><path d="M 306.214 -12.038 L 306.214 -12.038 Q 305.332 -12.038 304.611 -12.451 Q 303.89 -12.864 303.463 -13.641 Q 303.036 -14.418 303.036 -15.496 Q 303.036 -16.588 303.456 -17.372 Q 303.876 -18.156 304.569 -18.576 Q 305.262 -18.996 306.074 -18.996 Q 307.25 -18.996 307.943 -18.156 Q 308.636 -17.316 308.636 -15.888 Q 308.636 -15.706 308.622 -15.545 Q 308.608 -15.384 308.58 -15.258 L 304.142 -15.258 Q 304.212 -14.194 304.8 -13.564 Q 305.388 -12.934 306.34 -12.934 Q 306.802 -12.934 307.208 -13.081 Q 307.614 -13.228 307.978 -13.466 L 308.37 -12.738 Q 307.936 -12.444 307.404 -12.241 Q 306.872 -12.038 306.214 -12.038 Z M 304.142 -16.056 L 304.142 -16.056 L 307.656 -16.056 Q 307.656 -17.05 307.229 -17.575 Q 306.802 -18.1 306.06 -18.1 Q 305.332 -18.1 304.793 -17.582 Q 304.254 -17.064 304.142 -16.056 Z " fill="black" /></g></g></g><g><g><g><path d="M 332.48 -25.368 L 332.48 -25.368 L 329.484 -34.566 L 330.758 -34.566 L 332.27 -29.61 Q 332.508 -28.798 332.704 -28.091 Q 332.9 -27.384 333.166 -26.572 L 333.236 -26.572 Q 333.488 -27.384 333.691 -28.091 Q 333.894 -28.798 334.132 -29.61 L 335.63 -34.566 L 336.848 -34.566 L 333.866 -25.368 Z " fill="black" /><path d="M 341.692 -25.2 L 341.692 -25.2 Q 340.53 -25.2 339.599 -25.767 Q 338.668 -26.334 338.136 -27.398 Q 337.604 -28.462 337.604 -29.932 Q 337.604 -31.43 338.15 -32.501 Q 338.696 -33.572 339.627 -34.146 Q 340.558 -34.72 341.706 -34.72 Q 342.686 -34.72 343.316 -34.363 Q 343.946 -34.006 344.338 -33.586 L 343.68 -32.816 Q 342.868 -33.684 341.748 -33.684 Q 340.894 -33.684 340.236 -33.236 Q 339.578 -32.788 339.207 -31.955 Q 338.836 -31.122 338.836 -29.96 Q 338.836 -28.826 339.193 -27.993 Q 339.55 -27.16 340.201 -26.705 Q 340.852 -26.25 341.734 -26.25 Q 342.406 -26.25 342.938 -26.523 Q 343.47 -26.796 343.918 -27.272 L 344.562 -26.53 Q 344.002 -25.9 343.302 -25.55 Q 342.602 -25.2 341.692 -25.2 Z " fill="black" /><path d="M 349.784 -25.2 L 349.784 -25.2 Q 348.608 -25.2 347.705 -25.781 Q 346.802 -26.362 346.291 -27.44 Q 345.78 -28.518 345.78 -30.002 Q 345.78 -31.472 346.291 -32.529 Q 346.802 -33.586 347.705 -34.153 Q 348.608 -34.72 349.784 -34.72 Q 350.974 -34.72 351.877 -34.153 Q 352.78 -33.586 353.291 -32.529 Q 353.802 -31.472 353.802 -30.002 Q 353.802 -28.532 353.291 -27.454 Q 352.78 -26.376 351.877 -25.788 Q 350.974 -25.2 349.784 -25.2 Z M 349.784 -26.25 L 349.784 -26.25 Q 350.624 -26.25 351.247 -26.712 Q 351.87 -27.174 352.213 -28.021 Q 352.556 -28.868 352.556 -30.002 Q 352.556 -31.71 351.8 -32.697 Q 351.044 -33.684 349.784 -33.684 Q 348.524 -33.684 347.768 -32.697 Q 347.012 -31.71 347.012 -30.002 Q 347.012 -28.868 347.355 -28.021 Q 347.698 -27.174 348.321 -26.712 Q 348.944 -26.25 349.784 -26.25 Z " fill="black" /></g></g></g><circle cx="396.0" cy="-0.0" r="2.6999999999999997" style="stroke:black;fill:black;stroke-width:2.0;stroke-dasharray:-;" /><g><g><g><path d="M 438.26 -3.136 L 438.26 -3.136 L 439.464 -3.136 Q 439.59 -3.724 439.737 -4.27 Q 439.884 -4.816 440.122 -5.25 Q 440.304 -5.586 440.57 -5.88 Q 440.836 -6.174 441.249 -6.363 Q 441.662 -6.552 442.264 -6.552 Q 442.908 -6.552 443.251 -6.265 Q 443.594 -5.978 443.594 -5.53 Q 443.594 -5.222 443.426 -5.068 Q 443.258 -4.914 443.034 -4.914 Q 442.754 -4.914 442.628 -5.075 Q 442.502 -5.236 442.474 -5.46 Q 442.432 -5.726 442.369 -5.936 Q 442.306 -6.146 442.054 -6.146 Q 441.522 -6.146 441.228 -5.586 Q 440.934 -5.026 440.78 -4.13 L 440.612 -3.136 L 441.942 -3.136 L 441.858 -2.562 L 440.542 -2.562 L 439.744 2.212 Q 439.688 2.576 439.569 3.122 Q 439.45 3.668 439.24 4.263 Q 439.03 4.858 438.729 5.376 Q 438.428 5.894 437.994 6.223 Q 437.56 6.552 436.986 6.552 Q 436.314 6.552 436.027 6.23 Q 435.74 5.908 435.74 5.544 Q 435.74 5.25 435.887 5.054 Q 436.034 4.858 436.3 4.858 Q 436.622 4.858 436.734 5.047 Q 436.846 5.236 436.874 5.481 Q 436.902 5.726 436.958 5.915 Q 437.014 6.104 437.21 6.104 Q 437.49 6.104 437.7 5.74 Q 437.91 5.376 438.064 4.837 Q 438.218 4.298 438.316 3.766 Q 438.414 3.234 438.47 2.884 L 439.38 -2.562 L 438.204 -2.562 Z " fill="black" /><path d="M 443.92 1.197 L 443.92 1.197 Q 444.655 1.197 445.204 1.516 Q 445.753 1.834 446.052 2.407 Q 446.351 2.981 446.351 3.755 Q 446.351 4.686 446.037 5.284 Q 445.723 5.881 445.175 6.171 Q 444.626 6.46 443.92 6.46 Q 443.205 6.46 442.651 6.161 Q 442.097 5.862 441.789 5.264 Q 441.48 4.666 441.48 3.765 Q 441.48 3 441.784 2.422 Q 442.088 1.844 442.636 1.52 Q 443.185 1.197 443.92 1.197 Z M 443.901 1.648 L 443.901 1.648 Q 443.254 1.648 442.886 2.172 Q 442.519 2.696 442.519 3.706 Q 442.519 4.95 442.896 5.465 Q 443.273 5.979 443.95 5.979 Q 444.381 5.97 444.685 5.764 Q 444.988 5.558 445.15 5.073 Q 445.312 4.588 445.312 3.755 Q 445.312 2.755 444.969 2.202 Q 444.626 1.648 443.901 1.648 Z " fill="black" /><path d="M 453.015 5.842 L 453.015 5.842 L 453.015 6.215 L 451.692 6.391 L 451.378 6.391 L 451.378 5.627 L 451.28 5.627 Q 450.908 5.96 450.525 6.2 Q 450.143 6.44 449.604 6.44 Q 448.879 6.44 448.497 5.999 Q 448.115 5.558 448.115 4.47 L 448.115 2.363 Q 448.115 1.961 447.972 1.868 Q 447.83 1.775 447.38 1.775 L 447.38 1.422 L 448.742 1.236 L 449.065 1.236 L 449.065 4.343 Q 449.065 4.892 449.193 5.195 Q 449.32 5.499 449.536 5.617 Q 449.751 5.734 450.006 5.734 Q 450.437 5.734 450.726 5.553 Q 451.015 5.372 451.329 5.117 L 451.329 2.363 Q 451.329 1.961 451.153 1.868 Q 450.976 1.775 450.476 1.775 L 450.476 1.422 L 451.937 1.236 L 452.28 1.236 L 452.28 5.205 Q 452.28 5.499 452.333 5.636 Q 452.387 5.774 452.525 5.808 Q 452.662 5.842 452.907 5.842 Z " fill="black" /><path d="M 456.837 5.362 L 456.837 5.362 L 457.062 5.548 Q 456.846 5.842 456.67 6.043 Q 456.494 6.244 456.268 6.352 Q 456.043 6.46 455.69 6.46 Q 455.122 6.46 454.862 6.136 Q 454.602 5.813 454.602 5.097 L 454.602 1.805 L 453.985 1.805 L 453.985 1.511 Q 454.338 1.256 454.632 0.888 Q 454.926 0.521 455.22 -0.165 L 455.563 -0.165 L 455.553 1.324 L 456.797 1.324 L 456.797 1.805 L 455.553 1.805 L 455.553 4.774 Q 455.553 5.323 455.656 5.553 Q 455.759 5.783 456.072 5.783 Q 456.356 5.783 456.503 5.681 Q 456.65 5.578 456.837 5.362 Z " fill="black" /></g></g></g><g><g><g><path d="M 266.647 75.843 L 266.647 75.843 Q 266.647 76.165 266.423 76.41 Q 266.199 76.655 265.779 76.655 Q 265.359 76.655 265.156 76.417 Q 264.953 76.179 264.953 75.829 Q 264.953 75.465 265.177 75.206 Q 265.401 74.947 265.793 74.947 Q 266.199 74.947 266.423 75.213 Q 266.647 75.479 266.647 75.843 Z M 266.647 70.747 L 266.647 70.747 Q 266.647 71.069 266.423 71.314 Q 266.199 71.559 265.779 71.559 Q 265.359 71.559 265.156 71.321 Q 264.953 71.083 264.953 70.733 Q 264.953 70.369 265.177 70.11 Q 265.401 69.851 265.793 69.851 Q 266.199 69.851 266.423 70.117 Q 266.647 70.383 266.647 70.747 Z " fill="black" /><path d="M 268.803 76.543 L 268.803 76.543 L 268.803 67.345 L 270.049 67.345 L 273.437 73.099 L 274.445 75.003 L 274.515 75.003 Q 274.473 74.303 274.417 73.547 Q 274.361 72.791 274.361 72.063 L 274.361 67.345 L 275.495 67.345 L 275.495 76.543 L 274.263 76.543 L 270.861 70.789 L 269.853 68.885 L 269.797 68.885 Q 269.839 69.585 269.895 70.32 Q 269.951 71.055 269.951 71.769 L 269.951 76.543 Z " fill="black" /></g></g></g><g><g><g><path d="M 154.497 58.712 L 154.497 58.712 L 155.701 58.712 Q 155.827 58.124 155.974 57.578 Q 156.121 57.032 156.359 56.598 Q 156.541 56.262 156.807 55.968 Q 157.073 55.674 157.486 55.485 Q 157.899 55.296 158.501 55.296 Q 159.145 55.296 159.488 55.583 Q 159.831 55.87 159.831 56.318 Q 159.831 56.626 159.663 56.78 Q 159.495 56.934 159.271 56.934 Q 158.991 56.934 158.865 56.773 Q 158.739 56.612 158.711 56.388 Q 158.669 56.122 158.606 55.912 Q 158.543 55.702 158.291 55.702 Q 157.759 55.702 157.465 56.262 Q 157.171 56.822 157.017 57.718 L 156.849 58.712 L 158.179 58.712 L 158.095 59.286 L 156.779 59.286 L 155.981 64.06 Q 155.925 64.424 155.806 64.97 Q 155.687 65.516 155.477 66.111 Q 155.267 66.706 154.966 67.224 Q 154.665 67.742 154.231 68.071 Q 153.797 68.4 153.223 68.4 Q 152.551 68.4 152.264 68.078 Q 151.977 67.756 151.977 67.392 Q 151.977 67.098 152.124 66.902 Q 152.271 66.706 152.537 66.706 Q 152.859 66.706 152.971 66.895 Q 153.083 67.084 153.111 67.329 Q 153.139 67.574 153.195 67.763 Q 153.251 67.952 153.447 67.952 Q 153.727 67.952 153.937 67.588 Q 154.147 67.224 154.301 66.685 Q 154.455 66.146 154.553 65.614 Q 154.651 65.082 154.707 64.732 L 155.617 59.286 L 154.441 59.286 Z " fill="black" /><path d="M 157.57 63.172 L 157.57 63.172 L 158.354 63.172 Q 158.354 62.653 158.428 62.29 Q 158.501 61.928 158.688 61.565 Q 158.913 61.212 159.231 60.992 Q 159.55 60.771 160.138 60.771 Q 160.638 60.771 160.991 60.962 Q 161.343 61.154 161.343 61.526 Q 161.343 61.761 161.211 61.884 Q 161.079 62.006 160.902 62.006 Q 160.687 62.006 160.564 61.884 Q 160.442 61.761 160.246 61.555 Q 160.109 61.359 160.001 61.286 Q 159.893 61.212 159.746 61.212 Q 159.472 61.212 159.383 61.477 Q 159.295 61.742 159.295 62.388 L 159.295 63.172 L 160.569 63.172 L 160.569 63.653 L 159.295 63.653 L 159.295 66.887 Q 159.295 67.288 159.383 67.489 Q 159.472 67.69 159.707 67.759 Q 159.942 67.827 160.373 67.827 L 160.373 68.19 L 157.482 68.19 L 157.482 67.827 Q 157.855 67.827 158.041 67.759 Q 158.227 67.69 158.291 67.489 Q 158.354 67.288 158.354 66.887 L 158.354 63.653 L 157.57 63.653 Z " fill="black" /><path d="M 163.392 60.869 L 163.392 60.869 L 163.392 63.907 L 163.441 63.907 Q 163.725 63.574 164.112 63.31 Q 164.499 63.045 165.048 63.045 Q 165.557 63.045 165.974 63.354 Q 166.39 63.662 166.64 64.206 Q 166.89 64.75 166.89 65.456 Q 166.89 66.397 166.547 67.034 Q 166.204 67.671 165.611 67.989 Q 165.018 68.308 164.264 68.308 Q 163.823 68.308 163.45 68.234 Q 163.078 68.161 162.818 68.063 Q 162.559 67.965 162.441 67.916 L 162.441 62.036 Q 162.441 61.673 162.363 61.57 Q 162.284 61.467 161.951 61.467 Q 161.843 61.467 161.75 61.482 Q 161.657 61.497 161.657 61.497 L 161.657 61.124 L 162.99 60.869 Z M 163.392 64.417 L 163.392 64.417 L 163.392 67.357 Q 163.509 67.573 163.764 67.7 Q 164.019 67.827 164.44 67.827 Q 164.96 67.827 165.273 67.548 Q 165.587 67.269 165.729 66.803 Q 165.871 66.338 165.871 65.789 Q 165.871 65.289 165.758 64.833 Q 165.646 64.378 165.361 64.094 Q 165.077 63.809 164.577 63.809 Q 164.313 63.809 164.073 63.912 Q 163.833 64.015 163.656 64.157 Q 163.48 64.299 163.392 64.417 Z " fill="black" /><path d="M 181.874 60.672 L 181.874 60.672 L 173.53 60.672 L 173.53 59.72 L 181.874 59.72 Z M 181.874 63.528 L 181.874 63.528 L 173.53 63.528 L 173.53 62.59 L 181.874 62.59 Z " fill="black" /><path d="M 190.586 58.712 L 190.586 58.712 L 191.79 58.712 Q 191.916 58.124 192.063 57.578 Q 192.21 57.032 192.448 56.598 Q 192.63 56.262 192.896 55.968 Q 193.162 55.674 193.575 55.485 Q 193.988 55.296 194.59 55.296 Q 195.234 55.296 195.577 55.583 Q 195.92 55.87 195.92 56.318 Q 195.92 56.626 195.752 56.78 Q 195.584 56.934 195.36 56.934 Q 195.08 56.934 194.954 56.773 Q 194.828 56.612 194.8 56.388 Q 194.758 56.122 194.695 55.912 Q 194.632 55.702 194.38 55.702 Q 193.848 55.702 193.554 56.262 Q 193.26 56.822 193.106 57.718 L 192.938 58.712 L 194.268 58.712 L 194.184 59.286 L 192.868 59.286 L 192.07 64.06 Q 192.014 64.424 191.895 64.97 Q 191.776 65.516 191.566 66.111 Q 191.356 66.706 191.055 67.224 Q 190.754 67.742 190.32 68.071 Q 189.886 68.4 189.312 68.4 Q 188.64 68.4 188.353 68.078 Q 188.066 67.756 188.066 67.392 Q 188.066 67.098 188.213 66.902 Q 188.36 66.706 188.626 66.706 Q 188.948 66.706 189.06 66.895 Q 189.172 67.084 189.2 67.329 Q 189.228 67.574 189.284 67.763 Q 189.34 67.952 189.536 67.952 Q 189.816 67.952 190.026 67.588 Q 190.236 67.224 190.39 66.685 Q 190.544 66.146 190.642 65.614 Q 190.74 65.082 190.796 64.732 L 191.706 59.286 L 190.53 59.286 Z " fill="black" /><path d="M 196.246 63.045 L 196.246 63.045 Q 196.981 63.045 197.53 63.363 Q 198.079 63.682 198.378 64.255 Q 198.676 64.829 198.676 65.603 Q 198.676 66.534 198.363 67.132 Q 198.049 67.729 197.5 68.018 Q 196.952 68.308 196.246 68.308 Q 195.531 68.308 194.977 68.009 Q 194.423 67.71 194.115 67.112 Q 193.806 66.514 193.806 65.613 Q 193.806 64.848 194.11 64.27 Q 194.413 63.692 194.962 63.368 Q 195.511 63.045 196.246 63.045 Z M 196.226 63.496 L 196.226 63.496 Q 195.58 63.496 195.212 64.02 Q 194.845 64.544 194.845 65.554 Q 194.845 66.798 195.222 67.313 Q 195.599 67.827 196.275 67.827 Q 196.707 67.818 197.01 67.612 Q 197.314 67.406 197.476 66.921 Q 197.638 66.436 197.638 65.603 Q 197.638 64.603 197.295 64.049 Q 196.952 63.496 196.226 63.496 Z " fill="black" /><path d="M 205.34 67.69 L 205.34 67.69 L 205.34 68.063 L 204.017 68.239 L 203.704 68.239 L 203.704 67.475 L 203.606 67.475 Q 203.233 67.808 202.851 68.048 Q 202.469 68.288 201.93 68.288 Q 201.205 68.288 200.823 67.847 Q 200.44 67.406 200.44 66.318 L 200.44 64.211 Q 200.44 63.809 200.298 63.716 Q 200.156 63.623 199.705 63.623 L 199.705 63.27 L 201.068 63.084 L 201.391 63.084 L 201.391 66.191 Q 201.391 66.74 201.518 67.043 Q 201.646 67.347 201.861 67.465 Q 202.077 67.582 202.332 67.582 Q 202.763 67.582 203.052 67.401 Q 203.341 67.22 203.655 66.965 L 203.655 64.211 Q 203.655 63.809 203.478 63.716 Q 203.302 63.623 202.802 63.623 L 202.802 63.27 L 204.262 63.084 L 204.605 63.084 L 204.605 67.053 Q 204.605 67.347 204.659 67.484 Q 204.713 67.622 204.85 67.656 Q 204.988 67.69 205.233 67.69 Z " fill="black" /><path d="M 209.162 67.21 L 209.162 67.21 L 209.388 67.396 Q 209.172 67.69 208.996 67.891 Q 208.819 68.092 208.594 68.2 Q 208.369 68.308 208.016 68.308 Q 207.447 68.308 207.188 67.984 Q 206.928 67.661 206.928 66.945 L 206.928 63.653 L 206.311 63.653 L 206.311 63.359 Q 206.663 63.104 206.957 62.736 Q 207.251 62.369 207.545 61.683 L 207.888 61.683 L 207.879 63.172 L 209.123 63.172 L 209.123 63.653 L 207.879 63.653 L 207.879 66.622 Q 207.879 67.171 207.982 67.401 Q 208.084 67.631 208.398 67.631 Q 208.682 67.631 208.829 67.528 Q 208.976 67.426 209.162 67.21 Z " fill="black" /><path d="M 214.557 55.324 L 214.557 55.324 L 210.917 66.496 L 210.133 66.496 L 213.787 55.324 Z " fill="black" /><path d="M 226.303 56.052 L 226.303 56.052 L 226.219 56.472 Q 225.841 56.472 225.638 56.542 Q 225.435 56.612 225.281 56.752 Q 225.155 56.864 225.029 57.025 Q 224.903 57.186 224.791 57.494 Q 224.679 57.802 224.567 58.348 L 223.139 65.362 L 222.677 65.362 L 218.561 57.844 L 218.491 57.844 L 217.399 63.164 Q 217.259 63.864 217.287 64.221 Q 217.315 64.578 217.574 64.704 Q 217.833 64.83 218.351 64.83 L 218.267 65.25 L 215.047 65.25 L 215.131 64.83 Q 215.677 64.83 215.971 64.711 Q 216.265 64.592 216.419 64.228 Q 216.573 63.864 216.713 63.164 L 217.959 57.116 Q 217.721 56.724 217.483 56.598 Q 217.245 56.472 216.797 56.472 L 216.881 56.052 L 219.079 56.052 L 222.859 62.94 L 222.929 62.94 L 223.895 58.278 Q 224.021 57.648 224.028 57.326 Q 224.035 57.004 223.937 56.822 Q 223.811 56.612 223.587 56.542 Q 223.363 56.472 222.915 56.472 L 222.999 56.052 Z " fill="black" /></g></g></g></svg>