<svg xmlns="http://www.w3.org/2000/svg" xmlns:xlink="http://www.w3.org/1999/xlink" xml:lang="en" height="401.59999999999997pt" width="777.9234776213333pt" viewBox="-116.78439999999999 -127.0 777.9234776213333 401.59999999999997"><circle cx="288.0" cy="-72.0" r="18.0" style="stroke:black;fill:none;stroke-width:2.0;stroke-dasharray:-;" /><circle cx="288.0" cy="144.0" r="18.0" style="stroke:black;fill:none;stroke-width:2.0;stroke-dasharray:-;" /><circle cx="486.0" cy="36.0" r="18.0" style="stroke:black;fill:none;stroke-width:2.0;stroke-dasharray:-;" /><path d="M 0.0,-0.0 L 90.0,-0.0 L 90.0,-90.0 L 0.0,-90.0 L 0.0,-0.0" style="stroke:black;fill:none;stroke-width:2.0;stroke-dasharray:-;stroke-linecap:round;stroke-linejoin:round;" /><path d="M 0.0,-27.0 L -18.0,-27.0" style="stroke:black;fill:none;stroke-width:2.0;stroke-dasharray:-;stroke-linecap:round;stroke-linejoin:round;" /><path d="M 0.0,-33.300000000000004 L 12.600000000000001,-27.0 L 0.0,-20.7" style="stroke:black;fill:none;stroke-width:2.0;stroke-dasharray:-;stroke-linecap:round;stroke-linejoin:round;" /><path d="M 0.0,-63.0 L -18.0,-63.0" style="stroke:black;fill:none;stroke-width:2.0;stroke-dasharray:-;stroke-linecap:round;stroke-linejoin:round;" /><path d="M 90.0,-45.0 L 108.0,-45.0" style="stroke:black;fill:none;stroke-width:2.0;stroke-dasharray:-;stroke-linecap:round;stroke-linejoin:round;" /><path d="M 45.0,-0.0 L 45.0,18.0" style="stroke:black;fill:none;stroke-width:2.0;stroke-dasharray:-;stroke-linecap:round;stroke-linejoin:round;" /><path d="M 0.0,72.0 L 90.0,72.0 L 90.0,162.0 L 0.0,162.0 L 0.0,72.0" style="stroke:black;fill:none;stroke-width:2.0;stroke-dasharray:-;stroke-linecap:round;stroke-linejoin:round;" /><path d="M 0.0,99.0 L -18.0,99.0" style="stroke:black;fill:none;stroke-width:2.0;stroke-dasharray:-;stroke-linecap:round;stroke-linejoin:round;" /><path d="M 0.0,105.3 L 12.600000000000001,99.0 L 0.0,92.7" style="stroke:black;fill:none;stroke-width:2.0;stroke-dasharray:-;stroke-linecap:round;stroke-linejoin:round;" /><path d="M 0.0,135.0 L -18.0,135.0" style="stroke:black;fill:none;stroke-width:2.0;stroke-dasharray:-;stroke-linecap:round;stroke-linejoin:round;" /><path d="M 90.0,117.0 L 108.0,117.0" style="stroke:black;fill:none;stroke-width:2.0;stroke-dasharray:-;stroke-linecap:round;stroke-linejoin:round;" /><path d="M 45.0,72.0 L 45.0,54.0" style="stroke:black;fill:none;stroke-width:2.0;stroke-dasharray:-;stroke-linecap:round;stroke-linejoin:round;" /><path d="M -18.0,-63.0 L -27.0,-63.0 L -36.0,-63.0" style="stroke:black;fill:none;stroke-width:2.0;stroke-dasharray:-;stroke-linecap:round;stroke-linejoin:round;" /><path d="M -18.0,135.0 L -27.0,135.0 L -36.0,135.0" style="stroke:black;fill:none;stroke-width:2.0;stroke-dasharray:-;stroke-linecap:round;stroke-linejoin:round;" /><path d="M -18.0,-27.0 L -36.0,-27.000000000000004 L -54.0,-27.000000000000004" style="stroke:black;fill:none;stroke-width:2.0;stroke-dasharray:-;stroke-linecap:round;stroke-linejoin:round;" /><path d="M -18.0,99.0 L -54.0,99.0 L -90.0,98.99999999999999" style="stroke:black;fill:none;stroke-width:2.0;stroke-dasharray:-;stroke-linecap:round;stroke-linejoin:round;" /><path d="M 45.0,18.0 L 45.0,36.0 L 45.0,54.0" style="stroke:black;fill:none;stroke-width:2.0;stroke-dasharray:-;stroke-linecap:round;stroke-linejoin:round;" /><path d="M 108.0,-45.0 L 126.0,-45.0 L 144.0,-45.0" style="stroke:black;fill:none;stroke-width:2.0;stroke-dasharray:-;stroke-linecap:round;stroke-linejoin:round;" /><path d="M 144.0,-45.0 L 162.0,-45.0 L 180.0,-45.0" style="stroke:black;fill:none;stroke-width:2.0;stroke-dasharray:-;stroke-linecap:round;stroke-linejoin:round;" /><path d="M 108.0,117.0 L 126.0,117.0 L 144.0,117.0" style="stroke:black;fill:none;stroke-width:2.0;stroke-dasharray:-;stroke-linecap:round;stroke-linejoin:round;" /><path d="M 144.0,117.0 L 162.0,117.0 L 180.0,117.0" style="stroke:black;fill:none;stroke-width:2.0;stroke-dasharray:-;stroke-linecap:round;stroke-linejoin:round;" /><path d="M 102.60000000000001,54.0 L 126.0,54.0 L 126.0,36.0 L 126.0,18.0 L 102.60000000000001,18.0 L 102.60000000000001,18.0 L 101.44673604034718,18.036982930493945 L 100.29821108967889,18.14777975118157 L 99.1591446833753,18.331935174160826 L 98.03421748962887,18.58869246529747 L 96.92805207557483,18.916996553807966 L 95.84519391217127,19.31549836777161 L 94.79009269588396,19.782560377756457 L 93.76708406392912,20.316263325778994 L 92.78037177821012,20.914414111946872 L 91.83401045115811,21.57455480637678 L 90.93188888445981,22.293972749355586 L 90.07771408913723,23.0697116982409 L 89.27499605264433,23.8985839752963 L 88.52703331557547,24.7771835665428 L 87.83689941725478,25.70190011780095 L 87.20743026590378,26.66893377041055 L 86.641212485286,27.674310775664964 L 86.14057278571538,28.713899823796915 L 85.7075684031043,29.783429020416463 L 85.3439786453401,30.878503440641417 L 85.05129758072718,31.994623188786342 L 84.83072789853989,33.127201889399174 L 84.68317596691443,34.271585533661735 L 84.60924810838762,35.42307160371021 L 84.60924810838762,36.5769283962898 L 84.68317596691443,37.72841446633828 L 84.83072789853989,38.872798110600826 L 85.05129758072718,40.00537681121366 L 85.3439786453401,41.12149655935858 L 85.7075684031043,42.21657097958354 L 86.14057278571538,43.286100176203085 L 86.641212485286,44.325689224335036 L 87.20743026590378,45.33106622958945 L 87.83689941725478,46.298099882199054 L 88.52703331557547,47.2228164334572 L 89.27499605264433,48.10141602470371 L 90.07771408913726,48.9302883017591 L 90.93188888445981,49.70602725064442 L 91.83401045115812,50.425445193623226 L 92.78037177821012,51.08558588805314 L 93.76708406392912,51.68373667422101 L 94.79009269588396,52.217439622243546 L 95.84519391217127,52.68450163222839 L 96.92805207557483,53.08300344619204 L 98.03421748962887,53.41130753470253 L 99.1591446833753,53.668064825839174 L 100.29821108967889,53.852220248818426 L 101.44673604034718,53.96301706950605 L 102.60000000000001,54.0" style="stroke:black;fill:none;stroke-width:2.0;stroke-dasharray:-;stroke-linecap:round;stroke-linejoin:round;" /><path d="M 126.0,45.0 L 138.6,45.0" style="stroke:black;fill:none;stroke-width:2.0;stroke-dasharray:-;stroke-linecap:round;stroke-linejoin:round;" /><path d="M 126.0,27.0 L 138.6,27.0" style="stroke:black;fill:none;stroke-width:2.0;stroke-dasharray:-;stroke-linecap:round;stroke-linejoin:round;" /><path d="M 72.0,36.0 L 84.60000000000001,36.0" style="stroke:black;fill:none;stroke-width:2.0;stroke-dasharray:-;stroke-linecap:round;stroke-linejoin:round;" /><path d="M 144.0,-45.0 L 144.0,27.0 L 138.6,27.0" style="stroke:black;fill:none;stroke-width:2.0;stroke-dasharray:-;stroke-linecap:round;stroke-linejoin:round;" /><path d="M 144.0,117.0 L 144.0,45.0 L 138.6,45.0" style="stroke:black;fill:none;stroke-width:2.0;stroke-dasharray:-;stroke-linecap:round;stroke-linejoin:round;" /><path d="M 72.0,36.0 L 58.5,36.0 L 45.0,35.99999999999999" style="stroke:black;fill:none;stroke-width:2.0;stroke-dasharray:-;stroke-linecap:round;stroke-linejoin:round;" /><path d="M 288.0,-108.0 L 288.0,-122.39999999999999" style="stroke:black;fill:none;stroke-width:2.0;stroke-dasharray:-;stroke-linecap:round;stroke-linejoin:round;" /><path d="M 288.0,-122.39999999999999 L 281.25,-122.39999999999999" style="stroke:black;fill:none;stroke-width:2.0;stroke-dasharray:-;stroke-linecap:round;stroke-linejoin:round;" /><path d="M 288.0,-122.39999999999999 L 294.75,-122.39999999999999" style="stroke:black;fill:none;stroke-width:2.0;stroke-dasharray:-;stroke-linecap:round;stroke-linejoin:round;" /><path d="M 288.0,-108.0 L 288.0,-90.0 L 288.0,-90.0 M 288.0,-54.0 L 288.0,-54.0 L 288.0,-36.0" style="stroke:black;fill:none;stroke-width:2.0;stroke-dasharray:-;stroke-linecap:round;stroke-linejoin:round;" /><path d="M 288.0,-81.0 L 288.0,-72.0" style="stroke:black;fill:none;stroke-width:2.0;stroke-dasharray:-;stroke-linecap:round;stroke-linejoin:round;" /><path d="M 288.0 -65.0 L 285.3 -72.0 L 290.7 -72.0 Z" style="stroke:black;fill:black;stroke-linecap:butt;stroke-linejoin:miter;" /><path d="M 288.0,-36.0 L 288.0,-18.0 L 271.8,12.600000000000003 M 288.0,18.0 L 288.0,36.0" style="stroke:black;fill:none;stroke-width:2.0;stroke-dasharray:-;stroke-linecap:round;stroke-linejoin:round;" /><path d="M 288.0,36.0 L 288.0,54.0 M 271.8,59.4 L 288.0,90.0 L 288.0,108.0" style="stroke:black;fill:none;stroke-width:2.0;stroke-dasharray:-;stroke-linecap:round;stroke-linejoin:round;" /><path d="M 288.0,108.0 L 288.0,126.0 L 288.0,126.0 M 288.0,162.0 L 288.0,162.0 L 288.0,180.0" style="stroke:black;fill:none;stroke-width:2.0;stroke-dasharray:-;stroke-linecap:round;stroke-linejoin:round;" /><path d="M 288.0,135.0 L 288.0,144.0" style="stroke:black;fill:none;stroke-width:2.0;stroke-dasharray:-;stroke-linecap:round;stroke-linejoin:round;" /><path d="M 288.0 151.0 L 285.3 144.0 L 290.7 144.0 Z" style="stroke:black;fill:black;stroke-linecap:butt;stroke-linejoin:miter;" /><path d="M 288.0,180.0 L 288.0,194.4 L 279.0,194.4 L 297.0,194.4 M 281.7,198.71999999999997 L 294.3,198.71999999999997 M 286.2,203.04 L 289.8,203.04" style="stroke:black;fill:none;stroke-width:2.0;stroke-dasharray:-;stroke-linecap:round;stroke-linejoin:round;" /><path d="M 288.0,36.0 L 324.0,36.0 L 360.0,36.0" style="stroke:black;fill:none;stroke-width:2.0;stroke-dasharray:-;stroke-linecap:round;stroke-linejoin:round;" /><path d="M 360.0,36.0 L 378.0,36.0 L 396.0,36.0" style="stroke:black;fill:none;stroke-width:2.0;stroke-dasharray:-;stroke-linecap:round;stroke-linejoin:round;" /><path d="M 360.0,36.0 L 360.0,54.0 L 369.0,57.00000000000001 L 351.0,63.0 L 369.0,69.0 L 351.0,74.99999999999999 L 369.0,81.0 L 351.0,87.0 L 360.0,90.0 L 360.0,108.0" style="stroke:black;fill:none;stroke-width:2.0;stroke-dasharray:-;stroke-linecap:round;stroke-linejoin:round;" /><path d="M 360.0,108.0 L 360.0,140.76 M 369.0,140.76 L 351.0,140.76 M 369.0,147.24 L 351.0,147.24 M 360.0,147.24 L 360.0,180.0" style="stroke:black;fill:none;stroke-width:2.0;stroke-dasharray:-;stroke-linecap:round;stroke-linejoin:round;" /><path d="M 360.0,180.0 L 360.0,194.4 L 351.0,194.4 L 369.0,194.4 M 353.7,198.71999999999997 L 366.3,198.71999999999997 M 358.2,203.04 L 361.8,203.04" style="stroke:black;fill:none;stroke-width:2.0;stroke-dasharray:-;stroke-linecap:round;stroke-linejoin:round;" /><path d="M 261.0,-1.102182119232618e-15 L 252.0,-2.204364238465236e-15 L 234.0,-4.408728476930472e-15" style="stroke:black;fill:none;stroke-width:2.0;stroke-dasharray:-;stroke-linecap:round;stroke-linejoin:round;" /><path d="M 268.0 -2.4492935982947064e-16 L 261.0 2.699999999999999 L 261.0 -2.7000000000000006 Z" style="stroke:black;fill:black;stroke-linecap:butt;stroke-linejoin:miter;" /><path d="M 261.0,72.0 L 252.0,72.0 L 234.0,71.99999999999999" style="stroke:black;fill:none;stroke-width:2.0;stroke-dasharray:-;stroke-linecap:round;stroke-linejoin:round;" /><path d="M 268.0 72.0 L 261.0 74.7 L 261.0 69.3 Z" style="stroke:black;fill:black;stroke-linecap:butt;stroke-linejoin:miter;" /><path d="M 180.0,-45.0 L 234.0,-45.0 L 234.0,-7.993605777301127e-15" style="stroke:black;fill:none;stroke-width:2.0;stroke-dasharray:-;stroke-linecap:round;stroke-linejoin:round;" /><path d="M 180.0,117.0 L 234.0,117.0 L 234.0,71.99999999999999" style="stroke:black;fill:none;stroke-width:2.0;stroke-dasharray:-;stroke-linecap:round;stroke-linejoin:round;" /><path d="M 396.0,36.0 L 414.0,36.0 L 432.0,36.0" style="stroke:black;fill:none;stroke-width:2.0;stroke-dasharray:-;stroke-linecap:round;stroke-linejoin:round;" /><path d="M 432.0,36.0 L 432.0,104.76 M 441.0,104.76 L 423.0,104.76 M 441.0,111.24 L 423.0,111.24 M 432.0,111.24 L 432.0,180.0" style="stroke:black;fill:none;stroke-width:2.0;stroke-dasharray:-;stroke-linecap:round;stroke-linejoin:round;" /><path d="M 432.0,180.0 L 432.0,194.4 L 423.0,194.4 L 441.0,194.4 M 425.7,198.71999999999997 L 438.3,198.71999999999997 M 430.2,203.04 L 433.8,203.04" style="stroke:black;fill:none;stroke-width:2.0;stroke-dasharray:-;stroke-linecap:round;stroke-linejoin:round;" /><path d="M 432.0,36.0 L 450.0,36.0 L 468.0,36.0" style="stroke:black;fill:none;stroke-width:2.0;stroke-dasharray:-;stroke-linecap:round;stroke-linejoin:round;" /><path d="M 475.2,36.0 L 476.33684210526314,34.83108191086314 L 477.47368421052636,33.78883423431719 L 478.61052631578946,32.986200678254896 L 479.7473684210526,32.51015904261841 L 480.88421052631577,32.41229582517599 L 482.021052631579,32.703216024041794 L 483.1578947368421,33.35139392157673 L 484.2947368421053,34.286589385066534 L 485.43157894736845,35.40745947498936 L 486.56842105263155,36.59254052501064 L 487.7052631578947,37.713410614933466 L 488.8421052631579,38.64860607842327 L 489.978947368421,39.296783975958206 L 491.11578947368423,39.58770417482401 L 492.2526315789474,39.48984095738159 L 493.38947368421054,39.0137993217451 L 494.52631578947364,38.21116576568281 L 495.66315789473686,37.16891808913686 L 496.8,36.0" style="stroke:black;fill:none;stroke-width:2.0;stroke-dasharray:-;stroke-linecap:round;stroke-linejoin:round;" /><path d="M 504.0,36.0 L 522.0,36.0 L 540.0,36.0" style="stroke:black;fill:none;stroke-width:2.0;stroke-dasharray:-;stroke-linecap:round;stroke-linejoin:round;" /><path d="M 540.0,36.0 L 558.0,36.0 L 576.0,36.0" style="stroke:black;fill:none;stroke-width:2.0;stroke-dasharray:-;stroke-linecap:round;stroke-linejoin:round;" /><path d="M 540.0,36.0 L 540.0,144.0 L 539.9999999999999,252.0" style="stroke:black;fill:none;stroke-width:2.0;stroke-dasharray:-;stroke-linecap:round;stroke-linejoin:round;" /><path d="M 539.9999999999999,252.0 L 503.99999999999994,252.0 L 467.99999999999994,252.0" style="stroke:black;fill:none;stroke-width:2.0;stroke-dasharray:-;stroke-linecap:round;stroke-linejoin:round;" /><path d="M 467.99999999999994,252.0 L 467.99999999999994,270.0 L 431.99999999999994,270.0 L 431.99999999999994,234.0 L 467.99999999999994,234.0 L 467.99999999999994,252.0" style="stroke:black;fill:none;stroke-width:2.0;stroke-dasharray:-;stroke-linecap:round;stroke-linejoin:round;" /><path d="M 431.99999999999994,252.0 L -90.0,252.0 L -90.0,99.0" style="stroke:black;fill:none;stroke-width:2.0;stroke-dasharray:-;stroke-linecap:round;stroke-linejoin:round;" /><path d="M -54.0,-27.000000000000004 L -72.0,-27.000000000000007 L -90.0,-27.000000000000007" style="stroke:black;fill:none;stroke-width:2.0;stroke-dasharray:-;stroke-linecap:round;stroke-linejoin:round;" /><g><g><g><path d="M 6.688 -58.401 L 6.688 -58.401 L 6.688 -67.599 L 9.04 -67.599 Q 11.21 -67.599 12.344 -66.416 Q 13.478 -65.233 13.478 -63.035 Q 13.478 -60.837 12.351 -59.619 Q 11.224 -58.401 9.096 -58.401 Z M 7.892 -59.381 L 7.892 -59.381 L 8.956 -59.381 Q 10.608 -59.381 11.427 -60.34 Q 12.246 -61.299 12.246 -63.035 Q 12.246 -64.771 11.427 -65.695 Q 10.608 -66.619 8.956 -66.619 L 7.892 -66.619 Z " fill="black" /></g></g></g><g><g><g><path d="M 83.466 -39.169 L 83.466 -39.169 Q 82.178 -39.169 81.296 -39.785 Q 80.414 -40.401 80.008 -41.353 Q 79 -41.493 78.23 -42.102 Q 77.46 -42.711 77.026 -43.733 Q 76.592 -44.755 76.592 -46.113 Q 76.592 -47.583 77.103 -48.64 Q 77.614 -49.697 78.517 -50.264 Q 79.42 -50.831 80.596 -50.831 Q 81.786 -50.831 82.689 -50.264 Q 83.592 -49.697 84.103 -48.64 Q 84.614 -47.583 84.614 -46.113 Q 84.614 -44.783 84.201 -43.782 Q 83.788 -42.781 83.039 -42.158 Q 82.29 -41.535 81.296 -41.367 Q 81.618 -40.765 82.227 -40.464 Q 82.836 -40.163 83.62 -40.163 Q 83.914 -40.163 84.152 -40.198 Q 84.39 -40.233 84.572 -40.289 L 84.81 -39.365 Q 84.6 -39.295 84.25 -39.232 Q 83.9 -39.169 83.466 -39.169 Z M 80.596 -42.305 L 80.596 -42.305 Q 81.436 -42.305 82.059 -42.767 Q 82.682 -43.229 83.025 -44.083 Q 83.368 -44.937 83.368 -46.099 Q 83.368 -47.835 82.612 -48.815 Q 81.856 -49.795 80.596 -49.795 Q 79.336 -49.795 78.58 -48.808 Q 77.824 -47.821 77.824 -46.099 Q 77.824 -44.951 78.167 -44.097 Q 78.51 -43.243 79.133 -42.774 Q 79.756 -42.305 80.596 -42.305 Z " fill="black" /></g></g></g><g><g><g><path d="M 42.851 -5.4 L 42.851 -5.4 L 42.851 -14.598 L 45.805 -14.598 Q 46.757 -14.598 47.499 -14.346 Q 48.241 -14.094 48.661 -13.534 Q 49.081 -12.974 49.081 -12.022 Q 49.081 -10.916 48.507 -10.272 Q 47.933 -9.628 46.981 -9.404 L 49.361 -5.4 L 48.003 -5.4 L 45.749 -9.278 L 44.055 -9.278 L 44.055 -5.4 Z M 44.055 -10.244 L 44.055 -10.244 L 45.623 -10.244 Q 46.715 -10.244 47.303 -10.678 Q 47.891 -11.112 47.891 -12.008 Q 47.891 -12.904 47.303 -13.268 Q 46.715 -13.632 45.623 -13.632 L 44.055 -13.632 Z " fill="black" /></g></g></g><g><g><g><path d="M 6.688 139.599 L 6.688 139.599 L 6.688 130.401 L 9.04 130.401 Q 11.21 130.401 12.344 131.584 Q 13.478 132.767 13.478 134.965 Q 13.478 137.163 12.351 138.381 Q 11.224 139.599 9.096 139.599 Z M 7.892 138.619 L 7.892 138.619 L 8.956 138.619 Q 10.608 138.619 11.427 137.66 Q 12.246 136.701 12.246 134.965 Q 12.246 133.229 11.427 132.305 Q 10.608 131.381 8.956 131.381 L 7.892 131.381 Z " fill="black" /></g></g></g><g><g><g><path d="M 83.466 122.831 L 83.466 122.831 Q 82.178 122.831 81.296 122.215 Q 80.414 121.599 80.008 120.647 Q 79 120.507 78.23 119.898 Q 77.46 119.289 77.026 118.267 Q 76.592 117.245 76.592 115.887 Q 76.592 114.417 77.103 113.36 Q 77.614 112.303 78.517 111.736 Q 79.42 111.169 80.596 111.169 Q 81.786 111.169 82.689 111.736 Q 83.592 112.303 84.103 113.36 Q 84.614 114.417 84.614 115.887 Q 84.614 117.217 84.201 118.218 Q 83.788 119.219 83.039 119.842 Q 82.29 120.465 81.296 120.633 Q 81.618 121.235 82.227 121.536 Q 82.836 121.837 83.62 121.837 Q 83.914 121.837 84.152 121.802 Q 84.39 121.767 84.572 121.711 L 84.81 122.635 Q 84.6 122.705 84.25 122.768 Q 83.9 122.831 83.466 122.831 Z M 80.596 119.695 L 80.596 119.695 Q 81.436 119.695 82.059 119.233 Q 82.682 118.771 83.025 117.917 Q 83.368 117.063 83.368 115.901 Q 83.368 114.165 82.612 113.185 Q 81.856 112.205 80.596 112.205 Q 79.336 112.205 78.58 113.192 Q 77.824 114.179 77.824 115.901 Q 77.824 117.049 78.167 117.903 Q 78.51 118.757 79.133 119.226 Q 79.756 119.695 80.596 119.695 Z " fill="black" /></g></g></g><g><g><g><path d="M 42.851 77.4 L 42.851 77.4 L 42.851 68.202 L 45.805 68.202 Q 46.757 68.202 47.499 68.454 Q 48.241 68.706 48.661 69.266 Q 49.081 69.826 49.081 70.778 Q 49.081 71.884 48.507 72.528 Q 47.933 73.172 46.981 73.396 L 49.361 77.4 L 48.003 77.4 L 45.749 73.522 L 44.055 73.522 L 44.055 77.4 Z M 44.055 72.556 L 44.055 72.556 L 45.623 72.556 Q 46.715 72.556 47.303 72.122 Q 47.891 71.688 47.891 70.792 Q 47.891 69.896 47.303 69.532 Q 46.715 69.168 45.623 69.168 L 44.055 69.168 Z " fill="black" /></g></g></g><g><g><g><path d="M -40.916 -58.59 L -40.916 -58.59 L -42.078 -58.59 L -42.078 -65.996 L -43.884 -65.996 L -43.884 -66.752 Q -43.142 -66.864 -42.666 -67.025 Q -42.19 -67.186 -41.798 -67.41 L -40.916 -67.41 Z " fill="black" /></g></g></g><g><g><g><path d="M -40.916 139.41 L -40.916 139.41 L -42.078 139.41 L -42.078 132.004 L -43.884 132.004 L -43.884 131.248 Q -43.142 131.136 -42.666 130.975 Q -42.19 130.814 -41.798 130.59 L -40.916 130.59 Z " fill="black" /></g></g></g><circle cx="144.0" cy="-45.0" r="2.6999999999999997" style="stroke:black;fill:black;stroke-width:2.0;stroke-dasharray:-;" /><circle cx="144.0" cy="117.0" r="2.6999999999999997" style="stroke:black;fill:black;stroke-width:2.0;stroke-dasharray:-;" /><circle cx="45.0" cy="35.99999999999999" r="2.6999999999999997" style="stroke:black;fill:black;stroke-width:2.0;stroke-dasharray:-;" /><g><g><g><path d="M 248.336 -70.764 L 248.336 -70.764 L 249.484 -76.28 Q 249.61 -76.826 249.603 -77.141 Q 249.596 -77.456 249.344 -77.582 Q 249.092 -77.708 248.448 -77.708 L 248.532 -78.128 L 252.41 -78.128 L 252.326 -77.708 Q 251.71 -77.708 251.402 -77.582 Q 251.094 -77.456 250.968 -77.141 Q 250.842 -76.826 250.73 -76.28 L 249.582 -70.708 Q 249.54 -70.484 249.512 -70.302 Q 249.484 -70.12 249.484 -69.966 Q 249.484 -69.574 249.715 -69.462 Q 249.946 -69.35 250.604 -69.35 L 250.52 -68.93 L 246.698 -68.93 L 246.782 -69.35 Q 247.356 -69.35 247.643 -69.448 Q 247.93 -69.546 248.07 -69.847 Q 248.21 -70.148 248.336 -70.764 Z " fill="black" /><path d="M 259.015 -67.587 L 259.015 -67.587 L 259.309 -67.342 Q 259.044 -66.931 258.662 -66.597 Q 258.28 -66.264 257.741 -66.068 Q 257.202 -65.872 256.467 -65.872 Q 254.84 -65.872 253.943 -66.774 Q 253.047 -67.675 253.047 -69.39 Q 253.047 -70.537 253.502 -71.346 Q 253.958 -72.154 254.762 -72.585 Q 255.565 -73.016 256.604 -73.016 Q 257.173 -73.016 257.506 -72.923 Q 257.839 -72.83 258.03 -72.732 Q 258.221 -72.634 258.349 -72.634 Q 258.456 -72.634 258.53 -72.727 Q 258.603 -72.82 258.731 -72.997 L 259.084 -72.997 L 259.084 -70.557 L 258.672 -70.557 Q 258.486 -71.595 257.961 -72.046 Q 257.437 -72.497 256.555 -72.497 Q 255.81 -72.497 255.301 -72.13 Q 254.791 -71.762 254.531 -71.096 Q 254.272 -70.429 254.272 -69.537 Q 254.272 -68.528 254.6 -67.901 Q 254.928 -67.274 255.507 -66.984 Q 256.085 -66.695 256.83 -66.695 Q 257.555 -66.695 258.064 -66.916 Q 258.574 -67.136 259.015 -67.587 Z " fill="black" /><path d="M 260.573 -72.879 L 260.573 -72.879 L 263.258 -72.879 Q 263.797 -72.879 264.292 -72.796 Q 264.787 -72.713 265.174 -72.517 Q 265.561 -72.321 265.787 -71.968 Q 266.012 -71.615 266.012 -71.066 Q 266.012 -70.439 265.752 -70.027 Q 265.493 -69.616 265.062 -69.376 Q 264.63 -69.136 264.101 -69.038 Q 263.572 -68.94 263.023 -68.94 Q 262.896 -68.94 262.744 -68.954 Q 262.592 -68.969 262.514 -68.979 L 262.514 -67.342 Q 262.514 -66.911 262.612 -66.7 Q 262.71 -66.49 262.95 -66.426 Q 263.19 -66.362 263.621 -66.362 L 263.621 -65.99 L 260.505 -65.99 L 260.505 -66.362 Q 260.926 -66.362 261.132 -66.436 Q 261.338 -66.509 261.406 -66.735 Q 261.475 -66.96 261.475 -67.401 L 261.475 -71.752 Q 261.475 -72.252 261.259 -72.379 Q 261.044 -72.507 260.573 -72.507 Z M 262.514 -72.389 L 262.514 -72.389 L 262.514 -69.449 Q 262.592 -69.439 262.734 -69.434 Q 262.876 -69.43 262.984 -69.43 Q 263.886 -69.43 264.385 -69.763 Q 264.885 -70.096 264.885 -70.958 Q 264.885 -72.409 263.131 -72.409 Q 262.974 -72.409 262.827 -72.404 Q 262.68 -72.399 262.514 -72.389 Z " fill="black" /></g></g></g><circle cx="288.0" cy="36.0" r="2.6999999999999997" style="stroke:black;fill:black;stroke-width:2.0;stroke-dasharray:-;" /><g><g><g><path d="M 248.336 145.236 L 248.336 145.236 L 249.484 139.72 Q 249.61 139.174 249.603 138.859 Q 249.596 138.544 249.344 138.418 Q 249.092 138.292 248.448 138.292 L 248.532 137.872 L 252.41 137.872 L 252.326 138.292 Q 251.71 138.292 251.402 138.418 Q 251.094 138.544 250.968 138.859 Q 250.842 139.174 250.73 139.72 L 249.582 145.292 Q 249.54 145.516 249.512 145.698 Q 249.484 145.88 249.484 146.034 Q 249.484 146.426 249.715 146.538 Q 249.946 146.65 250.604 146.65 L 250.52 147.07 L 246.698 147.07 L 246.782 146.65 Q 247.356 146.65 247.643 146.552 Q 247.93 146.454 248.07 146.153 Q 248.21 145.852 248.336 145.236 Z " fill="black" /><path d="M 259.015 148.413 L 259.015 148.413 L 259.309 148.658 Q 259.044 149.069 258.662 149.403 Q 258.28 149.736 257.741 149.932 Q 257.202 150.128 256.467 150.128 Q 254.84 150.128 253.943 149.226 Q 253.047 148.325 253.047 146.61 Q 253.047 145.463 253.502 144.654 Q 253.958 143.846 254.762 143.415 Q 255.565 142.984 256.604 142.984 Q 257.173 142.984 257.506 143.077 Q 257.839 143.17 258.03 143.268 Q 258.221 143.366 258.349 143.366 Q 258.456 143.366 258.53 143.273 Q 258.603 143.18 258.731 143.003 L 259.084 143.003 L 259.084 145.443 L 258.672 145.443 Q 258.486 144.405 257.961 143.954 Q 257.437 143.503 256.555 143.503 Q 255.81 143.503 255.301 143.87 Q 254.791 144.238 254.531 144.904 Q 254.272 145.571 254.272 146.463 Q 254.272 147.472 254.6 148.099 Q 254.928 148.726 255.507 149.016 Q 256.085 149.305 256.83 149.305 Q 257.555 149.305 258.064 149.084 Q 258.574 148.864 259.015 148.413 Z " fill="black" /><path d="M 260.573 143.121 L 260.573 143.121 L 263.258 143.121 Q 263.797 143.121 264.292 143.204 Q 264.787 143.287 265.174 143.483 Q 265.561 143.679 265.787 144.032 Q 266.012 144.385 266.012 144.934 Q 266.012 145.561 265.752 145.973 Q 265.493 146.384 265.062 146.624 Q 264.63 146.864 264.101 146.962 Q 263.572 147.06 263.023 147.06 Q 262.896 147.06 262.744 147.046 Q 262.592 147.031 262.514 147.021 L 262.514 148.658 Q 262.514 149.089 262.612 149.3 Q 262.71 149.51 262.95 149.574 Q 263.19 149.638 263.621 149.638 L 263.621 150.01 L 260.505 150.01 L 260.505 149.638 Q 260.926 149.638 261.132 149.564 Q 261.338 149.491 261.406 149.265 Q 261.475 149.04 261.475 148.599 L 261.475 144.248 Q 261.475 143.748 261.259 143.621 Q 261.044 143.493 260.573 143.493 Z M 262.514 143.611 L 262.514 143.611 L 262.514 146.551 Q 262.592 146.561 262.734 146.565 Q 262.876 146.57 262.984 146.57 Q 263.886 146.57 264.385 146.237 Q 264.885 145.904 264.885 145.042 Q 264.885 143.591 263.131 143.591 Q 262.974 143.591 262.827 143.596 Q 262.68 143.601 262.514 143.611 Z " fill="black" /></g></g></g><circle cx="360.0" cy="36.0" r="2.6999999999999997" style="stroke:black;fill:black;stroke-width:2.0;stroke-dasharray:-;" /><g><g><g><path d="M 332.522 67.804 L 332.522 67.804 Q 332.522 68.546 332.242 69.05 Q 331.962 69.554 331.514 69.876 Q 331.066 70.198 330.555 70.373 Q 330.044 70.548 329.582 70.632 L 329.582 70.702 Q 329.834 70.87 330.058 71.213 Q 330.282 71.556 330.611 72.2 Q 330.94 72.844 331.514 73.936 Q 331.752 74.356 332.039 74.503 Q 332.326 74.65 332.802 74.65 L 332.718 75.07 L 330.59 75.07 Q 330.198 74.202 329.932 73.621 Q 329.666 73.04 329.47 72.648 Q 329.274 72.256 329.127 71.948 Q 328.98 71.64 328.812 71.318 Q 328.658 71.024 328.476 70.933 Q 328.294 70.842 327.916 70.842 L 327.622 70.842 L 327.104 73.334 Q 326.992 73.908 327.027 74.195 Q 327.062 74.482 327.342 74.566 Q 327.622 74.65 328.224 74.65 L 328.154 75.07 L 324.29 75.07 L 324.374 74.65 Q 324.892 74.65 325.172 74.566 Q 325.452 74.482 325.599 74.202 Q 325.746 73.922 325.858 73.334 L 327.09 67.328 Q 327.174 66.936 327.132 66.712 Q 327.09 66.488 326.845 66.39 Q 326.6 66.292 326.04 66.292 L 326.124 65.872 L 329.414 65.872 Q 330.884 65.872 331.703 66.327 Q 332.522 66.782 332.522 67.804 Z M 328.504 66.46 L 328.504 66.46 L 327.72 70.324 L 328.154 70.338 Q 328.994 70.31 329.673 70.065 Q 330.352 69.82 330.744 69.288 Q 331.136 68.756 331.136 67.86 Q 331.136 67.482 330.975 67.153 Q 330.814 66.824 330.422 66.621 Q 330.03 66.418 329.33 66.418 Q 329.064 66.418 328.903 66.425 Q 328.742 66.432 328.504 66.46 Z " fill="black" /><path d="M 336.435 77.648 L 336.435 77.648 L 336.435 78.01 L 333.946 78.01 L 333.946 77.648 Q 334.289 77.648 334.441 77.574 Q 334.593 77.501 334.632 77.339 Q 334.671 77.177 334.671 76.913 L 334.671 73.953 Q 334.671 73.62 334.563 73.551 Q 334.456 73.483 334.201 73.483 Q 334.073 73.483 333.995 73.492 Q 333.917 73.502 333.917 73.502 L 333.917 73.11 L 335.23 72.895 L 335.632 72.895 L 335.632 76.913 Q 335.632 77.197 335.676 77.358 Q 335.72 77.52 335.891 77.584 Q 336.063 77.648 336.435 77.648 Z M 335.142 70.729 L 335.142 70.729 Q 335.426 70.729 335.617 70.925 Q 335.808 71.121 335.808 71.376 Q 335.808 71.611 335.617 71.807 Q 335.426 72.003 335.142 72.003 Q 334.867 72.003 334.686 71.807 Q 334.505 71.611 334.505 71.376 Q 334.505 71.121 334.686 70.925 Q 334.867 70.729 335.142 70.729 Z " fill="black" /><path d="M 342.256 74.727 L 342.256 74.727 L 342.256 76.922 Q 342.256 77.197 342.305 77.358 Q 342.354 77.52 342.521 77.589 Q 342.688 77.657 343.04 77.657 L 343.04 78.01 L 340.522 78.01 L 340.522 77.657 Q 340.894 77.657 341.061 77.589 Q 341.227 77.52 341.267 77.358 Q 341.306 77.197 341.306 76.922 L 341.306 75.051 Q 341.306 74.394 341.154 74.085 Q 341.002 73.777 340.772 73.679 Q 340.541 73.581 340.306 73.581 Q 339.885 73.581 339.566 73.796 Q 339.248 74.012 339.013 74.208 L 339.013 76.922 Q 339.013 77.197 339.057 77.358 Q 339.101 77.52 339.267 77.589 Q 339.434 77.657 339.797 77.657 L 339.797 78.01 L 337.327 78.01 L 337.327 77.657 Q 337.67 77.657 337.822 77.589 Q 337.974 77.52 338.013 77.358 Q 338.052 77.197 338.052 76.922 L 338.052 73.943 Q 338.052 73.669 337.949 73.576 Q 337.846 73.483 337.621 73.483 Q 337.503 73.483 337.425 73.492 Q 337.347 73.502 337.347 73.502 L 337.347 73.13 L 338.66 72.895 L 338.983 72.895 L 338.983 73.698 L 339.052 73.698 Q 339.473 73.316 339.86 73.091 Q 340.247 72.865 340.737 72.865 Q 341.316 72.865 341.644 73.125 Q 341.972 73.385 342.114 73.806 Q 342.256 74.227 342.256 74.727 Z " fill="black" /><path d="M 346.794 77.03 L 346.794 77.03 L 347.019 77.216 Q 346.804 77.51 346.627 77.711 Q 346.451 77.912 346.225 78.02 Q 346 78.128 345.647 78.128 Q 345.079 78.128 344.819 77.804 Q 344.559 77.481 344.559 76.766 L 344.559 73.473 L 343.942 73.473 L 343.942 73.179 Q 344.295 72.924 344.589 72.556 Q 344.883 72.189 345.177 71.503 L 345.52 71.503 L 345.51 72.993 L 346.755 72.993 L 346.755 73.473 L 345.51 73.473 L 345.51 76.442 Q 345.51 76.991 345.613 77.221 Q 345.716 77.452 346.029 77.452 Q 346.314 77.452 346.461 77.349 Q 346.608 77.246 346.794 77.03 Z " fill="black" /></g></g></g><g><g><g><path d="M 333.362 145.131 L 333.362 145.131 L 333.614 145.397 Q 332.9 146.237 331.962 146.776 Q 331.024 147.315 329.694 147.315 Q 328.434 147.315 327.678 146.846 Q 326.922 146.377 326.593 145.593 Q 326.264 144.809 326.264 143.885 Q 326.264 142.415 326.712 141.274 Q 327.16 140.133 327.937 139.356 Q 328.714 138.579 329.694 138.18 Q 330.674 137.781 331.738 137.781 Q 332.452 137.781 332.851 137.907 Q 333.25 138.033 333.474 138.166 Q 333.698 138.299 333.866 138.299 Q 334.034 138.299 334.16 138.159 Q 334.286 138.019 334.454 137.795 L 334.86 137.795 L 334.202 141.001 L 333.74 141.001 Q 333.796 139.601 333.222 138.992 Q 332.648 138.383 331.612 138.383 Q 330.8 138.383 330.086 138.754 Q 329.372 139.125 328.819 139.804 Q 328.266 140.483 327.951 141.428 Q 327.636 142.373 327.636 143.535 Q 327.636 144.935 328.301 145.67 Q 328.966 146.405 330.352 146.405 Q 331.962 146.405 333.362 145.131 Z " fill="black" /><path d="M 337.401 149.739 L 337.401 149.739 L 337.401 150.101 L 334.912 150.101 L 334.912 149.739 Q 335.255 149.739 335.407 149.665 Q 335.559 149.592 335.598 149.43 Q 335.637 149.268 335.637 149.004 L 335.637 146.044 Q 335.637 145.711 335.529 145.642 Q 335.422 145.574 335.167 145.574 Q 335.039 145.574 334.961 145.583 Q 334.883 145.593 334.883 145.593 L 334.883 145.201 L 336.196 144.986 L 336.598 144.986 L 336.598 149.004 Q 336.598 149.288 336.642 149.45 Q 336.686 149.611 336.857 149.675 Q 337.029 149.739 337.401 149.739 Z M 336.108 142.82 L 336.108 142.82 Q 336.392 142.82 336.583 143.016 Q 336.774 143.212 336.774 143.467 Q 336.774 143.702 336.583 143.898 Q 336.392 144.094 336.108 144.094 Q 335.833 144.094 335.652 143.898 Q 335.471 143.702 335.471 143.467 Q 335.471 143.212 335.652 143.016 Q 335.833 142.82 336.108 142.82 Z " fill="black" /><path d="M 343.222 146.818 L 343.222 146.818 L 343.222 149.013 Q 343.222 149.288 343.271 149.45 Q 343.32 149.611 343.487 149.68 Q 343.654 149.748 344.006 149.748 L 344.006 150.101 L 341.488 150.101 L 341.488 149.748 Q 341.86 149.748 342.027 149.68 Q 342.193 149.611 342.233 149.45 Q 342.272 149.288 342.272 149.013 L 342.272 147.142 Q 342.272 146.485 342.12 146.176 Q 341.968 145.868 341.738 145.77 Q 341.507 145.672 341.272 145.672 Q 340.851 145.672 340.532 145.887 Q 340.214 146.103 339.979 146.299 L 339.979 149.013 Q 339.979 149.288 340.023 149.45 Q 340.067 149.611 340.233 149.68 Q 340.4 149.748 340.763 149.748 L 340.763 150.101 L 338.293 150.101 L 338.293 149.748 Q 338.636 149.748 338.788 149.68 Q 338.94 149.611 338.979 149.45 Q 339.018 149.288 339.018 149.013 L 339.018 146.034 Q 339.018 145.76 338.915 145.667 Q 338.812 145.574 338.587 145.574 Q 338.469 145.574 338.391 145.583 Q 338.313 145.593 338.313 145.593 L 338.313 145.221 L 339.626 144.986 L 339.949 144.986 L 339.949 145.789 L 340.018 145.789 Q 340.439 145.407 340.826 145.182 Q 341.213 144.956 341.703 144.956 Q 342.282 144.956 342.61 145.216 Q 342.938 145.476 343.08 145.897 Q 343.222 146.318 343.222 146.818 Z " fill="black" /><path d="M 347.76 149.121 L 347.76 149.121 L 347.985 149.307 Q 347.77 149.601 347.593 149.802 Q 347.417 150.003 347.191 150.111 Q 346.966 150.219 346.613 150.219 Q 346.045 150.219 345.785 149.895 Q 345.525 149.572 345.525 148.857 L 345.525 145.564 L 344.908 145.564 L 344.908 145.27 Q 345.261 145.015 345.555 144.648 Q 345.849 144.28 346.143 143.594 L 346.486 143.594 L 346.476 145.084 L 347.721 145.084 L 347.721 145.564 L 346.476 145.564 L 346.476 148.533 Q 346.476 149.082 346.579 149.312 Q 346.682 149.543 346.995 149.543 Q 347.28 149.543 347.427 149.44 Q 347.574 149.337 347.76 149.121 Z " fill="black" /></g></g></g><g><g><g><path d="M 203.584 -48.6 L 203.584 -48.6 Q 202.632 -48.6 201.862 -48.978 Q 201.092 -49.356 200.651 -50.231 Q 200.21 -51.106 200.21 -52.576 L 200.21 -57.966 L 201.414 -57.966 L 201.414 -52.534 Q 201.414 -51.442 201.701 -50.812 Q 201.988 -50.182 202.478 -49.916 Q 202.968 -49.65 203.584 -49.65 Q 204.214 -49.65 204.718 -49.916 Q 205.222 -50.182 205.516 -50.812 Q 205.81 -51.442 205.81 -52.534 L 205.81 -57.966 L 206.958 -57.966 L 206.958 -52.576 Q 206.958 -51.106 206.517 -50.231 Q 206.076 -49.356 205.313 -48.978 Q 204.55 -48.6 203.584 -48.6 Z " fill="black" /><path d="M 209.478 -48.768 L 209.478 -48.768 L 209.478 -57.966 L 212.166 -57.966 Q 213.216 -57.966 214.007 -57.707 Q 214.798 -57.448 215.246 -56.86 Q 215.694 -56.272 215.694 -55.264 Q 215.694 -54.284 215.253 -53.647 Q 214.812 -53.01 214.035 -52.702 Q 213.258 -52.394 212.222 -52.394 L 210.682 -52.394 L 210.682 -48.768 Z M 210.682 -53.374 L 210.682 -53.374 L 212.082 -53.374 Q 213.3 -53.374 213.895 -53.822 Q 214.49 -54.27 214.49 -55.25 Q 214.49 -56.244 213.874 -56.622 Q 213.258 -57 212.026 -57 L 210.682 -57 Z " fill="black" /></g></g></g><g><g><g><path d="M 189.5 129.952 L 189.5 129.952 L 189.5 120.754 L 191.852 120.754 Q 194.022 120.754 195.156 121.937 Q 196.29 123.12 196.29 125.318 Q 196.29 127.516 195.163 128.734 Q 194.036 129.952 191.908 129.952 Z M 190.704 128.972 L 190.704 128.972 L 191.768 128.972 Q 193.42 128.972 194.239 128.013 Q 195.058 127.054 195.058 125.318 Q 195.058 123.582 194.239 122.658 Q 193.42 121.734 191.768 121.734 L 190.704 121.734 Z " fill="black" /><path d="M 201.792 130.12 L 201.792 130.12 Q 200.616 130.12 199.713 129.539 Q 198.81 128.958 198.299 127.88 Q 197.788 126.802 197.788 125.318 Q 197.788 123.848 198.299 122.791 Q 198.81 121.734 199.713 121.167 Q 200.616 120.6 201.792 120.6 Q 202.982 120.6 203.885 121.167 Q 204.788 121.734 205.299 122.791 Q 205.81 123.848 205.81 125.318 Q 205.81 126.788 205.299 127.866 Q 204.788 128.944 203.885 129.532 Q 202.982 130.12 201.792 130.12 Z M 201.792 129.07 L 201.792 129.07 Q 202.632 129.07 203.255 128.608 Q 203.878 128.146 204.221 127.299 Q 204.564 126.452 204.564 125.318 Q 204.564 123.61 203.808 122.623 Q 203.052 121.636 201.792 121.636 Q 200.532 121.636 199.776 122.623 Q 199.02 123.61 199.02 125.318 Q 199.02 126.452 199.363 127.299 Q 199.706 128.146 200.329 128.608 Q 200.952 129.07 201.792 129.07 Z " fill="black" /><path d="M 208.876 129.952 L 208.876 129.952 L 206.888 120.754 L 208.12 120.754 L 209.1 125.752 Q 209.24 126.48 209.38 127.222 Q 209.52 127.964 209.66 128.706 L 209.716 128.706 Q 209.87 127.964 210.038 127.222 Q 210.206 126.48 210.374 125.752 L 211.676 120.754 L 212.754 120.754 L 214.056 125.752 Q 214.238 126.48 214.406 127.222 Q 214.574 127.964 214.728 128.706 L 214.798 128.706 Q 214.938 127.964 215.064 127.222 Q 215.19 126.48 215.33 125.752 L 216.31 120.754 L 217.472 120.754 L 215.526 129.952 L 214.084 129.952 L 212.67 124.464 Q 212.544 123.918 212.432 123.407 Q 212.32 122.896 212.208 122.364 L 212.152 122.364 Q 212.054 122.896 211.928 123.407 Q 211.802 123.918 211.69 124.464 L 210.304 129.952 Z " fill="black" /><path d="M 219.096 129.952 L 219.096 129.952 L 219.096 120.754 L 220.342 120.754 L 223.73 126.508 L 224.738 128.412 L 224.808 128.412 Q 224.766 127.712 224.71 126.956 Q 224.654 126.2 224.654 125.472 L 224.654 120.754 L 225.788 120.754 L 225.788 129.952 L 224.556 129.952 L 221.154 124.198 L 220.146 122.294 L 220.09 122.294 Q 220.132 122.994 220.188 123.729 Q 220.244 124.464 220.244 125.178 L 220.244 129.952 Z " fill="black" /></g></g></g><circle cx="432.0" cy="36.0" r="2.6999999999999997" style="stroke:black;fill:black;stroke-width:2.0;stroke-dasharray:-;" /><g><g><g><path d="M 414.055 109.126 L 414.055 109.126 L 414.307 109.392 Q 413.593 110.232 412.655 110.771 Q 411.717 111.31 410.387 111.31 Q 409.127 111.31 408.371 110.841 Q 407.615 110.372 407.286 109.588 Q 406.957 108.804 406.957 107.88 Q 406.957 106.41 407.405 105.269 Q 407.853 104.128 408.63 103.351 Q 409.407 102.574 410.387 102.175 Q 411.367 101.776 412.431 101.776 Q 413.145 101.776 413.544 101.902 Q 413.943 102.028 414.167 102.161 Q 414.391 102.294 414.559 102.294 Q 414.727 102.294 414.853 102.154 Q 414.979 102.014 415.147 101.79 L 415.553 101.79 L 414.895 104.996 L 414.433 104.996 Q 414.489 103.596 413.915 102.987 Q 413.341 102.378 412.305 102.378 Q 411.493 102.378 410.779 102.749 Q 410.065 103.12 409.512 103.799 Q 408.959 104.478 408.644 105.423 Q 408.329 106.368 408.329 107.53 Q 408.329 108.93 408.994 109.665 Q 409.659 110.4 411.045 110.4 Q 412.655 110.4 414.055 109.126 Z " fill="black" /><path d="M 415.928 109 L 415.928 109 L 415.644 108.863 Q 415.938 108.197 416.423 107.859 Q 416.908 107.52 417.516 107.52 Q 418.3 107.52 418.78 107.903 Q 419.26 108.285 419.26 108.892 Q 419.26 109.422 418.937 109.745 Q 418.613 110.069 418.133 110.382 L 418.133 110.431 Q 418.545 110.539 418.892 110.755 Q 419.24 110.97 419.446 111.308 Q 419.652 111.646 419.652 112.126 Q 419.652 112.665 419.417 113.062 Q 419.182 113.459 418.78 113.719 Q 418.378 113.979 417.863 114.101 Q 417.349 114.224 416.79 114.224 Q 416.31 114.224 416.06 114.14 Q 415.81 114.057 415.717 113.92 Q 415.624 113.783 415.624 113.645 Q 415.624 113.479 415.722 113.317 Q 415.82 113.156 416.055 113.156 Q 416.153 113.156 416.256 113.209 Q 416.359 113.263 416.634 113.42 Q 416.859 113.528 416.991 113.587 Q 417.124 113.645 417.226 113.665 Q 417.329 113.685 417.467 113.685 Q 417.761 113.685 418.05 113.577 Q 418.339 113.469 418.535 113.19 Q 418.731 112.91 418.731 112.401 Q 418.731 111.95 418.481 111.627 Q 418.231 111.303 417.81 111.122 Q 417.388 110.941 416.879 110.941 L 416.663 110.941 L 416.663 110.48 L 416.869 110.48 Q 417.222 110.48 417.555 110.318 Q 417.888 110.157 418.104 109.858 Q 418.319 109.559 418.319 109.147 Q 418.319 108.687 418.02 108.451 Q 417.721 108.216 417.261 108.216 Q 416.408 108.216 415.928 109 Z " fill="black" /></g></g></g><g><g><g><path d="M 476.48 10.632 L 476.48 10.632 L 473.484 1.434 L 474.758 1.434 L 476.27 6.39 Q 476.508 7.202 476.704 7.909 Q 476.9 8.616 477.166 9.428 L 477.236 9.428 Q 477.488 8.616 477.691 7.909 Q 477.894 7.202 478.132 6.39 L 479.63 1.434 L 480.848 1.434 L 477.866 10.632 Z " fill="black" /><path d="M 485.692 10.8 L 485.692 10.8 Q 484.53 10.8 483.599 10.233 Q 482.668 9.666 482.136 8.602 Q 481.604 7.538 481.604 6.068 Q 481.604 4.57 482.15 3.499 Q 482.696 2.428 483.627 1.854 Q 484.558 1.28 485.706 1.28 Q 486.686 1.28 487.316 1.637 Q 487.946 1.994 488.338 2.414 L 487.68 3.184 Q 486.868 2.316 485.748 2.316 Q 484.894 2.316 484.236 2.764 Q 483.578 3.212 483.207 4.045 Q 482.836 4.878 482.836 6.04 Q 482.836 7.174 483.193 8.007 Q 483.55 8.84 484.201 9.295 Q 484.852 9.75 485.734 9.75 Q 486.406 9.75 486.938 9.477 Q 487.47 9.204 487.918 8.728 L 488.562 9.47 Q 488.002 10.1 487.302 10.45 Q 486.602 10.8 485.692 10.8 Z " fill="black" /><path d="M 493.784 10.8 L 493.784 10.8 Q 492.608 10.8 491.705 10.219 Q 490.802 9.638 490.291 8.56 Q 489.78 7.482 489.78 5.998 Q 489.78 4.528 490.291 3.471 Q 490.802 2.414 491.705 1.847 Q 492.608 1.28 493.784 1.28 Q 494.974 1.28 495.877 1.847 Q 496.78 2.414 497.291 3.471 Q 497.802 4.528 497.802 5.998 Q 497.802 7.468 497.291 8.546 Q 496.78 9.624 495.877 10.212 Q 494.974 10.8 493.784 10.8 Z M 493.784 9.75 L 493.784 9.75 Q 494.624 9.75 495.247 9.288 Q 495.87 8.826 496.213 7.979 Q 496.556 7.132 496.556 5.998 Q 496.556 4.29 495.8 3.303 Q 495.044 2.316 493.784 2.316 Q 492.524 2.316 491.768 3.303 Q 491.012 4.29 491.012 5.998 Q 491.012 7.132 491.355 7.979 Q 491.698 8.826 492.321 9.288 Q 492.944 9.75 493.784 9.75 Z " fill="black" /></g></g></g><circle cx="540.0" cy="36.0" r="2.6999999999999997" style="stroke:black;fill:black;stroke-width:2.0;stroke-dasharray:-;" /><circle cx="576.0" cy="36.0" r="2.6999999999999997" style="stroke:black;fill:white;stroke-width:2.0;stroke-dasharray:-;" /><g><g><g><path d="M 584.96 32.864 L 584.96 32.864 L 586.164 32.864 Q 586.29 32.276 586.437 31.73 Q 586.584 31.184 586.822 30.75 Q 587.004 30.414 587.27 30.12 Q 587.536 29.826 587.949 29.637 Q 588.362 29.448 588.964 29.448 Q 589.608 29.448 589.951 29.735 Q 590.294 30.022 590.294 30.47 Q 590.294 30.778 590.126 30.932 Q 589.958 31.086 589.734 31.086 Q 589.454 31.086 589.328 30.925 Q 589.202 30.764 589.174 30.54 Q 589.132 30.274 589.069 30.064 Q 589.006 29.854 588.754 29.854 Q 588.222 29.854 587.928 30.414 Q 587.634 30.974 587.48 31.87 L 587.312 32.864 L 588.642 32.864 L 588.558 33.438 L 587.242 33.438 L 586.444 38.212 Q 586.388 38.576 586.269 39.122 Q 586.15 39.668 585.94 40.263 Q 585.73 40.858 585.429 41.376 Q 585.128 41.894 584.694 42.223 Q 584.26 42.552 583.686 42.552 Q 583.014 42.552 582.727 42.23 Q 582.44 41.908 582.44 41.544 Q 582.44 41.25 582.587 41.054 Q 582.734 40.858 583 40.858 Q 583.322 40.858 583.434 41.047 Q 583.546 41.236 583.574 41.481 Q 583.602 41.726 583.658 41.915 Q 583.714 42.104 583.91 42.104 Q 584.19 42.104 584.4 41.74 Q 584.61 41.376 584.764 40.837 Q 584.918 40.298 585.016 39.766 Q 585.114 39.234 585.17 38.884 L 586.08 33.438 L 584.904 33.438 Z " fill="black" /><path d="M 590.62 37.197 L 590.62 37.197 Q 591.355 37.197 591.904 37.516 Q 592.453 37.834 592.752 38.407 Q 593.051 38.981 593.051 39.755 Q 593.051 40.686 592.737 41.284 Q 592.423 41.881 591.875 42.17 Q 591.326 42.46 590.62 42.46 Q 589.905 42.46 589.351 42.161 Q 588.797 41.862 588.489 41.264 Q 588.18 40.666 588.18 39.765 Q 588.18 39 588.484 38.422 Q 588.788 37.844 589.336 37.52 Q 589.885 37.197 590.62 37.197 Z M 590.601 37.648 L 590.601 37.648 Q 589.954 37.648 589.586 38.172 Q 589.219 38.696 589.219 39.706 Q 589.219 40.95 589.596 41.465 Q 589.973 41.979 590.65 41.979 Q 591.081 41.97 591.385 41.764 Q 591.688 41.558 591.85 41.073 Q 592.012 40.588 592.012 39.755 Q 592.012 38.755 591.669 38.201 Q 591.326 37.648 590.601 37.648 Z " fill="black" /><path d="M 599.715 41.842 L 599.715 41.842 L 599.715 42.215 L 598.392 42.391 L 598.078 42.391 L 598.078 41.627 L 597.98 41.627 Q 597.608 41.96 597.225 42.2 Q 596.843 42.44 596.304 42.44 Q 595.579 42.44 595.197 41.999 Q 594.815 41.558 594.815 40.47 L 594.815 38.363 Q 594.815 37.961 594.673 37.868 Q 594.53 37.775 594.08 37.775 L 594.08 37.422 L 595.442 37.236 L 595.765 37.236 L 595.765 40.343 Q 595.765 40.892 595.893 41.195 Q 596.02 41.499 596.236 41.617 Q 596.451 41.734 596.706 41.734 Q 597.137 41.734 597.426 41.553 Q 597.715 41.372 598.029 41.117 L 598.029 38.363 Q 598.029 37.961 597.853 37.868 Q 597.676 37.775 597.176 37.775 L 597.176 37.422 L 598.637 37.236 L 598.98 37.236 L 598.98 41.205 Q 598.98 41.499 599.034 41.636 Q 599.087 41.774 599.225 41.808 Q 599.362 41.842 599.607 41.842 Z " fill="black" /><path d="M 603.537 41.362 L 603.537 41.362 L 603.762 41.548 Q 603.546 41.842 603.37 42.043 Q 603.194 42.244 602.968 42.352 Q 602.743 42.46 602.39 42.46 Q 601.822 42.46 601.562 42.136 Q 601.302 41.813 601.302 41.097 L 601.302 37.805 L 600.685 37.805 L 600.685 37.511 Q 601.038 37.256 601.332 36.888 Q 601.626 36.521 601.92 35.835 L 602.263 35.835 L 602.253 37.324 L 603.497 37.324 L 603.497 37.805 L 602.253 37.805 L 602.253 40.774 Q 602.253 41.323 602.356 41.553 Q 602.459 41.783 602.772 41.783 Q 603.056 41.783 603.203 41.681 Q 603.35 41.578 603.537 41.362 Z " fill="black" /><path d="M 618.413 34.824 L 618.413 34.824 L 610.069 34.824 L 610.069 33.872 L 618.413 33.872 Z M 618.413 37.68 L 618.413 37.68 L 610.069 37.68 L 610.069 36.742 L 618.413 36.742 Z " fill="black" /><path d="M 635.721 30.204 L 635.721 30.204 L 635.637 30.624 Q 635.259 30.624 635.056 30.694 Q 634.853 30.764 634.699 30.904 Q 634.573 31.016 634.447 31.177 Q 634.321 31.338 634.209 31.646 Q 634.097 31.954 633.985 32.5 L 632.557 39.514 L 632.095 39.514 L 627.979 31.996 L 627.909 31.996 L 626.817 37.316 Q 626.677 38.016 626.705 38.373 Q 626.733 38.73 626.992 38.856 Q 627.251 38.982 627.769 38.982 L 627.685 39.402 L 624.465 39.402 L 624.549 38.982 Q 625.095 38.982 625.389 38.863 Q 625.683 38.744 625.837 38.38 Q 625.991 38.016 626.131 37.316 L 627.377 31.268 Q 627.139 30.876 626.901 30.75 Q 626.663 30.624 626.215 30.624 L 626.299 30.204 L 628.497 30.204 L 632.277 37.092 L 632.347 37.092 L 633.313 32.43 Q 633.439 31.8 633.446 31.478 Q 633.453 31.156 633.355 30.974 Q 633.229 30.764 633.005 30.694 Q 632.781 30.624 632.333 30.624 L 632.417 30.204 Z " fill="black" /><path d="M 641.631 35.832 L 641.631 35.832 Q 641.631 36.154 641.414 36.392 Q 641.197 36.63 640.791 36.63 Q 640.385 36.63 640.182 36.399 Q 639.979 36.168 639.979 35.818 Q 639.979 35.468 640.196 35.216 Q 640.413 34.964 640.805 34.964 Q 641.211 34.964 641.421 35.223 Q 641.631 35.482 641.631 35.832 Z " fill="black" /><path d="M 648.549 32.864 L 648.549 32.864 L 649.753 32.864 Q 649.879 32.276 650.026 31.73 Q 650.173 31.184 650.411 30.75 Q 650.593 30.414 650.859 30.12 Q 651.125 29.826 651.538 29.637 Q 651.951 29.448 652.553 29.448 Q 653.197 29.448 653.54 29.735 Q 653.883 30.022 653.883 30.47 Q 653.883 30.778 653.715 30.932 Q 653.547 31.086 653.323 31.086 Q 653.043 31.086 652.917 30.925 Q 652.791 30.764 652.763 30.54 Q 652.721 30.274 652.658 30.064 Q 652.595 29.854 652.343 29.854 Q 651.811 29.854 651.517 30.414 Q 651.223 30.974 651.069 31.87 L 650.901 32.864 L 652.231 32.864 L 652.147 33.438 L 650.831 33.438 L 650.033 38.212 Q 649.977 38.576 649.858 39.122 Q 649.739 39.668 649.529 40.263 Q 649.319 40.858 649.018 41.376 Q 648.717 41.894 648.283 42.223 Q 647.849 42.552 647.275 42.552 Q 646.603 42.552 646.316 42.23 Q 646.029 41.908 646.029 41.544 Q 646.029 41.25 646.176 41.054 Q 646.323 40.858 646.589 40.858 Q 646.911 40.858 647.023 41.047 Q 647.135 41.236 647.163 41.481 Q 647.191 41.726 647.247 41.915 Q 647.303 42.104 647.499 42.104 Q 647.779 42.104 647.989 41.74 Q 648.199 41.376 648.353 40.837 Q 648.507 40.298 648.605 39.766 Q 648.703 39.234 648.759 38.884 L 649.669 33.438 L 648.493 33.438 Z " fill="black" /><path d="M 653.347 37.226 L 653.347 37.226 L 653.347 38.285 L 653.406 38.285 Q 653.798 37.736 654.107 37.447 Q 654.415 37.158 654.778 37.158 Q 655.405 37.158 655.405 37.775 Q 655.405 38.118 655.253 38.255 Q 655.101 38.393 654.925 38.393 Q 654.748 38.393 654.606 38.295 Q 654.464 38.197 654.366 38.099 Q 654.268 38.001 654.219 38.001 Q 654.062 38.001 653.813 38.265 Q 653.563 38.53 653.367 38.863 L 653.367 41.215 Q 653.367 41.695 653.577 41.837 Q 653.788 41.979 654.327 41.979 L 654.327 42.342 L 651.661 42.342 L 651.661 41.979 Q 651.995 41.979 652.151 41.921 Q 652.308 41.862 652.357 41.71 Q 652.406 41.558 652.406 41.284 L 652.406 38.442 Q 652.406 38.128 652.352 37.971 Q 652.298 37.814 651.995 37.814 Q 651.857 37.814 651.759 37.824 Q 651.661 37.834 651.661 37.834 L 651.661 37.471 L 652.984 37.226 Z " fill="black" /><path d="M 660.315 40.882 L 660.315 40.882 L 660.55 41.068 Q 660.344 41.44 660.089 41.754 Q 659.835 42.068 659.462 42.254 Q 659.09 42.44 658.521 42.44 Q 657.904 42.44 657.37 42.161 Q 656.836 41.881 656.512 41.303 Q 656.189 40.725 656.189 39.843 Q 656.189 38.971 656.493 38.383 Q 656.797 37.795 657.316 37.496 Q 657.835 37.197 658.472 37.197 Q 659.354 37.197 659.938 37.809 Q 660.521 38.422 660.54 39.637 L 657.091 39.637 Q 657.091 40.304 657.341 40.74 Q 657.59 41.176 657.982 41.386 Q 658.374 41.597 658.806 41.597 Q 659.247 41.597 659.511 41.504 Q 659.776 41.411 659.957 41.244 Q 660.138 41.078 660.315 40.882 Z M 657.091 39.186 L 657.091 39.186 L 659.492 39.186 Q 659.492 38.794 659.364 38.447 Q 659.237 38.099 658.992 37.878 Q 658.747 37.658 658.365 37.658 Q 657.806 37.658 657.478 38.05 Q 657.149 38.442 657.091 39.186 Z " fill="black" /><path d="M 661.51 37.324 L 661.51 37.324 L 662.294 37.324 Q 662.294 36.805 662.368 36.442 Q 662.441 36.08 662.628 35.717 Q 662.853 35.364 663.172 35.144 Q 663.49 34.923 664.078 34.923 Q 664.578 34.923 664.931 35.114 Q 665.283 35.306 665.283 35.678 Q 665.283 35.913 665.151 36.036 Q 665.019 36.158 664.842 36.158 Q 664.627 36.158 664.504 36.036 Q 664.382 35.913 664.186 35.707 Q 664.049 35.511 663.941 35.438 Q 663.833 35.364 663.686 35.364 Q 663.412 35.364 663.323 35.629 Q 663.235 35.894 663.235 36.54 L 663.235 37.324 L 664.509 37.324 L 664.509 37.805 L 663.235 37.805 L 663.235 41.039 Q 663.235 41.44 663.323 41.641 Q 663.412 41.842 663.647 41.911 Q 663.882 41.979 664.313 41.979 L 664.313 42.342 L 661.422 42.342 L 661.422 41.979 Q 661.795 41.979 661.981 41.911 Q 662.167 41.842 662.231 41.641 Q 662.294 41.44 662.294 41.039 L 662.294 37.805 L 661.51 37.805 Z " fill="black" /></g></g></g><g><g><g><path d="M 446.647 255.843 L 446.647 255.843 Q 446.647 256.165 446.423 256.41 Q 446.199 256.655 445.779 256.655 Q 445.359 256.655 445.156 256.417 Q 444.953 256.179 444.953 255.829 Q 444.953 255.465 445.177 255.206 Q 445.401 254.947 445.793 254.947 Q 446.199 254.947 446.423 255.213 Q 446.647 255.479 446.647 255.843 Z M 446.647 250.747 L 446.647 250.747 Q 446.647 251.069 446.423 251.314 Q 446.199 251.559 445.779 251.559 Q 445.359 251.559 445.156 251.321 Q 444.953 251.083 444.953 250.733 Q 444.953 250.369 445.177 250.11 Q 445.401 249.851 445.793 249.851 Q 446.199 249.851 446.423 250.117 Q 446.647 250.383 446.647 250.747 Z " fill="black" /><path d="M 448.803 256.543 L 448.803 256.543 L 448.803 247.345 L 450.049 247.345 L 453.437 253.099 L 454.445 255.003 L 454.515 255.003 Q 454.473 254.303 454.417 253.547 Q 454.361 252.791 454.361 252.063 L 454.361 247.345 L 455.495 247.345 L 455.495 256.543 L 454.263 256.543 L 450.861 250.789 L 449.853 248.885 L 449.797 248.885 Q 449.839 249.585 449.895 250.32 Q 449.951 251.055 449.951 251.769 L 449.951 256.543 Z " fill="black" /></g></g></g><g><g><g><path d="M 136.497 259.016 L 136.497 259.016 L 137.701 259.016 Q 137.827 258.428 137.974 257.882 Q 138.121 257.336 138.359 256.902 Q 138.541 256.566 138.807 256.272 Q 139.073 255.978 139.486 255.789 Q 139.899 255.6 140.501 255.6 Q 141.145 255.6 141.488 255.887 Q 141.831 256.174 141.831 256.622 Q 141.831 256.93 141.663 257.084 Q 141.495 257.238 141.271 257.238 Q 140.991 257.238 140.865 257.077 Q 140.739 256.916 140.711 256.692 Q 140.669 256.426 140.606 256.216 Q 140.543 256.006 140.291 256.006 Q 139.759 256.006 139.465 256.566 Q 139.171 257.126 139.017 258.022 L 138.849 259.016 L 140.179 259.016 L 140.095 259.59 L 138.779 259.59 L 137.981 264.364 Q 137.925 264.728 137.806 265.274 Q 137.687 265.82 137.477 266.415 Q 137.267 267.01 136.966 267.528 Q 136.665 268.046 136.231 268.375 Q 135.797 268.704 135.223 268.704 Q 134.551 268.704 134.264 268.382 Q 133.977 268.06 133.977 267.696 Q 133.977 267.402 134.124 267.206 Q 134.271 267.01 134.537 267.01 Q 134.859 267.01 134.971 267.199 Q 135.083 267.388 135.111 267.633 Q 135.139 267.878 135.195 268.067 Q 135.251 268.256 135.447 268.256 Q 135.727 268.256 135.937 267.892 Q 136.147 267.528 136.301 266.989 Q 136.455 266.45 136.553 265.918 Q 136.651 265.386 136.707 265.036 L 137.617 259.59 L 136.441 259.59 Z " fill="black" /><path d="M 139.57 263.476 L 139.57 263.476 L 140.354 263.476 Q 140.354 262.957 140.428 262.594 Q 140.501 262.232 140.688 261.869 Q 140.913 261.516 141.231 261.296 Q 141.55 261.075 142.138 261.075 Q 142.638 261.075 142.991 261.267 Q 143.343 261.458 143.343 261.83 Q 143.343 262.065 143.211 262.188 Q 143.079 262.31 142.902 262.31 Q 142.687 262.31 142.564 262.188 Q 142.442 262.065 142.246 261.859 Q 142.109 261.663 142.001 261.59 Q 141.893 261.516 141.746 261.516 Q 141.472 261.516 141.383 261.781 Q 141.295 262.046 141.295 262.692 L 141.295 263.476 L 142.569 263.476 L 142.569 263.957 L 141.295 263.957 L 141.295 267.191 Q 141.295 267.592 141.383 267.793 Q 141.472 267.994 141.707 268.063 Q 141.942 268.131 142.373 268.131 L 142.373 268.494 L 139.482 268.494 L 139.482 268.131 Q 139.855 268.131 140.041 268.063 Q 140.227 267.994 140.291 267.793 Q 140.354 267.592 140.354 267.191 L 140.354 263.957 L 139.57 263.957 Z " fill="black" /><path d="M 145.392 261.173 L 145.392 261.173 L 145.392 264.211 L 145.441 264.211 Q 145.725 263.878 146.112 263.614 Q 146.499 263.349 147.048 263.349 Q 147.557 263.349 147.974 263.658 Q 148.39 263.966 148.64 264.51 Q 148.89 265.054 148.89 265.76 Q 148.89 266.701 148.547 267.338 Q 148.204 267.975 147.611 268.293 Q 147.018 268.612 146.264 268.612 Q 145.823 268.612 145.45 268.538 Q 145.078 268.465 144.818 268.367 Q 144.559 268.269 144.441 268.22 L 144.441 262.34 Q 144.441 261.977 144.363 261.874 Q 144.284 261.771 143.951 261.771 Q 143.843 261.771 143.75 261.786 Q 143.657 261.801 143.657 261.801 L 143.657 261.428 L 144.99 261.173 Z M 145.392 264.721 L 145.392 264.721 L 145.392 267.661 Q 145.509 267.877 145.764 268.004 Q 146.019 268.131 146.44 268.131 Q 146.96 268.131 147.273 267.852 Q 147.587 267.573 147.729 267.107 Q 147.871 266.642 147.871 266.093 Q 147.871 265.593 147.758 265.138 Q 147.646 264.682 147.361 264.398 Q 147.077 264.113 146.577 264.113 Q 146.313 264.113 146.073 264.216 Q 145.833 264.319 145.656 264.461 Q 145.48 264.603 145.392 264.721 Z " fill="black" /><path d="M 163.874 260.976 L 163.874 260.976 L 155.53 260.976 L 155.53 260.024 L 163.874 260.024 Z M 163.874 263.832 L 163.874 263.832 L 155.53 263.832 L 155.53 262.894 L 163.874 262.894 Z " fill="black" /><path d="M 172.586 259.016 L 172.586 259.016 L 173.79 259.016 Q 173.916 258.428 174.063 257.882 Q 174.21 257.336 174.448 256.902 Q 174.63 256.566 174.896 256.272 Q 175.162 255.978 175.575 255.789 Q 175.988 255.6 176.59 255.6 Q 177.234 255.6 177.577 255.887 Q 177.92 256.174 177.92 256.622 Q 177.92 256.93 177.752 257.084 Q 177.584 257.238 177.36 257.238 Q 177.08 257.238 176.954 257.077 Q 176.828 256.916 176.8 256.692 Q 176.758 256.426 176.695 256.216 Q 176.632 256.006 176.38 256.006 Q 175.848 256.006 175.554 256.566 Q 175.26 257.126 175.106 258.022 L 174.938 259.016 L 176.268 259.016 L 176.184 259.59 L 174.868 259.59 L 174.07 264.364 Q 174.014 264.728 173.895 265.274 Q 173.776 265.82 173.566 266.415 Q 173.356 267.01 173.055 267.528 Q 172.754 268.046 172.32 268.375 Q 171.886 268.704 171.312 268.704 Q 170.64 268.704 170.353 268.382 Q 170.066 268.06 170.066 267.696 Q 170.066 267.402 170.213 267.206 Q 170.36 267.01 170.626 267.01 Q 170.948 267.01 171.06 267.199 Q 171.172 267.388 171.2 267.633 Q 171.228 267.878 171.284 268.067 Q 171.34 268.256 171.536 268.256 Q 171.816 268.256 172.026 267.892 Q 172.236 267.528 172.39 266.989 Q 172.544 266.45 172.642 265.918 Q 172.74 265.386 172.796 265.036 L 173.706 259.59 L 172.53 259.59 Z " fill="black" /><path d="M 178.246 263.349 L 178.246 263.349 Q 178.981 263.349 179.53 263.668 Q 180.079 263.986 180.378 264.559 Q 180.676 265.133 180.676 265.907 Q 180.676 266.838 180.363 267.436 Q 180.049 268.033 179.5 268.323 Q 178.952 268.612 178.246 268.612 Q 177.531 268.612 176.977 268.313 Q 176.423 268.014 176.115 267.416 Q 175.806 266.818 175.806 265.917 Q 175.806 265.152 176.11 264.574 Q 176.413 263.996 176.962 263.672 Q 177.511 263.349 178.246 263.349 Z M 178.226 263.8 L 178.226 263.8 Q 177.58 263.8 177.212 264.324 Q 176.845 264.848 176.845 265.858 Q 176.845 267.102 177.222 267.617 Q 177.599 268.131 178.275 268.131 Q 178.707 268.122 179.01 267.916 Q 179.314 267.71 179.476 267.225 Q 179.638 266.74 179.638 265.907 Q 179.638 264.907 179.295 264.354 Q 178.952 263.8 178.226 263.8 Z " fill="black" /><path d="M 187.34 267.994 L 187.34 267.994 L 187.34 268.367 L 186.017 268.543 L 185.704 268.543 L 185.704 267.779 L 185.606 267.779 Q 185.233 268.112 184.851 268.352 Q 184.469 268.592 183.93 268.592 Q 183.205 268.592 182.823 268.151 Q 182.44 267.71 182.44 266.622 L 182.44 264.515 Q 182.44 264.113 182.298 264.02 Q 182.156 263.927 181.705 263.927 L 181.705 263.574 L 183.068 263.388 L 183.391 263.388 L 183.391 266.495 Q 183.391 267.044 183.518 267.347 Q 183.646 267.651 183.861 267.769 Q 184.077 267.886 184.332 267.886 Q 184.763 267.886 185.052 267.705 Q 185.341 267.524 185.655 267.269 L 185.655 264.515 Q 185.655 264.113 185.478 264.02 Q 185.302 263.927 184.802 263.927 L 184.802 263.574 L 186.262 263.388 L 186.605 263.388 L 186.605 267.357 Q 186.605 267.651 186.659 267.788 Q 186.713 267.926 186.85 267.96 Q 186.988 267.994 187.233 267.994 Z " fill="black" /><path d="M 191.162 267.514 L 191.162 267.514 L 191.388 267.7 Q 191.172 267.994 190.996 268.195 Q 190.819 268.396 190.594 268.504 Q 190.369 268.612 190.016 268.612 Q 189.447 268.612 189.188 268.288 Q 188.928 267.965 188.928 267.249 L 188.928 263.957 L 188.311 263.957 L 188.311 263.663 Q 188.663 263.408 188.957 263.04 Q 189.251 262.673 189.545 261.987 L 189.888 261.987 L 189.879 263.476 L 191.123 263.476 L 191.123 263.957 L 189.879 263.957 L 189.879 266.926 Q 189.879 267.475 189.982 267.705 Q 190.084 267.935 190.398 267.935 Q 190.682 267.935 190.829 267.833 Q 190.976 267.73 191.162 267.514 Z " fill="black" /><path d="M 196.557 255.628 L 196.557 255.628 L 192.917 266.8 L 192.133 266.8 L 195.787 255.628 Z " fill="black" /><path d="M 208.303 256.356 L 208.303 256.356 L 208.219 256.776 Q 207.841 256.776 207.638 256.846 Q 207.435 256.916 207.281 257.056 Q 207.155 257.168 207.029 257.329 Q 206.903 257.49 206.791 257.798 Q 206.679 258.106 206.567 258.652 L 205.139 265.666 L 204.677 265.666 L 200.561 258.148 L 200.491 258.148 L 199.399 263.468 Q 199.259 264.168 199.287 264.525 Q 199.315 264.882 199.574 265.008 Q 199.833 265.134 200.351 265.134 L 200.267 265.554 L 197.047 265.554 L 197.131 265.134 Q 197.677 265.134 197.971 265.015 Q 198.265 264.896 198.419 264.532 Q 198.573 264.168 198.713 263.468 L 199.959 257.42 Q 199.721 257.028 199.483 256.902 Q 199.245 256.776 198.797 256.776 L 198.881 256.356 L 201.079 256.356 L 204.859 263.244 L 204.929 263.244 L 205.895 258.582 Q 206.021 257.952 206.028 257.63 Q 206.035 257.308 205.937 257.126 Q 205.811 256.916 205.587 256.846 Q 205.363 256.776 204.915 256.776 L 204.999 256.356 Z " fill="black" /></g></g></g><circle cx="-90.0" cy="-27.000000000000007" r="2.6999999999999997" style="stroke:black;fill:white;stroke-width:2.0;stroke-dasharray:-;" /><g><g><g><path d="M -112.894 -30.136 L -112.894 -30.136 L -111.69 -30.136 Q -111.564 -30.724 -111.417 -31.27 Q -111.27 -31.816 -111.032 -32.25 Q -110.85 -32.586 -110.584 -32.88 Q -110.318 -33.174 -109.905 -33.363 Q -109.492 -33.552 -108.89 -33.552 Q -108.246 -33.552 -107.903 -33.265 Q -107.56 -32.978 -107.56 -32.53 Q -107.56 -32.222 -107.728 -32.068 Q -107.896 -31.914 -108.12 -31.914 Q -108.4 -31.914 -108.526 -32.075 Q -108.652 -32.236 -108.68 -32.46 Q -108.722 -32.726 -108.785 -32.936 Q -108.848 -33.146 -109.1 -33.146 Q -109.632 -33.146 -109.926 -32.586 Q -110.22 -32.026 -110.374 -31.13 L -110.542 -30.136 L -109.212 -30.136 L -109.296 -29.562 L -110.612 -29.562 L -111.41 -24.788 Q -111.466 -24.424 -111.585 -23.878 Q -111.704 -23.332 -111.914 -22.737 Q -112.124 -22.142 -112.425 -21.624 Q -112.726 -21.106 -113.16 -20.777 Q -113.594 -20.448 -114.168 -20.448 Q -114.84 -20.448 -115.127 -20.77 Q -115.414 -21.092 -115.414 -21.456 Q -115.414 -21.75 -115.267 -21.946 Q -115.12 -22.142 -114.854 -22.142 Q -114.532 -22.142 -114.42 -21.953 Q -114.308 -21.764 -114.28 -21.519 Q -114.252 -21.274 -114.196 -21.085 Q -114.14 -20.896 -113.944 -20.896 Q -113.664 -20.896 -113.454 -21.26 Q -113.244 -21.624 -113.09 -22.163 Q -112.936 -22.702 -112.838 -23.234 Q -112.74 -23.766 -112.684 -24.116 L -111.774 -29.562 L -112.95 -29.562 Z " fill="black" /><path d="M -108.096 -25.774 L -108.096 -25.774 L -108.096 -24.715 L -108.038 -24.715 Q -107.646 -25.264 -107.337 -25.553 Q -107.028 -25.842 -106.666 -25.842 Q -106.038 -25.842 -106.038 -25.225 Q -106.038 -24.882 -106.19 -24.745 Q -106.342 -24.607 -106.519 -24.607 Q -106.695 -24.607 -106.837 -24.705 Q -106.979 -24.803 -107.077 -24.901 Q -107.175 -24.999 -107.224 -24.999 Q -107.381 -24.999 -107.631 -24.735 Q -107.881 -24.47 -108.077 -24.137 L -108.077 -21.785 Q -108.077 -21.305 -107.866 -21.163 Q -107.655 -21.021 -107.116 -21.021 L -107.116 -20.658 L -109.782 -20.658 L -109.782 -21.021 Q -109.449 -21.021 -109.292 -21.079 Q -109.135 -21.138 -109.086 -21.29 Q -109.037 -21.442 -109.037 -21.716 L -109.037 -24.558 Q -109.037 -24.872 -109.091 -25.029 Q -109.145 -25.186 -109.449 -25.186 Q -109.586 -25.186 -109.684 -25.176 Q -109.782 -25.166 -109.782 -25.166 L -109.782 -25.529 L -108.459 -25.774 Z " fill="black" /><path d="M -101.129 -22.118 L -101.129 -22.118 L -100.893 -21.932 Q -101.099 -21.56 -101.354 -21.246 Q -101.609 -20.932 -101.981 -20.746 Q -102.354 -20.56 -102.922 -20.56 Q -103.539 -20.56 -104.073 -20.839 Q -104.608 -21.119 -104.931 -21.697 Q -105.254 -22.275 -105.254 -23.157 Q -105.254 -24.029 -104.951 -24.617 Q -104.647 -25.205 -104.127 -25.504 Q -103.608 -25.803 -102.971 -25.803 Q -102.089 -25.803 -101.506 -25.191 Q -100.923 -24.578 -100.903 -23.363 L -104.353 -23.363 Q -104.353 -22.696 -104.103 -22.26 Q -103.853 -21.824 -103.461 -21.614 Q -103.069 -21.403 -102.638 -21.403 Q -102.197 -21.403 -101.932 -21.496 Q -101.668 -21.589 -101.486 -21.756 Q -101.305 -21.922 -101.129 -22.118 Z M -104.353 -23.814 L -104.353 -23.814 L -101.952 -23.814 Q -101.952 -24.206 -102.079 -24.554 Q -102.207 -24.901 -102.452 -25.122 Q -102.697 -25.342 -103.079 -25.342 Q -103.637 -25.342 -103.966 -24.95 Q -104.294 -24.558 -104.353 -23.814 Z " fill="black" /><path d="M -99.933 -25.676 L -99.933 -25.676 L -99.149 -25.676 Q -99.149 -26.195 -99.075 -26.558 Q -99.002 -26.92 -98.816 -27.283 Q -98.59 -27.636 -98.272 -27.856 Q -97.953 -28.077 -97.365 -28.077 Q -96.866 -28.077 -96.513 -27.886 Q -96.16 -27.694 -96.16 -27.322 Q -96.16 -27.087 -96.292 -26.964 Q -96.425 -26.842 -96.601 -26.842 Q -96.817 -26.842 -96.939 -26.964 Q -97.062 -27.087 -97.258 -27.293 Q -97.395 -27.489 -97.503 -27.562 Q -97.61 -27.636 -97.757 -27.636 Q -98.032 -27.636 -98.12 -27.371 Q -98.208 -27.106 -98.208 -26.46 L -98.208 -25.676 L -96.934 -25.676 L -96.934 -25.195 L -98.208 -25.195 L -98.208 -21.961 Q -98.208 -21.56 -98.12 -21.359 Q -98.032 -21.158 -97.797 -21.089 Q -97.561 -21.021 -97.13 -21.021 L -97.13 -20.658 L -100.021 -20.658 L -100.021 -21.021 Q -99.649 -21.021 -99.463 -21.089 Q -99.276 -21.158 -99.213 -21.359 Q -99.149 -21.56 -99.149 -21.961 L -99.149 -25.195 L -99.933 -25.195 Z " fill="black" /></g></g></g></svg>