<svg xmlns="http://www.w3.org/2000/svg" xmlns:xlink="http://www.w3.org/1999/xlink" xml:lang="en" height="351.43999999999994pt" width="290.4208pt" viewBox="-145.21040000000002 -33.4 290.4208 351.43999999999994"><circle cx="-0" cy="36" r="18" style="stroke:black;fill:none;stroke-width:2.0;stroke-dasharray:-;" /><path d="M 0.0,-0.0 L 0,-14.4" style="stroke:black;fill:none;stroke-width:2.0;stroke-dasharray:-;stroke-linecap:round;stroke-linejoin:round;" /><path d="M 0.0,-14.4 L -6.75,-14.4" style="stroke:black;fill:none;stroke-width:2.0;stroke-dasharray:-;stroke-linecap:round;stroke-linejoin:round;" /><path d="M 0.0,-14.4 L 6.75,-14.4" style="stroke:black;fill:none;stroke-width:2.0;stroke-dasharray:-;stroke-linecap:round;stroke-linejoin:round;" /><path d="M 0.0,-0.0 L -0,18 L -0,18 M -0,54 L -0,54 L -0,72" style="stroke:black;fill:none;stroke-width:2.0;stroke-dasharray:-;stroke-linecap:round;stroke-linejoin:round;" /><path d="M -4.9598195365467806e-15,27.0 L -0,36" style="stroke:black;fill:none;stroke-width:2.0;stroke-dasharray:-;stroke-linecap:round;stroke-linejoin:round;" /><path d="M -0 43 L -2.7 36 L 2.7 36 Z" style="stroke:black;fill:black;stroke-linecap:butt;stroke-linejoin:miter;" /><path d="M -1.3226185430791413e-14,72.0 L -54,72 L -108,72" style="stroke:black;fill:none;stroke-width:2.0;stroke-dasharray:-;stroke-linecap:round;stroke-linejoin:round;" /><path d="M -108.00000000000001,71.99999999999999 L -108,81 L -108,90" style="stroke:black;fill:none;stroke-width:2.0;stroke-dasharray:-;stroke-linecap:round;stroke-linejoin:round;" /><path d="M -108.00000000000001,89.99999999999999 L -108,105 L -93,105 L -93,135 L -108,135 L -108,150" style="stroke:black;fill:none;stroke-width:2.0;stroke-dasharray:-;stroke-linecap:round;stroke-linejoin:round;" /><path d="M -108.00000000000001,104.99999999999997 L -102,105" style="stroke:black;fill:none;stroke-width:2.0;stroke-dasharray:-;stroke-linecap:round;stroke-linejoin:round;" /><path d="M -95 105 L -102 109.5 L -102 100.5 Z" style="stroke:black;fill:black;stroke-linecap:butt;stroke-linejoin:miter;" /><path d="M -90.00000000000001,107.99999999999999 L -90,132" style="stroke:black;fill:none;stroke-width:2.0;stroke-dasharray:-;stroke-linecap:round;stroke-linejoin:round;" /><path d="M -90.00000000000001,119.99999999999999 L -75,120" style="stroke:black;fill:none;stroke-width:2.0;stroke-dasharray:-;stroke-linecap:round;stroke-linejoin:round;" /><path d="M -1.3226185430791413e-14,72.0 L 54,72 L 108,72" style="stroke:black;fill:none;stroke-width:2.0;stroke-dasharray:-;stroke-linecap:round;stroke-linejoin:round;" /><path d="M 107.99999999999999,72.0 L 108,81 L 108,90" style="stroke:black;fill:none;stroke-width:2.0;stroke-dasharray:-;stroke-linecap:round;stroke-linejoin:round;" /><path d="M 107.99999999999999,149.99999999999997 L 108,135 L 93,135 L 93,105 L 108,105 L 108,90" style="stroke:black;fill:none;stroke-width:2.0;stroke-dasharray:-;stroke-linecap:round;stroke-linejoin:round;" /><path d="M 101.99999999999999,105.0 L 108,105" style="stroke:black;fill:none;stroke-width:2.0;stroke-dasharray:-;stroke-linecap:round;stroke-linejoin:round;" /><path d="M 95 105 L 102 100.5 L 102 109.5 Z" style="stroke:black;fill:black;stroke-linecap:butt;stroke-linejoin:miter;" /><path d="M 89.99999999999999,132.0 L 90,108" style="stroke:black;fill:none;stroke-width:2.0;stroke-dasharray:-;stroke-linecap:round;stroke-linejoin:round;" /><path d="M 74.99999999999999,119.99999999999999 L 90,120" style="stroke:black;fill:none;stroke-width:2.0;stroke-dasharray:-;stroke-linecap:round;stroke-linejoin:round;" /><path d="M -108.00000000000001,149.99999999999997 L -108,159 L -108,168" style="stroke:black;fill:none;stroke-width:2.0;stroke-dasharray:-;stroke-linecap:round;stroke-linejoin:round;" /><path d="M -108.00000000000001,167.99999999999997 L -108,186 L -108,204" style="stroke:black;fill:none;stroke-width:2.0;stroke-dasharray:-;stroke-linecap:round;stroke-linejoin:round;" /><path d="M -108.00000000000001,167.99999999999997 L -72,168 L 39,120 L 75,120" style="stroke:black;fill:none;stroke-width:2.0;stroke-dasharray:-;stroke-linecap:round;stroke-linejoin:round;" /><path d="M 107.99999999999999,149.99999999999997 L 108,159 L 108,168" style="stroke:black;fill:none;stroke-width:2.0;stroke-dasharray:-;stroke-linecap:round;stroke-linejoin:round;" /><path d="M 107.99999999999999,167.99999999999997 L 108,186 L 108,204" style="stroke:black;fill:none;stroke-width:2.0;stroke-dasharray:-;stroke-linecap:round;stroke-linejoin:round;" /><path d="M 107.99999999999999,167.99999999999997 L 72,168 L -39,120 L -75,120" style="stroke:black;fill:none;stroke-width:2.0;stroke-dasharray:-;stroke-linecap:round;stroke-linejoin:round;" /><path d="M -108.00000000000001,203.99999999999997 L -3.24,204 M -3.24,195 L -3.24,213 M 3.24,195 L 3.24,213 M 3.24,204 L 108,204" style="stroke:black;fill:none;stroke-width:2.0;stroke-dasharray:-;stroke-linecap:round;stroke-linejoin:round;" /><path d="M -15.240000000000016,212.99999999999997 L 8.862,196.129" style="stroke:black;fill:none;stroke-width:2.0;stroke-dasharray:-;stroke-linecap:round;stroke-linejoin:round;" /><path d="M 13.122 193.147 L 10.513 198.488 L 7.21 193.77 Z" style="stroke:black;fill:black;stroke-linecap:butt;stroke-linejoin:miter;" /><path d="M -108.00000000000001,203.99999999999997 L -108,240 L -108,276" style="stroke:black;fill:none;stroke-width:2.0;stroke-dasharray:-;stroke-linecap:round;stroke-linejoin:round;" /><path d="M 107.99999999999999,203.99999999999997 L 108,240 L 108,276" style="stroke:black;fill:none;stroke-width:2.0;stroke-dasharray:-;stroke-linecap:round;stroke-linejoin:round;" /><path d="M -108.00000000000003,276.0 L -72,276 L -71.933,274.338 L -71.729,272.633 L -71.386,270.93 L -70.907,269.276 L -70.296,267.716 L -69.564,266.292 L -68.724,265.044 L -67.79,264.004 L -66.781,263.202 L -65.718,262.659 L -64.621,262.39 L -63.514,262.402 L -62.42,262.696 L -61.36,263.262 L -60.357,264.086 L -59.431,265.145 L -58.599,266.41 L -57.878,267.848 L -57.278,269.418 L -56.811,271.078 L -56.48,272.783 L -56.288,274.486 L -56.233,276.142 L -56.309,277.704 L -56.506,279.131 L -56.813,280.384 L -57.213,281.429 L -57.688,282.236 L -58.219,282.785 L -58.783,283.06 L -59.358,283.054 L -59.921,282.767 L -60.45,282.206 L -60.923,281.388 L -61.319,280.334 L -61.621,279.072 L -61.814,277.639 L -61.884,276.071 L -61.823,274.412 L -61.625,272.708 L -61.288,271.004 L -60.814,269.347 L -60.209,267.782 L -59.483,266.351 L -58.646,265.094 L -57.716,264.045 L -56.711,263.232 L -55.649,262.677 L -54.553,262.396 L -53.447,262.396 L -52.351,262.677 L -51.289,263.232 L -50.284,264.045 L -49.354,265.094 L -48.517,266.351 L -47.791,267.782 L -47.186,269.347 L -46.712,271.004 L -46.375,272.708 L -46.177,274.412 L -46.116,276.071 L -46.186,277.639 L -46.379,279.072 L -46.681,280.334 L -47.077,281.388 L -47.55,282.206 L -48.079,282.767 L -48.642,283.054 L -49.217,283.06 L -49.781,282.785 L -50.312,282.236 L -50.787,281.429 L -51.187,280.384 L -51.494,279.131 L -51.691,277.704 L -51.767,276.142 L -51.712,274.486 L -51.52,272.783 L -51.189,271.078 L -50.722,269.418 L -50.122,267.848 L -49.401,266.41 L -48.569,265.145 L -47.643,264.086 L -46.64,263.262 L -45.58,262.696 L -44.486,262.402 L -43.379,262.39 L -42.282,262.659 L -41.219,263.202 L -40.21,264.004 L -39.276,265.044 L -38.436,266.292 L -37.704,267.716 L -37.093,269.276 L -36.614,270.93 L -36.271,272.633 L -36.067,274.338 L -36,276 L -0,276" style="stroke:black;fill:none;stroke-width:2.0;stroke-dasharray:-;stroke-linecap:round;stroke-linejoin:round;" /><path d="M -3.197442310920451e-14,275.99999999999994 L -0,290.4 L -9,290.4 L 9,290.4 M -6.3,294.72 L 6.3,294.72 M -1.8,299.04 L 1.8,299.04" style="stroke:black;fill:none;stroke-width:2.0;stroke-dasharray:-;stroke-linecap:round;stroke-linejoin:round;" /><path d="M -3.197442310920451e-14,275.99999999999994 L 36,276 L 36.067,274.338 L 36.271,272.633 L 36.614,270.93 L 37.093,269.276 L 37.704,267.716 L 38.436,266.292 L 39.276,265.044 L 40.21,264.004 L 41.219,263.202 L 42.282,262.659 L 43.379,262.39 L 44.486,262.402 L 45.58,262.696 L 46.64,263.262 L 47.643,264.086 L 48.569,265.145 L 49.401,266.41 L 50.122,267.848 L 50.722,269.418 L 51.189,271.078 L 51.52,272.783 L 51.712,274.486 L 51.767,276.142 L 51.691,277.704 L 51.494,279.131 L 51.187,280.384 L 50.787,281.429 L 50.312,282.236 L 49.781,282.785 L 49.217,283.06 L 48.642,283.054 L 48.079,282.767 L 47.55,282.206 L 47.077,281.388 L 46.681,280.334 L 46.379,279.072 L 46.186,277.639 L 46.116,276.071 L 46.177,274.412 L 46.375,272.708 L 46.712,271.004 L 47.186,269.347 L 47.791,267.782 L 48.517,266.351 L 49.354,265.094 L 50.284,264.045 L 51.289,263.232 L 52.351,262.677 L 53.447,262.396 L 54.553,262.396 L 55.649,262.677 L 56.711,263.232 L 57.716,264.045 L 58.646,265.094 L 59.483,266.351 L 60.209,267.782 L 60.814,269.347 L 61.288,271.004 L 61.625,272.708 L 61.823,274.412 L 61.884,276.071 L 61.814,277.639 L 61.621,279.072 L 61.319,280.334 L 60.923,281.388 L 60.45,282.206 L 59.921,282.767 L 59.358,283.054 L 58.783,283.06 L 58.219,282.785 L 57.688,282.236 L 57.213,281.429 L 56.813,280.384 L 56.506,279.131 L 56.309,277.704 L 56.233,276.142 L 56.288,274.486 L 56.48,272.783 L 56.811,271.078 L 57.278,269.418 L 57.878,267.848 L 58.599,266.41 L 59.431,265.145 L 60.357,264.086 L 61.36,263.262 L 62.42,262.696 L 63.514,262.402 L 64.621,262.39 L 65.718,262.659 L 66.781,263.202 L 67.79,264.004 L 68.724,265.044 L 69.564,266.292 L 70.296,267.716 L 70.907,269.276 L 71.386,270.93 L 71.729,272.633 L 71.933,274.338 L 72,276 L 108,276" style="stroke:black;fill:none;stroke-width:2.0;stroke-dasharray:-;stroke-linecap:round;stroke-linejoin:round;" /><circle cx="-0" cy="72" r="2.7" style="stroke:black;fill:black;stroke-width:2.0;stroke-dasharray:-;" /><g><g><g><path d="M -118.702 123.129 L -118.702 123.129 L -122.44 123.129 L -122.356 122.709 Q -121.838 122.709 -121.565 122.611 Q -121.292 122.513 -121.152 122.24 Q -121.012 121.967 -120.914 121.463 L -119.668 115.415 L -119.724 115.415 L -124.428 123.129 L -124.736 123.129 L -126.43 115.429 L -126.486 115.429 L -127.648 121.085 Q -127.788 121.799 -127.767 122.149 Q -127.746 122.499 -127.494 122.604 Q -127.242 122.709 -126.71 122.709 L -126.794 123.129 L -130.028 123.129 L -129.944 122.709 Q -129.398 122.709 -129.104 122.604 Q -128.81 122.499 -128.642 122.149 Q -128.474 121.799 -128.334 121.085 L -127.228 115.639 Q -127.116 115.107 -127.158 114.834 Q -127.2 114.561 -127.459 114.456 Q -127.718 114.351 -128.278 114.351 L -128.194 113.931 L -125.394 113.931 L -123.882 121.015 L -123.826 121.015 L -119.556 113.931 L -116.91 113.931 L -116.994 114.351 Q -117.484 114.351 -117.771 114.456 Q -118.058 114.561 -118.212 114.834 Q -118.366 115.107 -118.478 115.625 L -119.668 121.463 Q -119.822 122.233 -119.591 122.471 Q -119.36 122.709 -118.618 122.709 Z " fill="black" /><path d="M -112.677 126.069 L -112.677 126.069 L -115.999 126.069 L -115.999 125.716 Q -115.293 125.716 -115.063 125.574 Q -114.833 125.432 -114.833 125.06 L -114.833 120.787 Q -114.833 120.522 -114.911 120.405 Q -114.989 120.287 -115.195 120.287 Q -115.352 120.287 -115.622 120.331 Q -115.891 120.375 -116.087 120.424 L -116.087 120.032 L -114.274 119.532 L -113.853 119.532 L -113.853 125.06 Q -113.853 125.432 -113.603 125.574 Q -113.353 125.716 -112.677 125.716 Z " fill="black" /></g></g></g><g><g><g><path d="M 122.926 123.129 L 122.926 123.129 L 119.188 123.129 L 119.272 122.709 Q 119.79 122.709 120.063 122.611 Q 120.336 122.513 120.476 122.24 Q 120.616 121.967 120.714 121.463 L 121.96 115.415 L 121.904 115.415 L 117.2 123.129 L 116.892 123.129 L 115.198 115.429 L 115.142 115.429 L 113.98 121.085 Q 113.84 121.799 113.861 122.149 Q 113.882 122.499 114.134 122.604 Q 114.386 122.709 114.918 122.709 L 114.834 123.129 L 111.6 123.129 L 111.684 122.709 Q 112.23 122.709 112.524 122.604 Q 112.818 122.499 112.986 122.149 Q 113.154 121.799 113.294 121.085 L 114.4 115.639 Q 114.512 115.107 114.47 114.834 Q 114.428 114.561 114.169 114.456 Q 113.91 114.351 113.35 114.351 L 113.434 113.931 L 116.234 113.931 L 117.746 121.015 L 117.802 121.015 L 122.072 113.931 L 124.718 113.931 L 124.634 114.351 Q 124.144 114.351 123.857 114.456 Q 123.57 114.561 123.416 114.834 Q 123.262 115.107 123.15 115.625 L 121.96 121.463 Q 121.806 122.233 122.037 122.471 Q 122.268 122.709 123.01 122.709 Z " fill="black" /><path d="M 129.51 124.364 L 129.51 124.364 L 129.177 126.069 L 125.159 126.069 L 125.159 125.589 L 126.551 124.178 Q 127.099 123.629 127.457 123.207 Q 127.815 122.786 127.991 122.36 Q 128.168 121.933 128.168 121.385 Q 128.168 120.865 127.849 120.527 Q 127.531 120.189 126.952 120.189 Q 126.423 120.189 126.065 120.4 Q 125.708 120.61 125.433 121.091 L 125.169 120.963 Q 125.414 120.277 125.928 119.885 Q 126.443 119.493 127.197 119.493 Q 127.785 119.493 128.236 119.704 Q 128.687 119.915 128.942 120.307 Q 129.197 120.699 129.197 121.257 Q 129.197 121.737 128.981 122.159 Q 128.765 122.58 128.368 123.021 Q 127.972 123.462 127.423 124.001 L 126.198 125.187 L 126.198 125.256 L 126.962 125.216 L 128.236 125.216 Q 128.52 125.216 128.672 125.138 Q 128.824 125.06 128.932 124.868 Q 129.04 124.677 129.167 124.364 Z " fill="black" /></g></g></g><circle cx="-108" cy="168" r="2.7" style="stroke:black;fill:black;stroke-width:2.0;stroke-dasharray:-;" /><circle cx="-108" cy="204" r="2.7" style="stroke:black;fill:black;stroke-width:2.0;stroke-dasharray:-;" /><circle cx="108" cy="168" r="2.7" style="stroke:black;fill:black;stroke-width:2.0;stroke-dasharray:-;" /><circle cx="108" cy="204" r="2.7" style="stroke:black;fill:black;stroke-width:2.0;stroke-dasharray:-;" /><g><g><g><path d="M 3.64 229.71 L 3.64 229.71 L 3.892 229.976 Q 3.178 230.816 2.24 231.355 Q 1.302 231.894 -0.028 231.894 Q -1.288 231.894 -2.044 231.425 Q -2.8 230.956 -3.129 230.172 Q -3.458 229.388 -3.458 228.464 Q -3.458 226.994 -3.01 225.853 Q -2.562 224.712 -1.785 223.935 Q -1.008 223.158 -0.028 222.759 Q 0.952 222.36 2.016 222.36 Q 2.73 222.36 3.129 222.486 Q 3.528 222.612 3.752 222.745 Q 3.976 222.878 4.144 222.878 Q 4.312 222.878 4.438 222.738 Q 4.564 222.598 4.732 222.374 L 5.138 222.374 L 4.48 225.58 L 4.018 225.58 Q 4.074 224.18 3.5 223.571 Q 2.926 222.962 1.89 222.962 Q 1.078 222.962 0.364 223.333 Q -0.35 223.704 -0.903 224.383 Q -1.456 225.062 -1.771 226.007 Q -2.086 226.952 -2.086 228.114 Q -2.086 229.514 -1.421 230.249 Q -0.756 230.984 0.63 230.984 Q 2.24 230.984 3.64 229.71 Z " fill="black" /></g></g></g><circle cx="-0" cy="276" r="2.7" style="stroke:black;fill:black;stroke-width:2.0;stroke-dasharray:-;" /><g><g><g><path d="M -51.553 253.12 L -51.553 253.12 L -52.393 255.85 L -59.309 255.85 L -59.225 255.43 Q -58.679 255.43 -58.392 255.332 Q -58.105 255.234 -57.951 254.954 Q -57.797 254.674 -57.685 254.114 L -56.481 248.276 Q -56.383 247.814 -56.411 247.548 Q -56.439 247.282 -56.698 247.177 Q -56.957 247.072 -57.559 247.072 L -57.475 246.652 L -53.499 246.652 L -53.569 247.072 Q -54.325 247.072 -54.703 247.303 Q -55.081 247.534 -55.235 248.29 L -56.509 254.562 Q -56.607 255.024 -56.411 255.171 Q -56.215 255.318 -55.599 255.318 L -54.941 255.318 Q -54.269 255.318 -53.849 255.199 Q -53.429 255.08 -53.135 254.828 Q -52.841 254.576 -52.582 254.149 Q -52.323 253.722 -52.001 253.12 Z " fill="black" /><path d="M -46.928 258.79 L -46.928 258.79 L -50.25 258.79 L -50.25 258.437 Q -49.544 258.437 -49.314 258.295 Q -49.084 258.153 -49.084 257.781 L -49.084 253.508 Q -49.084 253.243 -49.162 253.126 Q -49.24 253.008 -49.446 253.008 Q -49.603 253.008 -49.872 253.052 Q -50.142 253.096 -50.338 253.145 L -50.338 252.753 L -48.525 252.254 L -48.104 252.254 L -48.104 257.781 Q -48.104 258.153 -47.854 258.295 Q -47.604 258.437 -46.928 258.437 Z " fill="black" /></g></g></g><g><g><g><path d="M 55.023 253.12 L 55.023 253.12 L 54.183 255.85 L 47.267 255.85 L 47.351 255.43 Q 47.897 255.43 48.184 255.332 Q 48.471 255.234 48.625 254.954 Q 48.779 254.674 48.891 254.114 L 50.095 248.276 Q 50.193 247.814 50.165 247.548 Q 50.137 247.282 49.878 247.177 Q 49.619 247.072 49.017 247.072 L 49.101 246.652 L 53.077 246.652 L 53.007 247.072 Q 52.251 247.072 51.873 247.303 Q 51.495 247.534 51.341 248.29 L 50.067 254.562 Q 49.969 255.024 50.165 255.171 Q 50.361 255.318 50.977 255.318 L 51.635 255.318 Q 52.307 255.318 52.727 255.199 Q 53.147 255.08 53.441 254.828 Q 53.735 254.576 53.994 254.149 Q 54.253 253.722 54.575 253.12 Z " fill="black" /><path d="M 60.208 257.085 L 60.208 257.085 L 59.874 258.79 L 55.856 258.79 L 55.856 258.31 L 57.248 256.899 Q 57.797 256.35 58.154 255.929 Q 58.512 255.507 58.689 255.081 Q 58.865 254.655 58.865 254.106 Q 58.865 253.586 58.546 253.248 Q 58.228 252.91 57.65 252.91 Q 57.121 252.91 56.763 253.121 Q 56.405 253.332 56.131 253.812 L 55.866 253.684 Q 56.111 252.998 56.626 252.606 Q 57.14 252.214 57.895 252.214 Q 58.483 252.214 58.934 252.425 Q 59.384 252.636 59.639 253.028 Q 59.894 253.42 59.894 253.978 Q 59.894 254.459 59.678 254.88 Q 59.463 255.301 59.066 255.742 Q 58.669 256.183 58.12 256.722 L 56.895 257.908 L 56.895 257.977 L 57.66 257.938 L 58.934 257.938 Q 59.218 257.938 59.37 257.859 Q 59.522 257.781 59.629 257.59 Q 59.737 257.399 59.865 257.085 Z " fill="black" /></g></g></g></svg>