<svg xmlns="http://www.w3.org/2000/svg" xmlns:xlink="http://www.w3.org/1999/xlink" xml:lang="en" height="401.59999999999997pt" width="758.0286pt" viewBox="-116.78439999999999 -127.0 758.0286 401.59999999999997"><circle cx="288.0" cy="-72.0" r="18.0" style="stroke:black;fill:none;stroke-width:2.0;stroke-dasharray:-;" /><circle cx="288.0" cy="144.0" r="18.0" style="stroke:black;fill:none;stroke-width:2.0;stroke-dasharray:-;" /><circle cx="522.0" cy="36.0" r="18.0" style="stroke:black;fill:none;stroke-width:2.0;stroke-dasharray:-;" /><path d="M 0.0,-0.0 L 90.0,-0.0 L 90.0,-90.0 L 0.0,-90.0 L 0.0,-0.0" style="stroke:black;fill:none;stroke-width:2.0;stroke-dasharray:-;stroke-linecap:round;stroke-linejoin:round;" /><path d="M 0.0,-27.0 L -18.0,-27.0" style="stroke:black;fill:none;stroke-width:2.0;stroke-dasharray:-;stroke-linecap:round;stroke-linejoin:round;" /><path d="M 0.0,-33.300000000000004 L 12.600000000000001,-27.0 L 0.0,-20.7" style="stroke:black;fill:none;stroke-width:2.0;stroke-dasharray:-;stroke-linecap:round;stroke-linejoin:round;" /><path d="M 0.0,-63.0 L -18.0,-63.0" style="stroke:black;fill:none;stroke-width:2.0;stroke-dasharray:-;stroke-linecap:round;stroke-linejoin:round;" /><path d="M 90.0,-45.0 L 108.0,-45.0" style="stroke:black;fill:none;stroke-width:2.0;stroke-dasharray:-;stroke-linecap:round;stroke-linejoin:round;" /><path d="M 45.0,-0.0 L 45.0,18.0" style="stroke:black;fill:none;stroke-width:2.0;stroke-dasharray:-;stroke-linecap:round;stroke-linejoin:round;" /><path d="M 0.0,72.0 L 90.0,72.0 L 90.0,162.0 L 0.0,162.0 L 0.0,72.0" style="stroke:black;fill:none;stroke-width:2.0;stroke-dasharray:-;stroke-linecap:round;stroke-linejoin:round;" /><path d="M 0.0,99.0 L -18.0,99.0" style="stroke:black;fill:none;stroke-width:2.0;stroke-dasharray:-;stroke-linecap:round;stroke-linejoin:round;" /><path d="M 0.0,105.3 L 12.600000000000001,99.0 L 0.0,92.7" style="stroke:black;fill:none;stroke-width:2.0;stroke-dasharray:-;stroke-linecap:round;stroke-linejoin:round;" /><path d="M 0.0,135.0 L -18.0,135.0" style="stroke:black;fill:none;stroke-width:2.0;stroke-dasharray:-;stroke-linecap:round;stroke-linejoin:round;" /><path d="M 90.0,117.0 L 108.0,117.0" style="stroke:black;fill:none;stroke-width:2.0;stroke-dasharray:-;stroke-linecap:round;stroke-linejoin:round;" /><path d="M 45.0,72.0 L 45.0,54.0" style="stroke:black;fill:none;stroke-width:2.0;stroke-dasharray:-;stroke-linecap:round;stroke-linejoin:round;" /><path d="M -18.0,-63.0 L -27.0,-63.0 L -36.0,-63.0" style="stroke:black;fill:none;stroke-width:2.0;stroke-dasharray:-;stroke-linecap:round;stroke-linejoin:round;" /><path d="M -18.0,135.0 L -27.0,135.0 L -36.0,135.0" style="stroke:black;fill:none;stroke-width:2.0;stroke-dasharray:-;stroke-linecap:round;stroke-linejoin:round;" /><path d="M -18.0,-27.0 L -36.0,-27.000000000000004 L -54.0,-27.000000000000004" style="stroke:black;fill:none;stroke-width:2.0;stroke-dasharray:-;stroke-linecap:round;stroke-linejoin:round;" /><path d="M -18.0,99.0 L -54.0,99.0 L -90.0,98.99999999999999" style="stroke:black;fill:none;stroke-width:2.0;stroke-dasharray:-;stroke-linecap:round;stroke-linejoin:round;" /><path d="M 45.0,18.0 L 45.0,36.0 L 45.0,54.0" style="stroke:black;fill:none;stroke-width:2.0;stroke-dasharray:-;stroke-linecap:round;stroke-linejoin:round;" /><path d="M 108.0,-45.0 L 126.0,-45.0 L 144.0,-45.0" style="stroke:black;fill:none;stroke-width:2.0;stroke-dasharray:-;stroke-linecap:round;stroke-linejoin:round;" /><path d="M 144.0,-45.0 L 162.0,-45.0 L 180.0,-45.0" style="stroke:black;fill:none;stroke-width:2.0;stroke-dasharray:-;stroke-linecap:round;stroke-linejoin:round;" /><path d="M 108.0,117.0 L 126.0,117.0 L 144.0,117.0" style="stroke:black;fill:none;stroke-width:2.0;stroke-dasharray:-;stroke-linecap:round;stroke-linejoin:round;" /><path d="M 144.0,117.0 L 162.0,117.0 L 180.0,117.0" style="stroke:black;fill:none;stroke-width:2.0;stroke-dasharray:-;stroke-linecap:round;stroke-linejoin:round;" /><path d="M 102.60000000000001,54.0 L 126.0,54.0 L 126.0,36.0 L 126.0,18.0 L 102.60000000000001,18.0 L 102.60000000000001,18.0 L 101.44673604034718,18.036982930493945 L 100.29821108967889,18.14777975118157 L 99.1591446833753,18.331935174160826 L 98.03421748962887,18.58869246529747 L 96.92805207557483,18.916996553807966 L 95.84519391217127,19.31549836777161 L 94.79009269588396,19.782560377756457 L 93.76708406392912,20.316263325778994 L 92.78037177821012,20.914414111946872 L 91.83401045115811,21.57455480637678 L 90.93188888445981,22.293972749355586 L 90.07771408913723,23.0697116982409 L 89.27499605264433,23.8985839752963 L 88.52703331557547,24.7771835665428 L 87.83689941725478,25.70190011780095 L 87.20743026590378,26.66893377041055 L 86.641212485286,27.674310775664964 L 86.14057278571538,28.713899823796915 L 85.7075684031043,29.783429020416463 L 85.3439786453401,30.878503440641417 L 85.05129758072718,31.994623188786342 L 84.83072789853989,33.127201889399174 L 84.68317596691443,34.271585533661735 L 84.60924810838762,35.42307160371021 L 84.60924810838762,36.5769283962898 L 84.68317596691443,37.72841446633828 L 84.83072789853989,38.872798110600826 L 85.05129758072718,40.00537681121366 L 85.3439786453401,41.12149655935858 L 85.7075684031043,42.21657097958354 L 86.14057278571538,43.286100176203085 L 86.641212485286,44.325689224335036 L 87.20743026590378,45.33106622958945 L 87.83689941725478,46.298099882199054 L 88.52703331557547,47.2228164334572 L 89.27499605264433,48.10141602470371 L 90.07771408913726,48.9302883017591 L 90.93188888445981,49.70602725064442 L 91.83401045115812,50.425445193623226 L 92.78037177821012,51.08558588805314 L 93.76708406392912,51.68373667422101 L 94.79009269588396,52.217439622243546 L 95.84519391217127,52.68450163222839 L 96.92805207557483,53.08300344619204 L 98.03421748962887,53.41130753470253 L 99.1591446833753,53.668064825839174 L 100.29821108967889,53.852220248818426 L 101.44673604034718,53.96301706950605 L 102.60000000000001,54.0" style="stroke:black;fill:none;stroke-width:2.0;stroke-dasharray:-;stroke-linecap:round;stroke-linejoin:round;" /><path d="M 126.0,45.0 L 138.6,45.0" style="stroke:black;fill:none;stroke-width:2.0;stroke-dasharray:-;stroke-linecap:round;stroke-linejoin:round;" /><path d="M 126.0,27.0 L 138.6,27.0" style="stroke:black;fill:none;stroke-width:2.0;stroke-dasharray:-;stroke-linecap:round;stroke-linejoin:round;" /><path d="M 72.0,36.0 L 84.60000000000001,36.0" style="stroke:black;fill:none;stroke-width:2.0;stroke-dasharray:-;stroke-linecap:round;stroke-linejoin:round;" /><path d="M 144.0,-45.0 L 144.0,27.0 L 138.6,27.0" style="stroke:black;fill:none;stroke-width:2.0;stroke-dasharray:-;stroke-linecap:round;stroke-linejoin:round;" /><path d="M 144.0,117.0 L 144.0,45.0 L 138.6,45.0" style="stroke:black;fill:none;stroke-width:2.0;stroke-dasharray:-;stroke-linecap:round;stroke-linejoin:round;" /><path d="M 72.0,36.0 L 58.5,36.0 L 45.0,35.99999999999999" style="stroke:black;fill:none;stroke-width:2.0;stroke-dasharray:-;stroke-linecap:round;stroke-linejoin:round;" /><path d="M 288.0,-108.0 L 288.0,-122.39999999999999" style="stroke:black;fill:none;stroke-width:2.0;stroke-dasharray:-;stroke-linecap:round;stroke-linejoin:round;" /><path d="M 288.0,-122.39999999999999 L 281.25,-122.39999999999999" style="stroke:black;fill:none;stroke-width:2.0;stroke-dasharray:-;stroke-linecap:round;stroke-linejoin:round;" /><path d="M 288.0,-122.39999999999999 L 294.75,-122.39999999999999" style="stroke:black;fill:none;stroke-width:2.0;stroke-dasharray:-;stroke-linecap:round;stroke-linejoin:round;" /><path d="M 288.0,-108.0 L 288.0,-90.0 L 288.0,-90.0 M 288.0,-54.0 L 288.0,-54.0 L 288.0,-36.0" style="stroke:black;fill:none;stroke-width:2.0;stroke-dasharray:-;stroke-linecap:round;stroke-linejoin:round;" /><path d="M 288.0,-81.0 L 288.0,-72.0" style="stroke:black;fill:none;stroke-width:2.0;stroke-dasharray:-;stroke-linecap:round;stroke-linejoin:round;" /><path d="M 288.0 -65.0 L 285.3 -72.0 L 290.7 -72.0 Z" style="stroke:black;fill:black;stroke-linecap:butt;stroke-linejoin:miter;" /><path d="M 288.0,-36.0 L 288.0,-18.0 L 271.8,12.600000000000003 M 288.0,18.0 L 288.0,36.0" style="stroke:black;fill:none;stroke-width:2.0;stroke-dasharray:-;stroke-linecap:round;stroke-linejoin:round;" /><path d="M 288.0,36.0 L 288.0,54.0 M 271.8,59.4 L 288.0,90.0 L 288.0,108.0" style="stroke:black;fill:none;stroke-width:2.0;stroke-dasharray:-;stroke-linecap:round;stroke-linejoin:round;" /><path d="M 288.0,108.0 L 288.0,126.0 L 288.0,126.0 M 288.0,162.0 L 288.0,162.0 L 288.0,180.0" style="stroke:black;fill:none;stroke-width:2.0;stroke-dasharray:-;stroke-linecap:round;stroke-linejoin:round;" /><path d="M 288.0,135.0 L 288.0,144.0" style="stroke:black;fill:none;stroke-width:2.0;stroke-dasharray:-;stroke-linecap:round;stroke-linejoin:round;" /><path d="M 288.0 151.0 L 285.3 144.0 L 290.7 144.0 Z" style="stroke:black;fill:black;stroke-linecap:butt;stroke-linejoin:miter;" /><path d="M 288.0,180.0 L 288.0,194.4 L 279.0,194.4 L 297.0,194.4 M 281.7,198.71999999999997 L 294.3,198.71999999999997 M 286.2,203.04 L 289.8,203.04" style="stroke:black;fill:none;stroke-width:2.0;stroke-dasharray:-;stroke-linecap:round;stroke-linejoin:round;" /><path d="M 288.0,36.0 L 324.0,36.0 L 360.0,36.0" style="stroke:black;fill:none;stroke-width:2.0;stroke-dasharray:-;stroke-linecap:round;stroke-linejoin:round;" /><path d="M 360.0,36.0 L 378.0,36.0 L 396.0,36.0" style="stroke:black;fill:none;stroke-width:2.0;stroke-dasharray:-;stroke-linecap:round;stroke-linejoin:round;" /><path d="M 360.0,36.0 L 360.0,54.0 L 369.0,57.00000000000001 L 351.0,63.0 L 369.0,69.0 L 351.0,74.99999999999999 L 369.0,81.0 L 351.0,87.0 L 360.0,90.0 L 360.0,108.0" style="stroke:black;fill:none;stroke-width:2.0;stroke-dasharray:-;stroke-linecap:round;stroke-linejoin:round;" /><path d="M 360.0,108.0 L 360.0,140.76 M 369.0,140.76 L 351.0,140.76 M 369.0,147.24 L 351.0,147.24 M 360.0,147.24 L 360.0,180.0" style="stroke:black;fill:none;stroke-width:2.0;stroke-dasharray:-;stroke-linecap:round;stroke-linejoin:round;" /><path d="M 360.0,180.0 L 360.0,194.4 L 351.0,194.4 L 369.0,194.4 M 353.7,198.71999999999997 L 366.3,198.71999999999997 M 358.2,203.04 L 361.8,203.04" style="stroke:black;fill:none;stroke-width:2.0;stroke-dasharray:-;stroke-linecap:round;stroke-linejoin:round;" /><path d="M 261.0,-1.102182119232618e-15 L 252.0,-2.204364238465236e-15 L 234.0,-4.408728476930472e-15" style="stroke:black;fill:none;stroke-width:2.0;stroke-dasharray:-;stroke-linecap:round;stroke-linejoin:round;" /><path d="M 268.0 -2.4492935982947064e-16 L 261.0 2.699999999999999 L 261.0 -2.7000000000000006 Z" style="stroke:black;fill:black;stroke-linecap:butt;stroke-linejoin:miter;" /><path d="M 261.0,72.0 L 252.0,72.0 L 234.0,71.99999999999999" style="stroke:black;fill:none;stroke-width:2.0;stroke-dasharray:-;stroke-linecap:round;stroke-linejoin:round;" /><path d="M 268.0 72.0 L 261.0 74.7 L 261.0 69.3 Z" style="stroke:black;fill:black;stroke-linecap:butt;stroke-linejoin:miter;" /><path d="M 180.0,-45.0 L 234.0,-45.0 L 234.0,-7.993605777301127e-15" style="stroke:black;fill:none;stroke-width:2.0;stroke-dasharray:-;stroke-linecap:round;stroke-linejoin:round;" /><path d="M 180.0,117.0 L 234.0,117.0 L 234.0,71.99999999999999" style="stroke:black;fill:none;stroke-width:2.0;stroke-dasharray:-;stroke-linecap:round;stroke-linejoin:round;" /><path d="M 396.0,36.0 L 414.0,36.0 L 417.0,27.0 L 423.0,45.0 L 429.0,27.0 L 435.0,45.0 L 441.0,27.0 L 447.0,45.0 L 450.0,36.0 L 468.0,36.0" style="stroke:black;fill:none;stroke-width:2.0;stroke-dasharray:-;stroke-linecap:round;stroke-linejoin:round;" /><path d="M 468.0,36.0 L 468.0,68.76 M 477.0,68.76 L 459.0,68.76 M 477.0,75.24 L 459.0,75.24 M 468.0,75.24 L 468.0,108.0" style="stroke:black;fill:none;stroke-width:2.0;stroke-dasharray:-;stroke-linecap:round;stroke-linejoin:round;" /><path d="M 468.0,108.0 L 468.0,122.39999999999999 L 459.0,122.39999999999999 L 477.0,122.39999999999999 M 461.7,126.72 L 474.3,126.72 M 466.2,131.04 L 469.8,131.04" style="stroke:black;fill:none;stroke-width:2.0;stroke-dasharray:-;stroke-linecap:round;stroke-linejoin:round;" /><path d="M 468.0,36.0 L 486.0,36.0 L 504.0,36.0" style="stroke:black;fill:none;stroke-width:2.0;stroke-dasharray:-;stroke-linecap:round;stroke-linejoin:round;" /><path d="M 511.2,36.0 L 512.3368421052631,34.83108191086314 L 513.4736842105264,33.78883423431719 L 514.6105263157895,32.986200678254896 L 515.7473684210527,32.51015904261841 L 516.8842105263158,32.41229582517599 L 518.021052631579,32.703216024041794 L 519.1578947368421,33.35139392157673 L 520.2947368421053,34.286589385066534 L 521.4315789473684,35.40745947498936 L 522.5684210526316,36.59254052501064 L 523.7052631578947,37.713410614933466 L 524.8421052631579,38.64860607842327 L 525.978947368421,39.296783975958206 L 527.1157894736842,39.58770417482401 L 528.2526315789473,39.48984095738159 L 529.3894736842105,39.0137993217451 L 530.5263157894736,38.21116576568281 L 531.6631578947369,37.16891808913686 L 532.8000000000001,36.0" style="stroke:black;fill:none;stroke-width:2.0;stroke-dasharray:-;stroke-linecap:round;stroke-linejoin:round;" /><path d="M 540.0,36.0 L 558.0,36.0 L 576.0,36.0" style="stroke:black;fill:none;stroke-width:2.0;stroke-dasharray:-;stroke-linecap:round;stroke-linejoin:round;" /><path d="M 576.0,36.0 L 594.0,36.0 L 612.0,36.0" style="stroke:black;fill:none;stroke-width:2.0;stroke-dasharray:-;stroke-linecap:round;stroke-linejoin:round;" /><path d="M 576.0,36.0 L 576.0,144.0 L 575.9999999999999,252.0" style="stroke:black;fill:none;stroke-width:2.0;stroke-dasharray:-;stroke-linecap:round;stroke-linejoin:round;" /><path d="M 575.9999999999999,252.0 L 539.9999999999999,252.0 L 503.99999999999994,252.0" style="stroke:black;fill:none;stroke-width:2.0;stroke-dasharray:-;stroke-linecap:round;stroke-linejoin:round;" /><path d="M 503.99999999999994,252.0 L 503.99999999999994,270.0 L 467.99999999999994,270.0 L 467.99999999999994,234.0 L 503.99999999999994,234.0 L 503.99999999999994,252.0" style="stroke:black;fill:none;stroke-width:2.0;stroke-dasharray:-;stroke-linecap:round;stroke-linejoin:round;" /><path d="M 467.99999999999994,252.0 L -90.0,252.0 L -90.0,99.0" style="stroke:black;fill:none;stroke-width:2.0;stroke-dasharray:-;stroke-linecap:round;stroke-linejoin:round;" /><path d="M -54.0,-27.000000000000004 L -72.0,-27.000000000000007 L -90.0,-27.000000000000007" style="stroke:black;fill:none;stroke-width:2.0;stroke-dasharray:-;stroke-linecap:round;stroke-linejoin:round;" /><g><g><g><path d="M 6.688 -58.401 L 6.688 -58.401 L 6.688 -67.599 L 9.04 -67.599 Q 11.21 -67.599 12.344 -66.416 Q 13.478 -65.233 13.478 -63.035 Q 13.478 -60.837 12.351 -59.619 Q 11.224 -58.401 9.096 -58.401 Z M 7.892 -59.381 L 7.892 -59.381 L 8.956 -59.381 Q 10.608 -59.381 11.427 -60.34 Q 12.246 -61.299 12.246 -63.035 Q 12.246 -64.771 11.427 -65.695 Q 10.608 -66.619 8.956 -66.619 L 7.892 -66.619 Z " fill="black" /></g></g></g><g><g><g><path d="M 83.466 -39.169 L 83.466 -39.169 Q 82.178 -39.169 81.296 -39.785 Q 80.414 -40.401 80.008 -41.353 Q 79 -41.493 78.23 -42.102 Q 77.46 -42.711 77.026 -43.733 Q 76.592 -44.755 76.592 -46.113 Q 76.592 -47.583 77.103 -48.64 Q 77.614 -49.697 78.517 -50.264 Q 79.42 -50.831 80.596 -50.831 Q 81.786 -50.831 82.689 -50.264 Q 83.592 -49.697 84.103 -48.64 Q 84.614 -47.583 84.614 -46.113 Q 84.614 -44.783 84.201 -43.782 Q 83.788 -42.781 83.039 -42.158 Q 82.29 -41.535 81.296 -41.367 Q 81.618 -40.765 82.227 -40.464 Q 82.836 -40.163 83.62 -40.163 Q 83.914 -40.163 84.152 -40.198 Q 84.39 -40.233 84.572 -40.289 L 84.81 -39.365 Q 84.6 -39.295 84.25 -39.232 Q 83.9 -39.169 83.466 -39.169 Z M 80.596 -42.305 L 80.596 -42.305 Q 81.436 -42.305 82.059 -42.767 Q 82.682 -43.229 83.025 -44.083 Q 83.368 -44.937 83.368 -46.099 Q 83.368 -47.835 82.612 -48.815 Q 81.856 -49.795 80.596 -49.795 Q 79.336 -49.795 78.58 -48.808 Q 77.824 -47.821 77.824 -46.099 Q 77.824 -44.951 78.167 -44.097 Q 78.51 -43.243 79.133 -42.774 Q 79.756 -42.305 80.596 -42.305 Z " fill="black" /></g></g></g><g><g><g><path d="M 42.851 -5.4 L 42.851 -5.4 L 42.851 -14.598 L 45.805 -14.598 Q 46.757 -14.598 47.499 -14.346 Q 48.241 -14.094 48.661 -13.534 Q 49.081 -12.974 49.081 -12.022 Q 49.081 -10.916 48.507 -10.272 Q 47.933 -9.628 46.981 -9.404 L 49.361 -5.4 L 48.003 -5.4 L 45.749 -9.278 L 44.055 -9.278 L 44.055 -5.4 Z M 44.055 -10.244 L 44.055 -10.244 L 45.623 -10.244 Q 46.715 -10.244 47.303 -10.678 Q 47.891 -11.112 47.891 -12.008 Q 47.891 -12.904 47.303 -13.268 Q 46.715 -13.632 45.623 -13.632 L 44.055 -13.632 Z " fill="black" /></g></g></g><g><g><g><path d="M 6.688 139.599 L 6.688 139.599 L 6.688 130.401 L 9.04 130.401 Q 11.21 130.401 12.344 131.584 Q 13.478 132.767 13.478 134.965 Q 13.478 137.163 12.351 138.381 Q 11.224 139.599 9.096 139.599 Z M 7.892 138.619 L 7.892 138.619 L 8.956 138.619 Q 10.608 138.619 11.427 137.66 Q 12.246 136.701 12.246 134.965 Q 12.246 133.229 11.427 132.305 Q 10.608 131.381 8.956 131.381 L 7.892 131.381 Z " fill="black" /></g></g></g><g><g><g><path d="M 83.466 122.831 L 83.466 122.831 Q 82.178 122.831 81.296 122.215 Q 80.414 121.599 80.008 120.647 Q 79 120.507 78.23 119.898 Q 77.46 119.289 77.026 118.267 Q 76.592 117.245 76.592 115.887 Q 76.592 114.417 77.103 113.36 Q 77.614 112.303 78.517 111.736 Q 79.42 111.169 80.596 111.169 Q 81.786 111.169 82.689 111.736 Q 83.592 112.303 84.103 113.36 Q 84.614 114.417 84.614 115.887 Q 84.614 117.217 84.201 118.218 Q 83.788 119.219 83.039 119.842 Q 82.29 120.465 81.296 120.633 Q 81.618 121.235 82.227 121.536 Q 82.836 121.837 83.62 121.837 Q 83.914 121.837 84.152 121.802 Q 84.39 121.767 84.572 121.711 L 84.81 122.635 Q 84.6 122.705 84.25 122.768 Q 83.9 122.831 83.466 122.831 Z M 80.596 119.695 L 80.596 119.695 Q 81.436 119.695 82.059 119.233 Q 82.682 118.771 83.025 117.917 Q 83.368 117.063 83.368 115.901 Q 83.368 114.165 82.612 113.185 Q 81.856 112.205 80.596 112.205 Q 79.336 112.205 78.58 113.192 Q 77.824 114.179 77.824 115.901 Q 77.824 117.049 78.167 117.903 Q 78.51 118.757 79.133 119.226 Q 79.756 119.695 80.596 119.695 Z " fill="black" /></g></g></g><g><g><g><path d="M 42.851 77.4 L 42.851 77.4 L 42.851 68.202 L 45.805 68.202 Q 46.757 68.202 47.499 68.454 Q 48.241 68.706 48.661 69.266 Q 49.081 69.826 49.081 70.778 Q 49.081 71.884 48.507 72.528 Q 47.933 73.172 46.981 73.396 L 49.361 77.4 L 48.003 77.4 L 45.749 73.522 L 44.055 73.522 L 44.055 77.4 Z M 44.055 72.556 L 44.055 72.556 L 45.623 72.556 Q 46.715 72.556 47.303 72.122 Q 47.891 71.688 47.891 70.792 Q 47.891 69.896 47.303 69.532 Q 46.715 69.168 45.623 69.168 L 44.055 69.168 Z " fill="black" /></g></g></g><g><g><g><path d="M -40.916 -58.59 L -40.916 -58.59 L -42.078 -58.59 L -42.078 -65.996 L -43.884 -65.996 L -43.884 -66.752 Q -43.142 -66.864 -42.666 -67.025 Q -42.19 -67.186 -41.798 -67.41 L -40.916 -67.41 Z " fill="black" /></g></g></g><g><g><g><path d="M -40.916 139.41 L -40.916 139.41 L -42.078 139.41 L -42.078 132.004 L -43.884 132.004 L -43.884 131.248 Q -43.142 131.136 -42.666 130.975 Q -42.19 130.814 -41.798 130.59 L -40.916 130.59 Z " fill="black" /></g></g></g><circle cx="144.0" cy="-45.0" r="2.6999999999999997" style="stroke:black;fill:black;stroke-width:2.0;stroke-dasharray:-;" /><circle cx="144.0" cy="117.0" r="2.6999999999999997" style="stroke:black;fill:black;stroke-width:2.0;stroke-dasharray:-;" /><circle cx="45.0" cy="35.99999999999999" r="2.6999999999999997" style="stroke:black;fill:black;stroke-width:2.0;stroke-dasharray:-;" /><g><g><g><path d="M 248.336 -70.764 L 248.336 -70.764 L 249.484 -76.28 Q 249.61 -76.826 249.603 -77.141 Q 249.596 -77.456 249.344 -77.582 Q 249.092 -77.708 248.448 -77.708 L 248.532 -78.128 L 252.41 -78.128 L 252.326 -77.708 Q 251.71 -77.708 251.402 -77.582 Q 251.094 -77.456 250.968 -77.141 Q 250.842 -76.826 250.73 -76.28 L 249.582 -70.708 Q 249.54 -70.484 249.512 -70.302 Q 249.484 -70.12 249.484 -69.966 Q 249.484 -69.574 249.715 -69.462 Q 249.946 -69.35 250.604 -69.35 L 250.52 -68.93 L 246.698 -68.93 L 246.782 -69.35 Q 247.356 -69.35 247.643 -69.448 Q 247.93 -69.546 248.07 -69.847 Q 248.21 -70.148 248.336 -70.764 Z " fill="black" /><path d="M 259.015 -67.587 L 259.015 -67.587 L 259.309 -67.342 Q 259.044 -66.931 258.662 -66.597 Q 258.28 -66.264 257.741 -66.068 Q 257.202 -65.872 256.467 -65.872 Q 254.84 -65.872 253.943 -66.774 Q 253.047 -67.675 253.047 -69.39 Q 253.047 -70.537 253.502 -71.346 Q 253.958 -72.154 254.762 -72.585 Q 255.565 -73.016 256.604 -73.016 Q 257.173 -73.016 257.506 -72.923 Q 257.839 -72.83 258.03 -72.732 Q 258.221 -72.634 258.349 -72.634 Q 258.456 -72.634 258.53 -72.727 Q 258.603 -72.82 258.731 -72.997 L 259.084 -72.997 L 259.084 -70.557 L 258.672 -70.557 Q 258.486 -71.595 257.961 -72.046 Q 257.437 -72.497 256.555 -72.497 Q 255.81 -72.497 255.301 -72.13 Q 254.791 -71.762 254.531 -71.096 Q 254.272 -70.429 254.272 -69.537 Q 254.272 -68.528 254.6 -67.901 Q 254.928 -67.274 255.507 -66.984 Q 256.085 -66.695 256.83 -66.695 Q 257.555 -66.695 258.064 -66.916 Q 258.574 -67.136 259.015 -67.587 Z " fill="black" /><path d="M 260.573 -72.879 L 260.573 -72.879 L 263.258 -72.879 Q 263.797 -72.879 264.292 -72.796 Q 264.787 -72.713 265.174 -72.517 Q 265.561 -72.321 265.787 -71.968 Q 266.012 -71.615 266.012 -71.066 Q 266.012 -70.439 265.752 -70.027 Q 265.493 -69.616 265.062 -69.376 Q 264.63 -69.136 264.101 -69.038 Q 263.572 -68.94 263.023 -68.94 Q 262.896 -68.94 262.744 -68.954 Q 262.592 -68.969 262.514 -68.979 L 262.514 -67.342 Q 262.514 -66.911 262.612 -66.7 Q 262.71 -66.49 262.95 -66.426 Q 263.19 -66.362 263.621 -66.362 L 263.621 -65.99 L 260.505 -65.99 L 260.505 -66.362 Q 260.926 -66.362 261.132 -66.436 Q 261.338 -66.509 261.406 -66.735 Q 261.475 -66.96 261.475 -67.401 L 261.475 -71.752 Q 261.475 -72.252 261.259 -72.379 Q 261.044 -72.507 260.573 -72.507 Z M 262.514 -72.389 L 262.514 -72.389 L 262.514 -69.449 Q 262.592 -69.439 262.734 -69.434 Q 262.876 -69.43 262.984 -69.43 Q 263.886 -69.43 264.385 -69.763 Q 264.885 -70.096 264.885 -70.958 Q 264.885 -72.409 263.131 -72.409 Q 262.974 -72.409 262.827 -72.404 Q 262.68 -72.399 262.514 -72.389 Z " fill="black" /></g></g></g><circle cx="288.0" cy="36.0" r="2.6999999999999997" style="stroke:black;fill:black;stroke-width:2.0;stroke-dasharray:-;" /><g><g><g><path d="M 248.336 145.236 L 248.336 145.236 L 249.484 139.72 Q 249.61 139.174 249.603 138.859 Q 249.596 138.544 249.344 138.418 Q 249.092 138.292 248.448 138.292 L 248.532 137.872 L 252.41 137.872 L 252.326 138.292 Q 251.71 138.292 251.402 138.418 Q 251.094 138.544 250.968 138.859 Q 250.842 139.174 250.73 139.72 L 249.582 145.292 Q 249.54 145.516 249.512 145.698 Q 249.484 145.88 249.484 146.034 Q 249.484 146.426 249.715 146.538 Q 249.946 146.65 250.604 146.65 L 250.52 147.07 L 246.698 147.07 L 246.782 146.65 Q 247.356 146.65 247.643 146.552 Q 247.93 146.454 248.07 146.153 Q 248.21 145.852 248.336 145.236 Z " fill="black" /><path d="M 259.015 148.413 L 259.015 148.413 L 259.309 148.658 Q 259.044 149.069 258.662 149.403 Q 258.28 149.736 257.741 149.932 Q 257.202 150.128 256.467 150.128 Q 254.84 150.128 253.943 149.226 Q 253.047 148.325 253.047 146.61 Q 253.047 145.463 253.502 144.654 Q 253.958 143.846 254.762 143.415 Q 255.565 142.984 256.604 142.984 Q 257.173 142.984 257.506 143.077 Q 257.839 143.17 258.03 143.268 Q 258.221 143.366 258.349 143.366 Q 258.456 143.366 258.53 143.273 Q 258.603 143.18 258.731 143.003 L 259.084 143.003 L 259.084 145.443 L 258.672 145.443 Q 258.486 144.405 257.961 143.954 Q 257.437 143.503 256.555 143.503 Q 255.81 143.503 255.301 143.87 Q 254.791 144.238 254.531 144.904 Q 254.272 145.571 254.272 146.463 Q 254.272 147.472 254.6 148.099 Q 254.928 148.726 255.507 149.016 Q 256.085 149.305 256.83 149.305 Q 257.555 149.305 258.064 149.084 Q 258.574 148.864 259.015 148.413 Z " fill="black" /><path d="M 260.573 143.121 L 260.573 143.121 L 263.258 143.121 Q 263.797 143.121 264.292 143.204 Q 264.787 143.287 265.174 143.483 Q 265.561 143.679 265.787 144.032 Q 266.012 144.385 266.012 144.934 Q 266.012 145.561 265.752 145.973 Q 265.493 146.384 265.062 146.624 Q 264.63 146.864 264.101 146.962 Q 263.572 147.06 263.023 147.06 Q 262.896 147.06 262.744 147.046 Q 262.592 147.031 262.514 147.021 L 262.514 148.658 Q 262.514 149.089 262.612 149.3 Q 262.71 149.51 262.95 149.574 Q 263.19 149.638 263.621 149.638 L 263.621 150.01 L 260.505 150.01 L 260.505 149.638 Q 260.926 149.638 261.132 149.564 Q 261.338 149.491 261.406 149.265 Q 261.475 149.04 261.475 148.599 L 261.475 144.248 Q 261.475 143.748 261.259 143.621 Q 261.044 143.493 260.573 143.493 Z M 262.514 143.611 L 262.514 143.611 L 262.514 146.551 Q 262.592 146.561 262.734 146.565 Q 262.876 146.57 262.984 146.57 Q 263.886 146.57 264.385 146.237 Q 264.885 145.904 264.885 145.042 Q 264.885 143.591 263.131 143.591 Q 262.974 143.591 262.827 143.596 Q 262.68 143.601 262.514 143.611 Z " fill="black" /></g></g></g><circle cx="360.0" cy="36.0" r="2.6999999999999997" style="stroke:black;fill:black;stroke-width:2.0;stroke-dasharray:-;" /><g><g><g><path d="M 332.522 67.804 L 332.522 67.804 Q 332.522 68.546 332.242 69.05 Q 331.962 69.554 331.514 69.876 Q 331.066 70.198 330.555 70.373 Q 330.044 70.548 329.582 70.632 L 329.582 70.702 Q 329.834 70.87 330.058 71.213 Q 330.282 71.556 330.611 72.2 Q 330.94 72.844 331.514 73.936 Q 331.752 74.356 332.039 74.503 Q 332.326 74.65 332.802 74.65 L 332.718 75.07 L 330.59 75.07 Q 330.198 74.202 329.932 73.621 Q 329.666 73.04 329.47 72.648 Q 329.274 72.256 329.127 71.948 Q 328.98 71.64 328.812 71.318 Q 328.658 71.024 328.476 70.933 Q 328.294 70.842 327.916 70.842 L 327.622 70.842 L 327.104 73.334 Q 326.992 73.908 327.027 74.195 Q 327.062 74.482 327.342 74.566 Q 327.622 74.65 328.224 74.65 L 328.154 75.07 L 324.29 75.07 L 324.374 74.65 Q 324.892 74.65 325.172 74.566 Q 325.452 74.482 325.599 74.202 Q 325.746 73.922 325.858 73.334 L 327.09 67.328 Q 327.174 66.936 327.132 66.712 Q 327.09 66.488 326.845 66.39 Q 326.6 66.292 326.04 66.292 L 326.124 65.872 L 329.414 65.872 Q 330.884 65.872 331.703 66.327 Q 332.522 66.782 332.522 67.804 Z M 328.504 66.46 L 328.504 66.46 L 327.72 70.324 L 328.154 70.338 Q 328.994 70.31 329.673 70.065 Q 330.352 69.82 330.744 69.288 Q 331.136 68.756 331.136 67.86 Q 331.136 67.482 330.975 67.153 Q 330.814 66.824 330.422 66.621 Q 330.03 66.418 329.33 66.418 Q 329.064 66.418 328.903 66.425 Q 328.742 66.432 328.504 66.46 Z " fill="black" /><path d="M 336.435 77.648 L 336.435 77.648 L 336.435 78.01 L 333.946 78.01 L 333.946 77.648 Q 334.289 77.648 334.441 77.574 Q 334.593 77.501 334.632 77.339 Q 334.671 77.177 334.671 76.913 L 334.671 73.953 Q 334.671 73.62 334.563 73.551 Q 334.456 73.483 334.201 73.483 Q 334.073 73.483 333.995 73.492 Q 333.917 73.502 333.917 73.502 L 333.917 73.11 L 335.23 72.895 L 335.632 72.895 L 335.632 76.913 Q 335.632 77.197 335.676 77.358 Q 335.72 77.52 335.891 77.584 Q 336.063 77.648 336.435 77.648 Z M 335.142 70.729 L 335.142 70.729 Q 335.426 70.729 335.617 70.925 Q 335.808 71.121 335.808 71.376 Q 335.808 71.611 335.617 71.807 Q 335.426 72.003 335.142 72.003 Q 334.867 72.003 334.686 71.807 Q 334.505 71.611 334.505 71.376 Q 334.505 71.121 334.686 70.925 Q 334.867 70.729 335.142 70.729 Z " fill="black" /><path d="M 342.256 74.727 L 342.256 74.727 L 342.256 76.922 Q 342.256 77.197 342.305 77.358 Q 342.354 77.52 342.521 77.589 Q 342.688 77.657 343.04 77.657 L 343.04 78.01 L 340.522 78.01 L 340.522 77.657 Q 340.894 77.657 341.061 77.589 Q 341.227 77.52 341.267 77.358 Q 341.306 77.197 341.306 76.922 L 341.306 75.051 Q 341.306 74.394 341.154 74.085 Q 341.002 73.777 340.772 73.679 Q 340.541 73.581 340.306 73.581 Q 339.885 73.581 339.566 73.796 Q 339.248 74.012 339.013 74.208 L 339.013 76.922 Q 339.013 77.197 339.057 77.358 Q 339.101 77.52 339.267 77.589 Q 339.434 77.657 339.797 77.657 L 339.797 78.01 L 337.327 78.01 L 337.327 77.657 Q 337.67 77.657 337.822 77.589 Q 337.974 77.52 338.013 77.358 Q 338.052 77.197 338.052 76.922 L 338.052 73.943 Q 338.052 73.669 337.949 73.576 Q 337.846 73.483 337.621 73.483 Q 337.503 73.483 337.425 73.492 Q 337.347 73.502 337.347 73.502 L 337.347 73.13 L 338.66 72.895 L 338.983 72.895 L 338.983 73.698 L 339.052 73.698 Q 339.473 73.316 339.86 73.091 Q 340.247 72.865 340.737 72.865 Q 341.316 72.865 341.644 73.125 Q 341.972 73.385 342.114 73.806 Q 342.256 74.227 342.256 74.727 Z " fill="black" /><path d="M 346.794 77.03 L 346.794 77.03 L 347.019 77.216 Q 346.804 77.51 346.627 77.711 Q 346.451 77.912 346.225 78.02 Q 346 78.128 345.647 78.128 Q 345.079 78.128 344.819 77.804 Q 344.559 77.481 344.559 76.766 L 344.559 73.473 L 343.942 73.473 L 343.942 73.179 Q 344.295 72.924 344.589 72.556 Q 344.883 72.189 345.177 71.503 L 345.52 71.503 L 345.51 72.993 L 346.755 72.993 L 346.755 73.473 L 345.51 73.473 L 345.51 76.442 Q 345.51 76.991 345.613 77.221 Q 345.716 77.452 346.029 77.452 Q 346.314 77.452 346.461 77.349 Q 346.608 77.246 346.794 77.03 Z " fill="black" /></g></g></g><g><g><g><path d="M 333.362 145.131 L 333.362 145.131 L 333.614 145.397 Q 332.9 146.237 331.962 146.776 Q 331.024 147.315 329.694 147.315 Q 328.434 147.315 327.678 146.846 Q 326.922 146.377 326.593 145.593 Q 326.264 144.809 326.264 143.885 Q 326.264 142.415 326.712 141.274 Q 327.16 140.133 327.937 139.356 Q 328.714 138.579 329.694 138.18 Q 330.674 137.781 331.738 137.781 Q 332.452 137.781 332.851 137.907 Q 333.25 138.033 333.474 138.166 Q 333.698 138.299 333.866 138.299 Q 334.034 138.299 334.16 138.159 Q 334.286 138.019 334.454 137.795 L 334.86 137.795 L 334.202 141.001 L 333.74 141.001 Q 333.796 139.601 333.222 138.992 Q 332.648 138.383 331.612 138.383 Q 330.8 138.383 330.086 138.754 Q 329.372 139.125 328.819 139.804 Q 328.266 140.483 327.951 141.428 Q 327.636 142.373 327.636 143.535 Q 327.636 144.935 328.301 145.67 Q 328.966 146.405 330.352 146.405 Q 331.962 146.405 333.362 145.131 Z " fill="black" /><path d="M 337.401 149.739 L 337.401 149.739 L 337.401 150.101 L 334.912 150.101 L 334.912 149.739 Q 335.255 149.739 335.407 149.665 Q 335.559 149.592 335.598 149.43 Q 335.637 149.268 335.637 149.004 L 335.637 146.044 Q 335.637 145.711 335.529 145.642 Q 335.422 145.574 335.167 145.574 Q 335.039 145.574 334.961 145.583 Q 334.883 145.593 334.883 145.593 L 334.883 145.201 L 336.196 144.986 L 336.598 144.986 L 336.598 149.004 Q 336.598 149.288 336.642 149.45 Q 336.686 149.611 336.857 149.675 Q 337.029 149.739 337.401 149.739 Z M 336.108 142.82 L 336.108 142.82 Q 336.392 142.82 336.583 143.016 Q 336.774 143.212 336.774 143.467 Q 336.774 143.702 336.583 143.898 Q 336.392 144.094 336.108 144.094 Q 335.833 144.094 335.652 143.898 Q 335.471 143.702 335.471 143.467 Q 335.471 143.212 335.652 143.016 Q 335.833 142.82 336.108 142.82 Z " fill="black" /><path d="M 343.222 146.818 L 343.222 146.818 L 343.222 149.013 Q 343.222 149.288 343.271 149.45 Q 343.32 149.611 343.487 149.68 Q 343.654 149.748 344.006 149.748 L 344.006 150.101 L 341.488 150.101 L 341.488 149.748 Q 341.86 149.748 342.027 149.68 Q 342.193 149.611 342.233 149.45 Q 342.272 149.288 342.272 149.013 L 342.272 147.142 Q 342.272 146.485 342.12 146.176 Q 341.968 145.868 341.738 145.77 Q 341.507 145.672 341.272 145.672 Q 340.851 145.672 340.532 145.887 Q 340.214 146.103 339.979 146.299 L 339.979 149.013 Q 339.979 149.288 340.023 149.45 Q 340.067 149.611 340.233 149.68 Q 340.4 149.748 340.763 149.748 L 340.763 150.101 L 338.293 150.101 L 338.293 149.748 Q 338.636 149.748 338.788 149.68 Q 338.94 149.611 338.979 149.45 Q 339.018 149.288 339.018 149.013 L 339.018 146.034 Q 339.018 145.76 338.915 145.667 Q 338.812 145.574 338.587 145.574 Q 338.469 145.574 338.391 145.583 Q 338.313 145.593 338.313 145.593 L 338.313 145.221 L 339.626 144.986 L 339.949 144.986 L 339.949 145.789 L 340.018 145.789 Q 340.439 145.407 340.826 145.182 Q 341.213 144.956 341.703 144.956 Q 342.282 144.956 342.61 145.216 Q 342.938 145.476 343.08 145.897 Q 343.222 146.318 343.222 146.818 Z " fill="black" /><path d="M 347.76 149.121 L 347.76 149.121 L 347.985 149.307 Q 347.77 149.601 347.593 149.802 Q 347.417 150.003 347.191 150.111 Q 346.966 150.219 346.613 150.219 Q 346.045 150.219 345.785 149.895 Q 345.525 149.572 345.525 148.857 L 345.525 145.564 L 344.908 145.564 L 344.908 145.27 Q 345.261 145.015 345.555 144.648 Q 345.849 144.28 346.143 143.594 L 346.486 143.594 L 346.476 145.084 L 347.721 145.084 L 347.721 145.564 L 346.476 145.564 L 346.476 148.533 Q 346.476 149.082 346.579 149.312 Q 346.682 149.543 346.995 149.543 Q 347.28 149.543 347.427 149.44 Q 347.574 149.337 347.76 149.121 Z " fill="black" /></g></g></g><g><g><g><path d="M 203.584 -48.6 L 203.584 -48.6 Q 202.632 -48.6 201.862 -48.978 Q 201.092 -49.356 200.651 -50.231 Q 200.21 -51.106 200.21 -52.576 L 200.21 -57.966 L 201.414 -57.966 L 201.414 -52.534 Q 201.414 -51.442 201.701 -50.812 Q 201.988 -50.182 202.478 -49.916 Q 202.968 -49.65 203.584 -49.65 Q 204.214 -49.65 204.718 -49.916 Q 205.222 -50.182 205.516 -50.812 Q 205.81 -51.442 205.81 -52.534 L 205.81 -57.966 L 206.958 -57.966 L 206.958 -52.576 Q 206.958 -51.106 206.517 -50.231 Q 206.076 -49.356 205.313 -48.978 Q 204.55 -48.6 203.584 -48.6 Z " fill="black" /><path d="M 209.478 -48.768 L 209.478 -48.768 L 209.478 -57.966 L 212.166 -57.966 Q 213.216 -57.966 214.007 -57.707 Q 214.798 -57.448 215.246 -56.86 Q 215.694 -56.272 215.694 -55.264 Q 215.694 -54.284 215.253 -53.647 Q 214.812 -53.01 214.035 -52.702 Q 213.258 -52.394 212.222 -52.394 L 210.682 -52.394 L 210.682 -48.768 Z M 210.682 -53.374 L 210.682 -53.374 L 212.082 -53.374 Q 213.3 -53.374 213.895 -53.822 Q 214.49 -54.27 214.49 -55.25 Q 214.49 -56.244 213.874 -56.622 Q 213.258 -57 212.026 -57 L 210.682 -57 Z " fill="black" /></g></g></g><g><g><g><path d="M 189.5 129.952 L 189.5 129.952 L 189.5 120.754 L 191.852 120.754 Q 194.022 120.754 195.156 121.937 Q 196.29 123.12 196.29 125.318 Q 196.29 127.516 195.163 128.734 Q 194.036 129.952 191.908 129.952 Z M 190.704 128.972 L 190.704 128.972 L 191.768 128.972 Q 193.42 128.972 194.239 128.013 Q 195.058 127.054 195.058 125.318 Q 195.058 123.582 194.239 122.658 Q 193.42 121.734 191.768 121.734 L 190.704 121.734 Z " fill="black" /><path d="M 201.792 130.12 L 201.792 130.12 Q 200.616 130.12 199.713 129.539 Q 198.81 128.958 198.299 127.88 Q 197.788 126.802 197.788 125.318 Q 197.788 123.848 198.299 122.791 Q 198.81 121.734 199.713 121.167 Q 200.616 120.6 201.792 120.6 Q 202.982 120.6 203.885 121.167 Q 204.788 121.734 205.299 122.791 Q 205.81 123.848 205.81 125.318 Q 205.81 126.788 205.299 127.866 Q 204.788 128.944 203.885 129.532 Q 202.982 130.12 201.792 130.12 Z M 201.792 129.07 L 201.792 129.07 Q 202.632 129.07 203.255 128.608 Q 203.878 128.146 204.221 127.299 Q 204.564 126.452 204.564 125.318 Q 204.564 123.61 203.808 122.623 Q 203.052 121.636 201.792 121.636 Q 200.532 121.636 199.776 122.623 Q 199.02 123.61 199.02 125.318 Q 199.02 126.452 199.363 127.299 Q 199.706 128.146 200.329 128.608 Q 200.952 129.07 201.792 129.07 Z " fill="black" /><path d="M 208.876 129.952 L 208.876 129.952 L 206.888 120.754 L 208.12 120.754 L 209.1 125.752 Q 209.24 126.48 209.38 127.222 Q 209.52 127.964 209.66 128.706 L 209.716 128.706 Q 209.87 127.964 210.038 127.222 Q 210.206 126.48 210.374 125.752 L 211.676 120.754 L 212.754 120.754 L 214.056 125.752 Q 214.238 126.48 214.406 127.222 Q 214.574 127.964 214.728 128.706 L 214.798 128.706 Q 214.938 127.964 215.064 127.222 Q 215.19 126.48 215.33 125.752 L 216.31 120.754 L 217.472 120.754 L 215.526 129.952 L 214.084 129.952 L 212.67 124.464 Q 212.544 123.918 212.432 123.407 Q 212.32 122.896 212.208 122.364 L 212.152 122.364 Q 212.054 122.896 211.928 123.407 Q 211.802 123.918 211.69 124.464 L 210.304 129.952 Z " fill="black" /><path d="M 219.096 129.952 L 219.096 129.952 L 219.096 120.754 L 220.342 120.754 L 223.73 126.508 L 224.738 128.412 L 224.808 128.412 Q 224.766 127.712 224.71 126.956 Q 224.654 126.2 224.654 125.472 L 224.654 120.754 L 225.788 120.754 L 225.788 129.952 L 224.556 129.952 L 221.154 124.198 L 220.146 122.294 L 220.09 122.294 Q 220.132 122.994 220.188 123.729 Q 220.244 124.464 220.244 125.178 L 220.244 129.952 Z " fill="black" /></g></g></g><circle cx="468.0" cy="36.0" r="2.6999999999999997" style="stroke:black;fill:black;stroke-width:2.0;stroke-dasharray:-;" /><g><g><g><path d="M 432.183 10.93 L 432.183 10.93 Q 432.183 11.672 431.903 12.176 Q 431.623 12.68 431.175 13.002 Q 430.727 13.324 430.216 13.499 Q 429.705 13.674 429.243 13.758 L 429.243 13.828 Q 429.495 13.996 429.719 14.339 Q 429.943 14.682 430.272 15.326 Q 430.601 15.97 431.175 17.062 Q 431.413 17.482 431.7 17.629 Q 431.987 17.776 432.463 17.776 L 432.379 18.196 L 430.251 18.196 Q 429.859 17.328 429.593 16.747 Q 429.327 16.166 429.131 15.774 Q 428.935 15.382 428.788 15.074 Q 428.641 14.766 428.473 14.444 Q 428.319 14.15 428.137 14.059 Q 427.955 13.968 427.577 13.968 L 427.283 13.968 L 426.765 16.46 Q 426.653 17.034 426.688 17.321 Q 426.723 17.608 427.003 17.692 Q 427.283 17.776 427.885 17.776 L 427.815 18.196 L 423.951 18.196 L 424.035 17.776 Q 424.553 17.776 424.833 17.692 Q 425.113 17.608 425.26 17.328 Q 425.407 17.048 425.519 16.46 L 426.751 10.454 Q 426.835 10.062 426.793 9.838 Q 426.751 9.614 426.506 9.516 Q 426.261 9.418 425.701 9.418 L 425.785 8.998 L 429.075 8.998 Q 430.545 8.998 431.364 9.453 Q 432.183 9.908 432.183 10.93 Z M 428.165 9.586 L 428.165 9.586 L 427.381 13.45 L 427.815 13.464 Q 428.655 13.436 429.334 13.191 Q 430.013 12.946 430.405 12.414 Q 430.797 11.882 430.797 10.986 Q 430.797 10.608 430.636 10.279 Q 430.475 9.95 430.083 9.747 Q 429.691 9.544 428.991 9.544 Q 428.725 9.544 428.564 9.551 Q 428.403 9.558 428.165 9.586 Z " fill="black" /><path d="M 436.057 20.774 L 436.057 20.774 L 436.057 21.136 L 433.577 21.136 L 433.577 20.774 Q 433.92 20.774 434.072 20.705 Q 434.224 20.636 434.263 20.475 Q 434.303 20.313 434.303 20.039 L 434.303 14.864 Q 434.303 14.551 434.19 14.482 Q 434.077 14.413 433.842 14.413 Q 433.715 14.413 433.631 14.428 Q 433.548 14.443 433.548 14.443 L 433.548 14.07 L 434.881 13.816 L 435.263 13.816 L 435.263 20.039 Q 435.263 20.323 435.307 20.485 Q 435.351 20.646 435.523 20.71 Q 435.694 20.774 436.057 20.774 Z " fill="black" /><path d="M 438.517 16.021 L 438.517 16.021 L 438.517 16.863 L 438.566 16.863 Q 438.948 16.422 439.33 16.207 Q 439.712 15.991 440.173 15.991 Q 440.692 15.991 441.114 16.3 Q 441.535 16.609 441.785 17.153 Q 442.035 17.696 442.035 18.402 Q 442.035 19.323 441.707 19.96 Q 441.378 20.597 440.834 20.926 Q 440.29 21.254 439.653 21.254 Q 439.35 21.254 439.08 21.175 Q 438.811 21.097 438.585 20.97 L 438.536 20.97 L 438.536 22.224 Q 438.536 22.567 438.624 22.748 Q 438.713 22.93 438.938 22.993 Q 439.163 23.057 439.585 23.057 L 439.585 23.4 L 436.811 23.4 L 436.811 23.067 Q 437.154 23.057 437.316 22.993 Q 437.478 22.93 437.532 22.763 Q 437.586 22.596 437.586 22.293 L 437.586 17.138 Q 437.586 16.854 437.527 16.731 Q 437.468 16.609 437.184 16.609 Q 437.096 16.609 436.958 16.618 Q 436.821 16.628 436.821 16.628 L 436.821 16.236 L 438.144 16.021 Z M 438.536 17.363 L 438.536 17.363 L 438.536 20.127 Q 438.644 20.235 438.806 20.396 Q 438.967 20.558 439.193 20.681 Q 439.418 20.803 439.683 20.803 Q 440.045 20.803 440.344 20.583 Q 440.643 20.362 440.829 19.892 Q 441.016 19.421 441.016 18.696 Q 441.016 17.775 440.682 17.265 Q 440.349 16.756 439.742 16.756 Q 439.35 16.756 439.026 16.961 Q 438.703 17.167 438.536 17.363 Z " fill="black" /></g></g></g><g><g><g><path d="M 445.674 72.058 L 445.674 72.058 L 445.926 72.324 Q 445.212 73.164 444.274 73.703 Q 443.336 74.242 442.006 74.242 Q 440.746 74.242 439.99 73.773 Q 439.234 73.304 438.905 72.52 Q 438.576 71.736 438.576 70.812 Q 438.576 69.342 439.024 68.201 Q 439.472 67.06 440.249 66.283 Q 441.026 65.506 442.006 65.107 Q 442.986 64.708 444.05 64.708 Q 444.764 64.708 445.163 64.834 Q 445.562 64.96 445.786 65.093 Q 446.01 65.226 446.178 65.226 Q 446.346 65.226 446.472 65.086 Q 446.598 64.946 446.766 64.722 L 447.172 64.722 L 446.514 67.928 L 446.052 67.928 Q 446.108 66.528 445.534 65.919 Q 444.96 65.31 443.924 65.31 Q 443.112 65.31 442.398 65.681 Q 441.684 66.052 441.131 66.731 Q 440.578 67.41 440.263 68.355 Q 439.948 69.3 439.948 70.462 Q 439.948 71.862 440.613 72.597 Q 441.278 73.332 442.664 73.332 Q 444.274 73.332 445.674 72.058 Z " fill="black" /><path d="M 449.674 76.665 L 449.674 76.665 L 449.674 77.028 L 447.195 77.028 L 447.195 76.665 Q 447.538 76.665 447.69 76.597 Q 447.841 76.528 447.881 76.367 Q 447.92 76.205 447.92 75.93 L 447.92 70.756 Q 447.92 70.442 447.807 70.374 Q 447.694 70.305 447.459 70.305 Q 447.332 70.305 447.249 70.32 Q 447.165 70.335 447.165 70.335 L 447.165 69.962 L 448.498 69.707 L 448.88 69.707 L 448.88 75.93 Q 448.88 76.215 448.924 76.376 Q 448.968 76.538 449.14 76.602 Q 449.311 76.665 449.674 76.665 Z " fill="black" /><path d="M 452.134 71.912 L 452.134 71.912 L 452.134 72.755 L 452.183 72.755 Q 452.565 72.314 452.947 72.099 Q 453.329 71.883 453.79 71.883 Q 454.309 71.883 454.731 72.192 Q 455.152 72.501 455.402 73.044 Q 455.652 73.588 455.652 74.294 Q 455.652 75.215 455.324 75.852 Q 454.995 76.489 454.452 76.817 Q 453.908 77.146 453.271 77.146 Q 452.967 77.146 452.697 77.067 Q 452.428 76.989 452.202 76.861 L 452.153 76.861 L 452.153 78.116 Q 452.153 78.459 452.242 78.64 Q 452.33 78.822 452.555 78.885 Q 452.781 78.949 453.202 78.949 L 453.202 79.292 L 450.429 79.292 L 450.429 78.959 Q 450.772 78.949 450.933 78.885 Q 451.095 78.822 451.149 78.655 Q 451.203 78.488 451.203 78.184 L 451.203 73.03 Q 451.203 72.745 451.144 72.623 Q 451.085 72.501 450.801 72.501 Q 450.713 72.501 450.576 72.51 Q 450.438 72.52 450.438 72.52 L 450.438 72.128 L 451.761 71.912 Z M 452.153 73.255 L 452.153 73.255 L 452.153 76.019 Q 452.261 76.126 452.423 76.288 Q 452.585 76.45 452.81 76.572 Q 453.035 76.695 453.3 76.695 Q 453.663 76.695 453.962 76.474 Q 454.26 76.254 454.447 75.783 Q 454.633 75.313 454.633 74.588 Q 454.633 73.667 454.3 73.157 Q 453.966 72.647 453.359 72.647 Q 452.967 72.647 452.643 72.853 Q 452.32 73.059 452.153 73.255 Z " fill="black" /></g></g></g><g><g><g><path d="M 512.48 10.632 L 512.48 10.632 L 509.484 1.434 L 510.758 1.434 L 512.27 6.39 Q 512.508 7.202 512.704 7.909 Q 512.9 8.616 513.166 9.428 L 513.236 9.428 Q 513.488 8.616 513.691 7.909 Q 513.894 7.202 514.132 6.39 L 515.63 1.434 L 516.848 1.434 L 513.866 10.632 Z " fill="black" /><path d="M 521.692 10.8 L 521.692 10.8 Q 520.53 10.8 519.599 10.233 Q 518.668 9.666 518.136 8.602 Q 517.604 7.538 517.604 6.068 Q 517.604 4.57 518.15 3.499 Q 518.696 2.428 519.627 1.854 Q 520.558 1.28 521.706 1.28 Q 522.686 1.28 523.316 1.637 Q 523.946 1.994 524.338 2.414 L 523.68 3.184 Q 522.868 2.316 521.748 2.316 Q 520.894 2.316 520.236 2.764 Q 519.578 3.212 519.207 4.045 Q 518.836 4.878 518.836 6.04 Q 518.836 7.174 519.193 8.007 Q 519.55 8.84 520.201 9.295 Q 520.852 9.75 521.734 9.75 Q 522.406 9.75 522.938 9.477 Q 523.47 9.204 523.918 8.728 L 524.562 9.47 Q 524.002 10.1 523.302 10.45 Q 522.602 10.8 521.692 10.8 Z " fill="black" /><path d="M 529.784 10.8 L 529.784 10.8 Q 528.608 10.8 527.705 10.219 Q 526.802 9.638 526.291 8.56 Q 525.78 7.482 525.78 5.998 Q 525.78 4.528 526.291 3.471 Q 526.802 2.414 527.705 1.847 Q 528.608 1.28 529.784 1.28 Q 530.974 1.28 531.877 1.847 Q 532.78 2.414 533.291 3.471 Q 533.802 4.528 533.802 5.998 Q 533.802 7.468 533.291 8.546 Q 532.78 9.624 531.877 10.212 Q 530.974 10.8 529.784 10.8 Z M 529.784 9.75 L 529.784 9.75 Q 530.624 9.75 531.247 9.288 Q 531.87 8.826 532.213 7.979 Q 532.556 7.132 532.556 5.998 Q 532.556 4.29 531.8 3.303 Q 531.044 2.316 529.784 2.316 Q 528.524 2.316 527.768 3.303 Q 527.012 4.29 527.012 5.998 Q 527.012 7.132 527.355 7.979 Q 527.698 8.826 528.321 9.288 Q 528.944 9.75 529.784 9.75 Z " fill="black" /></g></g></g><circle cx="576.0" cy="36.0" r="2.6999999999999997" style="stroke:black;fill:black;stroke-width:2.0;stroke-dasharray:-;" /><circle cx="612.0" cy="36.0" r="2.6999999999999997" style="stroke:black;fill:white;stroke-width:2.0;stroke-dasharray:-;" /><g><g><g><path d="M 620.96 32.864 L 620.96 32.864 L 622.164 32.864 Q 622.29 32.276 622.437 31.73 Q 622.584 31.184 622.822 30.75 Q 623.004 30.414 623.27 30.12 Q 623.536 29.826 623.949 29.637 Q 624.362 29.448 624.964 29.448 Q 625.608 29.448 625.951 29.735 Q 626.294 30.022 626.294 30.47 Q 626.294 30.778 626.126 30.932 Q 625.958 31.086 625.734 31.086 Q 625.454 31.086 625.328 30.925 Q 625.202 30.764 625.174 30.54 Q 625.132 30.274 625.069 30.064 Q 625.006 29.854 624.754 29.854 Q 624.222 29.854 623.928 30.414 Q 623.634 30.974 623.48 31.87 L 623.312 32.864 L 624.642 32.864 L 624.558 33.438 L 623.242 33.438 L 622.444 38.212 Q 622.388 38.576 622.269 39.122 Q 622.15 39.668 621.94 40.263 Q 621.73 40.858 621.429 41.376 Q 621.128 41.894 620.694 42.223 Q 620.26 42.552 619.686 42.552 Q 619.014 42.552 618.727 42.23 Q 618.44 41.908 618.44 41.544 Q 618.44 41.25 618.587 41.054 Q 618.734 40.858 619 40.858 Q 619.322 40.858 619.434 41.047 Q 619.546 41.236 619.574 41.481 Q 619.602 41.726 619.658 41.915 Q 619.714 42.104 619.91 42.104 Q 620.19 42.104 620.4 41.74 Q 620.61 41.376 620.764 40.837 Q 620.918 40.298 621.016 39.766 Q 621.114 39.234 621.17 38.884 L 622.08 33.438 L 620.904 33.438 Z " fill="black" /><path d="M 626.62 37.197 L 626.62 37.197 Q 627.355 37.197 627.904 37.516 Q 628.453 37.834 628.752 38.407 Q 629.051 38.981 629.051 39.755 Q 629.051 40.686 628.737 41.284 Q 628.423 41.881 627.875 42.17 Q 627.326 42.46 626.62 42.46 Q 625.905 42.46 625.351 42.161 Q 624.797 41.862 624.489 41.264 Q 624.18 40.666 624.18 39.765 Q 624.18 39 624.484 38.422 Q 624.788 37.844 625.336 37.52 Q 625.885 37.197 626.62 37.197 Z M 626.601 37.648 L 626.601 37.648 Q 625.954 37.648 625.586 38.172 Q 625.219 38.696 625.219 39.706 Q 625.219 40.95 625.596 41.465 Q 625.973 41.979 626.65 41.979 Q 627.081 41.97 627.385 41.764 Q 627.688 41.558 627.85 41.073 Q 628.012 40.588 628.012 39.755 Q 628.012 38.755 627.669 38.201 Q 627.326 37.648 626.601 37.648 Z " fill="black" /><path d="M 635.715 41.842 L 635.715 41.842 L 635.715 42.215 L 634.392 42.391 L 634.078 42.391 L 634.078 41.627 L 633.98 41.627 Q 633.608 41.96 633.225 42.2 Q 632.843 42.44 632.304 42.44 Q 631.579 42.44 631.197 41.999 Q 630.815 41.558 630.815 40.47 L 630.815 38.363 Q 630.815 37.961 630.673 37.868 Q 630.53 37.775 630.08 37.775 L 630.08 37.422 L 631.442 37.236 L 631.765 37.236 L 631.765 40.343 Q 631.765 40.892 631.893 41.195 Q 632.02 41.499 632.236 41.617 Q 632.451 41.734 632.706 41.734 Q 633.137 41.734 633.426 41.553 Q 633.715 41.372 634.029 41.117 L 634.029 38.363 Q 634.029 37.961 633.853 37.868 Q 633.676 37.775 633.176 37.775 L 633.176 37.422 L 634.637 37.236 L 634.98 37.236 L 634.98 41.205 Q 634.98 41.499 635.034 41.636 Q 635.087 41.774 635.225 41.808 Q 635.362 41.842 635.607 41.842 Z " fill="black" /><path d="M 639.537 41.362 L 639.537 41.362 L 639.762 41.548 Q 639.546 41.842 639.37 42.043 Q 639.194 42.244 638.968 42.352 Q 638.743 42.46 638.39 42.46 Q 637.822 42.46 637.562 42.136 Q 637.302 41.813 637.302 41.097 L 637.302 37.805 L 636.685 37.805 L 636.685 37.511 Q 637.038 37.256 637.332 36.888 Q 637.626 36.521 637.92 35.835 L 638.263 35.835 L 638.253 37.324 L 639.497 37.324 L 639.497 37.805 L 638.253 37.805 L 638.253 40.774 Q 638.253 41.323 638.356 41.553 Q 638.459 41.783 638.772 41.783 Q 639.056 41.783 639.203 41.681 Q 639.35 41.578 639.537 41.362 Z " fill="black" /></g></g></g><g><g><g><path d="M 482.647 255.843 L 482.647 255.843 Q 482.647 256.165 482.423 256.41 Q 482.199 256.655 481.779 256.655 Q 481.359 256.655 481.156 256.417 Q 480.953 256.179 480.953 255.829 Q 480.953 255.465 481.177 255.206 Q 481.401 254.947 481.793 254.947 Q 482.199 254.947 482.423 255.213 Q 482.647 255.479 482.647 255.843 Z M 482.647 250.747 L 482.647 250.747 Q 482.647 251.069 482.423 251.314 Q 482.199 251.559 481.779 251.559 Q 481.359 251.559 481.156 251.321 Q 480.953 251.083 480.953 250.733 Q 480.953 250.369 481.177 250.11 Q 481.401 249.851 481.793 249.851 Q 482.199 249.851 482.423 250.117 Q 482.647 250.383 482.647 250.747 Z " fill="black" /><path d="M 484.803 256.543 L 484.803 256.543 L 484.803 247.345 L 486.049 247.345 L 489.437 253.099 L 490.445 255.003 L 490.515 255.003 Q 490.473 254.303 490.417 253.547 Q 490.361 252.791 490.361 252.063 L 490.361 247.345 L 491.495 247.345 L 491.495 256.543 L 490.263 256.543 L 486.861 250.789 L 485.853 248.885 L 485.797 248.885 Q 485.839 249.585 485.895 250.32 Q 485.951 251.055 485.951 251.769 L 485.951 256.543 Z " fill="black" /></g></g></g><g><g><g><path d="M 154.497 259.016 L 154.497 259.016 L 155.701 259.016 Q 155.827 258.428 155.974 257.882 Q 156.121 257.336 156.359 256.902 Q 156.541 256.566 156.807 256.272 Q 157.073 255.978 157.486 255.789 Q 157.899 255.6 158.501 255.6 Q 159.145 255.6 159.488 255.887 Q 159.831 256.174 159.831 256.622 Q 159.831 256.93 159.663 257.084 Q 159.495 257.238 159.271 257.238 Q 158.991 257.238 158.865 257.077 Q 158.739 256.916 158.711 256.692 Q 158.669 256.426 158.606 256.216 Q 158.543 256.006 158.291 256.006 Q 157.759 256.006 157.465 256.566 Q 157.171 257.126 157.017 258.022 L 156.849 259.016 L 158.179 259.016 L 158.095 259.59 L 156.779 259.59 L 155.981 264.364 Q 155.925 264.728 155.806 265.274 Q 155.687 265.82 155.477 266.415 Q 155.267 267.01 154.966 267.528 Q 154.665 268.046 154.231 268.375 Q 153.797 268.704 153.223 268.704 Q 152.551 268.704 152.264 268.382 Q 151.977 268.06 151.977 267.696 Q 151.977 267.402 152.124 267.206 Q 152.271 267.01 152.537 267.01 Q 152.859 267.01 152.971 267.199 Q 153.083 267.388 153.111 267.633 Q 153.139 267.878 153.195 268.067 Q 153.251 268.256 153.447 268.256 Q 153.727 268.256 153.937 267.892 Q 154.147 267.528 154.301 266.989 Q 154.455 266.45 154.553 265.918 Q 154.651 265.386 154.707 265.036 L 155.617 259.59 L 154.441 259.59 Z " fill="black" /><path d="M 157.57 263.476 L 157.57 263.476 L 158.354 263.476 Q 158.354 262.957 158.428 262.594 Q 158.501 262.232 158.688 261.869 Q 158.913 261.516 159.231 261.296 Q 159.55 261.075 160.138 261.075 Q 160.638 261.075 160.991 261.267 Q 161.343 261.458 161.343 261.83 Q 161.343 262.065 161.211 262.188 Q 161.079 262.31 160.902 262.31 Q 160.687 262.31 160.564 262.188 Q 160.442 262.065 160.246 261.859 Q 160.109 261.663 160.001 261.59 Q 159.893 261.516 159.746 261.516 Q 159.472 261.516 159.383 261.781 Q 159.295 262.046 159.295 262.692 L 159.295 263.476 L 160.569 263.476 L 160.569 263.957 L 159.295 263.957 L 159.295 267.191 Q 159.295 267.592 159.383 267.793 Q 159.472 267.994 159.707 268.063 Q 159.942 268.131 160.373 268.131 L 160.373 268.494 L 157.482 268.494 L 157.482 268.131 Q 157.855 268.131 158.041 268.063 Q 158.227 267.994 158.291 267.793 Q 158.354 267.592 158.354 267.191 L 158.354 263.957 L 157.57 263.957 Z " fill="black" /><path d="M 163.392 261.173 L 163.392 261.173 L 163.392 264.211 L 163.441 264.211 Q 163.725 263.878 164.112 263.614 Q 164.499 263.349 165.048 263.349 Q 165.557 263.349 165.974 263.658 Q 166.39 263.966 166.64 264.51 Q 166.89 265.054 166.89 265.76 Q 166.89 266.701 166.547 267.338 Q 166.204 267.975 165.611 268.293 Q 165.018 268.612 164.264 268.612 Q 163.823 268.612 163.45 268.538 Q 163.078 268.465 162.818 268.367 Q 162.559 268.269 162.441 268.22 L 162.441 262.34 Q 162.441 261.977 162.363 261.874 Q 162.284 261.771 161.951 261.771 Q 161.843 261.771 161.75 261.786 Q 161.657 261.801 161.657 261.801 L 161.657 261.428 L 162.99 261.173 Z M 163.392 264.721 L 163.392 264.721 L 163.392 267.661 Q 163.509 267.877 163.764 268.004 Q 164.019 268.131 164.44 268.131 Q 164.96 268.131 165.273 267.852 Q 165.587 267.573 165.729 267.107 Q 165.871 266.642 165.871 266.093 Q 165.871 265.593 165.758 265.138 Q 165.646 264.682 165.361 264.398 Q 165.077 264.113 164.577 264.113 Q 164.313 264.113 164.073 264.216 Q 163.833 264.319 163.656 264.461 Q 163.48 264.603 163.392 264.721 Z " fill="black" /><path d="M 181.874 260.976 L 181.874 260.976 L 173.53 260.976 L 173.53 260.024 L 181.874 260.024 Z M 181.874 263.832 L 181.874 263.832 L 173.53 263.832 L 173.53 262.894 L 181.874 262.894 Z " fill="black" /><path d="M 190.586 259.016 L 190.586 259.016 L 191.79 259.016 Q 191.916 258.428 192.063 257.882 Q 192.21 257.336 192.448 256.902 Q 192.63 256.566 192.896 256.272 Q 193.162 255.978 193.575 255.789 Q 193.988 255.6 194.59 255.6 Q 195.234 255.6 195.577 255.887 Q 195.92 256.174 195.92 256.622 Q 195.92 256.93 195.752 257.084 Q 195.584 257.238 195.36 257.238 Q 195.08 257.238 194.954 257.077 Q 194.828 256.916 194.8 256.692 Q 194.758 256.426 194.695 256.216 Q 194.632 256.006 194.38 256.006 Q 193.848 256.006 193.554 256.566 Q 193.26 257.126 193.106 258.022 L 192.938 259.016 L 194.268 259.016 L 194.184 259.59 L 192.868 259.59 L 192.07 264.364 Q 192.014 264.728 191.895 265.274 Q 191.776 265.82 191.566 266.415 Q 191.356 267.01 191.055 267.528 Q 190.754 268.046 190.32 268.375 Q 189.886 268.704 189.312 268.704 Q 188.64 268.704 188.353 268.382 Q 188.066 268.06 188.066 267.696 Q 188.066 267.402 188.213 267.206 Q 188.36 267.01 188.626 267.01 Q 188.948 267.01 189.06 267.199 Q 189.172 267.388 189.2 267.633 Q 189.228 267.878 189.284 268.067 Q 189.34 268.256 189.536 268.256 Q 189.816 268.256 190.026 267.892 Q 190.236 267.528 190.39 266.989 Q 190.544 266.45 190.642 265.918 Q 190.74 265.386 190.796 265.036 L 191.706 259.59 L 190.53 259.59 Z " fill="black" /><path d="M 196.246 263.349 L 196.246 263.349 Q 196.981 263.349 197.53 263.668 Q 198.079 263.986 198.378 264.559 Q 198.676 265.133 198.676 265.907 Q 198.676 266.838 198.363 267.436 Q 198.049 268.033 197.5 268.323 Q 196.952 268.612 196.246 268.612 Q 195.531 268.612 194.977 268.313 Q 194.423 268.014 194.115 267.416 Q 193.806 266.818 193.806 265.917 Q 193.806 265.152 194.11 264.574 Q 194.413 263.996 194.962 263.672 Q 195.511 263.349 196.246 263.349 Z M 196.226 263.8 L 196.226 263.8 Q 195.58 263.8 195.212 264.324 Q 194.845 264.848 194.845 265.858 Q 194.845 267.102 195.222 267.617 Q 195.599 268.131 196.275 268.131 Q 196.707 268.122 197.01 267.916 Q 197.314 267.71 197.476 267.225 Q 197.638 266.74 197.638 265.907 Q 197.638 264.907 197.295 264.354 Q 196.952 263.8 196.226 263.8 Z " fill="black" /><path d="M 205.34 267.994 L 205.34 267.994 L 205.34 268.367 L 204.017 268.543 L 203.704 268.543 L 203.704 267.779 L 203.606 267.779 Q 203.233 268.112 202.851 268.352 Q 202.469 268.592 201.93 268.592 Q 201.205 268.592 200.823 268.151 Q 200.44 267.71 200.44 266.622 L 200.44 264.515 Q 200.44 264.113 200.298 264.02 Q 200.156 263.927 199.705 263.927 L 199.705 263.574 L 201.068 263.388 L 201.391 263.388 L 201.391 266.495 Q 201.391 267.044 201.518 267.347 Q 201.646 267.651 201.861 267.769 Q 202.077 267.886 202.332 267.886 Q 202.763 267.886 203.052 267.705 Q 203.341 267.524 203.655 267.269 L 203.655 264.515 Q 203.655 264.113 203.478 264.02 Q 203.302 263.927 202.802 263.927 L 202.802 263.574 L 204.262 263.388 L 204.605 263.388 L 204.605 267.357 Q 204.605 267.651 204.659 267.788 Q 204.713 267.926 204.85 267.96 Q 204.988 267.994 205.233 267.994 Z " fill="black" /><path d="M 209.162 267.514 L 209.162 267.514 L 209.388 267.7 Q 209.172 267.994 208.996 268.195 Q 208.819 268.396 208.594 268.504 Q 208.369 268.612 208.016 268.612 Q 207.447 268.612 207.188 268.288 Q 206.928 267.965 206.928 267.249 L 206.928 263.957 L 206.311 263.957 L 206.311 263.663 Q 206.663 263.408 206.957 263.04 Q 207.251 262.673 207.545 261.987 L 207.888 261.987 L 207.879 263.476 L 209.123 263.476 L 209.123 263.957 L 207.879 263.957 L 207.879 266.926 Q 207.879 267.475 207.982 267.705 Q 208.084 267.935 208.398 267.935 Q 208.682 267.935 208.829 267.833 Q 208.976 267.73 209.162 267.514 Z " fill="black" /><path d="M 214.557 255.628 L 214.557 255.628 L 210.917 266.8 L 210.133 266.8 L 213.787 255.628 Z " fill="black" /><path d="M 226.303 256.356 L 226.303 256.356 L 226.219 256.776 Q 225.841 256.776 225.638 256.846 Q 225.435 256.916 225.281 257.056 Q 225.155 257.168 225.029 257.329 Q 224.903 257.49 224.791 257.798 Q 224.679 258.106 224.567 258.652 L 223.139 265.666 L 222.677 265.666 L 218.561 258.148 L 218.491 258.148 L 217.399 263.468 Q 217.259 264.168 217.287 264.525 Q 217.315 264.882 217.574 265.008 Q 217.833 265.134 218.351 265.134 L 218.267 265.554 L 215.047 265.554 L 215.131 265.134 Q 215.677 265.134 215.971 265.015 Q 216.265 264.896 216.419 264.532 Q 216.573 264.168 216.713 263.468 L 217.959 257.42 Q 217.721 257.028 217.483 256.902 Q 217.245 256.776 216.797 256.776 L 216.881 256.356 L 219.079 256.356 L 222.859 263.244 L 222.929 263.244 L 223.895 258.582 Q 224.021 257.952 224.028 257.63 Q 224.035 257.308 223.937 257.126 Q 223.811 256.916 223.587 256.846 Q 223.363 256.776 222.915 256.776 L 222.999 256.356 Z " fill="black" /></g></g></g><circle cx="-90.0" cy="-27.000000000000007" r="2.6999999999999997" style="stroke:black;fill:white;stroke-width:2.0;stroke-dasharray:-;" /><g><g><g><path d="M -112.894 -30.136 L -112.894 -30.136 L -111.69 -30.136 Q -111.564 -30.724 -111.417 -31.27 Q -111.27 -31.816 -111.032 -32.25 Q -110.85 -32.586 -110.584 -32.88 Q -110.318 -33.174 -109.905 -33.363 Q -109.492 -33.552 -108.89 -33.552 Q -108.246 -33.552 -107.903 -33.265 Q -107.56 -32.978 -107.56 -32.53 Q -107.56 -32.222 -107.728 -32.068 Q -107.896 -31.914 -108.12 -31.914 Q -108.4 -31.914 -108.526 -32.075 Q -108.652 -32.236 -108.68 -32.46 Q -108.722 -32.726 -108.785 -32.936 Q -108.848 -33.146 -109.1 -33.146 Q -109.632 -33.146 -109.926 -32.586 Q -110.22 -32.026 -110.374 -31.13 L -110.542 -30.136 L -109.212 -30.136 L -109.296 -29.562 L -110.612 -29.562 L -111.41 -24.788 Q -111.466 -24.424 -111.585 -23.878 Q -111.704 -23.332 -111.914 -22.737 Q -112.124 -22.142 -112.425 -21.624 Q -112.726 -21.106 -113.16 -20.777 Q -113.594 -20.448 -114.168 -20.448 Q -114.84 -20.448 -115.127 -20.77 Q -115.414 -21.092 -115.414 -21.456 Q -115.414 -21.75 -115.267 -21.946 Q -115.12 -22.142 -114.854 -22.142 Q -114.532 -22.142 -114.42 -21.953 Q -114.308 -21.764 -114.28 -21.519 Q -114.252 -21.274 -114.196 -21.085 Q -114.14 -20.896 -113.944 -20.896 Q -113.664 -20.896 -113.454 -21.26 Q -113.244 -21.624 -113.09 -22.163 Q -112.936 -22.702 -112.838 -23.234 Q -112.74 -23.766 -112.684 -24.116 L -111.774 -29.562 L -112.95 -29.562 Z " fill="black" /><path d="M -108.096 -25.774 L -108.096 -25.774 L -108.096 -24.715 L -108.038 -24.715 Q -107.646 -25.264 -107.337 -25.553 Q -107.028 -25.842 -106.666 -25.842 Q -106.038 -25.842 -106.038 -25.225 Q -106.038 -24.882 -106.19 -24.745 Q -106.342 -24.607 -106.519 -24.607 Q -106.695 -24.607 -106.837 -24.705 Q -106.979 -24.803 -107.077 -24.901 Q -107.175 -24.999 -107.224 -24.999 Q -107.381 -24.999 -107.631 -24.735 Q -107.881 -24.47 -108.077 -24.137 L -108.077 -21.785 Q -108.077 -21.305 -107.866 -21.163 Q -107.655 -21.021 -107.116 -21.021 L -107.116 -20.658 L -109.782 -20.658 L -109.782 -21.021 Q -109.449 -21.021 -109.292 -21.079 Q -109.135 -21.138 -109.086 -21.29 Q -109.037 -21.442 -109.037 -21.716 L -109.037 -24.558 Q -109.037 -24.872 -109.091 -25.029 Q -109.145 -25.186 -109.449 -25.186 Q -109.586 -25.186 -109.684 -25.176 Q -109.782 -25.166 -109.782 -25.166 L -109.782 -25.529 L -108.459 -25.774 Z " fill="black" /><path d="M -101.129 -22.118 L -101.129 -22.118 L -100.893 -21.932 Q -101.099 -21.56 -101.354 -21.246 Q -101.609 -20.932 -101.981 -20.746 Q -102.354 -20.56 -102.922 -20.56 Q -103.539 -20.56 -104.073 -20.839 Q -104.608 -21.119 -104.931 -21.697 Q -105.254 -22.275 -105.254 -23.157 Q -105.254 -24.029 -104.951 -24.617 Q -104.647 -25.205 -104.127 -25.504 Q -103.608 -25.803 -102.971 -25.803 Q -102.089 -25.803 -101.506 -25.191 Q -100.923 -24.578 -100.903 -23.363 L -104.353 -23.363 Q -104.353 -22.696 -104.103 -22.26 Q -103.853 -21.824 -103.461 -21.614 Q -103.069 -21.403 -102.638 -21.403 Q -102.197 -21.403 -101.932 -21.496 Q -101.668 -21.589 -101.486 -21.756 Q -101.305 -21.922 -101.129 -22.118 Z M -104.353 -23.814 L -104.353 -23.814 L -101.952 -23.814 Q -101.952 -24.206 -102.079 -24.554 Q -102.207 -24.901 -102.452 -25.122 Q -102.697 -25.342 -103.079 -25.342 Q -103.637 -25.342 -103.966 -24.95 Q -104.294 -24.558 -104.353 -23.814 Z " fill="black" /><path d="M -99.933 -25.676 L -99.933 -25.676 L -99.149 -25.676 Q -99.149 -26.195 -99.075 -26.558 Q -99.002 -26.92 -98.816 -27.283 Q -98.59 -27.636 -98.272 -27.856 Q -97.953 -28.077 -97.365 -28.077 Q -96.866 -28.077 -96.513 -27.886 Q -96.16 -27.694 -96.16 -27.322 Q -96.16 -27.087 -96.292 -26.964 Q -96.425 -26.842 -96.601 -26.842 Q -96.817 -26.842 -96.939 -26.964 Q -97.062 -27.087 -97.258 -27.293 Q -97.395 -27.489 -97.503 -27.562 Q -97.61 -27.636 -97.757 -27.636 Q -98.032 -27.636 -98.12 -27.371 Q -98.208 -27.106 -98.208 -26.46 L -98.208 -25.676 L -96.934 -25.676 L -96.934 -25.195 L -98.208 -25.195 L -98.208 -21.961 Q -98.208 -21.56 -98.12 -21.359 Q -98.032 -21.158 -97.797 -21.089 Q -97.561 -21.021 -97.13 -21.021 L -97.13 -20.658 L -100.021 -20.658 L -100.021 -21.021 Q -99.649 -21.021 -99.463 -21.089 Q -99.276 -21.158 -99.213 -21.359 Q -99.149 -21.56 -99.149 -21.961 L -99.149 -25.195 L -99.933 -25.195 Z " fill="black" /></g></g></g></svg>