<svg xmlns="http://www.w3.org/2000/svg" xmlns:xlink="http://www.w3.org/1999/xlink" xml:lang="en" height="86.60000000000001pt" width="196.7748172452837pt" viewBox="-27.566117245283724 -7.3 196.7748172452837 86.60000000000001"><path d="M 0.0,-0.0 L -3.3065463576978533e-15,18.0 L 1.6615562733898361,18.067033833286978 L 3.3669793654250144,18.27113325898926 L 5.06985639067199,18.61398039413747 L 6.723843754600278,19.093481353447764 L 8.28392838896362,19.703823234159326 L 9.707652777067478,20.435632313487652 L 10.956270430006771,21.276229153368725 L 11.995800367726275,22.20997366984915 L 12.797951907327745,23.218690776099937 L 13.340894590620636,24.282165015230312 L 13.60985229743023,25.37869072152867 L 13.59750537594055,26.4856627375583 L 13.304189846142897,27.580191610812825 L 12.737888255092,28.639726527427953 L 11.914012432842831,29.64266902988306 L 10.854984061339362,30.56896081643888 L 9.589624471022711,31.400629625419768 L 8.152370271771023,32.122278348165224 L 6.582336164681225,32.7215040595002 L 4.922250440157871,33.189235561859945 L 3.217292132601282,33.5199802568466 L 1.5138614783910165,33.71197362563754 L -0.14168286099643665,33.767227250154 L -1.704285444413953,33.69147406809976 L -3.131420229484701,33.49401235174737 L -4.384247913758128,33.18745265657054 L -5.428672941679888,32.78737462648555 L -6.2362714110574675,32.31190299570578 L -6.785064626158073,31.78121432626836 L -7.060117245283725,31.21698790531198 L -7.053943744308888,30.64181574587086 L -6.766712134324067,30.078587747942677 L -6.206239389234084,29.54986875259839 L -5.387778707748384,29.07728444253186 L -4.333604399402858,28.68093280169241 L -3.0724056918904656,28.378837151055897 L -1.6385059571615932,28.18645564610044 L -0.07092860496246352,28.11626058495434 L 1.5876649345928222,28.177398976294512 L 3.292136236739341,28.375443604599628 L 4.996098318891502,28.71224136748715 L 6.653178056824975,29.185863012615624 L 8.218278223704866,29.79065564205639 L 9.648804805719182,30.51739655523439 L 10.90582619306932,31.35354424362113 L 11.955132699073395,32.283579706388885 L 12.768167572696836,33.28942879816175 L 13.32280416711563,34.35095411471985 L 13.6039481137627,35.446503030046266 L 13.603948113762701,36.55349696995372 L 13.322804167115638,37.649045885280124 L 12.768167572696841,38.710571201838235 L 11.955132699073408,39.716420293611094 L 10.905826193069348,40.64645575637884 L 9.648804805719214,41.48260344476559 L 8.218278223704887,42.20934435794361 L 6.653178056824997,42.814136987384366 L 4.996098318891542,43.28775863251284 L 3.2921362367393825,43.62455639540036 L 1.5876649345928542,43.82260102370548 L -0.07092860496244142,43.88373941504566 L -1.638505957161565,43.813544353899566 L -3.0724056918904328,43.6211628489441 L -4.333604399402836,43.31906719830759 L -5.387778707748372,42.92271555746815 L -6.206239389234073,42.45013124740162 L -6.766712134324058,41.92141225205734 L -7.053943744308887,41.35818425412915 L -7.060117245283728,40.78301209468803 L -6.785064626158082,40.218785673731645 L -6.236271411057488,39.688097004294235 L -5.428672941679908,39.21262537351446 L -4.384247913758147,38.812547343429465 L -3.1314202294847293,38.505987648252635 L -1.704285444413993,38.30852593190024 L -0.14168286099647076,38.232772749846 L 1.5138614783909898,38.28802637436246 L 3.217292132601246,38.48001974315339 L 4.922250440157827,38.81076443814004 L 6.582336164681191,39.278495940499795 L 8.152370271771,39.87772165183476 L 9.58962447102268,40.59937037458022 L 10.854984061339328,41.4310391835611 L 11.91401243284281,42.35733097011692 L 12.737888255091988,43.36027347257205 L 13.30418984614289,44.41980838918715 L 13.597505375940539,45.51433726244167 L 13.609852297430228,46.62130927847131 L 13.340894590620639,47.717834984769674 L 12.797951907327755,48.78130922390005 L 11.995800367726286,49.79002633015084 L 10.9562704300068,50.72377084663125 L 9.707652777067478,51.56436768651235 L 8.283928388963647,52.296176765840656 L 6.723843754600331,52.90651864655222 L 5.069856390671999,53.38601960586252 L 3.366979365425052,53.728866741010734 L 1.661556273389828,53.93296616671302 L 1.43085740644207e-14,54.0 L 1.1002027706722849e-14,72.0" style="stroke:black;fill:none;stroke-width:2.0;stroke-dasharray:-;stroke-linecap:round;stroke-linejoin:round;" /><path d="M 1.1002027706722849e-14,72.0 L 36.00000000000001,72.0 L 72.00000000000001,72.0" style="stroke:black;fill:none;stroke-width:2.0;stroke-dasharray:-;stroke-linecap:round;stroke-linejoin:round;" /><path d="M 72.00000000000001,72.0 L 72.00000000000001,39.239999999999995 M 63.000000000000014,39.239999999999995 L 81.00000000000001,39.239999999999995 M 63.000000000000014,32.76 L 81.00000000000001,32.76 M 72.00000000000001,32.76 L 72.00000000000001,-0.0" style="stroke:black;fill:none;stroke-width:2.0;stroke-dasharray:-;stroke-linecap:round;stroke-linejoin:round;" /><path d="M 72.00000000000001,-0.0 L 36.00000000000001,-4.4087284769304724e-15 L 0.0,-8.817456953860945e-15" style="stroke:black;fill:none;stroke-width:2.0;stroke-dasharray:-;stroke-linecap:round;stroke-linejoin:round;" /><path d="M 72.00000000000001,72.0 L 108.00000000000001,72.0 L 144.0,72.0" style="stroke:black;fill:none;stroke-width:2.0;stroke-dasharray:-;stroke-linecap:round;stroke-linejoin:round;" /><path d="M 144.0,-0.0 L 108.0,-4.408728476930472e-15 L 72.0,-8.817456953860943e-15" style="stroke:black;fill:none;stroke-width:2.0;stroke-dasharray:-;stroke-linecap:round;stroke-linejoin:round;" /><g><g><g><path d="M -18.626 33.816 L -18.626 33.816 L -18.948 36 L -19.284 36 Q -19.312 35.188 -19.655 34.712 Q -19.998 34.236 -20.614 34.236 Q -21.16 34.236 -21.398 34.53 Q -21.636 34.824 -21.636 35.132 Q -21.636 35.426 -21.433 35.699 Q -21.23 35.972 -20.922 36.259 Q -20.614 36.546 -20.306 36.882 Q -19.858 37.358 -19.529 37.813 Q -19.2 38.268 -19.2 38.94 Q -19.2 39.346 -19.403 39.745 Q -19.606 40.144 -20.068 40.41 Q -20.53 40.676 -21.328 40.676 Q -21.986 40.676 -22.385 40.515 Q -22.784 40.354 -22.938 40.298 L -22.98 40.298 L -23.316 40.676 L -23.624 40.676 L -23.26 38.338 L -22.91 38.338 Q -22.798 39.248 -22.483 39.724 Q -22.168 40.2 -21.454 40.2 Q -20.964 40.2 -20.663 39.962 Q -20.362 39.724 -20.362 39.178 Q -20.362 38.604 -20.677 38.205 Q -20.992 37.806 -21.398 37.428 Q -21.678 37.148 -21.965 36.882 Q -22.252 36.616 -22.441 36.287 Q -22.63 35.958 -22.63 35.524 Q -22.63 34.81 -22.154 34.313 Q -21.678 33.816 -20.726 33.816 Q -20.166 33.816 -19.795 33.97 Q -19.424 34.124 -19.298 34.194 L -19.256 34.194 L -18.892 33.816 Z " fill="black" /><path d="M -10.758 37.792 L -10.758 37.792 L -11.598 40.522 L -18.514 40.522 L -18.43 40.102 Q -17.884 40.102 -17.597 40.004 Q -17.31 39.906 -17.156 39.626 Q -17.002 39.346 -16.89 38.786 L -15.686 32.948 Q -15.588 32.486 -15.616 32.22 Q -15.644 31.954 -15.903 31.849 Q -16.162 31.744 -16.764 31.744 L -16.68 31.324 L -12.704 31.324 L -12.774 31.744 Q -13.53 31.744 -13.908 31.975 Q -14.286 32.206 -14.44 32.962 L -15.714 39.234 Q -15.812 39.696 -15.616 39.843 Q -15.42 39.99 -14.804 39.99 L -14.146 39.99 Q -13.474 39.99 -13.054 39.871 Q -12.634 39.752 -12.34 39.5 Q -12.046 39.248 -11.787 38.821 Q -11.528 38.394 -11.206 37.792 Z " fill="black" /></g></g></g><circle cx="72.00000000000001" cy="72.0" r="2.6999999999999997" style="stroke:black;fill:black;stroke-width:2.0;stroke-dasharray:-;" /><circle cx="72.00000000000001" cy="-0.0" r="2.6999999999999997" style="stroke:black;fill:black;stroke-width:2.0;stroke-dasharray:-;" /><g><g><g><path d="M 39.226 38.99 L 39.226 38.99 L 34.382 38.99 L 34.382 38.598 Q 35.376 38.598 35.782 38.388 Q 36.188 38.178 36.188 37.66 L 36.188 31.738 Q 36.188 31.374 36.09 31.213 Q 35.992 31.052 35.726 31.052 Q 35.516 31.052 35.068 31.108 Q 34.62 31.164 34.298 31.276 L 34.298 30.814 L 37.014 30.044 L 37.42 30.044 L 37.42 37.66 Q 37.42 38.178 37.84 38.388 Q 38.26 38.598 39.226 38.598 Z " fill="black" /><path d="M 45.106 29.064 L 45.106 29.064 L 41.466 40.236 L 40.682 40.236 L 44.336 29.064 Z " fill="black" /><path d="M 50.888 32.284 L 50.888 32.284 L 50.566 34.468 L 50.23 34.468 Q 50.202 33.656 49.859 33.18 Q 49.516 32.704 48.9 32.704 Q 48.354 32.704 48.116 32.998 Q 47.878 33.292 47.878 33.6 Q 47.878 33.894 48.081 34.167 Q 48.284 34.44 48.592 34.727 Q 48.9 35.014 49.208 35.35 Q 49.656 35.826 49.985 36.281 Q 50.314 36.736 50.314 37.408 Q 50.314 37.814 50.111 38.213 Q 49.908 38.612 49.446 38.878 Q 48.984 39.144 48.186 39.144 Q 47.528 39.144 47.129 38.983 Q 46.73 38.822 46.576 38.766 L 46.534 38.766 L 46.198 39.144 L 45.89 39.144 L 46.254 36.806 L 46.604 36.806 Q 46.716 37.716 47.031 38.192 Q 47.346 38.668 48.06 38.668 Q 48.55 38.668 48.851 38.43 Q 49.152 38.192 49.152 37.646 Q 49.152 37.072 48.837 36.673 Q 48.522 36.274 48.116 35.896 Q 47.836 35.616 47.549 35.35 Q 47.262 35.084 47.073 34.755 Q 46.884 34.426 46.884 33.992 Q 46.884 33.278 47.36 32.781 Q 47.836 32.284 48.788 32.284 Q 49.348 32.284 49.719 32.438 Q 50.09 32.592 50.216 32.662 L 50.258 32.662 L 50.622 32.284 Z " fill="black" /><path d="M 58.938 36.96 L 58.938 36.96 L 59.19 37.226 Q 58.476 38.066 57.538 38.605 Q 56.6 39.144 55.27 39.144 Q 54.01 39.144 53.254 38.675 Q 52.498 38.206 52.169 37.422 Q 51.84 36.638 51.84 35.714 Q 51.84 34.244 52.288 33.103 Q 52.736 31.962 53.513 31.185 Q 54.29 30.408 55.27 30.009 Q 56.25 29.61 57.314 29.61 Q 58.028 29.61 58.427 29.736 Q 58.826 29.862 59.05 29.995 Q 59.274 30.128 59.442 30.128 Q 59.61 30.128 59.736 29.988 Q 59.862 29.848 60.03 29.624 L 60.436 29.624 L 59.778 32.83 L 59.316 32.83 Q 59.372 31.43 58.798 30.821 Q 58.224 30.212 57.188 30.212 Q 56.376 30.212 55.662 30.583 Q 54.948 30.954 54.395 31.633 Q 53.842 32.312 53.527 33.257 Q 53.212 34.202 53.212 35.364 Q 53.212 36.764 53.877 37.499 Q 54.542 38.234 55.928 38.234 Q 57.538 38.234 58.938 36.96 Z " fill="black" /></g></g></g><circle cx="144.0" cy="72.0" r="2.6999999999999997" style="stroke:black;fill:white;stroke-width:2.0;stroke-dasharray:-;" /><g><g><g><path d="M 128.584 37.019 L 128.584 37.019 L 127.772 39.623 L 120.716 39.623 L 120.786 39.217 L 127.87 31.069 L 127.87 31.013 L 125.308 31.013 Q 124.594 31.013 124.16 31.118 Q 123.726 31.223 123.432 31.587 Q 123.138 31.951 122.83 32.735 L 122.382 32.735 L 122.9 30.425 L 129.704 30.425 L 129.62 30.817 L 122.564 38.979 L 122.564 39.049 L 125.434 39.049 Q 126.232 39.049 126.687 38.867 Q 127.142 38.685 127.457 38.237 Q 127.772 37.789 128.164 37.019 Z " fill="black" /><path d="M 133.065 41.583 L 133.065 41.583 L 133.291 41.769 Q 133.075 42.063 132.899 42.264 Q 132.722 42.465 132.497 42.573 Q 132.272 42.681 131.919 42.681 Q 131.35 42.681 131.091 42.357 Q 130.831 42.034 130.831 41.319 L 130.831 38.026 L 130.214 38.026 L 130.214 37.732 Q 130.566 37.477 130.86 37.109 Q 131.154 36.742 131.448 36.056 L 131.791 36.056 L 131.781 37.546 L 133.026 37.546 L 133.026 38.026 L 131.781 38.026 L 131.781 40.995 Q 131.781 41.544 131.884 41.774 Q 131.987 42.005 132.301 42.005 Q 132.585 42.005 132.732 41.902 Q 132.879 41.799 133.065 41.583 Z " fill="black" /><path d="M 137.073 41.946 L 137.073 41.946 L 137.005 41.946 Q 136.672 42.22 136.27 42.426 Q 135.868 42.632 135.398 42.632 Q 134.78 42.632 134.452 42.259 Q 134.124 41.887 134.124 41.358 Q 134.124 40.907 134.334 40.603 Q 134.545 40.299 134.883 40.108 Q 135.221 39.917 135.613 39.8 Q 136.005 39.682 136.368 39.613 Q 136.731 39.545 136.976 39.486 L 136.976 38.976 Q 136.976 38.32 136.716 38.07 Q 136.456 37.82 135.956 37.82 Q 135.653 37.82 135.52 37.898 Q 135.388 37.977 135.354 38.153 Q 135.319 38.33 135.31 38.614 Q 135.3 38.829 135.182 38.962 Q 135.065 39.094 134.839 39.094 Q 134.624 39.094 134.472 38.962 Q 134.32 38.829 134.32 38.575 Q 134.32 38.271 134.555 38.006 Q 134.79 37.742 135.226 37.58 Q 135.662 37.418 136.25 37.418 Q 137.132 37.418 137.529 37.825 Q 137.926 38.232 137.926 39.045 L 137.926 41.446 Q 137.926 41.769 138 41.862 Q 138.073 41.956 138.23 41.956 Q 138.397 41.956 138.519 41.887 Q 138.642 41.818 138.749 41.691 L 138.965 41.897 Q 138.455 42.622 137.769 42.622 Q 137.387 42.622 137.245 42.441 Q 137.103 42.259 137.073 41.946 Z M 136.976 41.583 L 136.976 41.583 L 136.976 39.858 Q 136.525 39.976 136.094 40.118 Q 135.662 40.26 135.383 40.505 Q 135.104 40.75 135.104 41.191 Q 135.104 41.573 135.324 41.794 Q 135.545 42.014 135.888 42.014 Q 136.094 42.014 136.383 41.921 Q 136.672 41.828 136.976 41.583 Z " fill="black" /><path d="M 144.482 39.28 L 144.482 39.28 L 144.482 41.475 Q 144.482 41.75 144.531 41.911 Q 144.58 42.073 144.747 42.142 Q 144.913 42.21 145.266 42.21 L 145.266 42.563 L 142.748 42.563 L 142.748 42.21 Q 143.12 42.21 143.287 42.142 Q 143.453 42.073 143.493 41.911 Q 143.532 41.75 143.532 41.475 L 143.532 39.604 Q 143.532 38.947 143.38 38.638 Q 143.228 38.33 142.998 38.232 Q 142.767 38.134 142.532 38.134 Q 142.111 38.134 141.792 38.349 Q 141.474 38.565 141.238 38.761 L 141.238 41.475 Q 141.238 41.75 141.283 41.911 Q 141.327 42.073 141.493 42.142 Q 141.66 42.21 142.023 42.21 L 142.023 42.563 L 139.553 42.563 L 139.553 42.21 Q 139.896 42.21 140.048 42.142 Q 140.2 42.073 140.239 41.911 Q 140.278 41.75 140.278 41.475 L 140.278 38.496 Q 140.278 38.222 140.175 38.129 Q 140.072 38.036 139.847 38.036 Q 139.729 38.036 139.651 38.045 Q 139.572 38.055 139.572 38.055 L 139.572 37.683 L 140.886 37.448 L 141.209 37.448 L 141.209 38.251 L 141.278 38.251 Q 141.699 37.869 142.086 37.644 Q 142.473 37.418 142.963 37.418 Q 143.542 37.418 143.87 37.678 Q 144.198 37.938 144.34 38.359 Q 144.482 38.78 144.482 39.28 Z " fill="black" /><path d="M 151.685 42.563 L 151.685 42.563 L 149.255 42.563 L 149.255 42.201 Q 149.47 42.201 149.554 42.166 Q 149.637 42.132 149.637 42.063 Q 149.637 41.985 149.598 41.911 Q 149.559 41.838 149.539 41.818 L 147.922 40.005 L 147.824 40.005 L 147.824 41.554 Q 147.824 41.946 147.961 42.073 Q 148.099 42.201 148.589 42.201 L 148.589 42.563 L 146.129 42.563 L 146.129 42.201 Q 146.589 42.201 146.722 42.063 Q 146.854 41.926 146.854 41.505 L 146.854 36.37 Q 146.854 36.046 146.771 35.943 Q 146.687 35.84 146.423 35.84 Q 146.315 35.84 146.207 35.855 Q 146.099 35.87 146.099 35.87 L 146.099 35.497 L 147.422 35.243 L 147.824 35.243 L 147.824 39.721 L 147.912 39.721 L 149.255 38.467 Q 149.274 38.447 149.373 38.339 Q 149.47 38.232 149.47 38.104 Q 149.47 37.996 149.363 37.957 Q 149.255 37.918 148.961 37.918 L 148.961 37.546 L 151.303 37.546 L 151.303 37.918 Q 151.038 37.918 150.843 37.962 Q 150.647 38.006 150.446 38.129 Q 150.245 38.251 149.975 38.472 Q 149.706 38.692 149.304 39.045 L 148.696 39.545 L 150.568 41.632 Q 150.823 41.897 150.994 42.019 Q 151.166 42.142 151.328 42.171 Q 151.489 42.201 151.685 42.201 Z " fill="black" /><path d="M 152.472 35.843 L 152.472 35.843 Q 152.472 33.505 153.487 31.853 Q 154.502 30.201 156.196 29.319 L 156.42 29.683 Q 154.894 30.719 154.257 32.21 Q 153.62 33.701 153.62 35.843 Q 153.62 37.985 154.257 39.476 Q 154.894 40.967 156.42 42.003 L 156.196 42.367 Q 154.502 41.485 153.487 39.833 Q 152.472 38.181 152.472 35.843 Z " fill="black" /><path d="M 162.132 32.917 L 162.132 32.917 L 161.81 35.101 L 161.474 35.101 Q 161.446 34.289 161.103 33.813 Q 160.76 33.337 160.144 33.337 Q 159.598 33.337 159.36 33.631 Q 159.122 33.925 159.122 34.233 Q 159.122 34.527 159.325 34.8 Q 159.528 35.073 159.836 35.36 Q 160.144 35.647 160.452 35.983 Q 160.9 36.459 161.229 36.914 Q 161.558 37.369 161.558 38.041 Q 161.558 38.447 161.355 38.846 Q 161.152 39.245 160.69 39.511 Q 160.228 39.777 159.43 39.777 Q 158.772 39.777 158.373 39.616 Q 157.974 39.455 157.82 39.399 L 157.778 39.399 L 157.442 39.777 L 157.134 39.777 L 157.498 37.439 L 157.848 37.439 Q 157.96 38.349 158.275 38.825 Q 158.59 39.301 159.304 39.301 Q 159.794 39.301 160.095 39.063 Q 160.396 38.825 160.396 38.279 Q 160.396 37.705 160.081 37.306 Q 159.766 36.907 159.36 36.529 Q 159.08 36.249 158.793 35.983 Q 158.506 35.717 158.317 35.388 Q 158.128 35.059 158.128 34.625 Q 158.128 33.911 158.604 33.414 Q 159.08 32.917 160.032 32.917 Q 160.592 32.917 160.963 33.071 Q 161.334 33.225 161.46 33.295 L 161.502 33.295 L 161.866 32.917 Z " fill="black" /><path d="M 166.612 35.843 L 166.612 35.843 Q 166.612 38.181 165.597 39.833 Q 164.582 41.485 162.888 42.367 L 162.664 42.003 Q 164.204 40.967 164.834 39.476 Q 165.464 37.985 165.464 35.843 Q 165.464 33.701 164.834 32.21 Q 164.204 30.719 162.664 29.683 L 162.888 29.319 Q 164.582 30.201 165.597 31.853 Q 166.612 33.505 166.612 35.843 Z " fill="black" /></g></g></g><circle cx="144.0" cy="-0.0" r="2.6999999999999997" style="stroke:black;fill:white;stroke-width:2.0;stroke-dasharray:-;" /></svg>