<svg xmlns="http://www.w3.org/2000/svg" xmlns:xlink="http://www.w3.org/1999/xlink" xml:lang="en" height="129.8pt" width="447.032pt" viewBox="-46.431999999999995 -28.0 447.032 129.8"><path d="M 0.0,-23.400000000000002 L 0.0,97.2" style="stroke:#DDDDDD;fill:none;stroke-width:1;stroke-dasharray:2,3.3;stroke-linecap:round;stroke-linejoin:round;" /><path d="M 36.0,-23.400000000000002 L 36.0,97.2" style="stroke:#DDDDDD;fill:none;stroke-width:1;stroke-dasharray:2,3.3;stroke-linecap:round;stroke-linejoin:round;" /><path d="M 72.0,-23.400000000000002 L 72.0,97.2" style="stroke:#DDDDDD;fill:none;stroke-width:1;stroke-dasharray:2,3.3;stroke-linecap:round;stroke-linejoin:round;" /><path d="M 108.0,-23.400000000000002 L 108.0,97.2" style="stroke:#DDDDDD;fill:none;stroke-width:1;stroke-dasharray:2,3.3;stroke-linecap:round;stroke-linejoin:round;" /><path d="M 144.0,-23.400000000000002 L 144.0,97.2" style="stroke:#DDDDDD;fill:none;stroke-width:1;stroke-dasharray:2,3.3;stroke-linecap:round;stroke-linejoin:round;" /><path d="M 180.0,-23.400000000000002 L 180.0,97.2" style="stroke:#DDDDDD;fill:none;stroke-width:1;stroke-dasharray:2,3.3;stroke-linecap:round;stroke-linejoin:round;" /><path d="M 216.0,-23.400000000000002 L 216.0,97.2" style="stroke:#DDDDDD;fill:none;stroke-width:1;stroke-dasharray:2,3.3;stroke-linecap:round;stroke-linejoin:round;" /><path d="M 252.0,-23.400000000000002 L 252.0,97.2" style="stroke:#DDDDDD;fill:none;stroke-width:1;stroke-dasharray:2,3.3;stroke-linecap:round;stroke-linejoin:round;" /><path d="M 288.0,-23.400000000000002 L 288.0,97.2" style="stroke:#DDDDDD;fill:none;stroke-width:1;stroke-dasharray:2,3.3;stroke-linecap:round;stroke-linejoin:round;" /><path d="M 324.0,-23.400000000000002 L 324.0,97.2" style="stroke:#DDDDDD;fill:none;stroke-width:1;stroke-dasharray:2,3.3;stroke-linecap:round;stroke-linejoin:round;" /><path d="M 360.0,-23.400000000000002 L 360.0,97.2" style="stroke:#DDDDDD;fill:none;stroke-width:1;stroke-dasharray:2,3.3;stroke-linecap:round;stroke-linejoin:round;" /><path d="M 396.0,-23.400000000000002 L 396.0,97.2" style="stroke:#DDDDDD;fill:none;stroke-width:1;stroke-dasharray:2,3.3;stroke-linecap:round;stroke-linejoin:round;" /><defs><clipPath id="clip2"><rect x="-1.0" y="-20.8" width="398.0" height="137.0" /></clipPath></defs><path d="M 0.0,-0.0 L 36.0,-0.0" style="stroke:black;fill:none;stroke-width:1;stroke-dasharray:-;stroke-linecap:round;stroke-linejoin:round;" clip-path="url(#clip2)" /><path d="M 36.0,-0.0 L 41.4,-18.0 L 180.0,-18.0" style="stroke:black;fill:none;stroke-width:1;stroke-dasharray:-;stroke-linecap:round;stroke-linejoin:round;" clip-path="url(#clip2)" /><path d="M 180.0,-18.0 L 185.4,-0.0 L 324.0,-0.0" style="stroke:black;fill:none;stroke-width:1;stroke-dasharray:-;stroke-linecap:round;stroke-linejoin:round;" clip-path="url(#clip2)" /><path d="M 324.0,-0.0 L 329.40000000000003,-18.0 L 396.0,-18.0" style="stroke:black;fill:none;stroke-width:1;stroke-dasharray:-;stroke-linecap:round;stroke-linejoin:round;" clip-path="url(#clip2)" /><path d="M 0.0,28.8 L 72.0,28.8" style="stroke:black;fill:none;stroke-width:1;stroke-dasharray:-;stroke-linecap:round;stroke-linejoin:round;" clip-path="url(#clip2)" /><path d="M 72.0,28.8 L 77.39999999999999,10.8 L 216.0,10.8" style="stroke:black;fill:none;stroke-width:1;stroke-dasharray:-;stroke-linecap:round;stroke-linejoin:round;" clip-path="url(#clip2)" /><path d="M 216.0,10.8 L 221.4,28.8 L 360.0,28.8" style="stroke:black;fill:none;stroke-width:1;stroke-dasharray:-;stroke-linecap:round;stroke-linejoin:round;" clip-path="url(#clip2)" /><path d="M 360.0,28.8 L 365.40000000000003,10.8 L 396.0,10.8" style="stroke:black;fill:none;stroke-width:1;stroke-dasharray:-;stroke-linecap:round;stroke-linejoin:round;" clip-path="url(#clip2)" /><path d="M 0.0,86.4 L 36.0,86.4" style="stroke:black;fill:none;stroke-width:1;stroke-dasharray:-;stroke-linecap:round;stroke-linejoin:round;" clip-path="url(#clip2)" /><path d="M 36.0,86.4 L 41.4,68.4 L 72.0,68.4" style="stroke:black;fill:none;stroke-width:1;stroke-dasharray:-;stroke-linecap:round;stroke-linejoin:round;" clip-path="url(#clip2)" /><path d="M 72.0,68.4 L 77.39999999999999,86.4 L 180.0,86.4" style="stroke:black;fill:none;stroke-width:1;stroke-dasharray:-;stroke-linecap:round;stroke-linejoin:round;" clip-path="url(#clip2)" /><path d="M 180.0,86.4 L 185.4,68.4 L 216.0,68.4" style="stroke:black;fill:none;stroke-width:1;stroke-dasharray:-;stroke-linecap:round;stroke-linejoin:round;" clip-path="url(#clip2)" /><path d="M 216.0,68.4 L 221.4,86.4 L 324.0,86.4" style="stroke:black;fill:none;stroke-width:1;stroke-dasharray:-;stroke-linecap:round;stroke-linejoin:round;" clip-path="url(#clip2)" /><path d="M 324.0,86.4 L 329.40000000000003,68.4 L 360.0,68.4" style="stroke:black;fill:none;stroke-width:1;stroke-dasharray:-;stroke-linecap:round;stroke-linejoin:round;" clip-path="url(#clip2)" /><path d="M 360.0,68.4 L 365.40000000000003,86.4 L 396.0,86.4" style="stroke:black;fill:none;stroke-width:1;stroke-dasharray:-;stroke-linecap:round;stroke-linejoin:round;" clip-path="url(#clip2)" /><g><g><g><path d="M -28.452 -1.536 L -28.452 -1.536 L -28.452 -6.372 L -29.208 -6.372 L -29.208 -7.092 L -28.452 -7.152 L -28.452 -8.256 Q -28.452 -9.132 -28.044 -9.642 Q -27.636 -10.152 -26.808 -10.152 Q -26.532 -10.152 -26.286 -10.098 Q -26.04 -10.044 -25.848 -9.96 L -26.052 -9.216 Q -26.364 -9.372 -26.676 -9.372 Q -27.492 -9.372 -27.492 -8.256 L -27.492 -7.152 L -26.292 -7.152 L -26.292 -6.372 L -27.492 -6.372 L -27.492 -1.536 Z " fill="blue" /><path d="M -20.028 0 L -20.028 0 L -26.172 0 L -26.172 -0.612 L -20.028 -0.612 Z " fill="blue" /><path d="M -19.08 -1.536 L -19.08 -1.536 L -19.08 -7.224 L -18.288 -7.224 L -18.204 -6.18 L -18.168 -6.18 Q -17.856 -6.744 -17.448 -7.05 Q -17.04 -7.356 -16.512 -7.356 Q -16.38 -7.356 -16.236 -7.332 Q -16.092 -7.308 -15.96 -7.248 L -16.14 -6.396 Q -16.296 -6.444 -16.404 -6.468 Q -16.512 -6.492 -16.644 -6.492 Q -17.04 -6.492 -17.436 -6.204 Q -17.832 -5.916 -18.12 -5.184 L -18.12 -1.536 Z " fill="blue" /><path d="M -12.744 -1.392 L -12.744 -1.392 Q -13.5 -1.392 -14.118 -1.746 Q -14.736 -2.1 -15.102 -2.766 Q -15.468 -3.432 -15.468 -4.356 Q -15.468 -5.292 -15.108 -5.964 Q -14.748 -6.636 -14.154 -6.996 Q -13.56 -7.356 -12.864 -7.356 Q -11.856 -7.356 -11.262 -6.636 Q -10.668 -5.916 -10.668 -4.692 Q -10.668 -4.536 -10.68 -4.398 Q -10.692 -4.26 -10.716 -4.152 L -14.52 -4.152 Q -14.46 -3.24 -13.956 -2.7 Q -13.452 -2.16 -12.636 -2.16 Q -12.24 -2.16 -11.892 -2.286 Q -11.544 -2.412 -11.232 -2.616 L -10.896 -1.992 Q -11.268 -1.74 -11.724 -1.566 Q -12.18 -1.392 -12.744 -1.392 Z M -14.52 -4.836 L -14.52 -4.836 L -11.508 -4.836 Q -11.508 -5.688 -11.874 -6.138 Q -12.24 -6.588 -12.876 -6.588 Q -13.5 -6.588 -13.962 -6.144 Q -14.424 -5.7 -14.52 -4.836 Z " fill="blue" /><path d="M -9.132 -1.536 L -9.132 -1.536 L -9.132 -6.372 L -9.888 -6.372 L -9.888 -7.092 L -9.132 -7.152 L -9.132 -8.256 Q -9.132 -9.132 -8.724 -9.642 Q -8.316 -10.152 -7.488 -10.152 Q -7.212 -10.152 -6.966 -10.098 Q -6.72 -10.044 -6.528 -9.96 L -6.732 -9.216 Q -7.044 -9.372 -7.356 -9.372 Q -8.172 -9.372 -8.172 -8.256 L -8.172 -7.152 L -6.972 -7.152 L -6.972 -6.372 L -8.172 -6.372 L -8.172 -1.536 Z " fill="blue" /></g></g></g><g><g><g><path d="M -25.092 27.264 L -25.092 27.264 L -25.092 22.428 L -25.848 22.428 L -25.848 21.708 L -25.092 21.648 L -25.092 20.544 Q -25.092 19.668 -24.684 19.158 Q -24.276 18.648 -23.448 18.648 Q -23.172 18.648 -22.926 18.702 Q -22.68 18.756 -22.488 18.84 L -22.692 19.584 Q -23.004 19.428 -23.316 19.428 Q -24.132 19.428 -24.132 20.544 L -24.132 21.648 L -22.932 21.648 L -22.932 22.428 L -24.132 22.428 L -24.132 27.264 Z " fill="blue" /><path d="M -16.668 28.8 L -16.668 28.8 L -22.812 28.8 L -22.812 28.188 L -16.668 28.188 Z " fill="blue" /><path d="M -15.564 27.264 L -15.564 27.264 L -15.564 22.428 L -16.32 22.428 L -16.32 21.708 L -15.564 21.648 L -15.564 20.544 Q -15.564 19.668 -15.156 19.158 Q -14.748 18.648 -13.92 18.648 Q -13.644 18.648 -13.398 18.702 Q -13.152 18.756 -12.96 18.84 L -13.164 19.584 Q -13.476 19.428 -13.788 19.428 Q -14.604 19.428 -14.604 20.544 L -14.604 21.648 L -13.404 21.648 L -13.404 22.428 L -14.604 22.428 L -14.604 27.264 Z " fill="blue" /><path d="M -9.792 27.408 L -9.792 27.408 Q -10.632 27.408 -11.448 26.676 L -11.472 26.676 L -11.568 27.264 L -12.336 27.264 L -12.336 18.792 L -11.376 18.792 L -11.376 21.204 L -11.4 22.236 Q -11.016 21.888 -10.572 21.666 Q -10.128 21.444 -9.576 21.444 Q -8.892 21.444 -8.406 21.798 Q -7.92 22.152 -7.656 22.788 Q -7.392 23.424 -7.392 24.276 Q -7.392 25.272 -7.734 25.974 Q -8.076 26.676 -8.622 27.042 Q -9.168 27.408 -9.792 27.408 Z M -9.984 26.592 L -9.984 26.592 Q -9.3 26.592 -8.844 25.998 Q -8.388 25.404 -8.388 24.288 Q -8.388 23.388 -8.73 22.818 Q -9.072 22.248 -9.816 22.248 Q -10.224 22.248 -10.602 22.446 Q -10.98 22.644 -11.376 23.028 L -11.376 26.004 Q -10.992 26.328 -10.638 26.46 Q -10.284 26.592 -9.984 26.592 Z " fill="blue" /></g></g></g><g><g><g><path d="M -40.884 86.4 L -40.884 86.4 L -40.884 78.072 L -40.092 78.072 L -40.008 78.732 L -39.972 78.732 Q -39.588 78.42 -39.138 78.18 Q -38.688 77.94 -38.112 77.94 Q -37.44 77.94 -36.954 78.294 Q -36.468 78.648 -36.204 79.284 Q -35.94 79.92 -35.94 80.772 Q -35.94 81.768 -36.282 82.47 Q -36.624 83.172 -37.17 83.538 Q -37.716 83.904 -38.352 83.904 Q -38.748 83.904 -39.138 83.742 Q -39.528 83.58 -39.948 83.232 L -39.924 84.24 L -39.924 86.4 Z M -38.532 83.088 L -38.532 83.088 Q -37.848 83.088 -37.392 82.494 Q -36.936 81.9 -36.936 80.784 Q -36.936 79.884 -37.284 79.314 Q -37.632 78.744 -38.376 78.744 Q -38.748 78.744 -39.102 78.918 Q -39.456 79.092 -39.924 79.524 L -39.924 82.5 Q -39.54 82.824 -39.186 82.956 Q -38.832 83.088 -38.532 83.088 Z " fill="blue" /><path d="M -32.556 83.904 L -32.556 83.904 Q -33.24 83.904 -33.75 83.544 Q -34.26 83.184 -34.548 82.53 Q -34.836 81.876 -34.836 81 Q -34.836 80.004 -34.494 79.326 Q -34.152 78.648 -33.588 78.294 Q -33.024 77.94 -32.376 77.94 Q -31.908 77.94 -31.548 78.108 Q -31.188 78.276 -30.816 78.588 L -30.852 77.616 L -30.852 75.288 L -29.892 75.288 L -29.892 83.76 L -30.684 83.76 L -30.768 83.088 L -30.804 83.088 Q -31.14 83.424 -31.566 83.664 Q -31.992 83.904 -32.556 83.904 Z M -32.316 83.088 L -32.316 83.088 Q -31.908 83.088 -31.56 82.89 Q -31.212 82.692 -30.852 82.32 L -30.852 79.332 Q -31.212 79.008 -31.542 78.876 Q -31.872 78.744 -32.184 78.744 Q -32.892 78.744 -33.372 79.332 Q -33.852 79.92 -33.852 80.988 Q -33.852 81.936 -33.45 82.512 Q -33.048 83.088 -32.316 83.088 Z " fill="blue" /><path d="M -22.8 85.296 L -22.8 85.296 L -28.944 85.296 L -28.944 84.684 L -22.8 84.684 Z " fill="blue" /><path d="M -19.656 83.904 L -19.656 83.904 Q -20.34 83.904 -20.94 83.55 Q -21.54 83.196 -21.906 82.53 Q -22.272 81.864 -22.272 80.916 Q -22.272 79.968 -21.906 79.308 Q -21.54 78.648 -20.94 78.294 Q -20.34 77.94 -19.656 77.94 Q -18.96 77.94 -18.36 78.294 Q -17.76 78.648 -17.394 79.308 Q -17.028 79.968 -17.028 80.916 Q -17.028 81.864 -17.394 82.53 Q -17.76 83.196 -18.36 83.55 Q -18.96 83.904 -19.656 83.904 Z M -19.656 83.1 L -19.656 83.1 Q -18.924 83.1 -18.474 82.5 Q -18.024 81.9 -18.024 80.916 Q -18.024 79.944 -18.474 79.344 Q -18.924 78.744 -19.656 78.744 Q -20.376 78.744 -20.826 79.344 Q -21.276 79.944 -21.276 80.916 Q -21.276 81.9 -20.826 82.5 Q -20.376 83.1 -19.656 83.1 Z " fill="blue" /><path d="M -13.92 83.904 L -13.92 83.904 Q -14.784 83.904 -15.204 83.328 Q -15.624 82.752 -15.624 81.684 L -15.624 78.072 L -14.664 78.072 L -14.664 81.552 Q -14.664 82.332 -14.412 82.698 Q -14.16 83.064 -13.608 83.064 Q -13.164 83.064 -12.828 82.836 Q -12.492 82.608 -12.084 82.104 L -12.084 78.072 L -11.124 78.072 L -11.124 83.76 L -11.928 83.76 L -12 82.872 L -12.036 82.872 Q -12.456 83.364 -12.894 83.634 Q -13.332 83.904 -13.92 83.904 Z " fill="blue" /><path d="M -7.488 83.904 L -7.488 83.904 Q -8.328 83.904 -8.694 83.376 Q -9.06 82.848 -9.06 81.996 L -9.06 78.924 L -9.888 78.924 L -9.888 78.204 L -9.012 78.144 L -8.892 76.476 L -8.1 76.476 L -8.1 78.144 L -6.576 78.144 L -6.576 78.924 L -8.1 78.924 L -8.1 82.02 Q -8.1 82.524 -7.908 82.818 Q -7.716 83.112 -7.26 83.112 Q -7.068 83.112 -6.894 83.064 Q -6.72 83.016 -6.588 82.956 L -6.396 83.688 Q -6.636 83.772 -6.906 83.838 Q -7.176 83.904 -7.488 83.904 Z " fill="blue" /></g></g></g></svg>