<svg xmlns="http://www.w3.org/2000/svg" xmlns:xlink="http://www.w3.org/1999/xlink" xml:lang="en" height="135.68399999999997pt" width="463.1442pt" viewBox="-4.6 -41.083999999999996 463.1442 135.68399999999997"><circle cx="18.0" cy="-0.0" r="18.0" style="stroke:black;fill:none;stroke-width:2.0;stroke-dasharray:-;" /><circle cx="342.0" cy="-0.0" r="18.0" style="stroke:black;fill:none;stroke-width:2.0;stroke-dasharray:-;" /><path d="M 7.2,-4.4087284769304716e-16 L 8.336842105263157,-1.168918089136861 L 9.473684210526317,-2.2111657656828045 L 10.610526315789475,-3.013799321745103 L 11.747368421052633,-3.4898409573815896 L 12.88421052631579,-3.5877041748240117 L 14.021052631578947,-3.2967839759582067 L 15.157894736842104,-2.648606078423274 L 16.294736842105262,-1.7134106149334647 L 17.431578947368422,-0.5925405250106421 L 18.56842105263158,0.5925405250106421 L 19.705263157894738,1.7134106149334647 L 20.84210526315789,2.6486060784232732 L 21.978947368421053,3.2967839759582063 L 23.11578947368421,3.5877041748240117 L 24.25263157894737,3.48984095738159 L 25.389473684210525,3.013799321745103 L 26.52631578947368,2.2111657656828045 L 27.66315789473684,1.168918089136861 L 28.8,4.4087284769304716e-16" style="stroke:black;fill:none;stroke-width:2.0;stroke-dasharray:-;stroke-linecap:round;stroke-linejoin:round;" /><path d="M 36.0,-0.0 L 72.0,-0.0 L 99.0,-0.0" style="stroke:black;fill:none;stroke-width:2.0;stroke-dasharray:-;stroke-linecap:round;stroke-linejoin:round;" /><path d="M 106.0 0.0 L 99.0 2.6999999999999997 L 99.0 -2.6999999999999997 Z" style="stroke:black;fill:black;stroke-linecap:butt;stroke-linejoin:miter;" /><path d="M 108.0,-0.0 L 108.0,-18.0 L 144.0,-18.0 L 144.0,18.0 L 108.0,18.0 L 108.0,-0.0" style="stroke:black;fill:none;stroke-width:2.0;stroke-dasharray:-;stroke-linecap:round;stroke-linejoin:round;" /><path d="M 144.0,-0.0 L 180.0,-0.0 M 175.5,-9.0 L 184.5,9.0 M 180.0,-0.0 L 216.0,-0.0" style="stroke:black;fill:none;stroke-width:2.0;stroke-dasharray:-;stroke-linecap:round;stroke-linejoin:round;" /><path d="M 216.0,-0.0 L 216.0,-18.0 L 252.0,-18.0 L 252.0,18.0 L 216.0,18.0 L 216.0,-0.0" style="stroke:black;fill:none;stroke-width:2.0;stroke-dasharray:-;stroke-linecap:round;stroke-linejoin:round;" /><path d="M 223.20000000000002,-4.4087284769304716e-16 L 224.33684210526314,-1.168918089136861 L 225.47368421052633,-2.2111657656828045 L 226.61052631578949,-3.013799321745103 L 227.7473684210526,-3.4898409573815896 L 228.8842105263158,-3.5877041748240117 L 230.02105263157895,-3.2967839759582067 L 231.15789473684208,-2.648606078423274 L 232.29473684210527,-1.7134106149334647 L 233.43157894736842,-0.5925405250106421 L 234.56842105263158,0.5925405250106421 L 235.70526315789473,1.7134106149334647 L 236.8421052631579,2.6486060784232732 L 237.97894736842105,3.2967839759582063 L 239.1157894736842,3.5877041748240117 L 240.2526315789474,3.48984095738159 L 241.38947368421051,3.013799321745103 L 242.52631578947367,2.2111657656828045 L 243.66315789473686,1.168918089136861 L 244.79999999999998,4.4087284769304716e-16" style="stroke:black;fill:none;stroke-width:2.0;stroke-dasharray:-;stroke-linecap:round;stroke-linejoin:round;" /><path d="M 223.20000000000002,-9.0 L 224.33684210526314,-10.16891808913686 L 225.47368421052633,-11.211165765682804 L 226.61052631578949,-12.013799321745104 L 227.7473684210526,-12.489840957381588 L 228.8842105263158,-12.587704174824012 L 230.02105263157895,-12.296783975958206 L 231.15789473684208,-11.648606078423274 L 232.29473684210527,-10.713410614933464 L 233.43157894736842,-9.592540525010643 L 234.56842105263158,-8.407459474989357 L 235.70526315789473,-7.286589385066535 L 236.8421052631579,-6.351393921576727 L 237.97894736842105,-5.703216024041794 L 239.1157894736842,-5.412295825175989 L 240.2526315789474,-5.51015904261841 L 241.38947368421051,-5.986200678254896 L 242.52631578947367,-6.7888342343171955 L 243.66315789473686,-7.831081910863139 L 244.79999999999998,-9.0" style="stroke:black;fill:none;stroke-width:2.0;stroke-dasharray:-;stroke-linecap:round;stroke-linejoin:round;" /><path d="M 223.20000000000002,9.0 L 224.33684210526314,7.831081910863139 L 225.47368421052633,6.7888342343171955 L 226.61052631578949,5.986200678254896 L 227.7473684210526,5.510159042618411 L 228.8842105263158,5.412295825175989 L 230.02105263157895,5.703216024041793 L 231.15789473684208,6.351393921576726 L 232.29473684210527,7.286589385066535 L 233.43157894736842,8.407459474989357 L 234.56842105263158,9.592540525010643 L 235.70526315789473,10.713410614933464 L 236.8421052631579,11.648606078423274 L 237.97894736842105,12.296783975958206 L 239.1157894736842,12.587704174824012 L 240.2526315789474,12.489840957381592 L 241.38947368421051,12.013799321745104 L 242.52631578947367,11.211165765682804 L 243.66315789473686,10.16891808913686 L 244.79999999999998,9.0" style="stroke:black;fill:none;stroke-width:2.0;stroke-dasharray:-;stroke-linecap:round;stroke-linejoin:round;" /><path d="M 232.20000000000002,-6.12 L 235.79999999999998,-11.88" style="stroke:black;fill:none;stroke-width:2.0;stroke-dasharray:-;stroke-linecap:round;stroke-linejoin:round;" /><path d="M 232.20000000000002,2.88 L 235.79999999999998,-2.88" style="stroke:black;fill:none;stroke-width:2.0;stroke-dasharray:-;stroke-linecap:round;stroke-linejoin:round;" /><path d="M 252.0,-0.0 L 288.0,-0.0 M 283.5,-9.0 L 292.5,9.0 M 288.0,-0.0 L 324.0,-0.0" style="stroke:black;fill:none;stroke-width:2.0;stroke-dasharray:-;stroke-linecap:round;stroke-linejoin:round;" /><path d="M 331.2,-4.4087284769304716e-16 L 332.33684210526314,-1.168918089136861 L 333.47368421052636,-2.2111657656828045 L 334.61052631578946,-3.013799321745103 L 335.7473684210526,-3.4898409573815896 L 336.88421052631577,-3.5877041748240117 L 338.021052631579,-3.2967839759582067 L 339.1578947368421,-2.648606078423274 L 340.2947368421053,-1.7134106149334647 L 341.43157894736845,-0.5925405250106421 L 342.56842105263155,0.5925405250106421 L 343.7052631578947,1.7134106149334647 L 344.8421052631579,2.6486060784232732 L 345.978947368421,3.2967839759582063 L 347.11578947368423,3.5877041748240117 L 348.2526315789474,3.48984095738159 L 349.38947368421054,3.013799321745103 L 350.52631578947364,2.2111657656828045 L 351.66315789473686,1.168918089136861 L 352.8,4.4087284769304716e-16" style="stroke:black;fill:none;stroke-width:2.0;stroke-dasharray:-;stroke-linecap:round;stroke-linejoin:round;" /><path d="M 360.0,-0.0 L 378.0,-0.0 L 396.0,-0.0" style="stroke:black;fill:none;stroke-width:2.0;stroke-dasharray:-;stroke-linecap:round;stroke-linejoin:round;" /><path d="M 396.0,-0.0 L 414.0,-0.0 L 423.0,-0.0" style="stroke:black;fill:none;stroke-width:2.0;stroke-dasharray:-;stroke-linecap:round;stroke-linejoin:round;" /><path d="M 430.0 0.0 L 423.0 2.6999999999999997 L 423.0 -2.6999999999999997 Z" style="stroke:black;fill:black;stroke-linecap:butt;stroke-linejoin:miter;" /><path d="M 396.0,-0.0 L 396.0,36.0 L 396.0,72.0" style="stroke:black;fill:none;stroke-width:2.0;stroke-dasharray:-;stroke-linecap:round;stroke-linejoin:round;" /><path d="M 396.0,72.0 L 342.0,71.99999999999999 L 297.0,71.99999999999999" style="stroke:black;fill:none;stroke-width:2.0;stroke-dasharray:-;stroke-linecap:round;stroke-linejoin:round;" /><path d="M 290.0 71.99999999999999 L 297.0 69.29999999999998 L 297.0 74.69999999999999 Z" style="stroke:black;fill:black;stroke-linecap:butt;stroke-linejoin:miter;" /><path d="M 288.0,71.99999999999999 L 288.0,89.99999999999999 L 252.0,89.99999999999999 L 252.0,53.999999999999986 L 288.0,53.999999999999986 L 288.0,71.99999999999999" style="stroke:black;fill:none;stroke-width:2.0;stroke-dasharray:-;stroke-linecap:round;stroke-linejoin:round;" /><path d="M 252.0,71.99999999999997 L 189.0,71.99999999999997 L 126.0,71.99999999999996" style="stroke:black;fill:none;stroke-width:2.0;stroke-dasharray:-;stroke-linecap:round;stroke-linejoin:round;" /><path d="M 126.0,71.99999999999996 L 126.0,44.999999999999986 L 126.0,27.0" style="stroke:black;fill:none;stroke-width:2.0;stroke-dasharray:-;stroke-linecap:round;stroke-linejoin:round;" /><path d="M 126.0 20.0 L 128.7 27.0 L 123.3 27.0 Z" style="stroke:black;fill:black;stroke-linecap:butt;stroke-linejoin:miter;" /><g><g><g><path d="M 65.033 -18.688 L 65.033 -18.688 L 66.237 -18.688 Q 66.363 -19.276 66.51 -19.822 Q 66.657 -20.368 66.895 -20.802 Q 67.077 -21.138 67.343 -21.432 Q 67.609 -21.726 68.022 -21.915 Q 68.435 -22.104 69.037 -22.104 Q 69.681 -22.104 70.024 -21.817 Q 70.367 -21.53 70.367 -21.082 Q 70.367 -20.774 70.199 -20.62 Q 70.031 -20.466 69.807 -20.466 Q 69.527 -20.466 69.401 -20.627 Q 69.275 -20.788 69.247 -21.012 Q 69.205 -21.278 69.142 -21.488 Q 69.079 -21.698 68.827 -21.698 Q 68.295 -21.698 68.001 -21.138 Q 67.707 -20.578 67.553 -19.682 L 67.385 -18.688 L 68.715 -18.688 L 68.631 -18.114 L 67.315 -18.114 L 66.517 -13.34 Q 66.461 -12.976 66.342 -12.43 Q 66.223 -11.884 66.013 -11.289 Q 65.803 -10.694 65.502 -10.176 Q 65.201 -9.658 64.767 -9.329 Q 64.333 -9 63.759 -9 Q 63.087 -9 62.8 -9.322 Q 62.513 -9.644 62.513 -10.008 Q 62.513 -10.302 62.66 -10.498 Q 62.807 -10.694 63.073 -10.694 Q 63.395 -10.694 63.507 -10.505 Q 63.619 -10.316 63.647 -10.071 Q 63.675 -9.826 63.731 -9.637 Q 63.787 -9.448 63.983 -9.448 Q 64.263 -9.448 64.473 -9.812 Q 64.683 -10.176 64.837 -10.715 Q 64.991 -11.254 65.089 -11.786 Q 65.187 -12.318 65.243 -12.668 L 66.153 -18.114 L 64.977 -18.114 Z " fill="black" /><path d="M 69.831 -14.326 L 69.831 -14.326 L 69.831 -13.267 L 69.889 -13.267 Q 70.282 -13.816 70.59 -14.105 Q 70.899 -14.394 71.261 -14.394 Q 71.889 -14.394 71.889 -13.777 Q 71.889 -13.434 71.737 -13.297 Q 71.585 -13.159 71.409 -13.159 Q 71.232 -13.159 71.09 -13.257 Q 70.948 -13.355 70.85 -13.453 Q 70.752 -13.551 70.703 -13.551 Q 70.546 -13.551 70.296 -13.287 Q 70.046 -13.022 69.85 -12.689 L 69.85 -10.337 Q 69.85 -9.857 70.061 -9.715 Q 70.272 -9.573 70.811 -9.573 L 70.811 -9.21 L 68.145 -9.21 L 68.145 -9.573 Q 68.478 -9.573 68.635 -9.631 Q 68.792 -9.69 68.841 -9.842 Q 68.89 -9.994 68.89 -10.268 L 68.89 -13.11 Q 68.89 -13.424 68.836 -13.581 Q 68.782 -13.738 68.478 -13.738 Q 68.341 -13.738 68.243 -13.728 Q 68.145 -13.718 68.145 -13.718 L 68.145 -14.081 L 69.468 -14.326 Z " fill="black" /><path d="M 76.799 -10.67 L 76.799 -10.67 L 77.034 -10.484 Q 76.828 -10.112 76.573 -9.798 Q 76.318 -9.484 75.946 -9.298 Q 75.574 -9.112 75.005 -9.112 Q 74.388 -9.112 73.854 -9.391 Q 73.32 -9.671 72.996 -10.249 Q 72.673 -10.827 72.673 -11.709 Q 72.673 -12.581 72.977 -13.169 Q 73.28 -13.757 73.8 -14.056 Q 74.319 -14.355 74.956 -14.355 Q 75.838 -14.355 76.421 -13.742 Q 77.004 -13.13 77.024 -11.915 L 73.574 -11.915 Q 73.574 -11.248 73.824 -10.812 Q 74.074 -10.376 74.466 -10.166 Q 74.858 -9.955 75.289 -9.955 Q 75.73 -9.955 75.995 -10.048 Q 76.26 -10.141 76.441 -10.308 Q 76.622 -10.474 76.799 -10.67 Z M 73.574 -12.366 L 73.574 -12.366 L 75.975 -12.366 Q 75.975 -12.758 75.848 -13.105 Q 75.721 -13.453 75.476 -13.674 Q 75.231 -13.894 74.848 -13.894 Q 74.29 -13.894 73.961 -13.502 Q 73.633 -13.11 73.574 -12.366 Z " fill="black" /><path d="M 77.994 -14.228 L 77.994 -14.228 L 78.778 -14.228 Q 78.778 -14.747 78.852 -15.11 Q 78.925 -15.472 79.111 -15.835 Q 79.337 -16.188 79.655 -16.408 Q 79.974 -16.629 80.562 -16.629 Q 81.061 -16.629 81.414 -16.438 Q 81.767 -16.246 81.767 -15.874 Q 81.767 -15.639 81.635 -15.516 Q 81.502 -15.394 81.326 -15.394 Q 81.111 -15.394 80.988 -15.516 Q 80.865 -15.639 80.669 -15.845 Q 80.532 -16.041 80.424 -16.114 Q 80.317 -16.188 80.17 -16.188 Q 79.895 -16.188 79.807 -15.923 Q 79.719 -15.658 79.719 -15.012 L 79.719 -14.228 L 80.993 -14.228 L 80.993 -13.747 L 79.719 -13.747 L 79.719 -10.513 Q 79.719 -10.112 79.807 -9.911 Q 79.895 -9.71 80.13 -9.641 Q 80.366 -9.573 80.797 -9.573 L 80.797 -9.21 L 77.906 -9.21 L 77.906 -9.573 Q 78.278 -9.573 78.465 -9.641 Q 78.651 -9.71 78.714 -9.911 Q 78.778 -10.112 78.778 -10.513 L 78.778 -13.747 L 77.994 -13.747 Z " fill="black" /></g></g></g><g><g><g><path d="M 117.117 4.592 L 117.117 4.592 L 117.117 -3.598 L 114.289 -3.598 L 114.289 -4.606 L 121.149 -4.606 L 121.149 -3.598 L 118.307 -3.598 L 118.307 4.592 Z " fill="black" /><path d="M 122.843 4.592 L 122.843 4.592 L 122.843 -4.606 L 125.195 -4.606 Q 127.365 -4.606 128.499 -3.423 Q 129.633 -2.24 129.633 -0.042 Q 129.633 2.156 128.506 3.374 Q 127.379 4.592 125.251 4.592 Z M 124.047 3.612 L 124.047 3.612 L 125.111 3.612 Q 126.763 3.612 127.582 2.653 Q 128.401 1.694 128.401 -0.042 Q 128.401 -1.778 127.582 -2.702 Q 126.763 -3.626 125.111 -3.626 L 124.047 -3.626 Z " fill="black" /><path d="M 135.219 4.76 L 135.219 4.76 Q 134.057 4.76 133.126 4.193 Q 132.195 3.626 131.663 2.562 Q 131.131 1.498 131.131 0.028 Q 131.131 -1.47 131.677 -2.541 Q 132.223 -3.612 133.154 -4.186 Q 134.085 -4.76 135.233 -4.76 Q 136.213 -4.76 136.843 -4.403 Q 137.473 -4.046 137.865 -3.626 L 137.207 -2.856 Q 136.395 -3.724 135.275 -3.724 Q 134.421 -3.724 133.763 -3.276 Q 133.105 -2.828 132.734 -1.995 Q 132.363 -1.162 132.363 0 Q 132.363 1.134 132.72 1.967 Q 133.077 2.8 133.728 3.255 Q 134.379 3.71 135.261 3.71 Q 135.933 3.71 136.465 3.437 Q 136.997 3.164 137.445 2.688 L 138.089 3.43 Q 137.529 4.06 136.829 4.41 Q 136.129 4.76 135.219 4.76 Z " fill="black" /></g></g></g><g><g><g><path d="M 148.857 -23.688 L 148.857 -23.688 L 148.857 -33.404 L 149.781 -33.404 L 149.879 -32.634 L 149.921 -32.634 Q 150.369 -32.998 150.894 -33.278 Q 151.419 -33.558 152.091 -33.558 Q 152.875 -33.558 153.442 -33.145 Q 154.009 -32.732 154.317 -31.99 Q 154.625 -31.248 154.625 -30.254 Q 154.625 -29.092 154.226 -28.273 Q 153.827 -27.454 153.19 -27.027 Q 152.553 -26.6 151.811 -26.6 Q 151.349 -26.6 150.894 -26.789 Q 150.439 -26.978 149.949 -27.384 L 149.977 -26.208 L 149.977 -23.688 Z M 151.601 -27.552 L 151.601 -27.552 Q 152.399 -27.552 152.931 -28.245 Q 153.463 -28.938 153.463 -30.24 Q 153.463 -31.29 153.057 -31.955 Q 152.651 -32.62 151.783 -32.62 Q 151.349 -32.62 150.936 -32.417 Q 150.523 -32.214 149.977 -31.71 L 149.977 -28.238 Q 150.425 -27.86 150.838 -27.706 Q 151.251 -27.552 151.601 -27.552 Z " fill="black" /><path d="M 156.375 -26.768 L 156.375 -26.768 L 156.375 -36.484 L 157.495 -36.484 L 157.495 -33.838 L 157.467 -32.466 Q 157.929 -32.914 158.44 -33.236 Q 158.951 -33.558 159.679 -33.558 Q 160.673 -33.558 161.17 -32.9 Q 161.667 -32.242 161.667 -30.968 L 161.667 -26.768 L 160.533 -26.768 L 160.533 -30.828 Q 160.533 -31.752 160.246 -32.165 Q 159.959 -32.578 159.315 -32.578 Q 158.797 -32.578 158.391 -32.326 Q 157.985 -32.074 157.495 -31.57 L 157.495 -26.768 Z " fill="black" /><path d="M 165.265 -26.6 L 165.265 -26.6 Q 164.453 -26.6 163.9 -27.097 Q 163.347 -27.594 163.347 -28.49 Q 163.347 -29.582 164.313 -30.163 Q 165.279 -30.744 167.393 -30.968 Q 167.393 -31.402 167.281 -31.78 Q 167.169 -32.158 166.868 -32.396 Q 166.567 -32.634 166.021 -32.634 Q 165.475 -32.634 164.971 -32.41 Q 164.467 -32.186 164.075 -31.934 L 163.627 -32.704 Q 164.089 -33.012 164.761 -33.285 Q 165.433 -33.558 166.217 -33.558 Q 167.421 -33.558 167.967 -32.823 Q 168.513 -32.088 168.513 -30.842 L 168.513 -26.768 L 167.589 -26.768 L 167.491 -27.566 L 167.463 -27.566 Q 166.987 -27.174 166.441 -26.887 Q 165.895 -26.6 165.265 -26.6 Z M 165.601 -27.51 L 165.601 -27.51 Q 166.077 -27.51 166.497 -27.741 Q 166.917 -27.972 167.393 -28.378 L 167.393 -30.226 Q 165.769 -30.03 165.104 -29.624 Q 164.439 -29.218 164.439 -28.56 Q 164.439 -28.014 164.782 -27.762 Q 165.125 -27.51 165.601 -27.51 Z " fill="black" /><path d="M 172.363 -26.6 L 172.363 -26.6 Q 171.607 -26.6 170.963 -26.866 Q 170.319 -27.132 169.857 -27.524 L 170.403 -28.266 Q 170.851 -27.916 171.306 -27.699 Q 171.761 -27.482 172.321 -27.482 Q 172.993 -27.482 173.322 -27.783 Q 173.651 -28.084 173.651 -28.49 Q 173.651 -28.84 173.441 -29.071 Q 173.231 -29.302 172.888 -29.463 Q 172.545 -29.624 172.139 -29.764 Q 171.677 -29.946 171.222 -30.177 Q 170.767 -30.408 170.473 -30.772 Q 170.179 -31.136 170.179 -31.696 Q 170.179 -32.48 170.788 -33.019 Q 171.397 -33.558 172.419 -33.558 Q 173.119 -33.558 173.63 -33.334 Q 174.141 -33.11 174.505 -32.83 L 173.973 -32.102 Q 173.623 -32.354 173.259 -32.522 Q 172.895 -32.69 172.447 -32.69 Q 171.845 -32.69 171.551 -32.403 Q 171.257 -32.116 171.257 -31.752 Q 171.257 -31.43 171.46 -31.227 Q 171.663 -31.024 171.999 -30.884 Q 172.335 -30.744 172.713 -30.59 Q 173.161 -30.422 173.623 -30.205 Q 174.085 -29.988 174.4 -29.61 Q 174.715 -29.232 174.715 -28.602 Q 174.715 -27.776 174.099 -27.188 Q 173.483 -26.6 172.363 -26.6 Z " fill="black" /><path d="M 178.957 -26.6 L 178.957 -26.6 Q 178.075 -26.6 177.354 -27.013 Q 176.633 -27.426 176.206 -28.203 Q 175.779 -28.98 175.779 -30.058 Q 175.779 -31.15 176.199 -31.934 Q 176.619 -32.718 177.312 -33.138 Q 178.005 -33.558 178.817 -33.558 Q 179.993 -33.558 180.686 -32.718 Q 181.379 -31.878 181.379 -30.45 Q 181.379 -30.268 181.365 -30.107 Q 181.351 -29.946 181.323 -29.82 L 176.885 -29.82 Q 176.955 -28.756 177.543 -28.126 Q 178.131 -27.496 179.083 -27.496 Q 179.545 -27.496 179.951 -27.643 Q 180.357 -27.79 180.721 -28.028 L 181.113 -27.3 Q 180.679 -27.006 180.147 -26.803 Q 179.615 -26.6 178.957 -26.6 Z M 176.885 -30.618 L 176.885 -30.618 L 180.399 -30.618 Q 180.399 -31.612 179.972 -32.137 Q 179.545 -32.662 178.803 -32.662 Q 178.075 -32.662 177.536 -32.144 Q 176.997 -31.626 176.885 -30.618 Z " fill="black" /><path d="M 188.967 -26.6 L 188.967 -26.6 Q 188.085 -26.6 187.364 -27.013 Q 186.643 -27.426 186.216 -28.203 Q 185.789 -28.98 185.789 -30.058 Q 185.789 -31.15 186.209 -31.934 Q 186.629 -32.718 187.322 -33.138 Q 188.015 -33.558 188.827 -33.558 Q 190.003 -33.558 190.696 -32.718 Q 191.389 -31.878 191.389 -30.45 Q 191.389 -30.268 191.375 -30.107 Q 191.361 -29.946 191.333 -29.82 L 186.895 -29.82 Q 186.965 -28.756 187.553 -28.126 Q 188.141 -27.496 189.093 -27.496 Q 189.555 -27.496 189.961 -27.643 Q 190.367 -27.79 190.731 -28.028 L 191.123 -27.3 Q 190.689 -27.006 190.157 -26.803 Q 189.625 -26.6 188.967 -26.6 Z M 186.895 -30.618 L 186.895 -30.618 L 190.409 -30.618 Q 190.409 -31.612 189.982 -32.137 Q 189.555 -32.662 188.813 -32.662 Q 188.085 -32.662 187.546 -32.144 Q 187.007 -31.626 186.895 -30.618 Z " fill="black" /><path d="M 192.999 -26.768 L 192.999 -26.768 L 192.999 -33.404 L 193.923 -33.404 L 194.021 -32.186 L 194.063 -32.186 Q 194.427 -32.844 194.903 -33.201 Q 195.379 -33.558 195.995 -33.558 Q 196.149 -33.558 196.317 -33.53 Q 196.485 -33.502 196.639 -33.432 L 196.429 -32.438 Q 196.247 -32.494 196.121 -32.522 Q 195.995 -32.55 195.841 -32.55 Q 195.379 -32.55 194.917 -32.214 Q 194.455 -31.878 194.119 -31.024 L 194.119 -26.768 Z " fill="black" /><path d="M 197.703 -26.768 L 197.703 -26.768 L 197.703 -33.404 L 198.627 -33.404 L 198.725 -32.186 L 198.767 -32.186 Q 199.131 -32.844 199.607 -33.201 Q 200.083 -33.558 200.699 -33.558 Q 200.853 -33.558 201.021 -33.53 Q 201.189 -33.502 201.343 -33.432 L 201.133 -32.438 Q 200.951 -32.494 200.825 -32.522 Q 200.699 -32.55 200.545 -32.55 Q 200.083 -32.55 199.621 -32.214 Q 199.159 -31.878 198.823 -31.024 L 198.823 -26.768 Z " fill="black" /><path d="M 204.969 -26.6 L 204.969 -26.6 Q 204.171 -26.6 203.471 -27.013 Q 202.771 -27.426 202.344 -28.203 Q 201.917 -28.98 201.917 -30.086 Q 201.917 -31.192 202.344 -31.962 Q 202.771 -32.732 203.471 -33.145 Q 204.171 -33.558 204.969 -33.558 Q 205.781 -33.558 206.481 -33.145 Q 207.181 -32.732 207.608 -31.962 Q 208.035 -31.192 208.035 -30.086 Q 208.035 -28.98 207.608 -28.203 Q 207.181 -27.426 206.481 -27.013 Q 205.781 -26.6 204.969 -26.6 Z M 204.969 -27.538 L 204.969 -27.538 Q 205.823 -27.538 206.348 -28.238 Q 206.873 -28.938 206.873 -30.086 Q 206.873 -31.22 206.348 -31.92 Q 205.823 -32.62 204.969 -32.62 Q 204.129 -32.62 203.604 -31.92 Q 203.079 -31.22 203.079 -30.086 Q 203.079 -28.938 203.604 -28.238 Q 204.129 -27.538 204.969 -27.538 Z " fill="black" /><path d="M 209.757 -26.768 L 209.757 -26.768 L 209.757 -33.404 L 210.681 -33.404 L 210.779 -32.186 L 210.821 -32.186 Q 211.185 -32.844 211.661 -33.201 Q 212.137 -33.558 212.753 -33.558 Q 212.907 -33.558 213.075 -33.53 Q 213.243 -33.502 213.397 -33.432 L 213.187 -32.438 Q 213.005 -32.494 212.879 -32.522 Q 212.753 -32.55 212.599 -32.55 Q 212.137 -32.55 211.675 -32.214 Q 211.213 -31.878 210.877 -31.024 L 210.877 -26.768 Z " fill="black" /></g><g><path d="M 167.659 -12.768 L 167.659 -12.768 L 165.825 -19.404 L 166.973 -19.404 L 167.953 -15.568 Q 168.065 -15.092 168.156 -14.637 Q 168.247 -14.182 168.331 -13.72 L 168.387 -13.72 Q 168.499 -14.182 168.611 -14.644 Q 168.723 -15.106 168.835 -15.568 L 169.857 -19.404 L 170.935 -19.404 L 171.985 -15.568 Q 172.097 -15.092 172.209 -14.637 Q 172.321 -14.182 172.433 -13.72 L 172.489 -13.72 Q 172.601 -14.182 172.699 -14.637 Q 172.797 -15.092 172.895 -15.568 L 173.861 -19.404 L 174.925 -19.404 L 173.147 -12.768 L 171.789 -12.768 L 170.837 -16.324 Q 170.725 -16.8 170.62 -17.269 Q 170.515 -17.738 170.403 -18.242 L 170.347 -18.242 Q 170.235 -17.738 170.13 -17.262 Q 170.025 -16.786 169.885 -16.31 L 168.975 -12.768 Z " fill="black" /><path d="M 178.915 -12.6 L 178.915 -12.6 Q 178.117 -12.6 177.417 -13.013 Q 176.717 -13.426 176.29 -14.203 Q 175.863 -14.98 175.863 -16.086 Q 175.863 -17.192 176.29 -17.962 Q 176.717 -18.732 177.417 -19.145 Q 178.117 -19.558 178.915 -19.558 Q 179.727 -19.558 180.427 -19.145 Q 181.127 -18.732 181.554 -17.962 Q 181.981 -17.192 181.981 -16.086 Q 181.981 -14.98 181.554 -14.203 Q 181.127 -13.426 180.427 -13.013 Q 179.727 -12.6 178.915 -12.6 Z M 178.915 -13.538 L 178.915 -13.538 Q 179.769 -13.538 180.294 -14.238 Q 180.819 -14.938 180.819 -16.086 Q 180.819 -17.22 180.294 -17.92 Q 179.769 -18.62 178.915 -18.62 Q 178.075 -18.62 177.55 -17.92 Q 177.025 -17.22 177.025 -16.086 Q 177.025 -14.938 177.55 -14.238 Q 178.075 -13.538 178.915 -13.538 Z " fill="black" /><path d="M 183.703 -12.768 L 183.703 -12.768 L 183.703 -19.404 L 184.627 -19.404 L 184.725 -18.186 L 184.767 -18.186 Q 185.131 -18.844 185.607 -19.201 Q 186.083 -19.558 186.699 -19.558 Q 186.853 -19.558 187.021 -19.53 Q 187.189 -19.502 187.343 -19.432 L 187.133 -18.438 Q 186.951 -18.494 186.825 -18.522 Q 186.699 -18.55 186.545 -18.55 Q 186.083 -18.55 185.621 -18.214 Q 185.159 -17.878 184.823 -17.024 L 184.823 -12.768 Z " fill="black" /><path d="M 190.605 -12.6 L 190.605 -12.6 Q 189.807 -12.6 189.212 -13.02 Q 188.617 -13.44 188.281 -14.203 Q 187.945 -14.966 187.945 -15.988 Q 187.945 -17.15 188.344 -17.941 Q 188.743 -18.732 189.401 -19.145 Q 190.059 -19.558 190.815 -19.558 Q 191.361 -19.558 191.781 -19.362 Q 192.201 -19.166 192.635 -18.802 L 192.593 -19.936 L 192.593 -22.652 L 193.713 -22.652 L 193.713 -12.768 L 192.789 -12.768 L 192.691 -13.552 L 192.649 -13.552 Q 192.257 -13.16 191.76 -12.88 Q 191.263 -12.6 190.605 -12.6 Z M 190.885 -13.552 L 190.885 -13.552 Q 191.361 -13.552 191.767 -13.783 Q 192.173 -14.014 192.593 -14.448 L 192.593 -17.934 Q 192.173 -18.312 191.788 -18.466 Q 191.403 -18.62 191.039 -18.62 Q 190.213 -18.62 189.653 -17.934 Q 189.093 -17.248 189.093 -16.002 Q 189.093 -14.896 189.562 -14.224 Q 190.031 -13.552 190.885 -13.552 Z " fill="black" /></g></g></g><g><g><g><path d="M 272.831 -26.6 L 272.831 -26.6 Q 271.851 -26.6 271.424 -27.216 Q 270.997 -27.832 270.997 -28.826 L 270.997 -32.41 L 270.031 -32.41 L 270.031 -33.25 L 271.053 -33.32 L 271.193 -35.266 L 272.117 -35.266 L 272.117 -33.32 L 273.895 -33.32 L 273.895 -32.41 L 272.117 -32.41 L 272.117 -28.798 Q 272.117 -28.21 272.341 -27.867 Q 272.565 -27.524 273.097 -27.524 Q 273.321 -27.524 273.524 -27.58 Q 273.727 -27.636 273.881 -27.706 L 274.105 -26.852 Q 273.825 -26.754 273.51 -26.677 Q 273.195 -26.6 272.831 -26.6 Z " fill="black" /><path d="M 277.283 -26.6 L 277.283 -26.6 Q 276.275 -26.6 275.785 -27.272 Q 275.295 -27.944 275.295 -29.19 L 275.295 -33.404 L 276.415 -33.404 L 276.415 -29.344 Q 276.415 -28.434 276.709 -28.007 Q 277.003 -27.58 277.647 -27.58 Q 278.165 -27.58 278.557 -27.846 Q 278.949 -28.112 279.425 -28.7 L 279.425 -33.404 L 280.545 -33.404 L 280.545 -26.768 L 279.607 -26.768 L 279.523 -27.804 L 279.481 -27.804 Q 278.991 -27.23 278.48 -26.915 Q 277.969 -26.6 277.283 -26.6 Z " fill="black" /><path d="M 282.757 -26.768 L 282.757 -26.768 L 282.757 -33.404 L 283.681 -33.404 L 283.779 -32.452 L 283.821 -32.452 Q 284.297 -32.914 284.815 -33.236 Q 285.333 -33.558 286.061 -33.558 Q 287.055 -33.558 287.552 -32.9 Q 288.049 -32.242 288.049 -30.968 L 288.049 -26.768 L 286.915 -26.768 L 286.915 -30.828 Q 286.915 -31.752 286.628 -32.165 Q 286.341 -32.578 285.697 -32.578 Q 285.179 -32.578 284.773 -32.326 Q 284.367 -32.074 283.877 -31.57 L 283.877 -26.768 Z " fill="black" /><path d="M 290.163 -26.768 L 290.163 -26.768 L 290.163 -33.404 L 291.283 -33.404 L 291.283 -26.768 Z M 290.737 -34.762 L 290.737 -34.762 Q 290.415 -34.762 290.191 -34.972 Q 289.967 -35.182 289.967 -35.49 Q 289.967 -35.812 290.191 -36.015 Q 290.415 -36.218 290.737 -36.218 Q 291.059 -36.218 291.283 -36.015 Q 291.507 -35.812 291.507 -35.49 Q 291.507 -35.182 291.283 -34.972 Q 291.059 -34.762 290.737 -34.762 Z " fill="black" /><path d="M 293.509 -26.768 L 293.509 -26.768 L 293.509 -33.404 L 294.433 -33.404 L 294.531 -32.452 L 294.573 -32.452 Q 295.049 -32.914 295.567 -33.236 Q 296.085 -33.558 296.813 -33.558 Q 297.807 -33.558 298.304 -32.9 Q 298.801 -32.242 298.801 -30.968 L 298.801 -26.768 L 297.667 -26.768 L 297.667 -30.828 Q 297.667 -31.752 297.38 -32.165 Q 297.093 -32.578 296.449 -32.578 Q 295.931 -32.578 295.525 -32.326 Q 295.119 -32.074 294.629 -31.57 L 294.629 -26.768 Z " fill="black" /><path d="M 303.155 -23.562 L 303.155 -23.562 Q 301.937 -23.562 301.181 -24.052 Q 300.425 -24.542 300.425 -25.396 Q 300.425 -25.886 300.677 -26.285 Q 300.929 -26.684 301.391 -26.992 L 301.391 -27.048 Q 301.139 -27.202 300.964 -27.475 Q 300.789 -27.748 300.789 -28.112 Q 300.789 -28.56 301.027 -28.875 Q 301.265 -29.19 301.531 -29.372 L 301.531 -29.414 Q 301.195 -29.68 300.929 -30.142 Q 300.663 -30.604 300.663 -31.234 Q 300.663 -31.934 301.006 -32.459 Q 301.349 -32.984 301.916 -33.271 Q 302.483 -33.558 303.141 -33.558 Q 303.421 -33.558 303.666 -33.509 Q 303.911 -33.46 304.093 -33.39 L 306.389 -33.39 L 306.389 -32.522 L 305.045 -32.522 Q 305.269 -32.298 305.409 -31.948 Q 305.549 -31.598 305.549 -31.136 Q 305.549 -30.45 305.22 -29.939 Q 304.891 -29.428 304.359 -29.148 Q 303.827 -28.868 303.197 -28.868 Q 302.637 -28.868 302.161 -29.092 Q 301.979 -28.952 301.86 -28.777 Q 301.741 -28.602 301.741 -28.322 Q 301.741 -28 301.993 -27.797 Q 302.245 -27.594 302.889 -27.594 L 304.177 -27.594 Q 306.473 -27.594 306.473 -26.012 Q 306.473 -25.326 306.067 -24.773 Q 305.661 -24.22 304.919 -23.891 Q 304.177 -23.562 303.155 -23.562 Z M 303.253 -24.332 L 303.253 -24.332 Q 304.247 -24.332 304.814 -24.773 Q 305.381 -25.214 305.381 -25.816 Q 305.381 -26.278 305.031 -26.474 Q 304.681 -26.67 304.065 -26.67 L 302.917 -26.67 Q 302.735 -26.67 302.511 -26.691 Q 302.287 -26.712 302.063 -26.768 Q 301.713 -26.502 301.552 -26.201 Q 301.391 -25.9 301.391 -25.592 Q 301.391 -25.018 301.902 -24.675 Q 302.413 -24.332 303.253 -24.332 Z M 303.141 -29.624 L 303.141 -29.624 Q 303.715 -29.624 304.128 -30.051 Q 304.541 -30.478 304.541 -31.206 Q 304.541 -31.92 304.135 -32.333 Q 303.729 -32.746 303.141 -32.746 Q 302.567 -32.746 302.154 -32.34 Q 301.741 -31.934 301.741 -31.206 Q 301.741 -30.478 302.161 -30.051 Q 302.581 -29.624 303.141 -29.624 Z " fill="black" /></g><g><path d="M 275.659 -12.768 L 275.659 -12.768 L 273.825 -19.404 L 274.973 -19.404 L 275.953 -15.568 Q 276.065 -15.092 276.156 -14.637 Q 276.247 -14.182 276.331 -13.72 L 276.387 -13.72 Q 276.499 -14.182 276.611 -14.644 Q 276.723 -15.106 276.835 -15.568 L 277.857 -19.404 L 278.935 -19.404 L 279.985 -15.568 Q 280.097 -15.092 280.209 -14.637 Q 280.321 -14.182 280.433 -13.72 L 280.489 -13.72 Q 280.601 -14.182 280.699 -14.637 Q 280.797 -15.092 280.895 -15.568 L 281.861 -19.404 L 282.925 -19.404 L 281.147 -12.768 L 279.789 -12.768 L 278.837 -16.324 Q 278.725 -16.8 278.62 -17.269 Q 278.515 -17.738 278.403 -18.242 L 278.347 -18.242 Q 278.235 -17.738 278.13 -17.262 Q 278.025 -16.786 277.885 -16.31 L 276.975 -12.768 Z " fill="black" /><path d="M 286.915 -12.6 L 286.915 -12.6 Q 286.117 -12.6 285.417 -13.013 Q 284.717 -13.426 284.29 -14.203 Q 283.863 -14.98 283.863 -16.086 Q 283.863 -17.192 284.29 -17.962 Q 284.717 -18.732 285.417 -19.145 Q 286.117 -19.558 286.915 -19.558 Q 287.727 -19.558 288.427 -19.145 Q 289.127 -18.732 289.554 -17.962 Q 289.981 -17.192 289.981 -16.086 Q 289.981 -14.98 289.554 -14.203 Q 289.127 -13.426 288.427 -13.013 Q 287.727 -12.6 286.915 -12.6 Z M 286.915 -13.538 L 286.915 -13.538 Q 287.769 -13.538 288.294 -14.238 Q 288.819 -14.938 288.819 -16.086 Q 288.819 -17.22 288.294 -17.92 Q 287.769 -18.62 286.915 -18.62 Q 286.075 -18.62 285.55 -17.92 Q 285.025 -17.22 285.025 -16.086 Q 285.025 -14.938 285.55 -14.238 Q 286.075 -13.538 286.915 -13.538 Z " fill="black" /><path d="M 291.703 -12.768 L 291.703 -12.768 L 291.703 -19.404 L 292.627 -19.404 L 292.725 -18.186 L 292.767 -18.186 Q 293.131 -18.844 293.607 -19.201 Q 294.083 -19.558 294.699 -19.558 Q 294.853 -19.558 295.021 -19.53 Q 295.189 -19.502 295.343 -19.432 L 295.133 -18.438 Q 294.951 -18.494 294.825 -18.522 Q 294.699 -18.55 294.545 -18.55 Q 294.083 -18.55 293.621 -18.214 Q 293.159 -17.878 292.823 -17.024 L 292.823 -12.768 Z " fill="black" /><path d="M 298.605 -12.6 L 298.605 -12.6 Q 297.807 -12.6 297.212 -13.02 Q 296.617 -13.44 296.281 -14.203 Q 295.945 -14.966 295.945 -15.988 Q 295.945 -17.15 296.344 -17.941 Q 296.743 -18.732 297.401 -19.145 Q 298.059 -19.558 298.815 -19.558 Q 299.361 -19.558 299.781 -19.362 Q 300.201 -19.166 300.635 -18.802 L 300.593 -19.936 L 300.593 -22.652 L 301.713 -22.652 L 301.713 -12.768 L 300.789 -12.768 L 300.691 -13.552 L 300.649 -13.552 Q 300.257 -13.16 299.76 -12.88 Q 299.263 -12.6 298.605 -12.6 Z M 298.885 -13.552 L 298.885 -13.552 Q 299.361 -13.552 299.767 -13.783 Q 300.173 -14.014 300.593 -14.448 L 300.593 -17.934 Q 300.173 -18.312 299.788 -18.466 Q 299.403 -18.62 299.039 -18.62 Q 298.213 -18.62 297.653 -17.934 Q 297.093 -17.248 297.093 -16.002 Q 297.093 -14.896 297.562 -14.224 Q 298.031 -13.552 298.885 -13.552 Z " fill="black" /></g></g></g><g><g><g><path d="M 330.674 -25.368 L 330.674 -25.368 L 330.674 -34.566 L 333.026 -34.566 Q 335.196 -34.566 336.33 -33.383 Q 337.464 -32.2 337.464 -30.002 Q 337.464 -27.804 336.337 -26.586 Q 335.21 -25.368 333.082 -25.368 Z M 331.878 -26.348 L 331.878 -26.348 L 332.942 -26.348 Q 334.594 -26.348 335.413 -27.307 Q 336.232 -28.266 336.232 -30.002 Q 336.232 -31.738 335.413 -32.662 Q 334.594 -33.586 332.942 -33.586 L 331.878 -33.586 Z " fill="black" /><path d="M 343.05 -25.2 L 343.05 -25.2 Q 341.888 -25.2 340.957 -25.767 Q 340.026 -26.334 339.494 -27.398 Q 338.962 -28.462 338.962 -29.932 Q 338.962 -31.43 339.508 -32.501 Q 340.054 -33.572 340.985 -34.146 Q 341.916 -34.72 343.064 -34.72 Q 344.044 -34.72 344.674 -34.363 Q 345.304 -34.006 345.696 -33.586 L 345.038 -32.816 Q 344.226 -33.684 343.106 -33.684 Q 342.252 -33.684 341.594 -33.236 Q 340.936 -32.788 340.565 -31.955 Q 340.194 -31.122 340.194 -29.96 Q 340.194 -28.826 340.551 -27.993 Q 340.908 -27.16 341.559 -26.705 Q 342.21 -26.25 343.092 -26.25 Q 343.764 -26.25 344.296 -26.523 Q 344.828 -26.796 345.276 -27.272 L 345.92 -26.53 Q 345.36 -25.9 344.66 -25.55 Q 343.96 -25.2 343.05 -25.2 Z " fill="black" /><path d="M 351.142 -25.2 L 351.142 -25.2 Q 349.966 -25.2 349.063 -25.781 Q 348.16 -26.362 347.649 -27.44 Q 347.138 -28.518 347.138 -30.002 Q 347.138 -31.472 347.649 -32.529 Q 348.16 -33.586 349.063 -34.153 Q 349.966 -34.72 351.142 -34.72 Q 352.332 -34.72 353.235 -34.153 Q 354.138 -33.586 354.649 -32.529 Q 355.16 -31.472 355.16 -30.002 Q 355.16 -28.532 354.649 -27.454 Q 354.138 -26.376 353.235 -25.788 Q 352.332 -25.2 351.142 -25.2 Z M 351.142 -26.25 L 351.142 -26.25 Q 351.982 -26.25 352.605 -26.712 Q 353.228 -27.174 353.571 -28.021 Q 353.914 -28.868 353.914 -30.002 Q 353.914 -31.71 353.158 -32.697 Q 352.402 -33.684 351.142 -33.684 Q 349.882 -33.684 349.126 -32.697 Q 348.37 -31.71 348.37 -30.002 Q 348.37 -28.868 348.713 -28.021 Q 349.056 -27.174 349.679 -26.712 Q 350.302 -26.25 351.142 -26.25 Z " fill="black" /></g></g></g><circle cx="396.0" cy="-0.0" r="2.6999999999999997" style="stroke:black;fill:black;stroke-width:2.0;stroke-dasharray:-;" /><g><g><g><path d="M 438.26 -3.136 L 438.26 -3.136 L 439.464 -3.136 Q 439.59 -3.724 439.737 -4.27 Q 439.884 -4.816 440.122 -5.25 Q 440.304 -5.586 440.57 -5.88 Q 440.836 -6.174 441.249 -6.363 Q 441.662 -6.552 442.264 -6.552 Q 442.908 -6.552 443.251 -6.265 Q 443.594 -5.978 443.594 -5.53 Q 443.594 -5.222 443.426 -5.068 Q 443.258 -4.914 443.034 -4.914 Q 442.754 -4.914 442.628 -5.075 Q 442.502 -5.236 442.474 -5.46 Q 442.432 -5.726 442.369 -5.936 Q 442.306 -6.146 442.054 -6.146 Q 441.522 -6.146 441.228 -5.586 Q 440.934 -5.026 440.78 -4.13 L 440.612 -3.136 L 441.942 -3.136 L 441.858 -2.562 L 440.542 -2.562 L 439.744 2.212 Q 439.688 2.576 439.569 3.122 Q 439.45 3.668 439.24 4.263 Q 439.03 4.858 438.729 5.376 Q 438.428 5.894 437.994 6.223 Q 437.56 6.552 436.986 6.552 Q 436.314 6.552 436.027 6.23 Q 435.74 5.908 435.74 5.544 Q 435.74 5.25 435.887 5.054 Q 436.034 4.858 436.3 4.858 Q 436.622 4.858 436.734 5.047 Q 436.846 5.236 436.874 5.481 Q 436.902 5.726 436.958 5.915 Q 437.014 6.104 437.21 6.104 Q 437.49 6.104 437.7 5.74 Q 437.91 5.376 438.064 4.837 Q 438.218 4.298 438.316 3.766 Q 438.414 3.234 438.47 2.884 L 439.38 -2.562 L 438.204 -2.562 Z " fill="black" /><path d="M 443.92 1.197 L 443.92 1.197 Q 444.655 1.197 445.204 1.516 Q 445.753 1.834 446.052 2.407 Q 446.351 2.981 446.351 3.755 Q 446.351 4.686 446.037 5.284 Q 445.723 5.881 445.175 6.171 Q 444.626 6.46 443.92 6.46 Q 443.205 6.46 442.651 6.161 Q 442.097 5.862 441.789 5.264 Q 441.48 4.666 441.48 3.765 Q 441.48 3 441.784 2.422 Q 442.088 1.844 442.636 1.52 Q 443.185 1.197 443.92 1.197 Z M 443.901 1.648 L 443.901 1.648 Q 443.254 1.648 442.886 2.172 Q 442.519 2.696 442.519 3.706 Q 442.519 4.95 442.896 5.465 Q 443.273 5.979 443.95 5.979 Q 444.381 5.97 444.685 5.764 Q 444.988 5.558 445.15 5.073 Q 445.312 4.588 445.312 3.755 Q 445.312 2.755 444.969 2.202 Q 444.626 1.648 443.901 1.648 Z " fill="black" /><path d="M 453.015 5.842 L 453.015 5.842 L 453.015 6.215 L 451.692 6.391 L 451.378 6.391 L 451.378 5.627 L 451.28 5.627 Q 450.908 5.96 450.525 6.2 Q 450.143 6.44 449.604 6.44 Q 448.879 6.44 448.497 5.999 Q 448.115 5.558 448.115 4.47 L 448.115 2.363 Q 448.115 1.961 447.972 1.868 Q 447.83 1.775 447.38 1.775 L 447.38 1.422 L 448.742 1.236 L 449.065 1.236 L 449.065 4.343 Q 449.065 4.892 449.193 5.195 Q 449.32 5.499 449.536 5.617 Q 449.751 5.734 450.006 5.734 Q 450.437 5.734 450.726 5.553 Q 451.015 5.372 451.329 5.117 L 451.329 2.363 Q 451.329 1.961 451.153 1.868 Q 450.976 1.775 450.476 1.775 L 450.476 1.422 L 451.937 1.236 L 452.28 1.236 L 452.28 5.205 Q 452.28 5.499 452.333 5.636 Q 452.387 5.774 452.525 5.808 Q 452.662 5.842 452.907 5.842 Z " fill="black" /><path d="M 456.837 5.362 L 456.837 5.362 L 457.062 5.548 Q 456.846 5.842 456.67 6.043 Q 456.494 6.244 456.268 6.352 Q 456.043 6.46 455.69 6.46 Q 455.122 6.46 454.862 6.136 Q 454.602 5.813 454.602 5.097 L 454.602 1.805 L 453.985 1.805 L 453.985 1.511 Q 454.338 1.256 454.632 0.888 Q 454.926 0.521 455.22 -0.165 L 455.563 -0.165 L 455.553 1.324 L 456.797 1.324 L 456.797 1.805 L 455.553 1.805 L 455.553 4.774 Q 455.553 5.323 455.656 5.553 Q 455.759 5.783 456.072 5.783 Q 456.356 5.783 456.503 5.681 Q 456.65 5.578 456.837 5.362 Z " fill="black" /></g></g></g><g><g><g><path d="M 266.647 75.843 L 266.647 75.843 Q 266.647 76.165 266.423 76.41 Q 266.199 76.655 265.779 76.655 Q 265.359 76.655 265.156 76.417 Q 264.953 76.179 264.953 75.829 Q 264.953 75.465 265.177 75.206 Q 265.401 74.947 265.793 74.947 Q 266.199 74.947 266.423 75.213 Q 266.647 75.479 266.647 75.843 Z M 266.647 70.747 L 266.647 70.747 Q 266.647 71.069 266.423 71.314 Q 266.199 71.559 265.779 71.559 Q 265.359 71.559 265.156 71.321 Q 264.953 71.083 264.953 70.733 Q 264.953 70.369 265.177 70.11 Q 265.401 69.851 265.793 69.851 Q 266.199 69.851 266.423 70.117 Q 266.647 70.383 266.647 70.747 Z " fill="black" /><path d="M 268.803 76.543 L 268.803 76.543 L 268.803 67.345 L 270.049 67.345 L 273.437 73.099 L 274.445 75.003 L 274.515 75.003 Q 274.473 74.303 274.417 73.547 Q 274.361 72.791 274.361 72.063 L 274.361 67.345 L 275.495 67.345 L 275.495 76.543 L 274.263 76.543 L 270.861 70.789 L 269.853 68.885 L 269.797 68.885 Q 269.839 69.585 269.895 70.32 Q 269.951 71.055 269.951 71.769 L 269.951 76.543 Z " fill="black" /></g></g></g><g><g><g><path d="M 153.979 56.786 L 153.979 56.786 L 155.183 56.786 Q 155.309 56.198 155.456 55.652 Q 155.603 55.106 155.841 54.672 Q 156.023 54.336 156.289 54.042 Q 156.555 53.748 156.968 53.559 Q 157.381 53.37 157.983 53.37 Q 158.627 53.37 158.97 53.657 Q 159.313 53.944 159.313 54.392 Q 159.313 54.7 159.145 54.854 Q 158.977 55.008 158.753 55.008 Q 158.473 55.008 158.347 54.847 Q 158.221 54.686 158.193 54.462 Q 158.151 54.196 158.088 53.986 Q 158.025 53.776 157.773 53.776 Q 157.241 53.776 156.947 54.336 Q 156.653 54.896 156.499 55.792 L 156.331 56.786 L 157.661 56.786 L 157.577 57.36 L 156.261 57.36 L 155.463 62.134 Q 155.407 62.498 155.288 63.044 Q 155.169 63.59 154.959 64.185 Q 154.749 64.78 154.448 65.298 Q 154.147 65.816 153.713 66.145 Q 153.279 66.474 152.705 66.474 Q 152.033 66.474 151.746 66.152 Q 151.459 65.83 151.459 65.466 Q 151.459 65.172 151.606 64.976 Q 151.753 64.78 152.019 64.78 Q 152.341 64.78 152.453 64.969 Q 152.565 65.158 152.593 65.403 Q 152.621 65.648 152.677 65.837 Q 152.733 66.026 152.929 66.026 Q 153.209 66.026 153.419 65.662 Q 153.629 65.298 153.783 64.759 Q 153.937 64.22 154.035 63.688 Q 154.133 63.156 154.189 62.806 L 155.099 57.36 L 153.923 57.36 Z " fill="black" /><path d="M 157.706 61.432 L 157.706 61.432 L 158.657 61.432 Q 158.735 61.07 158.858 60.643 Q 158.98 60.217 159.176 59.864 Q 159.343 59.6 159.568 59.369 Q 159.794 59.139 160.137 59.002 Q 160.48 58.865 160.97 58.865 Q 161.46 58.865 161.719 59.09 Q 161.979 59.315 161.979 59.658 Q 161.979 59.884 161.832 60.006 Q 161.685 60.129 161.518 60.129 Q 161.293 60.129 161.195 59.996 Q 161.097 59.864 161.068 59.698 Q 161.048 59.502 161.004 59.345 Q 160.96 59.188 160.813 59.188 Q 160.519 59.188 160.293 59.404 Q 160.068 59.619 159.906 59.987 Q 159.745 60.354 159.647 60.805 L 159.539 61.432 L 160.617 61.432 L 160.529 61.883 L 159.49 61.883 L 158.833 65.342 Q 158.774 65.627 158.681 66.019 Q 158.588 66.411 158.431 66.827 Q 158.275 67.244 158.034 67.601 Q 157.794 67.959 157.461 68.179 Q 157.128 68.4 156.667 68.4 Q 156.295 68.4 156.074 68.273 Q 155.854 68.145 155.761 67.964 Q 155.668 67.783 155.668 67.626 Q 155.668 67.381 155.8 67.239 Q 155.932 67.097 156.119 67.097 Q 156.354 67.097 156.452 67.239 Q 156.55 67.381 156.589 67.562 Q 156.628 67.743 156.682 67.885 Q 156.736 68.028 156.893 68.028 Q 157.059 68.028 157.192 67.846 Q 157.324 67.665 157.432 67.381 Q 157.54 67.097 157.623 66.778 Q 157.706 66.46 157.76 66.18 Q 157.814 65.901 157.843 65.744 L 158.569 61.873 L 157.638 61.873 Z " fill="black" /><path d="M 164.468 61.961 L 164.468 61.961 L 164.547 61.961 Q 164.87 61.589 165.237 61.393 Q 165.605 61.197 166.046 61.197 Q 166.742 61.197 167.168 61.682 Q 167.594 62.167 167.594 63.098 Q 167.594 63.725 167.384 64.313 Q 167.173 64.901 166.781 65.372 Q 166.389 65.842 165.83 66.117 Q 165.272 66.391 164.576 66.391 Q 164.076 66.391 163.655 66.303 Q 163.233 66.215 162.802 66.028 L 163.949 60.129 Q 163.959 60.099 163.978 59.962 Q 163.998 59.825 163.998 59.717 Q 163.998 59.364 163.616 59.364 Q 163.527 59.364 163.41 59.374 Q 163.292 59.384 163.292 59.384 L 163.292 59.061 L 164.713 58.953 L 165.066 58.953 Z M 164.292 62.99 L 164.292 62.99 L 163.802 65.538 Q 163.91 65.636 164.14 65.764 Q 164.37 65.891 164.684 65.891 Q 165.321 65.891 165.747 65.524 Q 166.173 65.156 166.389 64.539 Q 166.605 63.921 166.605 63.157 Q 166.605 62.393 166.345 62.103 Q 166.085 61.814 165.742 61.814 Q 165.37 61.814 165.095 62.001 Q 164.821 62.187 164.625 62.456 Q 164.429 62.726 164.292 62.99 Z " fill="black" /><path d="M 182.392 58.746 L 182.392 58.746 L 174.048 58.746 L 174.048 57.794 L 182.392 57.794 Z M 182.392 61.602 L 182.392 61.602 L 174.048 61.602 L 174.048 60.664 L 182.392 60.664 Z " fill="black" /><path d="M 191.104 56.786 L 191.104 56.786 L 192.308 56.786 Q 192.434 56.198 192.581 55.652 Q 192.728 55.106 192.966 54.672 Q 193.148 54.336 193.414 54.042 Q 193.68 53.748 194.093 53.559 Q 194.506 53.37 195.108 53.37 Q 195.752 53.37 196.095 53.657 Q 196.438 53.944 196.438 54.392 Q 196.438 54.7 196.27 54.854 Q 196.102 55.008 195.878 55.008 Q 195.598 55.008 195.472 54.847 Q 195.346 54.686 195.318 54.462 Q 195.276 54.196 195.213 53.986 Q 195.15 53.776 194.898 53.776 Q 194.366 53.776 194.072 54.336 Q 193.778 54.896 193.624 55.792 L 193.456 56.786 L 194.786 56.786 L 194.702 57.36 L 193.386 57.36 L 192.588 62.134 Q 192.532 62.498 192.413 63.044 Q 192.294 63.59 192.084 64.185 Q 191.874 64.78 191.573 65.298 Q 191.272 65.816 190.838 66.145 Q 190.404 66.474 189.83 66.474 Q 189.158 66.474 188.871 66.152 Q 188.584 65.83 188.584 65.466 Q 188.584 65.172 188.731 64.976 Q 188.878 64.78 189.144 64.78 Q 189.466 64.78 189.578 64.969 Q 189.69 65.158 189.718 65.403 Q 189.746 65.648 189.802 65.837 Q 189.858 66.026 190.054 66.026 Q 190.334 66.026 190.544 65.662 Q 190.754 65.298 190.908 64.759 Q 191.062 64.22 191.16 63.688 Q 191.258 63.156 191.314 62.806 L 192.224 57.36 L 191.048 57.36 Z " fill="black" /><path d="M 196.764 61.119 L 196.764 61.119 Q 197.499 61.119 198.048 61.437 Q 198.597 61.756 198.896 62.329 Q 199.194 62.902 199.194 63.676 Q 199.194 64.607 198.881 65.205 Q 198.567 65.803 198.018 66.092 Q 197.47 66.381 196.764 66.381 Q 196.049 66.381 195.495 66.082 Q 194.941 65.783 194.633 65.186 Q 194.324 64.588 194.324 63.686 Q 194.324 62.922 194.628 62.344 Q 194.931 61.765 195.48 61.442 Q 196.029 61.119 196.764 61.119 Z M 196.744 61.569 L 196.744 61.569 Q 196.098 61.569 195.73 62.094 Q 195.363 62.618 195.363 63.627 Q 195.363 64.872 195.74 65.386 Q 196.117 65.901 196.793 65.901 Q 197.225 65.891 197.528 65.685 Q 197.832 65.48 197.994 64.994 Q 198.156 64.509 198.156 63.676 Q 198.156 62.677 197.813 62.123 Q 197.47 61.569 196.744 61.569 Z " fill="black" /><path d="M 205.858 65.764 L 205.858 65.764 L 205.858 66.136 L 204.535 66.313 L 204.222 66.313 L 204.222 65.548 L 204.124 65.548 Q 203.751 65.881 203.369 66.121 Q 202.987 66.362 202.448 66.362 Q 201.723 66.362 201.341 65.921 Q 200.958 65.48 200.958 64.392 L 200.958 62.285 Q 200.958 61.883 200.816 61.79 Q 200.674 61.697 200.223 61.697 L 200.223 61.344 L 201.586 61.158 L 201.909 61.158 L 201.909 64.264 Q 201.909 64.813 202.036 65.117 Q 202.164 65.421 202.379 65.538 Q 202.595 65.656 202.85 65.656 Q 203.281 65.656 203.57 65.475 Q 203.859 65.293 204.173 65.039 L 204.173 62.285 Q 204.173 61.883 203.996 61.79 Q 203.82 61.697 203.32 61.697 L 203.32 61.344 L 204.78 61.158 L 205.123 61.158 L 205.123 65.127 Q 205.123 65.421 205.177 65.558 Q 205.231 65.695 205.368 65.729 Q 205.506 65.764 205.751 65.764 Z " fill="black" /><path d="M 209.68 65.284 L 209.68 65.284 L 209.906 65.47 Q 209.69 65.764 209.514 65.965 Q 209.337 66.166 209.112 66.273 Q 208.887 66.381 208.534 66.381 Q 207.965 66.381 207.706 66.058 Q 207.446 65.734 207.446 65.019 L 207.446 61.726 L 206.829 61.726 L 206.829 61.432 Q 207.181 61.177 207.475 60.81 Q 207.769 60.442 208.063 59.756 L 208.406 59.756 L 208.397 61.246 L 209.641 61.246 L 209.641 61.726 L 208.397 61.726 L 208.397 64.696 Q 208.397 65.244 208.5 65.475 Q 208.602 65.705 208.916 65.705 Q 209.2 65.705 209.347 65.602 Q 209.494 65.499 209.68 65.284 Z " fill="black" /><path d="M 215.075 53.398 L 215.075 53.398 L 211.435 64.57 L 210.651 64.57 L 214.305 53.398 Z " fill="black" /><path d="M 226.821 54.126 L 226.821 54.126 L 226.737 54.546 Q 226.359 54.546 226.156 54.616 Q 225.953 54.686 225.799 54.826 Q 225.673 54.938 225.547 55.099 Q 225.421 55.26 225.309 55.568 Q 225.197 55.876 225.085 56.422 L 223.657 63.436 L 223.195 63.436 L 219.079 55.918 L 219.009 55.918 L 217.917 61.238 Q 217.777 61.938 217.805 62.295 Q 217.833 62.652 218.092 62.778 Q 218.351 62.904 218.869 62.904 L 218.785 63.324 L 215.565 63.324 L 215.649 62.904 Q 216.195 62.904 216.489 62.785 Q 216.783 62.666 216.937 62.302 Q 217.091 61.938 217.231 61.238 L 218.477 55.19 Q 218.239 54.798 218.001 54.672 Q 217.763 54.546 217.315 54.546 L 217.399 54.126 L 219.597 54.126 L 223.377 61.014 L 223.447 61.014 L 224.413 56.352 Q 224.539 55.722 224.546 55.4 Q 224.553 55.078 224.455 54.896 Q 224.329 54.686 224.105 54.616 Q 223.881 54.546 223.433 54.546 L 223.517 54.126 Z " fill="black" /></g></g></g></svg>