<svg xmlns="http://www.w3.org/2000/svg" xmlns:xlink="http://www.w3.org/1999/xlink" xml:lang="en" height="86.60000000000001pt" width="362.74929709661706pt" viewBox="-21.43411724528373 -7.300000000000008 362.74929709661706 86.60000000000001"><path d="M 0.0,-0.0 L -3.3065463576978533e-15,18.0 L 1.6615562733898361,18.067033833286978 L 3.3669793654250144,18.27113325898926 L 5.06985639067199,18.61398039413747 L 6.723843754600278,19.093481353447764 L 8.28392838896362,19.703823234159326 L 9.707652777067478,20.435632313487652 L 10.956270430006771,21.276229153368725 L 11.995800367726275,22.20997366984915 L 12.797951907327745,23.218690776099937 L 13.340894590620636,24.282165015230312 L 13.60985229743023,25.37869072152867 L 13.59750537594055,26.4856627375583 L 13.304189846142897,27.580191610812825 L 12.737888255092,28.639726527427953 L 11.914012432842831,29.64266902988306 L 10.854984061339362,30.56896081643888 L 9.589624471022711,31.400629625419768 L 8.152370271771023,32.122278348165224 L 6.582336164681225,32.7215040595002 L 4.922250440157871,33.189235561859945 L 3.217292132601282,33.5199802568466 L 1.5138614783910165,33.71197362563754 L -0.14168286099643665,33.767227250154 L -1.704285444413953,33.69147406809976 L -3.131420229484701,33.49401235174737 L -4.384247913758128,33.18745265657054 L -5.428672941679888,32.78737462648555 L -6.2362714110574675,32.31190299570578 L -6.785064626158073,31.78121432626836 L -7.060117245283725,31.21698790531198 L -7.053943744308888,30.64181574587086 L -6.766712134324067,30.078587747942677 L -6.206239389234084,29.54986875259839 L -5.387778707748384,29.07728444253186 L -4.333604399402858,28.68093280169241 L -3.0724056918904656,28.378837151055897 L -1.6385059571615932,28.18645564610044 L -0.07092860496246352,28.11626058495434 L 1.5876649345928222,28.177398976294512 L 3.292136236739341,28.375443604599628 L 4.996098318891502,28.71224136748715 L 6.653178056824975,29.185863012615624 L 8.218278223704866,29.79065564205639 L 9.648804805719182,30.51739655523439 L 10.90582619306932,31.35354424362113 L 11.955132699073395,32.283579706388885 L 12.768167572696836,33.28942879816175 L 13.32280416711563,34.35095411471985 L 13.6039481137627,35.446503030046266 L 13.603948113762701,36.55349696995372 L 13.322804167115638,37.649045885280124 L 12.768167572696841,38.710571201838235 L 11.955132699073408,39.716420293611094 L 10.905826193069348,40.64645575637884 L 9.648804805719214,41.48260344476559 L 8.218278223704887,42.20934435794361 L 6.653178056824997,42.814136987384366 L 4.996098318891542,43.28775863251284 L 3.2921362367393825,43.62455639540036 L 1.5876649345928542,43.82260102370548 L -0.07092860496244142,43.88373941504566 L -1.638505957161565,43.813544353899566 L -3.0724056918904328,43.6211628489441 L -4.333604399402836,43.31906719830759 L -5.387778707748372,42.92271555746815 L -6.206239389234073,42.45013124740162 L -6.766712134324058,41.92141225205734 L -7.053943744308887,41.35818425412915 L -7.060117245283728,40.78301209468803 L -6.785064626158082,40.218785673731645 L -6.236271411057488,39.688097004294235 L -5.428672941679908,39.21262537351446 L -4.384247913758147,38.812547343429465 L -3.1314202294847293,38.505987648252635 L -1.704285444413993,38.30852593190024 L -0.14168286099647076,38.232772749846 L 1.5138614783909898,38.28802637436246 L 3.217292132601246,38.48001974315339 L 4.922250440157827,38.81076443814004 L 6.582336164681191,39.278495940499795 L 8.152370271771,39.87772165183476 L 9.58962447102268,40.59937037458022 L 10.854984061339328,41.4310391835611 L 11.91401243284281,42.35733097011692 L 12.737888255091988,43.36027347257205 L 13.30418984614289,44.41980838918715 L 13.597505375940539,45.51433726244167 L 13.609852297430228,46.62130927847131 L 13.340894590620639,47.717834984769674 L 12.797951907327755,48.78130922390005 L 11.995800367726286,49.79002633015084 L 10.9562704300068,50.72377084663125 L 9.707652777067478,51.56436768651235 L 8.283928388963647,52.296176765840656 L 6.723843754600331,52.90651864655222 L 5.069856390671999,53.38601960586252 L 3.366979365425052,53.728866741010734 L 1.661556273389828,53.93296616671302 L 1.43085740644207e-14,54.0 L 1.1002027706722849e-14,72.0" style="stroke:black;fill:none;stroke-width:2.0;stroke-dasharray:-;stroke-linecap:round;stroke-linejoin:round;" /><path d="M 1.1002027706722849e-14,72.0 L 36.00000000000001,72.0 L 72.00000000000001,72.0" style="stroke:black;fill:none;stroke-width:2.0;stroke-dasharray:-;stroke-linecap:round;stroke-linejoin:round;" /><path d="M 72.00000000000001,72.0 L 72.00000000000001,39.239999999999995 M 63.000000000000014,39.239999999999995 L 81.00000000000001,39.239999999999995 M 63.000000000000014,32.76 L 81.00000000000001,32.76 M 72.00000000000001,32.76 L 72.00000000000001,-0.0" style="stroke:black;fill:none;stroke-width:2.0;stroke-dasharray:-;stroke-linecap:round;stroke-linejoin:round;" /><path d="M 72.00000000000001,-0.0 L 36.00000000000001,-4.4087284769304724e-15 L 0.0,-8.817456953860945e-15" style="stroke:black;fill:none;stroke-width:2.0;stroke-dasharray:-;stroke-linecap:round;stroke-linejoin:round;" /><path d="M 72.00000000000001,-0.0 L 108.00000000000001,-0.0 L 144.0,-0.0" style="stroke:black;fill:none;stroke-width:2.0;stroke-dasharray:-;stroke-linecap:round;stroke-linejoin:round;" /><path d="M 144.0,-0.0 L 144.0,18.0 L 153.0,21.0 L 135.0,27.0 L 153.0,33.0 L 135.0,39.0 L 153.0,45.0 L 134.99999999999997,50.99999999999999 L 143.99999999999997,54.0 L 143.99999999999997,72.0" style="stroke:black;fill:none;stroke-width:2.0;stroke-dasharray:-;stroke-linecap:round;stroke-linejoin:round;" /><path d="M 143.99999999999997,72.0 L 108.0,71.99999999999999 L 72.00000000000001,71.99999999999999" style="stroke:black;fill:none;stroke-width:2.0;stroke-dasharray:-;stroke-linecap:round;stroke-linejoin:round;" /><path d="M 143.99999999999997,72.0 L 180.0,72.0 L 216.0,72.0" style="stroke:black;fill:none;stroke-width:2.0;stroke-dasharray:-;stroke-linecap:round;stroke-linejoin:round;" /><path d="M 216.0,72.0 L 252.0,72.0 L 288.0,72.0" style="stroke:black;fill:none;stroke-width:2.0;stroke-dasharray:-;stroke-linecap:round;stroke-linejoin:round;" /><path d="M 288.0,72.0 L 288.0,54.0 L 279.0,50.99999999999999 L 297.0,45.0 L 279.0,39.00000000000001 L 297.0,33.0 L 279.0,27.0 L 297.0,21.000000000000007 L 288.0,18.0 L 288.0,-0.0" style="stroke:blue;fill:none;stroke-width:2.0;stroke-dasharray:-;stroke-linecap:round;stroke-linejoin:round;" /><path d="M 288.0,-0.0 L 252.0,-4.408728476930472e-15 L 216.0,-8.817456953860943e-15" style="stroke:black;fill:none;stroke-width:2.0;stroke-dasharray:-;stroke-linecap:round;stroke-linejoin:round;" /><path d="M 216.0,-8.817456953860943e-15 L 180.0,-1.3226185430791413e-14 L 144.0,-1.7634913907721887e-14" style="stroke:black;fill:none;stroke-width:2.0;stroke-dasharray:-;stroke-linecap:round;stroke-linejoin:round;" /><g><g><g><path d="M -11.234 37.869 L -11.234 37.869 L -12.074 40.599 L -18.99 40.599 L -18.906 40.179 Q -18.36 40.179 -18.073 40.081 Q -17.786 39.983 -17.632 39.703 Q -17.478 39.423 -17.366 38.863 L -16.162 33.025 Q -16.064 32.563 -16.092 32.297 Q -16.12 32.031 -16.379 31.926 Q -16.638 31.821 -17.24 31.821 L -17.156 31.401 L -13.18 31.401 L -13.25 31.821 Q -14.006 31.821 -14.384 32.052 Q -14.762 32.283 -14.916 33.039 L -16.19 39.311 Q -16.288 39.773 -16.092 39.92 Q -15.896 40.067 -15.28 40.067 L -14.622 40.067 Q -13.95 40.067 -13.53 39.948 Q -13.11 39.829 -12.816 39.577 Q -12.522 39.325 -12.263 38.898 Q -12.004 38.471 -11.682 37.869 Z " fill="black" /></g></g></g><circle cx="72.00000000000001" cy="72.0" r="2.6999999999999997" style="stroke:black;fill:black;stroke-width:2.0;stroke-dasharray:-;" /><circle cx="72.00000000000001" cy="-0.0" r="2.6999999999999997" style="stroke:black;fill:black;stroke-width:2.0;stroke-dasharray:-;" /><g><g><g><path d="M 58.742 37.233 L 58.742 37.233 L 58.994 37.499 Q 58.28 38.339 57.342 38.878 Q 56.404 39.417 55.074 39.417 Q 53.814 39.417 53.058 38.948 Q 52.302 38.479 51.973 37.695 Q 51.644 36.911 51.644 35.987 Q 51.644 34.517 52.092 33.376 Q 52.54 32.235 53.317 31.458 Q 54.094 30.681 55.074 30.282 Q 56.054 29.883 57.118 29.883 Q 57.832 29.883 58.231 30.009 Q 58.63 30.135 58.854 30.268 Q 59.078 30.401 59.246 30.401 Q 59.414 30.401 59.54 30.261 Q 59.666 30.121 59.834 29.897 L 60.24 29.897 L 59.582 33.103 L 59.12 33.103 Q 59.176 31.703 58.602 31.094 Q 58.028 30.485 56.992 30.485 Q 56.18 30.485 55.466 30.856 Q 54.752 31.227 54.199 31.906 Q 53.646 32.585 53.331 33.53 Q 53.016 34.475 53.016 35.637 Q 53.016 37.037 53.681 37.772 Q 54.346 38.507 55.732 38.507 Q 57.342 38.507 58.742 37.233 Z " fill="black" /></g></g></g><circle cx="144.0" cy="-0.0" r="2.6999999999999997" style="stroke:black;fill:black;stroke-width:2.0;stroke-dasharray:-;" /><circle cx="143.99999999999997" cy="72.0" r="2.6999999999999997" style="stroke:black;fill:black;stroke-width:2.0;stroke-dasharray:-;" /><g><g><g><path d="M 124.186 32.081 L 124.186 32.081 Q 124.186 32.823 123.906 33.327 Q 123.626 33.831 123.178 34.153 Q 122.73 34.475 122.219 34.65 Q 121.708 34.825 121.246 34.909 L 121.246 34.979 Q 121.498 35.147 121.722 35.49 Q 121.946 35.833 122.275 36.477 Q 122.604 37.121 123.178 38.213 Q 123.416 38.633 123.703 38.78 Q 123.99 38.927 124.466 38.927 L 124.382 39.347 L 122.254 39.347 Q 121.862 38.479 121.596 37.898 Q 121.33 37.317 121.134 36.925 Q 120.938 36.533 120.791 36.225 Q 120.644 35.917 120.476 35.595 Q 120.322 35.301 120.14 35.21 Q 119.958 35.119 119.58 35.119 L 119.286 35.119 L 118.768 37.611 Q 118.656 38.185 118.691 38.472 Q 118.726 38.759 119.006 38.843 Q 119.286 38.927 119.888 38.927 L 119.818 39.347 L 115.954 39.347 L 116.038 38.927 Q 116.556 38.927 116.836 38.843 Q 117.116 38.759 117.263 38.479 Q 117.41 38.199 117.522 37.611 L 118.754 31.605 Q 118.838 31.213 118.796 30.989 Q 118.754 30.765 118.509 30.667 Q 118.264 30.569 117.704 30.569 L 117.788 30.149 L 121.078 30.149 Q 122.548 30.149 123.367 30.604 Q 124.186 31.059 124.186 32.081 Z M 120.168 30.737 L 120.168 30.737 L 119.384 34.601 L 119.818 34.615 Q 120.658 34.587 121.337 34.342 Q 122.016 34.097 122.408 33.565 Q 122.8 33.033 122.8 32.137 Q 122.8 31.759 122.639 31.43 Q 122.478 31.101 122.086 30.898 Q 121.694 30.695 120.994 30.695 Q 120.728 30.695 120.567 30.702 Q 120.406 30.709 120.168 30.737 Z " fill="black" /><path d="M 127.168 37.172 L 127.168 37.172 L 127.168 38.014 L 127.217 38.014 Q 127.599 37.573 127.981 37.358 Q 128.363 37.142 128.824 37.142 Q 129.343 37.142 129.765 37.451 Q 130.186 37.76 130.436 38.303 Q 130.686 38.847 130.686 39.553 Q 130.686 40.474 130.358 41.111 Q 130.029 41.748 129.486 42.076 Q 128.942 42.405 128.305 42.405 Q 128.001 42.405 127.731 42.326 Q 127.462 42.248 127.236 42.12 L 127.187 42.12 L 127.187 43.375 Q 127.187 43.718 127.276 43.899 Q 127.364 44.081 127.589 44.144 Q 127.815 44.208 128.236 44.208 L 128.236 44.551 L 125.463 44.551 L 125.463 44.218 Q 125.806 44.208 125.967 44.144 Q 126.129 44.081 126.183 43.914 Q 126.237 43.747 126.237 43.444 L 126.237 38.289 Q 126.237 38.005 126.178 37.882 Q 126.119 37.76 125.835 37.76 Q 125.747 37.76 125.61 37.769 Q 125.472 37.779 125.472 37.779 L 125.472 37.387 L 126.795 37.172 Z M 127.187 38.514 L 127.187 38.514 L 127.187 41.278 Q 127.295 41.386 127.457 41.547 Q 127.619 41.709 127.844 41.831 Q 128.069 41.954 128.334 41.954 Q 128.697 41.954 128.995 41.733 Q 129.294 41.513 129.481 41.043 Q 129.667 40.572 129.667 39.847 Q 129.667 38.926 129.334 38.416 Q 129 37.907 128.393 37.907 Q 128.001 37.907 127.677 38.112 Q 127.354 38.318 127.187 38.514 Z " fill="black" /></g></g></g><circle cx="216.0" cy="72.0" r="2.6999999999999997" style="stroke:black;fill:white;stroke-width:2.0;stroke-dasharray:-;" /><g><g><g><path d="M 219.29 54.399 L 219.29 54.399 L 213.13 54.399 L 213.13 53.601 L 219.29 53.601 Z " fill="black" /></g></g></g><g><g><g><path d="M 208.773 37.315 L 208.773 37.315 L 212.594 31.575 Q 212.791 31.295 212.909 31.057 Q 213.029 30.819 213.029 30.651 Q 213.029 30.441 212.846 30.364 Q 212.665 30.287 212.189 30.287 L 212.216 29.867 L 215.24 29.867 L 215.213 30.287 Q 214.834 30.287 214.569 30.399 Q 214.303 30.511 214.029 30.826 Q 213.756 31.141 213.322 31.785 L 208.184 39.135 L 207.722 39.135 L 206.939 31.561 Q 206.855 30.861 206.63 30.574 Q 206.406 30.287 205.846 30.287 L 205.874 29.867 L 209.304 29.867 L 209.262 30.287 Q 208.731 30.287 208.422 30.497 Q 208.114 30.707 208.142 31.183 Q 208.142 31.253 208.163 31.435 Q 208.184 31.617 208.184 31.687 L 208.605 35.677 L 208.702 37.315 Z " fill="black" /><path d="M 215.161 36.86 L 215.161 36.86 Q 215.896 36.86 216.445 37.179 Q 216.993 37.497 217.292 38.071 Q 217.591 38.644 217.591 39.418 Q 217.591 40.349 217.278 40.947 Q 216.964 41.545 216.415 41.834 Q 215.866 42.123 215.161 42.123 Q 214.445 42.123 213.892 41.824 Q 213.338 41.525 213.029 40.927 Q 212.72 40.329 212.72 39.428 Q 212.72 38.663 213.024 38.085 Q 213.328 37.507 213.877 37.184 Q 214.426 36.86 215.161 36.86 Z M 215.141 37.311 L 215.141 37.311 Q 214.494 37.311 214.127 37.835 Q 213.759 38.36 213.759 39.369 Q 213.759 40.614 214.137 41.128 Q 214.514 41.643 215.19 41.643 Q 215.621 41.633 215.925 41.427 Q 216.229 41.221 216.391 40.736 Q 216.552 40.251 216.552 39.418 Q 216.552 38.419 216.209 37.865 Q 215.866 37.311 215.141 37.311 Z " fill="black" /><path d="M 218.767 40.222 L 218.767 40.222 L 219.081 40.222 Q 219.208 40.79 219.385 41.104 Q 219.561 41.417 219.84 41.54 Q 220.12 41.662 220.521 41.662 Q 220.982 41.662 221.232 41.51 Q 221.482 41.358 221.482 40.976 Q 221.482 40.721 221.359 40.55 Q 221.237 40.378 220.967 40.222 Q 220.698 40.065 220.247 39.859 Q 219.786 39.634 219.458 39.438 Q 219.13 39.242 218.958 38.977 Q 218.787 38.712 218.787 38.311 Q 218.787 37.605 219.262 37.233 Q 219.737 36.86 220.453 36.86 Q 220.884 36.86 221.183 36.968 Q 221.482 37.076 221.658 37.154 L 221.678 37.154 L 221.834 36.909 L 222.109 36.909 L 222.129 38.536 L 221.786 38.536 Q 221.599 37.782 221.266 37.522 Q 220.933 37.262 220.502 37.262 Q 220.051 37.262 219.821 37.458 Q 219.59 37.654 219.59 37.968 Q 219.59 38.222 219.747 38.389 Q 219.904 38.556 220.193 38.698 Q 220.482 38.84 220.884 39.036 Q 221.335 39.252 221.678 39.482 Q 222.021 39.712 222.217 40.001 Q 222.413 40.29 222.413 40.721 Q 222.413 41.241 222.138 41.554 Q 221.864 41.868 221.433 42 Q 221.001 42.133 220.531 42.133 Q 220.051 42.133 219.786 42.035 Q 219.522 41.937 219.296 41.849 L 219.257 41.849 L 219.012 42.103 L 218.787 42.103 Z " fill="black" /><path d="M 227.518 40.506 L 227.518 40.506 L 227.754 40.682 Q 227.528 41.104 227.249 41.427 Q 226.97 41.75 226.587 41.927 Q 226.205 42.103 225.647 42.103 Q 224.961 42.103 224.476 41.785 Q 223.99 41.466 223.736 40.908 Q 223.481 40.349 223.481 39.614 Q 223.481 38.34 224.128 37.6 Q 224.774 36.86 225.921 36.86 Q 226.715 36.86 227.146 37.194 Q 227.577 37.527 227.577 37.997 Q 227.577 38.487 227.097 38.487 Q 226.852 38.487 226.725 38.365 Q 226.597 38.242 226.529 38.066 Q 226.46 37.889 226.382 37.713 Q 226.303 37.536 226.161 37.414 Q 226.019 37.291 225.745 37.291 Q 225.088 37.291 224.725 37.757 Q 224.363 38.222 224.363 39.105 Q 224.363 40.084 224.765 40.672 Q 225.166 41.261 226.019 41.261 Q 226.529 41.261 226.847 41.079 Q 227.166 40.898 227.518 40.506 Z " fill="black" /></g></g></g><g><g><g><path d="M 220.606 18.476 L 220.606 18.476 L 216.938 18.476 L 216.938 22.186 L 215.93 22.186 L 215.93 18.476 L 212.262 18.476 L 212.262 17.524 L 215.93 17.524 L 215.93 13.814 L 216.938 13.814 L 216.938 17.524 L 220.606 17.524 Z " fill="black" /></g></g></g><g><g><g><path d="M 309.812 34.847 L 309.812 34.847 L 301.468 34.847 L 301.468 33.895 L 309.812 33.895 Z " fill="blue" /><path d="M 319.949 30.731 L 319.949 30.731 Q 319.949 31.473 319.669 31.977 Q 319.389 32.481 318.941 32.803 Q 318.493 33.125 317.982 33.3 Q 317.471 33.475 317.009 33.559 L 317.009 33.629 Q 317.261 33.797 317.485 34.14 Q 317.709 34.483 318.038 35.127 Q 318.367 35.771 318.941 36.863 Q 319.179 37.283 319.466 37.43 Q 319.753 37.577 320.229 37.577 L 320.145 37.997 L 318.017 37.997 Q 317.625 37.129 317.359 36.548 Q 317.093 35.967 316.897 35.575 Q 316.701 35.183 316.554 34.875 Q 316.407 34.567 316.239 34.245 Q 316.085 33.951 315.903 33.86 Q 315.721 33.769 315.343 33.769 L 315.049 33.769 L 314.531 36.261 Q 314.419 36.835 314.454 37.122 Q 314.489 37.409 314.769 37.493 Q 315.049 37.577 315.651 37.577 L 315.581 37.997 L 311.717 37.997 L 311.801 37.577 Q 312.319 37.577 312.599 37.493 Q 312.879 37.409 313.026 37.129 Q 313.173 36.849 313.285 36.261 L 314.517 30.255 Q 314.601 29.863 314.559 29.639 Q 314.517 29.415 314.272 29.317 Q 314.027 29.219 313.467 29.219 L 313.551 28.799 L 316.841 28.799 Q 318.311 28.799 319.13 29.254 Q 319.949 29.709 319.949 30.731 Z M 315.931 29.387 L 315.931 29.387 L 315.147 33.251 L 315.581 33.265 Q 316.421 33.237 317.1 32.992 Q 317.779 32.747 318.171 32.215 Q 318.563 31.683 318.563 30.787 Q 318.563 30.409 318.402 30.08 Q 318.241 29.751 317.849 29.548 Q 317.457 29.345 316.757 29.345 Q 316.491 29.345 316.33 29.352 Q 316.169 29.359 315.931 29.387 Z " fill="blue" /><path d="M 324.401 40.32 L 324.401 40.32 L 324.332 40.32 Q 323.999 40.594 323.597 40.8 Q 323.195 41.006 322.725 41.006 Q 322.108 41.006 321.779 40.633 Q 321.451 40.261 321.451 39.732 Q 321.451 39.281 321.662 38.977 Q 321.872 38.673 322.21 38.482 Q 322.549 38.291 322.941 38.174 Q 323.333 38.056 323.695 37.987 Q 324.058 37.919 324.303 37.86 L 324.303 37.35 Q 324.303 36.694 324.043 36.444 Q 323.783 36.194 323.284 36.194 Q 322.98 36.194 322.847 36.272 Q 322.715 36.351 322.681 36.527 Q 322.647 36.704 322.637 36.988 Q 322.627 37.203 322.509 37.336 Q 322.392 37.468 322.166 37.468 Q 321.951 37.468 321.799 37.336 Q 321.647 37.203 321.647 36.949 Q 321.647 36.645 321.882 36.38 Q 322.117 36.116 322.553 35.954 Q 322.99 35.792 323.578 35.792 Q 324.46 35.792 324.856 36.199 Q 325.253 36.605 325.253 37.419 L 325.253 39.82 Q 325.253 40.143 325.327 40.236 Q 325.4 40.33 325.557 40.33 Q 325.724 40.33 325.846 40.261 Q 325.969 40.192 326.077 40.065 L 326.292 40.271 Q 325.783 40.996 325.097 40.996 Q 324.714 40.996 324.572 40.815 Q 324.43 40.633 324.401 40.32 Z M 324.303 39.957 L 324.303 39.957 L 324.303 38.232 Q 323.852 38.35 323.421 38.492 Q 322.99 38.634 322.71 38.879 Q 322.431 39.124 322.431 39.565 Q 322.431 39.947 322.651 40.168 Q 322.872 40.388 323.215 40.388 Q 323.421 40.388 323.71 40.295 Q 323.999 40.202 324.303 39.957 Z " fill="blue" /><path d="M 328.576 37.145 L 328.576 37.145 L 328.576 39.859 Q 328.576 40.153 328.634 40.31 Q 328.693 40.467 328.86 40.521 Q 329.026 40.575 329.35 40.575 L 329.35 40.937 L 326.88 40.937 L 326.88 40.575 Q 327.194 40.575 327.351 40.521 Q 327.507 40.467 327.556 40.305 Q 327.605 40.143 327.605 39.84 L 327.605 36.87 Q 327.605 36.596 327.502 36.503 Q 327.4 36.41 327.174 36.41 Q 327.066 36.41 326.983 36.419 Q 326.9 36.429 326.9 36.429 L 326.9 36.057 L 328.184 35.822 L 328.546 35.822 L 328.546 36.625 L 328.615 36.625 Q 329.026 36.253 329.438 36.022 Q 329.85 35.792 330.408 35.792 Q 330.869 35.792 331.158 36.027 Q 331.447 36.263 331.604 36.605 L 331.653 36.605 Q 332.545 35.792 333.368 35.792 Q 334.034 35.792 334.421 36.204 Q 334.808 36.615 334.808 37.507 L 334.808 39.663 Q 334.808 39.996 334.848 40.197 Q 334.887 40.398 335.044 40.486 Q 335.2 40.575 335.553 40.575 L 335.553 40.937 L 333.093 40.937 L 333.093 40.575 Q 333.456 40.575 333.618 40.481 Q 333.779 40.388 333.819 40.187 Q 333.858 39.986 333.858 39.663 L 333.858 37.625 Q 333.858 37.007 333.608 36.762 Q 333.358 36.517 332.966 36.517 Q 332.633 36.517 332.3 36.718 Q 331.966 36.919 331.712 37.115 L 331.712 39.663 Q 331.712 40.026 331.756 40.227 Q 331.8 40.428 331.971 40.501 Q 332.143 40.575 332.505 40.575 L 332.505 40.937 L 329.948 40.937 L 329.948 40.575 Q 330.32 40.575 330.491 40.501 Q 330.663 40.428 330.712 40.227 Q 330.761 40.026 330.761 39.663 L 330.761 37.595 Q 330.761 36.978 330.54 36.748 Q 330.32 36.517 329.938 36.517 Q 329.536 36.517 329.168 36.733 Q 328.801 36.949 328.576 37.145 Z " fill="blue" /><path d="M 338.042 35.822 L 338.042 35.822 L 338.042 36.664 L 338.091 36.664 Q 338.474 36.223 338.856 36.008 Q 339.238 35.792 339.699 35.792 Q 340.218 35.792 340.639 36.101 Q 341.061 36.41 341.311 36.953 Q 341.561 37.497 341.561 38.203 Q 341.561 39.124 341.232 39.761 Q 340.904 40.398 340.36 40.726 Q 339.816 41.055 339.179 41.055 Q 338.875 41.055 338.606 40.976 Q 338.336 40.898 338.111 40.77 L 338.062 40.77 L 338.062 42.025 Q 338.062 42.368 338.15 42.549 Q 338.238 42.73 338.464 42.794 Q 338.689 42.858 339.111 42.858 L 339.111 43.201 L 336.337 43.201 L 336.337 42.868 Q 336.68 42.858 336.842 42.794 Q 337.004 42.73 337.057 42.564 Q 337.111 42.397 337.111 42.093 L 337.111 36.939 Q 337.111 36.654 337.053 36.532 Q 336.994 36.41 336.71 36.41 Q 336.621 36.41 336.484 36.419 Q 336.347 36.429 336.347 36.429 L 336.347 36.037 L 337.67 35.822 Z M 338.062 37.164 L 338.062 37.164 L 338.062 39.928 Q 338.17 40.035 338.331 40.197 Q 338.493 40.359 338.719 40.481 Q 338.944 40.604 339.209 40.604 Q 339.571 40.604 339.87 40.383 Q 340.169 40.163 340.355 39.693 Q 340.541 39.222 340.541 38.497 Q 340.541 37.576 340.208 37.066 Q 339.875 36.556 339.267 36.556 Q 338.875 36.556 338.552 36.762 Q 338.229 36.968 338.062 37.164 Z " fill="blue" /></g></g></g><circle cx="216.0" cy="-8.817456953860943e-15" r="2.6999999999999997" style="stroke:black;fill:white;stroke-width:2.0;stroke-dasharray:-;" /></svg>