<svg xmlns="http://www.w3.org/2000/svg" xmlns:xlink="http://www.w3.org/1999/xlink" xml:lang="en" height="140.24pt" width="362.5456pt" viewBox="-42.94559999999999 -112.6 362.5456 140.24"><circle cx="2.204364238465236e-15" cy="-36.0" r="18.0" style="stroke:black;fill:none;stroke-width:2.0;stroke-dasharray:-;" /><path d="M 0.0,-0.0 L 0.0,14.4 L -9.0,14.4 L 9.0,14.4 M -6.3,18.72 L 6.3,18.72 M -1.8,23.04 L 1.8,23.04" style="stroke:black;fill:none;stroke-width:2.0;stroke-dasharray:-;stroke-linecap:round;stroke-linejoin:round;" /><path d="M 0.0,-0.0 L 1.102182119232618e-15,-18.0 L 1.102182119232618e-15,-18.0 M 3.3065463576978533e-15,-54.0 L 3.3065463576978533e-15,-54.0 L 4.408728476930472e-15,-72.0" style="stroke:black;fill:none;stroke-width:2.0;stroke-dasharray:-;stroke-linecap:round;stroke-linejoin:round;" /><path d="M 9.000000000000002,-36.0 L 8.250000000000002,-37.86349712473816 L 7.500000000000003,-39.6 L 6.750000000000003,-41.091168824543146 L 6.0000000000000036,-42.23538290724795 L 5.2500000000000036,-42.95466594928129 L 4.500000000000003,-43.199999999999996 L 3.750000000000003,-42.9546659492813 L 3.0000000000000027,-42.23538290724795 L 2.2500000000000027,-41.09116882454314 L 1.500000000000003,-39.6 L 0.7500000000000027,-37.863497124738146 L 2.204364238465236e-15,-36.0 L -0.7499999999999972,-34.136502875261854 L -1.4999999999999967,-32.400000000000006 L -2.2499999999999982,-30.908831175456857 L -2.9999999999999973,-29.764617092752044 L -3.7499999999999964,-29.04533405071871 L -4.499999999999998,-28.8 L -5.249999999999997,-29.045334050718708 L -5.9999999999999964,-29.76461709275204 L -6.749999999999998,-30.90883117545686 L -7.499999999999997,-32.4 L -8.249999999999996,-34.13650287526185 L -8.999999999999998,-36.0" style="stroke:black;fill:none;stroke-width:2.0;stroke-dasharray:-;stroke-linecap:round;stroke-linejoin:round;" /><path d="M 4.408728476930472e-15,-72.0 L 18.000000000000004,-72.0 L 21.000000000000007,-81.0 L 27.000000000000004,-63.0 L 33.0,-81.0 L 39.00000000000001,-63.0 L 45.00000000000001,-81.0 L 51.0,-63.0 L 54.00000000000001,-72.0 L 72.0,-72.0" style="stroke:black;fill:none;stroke-width:2.0;stroke-dasharray:-;stroke-linecap:round;stroke-linejoin:round;" /><path d="M 72.0,-72.0 L 81.0,-72.0 L 90.0,-72.0" style="stroke:black;fill:none;stroke-width:2.0;stroke-dasharray:-;stroke-linecap:round;stroke-linejoin:round;" /><path d="M 90.0,-72.0 L 108.0,-72.0 L 126.0,-72.0" style="stroke:black;fill:none;stroke-width:2.0;stroke-dasharray:-;stroke-linecap:round;stroke-linejoin:round;" /><path d="M 126.0,-72.0 L 126.0,-108.0 L 234.0,-108.0 L 234.0,-36.0 L 126.0,-36.0 L 126.0,-72.0" style="stroke:black;fill:none;stroke-width:2.0;stroke-dasharray:-;stroke-linecap:round;stroke-linejoin:round;" /><path d="M 234.0,-72.0 L 252.0,-72.0 L 270.0,-72.0" style="stroke:black;fill:none;stroke-width:2.0;stroke-dasharray:-;stroke-linecap:round;stroke-linejoin:round;" /><path d="M 270.0,-72.0 L 288.0,-72.0 L 306.0,-72.0" style="stroke:black;fill:none;stroke-width:2.0;stroke-dasharray:-;stroke-linecap:round;stroke-linejoin:round;" /><path d="M 306.0,-72.0 L 306.0,-54.0 L 315.0,-50.99999999999999 L 297.0,-45.0 L 315.0,-39.00000000000001 L 297.0,-33.0 L 315.0,-27.0 L 297.0,-21.000000000000007 L 306.0,-18.0 L 306.0,-0.0" style="stroke:black;fill:none;stroke-width:2.0;stroke-dasharray:-;stroke-linecap:round;stroke-linejoin:round;" /><path d="M 306.0,-0.0 L 306.0,14.4 L 297.0,14.4 L 315.0,14.4 M 299.7,18.72 L 312.3,18.72 M 304.2,23.04 L 307.8,23.04" style="stroke:black;fill:none;stroke-width:2.0;stroke-dasharray:-;stroke-linecap:round;stroke-linejoin:round;" /><g><g><g><path d="M -33.733 -39.912 L -33.733 -39.912 L -34.197 -39.912 Q -34.245 -41.24 -34.677 -41.84 Q -35.109 -42.44 -36.325 -42.44 Q -37.317 -42.44 -37.877 -41.96 Q -38.437 -41.48 -38.437 -40.616 Q -38.437 -39.88 -37.861 -39.352 Q -37.285 -38.824 -36.501 -38.344 Q -35.909 -37.96 -35.389 -37.576 Q -34.869 -37.192 -34.533 -36.68 Q -34.197 -36.168 -34.197 -35.4 Q -34.197 -34.376 -34.709 -33.656 Q -35.221 -32.936 -36.069 -32.544 Q -36.917 -32.152 -37.909 -32.152 Q -38.741 -32.152 -39.221 -32.272 Q -39.701 -32.392 -39.965 -32.512 Q -40.229 -32.632 -40.421 -32.632 Q -40.581 -32.632 -40.741 -32.488 Q -40.901 -32.344 -40.949 -32.104 L -41.429 -32.104 L -40.757 -35.56 L -40.309 -35.56 Q -40.229 -34.456 -39.997 -33.864 Q -39.765 -33.272 -39.285 -33.048 Q -38.805 -32.824 -38.005 -32.824 Q -37.013 -32.824 -36.357 -33.272 Q -35.701 -33.72 -35.685 -34.648 Q -35.685 -35.336 -35.981 -35.808 Q -36.277 -36.28 -36.773 -36.648 Q -37.269 -37.016 -37.829 -37.384 Q -37.845 -37.4 -37.861 -37.4 Q -38.389 -37.736 -38.829 -38.088 Q -39.269 -38.44 -39.533 -38.928 Q -39.797 -39.416 -39.797 -40.152 Q -39.797 -41.08 -39.301 -41.72 Q -38.805 -42.36 -38.005 -42.688 Q -37.205 -43.016 -36.309 -43.016 Q -35.605 -43.016 -35.213 -42.904 Q -34.821 -42.792 -34.597 -42.672 Q -34.373 -42.552 -34.197 -42.552 Q -33.797 -42.552 -33.573 -43.016 L -33.189 -43.016 Z " fill="black" /><path d="M -29.213 -29.398 L -29.213 -29.398 L -29.213 -28.984 L -32.058 -28.984 L -32.058 -29.398 Q -31.666 -29.398 -31.492 -29.482 Q -31.318 -29.566 -31.274 -29.751 Q -31.229 -29.936 -31.229 -30.238 L -31.229 -33.621 Q -31.229 -34.002 -31.352 -34.08 Q -31.475 -34.158 -31.766 -34.158 Q -31.912 -34.158 -32.002 -34.147 Q -32.091 -34.136 -32.091 -34.136 L -32.091 -34.584 L -30.59 -34.83 L -30.131 -34.83 L -30.131 -30.238 Q -30.131 -29.914 -30.081 -29.729 Q -30.03 -29.544 -29.834 -29.471 Q -29.638 -29.398 -29.213 -29.398 Z M -30.691 -37.306 L -30.691 -37.306 Q -30.366 -37.306 -30.148 -37.082 Q -29.93 -36.858 -29.93 -36.566 Q -29.93 -36.298 -30.148 -36.074 Q -30.366 -35.85 -30.691 -35.85 Q -31.005 -35.85 -31.212 -36.074 Q -31.419 -36.298 -31.419 -36.566 Q -31.419 -36.858 -31.212 -37.082 Q -31.005 -37.306 -30.691 -37.306 Z " fill="black" /><path d="M -22.56 -32.736 L -22.56 -32.736 L -22.56 -30.227 Q -22.56 -29.914 -22.504 -29.729 Q -22.448 -29.544 -22.258 -29.466 Q -22.067 -29.387 -21.664 -29.387 L -21.664 -28.984 L -24.542 -28.984 L -24.542 -29.387 Q -24.117 -29.387 -23.926 -29.466 Q -23.736 -29.544 -23.691 -29.729 Q -23.646 -29.914 -23.646 -30.227 L -23.646 -32.366 Q -23.646 -33.117 -23.82 -33.47 Q -23.994 -33.822 -24.257 -33.934 Q -24.52 -34.046 -24.789 -34.046 Q -25.27 -34.046 -25.634 -33.8 Q -25.998 -33.554 -26.267 -33.33 L -26.267 -30.227 Q -26.267 -29.914 -26.217 -29.729 Q -26.166 -29.544 -25.976 -29.466 Q -25.786 -29.387 -25.371 -29.387 L -25.371 -28.984 L -28.194 -28.984 L -28.194 -29.387 Q -27.802 -29.387 -27.628 -29.466 Q -27.454 -29.544 -27.41 -29.729 Q -27.365 -29.914 -27.365 -30.227 L -27.365 -33.632 Q -27.365 -33.946 -27.482 -34.052 Q -27.6 -34.158 -27.858 -34.158 Q -27.992 -34.158 -28.082 -34.147 Q -28.171 -34.136 -28.171 -34.136 L -28.171 -34.562 L -26.67 -34.83 L -26.301 -34.83 L -26.301 -33.912 L -26.222 -33.912 Q -25.741 -34.349 -25.298 -34.606 Q -24.856 -34.864 -24.296 -34.864 Q -23.635 -34.864 -23.26 -34.567 Q -22.885 -34.27 -22.722 -33.789 Q -22.56 -33.307 -22.56 -32.736 Z " fill="black" /></g></g></g><g><g><g><path d="M 37.405 -96.41 L 37.405 -96.41 Q 37.405 -95.562 37.085 -94.986 Q 36.765 -94.41 36.253 -94.042 Q 35.741 -93.674 35.157 -93.474 Q 34.573 -93.274 34.045 -93.178 L 34.045 -93.098 Q 34.333 -92.906 34.589 -92.514 Q 34.845 -92.122 35.221 -91.386 Q 35.597 -90.65 36.253 -89.402 Q 36.525 -88.922 36.853 -88.754 Q 37.181 -88.586 37.725 -88.586 L 37.629 -88.106 L 35.197 -88.106 Q 34.749 -89.098 34.445 -89.762 Q 34.141 -90.426 33.917 -90.874 Q 33.693 -91.322 33.525 -91.674 Q 33.357 -92.026 33.165 -92.394 Q 32.989 -92.73 32.781 -92.834 Q 32.573 -92.938 32.141 -92.938 L 31.805 -92.938 L 31.213 -90.09 Q 31.085 -89.434 31.125 -89.106 Q 31.165 -88.778 31.485 -88.682 Q 31.805 -88.586 32.493 -88.586 L 32.413 -88.106 L 27.997 -88.106 L 28.093 -88.586 Q 28.685 -88.586 29.005 -88.682 Q 29.325 -88.778 29.493 -89.098 Q 29.661 -89.418 29.789 -90.09 L 31.197 -96.954 Q 31.293 -97.402 31.245 -97.658 Q 31.197 -97.914 30.917 -98.026 Q 30.637 -98.138 29.997 -98.138 L 30.093 -98.618 L 33.853 -98.618 Q 35.533 -98.618 36.469 -98.098 Q 37.405 -97.578 37.405 -96.41 Z M 32.813 -97.946 L 32.813 -97.946 L 31.917 -93.53 L 32.413 -93.514 Q 33.373 -93.546 34.149 -93.826 Q 34.925 -94.106 35.373 -94.714 Q 35.821 -95.322 35.821 -96.346 Q 35.821 -96.778 35.637 -97.154 Q 35.453 -97.53 35.005 -97.762 Q 34.557 -97.994 33.757 -97.994 Q 33.453 -97.994 33.269 -97.986 Q 33.085 -97.978 32.813 -97.946 Z " fill="black" /><path d="M 39.133 -86.784 L 39.133 -86.784 L 39.491 -86.784 Q 39.637 -86.134 39.838 -85.776 Q 40.04 -85.418 40.359 -85.278 Q 40.678 -85.138 41.138 -85.138 Q 41.664 -85.138 41.95 -85.311 Q 42.235 -85.485 42.235 -85.922 Q 42.235 -86.213 42.095 -86.409 Q 41.955 -86.605 41.647 -86.784 Q 41.339 -86.963 40.824 -87.198 Q 40.298 -87.456 39.922 -87.68 Q 39.547 -87.904 39.351 -88.206 Q 39.155 -88.509 39.155 -88.968 Q 39.155 -89.774 39.698 -90.2 Q 40.242 -90.626 41.059 -90.626 Q 41.552 -90.626 41.894 -90.502 Q 42.235 -90.379 42.437 -90.29 L 42.459 -90.29 L 42.638 -90.57 L 42.952 -90.57 L 42.974 -88.71 L 42.582 -88.71 Q 42.37 -89.573 41.989 -89.87 Q 41.608 -90.166 41.115 -90.166 Q 40.6 -90.166 40.337 -89.942 Q 40.074 -89.718 40.074 -89.36 Q 40.074 -89.069 40.253 -88.878 Q 40.432 -88.688 40.762 -88.526 Q 41.093 -88.363 41.552 -88.139 Q 42.067 -87.893 42.459 -87.63 Q 42.851 -87.366 43.075 -87.036 Q 43.299 -86.706 43.299 -86.213 Q 43.299 -85.619 42.986 -85.261 Q 42.672 -84.902 42.179 -84.751 Q 41.686 -84.6 41.149 -84.6 Q 40.6 -84.6 40.298 -84.712 Q 39.995 -84.824 39.738 -84.925 L 39.693 -84.925 L 39.413 -84.634 L 39.155 -84.634 Z " fill="black" /></g></g></g><g><g><g><path d="M 140.504 -68.392 L 140.504 -68.392 L 140.504 -78.904 L 141.928 -78.904 L 145.8 -72.328 L 146.952 -70.152 L 147.032 -70.152 Q 146.984 -70.952 146.92 -71.816 Q 146.856 -72.68 146.856 -73.512 L 146.856 -78.904 L 148.152 -78.904 L 148.152 -68.392 L 146.744 -68.392 L 142.856 -74.968 L 141.704 -77.144 L 141.64 -77.144 Q 141.688 -76.344 141.752 -75.504 Q 141.816 -74.664 141.816 -73.848 L 141.816 -68.392 Z " fill="black" /><path d="M 153.816 -68.2 L 153.816 -68.2 Q 152.904 -68.2 152.104 -68.672 Q 151.304 -69.144 150.816 -70.032 Q 150.328 -70.92 150.328 -72.184 Q 150.328 -73.448 150.816 -74.328 Q 151.304 -75.208 152.104 -75.68 Q 152.904 -76.152 153.816 -76.152 Q 154.744 -76.152 155.544 -75.68 Q 156.344 -75.208 156.832 -74.328 Q 157.32 -73.448 157.32 -72.184 Q 157.32 -70.92 156.832 -70.032 Q 156.344 -69.144 155.544 -68.672 Q 154.744 -68.2 153.816 -68.2 Z M 153.816 -69.272 L 153.816 -69.272 Q 154.792 -69.272 155.392 -70.072 Q 155.992 -70.872 155.992 -72.184 Q 155.992 -73.48 155.392 -74.28 Q 154.792 -75.08 153.816 -75.08 Q 152.856 -75.08 152.256 -74.28 Q 151.656 -73.48 151.656 -72.184 Q 151.656 -70.872 152.256 -70.072 Q 152.856 -69.272 153.816 -69.272 Z " fill="black" /><path d="M 159.288 -68.392 L 159.288 -68.392 L 159.288 -75.976 L 160.568 -75.976 L 160.568 -68.392 Z M 159.944 -77.528 L 159.944 -77.528 Q 159.576 -77.528 159.32 -77.768 Q 159.064 -78.008 159.064 -78.36 Q 159.064 -78.728 159.32 -78.96 Q 159.576 -79.192 159.944 -79.192 Q 160.312 -79.192 160.568 -78.96 Q 160.824 -78.728 160.824 -78.36 Q 160.824 -78.008 160.568 -77.768 Q 160.312 -77.528 159.944 -77.528 Z " fill="black" /><path d="M 165.144 -68.2 L 165.144 -68.2 Q 164.28 -68.2 163.544 -68.504 Q 162.808 -68.808 162.28 -69.256 L 162.904 -70.104 Q 163.416 -69.704 163.936 -69.456 Q 164.456 -69.208 165.096 -69.208 Q 165.864 -69.208 166.24 -69.552 Q 166.616 -69.896 166.616 -70.36 Q 166.616 -70.76 166.376 -71.024 Q 166.136 -71.288 165.744 -71.472 Q 165.352 -71.656 164.888 -71.816 Q 164.36 -72.024 163.84 -72.288 Q 163.32 -72.552 162.984 -72.968 Q 162.648 -73.384 162.648 -74.024 Q 162.648 -74.92 163.344 -75.536 Q 164.04 -76.152 165.208 -76.152 Q 166.008 -76.152 166.592 -75.896 Q 167.176 -75.64 167.592 -75.32 L 166.984 -74.488 Q 166.584 -74.776 166.168 -74.968 Q 165.752 -75.16 165.24 -75.16 Q 164.552 -75.16 164.216 -74.832 Q 163.88 -74.504 163.88 -74.088 Q 163.88 -73.72 164.112 -73.488 Q 164.344 -73.256 164.728 -73.096 Q 165.112 -72.936 165.544 -72.76 Q 166.056 -72.568 166.584 -72.32 Q 167.112 -72.072 167.472 -71.64 Q 167.832 -71.208 167.832 -70.488 Q 167.832 -69.544 167.128 -68.872 Q 166.424 -68.2 165.144 -68.2 Z " fill="black" /><path d="M 169.64 -64.808 L 169.64 -64.808 Q 169.384 -64.808 169.16 -64.856 Q 168.936 -64.904 168.744 -64.968 L 169 -65.992 Q 169.256 -65.88 169.576 -65.88 Q 170.232 -65.88 170.648 -66.368 Q 171.064 -66.856 171.272 -67.496 L 171.56 -68.376 L 168.536 -75.976 L 169.848 -75.976 L 171.384 -71.768 Q 171.56 -71.288 171.744 -70.728 Q 171.928 -70.168 172.12 -69.64 L 172.184 -69.64 Q 172.344 -70.152 172.496 -70.712 Q 172.648 -71.272 172.808 -71.768 L 174.152 -75.976 L 175.4 -75.976 L 172.456 -67.448 Q 172.2 -66.696 171.824 -66.096 Q 171.448 -65.496 170.92 -65.152 Q 170.392 -64.808 169.64 -64.808 Z " fill="black" /><path d="M 184.888 -68.2 L 184.888 -68.2 Q 183.56 -68.2 182.496 -68.848 Q 181.432 -69.496 180.824 -70.712 Q 180.216 -71.928 180.216 -73.608 Q 180.216 -75.32 180.84 -76.544 Q 181.464 -77.768 182.528 -78.424 Q 183.592 -79.08 184.904 -79.08 Q 186.024 -79.08 186.744 -78.672 Q 187.464 -78.264 187.912 -77.784 L 187.16 -76.904 Q 186.232 -77.896 184.952 -77.896 Q 183.976 -77.896 183.224 -77.384 Q 182.472 -76.872 182.048 -75.92 Q 181.624 -74.968 181.624 -73.64 Q 181.624 -72.344 182.032 -71.392 Q 182.44 -70.44 183.184 -69.92 Q 183.928 -69.4 184.936 -69.4 Q 185.704 -69.4 186.312 -69.712 Q 186.92 -70.024 187.432 -70.568 L 188.168 -69.72 Q 187.528 -69 186.728 -68.6 Q 185.928 -68.2 184.888 -68.2 Z " fill="black" /><path d="M 189.96 -68.392 L 189.96 -68.392 L 189.96 -75.976 L 191.24 -75.976 L 191.24 -68.392 Z M 190.616 -77.528 L 190.616 -77.528 Q 190.248 -77.528 189.992 -77.768 Q 189.736 -78.008 189.736 -78.36 Q 189.736 -78.728 189.992 -78.96 Q 190.248 -79.192 190.616 -79.192 Q 190.984 -79.192 191.24 -78.96 Q 191.496 -78.728 191.496 -78.36 Q 191.496 -78.008 191.24 -77.768 Q 190.984 -77.528 190.616 -77.528 Z " fill="black" /><path d="M 193.784 -68.392 L 193.784 -68.392 L 193.784 -75.976 L 194.84 -75.976 L 194.952 -74.584 L 195 -74.584 Q 195.416 -75.336 195.96 -75.744 Q 196.504 -76.152 197.208 -76.152 Q 197.384 -76.152 197.576 -76.12 Q 197.768 -76.088 197.944 -76.008 L 197.704 -74.872 Q 197.496 -74.936 197.352 -74.968 Q 197.208 -75 197.032 -75 Q 196.504 -75 195.976 -74.616 Q 195.448 -74.232 195.064 -73.256 L 195.064 -68.392 Z " fill="black" /><path d="M 202.088 -68.2 L 202.088 -68.2 Q 201.112 -68.2 200.32 -68.68 Q 199.528 -69.16 199.064 -70.048 Q 198.6 -70.936 198.6 -72.152 Q 198.6 -73.432 199.104 -74.328 Q 199.608 -75.224 200.432 -75.688 Q 201.256 -76.152 202.216 -76.152 Q 203.016 -76.152 203.536 -75.88 Q 204.056 -75.608 204.44 -75.272 L 203.784 -74.424 Q 203.448 -74.728 203.088 -74.904 Q 202.728 -75.08 202.264 -75.08 Q 201.592 -75.08 201.064 -74.712 Q 200.536 -74.344 200.232 -73.696 Q 199.928 -73.048 199.928 -72.168 Q 199.928 -70.872 200.576 -70.072 Q 201.224 -69.272 202.232 -69.272 Q 202.792 -69.272 203.232 -69.496 Q 203.672 -69.72 204.024 -70.024 L 204.584 -69.16 Q 204.072 -68.712 203.448 -68.456 Q 202.824 -68.2 202.088 -68.2 Z " fill="black" /><path d="M 208.392 -68.2 L 208.392 -68.2 Q 207.24 -68.2 206.68 -68.968 Q 206.12 -69.736 206.12 -71.16 L 206.12 -75.976 L 207.4 -75.976 L 207.4 -71.336 Q 207.4 -70.296 207.736 -69.808 Q 208.072 -69.32 208.808 -69.32 Q 209.4 -69.32 209.848 -69.624 Q 210.296 -69.928 210.84 -70.6 L 210.84 -75.976 L 212.12 -75.976 L 212.12 -68.392 L 211.048 -68.392 L 210.952 -69.576 L 210.904 -69.576 Q 210.344 -68.92 209.76 -68.56 Q 209.176 -68.2 208.392 -68.2 Z " fill="black" /><path d="M 214.648 -68.392 L 214.648 -68.392 L 214.648 -75.976 L 215.928 -75.976 L 215.928 -68.392 Z M 215.304 -77.528 L 215.304 -77.528 Q 214.936 -77.528 214.68 -77.768 Q 214.424 -78.008 214.424 -78.36 Q 214.424 -78.728 214.68 -78.96 Q 214.936 -79.192 215.304 -79.192 Q 215.672 -79.192 215.928 -78.96 Q 216.184 -78.728 216.184 -78.36 Q 216.184 -78.008 215.928 -77.768 Q 215.672 -77.528 215.304 -77.528 Z " fill="black" /><path d="M 220.792 -68.2 L 220.792 -68.2 Q 219.672 -68.2 219.184 -68.904 Q 218.696 -69.608 218.696 -70.744 L 218.696 -74.84 L 217.592 -74.84 L 217.592 -75.8 L 218.76 -75.88 L 218.92 -78.104 L 219.976 -78.104 L 219.976 -75.88 L 222.008 -75.88 L 222.008 -74.84 L 219.976 -74.84 L 219.976 -70.712 Q 219.976 -70.04 220.232 -69.648 Q 220.488 -69.256 221.096 -69.256 Q 221.352 -69.256 221.584 -69.32 Q 221.816 -69.384 221.992 -69.464 L 222.248 -68.488 Q 221.928 -68.376 221.568 -68.288 Q 221.208 -68.2 220.792 -68.2 Z " fill="black" /></g></g></g><g><g><g><path d="M 268.03 -40.795 L 268.03 -40.795 Q 268.03 -39.947 267.71 -39.371 Q 267.39 -38.795 266.878 -38.427 Q 266.366 -38.059 265.782 -37.859 Q 265.198 -37.659 264.67 -37.563 L 264.67 -37.483 Q 264.958 -37.291 265.214 -36.899 Q 265.47 -36.507 265.846 -35.771 Q 266.222 -35.035 266.878 -33.787 Q 267.15 -33.307 267.478 -33.139 Q 267.806 -32.971 268.35 -32.971 L 268.254 -32.491 L 265.822 -32.491 Q 265.374 -33.483 265.07 -34.147 Q 264.766 -34.811 264.542 -35.259 Q 264.318 -35.707 264.15 -36.059 Q 263.982 -36.411 263.79 -36.779 Q 263.614 -37.115 263.406 -37.219 Q 263.198 -37.323 262.766 -37.323 L 262.43 -37.323 L 261.838 -34.475 Q 261.71 -33.819 261.75 -33.491 Q 261.79 -33.163 262.11 -33.067 Q 262.43 -32.971 263.118 -32.971 L 263.038 -32.491 L 258.622 -32.491 L 258.718 -32.971 Q 259.31 -32.971 259.63 -33.067 Q 259.95 -33.163 260.118 -33.483 Q 260.286 -33.803 260.414 -34.475 L 261.822 -41.339 Q 261.918 -41.787 261.87 -42.043 Q 261.822 -42.299 261.542 -42.411 Q 261.262 -42.523 260.622 -42.523 L 260.718 -43.003 L 264.478 -43.003 Q 266.158 -43.003 267.094 -42.483 Q 268.03 -41.963 268.03 -40.795 Z M 263.438 -42.331 L 263.438 -42.331 L 262.542 -37.915 L 263.038 -37.899 Q 263.998 -37.931 264.774 -38.211 Q 265.55 -38.491 265.998 -39.099 Q 266.446 -39.707 266.446 -40.731 Q 266.446 -41.163 266.262 -41.539 Q 266.078 -41.915 265.63 -42.147 Q 265.182 -42.379 264.382 -42.379 Q 264.078 -42.379 263.894 -42.371 Q 263.71 -42.363 263.438 -42.331 Z " fill="black" /><path d="M 272.458 -29.546 L 272.458 -29.546 L 272.458 -29.131 L 269.624 -29.131 L 269.624 -29.546 Q 270.016 -29.546 270.19 -29.624 Q 270.363 -29.702 270.408 -29.887 Q 270.453 -30.072 270.453 -30.386 L 270.453 -36.299 Q 270.453 -36.658 270.324 -36.736 Q 270.195 -36.814 269.926 -36.814 Q 269.781 -36.814 269.686 -36.798 Q 269.59 -36.781 269.59 -36.781 L 269.59 -37.206 L 271.114 -37.498 L 271.55 -37.498 L 271.55 -30.386 Q 271.55 -30.061 271.601 -29.876 Q 271.651 -29.691 271.847 -29.618 Q 272.043 -29.546 272.458 -29.546 Z " fill="black" /><path d="M 276.378 -35.011 L 276.378 -35.011 Q 277.218 -35.011 277.845 -34.647 Q 278.472 -34.283 278.814 -33.628 Q 279.155 -32.973 279.155 -32.088 Q 279.155 -31.024 278.797 -30.341 Q 278.438 -29.658 277.811 -29.327 Q 277.184 -28.997 276.378 -28.997 Q 275.56 -28.997 274.927 -29.338 Q 274.294 -29.68 273.942 -30.363 Q 273.589 -31.046 273.589 -32.077 Q 273.589 -32.95 273.936 -33.611 Q 274.283 -34.272 274.91 -34.642 Q 275.538 -35.011 276.378 -35.011 Z M 276.355 -34.496 L 276.355 -34.496 Q 275.616 -34.496 275.196 -33.897 Q 274.776 -33.298 274.776 -32.144 Q 274.776 -30.722 275.207 -30.134 Q 275.638 -29.546 276.411 -29.546 Q 276.904 -29.557 277.251 -29.792 Q 277.598 -30.027 277.783 -30.582 Q 277.968 -31.136 277.968 -32.088 Q 277.968 -33.23 277.576 -33.863 Q 277.184 -34.496 276.355 -34.496 Z " fill="black" /><path d="M 283.859 -29.837 L 283.859 -29.837 L 283.781 -29.837 Q 283.4 -29.523 282.941 -29.288 Q 282.482 -29.053 281.944 -29.053 Q 281.238 -29.053 280.863 -29.478 Q 280.488 -29.904 280.488 -30.509 Q 280.488 -31.024 280.729 -31.371 Q 280.97 -31.718 281.356 -31.937 Q 281.742 -32.155 282.19 -32.29 Q 282.638 -32.424 283.053 -32.502 Q 283.467 -32.581 283.747 -32.648 L 283.747 -33.23 Q 283.747 -33.981 283.45 -34.266 Q 283.154 -34.552 282.582 -34.552 Q 282.235 -34.552 282.084 -34.462 Q 281.933 -34.373 281.894 -34.171 Q 281.854 -33.97 281.843 -33.645 Q 281.832 -33.398 281.698 -33.247 Q 281.563 -33.096 281.306 -33.096 Q 281.059 -33.096 280.886 -33.247 Q 280.712 -33.398 280.712 -33.69 Q 280.712 -34.037 280.981 -34.339 Q 281.25 -34.642 281.748 -34.826 Q 282.246 -35.011 282.918 -35.011 Q 283.926 -35.011 284.38 -34.546 Q 284.834 -34.082 284.834 -33.152 L 284.834 -30.408 Q 284.834 -30.038 284.918 -29.932 Q 285.002 -29.826 285.181 -29.826 Q 285.371 -29.826 285.511 -29.904 Q 285.651 -29.982 285.774 -30.128 L 286.021 -29.893 Q 285.438 -29.064 284.654 -29.064 Q 284.218 -29.064 284.055 -29.271 Q 283.893 -29.478 283.859 -29.837 Z M 283.747 -30.251 L 283.747 -30.251 L 283.747 -32.222 Q 283.232 -32.088 282.739 -31.926 Q 282.246 -31.763 281.927 -31.483 Q 281.608 -31.203 281.608 -30.699 Q 281.608 -30.262 281.86 -30.01 Q 282.112 -29.758 282.504 -29.758 Q 282.739 -29.758 283.07 -29.865 Q 283.4 -29.971 283.747 -30.251 Z " fill="black" /><path d="M 292.741 -29.277 L 292.741 -29.277 L 291.229 -29.075 L 290.826 -29.075 L 290.826 -29.859 L 290.747 -29.859 Q 290.378 -29.546 289.913 -29.288 Q 289.448 -29.03 288.866 -29.03 Q 288.205 -29.03 287.74 -29.389 Q 287.275 -29.747 287.029 -30.374 Q 286.782 -31.002 286.782 -31.797 Q 286.782 -32.794 287.169 -33.516 Q 287.555 -34.238 288.199 -34.625 Q 288.843 -35.011 289.605 -35.011 Q 290.266 -35.011 290.803 -34.709 L 290.803 -36.154 Q 290.803 -36.557 290.719 -36.686 Q 290.635 -36.814 290.277 -36.814 Q 290.198 -36.814 290.07 -36.798 Q 289.941 -36.781 289.941 -36.781 L 289.941 -37.206 L 291.43 -37.498 L 291.89 -37.498 L 291.89 -30.397 Q 291.89 -29.96 292.013 -29.831 Q 292.136 -29.702 292.438 -29.702 L 292.741 -29.702 Z M 290.803 -30.374 L 290.803 -30.374 L 290.803 -33.645 Q 290.68 -33.958 290.394 -34.205 Q 290.109 -34.451 289.582 -34.451 Q 288.832 -34.451 288.35 -33.942 Q 287.869 -33.432 287.869 -32.256 Q 287.869 -31.058 288.289 -30.503 Q 288.709 -29.949 289.47 -29.949 Q 289.829 -29.949 290.126 -30.05 Q 290.422 -30.15 290.803 -30.374 Z " fill="black" /></g></g></g><circle cx="90.0" cy="-72.0" r="2.6999999999999997" style="stroke:black;fill:white;stroke-width:2.0;stroke-dasharray:-;" /><circle cx="270.0" cy="-72.0" r="2.6999999999999997" style="stroke:black;fill:white;stroke-width:2.0;stroke-dasharray:-;" /></svg>