<svg xmlns="http://www.w3.org/2000/svg" xmlns:xlink="http://www.w3.org/1999/xlink" xml:lang="en" height="146.19799999999998pt" width="281.6884pt" viewBox="-18.28 -73.198 281.6884 146.19799999999998"><path d="M 0.0,-0.0 L 0.0,-21.599999999999998 L -13.68,-43.199999999999996 L 13.68,-43.199999999999996 L 0.0,-21.599999999999998" style="stroke:black;fill:none;stroke-width:2.0;stroke-dasharray:-;stroke-linecap:round;stroke-linejoin:round;" /><path d="M 0.0,-0.0 L 18.0,-0.0 L 36.0,-0.0" style="stroke:black;fill:none;stroke-width:2.0;stroke-dasharray:-;stroke-linecap:round;stroke-linejoin:round;" /><path d="M 36.0,-0.0 L 36.0,-18.0 L 72.0,-18.0 L 72.0,18.0 L 36.0,18.0 L 36.0,-0.0" style="stroke:black;fill:none;stroke-width:2.0;stroke-dasharray:-;stroke-linecap:round;stroke-linejoin:round;" /><path d="M 43.199999999999996,-4.4087284769304716e-16 L 44.33684210526316,-1.168918089136861 L 45.473684210526315,-2.2111657656828045 L 46.61052631578947,-3.013799321745103 L 47.747368421052634,-3.4898409573815896 L 48.88421052631579,-3.5877041748240117 L 50.02105263157894,-3.2967839759582067 L 51.1578947368421,-2.648606078423274 L 52.294736842105266,-1.7134106149334647 L 53.43157894736842,-0.5925405250106421 L 54.56842105263158,0.5925405250106421 L 55.705263157894734,1.7134106149334647 L 56.8421052631579,2.6486060784232732 L 57.97894736842106,3.2967839759582063 L 59.11578947368421,3.5877041748240117 L 60.252631578947366,3.48984095738159 L 61.38947368421053,3.013799321745103 L 62.526315789473685,2.2111657656828045 L 63.66315789473684,1.168918089136861 L 64.8,4.4087284769304716e-16" style="stroke:black;fill:none;stroke-width:2.0;stroke-dasharray:-;stroke-linecap:round;stroke-linejoin:round;" /><path d="M 43.199999999999996,-9.0 L 44.33684210526316,-10.16891808913686 L 45.473684210526315,-11.211165765682804 L 46.61052631578947,-12.013799321745104 L 47.747368421052634,-12.489840957381588 L 48.88421052631579,-12.587704174824012 L 50.02105263157894,-12.296783975958206 L 51.1578947368421,-11.648606078423274 L 52.294736842105266,-10.713410614933464 L 53.43157894736842,-9.592540525010643 L 54.56842105263158,-8.407459474989357 L 55.705263157894734,-7.286589385066535 L 56.8421052631579,-6.351393921576727 L 57.97894736842106,-5.703216024041794 L 59.11578947368421,-5.412295825175989 L 60.252631578947366,-5.51015904261841 L 61.38947368421053,-5.986200678254896 L 62.526315789473685,-6.7888342343171955 L 63.66315789473684,-7.831081910863139 L 64.8,-9.0" style="stroke:black;fill:none;stroke-width:2.0;stroke-dasharray:-;stroke-linecap:round;stroke-linejoin:round;" /><path d="M 43.199999999999996,9.0 L 44.33684210526316,7.831081910863139 L 45.473684210526315,6.7888342343171955 L 46.61052631578947,5.986200678254896 L 47.747368421052634,5.510159042618411 L 48.88421052631579,5.412295825175989 L 50.02105263157894,5.703216024041793 L 51.1578947368421,6.351393921576726 L 52.294736842105266,7.286589385066535 L 53.43157894736842,8.407459474989357 L 54.56842105263158,9.592540525010643 L 55.705263157894734,10.713410614933464 L 56.8421052631579,11.648606078423274 L 57.97894736842106,12.296783975958206 L 59.11578947368421,12.587704174824012 L 60.252631578947366,12.489840957381592 L 61.38947368421053,12.013799321745104 L 62.526315789473685,11.211165765682804 L 63.66315789473684,10.16891808913686 L 64.8,9.0" style="stroke:black;fill:none;stroke-width:2.0;stroke-dasharray:-;stroke-linecap:round;stroke-linejoin:round;" /><path d="M 52.199999999999996,-6.12 L 55.800000000000004,-11.88" style="stroke:black;fill:none;stroke-width:2.0;stroke-dasharray:-;stroke-linecap:round;stroke-linejoin:round;" /><path d="M 52.199999999999996,11.88 L 55.800000000000004,6.12" style="stroke:black;fill:none;stroke-width:2.0;stroke-dasharray:-;stroke-linecap:round;stroke-linejoin:round;" /><path d="M 72.0,-0.0 L 90.0,-0.0 L 108.0,-0.0" style="stroke:black;fill:none;stroke-width:2.0;stroke-dasharray:-;stroke-linecap:round;stroke-linejoin:round;" /><path d="M 108.0,-0.0 M 116.64000000000001,-3.6 L 133.20000000000002,-9.0 M 144.0,-14.4" style="stroke:black;fill:none;stroke-width:2.0;stroke-dasharray:-;stroke-linecap:round;stroke-linejoin:round;" /><path d="M 139.68,-14.4 L 139.68,-32.4 L 139.68,-50.4" style="stroke:black;fill:none;stroke-width:2.0;stroke-dasharray:-;stroke-linecap:round;stroke-linejoin:round;" /><path d="M 139.68,-50.4 L 157.68,-50.4 L 166.68,-50.4" style="stroke:black;fill:none;stroke-width:2.0;stroke-dasharray:-;stroke-linecap:round;stroke-linejoin:round;" /><path d="M 173.68 -50.4 L 166.68 -47.699999999999996 L 166.68 -53.1 Z" style="stroke:black;fill:black;stroke-linecap:butt;stroke-linejoin:miter;" /><path d="M 175.68,-50.4 L 175.68,-32.4 L 202.68,-50.4 L 175.68,-68.39999999999999 L 175.68,-50.4" style="stroke:black;fill:none;stroke-width:2.0;stroke-dasharray:-;stroke-linecap:round;stroke-linejoin:round;" /><path d="M 202.68,-50.4 L 220.68,-50.4 L 229.68,-50.4" style="stroke:black;fill:none;stroke-width:2.0;stroke-dasharray:7.4,3.2;stroke-linecap:round;stroke-linejoin:round;" /><path d="M 236.68 -50.4 L 229.68 -47.699999999999996 L 229.68 -53.1 Z" style="stroke:black;fill:black;stroke-linecap:butt;stroke-linejoin:miter;" /><path d="M 139.68,23.400000000000002 L 139.68,32.4 L 139.68,50.4" style="stroke:black;fill:none;stroke-width:2.0;stroke-dasharray:-;stroke-linecap:round;stroke-linejoin:round;" /><path d="M 139.68 16.4 L 142.38 23.4 L 136.98000000000002 23.4 Z" style="stroke:black;fill:black;stroke-linecap:butt;stroke-linejoin:miter;" /><path d="M 139.68,50.4 L 157.68,50.4 L 175.68,50.4" style="stroke:black;fill:none;stroke-width:2.0;stroke-dasharray:-;stroke-linecap:round;stroke-linejoin:round;" /><path d="M 202.68,50.4 L 202.68,32.4 L 175.68,50.4 L 202.68,68.39999999999999 L 202.68,50.4" style="stroke:black;fill:none;stroke-width:2.0;stroke-dasharray:-;stroke-linecap:round;stroke-linejoin:round;" /><path d="M 211.68,50.4 L 220.68,50.4 L 238.68,50.4" style="stroke:black;fill:none;stroke-width:2.0;stroke-dasharray:7.4,3.2;stroke-linecap:round;stroke-linejoin:round;" /><path d="M 204.68 50.4 L 211.68 47.7 L 211.68 53.1 Z" style="stroke:black;fill:black;stroke-linecap:butt;stroke-linejoin:miter;" /><g><g><g><path d="M 26.798 -33.088 L 26.798 -33.088 L 28.002 -33.088 Q 28.128 -33.676 28.275 -34.222 Q 28.422 -34.768 28.66 -35.202 Q 28.842 -35.538 29.108 -35.832 Q 29.374 -36.126 29.787 -36.315 Q 30.2 -36.504 30.802 -36.504 Q 31.446 -36.504 31.789 -36.217 Q 32.132 -35.93 32.132 -35.482 Q 32.132 -35.174 31.964 -35.02 Q 31.796 -34.866 31.572 -34.866 Q 31.292 -34.866 31.166 -35.027 Q 31.04 -35.188 31.012 -35.412 Q 30.97 -35.678 30.907 -35.888 Q 30.844 -36.098 30.592 -36.098 Q 30.06 -36.098 29.766 -35.538 Q 29.472 -34.978 29.318 -34.082 L 29.15 -33.088 L 30.48 -33.088 L 30.396 -32.514 L 29.08 -32.514 L 28.282 -27.74 Q 28.226 -27.376 28.107 -26.83 Q 27.988 -26.284 27.778 -25.689 Q 27.568 -25.094 27.267 -24.576 Q 26.966 -24.058 26.532 -23.729 Q 26.098 -23.4 25.524 -23.4 Q 24.852 -23.4 24.565 -23.722 Q 24.278 -24.044 24.278 -24.408 Q 24.278 -24.702 24.425 -24.898 Q 24.572 -25.094 24.838 -25.094 Q 25.16 -25.094 25.272 -24.905 Q 25.384 -24.716 25.412 -24.471 Q 25.44 -24.226 25.496 -24.037 Q 25.552 -23.848 25.748 -23.848 Q 26.028 -23.848 26.238 -24.212 Q 26.448 -24.576 26.602 -25.115 Q 26.756 -25.654 26.854 -26.186 Q 26.952 -26.718 27.008 -27.068 L 27.918 -32.514 L 26.742 -32.514 Z " fill="black" /><path d="M 35.555 -28.686 L 35.555 -28.686 Q 35.555 -28.108 35.291 -27.746 Q 35.026 -27.383 34.619 -27.187 Q 34.213 -26.991 33.782 -26.893 L 33.782 -26.815 Q 33.929 -26.687 34.129 -26.452 Q 34.33 -26.217 34.673 -25.761 Q 35.016 -25.305 35.585 -24.521 Q 35.84 -24.178 36.06 -24.08 Q 36.281 -23.982 36.673 -23.982 L 36.673 -23.61 L 34.899 -23.61 Q 34.458 -24.247 34.159 -24.683 Q 33.86 -25.119 33.659 -25.418 Q 33.458 -25.717 33.306 -25.942 Q 33.154 -26.168 32.998 -26.403 Q 32.841 -26.599 32.743 -26.658 Q 32.645 -26.717 32.449 -26.717 L 32.037 -26.717 L 32.037 -24.972 Q 32.037 -24.541 32.116 -24.33 Q 32.194 -24.12 32.424 -24.051 Q 32.655 -23.982 33.105 -23.982 L 33.105 -23.61 L 30.028 -23.61 L 30.028 -23.982 Q 30.42 -23.982 30.631 -24.046 Q 30.842 -24.11 30.92 -24.325 Q 30.998 -24.541 30.998 -24.972 L 30.998 -29.304 Q 30.998 -29.617 30.935 -29.794 Q 30.871 -29.97 30.665 -30.049 Q 30.459 -30.127 30.028 -30.127 L 30.028 -30.499 L 32.753 -30.499 Q 33.517 -30.499 34.154 -30.347 Q 34.791 -30.196 35.173 -29.804 Q 35.555 -29.412 35.555 -28.686 Z M 32.037 -30.009 L 32.037 -30.009 L 32.037 -27.177 L 32.41 -27.177 Q 33.321 -27.177 33.875 -27.545 Q 34.428 -27.912 34.428 -28.726 Q 34.428 -30.029 32.821 -30.029 Q 32.625 -30.029 32.429 -30.024 Q 32.233 -30.019 32.037 -30.009 Z " fill="black" /><path d="M 43.915 -23.61 L 43.915 -23.61 L 40.906 -23.61 L 40.906 -23.973 L 41.043 -23.973 Q 41.563 -23.973 41.563 -24.237 Q 41.563 -24.404 41.47 -24.59 Q 41.377 -24.776 41.151 -25.1 L 40.504 -26.099 L 40.22 -26.589 L 40.181 -26.589 L 38.976 -24.943 Q 38.878 -24.786 38.735 -24.585 Q 38.593 -24.384 38.593 -24.247 Q 38.593 -24.139 38.706 -24.056 Q 38.819 -23.973 39.25 -23.973 L 39.25 -23.61 L 36.869 -23.61 L 36.869 -23.973 Q 37.153 -23.982 37.344 -24.051 Q 37.535 -24.12 37.726 -24.316 Q 37.917 -24.512 38.201 -24.894 L 39.858 -27.05 L 38.407 -29.137 Q 38.113 -29.568 37.927 -29.779 Q 37.741 -29.99 37.545 -30.058 Q 37.349 -30.127 37.006 -30.127 L 37.006 -30.499 L 39.946 -30.499 L 39.946 -30.127 L 39.838 -30.127 Q 39.564 -30.127 39.466 -30.053 Q 39.368 -29.98 39.368 -29.823 Q 39.368 -29.735 39.421 -29.622 Q 39.475 -29.51 39.564 -29.372 L 40.132 -28.5 L 40.544 -27.785 L 40.593 -27.785 L 41.622 -29.265 Q 41.749 -29.48 41.827 -29.627 Q 41.906 -29.774 41.906 -29.882 Q 41.906 -30.009 41.778 -30.068 Q 41.651 -30.127 41.279 -30.127 L 41.279 -30.499 L 43.787 -30.499 L 43.787 -30.127 Q 43.444 -30.127 43.224 -30.058 Q 43.003 -29.99 42.802 -29.804 Q 42.602 -29.617 42.317 -29.235 L 40.867 -27.354 L 42.817 -24.59 Q 43.003 -24.335 43.15 -24.203 Q 43.297 -24.071 43.474 -24.026 Q 43.65 -23.982 43.915 -23.973 Z " fill="black" /><path d="M 58.497 -31.128 L 58.497 -31.128 L 50.153 -31.128 L 50.153 -32.08 L 58.497 -32.08 Z M 58.497 -28.272 L 58.497 -28.272 L 50.153 -28.272 L 50.153 -29.21 L 58.497 -29.21 Z " fill="black" /><path d="M 67.209 -33.088 L 67.209 -33.088 L 68.413 -33.088 Q 68.539 -33.676 68.686 -34.222 Q 68.833 -34.768 69.071 -35.202 Q 69.253 -35.538 69.519 -35.832 Q 69.785 -36.126 70.198 -36.315 Q 70.611 -36.504 71.213 -36.504 Q 71.857 -36.504 72.2 -36.217 Q 72.543 -35.93 72.543 -35.482 Q 72.543 -35.174 72.375 -35.02 Q 72.207 -34.866 71.983 -34.866 Q 71.703 -34.866 71.577 -35.027 Q 71.451 -35.188 71.423 -35.412 Q 71.381 -35.678 71.318 -35.888 Q 71.255 -36.098 71.003 -36.098 Q 70.471 -36.098 70.177 -35.538 Q 69.883 -34.978 69.729 -34.082 L 69.561 -33.088 L 70.891 -33.088 L 70.807 -32.514 L 69.491 -32.514 L 68.693 -27.74 Q 68.637 -27.376 68.518 -26.83 Q 68.399 -26.284 68.189 -25.689 Q 67.979 -25.094 67.678 -24.576 Q 67.377 -24.058 66.943 -23.729 Q 66.509 -23.4 65.935 -23.4 Q 65.263 -23.4 64.976 -23.722 Q 64.689 -24.044 64.689 -24.408 Q 64.689 -24.702 64.836 -24.898 Q 64.983 -25.094 65.249 -25.094 Q 65.571 -25.094 65.683 -24.905 Q 65.795 -24.716 65.823 -24.471 Q 65.851 -24.226 65.907 -24.037 Q 65.963 -23.848 66.159 -23.848 Q 66.439 -23.848 66.649 -24.212 Q 66.859 -24.576 67.013 -25.115 Q 67.167 -25.654 67.265 -26.186 Q 67.363 -26.718 67.419 -27.068 L 68.329 -32.514 L 67.153 -32.514 Z " fill="black" /><path d="M 76.279 -28.559 L 76.279 -28.559 L 75.897 -28.559 Q 75.809 -28.99 75.721 -29.269 Q 75.632 -29.549 75.495 -29.706 Q 75.358 -29.862 75.108 -29.931 Q 74.858 -30 74.437 -30 L 73.751 -30 L 73.751 -25.051 Q 73.751 -24.58 73.824 -24.355 Q 73.898 -24.129 74.118 -24.056 Q 74.339 -23.982 74.78 -23.982 L 74.78 -23.61 L 71.673 -23.61 L 71.673 -23.982 Q 72.124 -23.982 72.335 -24.056 Q 72.545 -24.129 72.614 -24.355 Q 72.683 -24.58 72.683 -25.051 L 72.683 -30 L 71.997 -30 Q 71.438 -30 71.169 -29.877 Q 70.899 -29.755 70.777 -29.441 Q 70.654 -29.127 70.536 -28.559 L 70.144 -28.559 L 70.262 -30.499 L 76.181 -30.499 Z " fill="black" /><path d="M 83.815 -23.61 L 83.815 -23.61 L 80.807 -23.61 L 80.807 -23.973 L 80.944 -23.973 Q 81.463 -23.973 81.463 -24.237 Q 81.463 -24.404 81.37 -24.59 Q 81.277 -24.776 81.052 -25.1 L 80.405 -26.099 L 80.121 -26.589 L 80.082 -26.589 L 78.876 -24.943 Q 78.778 -24.786 78.636 -24.585 Q 78.494 -24.384 78.494 -24.247 Q 78.494 -24.139 78.607 -24.056 Q 78.719 -23.973 79.151 -23.973 L 79.151 -23.61 L 76.769 -23.61 L 76.769 -23.973 Q 77.053 -23.982 77.245 -24.051 Q 77.436 -24.12 77.627 -24.316 Q 77.818 -24.512 78.102 -24.894 L 79.758 -27.05 L 78.308 -29.137 Q 78.014 -29.568 77.828 -29.779 Q 77.641 -29.99 77.445 -30.058 Q 77.249 -30.127 76.906 -30.127 L 76.906 -30.499 L 79.846 -30.499 L 79.846 -30.127 L 79.739 -30.127 Q 79.464 -30.127 79.366 -30.053 Q 79.268 -29.98 79.268 -29.823 Q 79.268 -29.735 79.322 -29.622 Q 79.376 -29.51 79.464 -29.372 L 80.033 -28.5 L 80.444 -27.785 L 80.493 -27.785 L 81.522 -29.265 Q 81.65 -29.48 81.728 -29.627 Q 81.806 -29.774 81.806 -29.882 Q 81.806 -30.009 81.679 -30.068 Q 81.552 -30.127 81.179 -30.127 L 81.179 -30.499 L 83.688 -30.499 L 83.688 -30.127 Q 83.345 -30.127 83.125 -30.058 Q 82.904 -29.99 82.703 -29.804 Q 82.502 -29.617 82.218 -29.235 L 80.768 -27.354 L 82.718 -24.59 Q 82.904 -24.335 83.051 -24.203 Q 83.198 -24.071 83.374 -24.026 Q 83.551 -23.982 83.815 -23.973 Z " fill="black" /></g></g></g><circle cx="112.32000000000001" cy="-0.0" r="4.32" style="stroke:black;fill:white;stroke-width:2.0;stroke-dasharray:-;" /><circle cx="139.68" cy="14.4" r="4.32" style="stroke:black;fill:white;stroke-width:2.0;stroke-dasharray:-;" /><circle cx="139.68" cy="-14.4" r="4.32" style="stroke:black;fill:white;stroke-width:2.0;stroke-dasharray:-;" /><g><g><g><path d="M 151.856 -59.4 L 151.856 -59.4 L 151.856 -68.598 L 154.81 -68.598 Q 155.762 -68.598 156.504 -68.346 Q 157.246 -68.094 157.666 -67.534 Q 158.086 -66.974 158.086 -66.022 Q 158.086 -64.916 157.512 -64.272 Q 156.938 -63.628 155.986 -63.404 L 158.366 -59.4 L 157.008 -59.4 L 154.754 -63.278 L 153.06 -63.278 L 153.06 -59.4 Z M 153.06 -64.244 L 153.06 -64.244 L 154.628 -64.244 Q 155.72 -64.244 156.308 -64.678 Q 156.896 -65.112 156.896 -66.008 Q 156.896 -66.904 156.308 -67.268 Q 155.72 -67.632 154.628 -67.632 L 153.06 -67.632 Z " fill="black" /><path d="M 158.968 -59.4 L 158.968 -59.4 L 161.698 -64.16 L 159.136 -68.598 L 160.452 -68.598 L 161.726 -66.26 Q 161.922 -65.952 162.083 -65.637 Q 162.244 -65.322 162.468 -64.916 L 162.524 -64.916 Q 162.72 -65.322 162.867 -65.637 Q 163.014 -65.952 163.182 -66.26 L 164.428 -68.598 L 165.688 -68.598 L 163.14 -64.09 L 165.87 -59.4 L 164.554 -59.4 L 163.182 -61.864 Q 162.972 -62.256 162.853 -62.473 Q 162.734 -62.69 162.664 -62.809 Q 162.594 -62.928 162.531 -63.04 Q 162.468 -63.152 162.37 -63.334 L 162.314 -63.334 Q 162.118 -62.914 161.936 -62.564 Q 161.754 -62.214 161.572 -61.864 L 160.228 -59.4 Z " fill="black" /></g></g></g><g><g><g><path d="M 247.572 -55.223 L 247.572 -55.223 L 247.25 -53.039 L 246.914 -53.039 Q 246.886 -53.851 246.543 -54.327 Q 246.2 -54.803 245.584 -54.803 Q 245.038 -54.803 244.8 -54.509 Q 244.562 -54.215 244.562 -53.907 Q 244.562 -53.613 244.765 -53.34 Q 244.968 -53.067 245.276 -52.78 Q 245.584 -52.493 245.892 -52.157 Q 246.34 -51.681 246.669 -51.226 Q 246.998 -50.771 246.998 -50.099 Q 246.998 -49.693 246.795 -49.294 Q 246.592 -48.895 246.13 -48.629 Q 245.668 -48.363 244.87 -48.363 Q 244.212 -48.363 243.813 -48.524 Q 243.414 -48.685 243.26 -48.741 L 243.218 -48.741 L 242.882 -48.363 L 242.574 -48.363 L 242.938 -50.701 L 243.288 -50.701 Q 243.4 -49.791 243.715 -49.315 Q 244.03 -48.839 244.744 -48.839 Q 245.234 -48.839 245.535 -49.077 Q 245.836 -49.315 245.836 -49.861 Q 245.836 -50.435 245.521 -50.834 Q 245.206 -51.233 244.8 -51.611 Q 244.52 -51.891 244.233 -52.157 Q 243.946 -52.423 243.757 -52.752 Q 243.568 -53.081 243.568 -53.515 Q 243.568 -54.229 244.044 -54.726 Q 244.52 -55.223 245.472 -55.223 Q 246.032 -55.223 246.403 -55.069 Q 246.774 -54.915 246.9 -54.845 L 246.942 -54.845 L 247.306 -55.223 Z " fill="black" /><path d="M 253.809 -50.653 L 253.809 -50.653 Q 253.809 -50.075 253.544 -49.713 Q 253.28 -49.35 252.873 -49.154 Q 252.466 -48.958 252.035 -48.86 L 252.035 -48.782 Q 252.182 -48.654 252.383 -48.419 Q 252.584 -48.184 252.927 -47.728 Q 253.27 -47.272 253.838 -46.488 Q 254.093 -46.145 254.314 -46.047 Q 254.534 -45.949 254.926 -45.949 L 254.926 -45.577 L 253.152 -45.577 Q 252.711 -46.214 252.413 -46.65 Q 252.114 -47.086 251.913 -47.385 Q 251.712 -47.684 251.56 -47.909 Q 251.408 -48.135 251.251 -48.37 Q 251.094 -48.566 250.996 -48.625 Q 250.898 -48.684 250.702 -48.684 L 250.291 -48.684 L 250.291 -46.939 Q 250.291 -46.508 250.369 -46.297 Q 250.448 -46.087 250.678 -46.018 Q 250.908 -45.949 251.359 -45.949 L 251.359 -45.577 L 248.282 -45.577 L 248.282 -45.949 Q 248.674 -45.949 248.885 -46.013 Q 249.095 -46.077 249.174 -46.292 Q 249.252 -46.508 249.252 -46.939 L 249.252 -51.271 Q 249.252 -51.584 249.188 -51.761 Q 249.125 -51.937 248.919 -52.016 Q 248.713 -52.094 248.282 -52.094 L 248.282 -52.466 L 251.006 -52.466 Q 251.771 -52.466 252.408 -52.314 Q 253.045 -52.163 253.427 -51.771 Q 253.809 -51.379 253.809 -50.653 Z M 250.291 -51.976 L 250.291 -51.976 L 250.291 -49.144 L 250.663 -49.144 Q 251.575 -49.144 252.128 -49.512 Q 252.682 -49.879 252.682 -50.693 Q 252.682 -51.996 251.075 -51.996 Q 250.879 -51.996 250.683 -51.991 Q 250.487 -51.986 250.291 -51.976 Z " fill="black" /><path d="M 262.168 -45.577 L 262.168 -45.577 L 259.16 -45.577 L 259.16 -45.94 L 259.297 -45.94 Q 259.816 -45.94 259.816 -46.204 Q 259.816 -46.371 259.723 -46.557 Q 259.63 -46.743 259.405 -47.067 L 258.758 -48.066 L 258.474 -48.556 L 258.435 -48.556 L 257.229 -46.91 Q 257.131 -46.753 256.989 -46.552 Q 256.847 -46.351 256.847 -46.214 Q 256.847 -46.106 256.96 -46.023 Q 257.072 -45.94 257.504 -45.94 L 257.504 -45.577 L 255.122 -45.577 L 255.122 -45.94 Q 255.406 -45.949 255.598 -46.018 Q 255.789 -46.087 255.98 -46.283 Q 256.171 -46.479 256.455 -46.861 L 258.111 -49.017 L 256.661 -51.104 Q 256.367 -51.535 256.181 -51.746 Q 255.994 -51.957 255.798 -52.025 Q 255.602 -52.094 255.259 -52.094 L 255.259 -52.466 L 258.199 -52.466 L 258.199 -52.094 L 258.092 -52.094 Q 257.817 -52.094 257.719 -52.02 Q 257.621 -51.947 257.621 -51.79 Q 257.621 -51.702 257.675 -51.589 Q 257.729 -51.477 257.817 -51.339 L 258.386 -50.467 L 258.797 -49.752 L 258.846 -49.752 L 259.875 -51.232 Q 260.003 -51.447 260.081 -51.594 Q 260.159 -51.741 260.159 -51.849 Q 260.159 -51.976 260.032 -52.035 Q 259.905 -52.094 259.532 -52.094 L 259.532 -52.466 L 262.041 -52.466 L 262.041 -52.094 Q 261.698 -52.094 261.478 -52.025 Q 261.257 -51.957 261.056 -51.771 Q 260.855 -51.584 260.571 -51.202 L 259.121 -49.321 L 261.071 -46.557 Q 261.257 -46.302 261.404 -46.17 Q 261.551 -46.038 261.727 -45.993 Q 261.904 -45.949 262.168 -45.94 Z " fill="black" /></g></g></g><g><g><g><path d="M 153.62 46.8 L 153.62 46.8 L 153.62 38.61 L 150.792 38.61 L 150.792 37.602 L 157.652 37.602 L 157.652 38.61 L 154.81 38.61 L 154.81 46.8 Z " fill="black" /><path d="M 158.296 46.8 L 158.296 46.8 L 161.026 42.04 L 158.464 37.602 L 159.78 37.602 L 161.054 39.94 Q 161.25 40.248 161.411 40.563 Q 161.572 40.878 161.796 41.284 L 161.852 41.284 Q 162.048 40.878 162.195 40.563 Q 162.342 40.248 162.51 39.94 L 163.756 37.602 L 165.016 37.602 L 162.468 42.11 L 165.198 46.8 L 163.882 46.8 L 162.51 44.336 Q 162.3 43.944 162.181 43.727 Q 162.062 43.51 161.992 43.391 Q 161.922 43.272 161.859 43.16 Q 161.796 43.048 161.698 42.866 L 161.642 42.866 Q 161.446 43.286 161.264 43.636 Q 161.082 43.986 160.9 44.336 L 159.556 46.8 Z " fill="black" /></g></g></g><g><g><g><path d="M 247.572 45.577 L 247.572 45.577 L 247.25 47.761 L 246.914 47.761 Q 246.886 46.949 246.543 46.473 Q 246.2 45.997 245.584 45.997 Q 245.038 45.997 244.8 46.291 Q 244.562 46.585 244.562 46.893 Q 244.562 47.187 244.765 47.46 Q 244.968 47.733 245.276 48.02 Q 245.584 48.307 245.892 48.643 Q 246.34 49.119 246.669 49.574 Q 246.998 50.029 246.998 50.701 Q 246.998 51.107 246.795 51.506 Q 246.592 51.905 246.13 52.171 Q 245.668 52.437 244.87 52.437 Q 244.212 52.437 243.813 52.276 Q 243.414 52.115 243.26 52.059 L 243.218 52.059 L 242.882 52.437 L 242.574 52.437 L 242.938 50.099 L 243.288 50.099 Q 243.4 51.009 243.715 51.485 Q 244.03 51.961 244.744 51.961 Q 245.234 51.961 245.535 51.723 Q 245.836 51.485 245.836 50.939 Q 245.836 50.365 245.521 49.966 Q 245.206 49.567 244.8 49.189 Q 244.52 48.909 244.233 48.643 Q 243.946 48.377 243.757 48.048 Q 243.568 47.719 243.568 47.285 Q 243.568 46.571 244.044 46.074 Q 244.52 45.577 245.472 45.577 Q 246.032 45.577 246.403 45.731 Q 246.774 45.885 246.9 45.955 L 246.942 45.955 L 247.306 45.577 Z " fill="black" /><path d="M 254.123 50.274 L 254.123 50.274 L 253.74 50.274 Q 253.652 49.843 253.564 49.563 Q 253.476 49.284 253.339 49.127 Q 253.201 48.971 252.952 48.902 Q 252.702 48.833 252.28 48.833 L 251.594 48.833 L 251.594 53.782 Q 251.594 54.253 251.668 54.478 Q 251.741 54.704 251.962 54.777 Q 252.182 54.851 252.623 54.851 L 252.623 55.223 L 249.517 55.223 L 249.517 54.851 Q 249.967 54.851 250.178 54.777 Q 250.389 54.704 250.457 54.478 Q 250.526 54.253 250.526 53.782 L 250.526 48.833 L 249.84 48.833 Q 249.281 48.833 249.012 48.956 Q 248.742 49.078 248.62 49.392 Q 248.497 49.706 248.38 50.274 L 247.988 50.274 L 248.105 48.334 L 254.025 48.334 Z " fill="black" /><path d="M 261.659 55.223 L 261.659 55.223 L 258.65 55.223 L 258.65 54.86 L 258.787 54.86 Q 259.307 54.86 259.307 54.596 Q 259.307 54.429 259.214 54.243 Q 259.121 54.057 258.895 53.733 L 258.248 52.734 L 257.964 52.244 L 257.925 52.244 L 256.72 53.89 Q 256.622 54.047 256.48 54.248 Q 256.337 54.449 256.337 54.586 Q 256.337 54.694 256.45 54.777 Q 256.563 54.86 256.994 54.86 L 256.994 55.223 L 254.613 55.223 L 254.613 54.86 Q 254.897 54.851 255.088 54.782 Q 255.279 54.713 255.47 54.517 Q 255.661 54.321 255.945 53.939 L 257.602 51.783 L 256.151 49.696 Q 255.857 49.265 255.671 49.054 Q 255.485 48.843 255.289 48.775 Q 255.093 48.706 254.75 48.706 L 254.75 48.334 L 257.69 48.334 L 257.69 48.706 L 257.582 48.706 Q 257.308 48.706 257.21 48.779 Q 257.112 48.853 257.112 49.01 Q 257.112 49.098 257.166 49.211 Q 257.219 49.323 257.308 49.461 L 257.876 50.333 L 258.288 51.048 L 258.337 51.048 L 259.366 49.568 Q 259.493 49.353 259.571 49.206 Q 259.65 49.059 259.65 48.951 Q 259.65 48.824 259.522 48.765 Q 259.395 48.706 259.023 48.706 L 259.023 48.334 L 261.531 48.334 L 261.531 48.706 Q 261.188 48.706 260.968 48.775 Q 260.747 48.843 260.547 49.029 Q 260.346 49.216 260.061 49.598 L 258.611 51.479 L 260.561 54.243 Q 260.747 54.498 260.894 54.63 Q 261.041 54.762 261.218 54.806 Q 261.394 54.851 261.659 54.86 Z " fill="black" /></g></g></g></svg>