<svg xmlns="http://www.w3.org/2000/svg" xmlns:xlink="http://www.w3.org/1999/xlink" xml:lang="en" height="302.37800000000004pt" width="312.8446pt" viewBox="-173.34640000000002 -256.738 312.8446 302.37800000000004"><circle cx="7.715274834628325e-15" cy="-185.99999999999997" r="18.0" style="stroke:black;fill:none;stroke-width:2.0;stroke-dasharray:-;" /><path d="M 0.0,-0.0 L 0.0,-14.999999999999995 L -14.999999999999998,-14.999999999999995 L -14.999999999999998,-45.0 L 0.0,-45.0 L 0.0,-59.99999999999999" style="stroke:black;fill:none;stroke-width:2.0;stroke-dasharray:-;stroke-linecap:round;stroke-linejoin:round;" /><path d="M -9.0,-14.999999999999996 L -14.999999999999998,-14.999999999999995" style="stroke:black;fill:none;stroke-width:2.0;stroke-dasharray:-;stroke-linecap:round;stroke-linejoin:round;" /><path d="M -2.0 -14.999999999999995 L -9.0 -10.499999999999995 L -9.0 -19.499999999999993 Z" style="stroke:black;fill:black;stroke-linecap:butt;stroke-linejoin:miter;" /><path d="M -17.999999999999996,-17.999999999999993 L -17.999999999999996,-41.99999999999999" style="stroke:black;fill:none;stroke-width:2.0;stroke-dasharray:-;stroke-linecap:round;stroke-linejoin:round;" /><path d="M -32.99999999999999,-29.999999999999996 L -17.999999999999996,-29.999999999999996" style="stroke:black;fill:none;stroke-width:2.0;stroke-dasharray:-;stroke-linecap:round;stroke-linejoin:round;" /><path d="M 0.0,-59.99999999999999 L 1.102182119232618e-15,-78.0 L 2.204364238465236e-15,-96.0" style="stroke:black;fill:none;stroke-width:2.0;stroke-dasharray:-;stroke-linecap:round;stroke-linejoin:round;" /><path d="M 0.0,-0.0 L -1.6532731788489267e-15,9.0 L -3.3065463576978533e-15,18.0" style="stroke:black;fill:none;stroke-width:2.0;stroke-dasharray:-;stroke-linecap:round;stroke-linejoin:round;" /><path d="M -3.3065463576978533e-15,18.0 L -3.3065463576978533e-15,32.4 L -9.000000000000004,32.4 L 8.999999999999996,32.4 M -6.3000000000000025,36.72 L 6.299999999999996,36.72 M -1.8000000000000034,41.040000000000006 L 1.799999999999997,41.040000000000006" style="stroke:black;fill:none;stroke-width:2.0;stroke-dasharray:-;stroke-linecap:round;stroke-linejoin:round;" /><path d="M -32.99999999999999,-29.999999999999996 L -59.99999999999999,-30.0 L -87.0,-30.000000000000007" style="stroke:black;fill:none;stroke-width:2.0;stroke-dasharray:-;stroke-linecap:round;stroke-linejoin:round;" /><path d="M -87.0,-30.000000000000007 L -87.0,-63.0 L -87.0,-96.0" style="stroke:black;fill:none;stroke-width:2.0;stroke-dasharray:-;stroke-linecap:round;stroke-linejoin:round;" /><path d="M -87.0,-96.0 L -61.5,-96.0 L -58.5,-105.0 L -52.5,-87.0 L -46.49999999999999,-105.0 L -40.5,-87.0 L -34.5,-105.0 L -28.499999999999993,-87.0 L -25.499999999999996,-96.0 L 0.0,-96.0" style="stroke:black;fill:none;stroke-width:2.0;stroke-dasharray:-;stroke-linecap:round;stroke-linejoin:round;" /><path d="M 2.204364238465236e-15,-96.0 L 3.857637417314163e-15,-123.0 L 5.510910596163089e-15,-149.99999999999997" style="stroke:black;fill:none;stroke-width:2.0;stroke-dasharray:-;stroke-linecap:round;stroke-linejoin:round;" /><path d="M 5.510910596163089e-15,-149.99999999999997 L 6.613092715395707e-15,-167.99999999999997 L 6.613092715395707e-15,-167.99999999999997 M 8.817456953860942e-15,-203.99999999999997 L 8.817456953860942e-15,-203.99999999999997 L 9.919639073093561e-15,-221.99999999999997" style="stroke:black;fill:none;stroke-width:2.0;stroke-dasharray:-;stroke-linecap:round;stroke-linejoin:round;" /><path d="M 7.715274834628324e-15,-185.99999999999997 L 8.266365894244634e-15,-194.99999999999997" style="stroke:black;fill:none;stroke-width:2.0;stroke-dasharray:-;stroke-linecap:round;stroke-linejoin:round;" /><path d="M 7.485808304947343e-15 -178.99999999999997 L -2.699999999999991 -185.99999999999997 L 2.7000000000000086 -185.99999999999997 Z" style="stroke:black;fill:black;stroke-linecap:butt;stroke-linejoin:miter;" /><path d="M 9.919639073093561e-15,-221.99999999999997 L 9.919639073093561e-15,-236.39999999999998" style="stroke:black;fill:none;stroke-width:2.0;stroke-dasharray:-;stroke-linecap:round;stroke-linejoin:round;" /><path d="M 9.919639073093561e-15,-236.39999999999998 L -6.74999999999999,-236.39999999999998" style="stroke:black;fill:none;stroke-width:2.0;stroke-dasharray:-;stroke-linecap:round;stroke-linejoin:round;" /><path d="M 9.919639073093561e-15,-236.39999999999998 L 6.75000000000001,-236.39999999999998" style="stroke:black;fill:none;stroke-width:2.0;stroke-dasharray:-;stroke-linecap:round;stroke-linejoin:round;" /><path d="M 5.510910596163089e-15,-149.99999999999997 L 36.00000000000001,-149.99999999999997 L 72.0,-149.99999999999997" style="stroke:black;fill:none;stroke-width:2.0;stroke-dasharray:-;stroke-linecap:round;stroke-linejoin:round;" /><path d="M 72.0,-149.99999999999997 L 90.0,-149.99999999999997 L 108.0,-149.99999999999997" style="stroke:black;fill:none;stroke-width:2.0;stroke-dasharray:-;stroke-linecap:round;stroke-linejoin:round;" /><path d="M 72.0,-149.99999999999997 L 71.99999999999999,-69.23999999999998 M 80.99999999999999,-69.23999999999998 L 62.999999999999986,-69.23999999999998 M 80.99999999999999,-62.75999999999998 L 62.999999999999986,-62.75999999999998 M 71.99999999999999,-62.75999999999998 L 71.99999999999997,18.0" style="stroke:black;fill:none;stroke-width:2.0;stroke-dasharray:-;stroke-linecap:round;stroke-linejoin:round;" /><path d="M 71.99999999999997,18.0 L 71.99999999999997,32.4 L 62.99999999999997,32.4 L 80.99999999999997,32.4 M 65.69999999999996,36.72 L 78.29999999999995,36.72 M 70.19999999999996,41.040000000000006 L 73.79999999999995,41.040000000000006" style="stroke:black;fill:none;stroke-width:2.0;stroke-dasharray:-;stroke-linecap:round;stroke-linejoin:round;" /><path d="M 5.510910596163089e-15,-149.99999999999997 L -71.99999999999999,-149.99999999999997 L -144.0,-150.0" style="stroke:black;fill:none;stroke-width:2.0;stroke-dasharray:-;stroke-linecap:round;stroke-linejoin:round;" /><path d="M -144.0,-150.0 L -144.0,-97.2 M -135.00000000000003,-97.2 L -153.0,-97.2 M -135.00000000000003,-93.6 L -153.0,-93.6 L -153.0,-86.39999999999999 L -135.00000000000003,-86.39999999999999 L -135.00000000000003,-93.6 M -135.00000000000003,-82.8 L -153.0,-82.8 M -144.0,-82.8 L -144.00000000000003,-29.99999999999999" style="stroke:black;fill:none;stroke-width:2.0;stroke-dasharray:-;stroke-linecap:round;stroke-linejoin:round;" /><path d="M -144.00000000000003,-29.99999999999999 L -115.50000000000003,-29.99999999999999 L -87.0,-29.99999999999999" style="stroke:black;fill:none;stroke-width:2.0;stroke-dasharray:-;stroke-linecap:round;stroke-linejoin:round;" /><path d="M -144.00000000000003,-29.99999999999999 L -144.00000000000003,-9.239999999999993 M -135.00000000000003,-9.239999999999993 L -153.00000000000003,-9.239999999999993 M -135.00000000000003,-2.759999999999992 L -153.00000000000003,-2.759999999999992 M -144.00000000000003,-2.759999999999992 L -144.00000000000003,18.0" style="stroke:black;fill:none;stroke-width:2.0;stroke-dasharray:-;stroke-linecap:round;stroke-linejoin:round;" /><path d="M -144.00000000000003,18.0 L -144.00000000000003,32.4 L -153.00000000000003,32.4 L -135.00000000000003,32.4 M -150.3,36.72 L -137.70000000000005,36.72 M -145.8,41.040000000000006 L -142.20000000000005,41.040000000000006" style="stroke:black;fill:none;stroke-width:2.0;stroke-dasharray:-;stroke-linecap:round;stroke-linejoin:round;" /><g><g><g><path d="M 14.926 -26.871 L 14.926 -26.871 L 11.188 -26.871 L 11.272 -27.291 Q 11.79 -27.291 12.063 -27.389 Q 12.336 -27.487 12.476 -27.76 Q 12.616 -28.033 12.714 -28.537 L 13.96 -34.585 L 13.904 -34.585 L 9.2 -26.871 L 8.892 -26.871 L 7.198 -34.571 L 7.142 -34.571 L 5.98 -28.915 Q 5.84 -28.201 5.861 -27.851 Q 5.882 -27.501 6.134 -27.396 Q 6.386 -27.291 6.918 -27.291 L 6.834 -26.871 L 3.6 -26.871 L 3.684 -27.291 Q 4.23 -27.291 4.524 -27.396 Q 4.818 -27.501 4.986 -27.851 Q 5.154 -28.201 5.294 -28.915 L 6.4 -34.361 Q 6.512 -34.893 6.47 -35.166 Q 6.428 -35.439 6.169 -35.544 Q 5.91 -35.649 5.35 -35.649 L 5.434 -36.069 L 8.234 -36.069 L 9.746 -28.985 L 9.802 -28.985 L 14.072 -36.069 L 16.718 -36.069 L 16.634 -35.649 Q 16.144 -35.649 15.857 -35.544 Q 15.57 -35.439 15.416 -35.166 Q 15.262 -34.893 15.15 -34.375 L 13.96 -28.537 Q 13.806 -27.767 14.037 -27.529 Q 14.268 -27.291 15.01 -27.291 Z " fill="black" /><path d="M 20.952 -23.931 L 20.952 -23.931 L 17.629 -23.931 L 17.629 -24.284 Q 18.335 -24.284 18.565 -24.426 Q 18.796 -24.568 18.796 -24.94 L 18.796 -29.213 Q 18.796 -29.478 18.717 -29.595 Q 18.639 -29.713 18.433 -29.713 Q 18.276 -29.713 18.007 -29.669 Q 17.737 -29.625 17.541 -29.576 L 17.541 -29.968 L 19.354 -30.468 L 19.776 -30.468 L 19.776 -24.94 Q 19.776 -24.568 20.026 -24.426 Q 20.275 -24.284 20.952 -24.284 Z " fill="black" /></g></g></g><circle cx="2.204364238465236e-15" cy="-96.0" r="2.6999999999999997" style="stroke:black;fill:black;stroke-width:2.0;stroke-dasharray:-;" /><circle cx="-87.0" cy="-30.000000000000007" r="2.6999999999999997" style="stroke:black;fill:black;stroke-width:2.0;stroke-dasharray:-;" /><g><g><g><path d="M -61.651 -118.933 L -61.651 -118.933 Q -61.651 -118.191 -61.931 -117.687 Q -62.211 -117.183 -62.659 -116.861 Q -63.107 -116.539 -63.618 -116.364 Q -64.129 -116.189 -64.591 -116.105 L -64.591 -116.035 Q -64.339 -115.867 -64.115 -115.524 Q -63.891 -115.181 -63.562 -114.537 Q -63.233 -113.893 -62.659 -112.801 Q -62.421 -112.381 -62.134 -112.234 Q -61.847 -112.087 -61.371 -112.087 L -61.455 -111.667 L -63.583 -111.667 Q -63.975 -112.535 -64.241 -113.116 Q -64.507 -113.697 -64.703 -114.089 Q -64.899 -114.481 -65.046 -114.789 Q -65.193 -115.097 -65.361 -115.419 Q -65.515 -115.713 -65.697 -115.804 Q -65.879 -115.895 -66.257 -115.895 L -66.551 -115.895 L -67.069 -113.403 Q -67.181 -112.829 -67.146 -112.542 Q -67.111 -112.255 -66.831 -112.171 Q -66.551 -112.087 -65.949 -112.087 L -66.019 -111.667 L -69.883 -111.667 L -69.799 -112.087 Q -69.281 -112.087 -69.001 -112.171 Q -68.721 -112.255 -68.574 -112.535 Q -68.427 -112.815 -68.315 -113.403 L -67.083 -119.409 Q -66.999 -119.801 -67.041 -120.025 Q -67.083 -120.249 -67.328 -120.347 Q -67.573 -120.445 -68.133 -120.445 L -68.049 -120.865 L -64.759 -120.865 Q -63.289 -120.865 -62.47 -120.41 Q -61.651 -119.955 -61.651 -118.933 Z M -65.669 -120.277 L -65.669 -120.277 L -66.453 -116.413 L -66.019 -116.399 Q -65.179 -116.427 -64.5 -116.672 Q -63.821 -116.917 -63.429 -117.449 Q -63.037 -117.981 -63.037 -118.877 Q -63.037 -119.255 -63.198 -119.584 Q -63.359 -119.913 -63.751 -120.116 Q -64.143 -120.319 -64.843 -120.319 Q -65.109 -120.319 -65.27 -120.312 Q -65.431 -120.305 -65.669 -120.277 Z " fill="black" /><path d="M -58.679 -116.048 L -58.679 -116.048 L -58.679 -113.01 L -58.63 -113.01 Q -58.346 -113.343 -57.959 -113.608 Q -57.572 -113.872 -57.023 -113.872 Q -56.513 -113.872 -56.097 -113.564 Q -55.68 -113.255 -55.43 -112.711 Q -55.181 -112.167 -55.181 -111.462 Q -55.181 -110.521 -55.524 -109.884 Q -55.867 -109.247 -56.459 -108.928 Q -57.052 -108.61 -57.807 -108.61 Q -58.248 -108.61 -58.62 -108.683 Q -58.993 -108.757 -59.252 -108.855 Q -59.512 -108.953 -59.63 -109.002 L -59.63 -114.882 Q -59.63 -115.244 -59.708 -115.347 Q -59.787 -115.45 -60.12 -115.45 Q -60.228 -115.45 -60.321 -115.436 Q -60.414 -115.421 -60.414 -115.421 L -60.414 -115.793 L -59.081 -116.048 Z M -58.679 -112.5 L -58.679 -112.5 L -58.679 -109.56 Q -58.562 -109.345 -58.307 -109.217 Q -58.052 -109.09 -57.631 -109.09 Q -57.111 -109.09 -56.798 -109.369 Q -56.484 -109.649 -56.342 -110.114 Q -56.2 -110.58 -56.2 -111.128 Q -56.2 -111.628 -56.312 -112.084 Q -56.425 -112.54 -56.709 -112.824 Q -56.994 -113.108 -57.493 -113.108 Q -57.758 -113.108 -57.998 -113.005 Q -58.238 -112.902 -58.415 -112.76 Q -58.591 -112.618 -58.679 -112.5 Z " fill="black" /><path d="M -51.604 -109.09 L -51.604 -109.09 L -51.604 -108.727 L -54.093 -108.727 L -54.093 -109.09 Q -53.75 -109.09 -53.598 -109.163 Q -53.446 -109.237 -53.407 -109.399 Q -53.368 -109.56 -53.368 -109.825 L -53.368 -112.785 Q -53.368 -113.118 -53.475 -113.186 Q -53.583 -113.255 -53.838 -113.255 Q -53.965 -113.255 -54.044 -113.245 Q -54.122 -113.235 -54.122 -113.235 L -54.122 -113.627 L -52.809 -113.843 L -52.407 -113.843 L -52.407 -109.825 Q -52.407 -109.541 -52.363 -109.379 Q -52.319 -109.217 -52.147 -109.154 Q -51.976 -109.09 -51.604 -109.09 Z M -52.897 -116.009 L -52.897 -116.009 Q -52.613 -116.009 -52.422 -115.813 Q -52.231 -115.617 -52.231 -115.362 Q -52.231 -115.127 -52.422 -114.931 Q -52.613 -114.735 -52.897 -114.735 Q -53.172 -114.735 -53.353 -114.931 Q -53.534 -115.127 -53.534 -115.362 Q -53.534 -115.617 -53.353 -115.813 Q -53.172 -116.009 -52.897 -116.009 Z " fill="black" /><path d="M -47.684 -109.345 L -47.684 -109.345 L -47.752 -109.345 Q -48.085 -109.07 -48.487 -108.865 Q -48.889 -108.659 -49.359 -108.659 Q -49.977 -108.659 -50.305 -109.031 Q -50.633 -109.404 -50.633 -109.933 Q -50.633 -110.384 -50.423 -110.687 Q -50.212 -110.991 -49.874 -111.182 Q -49.536 -111.373 -49.144 -111.491 Q -48.752 -111.609 -48.389 -111.677 Q -48.027 -111.746 -47.782 -111.805 L -47.782 -112.314 Q -47.782 -112.971 -48.041 -113.221 Q -48.301 -113.471 -48.801 -113.471 Q -49.105 -113.471 -49.237 -113.392 Q -49.369 -113.314 -49.403 -113.137 Q -49.438 -112.961 -49.448 -112.677 Q -49.457 -112.461 -49.575 -112.329 Q -49.693 -112.197 -49.918 -112.197 Q -50.134 -112.197 -50.285 -112.329 Q -50.437 -112.461 -50.437 -112.716 Q -50.437 -113.02 -50.202 -113.284 Q -49.967 -113.549 -49.531 -113.711 Q -49.095 -113.872 -48.507 -113.872 Q -47.625 -113.872 -47.228 -113.466 Q -46.831 -113.059 -46.831 -112.246 L -46.831 -109.845 Q -46.831 -109.521 -46.757 -109.428 Q -46.684 -109.335 -46.527 -109.335 Q -46.361 -109.335 -46.238 -109.404 Q -46.116 -109.472 -46.008 -109.6 L -45.792 -109.394 Q -46.302 -108.669 -46.988 -108.669 Q -47.37 -108.669 -47.512 -108.85 Q -47.654 -109.031 -47.684 -109.345 Z M -47.782 -109.707 L -47.782 -109.707 L -47.782 -111.432 Q -48.232 -111.315 -48.664 -111.172 Q -49.095 -111.03 -49.374 -110.785 Q -49.653 -110.54 -49.653 -110.099 Q -49.653 -109.717 -49.433 -109.497 Q -49.212 -109.276 -48.869 -109.276 Q -48.664 -109.276 -48.374 -109.369 Q -48.085 -109.462 -47.782 -109.707 Z " fill="black" /><path d="M -45.116 -110.511 L -45.116 -110.511 L -44.802 -110.511 Q -44.675 -109.943 -44.499 -109.629 Q -44.322 -109.315 -44.043 -109.193 Q -43.764 -109.07 -43.362 -109.07 Q -42.901 -109.07 -42.651 -109.222 Q -42.401 -109.374 -42.401 -109.756 Q -42.401 -110.011 -42.524 -110.183 Q -42.646 -110.354 -42.916 -110.511 Q -43.185 -110.668 -43.636 -110.874 Q -44.097 -111.099 -44.425 -111.295 Q -44.753 -111.491 -44.925 -111.756 Q -45.096 -112.02 -45.096 -112.422 Q -45.096 -113.128 -44.621 -113.5 Q -44.146 -113.872 -43.43 -113.872 Q -42.999 -113.872 -42.7 -113.765 Q -42.401 -113.657 -42.225 -113.578 L -42.205 -113.578 L -42.049 -113.823 L -41.774 -113.823 L -41.755 -112.197 L -42.098 -112.197 Q -42.284 -112.951 -42.617 -113.211 Q -42.95 -113.471 -43.381 -113.471 Q -43.832 -113.471 -44.062 -113.275 Q -44.293 -113.079 -44.293 -112.765 Q -44.293 -112.51 -44.136 -112.344 Q -43.979 -112.177 -43.69 -112.035 Q -43.401 -111.893 -42.999 -111.697 Q -42.548 -111.481 -42.205 -111.251 Q -41.862 -111.021 -41.666 -110.731 Q -41.47 -110.442 -41.47 -110.011 Q -41.47 -109.492 -41.745 -109.178 Q -42.019 -108.865 -42.45 -108.732 Q -42.882 -108.6 -43.352 -108.6 Q -43.832 -108.6 -44.097 -108.698 Q -44.361 -108.796 -44.587 -108.884 L -44.626 -108.884 L -44.871 -108.629 L -45.096 -108.629 Z " fill="black" /><path d="M -22.776 -115.237 L -22.776 -115.237 L -30.883 -111.289 L -30.883 -112.199 L -24.694 -115.293 L -30.883 -118.359 L -30.883 -119.297 L -22.776 -115.377 Z M -27.34 -115.237 L -27.34 -115.237 L -35.447 -111.289 L -35.447 -112.199 L -29.245 -115.293 L -35.447 -118.359 L -35.447 -119.297 L -27.34 -115.377 Z " fill="black" /></g></g></g><circle cx="5.510910596163089e-15" cy="-149.99999999999997" r="2.6999999999999997" style="stroke:black;fill:black;stroke-width:2.0;stroke-dasharray:-;" /><g><g><g><path d="M -45.603 -184.769 L -45.603 -184.769 L -44.455 -190.285 Q -44.329 -190.831 -44.336 -191.146 Q -44.343 -191.461 -44.595 -191.587 Q -44.847 -191.713 -45.491 -191.713 L -45.407 -192.133 L -41.529 -192.133 L -41.613 -191.713 Q -42.229 -191.713 -42.537 -191.587 Q -42.845 -191.461 -42.971 -191.146 Q -43.097 -190.831 -43.209 -190.285 L -44.357 -184.713 Q -44.399 -184.489 -44.427 -184.307 Q -44.455 -184.125 -44.455 -183.971 Q -44.455 -183.579 -44.224 -183.467 Q -43.993 -183.355 -43.335 -183.355 L -43.419 -182.935 L -47.241 -182.935 L -47.157 -183.355 Q -46.583 -183.355 -46.296 -183.453 Q -46.009 -183.551 -45.869 -183.852 Q -45.729 -184.153 -45.603 -184.769 Z " fill="black" /><path d="M -39.481 -187.315 L -39.481 -187.315 L -39.481 -184.277 L -39.432 -184.277 Q -39.148 -184.61 -38.76 -184.875 Q -38.373 -185.14 -37.825 -185.14 Q -37.315 -185.14 -36.898 -184.831 Q -36.482 -184.522 -36.232 -183.978 Q -35.982 -183.434 -35.982 -182.729 Q -35.982 -181.788 -36.325 -181.151 Q -36.668 -180.514 -37.261 -180.196 Q -37.854 -179.877 -38.609 -179.877 Q -39.05 -179.877 -39.422 -179.951 Q -39.794 -180.024 -40.054 -180.122 Q -40.314 -180.22 -40.431 -180.269 L -40.431 -186.149 Q -40.431 -186.512 -40.51 -186.615 Q -40.588 -186.717 -40.921 -186.717 Q -41.029 -186.717 -41.122 -186.703 Q -41.215 -186.688 -41.215 -186.688 L -41.215 -187.06 L -39.883 -187.315 Z M -39.481 -183.768 L -39.481 -183.768 L -39.481 -180.828 Q -39.363 -180.612 -39.108 -180.485 Q -38.854 -180.357 -38.432 -180.357 Q -37.913 -180.357 -37.599 -180.637 Q -37.286 -180.916 -37.143 -181.381 Q -37.001 -181.847 -37.001 -182.396 Q -37.001 -182.895 -37.114 -183.351 Q -37.227 -183.807 -37.511 -184.091 Q -37.795 -184.375 -38.295 -184.375 Q -38.56 -184.375 -38.8 -184.272 Q -39.04 -184.169 -39.216 -184.027 Q -39.393 -183.885 -39.481 -183.768 Z " fill="black" /><path d="M -32.405 -180.357 L -32.405 -180.357 L -32.405 -179.995 L -34.894 -179.995 L -34.894 -180.357 Q -34.551 -180.357 -34.399 -180.431 Q -34.248 -180.504 -34.208 -180.666 Q -34.169 -180.828 -34.169 -181.092 L -34.169 -184.052 Q -34.169 -184.385 -34.277 -184.454 Q -34.385 -184.522 -34.64 -184.522 Q -34.767 -184.522 -34.845 -184.512 Q -34.924 -184.503 -34.924 -184.503 L -34.924 -184.895 L -33.611 -185.11 L -33.209 -185.11 L -33.209 -181.092 Q -33.209 -180.808 -33.165 -180.646 Q -33.121 -180.485 -32.949 -180.421 Q -32.778 -180.357 -32.405 -180.357 Z M -33.699 -187.276 L -33.699 -187.276 Q -33.415 -187.276 -33.223 -187.08 Q -33.032 -186.884 -33.032 -186.629 Q -33.032 -186.394 -33.223 -186.198 Q -33.415 -186.002 -33.699 -186.002 Q -33.973 -186.002 -34.154 -186.198 Q -34.336 -186.394 -34.336 -186.629 Q -34.336 -186.884 -34.154 -187.08 Q -33.973 -187.276 -33.699 -187.276 Z " fill="black" /><path d="M -28.485 -180.612 L -28.485 -180.612 L -28.554 -180.612 Q -28.887 -180.338 -29.289 -180.132 Q -29.691 -179.926 -30.161 -179.926 Q -30.778 -179.926 -31.107 -180.298 Q -31.435 -180.671 -31.435 -181.2 Q -31.435 -181.651 -31.224 -181.955 Q -31.014 -182.258 -30.675 -182.45 Q -30.337 -182.641 -29.945 -182.758 Q -29.553 -182.876 -29.191 -182.944 Q -28.828 -183.013 -28.583 -183.072 L -28.583 -183.581 Q -28.583 -184.238 -28.843 -184.488 Q -29.103 -184.738 -29.602 -184.738 Q -29.906 -184.738 -30.038 -184.659 Q -30.171 -184.581 -30.205 -184.405 Q -30.239 -184.228 -30.249 -183.944 Q -30.259 -183.728 -30.377 -183.596 Q -30.494 -183.464 -30.72 -183.464 Q -30.935 -183.464 -31.087 -183.596 Q -31.239 -183.728 -31.239 -183.983 Q -31.239 -184.287 -31.004 -184.552 Q -30.769 -184.816 -30.332 -184.978 Q -29.896 -185.14 -29.308 -185.14 Q -28.426 -185.14 -28.029 -184.733 Q -27.633 -184.326 -27.633 -183.513 L -27.633 -181.112 Q -27.633 -180.788 -27.559 -180.695 Q -27.486 -180.602 -27.329 -180.602 Q -27.162 -180.602 -27.04 -180.671 Q -26.917 -180.739 -26.809 -180.867 L -26.594 -180.661 Q -27.103 -179.936 -27.789 -179.936 Q -28.172 -179.936 -28.314 -180.117 Q -28.456 -180.298 -28.485 -180.612 Z M -28.583 -180.975 L -28.583 -180.975 L -28.583 -182.699 Q -29.034 -182.582 -29.465 -182.44 Q -29.896 -182.298 -30.176 -182.053 Q -30.455 -181.808 -30.455 -181.367 Q -30.455 -180.984 -30.234 -180.764 Q -30.014 -180.543 -29.671 -180.543 Q -29.465 -180.543 -29.176 -180.637 Q -28.887 -180.73 -28.583 -180.975 Z " fill="black" /><path d="M -25.918 -181.778 L -25.918 -181.778 L -25.604 -181.778 Q -25.477 -181.21 -25.3 -180.896 Q -25.124 -180.583 -24.844 -180.46 Q -24.565 -180.338 -24.163 -180.338 Q -23.703 -180.338 -23.453 -180.49 Q -23.203 -180.641 -23.203 -181.024 Q -23.203 -181.278 -23.325 -181.45 Q -23.448 -181.621 -23.717 -181.778 Q -23.987 -181.935 -24.438 -182.141 Q -24.898 -182.366 -25.227 -182.562 Q -25.555 -182.758 -25.726 -183.023 Q -25.898 -183.287 -25.898 -183.689 Q -25.898 -184.395 -25.423 -184.767 Q -24.947 -185.14 -24.232 -185.14 Q -23.801 -185.14 -23.502 -185.032 Q -23.203 -184.924 -23.027 -184.846 L -23.007 -184.846 L -22.85 -185.091 L -22.576 -185.091 L -22.556 -183.464 L -22.899 -183.464 Q -23.085 -184.218 -23.419 -184.478 Q -23.752 -184.738 -24.183 -184.738 Q -24.634 -184.738 -24.864 -184.542 Q -25.094 -184.346 -25.094 -184.032 Q -25.094 -183.777 -24.938 -183.611 Q -24.781 -183.444 -24.492 -183.302 Q -24.203 -183.16 -23.801 -182.964 Q -23.35 -182.748 -23.007 -182.518 Q -22.664 -182.288 -22.468 -181.999 Q -22.272 -181.71 -22.272 -181.278 Q -22.272 -180.759 -22.546 -180.445 Q -22.821 -180.132 -23.252 -180 Q -23.683 -179.867 -24.154 -179.867 Q -24.634 -179.867 -24.898 -179.965 Q -25.163 -180.063 -25.388 -180.151 L -25.428 -180.151 L -25.673 -179.897 L -25.898 -179.897 Z " fill="black" /></g></g></g><g><g><g><path d="M -8.147 -244.69 L -8.147 -244.69 L -4.325 -250.43 Q -4.129 -250.71 -4.01 -250.948 Q -3.891 -251.186 -3.891 -251.354 Q -3.891 -251.564 -4.073 -251.641 Q -4.255 -251.718 -4.731 -251.718 L -4.703 -252.138 L -1.679 -252.138 L -1.707 -251.718 Q -2.085 -251.718 -2.351 -251.606 Q -2.617 -251.494 -2.89 -251.179 Q -3.163 -250.864 -3.597 -250.22 L -8.735 -242.87 L -9.197 -242.87 L -9.981 -250.444 Q -10.065 -251.144 -10.289 -251.431 Q -10.513 -251.718 -11.073 -251.718 L -11.045 -252.138 L -7.615 -252.138 L -7.657 -251.718 Q -8.189 -251.718 -8.497 -251.508 Q -8.805 -251.298 -8.777 -250.822 Q -8.777 -250.752 -8.756 -250.57 Q -8.735 -250.388 -8.735 -250.318 L -8.315 -246.328 L -8.217 -244.69 Z " fill="black" /><path d="M -2.782 -246.889 L -2.782 -246.889 L 0.188 -246.889 Q 0.972 -246.889 1.687 -246.718 Q 2.402 -246.546 2.966 -246.154 Q 3.529 -245.762 3.858 -245.106 Q 4.186 -244.449 4.186 -243.469 Q 4.186 -242.548 3.887 -241.886 Q 3.588 -241.225 3.049 -240.808 Q 2.51 -240.392 1.795 -240.196 Q 1.079 -240 0.246 -240 L -2.782 -240 L -2.782 -240.372 Q -2.321 -240.372 -2.106 -240.441 Q -1.89 -240.51 -1.826 -240.72 Q -1.763 -240.931 -1.763 -241.362 L -1.763 -245.615 Q -1.763 -246.017 -1.856 -246.208 Q -1.949 -246.399 -2.169 -246.458 Q -2.39 -246.517 -2.782 -246.517 Z M -0.714 -246.399 L -0.714 -246.399 L -0.714 -240.47 Q -0.557 -240.461 -0.405 -240.456 Q -0.253 -240.451 -0.106 -240.451 Q 0.864 -240.451 1.545 -240.706 Q 2.226 -240.96 2.584 -241.597 Q 2.941 -242.234 2.941 -243.381 Q 2.941 -244.851 2.192 -245.63 Q 1.442 -246.409 -0.185 -246.409 Q -0.322 -246.409 -0.449 -246.409 Q -0.577 -246.409 -0.714 -246.399 Z " fill="black" /><path d="M 5.372 -246.889 L 5.372 -246.889 L 8.341 -246.889 Q 9.125 -246.889 9.841 -246.718 Q 10.556 -246.546 11.12 -246.154 Q 11.683 -245.762 12.011 -245.106 Q 12.34 -244.449 12.34 -243.469 Q 12.34 -242.548 12.041 -241.886 Q 11.742 -241.225 11.203 -240.808 Q 10.664 -240.392 9.948 -240.196 Q 9.233 -240 8.4 -240 L 5.372 -240 L 5.372 -240.372 Q 5.832 -240.372 6.048 -240.441 Q 6.264 -240.51 6.327 -240.72 Q 6.391 -240.931 6.391 -241.362 L 6.391 -245.615 Q 6.391 -246.017 6.298 -246.208 Q 6.205 -246.399 5.984 -246.458 Q 5.764 -246.517 5.372 -246.517 Z M 7.44 -246.399 L 7.44 -246.399 L 7.44 -240.47 Q 7.596 -240.461 7.748 -240.456 Q 7.9 -240.451 8.047 -240.451 Q 9.017 -240.451 9.699 -240.706 Q 10.38 -240.96 10.737 -241.597 Q 11.095 -242.234 11.095 -243.381 Q 11.095 -244.851 10.345 -245.63 Q 9.596 -246.409 7.969 -246.409 Q 7.832 -246.409 7.704 -246.409 Q 7.577 -246.409 7.44 -246.399 Z " fill="black" /></g></g></g><circle cx="72.0" cy="-149.99999999999997" r="2.6999999999999997" style="stroke:black;fill:black;stroke-width:2.0;stroke-dasharray:-;" /><circle cx="108.0" cy="-149.99999999999997" r="2.6999999999999997" style="stroke:black;fill:white;stroke-width:2.0;stroke-dasharray:-;" /><g><g><g><path d="M 118.178 -148.68 L 118.178 -148.68 L 122 -154.42 Q 122.196 -154.7 122.315 -154.938 Q 122.434 -155.176 122.434 -155.344 Q 122.434 -155.554 122.252 -155.631 Q 122.07 -155.708 121.594 -155.708 L 121.622 -156.128 L 124.646 -156.128 L 124.618 -155.708 Q 124.24 -155.708 123.974 -155.596 Q 123.708 -155.484 123.435 -155.169 Q 123.162 -154.854 122.728 -154.21 L 117.59 -146.86 L 117.128 -146.86 L 116.344 -154.434 Q 116.26 -155.134 116.036 -155.421 Q 115.812 -155.708 115.252 -155.708 L 115.28 -156.128 L 118.71 -156.128 L 118.668 -155.708 Q 118.136 -155.708 117.828 -155.498 Q 117.52 -155.288 117.548 -154.812 Q 117.548 -154.742 117.569 -154.56 Q 117.59 -154.378 117.59 -154.308 L 118.01 -150.318 L 118.108 -148.68 Z " fill="black" /><path d="M 124.566 -149.135 L 124.566 -149.135 Q 125.301 -149.135 125.85 -148.816 Q 126.399 -148.498 126.698 -147.924 Q 126.997 -147.351 126.997 -146.577 Q 126.997 -145.646 126.683 -145.048 Q 126.369 -144.45 125.821 -144.161 Q 125.272 -143.872 124.566 -143.872 Q 123.851 -143.872 123.297 -144.171 Q 122.743 -144.47 122.435 -145.068 Q 122.126 -145.666 122.126 -146.567 Q 122.126 -147.332 122.43 -147.91 Q 122.734 -148.488 123.282 -148.811 Q 123.831 -149.135 124.566 -149.135 Z M 124.547 -148.684 L 124.547 -148.684 Q 123.9 -148.684 123.532 -148.16 Q 123.165 -147.635 123.165 -146.626 Q 123.165 -145.381 123.542 -144.867 Q 123.919 -144.352 124.596 -144.352 Q 125.027 -144.362 125.331 -144.568 Q 125.634 -144.774 125.796 -145.259 Q 125.958 -145.744 125.958 -146.577 Q 125.958 -147.577 125.615 -148.13 Q 125.272 -148.684 124.547 -148.684 Z " fill="black" /><path d="M 133.661 -144.49 L 133.661 -144.49 L 133.661 -144.117 L 132.338 -143.941 L 132.024 -143.941 L 132.024 -144.705 L 131.926 -144.705 Q 131.554 -144.372 131.171 -144.132 Q 130.789 -143.892 130.25 -143.892 Q 129.525 -143.892 129.143 -144.333 Q 128.761 -144.774 128.761 -145.862 L 128.761 -147.969 Q 128.761 -148.37 128.618 -148.463 Q 128.476 -148.557 128.026 -148.557 L 128.026 -148.909 L 129.388 -149.096 L 129.711 -149.096 L 129.711 -145.989 Q 129.711 -145.44 129.839 -145.136 Q 129.966 -144.833 130.182 -144.715 Q 130.397 -144.597 130.652 -144.597 Q 131.083 -144.597 131.372 -144.779 Q 131.661 -144.96 131.975 -145.215 L 131.975 -147.969 Q 131.975 -148.37 131.799 -148.463 Q 131.622 -148.557 131.122 -148.557 L 131.122 -148.909 L 132.583 -149.096 L 132.926 -149.096 L 132.926 -145.127 Q 132.926 -144.833 132.98 -144.695 Q 133.033 -144.558 133.171 -144.524 Q 133.308 -144.49 133.553 -144.49 Z " fill="black" /><path d="M 137.483 -144.97 L 137.483 -144.97 L 137.708 -144.784 Q 137.492 -144.49 137.316 -144.289 Q 137.14 -144.088 136.914 -143.98 Q 136.689 -143.872 136.336 -143.872 Q 135.768 -143.872 135.508 -144.196 Q 135.248 -144.519 135.248 -145.234 L 135.248 -148.527 L 134.631 -148.527 L 134.631 -148.821 Q 134.984 -149.076 135.278 -149.443 Q 135.572 -149.811 135.866 -150.497 L 136.209 -150.497 L 136.199 -149.007 L 137.443 -149.007 L 137.443 -148.527 L 136.199 -148.527 L 136.199 -145.558 Q 136.199 -145.009 136.302 -144.779 Q 136.405 -144.548 136.718 -144.548 Q 137.002 -144.548 137.149 -144.651 Q 137.296 -144.754 137.483 -144.97 Z " fill="black" /></g></g></g><g><g><g><path d="M 54.055 -64.81 L 54.055 -64.81 L 54.307 -64.544 Q 53.593 -63.704 52.655 -63.165 Q 51.717 -62.626 50.387 -62.626 Q 49.127 -62.626 48.371 -63.095 Q 47.615 -63.564 47.286 -64.348 Q 46.957 -65.132 46.957 -66.056 Q 46.957 -67.526 47.405 -68.667 Q 47.853 -69.808 48.63 -70.585 Q 49.407 -71.362 50.387 -71.761 Q 51.367 -72.16 52.431 -72.16 Q 53.145 -72.16 53.544 -72.034 Q 53.943 -71.908 54.167 -71.775 Q 54.391 -71.642 54.559 -71.642 Q 54.727 -71.642 54.853 -71.782 Q 54.979 -71.922 55.147 -72.146 L 55.553 -72.146 L 54.895 -68.94 L 54.433 -68.94 Q 54.489 -70.34 53.915 -70.949 Q 53.341 -71.558 52.305 -71.558 Q 51.493 -71.558 50.779 -71.187 Q 50.065 -70.816 49.512 -70.137 Q 48.959 -69.458 48.644 -68.513 Q 48.329 -67.568 48.329 -66.406 Q 48.329 -65.006 48.994 -64.271 Q 49.659 -63.536 51.045 -63.536 Q 52.655 -63.536 54.055 -64.81 Z " fill="black" /><path d="M 59.897 -61.545 L 59.897 -61.545 L 59.564 -59.84 L 55.546 -59.84 L 55.546 -60.32 L 56.937 -61.731 Q 57.486 -62.28 57.844 -62.702 Q 58.202 -63.123 58.378 -63.549 Q 58.554 -63.976 58.554 -64.524 Q 58.554 -65.044 58.236 -65.382 Q 57.917 -65.72 57.339 -65.72 Q 56.81 -65.72 56.452 -65.509 Q 56.095 -65.299 55.82 -64.818 L 55.556 -64.946 Q 55.801 -65.632 56.315 -66.024 Q 56.83 -66.416 57.584 -66.416 Q 58.172 -66.416 58.623 -66.205 Q 59.074 -65.994 59.329 -65.602 Q 59.583 -65.21 59.583 -64.652 Q 59.583 -64.172 59.368 -63.75 Q 59.152 -63.329 58.755 -62.888 Q 58.358 -62.447 57.81 -61.908 L 56.585 -60.722 L 56.585 -60.653 L 57.349 -60.693 L 58.623 -60.693 Q 58.907 -60.693 59.059 -60.771 Q 59.211 -60.849 59.319 -61.04 Q 59.427 -61.232 59.554 -61.545 Z " fill="black" /></g></g></g><circle cx="-144.00000000000003" cy="-29.99999999999999" r="2.6999999999999997" style="stroke:black;fill:black;stroke-width:2.0;stroke-dasharray:-;" /><g><g><g><path d="M -161.798 -4.81 L -161.798 -4.81 L -161.546 -4.544 Q -162.26 -3.704 -163.198 -3.165 Q -164.136 -2.626 -165.466 -2.626 Q -166.726 -2.626 -167.482 -3.095 Q -168.238 -3.564 -168.567 -4.348 Q -168.896 -5.132 -168.896 -6.056 Q -168.896 -7.526 -168.448 -8.667 Q -168 -9.808 -167.223 -10.585 Q -166.446 -11.362 -165.466 -11.761 Q -164.486 -12.16 -163.422 -12.16 Q -162.708 -12.16 -162.309 -12.034 Q -161.91 -11.908 -161.686 -11.775 Q -161.462 -11.642 -161.294 -11.642 Q -161.126 -11.642 -161 -11.782 Q -160.874 -11.922 -160.706 -12.146 L -160.3 -12.146 L -160.958 -8.94 L -161.42 -8.94 Q -161.364 -10.34 -161.938 -10.949 Q -162.512 -11.558 -163.548 -11.558 Q -164.36 -11.558 -165.074 -11.187 Q -165.788 -10.816 -166.341 -10.137 Q -166.894 -9.458 -167.209 -8.513 Q -167.524 -7.568 -167.524 -6.406 Q -167.524 -5.006 -166.859 -4.271 Q -166.194 -3.536 -164.808 -3.536 Q -163.198 -3.536 -161.798 -4.81 Z " fill="black" /><path d="M -156.515 0.16 L -156.515 0.16 L -159.837 0.16 L -159.837 -0.193 Q -159.131 -0.193 -158.901 -0.335 Q -158.671 -0.477 -158.671 -0.849 L -158.671 -5.122 Q -158.671 -5.387 -158.749 -5.504 Q -158.827 -5.622 -159.033 -5.622 Q -159.19 -5.622 -159.46 -5.578 Q -159.729 -5.534 -159.925 -5.485 L -159.925 -5.877 L -158.112 -6.377 L -157.691 -6.377 L -157.691 -0.849 Q -157.691 -0.477 -157.441 -0.335 Q -157.191 -0.193 -156.515 -0.193 Z " fill="black" /></g></g></g></svg>