<svg xmlns="http://www.w3.org/2000/svg" xmlns:xlink="http://www.w3.org/1999/xlink" xml:lang="en" height="220.61999999999995pt" width="463.1442pt" viewBox="-4.6 -40.256 463.1442 220.61999999999995"><circle cx="18.0" cy="-0.0" r="18.0" style="stroke:black;fill:none;stroke-width:2.0;stroke-dasharray:-;" /><circle cx="342.0" cy="-0.0" r="18.0" style="stroke:black;fill:none;stroke-width:2.0;stroke-dasharray:-;" /><path d="M 7.2,-4.4087284769304716e-16 L 8.336842105263157,-1.168918089136861 L 9.473684210526317,-2.2111657656828045 L 10.610526315789475,-3.013799321745103 L 11.747368421052633,-3.4898409573815896 L 12.88421052631579,-3.5877041748240117 L 14.021052631578947,-3.2967839759582067 L 15.157894736842104,-2.648606078423274 L 16.294736842105262,-1.7134106149334647 L 17.431578947368422,-0.5925405250106421 L 18.56842105263158,0.5925405250106421 L 19.705263157894738,1.7134106149334647 L 20.84210526315789,2.6486060784232732 L 21.978947368421053,3.2967839759582063 L 23.11578947368421,3.5877041748240117 L 24.25263157894737,3.48984095738159 L 25.389473684210525,3.013799321745103 L 26.52631578947368,2.2111657656828045 L 27.66315789473684,1.168918089136861 L 28.8,4.4087284769304716e-16" style="stroke:black;fill:none;stroke-width:2.0;stroke-dasharray:-;stroke-linecap:round;stroke-linejoin:round;" /><path d="M 36.0,-0.0 L 72.0,-0.0 L 99.0,-0.0" style="stroke:black;fill:none;stroke-width:2.0;stroke-dasharray:-;stroke-linecap:round;stroke-linejoin:round;" /><path d="M 106.0 0.0 L 99.0 2.6999999999999997 L 99.0 -2.6999999999999997 Z" style="stroke:black;fill:black;stroke-linecap:butt;stroke-linejoin:miter;" /><path d="M 108.0,-0.0 L 108.0,-18.0 L 144.0,-18.0 L 144.0,18.0 L 108.0,18.0 L 108.0,-0.0" style="stroke:black;fill:none;stroke-width:2.0;stroke-dasharray:-;stroke-linecap:round;stroke-linejoin:round;" /><path d="M 144.0,-0.0 L 180.0,-0.0 L 207.0,-0.0" style="stroke:black;fill:none;stroke-width:2.0;stroke-dasharray:-;stroke-linecap:round;stroke-linejoin:round;" /><path d="M 214.0 0.0 L 207.0 2.6999999999999997 L 207.0 -2.6999999999999997 Z" style="stroke:black;fill:black;stroke-linecap:butt;stroke-linejoin:miter;" /><path d="M 216.0,-0.0 L 216.0,-18.0 L 252.0,-18.0 L 252.0,18.0 L 216.0,18.0 L 216.0,-0.0" style="stroke:black;fill:none;stroke-width:2.0;stroke-dasharray:-;stroke-linecap:round;stroke-linejoin:round;" /><path d="M 223.20000000000002,-4.4087284769304716e-16 L 224.33684210526314,-1.168918089136861 L 225.47368421052633,-2.2111657656828045 L 226.61052631578949,-3.013799321745103 L 227.7473684210526,-3.4898409573815896 L 228.8842105263158,-3.5877041748240117 L 230.02105263157895,-3.2967839759582067 L 231.15789473684208,-2.648606078423274 L 232.29473684210527,-1.7134106149334647 L 233.43157894736842,-0.5925405250106421 L 234.56842105263158,0.5925405250106421 L 235.70526315789473,1.7134106149334647 L 236.8421052631579,2.6486060784232732 L 237.97894736842105,3.2967839759582063 L 239.1157894736842,3.5877041748240117 L 240.2526315789474,3.48984095738159 L 241.38947368421051,3.013799321745103 L 242.52631578947367,2.2111657656828045 L 243.66315789473686,1.168918089136861 L 244.79999999999998,4.4087284769304716e-16" style="stroke:black;fill:none;stroke-width:2.0;stroke-dasharray:-;stroke-linecap:round;stroke-linejoin:round;" /><path d="M 223.20000000000002,-9.0 L 224.33684210526314,-10.16891808913686 L 225.47368421052633,-11.211165765682804 L 226.61052631578949,-12.013799321745104 L 227.7473684210526,-12.489840957381588 L 228.8842105263158,-12.587704174824012 L 230.02105263157895,-12.296783975958206 L 231.15789473684208,-11.648606078423274 L 232.29473684210527,-10.713410614933464 L 233.43157894736842,-9.592540525010643 L 234.56842105263158,-8.407459474989357 L 235.70526315789473,-7.286589385066535 L 236.8421052631579,-6.351393921576727 L 237.97894736842105,-5.703216024041794 L 239.1157894736842,-5.412295825175989 L 240.2526315789474,-5.51015904261841 L 241.38947368421051,-5.986200678254896 L 242.52631578947367,-6.7888342343171955 L 243.66315789473686,-7.831081910863139 L 244.79999999999998,-9.0" style="stroke:black;fill:none;stroke-width:2.0;stroke-dasharray:-;stroke-linecap:round;stroke-linejoin:round;" /><path d="M 223.20000000000002,9.0 L 224.33684210526314,7.831081910863139 L 225.47368421052633,6.7888342343171955 L 226.61052631578949,5.986200678254896 L 227.7473684210526,5.510159042618411 L 228.8842105263158,5.412295825175989 L 230.02105263157895,5.703216024041793 L 231.15789473684208,6.351393921576726 L 232.29473684210527,7.286589385066535 L 233.43157894736842,8.407459474989357 L 234.56842105263158,9.592540525010643 L 235.70526315789473,10.713410614933464 L 236.8421052631579,11.648606078423274 L 237.97894736842105,12.296783975958206 L 239.1157894736842,12.587704174824012 L 240.2526315789474,12.489840957381592 L 241.38947368421051,12.013799321745104 L 242.52631578947367,11.211165765682804 L 243.66315789473686,10.16891808913686 L 244.79999999999998,9.0" style="stroke:black;fill:none;stroke-width:2.0;stroke-dasharray:-;stroke-linecap:round;stroke-linejoin:round;" /><path d="M 232.20000000000002,-6.12 L 235.79999999999998,-11.88" style="stroke:black;fill:none;stroke-width:2.0;stroke-dasharray:-;stroke-linecap:round;stroke-linejoin:round;" /><path d="M 232.20000000000002,2.88 L 235.79999999999998,-2.88" style="stroke:black;fill:none;stroke-width:2.0;stroke-dasharray:-;stroke-linecap:round;stroke-linejoin:round;" /><path d="M 252.0,-0.0 L 288.0,-0.0 L 315.0,-0.0" style="stroke:black;fill:none;stroke-width:2.0;stroke-dasharray:-;stroke-linecap:round;stroke-linejoin:round;" /><path d="M 322.0 0.0 L 315.0 2.6999999999999997 L 315.0 -2.6999999999999997 Z" style="stroke:black;fill:black;stroke-linecap:butt;stroke-linejoin:miter;" /><path d="M 331.2,-4.4087284769304716e-16 L 332.33684210526314,-1.168918089136861 L 333.47368421052636,-2.2111657656828045 L 334.61052631578946,-3.013799321745103 L 335.7473684210526,-3.4898409573815896 L 336.88421052631577,-3.5877041748240117 L 338.021052631579,-3.2967839759582067 L 339.1578947368421,-2.648606078423274 L 340.2947368421053,-1.7134106149334647 L 341.43157894736845,-0.5925405250106421 L 342.56842105263155,0.5925405250106421 L 343.7052631578947,1.7134106149334647 L 344.8421052631579,2.6486060784232732 L 345.978947368421,3.2967839759582063 L 347.11578947368423,3.5877041748240117 L 348.2526315789474,3.48984095738159 L 349.38947368421054,3.013799321745103 L 350.52631578947364,2.2111657656828045 L 351.66315789473686,1.168918089136861 L 352.8,4.4087284769304716e-16" style="stroke:black;fill:none;stroke-width:2.0;stroke-dasharray:-;stroke-linecap:round;stroke-linejoin:round;" /><path d="M 360.0,-0.0 L 378.0,-0.0 L 396.0,-0.0" style="stroke:black;fill:none;stroke-width:2.0;stroke-dasharray:-;stroke-linecap:round;stroke-linejoin:round;" /><path d="M 396.0,-0.0 L 414.0,-0.0 L 423.0,-0.0" style="stroke:black;fill:none;stroke-width:2.0;stroke-dasharray:-;stroke-linecap:round;stroke-linejoin:round;" /><path d="M 430.0 0.0 L 423.0 2.6999999999999997 L 423.0 -2.6999999999999997 Z" style="stroke:black;fill:black;stroke-linecap:butt;stroke-linejoin:miter;" /><path d="M 396.0,-0.0 L 396.0,36.0 L 396.0,72.0" style="stroke:black;fill:none;stroke-width:2.0;stroke-dasharray:-;stroke-linecap:round;stroke-linejoin:round;" /><path d="M 396.0,72.0 L 342.0,71.99999999999999 L 297.0,71.99999999999999" style="stroke:black;fill:none;stroke-width:2.0;stroke-dasharray:-;stroke-linecap:round;stroke-linejoin:round;" /><path d="M 290.0 71.99999999999999 L 297.0 69.29999999999998 L 297.0 74.69999999999999 Z" style="stroke:black;fill:black;stroke-linecap:butt;stroke-linejoin:miter;" /><path d="M 288.0,71.99999999999999 L 288.0,89.99999999999999 L 252.0,89.99999999999999 L 252.0,53.999999999999986 L 288.0,53.999999999999986 L 288.0,71.99999999999999" style="stroke:black;fill:none;stroke-width:2.0;stroke-dasharray:-;stroke-linecap:round;stroke-linejoin:round;" /><path d="M 252.0,71.99999999999997 L 189.0,71.99999999999997 L 126.0,71.99999999999996" style="stroke:black;fill:none;stroke-width:2.0;stroke-dasharray:-;stroke-linecap:round;stroke-linejoin:round;" /><path d="M 126.0,71.99999999999996 L 126.0,44.999999999999986 L 126.0,27.0" style="stroke:black;fill:none;stroke-width:2.0;stroke-dasharray:-;stroke-linecap:round;stroke-linejoin:round;" /><path d="M 126.0 20.0 L 128.7 27.0 L 123.3 27.0 Z" style="stroke:black;fill:black;stroke-linecap:butt;stroke-linejoin:miter;" /><path d="M 126.0,71.99999999999996 L 126.0,98.99999999999997 L 125.99999999999999,125.99999999999997" style="stroke:black;fill:none;stroke-width:2.0;stroke-dasharray:-;stroke-linecap:round;stroke-linejoin:round;" /><path d="M 125.99999999999999,125.99999999999997 L 143.99999999999997,125.99999999999997 L 153.0,125.99999999999997" style="stroke:black;fill:none;stroke-width:2.0;stroke-dasharray:-;stroke-linecap:round;stroke-linejoin:round;" /><path d="M 160.0 125.99999999999997 L 153.0 128.69999999999996 L 153.0 123.29999999999997 Z" style="stroke:black;fill:black;stroke-linecap:butt;stroke-linejoin:miter;" /><path d="M 162.0,125.99999999999997 L 162.0,107.99999999999997 L 198.0,107.99999999999997 L 198.0,143.99999999999997 L 162.0,143.99999999999997 L 162.0,125.99999999999997" style="stroke:black;fill:none;stroke-width:2.0;stroke-dasharray:-;stroke-linecap:round;stroke-linejoin:round;" /><path d="M 198.0,125.99999999999997 L 234.0,125.99999999999997 L 270.0,125.99999999999997" style="stroke:black;fill:none;stroke-width:2.0;stroke-dasharray:-;stroke-linecap:round;stroke-linejoin:round;" /><path d="M 270.0,125.99999999999997 L 270.0,107.99999999999997 L 270.0,98.99999999999999" style="stroke:black;fill:none;stroke-width:2.0;stroke-dasharray:-;stroke-linecap:round;stroke-linejoin:round;" /><path d="M 270.0 91.99999999999999 L 272.7 98.99999999999999 L 267.3 98.99999999999999 Z" style="stroke:black;fill:black;stroke-linecap:butt;stroke-linejoin:miter;" /><path d="M 180.0,152.99999999999997 L 180.0,152.99999999999997 L 180.0,161.99999999999997" style="stroke:black;fill:none;stroke-width:2.0;stroke-dasharray:-;stroke-linecap:round;stroke-linejoin:round;" /><path d="M 180.0 145.99999999999997 L 182.7 152.99999999999997 L 177.3 152.99999999999997 Z" style="stroke:black;fill:black;stroke-linecap:butt;stroke-linejoin:miter;" /><g><g><g><path d="M 65.033 -18.688 L 65.033 -18.688 L 66.237 -18.688 Q 66.363 -19.276 66.51 -19.822 Q 66.657 -20.368 66.895 -20.802 Q 67.077 -21.138 67.343 -21.432 Q 67.609 -21.726 68.022 -21.915 Q 68.435 -22.104 69.037 -22.104 Q 69.681 -22.104 70.024 -21.817 Q 70.367 -21.53 70.367 -21.082 Q 70.367 -20.774 70.199 -20.62 Q 70.031 -20.466 69.807 -20.466 Q 69.527 -20.466 69.401 -20.627 Q 69.275 -20.788 69.247 -21.012 Q 69.205 -21.278 69.142 -21.488 Q 69.079 -21.698 68.827 -21.698 Q 68.295 -21.698 68.001 -21.138 Q 67.707 -20.578 67.553 -19.682 L 67.385 -18.688 L 68.715 -18.688 L 68.631 -18.114 L 67.315 -18.114 L 66.517 -13.34 Q 66.461 -12.976 66.342 -12.43 Q 66.223 -11.884 66.013 -11.289 Q 65.803 -10.694 65.502 -10.176 Q 65.201 -9.658 64.767 -9.329 Q 64.333 -9 63.759 -9 Q 63.087 -9 62.8 -9.322 Q 62.513 -9.644 62.513 -10.008 Q 62.513 -10.302 62.66 -10.498 Q 62.807 -10.694 63.073 -10.694 Q 63.395 -10.694 63.507 -10.505 Q 63.619 -10.316 63.647 -10.071 Q 63.675 -9.826 63.731 -9.637 Q 63.787 -9.448 63.983 -9.448 Q 64.263 -9.448 64.473 -9.812 Q 64.683 -10.176 64.837 -10.715 Q 64.991 -11.254 65.089 -11.786 Q 65.187 -12.318 65.243 -12.668 L 66.153 -18.114 L 64.977 -18.114 Z " fill="black" /><path d="M 69.831 -14.326 L 69.831 -14.326 L 69.831 -13.267 L 69.889 -13.267 Q 70.282 -13.816 70.59 -14.105 Q 70.899 -14.394 71.261 -14.394 Q 71.889 -14.394 71.889 -13.777 Q 71.889 -13.434 71.737 -13.297 Q 71.585 -13.159 71.409 -13.159 Q 71.232 -13.159 71.09 -13.257 Q 70.948 -13.355 70.85 -13.453 Q 70.752 -13.551 70.703 -13.551 Q 70.546 -13.551 70.296 -13.287 Q 70.046 -13.022 69.85 -12.689 L 69.85 -10.337 Q 69.85 -9.857 70.061 -9.715 Q 70.272 -9.573 70.811 -9.573 L 70.811 -9.21 L 68.145 -9.21 L 68.145 -9.573 Q 68.478 -9.573 68.635 -9.631 Q 68.792 -9.69 68.841 -9.842 Q 68.89 -9.994 68.89 -10.268 L 68.89 -13.11 Q 68.89 -13.424 68.836 -13.581 Q 68.782 -13.738 68.478 -13.738 Q 68.341 -13.738 68.243 -13.728 Q 68.145 -13.718 68.145 -13.718 L 68.145 -14.081 L 69.468 -14.326 Z " fill="black" /><path d="M 76.799 -10.67 L 76.799 -10.67 L 77.034 -10.484 Q 76.828 -10.112 76.573 -9.798 Q 76.318 -9.484 75.946 -9.298 Q 75.574 -9.112 75.005 -9.112 Q 74.388 -9.112 73.854 -9.391 Q 73.32 -9.671 72.996 -10.249 Q 72.673 -10.827 72.673 -11.709 Q 72.673 -12.581 72.977 -13.169 Q 73.28 -13.757 73.8 -14.056 Q 74.319 -14.355 74.956 -14.355 Q 75.838 -14.355 76.421 -13.742 Q 77.004 -13.13 77.024 -11.915 L 73.574 -11.915 Q 73.574 -11.248 73.824 -10.812 Q 74.074 -10.376 74.466 -10.166 Q 74.858 -9.955 75.289 -9.955 Q 75.73 -9.955 75.995 -10.048 Q 76.26 -10.141 76.441 -10.308 Q 76.622 -10.474 76.799 -10.67 Z M 73.574 -12.366 L 73.574 -12.366 L 75.975 -12.366 Q 75.975 -12.758 75.848 -13.105 Q 75.721 -13.453 75.476 -13.674 Q 75.231 -13.894 74.848 -13.894 Q 74.29 -13.894 73.961 -13.502 Q 73.633 -13.11 73.574 -12.366 Z " fill="black" /><path d="M 77.994 -14.228 L 77.994 -14.228 L 78.778 -14.228 Q 78.778 -14.747 78.852 -15.11 Q 78.925 -15.472 79.111 -15.835 Q 79.337 -16.188 79.655 -16.408 Q 79.974 -16.629 80.562 -16.629 Q 81.061 -16.629 81.414 -16.438 Q 81.767 -16.246 81.767 -15.874 Q 81.767 -15.639 81.635 -15.516 Q 81.502 -15.394 81.326 -15.394 Q 81.111 -15.394 80.988 -15.516 Q 80.865 -15.639 80.669 -15.845 Q 80.532 -16.041 80.424 -16.114 Q 80.317 -16.188 80.17 -16.188 Q 79.895 -16.188 79.807 -15.923 Q 79.719 -15.658 79.719 -15.012 L 79.719 -14.228 L 80.993 -14.228 L 80.993 -13.747 L 79.719 -13.747 L 79.719 -10.513 Q 79.719 -10.112 79.807 -9.911 Q 79.895 -9.71 80.13 -9.641 Q 80.366 -9.573 80.797 -9.573 L 80.797 -9.21 L 77.906 -9.21 L 77.906 -9.573 Q 78.278 -9.573 78.465 -9.641 Q 78.651 -9.71 78.714 -9.911 Q 78.778 -10.112 78.778 -10.513 L 78.778 -13.747 L 77.994 -13.747 Z " fill="black" /></g></g></g><g><g><g><path d="M 115.92 -2.485 L 115.92 -2.485 L 115.92 -11.683 L 118.608 -11.683 Q 119.658 -11.683 120.449 -11.424 Q 121.24 -11.165 121.688 -10.577 Q 122.136 -9.989 122.136 -8.981 Q 122.136 -8.001 121.695 -7.364 Q 121.254 -6.727 120.477 -6.419 Q 119.7 -6.111 118.664 -6.111 L 117.124 -6.111 L 117.124 -2.485 Z M 117.124 -7.091 L 117.124 -7.091 L 118.524 -7.091 Q 119.742 -7.091 120.337 -7.539 Q 120.932 -7.987 120.932 -8.967 Q 120.932 -9.961 120.316 -10.339 Q 119.7 -10.717 118.468 -10.717 L 117.124 -10.717 Z " fill="black" /><path d="M 124.04 -2.485 L 124.04 -2.485 L 124.04 -11.683 L 129.458 -11.683 L 129.458 -10.675 L 125.244 -10.675 L 125.244 -7.595 L 128.814 -7.595 L 128.814 -6.587 L 125.244 -6.587 L 125.244 -2.485 Z " fill="black" /><path d="M 131.124 -2.485 L 131.124 -2.485 L 131.124 -11.683 L 133.476 -11.683 Q 135.646 -11.683 136.78 -10.5 Q 137.914 -9.317 137.914 -7.119 Q 137.914 -4.921 136.787 -3.703 Q 135.66 -2.485 133.532 -2.485 Z M 132.328 -3.465 L 132.328 -3.465 L 133.392 -3.465 Q 135.044 -3.465 135.863 -4.424 Q 136.682 -5.383 136.682 -7.119 Q 136.682 -8.855 135.863 -9.779 Q 135.044 -10.703 133.392 -10.703 L 132.328 -10.703 Z " fill="black" /></g><g><path d="M 123.074 11.683 L 123.074 11.683 Q 121.912 11.683 120.981 11.116 Q 120.05 10.549 119.518 9.485 Q 118.986 8.421 118.986 6.951 Q 118.986 5.453 119.532 4.382 Q 120.078 3.311 121.009 2.737 Q 121.94 2.163 123.088 2.163 Q 124.068 2.163 124.698 2.52 Q 125.328 2.877 125.72 3.297 L 125.062 4.067 Q 124.25 3.199 123.13 3.199 Q 122.276 3.199 121.618 3.647 Q 120.96 4.095 120.589 4.928 Q 120.218 5.761 120.218 6.923 Q 120.218 8.057 120.575 8.89 Q 120.932 9.723 121.583 10.178 Q 122.234 10.633 123.116 10.633 Q 123.788 10.633 124.32 10.36 Q 124.852 10.087 125.3 9.611 L 125.944 10.353 Q 125.384 10.983 124.684 11.333 Q 123.984 11.683 123.074 11.683 Z " fill="black" /><path d="M 127.694 11.515 L 127.694 11.515 L 127.694 2.317 L 130.382 2.317 Q 131.432 2.317 132.223 2.576 Q 133.014 2.835 133.462 3.423 Q 133.91 4.011 133.91 5.019 Q 133.91 5.999 133.469 6.636 Q 133.028 7.273 132.251 7.581 Q 131.474 7.889 130.438 7.889 L 128.898 7.889 L 128.898 11.515 Z M 128.898 6.909 L 128.898 6.909 L 130.298 6.909 Q 131.516 6.909 132.111 6.461 Q 132.706 6.013 132.706 5.033 Q 132.706 4.039 132.09 3.661 Q 131.474 3.283 130.242 3.283 L 128.898 3.283 Z " fill="black" /></g></g></g><g><g><g><path d="M 164.593 -20.088 L 164.593 -20.088 L 164.593 -29.804 L 165.517 -29.804 L 165.615 -29.034 L 165.657 -29.034 Q 166.105 -29.398 166.63 -29.678 Q 167.155 -29.958 167.827 -29.958 Q 168.611 -29.958 169.178 -29.545 Q 169.745 -29.132 170.053 -28.39 Q 170.361 -27.648 170.361 -26.654 Q 170.361 -25.492 169.962 -24.673 Q 169.563 -23.854 168.926 -23.427 Q 168.289 -23 167.547 -23 Q 167.085 -23 166.63 -23.189 Q 166.175 -23.378 165.685 -23.784 L 165.713 -22.608 L 165.713 -20.088 Z M 167.337 -23.952 L 167.337 -23.952 Q 168.135 -23.952 168.667 -24.645 Q 169.199 -25.338 169.199 -26.64 Q 169.199 -27.69 168.793 -28.355 Q 168.387 -29.02 167.519 -29.02 Q 167.085 -29.02 166.672 -28.817 Q 166.259 -28.614 165.713 -28.11 L 165.713 -24.638 Q 166.161 -24.26 166.574 -24.106 Q 166.987 -23.952 167.337 -23.952 Z " fill="black" /><path d="M 172.111 -23.168 L 172.111 -23.168 L 172.111 -32.884 L 173.231 -32.884 L 173.231 -30.238 L 173.203 -28.866 Q 173.665 -29.314 174.176 -29.636 Q 174.687 -29.958 175.415 -29.958 Q 176.409 -29.958 176.906 -29.3 Q 177.403 -28.642 177.403 -27.368 L 177.403 -23.168 L 176.269 -23.168 L 176.269 -27.228 Q 176.269 -28.152 175.982 -28.565 Q 175.695 -28.978 175.051 -28.978 Q 174.533 -28.978 174.127 -28.726 Q 173.721 -28.474 173.231 -27.97 L 173.231 -23.168 Z " fill="black" /><path d="M 181.001 -23 L 181.001 -23 Q 180.189 -23 179.636 -23.497 Q 179.083 -23.994 179.083 -24.89 Q 179.083 -25.982 180.049 -26.563 Q 181.015 -27.144 183.129 -27.368 Q 183.129 -27.802 183.017 -28.18 Q 182.905 -28.558 182.604 -28.796 Q 182.303 -29.034 181.757 -29.034 Q 181.211 -29.034 180.707 -28.81 Q 180.203 -28.586 179.811 -28.334 L 179.363 -29.104 Q 179.825 -29.412 180.497 -29.685 Q 181.169 -29.958 181.953 -29.958 Q 183.157 -29.958 183.703 -29.223 Q 184.249 -28.488 184.249 -27.242 L 184.249 -23.168 L 183.325 -23.168 L 183.227 -23.966 L 183.199 -23.966 Q 182.723 -23.574 182.177 -23.287 Q 181.631 -23 181.001 -23 Z M 181.337 -23.91 L 181.337 -23.91 Q 181.813 -23.91 182.233 -24.141 Q 182.653 -24.372 183.129 -24.778 L 183.129 -26.626 Q 181.505 -26.43 180.84 -26.024 Q 180.175 -25.618 180.175 -24.96 Q 180.175 -24.414 180.518 -24.162 Q 180.861 -23.91 181.337 -23.91 Z " fill="black" /><path d="M 188.099 -23 L 188.099 -23 Q 187.343 -23 186.699 -23.266 Q 186.055 -23.532 185.593 -23.924 L 186.139 -24.666 Q 186.587 -24.316 187.042 -24.099 Q 187.497 -23.882 188.057 -23.882 Q 188.729 -23.882 189.058 -24.183 Q 189.387 -24.484 189.387 -24.89 Q 189.387 -25.24 189.177 -25.471 Q 188.967 -25.702 188.624 -25.863 Q 188.281 -26.024 187.875 -26.164 Q 187.413 -26.346 186.958 -26.577 Q 186.503 -26.808 186.209 -27.172 Q 185.915 -27.536 185.915 -28.096 Q 185.915 -28.88 186.524 -29.419 Q 187.133 -29.958 188.155 -29.958 Q 188.855 -29.958 189.366 -29.734 Q 189.877 -29.51 190.241 -29.23 L 189.709 -28.502 Q 189.359 -28.754 188.995 -28.922 Q 188.631 -29.09 188.183 -29.09 Q 187.581 -29.09 187.287 -28.803 Q 186.993 -28.516 186.993 -28.152 Q 186.993 -27.83 187.196 -27.627 Q 187.399 -27.424 187.735 -27.284 Q 188.071 -27.144 188.449 -26.99 Q 188.897 -26.822 189.359 -26.605 Q 189.821 -26.388 190.136 -26.01 Q 190.451 -25.632 190.451 -25.002 Q 190.451 -24.176 189.835 -23.588 Q 189.219 -23 188.099 -23 Z " fill="black" /><path d="M 194.693 -23 L 194.693 -23 Q 193.811 -23 193.09 -23.413 Q 192.369 -23.826 191.942 -24.603 Q 191.515 -25.38 191.515 -26.458 Q 191.515 -27.55 191.935 -28.334 Q 192.355 -29.118 193.048 -29.538 Q 193.741 -29.958 194.553 -29.958 Q 195.729 -29.958 196.422 -29.118 Q 197.115 -28.278 197.115 -26.85 Q 197.115 -26.668 197.101 -26.507 Q 197.087 -26.346 197.059 -26.22 L 192.621 -26.22 Q 192.691 -25.156 193.279 -24.526 Q 193.867 -23.896 194.819 -23.896 Q 195.281 -23.896 195.687 -24.043 Q 196.093 -24.19 196.457 -24.428 L 196.849 -23.7 Q 196.415 -23.406 195.883 -23.203 Q 195.351 -23 194.693 -23 Z M 192.621 -27.018 L 192.621 -27.018 L 196.135 -27.018 Q 196.135 -28.012 195.708 -28.537 Q 195.281 -29.062 194.539 -29.062 Q 193.811 -29.062 193.272 -28.544 Q 192.733 -28.026 192.621 -27.018 Z " fill="black" /></g><g><path d="M 170.011 -9 L 170.011 -9 Q 169.129 -9 168.408 -9.413 Q 167.687 -9.826 167.26 -10.603 Q 166.833 -11.38 166.833 -12.458 Q 166.833 -13.55 167.253 -14.334 Q 167.673 -15.118 168.366 -15.538 Q 169.059 -15.958 169.871 -15.958 Q 171.047 -15.958 171.74 -15.118 Q 172.433 -14.278 172.433 -12.85 Q 172.433 -12.668 172.419 -12.507 Q 172.405 -12.346 172.377 -12.22 L 167.939 -12.22 Q 168.009 -11.156 168.597 -10.526 Q 169.185 -9.896 170.137 -9.896 Q 170.599 -9.896 171.005 -10.043 Q 171.411 -10.19 171.775 -10.428 L 172.167 -9.7 Q 171.733 -9.406 171.201 -9.203 Q 170.669 -9 170.011 -9 Z M 167.939 -13.018 L 167.939 -13.018 L 171.453 -13.018 Q 171.453 -14.012 171.026 -14.537 Q 170.599 -15.062 169.857 -15.062 Q 169.129 -15.062 168.59 -14.544 Q 168.051 -14.026 167.939 -13.018 Z " fill="black" /><path d="M 174.043 -9.168 L 174.043 -9.168 L 174.043 -15.804 L 174.967 -15.804 L 175.065 -14.586 L 175.107 -14.586 Q 175.471 -15.244 175.947 -15.601 Q 176.423 -15.958 177.039 -15.958 Q 177.193 -15.958 177.361 -15.93 Q 177.529 -15.902 177.683 -15.832 L 177.473 -14.838 Q 177.291 -14.894 177.165 -14.922 Q 177.039 -14.95 176.885 -14.95 Q 176.423 -14.95 175.961 -14.614 Q 175.499 -14.278 175.163 -13.424 L 175.163 -9.168 Z " fill="black" /><path d="M 178.747 -9.168 L 178.747 -9.168 L 178.747 -15.804 L 179.671 -15.804 L 179.769 -14.586 L 179.811 -14.586 Q 180.175 -15.244 180.651 -15.601 Q 181.127 -15.958 181.743 -15.958 Q 181.897 -15.958 182.065 -15.93 Q 182.233 -15.902 182.387 -15.832 L 182.177 -14.838 Q 181.995 -14.894 181.869 -14.922 Q 181.743 -14.95 181.589 -14.95 Q 181.127 -14.95 180.665 -14.614 Q 180.203 -14.278 179.867 -13.424 L 179.867 -9.168 Z " fill="black" /><path d="M 186.013 -9 L 186.013 -9 Q 185.215 -9 184.515 -9.413 Q 183.815 -9.826 183.388 -10.603 Q 182.961 -11.38 182.961 -12.486 Q 182.961 -13.592 183.388 -14.362 Q 183.815 -15.132 184.515 -15.545 Q 185.215 -15.958 186.013 -15.958 Q 186.825 -15.958 187.525 -15.545 Q 188.225 -15.132 188.652 -14.362 Q 189.079 -13.592 189.079 -12.486 Q 189.079 -11.38 188.652 -10.603 Q 188.225 -9.826 187.525 -9.413 Q 186.825 -9 186.013 -9 Z M 186.013 -9.938 L 186.013 -9.938 Q 186.867 -9.938 187.392 -10.638 Q 187.917 -11.338 187.917 -12.486 Q 187.917 -13.62 187.392 -14.32 Q 186.867 -15.02 186.013 -15.02 Q 185.173 -15.02 184.648 -14.32 Q 184.123 -13.62 184.123 -12.486 Q 184.123 -11.338 184.648 -10.638 Q 185.173 -9.938 186.013 -9.938 Z " fill="black" /><path d="M 190.801 -9.168 L 190.801 -9.168 L 190.801 -15.804 L 191.725 -15.804 L 191.823 -14.586 L 191.865 -14.586 Q 192.229 -15.244 192.705 -15.601 Q 193.181 -15.958 193.797 -15.958 Q 193.951 -15.958 194.119 -15.93 Q 194.287 -15.902 194.441 -15.832 L 194.231 -14.838 Q 194.049 -14.894 193.923 -14.922 Q 193.797 -14.95 193.643 -14.95 Q 193.181 -14.95 192.719 -14.614 Q 192.257 -14.278 191.921 -13.424 L 191.921 -9.168 Z " fill="black" /></g></g></g><g><g><g><path d="M 272.831 -26.038 L 272.831 -26.038 Q 271.851 -26.038 271.424 -26.654 Q 270.997 -27.27 270.997 -28.264 L 270.997 -31.848 L 270.031 -31.848 L 270.031 -32.688 L 271.053 -32.758 L 271.193 -34.704 L 272.117 -34.704 L 272.117 -32.758 L 273.895 -32.758 L 273.895 -31.848 L 272.117 -31.848 L 272.117 -28.236 Q 272.117 -27.648 272.341 -27.305 Q 272.565 -26.962 273.097 -26.962 Q 273.321 -26.962 273.524 -27.018 Q 273.727 -27.074 273.881 -27.144 L 274.105 -26.29 Q 273.825 -26.192 273.51 -26.115 Q 273.195 -26.038 272.831 -26.038 Z " fill="black" /><path d="M 277.283 -26.038 L 277.283 -26.038 Q 276.275 -26.038 275.785 -26.71 Q 275.295 -27.382 275.295 -28.628 L 275.295 -32.842 L 276.415 -32.842 L 276.415 -28.782 Q 276.415 -27.872 276.709 -27.445 Q 277.003 -27.018 277.647 -27.018 Q 278.165 -27.018 278.557 -27.284 Q 278.949 -27.55 279.425 -28.138 L 279.425 -32.842 L 280.545 -32.842 L 280.545 -26.206 L 279.607 -26.206 L 279.523 -27.242 L 279.481 -27.242 Q 278.991 -26.668 278.48 -26.353 Q 277.969 -26.038 277.283 -26.038 Z " fill="black" /><path d="M 282.757 -26.206 L 282.757 -26.206 L 282.757 -32.842 L 283.681 -32.842 L 283.779 -31.89 L 283.821 -31.89 Q 284.297 -32.352 284.815 -32.674 Q 285.333 -32.996 286.061 -32.996 Q 287.055 -32.996 287.552 -32.338 Q 288.049 -31.68 288.049 -30.406 L 288.049 -26.206 L 286.915 -26.206 L 286.915 -30.266 Q 286.915 -31.19 286.628 -31.603 Q 286.341 -32.016 285.697 -32.016 Q 285.179 -32.016 284.773 -31.764 Q 284.367 -31.512 283.877 -31.008 L 283.877 -26.206 Z " fill="black" /><path d="M 290.163 -26.206 L 290.163 -26.206 L 290.163 -32.842 L 291.283 -32.842 L 291.283 -26.206 Z M 290.737 -34.2 L 290.737 -34.2 Q 290.415 -34.2 290.191 -34.41 Q 289.967 -34.62 289.967 -34.928 Q 289.967 -35.25 290.191 -35.453 Q 290.415 -35.656 290.737 -35.656 Q 291.059 -35.656 291.283 -35.453 Q 291.507 -35.25 291.507 -34.928 Q 291.507 -34.62 291.283 -34.41 Q 291.059 -34.2 290.737 -34.2 Z " fill="black" /><path d="M 293.509 -26.206 L 293.509 -26.206 L 293.509 -32.842 L 294.433 -32.842 L 294.531 -31.89 L 294.573 -31.89 Q 295.049 -32.352 295.567 -32.674 Q 296.085 -32.996 296.813 -32.996 Q 297.807 -32.996 298.304 -32.338 Q 298.801 -31.68 298.801 -30.406 L 298.801 -26.206 L 297.667 -26.206 L 297.667 -30.266 Q 297.667 -31.19 297.38 -31.603 Q 297.093 -32.016 296.449 -32.016 Q 295.931 -32.016 295.525 -31.764 Q 295.119 -31.512 294.629 -31.008 L 294.629 -26.206 Z " fill="black" /><path d="M 303.155 -23 L 303.155 -23 Q 301.937 -23 301.181 -23.49 Q 300.425 -23.98 300.425 -24.834 Q 300.425 -25.324 300.677 -25.723 Q 300.929 -26.122 301.391 -26.43 L 301.391 -26.486 Q 301.139 -26.64 300.964 -26.913 Q 300.789 -27.186 300.789 -27.55 Q 300.789 -27.998 301.027 -28.313 Q 301.265 -28.628 301.531 -28.81 L 301.531 -28.852 Q 301.195 -29.118 300.929 -29.58 Q 300.663 -30.042 300.663 -30.672 Q 300.663 -31.372 301.006 -31.897 Q 301.349 -32.422 301.916 -32.709 Q 302.483 -32.996 303.141 -32.996 Q 303.421 -32.996 303.666 -32.947 Q 303.911 -32.898 304.093 -32.828 L 306.389 -32.828 L 306.389 -31.96 L 305.045 -31.96 Q 305.269 -31.736 305.409 -31.386 Q 305.549 -31.036 305.549 -30.574 Q 305.549 -29.888 305.22 -29.377 Q 304.891 -28.866 304.359 -28.586 Q 303.827 -28.306 303.197 -28.306 Q 302.637 -28.306 302.161 -28.53 Q 301.979 -28.39 301.86 -28.215 Q 301.741 -28.04 301.741 -27.76 Q 301.741 -27.438 301.993 -27.235 Q 302.245 -27.032 302.889 -27.032 L 304.177 -27.032 Q 306.473 -27.032 306.473 -25.45 Q 306.473 -24.764 306.067 -24.211 Q 305.661 -23.658 304.919 -23.329 Q 304.177 -23 303.155 -23 Z M 303.253 -23.77 L 303.253 -23.77 Q 304.247 -23.77 304.814 -24.211 Q 305.381 -24.652 305.381 -25.254 Q 305.381 -25.716 305.031 -25.912 Q 304.681 -26.108 304.065 -26.108 L 302.917 -26.108 Q 302.735 -26.108 302.511 -26.129 Q 302.287 -26.15 302.063 -26.206 Q 301.713 -25.94 301.552 -25.639 Q 301.391 -25.338 301.391 -25.03 Q 301.391 -24.456 301.902 -24.113 Q 302.413 -23.77 303.253 -23.77 Z M 303.141 -29.062 L 303.141 -29.062 Q 303.715 -29.062 304.128 -29.489 Q 304.541 -29.916 304.541 -30.644 Q 304.541 -31.358 304.135 -31.771 Q 303.729 -32.184 303.141 -32.184 Q 302.567 -32.184 302.154 -31.778 Q 301.741 -31.372 301.741 -30.644 Q 301.741 -29.916 302.161 -29.489 Q 302.581 -29.062 303.141 -29.062 Z " fill="black" /></g><g><path d="M 269.562 -12.206 L 269.562 -12.206 L 267.196 -18.842 L 268.344 -18.842 L 269.59 -15.076 Q 269.744 -14.6 269.898 -14.096 Q 270.052 -13.592 270.192 -13.116 L 270.248 -13.116 Q 270.402 -13.592 270.556 -14.096 Q 270.71 -14.6 270.85 -15.076 L 272.096 -18.842 L 273.202 -18.842 L 270.864 -12.206 Z " fill="black" /><path d="M 277.038 -12.038 L 277.038 -12.038 Q 276.24 -12.038 275.54 -12.451 Q 274.84 -12.864 274.413 -13.641 Q 273.986 -14.418 273.986 -15.524 Q 273.986 -16.63 274.413 -17.4 Q 274.84 -18.17 275.54 -18.583 Q 276.24 -18.996 277.038 -18.996 Q 277.85 -18.996 278.55 -18.583 Q 279.25 -18.17 279.677 -17.4 Q 280.104 -16.63 280.104 -15.524 Q 280.104 -14.418 279.677 -13.641 Q 279.25 -12.864 278.55 -12.451 Q 277.85 -12.038 277.038 -12.038 Z M 277.038 -12.976 L 277.038 -12.976 Q 277.892 -12.976 278.417 -13.676 Q 278.942 -14.376 278.942 -15.524 Q 278.942 -16.658 278.417 -17.358 Q 277.892 -18.058 277.038 -18.058 Q 276.198 -18.058 275.673 -17.358 Q 275.148 -16.658 275.148 -15.524 Q 275.148 -14.376 275.673 -13.676 Q 276.198 -12.976 277.038 -12.976 Z " fill="black" /><path d="M 283.03 -12.038 L 283.03 -12.038 Q 282.386 -12.038 282.106 -12.423 Q 281.826 -12.808 281.826 -13.536 L 281.826 -22.09 L 282.946 -22.09 L 282.946 -13.466 Q 282.946 -13.2 283.044 -13.088 Q 283.142 -12.976 283.268 -12.976 Q 283.31 -12.976 283.359 -12.983 Q 283.408 -12.99 283.506 -13.004 L 283.646 -12.15 Q 283.534 -12.108 283.387 -12.073 Q 283.24 -12.038 283.03 -12.038 Z " fill="black" /><path d="M 287.314 -12.038 L 287.314 -12.038 Q 286.334 -12.038 285.907 -12.654 Q 285.48 -13.27 285.48 -14.264 L 285.48 -17.848 L 284.514 -17.848 L 284.514 -18.688 L 285.536 -18.758 L 285.676 -20.704 L 286.6 -20.704 L 286.6 -18.758 L 288.378 -18.758 L 288.378 -17.848 L 286.6 -17.848 L 286.6 -14.236 Q 286.6 -13.648 286.824 -13.305 Q 287.048 -12.962 287.58 -12.962 Q 287.804 -12.962 288.007 -13.018 Q 288.21 -13.074 288.364 -13.144 L 288.588 -12.29 Q 288.308 -12.192 287.993 -12.115 Q 287.678 -12.038 287.314 -12.038 Z " fill="black" /><path d="M 291.374 -12.038 L 291.374 -12.038 Q 290.562 -12.038 290.009 -12.535 Q 289.456 -13.032 289.456 -13.928 Q 289.456 -15.02 290.422 -15.601 Q 291.388 -16.182 293.502 -16.406 Q 293.502 -16.84 293.39 -17.218 Q 293.278 -17.596 292.977 -17.834 Q 292.676 -18.072 292.13 -18.072 Q 291.584 -18.072 291.08 -17.848 Q 290.576 -17.624 290.184 -17.372 L 289.736 -18.142 Q 290.198 -18.45 290.87 -18.723 Q 291.542 -18.996 292.326 -18.996 Q 293.53 -18.996 294.076 -18.261 Q 294.622 -17.526 294.622 -16.28 L 294.622 -12.206 L 293.698 -12.206 L 293.6 -13.004 L 293.572 -13.004 Q 293.096 -12.612 292.55 -12.325 Q 292.004 -12.038 291.374 -12.038 Z M 291.71 -12.948 L 291.71 -12.948 Q 292.186 -12.948 292.606 -13.179 Q 293.026 -13.41 293.502 -13.816 L 293.502 -15.664 Q 291.878 -15.468 291.213 -15.062 Q 290.548 -14.656 290.548 -13.998 Q 290.548 -13.452 290.891 -13.2 Q 291.234 -12.948 291.71 -12.948 Z " fill="black" /><path d="M 298.934 -9 L 298.934 -9 Q 297.716 -9 296.96 -9.49 Q 296.204 -9.98 296.204 -10.834 Q 296.204 -11.324 296.456 -11.723 Q 296.708 -12.122 297.17 -12.43 L 297.17 -12.486 Q 296.918 -12.64 296.743 -12.913 Q 296.568 -13.186 296.568 -13.55 Q 296.568 -13.998 296.806 -14.313 Q 297.044 -14.628 297.31 -14.81 L 297.31 -14.852 Q 296.974 -15.118 296.708 -15.58 Q 296.442 -16.042 296.442 -16.672 Q 296.442 -17.372 296.785 -17.897 Q 297.128 -18.422 297.695 -18.709 Q 298.262 -18.996 298.92 -18.996 Q 299.2 -18.996 299.445 -18.947 Q 299.69 -18.898 299.872 -18.828 L 302.168 -18.828 L 302.168 -17.96 L 300.824 -17.96 Q 301.048 -17.736 301.188 -17.386 Q 301.328 -17.036 301.328 -16.574 Q 301.328 -15.888 300.999 -15.377 Q 300.67 -14.866 300.138 -14.586 Q 299.606 -14.306 298.976 -14.306 Q 298.416 -14.306 297.94 -14.53 Q 297.758 -14.39 297.639 -14.215 Q 297.52 -14.04 297.52 -13.76 Q 297.52 -13.438 297.772 -13.235 Q 298.024 -13.032 298.668 -13.032 L 299.956 -13.032 Q 302.252 -13.032 302.252 -11.45 Q 302.252 -10.764 301.846 -10.211 Q 301.44 -9.658 300.698 -9.329 Q 299.956 -9 298.934 -9 Z M 299.032 -9.77 L 299.032 -9.77 Q 300.026 -9.77 300.593 -10.211 Q 301.16 -10.652 301.16 -11.254 Q 301.16 -11.716 300.81 -11.912 Q 300.46 -12.108 299.844 -12.108 L 298.696 -12.108 Q 298.514 -12.108 298.29 -12.129 Q 298.066 -12.15 297.842 -12.206 Q 297.492 -11.94 297.331 -11.639 Q 297.17 -11.338 297.17 -11.03 Q 297.17 -10.456 297.681 -10.113 Q 298.192 -9.77 299.032 -9.77 Z M 298.92 -15.062 L 298.92 -15.062 Q 299.494 -15.062 299.907 -15.489 Q 300.32 -15.916 300.32 -16.644 Q 300.32 -17.358 299.914 -17.771 Q 299.508 -18.184 298.92 -18.184 Q 298.346 -18.184 297.933 -17.778 Q 297.52 -17.372 297.52 -16.644 Q 297.52 -15.916 297.94 -15.489 Q 298.36 -15.062 298.92 -15.062 Z " fill="black" /><path d="M 306.214 -12.038 L 306.214 -12.038 Q 305.332 -12.038 304.611 -12.451 Q 303.89 -12.864 303.463 -13.641 Q 303.036 -14.418 303.036 -15.496 Q 303.036 -16.588 303.456 -17.372 Q 303.876 -18.156 304.569 -18.576 Q 305.262 -18.996 306.074 -18.996 Q 307.25 -18.996 307.943 -18.156 Q 308.636 -17.316 308.636 -15.888 Q 308.636 -15.706 308.622 -15.545 Q 308.608 -15.384 308.58 -15.258 L 304.142 -15.258 Q 304.212 -14.194 304.8 -13.564 Q 305.388 -12.934 306.34 -12.934 Q 306.802 -12.934 307.208 -13.081 Q 307.614 -13.228 307.978 -13.466 L 308.37 -12.738 Q 307.936 -12.444 307.404 -12.241 Q 306.872 -12.038 306.214 -12.038 Z M 304.142 -16.056 L 304.142 -16.056 L 307.656 -16.056 Q 307.656 -17.05 307.229 -17.575 Q 306.802 -18.1 306.06 -18.1 Q 305.332 -18.1 304.793 -17.582 Q 304.254 -17.064 304.142 -16.056 Z " fill="black" /></g></g></g><g><g><g><path d="M 332.48 -25.368 L 332.48 -25.368 L 329.484 -34.566 L 330.758 -34.566 L 332.27 -29.61 Q 332.508 -28.798 332.704 -28.091 Q 332.9 -27.384 333.166 -26.572 L 333.236 -26.572 Q 333.488 -27.384 333.691 -28.091 Q 333.894 -28.798 334.132 -29.61 L 335.63 -34.566 L 336.848 -34.566 L 333.866 -25.368 Z " fill="black" /><path d="M 341.692 -25.2 L 341.692 -25.2 Q 340.53 -25.2 339.599 -25.767 Q 338.668 -26.334 338.136 -27.398 Q 337.604 -28.462 337.604 -29.932 Q 337.604 -31.43 338.15 -32.501 Q 338.696 -33.572 339.627 -34.146 Q 340.558 -34.72 341.706 -34.72 Q 342.686 -34.72 343.316 -34.363 Q 343.946 -34.006 344.338 -33.586 L 343.68 -32.816 Q 342.868 -33.684 341.748 -33.684 Q 340.894 -33.684 340.236 -33.236 Q 339.578 -32.788 339.207 -31.955 Q 338.836 -31.122 338.836 -29.96 Q 338.836 -28.826 339.193 -27.993 Q 339.55 -27.16 340.201 -26.705 Q 340.852 -26.25 341.734 -26.25 Q 342.406 -26.25 342.938 -26.523 Q 343.47 -26.796 343.918 -27.272 L 344.562 -26.53 Q 344.002 -25.9 343.302 -25.55 Q 342.602 -25.2 341.692 -25.2 Z " fill="black" /><path d="M 349.784 -25.2 L 349.784 -25.2 Q 348.608 -25.2 347.705 -25.781 Q 346.802 -26.362 346.291 -27.44 Q 345.78 -28.518 345.78 -30.002 Q 345.78 -31.472 346.291 -32.529 Q 346.802 -33.586 347.705 -34.153 Q 348.608 -34.72 349.784 -34.72 Q 350.974 -34.72 351.877 -34.153 Q 352.78 -33.586 353.291 -32.529 Q 353.802 -31.472 353.802 -30.002 Q 353.802 -28.532 353.291 -27.454 Q 352.78 -26.376 351.877 -25.788 Q 350.974 -25.2 349.784 -25.2 Z M 349.784 -26.25 L 349.784 -26.25 Q 350.624 -26.25 351.247 -26.712 Q 351.87 -27.174 352.213 -28.021 Q 352.556 -28.868 352.556 -30.002 Q 352.556 -31.71 351.8 -32.697 Q 351.044 -33.684 349.784 -33.684 Q 348.524 -33.684 347.768 -32.697 Q 347.012 -31.71 347.012 -30.002 Q 347.012 -28.868 347.355 -28.021 Q 347.698 -27.174 348.321 -26.712 Q 348.944 -26.25 349.784 -26.25 Z " fill="black" /></g></g></g><circle cx="396.0" cy="-0.0" r="2.6999999999999997" style="stroke:black;fill:black;stroke-width:2.0;stroke-dasharray:-;" /><g><g><g><path d="M 438.26 -3.136 L 438.26 -3.136 L 439.464 -3.136 Q 439.59 -3.724 439.737 -4.27 Q 439.884 -4.816 440.122 -5.25 Q 440.304 -5.586 440.57 -5.88 Q 440.836 -6.174 441.249 -6.363 Q 441.662 -6.552 442.264 -6.552 Q 442.908 -6.552 443.251 -6.265 Q 443.594 -5.978 443.594 -5.53 Q 443.594 -5.222 443.426 -5.068 Q 443.258 -4.914 443.034 -4.914 Q 442.754 -4.914 442.628 -5.075 Q 442.502 -5.236 442.474 -5.46 Q 442.432 -5.726 442.369 -5.936 Q 442.306 -6.146 442.054 -6.146 Q 441.522 -6.146 441.228 -5.586 Q 440.934 -5.026 440.78 -4.13 L 440.612 -3.136 L 441.942 -3.136 L 441.858 -2.562 L 440.542 -2.562 L 439.744 2.212 Q 439.688 2.576 439.569 3.122 Q 439.45 3.668 439.24 4.263 Q 439.03 4.858 438.729 5.376 Q 438.428 5.894 437.994 6.223 Q 437.56 6.552 436.986 6.552 Q 436.314 6.552 436.027 6.23 Q 435.74 5.908 435.74 5.544 Q 435.74 5.25 435.887 5.054 Q 436.034 4.858 436.3 4.858 Q 436.622 4.858 436.734 5.047 Q 436.846 5.236 436.874 5.481 Q 436.902 5.726 436.958 5.915 Q 437.014 6.104 437.21 6.104 Q 437.49 6.104 437.7 5.74 Q 437.91 5.376 438.064 4.837 Q 438.218 4.298 438.316 3.766 Q 438.414 3.234 438.47 2.884 L 439.38 -2.562 L 438.204 -2.562 Z " fill="black" /><path d="M 443.92 1.197 L 443.92 1.197 Q 444.655 1.197 445.204 1.516 Q 445.753 1.834 446.052 2.407 Q 446.351 2.981 446.351 3.755 Q 446.351 4.686 446.037 5.284 Q 445.723 5.881 445.175 6.171 Q 444.626 6.46 443.92 6.46 Q 443.205 6.46 442.651 6.161 Q 442.097 5.862 441.789 5.264 Q 441.48 4.666 441.48 3.765 Q 441.48 3 441.784 2.422 Q 442.088 1.844 442.636 1.52 Q 443.185 1.197 443.92 1.197 Z M 443.901 1.648 L 443.901 1.648 Q 443.254 1.648 442.886 2.172 Q 442.519 2.696 442.519 3.706 Q 442.519 4.95 442.896 5.465 Q 443.273 5.979 443.95 5.979 Q 444.381 5.97 444.685 5.764 Q 444.988 5.558 445.15 5.073 Q 445.312 4.588 445.312 3.755 Q 445.312 2.755 444.969 2.202 Q 444.626 1.648 443.901 1.648 Z " fill="black" /><path d="M 453.015 5.842 L 453.015 5.842 L 453.015 6.215 L 451.692 6.391 L 451.378 6.391 L 451.378 5.627 L 451.28 5.627 Q 450.908 5.96 450.525 6.2 Q 450.143 6.44 449.604 6.44 Q 448.879 6.44 448.497 5.999 Q 448.115 5.558 448.115 4.47 L 448.115 2.363 Q 448.115 1.961 447.972 1.868 Q 447.83 1.775 447.38 1.775 L 447.38 1.422 L 448.742 1.236 L 449.065 1.236 L 449.065 4.343 Q 449.065 4.892 449.193 5.195 Q 449.32 5.499 449.536 5.617 Q 449.751 5.734 450.006 5.734 Q 450.437 5.734 450.726 5.553 Q 451.015 5.372 451.329 5.117 L 451.329 2.363 Q 451.329 1.961 451.153 1.868 Q 450.976 1.775 450.476 1.775 L 450.476 1.422 L 451.937 1.236 L 452.28 1.236 L 452.28 5.205 Q 452.28 5.499 452.333 5.636 Q 452.387 5.774 452.525 5.808 Q 452.662 5.842 452.907 5.842 Z " fill="black" /><path d="M 456.837 5.362 L 456.837 5.362 L 457.062 5.548 Q 456.846 5.842 456.67 6.043 Q 456.494 6.244 456.268 6.352 Q 456.043 6.46 455.69 6.46 Q 455.122 6.46 454.862 6.136 Q 454.602 5.813 454.602 5.097 L 454.602 1.805 L 453.985 1.805 L 453.985 1.511 Q 454.338 1.256 454.632 0.888 Q 454.926 0.521 455.22 -0.165 L 455.563 -0.165 L 455.553 1.324 L 456.797 1.324 L 456.797 1.805 L 455.553 1.805 L 455.553 4.774 Q 455.553 5.323 455.656 5.553 Q 455.759 5.783 456.072 5.783 Q 456.356 5.783 456.503 5.681 Q 456.65 5.578 456.837 5.362 Z " fill="black" /></g></g></g><g><g><g><path d="M 257.12 76.599 L 257.12 76.599 L 257.12 67.401 L 258.562 67.401 L 260.368 72.301 Q 260.536 72.763 260.697 73.246 Q 260.858 73.729 261.04 74.205 L 261.082 74.205 Q 261.25 73.729 261.411 73.246 Q 261.572 72.763 261.74 72.301 L 263.518 67.401 L 264.96 67.401 L 264.96 76.599 L 263.84 76.599 L 263.84 71.587 Q 263.84 70.971 263.889 70.215 Q 263.938 69.459 263.994 68.857 L 263.938 68.857 L 263.196 70.957 L 261.432 75.675 L 260.634 75.675 L 258.856 70.957 L 258.114 68.857 L 258.058 68.857 Q 258.114 69.459 258.163 70.215 Q 258.212 70.971 258.212 71.587 L 258.212 76.599 Z " fill="black" /><path d="M 267.522 76.599 L 267.522 76.599 L 267.522 67.401 L 268.964 67.401 L 270.77 72.301 Q 270.938 72.763 271.099 73.246 Q 271.26 73.729 271.442 74.205 L 271.484 74.205 Q 271.652 73.729 271.813 73.246 Q 271.974 72.763 272.142 72.301 L 273.92 67.401 L 275.362 67.401 L 275.362 76.599 L 274.242 76.599 L 274.242 71.587 Q 274.242 70.971 274.291 70.215 Q 274.34 69.459 274.396 68.857 L 274.34 68.857 L 273.598 70.957 L 271.834 75.675 L 271.036 75.675 L 269.258 70.957 L 268.516 68.857 L 268.46 68.857 Q 268.516 69.459 268.565 70.215 Q 268.614 70.971 268.614 71.587 L 268.614 76.599 Z " fill="black" /><path d="M 277.924 76.599 L 277.924 76.599 L 277.924 67.401 L 280.276 67.401 Q 282.446 67.401 283.58 68.584 Q 284.714 69.767 284.714 71.965 Q 284.714 74.163 283.587 75.381 Q 282.46 76.599 280.332 76.599 Z M 279.128 75.619 L 279.128 75.619 L 280.192 75.619 Q 281.844 75.619 282.663 74.66 Q 283.482 73.701 283.482 71.965 Q 283.482 70.229 282.663 69.305 Q 281.844 68.381 280.192 68.381 L 279.128 68.381 Z " fill="black" /></g></g></g><circle cx="126.0" cy="71.99999999999996" r="2.6999999999999997" style="stroke:black;fill:black;stroke-width:2.0;stroke-dasharray:-;" /><g><g><g><path d="M 146.415 56.012 L 146.415 56.012 L 147.619 56.012 Q 147.745 55.424 147.892 54.878 Q 148.039 54.332 148.277 53.898 Q 148.459 53.562 148.725 53.268 Q 148.991 52.974 149.404 52.785 Q 149.817 52.596 150.419 52.596 Q 151.063 52.596 151.406 52.883 Q 151.749 53.17 151.749 53.618 Q 151.749 53.926 151.581 54.08 Q 151.413 54.234 151.189 54.234 Q 150.909 54.234 150.783 54.073 Q 150.657 53.912 150.629 53.688 Q 150.587 53.422 150.524 53.212 Q 150.461 53.002 150.209 53.002 Q 149.677 53.002 149.383 53.562 Q 149.089 54.122 148.935 55.018 L 148.767 56.012 L 150.097 56.012 L 150.013 56.586 L 148.697 56.586 L 147.899 61.36 Q 147.843 61.724 147.724 62.27 Q 147.605 62.816 147.395 63.411 Q 147.185 64.006 146.884 64.524 Q 146.583 65.042 146.149 65.371 Q 145.715 65.7 145.141 65.7 Q 144.469 65.7 144.182 65.378 Q 143.895 65.056 143.895 64.692 Q 143.895 64.398 144.042 64.202 Q 144.189 64.006 144.455 64.006 Q 144.777 64.006 144.889 64.195 Q 145.001 64.384 145.029 64.629 Q 145.057 64.874 145.113 65.063 Q 145.169 65.252 145.365 65.252 Q 145.645 65.252 145.855 64.888 Q 146.065 64.524 146.219 63.985 Q 146.373 63.446 146.471 62.914 Q 146.569 62.382 146.625 62.032 L 147.535 56.586 L 146.359 56.586 Z " fill="black" /><path d="M 152.076 60.345 L 152.076 60.345 Q 152.811 60.345 153.359 60.663 Q 153.908 60.982 154.207 61.555 Q 154.506 62.129 154.506 62.903 Q 154.506 63.834 154.192 64.432 Q 153.879 65.029 153.33 65.318 Q 152.781 65.608 152.076 65.608 Q 151.36 65.608 150.807 65.309 Q 150.253 65.01 149.944 64.412 Q 149.635 63.814 149.635 62.913 Q 149.635 62.148 149.939 61.57 Q 150.243 60.992 150.792 60.668 Q 151.341 60.345 152.076 60.345 Z M 152.056 60.796 L 152.056 60.796 Q 151.409 60.796 151.042 61.32 Q 150.674 61.844 150.674 62.854 Q 150.674 64.098 151.052 64.613 Q 151.429 65.127 152.105 65.127 Q 152.536 65.118 152.84 64.912 Q 153.144 64.706 153.306 64.221 Q 153.467 63.736 153.467 62.903 Q 153.467 61.903 153.124 61.349 Q 152.781 60.796 152.056 60.796 Z " fill="black" /><path d="M 161.17 64.99 L 161.17 64.99 L 161.17 65.363 L 159.847 65.539 L 159.533 65.539 L 159.533 64.775 L 159.435 64.775 Q 159.063 65.108 158.681 65.348 Q 158.299 65.588 157.76 65.588 Q 157.034 65.588 156.652 65.147 Q 156.27 64.706 156.27 63.618 L 156.27 61.511 Q 156.27 61.109 156.128 61.016 Q 155.986 60.923 155.535 60.923 L 155.535 60.57 L 156.897 60.384 L 157.221 60.384 L 157.221 63.491 Q 157.221 64.04 157.348 64.343 Q 157.475 64.647 157.691 64.765 Q 157.907 64.882 158.161 64.882 Q 158.593 64.882 158.882 64.701 Q 159.171 64.52 159.484 64.265 L 159.484 61.511 Q 159.484 61.109 159.308 61.016 Q 159.132 60.923 158.632 60.923 L 158.632 60.57 L 160.092 60.384 L 160.435 60.384 L 160.435 64.353 Q 160.435 64.647 160.489 64.784 Q 160.543 64.922 160.68 64.956 Q 160.817 64.99 161.062 64.99 Z " fill="black" /><path d="M 164.992 64.51 L 164.992 64.51 L 165.217 64.696 Q 165.002 64.99 164.825 65.191 Q 164.649 65.392 164.424 65.5 Q 164.198 65.608 163.845 65.608 Q 163.277 65.608 163.017 65.284 Q 162.758 64.961 162.758 64.245 L 162.758 60.953 L 162.14 60.953 L 162.14 60.659 Q 162.493 60.404 162.787 60.036 Q 163.081 59.669 163.375 58.983 L 163.718 58.983 L 163.708 60.472 L 164.953 60.472 L 164.953 60.953 L 163.708 60.953 L 163.708 63.922 Q 163.708 64.471 163.811 64.701 Q 163.914 64.931 164.228 64.931 Q 164.512 64.931 164.659 64.828 Q 164.806 64.726 164.992 64.51 Z " fill="black" /><path d="M 170.386 52.624 L 170.386 52.624 L 166.746 63.796 L 165.962 63.796 L 169.616 52.624 Z " fill="black" /><path d="M 178.072 62.298 L 178.072 62.298 L 176.28 62.62 L 175.958 62.62 L 175.958 61.654 L 175.902 61.654 Q 175.51 62.004 174.971 62.333 Q 174.432 62.662 173.732 62.662 Q 172.948 62.662 172.409 62.242 Q 171.87 61.822 171.604 61.101 Q 171.338 60.38 171.338 59.484 Q 171.338 58.322 171.772 57.489 Q 172.206 56.656 172.941 56.208 Q 173.676 55.76 174.558 55.76 Q 174.908 55.76 175.251 55.837 Q 175.594 55.914 175.916 56.096 L 175.916 54.262 Q 175.916 53.8 175.811 53.66 Q 175.706 53.52 175.3 53.52 Q 175.202 53.52 175.069 53.534 Q 174.936 53.548 174.936 53.548 L 174.936 53.156 L 176.7 52.666 L 177.078 52.666 L 177.078 61.052 Q 177.078 61.598 177.232 61.759 Q 177.386 61.92 177.778 61.92 L 178.072 61.92 Z M 175.916 61.136 L 175.916 61.136 L 175.916 57.44 Q 175.832 57.006 175.51 56.663 Q 175.188 56.32 174.53 56.32 Q 173.648 56.32 173.102 56.964 Q 172.556 57.608 172.556 58.938 Q 172.556 60.38 173.025 61.017 Q 173.494 61.654 174.39 61.654 Q 174.88 61.654 175.216 61.521 Q 175.552 61.388 175.916 61.136 Z " fill="black" /><path d="M 182.02 62.158 L 182.02 62.158 L 182.02 62.55 L 178.87 62.55 L 178.87 62.158 Q 179.346 62.158 179.549 62.067 Q 179.752 61.976 179.801 61.752 Q 179.85 61.528 179.85 61.136 L 179.85 57.23 Q 179.85 56.782 179.696 56.677 Q 179.542 56.572 179.234 56.572 Q 179.094 56.572 178.989 56.586 Q 178.884 56.6 178.884 56.6 L 178.884 56.194 L 180.648 55.802 L 181.012 55.802 L 181.012 61.136 Q 181.012 61.542 181.068 61.766 Q 181.124 61.99 181.341 62.074 Q 181.558 62.158 182.02 62.158 Z M 180.452 53.128 L 180.452 53.128 Q 180.816 53.128 181.033 53.359 Q 181.25 53.59 181.25 53.912 Q 181.25 54.234 181.033 54.472 Q 180.816 54.71 180.452 54.71 Q 180.102 54.71 179.878 54.472 Q 179.654 54.234 179.654 53.912 Q 179.654 53.59 179.871 53.359 Q 180.088 53.128 180.452 53.128 Z " fill="black" /><path d="M 189.384 55.928 L 189.384 55.928 L 189.384 56.334 Q 188.978 56.334 188.761 56.523 Q 188.544 56.712 188.334 57.258 L 186.122 62.634 L 185.45 62.634 L 183.364 57.356 Q 183.182 56.922 183.042 56.705 Q 182.902 56.488 182.72 56.411 Q 182.538 56.334 182.23 56.334 L 182.23 55.928 L 185.184 55.928 L 185.184 56.334 Q 184.778 56.334 184.617 56.425 Q 184.456 56.516 184.456 56.684 Q 184.456 56.824 184.498 56.95 Q 184.54 57.076 184.596 57.23 L 185.786 60.352 L 186.052 61.192 L 186.136 61.192 L 186.43 60.338 L 187.634 57.174 Q 187.648 57.118 187.69 56.999 Q 187.732 56.88 187.732 56.712 Q 187.732 56.474 187.522 56.404 Q 187.312 56.334 186.934 56.334 L 186.934 55.928 Z " fill="black" /><path d="M 193.332 65.294 L 193.332 65.294 L 190.406 65.294 L 190.406 52.246 L 193.332 52.246 L 193.332 52.694 L 191.512 52.694 L 191.512 64.846 L 193.332 64.846 Z " fill="black" /><path d="M 197.616 52.68 L 197.616 52.68 L 196.37 59.218 L 196.44 59.218 L 198.624 57.244 Q 198.778 57.118 198.869 56.992 Q 198.96 56.866 198.96 56.726 Q 198.96 56.502 198.771 56.432 Q 198.582 56.362 198.33 56.362 L 198.372 56.012 L 201.382 56.012 L 201.34 56.362 Q 200.626 56.376 200.234 56.628 Q 199.842 56.88 199.492 57.202 L 197.938 58.574 L 198.974 60.982 Q 199.128 61.332 199.275 61.535 Q 199.422 61.738 199.73 61.738 Q 200.094 61.738 200.353 61.493 Q 200.612 61.248 200.836 60.926 L 201.13 61.122 Q 201.074 61.22 200.92 61.472 Q 200.766 61.724 200.514 62.004 Q 200.262 62.284 199.933 62.487 Q 199.604 62.69 199.198 62.69 Q 198.848 62.69 198.624 62.522 Q 198.4 62.354 198.267 62.102 Q 198.134 61.85 198.022 61.598 L 197.056 59.26 L 196.244 59.974 L 195.754 62.55 L 194.606 62.55 L 196.258 54.038 Q 196.258 54.038 196.279 53.898 Q 196.3 53.758 196.3 53.618 Q 196.3 53.17 195.81 53.17 Q 195.684 53.17 195.53 53.184 Q 195.376 53.198 195.376 53.198 L 195.376 52.834 L 197.308 52.68 Z " fill="black" /><path d="M 214.853 59.4 L 214.853 59.4 L 206.509 59.4 L 206.509 58.448 L 214.853 58.448 Z " fill="black" /><path d="M 225.833 62.55 L 225.833 62.55 L 220.989 62.55 L 220.989 62.158 Q 221.983 62.158 222.389 61.948 Q 222.795 61.738 222.795 61.22 L 222.795 55.298 Q 222.795 54.934 222.697 54.773 Q 222.599 54.612 222.333 54.612 Q 222.123 54.612 221.675 54.668 Q 221.227 54.724 220.905 54.836 L 220.905 54.374 L 223.621 53.604 L 224.027 53.604 L 224.027 61.22 Q 224.027 61.738 224.447 61.948 Q 224.867 62.158 225.833 62.158 Z " fill="black" /><path d="M 230.425 65.294 L 230.425 65.294 L 227.499 65.294 L 227.499 64.846 L 229.319 64.846 L 229.319 52.694 L 227.499 52.694 L 227.499 52.246 L 230.425 52.246 Z " fill="black" /></g></g></g><g><g><g><path d="M 168.499 130.592 L 168.499 130.592 L 168.499 121.394 L 170.851 121.394 Q 173.021 121.394 174.155 122.577 Q 175.289 123.76 175.289 125.958 Q 175.289 128.156 174.162 129.374 Q 173.035 130.592 170.907 130.592 Z M 169.703 129.612 L 169.703 129.612 L 170.767 129.612 Q 172.419 129.612 173.238 128.653 Q 174.057 127.694 174.057 125.958 Q 174.057 124.222 173.238 123.298 Q 172.419 122.374 170.767 122.374 L 169.703 122.374 Z " fill="black" /><path d="M 179.937 130.76 L 179.937 130.76 Q 178.929 130.76 178.096 130.389 Q 177.263 130.018 176.647 129.402 L 177.361 128.576 Q 177.865 129.094 178.544 129.402 Q 179.223 129.71 179.993 129.71 Q 180.889 129.71 181.4 129.304 Q 181.911 128.898 181.911 128.212 Q 181.911 127.764 181.708 127.484 Q 181.505 127.204 181.148 127.008 Q 180.791 126.812 180.343 126.63 L 178.999 126.056 Q 178.593 125.874 178.145 125.587 Q 177.697 125.3 177.396 124.845 Q 177.095 124.39 177.095 123.718 Q 177.095 122.99 177.48 122.43 Q 177.865 121.87 178.53 121.555 Q 179.195 121.24 180.035 121.24 Q 180.889 121.24 181.603 121.555 Q 182.317 121.87 182.821 122.374 L 182.191 123.144 Q 181.743 122.738 181.218 122.507 Q 180.693 122.276 180.063 122.276 Q 179.265 122.276 178.789 122.633 Q 178.313 122.99 178.313 123.606 Q 178.313 124.04 178.544 124.32 Q 178.775 124.6 179.132 124.782 Q 179.489 124.964 179.867 125.118 L 181.197 125.678 Q 181.729 125.902 182.17 126.217 Q 182.611 126.532 182.87 126.994 Q 183.129 127.456 183.129 128.1 Q 183.129 128.856 182.744 129.458 Q 182.359 130.06 181.645 130.41 Q 180.931 130.76 179.937 130.76 Z " fill="black" /><path d="M 184.963 130.592 L 184.963 130.592 L 184.963 121.394 L 186.405 121.394 L 188.211 126.294 Q 188.379 126.756 188.54 127.239 Q 188.701 127.722 188.883 128.198 L 188.925 128.198 Q 189.093 127.722 189.254 127.239 Q 189.415 126.756 189.583 126.294 L 191.361 121.394 L 192.803 121.394 L 192.803 130.592 L 191.683 130.592 L 191.683 125.58 Q 191.683 124.964 191.732 124.208 Q 191.781 123.452 191.837 122.85 L 191.781 122.85 L 191.039 124.95 L 189.275 129.668 L 188.477 129.668 L 186.699 124.95 L 185.957 122.85 L 185.901 122.85 Q 185.957 123.452 186.006 124.208 Q 186.055 124.964 186.055 125.58 L 186.055 130.592 Z " fill="black" /></g></g></g><g><g><g><path d="M 223.675 119.404 L 223.675 119.404 L 221.883 119.726 L 221.561 119.726 L 221.561 118.76 L 221.505 118.76 Q 221.113 119.11 220.574 119.439 Q 220.035 119.768 219.335 119.768 Q 218.551 119.768 218.012 119.348 Q 217.473 118.928 217.207 118.207 Q 216.941 117.486 216.941 116.59 Q 216.941 115.428 217.375 114.595 Q 217.809 113.762 218.544 113.314 Q 219.279 112.866 220.161 112.866 Q 220.511 112.866 220.854 112.943 Q 221.197 113.02 221.519 113.202 L 221.519 111.368 Q 221.519 110.906 221.414 110.766 Q 221.309 110.626 220.903 110.626 Q 220.805 110.626 220.672 110.64 Q 220.539 110.654 220.539 110.654 L 220.539 110.262 L 222.303 109.772 L 222.681 109.772 L 222.681 118.158 Q 222.681 118.704 222.835 118.865 Q 222.989 119.026 223.381 119.026 L 223.675 119.026 Z M 221.519 118.242 L 221.519 118.242 L 221.519 114.546 Q 221.435 114.112 221.113 113.769 Q 220.791 113.426 220.133 113.426 Q 219.251 113.426 218.705 114.07 Q 218.159 114.714 218.159 116.044 Q 218.159 117.486 218.628 118.123 Q 219.097 118.76 219.993 118.76 Q 220.483 118.76 220.819 118.627 Q 221.155 118.494 221.519 118.242 Z " fill="black" /><path d="M 227.623 119.264 L 227.623 119.264 L 227.623 119.656 L 224.473 119.656 L 224.473 119.264 Q 224.949 119.264 225.152 119.173 Q 225.355 119.082 225.404 118.858 Q 225.453 118.634 225.453 118.242 L 225.453 114.336 Q 225.453 113.888 225.299 113.783 Q 225.145 113.678 224.837 113.678 Q 224.697 113.678 224.592 113.692 Q 224.487 113.706 224.487 113.706 L 224.487 113.3 L 226.251 112.908 L 226.615 112.908 L 226.615 118.242 Q 226.615 118.648 226.671 118.872 Q 226.727 119.096 226.944 119.18 Q 227.161 119.264 227.623 119.264 Z M 226.055 110.234 L 226.055 110.234 Q 226.419 110.234 226.636 110.465 Q 226.853 110.696 226.853 111.018 Q 226.853 111.34 226.636 111.578 Q 226.419 111.816 226.055 111.816 Q 225.705 111.816 225.481 111.578 Q 225.257 111.34 225.257 111.018 Q 225.257 110.696 225.474 110.465 Q 225.691 110.234 226.055 110.234 Z " fill="black" /><path d="M 234.987 113.034 L 234.987 113.034 L 234.987 113.44 Q 234.581 113.44 234.364 113.629 Q 234.147 113.818 233.937 114.364 L 231.725 119.74 L 231.053 119.74 L 228.967 114.462 Q 228.785 114.028 228.645 113.811 Q 228.505 113.594 228.323 113.517 Q 228.141 113.44 227.833 113.44 L 227.833 113.034 L 230.787 113.034 L 230.787 113.44 Q 230.381 113.44 230.22 113.531 Q 230.059 113.622 230.059 113.79 Q 230.059 113.93 230.101 114.056 Q 230.143 114.182 230.199 114.336 L 231.389 117.458 L 231.655 118.298 L 231.739 118.298 L 232.033 117.444 L 233.237 114.28 Q 233.251 114.224 233.293 114.105 Q 233.335 113.986 233.335 113.818 Q 233.335 113.58 233.125 113.51 Q 232.915 113.44 232.537 113.44 L 232.537 113.034 Z " fill="black" /><path d="M 238.935 122.4 L 238.935 122.4 L 236.009 122.4 L 236.009 109.352 L 238.935 109.352 L 238.935 109.8 L 237.115 109.8 L 237.115 121.952 L 238.935 121.952 Z " fill="black" /><path d="M 243.219 109.786 L 243.219 109.786 L 241.973 116.324 L 242.043 116.324 L 244.227 114.35 Q 244.381 114.224 244.472 114.098 Q 244.563 113.972 244.563 113.832 Q 244.563 113.608 244.374 113.538 Q 244.185 113.468 243.933 113.468 L 243.975 113.118 L 246.985 113.118 L 246.943 113.468 Q 246.229 113.482 245.837 113.734 Q 245.445 113.986 245.095 114.308 L 243.541 115.68 L 244.577 118.088 Q 244.731 118.438 244.878 118.641 Q 245.025 118.844 245.333 118.844 Q 245.697 118.844 245.956 118.599 Q 246.215 118.354 246.439 118.032 L 246.733 118.228 Q 246.677 118.326 246.523 118.578 Q 246.369 118.83 246.117 119.11 Q 245.865 119.39 245.536 119.593 Q 245.207 119.796 244.801 119.796 Q 244.451 119.796 244.227 119.628 Q 244.003 119.46 243.87 119.208 Q 243.737 118.956 243.625 118.704 L 242.659 116.366 L 241.847 117.08 L 241.357 119.656 L 240.209 119.656 L 241.861 111.144 Q 241.861 111.144 241.882 111.004 Q 241.903 110.864 241.903 110.724 Q 241.903 110.276 241.413 110.276 Q 241.287 110.276 241.133 110.29 Q 240.979 110.304 240.979 110.304 L 240.979 109.94 L 242.911 109.786 Z " fill="black" /><path d="M 250.723 122.4 L 250.723 122.4 L 247.797 122.4 L 247.797 121.952 L 249.617 121.952 L 249.617 109.8 L 247.797 109.8 L 247.797 109.352 L 250.723 109.352 Z " fill="black" /></g></g></g><g><g><g><path d="M 179.727 166.356 L 179.727 166.356 L 179.643 166.776 Q 179.265 166.776 179.062 166.846 Q 178.859 166.916 178.705 167.056 Q 178.579 167.168 178.453 167.329 Q 178.327 167.49 178.215 167.798 Q 178.103 168.106 177.991 168.652 L 176.563 175.666 L 176.101 175.666 L 171.985 168.148 L 171.915 168.148 L 170.823 173.468 Q 170.683 174.168 170.711 174.525 Q 170.739 174.882 170.998 175.008 Q 171.257 175.134 171.775 175.134 L 171.691 175.554 L 168.471 175.554 L 168.555 175.134 Q 169.101 175.134 169.395 175.015 Q 169.689 174.896 169.843 174.532 Q 169.997 174.168 170.137 173.468 L 171.383 167.42 Q 171.145 167.028 170.907 166.902 Q 170.669 166.776 170.221 166.776 L 170.305 166.356 L 172.503 166.356 L 176.283 173.244 L 176.353 173.244 L 177.319 168.582 Q 177.445 167.952 177.452 167.63 Q 177.459 167.308 177.361 167.126 Q 177.235 166.916 177.011 166.846 Q 176.787 166.776 176.339 166.776 L 176.423 166.356 Z " fill="black" /><path d="M 182.289 174.854 L 182.289 174.854 Q 182.289 175.176 182.065 175.421 Q 181.841 175.666 181.421 175.666 Q 181.001 175.666 180.798 175.428 Q 180.595 175.19 180.595 174.84 Q 180.595 174.476 180.819 174.217 Q 181.043 173.958 181.435 173.958 Q 181.841 173.958 182.065 174.224 Q 182.289 174.49 182.289 174.854 Z " fill="black" /><path d="M 185.817 169.016 L 185.817 169.016 L 187.021 169.016 Q 187.147 168.428 187.294 167.882 Q 187.441 167.336 187.679 166.902 Q 187.861 166.566 188.127 166.272 Q 188.393 165.978 188.806 165.789 Q 189.219 165.6 189.821 165.6 Q 190.465 165.6 190.808 165.887 Q 191.151 166.174 191.151 166.622 Q 191.151 166.93 190.983 167.084 Q 190.815 167.238 190.591 167.238 Q 190.311 167.238 190.185 167.077 Q 190.059 166.916 190.031 166.692 Q 189.989 166.426 189.926 166.216 Q 189.863 166.006 189.611 166.006 Q 189.079 166.006 188.785 166.566 Q 188.491 167.126 188.337 168.022 L 188.169 169.016 L 189.499 169.016 L 189.415 169.59 L 188.099 169.59 L 187.301 174.364 Q 187.245 174.728 187.126 175.274 Q 187.007 175.82 186.797 176.415 Q 186.587 177.01 186.286 177.528 Q 185.985 178.046 185.551 178.375 Q 185.117 178.704 184.543 178.704 Q 183.871 178.704 183.584 178.382 Q 183.297 178.06 183.297 177.696 Q 183.297 177.402 183.444 177.206 Q 183.591 177.01 183.857 177.01 Q 184.179 177.01 184.291 177.199 Q 184.403 177.388 184.431 177.633 Q 184.459 177.878 184.515 178.067 Q 184.571 178.256 184.767 178.256 Q 185.047 178.256 185.257 177.892 Q 185.467 177.528 185.621 176.989 Q 185.775 176.45 185.873 175.918 Q 185.971 175.386 186.027 175.036 L 186.937 169.59 L 185.761 169.59 Z " fill="black" /></g></g></g></svg>